<svg width="1440" height="1024" viewBox="0 0 1440 1024" fill="none" xmlns="http://www.w3.org/2000/svg">
<g id="device3-no" clip-path="url(#clip0_142_1161)">
<rect width="1440" height="1024" fill="#333148"/>
<path id="part 4" d="M47.096 132.12V60.024H61.688L62.264 71.448L59.384 70.584C59.832 68.536 61.048 66.648 63.032 64.92C65.016 63.192 67.512 61.784 70.52 60.696C73.592 59.608 76.856 59.064 80.312 59.064C85.304 59.064 89.688 60.216 93.464 62.52C97.24 64.76 100.184 67.864 102.296 71.832C104.472 75.736 105.56 80.28 105.56 85.464C105.56 90.584 104.472 95.128 102.296 99.096C100.184 103.064 97.208 106.2 93.368 108.504C89.528 110.744 85.112 111.864 80.12 111.864C76.664 111.864 73.432 111.288 70.424 110.136C67.416 108.984 64.888 107.48 62.84 105.624C60.856 103.768 59.576 101.816 59 99.768L62.552 98.424V132.12H47.096ZM76.376 98.904C79.256 98.904 81.752 98.36 83.864 97.272C85.976 96.12 87.608 94.552 88.76 92.568C89.976 90.584 90.584 88.216 90.584 85.464C90.584 82.776 89.976 80.44 88.76 78.456C87.608 76.408 85.976 74.84 83.864 73.752C81.816 72.6 79.32 72.024 76.376 72.024C73.496 72.024 70.968 72.568 68.792 73.656C66.68 74.744 65.016 76.312 63.8 78.36C62.648 80.408 62.072 82.776 62.072 85.464C62.072 88.216 62.648 90.584 63.8 92.568C65.016 94.552 66.68 96.12 68.792 97.272C70.968 98.36 73.496 98.904 76.376 98.904ZM144.211 111.864C139.155 111.864 134.739 110.744 130.963 108.504C127.187 106.264 124.211 103.16 122.035 99.192C119.923 95.16 118.867 90.584 118.867 85.464C118.867 80.28 119.955 75.704 122.131 71.736C124.307 67.768 127.315 64.664 131.155 62.424C135.059 60.12 139.539 58.968 144.595 58.968C147.475 58.968 150.131 59.352 152.563 60.12C154.995 60.824 157.107 61.816 158.899 63.096C160.755 64.376 162.259 65.784 163.411 67.32C164.627 68.856 165.427 70.456 165.811 72.12H162.451V60.024H177.619V111H162.163V97.944L165.427 98.424C165.043 100.088 164.243 101.72 163.027 103.32C161.811 104.92 160.243 106.36 158.323 107.64C156.403 108.92 154.227 109.944 151.795 110.712C149.427 111.48 146.899 111.864 144.211 111.864ZM148.339 98.904C151.219 98.904 153.715 98.36 155.827 97.272C158.003 96.184 159.667 94.648 160.819 92.664C162.035 90.616 162.643 88.216 162.643 85.464C162.643 82.776 162.035 80.44 160.819 78.456C159.667 76.408 158.003 74.808 155.827 73.656C153.715 72.504 151.219 71.928 148.339 71.928C145.459 71.928 142.963 72.504 140.851 73.656C138.739 74.808 137.075 76.408 135.859 78.456C134.707 80.44 134.131 82.776 134.131 85.464C134.131 88.216 134.707 90.616 135.859 92.664C137.075 94.648 138.739 96.184 140.851 97.272C142.963 98.36 145.459 98.904 148.339 98.904ZM201.315 111V60.024H215.907L216.579 77.592L212.931 75.768C213.763 72.632 215.203 69.816 217.251 67.32C219.363 64.76 221.763 62.744 224.451 61.272C227.203 59.736 230.115 58.968 233.187 58.968C234.851 58.968 236.419 59.128 237.891 59.448C239.427 59.768 240.739 60.184 241.827 60.696L237.603 77.496C236.643 76.792 235.331 76.248 233.667 75.864C232.067 75.48 230.435 75.288 228.771 75.288C226.915 75.288 225.219 75.608 223.683 76.248C222.211 76.824 220.963 77.656 219.939 78.744C218.915 79.768 218.115 80.952 217.539 82.296C217.027 83.64 216.771 85.08 216.771 86.616V111H201.315ZM265.932 111V46.008H281.292V111H265.932ZM254.604 73.464V60.024H294.252V73.464H254.604ZM377.032 111V53.304H387.112L357.544 88.248L355.624 83.736H405.256V96.984H349.48L343.048 84.6L378.856 43.224H392.776V111H377.032Z" fill="white"/>
<rect id="Rectangle 7" y="462" width="1567" height="626" fill="#211F2F"/>
<g id="Group 4">
<g id="Vector" filter="url(#filter0_d_142_1161)">
<path d="M409.032 515.66C410.133 510.79 417.065 510.79 418.165 515.66L419.952 523.57C420.614 526.501 418.388 529.29 415.386 529.29H411.812C408.81 529.29 406.583 526.501 407.245 523.57L409.032 515.66Z" fill="#3B5EC6"/>
<path d="M418.548 505.021C418.548 507.794 416.302 510.042 413.532 510.042C410.762 510.042 408.516 507.794 408.516 505.021C408.516 502.248 410.762 500 413.532 500C416.302 500 418.548 502.248 418.548 505.021Z" fill="#3B5EC6"/>
<path d="M414.535 526.846C414.535 525.478 415.643 524.369 417.01 524.369C418.377 524.369 419.485 525.478 419.485 526.846V532.604C419.485 533.972 418.377 535.081 417.01 535.081C415.643 535.081 414.535 533.972 414.535 532.604V526.846Z" fill="#3B5EC6"/>
<path d="M416.471 517.25C415.771 516.075 416.156 514.554 417.33 513.854C418.504 513.154 420.023 513.539 420.722 514.714L423.667 519.66C424.366 520.836 423.981 522.356 422.807 523.056C421.633 523.756 420.114 523.371 419.415 522.196L416.471 517.25Z" fill="#3B5EC6"/>
<path d="M406.342 514.731C407.026 513.547 408.539 513.141 409.723 513.825C410.906 514.509 411.312 516.024 410.628 517.209L407.752 522.195C407.069 523.379 405.556 523.785 404.372 523.101C403.188 522.417 402.783 520.902 403.466 519.718L406.342 514.731Z" fill="#3B5EC6"/>
<path d="M407.579 526.846C407.579 525.478 408.687 524.369 410.054 524.369C411.421 524.369 412.529 525.478 412.529 526.846V532.604C412.529 533.972 411.421 535.081 410.054 535.081C408.687 535.081 407.579 533.972 407.579 532.604V526.846Z" fill="#3B5EC6"/>
</g>
<g id="Vector_2" filter="url(#filter1_d_142_1161)">
<path d="M457.954 515.66C459.065 510.79 466.067 510.79 467.178 515.66L468.983 523.57C469.652 526.501 467.403 529.29 464.371 529.29H460.761C457.729 529.29 455.48 526.501 456.149 523.57L457.954 515.66Z" fill="#3B5EC6"/>
<path d="M467.565 505.021C467.565 507.794 465.296 510.042 462.498 510.042C459.7 510.042 457.432 507.794 457.432 505.021C457.432 502.248 459.7 500 462.498 500C465.296 500 467.565 502.248 467.565 505.021Z" fill="#3B5EC6"/>
<path d="M463.512 526.846C463.512 525.478 464.631 524.369 466.011 524.369C467.391 524.369 468.51 525.478 468.51 526.846V532.604C468.51 533.972 467.391 535.081 466.011 535.081C464.631 535.081 463.512 533.972 463.512 532.604V526.846Z" fill="#3B5EC6"/>
<path d="M465.466 517.25C464.76 516.075 465.148 514.554 466.334 513.854C467.52 513.154 469.054 513.539 469.761 514.714L472.734 519.66C473.441 520.836 473.052 522.356 471.866 523.056C470.68 523.756 469.146 523.371 468.44 522.196L465.466 517.25Z" fill="#3B5EC6"/>
<path d="M455.237 514.731C455.927 513.547 457.455 513.141 458.651 513.825C459.846 514.509 460.256 516.024 459.566 517.209L456.661 522.195C455.971 523.379 454.442 523.785 453.247 523.101C452.051 522.417 451.642 520.902 452.332 519.718L455.237 514.731Z" fill="#3B5EC6"/>
<path d="M456.486 526.846C456.486 525.478 457.605 524.369 458.986 524.369C460.366 524.369 461.485 525.478 461.485 526.846V532.604C461.485 533.972 460.366 535.081 458.986 535.081C457.605 535.081 456.486 533.972 456.486 532.604V526.846Z" fill="#3B5EC6"/>
</g>
<g id="Vector_3" filter="url(#filter2_d_142_1161)">
<path d="M433.523 515.66C434.634 510.79 441.635 510.79 442.747 515.66L444.552 523.57C445.22 526.501 442.972 529.29 439.939 529.29H436.33C433.298 529.29 431.049 526.501 431.718 523.57L433.523 515.66Z" fill="#3B5EC6"/>
<path d="M443.133 505.021C443.133 507.794 440.865 510.042 438.067 510.042C435.269 510.042 433.001 507.794 433.001 505.021C433.001 502.248 435.269 500 438.067 500C440.865 500 443.133 502.248 443.133 505.021Z" fill="#3B5EC6"/>
<path d="M439.08 526.846C439.08 525.478 440.199 524.369 441.58 524.369C442.96 524.369 444.079 525.478 444.079 526.846V532.604C444.079 533.972 442.96 535.081 441.58 535.081C440.199 535.081 439.08 533.972 439.08 532.604V526.846Z" fill="#3B5EC6"/>
<path d="M441.035 517.25C440.329 516.075 440.717 514.554 441.903 513.854C443.089 513.154 444.623 513.539 445.33 514.714L448.303 519.66C449.01 520.836 448.621 522.356 447.435 523.056C446.249 523.756 444.715 523.371 444.009 522.196L441.035 517.25Z" fill="#3B5EC6"/>
<path d="M430.805 514.731C431.496 513.547 433.024 513.141 434.22 513.825C435.415 514.509 435.825 516.024 435.134 517.209L432.23 522.195C431.54 523.379 430.011 523.785 428.816 523.101C427.62 522.417 427.211 520.902 427.901 519.718L430.805 514.731Z" fill="#3B5EC6"/>
<path d="M432.055 526.846C432.055 525.478 433.174 524.369 434.554 524.369C435.935 524.369 437.054 525.478 437.054 526.846V532.604C437.054 533.972 435.935 535.081 434.554 535.081C433.174 535.081 432.055 533.972 432.055 532.604V526.846Z" fill="#3B5EC6"/>
</g>
<g id="Vector_4" filter="url(#filter3_d_142_1161)">
<path d="M482.535 515.66C483.635 510.79 490.567 510.79 491.668 515.66L493.455 523.57C494.117 526.501 491.891 529.29 488.888 529.29H485.314C482.312 529.29 480.086 526.501 480.748 523.57L482.535 515.66Z" fill="#3B5EC6"/>
<path d="M492.051 505.021C492.051 507.794 489.805 510.042 487.034 510.042C484.264 510.042 482.018 507.794 482.018 505.021C482.018 502.248 484.264 500 487.034 500C489.805 500 492.051 502.248 492.051 505.021Z" fill="#3B5EC6"/>
<path d="M488.038 526.846C488.038 525.478 489.146 524.369 490.512 524.369C491.879 524.369 492.987 525.478 492.987 526.846V532.604C492.987 533.972 491.879 535.081 490.512 535.081C489.146 535.081 488.038 533.972 488.038 532.604V526.846Z" fill="#3B5EC6"/>
<path d="M489.973 517.25C489.274 516.075 489.658 514.554 490.832 513.854C492.007 513.154 493.525 513.539 494.225 514.714L497.169 519.66C497.869 520.836 497.484 522.356 496.31 523.056C495.136 523.756 493.617 523.371 492.917 522.196L489.973 517.25Z" fill="#3B5EC6"/>
<path d="M479.845 514.731C480.528 513.547 482.041 513.141 483.225 513.825C484.409 514.509 484.814 516.024 484.131 517.209L481.255 522.195C480.572 523.379 479.058 523.785 477.874 523.101C476.691 522.417 476.285 520.902 476.969 519.718L479.845 514.731Z" fill="#3B5EC6"/>
<path d="M481.082 526.846C481.082 525.478 482.19 524.369 483.557 524.369C484.923 524.369 486.031 525.478 486.031 526.846V532.604C486.031 533.972 484.923 535.081 483.557 535.081C482.19 535.081 481.082 533.972 481.082 532.604V526.846Z" fill="#3B5EC6"/>
</g>
<g id="Vector_5" filter="url(#filter4_d_142_1161)">
<path d="M387.96 523.259C389.258 517.519 397.438 517.519 398.737 523.259L400.845 532.581C401.627 536.036 399 539.323 395.457 539.323H391.24C387.697 539.323 385.07 536.036 385.851 532.581L387.96 523.259Z" fill="#6A94E0"/>
<path d="M399.188 510.72C399.188 513.989 396.538 516.638 393.269 516.638C390 516.638 387.35 513.989 387.35 510.72C387.35 507.452 390 504.803 393.269 504.803C396.538 504.803 399.188 507.452 399.188 510.72Z" fill="#6A94E0"/>
<path d="M394.453 536.443C394.453 534.83 395.76 533.523 397.373 533.523C398.986 533.523 400.293 534.83 400.293 536.443V543.228C400.293 544.841 398.986 546.148 397.373 546.148C395.76 546.148 394.453 544.841 394.453 543.228V536.443Z" fill="#6A94E0"/>
<path d="M396.737 525.133C395.911 523.748 396.365 521.956 397.751 521.131C399.136 520.306 400.929 520.759 401.754 522.144L405.228 527.974C406.054 529.359 405.6 531.151 404.214 531.976C402.829 532.801 401.036 532.348 400.211 530.962L396.737 525.133Z" fill="#6A94E0"/>
<path d="M384.785 522.165C385.592 520.768 387.378 520.29 388.774 521.096C390.171 521.902 390.649 523.688 389.843 525.084L386.449 530.961C385.643 532.357 383.857 532.835 382.461 532.029C381.064 531.223 380.585 529.438 381.392 528.041L384.785 522.165Z" fill="#6A94E0"/>
<path d="M386.245 536.443C386.245 534.83 387.553 533.523 389.165 533.523C390.778 533.523 392.085 534.83 392.085 536.443V543.228C392.085 544.841 390.778 546.148 389.165 546.148C387.553 546.148 386.245 544.841 386.245 543.228V536.443Z" fill="#6A94E0"/>
</g>
<g id="Vector_6" filter="url(#filter5_d_142_1161)">
<path d="M445.593 523.259C446.891 517.519 455.071 517.519 456.369 523.259L458.478 532.581C459.259 536.036 456.632 539.323 453.09 539.323H448.872C445.33 539.323 442.703 536.036 443.484 532.581L445.593 523.259Z" fill="#6A94E0"/>
<path d="M456.821 510.72C456.821 513.989 454.171 516.638 450.902 516.638C447.633 516.638 444.983 513.989 444.983 510.72C444.983 507.452 447.633 504.803 450.902 504.803C454.171 504.803 456.821 507.452 456.821 510.72Z" fill="#6A94E0"/>
<path d="M452.086 536.443C452.086 534.83 453.393 533.523 455.006 533.523C456.619 533.523 457.926 534.83 457.926 536.443V543.228C457.926 544.841 456.619 546.148 455.006 546.148C453.393 546.148 452.086 544.841 452.086 543.228V536.443Z" fill="#6A94E0"/>
<path d="M454.37 525.133C453.544 523.748 453.998 521.956 455.384 521.131C456.769 520.306 458.561 520.759 459.387 522.144L462.861 527.974C463.686 529.359 463.232 531.151 461.847 531.976C460.462 532.801 458.669 532.348 457.844 530.962L454.37 525.133Z" fill="#6A94E0"/>
<path d="M442.418 522.165C443.224 520.768 445.01 520.29 446.407 521.096C447.804 521.902 448.282 523.688 447.476 525.084L444.082 530.961C443.276 532.357 441.49 532.835 440.093 532.029C438.697 531.223 438.218 529.438 439.025 528.041L442.418 522.165Z" fill="#6A94E0"/>
<path d="M443.878 536.443C443.878 534.83 445.186 533.523 446.798 533.523C448.411 533.523 449.718 534.83 449.718 536.443V543.228C449.718 544.841 448.411 546.148 446.798 546.148C445.186 546.148 443.878 544.841 443.878 543.228V536.443Z" fill="#6A94E0"/>
</g>
<g id="Vector_7" filter="url(#filter6_d_142_1161)">
<path d="M416.776 523.259C418.075 517.519 426.255 517.519 427.553 523.259L429.662 532.581C430.443 536.036 427.816 539.323 424.273 539.323H420.056C416.513 539.323 413.886 536.036 414.668 532.581L416.776 523.259Z" fill="#6A94E0"/>
<path d="M428.005 510.72C428.005 513.989 425.355 516.638 422.086 516.638C418.817 516.638 416.167 513.989 416.167 510.72C416.167 507.452 418.817 504.803 422.086 504.803C425.355 504.803 428.005 507.452 428.005 510.72Z" fill="#6A94E0"/>
<path d="M423.27 536.443C423.27 534.83 424.577 533.523 426.19 533.523C427.802 533.523 429.11 534.83 429.11 536.443V543.228C429.11 544.841 427.802 546.148 426.19 546.148C424.577 546.148 423.27 544.841 423.27 543.228V536.443Z" fill="#6A94E0"/>
<path d="M425.553 525.133C424.728 523.748 425.182 521.956 426.567 521.131C427.953 520.306 429.745 520.759 430.571 522.144L434.044 527.974C434.87 529.359 434.416 531.151 433.031 531.976C431.645 532.801 429.853 532.348 429.027 530.962L425.553 525.133Z" fill="#6A94E0"/>
<path d="M413.602 522.165C414.408 520.768 416.194 520.29 417.591 521.096C418.987 521.902 419.466 523.688 418.659 525.084L415.266 530.961C414.459 532.357 412.674 532.835 411.277 532.029C409.88 531.223 409.402 529.438 410.208 528.041L413.602 522.165Z" fill="#6A94E0"/>
<path d="M415.062 536.443C415.062 534.83 416.369 533.523 417.982 533.523C419.595 533.523 420.902 534.83 420.902 536.443V543.228C420.902 544.841 419.595 546.148 417.982 546.148C416.369 546.148 415.062 544.841 415.062 543.228V536.443Z" fill="#6A94E0"/>
</g>
<g id="Vector_8" filter="url(#filter7_d_142_1161)">
<path d="M428.888 532.865C430.186 527.125 438.366 527.125 439.664 532.865L441.773 542.187C442.554 545.641 439.927 548.928 436.385 548.928H432.167C428.625 548.928 425.998 545.641 426.779 542.187L428.888 532.865Z" fill="#8DBBFB"/>
<path d="M440.116 520.326C440.116 523.594 437.466 526.244 434.197 526.244C430.928 526.244 428.278 523.594 428.278 520.326C428.278 517.058 430.928 514.408 434.197 514.408C437.466 514.408 440.116 517.058 440.116 520.326Z" fill="#8DBBFB"/>
<path d="M435.381 546.048C435.381 544.436 436.688 543.129 438.301 543.129C439.914 543.129 441.221 544.436 441.221 546.048V552.834C441.221 554.446 439.914 555.753 438.301 555.753C436.688 555.753 435.381 554.446 435.381 552.834V546.048Z" fill="#8DBBFB"/>
<path d="M437.665 534.739C436.839 533.353 437.293 531.562 438.679 530.736C440.064 529.911 441.856 530.365 442.682 531.75L446.156 537.579C446.981 538.965 446.527 540.756 445.142 541.582C443.756 542.407 441.964 541.953 441.139 540.568L437.665 534.739Z" fill="#8DBBFB"/>
<path d="M425.713 531.77C426.519 530.374 428.305 529.895 429.702 530.702C431.099 531.508 431.577 533.293 430.771 534.69L427.377 540.566C426.571 541.963 424.785 542.441 423.388 541.635C421.992 540.829 421.513 539.043 422.319 537.647L425.713 531.77Z" fill="#8DBBFB"/>
<path d="M427.173 546.048C427.173 544.436 428.48 543.129 430.093 543.129C431.706 543.129 433.013 544.436 433.013 546.048V552.834C433.013 554.446 431.706 555.753 430.093 555.753C428.48 555.753 427.173 554.446 427.173 552.834V546.048Z" fill="#8DBBFB"/>
</g>
<g id="Vector_9" filter="url(#filter8_d_142_1161)">
<path d="M474.409 523.259C475.707 517.519 483.887 517.519 485.185 523.259L487.294 532.581C488.075 536.036 485.448 539.323 481.906 539.323H477.688C474.146 539.323 471.519 536.036 472.3 532.581L474.409 523.259Z" fill="#6A94E0"/>
<path d="M485.637 510.72C485.637 513.989 482.987 516.638 479.718 516.638C476.449 516.638 473.799 513.989 473.799 510.72C473.799 507.452 476.449 504.803 479.718 504.803C482.987 504.803 485.637 507.452 485.637 510.72Z" fill="#6A94E0"/>
<path d="M480.902 536.443C480.902 534.83 482.209 533.523 483.822 533.523C485.435 533.523 486.742 534.83 486.742 536.443V543.228C486.742 544.841 485.435 546.148 483.822 546.148C482.209 546.148 480.902 544.841 480.902 543.228V536.443Z" fill="#6A94E0"/>
<path d="M483.186 525.133C482.36 523.748 482.814 521.956 484.2 521.131C485.585 520.306 487.377 520.759 488.203 522.144L491.677 527.974C492.502 529.359 492.048 531.151 490.663 531.976C489.277 532.801 487.485 532.348 486.66 530.962L483.186 525.133Z" fill="#6A94E0"/>
<path d="M471.234 522.165C472.04 520.768 473.826 520.29 475.223 521.096C476.62 521.902 477.098 523.688 476.292 525.084L472.898 530.961C472.092 532.357 470.306 532.835 468.909 532.029C467.513 531.223 467.034 529.438 467.84 528.041L471.234 522.165Z" fill="#6A94E0"/>
<path d="M472.694 536.443C472.694 534.83 474.001 533.523 475.614 533.523C477.227 533.523 478.534 534.83 478.534 536.443V543.228C478.534 544.841 477.227 546.148 475.614 546.148C474.001 546.148 472.694 544.841 472.694 543.228V536.443Z" fill="#6A94E0"/>
</g>
<g id="Vector_10" filter="url(#filter9_d_142_1161)">
<path d="M400.071 532.865C401.369 527.125 409.55 527.125 410.848 532.865L412.957 542.187C413.738 545.641 411.111 548.928 407.568 548.928H403.351C399.808 548.928 397.181 545.641 397.963 542.187L400.071 532.865Z" fill="#8DBBFB"/>
<path d="M411.3 520.326C411.3 523.594 408.65 526.244 405.381 526.244C402.112 526.244 399.462 523.594 399.462 520.326C399.462 517.058 402.112 514.408 405.381 514.408C408.65 514.408 411.3 517.058 411.3 520.326Z" fill="#8DBBFB"/>
<path d="M406.564 546.048C406.564 544.436 407.872 543.129 409.485 543.129C411.097 543.129 412.405 544.436 412.405 546.048V552.834C412.405 554.446 411.097 555.753 409.485 555.753C407.872 555.753 406.564 554.446 406.564 552.834V546.048Z" fill="#8DBBFB"/>
<path d="M408.848 534.739C408.023 533.353 408.477 531.562 409.862 530.736C411.248 529.911 413.04 530.365 413.865 531.75L417.339 537.579C418.165 538.965 417.711 540.756 416.325 541.582C414.94 542.407 413.148 541.953 412.322 540.568L408.848 534.739Z" fill="#8DBBFB"/>
<path d="M396.897 531.77C397.703 530.374 399.489 529.895 400.886 530.702C402.282 531.508 402.761 533.293 401.954 534.69L398.561 540.566C397.754 541.963 395.969 542.441 394.572 541.635C393.175 540.829 392.697 539.043 393.503 537.647L396.897 531.77Z" fill="#8DBBFB"/>
<path d="M398.357 546.048C398.357 544.436 399.664 543.129 401.277 543.129C402.889 543.129 404.197 544.436 404.197 546.048V552.834C404.197 554.446 402.889 555.753 401.277 555.753C399.664 555.753 398.357 554.446 398.357 552.834V546.048Z" fill="#8DBBFB"/>
</g>
<g id="Vector_11" filter="url(#filter10_d_142_1161)">
<path d="M457.703 532.865C459.002 527.125 467.182 527.125 468.48 532.865L470.589 542.187C471.37 545.641 468.743 548.928 465.2 548.928H460.983C457.441 548.928 454.813 545.641 455.595 542.187L457.703 532.865Z" fill="#8DBBFB"/>
<path d="M468.932 520.326C468.932 523.594 466.282 526.244 463.013 526.244C459.744 526.244 457.094 523.594 457.094 520.326C457.094 517.058 459.744 514.408 463.013 514.408C466.282 514.408 468.932 517.058 468.932 520.326Z" fill="#8DBBFB"/>
<path d="M464.197 546.048C464.197 544.436 465.504 543.129 467.117 543.129C468.73 543.129 470.037 544.436 470.037 546.048V552.834C470.037 554.446 468.73 555.753 467.117 555.753C465.504 555.753 464.197 554.446 464.197 552.834V546.048Z" fill="#8DBBFB"/>
<path d="M466.481 534.739C465.655 533.353 466.109 531.562 467.495 530.736C468.88 529.911 470.672 530.365 471.498 531.75L474.972 537.579C475.797 538.965 475.343 540.756 473.958 541.582C472.572 542.407 470.78 541.953 469.955 540.568L466.481 534.739Z" fill="#8DBBFB"/>
<path d="M454.529 531.77C455.335 530.374 457.121 529.895 458.518 530.702C459.915 531.508 460.393 533.293 459.587 534.69L456.193 540.566C455.387 541.963 453.601 542.441 452.204 541.635C450.808 540.829 450.329 539.043 451.135 537.647L454.529 531.77Z" fill="#8DBBFB"/>
<path d="M455.989 546.048C455.989 544.436 457.296 543.129 458.909 543.129C460.522 543.129 461.829 544.436 461.829 546.048V552.834C461.829 554.446 460.522 555.753 458.909 555.753C457.296 555.753 455.989 554.446 455.989 552.834V546.048Z" fill="#8DBBFB"/>
</g>
<g id="Vector_12" filter="url(#filter11_d_142_1161)">
<path d="M486.52 532.865C487.818 527.125 495.998 527.125 497.297 532.865L499.405 542.187C500.187 545.641 497.56 548.928 494.017 548.928H489.8C486.257 548.928 483.63 545.641 484.411 542.187L486.52 532.865Z" fill="#8DBBFB"/>
<path d="M497.748 520.326C497.748 523.594 495.098 526.244 491.829 526.244C488.56 526.244 485.91 523.594 485.91 520.326C485.91 517.058 488.56 514.408 491.829 514.408C495.098 514.408 497.748 517.058 497.748 520.326Z" fill="#8DBBFB"/>
<path d="M493.013 546.048C493.013 544.436 494.321 543.129 495.933 543.129C497.546 543.129 498.853 544.436 498.853 546.048V552.834C498.853 554.446 497.546 555.753 495.933 555.753C494.321 555.753 493.013 554.446 493.013 552.834V546.048Z" fill="#8DBBFB"/>
<path d="M495.297 534.739C494.472 533.353 494.926 531.562 496.311 530.736C497.696 529.911 499.489 530.365 500.314 531.75L503.788 537.579C504.614 538.965 504.16 540.756 502.774 541.582C501.389 542.407 499.596 541.953 498.771 540.568L495.297 534.739Z" fill="#8DBBFB"/>
<path d="M483.345 531.77C484.152 530.374 485.938 529.895 487.334 530.702C488.731 531.508 489.209 533.293 488.403 534.69L485.009 540.566C484.203 541.963 482.417 542.441 481.021 541.635C479.624 540.829 479.145 539.043 479.952 537.647L483.345 531.77Z" fill="#8DBBFB"/>
<path d="M484.805 546.048C484.805 544.436 486.113 543.129 487.725 543.129C489.338 543.129 490.646 544.436 490.646 546.048V552.834C490.646 554.446 489.338 555.753 487.725 555.753C486.113 555.753 484.805 554.446 484.805 552.834V546.048Z" fill="#8DBBFB"/>
</g>
</g>
<rect id="Rectangle 8" x="378" y="364" width="64" height="35" rx="14" fill="#3B5EC6"/>
<rect id="Rectangle 9" x="404" y="364" width="12" height="35" fill="white"/>
<rect id="Rectangle 11" x="440.413" y="362.549" width="8.00955" height="72.3099" rx="4.00478" transform="rotate(62.972 440.413 362.549)" fill="white"/>
<rect id="Rectangle 12" x="443.34" y="397.154" width="8.00955" height="72.3099" rx="4.00478" transform="rotate(120 443.34 397.154)" fill="white"/>
<rect id="Rectangle 10" x="378" y="387" width="10" height="64" transform="rotate(-90 378 387)" fill="white"/>
<rect id="Rectangle 13" x="440.067" y="364.52" width="4.81063" height="69.9016" rx="2.40531" transform="rotate(62.972 440.067 364.52)" fill="#EF1044"/>
<rect id="Rectangle 14" x="441.539" y="397.807" width="4.81063" height="69.9016" rx="2.40531" transform="rotate(120 441.539 397.807)" fill="#EF1044"/>
<rect id="Rectangle 15" x="378" y="380" width="64" height="5" fill="#EF1044"/>
<rect id="Rectangle 16" x="413" y="364" width="35" height="6" transform="rotate(90 413 364)" fill="#EF1044"/>
<line id="Line 1" x1="378" y1="492" x2="378" y2="366" stroke="#485C77" stroke-width="10" stroke-linecap="round"/>
<g id="next">
<g id="Next">
<path id="Next_2" d="M1100.81 909V864.2H1110.79L1137.86 896.2L1136.01 895.88C1135.75 894.387 1135.56 892.957 1135.43 891.592C1135.3 890.227 1135.18 888.904 1135.05 887.624C1134.96 886.344 1134.88 885.064 1134.79 883.784C1134.75 882.504 1134.73 881.16 1134.73 879.752C1134.73 878.344 1134.73 876.851 1134.73 875.272V864.2H1145.29V909H1135.18L1107.08 875.976L1110.09 876.424C1110.22 877.917 1110.34 879.261 1110.47 880.456C1110.64 881.651 1110.77 882.781 1110.86 883.848C1110.98 884.872 1111.07 885.917 1111.11 886.984C1111.2 888.008 1111.26 889.096 1111.3 890.248C1111.35 891.4 1111.37 892.659 1111.37 894.024V909H1100.81ZM1177.89 909.64C1173.76 909.64 1170.13 908.893 1167.01 907.4C1163.94 905.864 1161.55 903.795 1159.85 901.192C1158.14 898.547 1157.29 895.539 1157.29 892.168C1157.29 889.48 1157.78 887.048 1158.76 884.872C1159.74 882.696 1161.11 880.819 1162.85 879.24C1164.6 877.661 1166.65 876.445 1169 875.592C1171.35 874.739 1173.88 874.312 1176.61 874.312C1179.26 874.312 1181.69 874.739 1183.91 875.592C1186.13 876.403 1188.05 877.576 1189.67 879.112C1191.33 880.648 1192.61 882.461 1193.51 884.552C1194.41 886.643 1194.81 888.947 1194.73 891.464L1194.66 894.344H1164.01L1162.53 888.392H1186.34L1185.25 889.672V888.392C1185.13 887.325 1184.66 886.365 1183.85 885.512C1183.08 884.659 1182.08 883.997 1180.84 883.528C1179.6 883.016 1178.24 882.76 1176.74 882.76C1174.82 882.76 1173.12 883.08 1171.62 883.72C1170.13 884.317 1168.96 885.256 1168.1 886.536C1167.29 887.816 1166.89 889.437 1166.89 891.4C1166.89 893.277 1167.38 894.92 1168.36 896.328C1169.38 897.736 1170.81 898.845 1172.65 899.656C1174.52 900.467 1176.72 900.872 1179.24 900.872C1181.41 900.872 1183.23 900.616 1184.68 900.104C1186.17 899.549 1187.52 898.867 1188.71 898.056L1193.32 904.712C1191.91 905.779 1190.35 906.696 1188.65 907.464C1186.98 908.189 1185.23 908.723 1183.4 909.064C1181.61 909.448 1179.77 909.64 1177.89 909.64ZM1231.57 909L1222.16 896.776L1219.54 893.32L1204.63 875.016H1217.56L1226 886.216L1228.82 889.928L1244.37 909H1231.57ZM1203.8 909L1219.03 889.8L1225.24 896.136L1216.53 909H1203.8ZM1228.76 894.216L1222.74 887.816L1231.32 875.016H1243.99L1228.76 894.216ZM1260.39 909V865.672H1270.63V909H1260.39ZM1252.84 883.976V875.016H1279.27V883.976H1252.84Z" fill="white"/>
</g>
<path id="Arrow 1" d="M1094 913.5C1089.31 913.5 1085.5 917.306 1085.5 922C1085.5 926.694 1089.31 930.5 1094 930.5V922V913.5ZM1371 922L1286 872.925V971.075L1371 922ZM1094 922V930.5H1294.5V922V913.5H1094V922Z" fill="#EF1044"/>
</g>
<rect id="Rectangle 28" x="502" y="283" width="333" height="204" rx="24" fill="#485C77"/>
<rect id="Rectangle 29" x="554" y="374" width="82" height="154" rx="29" fill="#211F2F"/>
<path id="Polygon 6" d="M656.483 480C666.491 462.667 691.509 462.667 701.517 480L739.622 546C749.629 563.333 737.12 585 717.105 585H640.895C620.88 585 608.371 563.333 618.378 546L656.483 480Z" fill="#73839A"/>
<rect id="Rectangle 30" x="582" y="420.893" width="235" height="85" rx="31" transform="rotate(-7.79968 582 420.893)" fill="#73839A"/>
<ellipse id="Ellipse 9" cx="799.5" cy="436" rx="70.5" ry="79" fill="#405066"/>
<g id="Group 29">
<line id="Line 8" x1="799.513" y1="358.396" x2="855.396" y2="428.487" stroke="#333148" stroke-width="5" stroke-linecap="round"/>
<line id="Line 9" x1="788.663" y1="508.481" x2="851.481" y2="432.337" stroke="#333148" stroke-width="5" stroke-linecap="round"/>
<line id="Line 10" x1="732.673" y1="420.686" x2="852.686" y2="429.327" stroke="#333148" stroke-width="5" stroke-linecap="round"/>
<line id="Line 11" x1="863.717" y1="458.687" x2="853.687" y2="435.283" stroke="#333148" stroke-width="5" stroke-linecap="round"/>
<line id="Line 12" x1="861.225" y1="396.748" x2="857.748" y2="429.775" stroke="#333148" stroke-width="5" stroke-linecap="round"/>
<line id="Line 13" x1="753.363" y1="378.908" x2="850.908" y2="428.637" stroke="#333148" stroke-width="5" stroke-linecap="round"/>
<line id="Line 14" x1="737.671" y1="465.884" x2="848.884" y2="432.329" stroke="#333148" stroke-width="5" stroke-linecap="round"/>
<line id="Line 15" x1="846.786" y1="488.244" x2="852.244" y2="438.214" stroke="#333148" stroke-width="5" stroke-linecap="round"/>
<line id="Line 16" x1="867.684" y1="432.672" x2="858.672" y2="433.316" stroke="#333148" stroke-width="5" stroke-linecap="round"/>
<line id="Line 17" x1="839.137" y1="371.631" x2="855.631" y2="423.863" stroke="#333148" stroke-width="5" stroke-linecap="round"/>
</g>
<circle id="Ellipse 10" cx="854.5" cy="431.5" r="11.5" fill="#8DBBFB"/>
<ellipse id="Ellipse 11" cx="859.5" cy="432" rx="6.5" ry="7" fill="#6A94E0"/>
<ellipse id="Ellipse 12" cx="861.5" cy="432" rx="3.5" ry="4" fill="#3B5EC6"/>
<path id="it helped with reducing the global warming a bit" d="M25.1921 676V625.024H40.6481V676H25.1921ZM32.8721 614.56C29.9921 614.56 27.7521 613.888 26.1521 612.544C24.5521 611.136 23.7521 609.152 23.7521 606.592C23.7521 604.288 24.5521 602.4 26.1521 600.928C27.8161 599.456 30.0561 598.72 32.8721 598.72C35.7521 598.72 37.9921 599.424 39.5921 600.832C41.1921 602.176 41.9921 604.096 41.9921 606.592C41.9921 608.96 41.1601 610.88 39.4961 612.352C37.8961 613.824 35.6881 614.56 32.8721 614.56ZM70.4786 676V611.008H85.8386V676H70.4786ZM59.1506 638.464V625.024H98.7986V638.464H59.1506ZM156.33 676V604.96H171.402V636.928L167.754 638.176C168.394 635.616 169.738 633.28 171.786 631.168C173.898 628.992 176.458 627.264 179.466 625.984C182.474 624.64 185.674 623.968 189.066 623.968C193.418 623.968 197.066 624.864 200.01 626.656C203.018 628.384 205.258 630.848 206.73 634.048C208.266 637.184 209.034 640.864 209.034 645.088V676H193.578V647.488C193.578 645.184 193.162 643.264 192.33 641.728C191.562 640.128 190.378 638.912 188.778 638.08C187.242 637.248 185.45 636.864 183.402 636.928C181.738 636.928 180.17 637.216 178.698 637.792C177.29 638.304 176.042 639.072 174.954 640.096C173.93 641.056 173.13 642.176 172.554 643.456C171.978 644.736 171.69 646.112 171.69 647.584V676H164.106C161.994 676 160.298 676 159.018 676C157.738 676 156.842 676 156.33 676ZM257.701 676.96C251.493 676.96 246.053 675.84 241.381 673.6C236.773 671.296 233.189 668.192 230.629 664.288C228.069 660.32 226.789 655.808 226.789 650.752C226.789 646.72 227.525 643.072 228.997 639.808C230.469 636.544 232.517 633.728 235.141 631.36C237.765 628.992 240.837 627.168 244.357 625.888C247.877 624.608 251.685 623.968 255.781 623.968C259.749 623.968 263.397 624.608 266.725 625.888C270.053 627.104 272.933 628.864 275.365 631.168C277.861 633.472 279.781 636.192 281.125 639.328C282.469 642.464 283.077 645.92 282.949 649.696L282.853 654.016H236.869L234.661 645.088H270.373L268.741 647.008V645.088C268.549 643.488 267.845 642.048 266.629 640.768C265.477 639.488 263.973 638.496 262.117 637.792C260.261 637.024 258.213 636.64 255.973 636.64C253.093 636.64 250.533 637.12 248.293 638.08C246.053 638.976 244.293 640.384 243.013 642.304C241.797 644.224 241.189 646.656 241.189 649.6C241.189 652.416 241.925 654.88 243.397 656.992C244.933 659.104 247.077 660.768 249.829 661.984C252.645 663.2 255.941 663.808 259.717 663.808C262.981 663.808 265.701 663.424 267.877 662.656C270.117 661.824 272.133 660.8 273.925 659.584L280.837 669.568C278.725 671.168 276.389 672.544 273.829 673.696C271.333 674.784 268.709 675.584 265.957 676.096C263.269 676.672 260.517 676.96 257.701 676.96ZM302.018 676V604.96H317.378V676H302.018ZM341.674 697.12V625.024H356.266L356.842 636.448L353.962 635.584C354.41 633.536 355.626 631.648 357.61 629.92C359.594 628.192 362.09 626.784 365.098 625.696C368.17 624.608 371.434 624.064 374.89 624.064C379.882 624.064 384.266 625.216 388.042 627.52C391.818 629.76 394.762 632.864 396.874 636.832C399.05 640.736 400.138 645.28 400.138 650.464C400.138 655.584 399.05 660.128 396.874 664.096C394.762 668.064 391.786 671.2 387.946 673.504C384.106 675.744 379.69 676.864 374.698 676.864C371.242 676.864 368.01 676.288 365.002 675.136C361.994 673.984 359.466 672.48 357.418 670.624C355.434 668.768 354.154 666.816 353.578 664.768L357.13 663.424V697.12H341.674ZM370.954 663.904C373.834 663.904 376.33 663.36 378.442 662.272C380.554 661.12 382.186 659.552 383.338 657.568C384.554 655.584 385.162 653.216 385.162 650.464C385.162 647.776 384.554 645.44 383.338 643.456C382.186 641.408 380.554 639.84 378.442 638.752C376.394 637.6 373.898 637.024 370.954 637.024C368.074 637.024 365.546 637.568 363.37 638.656C361.258 639.744 359.594 641.312 358.378 643.36C357.226 645.408 356.65 647.776 356.65 650.464C356.65 653.216 357.226 655.584 358.378 657.568C359.594 659.552 361.258 661.12 363.37 662.272C365.546 663.36 368.074 663.904 370.954 663.904ZM444.357 676.96C438.149 676.96 432.709 675.84 428.037 673.6C423.429 671.296 419.845 668.192 417.285 664.288C414.725 660.32 413.445 655.808 413.445 650.752C413.445 646.72 414.181 643.072 415.653 639.808C417.125 636.544 419.173 633.728 421.797 631.36C424.421 628.992 427.493 627.168 431.013 625.888C434.533 624.608 438.341 623.968 442.437 623.968C446.405 623.968 450.053 624.608 453.381 625.888C456.709 627.104 459.589 628.864 462.021 631.168C464.517 633.472 466.437 636.192 467.781 639.328C469.125 642.464 469.733 645.92 469.605 649.696L469.509 654.016H423.525L421.317 645.088H457.029L455.397 647.008V645.088C455.205 643.488 454.501 642.048 453.285 640.768C452.133 639.488 450.629 638.496 448.773 637.792C446.917 637.024 444.869 636.64 442.629 636.64C439.749 636.64 437.189 637.12 434.949 638.08C432.709 638.976 430.949 640.384 429.669 642.304C428.453 644.224 427.845 646.656 427.845 649.6C427.845 652.416 428.581 654.88 430.053 656.992C431.589 659.104 433.733 660.768 436.485 661.984C439.301 663.2 442.597 663.808 446.373 663.808C449.637 663.808 452.357 663.424 454.533 662.656C456.773 661.824 458.789 660.8 460.581 659.584L467.493 669.568C465.381 671.168 463.045 672.544 460.485 673.696C457.989 674.784 455.365 675.584 452.613 676.096C449.925 676.672 447.173 676.96 444.357 676.96ZM508.066 677.056C503.074 677.056 498.69 675.936 494.914 673.696C491.138 671.392 488.194 668.256 486.082 664.288C483.97 660.256 482.914 655.68 482.914 650.56C482.914 645.44 484.002 640.896 486.178 636.928C488.354 632.896 491.362 629.728 495.202 627.424C499.106 625.12 503.586 623.968 508.642 623.968C511.458 623.968 514.082 624.352 516.514 625.12C518.946 625.824 521.122 626.784 523.042 628C525.026 629.216 526.594 630.624 527.746 632.224C528.962 633.76 529.666 635.328 529.858 636.928L526.21 637.792V604.96H541.666V676H527.362L526.498 663.616L529.57 664.384C529.378 665.984 528.674 667.552 527.458 669.088C526.242 670.56 524.642 671.904 522.658 673.12C520.738 674.272 518.53 675.232 516.034 676C513.538 676.704 510.882 677.056 508.066 677.056ZM512.386 664.096C515.266 664.096 517.762 663.52 519.874 662.368C522.05 661.216 523.714 659.648 524.866 657.664C526.018 655.616 526.594 653.248 526.594 650.56C526.594 647.808 526.018 645.44 524.866 643.456C523.714 641.408 522.05 639.84 519.874 638.752C517.762 637.6 515.266 637.024 512.386 637.024C509.506 637.024 507.01 637.6 504.898 638.752C502.786 639.84 501.122 641.408 499.906 643.456C498.754 645.44 498.178 647.808 498.178 650.56C498.178 653.248 498.754 655.616 499.906 657.664C501.122 659.648 502.786 661.216 504.898 662.368C507.01 663.52 509.506 664.096 512.386 664.096ZM612.656 676L594.896 625.024H611.12L621.2 658.624L619.184 658.432L630.704 631.84H640.592L652.88 658.432L650.864 658.624L660.944 625.024H677.264L658.928 676H647.312L634.064 645.28L637.616 645.184L624.176 676H612.656ZM693.348 676V625.024H708.804V676H693.348ZM701.028 614.56C698.148 614.56 695.908 613.888 694.308 612.544C692.708 611.136 691.908 609.152 691.908 606.592C691.908 604.288 692.708 602.4 694.308 600.928C695.972 599.456 698.212 598.72 701.028 598.72C703.908 598.72 706.148 599.424 707.748 600.832C709.348 602.176 710.148 604.096 710.148 606.592C710.148 608.96 709.316 610.88 707.652 612.352C706.052 613.824 703.844 614.56 701.028 614.56ZM738.635 676V611.008H753.995V676H738.635ZM727.307 638.464V625.024H766.955V638.464H727.307ZM785.862 676V604.96H800.934V636.928L797.286 638.176C797.926 635.616 799.27 633.28 801.318 631.168C803.43 628.992 805.99 627.264 808.998 625.984C812.006 624.64 815.206 623.968 818.598 623.968C822.95 623.968 826.598 624.864 829.542 626.656C832.55 628.384 834.79 630.848 836.262 634.048C837.798 637.184 838.566 640.864 838.566 645.088V676H823.11V647.488C823.11 645.184 822.694 643.264 821.862 641.728C821.094 640.128 819.91 638.912 818.31 638.08C816.774 637.248 814.982 636.864 812.934 636.928C811.27 636.928 809.702 637.216 808.23 637.792C806.822 638.304 805.574 639.072 804.486 640.096C803.462 641.056 802.662 642.176 802.086 643.456C801.51 644.736 801.222 646.112 801.222 647.584V676H793.638C791.526 676 789.83 676 788.55 676C787.27 676 786.374 676 785.862 676ZM900.705 676V625.024H915.297L915.969 642.592L912.321 640.768C913.153 637.632 914.593 634.816 916.641 632.32C918.753 629.76 921.153 627.744 923.841 626.272C926.593 624.736 929.505 623.968 932.577 623.968C934.241 623.968 935.809 624.128 937.281 624.448C938.817 624.768 940.129 625.184 941.217 625.696L936.993 642.496C936.033 641.792 934.721 641.248 933.057 640.864C931.457 640.48 929.825 640.288 928.161 640.288C926.305 640.288 924.609 640.608 923.073 641.248C921.601 641.824 920.353 642.656 919.329 643.744C918.305 644.768 917.505 645.952 916.929 647.296C916.417 648.64 916.161 650.08 916.161 651.616V676H900.705ZM981.451 676.96C975.243 676.96 969.803 675.84 965.131 673.6C960.523 671.296 956.939 668.192 954.379 664.288C951.819 660.32 950.539 655.808 950.539 650.752C950.539 646.72 951.275 643.072 952.747 639.808C954.219 636.544 956.267 633.728 958.891 631.36C961.515 628.992 964.587 627.168 968.107 625.888C971.627 624.608 975.435 623.968 979.531 623.968C983.499 623.968 987.147 624.608 990.475 625.888C993.803 627.104 996.683 628.864 999.115 631.168C1001.61 633.472 1003.53 636.192 1004.88 639.328C1006.22 642.464 1006.83 645.92 1006.7 649.696L1006.6 654.016H960.619L958.411 645.088H994.123L992.491 647.008V645.088C992.299 643.488 991.595 642.048 990.379 640.768C989.227 639.488 987.723 638.496 985.867 637.792C984.011 637.024 981.963 636.64 979.723 636.64C976.843 636.64 974.283 637.12 972.043 638.08C969.803 638.976 968.043 640.384 966.763 642.304C965.547 644.224 964.939 646.656 964.939 649.6C964.939 652.416 965.675 654.88 967.147 656.992C968.683 659.104 970.827 660.768 973.579 661.984C976.395 663.2 979.691 663.808 983.467 663.808C986.731 663.808 989.451 663.424 991.627 662.656C993.867 661.824 995.883 660.8 997.675 659.584L1004.59 669.568C1002.48 671.168 1000.14 672.544 997.579 673.696C995.083 674.784 992.459 675.584 989.707 676.096C987.019 676.672 984.267 676.96 981.451 676.96ZM1045.16 677.056C1040.17 677.056 1035.78 675.936 1032.01 673.696C1028.23 671.392 1025.29 668.256 1023.18 664.288C1021.06 660.256 1020.01 655.68 1020.01 650.56C1020.01 645.44 1021.1 640.896 1023.27 636.928C1025.45 632.896 1028.46 629.728 1032.3 627.424C1036.2 625.12 1040.68 623.968 1045.74 623.968C1048.55 623.968 1051.18 624.352 1053.61 625.12C1056.04 625.824 1058.22 626.784 1060.14 628C1062.12 629.216 1063.69 630.624 1064.84 632.224C1066.06 633.76 1066.76 635.328 1066.95 636.928L1063.3 637.792V604.96H1078.76V676H1064.46L1063.59 663.616L1066.66 664.384C1066.47 665.984 1065.77 667.552 1064.55 669.088C1063.34 670.56 1061.74 671.904 1059.75 673.12C1057.83 674.272 1055.62 675.232 1053.13 676C1050.63 676.704 1047.98 677.056 1045.16 677.056ZM1049.48 664.096C1052.36 664.096 1054.86 663.52 1056.97 662.368C1059.14 661.216 1060.81 659.648 1061.96 657.664C1063.11 655.616 1063.69 653.248 1063.69 650.56C1063.69 647.808 1063.11 645.44 1061.96 643.456C1060.81 641.408 1059.14 639.84 1056.97 638.752C1054.86 637.6 1052.36 637.024 1049.48 637.024C1046.6 637.024 1044.1 637.6 1041.99 638.752C1039.88 639.84 1038.22 641.408 1037 643.456C1035.85 645.44 1035.27 647.808 1035.27 650.56C1035.27 653.248 1035.85 655.616 1037 657.664C1038.22 659.648 1039.88 661.216 1041.99 662.368C1044.1 663.52 1046.6 664.096 1049.48 664.096ZM1121.74 677.056C1117.65 677.056 1114.1 676.16 1111.09 674.368C1108.14 672.576 1105.87 669.984 1104.27 666.592C1102.67 663.136 1101.87 659.008 1101.87 654.208V625.024H1117.23V651.712C1117.23 654.336 1117.58 656.544 1118.29 658.336C1119.06 660.128 1120.24 661.504 1121.84 662.464C1123.44 663.36 1125.39 663.808 1127.7 663.808C1129.36 663.808 1130.9 663.552 1132.3 663.04C1133.71 662.464 1134.96 661.696 1136.05 660.736C1137.14 659.712 1137.97 658.56 1138.54 657.28C1139.18 655.936 1139.5 654.432 1139.5 652.768V625.024H1154.86V676H1140.46L1139.79 665.536L1142.58 664.384C1141.87 666.624 1140.53 668.704 1138.54 670.624C1136.56 672.544 1134.13 674.112 1131.25 675.328C1128.43 676.48 1125.26 677.056 1121.74 677.056ZM1202.67 676.96C1197.04 676.96 1192.05 675.808 1187.7 673.504C1183.34 671.2 1179.92 668.064 1177.42 664.096C1174.93 660.064 1173.68 655.52 1173.68 650.464C1173.68 645.408 1174.93 640.896 1177.42 636.928C1179.92 632.896 1183.31 629.728 1187.6 627.424C1191.89 625.12 1196.75 623.968 1202.19 623.968C1207.38 623.968 1212.11 624.768 1216.4 626.368C1220.69 627.904 1224.18 630.08 1226.86 632.896L1218.51 643.456C1217.36 642.368 1215.98 641.344 1214.38 640.384C1212.78 639.424 1211.06 638.688 1209.2 638.176C1207.41 637.6 1205.55 637.312 1203.63 637.312C1200.69 637.312 1198.1 637.888 1195.86 639.04C1193.68 640.128 1191.98 641.664 1190.77 643.648C1189.62 645.632 1189.04 647.904 1189.04 650.464C1189.04 652.896 1189.65 655.104 1190.86 657.088C1192.08 659.072 1193.78 660.64 1195.95 661.792C1198.13 662.944 1200.66 663.52 1203.54 663.52C1205.84 663.52 1207.89 663.296 1209.68 662.848C1211.47 662.4 1213.1 661.792 1214.58 661.024C1216.11 660.192 1217.42 659.264 1218.51 658.24L1226.86 668.704C1223.98 671.136 1220.46 673.12 1216.3 674.656C1212.14 676.192 1207.6 676.96 1202.67 676.96ZM1245.35 676V625.024H1260.8V676H1245.35ZM1253.03 614.56C1250.15 614.56 1247.91 613.888 1246.31 612.544C1244.71 611.136 1243.91 609.152 1243.91 606.592C1243.91 604.288 1244.71 602.4 1246.31 600.928C1247.97 599.456 1250.21 598.72 1253.03 598.72C1255.91 598.72 1258.15 599.424 1259.75 600.832C1261.35 602.176 1262.15 604.096 1262.15 606.592C1262.15 608.96 1261.32 610.88 1259.65 612.352C1258.05 613.824 1255.84 614.56 1253.03 614.56ZM1285.64 676V625.024H1300.23L1300.71 636.928L1297.07 637.984C1297.9 635.488 1299.31 633.184 1301.29 631.072C1303.34 628.96 1305.8 627.264 1308.68 625.984C1311.63 624.64 1314.79 623.968 1318.19 623.968C1322.54 623.968 1326.22 624.832 1329.23 626.56C1332.23 628.288 1334.51 630.752 1336.04 633.952C1337.58 637.088 1338.35 640.832 1338.35 645.184V676H1322.89V647.392C1322.89 645.152 1322.47 643.264 1321.64 641.728C1320.87 640.192 1319.69 639.008 1318.09 638.176C1316.55 637.344 1314.76 636.928 1312.71 636.928C1310.92 636.928 1309.29 637.248 1307.82 637.888C1306.41 638.464 1305.19 639.264 1304.17 640.288C1303.15 641.248 1302.35 642.336 1301.77 643.552C1301.26 644.768 1301 646.016 1301 647.296V676H1293.42C1291.31 676 1289.61 676 1288.33 676C1287.05 676 1286.15 676 1285.64 676ZM1387.49 698.08C1382.44 698.08 1377.73 697.44 1373.38 696.16C1369.09 694.944 1365.57 693.408 1362.82 691.552L1368.1 680.608C1369.51 681.376 1371.08 682.112 1372.81 682.816C1374.6 683.52 1376.55 684.096 1378.66 684.544C1380.77 685.056 1383.08 685.312 1385.57 685.312C1388.84 685.312 1391.59 684.768 1393.83 683.68C1396.13 682.592 1397.86 680.928 1399.01 678.688C1400.23 676.512 1400.84 673.824 1400.84 670.624V663.616L1403.81 664.096C1403.3 666.144 1402.02 668.032 1399.97 669.76C1397.93 671.488 1395.37 672.896 1392.29 673.984C1389.22 675.072 1385.96 675.616 1382.5 675.616C1377.45 675.616 1373 674.56 1369.16 672.448C1365.32 670.272 1362.28 667.296 1360.04 663.52C1357.86 659.68 1356.77 655.264 1356.77 650.272C1356.77 645.152 1357.89 640.64 1360.13 636.736C1362.37 632.768 1365.45 629.664 1369.35 627.424C1373.25 625.12 1377.77 623.968 1382.89 623.968C1384.61 623.968 1386.41 624.192 1388.26 624.64C1390.18 625.024 1392.04 625.568 1393.83 626.272C1395.69 626.912 1397.35 627.744 1398.82 628.768C1400.36 629.728 1401.61 630.816 1402.57 632.032C1403.59 633.184 1404.17 634.432 1404.29 635.776L1401.13 636.544L1401.8 625.024H1416.29V670.336C1416.29 674.88 1415.56 678.848 1414.09 682.24C1412.68 685.696 1410.69 688.608 1408.13 690.976C1405.57 693.344 1402.5 695.104 1398.92 696.256C1395.4 697.472 1391.59 698.08 1387.49 698.08ZM1386.92 663.712C1389.8 663.712 1392.33 663.168 1394.5 662.08C1396.68 660.928 1398.34 659.36 1399.49 657.376C1400.71 655.392 1401.32 653.056 1401.32 650.368C1401.32 647.68 1400.71 645.344 1399.49 643.36C1398.34 641.312 1396.68 639.744 1394.5 638.656C1392.33 637.504 1389.8 636.928 1386.92 636.928C1383.91 636.928 1381.29 637.504 1379.05 638.656C1376.81 639.744 1375.08 641.312 1373.86 643.36C1372.65 645.344 1372.04 647.68 1372.04 650.368C1372.04 653.056 1372.65 655.392 1373.86 657.376C1375.08 659.36 1376.81 660.928 1379.05 662.08C1381.29 663.168 1383.91 663.712 1386.92 663.712ZM142.104 796V731.008H157.464V796H142.104ZM130.776 758.464V745.024H170.424V758.464H130.776ZM189.33 796V724.96H204.402V756.928L200.754 758.176C201.394 755.616 202.738 753.28 204.786 751.168C206.898 748.992 209.458 747.264 212.466 745.984C215.474 744.64 218.674 743.968 222.066 743.968C226.418 743.968 230.066 744.864 233.01 746.656C236.018 748.384 238.258 750.848 239.73 754.048C241.266 757.184 242.034 760.864 242.034 765.088V796H226.578V767.488C226.578 765.184 226.162 763.264 225.33 761.728C224.562 760.128 223.378 758.912 221.778 758.08C220.242 757.248 218.45 756.864 216.402 756.928C214.738 756.928 213.17 757.216 211.698 757.792C210.29 758.304 209.042 759.072 207.954 760.096C206.93 761.056 206.13 762.176 205.554 763.456C204.978 764.736 204.69 766.112 204.69 767.584V796H197.106C194.994 796 193.298 796 192.018 796C190.738 796 189.842 796 189.33 796ZM290.701 796.96C284.493 796.96 279.053 795.84 274.381 793.6C269.773 791.296 266.189 788.192 263.629 784.288C261.069 780.32 259.789 775.808 259.789 770.752C259.789 766.72 260.525 763.072 261.997 759.808C263.469 756.544 265.517 753.728 268.141 751.36C270.765 748.992 273.837 747.168 277.357 745.888C280.877 744.608 284.685 743.968 288.781 743.968C292.749 743.968 296.397 744.608 299.725 745.888C303.053 747.104 305.933 748.864 308.365 751.168C310.861 753.472 312.781 756.192 314.125 759.328C315.469 762.464 316.077 765.92 315.949 769.696L315.853 774.016H269.869L267.661 765.088H303.373L301.741 767.008V765.088C301.549 763.488 300.845 762.048 299.629 760.768C298.477 759.488 296.973 758.496 295.117 757.792C293.261 757.024 291.213 756.64 288.973 756.64C286.093 756.64 283.533 757.12 281.293 758.08C279.053 758.976 277.293 760.384 276.013 762.304C274.797 764.224 274.189 766.656 274.189 769.6C274.189 772.416 274.925 774.88 276.397 776.992C277.933 779.104 280.077 780.768 282.829 781.984C285.645 783.2 288.941 783.808 292.717 783.808C295.981 783.808 298.701 783.424 300.877 782.656C303.117 781.824 305.133 780.8 306.925 779.584L313.837 789.568C311.725 791.168 309.389 792.544 306.829 793.696C304.333 794.784 301.709 795.584 298.957 796.096C296.269 796.672 293.517 796.96 290.701 796.96ZM399.275 818.08C394.219 818.08 389.515 817.44 385.163 816.16C380.875 814.944 377.355 813.408 374.603 811.552L379.883 800.608C381.291 801.376 382.859 802.112 384.587 802.816C386.379 803.52 388.331 804.096 390.443 804.544C392.555 805.056 394.859 805.312 397.355 805.312C400.619 805.312 403.371 804.768 405.611 803.68C407.915 802.592 409.643 800.928 410.795 798.688C412.011 796.512 412.619 793.824 412.619 790.624V783.616L415.595 784.096C415.083 786.144 413.803 788.032 411.755 789.76C409.707 791.488 407.147 792.896 404.075 793.984C401.003 795.072 397.739 795.616 394.283 795.616C389.227 795.616 384.779 794.56 380.939 792.448C377.099 790.272 374.059 787.296 371.819 783.52C369.643 779.68 368.555 775.264 368.555 770.272C368.555 765.152 369.675 760.64 371.915 756.736C374.155 752.768 377.227 749.664 381.131 747.424C385.035 745.12 389.547 743.968 394.667 743.968C396.395 743.968 398.187 744.192 400.043 744.64C401.963 745.024 403.819 745.568 405.611 746.272C407.467 746.912 409.131 747.744 410.603 748.768C412.139 749.728 413.387 750.816 414.347 752.032C415.371 753.184 415.947 754.432 416.075 755.776L412.907 756.544L413.579 745.024H428.075V790.336C428.075 794.88 427.339 798.848 425.867 802.24C424.459 805.696 422.475 808.608 419.915 810.976C417.355 813.344 414.283 815.104 410.699 816.256C407.179 817.472 403.371 818.08 399.275 818.08ZM398.699 783.712C401.579 783.712 404.107 783.168 406.283 782.08C408.459 780.928 410.123 779.36 411.275 777.376C412.491 775.392 413.099 773.056 413.099 770.368C413.099 767.68 412.491 765.344 411.275 763.36C410.123 761.312 408.459 759.744 406.283 758.656C404.107 757.504 401.579 756.928 398.699 756.928C395.691 756.928 393.067 757.504 390.827 758.656C388.587 759.744 386.859 761.312 385.643 763.36C384.427 765.344 383.819 767.68 383.819 770.368C383.819 773.056 384.427 775.392 385.643 777.376C386.859 779.36 388.587 780.928 390.827 782.08C393.067 783.168 395.691 783.712 398.699 783.712ZM451.549 796V724.96H466.909V796H451.549ZM515.804 796.96C509.852 796.96 504.572 795.808 499.964 793.504C495.356 791.2 491.74 788.064 489.116 784.096C486.492 780.128 485.18 775.584 485.18 770.464C485.18 765.344 486.492 760.8 489.116 756.832C491.74 752.864 495.356 749.728 499.964 747.424C504.572 745.12 509.852 743.968 515.804 743.968C521.692 743.968 526.908 745.12 531.452 747.424C536.06 749.728 539.676 752.864 542.3 756.832C544.924 760.8 546.236 765.344 546.236 770.464C546.236 775.584 544.924 780.128 542.3 784.096C539.676 788.064 536.06 791.2 531.452 793.504C526.908 795.808 521.692 796.96 515.804 796.96ZM515.804 783.712C518.556 783.712 521.052 783.136 523.292 781.984C525.596 780.832 527.388 779.264 528.668 777.28C530.012 775.296 530.652 773.024 530.588 770.464C530.652 767.904 530.012 765.6 528.668 763.552C527.388 761.504 525.596 759.936 523.292 758.848C521.052 757.696 518.556 757.12 515.804 757.12C512.988 757.12 510.396 757.696 508.028 758.848C505.724 760 503.932 761.568 502.652 763.552C501.372 765.536 500.732 767.84 500.732 770.464C500.732 773.024 501.372 775.296 502.652 777.28C503.932 779.264 505.724 780.832 508.028 781.984C510.396 783.136 512.988 783.712 515.804 783.712ZM597.812 797.056C595.06 797.056 592.468 796.704 590.036 796C587.604 795.296 585.428 794.368 583.508 793.216C581.588 792.064 579.988 790.752 578.708 789.28C577.492 787.744 576.692 786.272 576.308 784.864L580.436 784.096L579.572 795.904H565.268V724.96H580.724V757.216L576.788 756.448C577.236 754.848 578.068 753.312 579.284 751.84C580.5 750.368 582.036 749.056 583.892 747.904C585.812 746.688 587.956 745.728 590.324 745.024C592.692 744.32 595.188 743.968 597.812 743.968C602.676 743.968 607.028 745.12 610.868 747.424C614.708 749.664 617.748 752.8 619.988 756.832C622.228 760.8 623.348 765.344 623.348 770.464C623.348 775.648 622.228 780.256 619.988 784.288C617.812 788.256 614.804 791.392 610.964 793.696C607.124 795.936 602.74 797.056 597.812 797.056ZM594.164 784C597.044 784 599.508 783.424 601.556 782.272C603.668 781.12 605.3 779.552 606.452 777.568C607.668 775.52 608.276 773.152 608.276 770.464C608.276 767.776 607.7 765.408 606.548 763.36C605.396 761.312 603.732 759.744 601.556 758.656C599.444 757.568 596.98 757.024 594.164 757.024C591.22 757.024 588.692 757.568 586.58 758.656C584.468 759.744 582.804 761.312 581.588 763.36C580.436 765.408 579.86 767.776 579.86 770.464C579.86 773.152 580.436 775.52 581.588 777.568C582.804 779.552 584.468 781.12 586.58 782.272C588.692 783.424 591.22 784 594.164 784ZM661.914 796.864C656.858 796.864 652.442 795.744 648.666 793.504C644.89 791.264 641.914 788.16 639.738 784.192C637.626 780.16 636.57 775.584 636.57 770.464C636.57 765.28 637.658 760.704 639.834 756.736C642.01 752.768 645.018 749.664 648.858 747.424C652.762 745.12 657.242 743.968 662.298 743.968C665.178 743.968 667.834 744.352 670.266 745.12C672.698 745.824 674.81 746.816 676.602 748.096C678.458 749.376 679.962 750.784 681.114 752.32C682.33 753.856 683.13 755.456 683.514 757.12H680.154V745.024H695.322V796H679.866V782.944L683.13 783.424C682.746 785.088 681.946 786.72 680.73 788.32C679.514 789.92 677.946 791.36 676.026 792.64C674.106 793.92 671.93 794.944 669.498 795.712C667.13 796.48 664.602 796.864 661.914 796.864ZM666.042 783.904C668.922 783.904 671.418 783.36 673.53 782.272C675.706 781.184 677.37 779.648 678.522 777.664C679.738 775.616 680.346 773.216 680.346 770.464C680.346 767.776 679.738 765.44 678.522 763.456C677.37 761.408 675.706 759.808 673.53 758.656C671.418 757.504 668.922 756.928 666.042 756.928C663.162 756.928 660.666 757.504 658.554 758.656C656.442 759.808 654.778 761.408 653.562 763.456C652.41 765.44 651.834 767.776 651.834 770.464C651.834 773.216 652.41 775.616 653.562 777.664C654.778 779.648 656.442 781.184 658.554 782.272C660.666 783.36 663.162 783.904 666.042 783.904ZM719.018 796V724.96H734.378V796H719.018ZM807.187 796L789.427 745.024H805.651L815.731 778.624L813.715 778.432L825.235 751.84H835.123L847.411 778.432L845.395 778.624L855.475 745.024H871.795L853.459 796H841.843L828.595 765.28L832.147 765.184L818.707 796H807.187ZM905.289 796.864C900.233 796.864 895.817 795.744 892.041 793.504C888.265 791.264 885.289 788.16 883.113 784.192C881.001 780.16 879.945 775.584 879.945 770.464C879.945 765.28 881.033 760.704 883.209 756.736C885.385 752.768 888.393 749.664 892.233 747.424C896.137 745.12 900.617 743.968 905.673 743.968C908.553 743.968 911.209 744.352 913.641 745.12C916.073 745.824 918.185 746.816 919.977 748.096C921.833 749.376 923.337 750.784 924.489 752.32C925.705 753.856 926.505 755.456 926.889 757.12H923.529V745.024H938.697V796H923.241V782.944L926.505 783.424C926.121 785.088 925.321 786.72 924.105 788.32C922.889 789.92 921.321 791.36 919.401 792.64C917.481 793.92 915.305 794.944 912.873 795.712C910.505 796.48 907.977 796.864 905.289 796.864ZM909.417 783.904C912.297 783.904 914.793 783.36 916.905 782.272C919.081 781.184 920.745 779.648 921.897 777.664C923.113 775.616 923.721 773.216 923.721 770.464C923.721 767.776 923.113 765.44 921.897 763.456C920.745 761.408 919.081 759.808 916.905 758.656C914.793 757.504 912.297 756.928 909.417 756.928C906.537 756.928 904.041 757.504 901.929 758.656C899.817 759.808 898.153 761.408 896.937 763.456C895.785 765.44 895.209 767.776 895.209 770.464C895.209 773.216 895.785 775.616 896.937 777.664C898.153 779.648 899.817 781.184 901.929 782.272C904.041 783.36 906.537 783.904 909.417 783.904ZM962.393 796V745.024H976.985L977.657 762.592L974.009 760.768C974.841 757.632 976.281 754.816 978.329 752.32C980.441 749.76 982.841 747.744 985.529 746.272C988.281 744.736 991.193 743.968 994.265 743.968C995.929 743.968 997.497 744.128 998.969 744.448C1000.5 744.768 1001.82 745.184 1002.9 745.696L998.681 762.496C997.721 761.792 996.409 761.248 994.745 760.864C993.145 760.48 991.513 760.288 989.849 760.288C987.993 760.288 986.297 760.608 984.761 761.248C983.289 761.824 982.041 762.656 981.017 763.744C979.993 764.768 979.193 765.952 978.617 767.296C978.105 768.64 977.849 770.08 977.849 771.616V796H962.393ZM1019.76 796V745.024H1034.35L1034.83 755.776L1032.05 755.104C1032.88 753.568 1033.97 752.128 1035.31 750.784C1036.72 749.44 1038.29 748.288 1040.01 747.328C1041.81 746.304 1043.73 745.504 1045.77 744.928C1047.82 744.352 1050.03 744.064 1052.4 744.064C1055.15 744.064 1057.68 744.48 1059.98 745.312C1062.35 746.144 1064.37 747.52 1066.03 749.44C1067.69 751.296 1068.97 753.792 1069.87 756.928L1066.7 756.544L1067.47 755.008C1068.49 753.536 1069.71 752.16 1071.12 750.88C1072.59 749.536 1074.25 748.384 1076.11 747.424C1077.97 746.4 1079.95 745.6 1082.06 745.024C1084.17 744.384 1086.35 744.064 1088.59 744.064C1093.26 744.064 1097.07 744.96 1100.01 746.752C1102.96 748.48 1105.13 750.944 1106.54 754.144C1107.95 757.344 1108.65 761.056 1108.65 765.28V796H1093.2V766.912C1093.2 764.864 1092.88 763.104 1092.24 761.632C1091.6 760.16 1090.61 759.04 1089.26 758.272C1087.98 757.44 1086.32 757.024 1084.27 757.024C1082.48 757.024 1080.81 757.312 1079.28 757.888C1077.81 758.464 1076.49 759.264 1075.34 760.288C1074.25 761.248 1073.39 762.4 1072.75 763.744C1072.17 765.024 1071.89 766.432 1071.89 767.968V796H1056.43V766.816C1056.43 764.832 1056.08 763.104 1055.37 761.632C1054.67 760.16 1053.58 759.04 1052.11 758.272C1050.64 757.44 1048.81 757.024 1046.64 757.024C1044.91 757.024 1043.34 757.344 1041.93 757.984C1040.59 758.56 1039.41 759.36 1038.38 760.384C1037.36 761.344 1036.56 762.4 1035.98 763.552C1035.47 764.704 1035.21 765.888 1035.21 767.104V796H1019.76ZM1132.66 796V745.024H1148.12V796H1132.66ZM1140.34 734.56C1137.46 734.56 1135.22 733.888 1133.62 732.544C1132.02 731.136 1131.22 729.152 1131.22 726.592C1131.22 724.288 1132.02 722.4 1133.62 720.928C1135.28 719.456 1137.52 718.72 1140.34 718.72C1143.22 718.72 1145.46 719.424 1147.06 720.832C1148.66 722.176 1149.46 724.096 1149.46 726.592C1149.46 728.96 1148.63 730.88 1146.96 732.352C1145.36 733.824 1143.16 734.56 1140.34 734.56ZM1172.96 796V745.024H1187.55L1188.03 756.928L1184.38 757.984C1185.21 755.488 1186.62 753.184 1188.6 751.072C1190.65 748.96 1193.12 747.264 1196 745.984C1198.94 744.64 1202.11 743.968 1205.5 743.968C1209.85 743.968 1213.53 744.832 1216.54 746.56C1219.55 748.288 1221.82 750.752 1223.36 753.952C1224.89 757.088 1225.66 760.832 1225.66 765.184V796H1210.2V767.392C1210.2 765.152 1209.79 763.264 1208.96 761.728C1208.19 760.192 1207 759.008 1205.4 758.176C1203.87 757.344 1202.08 756.928 1200.03 756.928C1198.24 756.928 1196.6 757.248 1195.13 757.888C1193.72 758.464 1192.51 759.264 1191.48 760.288C1190.46 761.248 1189.66 762.336 1189.08 763.552C1188.57 764.768 1188.32 766.016 1188.32 767.296V796H1180.73C1178.62 796 1176.92 796 1175.64 796C1174.36 796 1173.47 796 1172.96 796ZM1274.81 818.08C1269.75 818.08 1265.05 817.44 1260.69 816.16C1256.41 814.944 1252.89 813.408 1250.13 811.552L1255.41 800.608C1256.82 801.376 1258.39 802.112 1260.12 802.816C1261.91 803.52 1263.86 804.096 1265.97 804.544C1268.09 805.056 1270.39 805.312 1272.89 805.312C1276.15 805.312 1278.9 804.768 1281.14 803.68C1283.45 802.592 1285.17 800.928 1286.33 798.688C1287.54 796.512 1288.15 793.824 1288.15 790.624V783.616L1291.13 784.096C1290.61 786.144 1289.33 788.032 1287.29 789.76C1285.24 791.488 1282.68 792.896 1279.61 793.984C1276.53 795.072 1273.27 795.616 1269.81 795.616C1264.76 795.616 1260.31 794.56 1256.47 792.448C1252.63 790.272 1249.59 787.296 1247.35 783.52C1245.17 779.68 1244.09 775.264 1244.09 770.272C1244.09 765.152 1245.21 760.64 1247.45 756.736C1249.69 752.768 1252.76 749.664 1256.66 747.424C1260.57 745.12 1265.08 743.968 1270.2 743.968C1271.93 743.968 1273.72 744.192 1275.57 744.64C1277.49 745.024 1279.35 745.568 1281.14 746.272C1283 746.912 1284.66 747.744 1286.13 748.768C1287.67 749.728 1288.92 750.816 1289.88 752.032C1290.9 753.184 1291.48 754.432 1291.61 755.776L1288.44 756.544L1289.11 745.024H1303.61V790.336C1303.61 794.88 1302.87 798.848 1301.4 802.24C1299.99 805.696 1298.01 808.608 1295.45 810.976C1292.89 813.344 1289.81 815.104 1286.23 816.256C1282.71 817.472 1278.9 818.08 1274.81 818.08ZM1274.23 783.712C1277.11 783.712 1279.64 783.168 1281.81 782.08C1283.99 780.928 1285.65 779.36 1286.81 777.376C1288.02 775.392 1288.63 773.056 1288.63 770.368C1288.63 767.68 1288.02 765.344 1286.81 763.36C1285.65 761.312 1283.99 759.744 1281.81 758.656C1279.64 757.504 1277.11 756.928 1274.23 756.928C1271.22 756.928 1268.6 757.504 1266.36 758.656C1264.12 759.744 1262.39 761.312 1261.17 763.36C1259.96 765.344 1259.35 767.68 1259.35 770.368C1259.35 773.056 1259.96 775.392 1261.17 777.376C1262.39 779.36 1264.12 780.928 1266.36 782.08C1268.6 783.168 1271.22 783.712 1274.23 783.712ZM608.852 916.864C603.796 916.864 599.38 915.744 595.604 913.504C591.828 911.264 588.852 908.16 586.676 904.192C584.564 900.16 583.508 895.584 583.508 890.464C583.508 885.28 584.596 880.704 586.772 876.736C588.948 872.768 591.956 869.664 595.796 867.424C599.7 865.12 604.18 863.968 609.236 863.968C612.116 863.968 614.772 864.352 617.204 865.12C619.636 865.824 621.748 866.816 623.54 868.096C625.396 869.376 626.9 870.784 628.052 872.32C629.268 873.856 630.068 875.456 630.452 877.12H627.092V865.024H642.26V916H626.804V902.944L630.068 903.424C629.684 905.088 628.884 906.72 627.668 908.32C626.452 909.92 624.884 911.36 622.964 912.64C621.044 913.92 618.868 914.944 616.436 915.712C614.068 916.48 611.54 916.864 608.852 916.864ZM612.98 903.904C615.86 903.904 618.356 903.36 620.468 902.272C622.644 901.184 624.308 899.648 625.46 897.664C626.676 895.616 627.284 893.216 627.284 890.464C627.284 887.776 626.676 885.44 625.46 883.456C624.308 881.408 622.644 879.808 620.468 878.656C618.356 877.504 615.86 876.928 612.98 876.928C610.1 876.928 607.604 877.504 605.492 878.656C603.38 879.808 601.716 881.408 600.5 883.456C599.348 885.44 598.772 887.776 598.772 890.464C598.772 893.216 599.348 895.616 600.5 897.664C601.716 899.648 603.38 901.184 605.492 902.272C607.604 903.36 610.1 903.904 612.98 903.904ZM737.124 917.056C734.372 917.056 731.78 916.704 729.348 916C726.916 915.296 724.74 914.368 722.82 913.216C720.9 912.064 719.3 910.752 718.02 909.28C716.804 907.744 716.004 906.272 715.62 904.864L719.748 904.096L718.884 915.904H704.58V844.96H720.036V877.216L716.1 876.448C716.548 874.848 717.38 873.312 718.596 871.84C719.812 870.368 721.348 869.056 723.204 867.904C725.124 866.688 727.268 865.728 729.636 865.024C732.004 864.32 734.5 863.968 737.124 863.968C741.988 863.968 746.34 865.12 750.18 867.424C754.02 869.664 757.06 872.8 759.3 876.832C761.54 880.8 762.66 885.344 762.66 890.464C762.66 895.648 761.54 900.256 759.3 904.288C757.124 908.256 754.116 911.392 750.276 913.696C746.436 915.936 742.052 917.056 737.124 917.056ZM733.476 904C736.356 904 738.82 903.424 740.868 902.272C742.98 901.12 744.612 899.552 745.764 897.568C746.98 895.52 747.588 893.152 747.588 890.464C747.588 887.776 747.012 885.408 745.86 883.36C744.708 881.312 743.044 879.744 740.868 878.656C738.756 877.568 736.292 877.024 733.476 877.024C730.532 877.024 728.004 877.568 725.892 878.656C723.78 879.744 722.116 881.312 720.9 883.36C719.748 885.408 719.172 887.776 719.172 890.464C719.172 893.152 719.748 895.52 720.9 897.568C722.116 899.552 723.78 901.12 725.892 902.272C728.004 903.424 730.532 904 733.476 904ZM782.411 916V865.024H797.867V916H782.411ZM790.091 854.56C787.211 854.56 784.971 853.888 783.371 852.544C781.771 851.136 780.971 849.152 780.971 846.592C780.971 844.288 781.771 842.4 783.371 840.928C785.035 839.456 787.275 838.72 790.091 838.72C792.971 838.72 795.211 839.424 796.811 840.832C798.411 842.176 799.211 844.096 799.211 846.592C799.211 848.96 798.379 850.88 796.715 852.352C795.115 853.824 792.907 854.56 790.091 854.56ZM827.697 916V851.008H843.057V916H827.697ZM816.369 878.464V865.024H856.017V878.464H816.369Z" fill="white"/>
</g>
<defs>
<filter id="filter0_d_142_1161" x="399.134" y="500" width="28.8813" height="43.0801" filterUnits="userSpaceOnUse" color-interpolation-filters="sRGB">
<feFlood flood-opacity="0" result="BackgroundImageFix"/>
<feColorMatrix in="SourceAlpha" type="matrix" values="0 0 0 0 0 0 0 0 0 0 0 0 0 0 0 0 0 0 127 0" result="hardAlpha"/>
<feOffset dy="4"/>
<feGaussianBlur stdDeviation="2"/>
<feComposite in2="hardAlpha" operator="out"/>
<feColorMatrix type="matrix" values="0 0 0 0 0 0 0 0 0 0 0 0 0 0 0 0 0 0 0.25 0"/>
<feBlend mode="normal" in2="BackgroundImageFix" result="effect1_dropShadow_142_1161"/>
<feBlend mode="normal" in="SourceGraphic" in2="effect1_dropShadow_142_1161" result="shape"/>
</filter>
<filter id="filter1_d_142_1161" x="447.997" y="500" width="29.0903" height="43.0801" filterUnits="userSpaceOnUse" color-interpolation-filters="sRGB">
<feFlood flood-opacity="0" result="BackgroundImageFix"/>
<feColorMatrix in="SourceAlpha" type="matrix" values="0 0 0 0 0 0 0 0 0 0 0 0 0 0 0 0 0 0 127 0" result="hardAlpha"/>
<feOffset dy="4"/>
<feGaussianBlur stdDeviation="2"/>
<feComposite in2="hardAlpha" operator="out"/>
<feColorMatrix type="matrix" values="0 0 0 0 0 0 0 0 0 0 0 0 0 0 0 0 0 0 0.25 0"/>
<feBlend mode="normal" in2="BackgroundImageFix" result="effect1_dropShadow_142_1161"/>
<feBlend mode="normal" in="SourceGraphic" in2="effect1_dropShadow_142_1161" result="shape"/>
</filter>
<filter id="filter2_d_142_1161" x="423.565" y="500" width="29.0903" height="43.0801" filterUnits="userSpaceOnUse" color-interpolation-filters="sRGB">
<feFlood flood-opacity="0" result="BackgroundImageFix"/>
<feColorMatrix in="SourceAlpha" type="matrix" values="0 0 0 0 0 0 0 0 0 0 0 0 0 0 0 0 0 0 127 0" result="hardAlpha"/>
<feOffset dy="4"/>
<feGaussianBlur stdDeviation="2"/>
<feComposite in2="hardAlpha" operator="out"/>
<feColorMatrix type="matrix" values="0 0 0 0 0 0 0 0 0 0 0 0 0 0 0 0 0 0 0.25 0"/>
<feBlend mode="normal" in2="BackgroundImageFix" result="effect1_dropShadow_142_1161"/>
<feBlend mode="normal" in="SourceGraphic" in2="effect1_dropShadow_142_1161" result="shape"/>
</filter>
<filter id="filter3_d_142_1161" x="472.637" y="500" width="28.8813" height="43.0801" filterUnits="userSpaceOnUse" color-interpolation-filters="sRGB">
<feFlood flood-opacity="0" result="BackgroundImageFix"/>
<feColorMatrix in="SourceAlpha" type="matrix" values="0 0 0 0 0 0 0 0 0 0 0 0 0 0 0 0 0 0 127 0" result="hardAlpha"/>
<feOffset dy="4"/>
<feGaussianBlur stdDeviation="2"/>
<feComposite in2="hardAlpha" operator="out"/>
<feColorMatrix type="matrix" values="0 0 0 0 0 0 0 0 0 0 0 0 0 0 0 0 0 0 0.25 0"/>
<feBlend mode="normal" in2="BackgroundImageFix" result="effect1_dropShadow_142_1161"/>
<feBlend mode="normal" in="SourceGraphic" in2="effect1_dropShadow_142_1161" result="shape"/>
</filter>
<filter id="filter4_d_142_1161" x="377" y="504.803" width="32.6401" height="49.3457" filterUnits="userSpaceOnUse" color-interpolation-filters="sRGB">
<feFlood flood-opacity="0" result="BackgroundImageFix"/>
<feColorMatrix in="SourceAlpha" type="matrix" values="0 0 0 0 0 0 0 0 0 0 0 0 0 0 0 0 0 0 127 0" result="hardAlpha"/>
<feOffset dy="4"/>
<feGaussianBlur stdDeviation="2"/>
<feComposite in2="hardAlpha" operator="out"/>
<feColorMatrix type="matrix" values="0 0 0 0 0 0 0 0 0 0 0 0 0 0 0 0 0 0 0.25 0"/>
<feBlend mode="normal" in2="BackgroundImageFix" result="effect1_dropShadow_142_1161"/>
<feBlend mode="normal" in="SourceGraphic" in2="effect1_dropShadow_142_1161" result="shape"/>
</filter>
<filter id="filter5_d_142_1161" x="434.633" y="504.803" width="32.6401" height="49.3457" filterUnits="userSpaceOnUse" color-interpolation-filters="sRGB">
<feFlood flood-opacity="0" result="BackgroundImageFix"/>
<feColorMatrix in="SourceAlpha" type="matrix" values="0 0 0 0 0 0 0 0 0 0 0 0 0 0 0 0 0 0 127 0" result="hardAlpha"/>
<feOffset dy="4"/>
<feGaussianBlur stdDeviation="2"/>
<feComposite in2="hardAlpha" operator="out"/>
<feColorMatrix type="matrix" values="0 0 0 0 0 0 0 0 0 0 0 0 0 0 0 0 0 0 0.25 0"/>
<feBlend mode="normal" in2="BackgroundImageFix" result="effect1_dropShadow_142_1161"/>
<feBlend mode="normal" in="SourceGraphic" in2="effect1_dropShadow_142_1161" result="shape"/>
</filter>
<filter id="filter6_d_142_1161" x="405.816" y="504.803" width="32.6401" height="49.3457" filterUnits="userSpaceOnUse" color-interpolation-filters="sRGB">
<feFlood flood-opacity="0" result="BackgroundImageFix"/>
<feColorMatrix in="SourceAlpha" type="matrix" values="0 0 0 0 0 0 0 0 0 0 0 0 0 0 0 0 0 0 127 0" result="hardAlpha"/>
<feOffset dy="4"/>
<feGaussianBlur stdDeviation="2"/>
<feComposite in2="hardAlpha" operator="out"/>
<feColorMatrix type="matrix" values="0 0 0 0 0 0 0 0 0 0 0 0 0 0 0 0 0 0 0.25 0"/>
<feBlend mode="normal" in2="BackgroundImageFix" result="effect1_dropShadow_142_1161"/>
<feBlend mode="normal" in="SourceGraphic" in2="effect1_dropShadow_142_1161" result="shape"/>
</filter>
<filter id="filter7_d_142_1161" x="417.928" y="514.408" width="32.6401" height="49.3457" filterUnits="userSpaceOnUse" color-interpolation-filters="sRGB">
<feFlood flood-opacity="0" result="BackgroundImageFix"/>
<feColorMatrix in="SourceAlpha" type="matrix" values="0 0 0 0 0 0 0 0 0 0 0 0 0 0 0 0 0 0 127 0" result="hardAlpha"/>
<feOffset dy="4"/>
<feGaussianBlur stdDeviation="2"/>
<feComposite in2="hardAlpha" operator="out"/>
<feColorMatrix type="matrix" values="0 0 0 0 0 0 0 0 0 0 0 0 0 0 0 0 0 0 0.25 0"/>
<feBlend mode="normal" in2="BackgroundImageFix" result="effect1_dropShadow_142_1161"/>
<feBlend mode="normal" in="SourceGraphic" in2="effect1_dropShadow_142_1161" result="shape"/>
</filter>
<filter id="filter8_d_142_1161" x="463.449" y="504.803" width="32.6401" height="49.3457" filterUnits="userSpaceOnUse" color-interpolation-filters="sRGB">
<feFlood flood-opacity="0" result="BackgroundImageFix"/>
<feColorMatrix in="SourceAlpha" type="matrix" values="0 0 0 0 0 0 0 0 0 0 0 0 0 0 0 0 0 0 127 0" result="hardAlpha"/>
<feOffset dy="4"/>
<feGaussianBlur stdDeviation="2"/>
<feComposite in2="hardAlpha" operator="out"/>
<feColorMatrix type="matrix" values="0 0 0 0 0 0 0 0 0 0 0 0 0 0 0 0 0 0 0.25 0"/>
<feBlend mode="normal" in2="BackgroundImageFix" result="effect1_dropShadow_142_1161"/>
<feBlend mode="normal" in="SourceGraphic" in2="effect1_dropShadow_142_1161" result="shape"/>
</filter>
<filter id="filter9_d_142_1161" x="389.111" y="514.408" width="32.6401" height="49.3457" filterUnits="userSpaceOnUse" color-interpolation-filters="sRGB">
<feFlood flood-opacity="0" result="BackgroundImageFix"/>
<feColorMatrix in="SourceAlpha" type="matrix" values="0 0 0 0 0 0 0 0 0 0 0 0 0 0 0 0 0 0 127 0" result="hardAlpha"/>
<feOffset dy="4"/>
<feGaussianBlur stdDeviation="2"/>
<feComposite in2="hardAlpha" operator="out"/>
<feColorMatrix type="matrix" values="0 0 0 0 0 0 0 0 0 0 0 0 0 0 0 0 0 0 0.25 0"/>
<feBlend mode="normal" in2="BackgroundImageFix" result="effect1_dropShadow_142_1161"/>
<feBlend mode="normal" in="SourceGraphic" in2="effect1_dropShadow_142_1161" result="shape"/>
</filter>
<filter id="filter10_d_142_1161" x="446.744" y="514.408" width="32.6401" height="49.3457" filterUnits="userSpaceOnUse" color-interpolation-filters="sRGB">
<feFlood flood-opacity="0" result="BackgroundImageFix"/>
<feColorMatrix in="SourceAlpha" type="matrix" values="0 0 0 0 0 0 0 0 0 0 0 0 0 0 0 0 0 0 127 0" result="hardAlpha"/>
<feOffset dy="4"/>
<feGaussianBlur stdDeviation="2"/>
<feComposite in2="hardAlpha" operator="out"/>
<feColorMatrix type="matrix" values="0 0 0 0 0 0 0 0 0 0 0 0 0 0 0 0 0 0 0.25 0"/>
<feBlend mode="normal" in2="BackgroundImageFix" result="effect1_dropShadow_142_1161"/>
<feBlend mode="normal" in="SourceGraphic" in2="effect1_dropShadow_142_1161" result="shape"/>
</filter>
<filter id="filter11_d_142_1161" x="475.56" y="514.408" width="32.6401" height="49.3457" filterUnits="userSpaceOnUse" color-interpolation-filters="sRGB">
<feFlood flood-opacity="0" result="BackgroundImageFix"/>
<feColorMatrix in="SourceAlpha" type="matrix" values="0 0 0 0 0 0 0 0 0 0 0 0 0 0 0 0 0 0 127 0" result="hardAlpha"/>
<feOffset dy="4"/>
<feGaussianBlur stdDeviation="2"/>
<feComposite in2="hardAlpha" operator="out"/>
<feColorMatrix type="matrix" values="0 0 0 0 0 0 0 0 0 0 0 0 0 0 0 0 0 0 0.25 0"/>
<feBlend mode="normal" in2="BackgroundImageFix" result="effect1_dropShadow_142_1161"/>
<feBlend mode="normal" in="SourceGraphic" in2="effect1_dropShadow_142_1161" result="shape"/>
</filter>
<clipPath id="clip0_142_1161">
<rect width="1440" height="1024" fill="white"/>
</clipPath>
</defs>
</svg>
