<svg width="1440" height="1024" viewBox="0 0 1440 1024" fill="none" xmlns="http://www.w3.org/2000/svg">
<g id="device4-no" clip-path="url(#clip0_142_1222)">
<rect width="1440" height="1024" fill="#333148"/>
<path id="part 4" d="M47.096 132.12V60.024H61.688L62.264 71.448L59.384 70.584C59.832 68.536 61.048 66.648 63.032 64.92C65.016 63.192 67.512 61.784 70.52 60.696C73.592 59.608 76.856 59.064 80.312 59.064C85.304 59.064 89.688 60.216 93.464 62.52C97.24 64.76 100.184 67.864 102.296 71.832C104.472 75.736 105.56 80.28 105.56 85.464C105.56 90.584 104.472 95.128 102.296 99.096C100.184 103.064 97.208 106.2 93.368 108.504C89.528 110.744 85.112 111.864 80.12 111.864C76.664 111.864 73.432 111.288 70.424 110.136C67.416 108.984 64.888 107.48 62.84 105.624C60.856 103.768 59.576 101.816 59 99.768L62.552 98.424V132.12H47.096ZM76.376 98.904C79.256 98.904 81.752 98.36 83.864 97.272C85.976 96.12 87.608 94.552 88.76 92.568C89.976 90.584 90.584 88.216 90.584 85.464C90.584 82.776 89.976 80.44 88.76 78.456C87.608 76.408 85.976 74.84 83.864 73.752C81.816 72.6 79.32 72.024 76.376 72.024C73.496 72.024 70.968 72.568 68.792 73.656C66.68 74.744 65.016 76.312 63.8 78.36C62.648 80.408 62.072 82.776 62.072 85.464C62.072 88.216 62.648 90.584 63.8 92.568C65.016 94.552 66.68 96.12 68.792 97.272C70.968 98.36 73.496 98.904 76.376 98.904ZM144.211 111.864C139.155 111.864 134.739 110.744 130.963 108.504C127.187 106.264 124.211 103.16 122.035 99.192C119.923 95.16 118.867 90.584 118.867 85.464C118.867 80.28 119.955 75.704 122.131 71.736C124.307 67.768 127.315 64.664 131.155 62.424C135.059 60.12 139.539 58.968 144.595 58.968C147.475 58.968 150.131 59.352 152.563 60.12C154.995 60.824 157.107 61.816 158.899 63.096C160.755 64.376 162.259 65.784 163.411 67.32C164.627 68.856 165.427 70.456 165.811 72.12H162.451V60.024H177.619V111H162.163V97.944L165.427 98.424C165.043 100.088 164.243 101.72 163.027 103.32C161.811 104.92 160.243 106.36 158.323 107.64C156.403 108.92 154.227 109.944 151.795 110.712C149.427 111.48 146.899 111.864 144.211 111.864ZM148.339 98.904C151.219 98.904 153.715 98.36 155.827 97.272C158.003 96.184 159.667 94.648 160.819 92.664C162.035 90.616 162.643 88.216 162.643 85.464C162.643 82.776 162.035 80.44 160.819 78.456C159.667 76.408 158.003 74.808 155.827 73.656C153.715 72.504 151.219 71.928 148.339 71.928C145.459 71.928 142.963 72.504 140.851 73.656C138.739 74.808 137.075 76.408 135.859 78.456C134.707 80.44 134.131 82.776 134.131 85.464C134.131 88.216 134.707 90.616 135.859 92.664C137.075 94.648 138.739 96.184 140.851 97.272C142.963 98.36 145.459 98.904 148.339 98.904ZM201.315 111V60.024H215.907L216.579 77.592L212.931 75.768C213.763 72.632 215.203 69.816 217.251 67.32C219.363 64.76 221.763 62.744 224.451 61.272C227.203 59.736 230.115 58.968 233.187 58.968C234.851 58.968 236.419 59.128 237.891 59.448C239.427 59.768 240.739 60.184 241.827 60.696L237.603 77.496C236.643 76.792 235.331 76.248 233.667 75.864C232.067 75.48 230.435 75.288 228.771 75.288C226.915 75.288 225.219 75.608 223.683 76.248C222.211 76.824 220.963 77.656 219.939 78.744C218.915 79.768 218.115 80.952 217.539 82.296C217.027 83.64 216.771 85.08 216.771 86.616V111H201.315ZM265.932 111V46.008H281.292V111H265.932ZM254.604 73.464V60.024H294.252V73.464H254.604ZM377.032 111V53.304H387.112L357.544 88.248L355.624 83.736H405.256V96.984H349.48L343.048 84.6L378.856 43.224H392.776V111H377.032Z" fill="white"/>
<rect id="Rectangle 7" y="462" width="1567" height="626" fill="#211F2F"/>
<g id="Group 4">
<g id="Vector" filter="url(#filter0_d_142_1222)">
<path d="M169.246 461.996C174.515 438.672 207.714 438.672 212.983 461.996L221.541 499.874C224.712 513.912 214.05 527.267 199.672 527.267H182.557C168.179 527.267 157.517 513.912 160.688 499.874L169.246 461.996Z" fill="#3B5EC6"/>
<path d="M214.816 411.046C214.816 424.326 204.061 435.092 190.794 435.092C177.527 435.092 166.772 424.326 166.772 411.046C166.772 397.766 177.527 387 190.794 387C204.061 387 214.816 397.766 214.816 411.046Z" fill="#3B5EC6"/>
<path d="M195.599 515.565C195.599 509.013 200.904 503.702 207.45 503.702C213.995 503.702 219.3 509.013 219.3 515.565V543.137C219.3 549.689 213.995 555 207.45 555C200.904 555 195.599 549.689 195.599 543.137V515.565Z" fill="#3B5EC6"/>
<path d="M204.867 469.609C201.517 463.981 203.36 456.7 208.982 453.347C214.605 449.993 221.879 451.837 225.229 457.466L239.328 481.153C242.678 486.781 240.836 494.062 235.213 497.415C229.59 500.769 222.316 498.925 218.966 493.296L204.867 469.609Z" fill="#3B5EC6"/>
<path d="M156.362 457.548C159.635 451.874 166.883 449.93 172.551 453.206C178.219 456.482 180.161 463.737 176.889 469.411L163.116 493.289C159.844 498.963 152.596 500.907 146.927 497.631C141.259 494.355 139.317 487.1 142.59 481.427L156.362 457.548Z" fill="#3B5EC6"/>
<path d="M162.288 515.565C162.288 509.013 167.594 503.702 174.139 503.702C180.684 503.702 185.99 509.013 185.99 515.565V543.137C185.99 549.689 180.684 555 174.139 555C167.594 555 162.288 549.689 162.288 543.137V515.565Z" fill="#3B5EC6"/>
</g>
<g id="Vector_2" filter="url(#filter1_d_142_1222)">
<path d="M403.528 461.996C408.85 438.672 442.381 438.672 447.703 461.996L456.346 499.874C459.549 513.912 448.78 527.267 434.259 527.267H416.972C402.451 527.267 391.682 513.912 394.885 499.874L403.528 461.996Z" fill="#3B5EC6"/>
<path d="M449.555 411.046C449.555 424.326 438.692 435.092 425.292 435.092C411.892 435.092 401.03 424.326 401.03 411.046C401.03 397.766 411.892 387 425.292 387C438.692 387 449.555 397.766 449.555 411.046Z" fill="#3B5EC6"/>
<path d="M430.145 515.565C430.145 509.013 435.504 503.702 442.114 503.702C448.725 503.702 454.083 509.013 454.083 515.565V543.137C454.083 549.689 448.725 555 442.114 555C435.504 555 430.145 549.689 430.145 543.137V515.565Z" fill="#3B5EC6"/>
<path d="M439.506 469.609C436.123 463.981 437.983 456.7 443.662 453.347C449.341 449.993 456.688 451.837 460.071 457.466L474.311 481.153C477.695 486.781 475.834 494.062 470.155 497.415C464.476 500.769 457.13 498.925 453.746 493.296L439.506 469.609Z" fill="#3B5EC6"/>
<path d="M390.516 457.548C393.821 451.874 401.142 449.93 406.867 453.206C412.591 456.482 414.553 463.737 411.248 469.411L397.337 493.289C394.032 498.963 386.712 500.907 380.987 497.631C375.262 494.355 373.3 487.1 376.606 481.427L390.516 457.548Z" fill="#3B5EC6"/>
<path d="M396.501 515.565C396.501 509.013 401.86 503.702 408.47 503.702C415.081 503.702 420.44 509.013 420.44 515.565V543.137C420.44 549.689 415.081 555 408.47 555C401.86 555 396.501 549.689 396.501 543.137V515.565Z" fill="#3B5EC6"/>
</g>
<g id="Vector_3" filter="url(#filter2_d_142_1222)">
<path d="M286.528 461.996C291.85 438.672 325.381 438.672 330.703 461.996L339.346 499.874C342.549 513.912 331.78 527.267 317.259 527.267H299.972C285.451 527.267 274.682 513.912 277.885 499.874L286.528 461.996Z" fill="#3B5EC6"/>
<path d="M332.555 411.046C332.555 424.326 321.692 435.092 308.292 435.092C294.892 435.092 284.03 424.326 284.03 411.046C284.03 397.766 294.892 387 308.292 387C321.692 387 332.555 397.766 332.555 411.046Z" fill="#3B5EC6"/>
<path d="M313.145 515.565C313.145 509.013 318.504 503.702 325.114 503.702C331.725 503.702 337.083 509.013 337.083 515.565V543.137C337.083 549.689 331.725 555 325.114 555C318.504 555 313.145 549.689 313.145 543.137V515.565Z" fill="#3B5EC6"/>
<path d="M322.506 469.609C319.123 463.981 320.983 456.7 326.662 453.347C332.341 449.993 339.688 451.837 343.071 457.466L357.311 481.153C360.695 486.781 358.834 494.062 353.155 497.415C347.476 500.769 340.13 498.925 336.746 493.296L322.506 469.609Z" fill="#3B5EC6"/>
<path d="M273.516 457.548C276.821 451.874 284.142 449.93 289.867 453.206C295.591 456.482 297.553 463.737 294.248 469.411L280.337 493.289C277.032 498.963 269.712 500.907 263.987 497.631C258.262 494.355 256.3 487.1 259.606 481.427L273.516 457.548Z" fill="#3B5EC6"/>
<path d="M279.501 515.565C279.501 509.013 284.86 503.702 291.47 503.702C298.081 503.702 303.44 509.013 303.44 515.565V543.137C303.44 549.689 298.081 555 291.47 555C284.86 555 279.501 549.689 279.501 543.137V515.565Z" fill="#3B5EC6"/>
</g>
<g id="Vector_4" filter="url(#filter3_d_142_1222)">
<path d="M521.246 461.996C526.515 438.672 559.714 438.672 564.983 461.996L573.541 499.874C576.712 513.912 566.05 527.267 551.672 527.267H534.557C520.179 527.267 509.517 513.912 512.688 499.874L521.246 461.996Z" fill="#3B5EC6"/>
<path d="M566.816 411.046C566.816 424.326 556.061 435.092 542.794 435.092C529.527 435.092 518.772 424.326 518.772 411.046C518.772 397.766 529.527 387 542.794 387C556.061 387 566.816 397.766 566.816 411.046Z" fill="#3B5EC6"/>
<path d="M547.599 515.565C547.599 509.013 552.904 503.702 559.45 503.702C565.995 503.702 571.3 509.013 571.3 515.565V543.137C571.3 549.689 565.995 555 559.45 555C552.904 555 547.599 549.689 547.599 543.137V515.565Z" fill="#3B5EC6"/>
<path d="M556.867 469.609C553.517 463.981 555.36 456.7 560.982 453.347C566.605 449.993 573.879 451.837 577.229 457.466L591.328 481.153C594.678 486.781 592.836 494.062 587.213 497.415C581.59 500.769 574.316 498.925 570.966 493.296L556.867 469.609Z" fill="#3B5EC6"/>
<path d="M508.362 457.548C511.635 451.874 518.883 449.93 524.551 453.206C530.219 456.482 532.161 463.737 528.889 469.411L515.116 493.289C511.844 498.963 504.596 500.907 498.927 497.631C493.259 494.355 491.317 487.1 494.59 481.427L508.362 457.548Z" fill="#3B5EC6"/>
<path d="M514.288 515.565C514.288 509.013 519.594 503.702 526.139 503.702C532.684 503.702 537.99 509.013 537.99 515.565V543.137C537.99 549.689 532.684 555 526.139 555C519.594 555 514.288 549.689 514.288 543.137V515.565Z" fill="#3B5EC6"/>
</g>
<g id="Vector_5" filter="url(#filter4_d_142_1222)">
<path d="M68.3303 498.388C74.548 470.899 113.722 470.899 119.94 498.388L130.038 543.03C133.78 559.575 121.199 575.315 104.233 575.315H84.0371C67.0712 575.315 54.4901 559.575 58.2324 543.03L68.3303 498.388Z" fill="#6A94E0"/>
<path d="M122.103 438.34C122.103 453.991 109.412 466.679 93.7571 466.679C78.102 466.679 65.411 453.991 65.411 438.34C65.411 422.688 78.102 410 93.7571 410C109.412 410 122.103 422.688 122.103 438.34Z" fill="#6A94E0"/>
<path d="M99.4264 561.523C99.4264 553.801 105.687 547.542 113.41 547.542C121.134 547.542 127.395 553.801 127.395 561.523V594.019C127.395 601.741 121.134 608 113.41 608C105.687 608 99.4264 601.741 99.4264 594.019V561.523Z" fill="#6A94E0"/>
<path d="M110.364 507.361C106.41 500.728 108.584 492.146 115.219 488.194C121.854 484.242 130.437 486.416 134.39 493.049L151.027 520.966C154.98 527.599 152.806 536.18 146.171 540.132C139.537 544.085 130.953 541.911 127 535.278L110.364 507.361Z" fill="#6A94E0"/>
<path d="M53.1276 493.146C56.9892 486.459 65.5418 484.168 72.2303 488.029C78.9188 491.889 81.2104 500.44 77.3488 507.127L61.097 535.269C57.2354 541.956 48.6829 544.248 41.9944 540.387C35.3059 536.526 33.0142 527.975 36.8758 521.289L53.1276 493.146Z" fill="#6A94E0"/>
<path d="M60.1197 561.523C60.1197 553.801 66.3806 547.542 74.1038 547.542C81.827 547.542 88.0879 553.801 88.0879 561.523V594.019C88.0879 601.741 81.827 608 74.1038 608C66.3806 608 60.1197 601.741 60.1197 594.019V561.523Z" fill="#6A94E0"/>
</g>
<g id="Vector_6" filter="url(#filter5_d_142_1222)">
<path d="M344.33 498.388C350.548 470.899 389.722 470.899 395.94 498.388L406.038 543.03C409.78 559.575 397.199 575.315 380.233 575.315H360.037C343.071 575.315 330.49 559.575 334.232 543.03L344.33 498.388Z" fill="#6A94E0"/>
<path d="M398.103 438.34C398.103 453.991 385.412 466.679 369.757 466.679C354.102 466.679 341.411 453.991 341.411 438.34C341.411 422.688 354.102 410 369.757 410C385.412 410 398.103 422.688 398.103 438.34Z" fill="#6A94E0"/>
<path d="M375.426 561.523C375.426 553.801 381.687 547.542 389.41 547.542C397.134 547.542 403.395 553.801 403.395 561.523V594.019C403.395 601.741 397.134 608 389.41 608C381.687 608 375.426 601.741 375.426 594.019V561.523Z" fill="#6A94E0"/>
<path d="M386.364 507.361C382.41 500.728 384.584 492.146 391.219 488.194C397.854 484.242 406.437 486.416 410.39 493.049L427.027 520.966C430.98 527.599 428.806 536.18 422.171 540.132C415.537 544.085 406.953 541.911 403 535.278L386.364 507.361Z" fill="#6A94E0"/>
<path d="M329.128 493.146C332.989 486.459 341.542 484.168 348.23 488.029C354.919 491.889 357.21 500.44 353.349 507.127L337.097 535.269C333.235 541.956 324.683 544.248 317.994 540.387C311.306 536.526 309.014 527.975 312.876 521.289L329.128 493.146Z" fill="#6A94E0"/>
<path d="M336.12 561.523C336.12 553.801 342.381 547.542 350.104 547.542C357.827 547.542 364.088 553.801 364.088 561.523V594.019C364.088 601.741 357.827 608 350.104 608C342.381 608 336.12 601.741 336.12 594.019V561.523Z" fill="#6A94E0"/>
</g>
<g id="Vector_7" filter="url(#filter6_d_142_1222)">
<path d="M206.33 498.388C212.548 470.899 251.722 470.899 257.94 498.388L268.038 543.03C271.78 559.575 259.199 575.315 242.233 575.315H222.037C205.071 575.315 192.49 559.575 196.232 543.03L206.33 498.388Z" fill="#6A94E0"/>
<path d="M260.103 438.34C260.103 453.991 247.412 466.679 231.757 466.679C216.102 466.679 203.411 453.991 203.411 438.34C203.411 422.688 216.102 410 231.757 410C247.412 410 260.103 422.688 260.103 438.34Z" fill="#6A94E0"/>
<path d="M237.426 561.523C237.426 553.801 243.687 547.542 251.41 547.542C259.134 547.542 265.395 553.801 265.395 561.523V594.019C265.395 601.741 259.134 608 251.41 608C243.687 608 237.426 601.741 237.426 594.019V561.523Z" fill="#6A94E0"/>
<path d="M248.364 507.361C244.41 500.728 246.584 492.146 253.219 488.194C259.854 484.242 268.437 486.416 272.39 493.049L289.027 520.966C292.98 527.599 290.806 536.18 284.171 540.132C277.537 544.085 268.953 541.911 265 535.278L248.364 507.361Z" fill="#6A94E0"/>
<path d="M191.128 493.146C194.989 486.459 203.542 484.168 210.23 488.029C216.919 491.889 219.21 500.44 215.349 507.127L199.097 535.269C195.235 541.956 186.683 544.248 179.994 540.387C173.306 536.526 171.014 527.975 174.876 521.289L191.128 493.146Z" fill="#6A94E0"/>
<path d="M198.12 561.523C198.12 553.801 204.381 547.542 212.104 547.542C219.827 547.542 226.088 553.801 226.088 561.523V594.019C226.088 601.741 219.827 608 212.104 608C204.381 608 198.12 601.741 198.12 594.019V561.523Z" fill="#6A94E0"/>
</g>
<g id="Vector_8" filter="url(#filter7_d_142_1222)">
<path d="M264.33 544.388C270.548 516.899 309.722 516.899 315.94 544.388L326.038 589.03C329.78 605.575 317.199 621.315 300.233 621.315H280.037C263.071 621.315 250.49 605.575 254.232 589.03L264.33 544.388Z" fill="#8DBBFB"/>
<path d="M318.103 484.34C318.103 499.991 305.412 512.679 289.757 512.679C274.102 512.679 261.411 499.991 261.411 484.34C261.411 468.688 274.102 456 289.757 456C305.412 456 318.103 468.688 318.103 484.34Z" fill="#8DBBFB"/>
<path d="M295.426 607.523C295.426 599.801 301.687 593.542 309.41 593.542C317.134 593.542 323.395 599.801 323.395 607.523V640.019C323.395 647.741 317.134 654 309.41 654C301.687 654 295.426 647.741 295.426 640.019V607.523Z" fill="#8DBBFB"/>
<path d="M306.364 553.361C302.41 546.728 304.584 538.146 311.219 534.194C317.854 530.242 326.437 532.416 330.39 539.049L347.027 566.966C350.98 573.599 348.806 582.18 342.171 586.132C335.537 590.085 326.953 587.911 323 581.278L306.364 553.361Z" fill="#8DBBFB"/>
<path d="M249.128 539.146C252.989 532.459 261.542 530.168 268.23 534.029C274.919 537.889 277.21 546.44 273.349 553.127L257.097 581.269C253.235 587.956 244.683 590.248 237.994 586.387C231.306 582.526 229.014 573.975 232.876 567.289L249.128 539.146Z" fill="#8DBBFB"/>
<path d="M256.12 607.523C256.12 599.801 262.381 593.542 270.104 593.542C277.827 593.542 284.088 599.801 284.088 607.523V640.019C284.088 647.741 277.827 654 270.104 654C262.381 654 256.12 647.741 256.12 640.019V607.523Z" fill="#8DBBFB"/>
</g>
<g id="Vector_9" filter="url(#filter8_d_142_1222)">
<path d="M482.33 498.388C488.548 470.899 527.722 470.899 533.94 498.388L544.038 543.03C547.78 559.575 535.199 575.315 518.233 575.315H498.037C481.071 575.315 468.49 559.575 472.232 543.03L482.33 498.388Z" fill="#6A94E0"/>
<path d="M536.103 438.34C536.103 453.991 523.412 466.679 507.757 466.679C492.102 466.679 479.411 453.991 479.411 438.34C479.411 422.688 492.102 410 507.757 410C523.412 410 536.103 422.688 536.103 438.34Z" fill="#6A94E0"/>
<path d="M513.426 561.523C513.426 553.801 519.687 547.542 527.41 547.542C535.134 547.542 541.395 553.801 541.395 561.523V594.019C541.395 601.741 535.134 608 527.41 608C519.687 608 513.426 601.741 513.426 594.019V561.523Z" fill="#6A94E0"/>
<path d="M524.364 507.361C520.41 500.728 522.584 492.146 529.219 488.194C535.854 484.242 544.437 486.416 548.39 493.049L565.027 520.966C568.98 527.599 566.806 536.18 560.171 540.132C553.537 544.085 544.953 541.911 541 535.278L524.364 507.361Z" fill="#6A94E0"/>
<path d="M467.128 493.146C470.989 486.459 479.542 484.168 486.23 488.029C492.919 491.889 495.21 500.44 491.349 507.127L475.097 535.269C471.235 541.956 462.683 544.248 455.994 540.387C449.306 536.526 447.014 527.975 450.876 521.289L467.128 493.146Z" fill="#6A94E0"/>
<path d="M474.12 561.523C474.12 553.801 480.381 547.542 488.104 547.542C495.827 547.542 502.088 553.801 502.088 561.523V594.019C502.088 601.741 495.827 608 488.104 608C480.381 608 474.12 601.741 474.12 594.019V561.523Z" fill="#6A94E0"/>
</g>
<g id="Vector_10" filter="url(#filter9_d_142_1222)">
<path d="M126.33 544.388C132.548 516.899 171.722 516.899 177.94 544.388L188.038 589.03C191.78 605.575 179.199 621.315 162.233 621.315H142.037C125.071 621.315 112.49 605.575 116.232 589.03L126.33 544.388Z" fill="#8DBBFB"/>
<path d="M180.103 484.34C180.103 499.991 167.412 512.679 151.757 512.679C136.102 512.679 123.411 499.991 123.411 484.34C123.411 468.688 136.102 456 151.757 456C167.412 456 180.103 468.688 180.103 484.34Z" fill="#8DBBFB"/>
<path d="M157.426 607.523C157.426 599.801 163.687 593.542 171.41 593.542C179.134 593.542 185.395 599.801 185.395 607.523V640.019C185.395 647.741 179.134 654 171.41 654C163.687 654 157.426 647.741 157.426 640.019V607.523Z" fill="#8DBBFB"/>
<path d="M168.364 553.361C164.41 546.728 166.584 538.146 173.219 534.194C179.854 530.242 188.437 532.416 192.39 539.049L209.027 566.966C212.98 573.599 210.806 582.18 204.171 586.132C197.537 590.085 188.953 587.911 185 581.278L168.364 553.361Z" fill="#8DBBFB"/>
<path d="M111.128 539.146C114.989 532.459 123.542 530.168 130.23 534.029C136.919 537.889 139.21 546.44 135.349 553.127L119.097 581.269C115.235 587.956 106.683 590.248 99.9944 586.387C93.3059 582.526 91.0142 573.975 94.8758 567.289L111.128 539.146Z" fill="#8DBBFB"/>
<path d="M118.12 607.523C118.12 599.801 124.381 593.542 132.104 593.542C139.827 593.542 146.088 599.801 146.088 607.523V640.019C146.088 647.741 139.827 654 132.104 654C124.381 654 118.12 647.741 118.12 640.019V607.523Z" fill="#8DBBFB"/>
</g>
<g id="Vector_11" filter="url(#filter10_d_142_1222)">
<path d="M402.33 544.388C408.548 516.899 447.722 516.899 453.94 544.388L464.038 589.03C467.78 605.575 455.199 621.315 438.233 621.315H418.037C401.071 621.315 388.49 605.575 392.232 589.03L402.33 544.388Z" fill="#8DBBFB"/>
<path d="M456.103 484.34C456.103 499.991 443.412 512.679 427.757 512.679C412.102 512.679 399.411 499.991 399.411 484.34C399.411 468.688 412.102 456 427.757 456C443.412 456 456.103 468.688 456.103 484.34Z" fill="#8DBBFB"/>
<path d="M433.426 607.523C433.426 599.801 439.687 593.542 447.41 593.542C455.134 593.542 461.395 599.801 461.395 607.523V640.019C461.395 647.741 455.134 654 447.41 654C439.687 654 433.426 647.741 433.426 640.019V607.523Z" fill="#8DBBFB"/>
<path d="M444.364 553.361C440.41 546.728 442.584 538.146 449.219 534.194C455.854 530.242 464.437 532.416 468.39 539.049L485.027 566.966C488.98 573.599 486.806 582.18 480.171 586.132C473.537 590.085 464.953 587.911 461 581.278L444.364 553.361Z" fill="#8DBBFB"/>
<path d="M387.128 539.146C390.989 532.459 399.542 530.168 406.23 534.029C412.919 537.889 415.21 546.44 411.349 553.127L395.097 581.269C391.235 587.956 382.683 590.248 375.994 586.387C369.306 582.526 367.014 573.975 370.876 567.289L387.128 539.146Z" fill="#8DBBFB"/>
<path d="M394.12 607.523C394.12 599.801 400.381 593.542 408.104 593.542C415.827 593.542 422.088 599.801 422.088 607.523V640.019C422.088 647.741 415.827 654 408.104 654C400.381 654 394.12 647.741 394.12 640.019V607.523Z" fill="#8DBBFB"/>
</g>
<g id="Vector_12" filter="url(#filter11_d_142_1222)">
<path d="M540.33 544.388C546.548 516.899 585.722 516.899 591.94 544.388L602.038 589.03C605.78 605.575 593.199 621.315 576.233 621.315H556.037C539.071 621.315 526.49 605.575 530.232 589.03L540.33 544.388Z" fill="#8DBBFB"/>
<path d="M594.103 484.34C594.103 499.991 581.412 512.679 565.757 512.679C550.102 512.679 537.411 499.991 537.411 484.34C537.411 468.688 550.102 456 565.757 456C581.412 456 594.103 468.688 594.103 484.34Z" fill="#8DBBFB"/>
<path d="M571.426 607.523C571.426 599.801 577.687 593.542 585.41 593.542C593.134 593.542 599.395 599.801 599.395 607.523V640.019C599.395 647.741 593.134 654 585.41 654C577.687 654 571.426 647.741 571.426 640.019V607.523Z" fill="#8DBBFB"/>
<path d="M582.364 553.361C578.41 546.728 580.584 538.146 587.219 534.194C593.854 530.242 602.437 532.416 606.39 539.049L623.027 566.966C626.98 573.599 624.806 582.18 618.171 586.132C611.537 590.085 602.953 587.911 599 581.278L582.364 553.361Z" fill="#8DBBFB"/>
<path d="M525.128 539.146C528.989 532.459 537.542 530.168 544.23 534.029C550.919 537.889 553.21 546.44 549.349 553.127L533.097 581.269C529.235 587.956 520.683 590.248 513.994 586.387C507.306 582.526 505.014 573.975 508.876 567.289L525.128 539.146Z" fill="#8DBBFB"/>
<path d="M532.12 607.523C532.12 599.801 538.381 593.542 546.104 593.542C553.827 593.542 560.088 599.801 560.088 607.523V640.019C560.088 647.741 553.827 654 546.104 654C538.381 654 532.12 647.741 532.12 640.019V607.523Z" fill="#8DBBFB"/>
</g>
</g>
<path id="Vector 20" d="M827 153.5V351.5L1310.5 658V69L827 153.5Z" fill="#EBEBEB"/>
<path id="Vector 24" d="M841.086 316.818L844.799 328.753L856.631 322.349L866.468 336.464L880.655 330.898L886.724 343.671L910.962 333.721L914.517 353.561L948.535 337.007L947.492 365.294L1003.46 342.223L1005.96 375.484L1046.33 357.476L1071.33 419.972L1126.06 372.047L1160.41 441.057L1226.48 388.141L1238.14 468.714L1282.53 408.088L1245.57 492.585L1221.6 473.442L1215.92 417.819L1153.71 459.9L1119.19 391.361L1064.96 437.873L1038.62 379.145L992.116 387.541L991.402 352.26L940.914 377.813L942.836 353.023L900.403 363.398L904.209 339.278L883.372 353.093L877.303 340.319L861.775 349.654L853.278 331.77L835.722 331.892L834.97 322.072L841.086 316.818Z" fill="#333148"/>
<path id="Vector 21" d="M939 352L1009 590L913 362.5L939 352Z" fill="#3B5EC6"/>
<g id="Vector_13" filter="url(#filter12_d_142_1222)">
<path d="M1031.45 540.885C1040.31 501.736 1096.08 501.736 1104.93 540.885L1119.31 604.467C1124.64 628.03 1106.72 650.448 1082.57 650.448H1053.82C1029.66 650.448 1011.75 628.03 1017.08 604.467L1031.45 540.885Z" fill="#8DBBFB"/>
<path d="M1108.01 455.363C1108.01 477.654 1089.94 495.725 1067.65 495.725C1045.37 495.725 1027.3 477.654 1027.3 455.363C1027.3 433.071 1045.37 415 1067.65 415C1089.94 415 1108.01 433.071 1108.01 455.363Z" fill="#8DBBFB"/>
<path d="M1075.73 630.805C1075.73 619.808 1084.64 610.893 1095.64 610.893C1106.63 610.893 1115.54 619.808 1115.54 630.805V677.088C1115.54 688.085 1106.63 697 1095.64 697C1084.64 697 1075.73 688.085 1075.73 677.088V630.805Z" fill="#8DBBFB"/>
<path d="M1091.3 553.666C1085.67 544.218 1088.76 531.996 1098.21 526.368C1107.66 520.739 1119.88 523.834 1125.5 533.282L1149.19 573.042C1154.82 582.489 1151.72 594.711 1142.28 600.34C1132.83 605.969 1120.61 602.873 1114.98 593.426L1091.3 553.666Z" fill="#8DBBFB"/>
<path d="M1009.81 533.42C1015.31 523.896 1027.48 520.633 1037.01 526.132C1046.53 531.63 1049.79 543.808 1044.29 553.332L1021.16 593.414C1015.66 602.938 1003.48 606.201 993.958 600.702C984.436 595.204 981.173 583.026 986.671 573.502L1009.81 533.42Z" fill="#8DBBFB"/>
<path d="M1019.76 630.805C1019.76 619.808 1028.68 610.893 1039.67 610.893C1050.67 610.893 1059.58 619.808 1059.58 630.805V677.088C1059.58 688.085 1050.67 697 1039.67 697C1028.68 697 1019.76 688.085 1019.76 677.088V630.805Z" fill="#8DBBFB"/>
</g>
<path id="Vector 22" d="M840 177.5L847.5 187.5L856.5 177.5L870.5 187.5L882 177.5L892 187.5L911.5 170L921.5 187.5L948 160.5L956.5 187.5L1001.5 147L1015 177.5L1047 147L1091.5 197.5L1127 134L1182.5 187.5L1227 115.5L1265 187.5L1286.5 115.5L1280 207.5L1251 197.5L1227 147L1182.5 207.5L1127 154.5L1091.5 216.5L1047 170L1006 193.5L993.5 160.5L954.5 201.5L948 177.5L911.5 201.5L907 177.5L892 197.5L882 187.5L870.5 201.5L856.5 187.5L840 193.5L836 184.5L840 177.5Z" fill="#333148"/>
<path id="Vector 23" d="M839.758 259.473L846.492 270.005L856.213 260.704L869.428 271.719L881.642 262.605L890.868 273.322L911.619 257.325L920.286 275.522L948.725 250.573L955.189 278.131L1003.08 241.099L1014.27 272.521L1048.46 244.491L1089.07 298.169L1129.2 237.492L1180.56 294.981L1230.3 226.499L1262.83 301.132L1289.64 230.935L1276.3 322.195L1248.12 310.06L1227.96 257.912L1179.07 314.925L1127.67 257.935L1087.65 317.116L1046.74 267.427L1004.1 287.805L994.099 253.965L952.15 291.943L947.458 267.525L909.27 288.737L906.572 264.469L890.123 283.295L880.896 272.577L868.384 285.681L855.467 270.676L838.566 275.429L835.248 266.156L839.758 259.473Z" fill="#333148"/>
<g id="next">
<g id="Next">
<path id="Next_2" d="M1076.81 924V879.2H1086.79L1113.86 911.2L1112.01 910.88C1111.75 909.387 1111.56 907.957 1111.43 906.592C1111.3 905.227 1111.18 903.904 1111.05 902.624C1110.96 901.344 1110.88 900.064 1110.79 898.784C1110.75 897.504 1110.73 896.16 1110.73 894.752C1110.73 893.344 1110.73 891.851 1110.73 890.272V879.2H1121.29V924H1111.18L1083.08 890.976L1086.09 891.424C1086.22 892.917 1086.34 894.261 1086.47 895.456C1086.64 896.651 1086.77 897.781 1086.86 898.848C1086.98 899.872 1087.07 900.917 1087.11 901.984C1087.2 903.008 1087.26 904.096 1087.3 905.248C1087.35 906.4 1087.37 907.659 1087.37 909.024V924H1076.81ZM1153.89 924.64C1149.76 924.64 1146.13 923.893 1143.01 922.4C1139.94 920.864 1137.55 918.795 1135.85 916.192C1134.14 913.547 1133.29 910.539 1133.29 907.168C1133.29 904.48 1133.78 902.048 1134.76 899.872C1135.74 897.696 1137.11 895.819 1138.85 894.24C1140.6 892.661 1142.65 891.445 1145 890.592C1147.35 889.739 1149.88 889.312 1152.61 889.312C1155.26 889.312 1157.69 889.739 1159.91 890.592C1162.13 891.403 1164.05 892.576 1165.67 894.112C1167.33 895.648 1168.61 897.461 1169.51 899.552C1170.41 901.643 1170.81 903.947 1170.73 906.464L1170.66 909.344H1140.01L1138.53 903.392H1162.34L1161.25 904.672V903.392C1161.13 902.325 1160.66 901.365 1159.85 900.512C1159.08 899.659 1158.08 898.997 1156.84 898.528C1155.6 898.016 1154.24 897.76 1152.74 897.76C1150.82 897.76 1149.12 898.08 1147.62 898.72C1146.13 899.317 1144.96 900.256 1144.1 901.536C1143.29 902.816 1142.89 904.437 1142.89 906.4C1142.89 908.277 1143.38 909.92 1144.36 911.328C1145.38 912.736 1146.81 913.845 1148.65 914.656C1150.52 915.467 1152.72 915.872 1155.24 915.872C1157.41 915.872 1159.23 915.616 1160.68 915.104C1162.17 914.549 1163.52 913.867 1164.71 913.056L1169.32 919.712C1167.91 920.779 1166.35 921.696 1164.65 922.464C1162.98 923.189 1161.23 923.723 1159.4 924.064C1157.61 924.448 1155.77 924.64 1153.89 924.64ZM1207.57 924L1198.16 911.776L1195.54 908.32L1180.63 890.016H1193.56L1202 901.216L1204.82 904.928L1220.37 924H1207.57ZM1179.8 924L1195.03 904.8L1201.24 911.136L1192.53 924H1179.8ZM1204.76 909.216L1198.74 902.816L1207.32 890.016H1219.99L1204.76 909.216ZM1236.39 924V880.672H1246.63V924H1236.39ZM1228.84 898.976V890.016H1255.27V898.976H1228.84Z" fill="white"/>
</g>
<path id="Arrow 1" d="M1070 928.5C1065.31 928.5 1061.5 932.306 1061.5 937C1061.5 941.694 1065.31 945.5 1070 945.5V937V928.5ZM1347 937L1262 887.925V986.075L1347 937ZM1070 937V945.5H1270.5V937V928.5H1070V937Z" fill="#EF1044"/>
</g>
<path id="instead you work on a plan" d="M62.0203 793V742.024H77.4763V793H62.0203ZM69.7003 731.56C66.8203 731.56 64.5803 730.888 62.9803 729.544C61.3803 728.136 60.5803 726.152 60.5803 723.592C60.5803 721.288 61.3803 719.4 62.9803 717.928C64.6443 716.456 66.8843 715.72 69.7003 715.72C72.5803 715.72 74.8203 716.424 76.4203 717.832C78.0203 719.176 78.8203 721.096 78.8203 723.592C78.8203 725.96 77.9883 727.88 76.3243 729.352C74.7243 730.824 72.5163 731.56 69.7003 731.56ZM102.315 793V742.024H116.907L117.387 753.928L113.739 754.984C114.571 752.488 115.979 750.184 117.963 748.072C120.011 745.96 122.475 744.264 125.355 742.984C128.299 741.64 131.467 740.968 134.859 740.968C139.211 740.968 142.891 741.832 145.899 743.56C148.907 745.288 151.179 747.752 152.715 750.952C154.251 754.088 155.019 757.832 155.019 762.184V793H139.563V764.392C139.563 762.152 139.147 760.264 138.315 758.728C137.547 757.192 136.363 756.008 134.763 755.176C133.227 754.344 131.435 753.928 129.387 753.928C127.595 753.928 125.963 754.248 124.491 754.888C123.083 755.464 121.867 756.264 120.843 757.288C119.819 758.248 119.019 759.336 118.443 760.552C117.931 761.768 117.675 763.016 117.675 764.296V793H110.091C107.979 793 106.283 793 105.003 793C103.723 793 102.827 793 102.315 793ZM197.926 793.96C192.294 793.96 187.238 793.16 182.758 791.56C178.342 789.96 174.79 787.688 172.102 784.744L181.414 776.488C183.59 778.536 186.182 780.104 189.19 781.192C192.198 782.28 195.366 782.824 198.694 782.824C199.718 782.824 200.71 782.728 201.67 782.536C202.694 782.344 203.558 782.088 204.262 781.768C205.03 781.384 205.638 780.936 206.086 780.424C206.534 779.912 206.758 779.272 206.758 778.504C206.758 777.288 205.99 776.328 204.454 775.624C203.366 775.24 201.99 774.856 200.326 774.472C198.662 774.088 196.774 773.672 194.661 773.224C191.142 772.584 188.038 771.816 185.35 770.92C182.726 769.96 180.518 768.776 178.726 767.368C177.19 766.024 176.006 764.488 175.174 762.76C174.342 761.032 173.926 759.016 173.926 756.712C173.926 754.344 174.534 752.2 175.75 750.28C176.966 748.296 178.662 746.632 180.838 745.288C183.014 743.88 185.51 742.824 188.326 742.12C191.142 741.352 194.086 740.968 197.158 740.968C200.23 740.968 203.238 741.288 206.182 741.928C209.126 742.504 211.91 743.368 214.534 744.52C217.158 745.608 219.462 747.016 221.446 748.744L213.574 757.96C212.166 756.872 210.534 755.88 208.678 754.984C206.822 754.088 204.838 753.384 202.726 752.872C200.678 752.296 198.662 752.008 196.678 752.008C195.59 752.008 194.534 752.072 193.51 752.2C192.55 752.328 191.718 752.584 191.014 752.968C190.31 753.288 189.734 753.704 189.286 754.216C188.902 754.664 188.71 755.24 188.71 755.944C188.71 756.52 188.87 757.064 189.19 757.576C189.51 758.088 189.99 758.504 190.63 758.824C191.526 759.4 192.838 759.912 194.566 760.36C196.358 760.808 198.598 761.288 201.286 761.8C205.19 762.632 208.518 763.592 211.27 764.68C214.022 765.704 216.23 766.952 217.894 768.424C219.238 769.448 220.23 770.728 220.87 772.264C221.51 773.736 221.83 775.368 221.83 777.16C221.83 780.424 220.774 783.336 218.662 785.896C216.614 788.392 213.798 790.376 210.214 791.848C206.694 793.256 202.598 793.96 197.926 793.96ZM244.369 793V728.008H259.729V793H244.369ZM233.041 755.464V742.024H272.689V755.464H233.041ZM316.279 793.96C310.071 793.96 304.631 792.84 299.959 790.6C295.351 788.296 291.767 785.192 289.207 781.288C286.647 777.32 285.367 772.808 285.367 767.752C285.367 763.72 286.103 760.072 287.575 756.808C289.047 753.544 291.095 750.728 293.719 748.36C296.343 745.992 299.415 744.168 302.935 742.888C306.455 741.608 310.263 740.968 314.359 740.968C318.327 740.968 321.975 741.608 325.303 742.888C328.631 744.104 331.511 745.864 333.943 748.168C336.439 750.472 338.359 753.192 339.703 756.328C341.047 759.464 341.655 762.92 341.527 766.696L341.431 771.016H295.447L293.239 762.088H328.951L327.319 764.008V762.088C327.127 760.488 326.423 759.048 325.207 757.768C324.055 756.488 322.551 755.496 320.695 754.792C318.839 754.024 316.791 753.64 314.551 753.64C311.671 753.64 309.111 754.12 306.871 755.08C304.631 755.976 302.871 757.384 301.591 759.304C300.375 761.224 299.767 763.656 299.767 766.6C299.767 769.416 300.503 771.88 301.975 773.992C303.511 776.104 305.655 777.768 308.407 778.984C311.223 780.2 314.519 780.808 318.295 780.808C321.559 780.808 324.279 780.424 326.455 779.656C328.695 778.824 330.711 777.8 332.503 776.584L339.415 786.568C337.303 788.168 334.967 789.544 332.407 790.696C329.911 791.784 327.287 792.584 324.535 793.096C321.847 793.672 319.095 793.96 316.279 793.96ZM380.18 793.864C375.124 793.864 370.708 792.744 366.932 790.504C363.156 788.264 360.18 785.16 358.004 781.192C355.892 777.16 354.836 772.584 354.836 767.464C354.836 762.28 355.924 757.704 358.1 753.736C360.276 749.768 363.284 746.664 367.124 744.424C371.028 742.12 375.508 740.968 380.564 740.968C383.444 740.968 386.1 741.352 388.532 742.12C390.964 742.824 393.076 743.816 394.868 745.096C396.724 746.376 398.228 747.784 399.38 749.32C400.596 750.856 401.396 752.456 401.78 754.12H398.42V742.024H413.588V793H398.132V779.944L401.396 780.424C401.012 782.088 400.212 783.72 398.996 785.32C397.78 786.92 396.212 788.36 394.292 789.64C392.372 790.92 390.196 791.944 387.764 792.712C385.396 793.48 382.868 793.864 380.18 793.864ZM384.308 780.904C387.188 780.904 389.684 780.36 391.796 779.272C393.972 778.184 395.636 776.648 396.788 774.664C398.004 772.616 398.612 770.216 398.612 767.464C398.612 764.776 398.004 762.44 396.788 760.456C395.636 758.408 393.972 756.808 391.796 755.656C389.684 754.504 387.188 753.928 384.308 753.928C381.428 753.928 378.932 754.504 376.82 755.656C374.708 756.808 373.044 758.408 371.828 760.456C370.676 762.44 370.1 764.776 370.1 767.464C370.1 770.216 370.676 772.616 371.828 774.664C373.044 776.648 374.708 778.184 376.82 779.272C378.932 780.36 381.428 780.904 384.308 780.904ZM456.676 794.056C451.684 794.056 447.3 792.936 443.524 790.696C439.748 788.392 436.804 785.256 434.692 781.288C432.58 777.256 431.523 772.68 431.523 767.56C431.523 762.44 432.612 757.896 434.788 753.928C436.964 749.896 439.972 746.728 443.812 744.424C447.716 742.12 452.196 740.968 457.252 740.968C460.068 740.968 462.692 741.352 465.124 742.12C467.556 742.824 469.732 743.784 471.652 745C473.636 746.216 475.204 747.624 476.356 749.224C477.572 750.76 478.276 752.328 478.468 753.928L474.82 754.792V721.96H490.276V793H475.972L475.108 780.616L478.18 781.384C477.988 782.984 477.284 784.552 476.068 786.088C474.852 787.56 473.252 788.904 471.268 790.12C469.348 791.272 467.14 792.232 464.644 793C462.148 793.704 459.492 794.056 456.676 794.056ZM460.996 781.096C463.876 781.096 466.372 780.52 468.484 779.368C470.66 778.216 472.324 776.648 473.476 774.664C474.628 772.616 475.204 770.248 475.204 767.56C475.204 764.808 474.628 762.44 473.476 760.456C472.324 758.408 470.66 756.84 468.484 755.752C466.372 754.6 463.876 754.024 460.996 754.024C458.116 754.024 455.62 754.6 453.508 755.752C451.396 756.84 449.732 758.408 448.516 760.456C447.364 762.44 446.788 764.808 446.788 767.56C446.788 770.248 447.364 772.616 448.516 774.664C449.732 776.648 451.396 778.216 453.508 779.368C455.62 780.52 458.116 781.096 460.996 781.096ZM557.617 815.08L570.961 787.72L570.673 795.496L543.601 742.024H561.169L573.553 768.52C574.449 770.312 575.281 772.136 576.049 773.992C576.817 775.784 577.425 777.576 577.873 779.368L574.993 780.136C575.569 778.728 576.241 777.064 577.009 775.144C577.777 773.224 578.577 771.272 579.409 769.288L590.833 742.024H608.401L583.441 793.192L573.169 815.08H557.617ZM649.382 793.96C643.43 793.96 638.15 792.808 633.542 790.504C628.934 788.2 625.318 785.064 622.694 781.096C620.07 777.128 618.758 772.584 618.758 767.464C618.758 762.344 620.07 757.8 622.694 753.832C625.318 749.864 628.934 746.728 633.542 744.424C638.15 742.12 643.43 740.968 649.382 740.968C655.27 740.968 660.486 742.12 665.03 744.424C669.638 746.728 673.254 749.864 675.878 753.832C678.502 757.8 679.814 762.344 679.814 767.464C679.814 772.584 678.502 777.128 675.878 781.096C673.254 785.064 669.638 788.2 665.03 790.504C660.486 792.808 655.27 793.96 649.382 793.96ZM649.382 780.712C652.134 780.712 654.63 780.136 656.87 778.984C659.174 777.832 660.966 776.264 662.246 774.28C663.59 772.296 664.23 770.024 664.166 767.464C664.23 764.904 663.59 762.6 662.246 760.552C660.966 758.504 659.174 756.936 656.87 755.848C654.63 754.696 652.134 754.12 649.382 754.12C646.566 754.12 643.974 754.696 641.606 755.848C639.302 757 637.51 758.568 636.23 760.552C634.95 762.536 634.31 764.84 634.31 767.464C634.31 770.024 634.95 772.296 636.23 774.28C637.51 776.264 639.302 777.832 641.606 778.984C643.974 780.136 646.566 780.712 649.382 780.712ZM717.854 794.056C713.758 794.056 710.206 793.16 707.198 791.368C704.254 789.576 701.982 786.984 700.382 783.592C698.782 780.136 697.982 776.008 697.982 771.208V742.024H713.342V768.712C713.342 771.336 713.694 773.544 714.398 775.336C715.166 777.128 716.35 778.504 717.95 779.464C719.55 780.36 721.502 780.808 723.806 780.808C725.47 780.808 727.006 780.552 728.414 780.04C729.822 779.464 731.07 778.696 732.158 777.736C733.246 776.712 734.078 775.56 734.654 774.28C735.294 772.936 735.614 771.432 735.614 769.768V742.024H750.974V793H736.574L735.902 782.536L738.686 781.384C737.982 783.624 736.638 785.704 734.654 787.624C732.67 789.544 730.238 791.112 727.358 792.328C724.542 793.48 721.374 794.056 717.854 794.056ZM823.39 793L805.63 742.024H821.854L831.934 775.624L829.918 775.432L841.438 748.84H851.326L863.614 775.432L861.598 775.624L871.678 742.024H887.998L869.662 793H858.046L844.798 762.28L848.35 762.184L834.91 793H823.39ZM927.445 793.96C921.493 793.96 916.213 792.808 911.605 790.504C906.997 788.2 903.381 785.064 900.757 781.096C898.133 777.128 896.821 772.584 896.821 767.464C896.821 762.344 898.133 757.8 900.757 753.832C903.381 749.864 906.997 746.728 911.605 744.424C916.213 742.12 921.493 740.968 927.445 740.968C933.333 740.968 938.549 742.12 943.093 744.424C947.701 746.728 951.317 749.864 953.941 753.832C956.565 757.8 957.877 762.344 957.877 767.464C957.877 772.584 956.565 777.128 953.941 781.096C951.317 785.064 947.701 788.2 943.093 790.504C938.549 792.808 933.333 793.96 927.445 793.96ZM927.445 780.712C930.197 780.712 932.693 780.136 934.933 778.984C937.237 777.832 939.029 776.264 940.309 774.28C941.653 772.296 942.293 770.024 942.229 767.464C942.293 764.904 941.653 762.6 940.309 760.552C939.029 758.504 937.237 756.936 934.933 755.848C932.693 754.696 930.197 754.12 927.445 754.12C924.629 754.12 922.037 754.696 919.669 755.848C917.365 757 915.573 758.568 914.293 760.552C913.013 762.536 912.373 764.84 912.373 767.464C912.373 770.024 913.013 772.296 914.293 774.28C915.573 776.264 917.365 777.832 919.669 778.984C922.037 780.136 924.629 780.712 927.445 780.712ZM976.909 793V742.024H991.501L992.173 759.592L988.525 757.768C989.357 754.632 990.797 751.816 992.845 749.32C994.957 746.76 997.357 744.744 1000.04 743.272C1002.8 741.736 1005.71 740.968 1008.78 740.968C1010.44 740.968 1012.01 741.128 1013.48 741.448C1015.02 741.768 1016.33 742.184 1017.42 742.696L1013.2 759.496C1012.24 758.792 1010.92 758.248 1009.26 757.864C1007.66 757.48 1006.03 757.288 1004.36 757.288C1002.51 757.288 1000.81 757.608 999.277 758.248C997.805 758.824 996.557 759.656 995.533 760.744C994.509 761.768 993.709 762.952 993.133 764.296C992.621 765.64 992.365 767.08 992.365 768.616V793H976.909ZM1048.77 779.176L1043.78 767.656L1072.1 742.024H1092.55L1048.77 779.176ZM1034.66 793V721.96H1049.63V793H1034.66ZM1073.83 793L1052.99 767.464L1063.65 759.016L1091.97 793H1073.83ZM1173.26 793.96C1167.31 793.96 1162.03 792.808 1157.42 790.504C1152.81 788.2 1149.19 785.064 1146.57 781.096C1143.95 777.128 1142.63 772.584 1142.63 767.464C1142.63 762.344 1143.95 757.8 1146.57 753.832C1149.19 749.864 1152.81 746.728 1157.42 744.424C1162.03 742.12 1167.31 740.968 1173.26 740.968C1179.15 740.968 1184.36 742.12 1188.91 744.424C1193.51 746.728 1197.13 749.864 1199.75 753.832C1202.38 757.8 1203.69 762.344 1203.69 767.464C1203.69 772.584 1202.38 777.128 1199.75 781.096C1197.13 785.064 1193.51 788.2 1188.91 790.504C1184.36 792.808 1179.15 793.96 1173.26 793.96ZM1173.26 780.712C1176.01 780.712 1178.51 780.136 1180.75 778.984C1183.05 777.832 1184.84 776.264 1186.12 774.28C1187.47 772.296 1188.11 770.024 1188.04 767.464C1188.11 764.904 1187.47 762.6 1186.12 760.552C1184.84 758.504 1183.05 756.936 1180.75 755.848C1178.51 754.696 1176.01 754.12 1173.26 754.12C1170.44 754.12 1167.85 754.696 1165.48 755.848C1163.18 757 1161.39 758.568 1160.11 760.552C1158.83 762.536 1158.19 764.84 1158.19 767.464C1158.19 770.024 1158.83 772.296 1160.11 774.28C1161.39 776.264 1163.18 777.832 1165.48 778.984C1167.85 780.136 1170.44 780.712 1173.26 780.712ZM1222.72 793V742.024H1237.31L1237.79 753.928L1234.15 754.984C1234.98 752.488 1236.39 750.184 1238.37 748.072C1240.42 745.96 1242.88 744.264 1245.76 742.984C1248.71 741.64 1251.87 740.968 1255.27 740.968C1259.62 740.968 1263.3 741.832 1266.31 743.56C1269.31 745.288 1271.59 747.752 1273.12 750.952C1274.66 754.088 1275.43 757.832 1275.43 762.184V793H1259.97V764.392C1259.97 762.152 1259.55 760.264 1258.72 758.728C1257.95 757.192 1256.77 756.008 1255.17 755.176C1253.63 754.344 1251.84 753.928 1249.79 753.928C1248 753.928 1246.37 754.248 1244.9 754.888C1243.49 755.464 1242.27 756.264 1241.25 757.288C1240.23 758.248 1239.43 759.336 1238.85 760.552C1238.34 761.768 1238.08 763.016 1238.08 764.296V793H1230.5C1228.39 793 1226.69 793 1225.41 793C1224.13 793 1223.23 793 1222.72 793ZM507.446 913.864C502.39 913.864 497.974 912.744 494.198 910.504C490.422 908.264 487.446 905.16 485.27 901.192C483.158 897.16 482.102 892.584 482.102 887.464C482.102 882.28 483.19 877.704 485.366 873.736C487.542 869.768 490.55 866.664 494.39 864.424C498.294 862.12 502.774 860.968 507.83 860.968C510.71 860.968 513.366 861.352 515.798 862.12C518.23 862.824 520.342 863.816 522.134 865.096C523.99 866.376 525.494 867.784 526.646 869.32C527.862 870.856 528.662 872.456 529.046 874.12H525.686V862.024H540.854V913H525.398V899.944L528.662 900.424C528.278 902.088 527.478 903.72 526.262 905.32C525.046 906.92 523.478 908.36 521.558 909.64C519.638 910.92 517.462 911.944 515.03 912.712C512.662 913.48 510.134 913.864 507.446 913.864ZM511.574 900.904C514.454 900.904 516.95 900.36 519.062 899.272C521.238 898.184 522.902 896.648 524.054 894.664C525.27 892.616 525.878 890.216 525.878 887.464C525.878 884.776 525.27 882.44 524.054 880.456C522.902 878.408 521.238 876.808 519.062 875.656C516.95 874.504 514.454 873.928 511.574 873.928C508.694 873.928 506.198 874.504 504.086 875.656C501.974 876.808 500.31 878.408 499.094 880.456C497.942 882.44 497.366 884.776 497.366 887.464C497.366 890.216 497.942 892.616 499.094 894.664C500.31 896.648 501.974 898.184 504.086 899.272C506.198 900.36 508.694 900.904 511.574 900.904ZM603.174 934.12V862.024H617.766L618.342 873.448L615.462 872.584C615.91 870.536 617.126 868.648 619.11 866.92C621.094 865.192 623.59 863.784 626.598 862.696C629.67 861.608 632.934 861.064 636.39 861.064C641.382 861.064 645.766 862.216 649.542 864.52C653.318 866.76 656.262 869.864 658.374 873.832C660.55 877.736 661.638 882.28 661.638 887.464C661.638 892.584 660.55 897.128 658.374 901.096C656.262 905.064 653.286 908.2 649.446 910.504C645.606 912.744 641.19 913.864 636.198 913.864C632.742 913.864 629.51 913.288 626.502 912.136C623.494 910.984 620.966 909.48 618.918 907.624C616.934 905.768 615.654 903.816 615.078 901.768L618.63 900.424V934.12H603.174ZM632.454 900.904C635.334 900.904 637.83 900.36 639.942 899.272C642.054 898.12 643.686 896.552 644.838 894.568C646.054 892.584 646.662 890.216 646.662 887.464C646.662 884.776 646.054 882.44 644.838 880.456C643.686 878.408 642.054 876.84 639.942 875.752C637.894 874.6 635.398 874.024 632.454 874.024C629.574 874.024 627.046 874.568 624.87 875.656C622.758 876.744 621.094 878.312 619.878 880.36C618.726 882.408 618.15 884.776 618.15 887.464C618.15 890.216 618.726 892.584 619.878 894.568C621.094 896.552 622.758 898.12 624.87 899.272C627.046 900.36 629.574 900.904 632.454 900.904ZM680.705 913V841.96H696.065V913H680.705ZM739.008 913.864C733.952 913.864 729.536 912.744 725.76 910.504C721.984 908.264 719.008 905.16 716.832 901.192C714.72 897.16 713.664 892.584 713.664 887.464C713.664 882.28 714.752 877.704 716.928 873.736C719.104 869.768 722.112 866.664 725.952 864.424C729.856 862.12 734.336 860.968 739.392 860.968C742.272 860.968 744.928 861.352 747.36 862.12C749.792 862.824 751.904 863.816 753.696 865.096C755.552 866.376 757.056 867.784 758.208 869.32C759.424 870.856 760.224 872.456 760.608 874.12H757.248V862.024H772.416V913H756.96V899.944L760.224 900.424C759.84 902.088 759.04 903.72 757.824 905.32C756.608 906.92 755.04 908.36 753.12 909.64C751.2 910.92 749.024 911.944 746.592 912.712C744.224 913.48 741.696 913.864 739.008 913.864ZM743.136 900.904C746.016 900.904 748.512 900.36 750.624 899.272C752.8 898.184 754.464 896.648 755.616 894.664C756.832 892.616 757.44 890.216 757.44 887.464C757.44 884.776 756.832 882.44 755.616 880.456C754.464 878.408 752.8 876.808 750.624 875.656C748.512 874.504 746.016 873.928 743.136 873.928C740.256 873.928 737.76 874.504 735.648 875.656C733.536 876.808 731.872 878.408 730.656 880.456C729.504 882.44 728.928 884.776 728.928 887.464C728.928 890.216 729.504 892.616 730.656 894.664C731.872 896.648 733.536 898.184 735.648 899.272C737.76 900.36 740.256 900.904 743.136 900.904ZM796.112 913V862.024H810.704L811.184 873.928L807.536 874.984C808.368 872.488 809.776 870.184 811.76 868.072C813.808 865.96 816.272 864.264 819.152 862.984C822.096 861.64 825.264 860.968 828.656 860.968C833.008 860.968 836.688 861.832 839.696 863.56C842.704 865.288 844.976 867.752 846.512 870.952C848.048 874.088 848.816 877.832 848.816 882.184V913H833.36V884.392C833.36 882.152 832.944 880.264 832.112 878.728C831.344 877.192 830.16 876.008 828.56 875.176C827.024 874.344 825.232 873.928 823.184 873.928C821.392 873.928 819.76 874.248 818.288 874.888C816.88 875.464 815.664 876.264 814.64 877.288C813.616 878.248 812.816 879.336 812.24 880.552C811.728 881.768 811.472 883.016 811.472 884.296V913H803.888C801.776 913 800.08 913 798.8 913C797.52 913 796.624 913 796.112 913Z" fill="white"/>
</g>
<defs>
<filter id="filter0_d_142_1222" x="137" y="387" width="108" height="176" filterUnits="userSpaceOnUse" color-interpolation-filters="sRGB">
<feFlood flood-opacity="0" result="BackgroundImageFix"/>
<feColorMatrix in="SourceAlpha" type="matrix" values="0 0 0 0 0 0 0 0 0 0 0 0 0 0 0 0 0 0 127 0" result="hardAlpha"/>
<feOffset dy="4"/>
<feGaussianBlur stdDeviation="2"/>
<feComposite in2="hardAlpha" operator="out"/>
<feColorMatrix type="matrix" values="0 0 0 0 0 0 0 0 0 0 0 0 0 0 0 0 0 0 0.25 0"/>
<feBlend mode="normal" in2="BackgroundImageFix" result="effect1_dropShadow_142_1222"/>
<feBlend mode="normal" in="SourceGraphic" in2="effect1_dropShadow_142_1222" result="shape"/>
</filter>
<filter id="filter1_d_142_1222" x="371" y="387" width="109" height="176" filterUnits="userSpaceOnUse" color-interpolation-filters="sRGB">
<feFlood flood-opacity="0" result="BackgroundImageFix"/>
<feColorMatrix in="SourceAlpha" type="matrix" values="0 0 0 0 0 0 0 0 0 0 0 0 0 0 0 0 0 0 127 0" result="hardAlpha"/>
<feOffset dy="4"/>
<feGaussianBlur stdDeviation="2"/>
<feComposite in2="hardAlpha" operator="out"/>
<feColorMatrix type="matrix" values="0 0 0 0 0 0 0 0 0 0 0 0 0 0 0 0 0 0 0.25 0"/>
<feBlend mode="normal" in2="BackgroundImageFix" result="effect1_dropShadow_142_1222"/>
<feBlend mode="normal" in="SourceGraphic" in2="effect1_dropShadow_142_1222" result="shape"/>
</filter>
<filter id="filter2_d_142_1222" x="254" y="387" width="109" height="176" filterUnits="userSpaceOnUse" color-interpolation-filters="sRGB">
<feFlood flood-opacity="0" result="BackgroundImageFix"/>
<feColorMatrix in="SourceAlpha" type="matrix" values="0 0 0 0 0 0 0 0 0 0 0 0 0 0 0 0 0 0 127 0" result="hardAlpha"/>
<feOffset dy="4"/>
<feGaussianBlur stdDeviation="2"/>
<feComposite in2="hardAlpha" operator="out"/>
<feColorMatrix type="matrix" values="0 0 0 0 0 0 0 0 0 0 0 0 0 0 0 0 0 0 0.25 0"/>
<feBlend mode="normal" in2="BackgroundImageFix" result="effect1_dropShadow_142_1222"/>
<feBlend mode="normal" in="SourceGraphic" in2="effect1_dropShadow_142_1222" result="shape"/>
</filter>
<filter id="filter3_d_142_1222" x="489" y="387" width="108" height="176" filterUnits="userSpaceOnUse" color-interpolation-filters="sRGB">
<feFlood flood-opacity="0" result="BackgroundImageFix"/>
<feColorMatrix in="SourceAlpha" type="matrix" values="0 0 0 0 0 0 0 0 0 0 0 0 0 0 0 0 0 0 127 0" result="hardAlpha"/>
<feOffset dy="4"/>
<feGaussianBlur stdDeviation="2"/>
<feComposite in2="hardAlpha" operator="out"/>
<feColorMatrix type="matrix" values="0 0 0 0 0 0 0 0 0 0 0 0 0 0 0 0 0 0 0.25 0"/>
<feBlend mode="normal" in2="BackgroundImageFix" result="effect1_dropShadow_142_1222"/>
<feBlend mode="normal" in="SourceGraphic" in2="effect1_dropShadow_142_1222" result="shape"/>
</filter>
<filter id="filter4_d_142_1222" x="31" y="410" width="126" height="206" filterUnits="userSpaceOnUse" color-interpolation-filters="sRGB">
<feFlood flood-opacity="0" result="BackgroundImageFix"/>
<feColorMatrix in="SourceAlpha" type="matrix" values="0 0 0 0 0 0 0 0 0 0 0 0 0 0 0 0 0 0 127 0" result="hardAlpha"/>
<feOffset dy="4"/>
<feGaussianBlur stdDeviation="2"/>
<feComposite in2="hardAlpha" operator="out"/>
<feColorMatrix type="matrix" values="0 0 0 0 0 0 0 0 0 0 0 0 0 0 0 0 0 0 0.25 0"/>
<feBlend mode="normal" in2="BackgroundImageFix" result="effect1_dropShadow_142_1222"/>
<feBlend mode="normal" in="SourceGraphic" in2="effect1_dropShadow_142_1222" result="shape"/>
</filter>
<filter id="filter5_d_142_1222" x="307" y="410" width="126" height="206" filterUnits="userSpaceOnUse" color-interpolation-filters="sRGB">
<feFlood flood-opacity="0" result="BackgroundImageFix"/>
<feColorMatrix in="SourceAlpha" type="matrix" values="0 0 0 0 0 0 0 0 0 0 0 0 0 0 0 0 0 0 127 0" result="hardAlpha"/>
<feOffset dy="4"/>
<feGaussianBlur stdDeviation="2"/>
<feComposite in2="hardAlpha" operator="out"/>
<feColorMatrix type="matrix" values="0 0 0 0 0 0 0 0 0 0 0 0 0 0 0 0 0 0 0.25 0"/>
<feBlend mode="normal" in2="BackgroundImageFix" result="effect1_dropShadow_142_1222"/>
<feBlend mode="normal" in="SourceGraphic" in2="effect1_dropShadow_142_1222" result="shape"/>
</filter>
<filter id="filter6_d_142_1222" x="169" y="410" width="126" height="206" filterUnits="userSpaceOnUse" color-interpolation-filters="sRGB">
<feFlood flood-opacity="0" result="BackgroundImageFix"/>
<feColorMatrix in="SourceAlpha" type="matrix" values="0 0 0 0 0 0 0 0 0 0 0 0 0 0 0 0 0 0 127 0" result="hardAlpha"/>
<feOffset dy="4"/>
<feGaussianBlur stdDeviation="2"/>
<feComposite in2="hardAlpha" operator="out"/>
<feColorMatrix type="matrix" values="0 0 0 0 0 0 0 0 0 0 0 0 0 0 0 0 0 0 0.25 0"/>
<feBlend mode="normal" in2="BackgroundImageFix" result="effect1_dropShadow_142_1222"/>
<feBlend mode="normal" in="SourceGraphic" in2="effect1_dropShadow_142_1222" result="shape"/>
</filter>
<filter id="filter7_d_142_1222" x="227" y="456" width="126" height="206" filterUnits="userSpaceOnUse" color-interpolation-filters="sRGB">
<feFlood flood-opacity="0" result="BackgroundImageFix"/>
<feColorMatrix in="SourceAlpha" type="matrix" values="0 0 0 0 0 0 0 0 0 0 0 0 0 0 0 0 0 0 127 0" result="hardAlpha"/>
<feOffset dy="4"/>
<feGaussianBlur stdDeviation="2"/>
<feComposite in2="hardAlpha" operator="out"/>
<feColorMatrix type="matrix" values="0 0 0 0 0 0 0 0 0 0 0 0 0 0 0 0 0 0 0.25 0"/>
<feBlend mode="normal" in2="BackgroundImageFix" result="effect1_dropShadow_142_1222"/>
<feBlend mode="normal" in="SourceGraphic" in2="effect1_dropShadow_142_1222" result="shape"/>
</filter>
<filter id="filter8_d_142_1222" x="445" y="410" width="126" height="206" filterUnits="userSpaceOnUse" color-interpolation-filters="sRGB">
<feFlood flood-opacity="0" result="BackgroundImageFix"/>
<feColorMatrix in="SourceAlpha" type="matrix" values="0 0 0 0 0 0 0 0 0 0 0 0 0 0 0 0 0 0 127 0" result="hardAlpha"/>
<feOffset dy="4"/>
<feGaussianBlur stdDeviation="2"/>
<feComposite in2="hardAlpha" operator="out"/>
<feColorMatrix type="matrix" values="0 0 0 0 0 0 0 0 0 0 0 0 0 0 0 0 0 0 0.25 0"/>
<feBlend mode="normal" in2="BackgroundImageFix" result="effect1_dropShadow_142_1222"/>
<feBlend mode="normal" in="SourceGraphic" in2="effect1_dropShadow_142_1222" result="shape"/>
</filter>
<filter id="filter9_d_142_1222" x="89" y="456" width="126" height="206" filterUnits="userSpaceOnUse" color-interpolation-filters="sRGB">
<feFlood flood-opacity="0" result="BackgroundImageFix"/>
<feColorMatrix in="SourceAlpha" type="matrix" values="0 0 0 0 0 0 0 0 0 0 0 0 0 0 0 0 0 0 127 0" result="hardAlpha"/>
<feOffset dy="4"/>
<feGaussianBlur stdDeviation="2"/>
<feComposite in2="hardAlpha" operator="out"/>
<feColorMatrix type="matrix" values="0 0 0 0 0 0 0 0 0 0 0 0 0 0 0 0 0 0 0.25 0"/>
<feBlend mode="normal" in2="BackgroundImageFix" result="effect1_dropShadow_142_1222"/>
<feBlend mode="normal" in="SourceGraphic" in2="effect1_dropShadow_142_1222" result="shape"/>
</filter>
<filter id="filter10_d_142_1222" x="365" y="456" width="126" height="206" filterUnits="userSpaceOnUse" color-interpolation-filters="sRGB">
<feFlood flood-opacity="0" result="BackgroundImageFix"/>
<feColorMatrix in="SourceAlpha" type="matrix" values="0 0 0 0 0 0 0 0 0 0 0 0 0 0 0 0 0 0 127 0" result="hardAlpha"/>
<feOffset dy="4"/>
<feGaussianBlur stdDeviation="2"/>
<feComposite in2="hardAlpha" operator="out"/>
<feColorMatrix type="matrix" values="0 0 0 0 0 0 0 0 0 0 0 0 0 0 0 0 0 0 0.25 0"/>
<feBlend mode="normal" in2="BackgroundImageFix" result="effect1_dropShadow_142_1222"/>
<feBlend mode="normal" in="SourceGraphic" in2="effect1_dropShadow_142_1222" result="shape"/>
</filter>
<filter id="filter11_d_142_1222" x="503" y="456" width="126" height="206" filterUnits="userSpaceOnUse" color-interpolation-filters="sRGB">
<feFlood flood-opacity="0" result="BackgroundImageFix"/>
<feColorMatrix in="SourceAlpha" type="matrix" values="0 0 0 0 0 0 0 0 0 0 0 0 0 0 0 0 0 0 127 0" result="hardAlpha"/>
<feOffset dy="4"/>
<feGaussianBlur stdDeviation="2"/>
<feComposite in2="hardAlpha" operator="out"/>
<feColorMatrix type="matrix" values="0 0 0 0 0 0 0 0 0 0 0 0 0 0 0 0 0 0 0.25 0"/>
<feBlend mode="normal" in2="BackgroundImageFix" result="effect1_dropShadow_142_1222"/>
<feBlend mode="normal" in="SourceGraphic" in2="effect1_dropShadow_142_1222" result="shape"/>
</filter>
<filter id="filter12_d_142_1222" x="980" y="415" width="176" height="290" filterUnits="userSpaceOnUse" color-interpolation-filters="sRGB">
<feFlood flood-opacity="0" result="BackgroundImageFix"/>
<feColorMatrix in="SourceAlpha" type="matrix" values="0 0 0 0 0 0 0 0 0 0 0 0 0 0 0 0 0 0 127 0" result="hardAlpha"/>
<feOffset dy="4"/>
<feGaussianBlur stdDeviation="2"/>
<feComposite in2="hardAlpha" operator="out"/>
<feColorMatrix type="matrix" values="0 0 0 0 0 0 0 0 0 0 0 0 0 0 0 0 0 0 0.25 0"/>
<feBlend mode="normal" in2="BackgroundImageFix" result="effect1_dropShadow_142_1222"/>
<feBlend mode="normal" in="SourceGraphic" in2="effect1_dropShadow_142_1222" result="shape"/>
</filter>
<clipPath id="clip0_142_1222">
<rect width="1440" height="1024" fill="white"/>
</clipPath>
</defs>
</svg>
