<svg width="1440" height="1024" viewBox="0 0 1440 1024" fill="none" xmlns="http://www.w3.org/2000/svg">
<g id="device3-yes" clip-path="url(#clip0_147_290)">
<rect width="1440" height="1024" fill="#333148"/>
<path id="part 4" d="M47.096 132.12V60.024H61.688L62.264 71.448L59.384 70.584C59.832 68.536 61.048 66.648 63.032 64.92C65.016 63.192 67.512 61.784 70.52 60.696C73.592 59.608 76.856 59.064 80.312 59.064C85.304 59.064 89.688 60.216 93.464 62.52C97.24 64.76 100.184 67.864 102.296 71.832C104.472 75.736 105.56 80.28 105.56 85.464C105.56 90.584 104.472 95.128 102.296 99.096C100.184 103.064 97.208 106.2 93.368 108.504C89.528 110.744 85.112 111.864 80.12 111.864C76.664 111.864 73.432 111.288 70.424 110.136C67.416 108.984 64.888 107.48 62.84 105.624C60.856 103.768 59.576 101.816 59 99.768L62.552 98.424V132.12H47.096ZM76.376 98.904C79.256 98.904 81.752 98.36 83.864 97.272C85.976 96.12 87.608 94.552 88.76 92.568C89.976 90.584 90.584 88.216 90.584 85.464C90.584 82.776 89.976 80.44 88.76 78.456C87.608 76.408 85.976 74.84 83.864 73.752C81.816 72.6 79.32 72.024 76.376 72.024C73.496 72.024 70.968 72.568 68.792 73.656C66.68 74.744 65.016 76.312 63.8 78.36C62.648 80.408 62.072 82.776 62.072 85.464C62.072 88.216 62.648 90.584 63.8 92.568C65.016 94.552 66.68 96.12 68.792 97.272C70.968 98.36 73.496 98.904 76.376 98.904ZM144.211 111.864C139.155 111.864 134.739 110.744 130.963 108.504C127.187 106.264 124.211 103.16 122.035 99.192C119.923 95.16 118.867 90.584 118.867 85.464C118.867 80.28 119.955 75.704 122.131 71.736C124.307 67.768 127.315 64.664 131.155 62.424C135.059 60.12 139.539 58.968 144.595 58.968C147.475 58.968 150.131 59.352 152.563 60.12C154.995 60.824 157.107 61.816 158.899 63.096C160.755 64.376 162.259 65.784 163.411 67.32C164.627 68.856 165.427 70.456 165.811 72.12H162.451V60.024H177.619V111H162.163V97.944L165.427 98.424C165.043 100.088 164.243 101.72 163.027 103.32C161.811 104.92 160.243 106.36 158.323 107.64C156.403 108.92 154.227 109.944 151.795 110.712C149.427 111.48 146.899 111.864 144.211 111.864ZM148.339 98.904C151.219 98.904 153.715 98.36 155.827 97.272C158.003 96.184 159.667 94.648 160.819 92.664C162.035 90.616 162.643 88.216 162.643 85.464C162.643 82.776 162.035 80.44 160.819 78.456C159.667 76.408 158.003 74.808 155.827 73.656C153.715 72.504 151.219 71.928 148.339 71.928C145.459 71.928 142.963 72.504 140.851 73.656C138.739 74.808 137.075 76.408 135.859 78.456C134.707 80.44 134.131 82.776 134.131 85.464C134.131 88.216 134.707 90.616 135.859 92.664C137.075 94.648 138.739 96.184 140.851 97.272C142.963 98.36 145.459 98.904 148.339 98.904ZM201.315 111V60.024H215.907L216.579 77.592L212.931 75.768C213.763 72.632 215.203 69.816 217.251 67.32C219.363 64.76 221.763 62.744 224.451 61.272C227.203 59.736 230.115 58.968 233.187 58.968C234.851 58.968 236.419 59.128 237.891 59.448C239.427 59.768 240.739 60.184 241.827 60.696L237.603 77.496C236.643 76.792 235.331 76.248 233.667 75.864C232.067 75.48 230.435 75.288 228.771 75.288C226.915 75.288 225.219 75.608 223.683 76.248C222.211 76.824 220.963 77.656 219.939 78.744C218.915 79.768 218.115 80.952 217.539 82.296C217.027 83.64 216.771 85.08 216.771 86.616V111H201.315ZM265.932 111V46.008H281.292V111H265.932ZM254.604 73.464V60.024H294.252V73.464H254.604ZM377.032 111V53.304H387.112L357.544 88.248L355.624 83.736H405.256V96.984H349.48L343.048 84.6L378.856 43.224H392.776V111H377.032Z" fill="white"/>
<rect id="Rectangle 7" x="-2982" y="384" width="5529" height="2209" fill="#211F2F"/>
<g id="Group 3">
<g id="Vector" filter="url(#filter0_d_147_290)">
<path d="M840.421 484.363C862.359 387.373 1000.58 387.374 1022.52 484.363L1058.15 641.88C1071.35 700.255 1026.96 755.793 967.1 755.793H895.841C835.978 755.793 791.587 700.255 804.791 641.88L840.421 484.363Z" fill="#FB8D8D"/>
<path d="M1030.15 272.49C1030.15 327.715 985.375 372.484 930.137 372.484C874.899 372.484 830.12 327.715 830.12 272.49C830.12 217.265 874.899 172.496 930.137 172.496C985.375 172.496 1030.15 217.265 1030.15 272.49Z" fill="#FB8D8D"/>
<path d="M950.14 707.129C950.14 679.885 972.231 657.799 999.482 657.799C1026.73 657.799 1048.82 679.885 1048.82 707.129V821.789C1048.82 849.033 1026.73 871.119 999.482 871.119C972.231 871.119 950.14 849.033 950.14 821.789V707.129Z" fill="#FB8D8D"/>
<path d="M988.731 516.024C974.783 492.619 982.454 462.341 1005.86 448.396C1029.27 434.452 1059.56 442.121 1073.51 465.526L1132.21 564.027C1146.16 587.432 1138.49 617.71 1115.08 631.655C1091.67 645.6 1061.38 637.931 1047.43 614.526L988.731 516.024Z" fill="#FB8D8D"/>
<path d="M786.78 465.868C800.405 442.274 830.582 434.19 854.182 447.812C877.781 461.434 885.867 491.604 872.242 515.199L814.899 614.497C801.274 638.091 771.097 646.175 747.497 632.553C723.898 618.93 715.812 588.761 729.437 565.166L786.78 465.868Z" fill="#FB8D8D"/>
<path d="M811.451 707.129C811.451 679.885 833.542 657.799 860.792 657.799C888.043 657.799 910.134 679.885 910.134 707.129V821.789C910.134 849.033 888.043 871.119 860.792 871.119C833.542 871.119 811.451 849.033 811.451 821.789V707.129Z" fill="#FB8D8D"/>
</g>
</g>
<path id="Star 2" d="M630.806 -377.344C612.236 -428.417 661.751 -477.932 712.823 -459.361L910.122 -387.623C924.249 -382.486 939.734 -382.486 953.861 -387.623L1151.16 -459.362C1202.23 -477.932 1251.75 -428.417 1233.18 -377.344L1161.44 -180.046C1156.3 -165.918 1156.3 -150.433 1161.44 -136.306L1233.18 60.9928C1251.75 112.065 1202.23 161.58 1151.16 143.01L953.861 71.2713C939.734 66.1345 924.249 66.1346 910.122 71.2713L712.823 143.01C661.751 161.58 612.236 112.065 630.806 60.9927L702.545 -136.306C707.681 -150.433 707.681 -165.918 702.545 -180.046L630.806 -377.344Z" fill="#485C77"/>
<g id="next">
<g id="Next">
<path id="Next_2" d="M1091.81 885V840.2H1101.79L1128.86 872.2L1127.01 871.88C1126.75 870.387 1126.56 868.957 1126.43 867.592C1126.3 866.227 1126.18 864.904 1126.05 863.624C1125.96 862.344 1125.88 861.064 1125.79 859.784C1125.75 858.504 1125.73 857.16 1125.73 855.752C1125.73 854.344 1125.73 852.851 1125.73 851.272V840.2H1136.29V885H1126.18L1098.08 851.976L1101.09 852.424C1101.22 853.917 1101.34 855.261 1101.47 856.456C1101.64 857.651 1101.77 858.781 1101.86 859.848C1101.98 860.872 1102.07 861.917 1102.11 862.984C1102.2 864.008 1102.26 865.096 1102.3 866.248C1102.35 867.4 1102.37 868.659 1102.37 870.024V885H1091.81ZM1168.89 885.64C1164.76 885.64 1161.13 884.893 1158.01 883.4C1154.94 881.864 1152.55 879.795 1150.85 877.192C1149.14 874.547 1148.29 871.539 1148.29 868.168C1148.29 865.48 1148.78 863.048 1149.76 860.872C1150.74 858.696 1152.11 856.819 1153.85 855.24C1155.6 853.661 1157.65 852.445 1160 851.592C1162.35 850.739 1164.88 850.312 1167.61 850.312C1170.26 850.312 1172.69 850.739 1174.91 851.592C1177.13 852.403 1179.05 853.576 1180.67 855.112C1182.33 856.648 1183.61 858.461 1184.51 860.552C1185.41 862.643 1185.81 864.947 1185.73 867.464L1185.66 870.344H1155.01L1153.53 864.392H1177.34L1176.25 865.672V864.392C1176.13 863.325 1175.66 862.365 1174.85 861.512C1174.08 860.659 1173.08 859.997 1171.84 859.528C1170.6 859.016 1169.24 858.76 1167.74 858.76C1165.82 858.76 1164.12 859.08 1162.62 859.72C1161.13 860.317 1159.96 861.256 1159.1 862.536C1158.29 863.816 1157.89 865.437 1157.89 867.4C1157.89 869.277 1158.38 870.92 1159.36 872.328C1160.38 873.736 1161.81 874.845 1163.65 875.656C1165.52 876.467 1167.72 876.872 1170.24 876.872C1172.41 876.872 1174.23 876.616 1175.68 876.104C1177.17 875.549 1178.52 874.867 1179.71 874.056L1184.32 880.712C1182.91 881.779 1181.35 882.696 1179.65 883.464C1177.98 884.189 1176.23 884.723 1174.4 885.064C1172.61 885.448 1170.77 885.64 1168.89 885.64ZM1222.57 885L1213.16 872.776L1210.54 869.32L1195.63 851.016H1208.56L1217 862.216L1219.82 865.928L1235.37 885H1222.57ZM1194.8 885L1210.03 865.8L1216.24 872.136L1207.53 885H1194.8ZM1219.76 870.216L1213.74 863.816L1222.32 851.016H1234.99L1219.76 870.216ZM1251.39 885V841.672H1261.63V885H1251.39ZM1243.84 859.976V851.016H1270.27V859.976H1243.84Z" fill="white"/>
</g>
<path id="Arrow 1" d="M1085 889.5C1080.31 889.5 1076.5 893.306 1076.5 898C1076.5 902.694 1080.31 906.5 1085 906.5V898V889.5ZM1362 898L1277 848.925V947.075L1362 898ZM1085 898V906.5H1285.5V898V889.5H1085V898Z" fill="#EF1044"/>
</g>
<g id="lighter">
<circle id="Ellipse 2" cx="731.434" cy="569.585" r="13.8128" transform="rotate(11.4942 731.434 569.585)" fill="#73839A"/>
<path id="Vector 11" d="M678.096 583.706L630.326 544.464L642.863 537.445L586.437 469.998L617.688 482.285L589.803 414.85C593.004 419.082 599.48 426.338 599.775 421.513C600.069 416.687 595.143 384.039 592.643 368.318L618.501 412.277L622.895 396.977L649.753 424.563L646.161 398.397L679.111 467.871L680.216 449.775L699.242 534.832L708.049 518.071L714.056 575.522L678.096 583.706Z" fill="#FD9D49"/>
<rect id="Rectangle 6" x="660.115" y="572.387" width="59.9818" height="45.62" rx="7" transform="rotate(-22.9929 660.115 572.387)" fill="#3E5068"/>
<rect id="Rectangle 4" x="758.647" y="562.48" width="103.319" height="125.246" rx="8" transform="rotate(66.5646 758.647 562.48)" fill="#485C77"/>
<rect id="Rectangle 5" x="648.613" y="614.41" width="46.7196" height="119.464" rx="4" transform="rotate(84.4974 648.613 614.41)" fill="#485C77"/>
<circle id="Ellipse 1" cx="649.999" cy="614.662" r="7.76969" transform="rotate(36.5646 649.999 614.662)" fill="#405066"/>
</g>
</g>
<defs>
<filter id="filter0_d_147_290" x="718.818" y="172.496" width="424.351" height="706.623" filterUnits="userSpaceOnUse" color-interpolation-filters="sRGB">
<feFlood flood-opacity="0" result="BackgroundImageFix"/>
<feColorMatrix in="SourceAlpha" type="matrix" values="0 0 0 0 0 0 0 0 0 0 0 0 0 0 0 0 0 0 127 0" result="hardAlpha"/>
<feOffset dy="4"/>
<feGaussianBlur stdDeviation="2"/>
<feComposite in2="hardAlpha" operator="out"/>
<feColorMatrix type="matrix" values="0 0 0 0 0 0 0 0 0 0 0 0 0 0 0 0 0 0 0.25 0"/>
<feBlend mode="normal" in2="BackgroundImageFix" result="effect1_dropShadow_147_290"/>
<feBlend mode="normal" in="SourceGraphic" in2="effect1_dropShadow_147_290" result="shape"/>
</filter>
<clipPath id="clip0_147_290">
<rect width="1440" height="1024" fill="white"/>
</clipPath>
</defs>
</svg>
