<svg width="1440" height="1024" viewBox="0 0 1440 1024" fill="none" xmlns="http://www.w3.org/2000/svg">
<g id="device5-yes" clip-path="url(#clip0_147_363)">
<rect width="1440" height="1024" fill="#333148"/>
<rect id="Rectangle 7" x="-73" y="485" width="1567" height="626" fill="#211F2F"/>
<path id="You died..." d="M376.584 367V334.84L377.736 340.696L347.016 299.8H366.312L389.256 331.192L380.904 331L402.312 299.8H420.648L391.944 340.216L393 334.072V367H376.584ZM452.57 367.96C446.618 367.96 441.338 366.808 436.73 364.504C432.122 362.2 428.506 359.064 425.882 355.096C423.258 351.128 421.946 346.584 421.946 341.464C421.946 336.344 423.258 331.8 425.882 327.832C428.506 323.864 432.122 320.728 436.73 318.424C441.338 316.12 446.618 314.968 452.57 314.968C458.458 314.968 463.674 316.12 468.218 318.424C472.826 320.728 476.442 323.864 479.066 327.832C481.69 331.8 483.002 336.344 483.002 341.464C483.002 346.584 481.69 351.128 479.066 355.096C476.442 359.064 472.826 362.2 468.218 364.504C463.674 366.808 458.458 367.96 452.57 367.96ZM452.57 354.712C455.322 354.712 457.818 354.136 460.058 352.984C462.362 351.832 464.154 350.264 465.434 348.28C466.778 346.296 467.418 344.024 467.354 341.464C467.418 338.904 466.778 336.6 465.434 334.552C464.154 332.504 462.362 330.936 460.058 329.848C457.818 328.696 455.322 328.12 452.57 328.12C449.754 328.12 447.162 328.696 444.794 329.848C442.49 331 440.698 332.568 439.418 334.552C438.138 336.536 437.498 338.84 437.498 341.464C437.498 344.024 438.138 346.296 439.418 348.28C440.698 350.264 442.49 351.832 444.794 352.984C447.162 354.136 449.754 354.712 452.57 354.712ZM521.042 368.056C516.946 368.056 513.394 367.16 510.386 365.368C507.442 363.576 505.17 360.984 503.57 357.592C501.97 354.136 501.17 350.008 501.17 345.208V316.024H516.53V342.712C516.53 345.336 516.882 347.544 517.586 349.336C518.354 351.128 519.538 352.504 521.138 353.464C522.738 354.36 524.69 354.808 526.994 354.808C528.658 354.808 530.194 354.552 531.602 354.04C533.01 353.464 534.258 352.696 535.346 351.736C536.434 350.712 537.266 349.56 537.842 348.28C538.482 346.936 538.802 345.432 538.802 343.768V316.024H554.162V367H539.762L539.09 356.536L541.874 355.384C541.17 357.624 539.826 359.704 537.842 361.624C535.858 363.544 533.426 365.112 530.546 366.328C527.73 367.48 524.562 368.056 521.042 368.056ZM636.082 368.056C631.09 368.056 626.706 366.936 622.93 364.696C619.154 362.392 616.21 359.256 614.098 355.288C611.986 351.256 610.93 346.68 610.93 341.56C610.93 336.44 612.018 331.896 614.194 327.928C616.37 323.896 619.378 320.728 623.218 318.424C627.122 316.12 631.602 314.968 636.658 314.968C639.474 314.968 642.098 315.352 644.53 316.12C646.962 316.824 649.138 317.784 651.058 319C653.042 320.216 654.61 321.624 655.762 323.224C656.978 324.76 657.682 326.328 657.874 327.928L654.226 328.792V295.96H669.682V367H655.378L654.514 354.616L657.586 355.384C657.394 356.984 656.69 358.552 655.474 360.088C654.258 361.56 652.658 362.904 650.674 364.12C648.754 365.272 646.546 366.232 644.05 367C641.554 367.704 638.898 368.056 636.082 368.056ZM640.402 355.096C643.282 355.096 645.778 354.52 647.89 353.368C650.066 352.216 651.73 350.648 652.882 348.664C654.034 346.616 654.61 344.248 654.61 341.56C654.61 338.808 654.034 336.44 652.882 334.456C651.73 332.408 650.066 330.84 647.89 329.752C645.778 328.6 643.282 328.024 640.402 328.024C637.522 328.024 635.026 328.6 632.914 329.752C630.802 330.84 629.138 332.408 627.922 334.456C626.77 336.44 626.194 338.808 626.194 341.56C626.194 344.248 626.77 346.616 627.922 348.664C629.138 350.648 630.802 352.216 632.914 353.368C635.026 354.52 637.522 355.096 640.402 355.096ZM692.927 367V316.024H708.383V367H692.927ZM700.607 305.56C697.727 305.56 695.487 304.888 693.887 303.544C692.287 302.136 691.487 300.152 691.487 297.592C691.487 295.288 692.287 293.4 693.887 291.928C695.551 290.456 697.791 289.72 700.607 289.72C703.487 289.72 705.727 290.424 707.327 291.832C708.927 293.176 709.727 295.096 709.727 297.592C709.727 299.96 708.895 301.88 707.231 303.352C705.631 304.824 703.423 305.56 700.607 305.56ZM758.373 367.96C752.165 367.96 746.725 366.84 742.053 364.6C737.445 362.296 733.861 359.192 731.301 355.288C728.741 351.32 727.461 346.808 727.461 341.752C727.461 337.72 728.197 334.072 729.669 330.808C731.141 327.544 733.189 324.728 735.813 322.36C738.437 319.992 741.509 318.168 745.029 316.888C748.549 315.608 752.357 314.968 756.453 314.968C760.421 314.968 764.069 315.608 767.397 316.888C770.725 318.104 773.605 319.864 776.037 322.168C778.533 324.472 780.453 327.192 781.797 330.328C783.141 333.464 783.749 336.92 783.621 340.696L783.525 345.016H737.541L735.333 336.088H771.045L769.413 338.008V336.088C769.221 334.488 768.517 333.048 767.301 331.768C766.149 330.488 764.645 329.496 762.789 328.792C760.933 328.024 758.885 327.64 756.645 327.64C753.765 327.64 751.205 328.12 748.965 329.08C746.725 329.976 744.965 331.384 743.685 333.304C742.469 335.224 741.861 337.656 741.861 340.6C741.861 343.416 742.597 345.88 744.069 347.992C745.605 350.104 747.749 351.768 750.501 352.984C753.317 354.2 756.613 354.808 760.389 354.808C763.653 354.808 766.373 354.424 768.549 353.656C770.789 352.824 772.805 351.8 774.597 350.584L781.509 360.568C779.397 362.168 777.061 363.544 774.501 364.696C772.005 365.784 769.381 366.584 766.629 367.096C763.941 367.672 761.189 367.96 758.373 367.96ZM822.082 368.056C817.09 368.056 812.706 366.936 808.93 364.696C805.154 362.392 802.21 359.256 800.098 355.288C797.986 351.256 796.93 346.68 796.93 341.56C796.93 336.44 798.018 331.896 800.194 327.928C802.37 323.896 805.378 320.728 809.218 318.424C813.122 316.12 817.602 314.968 822.658 314.968C825.474 314.968 828.098 315.352 830.53 316.12C832.962 316.824 835.138 317.784 837.058 319C839.042 320.216 840.61 321.624 841.762 323.224C842.978 324.76 843.682 326.328 843.874 327.928L840.226 328.792V295.96H855.682V367H841.378L840.514 354.616L843.586 355.384C843.394 356.984 842.69 358.552 841.474 360.088C840.258 361.56 838.658 362.904 836.674 364.12C834.754 365.272 832.546 366.232 830.05 367C827.554 367.704 824.898 368.056 822.082 368.056ZM826.402 355.096C829.282 355.096 831.778 354.52 833.89 353.368C836.066 352.216 837.73 350.648 838.882 348.664C840.034 346.616 840.61 344.248 840.61 341.56C840.61 338.808 840.034 336.44 838.882 334.456C837.73 332.408 836.066 330.84 833.89 329.752C831.778 328.6 829.282 328.024 826.402 328.024C823.522 328.024 821.026 328.6 818.914 329.752C816.802 330.84 815.138 332.408 813.922 334.456C812.77 336.44 812.194 338.808 812.194 341.56C812.194 344.248 812.77 346.616 813.922 348.664C815.138 350.648 816.802 352.216 818.914 353.368C821.026 354.52 823.522 355.096 826.402 355.096ZM884.495 368.056C881.359 368.056 878.959 367.32 877.295 365.848C875.695 364.312 874.895 362.2 874.895 359.512C874.895 357.08 875.727 355.032 877.391 353.368C879.119 351.704 881.487 350.872 884.495 350.872C887.631 350.872 890.031 351.64 891.695 353.176C893.359 354.712 894.191 356.824 894.191 359.512C894.191 361.88 893.327 363.896 891.599 365.56C889.935 367.224 887.567 368.056 884.495 368.056ZM921.432 368.056C918.296 368.056 915.896 367.32 914.232 365.848C912.632 364.312 911.832 362.2 911.832 359.512C911.832 357.08 912.664 355.032 914.328 353.368C916.056 351.704 918.424 350.872 921.432 350.872C924.568 350.872 926.968 351.64 928.632 353.176C930.296 354.712 931.128 356.824 931.128 359.512C931.128 361.88 930.264 363.896 928.536 365.56C926.872 367.224 924.504 368.056 921.432 368.056ZM958.37 368.056C955.234 368.056 952.834 367.32 951.17 365.848C949.57 364.312 948.77 362.2 948.77 359.512C948.77 357.08 949.602 355.032 951.266 353.368C952.994 351.704 955.362 350.872 958.37 350.872C961.506 350.872 963.906 351.64 965.57 353.176C967.234 354.712 968.066 356.824 968.066 359.512C968.066 361.88 967.202 363.896 965.474 365.56C963.81 367.224 961.442 368.056 958.37 368.056Z" fill="white"/>
<path id="I dont think that mind changer worked very well..." d="M347.904 414V410.496H351.408V400.704H347.904V397.2H359.016V400.704H355.488V410.496H359.016V414H347.904ZM379.45 414.264C378.202 414.264 377.106 413.984 376.162 413.424C375.218 412.848 374.482 412.064 373.954 411.072C373.426 410.064 373.162 408.92 373.162 407.64C373.162 406.36 373.434 405.224 373.978 404.232C374.522 403.224 375.274 402.432 376.234 401.856C377.21 401.28 378.33 400.992 379.594 400.992C380.298 400.992 380.954 401.088 381.562 401.28C382.17 401.456 382.714 401.696 383.194 402C383.69 402.304 384.082 402.656 384.37 403.056C384.674 403.44 384.85 403.832 384.898 404.232L383.986 404.448V396.24H387.85V414H384.274L384.058 410.904L384.826 411.096C384.778 411.496 384.602 411.888 384.298 412.272C383.994 412.64 383.594 412.976 383.098 413.28C382.618 413.568 382.066 413.808 381.442 414C380.818 414.176 380.154 414.264 379.45 414.264ZM380.53 411.024C381.25 411.024 381.874 410.88 382.402 410.592C382.946 410.304 383.362 409.912 383.65 409.416C383.938 408.904 384.082 408.312 384.082 407.64C384.082 406.952 383.938 406.36 383.65 405.864C383.362 405.352 382.946 404.96 382.402 404.688C381.874 404.4 381.25 404.256 380.53 404.256C379.81 404.256 379.186 404.4 378.658 404.688C378.13 404.96 377.714 405.352 377.41 405.864C377.122 406.36 376.978 406.952 376.978 407.64C376.978 408.312 377.122 408.904 377.41 409.416C377.714 409.912 378.13 410.304 378.658 410.592C379.186 410.88 379.81 411.024 380.53 411.024ZM399.853 414.24C398.365 414.24 397.045 413.952 395.893 413.376C394.741 412.8 393.837 412.016 393.181 411.024C392.525 410.032 392.197 408.896 392.197 407.616C392.197 406.336 392.525 405.2 393.181 404.208C393.837 403.216 394.741 402.432 395.893 401.856C397.045 401.28 398.365 400.992 399.853 400.992C401.325 400.992 402.629 401.28 403.765 401.856C404.917 402.432 405.821 403.216 406.477 404.208C407.133 405.2 407.461 406.336 407.461 407.616C407.461 408.896 407.133 410.032 406.477 411.024C405.821 412.016 404.917 412.8 403.765 413.376C402.629 413.952 401.325 414.24 399.853 414.24ZM399.853 410.928C400.541 410.928 401.165 410.784 401.725 410.496C402.301 410.208 402.749 409.816 403.069 409.32C403.405 408.824 403.565 408.256 403.549 407.616C403.565 406.976 403.405 406.4 403.069 405.888C402.749 405.376 402.301 404.984 401.725 404.712C401.165 404.424 400.541 404.28 399.853 404.28C399.149 404.28 398.501 404.424 397.909 404.712C397.333 405 396.885 405.392 396.565 405.888C396.245 406.384 396.085 406.96 396.085 407.616C396.085 408.256 396.245 408.824 396.565 409.32C396.885 409.816 397.333 410.208 397.909 410.496C398.501 410.784 399.149 410.928 399.853 410.928ZM412.219 414V401.256H415.867L415.987 404.232L415.075 404.496C415.283 403.872 415.635 403.296 416.131 402.768C416.643 402.24 417.259 401.816 417.979 401.496C418.715 401.16 419.507 400.992 420.355 400.992C421.443 400.992 422.363 401.208 423.115 401.64C423.867 402.072 424.435 402.688 424.819 403.488C425.203 404.272 425.395 405.208 425.395 406.296V414H421.531V406.848C421.531 406.288 421.427 405.816 421.219 405.432C421.027 405.048 420.731 404.752 420.331 404.544C419.947 404.336 419.499 404.232 418.987 404.232C418.539 404.232 418.131 404.312 417.763 404.472C417.411 404.616 417.107 404.816 416.851 405.072C416.595 405.312 416.395 405.584 416.251 405.888C416.123 406.192 416.059 406.504 416.059 406.824V414H414.163C413.635 414 413.211 414 412.891 414C412.571 414 412.347 414 412.219 414ZM432.522 414V397.752H436.362V414H432.522ZM429.69 404.616V401.256H439.602V404.616H429.69ZM455.233 414V397.752H459.073V414H455.233ZM452.401 404.616V401.256H462.313V404.616H452.401ZM467.04 414V396.24H470.808V404.232L469.896 404.544C470.056 403.904 470.392 403.32 470.904 402.792C471.432 402.248 472.072 401.816 472.824 401.496C473.576 401.16 474.376 400.992 475.224 400.992C476.312 400.992 477.224 401.216 477.96 401.664C478.712 402.096 479.272 402.712 479.64 403.512C480.024 404.296 480.216 405.216 480.216 406.272V414H476.352V406.872C476.352 406.296 476.248 405.816 476.04 405.432C475.848 405.032 475.552 404.728 475.152 404.52C474.768 404.312 474.32 404.216 473.808 404.232C473.392 404.232 473 404.304 472.632 404.448C472.28 404.576 471.968 404.768 471.696 405.024C471.44 405.264 471.24 405.544 471.096 405.864C470.952 406.184 470.88 406.528 470.88 406.896V414H468.984C468.456 414 468.032 414 467.712 414C467.392 414 467.168 414 467.04 414ZM486.286 414V401.256H490.15V414H486.286ZM488.206 398.64C487.486 398.64 486.926 398.472 486.526 398.136C486.126 397.784 485.926 397.288 485.926 396.648C485.926 396.072 486.126 395.6 486.526 395.232C486.942 394.864 487.502 394.68 488.206 394.68C488.926 394.68 489.486 394.856 489.886 395.208C490.286 395.544 490.486 396.024 490.486 396.648C490.486 397.24 490.278 397.72 489.862 398.088C489.462 398.456 488.91 398.64 488.206 398.64ZM496.36 414V401.256H500.008L500.128 404.232L499.216 404.496C499.424 403.872 499.776 403.296 500.272 402.768C500.784 402.24 501.4 401.816 502.12 401.496C502.856 401.16 503.648 400.992 504.496 400.992C505.584 400.992 506.504 401.208 507.256 401.64C508.008 402.072 508.576 402.688 508.96 403.488C509.344 404.272 509.536 405.208 509.536 406.296V414H505.672V406.848C505.672 406.288 505.568 405.816 505.36 405.432C505.168 405.048 504.872 404.752 504.472 404.544C504.088 404.336 503.64 404.232 503.128 404.232C502.68 404.232 502.272 404.312 501.904 404.472C501.552 404.616 501.248 404.816 500.992 405.072C500.736 405.312 500.536 405.584 500.392 405.888C500.264 406.192 500.2 406.504 500.2 406.824V414H498.304C497.776 414 497.352 414 497.032 414C496.712 414 496.488 414 496.36 414ZM518.943 410.544L517.695 407.664L524.775 401.256H529.887L518.943 410.544ZM515.415 414V396.24H519.159V414H515.415ZM525.207 414L519.999 407.616L522.663 405.504L529.743 414H525.207ZM544.928 414V397.752H548.768V414H544.928ZM542.096 404.616V401.256H552.008V404.616H542.096ZM556.735 414V396.24H560.503V404.232L559.591 404.544C559.751 403.904 560.087 403.32 560.599 402.792C561.127 402.248 561.767 401.816 562.519 401.496C563.271 401.16 564.071 400.992 564.919 400.992C566.007 400.992 566.919 401.216 567.655 401.664C568.407 402.096 568.967 402.712 569.335 403.512C569.719 404.296 569.911 405.216 569.911 406.272V414H566.047V406.872C566.047 406.296 565.943 405.816 565.735 405.432C565.543 405.032 565.247 404.728 564.847 404.52C564.463 404.312 564.015 404.216 563.503 404.232C563.087 404.232 562.695 404.304 562.327 404.448C561.975 404.576 561.663 404.768 561.391 405.024C561.135 405.264 560.935 405.544 560.791 405.864C560.647 406.184 560.575 406.528 560.575 406.896V414H558.679C558.151 414 557.727 414 557.407 414C557.087 414 556.863 414 556.735 414ZM580.686 414.216C579.422 414.216 578.318 413.936 577.374 413.376C576.43 412.816 575.686 412.04 575.142 411.048C574.614 410.04 574.35 408.896 574.35 407.616C574.35 406.32 574.622 405.176 575.166 404.184C575.71 403.192 576.462 402.416 577.422 401.856C578.398 401.28 579.518 400.992 580.782 400.992C581.502 400.992 582.166 401.088 582.774 401.28C583.382 401.456 583.91 401.704 584.358 402.024C584.822 402.344 585.198 402.696 585.486 403.08C585.79 403.464 585.99 403.864 586.086 404.28H585.246V401.256H589.038V414H585.174V410.736L585.99 410.856C585.894 411.272 585.694 411.68 585.39 412.08C585.086 412.48 584.694 412.84 584.214 413.16C583.734 413.48 583.19 413.736 582.582 413.928C581.99 414.12 581.358 414.216 580.686 414.216ZM581.718 410.976C582.438 410.976 583.062 410.84 583.59 410.568C584.134 410.296 584.55 409.912 584.838 409.416C585.142 408.904 585.294 408.304 585.294 407.616C585.294 406.944 585.142 406.36 584.838 405.864C584.55 405.352 584.134 404.952 583.59 404.664C583.062 404.376 582.438 404.232 581.718 404.232C580.998 404.232 580.374 404.376 579.846 404.664C579.318 404.952 578.902 405.352 578.598 405.864C578.31 406.36 578.166 406.944 578.166 407.616C578.166 408.304 578.31 408.904 578.598 409.416C578.902 409.912 579.318 410.296 579.846 410.568C580.374 410.84 580.998 410.976 581.718 410.976ZM596.21 414V397.752H600.05V414H596.21ZM593.378 404.616V401.256H603.29V404.616H593.378ZM617.576 414V401.256H621.224L621.344 403.944L620.648 403.776C620.856 403.392 621.128 403.032 621.464 402.696C621.816 402.36 622.208 402.072 622.64 401.832C623.088 401.576 623.568 401.376 624.08 401.232C624.592 401.088 625.144 401.016 625.736 401.016C626.424 401.016 627.056 401.12 627.632 401.328C628.224 401.536 628.728 401.88 629.144 402.36C629.56 402.824 629.88 403.448 630.104 404.232L629.312 404.136L629.504 403.752C629.76 403.384 630.064 403.04 630.416 402.72C630.784 402.384 631.2 402.096 631.664 401.856C632.128 401.6 632.624 401.4 633.152 401.256C633.68 401.096 634.224 401.016 634.784 401.016C635.952 401.016 636.904 401.24 637.64 401.688C638.376 402.12 638.92 402.736 639.272 403.536C639.624 404.336 639.8 405.264 639.8 406.32V414H635.936V406.728C635.936 406.216 635.856 405.776 635.696 405.408C635.536 405.04 635.288 404.76 634.952 404.568C634.632 404.36 634.216 404.256 633.704 404.256C633.256 404.256 632.84 404.328 632.456 404.472C632.088 404.616 631.76 404.816 631.472 405.072C631.2 405.312 630.984 405.6 630.824 405.936C630.68 406.256 630.608 406.608 630.608 406.992V414H626.744V406.704C626.744 406.208 626.656 405.776 626.48 405.408C626.304 405.04 626.032 404.76 625.664 404.568C625.296 404.36 624.84 404.256 624.296 404.256C623.864 404.256 623.472 404.336 623.12 404.496C622.784 404.64 622.488 404.84 622.232 405.096C621.976 405.336 621.776 405.6 621.632 405.888C621.504 406.176 621.44 406.472 621.44 406.776V414H617.576ZM645.802 414V401.256H649.666V414H645.802ZM647.722 398.64C647.002 398.64 646.442 398.472 646.042 398.136C645.642 397.784 645.442 397.288 645.442 396.648C645.442 396.072 645.642 395.6 646.042 395.232C646.458 394.864 647.018 394.68 647.722 394.68C648.442 394.68 649.002 394.856 649.402 395.208C649.802 395.544 650.002 396.024 650.002 396.648C650.002 397.24 649.794 397.72 649.378 398.088C648.978 398.456 648.426 398.64 647.722 398.64ZM655.876 414V401.256H659.524L659.644 404.232L658.732 404.496C658.94 403.872 659.292 403.296 659.788 402.768C660.3 402.24 660.916 401.816 661.636 401.496C662.372 401.16 663.164 400.992 664.012 400.992C665.1 400.992 666.02 401.208 666.772 401.64C667.524 402.072 668.092 402.688 668.476 403.488C668.86 404.272 669.052 405.208 669.052 406.296V414H665.188V406.848C665.188 406.288 665.084 405.816 664.876 405.432C664.684 405.048 664.388 404.752 663.988 404.544C663.604 404.336 663.156 404.232 662.644 404.232C662.196 404.232 661.788 404.312 661.42 404.472C661.068 404.616 660.764 404.816 660.508 405.072C660.252 405.312 660.052 405.584 659.908 405.888C659.78 406.192 659.716 406.504 659.716 406.824V414H657.82C657.292 414 656.868 414 656.548 414C656.228 414 656.004 414 655.876 414ZM679.778 414.264C678.53 414.264 677.434 413.984 676.49 413.424C675.546 412.848 674.81 412.064 674.282 411.072C673.754 410.064 673.49 408.92 673.49 407.64C673.49 406.36 673.762 405.224 674.306 404.232C674.85 403.224 675.602 402.432 676.562 401.856C677.538 401.28 678.658 400.992 679.922 400.992C680.626 400.992 681.282 401.088 681.89 401.28C682.498 401.456 683.042 401.696 683.522 402C684.018 402.304 684.41 402.656 684.698 403.056C685.002 403.44 685.178 403.832 685.226 404.232L684.314 404.448V396.24H688.178V414H684.602L684.386 410.904L685.154 411.096C685.106 411.496 684.93 411.888 684.626 412.272C684.322 412.64 683.922 412.976 683.426 413.28C682.946 413.568 682.394 413.808 681.77 414C681.146 414.176 680.482 414.264 679.778 414.264ZM680.858 411.024C681.578 411.024 682.202 410.88 682.73 410.592C683.274 410.304 683.69 409.912 683.978 409.416C684.266 408.904 684.41 408.312 684.41 407.64C684.41 406.952 684.266 406.36 683.978 405.864C683.69 405.352 683.274 404.96 682.73 404.688C682.202 404.4 681.578 404.256 680.858 404.256C680.138 404.256 679.514 404.4 678.986 404.688C678.458 404.96 678.042 405.352 677.738 405.864C677.45 406.36 677.306 406.952 677.306 407.64C677.306 408.312 677.45 408.904 677.738 409.416C678.042 409.912 678.458 410.304 678.986 410.592C679.514 410.88 680.138 411.024 680.858 411.024ZM709.43 414.24C708.022 414.24 706.774 413.952 705.686 413.376C704.598 412.8 703.742 412.016 703.118 411.024C702.494 410.016 702.182 408.88 702.182 407.616C702.182 406.352 702.494 405.224 703.118 404.232C703.742 403.224 704.59 402.432 705.662 401.856C706.734 401.28 707.95 400.992 709.31 400.992C710.606 400.992 711.79 401.192 712.862 401.592C713.934 401.976 714.806 402.52 715.478 403.224L713.39 405.864C713.102 405.592 712.758 405.336 712.358 405.096C711.958 404.856 711.526 404.672 711.062 404.544C710.614 404.4 710.15 404.328 709.67 404.328C708.934 404.328 708.286 404.472 707.726 404.76C707.182 405.032 706.758 405.416 706.454 405.912C706.166 406.408 706.022 406.976 706.022 407.616C706.022 408.224 706.174 408.776 706.478 409.272C706.782 409.768 707.206 410.16 707.75 410.448C708.294 410.736 708.926 410.88 709.646 410.88C710.222 410.88 710.734 410.824 711.182 410.712C711.63 410.6 712.038 410.448 712.406 410.256C712.79 410.048 713.118 409.816 713.39 409.56L715.478 412.176C714.758 412.784 713.878 413.28 712.838 413.664C711.798 414.048 710.662 414.24 709.43 414.24ZM719.907 414V396.24H723.675V404.232L722.763 404.544C722.923 403.904 723.259 403.32 723.771 402.792C724.299 402.248 724.939 401.816 725.691 401.496C726.443 401.16 727.243 400.992 728.091 400.992C729.179 400.992 730.091 401.216 730.827 401.664C731.579 402.096 732.139 402.712 732.507 403.512C732.891 404.296 733.083 405.216 733.083 406.272V414H729.219V406.872C729.219 406.296 729.115 405.816 728.907 405.432C728.715 405.032 728.419 404.728 728.019 404.52C727.635 404.312 727.187 404.216 726.675 404.232C726.259 404.232 725.867 404.304 725.499 404.448C725.147 404.576 724.835 404.768 724.563 405.024C724.307 405.264 724.107 405.544 723.963 405.864C723.819 406.184 723.747 406.528 723.747 406.896V414H721.851C721.323 414 720.899 414 720.579 414C720.259 414 720.035 414 719.907 414ZM743.858 414.216C742.594 414.216 741.49 413.936 740.546 413.376C739.602 412.816 738.858 412.04 738.314 411.048C737.786 410.04 737.521 408.896 737.521 407.616C737.521 406.32 737.794 405.176 738.338 404.184C738.882 403.192 739.634 402.416 740.594 401.856C741.57 401.28 742.69 400.992 743.954 400.992C744.674 400.992 745.338 401.088 745.946 401.28C746.554 401.456 747.082 401.704 747.53 402.024C747.994 402.344 748.37 402.696 748.658 403.08C748.962 403.464 749.162 403.864 749.258 404.28H748.418V401.256H752.21V414H748.346V410.736L749.161 410.856C749.066 411.272 748.866 411.68 748.562 412.08C748.258 412.48 747.866 412.84 747.386 413.16C746.906 413.48 746.362 413.736 745.754 413.928C745.162 414.12 744.53 414.216 743.858 414.216ZM744.89 410.976C745.61 410.976 746.234 410.84 746.762 410.568C747.306 410.296 747.722 409.912 748.01 409.416C748.314 408.904 748.466 408.304 748.466 407.616C748.466 406.944 748.314 406.36 748.01 405.864C747.722 405.352 747.306 404.952 746.762 404.664C746.234 404.376 745.61 404.232 744.89 404.232C744.17 404.232 743.546 404.376 743.018 404.664C742.49 404.952 742.074 405.352 741.77 405.864C741.482 406.36 741.338 406.944 741.338 407.616C741.338 408.304 741.482 408.904 741.77 409.416C742.074 409.912 742.49 410.296 743.018 410.568C743.546 410.84 744.17 410.976 744.89 410.976ZM758.133 414V401.256H761.781L761.901 404.232L760.989 404.496C761.197 403.872 761.549 403.296 762.045 402.768C762.557 402.24 763.173 401.816 763.893 401.496C764.629 401.16 765.421 400.992 766.269 400.992C767.357 400.992 768.277 401.208 769.029 401.64C769.781 402.072 770.349 402.688 770.733 403.488C771.117 404.272 771.309 405.208 771.309 406.296V414H767.445V406.848C767.445 406.288 767.341 405.816 767.133 405.432C766.941 405.048 766.645 404.752 766.245 404.544C765.861 404.336 765.413 404.232 764.901 404.232C764.453 404.232 764.045 404.312 763.677 404.472C763.325 404.616 763.021 404.816 762.765 405.072C762.509 405.312 762.309 405.584 762.165 405.888C762.037 406.192 761.973 406.504 761.973 406.824V414H760.077C759.549 414 759.125 414 758.805 414C758.485 414 758.261 414 758.133 414ZM783.596 419.52C782.332 419.52 781.156 419.36 780.068 419.04C778.996 418.736 778.116 418.352 777.428 417.888L778.748 415.152C779.1 415.344 779.492 415.528 779.924 415.704C780.372 415.88 780.86 416.024 781.388 416.136C781.916 416.264 782.492 416.328 783.116 416.328C783.932 416.328 784.62 416.192 785.18 415.92C785.756 415.648 786.188 415.232 786.476 414.672C786.78 414.128 786.932 413.456 786.932 412.656V410.904L787.676 411.024C787.548 411.536 787.228 412.008 786.716 412.44C786.204 412.872 785.564 413.224 784.796 413.496C784.028 413.768 783.212 413.904 782.348 413.904C781.084 413.904 779.972 413.64 779.012 413.112C778.052 412.568 777.292 411.824 776.732 410.88C776.188 409.92 775.916 408.816 775.916 407.568C775.916 406.288 776.196 405.16 776.756 404.184C777.316 403.192 778.084 402.416 779.06 401.856C780.036 401.28 781.164 400.992 782.444 400.992C782.876 400.992 783.324 401.048 783.788 401.16C784.268 401.256 784.732 401.392 785.18 401.568C785.644 401.728 786.06 401.936 786.428 402.192C786.812 402.432 787.124 402.704 787.364 403.008C787.62 403.296 787.764 403.608 787.796 403.944L787.004 404.136L787.172 401.256H790.796V412.584C790.796 413.72 790.612 414.712 790.244 415.56C789.892 416.424 789.396 417.152 788.756 417.744C788.116 418.336 787.348 418.776 786.452 419.064C785.572 419.368 784.62 419.52 783.596 419.52ZM783.452 410.928C784.172 410.928 784.804 410.792 785.348 410.52C785.892 410.232 786.308 409.84 786.596 409.344C786.9 408.848 787.052 408.264 787.052 407.592C787.052 406.92 786.9 406.336 786.596 405.84C786.308 405.328 785.892 404.936 785.348 404.664C784.804 404.376 784.172 404.232 783.452 404.232C782.7 404.232 782.044 404.376 781.484 404.664C780.924 404.936 780.492 405.328 780.188 405.84C779.884 406.336 779.732 406.92 779.732 407.592C779.732 408.264 779.884 408.848 780.188 409.344C780.492 409.84 780.924 410.232 781.484 410.52C782.044 410.792 782.7 410.928 783.452 410.928ZM802.953 414.24C801.401 414.24 800.041 413.96 798.873 413.4C797.721 412.824 796.825 412.048 796.185 411.072C795.545 410.08 795.225 408.952 795.225 407.688C795.225 406.68 795.409 405.768 795.777 404.952C796.145 404.136 796.657 403.432 797.313 402.84C797.969 402.248 798.737 401.792 799.617 401.472C800.497 401.152 801.449 400.992 802.473 400.992C803.465 400.992 804.377 401.152 805.209 401.472C806.041 401.776 806.761 402.216 807.369 402.792C807.993 403.368 808.473 404.048 808.809 404.832C809.145 405.616 809.297 406.48 809.265 407.424L809.241 408.504H797.745L797.193 406.272H806.121L805.713 406.752V406.272C805.665 405.872 805.489 405.512 805.185 405.192C804.897 404.872 804.521 404.624 804.057 404.448C803.593 404.256 803.081 404.16 802.521 404.16C801.801 404.16 801.161 404.28 800.601 404.52C800.041 404.744 799.601 405.096 799.281 405.576C798.977 406.056 798.825 406.664 798.825 407.4C798.825 408.104 799.009 408.72 799.377 409.248C799.761 409.776 800.297 410.192 800.985 410.496C801.689 410.8 802.513 410.952 803.457 410.952C804.273 410.952 804.953 410.856 805.497 410.664C806.057 410.456 806.561 410.2 807.009 409.896L808.737 412.392C808.209 412.792 807.625 413.136 806.985 413.424C806.361 413.696 805.705 413.896 805.017 414.024C804.345 414.168 803.657 414.24 802.953 414.24ZM814.032 414V401.256H817.68L817.848 405.648L816.936 405.192C817.144 404.408 817.504 403.704 818.016 403.08C818.544 402.44 819.144 401.936 819.816 401.568C820.504 401.184 821.232 400.992 822 400.992C822.416 400.992 822.808 401.032 823.176 401.112C823.56 401.192 823.888 401.296 824.16 401.424L823.104 405.624C822.864 405.448 822.536 405.312 822.12 405.216C821.72 405.12 821.312 405.072 820.896 405.072C820.432 405.072 820.008 405.152 819.624 405.312C819.256 405.456 818.944 405.664 818.688 405.936C818.432 406.192 818.232 406.488 818.088 406.824C817.96 407.16 817.896 407.52 817.896 407.904V414H814.032ZM840.598 414L836.158 401.256H840.214L842.734 409.656L842.23 409.608L845.11 402.96H847.582L850.654 409.608L850.15 409.656L852.67 401.256H856.75L852.166 414H849.262L845.95 406.32L846.838 406.296L843.478 414H840.598ZM866.611 414.24C865.123 414.24 863.803 413.952 862.651 413.376C861.499 412.8 860.595 412.016 859.939 411.024C859.283 410.032 858.955 408.896 858.955 407.616C858.955 406.336 859.283 405.2 859.939 404.208C860.595 403.216 861.499 402.432 862.651 401.856C863.803 401.28 865.123 400.992 866.611 400.992C868.083 400.992 869.387 401.28 870.523 401.856C871.675 402.432 872.579 403.216 873.235 404.208C873.891 405.2 874.219 406.336 874.219 407.616C874.219 408.896 873.891 410.032 873.235 411.024C872.579 412.016 871.675 412.8 870.523 413.376C869.387 413.952 868.083 414.24 866.611 414.24ZM866.611 410.928C867.299 410.928 867.923 410.784 868.483 410.496C869.059 410.208 869.507 409.816 869.827 409.32C870.163 408.824 870.323 408.256 870.307 407.616C870.323 406.976 870.163 406.4 869.827 405.888C869.507 405.376 869.059 404.984 868.483 404.712C867.923 404.424 867.299 404.28 866.611 404.28C865.907 404.28 865.259 404.424 864.667 404.712C864.091 405 863.643 405.392 863.323 405.888C863.003 406.384 862.843 406.96 862.843 407.616C862.843 408.256 863.003 408.824 863.323 409.32C863.643 409.816 864.091 410.208 864.667 410.496C865.259 410.784 865.907 410.928 866.611 410.928ZM878.977 414V401.256H882.625L882.793 405.648L881.881 405.192C882.089 404.408 882.449 403.704 882.961 403.08C883.489 402.44 884.089 401.936 884.761 401.568C885.449 401.184 886.177 400.992 886.945 400.992C887.361 400.992 887.753 401.032 888.121 401.112C888.505 401.192 888.833 401.296 889.105 401.424L888.049 405.624C887.809 405.448 887.481 405.312 887.065 405.216C886.665 405.12 886.257 405.072 885.841 405.072C885.377 405.072 884.953 405.152 884.569 405.312C884.201 405.456 883.889 405.664 883.633 405.936C883.377 406.192 883.177 406.488 883.033 406.824C882.905 407.16 882.841 407.52 882.841 407.904V414H878.977ZM896.943 410.544L895.695 407.664L902.775 401.256H907.887L896.943 410.544ZM893.415 414V396.24H897.159V414H893.415ZM903.207 414L897.999 407.616L900.663 405.504L907.743 414H903.207ZM917.773 414.24C916.221 414.24 914.861 413.96 913.693 413.4C912.541 412.824 911.645 412.048 911.005 411.072C910.365 410.08 910.045 408.952 910.045 407.688C910.045 406.68 910.229 405.768 910.597 404.952C910.965 404.136 911.477 403.432 912.133 402.84C912.789 402.248 913.557 401.792 914.437 401.472C915.317 401.152 916.269 400.992 917.293 400.992C918.285 400.992 919.197 401.152 920.029 401.472C920.861 401.776 921.581 402.216 922.189 402.792C922.813 403.368 923.293 404.048 923.629 404.832C923.965 405.616 924.117 406.48 924.085 407.424L924.061 408.504H912.565L912.013 406.272H920.941L920.533 406.752V406.272C920.485 405.872 920.309 405.512 920.005 405.192C919.717 404.872 919.341 404.624 918.877 404.448C918.413 404.256 917.901 404.16 917.341 404.16C916.621 404.16 915.981 404.28 915.421 404.52C914.861 404.744 914.421 405.096 914.101 405.576C913.797 406.056 913.645 406.664 913.645 407.4C913.645 408.104 913.829 408.72 914.197 409.248C914.581 409.776 915.117 410.192 915.805 410.496C916.509 410.8 917.333 410.952 918.277 410.952C919.093 410.952 919.773 410.856 920.317 410.664C920.877 410.456 921.381 410.2 921.829 409.896L923.557 412.392C923.029 412.792 922.445 413.136 921.805 413.424C921.181 413.696 920.525 413.896 919.837 414.024C919.165 414.168 918.477 414.24 917.773 414.24ZM933.7 414.264C932.452 414.264 931.356 413.984 930.412 413.424C929.468 412.848 928.732 412.064 928.204 411.072C927.676 410.064 927.412 408.92 927.412 407.64C927.412 406.36 927.684 405.224 928.228 404.232C928.772 403.224 929.524 402.432 930.484 401.856C931.46 401.28 932.58 400.992 933.844 400.992C934.548 400.992 935.204 401.088 935.812 401.28C936.42 401.456 936.964 401.696 937.444 402C937.94 402.304 938.332 402.656 938.62 403.056C938.924 403.44 939.1 403.832 939.148 404.232L938.236 404.448V396.24H942.1V414H938.524L938.308 410.904L939.076 411.096C939.028 411.496 938.852 411.888 938.548 412.272C938.244 412.64 937.844 412.976 937.348 413.28C936.868 413.568 936.316 413.808 935.692 414C935.068 414.176 934.404 414.264 933.7 414.264ZM934.78 411.024C935.5 411.024 936.124 410.88 936.652 410.592C937.196 410.304 937.612 409.912 937.9 409.416C938.188 408.904 938.332 408.312 938.332 407.64C938.332 406.952 938.188 406.36 937.9 405.864C937.612 405.352 937.196 404.96 936.652 404.688C936.124 404.4 935.5 404.256 934.78 404.256C934.06 404.256 933.436 404.4 932.908 404.688C932.38 404.96 931.964 405.352 931.66 405.864C931.372 406.36 931.228 406.952 931.228 407.64C931.228 408.312 931.372 408.904 931.66 409.416C931.964 409.912 932.38 410.304 932.908 410.592C933.436 410.88 934.06 411.024 934.78 411.024ZM961.48 414L955.408 401.256H959.752L963.688 411L962.656 411.096L966.688 401.256H970.984L964.696 414H961.48ZM980.773 414.24C979.221 414.24 977.861 413.96 976.693 413.4C975.541 412.824 974.645 412.048 974.005 411.072C973.365 410.08 973.045 408.952 973.045 407.688C973.045 406.68 973.229 405.768 973.597 404.952C973.965 404.136 974.477 403.432 975.133 402.84C975.789 402.248 976.557 401.792 977.437 401.472C978.317 401.152 979.269 400.992 980.293 400.992C981.285 400.992 982.197 401.152 983.029 401.472C983.861 401.776 984.581 402.216 985.189 402.792C985.813 403.368 986.293 404.048 986.629 404.832C986.965 405.616 987.117 406.48 987.085 407.424L987.061 408.504H975.565L975.013 406.272H983.941L983.533 406.752V406.272C983.485 405.872 983.309 405.512 983.005 405.192C982.717 404.872 982.341 404.624 981.877 404.448C981.413 404.256 980.901 404.16 980.341 404.16C979.621 404.16 978.981 404.28 978.421 404.52C977.861 404.744 977.421 405.096 977.101 405.576C976.797 406.056 976.645 406.664 976.645 407.4C976.645 408.104 976.829 408.72 977.197 409.248C977.581 409.776 978.117 410.192 978.805 410.496C979.509 410.8 980.333 410.952 981.277 410.952C982.093 410.952 982.773 410.856 983.317 410.664C983.877 410.456 984.381 410.2 984.829 409.896L986.557 412.392C986.029 412.792 985.445 413.136 984.805 413.424C984.181 413.696 983.525 413.896 982.837 414.024C982.165 414.168 981.477 414.24 980.773 414.24ZM991.852 414V401.256H995.5L995.668 405.648L994.756 405.192C994.964 404.408 995.324 403.704 995.836 403.08C996.364 402.44 996.964 401.936 997.636 401.568C998.324 401.184 999.052 400.992 999.82 400.992C1000.24 400.992 1000.63 401.032 1001 401.112C1001.38 401.192 1001.71 401.296 1001.98 401.424L1000.92 405.624C1000.68 405.448 1000.36 405.312 999.94 405.216C999.54 405.12 999.132 405.072 998.716 405.072C998.252 405.072 997.828 405.152 997.444 405.312C997.076 405.456 996.764 405.664 996.508 405.936C996.252 406.192 996.052 406.488 995.908 406.824C995.78 407.16 995.716 407.52 995.716 407.904V414H991.852ZM1007.85 419.52L1011.19 412.68L1011.11 414.624L1004.35 401.256H1008.74L1011.83 407.88C1012.06 408.328 1012.27 408.784 1012.46 409.248C1012.65 409.696 1012.8 410.144 1012.91 410.592L1012.19 410.784C1012.34 410.432 1012.51 410.016 1012.7 409.536C1012.89 409.056 1013.09 408.568 1013.3 408.072L1016.15 401.256H1020.55L1014.31 414.048L1011.74 419.52H1007.85ZM1036.77 414L1032.33 401.256H1036.39L1038.91 409.656L1038.4 409.608L1041.28 402.96H1043.75L1046.83 409.608L1046.32 409.656L1048.84 401.256H1052.92L1048.34 414H1045.43L1042.12 406.32L1043.01 406.296L1039.65 414H1036.77ZM1062.69 414.24C1061.14 414.24 1059.78 413.96 1058.61 413.4C1057.46 412.824 1056.56 412.048 1055.92 411.072C1055.28 410.08 1054.96 408.952 1054.96 407.688C1054.96 406.68 1055.14 405.768 1055.51 404.952C1055.88 404.136 1056.39 403.432 1057.05 402.84C1057.7 402.248 1058.47 401.792 1059.35 401.472C1060.23 401.152 1061.18 400.992 1062.21 400.992C1063.2 400.992 1064.11 401.152 1064.94 401.472C1065.78 401.776 1066.5 402.216 1067.1 402.792C1067.73 403.368 1068.21 404.048 1068.54 404.832C1068.88 405.616 1069.03 406.48 1069 407.424L1068.98 408.504H1057.48L1056.93 406.272H1065.86L1065.45 406.752V406.272C1065.4 405.872 1065.22 405.512 1064.92 405.192C1064.63 404.872 1064.26 404.624 1063.79 404.448C1063.33 404.256 1062.82 404.16 1062.26 404.16C1061.54 404.16 1060.9 404.28 1060.34 404.52C1059.78 404.744 1059.34 405.096 1059.02 405.576C1058.71 406.056 1058.56 406.664 1058.56 407.4C1058.56 408.104 1058.74 408.72 1059.11 409.248C1059.5 409.776 1060.03 410.192 1060.72 410.496C1061.42 410.8 1062.25 410.952 1063.19 410.952C1064.01 410.952 1064.69 410.856 1065.23 410.664C1065.79 410.456 1066.3 410.2 1066.74 409.896L1068.47 412.392C1067.94 412.792 1067.36 413.136 1066.72 413.424C1066.1 413.696 1065.44 413.896 1064.75 414.024C1064.08 414.168 1063.39 414.24 1062.69 414.24ZM1073.77 414V396.24H1077.61V414H1073.77ZM1083.68 414V396.24H1087.52V414H1083.68ZM1095.18 414.264C1094.39 414.264 1093.79 414.08 1093.38 413.712C1092.98 413.328 1092.78 412.8 1092.78 412.128C1092.78 411.52 1092.99 411.008 1093.4 410.592C1093.83 410.176 1094.43 409.968 1095.18 409.968C1095.96 409.968 1096.56 410.16 1096.98 410.544C1097.39 410.928 1097.6 411.456 1097.6 412.128C1097.6 412.72 1097.39 413.224 1096.95 413.64C1096.54 414.056 1095.95 414.264 1095.18 414.264ZM1104.41 414.264C1103.63 414.264 1103.03 414.08 1102.61 413.712C1102.21 413.328 1102.01 412.8 1102.01 412.128C1102.01 411.52 1102.22 411.008 1102.64 410.592C1103.07 410.176 1103.66 409.968 1104.41 409.968C1105.2 409.968 1105.8 410.16 1106.21 410.544C1106.63 410.928 1106.84 411.456 1106.84 412.128C1106.84 412.72 1106.62 413.224 1106.19 413.64C1105.77 414.056 1105.18 414.264 1104.41 414.264ZM1113.65 414.264C1112.86 414.264 1112.26 414.08 1111.85 413.712C1111.45 413.328 1111.25 412.8 1111.25 412.128C1111.25 411.52 1111.46 411.008 1111.87 410.592C1112.3 410.176 1112.9 409.968 1113.65 409.968C1114.43 409.968 1115.03 410.16 1115.45 410.544C1115.86 410.928 1116.07 411.456 1116.07 412.128C1116.07 412.72 1115.86 413.224 1115.42 413.64C1115.01 414.056 1114.42 414.264 1113.65 414.264Z" fill="white"/>
<g id="Vector 1" filter="url(#filter0_d_147_363)">
<path d="M-45.5 880.5L95.5 640.5L293 775.5L492.5 521.5L615.5 687L744.5 608.5L898 787.5L1015 626.5L1131.5 737.5L1271 451L1349.5 721L1498.5 592L1551 1144.5H-112L-45.5 880.5Z" fill="#EC5F46"/>
</g>
<g id="Vector 2" filter="url(#filter1_d_147_363)">
<path d="M-79 1230.5L90.5 779L346.5 865.5L469.5 674L652.5 779L711 722.5L904.5 888L983 755L1158.5 865.5L1225 722.5L1360 823.5L1469 1260.5L-79 1230.5Z" fill="#FD9D49"/>
</g>
<g id="Group 30">
<path id="Star 2" d="M1124.84 149.953C1123.37 133.034 1142.33 122.1 1156.24 131.842L1201.15 163.297C1205 165.991 1209.68 167.246 1214.36 166.839L1268.98 162.1C1285.9 160.632 1296.84 179.587 1287.1 193.498L1255.64 238.413C1252.95 242.26 1251.69 246.934 1252.1 251.614L1256.84 306.242C1258.31 323.161 1239.35 334.095 1225.44 324.353L1180.52 292.899C1176.68 290.204 1172 288.95 1167.32 289.356L1112.7 294.095C1095.78 295.563 1084.84 276.608 1094.58 262.697L1126.04 217.783C1128.73 213.935 1129.99 209.261 1129.58 204.581L1124.84 149.953Z" fill="#485C77"/>
<path id="Vector 27" d="M1007.3 -169.344L1114.28 230.554L1255.31 268.403L1548.14 -24.1943L1007.3 -169.344Z" fill="#485C77"/>
<path id="Polygon 7" d="M1232.67 191.403C1213.07 210.991 1179.61 202.012 1172.45 175.241L1125.45 -0.446632C1118.29 -27.218 1142.79 -51.7031 1169.56 -44.5198L1345.21 2.62057C1371.97 9.80387 1380.93 43.2681 1361.32 62.8562L1232.67 191.403Z" fill="#EC5F46"/>
</g>
</g>
<defs>
<filter id="filter0_d_147_363" x="-116" y="451" width="1671" height="701.5" filterUnits="userSpaceOnUse" color-interpolation-filters="sRGB">
<feFlood flood-opacity="0" result="BackgroundImageFix"/>
<feColorMatrix in="SourceAlpha" type="matrix" values="0 0 0 0 0 0 0 0 0 0 0 0 0 0 0 0 0 0 127 0" result="hardAlpha"/>
<feOffset dy="4"/>
<feGaussianBlur stdDeviation="2"/>
<feComposite in2="hardAlpha" operator="out"/>
<feColorMatrix type="matrix" values="0 0 0 0 0 0 0 0 0 0 0 0 0 0 0 0 0 0 0.25 0"/>
<feBlend mode="normal" in2="BackgroundImageFix" result="effect1_dropShadow_147_363"/>
<feBlend mode="normal" in="SourceGraphic" in2="effect1_dropShadow_147_363" result="shape"/>
</filter>
<filter id="filter1_d_147_363" x="-83" y="674" width="1556" height="594.5" filterUnits="userSpaceOnUse" color-interpolation-filters="sRGB">
<feFlood flood-opacity="0" result="BackgroundImageFix"/>
<feColorMatrix in="SourceAlpha" type="matrix" values="0 0 0 0 0 0 0 0 0 0 0 0 0 0 0 0 0 0 127 0" result="hardAlpha"/>
<feOffset dy="4"/>
<feGaussianBlur stdDeviation="2"/>
<feComposite in2="hardAlpha" operator="out"/>
<feColorMatrix type="matrix" values="0 0 0 0 0 0 0 0 0 0 0 0 0 0 0 0 0 0 0.25 0"/>
<feBlend mode="normal" in2="BackgroundImageFix" result="effect1_dropShadow_147_363"/>
<feBlend mode="normal" in="SourceGraphic" in2="effect1_dropShadow_147_363" result="shape"/>
</filter>
<clipPath id="clip0_147_363">
<rect width="1440" height="1024" fill="white"/>
</clipPath>
</defs>
</svg>
