<svg width="1440" height="1024" viewBox="0 0 1440 1024" fill="none" xmlns="http://www.w3.org/2000/svg">
<g id="device2-yes" clip-path="url(#clip0_147_236)">
<rect width="1440" height="1024" fill="#333148"/>
<path id="part 4" d="M47.096 132.12V60.024H61.688L62.264 71.448L59.384 70.584C59.832 68.536 61.048 66.648 63.032 64.92C65.016 63.192 67.512 61.784 70.52 60.696C73.592 59.608 76.856 59.064 80.312 59.064C85.304 59.064 89.688 60.216 93.464 62.52C97.24 64.76 100.184 67.864 102.296 71.832C104.472 75.736 105.56 80.28 105.56 85.464C105.56 90.584 104.472 95.128 102.296 99.096C100.184 103.064 97.208 106.2 93.368 108.504C89.528 110.744 85.112 111.864 80.12 111.864C76.664 111.864 73.432 111.288 70.424 110.136C67.416 108.984 64.888 107.48 62.84 105.624C60.856 103.768 59.576 101.816 59 99.768L62.552 98.424V132.12H47.096ZM76.376 98.904C79.256 98.904 81.752 98.36 83.864 97.272C85.976 96.12 87.608 94.552 88.76 92.568C89.976 90.584 90.584 88.216 90.584 85.464C90.584 82.776 89.976 80.44 88.76 78.456C87.608 76.408 85.976 74.84 83.864 73.752C81.816 72.6 79.32 72.024 76.376 72.024C73.496 72.024 70.968 72.568 68.792 73.656C66.68 74.744 65.016 76.312 63.8 78.36C62.648 80.408 62.072 82.776 62.072 85.464C62.072 88.216 62.648 90.584 63.8 92.568C65.016 94.552 66.68 96.12 68.792 97.272C70.968 98.36 73.496 98.904 76.376 98.904ZM144.211 111.864C139.155 111.864 134.739 110.744 130.963 108.504C127.187 106.264 124.211 103.16 122.035 99.192C119.923 95.16 118.867 90.584 118.867 85.464C118.867 80.28 119.955 75.704 122.131 71.736C124.307 67.768 127.315 64.664 131.155 62.424C135.059 60.12 139.539 58.968 144.595 58.968C147.475 58.968 150.131 59.352 152.563 60.12C154.995 60.824 157.107 61.816 158.899 63.096C160.755 64.376 162.259 65.784 163.411 67.32C164.627 68.856 165.427 70.456 165.811 72.12H162.451V60.024H177.619V111H162.163V97.944L165.427 98.424C165.043 100.088 164.243 101.72 163.027 103.32C161.811 104.92 160.243 106.36 158.323 107.64C156.403 108.92 154.227 109.944 151.795 110.712C149.427 111.48 146.899 111.864 144.211 111.864ZM148.339 98.904C151.219 98.904 153.715 98.36 155.827 97.272C158.003 96.184 159.667 94.648 160.819 92.664C162.035 90.616 162.643 88.216 162.643 85.464C162.643 82.776 162.035 80.44 160.819 78.456C159.667 76.408 158.003 74.808 155.827 73.656C153.715 72.504 151.219 71.928 148.339 71.928C145.459 71.928 142.963 72.504 140.851 73.656C138.739 74.808 137.075 76.408 135.859 78.456C134.707 80.44 134.131 82.776 134.131 85.464C134.131 88.216 134.707 90.616 135.859 92.664C137.075 94.648 138.739 96.184 140.851 97.272C142.963 98.36 145.459 98.904 148.339 98.904ZM201.315 111V60.024H215.907L216.579 77.592L212.931 75.768C213.763 72.632 215.203 69.816 217.251 67.32C219.363 64.76 221.763 62.744 224.451 61.272C227.203 59.736 230.115 58.968 233.187 58.968C234.851 58.968 236.419 59.128 237.891 59.448C239.427 59.768 240.739 60.184 241.827 60.696L237.603 77.496C236.643 76.792 235.331 76.248 233.667 75.864C232.067 75.48 230.435 75.288 228.771 75.288C226.915 75.288 225.219 75.608 223.683 76.248C222.211 76.824 220.963 77.656 219.939 78.744C218.915 79.768 218.115 80.952 217.539 82.296C217.027 83.64 216.771 85.08 216.771 86.616V111H201.315ZM265.932 111V46.008H281.292V111H265.932ZM254.604 73.464V60.024H294.252V73.464H254.604ZM377.032 111V53.304H387.112L357.544 88.248L355.624 83.736H405.256V96.984H349.48L343.048 84.6L378.856 43.224H392.776V111H377.032Z" fill="white"/>
<rect id="Rectangle 7" y="462" width="1567" height="626" fill="#211F2F"/>
<g id="Group 3">
<g id="Vector" filter="url(#filter0_d_147_236)">
<path d="M1083.33 490.388C1089.55 462.899 1128.72 462.899 1134.94 490.388L1145.04 535.03C1148.78 551.575 1136.2 567.315 1119.23 567.315H1099.04C1082.07 567.315 1069.49 551.575 1073.23 535.03L1083.33 490.388Z" fill="#FB8D8D"/>
<path d="M1137.1 430.34C1137.1 445.991 1124.41 458.679 1108.76 458.679C1093.1 458.679 1080.41 445.991 1080.41 430.34C1080.41 414.688 1093.1 402 1108.76 402C1124.41 402 1137.1 414.688 1137.1 430.34Z" fill="#FB8D8D"/>
<path d="M1114.43 553.523C1114.43 545.801 1120.69 539.542 1128.41 539.542C1136.13 539.542 1142.39 545.801 1142.39 553.523V586.019C1142.39 593.741 1136.13 600 1128.41 600C1120.69 600 1114.43 593.741 1114.43 586.019V553.523Z" fill="#FB8D8D"/>
<path d="M1125.36 499.361C1121.41 492.728 1123.58 484.146 1130.22 480.194C1136.85 476.242 1145.44 478.416 1149.39 485.049L1166.03 512.966C1169.98 519.599 1167.81 528.18 1161.17 532.132C1154.54 536.085 1145.95 533.911 1142 527.278L1125.36 499.361Z" fill="#FB8D8D"/>
<path d="M1068.13 485.146C1071.99 478.459 1080.54 476.168 1087.23 480.029C1093.92 483.889 1096.21 492.44 1092.35 499.127L1076.1 527.269C1072.24 533.956 1063.68 536.248 1056.99 532.387C1050.31 528.526 1048.01 519.975 1051.88 513.289L1068.13 485.146Z" fill="#FB8D8D"/>
<path d="M1075.12 553.523C1075.12 545.801 1081.38 539.542 1089.1 539.542C1096.83 539.542 1103.09 545.801 1103.09 553.523V586.019C1103.09 593.741 1096.83 600 1089.1 600C1081.38 600 1075.12 593.741 1075.12 586.019V553.523Z" fill="#FB8D8D"/>
</g>
</g>
<path id="Star 2" d="M1025.29 249.916C1019.48 233.956 1034.96 218.483 1050.92 224.286L1102.45 243.023C1106.86 244.628 1111.7 244.628 1116.12 243.023L1167.65 224.286C1183.61 218.482 1199.08 233.956 1193.28 249.916L1174.54 301.449C1172.94 305.864 1172.94 310.703 1174.54 315.118L1193.28 366.65C1199.08 382.611 1183.61 398.084 1167.65 392.281L1116.12 373.543C1111.7 371.938 1106.86 371.938 1102.45 373.543L1050.92 392.281C1034.96 398.084 1019.48 382.611 1025.29 366.65L1044.02 315.118C1045.63 310.703 1045.63 305.864 1044.02 301.449L1025.29 249.916Z" fill="#485C77"/>
<g id="Group 4">
<g id="Vector_2" filter="url(#filter1_d_147_236)">
<path d="M264.246 696.996C269.515 673.672 302.714 673.672 307.983 696.996L316.541 734.874C319.712 748.912 309.05 762.267 294.672 762.267H277.557C263.179 762.267 252.517 748.912 255.688 734.874L264.246 696.996Z" fill="#3B5EC6"/>
<path d="M309.816 646.046C309.816 659.326 299.061 670.092 285.794 670.092C272.527 670.092 261.772 659.326 261.772 646.046C261.772 632.766 272.527 622 285.794 622C299.061 622 309.816 632.766 309.816 646.046Z" fill="#3B5EC6"/>
<path d="M290.599 750.565C290.599 744.013 295.904 738.702 302.45 738.702C308.995 738.702 314.3 744.013 314.3 750.565V778.137C314.3 784.689 308.995 790 302.45 790C295.904 790 290.599 784.689 290.599 778.137V750.565Z" fill="#3B5EC6"/>
<path d="M299.867 704.609C296.517 698.981 298.36 691.7 303.982 688.347C309.605 684.993 316.879 686.837 320.229 692.466L334.328 716.153C337.678 721.781 335.836 729.062 330.213 732.415C324.59 735.769 317.316 733.925 313.966 728.296L299.867 704.609Z" fill="#3B5EC6"/>
<path d="M251.362 692.548C254.635 686.874 261.883 684.93 267.551 688.206C273.219 691.482 275.161 698.737 271.889 704.411L258.116 728.289C254.844 733.963 247.596 735.907 241.927 732.631C236.259 729.355 234.317 722.1 237.59 716.427L251.362 692.548Z" fill="#3B5EC6"/>
<path d="M257.288 750.565C257.288 744.013 262.594 738.702 269.139 738.702C275.684 738.702 280.99 744.013 280.99 750.565V778.137C280.99 784.689 275.684 790 269.139 790C262.594 790 257.288 784.689 257.288 778.137V750.565Z" fill="#3B5EC6"/>
</g>
<g id="Vector_3" filter="url(#filter2_d_147_236)">
<path d="M498.528 696.996C503.85 673.672 537.381 673.672 542.703 696.996L551.346 734.874C554.549 748.912 543.78 762.267 529.259 762.267H511.972C497.451 762.267 486.682 748.912 489.885 734.874L498.528 696.996Z" fill="#3B5EC6"/>
<path d="M544.555 646.046C544.555 659.326 533.692 670.092 520.292 670.092C506.892 670.092 496.03 659.326 496.03 646.046C496.03 632.766 506.892 622 520.292 622C533.692 622 544.555 632.766 544.555 646.046Z" fill="#3B5EC6"/>
<path d="M525.145 750.565C525.145 744.013 530.504 738.702 537.114 738.702C543.725 738.702 549.083 744.013 549.083 750.565V778.137C549.083 784.689 543.725 790 537.114 790C530.504 790 525.145 784.689 525.145 778.137V750.565Z" fill="#3B5EC6"/>
<path d="M534.506 704.609C531.123 698.981 532.983 691.7 538.662 688.347C544.341 684.993 551.688 686.837 555.071 692.466L569.311 716.153C572.695 721.781 570.834 729.062 565.155 732.415C559.476 735.769 552.13 733.925 548.746 728.296L534.506 704.609Z" fill="#3B5EC6"/>
<path d="M485.516 692.548C488.821 686.874 496.142 684.93 501.867 688.206C507.591 691.482 509.553 698.737 506.248 704.411L492.337 728.289C489.032 733.963 481.712 735.907 475.987 732.631C470.262 729.355 468.3 722.1 471.606 716.427L485.516 692.548Z" fill="#3B5EC6"/>
<path d="M491.501 750.565C491.501 744.013 496.86 738.702 503.47 738.702C510.081 738.702 515.44 744.013 515.44 750.565V778.137C515.44 784.689 510.081 790 503.47 790C496.86 790 491.501 784.689 491.501 778.137V750.565Z" fill="#3B5EC6"/>
</g>
<g id="Vector_4" filter="url(#filter3_d_147_236)">
<path d="M381.528 696.996C386.85 673.672 420.381 673.672 425.703 696.996L434.346 734.874C437.549 748.912 426.78 762.267 412.259 762.267H394.972C380.451 762.267 369.682 748.912 372.885 734.874L381.528 696.996Z" fill="#3B5EC6"/>
<path d="M427.555 646.046C427.555 659.326 416.692 670.092 403.292 670.092C389.892 670.092 379.03 659.326 379.03 646.046C379.03 632.766 389.892 622 403.292 622C416.692 622 427.555 632.766 427.555 646.046Z" fill="#3B5EC6"/>
<path d="M408.145 750.565C408.145 744.013 413.504 738.702 420.114 738.702C426.725 738.702 432.083 744.013 432.083 750.565V778.137C432.083 784.689 426.725 790 420.114 790C413.504 790 408.145 784.689 408.145 778.137V750.565Z" fill="#3B5EC6"/>
<path d="M417.506 704.609C414.123 698.981 415.983 691.7 421.662 688.347C427.341 684.993 434.688 686.837 438.071 692.466L452.311 716.153C455.695 721.781 453.834 729.062 448.155 732.415C442.476 735.769 435.13 733.925 431.746 728.296L417.506 704.609Z" fill="#3B5EC6"/>
<path d="M368.516 692.548C371.821 686.874 379.142 684.93 384.867 688.206C390.591 691.482 392.553 698.737 389.248 704.411L375.337 728.289C372.032 733.963 364.712 735.907 358.987 732.631C353.262 729.355 351.3 722.1 354.606 716.427L368.516 692.548Z" fill="#3B5EC6"/>
<path d="M374.501 750.565C374.501 744.013 379.86 738.702 386.47 738.702C393.081 738.702 398.44 744.013 398.44 750.565V778.137C398.44 784.689 393.081 790 386.47 790C379.86 790 374.501 784.689 374.501 778.137V750.565Z" fill="#3B5EC6"/>
</g>
<g id="Vector_5" filter="url(#filter4_d_147_236)">
<path d="M616.246 696.996C621.515 673.672 654.714 673.672 659.983 696.996L668.541 734.874C671.712 748.912 661.05 762.267 646.672 762.267H629.557C615.179 762.267 604.517 748.912 607.688 734.874L616.246 696.996Z" fill="#3B5EC6"/>
<path d="M661.816 646.046C661.816 659.326 651.061 670.092 637.794 670.092C624.527 670.092 613.772 659.326 613.772 646.046C613.772 632.766 624.527 622 637.794 622C651.061 622 661.816 632.766 661.816 646.046Z" fill="#3B5EC6"/>
<path d="M642.599 750.565C642.599 744.013 647.904 738.702 654.45 738.702C660.995 738.702 666.3 744.013 666.3 750.565V778.137C666.3 784.689 660.995 790 654.45 790C647.904 790 642.599 784.689 642.599 778.137V750.565Z" fill="#3B5EC6"/>
<path d="M651.867 704.609C648.517 698.981 650.36 691.7 655.982 688.347C661.605 684.993 668.879 686.837 672.229 692.466L686.328 716.153C689.678 721.781 687.836 729.062 682.213 732.415C676.59 735.769 669.316 733.925 665.966 728.296L651.867 704.609Z" fill="#3B5EC6"/>
<path d="M603.362 692.548C606.635 686.874 613.883 684.93 619.551 688.206C625.219 691.482 627.161 698.737 623.889 704.411L610.116 728.289C606.844 733.963 599.596 735.907 593.927 732.631C588.259 729.355 586.317 722.1 589.59 716.427L603.362 692.548Z" fill="#3B5EC6"/>
<path d="M609.288 750.565C609.288 744.013 614.594 738.702 621.139 738.702C627.684 738.702 632.99 744.013 632.99 750.565V778.137C632.99 784.689 627.684 790 621.139 790C614.594 790 609.288 784.689 609.288 778.137V750.565Z" fill="#3B5EC6"/>
</g>
<g id="Vector_6" filter="url(#filter5_d_147_236)">
<path d="M163.33 733.388C169.548 705.899 208.722 705.899 214.94 733.388L225.038 778.03C228.78 794.575 216.199 810.315 199.233 810.315H179.037C162.071 810.315 149.49 794.575 153.232 778.03L163.33 733.388Z" fill="#6A94E0"/>
<path d="M217.103 673.34C217.103 688.991 204.412 701.679 188.757 701.679C173.102 701.679 160.411 688.991 160.411 673.34C160.411 657.688 173.102 645 188.757 645C204.412 645 217.103 657.688 217.103 673.34Z" fill="#6A94E0"/>
<path d="M194.426 796.523C194.426 788.801 200.687 782.542 208.41 782.542C216.134 782.542 222.395 788.801 222.395 796.523V829.019C222.395 836.741 216.134 843 208.41 843C200.687 843 194.426 836.741 194.426 829.019V796.523Z" fill="#6A94E0"/>
<path d="M205.364 742.361C201.41 735.728 203.584 727.146 210.219 723.194C216.854 719.242 225.437 721.416 229.39 728.049L246.027 755.966C249.98 762.599 247.806 771.18 241.171 775.132C234.537 779.085 225.953 776.911 222 770.278L205.364 742.361Z" fill="#6A94E0"/>
<path d="M148.128 728.146C151.989 721.459 160.542 719.168 167.23 723.029C173.919 726.889 176.21 735.44 172.349 742.127L156.097 770.269C152.235 776.956 143.683 779.248 136.994 775.387C130.306 771.526 128.014 762.975 131.876 756.289L148.128 728.146Z" fill="#6A94E0"/>
<path d="M155.12 796.523C155.12 788.801 161.381 782.542 169.104 782.542C176.827 782.542 183.088 788.801 183.088 796.523V829.019C183.088 836.741 176.827 843 169.104 843C161.381 843 155.12 836.741 155.12 829.019V796.523Z" fill="#6A94E0"/>
</g>
<g id="Vector_7" filter="url(#filter6_d_147_236)">
<path d="M439.33 733.388C445.548 705.899 484.722 705.899 490.94 733.388L501.038 778.03C504.78 794.575 492.199 810.315 475.233 810.315H455.037C438.071 810.315 425.49 794.575 429.232 778.03L439.33 733.388Z" fill="#6A94E0"/>
<path d="M493.103 673.34C493.103 688.991 480.412 701.679 464.757 701.679C449.102 701.679 436.411 688.991 436.411 673.34C436.411 657.688 449.102 645 464.757 645C480.412 645 493.103 657.688 493.103 673.34Z" fill="#6A94E0"/>
<path d="M470.426 796.523C470.426 788.801 476.687 782.542 484.41 782.542C492.134 782.542 498.395 788.801 498.395 796.523V829.019C498.395 836.741 492.134 843 484.41 843C476.687 843 470.426 836.741 470.426 829.019V796.523Z" fill="#6A94E0"/>
<path d="M481.364 742.361C477.41 735.728 479.584 727.146 486.219 723.194C492.854 719.242 501.437 721.416 505.39 728.049L522.027 755.966C525.98 762.599 523.806 771.18 517.171 775.132C510.537 779.085 501.953 776.911 498 770.278L481.364 742.361Z" fill="#6A94E0"/>
<path d="M424.128 728.146C427.989 721.459 436.542 719.168 443.23 723.029C449.919 726.889 452.21 735.44 448.349 742.127L432.097 770.269C428.235 776.956 419.683 779.248 412.994 775.387C406.306 771.526 404.014 762.975 407.876 756.289L424.128 728.146Z" fill="#6A94E0"/>
<path d="M431.12 796.523C431.12 788.801 437.381 782.542 445.104 782.542C452.827 782.542 459.088 788.801 459.088 796.523V829.019C459.088 836.741 452.827 843 445.104 843C437.381 843 431.12 836.741 431.12 829.019V796.523Z" fill="#6A94E0"/>
</g>
<g id="Vector_8" filter="url(#filter7_d_147_236)">
<path d="M301.33 733.388C307.548 705.899 346.722 705.899 352.94 733.388L363.038 778.03C366.78 794.575 354.199 810.315 337.233 810.315H317.037C300.071 810.315 287.49 794.575 291.232 778.03L301.33 733.388Z" fill="#6A94E0"/>
<path d="M355.103 673.34C355.103 688.991 342.412 701.679 326.757 701.679C311.102 701.679 298.411 688.991 298.411 673.34C298.411 657.688 311.102 645 326.757 645C342.412 645 355.103 657.688 355.103 673.34Z" fill="#6A94E0"/>
<path d="M332.426 796.523C332.426 788.801 338.687 782.542 346.41 782.542C354.134 782.542 360.395 788.801 360.395 796.523V829.019C360.395 836.741 354.134 843 346.41 843C338.687 843 332.426 836.741 332.426 829.019V796.523Z" fill="#6A94E0"/>
<path d="M343.364 742.361C339.41 735.728 341.584 727.146 348.219 723.194C354.854 719.242 363.437 721.416 367.39 728.049L384.027 755.966C387.98 762.599 385.806 771.18 379.171 775.132C372.537 779.085 363.953 776.911 360 770.278L343.364 742.361Z" fill="#6A94E0"/>
<path d="M286.128 728.146C289.989 721.459 298.542 719.168 305.23 723.029C311.919 726.889 314.21 735.44 310.349 742.127L294.097 770.269C290.235 776.956 281.683 779.248 274.994 775.387C268.306 771.526 266.014 762.975 269.876 756.289L286.128 728.146Z" fill="#6A94E0"/>
<path d="M293.12 796.523C293.12 788.801 299.381 782.542 307.104 782.542C314.827 782.542 321.088 788.801 321.088 796.523V829.019C321.088 836.741 314.827 843 307.104 843C299.381 843 293.12 836.741 293.12 829.019V796.523Z" fill="#6A94E0"/>
</g>
<g id="Vector_9" filter="url(#filter8_d_147_236)">
<path d="M359.33 779.388C365.548 751.899 404.722 751.899 410.94 779.388L421.038 824.03C424.78 840.575 412.199 856.315 395.233 856.315H375.037C358.071 856.315 345.49 840.575 349.232 824.03L359.33 779.388Z" fill="#8DBBFB"/>
<path d="M413.103 719.34C413.103 734.991 400.412 747.679 384.757 747.679C369.102 747.679 356.411 734.991 356.411 719.34C356.411 703.688 369.102 691 384.757 691C400.412 691 413.103 703.688 413.103 719.34Z" fill="#8DBBFB"/>
<path d="M390.426 842.523C390.426 834.801 396.687 828.542 404.41 828.542C412.134 828.542 418.395 834.801 418.395 842.523V875.019C418.395 882.741 412.134 889 404.41 889C396.687 889 390.426 882.741 390.426 875.019V842.523Z" fill="#8DBBFB"/>
<path d="M401.364 788.361C397.41 781.728 399.584 773.146 406.219 769.194C412.854 765.242 421.437 767.416 425.39 774.049L442.027 801.966C445.98 808.599 443.806 817.18 437.171 821.132C430.537 825.085 421.953 822.911 418 816.278L401.364 788.361Z" fill="#8DBBFB"/>
<path d="M344.128 774.146C347.989 767.459 356.542 765.168 363.23 769.029C369.919 772.889 372.21 781.44 368.349 788.127L352.097 816.269C348.235 822.956 339.683 825.248 332.994 821.387C326.306 817.526 324.014 808.975 327.876 802.289L344.128 774.146Z" fill="#8DBBFB"/>
<path d="M351.12 842.523C351.12 834.801 357.381 828.542 365.104 828.542C372.827 828.542 379.088 834.801 379.088 842.523V875.019C379.088 882.741 372.827 889 365.104 889C357.381 889 351.12 882.741 351.12 875.019V842.523Z" fill="#8DBBFB"/>
</g>
<g id="Vector_10" filter="url(#filter9_d_147_236)">
<path d="M577.33 733.388C583.548 705.899 622.722 705.899 628.94 733.388L639.038 778.03C642.78 794.575 630.199 810.315 613.233 810.315H593.037C576.071 810.315 563.49 794.575 567.232 778.03L577.33 733.388Z" fill="#6A94E0"/>
<path d="M631.103 673.34C631.103 688.991 618.412 701.679 602.757 701.679C587.102 701.679 574.411 688.991 574.411 673.34C574.411 657.688 587.102 645 602.757 645C618.412 645 631.103 657.688 631.103 673.34Z" fill="#6A94E0"/>
<path d="M608.426 796.523C608.426 788.801 614.687 782.542 622.41 782.542C630.134 782.542 636.395 788.801 636.395 796.523V829.019C636.395 836.741 630.134 843 622.41 843C614.687 843 608.426 836.741 608.426 829.019V796.523Z" fill="#6A94E0"/>
<path d="M619.364 742.361C615.41 735.728 617.584 727.146 624.219 723.194C630.854 719.242 639.437 721.416 643.39 728.049L660.027 755.966C663.98 762.599 661.806 771.18 655.171 775.132C648.537 779.085 639.953 776.911 636 770.278L619.364 742.361Z" fill="#6A94E0"/>
<path d="M562.128 728.146C565.989 721.459 574.542 719.168 581.23 723.029C587.919 726.889 590.21 735.44 586.349 742.127L570.097 770.269C566.235 776.956 557.683 779.248 550.994 775.387C544.306 771.526 542.014 762.975 545.876 756.289L562.128 728.146Z" fill="#6A94E0"/>
<path d="M569.12 796.523C569.12 788.801 575.381 782.542 583.104 782.542C590.827 782.542 597.088 788.801 597.088 796.523V829.019C597.088 836.741 590.827 843 583.104 843C575.381 843 569.12 836.741 569.12 829.019V796.523Z" fill="#6A94E0"/>
</g>
<g id="Vector_11" filter="url(#filter10_d_147_236)">
<path d="M221.33 779.388C227.548 751.899 266.722 751.899 272.94 779.388L283.038 824.03C286.78 840.575 274.199 856.315 257.233 856.315H237.037C220.071 856.315 207.49 840.575 211.232 824.03L221.33 779.388Z" fill="#8DBBFB"/>
<path d="M275.103 719.34C275.103 734.991 262.412 747.679 246.757 747.679C231.102 747.679 218.411 734.991 218.411 719.34C218.411 703.688 231.102 691 246.757 691C262.412 691 275.103 703.688 275.103 719.34Z" fill="#8DBBFB"/>
<path d="M252.426 842.523C252.426 834.801 258.687 828.542 266.41 828.542C274.134 828.542 280.395 834.801 280.395 842.523V875.019C280.395 882.741 274.134 889 266.41 889C258.687 889 252.426 882.741 252.426 875.019V842.523Z" fill="#8DBBFB"/>
<path d="M263.364 788.361C259.41 781.728 261.584 773.146 268.219 769.194C274.854 765.242 283.437 767.416 287.39 774.049L304.027 801.966C307.98 808.599 305.806 817.18 299.171 821.132C292.537 825.085 283.953 822.911 280 816.278L263.364 788.361Z" fill="#8DBBFB"/>
<path d="M206.128 774.146C209.989 767.459 218.542 765.168 225.23 769.029C231.919 772.889 234.21 781.44 230.349 788.127L214.097 816.269C210.235 822.956 201.683 825.248 194.994 821.387C188.306 817.526 186.014 808.975 189.876 802.289L206.128 774.146Z" fill="#8DBBFB"/>
<path d="M213.12 842.523C213.12 834.801 219.381 828.542 227.104 828.542C234.827 828.542 241.088 834.801 241.088 842.523V875.019C241.088 882.741 234.827 889 227.104 889C219.381 889 213.12 882.741 213.12 875.019V842.523Z" fill="#8DBBFB"/>
</g>
<g id="Vector_12" filter="url(#filter11_d_147_236)">
<path d="M497.33 779.388C503.548 751.899 542.722 751.899 548.94 779.388L559.038 824.03C562.78 840.575 550.199 856.315 533.233 856.315H513.037C496.071 856.315 483.49 840.575 487.232 824.03L497.33 779.388Z" fill="#8DBBFB"/>
<path d="M551.103 719.34C551.103 734.991 538.412 747.679 522.757 747.679C507.102 747.679 494.411 734.991 494.411 719.34C494.411 703.688 507.102 691 522.757 691C538.412 691 551.103 703.688 551.103 719.34Z" fill="#8DBBFB"/>
<path d="M528.426 842.523C528.426 834.801 534.687 828.542 542.41 828.542C550.134 828.542 556.395 834.801 556.395 842.523V875.019C556.395 882.741 550.134 889 542.41 889C534.687 889 528.426 882.741 528.426 875.019V842.523Z" fill="#8DBBFB"/>
<path d="M539.364 788.361C535.41 781.728 537.584 773.146 544.219 769.194C550.854 765.242 559.437 767.416 563.39 774.049L580.027 801.966C583.98 808.599 581.806 817.18 575.171 821.132C568.537 825.085 559.953 822.911 556 816.278L539.364 788.361Z" fill="#8DBBFB"/>
<path d="M482.128 774.146C485.989 767.459 494.542 765.168 501.23 769.029C507.919 772.889 510.21 781.44 506.349 788.127L490.097 816.269C486.235 822.956 477.683 825.248 470.994 821.387C464.306 817.526 462.014 808.975 465.876 802.289L482.128 774.146Z" fill="#8DBBFB"/>
<path d="M489.12 842.523C489.12 834.801 495.381 828.542 503.104 828.542C510.827 828.542 517.088 834.801 517.088 842.523V875.019C517.088 882.741 510.827 889 503.104 889C495.381 889 489.12 882.741 489.12 875.019V842.523Z" fill="#8DBBFB"/>
</g>
<g id="Vector_13" filter="url(#filter12_d_147_236)">
<path d="M635.33 779.388C641.548 751.899 680.722 751.899 686.94 779.388L697.038 824.03C700.78 840.575 688.199 856.315 671.233 856.315H651.037C634.071 856.315 621.49 840.575 625.232 824.03L635.33 779.388Z" fill="#8DBBFB"/>
<path d="M689.103 719.34C689.103 734.991 676.412 747.679 660.757 747.679C645.102 747.679 632.411 734.991 632.411 719.34C632.411 703.688 645.102 691 660.757 691C676.412 691 689.103 703.688 689.103 719.34Z" fill="#8DBBFB"/>
<path d="M666.426 842.523C666.426 834.801 672.687 828.542 680.41 828.542C688.134 828.542 694.395 834.801 694.395 842.523V875.019C694.395 882.741 688.134 889 680.41 889C672.687 889 666.426 882.741 666.426 875.019V842.523Z" fill="#8DBBFB"/>
<path d="M677.364 788.361C673.41 781.728 675.584 773.146 682.219 769.194C688.854 765.242 697.437 767.416 701.39 774.049L718.027 801.966C721.98 808.599 719.806 817.18 713.171 821.132C706.537 825.085 697.953 822.911 694 816.278L677.364 788.361Z" fill="#8DBBFB"/>
<path d="M620.128 774.146C623.989 767.459 632.542 765.168 639.23 769.029C645.919 772.889 648.21 781.44 644.349 788.127L628.097 816.269C624.235 822.956 615.683 825.248 608.994 821.387C602.306 817.526 600.014 808.975 603.876 802.289L620.128 774.146Z" fill="#8DBBFB"/>
<path d="M627.12 842.523C627.12 834.801 633.381 828.542 641.104 828.542C648.827 828.542 655.088 834.801 655.088 842.523V875.019C655.088 882.741 648.827 889 641.104 889C633.381 889 627.12 882.741 627.12 875.019V842.523Z" fill="#8DBBFB"/>
</g>
</g>
<path id="Vector 27" d="M829 -28L1035.98 330.5H1182L1388.98 -28H829Z" fill="#485C77"/>
<path id="Polygon 7" d="M1140.18 262C1126.32 286 1091.68 286 1077.82 262L986.89 104.5C973.034 80.4999 990.355 50.5 1018.07 50.5L1199.93 50.5C1227.65 50.5 1244.97 80.5 1231.11 104.5L1140.18 262Z" fill="#EC5F46"/>
<path id="How are you feeling?" d="M102.512 584V539.2H113.392V584H102.512ZM71.1518 584V539.2H82.0318V584H71.1518ZM75.3758 566.656L75.4398 556.928H108.272V566.656H75.3758ZM146.182 584.64C142.214 584.64 138.694 583.872 135.622 582.336C132.55 580.8 130.139 578.709 128.39 576.064C126.64 573.419 125.766 570.389 125.766 566.976C125.766 563.563 126.64 560.533 128.39 557.888C130.139 555.243 132.55 553.152 135.622 551.616C138.694 550.08 142.214 549.312 146.182 549.312C150.107 549.312 153.584 550.08 156.614 551.616C159.686 553.152 162.096 555.243 163.846 557.888C165.595 560.533 166.47 563.563 166.47 566.976C166.47 570.389 165.595 573.419 163.846 576.064C162.096 578.709 159.686 580.8 156.614 582.336C153.584 583.872 150.107 584.64 146.182 584.64ZM146.182 575.808C148.016 575.808 149.68 575.424 151.174 574.656C152.71 573.888 153.904 572.843 154.758 571.52C155.654 570.197 156.08 568.683 156.038 566.976C156.08 565.269 155.654 563.733 154.758 562.368C153.904 561.003 152.71 559.957 151.174 559.232C149.68 558.464 148.016 558.08 146.182 558.08C144.304 558.08 142.576 558.464 140.998 559.232C139.462 560 138.267 561.045 137.414 562.368C136.56 563.691 136.134 565.227 136.134 566.976C136.134 568.683 136.56 570.197 137.414 571.52C138.267 572.843 139.462 573.888 140.998 574.656C142.576 575.424 144.304 575.808 146.182 575.808ZM184.5 584L172.66 550.016H183.476L190.196 572.416L188.852 572.288L196.532 554.56H203.124L211.316 572.288L209.972 572.416L216.692 550.016H227.572L215.348 584H207.604L198.772 563.52L201.14 563.456L192.18 584H184.5ZM276.589 584.576C273.218 584.576 270.274 583.829 267.757 582.336C265.239 580.843 263.255 578.773 261.805 576.128C260.397 573.44 259.693 570.389 259.693 566.976C259.693 563.52 260.418 560.469 261.869 557.824C263.319 555.179 265.325 553.109 267.885 551.616C270.487 550.08 273.474 549.312 276.845 549.312C278.765 549.312 280.535 549.568 282.157 550.08C283.778 550.549 285.186 551.211 286.381 552.064C287.618 552.917 288.621 553.856 289.389 554.88C290.199 555.904 290.733 556.971 290.989 558.08H288.749V550.016H298.861V584H288.557V575.296L290.733 575.616C290.477 576.725 289.943 577.813 289.133 578.88C288.322 579.947 287.277 580.907 285.997 581.76C284.717 582.613 283.266 583.296 281.645 583.808C280.066 584.32 278.381 584.576 276.589 584.576ZM279.341 575.936C281.261 575.936 282.925 575.573 284.333 574.848C285.783 574.123 286.893 573.099 287.661 571.776C288.471 570.411 288.877 568.811 288.877 566.976C288.877 565.184 288.471 563.627 287.661 562.304C286.893 560.939 285.783 559.872 284.333 559.104C282.925 558.336 281.261 557.952 279.341 557.952C277.421 557.952 275.757 558.336 274.349 559.104C272.941 559.872 271.831 560.939 271.021 562.304C270.253 563.627 269.869 565.184 269.869 566.976C269.869 568.811 270.253 570.411 271.021 571.776C271.831 573.099 272.941 574.123 274.349 574.848C275.757 575.573 277.421 575.936 279.341 575.936ZM314.658 584V550.016H324.386L324.834 561.728L322.402 560.512C322.956 558.421 323.916 556.544 325.282 554.88C326.69 553.173 328.29 551.829 330.082 550.848C331.916 549.824 333.858 549.312 335.906 549.312C337.015 549.312 338.06 549.419 339.042 549.632C340.066 549.845 340.94 550.123 341.666 550.464L338.85 561.664C338.21 561.195 337.335 560.832 336.226 560.576C335.159 560.32 334.071 560.192 332.962 560.192C331.724 560.192 330.594 560.405 329.57 560.832C328.588 561.216 327.756 561.771 327.074 562.496C326.391 563.179 325.858 563.968 325.474 564.864C325.132 565.76 324.962 566.72 324.962 567.744V584H314.658ZM368.488 584.64C364.35 584.64 360.723 583.893 357.608 582.4C354.536 580.864 352.147 578.795 350.44 576.192C348.734 573.547 347.88 570.539 347.88 567.168C347.88 564.48 348.371 562.048 349.352 559.872C350.334 557.696 351.699 555.819 353.448 554.24C355.198 552.661 357.246 551.445 359.592 550.592C361.939 549.739 364.478 549.312 367.208 549.312C369.854 549.312 372.286 549.739 374.504 550.592C376.723 551.403 378.643 552.576 380.264 554.112C381.928 555.648 383.208 557.461 384.104 559.552C385 561.643 385.406 563.947 385.32 566.464L385.256 569.344H354.6L353.128 563.392H376.936L375.848 564.672V563.392C375.72 562.325 375.251 561.365 374.44 560.512C373.672 559.659 372.67 558.997 371.432 558.528C370.195 558.016 368.83 557.76 367.336 557.76C365.416 557.76 363.71 558.08 362.216 558.72C360.723 559.317 359.55 560.256 358.696 561.536C357.886 562.816 357.48 564.437 357.48 566.4C357.48 568.277 357.971 569.92 358.952 571.328C359.976 572.736 361.406 573.845 363.24 574.656C365.118 575.467 367.315 575.872 369.832 575.872C372.008 575.872 373.822 575.616 375.272 575.104C376.766 574.549 378.11 573.867 379.304 573.056L383.912 579.712C382.504 580.779 380.947 581.696 379.24 582.464C377.576 583.189 375.827 583.723 373.992 584.064C372.2 584.448 370.366 584.64 368.488 584.64ZM427.943 598.72L436.839 580.48L436.647 585.664L418.599 550.016H430.311L438.567 567.68C439.164 568.875 439.719 570.091 440.231 571.328C440.743 572.523 441.148 573.717 441.447 574.912L439.527 575.424C439.911 574.485 440.359 573.376 440.871 572.096C441.383 570.816 441.916 569.515 442.471 568.192L450.087 550.016H461.799L445.159 584.128L438.311 598.72H427.943ZM489.119 584.64C485.151 584.64 481.631 583.872 478.559 582.336C475.487 580.8 473.077 578.709 471.327 576.064C469.578 573.419 468.703 570.389 468.703 566.976C468.703 563.563 469.578 560.533 471.327 557.888C473.077 555.243 475.487 553.152 478.559 551.616C481.631 550.08 485.151 549.312 489.119 549.312C493.045 549.312 496.522 550.08 499.551 551.616C502.623 553.152 505.034 555.243 506.783 557.888C508.533 560.533 509.407 563.563 509.407 566.976C509.407 570.389 508.533 573.419 506.783 576.064C505.034 578.709 502.623 580.8 499.551 582.336C496.522 583.872 493.045 584.64 489.119 584.64ZM489.119 575.808C490.954 575.808 492.618 575.424 494.111 574.656C495.647 573.888 496.842 572.843 497.695 571.52C498.591 570.197 499.018 568.683 498.975 566.976C499.018 565.269 498.591 563.733 497.695 562.368C496.842 561.003 495.647 559.957 494.111 559.232C492.618 558.464 490.954 558.08 489.119 558.08C487.242 558.08 485.514 558.464 483.935 559.232C482.399 560 481.205 561.045 480.351 562.368C479.498 563.691 479.071 565.227 479.071 566.976C479.071 568.683 479.498 570.197 480.351 571.52C481.205 572.843 482.399 573.888 483.935 574.656C485.514 575.424 487.242 575.808 489.119 575.808ZM534.767 584.704C532.037 584.704 529.669 584.107 527.663 582.912C525.701 581.717 524.186 579.989 523.119 577.728C522.053 575.424 521.519 572.672 521.519 569.472V550.016H531.759V567.808C531.759 569.557 531.994 571.029 532.463 572.224C532.975 573.419 533.765 574.336 534.831 574.976C535.898 575.573 537.199 575.872 538.735 575.872C539.845 575.872 540.869 575.701 541.807 575.36C542.746 574.976 543.578 574.464 544.303 573.824C545.029 573.141 545.583 572.373 545.967 571.52C546.394 570.624 546.607 569.621 546.607 568.512V550.016H556.847V584H547.247L546.799 577.024L548.655 576.256C548.186 577.749 547.29 579.136 545.967 580.416C544.645 581.696 543.023 582.741 541.103 583.552C539.226 584.32 537.114 584.704 534.767 584.704ZM600.709 584V549.44C600.709 546.923 601.242 544.704 602.309 542.784C603.418 540.821 604.954 539.285 606.917 538.176C608.879 537.067 611.162 536.512 613.765 536.512C615.77 536.512 617.519 536.768 619.013 537.28C620.549 537.792 621.85 538.432 622.917 539.2L619.973 546.752C619.375 546.411 618.671 546.112 617.861 545.856C617.093 545.557 616.325 545.408 615.557 545.408C614.447 545.408 613.53 545.6 612.805 545.984C612.122 546.325 611.61 546.837 611.269 547.52C610.927 548.203 610.757 549.013 610.757 549.952V584H605.765C604.698 584 603.738 584 602.885 584C602.031 584 601.306 584 600.709 584ZM594.757 559.68V551.232H620.549V559.68H594.757ZM647.863 584.64C643.725 584.64 640.098 583.893 636.983 582.4C633.911 580.864 631.522 578.795 629.815 576.192C628.109 573.547 627.255 570.539 627.255 567.168C627.255 564.48 627.746 562.048 628.727 559.872C629.709 557.696 631.074 555.819 632.823 554.24C634.573 552.661 636.621 551.445 638.967 550.592C641.314 549.739 643.853 549.312 646.583 549.312C649.229 549.312 651.661 549.739 653.879 550.592C656.098 551.403 658.018 552.576 659.639 554.112C661.303 555.648 662.583 557.461 663.479 559.552C664.375 561.643 664.781 563.947 664.695 566.464L664.631 569.344H633.975L632.503 563.392H656.311L655.223 564.672V563.392C655.095 562.325 654.626 561.365 653.815 560.512C653.047 559.659 652.045 558.997 650.807 558.528C649.57 558.016 648.205 557.76 646.711 557.76C644.791 557.76 643.085 558.08 641.591 558.72C640.098 559.317 638.925 560.256 638.071 561.536C637.261 562.816 636.855 564.437 636.855 566.4C636.855 568.277 637.346 569.92 638.327 571.328C639.351 572.736 640.781 573.845 642.615 574.656C644.493 575.467 646.69 575.872 649.207 575.872C651.383 575.872 653.197 575.616 654.647 575.104C656.141 574.549 657.485 573.867 658.679 573.056L663.287 579.712C661.879 580.779 660.322 581.696 658.615 582.464C656.951 583.189 655.202 583.723 653.367 584.064C651.575 584.448 649.741 584.64 647.863 584.64ZM694.176 584.64C690.037 584.64 686.41 583.893 683.296 582.4C680.224 580.864 677.834 578.795 676.128 576.192C674.421 573.547 673.568 570.539 673.568 567.168C673.568 564.48 674.058 562.048 675.04 559.872C676.021 557.696 677.386 555.819 679.136 554.24C680.885 552.661 682.933 551.445 685.28 550.592C687.626 549.739 690.165 549.312 692.896 549.312C695.541 549.312 697.973 549.739 700.192 550.592C702.41 551.403 704.33 552.576 705.952 554.112C707.616 555.648 708.896 557.461 709.792 559.552C710.688 561.643 711.093 563.947 711.008 566.464L710.944 569.344H680.288L678.816 563.392H702.624L701.536 564.672V563.392C701.408 562.325 700.938 561.365 700.128 560.512C699.36 559.659 698.357 558.997 697.12 558.528C695.882 558.016 694.517 557.76 693.024 557.76C691.104 557.76 689.397 558.08 687.904 558.72C686.41 559.317 685.237 560.256 684.384 561.536C683.573 562.816 683.168 564.437 683.168 566.4C683.168 568.277 683.658 569.92 684.64 571.328C685.664 572.736 687.093 573.845 688.928 574.656C690.805 575.467 693.002 575.872 695.52 575.872C697.696 575.872 699.509 575.616 700.96 575.104C702.453 574.549 703.797 573.867 704.992 573.056L709.6 579.712C708.192 580.779 706.634 581.696 704.928 582.464C703.264 583.189 701.514 583.723 699.68 584.064C697.888 584.448 696.053 584.64 694.176 584.64ZM723.72 584V536.64H733.96V584H723.72ZM750.67 584V550.016H760.974V584H750.67ZM755.79 543.04C753.87 543.04 752.376 542.592 751.31 541.696C750.243 540.757 749.71 539.435 749.71 537.728C749.71 536.192 750.243 534.933 751.31 533.952C752.419 532.971 753.912 532.48 755.79 532.48C757.71 532.48 759.203 532.949 760.27 533.888C761.336 534.784 761.87 536.064 761.87 537.728C761.87 539.307 761.315 540.587 760.206 541.568C759.139 542.549 757.667 543.04 755.79 543.04ZM777.533 584V550.016H787.261L787.581 557.952L785.149 558.656C785.703 556.992 786.642 555.456 787.965 554.048C789.33 552.64 790.973 551.509 792.893 550.656C794.855 549.76 796.967 549.312 799.229 549.312C802.13 549.312 804.583 549.888 806.589 551.04C808.594 552.192 810.109 553.835 811.133 555.968C812.157 558.059 812.669 560.555 812.669 563.456V584H802.365V564.928C802.365 563.435 802.087 562.176 801.533 561.152C801.021 560.128 800.231 559.339 799.165 558.784C798.141 558.229 796.946 557.952 795.581 557.952C794.386 557.952 793.298 558.165 792.317 558.592C791.378 558.976 790.567 559.509 789.885 560.192C789.202 560.832 788.669 561.557 788.285 562.368C787.943 563.179 787.773 564.011 787.773 564.864V584H782.717C781.309 584 780.178 584 779.325 584C778.471 584 777.874 584 777.533 584ZM845.433 598.72C842.063 598.72 838.927 598.293 836.025 597.44C833.167 596.629 830.82 595.605 828.985 594.368L832.505 587.072C833.444 587.584 834.489 588.075 835.641 588.544C836.836 589.013 838.137 589.397 839.545 589.696C840.953 590.037 842.489 590.208 844.153 590.208C846.329 590.208 848.164 589.845 849.657 589.12C851.193 588.395 852.345 587.285 853.113 585.792C853.924 584.341 854.329 582.549 854.329 580.416V575.744L856.313 576.064C855.972 577.429 855.119 578.688 853.753 579.84C852.388 580.992 850.681 581.931 848.633 582.656C846.585 583.381 844.409 583.744 842.105 583.744C838.735 583.744 835.769 583.04 833.209 581.632C830.649 580.181 828.623 578.197 827.129 575.68C825.679 573.12 824.953 570.176 824.953 566.848C824.953 563.435 825.7 560.427 827.193 557.824C828.687 555.179 830.735 553.109 833.337 551.616C835.94 550.08 838.948 549.312 842.361 549.312C843.513 549.312 844.708 549.461 845.945 549.76C847.225 550.016 848.463 550.379 849.657 550.848C850.895 551.275 852.004 551.829 852.985 552.512C854.009 553.152 854.841 553.877 855.481 554.688C856.164 555.456 856.548 556.288 856.633 557.184L854.521 557.696L854.969 550.016H864.633V580.224C864.633 583.253 864.143 585.899 863.161 588.16C862.223 590.464 860.9 592.405 859.193 593.984C857.487 595.563 855.439 596.736 853.049 597.504C850.703 598.315 848.164 598.72 845.433 598.72ZM845.049 575.808C846.969 575.808 848.655 575.445 850.105 574.72C851.556 573.952 852.665 572.907 853.433 571.584C854.244 570.261 854.649 568.704 854.649 566.912C854.649 565.12 854.244 563.563 853.433 562.24C852.665 560.875 851.556 559.829 850.105 559.104C848.655 558.336 846.969 557.952 845.049 557.952C843.044 557.952 841.295 558.336 839.801 559.104C838.308 559.829 837.156 560.875 836.345 562.24C835.535 563.563 835.129 565.12 835.129 566.912C835.129 568.704 835.535 570.261 836.345 571.584C837.156 572.907 838.308 573.952 839.801 574.72C841.295 575.445 843.044 575.808 845.049 575.808ZM888.987 568.64L886.939 559.872C888.048 559.659 889.179 559.381 890.331 559.04C891.483 558.699 892.613 558.315 893.723 557.888C894.832 557.461 895.792 556.949 896.603 556.352C897.456 555.755 898.117 555.093 898.587 554.368C899.099 553.6 899.355 552.789 899.355 551.936C899.355 551.04 899.077 550.315 898.523 549.76C898.011 549.163 897.328 548.736 896.475 548.48C895.664 548.181 894.747 548.032 893.723 548.032C891.675 548.032 889.755 548.544 887.963 549.568C886.213 550.592 884.635 552.192 883.227 554.368L876.251 547.52C878.384 544.619 880.944 542.357 883.931 540.736C886.96 539.072 890.267 538.24 893.851 538.24C896.923 538.24 899.675 538.816 902.107 539.968C904.581 541.077 906.523 542.635 907.931 544.64C909.339 546.603 910.043 548.821 910.043 551.296C910.043 552.917 909.659 554.517 908.891 556.096C908.123 557.632 907.056 559.061 905.691 560.384C904.368 561.707 902.832 562.88 901.083 563.904C899.333 564.885 897.456 565.653 895.451 566.208L894.747 568.64H888.987ZM886.235 579.008C886.235 577.387 886.789 576.021 887.899 574.912C889.051 573.803 890.629 573.248 892.635 573.248C894.725 573.248 896.325 573.76 897.435 574.784C898.544 575.808 899.099 577.216 899.099 579.008C899.099 580.587 898.523 581.931 897.371 583.04C896.261 584.149 894.683 584.704 892.635 584.704C890.544 584.704 888.944 584.213 887.835 583.232C886.768 582.208 886.235 580.8 886.235 579.008Z" fill="white"/>
<g id="next">
<g id="Next">
<path id="Next_2" d="M1091.81 885V840.2H1101.79L1128.86 872.2L1127.01 871.88C1126.75 870.387 1126.56 868.957 1126.43 867.592C1126.3 866.227 1126.18 864.904 1126.05 863.624C1125.96 862.344 1125.88 861.064 1125.79 859.784C1125.75 858.504 1125.73 857.16 1125.73 855.752C1125.73 854.344 1125.73 852.851 1125.73 851.272V840.2H1136.29V885H1126.18L1098.08 851.976L1101.09 852.424C1101.22 853.917 1101.34 855.261 1101.47 856.456C1101.64 857.651 1101.77 858.781 1101.86 859.848C1101.98 860.872 1102.07 861.917 1102.11 862.984C1102.2 864.008 1102.26 865.096 1102.3 866.248C1102.35 867.4 1102.37 868.659 1102.37 870.024V885H1091.81ZM1168.89 885.64C1164.76 885.64 1161.13 884.893 1158.01 883.4C1154.94 881.864 1152.55 879.795 1150.85 877.192C1149.14 874.547 1148.29 871.539 1148.29 868.168C1148.29 865.48 1148.78 863.048 1149.76 860.872C1150.74 858.696 1152.11 856.819 1153.85 855.24C1155.6 853.661 1157.65 852.445 1160 851.592C1162.35 850.739 1164.88 850.312 1167.61 850.312C1170.26 850.312 1172.69 850.739 1174.91 851.592C1177.13 852.403 1179.05 853.576 1180.67 855.112C1182.33 856.648 1183.61 858.461 1184.51 860.552C1185.41 862.643 1185.81 864.947 1185.73 867.464L1185.66 870.344H1155.01L1153.53 864.392H1177.34L1176.25 865.672V864.392C1176.13 863.325 1175.66 862.365 1174.85 861.512C1174.08 860.659 1173.08 859.997 1171.84 859.528C1170.6 859.016 1169.24 858.76 1167.74 858.76C1165.82 858.76 1164.12 859.08 1162.62 859.72C1161.13 860.317 1159.96 861.256 1159.1 862.536C1158.29 863.816 1157.89 865.437 1157.89 867.4C1157.89 869.277 1158.38 870.92 1159.36 872.328C1160.38 873.736 1161.81 874.845 1163.65 875.656C1165.52 876.467 1167.72 876.872 1170.24 876.872C1172.41 876.872 1174.23 876.616 1175.68 876.104C1177.17 875.549 1178.52 874.867 1179.71 874.056L1184.32 880.712C1182.91 881.779 1181.35 882.696 1179.65 883.464C1177.98 884.189 1176.23 884.723 1174.4 885.064C1172.61 885.448 1170.77 885.64 1168.89 885.64ZM1222.57 885L1213.16 872.776L1210.54 869.32L1195.63 851.016H1208.56L1217 862.216L1219.82 865.928L1235.37 885H1222.57ZM1194.8 885L1210.03 865.8L1216.24 872.136L1207.53 885H1194.8ZM1219.76 870.216L1213.74 863.816L1222.32 851.016H1234.99L1219.76 870.216ZM1251.39 885V841.672H1261.63V885H1251.39ZM1243.84 859.976V851.016H1270.27V859.976H1243.84Z" fill="white"/>
</g>
<path id="Arrow 1" d="M1085 889.5C1080.31 889.5 1076.5 893.306 1076.5 898C1076.5 902.694 1080.31 906.5 1085 906.5V898V889.5ZM1362 898L1277 848.925V947.075L1362 898ZM1085 898V906.5H1285.5V898V889.5H1085V898Z" fill="#EF1044"/>
</g>
</g>
<defs>
<filter id="filter0_d_147_236" x="1046" y="402" width="126" height="206" filterUnits="userSpaceOnUse" color-interpolation-filters="sRGB">
<feFlood flood-opacity="0" result="BackgroundImageFix"/>
<feColorMatrix in="SourceAlpha" type="matrix" values="0 0 0 0 0 0 0 0 0 0 0 0 0 0 0 0 0 0 127 0" result="hardAlpha"/>
<feOffset dy="4"/>
<feGaussianBlur stdDeviation="2"/>
<feComposite in2="hardAlpha" operator="out"/>
<feColorMatrix type="matrix" values="0 0 0 0 0 0 0 0 0 0 0 0 0 0 0 0 0 0 0.25 0"/>
<feBlend mode="normal" in2="BackgroundImageFix" result="effect1_dropShadow_147_236"/>
<feBlend mode="normal" in="SourceGraphic" in2="effect1_dropShadow_147_236" result="shape"/>
</filter>
<filter id="filter1_d_147_236" x="232" y="622" width="108" height="176" filterUnits="userSpaceOnUse" color-interpolation-filters="sRGB">
<feFlood flood-opacity="0" result="BackgroundImageFix"/>
<feColorMatrix in="SourceAlpha" type="matrix" values="0 0 0 0 0 0 0 0 0 0 0 0 0 0 0 0 0 0 127 0" result="hardAlpha"/>
<feOffset dy="4"/>
<feGaussianBlur stdDeviation="2"/>
<feComposite in2="hardAlpha" operator="out"/>
<feColorMatrix type="matrix" values="0 0 0 0 0 0 0 0 0 0 0 0 0 0 0 0 0 0 0.25 0"/>
<feBlend mode="normal" in2="BackgroundImageFix" result="effect1_dropShadow_147_236"/>
<feBlend mode="normal" in="SourceGraphic" in2="effect1_dropShadow_147_236" result="shape"/>
</filter>
<filter id="filter2_d_147_236" x="466" y="622" width="109" height="176" filterUnits="userSpaceOnUse" color-interpolation-filters="sRGB">
<feFlood flood-opacity="0" result="BackgroundImageFix"/>
<feColorMatrix in="SourceAlpha" type="matrix" values="0 0 0 0 0 0 0 0 0 0 0 0 0 0 0 0 0 0 127 0" result="hardAlpha"/>
<feOffset dy="4"/>
<feGaussianBlur stdDeviation="2"/>
<feComposite in2="hardAlpha" operator="out"/>
<feColorMatrix type="matrix" values="0 0 0 0 0 0 0 0 0 0 0 0 0 0 0 0 0 0 0.25 0"/>
<feBlend mode="normal" in2="BackgroundImageFix" result="effect1_dropShadow_147_236"/>
<feBlend mode="normal" in="SourceGraphic" in2="effect1_dropShadow_147_236" result="shape"/>
</filter>
<filter id="filter3_d_147_236" x="349" y="622" width="109" height="176" filterUnits="userSpaceOnUse" color-interpolation-filters="sRGB">
<feFlood flood-opacity="0" result="BackgroundImageFix"/>
<feColorMatrix in="SourceAlpha" type="matrix" values="0 0 0 0 0 0 0 0 0 0 0 0 0 0 0 0 0 0 127 0" result="hardAlpha"/>
<feOffset dy="4"/>
<feGaussianBlur stdDeviation="2"/>
<feComposite in2="hardAlpha" operator="out"/>
<feColorMatrix type="matrix" values="0 0 0 0 0 0 0 0 0 0 0 0 0 0 0 0 0 0 0.25 0"/>
<feBlend mode="normal" in2="BackgroundImageFix" result="effect1_dropShadow_147_236"/>
<feBlend mode="normal" in="SourceGraphic" in2="effect1_dropShadow_147_236" result="shape"/>
</filter>
<filter id="filter4_d_147_236" x="584" y="622" width="108" height="176" filterUnits="userSpaceOnUse" color-interpolation-filters="sRGB">
<feFlood flood-opacity="0" result="BackgroundImageFix"/>
<feColorMatrix in="SourceAlpha" type="matrix" values="0 0 0 0 0 0 0 0 0 0 0 0 0 0 0 0 0 0 127 0" result="hardAlpha"/>
<feOffset dy="4"/>
<feGaussianBlur stdDeviation="2"/>
<feComposite in2="hardAlpha" operator="out"/>
<feColorMatrix type="matrix" values="0 0 0 0 0 0 0 0 0 0 0 0 0 0 0 0 0 0 0.25 0"/>
<feBlend mode="normal" in2="BackgroundImageFix" result="effect1_dropShadow_147_236"/>
<feBlend mode="normal" in="SourceGraphic" in2="effect1_dropShadow_147_236" result="shape"/>
</filter>
<filter id="filter5_d_147_236" x="126" y="645" width="126" height="206" filterUnits="userSpaceOnUse" color-interpolation-filters="sRGB">
<feFlood flood-opacity="0" result="BackgroundImageFix"/>
<feColorMatrix in="SourceAlpha" type="matrix" values="0 0 0 0 0 0 0 0 0 0 0 0 0 0 0 0 0 0 127 0" result="hardAlpha"/>
<feOffset dy="4"/>
<feGaussianBlur stdDeviation="2"/>
<feComposite in2="hardAlpha" operator="out"/>
<feColorMatrix type="matrix" values="0 0 0 0 0 0 0 0 0 0 0 0 0 0 0 0 0 0 0.25 0"/>
<feBlend mode="normal" in2="BackgroundImageFix" result="effect1_dropShadow_147_236"/>
<feBlend mode="normal" in="SourceGraphic" in2="effect1_dropShadow_147_236" result="shape"/>
</filter>
<filter id="filter6_d_147_236" x="402" y="645" width="126" height="206" filterUnits="userSpaceOnUse" color-interpolation-filters="sRGB">
<feFlood flood-opacity="0" result="BackgroundImageFix"/>
<feColorMatrix in="SourceAlpha" type="matrix" values="0 0 0 0 0 0 0 0 0 0 0 0 0 0 0 0 0 0 127 0" result="hardAlpha"/>
<feOffset dy="4"/>
<feGaussianBlur stdDeviation="2"/>
<feComposite in2="hardAlpha" operator="out"/>
<feColorMatrix type="matrix" values="0 0 0 0 0 0 0 0 0 0 0 0 0 0 0 0 0 0 0.25 0"/>
<feBlend mode="normal" in2="BackgroundImageFix" result="effect1_dropShadow_147_236"/>
<feBlend mode="normal" in="SourceGraphic" in2="effect1_dropShadow_147_236" result="shape"/>
</filter>
<filter id="filter7_d_147_236" x="264" y="645" width="126" height="206" filterUnits="userSpaceOnUse" color-interpolation-filters="sRGB">
<feFlood flood-opacity="0" result="BackgroundImageFix"/>
<feColorMatrix in="SourceAlpha" type="matrix" values="0 0 0 0 0 0 0 0 0 0 0 0 0 0 0 0 0 0 127 0" result="hardAlpha"/>
<feOffset dy="4"/>
<feGaussianBlur stdDeviation="2"/>
<feComposite in2="hardAlpha" operator="out"/>
<feColorMatrix type="matrix" values="0 0 0 0 0 0 0 0 0 0 0 0 0 0 0 0 0 0 0.25 0"/>
<feBlend mode="normal" in2="BackgroundImageFix" result="effect1_dropShadow_147_236"/>
<feBlend mode="normal" in="SourceGraphic" in2="effect1_dropShadow_147_236" result="shape"/>
</filter>
<filter id="filter8_d_147_236" x="322" y="691" width="126" height="206" filterUnits="userSpaceOnUse" color-interpolation-filters="sRGB">
<feFlood flood-opacity="0" result="BackgroundImageFix"/>
<feColorMatrix in="SourceAlpha" type="matrix" values="0 0 0 0 0 0 0 0 0 0 0 0 0 0 0 0 0 0 127 0" result="hardAlpha"/>
<feOffset dy="4"/>
<feGaussianBlur stdDeviation="2"/>
<feComposite in2="hardAlpha" operator="out"/>
<feColorMatrix type="matrix" values="0 0 0 0 0 0 0 0 0 0 0 0 0 0 0 0 0 0 0.25 0"/>
<feBlend mode="normal" in2="BackgroundImageFix" result="effect1_dropShadow_147_236"/>
<feBlend mode="normal" in="SourceGraphic" in2="effect1_dropShadow_147_236" result="shape"/>
</filter>
<filter id="filter9_d_147_236" x="540" y="645" width="126" height="206" filterUnits="userSpaceOnUse" color-interpolation-filters="sRGB">
<feFlood flood-opacity="0" result="BackgroundImageFix"/>
<feColorMatrix in="SourceAlpha" type="matrix" values="0 0 0 0 0 0 0 0 0 0 0 0 0 0 0 0 0 0 127 0" result="hardAlpha"/>
<feOffset dy="4"/>
<feGaussianBlur stdDeviation="2"/>
<feComposite in2="hardAlpha" operator="out"/>
<feColorMatrix type="matrix" values="0 0 0 0 0 0 0 0 0 0 0 0 0 0 0 0 0 0 0.25 0"/>
<feBlend mode="normal" in2="BackgroundImageFix" result="effect1_dropShadow_147_236"/>
<feBlend mode="normal" in="SourceGraphic" in2="effect1_dropShadow_147_236" result="shape"/>
</filter>
<filter id="filter10_d_147_236" x="184" y="691" width="126" height="206" filterUnits="userSpaceOnUse" color-interpolation-filters="sRGB">
<feFlood flood-opacity="0" result="BackgroundImageFix"/>
<feColorMatrix in="SourceAlpha" type="matrix" values="0 0 0 0 0 0 0 0 0 0 0 0 0 0 0 0 0 0 127 0" result="hardAlpha"/>
<feOffset dy="4"/>
<feGaussianBlur stdDeviation="2"/>
<feComposite in2="hardAlpha" operator="out"/>
<feColorMatrix type="matrix" values="0 0 0 0 0 0 0 0 0 0 0 0 0 0 0 0 0 0 0.25 0"/>
<feBlend mode="normal" in2="BackgroundImageFix" result="effect1_dropShadow_147_236"/>
<feBlend mode="normal" in="SourceGraphic" in2="effect1_dropShadow_147_236" result="shape"/>
</filter>
<filter id="filter11_d_147_236" x="460" y="691" width="126" height="206" filterUnits="userSpaceOnUse" color-interpolation-filters="sRGB">
<feFlood flood-opacity="0" result="BackgroundImageFix"/>
<feColorMatrix in="SourceAlpha" type="matrix" values="0 0 0 0 0 0 0 0 0 0 0 0 0 0 0 0 0 0 127 0" result="hardAlpha"/>
<feOffset dy="4"/>
<feGaussianBlur stdDeviation="2"/>
<feComposite in2="hardAlpha" operator="out"/>
<feColorMatrix type="matrix" values="0 0 0 0 0 0 0 0 0 0 0 0 0 0 0 0 0 0 0.25 0"/>
<feBlend mode="normal" in2="BackgroundImageFix" result="effect1_dropShadow_147_236"/>
<feBlend mode="normal" in="SourceGraphic" in2="effect1_dropShadow_147_236" result="shape"/>
</filter>
<filter id="filter12_d_147_236" x="598" y="691" width="126" height="206" filterUnits="userSpaceOnUse" color-interpolation-filters="sRGB">
<feFlood flood-opacity="0" result="BackgroundImageFix"/>
<feColorMatrix in="SourceAlpha" type="matrix" values="0 0 0 0 0 0 0 0 0 0 0 0 0 0 0 0 0 0 127 0" result="hardAlpha"/>
<feOffset dy="4"/>
<feGaussianBlur stdDeviation="2"/>
<feComposite in2="hardAlpha" operator="out"/>
<feColorMatrix type="matrix" values="0 0 0 0 0 0 0 0 0 0 0 0 0 0 0 0 0 0 0.25 0"/>
<feBlend mode="normal" in2="BackgroundImageFix" result="effect1_dropShadow_147_236"/>
<feBlend mode="normal" in="SourceGraphic" in2="effect1_dropShadow_147_236" result="shape"/>
</filter>
<clipPath id="clip0_147_236">
<rect width="1440" height="1024" fill="white"/>
</clipPath>
</defs>
</svg>
