<svg width="1440" height="1024" viewBox="0 0 1440 1024" fill="none" xmlns="http://www.w3.org/2000/svg">
<g id="device2-no" clip-path="url(#clip0_142_1095)">
<rect width="1440" height="1024" fill="#333148"/>
<path id="part 4" d="M47.096 132.12V60.024H61.688L62.264 71.448L59.384 70.584C59.832 68.536 61.048 66.648 63.032 64.92C65.016 63.192 67.512 61.784 70.52 60.696C73.592 59.608 76.856 59.064 80.312 59.064C85.304 59.064 89.688 60.216 93.464 62.52C97.24 64.76 100.184 67.864 102.296 71.832C104.472 75.736 105.56 80.28 105.56 85.464C105.56 90.584 104.472 95.128 102.296 99.096C100.184 103.064 97.208 106.2 93.368 108.504C89.528 110.744 85.112 111.864 80.12 111.864C76.664 111.864 73.432 111.288 70.424 110.136C67.416 108.984 64.888 107.48 62.84 105.624C60.856 103.768 59.576 101.816 59 99.768L62.552 98.424V132.12H47.096ZM76.376 98.904C79.256 98.904 81.752 98.36 83.864 97.272C85.976 96.12 87.608 94.552 88.76 92.568C89.976 90.584 90.584 88.216 90.584 85.464C90.584 82.776 89.976 80.44 88.76 78.456C87.608 76.408 85.976 74.84 83.864 73.752C81.816 72.6 79.32 72.024 76.376 72.024C73.496 72.024 70.968 72.568 68.792 73.656C66.68 74.744 65.016 76.312 63.8 78.36C62.648 80.408 62.072 82.776 62.072 85.464C62.072 88.216 62.648 90.584 63.8 92.568C65.016 94.552 66.68 96.12 68.792 97.272C70.968 98.36 73.496 98.904 76.376 98.904ZM144.211 111.864C139.155 111.864 134.739 110.744 130.963 108.504C127.187 106.264 124.211 103.16 122.035 99.192C119.923 95.16 118.867 90.584 118.867 85.464C118.867 80.28 119.955 75.704 122.131 71.736C124.307 67.768 127.315 64.664 131.155 62.424C135.059 60.12 139.539 58.968 144.595 58.968C147.475 58.968 150.131 59.352 152.563 60.12C154.995 60.824 157.107 61.816 158.899 63.096C160.755 64.376 162.259 65.784 163.411 67.32C164.627 68.856 165.427 70.456 165.811 72.12H162.451V60.024H177.619V111H162.163V97.944L165.427 98.424C165.043 100.088 164.243 101.72 163.027 103.32C161.811 104.92 160.243 106.36 158.323 107.64C156.403 108.92 154.227 109.944 151.795 110.712C149.427 111.48 146.899 111.864 144.211 111.864ZM148.339 98.904C151.219 98.904 153.715 98.36 155.827 97.272C158.003 96.184 159.667 94.648 160.819 92.664C162.035 90.616 162.643 88.216 162.643 85.464C162.643 82.776 162.035 80.44 160.819 78.456C159.667 76.408 158.003 74.808 155.827 73.656C153.715 72.504 151.219 71.928 148.339 71.928C145.459 71.928 142.963 72.504 140.851 73.656C138.739 74.808 137.075 76.408 135.859 78.456C134.707 80.44 134.131 82.776 134.131 85.464C134.131 88.216 134.707 90.616 135.859 92.664C137.075 94.648 138.739 96.184 140.851 97.272C142.963 98.36 145.459 98.904 148.339 98.904ZM201.315 111V60.024H215.907L216.579 77.592L212.931 75.768C213.763 72.632 215.203 69.816 217.251 67.32C219.363 64.76 221.763 62.744 224.451 61.272C227.203 59.736 230.115 58.968 233.187 58.968C234.851 58.968 236.419 59.128 237.891 59.448C239.427 59.768 240.739 60.184 241.827 60.696L237.603 77.496C236.643 76.792 235.331 76.248 233.667 75.864C232.067 75.48 230.435 75.288 228.771 75.288C226.915 75.288 225.219 75.608 223.683 76.248C222.211 76.824 220.963 77.656 219.939 78.744C218.915 79.768 218.115 80.952 217.539 82.296C217.027 83.64 216.771 85.08 216.771 86.616V111H201.315ZM265.932 111V46.008H281.292V111H265.932ZM254.604 73.464V60.024H294.252V73.464H254.604ZM377.032 111V53.304H387.112L357.544 88.248L355.624 83.736H405.256V96.984H349.48L343.048 84.6L378.856 43.224H392.776V111H377.032Z" fill="white"/>
<rect id="Rectangle 7" y="462" width="1567" height="626" fill="#211F2F"/>
<g id="Group 4">
<g id="Vector" filter="url(#filter0_d_142_1095)">
<path d="M409.032 515.66C410.133 510.79 417.065 510.79 418.165 515.66L419.952 523.57C420.614 526.501 418.388 529.29 415.386 529.29H411.812C408.81 529.29 406.583 526.501 407.245 523.57L409.032 515.66Z" fill="#3B5EC6"/>
<path d="M418.548 505.021C418.548 507.794 416.302 510.042 413.532 510.042C410.762 510.042 408.516 507.794 408.516 505.021C408.516 502.248 410.762 500 413.532 500C416.302 500 418.548 502.248 418.548 505.021Z" fill="#3B5EC6"/>
<path d="M414.535 526.846C414.535 525.478 415.643 524.369 417.01 524.369C418.377 524.369 419.485 525.478 419.485 526.846V532.604C419.485 533.972 418.377 535.081 417.01 535.081C415.643 535.081 414.535 533.972 414.535 532.604V526.846Z" fill="#3B5EC6"/>
<path d="M416.471 517.25C415.771 516.075 416.156 514.554 417.33 513.854C418.504 513.154 420.023 513.539 420.722 514.714L423.667 519.66C424.366 520.836 423.981 522.356 422.807 523.056C421.633 523.756 420.114 523.371 419.415 522.196L416.471 517.25Z" fill="#3B5EC6"/>
<path d="M406.342 514.731C407.026 513.547 408.539 513.141 409.723 513.825C410.906 514.509 411.312 516.024 410.628 517.209L407.752 522.195C407.069 523.379 405.556 523.785 404.372 523.101C403.188 522.417 402.783 520.902 403.466 519.718L406.342 514.731Z" fill="#3B5EC6"/>
<path d="M407.579 526.846C407.579 525.478 408.687 524.369 410.054 524.369C411.421 524.369 412.529 525.478 412.529 526.846V532.604C412.529 533.972 411.421 535.081 410.054 535.081C408.687 535.081 407.579 533.972 407.579 532.604V526.846Z" fill="#3B5EC6"/>
</g>
<g id="Vector_2" filter="url(#filter1_d_142_1095)">
<path d="M457.954 515.66C459.065 510.79 466.067 510.79 467.178 515.66L468.983 523.57C469.652 526.501 467.403 529.29 464.371 529.29H460.761C457.729 529.29 455.48 526.501 456.149 523.57L457.954 515.66Z" fill="#3B5EC6"/>
<path d="M467.565 505.021C467.565 507.794 465.296 510.042 462.498 510.042C459.7 510.042 457.432 507.794 457.432 505.021C457.432 502.248 459.7 500 462.498 500C465.296 500 467.565 502.248 467.565 505.021Z" fill="#3B5EC6"/>
<path d="M463.512 526.846C463.512 525.478 464.631 524.369 466.011 524.369C467.391 524.369 468.51 525.478 468.51 526.846V532.604C468.51 533.972 467.391 535.081 466.011 535.081C464.631 535.081 463.512 533.972 463.512 532.604V526.846Z" fill="#3B5EC6"/>
<path d="M465.466 517.25C464.76 516.075 465.148 514.554 466.334 513.854C467.52 513.154 469.054 513.539 469.761 514.714L472.734 519.66C473.441 520.836 473.052 522.356 471.866 523.056C470.68 523.756 469.146 523.371 468.44 522.196L465.466 517.25Z" fill="#3B5EC6"/>
<path d="M455.237 514.731C455.927 513.547 457.455 513.141 458.651 513.825C459.846 514.509 460.256 516.024 459.566 517.209L456.661 522.195C455.971 523.379 454.442 523.785 453.247 523.101C452.051 522.417 451.642 520.902 452.332 519.718L455.237 514.731Z" fill="#3B5EC6"/>
<path d="M456.486 526.846C456.486 525.478 457.605 524.369 458.986 524.369C460.366 524.369 461.485 525.478 461.485 526.846V532.604C461.485 533.972 460.366 535.081 458.986 535.081C457.605 535.081 456.486 533.972 456.486 532.604V526.846Z" fill="#3B5EC6"/>
</g>
<g id="Vector_3" filter="url(#filter2_d_142_1095)">
<path d="M433.523 515.66C434.634 510.79 441.635 510.79 442.747 515.66L444.552 523.57C445.22 526.501 442.972 529.29 439.939 529.29H436.33C433.298 529.29 431.049 526.501 431.718 523.57L433.523 515.66Z" fill="#3B5EC6"/>
<path d="M443.133 505.021C443.133 507.794 440.865 510.042 438.067 510.042C435.269 510.042 433.001 507.794 433.001 505.021C433.001 502.248 435.269 500 438.067 500C440.865 500 443.133 502.248 443.133 505.021Z" fill="#3B5EC6"/>
<path d="M439.08 526.846C439.08 525.478 440.199 524.369 441.58 524.369C442.96 524.369 444.079 525.478 444.079 526.846V532.604C444.079 533.972 442.96 535.081 441.58 535.081C440.199 535.081 439.08 533.972 439.08 532.604V526.846Z" fill="#3B5EC6"/>
<path d="M441.035 517.25C440.329 516.075 440.717 514.554 441.903 513.854C443.089 513.154 444.623 513.539 445.33 514.714L448.303 519.66C449.01 520.836 448.621 522.356 447.435 523.056C446.249 523.756 444.715 523.371 444.009 522.196L441.035 517.25Z" fill="#3B5EC6"/>
<path d="M430.805 514.731C431.496 513.547 433.024 513.141 434.22 513.825C435.415 514.509 435.825 516.024 435.134 517.209L432.23 522.195C431.54 523.379 430.011 523.785 428.816 523.101C427.62 522.417 427.211 520.902 427.901 519.718L430.805 514.731Z" fill="#3B5EC6"/>
<path d="M432.055 526.846C432.055 525.478 433.174 524.369 434.554 524.369C435.935 524.369 437.054 525.478 437.054 526.846V532.604C437.054 533.972 435.935 535.081 434.554 535.081C433.174 535.081 432.055 533.972 432.055 532.604V526.846Z" fill="#3B5EC6"/>
</g>
<g id="Vector_4" filter="url(#filter3_d_142_1095)">
<path d="M482.535 515.66C483.635 510.79 490.567 510.79 491.668 515.66L493.455 523.57C494.117 526.501 491.891 529.29 488.888 529.29H485.314C482.312 529.29 480.086 526.501 480.748 523.57L482.535 515.66Z" fill="#3B5EC6"/>
<path d="M492.051 505.021C492.051 507.794 489.805 510.042 487.034 510.042C484.264 510.042 482.018 507.794 482.018 505.021C482.018 502.248 484.264 500 487.034 500C489.805 500 492.051 502.248 492.051 505.021Z" fill="#3B5EC6"/>
<path d="M488.038 526.846C488.038 525.478 489.146 524.369 490.512 524.369C491.879 524.369 492.987 525.478 492.987 526.846V532.604C492.987 533.972 491.879 535.081 490.512 535.081C489.146 535.081 488.038 533.972 488.038 532.604V526.846Z" fill="#3B5EC6"/>
<path d="M489.973 517.25C489.274 516.075 489.658 514.554 490.832 513.854C492.007 513.154 493.525 513.539 494.225 514.714L497.169 519.66C497.869 520.836 497.484 522.356 496.31 523.056C495.136 523.756 493.617 523.371 492.917 522.196L489.973 517.25Z" fill="#3B5EC6"/>
<path d="M479.845 514.731C480.528 513.547 482.041 513.141 483.225 513.825C484.409 514.509 484.814 516.024 484.131 517.209L481.255 522.195C480.572 523.379 479.058 523.785 477.874 523.101C476.691 522.417 476.285 520.902 476.969 519.718L479.845 514.731Z" fill="#3B5EC6"/>
<path d="M481.082 526.846C481.082 525.478 482.19 524.369 483.557 524.369C484.923 524.369 486.031 525.478 486.031 526.846V532.604C486.031 533.972 484.923 535.081 483.557 535.081C482.19 535.081 481.082 533.972 481.082 532.604V526.846Z" fill="#3B5EC6"/>
</g>
<g id="Vector_5" filter="url(#filter4_d_142_1095)">
<path d="M387.96 523.259C389.258 517.519 397.438 517.519 398.737 523.259L400.845 532.581C401.627 536.036 399 539.323 395.457 539.323H391.24C387.697 539.323 385.07 536.036 385.851 532.581L387.96 523.259Z" fill="#6A94E0"/>
<path d="M399.188 510.72C399.188 513.989 396.538 516.638 393.269 516.638C390 516.638 387.35 513.989 387.35 510.72C387.35 507.452 390 504.803 393.269 504.803C396.538 504.803 399.188 507.452 399.188 510.72Z" fill="#6A94E0"/>
<path d="M394.453 536.443C394.453 534.83 395.76 533.523 397.373 533.523C398.986 533.523 400.293 534.83 400.293 536.443V543.228C400.293 544.841 398.986 546.148 397.373 546.148C395.76 546.148 394.453 544.841 394.453 543.228V536.443Z" fill="#6A94E0"/>
<path d="M396.737 525.133C395.911 523.748 396.365 521.956 397.751 521.131C399.136 520.306 400.929 520.759 401.754 522.144L405.228 527.974C406.054 529.359 405.6 531.151 404.214 531.976C402.829 532.801 401.036 532.348 400.211 530.962L396.737 525.133Z" fill="#6A94E0"/>
<path d="M384.785 522.165C385.592 520.768 387.378 520.29 388.774 521.096C390.171 521.902 390.649 523.688 389.843 525.084L386.449 530.961C385.643 532.357 383.857 532.835 382.461 532.029C381.064 531.223 380.585 529.438 381.392 528.041L384.785 522.165Z" fill="#6A94E0"/>
<path d="M386.245 536.443C386.245 534.83 387.553 533.523 389.165 533.523C390.778 533.523 392.085 534.83 392.085 536.443V543.228C392.085 544.841 390.778 546.148 389.165 546.148C387.553 546.148 386.245 544.841 386.245 543.228V536.443Z" fill="#6A94E0"/>
</g>
<g id="Vector_6" filter="url(#filter5_d_142_1095)">
<path d="M445.593 523.259C446.891 517.519 455.071 517.519 456.369 523.259L458.478 532.581C459.259 536.036 456.632 539.323 453.09 539.323H448.872C445.33 539.323 442.703 536.036 443.484 532.581L445.593 523.259Z" fill="#6A94E0"/>
<path d="M456.821 510.72C456.821 513.989 454.171 516.638 450.902 516.638C447.633 516.638 444.983 513.989 444.983 510.72C444.983 507.452 447.633 504.803 450.902 504.803C454.171 504.803 456.821 507.452 456.821 510.72Z" fill="#6A94E0"/>
<path d="M452.086 536.443C452.086 534.83 453.393 533.523 455.006 533.523C456.619 533.523 457.926 534.83 457.926 536.443V543.228C457.926 544.841 456.619 546.148 455.006 546.148C453.393 546.148 452.086 544.841 452.086 543.228V536.443Z" fill="#6A94E0"/>
<path d="M454.37 525.133C453.544 523.748 453.998 521.956 455.384 521.131C456.769 520.306 458.561 520.759 459.387 522.144L462.861 527.974C463.686 529.359 463.232 531.151 461.847 531.976C460.462 532.801 458.669 532.348 457.844 530.962L454.37 525.133Z" fill="#6A94E0"/>
<path d="M442.418 522.165C443.224 520.768 445.01 520.29 446.407 521.096C447.804 521.902 448.282 523.688 447.476 525.084L444.082 530.961C443.276 532.357 441.49 532.835 440.093 532.029C438.697 531.223 438.218 529.438 439.025 528.041L442.418 522.165Z" fill="#6A94E0"/>
<path d="M443.878 536.443C443.878 534.83 445.186 533.523 446.798 533.523C448.411 533.523 449.718 534.83 449.718 536.443V543.228C449.718 544.841 448.411 546.148 446.798 546.148C445.186 546.148 443.878 544.841 443.878 543.228V536.443Z" fill="#6A94E0"/>
</g>
<g id="Vector_7" filter="url(#filter6_d_142_1095)">
<path d="M416.776 523.259C418.075 517.519 426.255 517.519 427.553 523.259L429.662 532.581C430.443 536.036 427.816 539.323 424.273 539.323H420.056C416.513 539.323 413.886 536.036 414.668 532.581L416.776 523.259Z" fill="#6A94E0"/>
<path d="M428.005 510.72C428.005 513.989 425.355 516.638 422.086 516.638C418.817 516.638 416.167 513.989 416.167 510.72C416.167 507.452 418.817 504.803 422.086 504.803C425.355 504.803 428.005 507.452 428.005 510.72Z" fill="#6A94E0"/>
<path d="M423.27 536.443C423.27 534.83 424.577 533.523 426.19 533.523C427.802 533.523 429.11 534.83 429.11 536.443V543.228C429.11 544.841 427.802 546.148 426.19 546.148C424.577 546.148 423.27 544.841 423.27 543.228V536.443Z" fill="#6A94E0"/>
<path d="M425.553 525.133C424.728 523.748 425.182 521.956 426.567 521.131C427.953 520.306 429.745 520.759 430.571 522.144L434.044 527.974C434.87 529.359 434.416 531.151 433.031 531.976C431.645 532.801 429.853 532.348 429.027 530.962L425.553 525.133Z" fill="#6A94E0"/>
<path d="M413.602 522.165C414.408 520.768 416.194 520.29 417.591 521.096C418.987 521.902 419.466 523.688 418.659 525.084L415.266 530.961C414.459 532.357 412.674 532.835 411.277 532.029C409.88 531.223 409.402 529.438 410.208 528.041L413.602 522.165Z" fill="#6A94E0"/>
<path d="M415.062 536.443C415.062 534.83 416.369 533.523 417.982 533.523C419.595 533.523 420.902 534.83 420.902 536.443V543.228C420.902 544.841 419.595 546.148 417.982 546.148C416.369 546.148 415.062 544.841 415.062 543.228V536.443Z" fill="#6A94E0"/>
</g>
<g id="Vector_8" filter="url(#filter7_d_142_1095)">
<path d="M428.888 532.865C430.186 527.125 438.366 527.125 439.664 532.865L441.773 542.187C442.554 545.641 439.927 548.928 436.385 548.928H432.167C428.625 548.928 425.998 545.641 426.779 542.187L428.888 532.865Z" fill="#8DBBFB"/>
<path d="M440.116 520.326C440.116 523.594 437.466 526.244 434.197 526.244C430.928 526.244 428.278 523.594 428.278 520.326C428.278 517.058 430.928 514.408 434.197 514.408C437.466 514.408 440.116 517.058 440.116 520.326Z" fill="#8DBBFB"/>
<path d="M435.381 546.048C435.381 544.436 436.688 543.129 438.301 543.129C439.914 543.129 441.221 544.436 441.221 546.048V552.834C441.221 554.446 439.914 555.753 438.301 555.753C436.688 555.753 435.381 554.446 435.381 552.834V546.048Z" fill="#8DBBFB"/>
<path d="M437.665 534.739C436.839 533.353 437.293 531.562 438.679 530.736C440.064 529.911 441.856 530.365 442.682 531.75L446.156 537.579C446.981 538.965 446.527 540.756 445.142 541.582C443.756 542.407 441.964 541.953 441.139 540.568L437.665 534.739Z" fill="#8DBBFB"/>
<path d="M425.713 531.77C426.519 530.374 428.305 529.895 429.702 530.702C431.099 531.508 431.577 533.293 430.771 534.69L427.377 540.566C426.571 541.963 424.785 542.441 423.388 541.635C421.992 540.829 421.513 539.043 422.319 537.647L425.713 531.77Z" fill="#8DBBFB"/>
<path d="M427.173 546.048C427.173 544.436 428.48 543.129 430.093 543.129C431.706 543.129 433.013 544.436 433.013 546.048V552.834C433.013 554.446 431.706 555.753 430.093 555.753C428.48 555.753 427.173 554.446 427.173 552.834V546.048Z" fill="#8DBBFB"/>
</g>
<g id="Vector_9" filter="url(#filter8_d_142_1095)">
<path d="M474.409 523.259C475.707 517.519 483.887 517.519 485.185 523.259L487.294 532.581C488.075 536.036 485.448 539.323 481.906 539.323H477.688C474.146 539.323 471.519 536.036 472.3 532.581L474.409 523.259Z" fill="#6A94E0"/>
<path d="M485.637 510.72C485.637 513.989 482.987 516.638 479.718 516.638C476.449 516.638 473.799 513.989 473.799 510.72C473.799 507.452 476.449 504.803 479.718 504.803C482.987 504.803 485.637 507.452 485.637 510.72Z" fill="#6A94E0"/>
<path d="M480.902 536.443C480.902 534.83 482.209 533.523 483.822 533.523C485.435 533.523 486.742 534.83 486.742 536.443V543.228C486.742 544.841 485.435 546.148 483.822 546.148C482.209 546.148 480.902 544.841 480.902 543.228V536.443Z" fill="#6A94E0"/>
<path d="M483.186 525.133C482.36 523.748 482.814 521.956 484.2 521.131C485.585 520.306 487.377 520.759 488.203 522.144L491.677 527.974C492.502 529.359 492.048 531.151 490.663 531.976C489.277 532.801 487.485 532.348 486.66 530.962L483.186 525.133Z" fill="#6A94E0"/>
<path d="M471.234 522.165C472.04 520.768 473.826 520.29 475.223 521.096C476.62 521.902 477.098 523.688 476.292 525.084L472.898 530.961C472.092 532.357 470.306 532.835 468.909 532.029C467.513 531.223 467.034 529.438 467.84 528.041L471.234 522.165Z" fill="#6A94E0"/>
<path d="M472.694 536.443C472.694 534.83 474.001 533.523 475.614 533.523C477.227 533.523 478.534 534.83 478.534 536.443V543.228C478.534 544.841 477.227 546.148 475.614 546.148C474.001 546.148 472.694 544.841 472.694 543.228V536.443Z" fill="#6A94E0"/>
</g>
<g id="Vector_10" filter="url(#filter9_d_142_1095)">
<path d="M400.071 532.865C401.369 527.125 409.55 527.125 410.848 532.865L412.957 542.187C413.738 545.641 411.111 548.928 407.568 548.928H403.351C399.808 548.928 397.181 545.641 397.963 542.187L400.071 532.865Z" fill="#8DBBFB"/>
<path d="M411.3 520.326C411.3 523.594 408.65 526.244 405.381 526.244C402.112 526.244 399.462 523.594 399.462 520.326C399.462 517.058 402.112 514.408 405.381 514.408C408.65 514.408 411.3 517.058 411.3 520.326Z" fill="#8DBBFB"/>
<path d="M406.564 546.048C406.564 544.436 407.872 543.129 409.485 543.129C411.097 543.129 412.405 544.436 412.405 546.048V552.834C412.405 554.446 411.097 555.753 409.485 555.753C407.872 555.753 406.564 554.446 406.564 552.834V546.048Z" fill="#8DBBFB"/>
<path d="M408.848 534.739C408.023 533.353 408.477 531.562 409.862 530.736C411.248 529.911 413.04 530.365 413.865 531.75L417.339 537.579C418.165 538.965 417.711 540.756 416.325 541.582C414.94 542.407 413.148 541.953 412.322 540.568L408.848 534.739Z" fill="#8DBBFB"/>
<path d="M396.897 531.77C397.703 530.374 399.489 529.895 400.886 530.702C402.282 531.508 402.761 533.293 401.954 534.69L398.561 540.566C397.754 541.963 395.969 542.441 394.572 541.635C393.175 540.829 392.697 539.043 393.503 537.647L396.897 531.77Z" fill="#8DBBFB"/>
<path d="M398.357 546.048C398.357 544.436 399.664 543.129 401.277 543.129C402.889 543.129 404.197 544.436 404.197 546.048V552.834C404.197 554.446 402.889 555.753 401.277 555.753C399.664 555.753 398.357 554.446 398.357 552.834V546.048Z" fill="#8DBBFB"/>
</g>
<g id="Vector_11" filter="url(#filter10_d_142_1095)">
<path d="M457.703 532.865C459.002 527.125 467.182 527.125 468.48 532.865L470.589 542.187C471.37 545.641 468.743 548.928 465.2 548.928H460.983C457.441 548.928 454.813 545.641 455.595 542.187L457.703 532.865Z" fill="#8DBBFB"/>
<path d="M468.932 520.326C468.932 523.594 466.282 526.244 463.013 526.244C459.744 526.244 457.094 523.594 457.094 520.326C457.094 517.058 459.744 514.408 463.013 514.408C466.282 514.408 468.932 517.058 468.932 520.326Z" fill="#8DBBFB"/>
<path d="M464.197 546.048C464.197 544.436 465.504 543.129 467.117 543.129C468.73 543.129 470.037 544.436 470.037 546.048V552.834C470.037 554.446 468.73 555.753 467.117 555.753C465.504 555.753 464.197 554.446 464.197 552.834V546.048Z" fill="#8DBBFB"/>
<path d="M466.481 534.739C465.655 533.353 466.109 531.562 467.495 530.736C468.88 529.911 470.672 530.365 471.498 531.75L474.972 537.579C475.797 538.965 475.343 540.756 473.958 541.582C472.572 542.407 470.78 541.953 469.955 540.568L466.481 534.739Z" fill="#8DBBFB"/>
<path d="M454.529 531.77C455.335 530.374 457.121 529.895 458.518 530.702C459.915 531.508 460.393 533.293 459.587 534.69L456.193 540.566C455.387 541.963 453.601 542.441 452.204 541.635C450.808 540.829 450.329 539.043 451.135 537.647L454.529 531.77Z" fill="#8DBBFB"/>
<path d="M455.989 546.048C455.989 544.436 457.296 543.129 458.909 543.129C460.522 543.129 461.829 544.436 461.829 546.048V552.834C461.829 554.446 460.522 555.753 458.909 555.753C457.296 555.753 455.989 554.446 455.989 552.834V546.048Z" fill="#8DBBFB"/>
</g>
<g id="Vector_12" filter="url(#filter11_d_142_1095)">
<path d="M486.52 532.865C487.818 527.125 495.998 527.125 497.297 532.865L499.405 542.187C500.187 545.641 497.56 548.928 494.017 548.928H489.8C486.257 548.928 483.63 545.641 484.411 542.187L486.52 532.865Z" fill="#8DBBFB"/>
<path d="M497.748 520.326C497.748 523.594 495.098 526.244 491.829 526.244C488.56 526.244 485.91 523.594 485.91 520.326C485.91 517.058 488.56 514.408 491.829 514.408C495.098 514.408 497.748 517.058 497.748 520.326Z" fill="#8DBBFB"/>
<path d="M493.013 546.048C493.013 544.436 494.321 543.129 495.933 543.129C497.546 543.129 498.853 544.436 498.853 546.048V552.834C498.853 554.446 497.546 555.753 495.933 555.753C494.321 555.753 493.013 554.446 493.013 552.834V546.048Z" fill="#8DBBFB"/>
<path d="M495.297 534.739C494.472 533.353 494.926 531.562 496.311 530.736C497.696 529.911 499.489 530.365 500.314 531.75L503.788 537.579C504.614 538.965 504.16 540.756 502.774 541.582C501.389 542.407 499.596 541.953 498.771 540.568L495.297 534.739Z" fill="#8DBBFB"/>
<path d="M483.345 531.77C484.152 530.374 485.938 529.895 487.334 530.702C488.731 531.508 489.209 533.293 488.403 534.69L485.009 540.566C484.203 541.963 482.417 542.441 481.021 541.635C479.624 540.829 479.145 539.043 479.952 537.647L483.345 531.77Z" fill="#8DBBFB"/>
<path d="M484.805 546.048C484.805 544.436 486.113 543.129 487.725 543.129C489.338 543.129 490.646 544.436 490.646 546.048V552.834C490.646 554.446 489.338 555.753 487.725 555.753C486.113 555.753 484.805 554.446 484.805 552.834V546.048Z" fill="#8DBBFB"/>
</g>
</g>
<rect id="Rectangle 8" x="378" y="364" width="64" height="35" rx="14" fill="#3B5EC6"/>
<rect id="Rectangle 9" x="404" y="364" width="12" height="35" fill="white"/>
<rect id="Rectangle 11" x="440.413" y="362.549" width="8.00955" height="72.3099" rx="4.00478" transform="rotate(62.972 440.413 362.549)" fill="white"/>
<rect id="Rectangle 12" x="443.34" y="397.154" width="8.00955" height="72.3099" rx="4.00478" transform="rotate(120 443.34 397.154)" fill="white"/>
<rect id="Rectangle 10" x="378" y="387" width="10" height="64" transform="rotate(-90 378 387)" fill="white"/>
<rect id="Rectangle 13" x="440.067" y="364.52" width="4.81063" height="69.9016" rx="2.40531" transform="rotate(62.972 440.067 364.52)" fill="#EF1044"/>
<rect id="Rectangle 14" x="441.539" y="397.807" width="4.81063" height="69.9016" rx="2.40531" transform="rotate(120 441.539 397.807)" fill="#EF1044"/>
<rect id="Rectangle 15" x="378" y="380" width="64" height="5" fill="#EF1044"/>
<rect id="Rectangle 16" x="413" y="364" width="35" height="6" transform="rotate(90 413 364)" fill="#EF1044"/>
<line id="Line 1" x1="378" y1="492" x2="378" y2="366" stroke="#485C77" stroke-width="10" stroke-linecap="round"/>
<rect id="Rectangle 28" x="502" y="283" width="333" height="204" rx="24" fill="#485C77"/>
<rect id="Rectangle 29" x="554" y="374" width="82" height="154" rx="29" fill="#211F2F"/>
<path id="Vector 25" d="M854 437.5L1006.5 370L1076.5 528L1150 641.5L1037 539.5L1006.5 390.5L854 437.5Z" fill="#8DBBFB"/>
<path id="Vector 26" d="M866.049 427.47L970.719 557.304L836.22 665.812L745.611 766.183L814.888 630.634L950.917 562.609L866.049 427.47Z" fill="#8DBBFB"/>
<g id="Group 13">
<path id="Vector 13" d="M1093 737.759L1132.24 594.037L1168.35 651.333L1194.11 564.907L1226.61 626.537L1275.96 556L1328.69 626.537L1347.7 594.037L1382.61 640.019L1397.06 612.093L1403.8 712L1366 745.944L1316.65 732.944H1299.31H1271.39L1240.09 753.648L1218.19 737.759L1197.24 745.944H1186.89L1179.91 757.5L1151.98 764L1132.24 753.648L1105.28 745.944L1093 737.759Z" fill="#EC5F46"/>
<path id="Vector 14" d="M1133.44 627.981L1111.06 746.185L1115.87 750.759L1135.13 754.37H1182.31L1191.22 742.333L1222.04 739.926L1284.63 733.185H1295.7L1307.5 727.648L1333.98 738H1379.48L1398.74 707.907L1390.07 659.278L1356.85 627.981L1330.37 659.278L1275.96 615.704C1265.37 631.432 1244.19 663.611 1244.19 666.5C1244.19 669.389 1212.41 629.346 1196.52 608.963L1174.85 695.389L1133.44 627.981Z" fill="#FD9D49"/>
</g>
<g id="Group 14">
<path id="Vector 13_2" d="M393 863.759L432.241 720.037L468.352 777.333L494.111 690.907L526.611 752.537L575.963 682L628.685 752.537L647.704 720.037L682.611 766.019L697.056 738.093L703.796 838L666 871.944L616.648 858.944H599.315H571.389L540.093 879.648L518.185 863.759L497.241 871.944H486.889L479.907 883.5L451.981 890L432.241 879.648L405.278 871.944L393 863.759Z" fill="#EC5F46"/>
<path id="Vector 14_2" d="M433.445 753.981L411.056 872.185L415.87 876.759L435.13 880.37H482.315L491.222 868.333L522.037 865.926L584.63 859.185H595.704L607.5 853.648L633.982 864H679.482L698.741 833.907L690.074 785.278L656.852 753.981L630.37 785.278L575.963 741.704C565.37 757.432 544.185 789.611 544.185 792.5C544.185 795.389 512.408 755.346 496.519 734.963L474.852 821.389L433.445 753.981Z" fill="#FD9D49"/>
</g>
<g id="Group 15">
<path id="Vector 13_3" d="M636 946.759L675.241 803.037L711.352 860.333L737.111 773.907L769.611 835.537L818.963 765L871.685 835.537L890.704 803.037L925.611 849.019L940.056 821.093L946.796 921L909 954.944L859.648 941.944H842.315H814.389L783.093 962.648L761.185 946.759L740.241 954.944H729.889L722.907 966.5L694.981 973L675.241 962.648L648.278 954.944L636 946.759Z" fill="#EC5F46"/>
<path id="Vector 14_3" d="M676.445 836.981L654.056 955.185L658.87 959.759L678.13 963.37H725.315L734.222 951.333L765.037 948.926L827.63 942.185H838.704L850.5 936.648L876.982 947H922.482L941.741 916.907L933.074 868.278L899.852 836.981L873.37 868.278L818.963 824.704C808.37 840.432 787.185 872.611 787.185 875.5C787.185 878.389 755.408 838.346 739.519 817.963L717.852 904.389L676.445 836.981Z" fill="#FD9D49"/>
</g>
<path id="Polygon 6" d="M656.483 480C666.491 462.667 691.509 462.667 701.517 480L739.622 546C749.629 563.333 737.12 585 717.105 585H640.895C620.88 585 608.371 563.333 618.378 546L656.483 480Z" fill="#73839A"/>
<rect id="Rectangle 30" x="582" y="420.893" width="235" height="85" rx="31" transform="rotate(-7.79968 582 420.893)" fill="#73839A"/>
<ellipse id="Ellipse 9" cx="799.5" cy="436" rx="70.5" ry="79" fill="#405066"/>
<g id="Group 29">
<line id="Line 8" x1="799.513" y1="358.396" x2="855.396" y2="428.487" stroke="#333148" stroke-width="5" stroke-linecap="round"/>
<line id="Line 9" x1="788.663" y1="508.481" x2="851.481" y2="432.337" stroke="#333148" stroke-width="5" stroke-linecap="round"/>
<line id="Line 10" x1="732.673" y1="420.686" x2="852.686" y2="429.327" stroke="#333148" stroke-width="5" stroke-linecap="round"/>
<line id="Line 11" x1="863.717" y1="458.687" x2="853.687" y2="435.283" stroke="#333148" stroke-width="5" stroke-linecap="round"/>
<line id="Line 12" x1="861.225" y1="396.748" x2="857.748" y2="429.775" stroke="#333148" stroke-width="5" stroke-linecap="round"/>
<line id="Line 13" x1="753.363" y1="378.908" x2="850.908" y2="428.637" stroke="#333148" stroke-width="5" stroke-linecap="round"/>
<line id="Line 14" x1="737.671" y1="465.884" x2="848.884" y2="432.329" stroke="#333148" stroke-width="5" stroke-linecap="round"/>
<line id="Line 15" x1="846.786" y1="488.244" x2="852.244" y2="438.214" stroke="#333148" stroke-width="5" stroke-linecap="round"/>
<line id="Line 16" x1="867.684" y1="432.672" x2="858.672" y2="433.316" stroke="#333148" stroke-width="5" stroke-linecap="round"/>
<line id="Line 17" x1="839.137" y1="371.631" x2="855.631" y2="423.863" stroke="#333148" stroke-width="5" stroke-linecap="round"/>
</g>
<circle id="Ellipse 10" cx="854.5" cy="431.5" r="11.5" fill="#8DBBFB"/>
<ellipse id="Ellipse 11" cx="859.5" cy="432" rx="6.5" ry="7" fill="#6A94E0"/>
<ellipse id="Ellipse 12" cx="861.5" cy="432" rx="3.5" ry="4" fill="#3B5EC6"/>
</g>
<defs>
<filter id="filter0_d_142_1095" x="399.134" y="500" width="28.8813" height="43.0801" filterUnits="userSpaceOnUse" color-interpolation-filters="sRGB">
<feFlood flood-opacity="0" result="BackgroundImageFix"/>
<feColorMatrix in="SourceAlpha" type="matrix" values="0 0 0 0 0 0 0 0 0 0 0 0 0 0 0 0 0 0 127 0" result="hardAlpha"/>
<feOffset dy="4"/>
<feGaussianBlur stdDeviation="2"/>
<feComposite in2="hardAlpha" operator="out"/>
<feColorMatrix type="matrix" values="0 0 0 0 0 0 0 0 0 0 0 0 0 0 0 0 0 0 0.25 0"/>
<feBlend mode="normal" in2="BackgroundImageFix" result="effect1_dropShadow_142_1095"/>
<feBlend mode="normal" in="SourceGraphic" in2="effect1_dropShadow_142_1095" result="shape"/>
</filter>
<filter id="filter1_d_142_1095" x="447.997" y="500" width="29.0903" height="43.0801" filterUnits="userSpaceOnUse" color-interpolation-filters="sRGB">
<feFlood flood-opacity="0" result="BackgroundImageFix"/>
<feColorMatrix in="SourceAlpha" type="matrix" values="0 0 0 0 0 0 0 0 0 0 0 0 0 0 0 0 0 0 127 0" result="hardAlpha"/>
<feOffset dy="4"/>
<feGaussianBlur stdDeviation="2"/>
<feComposite in2="hardAlpha" operator="out"/>
<feColorMatrix type="matrix" values="0 0 0 0 0 0 0 0 0 0 0 0 0 0 0 0 0 0 0.25 0"/>
<feBlend mode="normal" in2="BackgroundImageFix" result="effect1_dropShadow_142_1095"/>
<feBlend mode="normal" in="SourceGraphic" in2="effect1_dropShadow_142_1095" result="shape"/>
</filter>
<filter id="filter2_d_142_1095" x="423.565" y="500" width="29.0903" height="43.0801" filterUnits="userSpaceOnUse" color-interpolation-filters="sRGB">
<feFlood flood-opacity="0" result="BackgroundImageFix"/>
<feColorMatrix in="SourceAlpha" type="matrix" values="0 0 0 0 0 0 0 0 0 0 0 0 0 0 0 0 0 0 127 0" result="hardAlpha"/>
<feOffset dy="4"/>
<feGaussianBlur stdDeviation="2"/>
<feComposite in2="hardAlpha" operator="out"/>
<feColorMatrix type="matrix" values="0 0 0 0 0 0 0 0 0 0 0 0 0 0 0 0 0 0 0.25 0"/>
<feBlend mode="normal" in2="BackgroundImageFix" result="effect1_dropShadow_142_1095"/>
<feBlend mode="normal" in="SourceGraphic" in2="effect1_dropShadow_142_1095" result="shape"/>
</filter>
<filter id="filter3_d_142_1095" x="472.637" y="500" width="28.8813" height="43.0801" filterUnits="userSpaceOnUse" color-interpolation-filters="sRGB">
<feFlood flood-opacity="0" result="BackgroundImageFix"/>
<feColorMatrix in="SourceAlpha" type="matrix" values="0 0 0 0 0 0 0 0 0 0 0 0 0 0 0 0 0 0 127 0" result="hardAlpha"/>
<feOffset dy="4"/>
<feGaussianBlur stdDeviation="2"/>
<feComposite in2="hardAlpha" operator="out"/>
<feColorMatrix type="matrix" values="0 0 0 0 0 0 0 0 0 0 0 0 0 0 0 0 0 0 0.25 0"/>
<feBlend mode="normal" in2="BackgroundImageFix" result="effect1_dropShadow_142_1095"/>
<feBlend mode="normal" in="SourceGraphic" in2="effect1_dropShadow_142_1095" result="shape"/>
</filter>
<filter id="filter4_d_142_1095" x="377" y="504.803" width="32.6401" height="49.3457" filterUnits="userSpaceOnUse" color-interpolation-filters="sRGB">
<feFlood flood-opacity="0" result="BackgroundImageFix"/>
<feColorMatrix in="SourceAlpha" type="matrix" values="0 0 0 0 0 0 0 0 0 0 0 0 0 0 0 0 0 0 127 0" result="hardAlpha"/>
<feOffset dy="4"/>
<feGaussianBlur stdDeviation="2"/>
<feComposite in2="hardAlpha" operator="out"/>
<feColorMatrix type="matrix" values="0 0 0 0 0 0 0 0 0 0 0 0 0 0 0 0 0 0 0.25 0"/>
<feBlend mode="normal" in2="BackgroundImageFix" result="effect1_dropShadow_142_1095"/>
<feBlend mode="normal" in="SourceGraphic" in2="effect1_dropShadow_142_1095" result="shape"/>
</filter>
<filter id="filter5_d_142_1095" x="434.633" y="504.803" width="32.6401" height="49.3457" filterUnits="userSpaceOnUse" color-interpolation-filters="sRGB">
<feFlood flood-opacity="0" result="BackgroundImageFix"/>
<feColorMatrix in="SourceAlpha" type="matrix" values="0 0 0 0 0 0 0 0 0 0 0 0 0 0 0 0 0 0 127 0" result="hardAlpha"/>
<feOffset dy="4"/>
<feGaussianBlur stdDeviation="2"/>
<feComposite in2="hardAlpha" operator="out"/>
<feColorMatrix type="matrix" values="0 0 0 0 0 0 0 0 0 0 0 0 0 0 0 0 0 0 0.25 0"/>
<feBlend mode="normal" in2="BackgroundImageFix" result="effect1_dropShadow_142_1095"/>
<feBlend mode="normal" in="SourceGraphic" in2="effect1_dropShadow_142_1095" result="shape"/>
</filter>
<filter id="filter6_d_142_1095" x="405.816" y="504.803" width="32.6401" height="49.3457" filterUnits="userSpaceOnUse" color-interpolation-filters="sRGB">
<feFlood flood-opacity="0" result="BackgroundImageFix"/>
<feColorMatrix in="SourceAlpha" type="matrix" values="0 0 0 0 0 0 0 0 0 0 0 0 0 0 0 0 0 0 127 0" result="hardAlpha"/>
<feOffset dy="4"/>
<feGaussianBlur stdDeviation="2"/>
<feComposite in2="hardAlpha" operator="out"/>
<feColorMatrix type="matrix" values="0 0 0 0 0 0 0 0 0 0 0 0 0 0 0 0 0 0 0.25 0"/>
<feBlend mode="normal" in2="BackgroundImageFix" result="effect1_dropShadow_142_1095"/>
<feBlend mode="normal" in="SourceGraphic" in2="effect1_dropShadow_142_1095" result="shape"/>
</filter>
<filter id="filter7_d_142_1095" x="417.928" y="514.408" width="32.6401" height="49.3457" filterUnits="userSpaceOnUse" color-interpolation-filters="sRGB">
<feFlood flood-opacity="0" result="BackgroundImageFix"/>
<feColorMatrix in="SourceAlpha" type="matrix" values="0 0 0 0 0 0 0 0 0 0 0 0 0 0 0 0 0 0 127 0" result="hardAlpha"/>
<feOffset dy="4"/>
<feGaussianBlur stdDeviation="2"/>
<feComposite in2="hardAlpha" operator="out"/>
<feColorMatrix type="matrix" values="0 0 0 0 0 0 0 0 0 0 0 0 0 0 0 0 0 0 0.25 0"/>
<feBlend mode="normal" in2="BackgroundImageFix" result="effect1_dropShadow_142_1095"/>
<feBlend mode="normal" in="SourceGraphic" in2="effect1_dropShadow_142_1095" result="shape"/>
</filter>
<filter id="filter8_d_142_1095" x="463.449" y="504.803" width="32.6401" height="49.3457" filterUnits="userSpaceOnUse" color-interpolation-filters="sRGB">
<feFlood flood-opacity="0" result="BackgroundImageFix"/>
<feColorMatrix in="SourceAlpha" type="matrix" values="0 0 0 0 0 0 0 0 0 0 0 0 0 0 0 0 0 0 127 0" result="hardAlpha"/>
<feOffset dy="4"/>
<feGaussianBlur stdDeviation="2"/>
<feComposite in2="hardAlpha" operator="out"/>
<feColorMatrix type="matrix" values="0 0 0 0 0 0 0 0 0 0 0 0 0 0 0 0 0 0 0.25 0"/>
<feBlend mode="normal" in2="BackgroundImageFix" result="effect1_dropShadow_142_1095"/>
<feBlend mode="normal" in="SourceGraphic" in2="effect1_dropShadow_142_1095" result="shape"/>
</filter>
<filter id="filter9_d_142_1095" x="389.111" y="514.408" width="32.6401" height="49.3457" filterUnits="userSpaceOnUse" color-interpolation-filters="sRGB">
<feFlood flood-opacity="0" result="BackgroundImageFix"/>
<feColorMatrix in="SourceAlpha" type="matrix" values="0 0 0 0 0 0 0 0 0 0 0 0 0 0 0 0 0 0 127 0" result="hardAlpha"/>
<feOffset dy="4"/>
<feGaussianBlur stdDeviation="2"/>
<feComposite in2="hardAlpha" operator="out"/>
<feColorMatrix type="matrix" values="0 0 0 0 0 0 0 0 0 0 0 0 0 0 0 0 0 0 0.25 0"/>
<feBlend mode="normal" in2="BackgroundImageFix" result="effect1_dropShadow_142_1095"/>
<feBlend mode="normal" in="SourceGraphic" in2="effect1_dropShadow_142_1095" result="shape"/>
</filter>
<filter id="filter10_d_142_1095" x="446.744" y="514.408" width="32.6401" height="49.3457" filterUnits="userSpaceOnUse" color-interpolation-filters="sRGB">
<feFlood flood-opacity="0" result="BackgroundImageFix"/>
<feColorMatrix in="SourceAlpha" type="matrix" values="0 0 0 0 0 0 0 0 0 0 0 0 0 0 0 0 0 0 127 0" result="hardAlpha"/>
<feOffset dy="4"/>
<feGaussianBlur stdDeviation="2"/>
<feComposite in2="hardAlpha" operator="out"/>
<feColorMatrix type="matrix" values="0 0 0 0 0 0 0 0 0 0 0 0 0 0 0 0 0 0 0.25 0"/>
<feBlend mode="normal" in2="BackgroundImageFix" result="effect1_dropShadow_142_1095"/>
<feBlend mode="normal" in="SourceGraphic" in2="effect1_dropShadow_142_1095" result="shape"/>
</filter>
<filter id="filter11_d_142_1095" x="475.56" y="514.408" width="32.6401" height="49.3457" filterUnits="userSpaceOnUse" color-interpolation-filters="sRGB">
<feFlood flood-opacity="0" result="BackgroundImageFix"/>
<feColorMatrix in="SourceAlpha" type="matrix" values="0 0 0 0 0 0 0 0 0 0 0 0 0 0 0 0 0 0 127 0" result="hardAlpha"/>
<feOffset dy="4"/>
<feGaussianBlur stdDeviation="2"/>
<feComposite in2="hardAlpha" operator="out"/>
<feColorMatrix type="matrix" values="0 0 0 0 0 0 0 0 0 0 0 0 0 0 0 0 0 0 0.25 0"/>
<feBlend mode="normal" in2="BackgroundImageFix" result="effect1_dropShadow_142_1095"/>
<feBlend mode="normal" in="SourceGraphic" in2="effect1_dropShadow_142_1095" result="shape"/>
</filter>
<clipPath id="clip0_142_1095">
<rect width="1440" height="1024" fill="white"/>
</clipPath>
</defs>
</svg>
