<svg width="1440" height="1024" viewBox="0 0 1440 1024" fill="none" xmlns="http://www.w3.org/2000/svg">
<g id="device4-yes" clip-path="url(#clip0_147_324)">
<rect width="1440" height="1024" fill="#333148"/>
<path id="part 4" d="M47.096 132.12V60.024H61.688L62.264 71.448L59.384 70.584C59.832 68.536 61.048 66.648 63.032 64.92C65.016 63.192 67.512 61.784 70.52 60.696C73.592 59.608 76.856 59.064 80.312 59.064C85.304 59.064 89.688 60.216 93.464 62.52C97.24 64.76 100.184 67.864 102.296 71.832C104.472 75.736 105.56 80.28 105.56 85.464C105.56 90.584 104.472 95.128 102.296 99.096C100.184 103.064 97.208 106.2 93.368 108.504C89.528 110.744 85.112 111.864 80.12 111.864C76.664 111.864 73.432 111.288 70.424 110.136C67.416 108.984 64.888 107.48 62.84 105.624C60.856 103.768 59.576 101.816 59 99.768L62.552 98.424V132.12H47.096ZM76.376 98.904C79.256 98.904 81.752 98.36 83.864 97.272C85.976 96.12 87.608 94.552 88.76 92.568C89.976 90.584 90.584 88.216 90.584 85.464C90.584 82.776 89.976 80.44 88.76 78.456C87.608 76.408 85.976 74.84 83.864 73.752C81.816 72.6 79.32 72.024 76.376 72.024C73.496 72.024 70.968 72.568 68.792 73.656C66.68 74.744 65.016 76.312 63.8 78.36C62.648 80.408 62.072 82.776 62.072 85.464C62.072 88.216 62.648 90.584 63.8 92.568C65.016 94.552 66.68 96.12 68.792 97.272C70.968 98.36 73.496 98.904 76.376 98.904ZM144.211 111.864C139.155 111.864 134.739 110.744 130.963 108.504C127.187 106.264 124.211 103.16 122.035 99.192C119.923 95.16 118.867 90.584 118.867 85.464C118.867 80.28 119.955 75.704 122.131 71.736C124.307 67.768 127.315 64.664 131.155 62.424C135.059 60.12 139.539 58.968 144.595 58.968C147.475 58.968 150.131 59.352 152.563 60.12C154.995 60.824 157.107 61.816 158.899 63.096C160.755 64.376 162.259 65.784 163.411 67.32C164.627 68.856 165.427 70.456 165.811 72.12H162.451V60.024H177.619V111H162.163V97.944L165.427 98.424C165.043 100.088 164.243 101.72 163.027 103.32C161.811 104.92 160.243 106.36 158.323 107.64C156.403 108.92 154.227 109.944 151.795 110.712C149.427 111.48 146.899 111.864 144.211 111.864ZM148.339 98.904C151.219 98.904 153.715 98.36 155.827 97.272C158.003 96.184 159.667 94.648 160.819 92.664C162.035 90.616 162.643 88.216 162.643 85.464C162.643 82.776 162.035 80.44 160.819 78.456C159.667 76.408 158.003 74.808 155.827 73.656C153.715 72.504 151.219 71.928 148.339 71.928C145.459 71.928 142.963 72.504 140.851 73.656C138.739 74.808 137.075 76.408 135.859 78.456C134.707 80.44 134.131 82.776 134.131 85.464C134.131 88.216 134.707 90.616 135.859 92.664C137.075 94.648 138.739 96.184 140.851 97.272C142.963 98.36 145.459 98.904 148.339 98.904ZM201.315 111V60.024H215.907L216.579 77.592L212.931 75.768C213.763 72.632 215.203 69.816 217.251 67.32C219.363 64.76 221.763 62.744 224.451 61.272C227.203 59.736 230.115 58.968 233.187 58.968C234.851 58.968 236.419 59.128 237.891 59.448C239.427 59.768 240.739 60.184 241.827 60.696L237.603 77.496C236.643 76.792 235.331 76.248 233.667 75.864C232.067 75.48 230.435 75.288 228.771 75.288C226.915 75.288 225.219 75.608 223.683 76.248C222.211 76.824 220.963 77.656 219.939 78.744C218.915 79.768 218.115 80.952 217.539 82.296C217.027 83.64 216.771 85.08 216.771 86.616V111H201.315ZM265.932 111V46.008H281.292V111H265.932ZM254.604 73.464V60.024H294.252V73.464H254.604ZM377.032 111V53.304H387.112L357.544 88.248L355.624 83.736H405.256V96.984H349.48L343.048 84.6L378.856 43.224H392.776V111H377.032Z" fill="white"/>
<rect id="Rectangle 7" y="462" width="1567" height="626" fill="#211F2F"/>
<g id="Group 4">
<g id="Vector" filter="url(#filter0_d_147_324)">
<path d="M264.246 696.996C269.515 673.672 302.714 673.672 307.983 696.996L316.541 734.874C319.712 748.912 309.05 762.267 294.672 762.267H277.557C263.179 762.267 252.517 748.912 255.688 734.874L264.246 696.996Z" fill="#3B5EC6"/>
<path d="M309.816 646.046C309.816 659.326 299.061 670.092 285.794 670.092C272.527 670.092 261.772 659.326 261.772 646.046C261.772 632.766 272.527 622 285.794 622C299.061 622 309.816 632.766 309.816 646.046Z" fill="#3B5EC6"/>
<path d="M290.599 750.565C290.599 744.013 295.904 738.702 302.45 738.702C308.995 738.702 314.3 744.013 314.3 750.565V778.137C314.3 784.689 308.995 790 302.45 790C295.904 790 290.599 784.689 290.599 778.137V750.565Z" fill="#3B5EC6"/>
<path d="M299.867 704.609C296.517 698.981 298.36 691.7 303.982 688.347C309.605 684.993 316.879 686.837 320.229 692.466L334.328 716.153C337.678 721.781 335.836 729.062 330.213 732.415C324.59 735.769 317.316 733.925 313.966 728.296L299.867 704.609Z" fill="#3B5EC6"/>
<path d="M251.362 692.548C254.635 686.874 261.883 684.93 267.551 688.206C273.219 691.482 275.161 698.737 271.889 704.411L258.116 728.289C254.844 733.963 247.596 735.907 241.927 732.631C236.259 729.355 234.317 722.1 237.59 716.427L251.362 692.548Z" fill="#3B5EC6"/>
<path d="M257.288 750.565C257.288 744.013 262.594 738.702 269.139 738.702C275.684 738.702 280.99 744.013 280.99 750.565V778.137C280.99 784.689 275.684 790 269.139 790C262.594 790 257.288 784.689 257.288 778.137V750.565Z" fill="#3B5EC6"/>
</g>
<g id="Vector_2" filter="url(#filter1_d_147_324)">
<path d="M498.528 696.996C503.85 673.672 537.381 673.672 542.703 696.996L551.346 734.874C554.549 748.912 543.78 762.267 529.259 762.267H511.972C497.451 762.267 486.682 748.912 489.885 734.874L498.528 696.996Z" fill="#3B5EC6"/>
<path d="M544.555 646.046C544.555 659.326 533.692 670.092 520.292 670.092C506.892 670.092 496.03 659.326 496.03 646.046C496.03 632.766 506.892 622 520.292 622C533.692 622 544.555 632.766 544.555 646.046Z" fill="#3B5EC6"/>
<path d="M525.145 750.565C525.145 744.013 530.504 738.702 537.114 738.702C543.725 738.702 549.083 744.013 549.083 750.565V778.137C549.083 784.689 543.725 790 537.114 790C530.504 790 525.145 784.689 525.145 778.137V750.565Z" fill="#3B5EC6"/>
<path d="M534.506 704.609C531.123 698.981 532.983 691.7 538.662 688.347C544.341 684.993 551.688 686.837 555.071 692.466L569.311 716.153C572.695 721.781 570.834 729.062 565.155 732.415C559.476 735.769 552.13 733.925 548.746 728.296L534.506 704.609Z" fill="#3B5EC6"/>
<path d="M485.516 692.548C488.821 686.874 496.142 684.93 501.867 688.206C507.591 691.482 509.553 698.737 506.248 704.411L492.337 728.289C489.032 733.963 481.712 735.907 475.987 732.631C470.262 729.355 468.3 722.1 471.606 716.427L485.516 692.548Z" fill="#3B5EC6"/>
<path d="M491.501 750.565C491.501 744.013 496.86 738.702 503.47 738.702C510.081 738.702 515.44 744.013 515.44 750.565V778.137C515.44 784.689 510.081 790 503.47 790C496.86 790 491.501 784.689 491.501 778.137V750.565Z" fill="#3B5EC6"/>
</g>
<g id="Vector_3" filter="url(#filter2_d_147_324)">
<path d="M381.528 696.996C386.85 673.672 420.381 673.672 425.703 696.996L434.346 734.874C437.549 748.912 426.78 762.267 412.259 762.267H394.972C380.451 762.267 369.682 748.912 372.885 734.874L381.528 696.996Z" fill="#3B5EC6"/>
<path d="M427.555 646.046C427.555 659.326 416.692 670.092 403.292 670.092C389.892 670.092 379.03 659.326 379.03 646.046C379.03 632.766 389.892 622 403.292 622C416.692 622 427.555 632.766 427.555 646.046Z" fill="#3B5EC6"/>
<path d="M408.145 750.565C408.145 744.013 413.504 738.702 420.114 738.702C426.725 738.702 432.083 744.013 432.083 750.565V778.137C432.083 784.689 426.725 790 420.114 790C413.504 790 408.145 784.689 408.145 778.137V750.565Z" fill="#3B5EC6"/>
<path d="M417.506 704.609C414.123 698.981 415.983 691.7 421.662 688.347C427.341 684.993 434.688 686.837 438.071 692.466L452.311 716.153C455.695 721.781 453.834 729.062 448.155 732.415C442.476 735.769 435.13 733.925 431.746 728.296L417.506 704.609Z" fill="#3B5EC6"/>
<path d="M368.516 692.548C371.821 686.874 379.142 684.93 384.867 688.206C390.591 691.482 392.553 698.737 389.248 704.411L375.337 728.289C372.032 733.963 364.712 735.907 358.987 732.631C353.262 729.355 351.3 722.1 354.606 716.427L368.516 692.548Z" fill="#3B5EC6"/>
<path d="M374.501 750.565C374.501 744.013 379.86 738.702 386.47 738.702C393.081 738.702 398.44 744.013 398.44 750.565V778.137C398.44 784.689 393.081 790 386.47 790C379.86 790 374.501 784.689 374.501 778.137V750.565Z" fill="#3B5EC6"/>
</g>
<g id="Vector_4" filter="url(#filter3_d_147_324)">
<path d="M616.246 696.996C621.515 673.672 654.714 673.672 659.983 696.996L668.541 734.874C671.712 748.912 661.05 762.267 646.672 762.267H629.557C615.179 762.267 604.517 748.912 607.688 734.874L616.246 696.996Z" fill="#3B5EC6"/>
<path d="M661.816 646.046C661.816 659.326 651.061 670.092 637.794 670.092C624.527 670.092 613.772 659.326 613.772 646.046C613.772 632.766 624.527 622 637.794 622C651.061 622 661.816 632.766 661.816 646.046Z" fill="#3B5EC6"/>
<path d="M642.599 750.565C642.599 744.013 647.904 738.702 654.45 738.702C660.995 738.702 666.3 744.013 666.3 750.565V778.137C666.3 784.689 660.995 790 654.45 790C647.904 790 642.599 784.689 642.599 778.137V750.565Z" fill="#3B5EC6"/>
<path d="M651.867 704.609C648.517 698.981 650.36 691.7 655.982 688.347C661.605 684.993 668.879 686.837 672.229 692.466L686.328 716.153C689.678 721.781 687.836 729.062 682.213 732.415C676.59 735.769 669.316 733.925 665.966 728.296L651.867 704.609Z" fill="#3B5EC6"/>
<path d="M603.362 692.548C606.635 686.874 613.883 684.93 619.551 688.206C625.219 691.482 627.161 698.737 623.889 704.411L610.116 728.289C606.844 733.963 599.596 735.907 593.927 732.631C588.259 729.355 586.317 722.1 589.59 716.427L603.362 692.548Z" fill="#3B5EC6"/>
<path d="M609.288 750.565C609.288 744.013 614.594 738.702 621.139 738.702C627.684 738.702 632.99 744.013 632.99 750.565V778.137C632.99 784.689 627.684 790 621.139 790C614.594 790 609.288 784.689 609.288 778.137V750.565Z" fill="#3B5EC6"/>
</g>
<g id="Vector_5" filter="url(#filter4_d_147_324)">
<path d="M163.33 733.388C169.548 705.899 208.722 705.899 214.94 733.388L225.038 778.03C228.78 794.575 216.199 810.315 199.233 810.315H179.037C162.071 810.315 149.49 794.575 153.232 778.03L163.33 733.388Z" fill="#6A94E0"/>
<path d="M217.103 673.34C217.103 688.991 204.412 701.679 188.757 701.679C173.102 701.679 160.411 688.991 160.411 673.34C160.411 657.688 173.102 645 188.757 645C204.412 645 217.103 657.688 217.103 673.34Z" fill="#6A94E0"/>
<path d="M194.426 796.523C194.426 788.801 200.687 782.542 208.41 782.542C216.134 782.542 222.395 788.801 222.395 796.523V829.019C222.395 836.741 216.134 843 208.41 843C200.687 843 194.426 836.741 194.426 829.019V796.523Z" fill="#6A94E0"/>
<path d="M205.364 742.361C201.41 735.728 203.584 727.146 210.219 723.194C216.854 719.242 225.437 721.416 229.39 728.049L246.027 755.966C249.98 762.599 247.806 771.18 241.171 775.132C234.537 779.085 225.953 776.911 222 770.278L205.364 742.361Z" fill="#6A94E0"/>
<path d="M148.128 728.146C151.989 721.459 160.542 719.168 167.23 723.029C173.919 726.889 176.21 735.44 172.349 742.127L156.097 770.269C152.235 776.956 143.683 779.248 136.994 775.387C130.306 771.526 128.014 762.975 131.876 756.289L148.128 728.146Z" fill="#6A94E0"/>
<path d="M155.12 796.523C155.12 788.801 161.381 782.542 169.104 782.542C176.827 782.542 183.088 788.801 183.088 796.523V829.019C183.088 836.741 176.827 843 169.104 843C161.381 843 155.12 836.741 155.12 829.019V796.523Z" fill="#6A94E0"/>
</g>
<g id="Vector_6" filter="url(#filter5_d_147_324)">
<path d="M439.33 733.388C445.548 705.899 484.722 705.899 490.94 733.388L501.038 778.03C504.78 794.575 492.199 810.315 475.233 810.315H455.037C438.071 810.315 425.49 794.575 429.232 778.03L439.33 733.388Z" fill="#6A94E0"/>
<path d="M493.103 673.34C493.103 688.991 480.412 701.679 464.757 701.679C449.102 701.679 436.411 688.991 436.411 673.34C436.411 657.688 449.102 645 464.757 645C480.412 645 493.103 657.688 493.103 673.34Z" fill="#6A94E0"/>
<path d="M470.426 796.523C470.426 788.801 476.687 782.542 484.41 782.542C492.134 782.542 498.395 788.801 498.395 796.523V829.019C498.395 836.741 492.134 843 484.41 843C476.687 843 470.426 836.741 470.426 829.019V796.523Z" fill="#6A94E0"/>
<path d="M481.364 742.361C477.41 735.728 479.584 727.146 486.219 723.194C492.854 719.242 501.437 721.416 505.39 728.049L522.027 755.966C525.98 762.599 523.806 771.18 517.171 775.132C510.537 779.085 501.953 776.911 498 770.278L481.364 742.361Z" fill="#6A94E0"/>
<path d="M424.128 728.146C427.989 721.459 436.542 719.168 443.23 723.029C449.919 726.889 452.21 735.44 448.349 742.127L432.097 770.269C428.235 776.956 419.683 779.248 412.994 775.387C406.306 771.526 404.014 762.975 407.876 756.289L424.128 728.146Z" fill="#6A94E0"/>
<path d="M431.12 796.523C431.12 788.801 437.381 782.542 445.104 782.542C452.827 782.542 459.088 788.801 459.088 796.523V829.019C459.088 836.741 452.827 843 445.104 843C437.381 843 431.12 836.741 431.12 829.019V796.523Z" fill="#6A94E0"/>
</g>
<g id="Vector_7" filter="url(#filter6_d_147_324)">
<path d="M301.33 733.388C307.548 705.899 346.722 705.899 352.94 733.388L363.038 778.03C366.78 794.575 354.199 810.315 337.233 810.315H317.037C300.071 810.315 287.49 794.575 291.232 778.03L301.33 733.388Z" fill="#6A94E0"/>
<path d="M355.103 673.34C355.103 688.991 342.412 701.679 326.757 701.679C311.102 701.679 298.411 688.991 298.411 673.34C298.411 657.688 311.102 645 326.757 645C342.412 645 355.103 657.688 355.103 673.34Z" fill="#6A94E0"/>
<path d="M332.426 796.523C332.426 788.801 338.687 782.542 346.41 782.542C354.134 782.542 360.395 788.801 360.395 796.523V829.019C360.395 836.741 354.134 843 346.41 843C338.687 843 332.426 836.741 332.426 829.019V796.523Z" fill="#6A94E0"/>
<path d="M343.364 742.361C339.41 735.728 341.584 727.146 348.219 723.194C354.854 719.242 363.437 721.416 367.39 728.049L384.027 755.966C387.98 762.599 385.806 771.18 379.171 775.132C372.537 779.085 363.953 776.911 360 770.278L343.364 742.361Z" fill="#6A94E0"/>
<path d="M286.128 728.146C289.989 721.459 298.542 719.168 305.23 723.029C311.919 726.889 314.21 735.44 310.349 742.127L294.097 770.269C290.235 776.956 281.683 779.248 274.994 775.387C268.306 771.526 266.014 762.975 269.876 756.289L286.128 728.146Z" fill="#6A94E0"/>
<path d="M293.12 796.523C293.12 788.801 299.381 782.542 307.104 782.542C314.827 782.542 321.088 788.801 321.088 796.523V829.019C321.088 836.741 314.827 843 307.104 843C299.381 843 293.12 836.741 293.12 829.019V796.523Z" fill="#6A94E0"/>
</g>
<g id="Vector_8" filter="url(#filter7_d_147_324)">
<path d="M359.33 779.388C365.548 751.899 404.722 751.899 410.94 779.388L421.038 824.03C424.78 840.575 412.199 856.315 395.233 856.315H375.037C358.071 856.315 345.49 840.575 349.232 824.03L359.33 779.388Z" fill="#8DBBFB"/>
<path d="M413.103 719.34C413.103 734.991 400.412 747.679 384.757 747.679C369.102 747.679 356.411 734.991 356.411 719.34C356.411 703.688 369.102 691 384.757 691C400.412 691 413.103 703.688 413.103 719.34Z" fill="#8DBBFB"/>
<path d="M390.426 842.523C390.426 834.801 396.687 828.542 404.41 828.542C412.134 828.542 418.395 834.801 418.395 842.523V875.019C418.395 882.741 412.134 889 404.41 889C396.687 889 390.426 882.741 390.426 875.019V842.523Z" fill="#8DBBFB"/>
<path d="M401.364 788.361C397.41 781.728 399.584 773.146 406.219 769.194C412.854 765.242 421.437 767.416 425.39 774.049L442.027 801.966C445.98 808.599 443.806 817.18 437.171 821.132C430.537 825.085 421.953 822.911 418 816.278L401.364 788.361Z" fill="#8DBBFB"/>
<path d="M344.128 774.146C347.989 767.459 356.542 765.168 363.23 769.029C369.919 772.889 372.21 781.44 368.349 788.127L352.097 816.269C348.235 822.956 339.683 825.248 332.994 821.387C326.306 817.526 324.014 808.975 327.876 802.289L344.128 774.146Z" fill="#8DBBFB"/>
<path d="M351.12 842.523C351.12 834.801 357.381 828.542 365.104 828.542C372.827 828.542 379.088 834.801 379.088 842.523V875.019C379.088 882.741 372.827 889 365.104 889C357.381 889 351.12 882.741 351.12 875.019V842.523Z" fill="#8DBBFB"/>
</g>
<g id="Vector_9" filter="url(#filter8_d_147_324)">
<path d="M577.33 733.388C583.548 705.899 622.722 705.899 628.94 733.388L639.038 778.03C642.78 794.575 630.199 810.315 613.233 810.315H593.037C576.071 810.315 563.49 794.575 567.232 778.03L577.33 733.388Z" fill="#6A94E0"/>
<path d="M631.103 673.34C631.103 688.991 618.412 701.679 602.757 701.679C587.102 701.679 574.411 688.991 574.411 673.34C574.411 657.688 587.102 645 602.757 645C618.412 645 631.103 657.688 631.103 673.34Z" fill="#6A94E0"/>
<path d="M608.426 796.523C608.426 788.801 614.687 782.542 622.41 782.542C630.134 782.542 636.395 788.801 636.395 796.523V829.019C636.395 836.741 630.134 843 622.41 843C614.687 843 608.426 836.741 608.426 829.019V796.523Z" fill="#6A94E0"/>
<path d="M619.364 742.361C615.41 735.728 617.584 727.146 624.219 723.194C630.854 719.242 639.437 721.416 643.39 728.049L660.027 755.966C663.98 762.599 661.806 771.18 655.171 775.132C648.537 779.085 639.953 776.911 636 770.278L619.364 742.361Z" fill="#6A94E0"/>
<path d="M562.128 728.146C565.989 721.459 574.542 719.168 581.23 723.029C587.919 726.889 590.21 735.44 586.349 742.127L570.097 770.269C566.235 776.956 557.683 779.248 550.994 775.387C544.306 771.526 542.014 762.975 545.876 756.289L562.128 728.146Z" fill="#6A94E0"/>
<path d="M569.12 796.523C569.12 788.801 575.381 782.542 583.104 782.542C590.827 782.542 597.088 788.801 597.088 796.523V829.019C597.088 836.741 590.827 843 583.104 843C575.381 843 569.12 836.741 569.12 829.019V796.523Z" fill="#6A94E0"/>
</g>
<g id="Vector_10" filter="url(#filter9_d_147_324)">
<path d="M221.33 779.388C227.548 751.899 266.722 751.899 272.94 779.388L283.038 824.03C286.78 840.575 274.199 856.315 257.233 856.315H237.037C220.071 856.315 207.49 840.575 211.232 824.03L221.33 779.388Z" fill="#8DBBFB"/>
<path d="M275.103 719.34C275.103 734.991 262.412 747.679 246.757 747.679C231.102 747.679 218.411 734.991 218.411 719.34C218.411 703.688 231.102 691 246.757 691C262.412 691 275.103 703.688 275.103 719.34Z" fill="#8DBBFB"/>
<path d="M252.426 842.523C252.426 834.801 258.687 828.542 266.41 828.542C274.134 828.542 280.395 834.801 280.395 842.523V875.019C280.395 882.741 274.134 889 266.41 889C258.687 889 252.426 882.741 252.426 875.019V842.523Z" fill="#8DBBFB"/>
<path d="M263.364 788.361C259.41 781.728 261.584 773.146 268.219 769.194C274.854 765.242 283.437 767.416 287.39 774.049L304.027 801.966C307.98 808.599 305.806 817.18 299.171 821.132C292.537 825.085 283.953 822.911 280 816.278L263.364 788.361Z" fill="#8DBBFB"/>
<path d="M206.128 774.146C209.989 767.459 218.542 765.168 225.23 769.029C231.919 772.889 234.21 781.44 230.349 788.127L214.097 816.269C210.235 822.956 201.683 825.248 194.994 821.387C188.306 817.526 186.014 808.975 189.876 802.289L206.128 774.146Z" fill="#8DBBFB"/>
<path d="M213.12 842.523C213.12 834.801 219.381 828.542 227.104 828.542C234.827 828.542 241.088 834.801 241.088 842.523V875.019C241.088 882.741 234.827 889 227.104 889C219.381 889 213.12 882.741 213.12 875.019V842.523Z" fill="#8DBBFB"/>
</g>
<g id="Vector_11" filter="url(#filter10_d_147_324)">
<path d="M497.33 779.388C503.548 751.899 542.722 751.899 548.94 779.388L559.038 824.03C562.78 840.575 550.199 856.315 533.233 856.315H513.037C496.071 856.315 483.49 840.575 487.232 824.03L497.33 779.388Z" fill="#8DBBFB"/>
<path d="M551.103 719.34C551.103 734.991 538.412 747.679 522.757 747.679C507.102 747.679 494.411 734.991 494.411 719.34C494.411 703.688 507.102 691 522.757 691C538.412 691 551.103 703.688 551.103 719.34Z" fill="#8DBBFB"/>
<path d="M528.426 842.523C528.426 834.801 534.687 828.542 542.41 828.542C550.134 828.542 556.395 834.801 556.395 842.523V875.019C556.395 882.741 550.134 889 542.41 889C534.687 889 528.426 882.741 528.426 875.019V842.523Z" fill="#8DBBFB"/>
<path d="M539.364 788.361C535.41 781.728 537.584 773.146 544.219 769.194C550.854 765.242 559.437 767.416 563.39 774.049L580.027 801.966C583.98 808.599 581.806 817.18 575.171 821.132C568.537 825.085 559.953 822.911 556 816.278L539.364 788.361Z" fill="#8DBBFB"/>
<path d="M482.128 774.146C485.989 767.459 494.542 765.168 501.23 769.029C507.919 772.889 510.21 781.44 506.349 788.127L490.097 816.269C486.235 822.956 477.683 825.248 470.994 821.387C464.306 817.526 462.014 808.975 465.876 802.289L482.128 774.146Z" fill="#8DBBFB"/>
<path d="M489.12 842.523C489.12 834.801 495.381 828.542 503.104 828.542C510.827 828.542 517.088 834.801 517.088 842.523V875.019C517.088 882.741 510.827 889 503.104 889C495.381 889 489.12 882.741 489.12 875.019V842.523Z" fill="#8DBBFB"/>
</g>
<g id="Vector_12" filter="url(#filter11_d_147_324)">
<path d="M635.33 779.388C641.548 751.899 680.722 751.899 686.94 779.388L697.038 824.03C700.78 840.575 688.199 856.315 671.233 856.315H651.037C634.071 856.315 621.49 840.575 625.232 824.03L635.33 779.388Z" fill="#8DBBFB"/>
<path d="M689.103 719.34C689.103 734.991 676.412 747.679 660.757 747.679C645.102 747.679 632.411 734.991 632.411 719.34C632.411 703.688 645.102 691 660.757 691C676.412 691 689.103 703.688 689.103 719.34Z" fill="#8DBBFB"/>
<path d="M666.426 842.523C666.426 834.801 672.687 828.542 680.41 828.542C688.134 828.542 694.395 834.801 694.395 842.523V875.019C694.395 882.741 688.134 889 680.41 889C672.687 889 666.426 882.741 666.426 875.019V842.523Z" fill="#8DBBFB"/>
<path d="M677.364 788.361C673.41 781.728 675.584 773.146 682.219 769.194C688.854 765.242 697.437 767.416 701.39 774.049L718.027 801.966C721.98 808.599 719.806 817.18 713.171 821.132C706.537 825.085 697.953 822.911 694 816.278L677.364 788.361Z" fill="#8DBBFB"/>
<path d="M620.128 774.146C623.989 767.459 632.542 765.168 639.23 769.029C645.919 772.889 648.21 781.44 644.349 788.127L628.097 816.269C624.235 822.956 615.683 825.248 608.994 821.387C602.306 817.526 600.014 808.975 603.876 802.289L620.128 774.146Z" fill="#8DBBFB"/>
<path d="M627.12 842.523C627.12 834.801 633.381 828.542 641.104 828.542C648.827 828.542 655.088 834.801 655.088 842.523V875.019C655.088 882.741 648.827 889 641.104 889C633.381 889 627.12 882.741 627.12 875.019V842.523Z" fill="#8DBBFB"/>
</g>
</g>
<g id="Group 30">
<path id="Star 2" d="M1025.29 249.916C1019.48 233.956 1034.96 218.483 1050.92 224.286L1102.45 243.023C1106.86 244.628 1111.7 244.628 1116.12 243.023L1167.65 224.286C1183.61 218.482 1199.08 233.956 1193.28 249.916L1174.54 301.449C1172.94 305.864 1172.94 310.703 1174.54 315.118L1193.28 366.65C1199.08 382.611 1183.61 398.084 1167.65 392.281L1116.12 373.543C1111.7 371.938 1106.86 371.938 1102.45 373.543L1050.92 392.281C1034.96 398.084 1019.48 382.611 1025.29 366.65L1044.02 315.118C1045.63 310.703 1045.63 305.864 1044.02 301.449L1025.29 249.916Z" fill="#485C77"/>
<path id="Vector 27" d="M829 -28L1035.98 330.5H1182L1388.98 -28H829Z" fill="#485C77"/>
<path id="Polygon 7" d="M1140.18 262C1126.32 286 1091.68 286 1077.82 262L986.89 104.5C973.034 80.4999 990.355 50.5 1018.07 50.5L1199.93 50.5C1227.65 50.5 1244.97 80.5 1231.11 104.5L1140.18 262Z" fill="#EC5F46"/>
</g>
<path id="uh oh..." d="M358.767 584.704C356.037 584.704 353.669 584.107 351.663 582.912C349.701 581.717 348.186 579.989 347.119 577.728C346.053 575.424 345.519 572.672 345.519 569.472V550.016H355.759V567.808C355.759 569.557 355.994 571.029 356.463 572.224C356.975 573.419 357.765 574.336 358.831 574.976C359.898 575.573 361.199 575.872 362.735 575.872C363.845 575.872 364.869 575.701 365.807 575.36C366.746 574.976 367.578 574.464 368.303 573.824C369.029 573.141 369.583 572.373 369.967 571.52C370.394 570.624 370.607 569.621 370.607 568.512V550.016H380.847V584H371.247L370.799 577.024L372.655 576.256C372.186 577.749 371.29 579.136 369.967 580.416C368.645 581.696 367.023 582.741 365.103 583.552C363.226 584.32 361.114 584.704 358.767 584.704ZM396.783 584V536.64H406.831V557.952L404.399 558.784C404.825 557.077 405.721 555.52 407.087 554.112C408.495 552.661 410.201 551.509 412.207 550.656C414.212 549.76 416.345 549.312 418.607 549.312C421.508 549.312 423.94 549.909 425.903 551.104C427.908 552.256 429.401 553.899 430.383 556.032C431.407 558.123 431.919 560.576 431.919 563.392V584H421.615V564.992C421.615 563.456 421.337 562.176 420.783 561.152C420.271 560.085 419.481 559.275 418.415 558.72C417.391 558.165 416.196 557.909 414.831 557.952C413.721 557.952 412.676 558.144 411.695 558.528C410.756 558.869 409.924 559.381 409.199 560.064C408.516 560.704 407.983 561.451 407.599 562.304C407.215 563.157 407.023 564.075 407.023 565.056V584H401.967C400.559 584 399.428 584 398.575 584C397.721 584 397.124 584 396.783 584ZM490.369 584.64C486.401 584.64 482.881 583.872 479.809 582.336C476.737 580.8 474.327 578.709 472.577 576.064C470.828 573.419 469.953 570.389 469.953 566.976C469.953 563.563 470.828 560.533 472.577 557.888C474.327 555.243 476.737 553.152 479.809 551.616C482.881 550.08 486.401 549.312 490.369 549.312C494.295 549.312 497.772 550.08 500.801 551.616C503.873 553.152 506.284 555.243 508.033 557.888C509.783 560.533 510.657 563.563 510.657 566.976C510.657 570.389 509.783 573.419 508.033 576.064C506.284 578.709 503.873 580.8 500.801 582.336C497.772 583.872 494.295 584.64 490.369 584.64ZM490.369 575.808C492.204 575.808 493.868 575.424 495.361 574.656C496.897 573.888 498.092 572.843 498.945 571.52C499.841 570.197 500.268 568.683 500.225 566.976C500.268 565.269 499.841 563.733 498.945 562.368C498.092 561.003 496.897 559.957 495.361 559.232C493.868 558.464 492.204 558.08 490.369 558.08C488.492 558.08 486.764 558.464 485.185 559.232C483.649 560 482.455 561.045 481.601 562.368C480.748 563.691 480.321 565.227 480.321 566.976C480.321 568.683 480.748 570.197 481.601 571.52C482.455 572.843 483.649 573.888 485.185 574.656C486.764 575.424 488.492 575.808 490.369 575.808ZM523.345 584V536.64H533.393V557.952L530.961 558.784C531.388 557.077 532.284 555.52 533.649 554.112C535.057 552.661 536.764 551.509 538.769 550.656C540.775 549.76 542.908 549.312 545.169 549.312C548.071 549.312 550.503 549.909 552.465 551.104C554.471 552.256 555.964 553.899 556.945 556.032C557.969 558.123 558.481 560.576 558.481 563.392V584H548.177V564.992C548.177 563.456 547.9 562.176 547.345 561.152C546.833 560.085 546.044 559.275 544.977 558.72C543.953 558.165 542.759 557.909 541.393 557.952C540.284 557.952 539.239 558.144 538.257 558.528C537.319 558.869 536.487 559.381 535.761 560.064C535.079 560.704 534.545 561.451 534.161 562.304C533.777 563.157 533.585 564.075 533.585 565.056V584H528.529C527.121 584 525.991 584 525.137 584C524.284 584 523.687 584 523.345 584ZM578.382 584.704C576.291 584.704 574.691 584.213 573.582 583.232C572.515 582.208 571.982 580.8 571.982 579.008C571.982 577.387 572.536 576.021 573.646 574.912C574.798 573.803 576.376 573.248 578.382 573.248C580.472 573.248 582.072 573.76 583.182 574.784C584.291 575.808 584.846 577.216 584.846 579.008C584.846 580.587 584.27 581.931 583.118 583.04C582.008 584.149 580.43 584.704 578.382 584.704ZM603.007 584.704C600.916 584.704 599.316 584.213 598.207 583.232C597.14 582.208 596.607 580.8 596.607 579.008C596.607 577.387 597.161 576.021 598.271 574.912C599.423 573.803 601.001 573.248 603.007 573.248C605.097 573.248 606.697 573.76 607.807 574.784C608.916 575.808 609.471 577.216 609.471 579.008C609.471 580.587 608.895 581.931 607.743 583.04C606.633 584.149 605.055 584.704 603.007 584.704ZM627.632 584.704C625.541 584.704 623.941 584.213 622.832 583.232C621.765 582.208 621.232 580.8 621.232 579.008C621.232 577.387 621.786 576.021 622.896 574.912C624.048 573.803 625.626 573.248 627.632 573.248C629.722 573.248 631.322 573.76 632.432 574.784C633.541 575.808 634.096 577.216 634.096 579.008C634.096 580.587 633.52 581.931 632.368 583.04C631.258 584.149 629.68 584.704 627.632 584.704Z" fill="white"/>
<g id="next">
<g id="Next">
<path id="Next_2" d="M1091.81 885V840.2H1101.79L1128.86 872.2L1127.01 871.88C1126.75 870.387 1126.56 868.957 1126.43 867.592C1126.3 866.227 1126.18 864.904 1126.05 863.624C1125.96 862.344 1125.88 861.064 1125.79 859.784C1125.75 858.504 1125.73 857.16 1125.73 855.752C1125.73 854.344 1125.73 852.851 1125.73 851.272V840.2H1136.29V885H1126.18L1098.08 851.976L1101.09 852.424C1101.22 853.917 1101.34 855.261 1101.47 856.456C1101.64 857.651 1101.77 858.781 1101.86 859.848C1101.98 860.872 1102.07 861.917 1102.11 862.984C1102.2 864.008 1102.26 865.096 1102.3 866.248C1102.35 867.4 1102.37 868.659 1102.37 870.024V885H1091.81ZM1168.89 885.64C1164.76 885.64 1161.13 884.893 1158.01 883.4C1154.94 881.864 1152.55 879.795 1150.85 877.192C1149.14 874.547 1148.29 871.539 1148.29 868.168C1148.29 865.48 1148.78 863.048 1149.76 860.872C1150.74 858.696 1152.11 856.819 1153.85 855.24C1155.6 853.661 1157.65 852.445 1160 851.592C1162.35 850.739 1164.88 850.312 1167.61 850.312C1170.26 850.312 1172.69 850.739 1174.91 851.592C1177.13 852.403 1179.05 853.576 1180.67 855.112C1182.33 856.648 1183.61 858.461 1184.51 860.552C1185.41 862.643 1185.81 864.947 1185.73 867.464L1185.66 870.344H1155.01L1153.53 864.392H1177.34L1176.25 865.672V864.392C1176.13 863.325 1175.66 862.365 1174.85 861.512C1174.08 860.659 1173.08 859.997 1171.84 859.528C1170.6 859.016 1169.24 858.76 1167.74 858.76C1165.82 858.76 1164.12 859.08 1162.62 859.72C1161.13 860.317 1159.96 861.256 1159.1 862.536C1158.29 863.816 1157.89 865.437 1157.89 867.4C1157.89 869.277 1158.38 870.92 1159.36 872.328C1160.38 873.736 1161.81 874.845 1163.65 875.656C1165.52 876.467 1167.72 876.872 1170.24 876.872C1172.41 876.872 1174.23 876.616 1175.68 876.104C1177.17 875.549 1178.52 874.867 1179.71 874.056L1184.32 880.712C1182.91 881.779 1181.35 882.696 1179.65 883.464C1177.98 884.189 1176.23 884.723 1174.4 885.064C1172.61 885.448 1170.77 885.64 1168.89 885.64ZM1222.57 885L1213.16 872.776L1210.54 869.32L1195.63 851.016H1208.56L1217 862.216L1219.82 865.928L1235.37 885H1222.57ZM1194.8 885L1210.03 865.8L1216.24 872.136L1207.53 885H1194.8ZM1219.76 870.216L1213.74 863.816L1222.32 851.016H1234.99L1219.76 870.216ZM1251.39 885V841.672H1261.63V885H1251.39ZM1243.84 859.976V851.016H1270.27V859.976H1243.84Z" fill="white"/>
</g>
<path id="Arrow 1" d="M1085 889.5C1080.31 889.5 1076.5 893.306 1076.5 898C1076.5 902.694 1080.31 906.5 1085 906.5V898V889.5ZM1362 898L1277 848.925V947.075L1362 898ZM1085 898V906.5H1285.5V898V889.5H1085V898Z" fill="#EF1044"/>
</g>
<g id="Group 12">
<path id="Vector 13" d="M1109 653.759L1148.24 510.037L1184.35 567.333L1210.11 480.907L1242.61 542.537L1291.96 472L1344.69 542.537L1363.7 510.037L1398.61 556.019L1413.06 528.093L1419.8 628L1382 661.944L1332.65 648.944H1315.31H1287.39L1256.09 669.648L1234.19 653.759L1213.24 661.944H1202.89L1195.91 673.5L1167.98 680L1148.24 669.648L1121.28 661.944L1109 653.759Z" fill="#EC5F46"/>
<path id="Vector 14" d="M1149.44 543.981L1127.06 662.185L1131.87 666.759L1151.13 670.37H1198.31L1207.22 658.333L1238.04 655.926L1300.63 649.185H1311.7L1323.5 643.648L1349.98 654H1395.48L1414.74 623.907L1406.07 575.278L1372.85 543.981L1346.37 575.278L1291.96 531.704C1281.37 547.432 1260.19 579.611 1260.19 582.5C1260.19 585.389 1228.41 545.346 1212.52 524.963L1190.85 611.389L1149.44 543.981Z" fill="#FD9D49"/>
</g>
<g id="Group 13">
<path id="Vector 13_2" d="M757 816.759L796.241 673.037L832.352 730.333L858.111 643.907L890.611 705.537L939.963 635L992.685 705.537L1011.7 673.037L1046.61 719.019L1061.06 691.093L1067.8 791L1030 824.944L980.648 811.944H963.315H935.389L904.093 832.648L882.185 816.759L861.241 824.944H850.889L843.907 836.5L815.981 843L796.241 832.648L769.278 824.944L757 816.759Z" fill="#EC5F46"/>
<path id="Vector 14_2" d="M797.445 706.981L775.056 825.185L779.87 829.759L799.13 833.37H846.315L855.222 821.333L886.037 818.926L948.63 812.185H959.704L971.5 806.648L997.982 817H1043.48L1062.74 786.907L1054.07 738.278L1020.85 706.981L994.37 738.278L939.963 694.704C929.37 710.432 908.185 742.611 908.185 745.5C908.185 748.389 876.408 708.346 860.519 687.963L838.852 774.389L797.445 706.981Z" fill="#FD9D49"/>
</g>
<g id="Group 14">
<path id="Vector 13_3" d="M33 512.759L72.2407 369.037L108.352 426.333L134.111 339.907L166.611 401.537L215.963 331L268.685 401.537L287.704 369.037L322.611 415.019L337.056 387.093L343.796 487L306 520.944L256.648 507.944H239.315H211.389L180.093 528.648L158.185 512.759L137.241 520.944H126.889L119.907 532.5L91.9815 539L72.2407 528.648L45.2778 520.944L33 512.759Z" fill="#EC5F46"/>
<path id="Vector 14_3" d="M73.4446 402.981L51.0557 521.185L55.8705 525.759L75.1297 529.37H122.315L131.222 517.333L162.037 514.926L224.63 508.185H235.704L247.5 502.648L273.982 513H319.482L338.741 482.907L330.074 434.278L296.852 402.981L270.37 434.278L215.963 390.704C205.37 406.432 184.185 438.611 184.185 441.5C184.185 444.389 152.408 404.346 136.519 383.963L114.852 470.389L73.4446 402.981Z" fill="#FD9D49"/>
</g>
<g id="Group 15">
<path id="Vector 13_4" d="M74 1129.98L157.331 824.775L234.015 946.448L288.717 762.916L357.734 893.791L462.536 744L574.496 893.791L614.883 824.775L689.012 922.42L719.685 863.117L734 1075.28L653.737 1147.36L548.934 1119.76H512.125H452.823L386.363 1163.72L339.84 1129.98L295.363 1147.36H273.38L258.555 1171.9L199.252 1185.7L157.331 1163.72L100.073 1147.36L74 1129.98Z" fill="#EC5F46"/>
<path id="Vector 14_4" d="M159.887 896.86L112.343 1147.87L122.567 1157.59L163.466 1165.26H263.667L282.583 1139.69L348.021 1134.58L480.941 1120.27H504.457L529.508 1108.51L585.743 1130.49H682.366L723.265 1066.59L704.86 963.32L634.31 896.86L578.075 963.32L462.536 870.787C440.042 904.188 395.054 972.522 395.054 978.657C395.054 984.792 327.571 899.757 293.83 856.473L247.819 1040L159.887 896.86Z" fill="#FD9D49"/>
</g>
</g>
<defs>
<filter id="filter0_d_147_324" x="232" y="622" width="108" height="176" filterUnits="userSpaceOnUse" color-interpolation-filters="sRGB">
<feFlood flood-opacity="0" result="BackgroundImageFix"/>
<feColorMatrix in="SourceAlpha" type="matrix" values="0 0 0 0 0 0 0 0 0 0 0 0 0 0 0 0 0 0 127 0" result="hardAlpha"/>
<feOffset dy="4"/>
<feGaussianBlur stdDeviation="2"/>
<feComposite in2="hardAlpha" operator="out"/>
<feColorMatrix type="matrix" values="0 0 0 0 0 0 0 0 0 0 0 0 0 0 0 0 0 0 0.25 0"/>
<feBlend mode="normal" in2="BackgroundImageFix" result="effect1_dropShadow_147_324"/>
<feBlend mode="normal" in="SourceGraphic" in2="effect1_dropShadow_147_324" result="shape"/>
</filter>
<filter id="filter1_d_147_324" x="466" y="622" width="109" height="176" filterUnits="userSpaceOnUse" color-interpolation-filters="sRGB">
<feFlood flood-opacity="0" result="BackgroundImageFix"/>
<feColorMatrix in="SourceAlpha" type="matrix" values="0 0 0 0 0 0 0 0 0 0 0 0 0 0 0 0 0 0 127 0" result="hardAlpha"/>
<feOffset dy="4"/>
<feGaussianBlur stdDeviation="2"/>
<feComposite in2="hardAlpha" operator="out"/>
<feColorMatrix type="matrix" values="0 0 0 0 0 0 0 0 0 0 0 0 0 0 0 0 0 0 0.25 0"/>
<feBlend mode="normal" in2="BackgroundImageFix" result="effect1_dropShadow_147_324"/>
<feBlend mode="normal" in="SourceGraphic" in2="effect1_dropShadow_147_324" result="shape"/>
</filter>
<filter id="filter2_d_147_324" x="349" y="622" width="109" height="176" filterUnits="userSpaceOnUse" color-interpolation-filters="sRGB">
<feFlood flood-opacity="0" result="BackgroundImageFix"/>
<feColorMatrix in="SourceAlpha" type="matrix" values="0 0 0 0 0 0 0 0 0 0 0 0 0 0 0 0 0 0 127 0" result="hardAlpha"/>
<feOffset dy="4"/>
<feGaussianBlur stdDeviation="2"/>
<feComposite in2="hardAlpha" operator="out"/>
<feColorMatrix type="matrix" values="0 0 0 0 0 0 0 0 0 0 0 0 0 0 0 0 0 0 0.25 0"/>
<feBlend mode="normal" in2="BackgroundImageFix" result="effect1_dropShadow_147_324"/>
<feBlend mode="normal" in="SourceGraphic" in2="effect1_dropShadow_147_324" result="shape"/>
</filter>
<filter id="filter3_d_147_324" x="584" y="622" width="108" height="176" filterUnits="userSpaceOnUse" color-interpolation-filters="sRGB">
<feFlood flood-opacity="0" result="BackgroundImageFix"/>
<feColorMatrix in="SourceAlpha" type="matrix" values="0 0 0 0 0 0 0 0 0 0 0 0 0 0 0 0 0 0 127 0" result="hardAlpha"/>
<feOffset dy="4"/>
<feGaussianBlur stdDeviation="2"/>
<feComposite in2="hardAlpha" operator="out"/>
<feColorMatrix type="matrix" values="0 0 0 0 0 0 0 0 0 0 0 0 0 0 0 0 0 0 0.25 0"/>
<feBlend mode="normal" in2="BackgroundImageFix" result="effect1_dropShadow_147_324"/>
<feBlend mode="normal" in="SourceGraphic" in2="effect1_dropShadow_147_324" result="shape"/>
</filter>
<filter id="filter4_d_147_324" x="126" y="645" width="126" height="206" filterUnits="userSpaceOnUse" color-interpolation-filters="sRGB">
<feFlood flood-opacity="0" result="BackgroundImageFix"/>
<feColorMatrix in="SourceAlpha" type="matrix" values="0 0 0 0 0 0 0 0 0 0 0 0 0 0 0 0 0 0 127 0" result="hardAlpha"/>
<feOffset dy="4"/>
<feGaussianBlur stdDeviation="2"/>
<feComposite in2="hardAlpha" operator="out"/>
<feColorMatrix type="matrix" values="0 0 0 0 0 0 0 0 0 0 0 0 0 0 0 0 0 0 0.25 0"/>
<feBlend mode="normal" in2="BackgroundImageFix" result="effect1_dropShadow_147_324"/>
<feBlend mode="normal" in="SourceGraphic" in2="effect1_dropShadow_147_324" result="shape"/>
</filter>
<filter id="filter5_d_147_324" x="402" y="645" width="126" height="206" filterUnits="userSpaceOnUse" color-interpolation-filters="sRGB">
<feFlood flood-opacity="0" result="BackgroundImageFix"/>
<feColorMatrix in="SourceAlpha" type="matrix" values="0 0 0 0 0 0 0 0 0 0 0 0 0 0 0 0 0 0 127 0" result="hardAlpha"/>
<feOffset dy="4"/>
<feGaussianBlur stdDeviation="2"/>
<feComposite in2="hardAlpha" operator="out"/>
<feColorMatrix type="matrix" values="0 0 0 0 0 0 0 0 0 0 0 0 0 0 0 0 0 0 0.25 0"/>
<feBlend mode="normal" in2="BackgroundImageFix" result="effect1_dropShadow_147_324"/>
<feBlend mode="normal" in="SourceGraphic" in2="effect1_dropShadow_147_324" result="shape"/>
</filter>
<filter id="filter6_d_147_324" x="264" y="645" width="126" height="206" filterUnits="userSpaceOnUse" color-interpolation-filters="sRGB">
<feFlood flood-opacity="0" result="BackgroundImageFix"/>
<feColorMatrix in="SourceAlpha" type="matrix" values="0 0 0 0 0 0 0 0 0 0 0 0 0 0 0 0 0 0 127 0" result="hardAlpha"/>
<feOffset dy="4"/>
<feGaussianBlur stdDeviation="2"/>
<feComposite in2="hardAlpha" operator="out"/>
<feColorMatrix type="matrix" values="0 0 0 0 0 0 0 0 0 0 0 0 0 0 0 0 0 0 0.25 0"/>
<feBlend mode="normal" in2="BackgroundImageFix" result="effect1_dropShadow_147_324"/>
<feBlend mode="normal" in="SourceGraphic" in2="effect1_dropShadow_147_324" result="shape"/>
</filter>
<filter id="filter7_d_147_324" x="322" y="691" width="126" height="206" filterUnits="userSpaceOnUse" color-interpolation-filters="sRGB">
<feFlood flood-opacity="0" result="BackgroundImageFix"/>
<feColorMatrix in="SourceAlpha" type="matrix" values="0 0 0 0 0 0 0 0 0 0 0 0 0 0 0 0 0 0 127 0" result="hardAlpha"/>
<feOffset dy="4"/>
<feGaussianBlur stdDeviation="2"/>
<feComposite in2="hardAlpha" operator="out"/>
<feColorMatrix type="matrix" values="0 0 0 0 0 0 0 0 0 0 0 0 0 0 0 0 0 0 0.25 0"/>
<feBlend mode="normal" in2="BackgroundImageFix" result="effect1_dropShadow_147_324"/>
<feBlend mode="normal" in="SourceGraphic" in2="effect1_dropShadow_147_324" result="shape"/>
</filter>
<filter id="filter8_d_147_324" x="540" y="645" width="126" height="206" filterUnits="userSpaceOnUse" color-interpolation-filters="sRGB">
<feFlood flood-opacity="0" result="BackgroundImageFix"/>
<feColorMatrix in="SourceAlpha" type="matrix" values="0 0 0 0 0 0 0 0 0 0 0 0 0 0 0 0 0 0 127 0" result="hardAlpha"/>
<feOffset dy="4"/>
<feGaussianBlur stdDeviation="2"/>
<feComposite in2="hardAlpha" operator="out"/>
<feColorMatrix type="matrix" values="0 0 0 0 0 0 0 0 0 0 0 0 0 0 0 0 0 0 0.25 0"/>
<feBlend mode="normal" in2="BackgroundImageFix" result="effect1_dropShadow_147_324"/>
<feBlend mode="normal" in="SourceGraphic" in2="effect1_dropShadow_147_324" result="shape"/>
</filter>
<filter id="filter9_d_147_324" x="184" y="691" width="126" height="206" filterUnits="userSpaceOnUse" color-interpolation-filters="sRGB">
<feFlood flood-opacity="0" result="BackgroundImageFix"/>
<feColorMatrix in="SourceAlpha" type="matrix" values="0 0 0 0 0 0 0 0 0 0 0 0 0 0 0 0 0 0 127 0" result="hardAlpha"/>
<feOffset dy="4"/>
<feGaussianBlur stdDeviation="2"/>
<feComposite in2="hardAlpha" operator="out"/>
<feColorMatrix type="matrix" values="0 0 0 0 0 0 0 0 0 0 0 0 0 0 0 0 0 0 0.25 0"/>
<feBlend mode="normal" in2="BackgroundImageFix" result="effect1_dropShadow_147_324"/>
<feBlend mode="normal" in="SourceGraphic" in2="effect1_dropShadow_147_324" result="shape"/>
</filter>
<filter id="filter10_d_147_324" x="460" y="691" width="126" height="206" filterUnits="userSpaceOnUse" color-interpolation-filters="sRGB">
<feFlood flood-opacity="0" result="BackgroundImageFix"/>
<feColorMatrix in="SourceAlpha" type="matrix" values="0 0 0 0 0 0 0 0 0 0 0 0 0 0 0 0 0 0 127 0" result="hardAlpha"/>
<feOffset dy="4"/>
<feGaussianBlur stdDeviation="2"/>
<feComposite in2="hardAlpha" operator="out"/>
<feColorMatrix type="matrix" values="0 0 0 0 0 0 0 0 0 0 0 0 0 0 0 0 0 0 0.25 0"/>
<feBlend mode="normal" in2="BackgroundImageFix" result="effect1_dropShadow_147_324"/>
<feBlend mode="normal" in="SourceGraphic" in2="effect1_dropShadow_147_324" result="shape"/>
</filter>
<filter id="filter11_d_147_324" x="598" y="691" width="126" height="206" filterUnits="userSpaceOnUse" color-interpolation-filters="sRGB">
<feFlood flood-opacity="0" result="BackgroundImageFix"/>
<feColorMatrix in="SourceAlpha" type="matrix" values="0 0 0 0 0 0 0 0 0 0 0 0 0 0 0 0 0 0 127 0" result="hardAlpha"/>
<feOffset dy="4"/>
<feGaussianBlur stdDeviation="2"/>
<feComposite in2="hardAlpha" operator="out"/>
<feColorMatrix type="matrix" values="0 0 0 0 0 0 0 0 0 0 0 0 0 0 0 0 0 0 0.25 0"/>
<feBlend mode="normal" in2="BackgroundImageFix" result="effect1_dropShadow_147_324"/>
<feBlend mode="normal" in="SourceGraphic" in2="effect1_dropShadow_147_324" result="shape"/>
</filter>
<clipPath id="clip0_147_324">
<rect width="1440" height="1024" fill="white"/>
</clipPath>
</defs>
</svg>
