<svg width="1440" height="1024" viewBox="0 0 1440 1024" fill="none" xmlns="http://www.w3.org/2000/svg">
<g id="device1-yes" clip-path="url(#clip0_147_123)">
<rect width="1440" height="1024" fill="#333148"/>
<path id="part 4" d="M47.096 132.12V60.024H61.688L62.264 71.448L59.384 70.584C59.832 68.536 61.048 66.648 63.032 64.92C65.016 63.192 67.512 61.784 70.52 60.696C73.592 59.608 76.856 59.064 80.312 59.064C85.304 59.064 89.688 60.216 93.464 62.52C97.24 64.76 100.184 67.864 102.296 71.832C104.472 75.736 105.56 80.28 105.56 85.464C105.56 90.584 104.472 95.128 102.296 99.096C100.184 103.064 97.208 106.2 93.368 108.504C89.528 110.744 85.112 111.864 80.12 111.864C76.664 111.864 73.432 111.288 70.424 110.136C67.416 108.984 64.888 107.48 62.84 105.624C60.856 103.768 59.576 101.816 59 99.768L62.552 98.424V132.12H47.096ZM76.376 98.904C79.256 98.904 81.752 98.36 83.864 97.272C85.976 96.12 87.608 94.552 88.76 92.568C89.976 90.584 90.584 88.216 90.584 85.464C90.584 82.776 89.976 80.44 88.76 78.456C87.608 76.408 85.976 74.84 83.864 73.752C81.816 72.6 79.32 72.024 76.376 72.024C73.496 72.024 70.968 72.568 68.792 73.656C66.68 74.744 65.016 76.312 63.8 78.36C62.648 80.408 62.072 82.776 62.072 85.464C62.072 88.216 62.648 90.584 63.8 92.568C65.016 94.552 66.68 96.12 68.792 97.272C70.968 98.36 73.496 98.904 76.376 98.904ZM144.211 111.864C139.155 111.864 134.739 110.744 130.963 108.504C127.187 106.264 124.211 103.16 122.035 99.192C119.923 95.16 118.867 90.584 118.867 85.464C118.867 80.28 119.955 75.704 122.131 71.736C124.307 67.768 127.315 64.664 131.155 62.424C135.059 60.12 139.539 58.968 144.595 58.968C147.475 58.968 150.131 59.352 152.563 60.12C154.995 60.824 157.107 61.816 158.899 63.096C160.755 64.376 162.259 65.784 163.411 67.32C164.627 68.856 165.427 70.456 165.811 72.12H162.451V60.024H177.619V111H162.163V97.944L165.427 98.424C165.043 100.088 164.243 101.72 163.027 103.32C161.811 104.92 160.243 106.36 158.323 107.64C156.403 108.92 154.227 109.944 151.795 110.712C149.427 111.48 146.899 111.864 144.211 111.864ZM148.339 98.904C151.219 98.904 153.715 98.36 155.827 97.272C158.003 96.184 159.667 94.648 160.819 92.664C162.035 90.616 162.643 88.216 162.643 85.464C162.643 82.776 162.035 80.44 160.819 78.456C159.667 76.408 158.003 74.808 155.827 73.656C153.715 72.504 151.219 71.928 148.339 71.928C145.459 71.928 142.963 72.504 140.851 73.656C138.739 74.808 137.075 76.408 135.859 78.456C134.707 80.44 134.131 82.776 134.131 85.464C134.131 88.216 134.707 90.616 135.859 92.664C137.075 94.648 138.739 96.184 140.851 97.272C142.963 98.36 145.459 98.904 148.339 98.904ZM201.315 111V60.024H215.907L216.579 77.592L212.931 75.768C213.763 72.632 215.203 69.816 217.251 67.32C219.363 64.76 221.763 62.744 224.451 61.272C227.203 59.736 230.115 58.968 233.187 58.968C234.851 58.968 236.419 59.128 237.891 59.448C239.427 59.768 240.739 60.184 241.827 60.696L237.603 77.496C236.643 76.792 235.331 76.248 233.667 75.864C232.067 75.48 230.435 75.288 228.771 75.288C226.915 75.288 225.219 75.608 223.683 76.248C222.211 76.824 220.963 77.656 219.939 78.744C218.915 79.768 218.115 80.952 217.539 82.296C217.027 83.64 216.771 85.08 216.771 86.616V111H201.315ZM265.932 111V46.008H281.292V111H265.932ZM254.604 73.464V60.024H294.252V73.464H254.604ZM377.032 111V53.304H387.112L357.544 88.248L355.624 83.736H405.256V96.984H349.48L343.048 84.6L378.856 43.224H392.776V111H377.032Z" fill="white"/>
<rect id="Rectangle 7" y="462" width="1567" height="626" fill="#211F2F"/>
<g id="Group 3">
<g id="Vector" filter="url(#filter0_d_147_123)">
<path d="M1083.33 450.388C1089.55 422.899 1128.72 422.899 1134.94 450.388L1145.04 495.03C1148.78 511.575 1136.2 527.315 1119.23 527.315H1099.04C1082.07 527.315 1069.49 511.575 1073.23 495.03L1083.33 450.388Z" fill="#FB8D8D"/>
<path d="M1137.1 390.34C1137.1 405.991 1124.41 418.679 1108.76 418.679C1093.1 418.679 1080.41 405.991 1080.41 390.34C1080.41 374.688 1093.1 362 1108.76 362C1124.41 362 1137.1 374.688 1137.1 390.34Z" fill="#FB8D8D"/>
<path d="M1114.43 513.523C1114.43 505.801 1120.69 499.542 1128.41 499.542C1136.13 499.542 1142.39 505.801 1142.39 513.523V546.019C1142.39 553.741 1136.13 560 1128.41 560C1120.69 560 1114.43 553.741 1114.43 546.019V513.523Z" fill="#FB8D8D"/>
<path d="M1125.36 459.361C1121.41 452.728 1123.58 444.146 1130.22 440.194C1136.85 436.242 1145.44 438.416 1149.39 445.049L1166.03 472.966C1169.98 479.599 1167.81 488.18 1161.17 492.132C1154.54 496.085 1145.95 493.911 1142 487.278L1125.36 459.361Z" fill="#FB8D8D"/>
<path d="M1068.13 445.146C1071.99 438.459 1080.54 436.168 1087.23 440.029C1093.92 443.889 1096.21 452.44 1092.35 459.127L1076.1 487.269C1072.24 493.956 1063.68 496.248 1056.99 492.387C1050.31 488.526 1048.01 479.975 1051.88 473.289L1068.13 445.146Z" fill="#FB8D8D"/>
<path d="M1075.12 513.523C1075.12 505.801 1081.38 499.542 1089.1 499.542C1096.83 499.542 1103.09 505.801 1103.09 513.523V546.019C1103.09 553.741 1096.83 560 1089.1 560C1081.38 560 1075.12 553.741 1075.12 546.019V513.523Z" fill="#FB8D8D"/>
</g>
</g>
<path id="Star 2" d="M1025.29 249.916C1019.48 233.956 1034.96 218.483 1050.92 224.286L1102.45 243.023C1106.86 244.628 1111.7 244.628 1116.12 243.023L1167.65 224.286C1183.61 218.482 1199.08 233.956 1193.28 249.916L1174.54 301.449C1172.94 305.864 1172.94 310.703 1174.54 315.118L1193.28 366.65C1199.08 382.611 1183.61 398.084 1167.65 392.281L1116.12 373.543C1111.7 371.938 1106.86 371.938 1102.45 373.543L1050.92 392.281C1034.96 398.084 1019.48 382.611 1025.29 366.65L1044.02 315.118C1045.63 310.703 1045.63 305.864 1044.02 301.449L1025.29 249.916Z" fill="#485C77"/>
<g id="Group 4">
<g id="Vector_2" filter="url(#filter1_d_147_123)">
<path d="M264.246 696.996C269.515 673.672 302.714 673.672 307.983 696.996L316.541 734.874C319.712 748.912 309.05 762.267 294.672 762.267H277.557C263.179 762.267 252.517 748.912 255.688 734.874L264.246 696.996Z" fill="#3B5EC6"/>
<path d="M309.816 646.046C309.816 659.326 299.061 670.092 285.794 670.092C272.527 670.092 261.772 659.326 261.772 646.046C261.772 632.766 272.527 622 285.794 622C299.061 622 309.816 632.766 309.816 646.046Z" fill="#3B5EC6"/>
<path d="M290.599 750.565C290.599 744.013 295.904 738.702 302.45 738.702C308.995 738.702 314.3 744.013 314.3 750.565V778.137C314.3 784.689 308.995 790 302.45 790C295.904 790 290.599 784.689 290.599 778.137V750.565Z" fill="#3B5EC6"/>
<path d="M299.867 704.609C296.517 698.981 298.36 691.7 303.982 688.347C309.605 684.993 316.879 686.837 320.229 692.466L334.328 716.153C337.678 721.781 335.836 729.062 330.213 732.415C324.59 735.769 317.316 733.925 313.966 728.296L299.867 704.609Z" fill="#3B5EC6"/>
<path d="M251.362 692.548C254.635 686.874 261.883 684.93 267.551 688.206C273.219 691.482 275.161 698.737 271.889 704.411L258.116 728.289C254.844 733.963 247.596 735.907 241.927 732.631C236.259 729.355 234.317 722.1 237.59 716.427L251.362 692.548Z" fill="#3B5EC6"/>
<path d="M257.288 750.565C257.288 744.013 262.594 738.702 269.139 738.702C275.684 738.702 280.99 744.013 280.99 750.565V778.137C280.99 784.689 275.684 790 269.139 790C262.594 790 257.288 784.689 257.288 778.137V750.565Z" fill="#3B5EC6"/>
</g>
<g id="Vector_3" filter="url(#filter2_d_147_123)">
<path d="M498.528 696.996C503.85 673.672 537.381 673.672 542.703 696.996L551.346 734.874C554.549 748.912 543.78 762.267 529.259 762.267H511.972C497.451 762.267 486.682 748.912 489.885 734.874L498.528 696.996Z" fill="#3B5EC6"/>
<path d="M544.555 646.046C544.555 659.326 533.692 670.092 520.292 670.092C506.892 670.092 496.03 659.326 496.03 646.046C496.03 632.766 506.892 622 520.292 622C533.692 622 544.555 632.766 544.555 646.046Z" fill="#3B5EC6"/>
<path d="M525.145 750.565C525.145 744.013 530.504 738.702 537.114 738.702C543.725 738.702 549.083 744.013 549.083 750.565V778.137C549.083 784.689 543.725 790 537.114 790C530.504 790 525.145 784.689 525.145 778.137V750.565Z" fill="#3B5EC6"/>
<path d="M534.506 704.609C531.123 698.981 532.983 691.7 538.662 688.347C544.341 684.993 551.688 686.837 555.071 692.466L569.311 716.153C572.695 721.781 570.834 729.062 565.155 732.415C559.476 735.769 552.13 733.925 548.746 728.296L534.506 704.609Z" fill="#3B5EC6"/>
<path d="M485.516 692.548C488.821 686.874 496.142 684.93 501.867 688.206C507.591 691.482 509.553 698.737 506.248 704.411L492.337 728.289C489.032 733.963 481.712 735.907 475.987 732.631C470.262 729.355 468.3 722.1 471.606 716.427L485.516 692.548Z" fill="#3B5EC6"/>
<path d="M491.501 750.565C491.501 744.013 496.86 738.702 503.47 738.702C510.081 738.702 515.44 744.013 515.44 750.565V778.137C515.44 784.689 510.081 790 503.47 790C496.86 790 491.501 784.689 491.501 778.137V750.565Z" fill="#3B5EC6"/>
</g>
<g id="Vector_4" filter="url(#filter3_d_147_123)">
<path d="M381.528 696.996C386.85 673.672 420.381 673.672 425.703 696.996L434.346 734.874C437.549 748.912 426.78 762.267 412.259 762.267H394.972C380.451 762.267 369.682 748.912 372.885 734.874L381.528 696.996Z" fill="#3B5EC6"/>
<path d="M427.555 646.046C427.555 659.326 416.692 670.092 403.292 670.092C389.892 670.092 379.03 659.326 379.03 646.046C379.03 632.766 389.892 622 403.292 622C416.692 622 427.555 632.766 427.555 646.046Z" fill="#3B5EC6"/>
<path d="M408.145 750.565C408.145 744.013 413.504 738.702 420.114 738.702C426.725 738.702 432.083 744.013 432.083 750.565V778.137C432.083 784.689 426.725 790 420.114 790C413.504 790 408.145 784.689 408.145 778.137V750.565Z" fill="#3B5EC6"/>
<path d="M417.506 704.609C414.123 698.981 415.983 691.7 421.662 688.347C427.341 684.993 434.688 686.837 438.071 692.466L452.311 716.153C455.695 721.781 453.834 729.062 448.155 732.415C442.476 735.769 435.13 733.925 431.746 728.296L417.506 704.609Z" fill="#3B5EC6"/>
<path d="M368.516 692.548C371.821 686.874 379.142 684.93 384.867 688.206C390.591 691.482 392.553 698.737 389.248 704.411L375.337 728.289C372.032 733.963 364.712 735.907 358.987 732.631C353.262 729.355 351.3 722.1 354.606 716.427L368.516 692.548Z" fill="#3B5EC6"/>
<path d="M374.501 750.565C374.501 744.013 379.86 738.702 386.47 738.702C393.081 738.702 398.44 744.013 398.44 750.565V778.137C398.44 784.689 393.081 790 386.47 790C379.86 790 374.501 784.689 374.501 778.137V750.565Z" fill="#3B5EC6"/>
</g>
<g id="Vector_5" filter="url(#filter4_d_147_123)">
<path d="M616.246 696.996C621.515 673.672 654.714 673.672 659.983 696.996L668.541 734.874C671.712 748.912 661.05 762.267 646.672 762.267H629.557C615.179 762.267 604.517 748.912 607.688 734.874L616.246 696.996Z" fill="#3B5EC6"/>
<path d="M661.816 646.046C661.816 659.326 651.061 670.092 637.794 670.092C624.527 670.092 613.772 659.326 613.772 646.046C613.772 632.766 624.527 622 637.794 622C651.061 622 661.816 632.766 661.816 646.046Z" fill="#3B5EC6"/>
<path d="M642.599 750.565C642.599 744.013 647.904 738.702 654.45 738.702C660.995 738.702 666.3 744.013 666.3 750.565V778.137C666.3 784.689 660.995 790 654.45 790C647.904 790 642.599 784.689 642.599 778.137V750.565Z" fill="#3B5EC6"/>
<path d="M651.867 704.609C648.517 698.981 650.36 691.7 655.982 688.347C661.605 684.993 668.879 686.837 672.229 692.466L686.328 716.153C689.678 721.781 687.836 729.062 682.213 732.415C676.59 735.769 669.316 733.925 665.966 728.296L651.867 704.609Z" fill="#3B5EC6"/>
<path d="M603.362 692.548C606.635 686.874 613.883 684.93 619.551 688.206C625.219 691.482 627.161 698.737 623.889 704.411L610.116 728.289C606.844 733.963 599.596 735.907 593.927 732.631C588.259 729.355 586.317 722.1 589.59 716.427L603.362 692.548Z" fill="#3B5EC6"/>
<path d="M609.288 750.565C609.288 744.013 614.594 738.702 621.139 738.702C627.684 738.702 632.99 744.013 632.99 750.565V778.137C632.99 784.689 627.684 790 621.139 790C614.594 790 609.288 784.689 609.288 778.137V750.565Z" fill="#3B5EC6"/>
</g>
<g id="Vector_6" filter="url(#filter5_d_147_123)">
<path d="M163.33 733.388C169.548 705.899 208.722 705.899 214.94 733.388L225.038 778.03C228.78 794.575 216.199 810.315 199.233 810.315H179.037C162.071 810.315 149.49 794.575 153.232 778.03L163.33 733.388Z" fill="#6A94E0"/>
<path d="M217.103 673.34C217.103 688.991 204.412 701.679 188.757 701.679C173.102 701.679 160.411 688.991 160.411 673.34C160.411 657.688 173.102 645 188.757 645C204.412 645 217.103 657.688 217.103 673.34Z" fill="#6A94E0"/>
<path d="M194.426 796.523C194.426 788.801 200.687 782.542 208.41 782.542C216.134 782.542 222.395 788.801 222.395 796.523V829.019C222.395 836.741 216.134 843 208.41 843C200.687 843 194.426 836.741 194.426 829.019V796.523Z" fill="#6A94E0"/>
<path d="M205.364 742.361C201.41 735.728 203.584 727.146 210.219 723.194C216.854 719.242 225.437 721.416 229.39 728.049L246.027 755.966C249.98 762.599 247.806 771.18 241.171 775.132C234.537 779.085 225.953 776.911 222 770.278L205.364 742.361Z" fill="#6A94E0"/>
<path d="M148.128 728.146C151.989 721.459 160.542 719.168 167.23 723.029C173.919 726.889 176.21 735.44 172.349 742.127L156.097 770.269C152.235 776.956 143.683 779.248 136.994 775.387C130.306 771.526 128.014 762.975 131.876 756.289L148.128 728.146Z" fill="#6A94E0"/>
<path d="M155.12 796.523C155.12 788.801 161.381 782.542 169.104 782.542C176.827 782.542 183.088 788.801 183.088 796.523V829.019C183.088 836.741 176.827 843 169.104 843C161.381 843 155.12 836.741 155.12 829.019V796.523Z" fill="#6A94E0"/>
</g>
<g id="Vector_7" filter="url(#filter6_d_147_123)">
<path d="M439.33 733.388C445.548 705.899 484.722 705.899 490.94 733.388L501.038 778.03C504.78 794.575 492.199 810.315 475.233 810.315H455.037C438.071 810.315 425.49 794.575 429.232 778.03L439.33 733.388Z" fill="#6A94E0"/>
<path d="M493.103 673.34C493.103 688.991 480.412 701.679 464.757 701.679C449.102 701.679 436.411 688.991 436.411 673.34C436.411 657.688 449.102 645 464.757 645C480.412 645 493.103 657.688 493.103 673.34Z" fill="#6A94E0"/>
<path d="M470.426 796.523C470.426 788.801 476.687 782.542 484.41 782.542C492.134 782.542 498.395 788.801 498.395 796.523V829.019C498.395 836.741 492.134 843 484.41 843C476.687 843 470.426 836.741 470.426 829.019V796.523Z" fill="#6A94E0"/>
<path d="M481.364 742.361C477.41 735.728 479.584 727.146 486.219 723.194C492.854 719.242 501.437 721.416 505.39 728.049L522.027 755.966C525.98 762.599 523.806 771.18 517.171 775.132C510.537 779.085 501.953 776.911 498 770.278L481.364 742.361Z" fill="#6A94E0"/>
<path d="M424.128 728.146C427.989 721.459 436.542 719.168 443.23 723.029C449.919 726.889 452.21 735.44 448.349 742.127L432.097 770.269C428.235 776.956 419.683 779.248 412.994 775.387C406.306 771.526 404.014 762.975 407.876 756.289L424.128 728.146Z" fill="#6A94E0"/>
<path d="M431.12 796.523C431.12 788.801 437.381 782.542 445.104 782.542C452.827 782.542 459.088 788.801 459.088 796.523V829.019C459.088 836.741 452.827 843 445.104 843C437.381 843 431.12 836.741 431.12 829.019V796.523Z" fill="#6A94E0"/>
</g>
<g id="Vector_8" filter="url(#filter7_d_147_123)">
<path d="M301.33 733.388C307.548 705.899 346.722 705.899 352.94 733.388L363.038 778.03C366.78 794.575 354.199 810.315 337.233 810.315H317.037C300.071 810.315 287.49 794.575 291.232 778.03L301.33 733.388Z" fill="#6A94E0"/>
<path d="M355.103 673.34C355.103 688.991 342.412 701.679 326.757 701.679C311.102 701.679 298.411 688.991 298.411 673.34C298.411 657.688 311.102 645 326.757 645C342.412 645 355.103 657.688 355.103 673.34Z" fill="#6A94E0"/>
<path d="M332.426 796.523C332.426 788.801 338.687 782.542 346.41 782.542C354.134 782.542 360.395 788.801 360.395 796.523V829.019C360.395 836.741 354.134 843 346.41 843C338.687 843 332.426 836.741 332.426 829.019V796.523Z" fill="#6A94E0"/>
<path d="M343.364 742.361C339.41 735.728 341.584 727.146 348.219 723.194C354.854 719.242 363.437 721.416 367.39 728.049L384.027 755.966C387.98 762.599 385.806 771.18 379.171 775.132C372.537 779.085 363.953 776.911 360 770.278L343.364 742.361Z" fill="#6A94E0"/>
<path d="M286.128 728.146C289.989 721.459 298.542 719.168 305.23 723.029C311.919 726.889 314.21 735.44 310.349 742.127L294.097 770.269C290.235 776.956 281.683 779.248 274.994 775.387C268.306 771.526 266.014 762.975 269.876 756.289L286.128 728.146Z" fill="#6A94E0"/>
<path d="M293.12 796.523C293.12 788.801 299.381 782.542 307.104 782.542C314.827 782.542 321.088 788.801 321.088 796.523V829.019C321.088 836.741 314.827 843 307.104 843C299.381 843 293.12 836.741 293.12 829.019V796.523Z" fill="#6A94E0"/>
</g>
<g id="Vector_9" filter="url(#filter8_d_147_123)">
<path d="M359.33 779.388C365.548 751.899 404.722 751.899 410.94 779.388L421.038 824.03C424.78 840.575 412.199 856.315 395.233 856.315H375.037C358.071 856.315 345.49 840.575 349.232 824.03L359.33 779.388Z" fill="#8DBBFB"/>
<path d="M413.103 719.34C413.103 734.991 400.412 747.679 384.757 747.679C369.102 747.679 356.411 734.991 356.411 719.34C356.411 703.688 369.102 691 384.757 691C400.412 691 413.103 703.688 413.103 719.34Z" fill="#8DBBFB"/>
<path d="M390.426 842.523C390.426 834.801 396.687 828.542 404.41 828.542C412.134 828.542 418.395 834.801 418.395 842.523V875.019C418.395 882.741 412.134 889 404.41 889C396.687 889 390.426 882.741 390.426 875.019V842.523Z" fill="#8DBBFB"/>
<path d="M401.364 788.361C397.41 781.728 399.584 773.146 406.219 769.194C412.854 765.242 421.437 767.416 425.39 774.049L442.027 801.966C445.98 808.599 443.806 817.18 437.171 821.132C430.537 825.085 421.953 822.911 418 816.278L401.364 788.361Z" fill="#8DBBFB"/>
<path d="M344.128 774.146C347.989 767.459 356.542 765.168 363.23 769.029C369.919 772.889 372.21 781.44 368.349 788.127L352.097 816.269C348.235 822.956 339.683 825.248 332.994 821.387C326.306 817.526 324.014 808.975 327.876 802.289L344.128 774.146Z" fill="#8DBBFB"/>
<path d="M351.12 842.523C351.12 834.801 357.381 828.542 365.104 828.542C372.827 828.542 379.088 834.801 379.088 842.523V875.019C379.088 882.741 372.827 889 365.104 889C357.381 889 351.12 882.741 351.12 875.019V842.523Z" fill="#8DBBFB"/>
</g>
<g id="Vector_10" filter="url(#filter9_d_147_123)">
<path d="M577.33 733.388C583.548 705.899 622.722 705.899 628.94 733.388L639.038 778.03C642.78 794.575 630.199 810.315 613.233 810.315H593.037C576.071 810.315 563.49 794.575 567.232 778.03L577.33 733.388Z" fill="#6A94E0"/>
<path d="M631.103 673.34C631.103 688.991 618.412 701.679 602.757 701.679C587.102 701.679 574.411 688.991 574.411 673.34C574.411 657.688 587.102 645 602.757 645C618.412 645 631.103 657.688 631.103 673.34Z" fill="#6A94E0"/>
<path d="M608.426 796.523C608.426 788.801 614.687 782.542 622.41 782.542C630.134 782.542 636.395 788.801 636.395 796.523V829.019C636.395 836.741 630.134 843 622.41 843C614.687 843 608.426 836.741 608.426 829.019V796.523Z" fill="#6A94E0"/>
<path d="M619.364 742.361C615.41 735.728 617.584 727.146 624.219 723.194C630.854 719.242 639.437 721.416 643.39 728.049L660.027 755.966C663.98 762.599 661.806 771.18 655.171 775.132C648.537 779.085 639.953 776.911 636 770.278L619.364 742.361Z" fill="#6A94E0"/>
<path d="M562.128 728.146C565.989 721.459 574.542 719.168 581.23 723.029C587.919 726.889 590.21 735.44 586.349 742.127L570.097 770.269C566.235 776.956 557.683 779.248 550.994 775.387C544.306 771.526 542.014 762.975 545.876 756.289L562.128 728.146Z" fill="#6A94E0"/>
<path d="M569.12 796.523C569.12 788.801 575.381 782.542 583.104 782.542C590.827 782.542 597.088 788.801 597.088 796.523V829.019C597.088 836.741 590.827 843 583.104 843C575.381 843 569.12 836.741 569.12 829.019V796.523Z" fill="#6A94E0"/>
</g>
<g id="Vector_11" filter="url(#filter10_d_147_123)">
<path d="M221.33 779.388C227.548 751.899 266.722 751.899 272.94 779.388L283.038 824.03C286.78 840.575 274.199 856.315 257.233 856.315H237.037C220.071 856.315 207.49 840.575 211.232 824.03L221.33 779.388Z" fill="#8DBBFB"/>
<path d="M275.103 719.34C275.103 734.991 262.412 747.679 246.757 747.679C231.102 747.679 218.411 734.991 218.411 719.34C218.411 703.688 231.102 691 246.757 691C262.412 691 275.103 703.688 275.103 719.34Z" fill="#8DBBFB"/>
<path d="M252.426 842.523C252.426 834.801 258.687 828.542 266.41 828.542C274.134 828.542 280.395 834.801 280.395 842.523V875.019C280.395 882.741 274.134 889 266.41 889C258.687 889 252.426 882.741 252.426 875.019V842.523Z" fill="#8DBBFB"/>
<path d="M263.364 788.361C259.41 781.728 261.584 773.146 268.219 769.194C274.854 765.242 283.437 767.416 287.39 774.049L304.027 801.966C307.98 808.599 305.806 817.18 299.171 821.132C292.537 825.085 283.953 822.911 280 816.278L263.364 788.361Z" fill="#8DBBFB"/>
<path d="M206.128 774.146C209.989 767.459 218.542 765.168 225.23 769.029C231.919 772.889 234.21 781.44 230.349 788.127L214.097 816.269C210.235 822.956 201.683 825.248 194.994 821.387C188.306 817.526 186.014 808.975 189.876 802.289L206.128 774.146Z" fill="#8DBBFB"/>
<path d="M213.12 842.523C213.12 834.801 219.381 828.542 227.104 828.542C234.827 828.542 241.088 834.801 241.088 842.523V875.019C241.088 882.741 234.827 889 227.104 889C219.381 889 213.12 882.741 213.12 875.019V842.523Z" fill="#8DBBFB"/>
</g>
<g id="Vector_12" filter="url(#filter11_d_147_123)">
<path d="M497.33 779.388C503.548 751.899 542.722 751.899 548.94 779.388L559.038 824.03C562.78 840.575 550.199 856.315 533.233 856.315H513.037C496.071 856.315 483.49 840.575 487.232 824.03L497.33 779.388Z" fill="#8DBBFB"/>
<path d="M551.103 719.34C551.103 734.991 538.412 747.679 522.757 747.679C507.102 747.679 494.411 734.991 494.411 719.34C494.411 703.688 507.102 691 522.757 691C538.412 691 551.103 703.688 551.103 719.34Z" fill="#8DBBFB"/>
<path d="M528.426 842.523C528.426 834.801 534.687 828.542 542.41 828.542C550.134 828.542 556.395 834.801 556.395 842.523V875.019C556.395 882.741 550.134 889 542.41 889C534.687 889 528.426 882.741 528.426 875.019V842.523Z" fill="#8DBBFB"/>
<path d="M539.364 788.361C535.41 781.728 537.584 773.146 544.219 769.194C550.854 765.242 559.437 767.416 563.39 774.049L580.027 801.966C583.98 808.599 581.806 817.18 575.171 821.132C568.537 825.085 559.953 822.911 556 816.278L539.364 788.361Z" fill="#8DBBFB"/>
<path d="M482.128 774.146C485.989 767.459 494.542 765.168 501.23 769.029C507.919 772.889 510.21 781.44 506.349 788.127L490.097 816.269C486.235 822.956 477.683 825.248 470.994 821.387C464.306 817.526 462.014 808.975 465.876 802.289L482.128 774.146Z" fill="#8DBBFB"/>
<path d="M489.12 842.523C489.12 834.801 495.381 828.542 503.104 828.542C510.827 828.542 517.088 834.801 517.088 842.523V875.019C517.088 882.741 510.827 889 503.104 889C495.381 889 489.12 882.741 489.12 875.019V842.523Z" fill="#8DBBFB"/>
</g>
<g id="Vector_13" filter="url(#filter12_d_147_123)">
<path d="M635.33 779.388C641.548 751.899 680.722 751.899 686.94 779.388L697.038 824.03C700.78 840.575 688.199 856.315 671.233 856.315H651.037C634.071 856.315 621.49 840.575 625.232 824.03L635.33 779.388Z" fill="#8DBBFB"/>
<path d="M689.103 719.34C689.103 734.991 676.412 747.679 660.757 747.679C645.102 747.679 632.411 734.991 632.411 719.34C632.411 703.688 645.102 691 660.757 691C676.412 691 689.103 703.688 689.103 719.34Z" fill="#8DBBFB"/>
<path d="M666.426 842.523C666.426 834.801 672.687 828.542 680.41 828.542C688.134 828.542 694.395 834.801 694.395 842.523V875.019C694.395 882.741 688.134 889 680.41 889C672.687 889 666.426 882.741 666.426 875.019V842.523Z" fill="#8DBBFB"/>
<path d="M677.364 788.361C673.41 781.728 675.584 773.146 682.219 769.194C688.854 765.242 697.437 767.416 701.39 774.049L718.027 801.966C721.98 808.599 719.806 817.18 713.171 821.132C706.537 825.085 697.953 822.911 694 816.278L677.364 788.361Z" fill="#8DBBFB"/>
<path d="M620.128 774.146C623.989 767.459 632.542 765.168 639.23 769.029C645.919 772.889 648.21 781.44 644.349 788.127L628.097 816.269C624.235 822.956 615.683 825.248 608.994 821.387C602.306 817.526 600.014 808.975 603.876 802.289L620.128 774.146Z" fill="#8DBBFB"/>
<path d="M627.12 842.523C627.12 834.801 633.381 828.542 641.104 828.542C648.827 828.542 655.088 834.801 655.088 842.523V875.019C655.088 882.741 648.827 889 641.104 889C633.381 889 627.12 882.741 627.12 875.019V842.523Z" fill="#8DBBFB"/>
</g>
</g>
<path id="Vector 27" d="M829 -28L1035.98 330.5H1182L1388.98 -28H829Z" fill="#485C77"/>
<path id="Polygon 7" d="M1140.18 262C1126.32 286 1091.68 286 1077.82 262L986.89 104.5C973.034 80.4999 990.355 50.5 1018.07 50.5L1199.93 50.5C1227.65 50.5 1244.97 80.5 1231.11 104.5L1140.18 262Z" fill="#EC5F46"/>
<path id="3! 2! 1!" d="M307.69 584.64C303.637 584.64 300.138 583.808 297.194 582.144C294.25 580.48 291.69 577.941 289.514 574.528L297.322 569.088C298.175 570.411 299.114 571.563 300.138 572.544C301.205 573.483 302.357 574.229 303.594 574.784C304.874 575.339 306.282 575.616 307.818 575.616C309.269 575.616 310.613 575.381 311.85 574.912C313.087 574.443 314.09 573.739 314.858 572.8C315.626 571.819 316.01 570.645 316.01 569.28C316.01 567.915 315.647 566.805 314.922 565.952C314.197 565.056 313.258 564.416 312.106 564.032C310.954 563.605 309.695 563.392 308.33 563.392C307.647 563.392 306.943 563.456 306.218 563.584C305.493 563.712 304.789 563.883 304.106 564.096C303.423 564.267 302.762 564.523 302.122 564.864L299.562 558.72L311.722 546.624L313.898 548.352L292.65 547.968V538.816H322.73L324.778 543.744L308.65 559.68L306.09 555.904C306.517 555.733 307.178 555.584 308.074 555.456C309.013 555.328 309.973 555.264 310.954 555.264C312.959 555.264 314.858 555.627 316.65 556.352C318.442 557.035 320.042 557.995 321.45 559.232C322.858 560.469 323.967 561.941 324.778 563.648C325.589 565.312 325.994 567.125 325.994 569.088C325.994 572.16 325.162 574.869 323.498 577.216C321.877 579.52 319.679 581.333 316.906 582.656C314.175 583.979 311.103 584.64 307.69 584.64ZM340.751 567.68C340.281 565.205 339.812 562.603 339.343 559.872C338.916 557.141 338.553 554.389 338.255 551.616C337.956 548.8 337.807 546.091 337.807 543.488V538.496H350.159V543.488C350.159 546.091 350.009 548.8 349.711 551.616C349.455 554.389 349.092 557.141 348.623 559.872C348.196 562.603 347.705 565.205 347.151 567.68H340.751ZM344.015 584.704C341.924 584.704 340.324 584.213 339.215 583.232C338.105 582.208 337.551 580.8 337.551 579.008C337.551 577.387 338.105 576.021 339.215 574.912C340.367 573.803 341.967 573.248 344.015 573.248C346.105 573.248 347.684 573.76 348.751 574.784C349.86 575.808 350.415 577.216 350.415 579.008C350.415 580.587 349.839 581.931 348.687 583.04C347.577 584.149 346.02 584.704 344.015 584.704ZM389.195 584L386.955 578.176L400.139 565.184C401.163 564.203 402.187 563.179 403.211 562.112C404.277 561.003 405.28 559.872 406.219 558.72C407.157 557.568 407.904 556.459 408.459 555.392C409.013 554.283 409.291 553.301 409.291 552.448C409.291 551.552 409.077 550.784 408.651 550.144C408.267 549.461 407.669 548.928 406.859 548.544C406.091 548.16 405.109 547.968 403.915 547.968C402.805 547.968 401.696 548.224 400.587 548.736C399.52 549.205 398.496 549.952 397.515 550.976C396.576 551.957 395.68 553.259 394.827 554.88L386.763 550.4C387.872 548.053 389.323 545.963 391.115 544.128C392.949 542.251 395.04 540.8 397.387 539.776C399.776 538.709 402.336 538.176 405.067 538.176C407.925 538.219 410.464 538.795 412.683 539.904C414.901 540.971 416.651 542.464 417.931 544.384C419.253 546.304 419.915 548.544 419.915 551.104C419.915 552.256 419.723 553.408 419.339 554.56C418.997 555.712 418.507 556.864 417.867 558.016C417.227 559.125 416.459 560.299 415.562 561.536C414.667 562.731 413.664 563.947 412.555 565.184C411.445 566.421 410.251 567.68 408.971 568.96L397.963 579.648L397.195 574.4H421.899V584H389.195ZM435.126 567.68C434.656 565.205 434.187 562.603 433.718 559.872C433.291 557.141 432.928 554.389 432.63 551.616C432.331 548.8 432.182 546.091 432.182 543.488V538.496H444.534V543.488C444.534 546.091 444.384 548.8 444.086 551.616C443.83 554.389 443.467 557.141 442.998 559.872C442.571 562.603 442.08 565.205 441.526 567.68H435.126ZM438.39 584.704C436.299 584.704 434.699 584.213 433.59 583.232C432.48 582.208 431.926 580.8 431.926 579.008C431.926 577.387 432.48 576.021 433.59 574.912C434.742 573.803 436.342 573.248 438.39 573.248C440.48 573.248 442.059 573.76 443.126 574.784C444.235 575.808 444.79 577.216 444.79 579.008C444.79 580.587 444.214 581.931 443.062 583.04C441.952 584.149 440.395 584.704 438.39 584.704ZM493.81 580.864V544.512L496.242 549.248L485.81 554.368L483.698 544.768L496.306 538.56H504.498V580.864H493.81ZM484.594 584V574.4H513.138V584H484.594ZM528.688 567.68C528.219 565.205 527.749 562.603 527.28 559.872C526.853 557.141 526.491 554.389 526.192 551.616C525.893 548.8 525.744 546.091 525.744 543.488V538.496H538.096V543.488C538.096 546.091 537.947 548.8 537.648 551.616C537.392 554.389 537.029 557.141 536.56 559.872C536.133 562.603 535.643 565.205 535.088 567.68H528.688ZM531.952 584.704C529.861 584.704 528.261 584.213 527.152 583.232C526.043 582.208 525.488 580.8 525.488 579.008C525.488 577.387 526.043 576.021 527.152 574.912C528.304 573.803 529.904 573.248 531.952 573.248C534.043 573.248 535.621 573.76 536.688 574.784C537.797 575.808 538.352 577.216 538.352 579.008C538.352 580.587 537.776 581.931 536.624 583.04C535.515 584.149 533.957 584.704 531.952 584.704Z" fill="white"/>
<g id="next">
<g id="Next">
<path id="Next_2" d="M1091.81 885V840.2H1101.79L1128.86 872.2L1127.01 871.88C1126.75 870.387 1126.56 868.957 1126.43 867.592C1126.3 866.227 1126.18 864.904 1126.05 863.624C1125.96 862.344 1125.88 861.064 1125.79 859.784C1125.75 858.504 1125.73 857.16 1125.73 855.752C1125.73 854.344 1125.73 852.851 1125.73 851.272V840.2H1136.29V885H1126.18L1098.08 851.976L1101.09 852.424C1101.22 853.917 1101.34 855.261 1101.47 856.456C1101.64 857.651 1101.77 858.781 1101.86 859.848C1101.98 860.872 1102.07 861.917 1102.11 862.984C1102.2 864.008 1102.26 865.096 1102.3 866.248C1102.35 867.4 1102.37 868.659 1102.37 870.024V885H1091.81ZM1168.89 885.64C1164.76 885.64 1161.13 884.893 1158.01 883.4C1154.94 881.864 1152.55 879.795 1150.85 877.192C1149.14 874.547 1148.29 871.539 1148.29 868.168C1148.29 865.48 1148.78 863.048 1149.76 860.872C1150.74 858.696 1152.11 856.819 1153.85 855.24C1155.6 853.661 1157.65 852.445 1160 851.592C1162.35 850.739 1164.88 850.312 1167.61 850.312C1170.26 850.312 1172.69 850.739 1174.91 851.592C1177.13 852.403 1179.05 853.576 1180.67 855.112C1182.33 856.648 1183.61 858.461 1184.51 860.552C1185.41 862.643 1185.81 864.947 1185.73 867.464L1185.66 870.344H1155.01L1153.53 864.392H1177.34L1176.25 865.672V864.392C1176.13 863.325 1175.66 862.365 1174.85 861.512C1174.08 860.659 1173.08 859.997 1171.84 859.528C1170.6 859.016 1169.24 858.76 1167.74 858.76C1165.82 858.76 1164.12 859.08 1162.62 859.72C1161.13 860.317 1159.96 861.256 1159.1 862.536C1158.29 863.816 1157.89 865.437 1157.89 867.4C1157.89 869.277 1158.38 870.92 1159.36 872.328C1160.38 873.736 1161.81 874.845 1163.65 875.656C1165.52 876.467 1167.72 876.872 1170.24 876.872C1172.41 876.872 1174.23 876.616 1175.68 876.104C1177.17 875.549 1178.52 874.867 1179.71 874.056L1184.32 880.712C1182.91 881.779 1181.35 882.696 1179.65 883.464C1177.98 884.189 1176.23 884.723 1174.4 885.064C1172.61 885.448 1170.77 885.64 1168.89 885.64ZM1222.57 885L1213.16 872.776L1210.54 869.32L1195.63 851.016H1208.56L1217 862.216L1219.82 865.928L1235.37 885H1222.57ZM1194.8 885L1210.03 865.8L1216.24 872.136L1207.53 885H1194.8ZM1219.76 870.216L1213.74 863.816L1222.32 851.016H1234.99L1219.76 870.216ZM1251.39 885V841.672H1261.63V885H1251.39ZM1243.84 859.976V851.016H1270.27V859.976H1243.84Z" fill="white"/>
</g>
<path id="Arrow 1" d="M1085 889.5C1080.31 889.5 1076.5 893.306 1076.5 898C1076.5 902.694 1080.31 906.5 1085 906.5V898V889.5ZM1362 898L1277 848.925V947.075L1362 898ZM1085 898V906.5H1285.5V898V889.5H1085V898Z" fill="#EF1044"/>
</g>
</g>
<defs>
<filter id="filter0_d_147_123" x="1046" y="362" width="126" height="206" filterUnits="userSpaceOnUse" color-interpolation-filters="sRGB">
<feFlood flood-opacity="0" result="BackgroundImageFix"/>
<feColorMatrix in="SourceAlpha" type="matrix" values="0 0 0 0 0 0 0 0 0 0 0 0 0 0 0 0 0 0 127 0" result="hardAlpha"/>
<feOffset dy="4"/>
<feGaussianBlur stdDeviation="2"/>
<feComposite in2="hardAlpha" operator="out"/>
<feColorMatrix type="matrix" values="0 0 0 0 0 0 0 0 0 0 0 0 0 0 0 0 0 0 0.25 0"/>
<feBlend mode="normal" in2="BackgroundImageFix" result="effect1_dropShadow_147_123"/>
<feBlend mode="normal" in="SourceGraphic" in2="effect1_dropShadow_147_123" result="shape"/>
</filter>
<filter id="filter1_d_147_123" x="232" y="622" width="108" height="176" filterUnits="userSpaceOnUse" color-interpolation-filters="sRGB">
<feFlood flood-opacity="0" result="BackgroundImageFix"/>
<feColorMatrix in="SourceAlpha" type="matrix" values="0 0 0 0 0 0 0 0 0 0 0 0 0 0 0 0 0 0 127 0" result="hardAlpha"/>
<feOffset dy="4"/>
<feGaussianBlur stdDeviation="2"/>
<feComposite in2="hardAlpha" operator="out"/>
<feColorMatrix type="matrix" values="0 0 0 0 0 0 0 0 0 0 0 0 0 0 0 0 0 0 0.25 0"/>
<feBlend mode="normal" in2="BackgroundImageFix" result="effect1_dropShadow_147_123"/>
<feBlend mode="normal" in="SourceGraphic" in2="effect1_dropShadow_147_123" result="shape"/>
</filter>
<filter id="filter2_d_147_123" x="466" y="622" width="109" height="176" filterUnits="userSpaceOnUse" color-interpolation-filters="sRGB">
<feFlood flood-opacity="0" result="BackgroundImageFix"/>
<feColorMatrix in="SourceAlpha" type="matrix" values="0 0 0 0 0 0 0 0 0 0 0 0 0 0 0 0 0 0 127 0" result="hardAlpha"/>
<feOffset dy="4"/>
<feGaussianBlur stdDeviation="2"/>
<feComposite in2="hardAlpha" operator="out"/>
<feColorMatrix type="matrix" values="0 0 0 0 0 0 0 0 0 0 0 0 0 0 0 0 0 0 0.25 0"/>
<feBlend mode="normal" in2="BackgroundImageFix" result="effect1_dropShadow_147_123"/>
<feBlend mode="normal" in="SourceGraphic" in2="effect1_dropShadow_147_123" result="shape"/>
</filter>
<filter id="filter3_d_147_123" x="349" y="622" width="109" height="176" filterUnits="userSpaceOnUse" color-interpolation-filters="sRGB">
<feFlood flood-opacity="0" result="BackgroundImageFix"/>
<feColorMatrix in="SourceAlpha" type="matrix" values="0 0 0 0 0 0 0 0 0 0 0 0 0 0 0 0 0 0 127 0" result="hardAlpha"/>
<feOffset dy="4"/>
<feGaussianBlur stdDeviation="2"/>
<feComposite in2="hardAlpha" operator="out"/>
<feColorMatrix type="matrix" values="0 0 0 0 0 0 0 0 0 0 0 0 0 0 0 0 0 0 0.25 0"/>
<feBlend mode="normal" in2="BackgroundImageFix" result="effect1_dropShadow_147_123"/>
<feBlend mode="normal" in="SourceGraphic" in2="effect1_dropShadow_147_123" result="shape"/>
</filter>
<filter id="filter4_d_147_123" x="584" y="622" width="108" height="176" filterUnits="userSpaceOnUse" color-interpolation-filters="sRGB">
<feFlood flood-opacity="0" result="BackgroundImageFix"/>
<feColorMatrix in="SourceAlpha" type="matrix" values="0 0 0 0 0 0 0 0 0 0 0 0 0 0 0 0 0 0 127 0" result="hardAlpha"/>
<feOffset dy="4"/>
<feGaussianBlur stdDeviation="2"/>
<feComposite in2="hardAlpha" operator="out"/>
<feColorMatrix type="matrix" values="0 0 0 0 0 0 0 0 0 0 0 0 0 0 0 0 0 0 0.25 0"/>
<feBlend mode="normal" in2="BackgroundImageFix" result="effect1_dropShadow_147_123"/>
<feBlend mode="normal" in="SourceGraphic" in2="effect1_dropShadow_147_123" result="shape"/>
</filter>
<filter id="filter5_d_147_123" x="126" y="645" width="126" height="206" filterUnits="userSpaceOnUse" color-interpolation-filters="sRGB">
<feFlood flood-opacity="0" result="BackgroundImageFix"/>
<feColorMatrix in="SourceAlpha" type="matrix" values="0 0 0 0 0 0 0 0 0 0 0 0 0 0 0 0 0 0 127 0" result="hardAlpha"/>
<feOffset dy="4"/>
<feGaussianBlur stdDeviation="2"/>
<feComposite in2="hardAlpha" operator="out"/>
<feColorMatrix type="matrix" values="0 0 0 0 0 0 0 0 0 0 0 0 0 0 0 0 0 0 0.25 0"/>
<feBlend mode="normal" in2="BackgroundImageFix" result="effect1_dropShadow_147_123"/>
<feBlend mode="normal" in="SourceGraphic" in2="effect1_dropShadow_147_123" result="shape"/>
</filter>
<filter id="filter6_d_147_123" x="402" y="645" width="126" height="206" filterUnits="userSpaceOnUse" color-interpolation-filters="sRGB">
<feFlood flood-opacity="0" result="BackgroundImageFix"/>
<feColorMatrix in="SourceAlpha" type="matrix" values="0 0 0 0 0 0 0 0 0 0 0 0 0 0 0 0 0 0 127 0" result="hardAlpha"/>
<feOffset dy="4"/>
<feGaussianBlur stdDeviation="2"/>
<feComposite in2="hardAlpha" operator="out"/>
<feColorMatrix type="matrix" values="0 0 0 0 0 0 0 0 0 0 0 0 0 0 0 0 0 0 0.25 0"/>
<feBlend mode="normal" in2="BackgroundImageFix" result="effect1_dropShadow_147_123"/>
<feBlend mode="normal" in="SourceGraphic" in2="effect1_dropShadow_147_123" result="shape"/>
</filter>
<filter id="filter7_d_147_123" x="264" y="645" width="126" height="206" filterUnits="userSpaceOnUse" color-interpolation-filters="sRGB">
<feFlood flood-opacity="0" result="BackgroundImageFix"/>
<feColorMatrix in="SourceAlpha" type="matrix" values="0 0 0 0 0 0 0 0 0 0 0 0 0 0 0 0 0 0 127 0" result="hardAlpha"/>
<feOffset dy="4"/>
<feGaussianBlur stdDeviation="2"/>
<feComposite in2="hardAlpha" operator="out"/>
<feColorMatrix type="matrix" values="0 0 0 0 0 0 0 0 0 0 0 0 0 0 0 0 0 0 0.25 0"/>
<feBlend mode="normal" in2="BackgroundImageFix" result="effect1_dropShadow_147_123"/>
<feBlend mode="normal" in="SourceGraphic" in2="effect1_dropShadow_147_123" result="shape"/>
</filter>
<filter id="filter8_d_147_123" x="322" y="691" width="126" height="206" filterUnits="userSpaceOnUse" color-interpolation-filters="sRGB">
<feFlood flood-opacity="0" result="BackgroundImageFix"/>
<feColorMatrix in="SourceAlpha" type="matrix" values="0 0 0 0 0 0 0 0 0 0 0 0 0 0 0 0 0 0 127 0" result="hardAlpha"/>
<feOffset dy="4"/>
<feGaussianBlur stdDeviation="2"/>
<feComposite in2="hardAlpha" operator="out"/>
<feColorMatrix type="matrix" values="0 0 0 0 0 0 0 0 0 0 0 0 0 0 0 0 0 0 0.25 0"/>
<feBlend mode="normal" in2="BackgroundImageFix" result="effect1_dropShadow_147_123"/>
<feBlend mode="normal" in="SourceGraphic" in2="effect1_dropShadow_147_123" result="shape"/>
</filter>
<filter id="filter9_d_147_123" x="540" y="645" width="126" height="206" filterUnits="userSpaceOnUse" color-interpolation-filters="sRGB">
<feFlood flood-opacity="0" result="BackgroundImageFix"/>
<feColorMatrix in="SourceAlpha" type="matrix" values="0 0 0 0 0 0 0 0 0 0 0 0 0 0 0 0 0 0 127 0" result="hardAlpha"/>
<feOffset dy="4"/>
<feGaussianBlur stdDeviation="2"/>
<feComposite in2="hardAlpha" operator="out"/>
<feColorMatrix type="matrix" values="0 0 0 0 0 0 0 0 0 0 0 0 0 0 0 0 0 0 0.25 0"/>
<feBlend mode="normal" in2="BackgroundImageFix" result="effect1_dropShadow_147_123"/>
<feBlend mode="normal" in="SourceGraphic" in2="effect1_dropShadow_147_123" result="shape"/>
</filter>
<filter id="filter10_d_147_123" x="184" y="691" width="126" height="206" filterUnits="userSpaceOnUse" color-interpolation-filters="sRGB">
<feFlood flood-opacity="0" result="BackgroundImageFix"/>
<feColorMatrix in="SourceAlpha" type="matrix" values="0 0 0 0 0 0 0 0 0 0 0 0 0 0 0 0 0 0 127 0" result="hardAlpha"/>
<feOffset dy="4"/>
<feGaussianBlur stdDeviation="2"/>
<feComposite in2="hardAlpha" operator="out"/>
<feColorMatrix type="matrix" values="0 0 0 0 0 0 0 0 0 0 0 0 0 0 0 0 0 0 0.25 0"/>
<feBlend mode="normal" in2="BackgroundImageFix" result="effect1_dropShadow_147_123"/>
<feBlend mode="normal" in="SourceGraphic" in2="effect1_dropShadow_147_123" result="shape"/>
</filter>
<filter id="filter11_d_147_123" x="460" y="691" width="126" height="206" filterUnits="userSpaceOnUse" color-interpolation-filters="sRGB">
<feFlood flood-opacity="0" result="BackgroundImageFix"/>
<feColorMatrix in="SourceAlpha" type="matrix" values="0 0 0 0 0 0 0 0 0 0 0 0 0 0 0 0 0 0 127 0" result="hardAlpha"/>
<feOffset dy="4"/>
<feGaussianBlur stdDeviation="2"/>
<feComposite in2="hardAlpha" operator="out"/>
<feColorMatrix type="matrix" values="0 0 0 0 0 0 0 0 0 0 0 0 0 0 0 0 0 0 0.25 0"/>
<feBlend mode="normal" in2="BackgroundImageFix" result="effect1_dropShadow_147_123"/>
<feBlend mode="normal" in="SourceGraphic" in2="effect1_dropShadow_147_123" result="shape"/>
</filter>
<filter id="filter12_d_147_123" x="598" y="691" width="126" height="206" filterUnits="userSpaceOnUse" color-interpolation-filters="sRGB">
<feFlood flood-opacity="0" result="BackgroundImageFix"/>
<feColorMatrix in="SourceAlpha" type="matrix" values="0 0 0 0 0 0 0 0 0 0 0 0 0 0 0 0 0 0 127 0" result="hardAlpha"/>
<feOffset dy="4"/>
<feGaussianBlur stdDeviation="2"/>
<feComposite in2="hardAlpha" operator="out"/>
<feColorMatrix type="matrix" values="0 0 0 0 0 0 0 0 0 0 0 0 0 0 0 0 0 0 0.25 0"/>
<feBlend mode="normal" in2="BackgroundImageFix" result="effect1_dropShadow_147_123"/>
<feBlend mode="normal" in="SourceGraphic" in2="effect1_dropShadow_147_123" result="shape"/>
</filter>
<clipPath id="clip0_147_123">
<rect width="1440" height="1024" fill="white"/>
</clipPath>
</defs>
</svg>
