<svg width="1440" height="1024" viewBox="0 0 1440 1024" fill="none" xmlns="http://www.w3.org/2000/svg">
<g id="enterrocket2-yes" clip-path="url(#clip0_110_508)">
<rect width="1440" height="1024" fill="#333148"/>
<rect id="Rectangle 27" width="1440" height="1024" fill="#211F2F"/>
<path id="part 5" d="M47.096 132.12V60.024H61.688L62.264 71.448L59.384 70.584C59.832 68.536 61.048 66.648 63.032 64.92C65.016 63.192 67.512 61.784 70.52 60.696C73.592 59.608 76.856 59.064 80.312 59.064C85.304 59.064 89.688 60.216 93.464 62.52C97.24 64.76 100.184 67.864 102.296 71.832C104.472 75.736 105.56 80.28 105.56 85.464C105.56 90.584 104.472 95.128 102.296 99.096C100.184 103.064 97.208 106.2 93.368 108.504C89.528 110.744 85.112 111.864 80.12 111.864C76.664 111.864 73.432 111.288 70.424 110.136C67.416 108.984 64.888 107.48 62.84 105.624C60.856 103.768 59.576 101.816 59 99.768L62.552 98.424V132.12H47.096ZM76.376 98.904C79.256 98.904 81.752 98.36 83.864 97.272C85.976 96.12 87.608 94.552 88.76 92.568C89.976 90.584 90.584 88.216 90.584 85.464C90.584 82.776 89.976 80.44 88.76 78.456C87.608 76.408 85.976 74.84 83.864 73.752C81.816 72.6 79.32 72.024 76.376 72.024C73.496 72.024 70.968 72.568 68.792 73.656C66.68 74.744 65.016 76.312 63.8 78.36C62.648 80.408 62.072 82.776 62.072 85.464C62.072 88.216 62.648 90.584 63.8 92.568C65.016 94.552 66.68 96.12 68.792 97.272C70.968 98.36 73.496 98.904 76.376 98.904ZM144.211 111.864C139.155 111.864 134.739 110.744 130.963 108.504C127.187 106.264 124.211 103.16 122.035 99.192C119.923 95.16 118.867 90.584 118.867 85.464C118.867 80.28 119.955 75.704 122.131 71.736C124.307 67.768 127.315 64.664 131.155 62.424C135.059 60.12 139.539 58.968 144.595 58.968C147.475 58.968 150.131 59.352 152.563 60.12C154.995 60.824 157.107 61.816 158.899 63.096C160.755 64.376 162.259 65.784 163.411 67.32C164.627 68.856 165.427 70.456 165.811 72.12H162.451V60.024H177.619V111H162.163V97.944L165.427 98.424C165.043 100.088 164.243 101.72 163.027 103.32C161.811 104.92 160.243 106.36 158.323 107.64C156.403 108.92 154.227 109.944 151.795 110.712C149.427 111.48 146.899 111.864 144.211 111.864ZM148.339 98.904C151.219 98.904 153.715 98.36 155.827 97.272C158.003 96.184 159.667 94.648 160.819 92.664C162.035 90.616 162.643 88.216 162.643 85.464C162.643 82.776 162.035 80.44 160.819 78.456C159.667 76.408 158.003 74.808 155.827 73.656C153.715 72.504 151.219 71.928 148.339 71.928C145.459 71.928 142.963 72.504 140.851 73.656C138.739 74.808 137.075 76.408 135.859 78.456C134.707 80.44 134.131 82.776 134.131 85.464C134.131 88.216 134.707 90.616 135.859 92.664C137.075 94.648 138.739 96.184 140.851 97.272C142.963 98.36 145.459 98.904 148.339 98.904ZM201.315 111V60.024H215.907L216.579 77.592L212.931 75.768C213.763 72.632 215.203 69.816 217.251 67.32C219.363 64.76 221.763 62.744 224.451 61.272C227.203 59.736 230.115 58.968 233.187 58.968C234.851 58.968 236.419 59.128 237.891 59.448C239.427 59.768 240.739 60.184 241.827 60.696L237.603 77.496C236.643 76.792 235.331 76.248 233.667 75.864C232.067 75.48 230.435 75.288 228.771 75.288C226.915 75.288 225.219 75.608 223.683 76.248C222.211 76.824 220.963 77.656 219.939 78.744C218.915 79.768 218.115 80.952 217.539 82.296C217.027 83.64 216.771 85.08 216.771 86.616V111H201.315ZM265.932 111V46.008H281.292V111H265.932ZM254.604 73.464V60.024H294.252V73.464H254.604ZM370.984 111.672C365.736 111.672 360.904 110.648 356.488 108.6C352.072 106.552 348.392 103.768 345.448 100.248L354.088 90.168C356.712 92.792 359.368 94.744 362.056 96.024C364.744 97.24 367.56 97.848 370.504 97.848C372.936 97.848 375.048 97.432 376.84 96.6C378.696 95.704 380.136 94.488 381.16 92.952C382.248 91.416 382.792 89.688 382.792 87.768C382.792 85.784 382.248 84.056 381.16 82.584C380.136 81.048 378.696 79.832 376.84 78.936C375.048 78.04 372.968 77.592 370.6 77.592C368.552 77.592 366.664 77.784 364.936 78.168C363.208 78.552 361.608 79.064 360.136 79.704C358.664 80.344 357.192 81.08 355.72 81.912L348.808 72.888L352.936 43.224H393.064V56.952H360.712L364.936 51.576L361.768 72.888L356.008 70.968C357.288 69.88 358.888 68.92 360.808 68.088C362.728 67.256 364.808 66.584 367.048 66.072C369.352 65.496 371.624 65.208 373.864 65.208C378.344 65.208 382.376 66.168 385.96 68.088C389.544 70.008 392.392 72.696 394.504 76.152C396.68 79.608 397.768 83.608 397.768 88.152C397.768 92.568 396.584 96.568 394.216 100.152C391.848 103.672 388.648 106.488 384.616 108.6C380.648 110.648 376.104 111.672 370.984 111.672Z" fill="white"/>
<rect id="Rectangle 26" x="947.802" y="242.691" width="97.6614" height="148.723" rx="25" transform="rotate(28.9671 947.802 242.691)" fill="#C63B3B"/>
<path id="Polygon 2" d="M878.695 321.285C889.941 313.449 904.295 325.689 897.925 337.684L888.734 354.992C884.805 362.389 874.861 364.254 868.458 358.794L861.423 352.794C855.02 347.334 855.533 337.426 862.468 332.593L878.695 321.285Z" fill="#3E5068"/>
<path id="Polygon 3" d="M1004.22 390.774C1004.89 377.083 986.901 371.418 980.118 383.184L970.33 400.161C966.146 407.417 969.845 416.835 977.872 419.362L986.692 422.139C994.718 424.666 1002.84 418.972 1003.26 410.528L1004.22 390.774Z" fill="#3E5068"/>
<path id="Polygon 5" d="M941.758 382.567C945.351 369.427 928.882 360.31 919.655 370.332L906.153 384.995C900.448 391.192 902.051 401.095 909.421 405.174L917.664 409.737C925.033 413.817 934.277 409.918 936.499 401.793L941.758 382.567Z" fill="#3E5068"/>
<path id="Polygon 4" d="M1003.29 221.666C1011.25 218.007 1020.48 223.116 1021.61 231.807L1028.56 285.398C1029.93 295.968 1018.69 303.606 1009.37 298.443L953.315 267.415C943.989 262.253 944.498 248.679 954.183 244.229L1003.29 221.666Z" fill="#3E5068"/>
<path id="Vector 18" d="M409.688 1157.04C364.021 1043.54 213.688 785.336 -22.3118 660.536C-258.312 535.736 -176.312 1010.2 -105.812 1263.04L409.688 1157.04Z" fill="#3B5EC6"/>
<path id="Vector 19" d="M186.5 1052C186.5 1052 171 894 128 922C85 950 54.5 992 54.5 992C54.5 992 79 922 54.5 908.5C30 895 -56.5 960.5 -56.5 960.5L-81.5 741C-81.5 741 14.5 796 44.5 760.5C74.5 725 -56.5 640 -56.5 640L-231 861.5L11.5 1178.5L347.5 1118C347.5 1118 333 1027.5 289.5 1007.5C246 987.5 231 1073.5 231 1073.5L186.5 1052Z" fill="#83C63B"/>
</g>
<defs>
<clipPath id="clip0_110_508">
<rect width="1440" height="1024" fill="white"/>
</clipPath>
</defs>
</svg>
