<svg width="1440" height="1024" viewBox="0 0 1440 1024" fill="none" xmlns="http://www.w3.org/2000/svg">
<g id="enterrocket3-yes-end" clip-path="url(#clip0_110_538)">
<rect width="1440" height="1024" fill="#333148"/>
<rect id="Rectangle 27" width="1440" height="1024" fill="#FFA639"/>
<path id="part 5" d="M47.096 132.12V60.024H61.688L62.264 71.448L59.384 70.584C59.832 68.536 61.048 66.648 63.032 64.92C65.016 63.192 67.512 61.784 70.52 60.696C73.592 59.608 76.856 59.064 80.312 59.064C85.304 59.064 89.688 60.216 93.464 62.52C97.24 64.76 100.184 67.864 102.296 71.832C104.472 75.736 105.56 80.28 105.56 85.464C105.56 90.584 104.472 95.128 102.296 99.096C100.184 103.064 97.208 106.2 93.368 108.504C89.528 110.744 85.112 111.864 80.12 111.864C76.664 111.864 73.432 111.288 70.424 110.136C67.416 108.984 64.888 107.48 62.84 105.624C60.856 103.768 59.576 101.816 59 99.768L62.552 98.424V132.12H47.096ZM76.376 98.904C79.256 98.904 81.752 98.36 83.864 97.272C85.976 96.12 87.608 94.552 88.76 92.568C89.976 90.584 90.584 88.216 90.584 85.464C90.584 82.776 89.976 80.44 88.76 78.456C87.608 76.408 85.976 74.84 83.864 73.752C81.816 72.6 79.32 72.024 76.376 72.024C73.496 72.024 70.968 72.568 68.792 73.656C66.68 74.744 65.016 76.312 63.8 78.36C62.648 80.408 62.072 82.776 62.072 85.464C62.072 88.216 62.648 90.584 63.8 92.568C65.016 94.552 66.68 96.12 68.792 97.272C70.968 98.36 73.496 98.904 76.376 98.904ZM144.211 111.864C139.155 111.864 134.739 110.744 130.963 108.504C127.187 106.264 124.211 103.16 122.035 99.192C119.923 95.16 118.867 90.584 118.867 85.464C118.867 80.28 119.955 75.704 122.131 71.736C124.307 67.768 127.315 64.664 131.155 62.424C135.059 60.12 139.539 58.968 144.595 58.968C147.475 58.968 150.131 59.352 152.563 60.12C154.995 60.824 157.107 61.816 158.899 63.096C160.755 64.376 162.259 65.784 163.411 67.32C164.627 68.856 165.427 70.456 165.811 72.12H162.451V60.024H177.619V111H162.163V97.944L165.427 98.424C165.043 100.088 164.243 101.72 163.027 103.32C161.811 104.92 160.243 106.36 158.323 107.64C156.403 108.92 154.227 109.944 151.795 110.712C149.427 111.48 146.899 111.864 144.211 111.864ZM148.339 98.904C151.219 98.904 153.715 98.36 155.827 97.272C158.003 96.184 159.667 94.648 160.819 92.664C162.035 90.616 162.643 88.216 162.643 85.464C162.643 82.776 162.035 80.44 160.819 78.456C159.667 76.408 158.003 74.808 155.827 73.656C153.715 72.504 151.219 71.928 148.339 71.928C145.459 71.928 142.963 72.504 140.851 73.656C138.739 74.808 137.075 76.408 135.859 78.456C134.707 80.44 134.131 82.776 134.131 85.464C134.131 88.216 134.707 90.616 135.859 92.664C137.075 94.648 138.739 96.184 140.851 97.272C142.963 98.36 145.459 98.904 148.339 98.904ZM201.315 111V60.024H215.907L216.579 77.592L212.931 75.768C213.763 72.632 215.203 69.816 217.251 67.32C219.363 64.76 221.763 62.744 224.451 61.272C227.203 59.736 230.115 58.968 233.187 58.968C234.851 58.968 236.419 59.128 237.891 59.448C239.427 59.768 240.739 60.184 241.827 60.696L237.603 77.496C236.643 76.792 235.331 76.248 233.667 75.864C232.067 75.48 230.435 75.288 228.771 75.288C226.915 75.288 225.219 75.608 223.683 76.248C222.211 76.824 220.963 77.656 219.939 78.744C218.915 79.768 218.115 80.952 217.539 82.296C217.027 83.64 216.771 85.08 216.771 86.616V111H201.315ZM265.932 111V46.008H281.292V111H265.932ZM254.604 73.464V60.024H294.252V73.464H254.604ZM370.984 111.672C365.736 111.672 360.904 110.648 356.488 108.6C352.072 106.552 348.392 103.768 345.448 100.248L354.088 90.168C356.712 92.792 359.368 94.744 362.056 96.024C364.744 97.24 367.56 97.848 370.504 97.848C372.936 97.848 375.048 97.432 376.84 96.6C378.696 95.704 380.136 94.488 381.16 92.952C382.248 91.416 382.792 89.688 382.792 87.768C382.792 85.784 382.248 84.056 381.16 82.584C380.136 81.048 378.696 79.832 376.84 78.936C375.048 78.04 372.968 77.592 370.6 77.592C368.552 77.592 366.664 77.784 364.936 78.168C363.208 78.552 361.608 79.064 360.136 79.704C358.664 80.344 357.192 81.08 355.72 81.912L348.808 72.888L352.936 43.224H393.064V56.952H360.712L364.936 51.576L361.768 72.888L356.008 70.968C357.288 69.88 358.888 68.92 360.808 68.088C362.728 67.256 364.808 66.584 367.048 66.072C369.352 65.496 371.624 65.208 373.864 65.208C378.344 65.208 382.376 66.168 385.96 68.088C389.544 70.008 392.392 72.696 394.504 76.152C396.68 79.608 397.768 83.608 397.768 88.152C397.768 92.568 396.584 96.568 394.216 100.152C391.848 103.672 388.648 106.488 384.616 108.6C380.648 110.648 376.104 111.672 370.984 111.672Z" fill="white"/>
<rect id="Rectangle 7" x="-133" y="546" width="1642" height="583" fill="#EC5E41"/>
<g id="Group 4">
<g id="Vector" filter="url(#filter0_d_110_538)">
<path d="M781.246 546.996C786.515 523.672 819.714 523.672 824.983 546.996L833.541 584.874C836.712 598.912 826.05 612.267 811.672 612.267H794.557C780.179 612.267 769.517 598.912 772.688 584.874L781.246 546.996Z" fill="#3B5EC6"/>
<path d="M826.816 496.046C826.816 509.326 816.061 520.092 802.794 520.092C789.527 520.092 778.772 509.326 778.772 496.046C778.772 482.766 789.527 472 802.794 472C816.061 472 826.816 482.766 826.816 496.046Z" fill="#3B5EC6"/>
<path d="M807.599 600.565C807.599 594.013 812.904 588.702 819.45 588.702C825.995 588.702 831.3 594.013 831.3 600.565V628.137C831.3 634.689 825.995 640 819.45 640C812.904 640 807.599 634.689 807.599 628.137V600.565Z" fill="#3B5EC6"/>
<path d="M816.867 554.609C813.517 548.981 815.36 541.7 820.982 538.347C826.605 534.993 833.879 536.837 837.229 542.466L851.328 566.153C854.678 571.781 852.836 579.062 847.213 582.415C841.59 585.769 834.316 583.925 830.966 578.296L816.867 554.609Z" fill="#3B5EC6"/>
<path d="M768.362 542.548C771.635 536.874 778.883 534.93 784.551 538.206C790.219 541.482 792.161 548.737 788.889 554.411L775.116 578.289C771.844 583.963 764.596 585.907 758.927 582.631C753.259 579.355 751.317 572.1 754.59 566.427L768.362 542.548Z" fill="#3B5EC6"/>
<path d="M774.288 600.565C774.288 594.013 779.594 588.702 786.139 588.702C792.684 588.702 797.99 594.013 797.99 600.565V628.137C797.99 634.689 792.684 640 786.139 640C779.594 640 774.288 634.689 774.288 628.137V600.565Z" fill="#3B5EC6"/>
</g>
<g id="Vector_2" filter="url(#filter1_d_110_538)">
<path d="M1015.53 546.996C1020.85 523.672 1054.38 523.672 1059.7 546.996L1068.35 584.874C1071.55 598.912 1060.78 612.267 1046.26 612.267H1028.97C1014.45 612.267 1003.68 598.912 1006.89 584.874L1015.53 546.996Z" fill="#3B5EC6"/>
<path d="M1061.55 496.046C1061.55 509.326 1050.69 520.092 1037.29 520.092C1023.89 520.092 1013.03 509.326 1013.03 496.046C1013.03 482.766 1023.89 472 1037.29 472C1050.69 472 1061.55 482.766 1061.55 496.046Z" fill="#3B5EC6"/>
<path d="M1042.14 600.565C1042.14 594.013 1047.5 588.702 1054.11 588.702C1060.72 588.702 1066.08 594.013 1066.08 600.565V628.137C1066.08 634.689 1060.72 640 1054.11 640C1047.5 640 1042.14 634.689 1042.14 628.137V600.565Z" fill="#3B5EC6"/>
<path d="M1051.51 554.609C1048.12 548.981 1049.98 541.7 1055.66 538.347C1061.34 534.993 1068.69 536.837 1072.07 542.466L1086.31 566.153C1089.69 571.781 1087.83 579.062 1082.16 582.415C1076.48 585.769 1069.13 583.925 1065.75 578.296L1051.51 554.609Z" fill="#3B5EC6"/>
<path d="M1002.52 542.548C1005.82 536.874 1013.14 534.93 1018.87 538.206C1024.59 541.482 1026.55 548.737 1023.25 554.411L1009.34 578.289C1006.03 583.963 998.712 585.907 992.987 582.631C987.262 579.355 985.3 572.1 988.606 566.427L1002.52 542.548Z" fill="#3B5EC6"/>
<path d="M1008.5 600.565C1008.5 594.013 1013.86 588.702 1020.47 588.702C1027.08 588.702 1032.44 594.013 1032.44 600.565V628.137C1032.44 634.689 1027.08 640 1020.47 640C1013.86 640 1008.5 634.689 1008.5 628.137V600.565Z" fill="#3B5EC6"/>
</g>
<g id="Vector_3" filter="url(#filter2_d_110_538)">
<path d="M898.528 546.996C903.85 523.672 937.381 523.672 942.703 546.996L951.346 584.874C954.549 598.912 943.78 612.267 929.259 612.267H911.972C897.451 612.267 886.682 598.912 889.885 584.874L898.528 546.996Z" fill="#3B5EC6"/>
<path d="M944.555 496.046C944.555 509.326 933.692 520.092 920.292 520.092C906.892 520.092 896.03 509.326 896.03 496.046C896.03 482.766 906.892 472 920.292 472C933.692 472 944.555 482.766 944.555 496.046Z" fill="#3B5EC6"/>
<path d="M925.145 600.565C925.145 594.013 930.504 588.702 937.114 588.702C943.725 588.702 949.083 594.013 949.083 600.565V628.137C949.083 634.689 943.725 640 937.114 640C930.504 640 925.145 634.689 925.145 628.137V600.565Z" fill="#3B5EC6"/>
<path d="M934.506 554.609C931.123 548.981 932.983 541.7 938.662 538.347C944.341 534.993 951.688 536.837 955.071 542.466L969.311 566.153C972.695 571.781 970.834 579.062 965.155 582.415C959.476 585.769 952.13 583.925 948.746 578.296L934.506 554.609Z" fill="#3B5EC6"/>
<path d="M885.516 542.548C888.821 536.874 896.142 534.93 901.867 538.206C907.591 541.482 909.553 548.737 906.248 554.411L892.337 578.289C889.032 583.963 881.712 585.907 875.987 582.631C870.262 579.355 868.3 572.1 871.606 566.427L885.516 542.548Z" fill="#3B5EC6"/>
<path d="M891.501 600.565C891.501 594.013 896.86 588.702 903.47 588.702C910.081 588.702 915.44 594.013 915.44 600.565V628.137C915.44 634.689 910.081 640 903.47 640C896.86 640 891.501 634.689 891.501 628.137V600.565Z" fill="#3B5EC6"/>
</g>
<g id="Vector_4" filter="url(#filter3_d_110_538)">
<path d="M1133.25 546.996C1138.52 523.672 1171.71 523.672 1176.98 546.996L1185.54 584.874C1188.71 598.912 1178.05 612.267 1163.67 612.267H1146.56C1132.18 612.267 1121.52 598.912 1124.69 584.874L1133.25 546.996Z" fill="#3B5EC6"/>
<path d="M1178.82 496.046C1178.82 509.326 1168.06 520.092 1154.79 520.092C1141.53 520.092 1130.77 509.326 1130.77 496.046C1130.77 482.766 1141.53 472 1154.79 472C1168.06 472 1178.82 482.766 1178.82 496.046Z" fill="#3B5EC6"/>
<path d="M1159.6 600.565C1159.6 594.013 1164.9 588.702 1171.45 588.702C1177.99 588.702 1183.3 594.013 1183.3 600.565V628.137C1183.3 634.689 1177.99 640 1171.45 640C1164.9 640 1159.6 634.689 1159.6 628.137V600.565Z" fill="#3B5EC6"/>
<path d="M1168.87 554.609C1165.52 548.981 1167.36 541.7 1172.98 538.347C1178.61 534.993 1185.88 536.837 1189.23 542.466L1203.33 566.153C1206.68 571.781 1204.84 579.062 1199.21 582.415C1193.59 585.769 1186.32 583.925 1182.97 578.296L1168.87 554.609Z" fill="#3B5EC6"/>
<path d="M1120.36 542.548C1123.63 536.874 1130.88 534.93 1136.55 538.206C1142.22 541.482 1144.16 548.737 1140.89 554.411L1127.12 578.289C1123.84 583.963 1116.6 585.907 1110.93 582.631C1105.26 579.355 1103.32 572.1 1106.59 566.427L1120.36 542.548Z" fill="#3B5EC6"/>
<path d="M1126.29 600.565C1126.29 594.013 1131.59 588.702 1138.14 588.702C1144.68 588.702 1149.99 594.013 1149.99 600.565V628.137C1149.99 634.689 1144.68 640 1138.14 640C1131.59 640 1126.29 634.689 1126.29 628.137V600.565Z" fill="#3B5EC6"/>
</g>
<g id="Vector_5" filter="url(#filter4_d_110_538)">
<path d="M680.33 583.388C686.548 555.899 725.722 555.899 731.94 583.388L742.038 628.03C745.78 644.575 733.199 660.315 716.233 660.315H696.037C679.071 660.315 666.49 644.575 670.232 628.03L680.33 583.388Z" fill="#6A94E0"/>
<path d="M734.103 523.34C734.103 538.991 721.412 551.679 705.757 551.679C690.102 551.679 677.411 538.991 677.411 523.34C677.411 507.688 690.102 495 705.757 495C721.412 495 734.103 507.688 734.103 523.34Z" fill="#6A94E0"/>
<path d="M711.426 646.523C711.426 638.801 717.687 632.542 725.41 632.542C733.134 632.542 739.395 638.801 739.395 646.523V679.019C739.395 686.741 733.134 693 725.41 693C717.687 693 711.426 686.741 711.426 679.019V646.523Z" fill="#6A94E0"/>
<path d="M722.364 592.361C718.41 585.728 720.584 577.146 727.219 573.194C733.854 569.242 742.437 571.416 746.39 578.049L763.027 605.966C766.98 612.599 764.806 621.18 758.171 625.132C751.537 629.085 742.953 626.911 739 620.278L722.364 592.361Z" fill="#6A94E0"/>
<path d="M665.128 578.146C668.989 571.459 677.542 569.168 684.23 573.029C690.919 576.889 693.21 585.44 689.349 592.127L673.097 620.269C669.235 626.956 660.683 629.248 653.994 625.387C647.306 621.526 645.014 612.975 648.876 606.289L665.128 578.146Z" fill="#6A94E0"/>
<path d="M672.12 646.523C672.12 638.801 678.381 632.542 686.104 632.542C693.827 632.542 700.088 638.801 700.088 646.523V679.019C700.088 686.741 693.827 693 686.104 693C678.381 693 672.12 686.741 672.12 679.019V646.523Z" fill="#6A94E0"/>
</g>
<g id="Vector_6" filter="url(#filter5_d_110_538)">
<path d="M956.33 583.388C962.548 555.899 1001.72 555.899 1007.94 583.388L1018.04 628.03C1021.78 644.575 1009.2 660.315 992.233 660.315H972.037C955.071 660.315 942.49 644.575 946.232 628.03L956.33 583.388Z" fill="#6A94E0"/>
<path d="M1010.1 523.34C1010.1 538.991 997.412 551.679 981.757 551.679C966.102 551.679 953.411 538.991 953.411 523.34C953.411 507.688 966.102 495 981.757 495C997.412 495 1010.1 507.688 1010.1 523.34Z" fill="#6A94E0"/>
<path d="M987.426 646.523C987.426 638.801 993.687 632.542 1001.41 632.542C1009.13 632.542 1015.39 638.801 1015.39 646.523V679.019C1015.39 686.741 1009.13 693 1001.41 693C993.687 693 987.426 686.741 987.426 679.019V646.523Z" fill="#6A94E0"/>
<path d="M998.364 592.361C994.41 585.728 996.584 577.146 1003.22 573.194C1009.85 569.242 1018.44 571.416 1022.39 578.049L1039.03 605.966C1042.98 612.599 1040.81 621.18 1034.17 625.132C1027.54 629.085 1018.95 626.911 1015 620.278L998.364 592.361Z" fill="#6A94E0"/>
<path d="M941.128 578.146C944.989 571.459 953.542 569.168 960.23 573.029C966.919 576.889 969.21 585.44 965.349 592.127L949.097 620.269C945.235 626.956 936.683 629.248 929.994 625.387C923.306 621.526 921.014 612.975 924.876 606.289L941.128 578.146Z" fill="#6A94E0"/>
<path d="M948.12 646.523C948.12 638.801 954.381 632.542 962.104 632.542C969.827 632.542 976.088 638.801 976.088 646.523V679.019C976.088 686.741 969.827 693 962.104 693C954.381 693 948.12 686.741 948.12 679.019V646.523Z" fill="#6A94E0"/>
</g>
<g id="Vector_7" filter="url(#filter6_d_110_538)">
<path d="M818.33 583.388C824.548 555.899 863.722 555.899 869.94 583.388L880.038 628.03C883.78 644.575 871.199 660.315 854.233 660.315H834.037C817.071 660.315 804.49 644.575 808.232 628.03L818.33 583.388Z" fill="#6A94E0"/>
<path d="M872.103 523.34C872.103 538.991 859.412 551.679 843.757 551.679C828.102 551.679 815.411 538.991 815.411 523.34C815.411 507.688 828.102 495 843.757 495C859.412 495 872.103 507.688 872.103 523.34Z" fill="#6A94E0"/>
<path d="M849.426 646.523C849.426 638.801 855.687 632.542 863.41 632.542C871.134 632.542 877.395 638.801 877.395 646.523V679.019C877.395 686.741 871.134 693 863.41 693C855.687 693 849.426 686.741 849.426 679.019V646.523Z" fill="#6A94E0"/>
<path d="M860.364 592.361C856.41 585.728 858.584 577.146 865.219 573.194C871.854 569.242 880.437 571.416 884.39 578.049L901.027 605.966C904.98 612.599 902.806 621.18 896.171 625.132C889.537 629.085 880.953 626.911 877 620.278L860.364 592.361Z" fill="#6A94E0"/>
<path d="M803.128 578.146C806.989 571.459 815.542 569.168 822.23 573.029C828.919 576.889 831.21 585.44 827.349 592.127L811.097 620.269C807.235 626.956 798.683 629.248 791.994 625.387C785.306 621.526 783.014 612.975 786.876 606.289L803.128 578.146Z" fill="#6A94E0"/>
<path d="M810.12 646.523C810.12 638.801 816.381 632.542 824.104 632.542C831.827 632.542 838.088 638.801 838.088 646.523V679.019C838.088 686.741 831.827 693 824.104 693C816.381 693 810.12 686.741 810.12 679.019V646.523Z" fill="#6A94E0"/>
</g>
<g id="Vector_8" filter="url(#filter7_d_110_538)">
<path d="M876.33 629.388C882.548 601.899 921.722 601.899 927.94 629.388L938.038 674.03C941.78 690.575 929.199 706.315 912.233 706.315H892.037C875.071 706.315 862.49 690.575 866.232 674.03L876.33 629.388Z" fill="#8DBBFB"/>
<path d="M930.103 569.34C930.103 584.991 917.412 597.679 901.757 597.679C886.102 597.679 873.411 584.991 873.411 569.34C873.411 553.688 886.102 541 901.757 541C917.412 541 930.103 553.688 930.103 569.34Z" fill="#8DBBFB"/>
<path d="M907.426 692.523C907.426 684.801 913.687 678.542 921.41 678.542C929.134 678.542 935.395 684.801 935.395 692.523V725.019C935.395 732.741 929.134 739 921.41 739C913.687 739 907.426 732.741 907.426 725.019V692.523Z" fill="#8DBBFB"/>
<path d="M918.364 638.361C914.41 631.728 916.584 623.146 923.219 619.194C929.854 615.242 938.437 617.416 942.39 624.049L959.027 651.966C962.98 658.599 960.806 667.18 954.171 671.132C947.537 675.085 938.953 672.911 935 666.278L918.364 638.361Z" fill="#8DBBFB"/>
<path d="M861.128 624.146C864.989 617.459 873.542 615.168 880.23 619.029C886.919 622.889 889.21 631.44 885.349 638.127L869.097 666.269C865.235 672.956 856.683 675.248 849.994 671.387C843.306 667.526 841.014 658.975 844.876 652.289L861.128 624.146Z" fill="#8DBBFB"/>
<path d="M868.12 692.523C868.12 684.801 874.381 678.542 882.104 678.542C889.827 678.542 896.088 684.801 896.088 692.523V725.019C896.088 732.741 889.827 739 882.104 739C874.381 739 868.12 732.741 868.12 725.019V692.523Z" fill="#8DBBFB"/>
</g>
<g id="Vector_9" filter="url(#filter8_d_110_538)">
<path d="M1094.33 583.388C1100.55 555.899 1139.72 555.899 1145.94 583.388L1156.04 628.03C1159.78 644.575 1147.2 660.315 1130.23 660.315H1110.04C1093.07 660.315 1080.49 644.575 1084.23 628.03L1094.33 583.388Z" fill="#6A94E0"/>
<path d="M1148.1 523.34C1148.1 538.991 1135.41 551.679 1119.76 551.679C1104.1 551.679 1091.41 538.991 1091.41 523.34C1091.41 507.688 1104.1 495 1119.76 495C1135.41 495 1148.1 507.688 1148.1 523.34Z" fill="#6A94E0"/>
<path d="M1125.43 646.523C1125.43 638.801 1131.69 632.542 1139.41 632.542C1147.13 632.542 1153.39 638.801 1153.39 646.523V679.019C1153.39 686.741 1147.13 693 1139.41 693C1131.69 693 1125.43 686.741 1125.43 679.019V646.523Z" fill="#6A94E0"/>
<path d="M1136.36 592.361C1132.41 585.728 1134.58 577.146 1141.22 573.194C1147.85 569.242 1156.44 571.416 1160.39 578.049L1177.03 605.966C1180.98 612.599 1178.81 621.18 1172.17 625.132C1165.54 629.085 1156.95 626.911 1153 620.278L1136.36 592.361Z" fill="#6A94E0"/>
<path d="M1079.13 578.146C1082.99 571.459 1091.54 569.168 1098.23 573.029C1104.92 576.889 1107.21 585.44 1103.35 592.127L1087.1 620.269C1083.24 626.956 1074.68 629.248 1067.99 625.387C1061.31 621.526 1059.01 612.975 1062.88 606.289L1079.13 578.146Z" fill="#6A94E0"/>
<path d="M1086.12 646.523C1086.12 638.801 1092.38 632.542 1100.1 632.542C1107.83 632.542 1114.09 638.801 1114.09 646.523V679.019C1114.09 686.741 1107.83 693 1100.1 693C1092.38 693 1086.12 686.741 1086.12 679.019V646.523Z" fill="#6A94E0"/>
</g>
<g id="Vector_10" filter="url(#filter9_d_110_538)">
<path d="M738.33 629.388C744.548 601.899 783.722 601.899 789.94 629.388L800.038 674.03C803.78 690.575 791.199 706.315 774.233 706.315H754.037C737.071 706.315 724.49 690.575 728.232 674.03L738.33 629.388Z" fill="#8DBBFB"/>
<path d="M792.103 569.34C792.103 584.991 779.412 597.679 763.757 597.679C748.102 597.679 735.411 584.991 735.411 569.34C735.411 553.688 748.102 541 763.757 541C779.412 541 792.103 553.688 792.103 569.34Z" fill="#8DBBFB"/>
<path d="M769.426 692.523C769.426 684.801 775.687 678.542 783.41 678.542C791.134 678.542 797.395 684.801 797.395 692.523V725.019C797.395 732.741 791.134 739 783.41 739C775.687 739 769.426 732.741 769.426 725.019V692.523Z" fill="#8DBBFB"/>
<path d="M780.364 638.361C776.41 631.728 778.584 623.146 785.219 619.194C791.854 615.242 800.437 617.416 804.39 624.049L821.027 651.966C824.98 658.599 822.806 667.18 816.171 671.132C809.537 675.085 800.953 672.911 797 666.278L780.364 638.361Z" fill="#8DBBFB"/>
<path d="M723.128 624.146C726.989 617.459 735.542 615.168 742.23 619.029C748.919 622.889 751.21 631.44 747.349 638.127L731.097 666.269C727.235 672.956 718.683 675.248 711.994 671.387C705.306 667.526 703.014 658.975 706.876 652.289L723.128 624.146Z" fill="#8DBBFB"/>
<path d="M730.12 692.523C730.12 684.801 736.381 678.542 744.104 678.542C751.827 678.542 758.088 684.801 758.088 692.523V725.019C758.088 732.741 751.827 739 744.104 739C736.381 739 730.12 732.741 730.12 725.019V692.523Z" fill="#8DBBFB"/>
</g>
<g id="Vector_11" filter="url(#filter10_d_110_538)">
<path d="M1014.33 629.388C1020.55 601.899 1059.72 601.899 1065.94 629.388L1076.04 674.03C1079.78 690.575 1067.2 706.315 1050.23 706.315H1030.04C1013.07 706.315 1000.49 690.575 1004.23 674.03L1014.33 629.388Z" fill="#8DBBFB"/>
<path d="M1068.1 569.34C1068.1 584.991 1055.41 597.679 1039.76 597.679C1024.1 597.679 1011.41 584.991 1011.41 569.34C1011.41 553.688 1024.1 541 1039.76 541C1055.41 541 1068.1 553.688 1068.1 569.34Z" fill="#8DBBFB"/>
<path d="M1045.43 692.523C1045.43 684.801 1051.69 678.542 1059.41 678.542C1067.13 678.542 1073.39 684.801 1073.39 692.523V725.019C1073.39 732.741 1067.13 739 1059.41 739C1051.69 739 1045.43 732.741 1045.43 725.019V692.523Z" fill="#8DBBFB"/>
<path d="M1056.36 638.361C1052.41 631.728 1054.58 623.146 1061.22 619.194C1067.85 615.242 1076.44 617.416 1080.39 624.049L1097.03 651.966C1100.98 658.599 1098.81 667.18 1092.17 671.132C1085.54 675.085 1076.95 672.911 1073 666.278L1056.36 638.361Z" fill="#8DBBFB"/>
<path d="M999.128 624.146C1002.99 617.459 1011.54 615.168 1018.23 619.029C1024.92 622.889 1027.21 631.44 1023.35 638.127L1007.1 666.269C1003.24 672.956 994.683 675.248 987.994 671.387C981.306 667.526 979.014 658.975 982.876 652.289L999.128 624.146Z" fill="#8DBBFB"/>
<path d="M1006.12 692.523C1006.12 684.801 1012.38 678.542 1020.1 678.542C1027.83 678.542 1034.09 684.801 1034.09 692.523V725.019C1034.09 732.741 1027.83 739 1020.1 739C1012.38 739 1006.12 732.741 1006.12 725.019V692.523Z" fill="#8DBBFB"/>
</g>
<g id="Vector_12" filter="url(#filter11_d_110_538)">
<path d="M1152.33 629.388C1158.55 601.899 1197.72 601.899 1203.94 629.388L1214.04 674.03C1217.78 690.575 1205.2 706.315 1188.23 706.315H1168.04C1151.07 706.315 1138.49 690.575 1142.23 674.03L1152.33 629.388Z" fill="#8DBBFB"/>
<path d="M1206.1 569.34C1206.1 584.991 1193.41 597.679 1177.76 597.679C1162.1 597.679 1149.41 584.991 1149.41 569.34C1149.41 553.688 1162.1 541 1177.76 541C1193.41 541 1206.1 553.688 1206.1 569.34Z" fill="#8DBBFB"/>
<path d="M1183.43 692.523C1183.43 684.801 1189.69 678.542 1197.41 678.542C1205.13 678.542 1211.39 684.801 1211.39 692.523V725.019C1211.39 732.741 1205.13 739 1197.41 739C1189.69 739 1183.43 732.741 1183.43 725.019V692.523Z" fill="#8DBBFB"/>
<path d="M1194.36 638.361C1190.41 631.728 1192.58 623.146 1199.22 619.194C1205.85 615.242 1214.44 617.416 1218.39 624.049L1235.03 651.966C1238.98 658.599 1236.81 667.18 1230.17 671.132C1223.54 675.085 1214.95 672.911 1211 666.278L1194.36 638.361Z" fill="#8DBBFB"/>
<path d="M1137.13 624.146C1140.99 617.459 1149.54 615.168 1156.23 619.029C1162.92 622.889 1165.21 631.44 1161.35 638.127L1145.1 666.269C1141.24 672.956 1132.68 675.248 1125.99 671.387C1119.31 667.526 1117.01 658.975 1120.88 652.289L1137.13 624.146Z" fill="#8DBBFB"/>
<path d="M1144.12 692.523C1144.12 684.801 1150.38 678.542 1158.1 678.542C1165.83 678.542 1172.09 684.801 1172.09 692.523V725.019C1172.09 732.741 1165.83 739 1158.1 739C1150.38 739 1144.12 732.741 1144.12 725.019V692.523Z" fill="#8DBBFB"/>
</g>
</g>
<ellipse id="Ellipse 3" cx="282" cy="614" rx="213" ry="58" fill="black" fill-opacity="0.43"/>
<rect id="Rectangle 26" x="182" y="324" width="197" height="300" rx="25" fill="#C63B3B"/>
<path id="Polygon 2" d="M161.062 480.866C167.106 468.563 185.592 472.321 185.829 485.9L187.756 596.616C187.901 604.99 180.104 611.438 171.858 609.762L120.657 599.354C112.411 597.678 108.061 588.762 111.788 581.174L161.062 480.866Z" fill="#3E5068"/>
<path id="Polygon 3" d="M401.996 480.866C395.952 468.563 377.466 472.321 377.229 485.9L375.302 596.616C375.157 604.99 382.954 611.438 391.2 609.762L442.401 599.354C450.648 597.678 454.997 588.762 451.27 581.174L401.996 480.866Z" fill="#3E5068"/>
<path id="Polygon 5" d="M295.132 523.935C291.912 510.698 273.088 510.698 269.868 523.935L243.541 632.178C241.55 640.362 247.749 648.25 256.173 648.25L308.827 648.25C317.251 648.25 323.45 640.362 321.459 632.178L295.132 523.935Z" fill="#3E5068"/>
<path id="Polygon 4" d="M264.393 225.883C272.386 215.024 288.614 215.024 296.607 225.883L373.533 330.394C383.254 343.601 373.824 362.25 357.426 362.25H203.574C187.176 362.25 177.746 343.601 187.467 330.394L264.393 225.883Z" fill="#3E5068"/>
<path id="You won!" d="M513.662 246V213.84L514.814 219.696L484.094 178.8H503.39L526.334 210.192L517.982 210L539.39 178.8H557.726L529.022 219.216L530.078 213.072V246H513.662ZM589.648 246.96C583.696 246.96 578.416 245.808 573.808 243.504C569.2 241.2 565.584 238.064 562.96 234.096C560.336 230.128 559.024 225.584 559.024 220.464C559.024 215.344 560.336 210.8 562.96 206.832C565.584 202.864 569.2 199.728 573.808 197.424C578.416 195.12 583.696 193.968 589.648 193.968C595.536 193.968 600.752 195.12 605.296 197.424C609.904 199.728 613.52 202.864 616.144 206.832C618.768 210.8 620.08 215.344 620.08 220.464C620.08 225.584 618.768 230.128 616.144 234.096C613.52 238.064 609.904 241.2 605.296 243.504C600.752 245.808 595.536 246.96 589.648 246.96ZM589.648 233.712C592.4 233.712 594.896 233.136 597.136 231.984C599.44 230.832 601.232 229.264 602.512 227.28C603.856 225.296 604.496 223.024 604.432 220.464C604.496 217.904 603.856 215.6 602.512 213.552C601.232 211.504 599.44 209.936 597.136 208.848C594.896 207.696 592.4 207.12 589.648 207.12C586.832 207.12 584.24 207.696 581.872 208.848C579.568 210 577.776 211.568 576.496 213.552C575.216 215.536 574.576 217.84 574.576 220.464C574.576 223.024 575.216 225.296 576.496 227.28C577.776 229.264 579.568 230.832 581.872 231.984C584.24 233.136 586.832 233.712 589.648 233.712ZM658.12 247.056C654.024 247.056 650.472 246.16 647.464 244.368C644.52 242.576 642.248 239.984 640.648 236.592C639.048 233.136 638.248 229.008 638.248 224.208V195.024H653.608V221.712C653.608 224.336 653.96 226.544 654.664 228.336C655.432 230.128 656.616 231.504 658.216 232.464C659.816 233.36 661.768 233.808 664.072 233.808C665.736 233.808 667.272 233.552 668.68 233.04C670.088 232.464 671.336 231.696 672.424 230.736C673.512 229.712 674.344 228.56 674.92 227.28C675.56 225.936 675.88 224.432 675.88 222.768V195.024H691.24V246H676.84L676.168 235.536L678.952 234.384C678.248 236.624 676.904 238.704 674.92 240.624C672.936 242.544 670.504 244.112 667.624 245.328C664.808 246.48 661.64 247.056 658.12 247.056ZM763.656 246L745.896 195.024H762.12L772.2 228.624L770.184 228.432L781.704 201.84H791.592L803.88 228.432L801.864 228.624L811.944 195.024H828.264L809.928 246H798.312L785.064 215.28L788.616 215.184L775.176 246H763.656ZM867.71 246.96C861.758 246.96 856.478 245.808 851.87 243.504C847.262 241.2 843.646 238.064 841.022 234.096C838.398 230.128 837.086 225.584 837.086 220.464C837.086 215.344 838.398 210.8 841.022 206.832C843.646 202.864 847.262 199.728 851.87 197.424C856.478 195.12 861.758 193.968 867.71 193.968C873.598 193.968 878.814 195.12 883.358 197.424C887.966 199.728 891.582 202.864 894.206 206.832C896.83 210.8 898.142 215.344 898.142 220.464C898.142 225.584 896.83 230.128 894.206 234.096C891.582 238.064 887.966 241.2 883.358 243.504C878.814 245.808 873.598 246.96 867.71 246.96ZM867.71 233.712C870.462 233.712 872.958 233.136 875.198 231.984C877.502 230.832 879.294 229.264 880.574 227.28C881.918 225.296 882.558 223.024 882.494 220.464C882.558 217.904 881.918 215.6 880.574 213.552C879.294 211.504 877.502 209.936 875.198 208.848C872.958 207.696 870.462 207.12 867.71 207.12C864.894 207.12 862.302 207.696 859.934 208.848C857.63 210 855.838 211.568 854.558 213.552C853.278 215.536 852.638 217.84 852.638 220.464C852.638 223.024 853.278 225.296 854.558 227.28C855.838 229.264 857.63 230.832 859.934 231.984C862.302 233.136 864.894 233.712 867.71 233.712ZM917.174 246V195.024H931.766L932.246 206.928L928.598 207.984C929.43 205.488 930.838 203.184 932.822 201.072C934.87 198.96 937.334 197.264 940.214 195.984C943.158 194.64 946.326 193.968 949.718 193.968C954.07 193.968 957.75 194.832 960.758 196.56C963.766 198.288 966.038 200.752 967.574 203.952C969.11 207.088 969.878 210.832 969.878 215.184V246H954.422V217.392C954.422 215.152 954.006 213.264 953.174 211.728C952.406 210.192 951.222 209.008 949.622 208.176C948.086 207.344 946.294 206.928 944.246 206.928C942.454 206.928 940.822 207.248 939.35 207.888C937.942 208.464 936.726 209.264 935.702 210.288C934.678 211.248 933.878 212.336 933.302 213.552C932.79 214.768 932.534 216.016 932.534 217.296V246H924.95C922.838 246 921.142 246 919.862 246C918.582 246 917.686 246 917.174 246ZM997.329 221.52C996.625 217.808 995.921 213.904 995.217 209.808C994.577 205.712 994.033 201.584 993.585 197.424C993.137 193.2 992.913 189.136 992.913 185.232V177.744H1011.44V185.232C1011.44 189.136 1011.22 193.2 1010.77 197.424C1010.38 201.584 1009.84 205.712 1009.14 209.808C1008.5 213.904 1007.76 217.808 1006.93 221.52H997.329ZM1002.22 247.056C999.089 247.056 996.689 246.32 995.025 244.848C993.361 243.312 992.529 241.2 992.529 238.512C992.529 236.08 993.361 234.032 995.025 232.368C996.753 230.704 999.153 229.872 1002.22 229.872C1005.36 229.872 1007.73 230.64 1009.33 232.176C1010.99 233.712 1011.82 235.824 1011.82 238.512C1011.82 240.88 1010.96 242.896 1009.23 244.56C1007.57 246.224 1005.23 247.056 1002.22 247.056Z" fill="white"/>
<path id="maybe not in the way you planned..." d="M480.928 294V281.256H484.576L484.696 283.944L484 283.776C484.208 283.392 484.48 283.032 484.816 282.696C485.168 282.36 485.56 282.072 485.992 281.832C486.44 281.576 486.92 281.376 487.432 281.232C487.944 281.088 488.496 281.016 489.088 281.016C489.776 281.016 490.408 281.12 490.984 281.328C491.576 281.536 492.08 281.88 492.496 282.36C492.912 282.824 493.232 283.448 493.456 284.232L492.664 284.136L492.856 283.752C493.112 283.384 493.416 283.04 493.768 282.72C494.136 282.384 494.552 282.096 495.016 281.856C495.48 281.6 495.976 281.4 496.504 281.256C497.032 281.096 497.576 281.016 498.136 281.016C499.304 281.016 500.256 281.24 500.992 281.688C501.728 282.12 502.272 282.736 502.624 283.536C502.976 284.336 503.152 285.264 503.152 286.32V294H499.288V286.728C499.288 286.216 499.208 285.776 499.048 285.408C498.888 285.04 498.64 284.76 498.304 284.568C497.984 284.36 497.568 284.256 497.056 284.256C496.608 284.256 496.192 284.328 495.808 284.472C495.44 284.616 495.112 284.816 494.824 285.072C494.552 285.312 494.336 285.6 494.176 285.936C494.032 286.256 493.96 286.608 493.96 286.992V294H490.096V286.704C490.096 286.208 490.008 285.776 489.832 285.408C489.656 285.04 489.384 284.76 489.016 284.568C488.648 284.36 488.192 284.256 487.648 284.256C487.216 284.256 486.824 284.336 486.472 284.496C486.136 284.64 485.84 284.84 485.584 285.096C485.328 285.336 485.128 285.6 484.984 285.888C484.856 286.176 484.792 286.472 484.792 286.776V294H480.928ZM513.858 294.216C512.594 294.216 511.49 293.936 510.546 293.376C509.602 292.816 508.858 292.04 508.314 291.048C507.786 290.04 507.521 288.896 507.521 287.616C507.521 286.32 507.794 285.176 508.338 284.184C508.882 283.192 509.634 282.416 510.594 281.856C511.57 281.28 512.69 280.992 513.954 280.992C514.674 280.992 515.338 281.088 515.946 281.28C516.554 281.456 517.082 281.704 517.53 282.024C517.994 282.344 518.37 282.696 518.658 283.08C518.962 283.464 519.162 283.864 519.258 284.28H518.418V281.256H522.21V294H518.346V290.736L519.161 290.856C519.066 291.272 518.866 291.68 518.562 292.08C518.258 292.48 517.866 292.84 517.386 293.16C516.906 293.48 516.362 293.736 515.754 293.928C515.162 294.12 514.53 294.216 513.858 294.216ZM514.89 290.976C515.61 290.976 516.234 290.84 516.762 290.568C517.306 290.296 517.722 289.912 518.01 289.416C518.314 288.904 518.466 288.304 518.466 287.616C518.466 286.944 518.314 286.36 518.01 285.864C517.722 285.352 517.306 284.952 516.762 284.664C516.234 284.376 515.61 284.232 514.89 284.232C514.17 284.232 513.546 284.376 513.018 284.664C512.49 284.952 512.074 285.352 511.77 285.864C511.482 286.36 511.338 286.944 511.338 287.616C511.338 288.304 511.482 288.904 511.77 289.416C512.074 289.912 512.49 290.296 513.018 290.568C513.546 290.84 514.17 290.976 514.89 290.976ZM529.412 299.52L532.748 292.68L532.676 294.624L525.908 281.256H530.3L533.396 287.88C533.62 288.328 533.828 288.784 534.02 289.248C534.212 289.696 534.364 290.144 534.476 290.592L533.756 290.784C533.9 290.432 534.068 290.016 534.26 289.536C534.452 289.056 534.652 288.568 534.86 288.072L537.716 281.256H542.108L535.868 294.048L533.3 299.52H529.412ZM554.34 294.264C553.652 294.264 553.004 294.176 552.396 294C551.788 293.824 551.244 293.592 550.764 293.304C550.284 293.016 549.884 292.688 549.564 292.32C549.26 291.936 549.06 291.568 548.964 291.216L549.996 291.024L549.78 293.976H546.204V276.24H550.068V284.304L549.084 284.112C549.196 283.712 549.404 283.328 549.708 282.96C550.012 282.592 550.396 282.264 550.86 281.976C551.34 281.672 551.876 281.432 552.468 281.256C553.06 281.08 553.684 280.992 554.34 280.992C555.556 280.992 556.644 281.28 557.604 281.856C558.564 282.416 559.324 283.2 559.884 284.208C560.444 285.2 560.724 286.336 560.724 287.616C560.724 288.912 560.444 290.064 559.884 291.072C559.34 292.064 558.588 292.848 557.628 293.424C556.668 293.984 555.572 294.264 554.34 294.264ZM553.428 291C554.148 291 554.764 290.856 555.276 290.568C555.804 290.28 556.212 289.888 556.5 289.392C556.804 288.88 556.956 288.288 556.956 287.616C556.956 286.944 556.812 286.352 556.524 285.84C556.236 285.328 555.82 284.936 555.276 284.664C554.748 284.392 554.132 284.256 553.428 284.256C552.692 284.256 552.06 284.392 551.532 284.664C551.004 284.936 550.588 285.328 550.284 285.84C549.996 286.352 549.852 286.944 549.852 287.616C549.852 288.288 549.996 288.88 550.284 289.392C550.588 289.888 551.004 290.28 551.532 290.568C552.06 290.856 552.692 291 553.428 291ZM571.757 294.24C570.205 294.24 568.845 293.96 567.677 293.4C566.525 292.824 565.629 292.048 564.989 291.072C564.349 290.08 564.029 288.952 564.029 287.688C564.029 286.68 564.213 285.768 564.581 284.952C564.949 284.136 565.461 283.432 566.117 282.84C566.773 282.248 567.541 281.792 568.421 281.472C569.301 281.152 570.253 280.992 571.277 280.992C572.269 280.992 573.181 281.152 574.013 281.472C574.845 281.776 575.565 282.216 576.173 282.792C576.797 283.368 577.277 284.048 577.613 284.832C577.949 285.616 578.101 286.48 578.069 287.424L578.045 288.504H566.549L565.997 286.272H574.925L574.517 286.752V286.272C574.469 285.872 574.293 285.512 573.989 285.192C573.701 284.872 573.325 284.624 572.861 284.448C572.397 284.256 571.885 284.16 571.325 284.16C570.605 284.16 569.965 284.28 569.405 284.52C568.845 284.744 568.405 285.096 568.085 285.576C567.781 286.056 567.629 286.664 567.629 287.4C567.629 288.104 567.813 288.72 568.181 289.248C568.565 289.776 569.101 290.192 569.789 290.496C570.493 290.8 571.317 290.952 572.261 290.952C573.077 290.952 573.757 290.856 574.301 290.664C574.861 290.456 575.365 290.2 575.813 289.896L577.541 292.392C577.013 292.792 576.429 293.136 575.789 293.424C575.165 293.696 574.509 293.896 573.821 294.024C573.149 294.168 572.461 294.24 571.757 294.24ZM592.493 294V281.256H596.141L596.261 284.232L595.349 284.496C595.557 283.872 595.909 283.296 596.405 282.768C596.917 282.24 597.533 281.816 598.253 281.496C598.989 281.16 599.781 280.992 600.629 280.992C601.717 280.992 602.637 281.208 603.389 281.64C604.141 282.072 604.709 282.688 605.093 283.488C605.477 284.272 605.669 285.208 605.669 286.296V294H601.805V286.848C601.805 286.288 601.701 285.816 601.493 285.432C601.301 285.048 601.005 284.752 600.605 284.544C600.221 284.336 599.773 284.232 599.261 284.232C598.813 284.232 598.405 284.312 598.037 284.472C597.685 284.616 597.381 284.816 597.125 285.072C596.869 285.312 596.669 285.584 596.525 285.888C596.397 286.192 596.333 286.504 596.333 286.824V294H594.437C593.909 294 593.485 294 593.165 294C592.845 294 592.621 294 592.493 294ZM617.931 294.24C616.443 294.24 615.123 293.952 613.971 293.376C612.819 292.8 611.915 292.016 611.259 291.024C610.603 290.032 610.275 288.896 610.275 287.616C610.275 286.336 610.603 285.2 611.259 284.208C611.915 283.216 612.819 282.432 613.971 281.856C615.123 281.28 616.443 280.992 617.931 280.992C619.403 280.992 620.707 281.28 621.843 281.856C622.995 282.432 623.899 283.216 624.555 284.208C625.211 285.2 625.539 286.336 625.539 287.616C625.539 288.896 625.211 290.032 624.555 291.024C623.899 292.016 622.995 292.8 621.843 293.376C620.707 293.952 619.403 294.24 617.931 294.24ZM617.931 290.928C618.619 290.928 619.243 290.784 619.803 290.496C620.379 290.208 620.827 289.816 621.147 289.32C621.483 288.824 621.643 288.256 621.627 287.616C621.643 286.976 621.483 286.4 621.147 285.888C620.827 285.376 620.379 284.984 619.803 284.712C619.243 284.424 618.619 284.28 617.931 284.28C617.227 284.28 616.579 284.424 615.987 284.712C615.411 285 614.963 285.392 614.643 285.888C614.323 286.384 614.163 286.96 614.163 287.616C614.163 288.256 614.323 288.824 614.643 289.32C614.963 289.816 615.411 290.208 615.987 290.496C616.579 290.784 617.227 290.928 617.931 290.928ZM631.545 294V277.752H635.385V294H631.545ZM628.713 284.616V281.256H638.625V284.616H628.713ZM653.2 294V281.256H657.064V294H653.2ZM655.12 278.64C654.4 278.64 653.84 278.472 653.44 278.136C653.04 277.784 652.84 277.288 652.84 276.648C652.84 276.072 653.04 275.6 653.44 275.232C653.856 274.864 654.416 274.68 655.12 274.68C655.84 274.68 656.4 274.856 656.8 275.208C657.2 275.544 657.4 276.024 657.4 276.648C657.4 277.24 657.192 277.72 656.776 278.088C656.376 278.456 655.824 278.64 655.12 278.64ZM663.274 294V281.256H666.922L667.042 284.232L666.13 284.496C666.338 283.872 666.69 283.296 667.186 282.768C667.698 282.24 668.314 281.816 669.034 281.496C669.77 281.16 670.562 280.992 671.41 280.992C672.498 280.992 673.418 281.208 674.17 281.64C674.922 282.072 675.49 282.688 675.874 283.488C676.258 284.272 676.45 285.208 676.45 286.296V294H672.586V286.848C672.586 286.288 672.482 285.816 672.274 285.432C672.082 285.048 671.786 284.752 671.386 284.544C671.002 284.336 670.554 284.232 670.042 284.232C669.594 284.232 669.186 284.312 668.818 284.472C668.466 284.616 668.162 284.816 667.906 285.072C667.65 285.312 667.45 285.584 667.306 285.888C667.178 286.192 667.114 286.504 667.114 286.824V294H665.218C664.69 294 664.266 294 663.946 294C663.626 294 663.402 294 663.274 294ZM693.233 294V277.752H697.073V294H693.233ZM690.401 284.616V281.256H700.313V284.616H690.401ZM705.04 294V276.24H708.808V284.232L707.896 284.544C708.056 283.904 708.392 283.32 708.904 282.792C709.432 282.248 710.072 281.816 710.824 281.496C711.576 281.16 712.376 280.992 713.224 280.992C714.312 280.992 715.224 281.216 715.96 281.664C716.712 282.096 717.272 282.712 717.64 283.512C718.024 284.296 718.216 285.216 718.216 286.272V294H714.352V286.872C714.352 286.296 714.248 285.816 714.04 285.432C713.848 285.032 713.552 284.728 713.152 284.52C712.768 284.312 712.32 284.216 711.808 284.232C711.392 284.232 711 284.304 710.632 284.448C710.28 284.576 709.968 284.768 709.696 285.024C709.44 285.264 709.24 285.544 709.096 285.864C708.952 286.184 708.88 286.528 708.88 286.896V294H706.984C706.456 294 706.032 294 705.712 294C705.392 294 705.168 294 705.04 294ZM730.382 294.24C728.83 294.24 727.47 293.96 726.302 293.4C725.15 292.824 724.254 292.048 723.614 291.072C722.974 290.08 722.654 288.952 722.654 287.688C722.654 286.68 722.838 285.768 723.206 284.952C723.574 284.136 724.086 283.432 724.742 282.84C725.398 282.248 726.166 281.792 727.046 281.472C727.926 281.152 728.878 280.992 729.902 280.992C730.894 280.992 731.806 281.152 732.638 281.472C733.47 281.776 734.19 282.216 734.798 282.792C735.422 283.368 735.902 284.048 736.238 284.832C736.574 285.616 736.726 286.48 736.694 287.424L736.67 288.504H725.174L724.622 286.272H733.55L733.142 286.752V286.272C733.094 285.872 732.918 285.512 732.614 285.192C732.326 284.872 731.95 284.624 731.486 284.448C731.022 284.256 730.51 284.16 729.95 284.16C729.23 284.16 728.59 284.28 728.03 284.52C727.47 284.744 727.03 285.096 726.71 285.576C726.406 286.056 726.254 286.664 726.254 287.4C726.254 288.104 726.438 288.72 726.806 289.248C727.19 289.776 727.726 290.192 728.414 290.496C729.118 290.8 729.942 290.952 730.886 290.952C731.702 290.952 732.382 290.856 732.926 290.664C733.486 290.456 733.99 290.2 734.438 289.896L736.166 292.392C735.638 292.792 735.054 293.136 734.414 293.424C733.79 293.696 733.134 293.896 732.446 294.024C731.774 294.168 731.086 294.24 730.382 294.24ZM753.59 294L749.15 281.256H753.206L755.726 289.656L755.222 289.608L758.102 282.96H760.574L763.646 289.608L763.142 289.656L765.662 281.256H769.742L765.158 294H762.254L758.942 286.32L759.83 286.296L756.47 294H753.59ZM778.115 294.216C776.851 294.216 775.747 293.936 774.803 293.376C773.859 292.816 773.115 292.04 772.571 291.048C772.043 290.04 771.779 288.896 771.779 287.616C771.779 286.32 772.051 285.176 772.595 284.184C773.139 283.192 773.891 282.416 774.851 281.856C775.827 281.28 776.947 280.992 778.211 280.992C778.931 280.992 779.595 281.088 780.203 281.28C780.811 281.456 781.339 281.704 781.787 282.024C782.251 282.344 782.627 282.696 782.915 283.08C783.219 283.464 783.419 283.864 783.515 284.28H782.675V281.256H786.467V294H782.603V290.736L783.419 290.856C783.323 291.272 783.123 291.68 782.819 292.08C782.515 292.48 782.123 292.84 781.643 293.16C781.163 293.48 780.619 293.736 780.011 293.928C779.419 294.12 778.787 294.216 778.115 294.216ZM779.147 290.976C779.867 290.976 780.491 290.84 781.019 290.568C781.563 290.296 781.979 289.912 782.267 289.416C782.571 288.904 782.723 288.304 782.723 287.616C782.723 286.944 782.571 286.36 782.267 285.864C781.979 285.352 781.563 284.952 781.019 284.664C780.491 284.376 779.867 284.232 779.147 284.232C778.427 284.232 777.803 284.376 777.275 284.664C776.747 284.952 776.331 285.352 776.027 285.864C775.739 286.36 775.595 286.944 775.595 287.616C775.595 288.304 775.739 288.904 776.027 289.416C776.331 289.912 776.747 290.296 777.275 290.568C777.803 290.84 778.427 290.976 779.147 290.976ZM793.67 299.52L797.006 292.68L796.934 294.624L790.166 281.256H794.558L797.654 287.88C797.878 288.328 798.086 288.784 798.278 289.248C798.47 289.696 798.622 290.144 798.734 290.592L798.014 290.784C798.158 290.432 798.326 290.016 798.518 289.536C798.71 289.056 798.91 288.568 799.118 288.072L801.974 281.256H806.366L800.126 294.048L797.558 299.52H793.67ZM821.678 299.52L825.014 292.68L824.942 294.624L818.174 281.256H822.566L825.662 287.88C825.886 288.328 826.094 288.784 826.286 289.248C826.478 289.696 826.63 290.144 826.742 290.592L826.022 290.784C826.166 290.432 826.334 290.016 826.526 289.536C826.718 289.056 826.918 288.568 827.126 288.072L829.982 281.256H834.374L828.134 294.048L825.566 299.52H821.678ZM844.619 294.24C843.131 294.24 841.811 293.952 840.659 293.376C839.507 292.8 838.603 292.016 837.947 291.024C837.291 290.032 836.963 288.896 836.963 287.616C836.963 286.336 837.291 285.2 837.947 284.208C838.603 283.216 839.507 282.432 840.659 281.856C841.811 281.28 843.131 280.992 844.619 280.992C846.091 280.992 847.395 281.28 848.531 281.856C849.683 282.432 850.587 283.216 851.243 284.208C851.899 285.2 852.227 286.336 852.227 287.616C852.227 288.896 851.899 290.032 851.243 291.024C850.587 292.016 849.683 292.8 848.531 293.376C847.395 293.952 846.091 294.24 844.619 294.24ZM844.619 290.928C845.307 290.928 845.931 290.784 846.491 290.496C847.067 290.208 847.515 289.816 847.835 289.32C848.171 288.824 848.331 288.256 848.315 287.616C848.331 286.976 848.171 286.4 847.835 285.888C847.515 285.376 847.067 284.984 846.491 284.712C845.931 284.424 845.307 284.28 844.619 284.28C843.915 284.28 843.267 284.424 842.675 284.712C842.099 285 841.651 285.392 841.331 285.888C841.011 286.384 840.851 286.96 840.851 287.616C840.851 288.256 841.011 288.824 841.331 289.32C841.651 289.816 842.099 290.208 842.675 290.496C843.267 290.784 843.915 290.928 844.619 290.928ZM861.737 294.264C860.713 294.264 859.825 294.04 859.073 293.592C858.337 293.144 857.769 292.496 857.369 291.648C856.969 290.784 856.769 289.752 856.769 288.552V281.256H860.609V287.928C860.609 288.584 860.697 289.136 860.873 289.584C861.065 290.032 861.361 290.376 861.761 290.616C862.161 290.84 862.649 290.952 863.225 290.952C863.641 290.952 864.025 290.888 864.377 290.76C864.729 290.616 865.041 290.424 865.313 290.184C865.585 289.928 865.793 289.64 865.937 289.32C866.097 288.984 866.177 288.608 866.177 288.192V281.256H870.017V294H866.417L866.249 291.384L866.945 291.096C866.769 291.656 866.433 292.176 865.937 292.656C865.441 293.136 864.833 293.528 864.113 293.832C863.409 294.12 862.617 294.264 861.737 294.264ZM885.649 299.28V281.256H889.297L889.441 284.112L888.721 283.896C888.833 283.384 889.137 282.912 889.633 282.48C890.129 282.048 890.753 281.696 891.505 281.424C892.273 281.152 893.089 281.016 893.953 281.016C895.201 281.016 896.297 281.304 897.241 281.88C898.185 282.44 898.921 283.216 899.449 284.208C899.993 285.184 900.265 286.32 900.265 287.616C900.265 288.896 899.993 290.032 899.449 291.024C898.921 292.016 898.177 292.8 897.217 293.376C896.257 293.936 895.153 294.216 893.905 294.216C893.041 294.216 892.233 294.072 891.481 293.784C890.729 293.496 890.097 293.12 889.585 292.656C889.089 292.192 888.769 291.704 888.625 291.192L889.513 290.856V299.28H885.649ZM892.969 290.976C893.689 290.976 894.313 290.84 894.841 290.568C895.369 290.28 895.777 289.888 896.065 289.392C896.369 288.896 896.521 288.304 896.521 287.616C896.521 286.944 896.369 286.36 896.065 285.864C895.777 285.352 895.369 284.96 894.841 284.688C894.329 284.4 893.705 284.256 892.969 284.256C892.249 284.256 891.617 284.392 891.073 284.664C890.545 284.936 890.129 285.328 889.825 285.84C889.537 286.352 889.393 286.944 889.393 287.616C889.393 288.304 889.537 288.896 889.825 289.392C890.129 289.888 890.545 290.28 891.073 290.568C891.617 290.84 892.249 290.976 892.969 290.976ZM905.032 294V276.24H908.872V294H905.032ZM919.608 294.216C918.344 294.216 917.24 293.936 916.296 293.376C915.352 292.816 914.608 292.04 914.064 291.048C913.536 290.04 913.271 288.896 913.271 287.616C913.271 286.32 913.544 285.176 914.088 284.184C914.632 283.192 915.384 282.416 916.344 281.856C917.32 281.28 918.44 280.992 919.704 280.992C920.424 280.992 921.088 281.088 921.696 281.28C922.304 281.456 922.832 281.704 923.28 282.024C923.744 282.344 924.12 282.696 924.408 283.08C924.712 283.464 924.912 283.864 925.008 284.28H924.168V281.256H927.96V294H924.096V290.736L924.911 290.856C924.816 291.272 924.616 291.68 924.312 292.08C924.008 292.48 923.616 292.84 923.136 293.16C922.656 293.48 922.112 293.736 921.504 293.928C920.912 294.12 920.28 294.216 919.608 294.216ZM920.64 290.976C921.36 290.976 921.984 290.84 922.512 290.568C923.056 290.296 923.472 289.912 923.76 289.416C924.064 288.904 924.216 288.304 924.216 287.616C924.216 286.944 924.064 286.36 923.76 285.864C923.472 285.352 923.056 284.952 922.512 284.664C921.984 284.376 921.36 284.232 920.64 284.232C919.92 284.232 919.296 284.376 918.768 284.664C918.24 284.952 917.824 285.352 917.52 285.864C917.232 286.36 917.088 286.944 917.088 287.616C917.088 288.304 917.232 288.904 917.52 289.416C917.824 289.912 918.24 290.296 918.768 290.568C919.296 290.84 919.92 290.976 920.64 290.976ZM933.883 294V281.256H937.531L937.651 284.232L936.739 284.496C936.947 283.872 937.299 283.296 937.795 282.768C938.307 282.24 938.923 281.816 939.643 281.496C940.379 281.16 941.171 280.992 942.019 280.992C943.107 280.992 944.027 281.208 944.779 281.64C945.531 282.072 946.099 282.688 946.483 283.488C946.867 284.272 947.059 285.208 947.059 286.296V294H943.195V286.848C943.195 286.288 943.091 285.816 942.883 285.432C942.691 285.048 942.395 284.752 941.995 284.544C941.611 284.336 941.163 284.232 940.651 284.232C940.203 284.232 939.795 284.312 939.427 284.472C939.075 284.616 938.771 284.816 938.515 285.072C938.259 285.312 938.059 285.584 937.915 285.888C937.787 286.192 937.723 286.504 937.723 286.824V294H935.827C935.299 294 934.875 294 934.555 294C934.235 294 934.011 294 933.883 294ZM952.938 294V281.256H956.586L956.706 284.232L955.794 284.496C956.002 283.872 956.354 283.296 956.85 282.768C957.362 282.24 957.978 281.816 958.698 281.496C959.434 281.16 960.226 280.992 961.074 280.992C962.162 280.992 963.082 281.208 963.834 281.64C964.586 282.072 965.154 282.688 965.538 283.488C965.922 284.272 966.114 285.208 966.114 286.296V294H962.25V286.848C962.25 286.288 962.146 285.816 961.938 285.432C961.746 285.048 961.45 284.752 961.05 284.544C960.666 284.336 960.218 284.232 959.706 284.232C959.258 284.232 958.85 284.312 958.482 284.472C958.13 284.616 957.826 284.816 957.57 285.072C957.314 285.312 957.114 285.584 956.97 285.888C956.842 286.192 956.778 286.504 956.778 286.824V294H954.882C954.354 294 953.93 294 953.61 294C953.29 294 953.066 294 952.938 294ZM978.281 294.24C976.729 294.24 975.369 293.96 974.201 293.4C973.049 292.824 972.153 292.048 971.513 291.072C970.873 290.08 970.553 288.952 970.553 287.688C970.553 286.68 970.737 285.768 971.105 284.952C971.473 284.136 971.985 283.432 972.641 282.84C973.297 282.248 974.065 281.792 974.945 281.472C975.825 281.152 976.777 280.992 977.801 280.992C978.793 280.992 979.705 281.152 980.537 281.472C981.369 281.776 982.089 282.216 982.697 282.792C983.321 283.368 983.801 284.048 984.137 284.832C984.473 285.616 984.625 286.48 984.593 287.424L984.569 288.504H973.073L972.521 286.272H981.449L981.041 286.752V286.272C980.993 285.872 980.817 285.512 980.513 285.192C980.225 284.872 979.849 284.624 979.385 284.448C978.921 284.256 978.409 284.16 977.849 284.16C977.129 284.16 976.489 284.28 975.929 284.52C975.369 284.744 974.929 285.096 974.609 285.576C974.305 286.056 974.153 286.664 974.153 287.4C974.153 288.104 974.337 288.72 974.705 289.248C975.089 289.776 975.625 290.192 976.313 290.496C977.017 290.8 977.841 290.952 978.785 290.952C979.601 290.952 980.281 290.856 980.825 290.664C981.385 290.456 981.889 290.2 982.337 289.896L984.065 292.392C983.537 292.792 982.953 293.136 982.313 293.424C981.689 293.696 981.033 293.896 980.345 294.024C979.673 294.168 978.985 294.24 978.281 294.24ZM994.208 294.264C992.96 294.264 991.864 293.984 990.92 293.424C989.976 292.848 989.24 292.064 988.712 291.072C988.184 290.064 987.92 288.92 987.92 287.64C987.92 286.36 988.192 285.224 988.736 284.232C989.28 283.224 990.032 282.432 990.992 281.856C991.968 281.28 993.088 280.992 994.352 280.992C995.056 280.992 995.712 281.088 996.32 281.28C996.928 281.456 997.472 281.696 997.952 282C998.448 282.304 998.84 282.656 999.128 283.056C999.432 283.44 999.608 283.832 999.656 284.232L998.744 284.448V276.24H1002.61V294H999.032L998.816 290.904L999.584 291.096C999.536 291.496 999.36 291.888 999.056 292.272C998.752 292.64 998.352 292.976 997.856 293.28C997.376 293.568 996.824 293.808 996.2 294C995.576 294.176 994.912 294.264 994.208 294.264ZM995.288 291.024C996.008 291.024 996.632 290.88 997.16 290.592C997.704 290.304 998.12 289.912 998.408 289.416C998.696 288.904 998.84 288.312 998.84 287.64C998.84 286.952 998.696 286.36 998.408 285.864C998.12 285.352 997.704 284.96 997.16 284.688C996.632 284.4 996.008 284.256 995.288 284.256C994.568 284.256 993.944 284.4 993.416 284.688C992.888 284.96 992.472 285.352 992.168 285.864C991.88 286.36 991.736 286.952 991.736 287.64C991.736 288.312 991.88 288.904 992.168 289.416C992.472 289.912 992.888 290.304 993.416 290.592C993.944 290.88 994.568 291.024 995.288 291.024ZM1009.81 294.264C1009.03 294.264 1008.43 294.08 1008.01 293.712C1007.61 293.328 1007.41 292.8 1007.41 292.128C1007.41 291.52 1007.62 291.008 1008.04 290.592C1008.47 290.176 1009.06 289.968 1009.81 289.968C1010.6 289.968 1011.2 290.16 1011.61 290.544C1012.03 290.928 1012.24 291.456 1012.24 292.128C1012.24 292.72 1012.02 293.224 1011.59 293.64C1011.17 294.056 1010.58 294.264 1009.81 294.264ZM1019.05 294.264C1018.26 294.264 1017.66 294.08 1017.25 293.712C1016.85 293.328 1016.65 292.8 1016.65 292.128C1016.65 291.52 1016.85 291.008 1017.27 290.592C1017.7 290.176 1018.29 289.968 1019.05 289.968C1019.83 289.968 1020.43 290.16 1020.85 290.544C1021.26 290.928 1021.47 291.456 1021.47 292.128C1021.47 292.72 1021.25 293.224 1020.82 293.64C1020.41 294.056 1019.81 294.264 1019.05 294.264ZM1028.28 294.264C1027.5 294.264 1026.9 294.08 1026.48 293.712C1026.08 293.328 1025.88 292.8 1025.88 292.128C1025.88 291.52 1026.09 291.008 1026.5 290.592C1026.94 290.176 1027.53 289.968 1028.28 289.968C1029.06 289.968 1029.66 290.16 1030.08 290.544C1030.5 290.928 1030.7 291.456 1030.7 292.128C1030.7 292.72 1030.49 293.224 1030.06 293.64C1029.64 294.056 1029.05 294.264 1028.28 294.264Z" fill="white"/>
</g>
<defs>
<filter id="filter0_d_110_538" x="749" y="472" width="108" height="176" filterUnits="userSpaceOnUse" color-interpolation-filters="sRGB">
<feFlood flood-opacity="0" result="BackgroundImageFix"/>
<feColorMatrix in="SourceAlpha" type="matrix" values="0 0 0 0 0 0 0 0 0 0 0 0 0 0 0 0 0 0 127 0" result="hardAlpha"/>
<feOffset dy="4"/>
<feGaussianBlur stdDeviation="2"/>
<feComposite in2="hardAlpha" operator="out"/>
<feColorMatrix type="matrix" values="0 0 0 0 0 0 0 0 0 0 0 0 0 0 0 0 0 0 0.25 0"/>
<feBlend mode="normal" in2="BackgroundImageFix" result="effect1_dropShadow_110_538"/>
<feBlend mode="normal" in="SourceGraphic" in2="effect1_dropShadow_110_538" result="shape"/>
</filter>
<filter id="filter1_d_110_538" x="983" y="472" width="109" height="176" filterUnits="userSpaceOnUse" color-interpolation-filters="sRGB">
<feFlood flood-opacity="0" result="BackgroundImageFix"/>
<feColorMatrix in="SourceAlpha" type="matrix" values="0 0 0 0 0 0 0 0 0 0 0 0 0 0 0 0 0 0 127 0" result="hardAlpha"/>
<feOffset dy="4"/>
<feGaussianBlur stdDeviation="2"/>
<feComposite in2="hardAlpha" operator="out"/>
<feColorMatrix type="matrix" values="0 0 0 0 0 0 0 0 0 0 0 0 0 0 0 0 0 0 0.25 0"/>
<feBlend mode="normal" in2="BackgroundImageFix" result="effect1_dropShadow_110_538"/>
<feBlend mode="normal" in="SourceGraphic" in2="effect1_dropShadow_110_538" result="shape"/>
</filter>
<filter id="filter2_d_110_538" x="866" y="472" width="109" height="176" filterUnits="userSpaceOnUse" color-interpolation-filters="sRGB">
<feFlood flood-opacity="0" result="BackgroundImageFix"/>
<feColorMatrix in="SourceAlpha" type="matrix" values="0 0 0 0 0 0 0 0 0 0 0 0 0 0 0 0 0 0 127 0" result="hardAlpha"/>
<feOffset dy="4"/>
<feGaussianBlur stdDeviation="2"/>
<feComposite in2="hardAlpha" operator="out"/>
<feColorMatrix type="matrix" values="0 0 0 0 0 0 0 0 0 0 0 0 0 0 0 0 0 0 0.25 0"/>
<feBlend mode="normal" in2="BackgroundImageFix" result="effect1_dropShadow_110_538"/>
<feBlend mode="normal" in="SourceGraphic" in2="effect1_dropShadow_110_538" result="shape"/>
</filter>
<filter id="filter3_d_110_538" x="1101" y="472" width="108" height="176" filterUnits="userSpaceOnUse" color-interpolation-filters="sRGB">
<feFlood flood-opacity="0" result="BackgroundImageFix"/>
<feColorMatrix in="SourceAlpha" type="matrix" values="0 0 0 0 0 0 0 0 0 0 0 0 0 0 0 0 0 0 127 0" result="hardAlpha"/>
<feOffset dy="4"/>
<feGaussianBlur stdDeviation="2"/>
<feComposite in2="hardAlpha" operator="out"/>
<feColorMatrix type="matrix" values="0 0 0 0 0 0 0 0 0 0 0 0 0 0 0 0 0 0 0.25 0"/>
<feBlend mode="normal" in2="BackgroundImageFix" result="effect1_dropShadow_110_538"/>
<feBlend mode="normal" in="SourceGraphic" in2="effect1_dropShadow_110_538" result="shape"/>
</filter>
<filter id="filter4_d_110_538" x="643" y="495" width="126" height="206" filterUnits="userSpaceOnUse" color-interpolation-filters="sRGB">
<feFlood flood-opacity="0" result="BackgroundImageFix"/>
<feColorMatrix in="SourceAlpha" type="matrix" values="0 0 0 0 0 0 0 0 0 0 0 0 0 0 0 0 0 0 127 0" result="hardAlpha"/>
<feOffset dy="4"/>
<feGaussianBlur stdDeviation="2"/>
<feComposite in2="hardAlpha" operator="out"/>
<feColorMatrix type="matrix" values="0 0 0 0 0 0 0 0 0 0 0 0 0 0 0 0 0 0 0.25 0"/>
<feBlend mode="normal" in2="BackgroundImageFix" result="effect1_dropShadow_110_538"/>
<feBlend mode="normal" in="SourceGraphic" in2="effect1_dropShadow_110_538" result="shape"/>
</filter>
<filter id="filter5_d_110_538" x="919" y="495" width="126" height="206" filterUnits="userSpaceOnUse" color-interpolation-filters="sRGB">
<feFlood flood-opacity="0" result="BackgroundImageFix"/>
<feColorMatrix in="SourceAlpha" type="matrix" values="0 0 0 0 0 0 0 0 0 0 0 0 0 0 0 0 0 0 127 0" result="hardAlpha"/>
<feOffset dy="4"/>
<feGaussianBlur stdDeviation="2"/>
<feComposite in2="hardAlpha" operator="out"/>
<feColorMatrix type="matrix" values="0 0 0 0 0 0 0 0 0 0 0 0 0 0 0 0 0 0 0.25 0"/>
<feBlend mode="normal" in2="BackgroundImageFix" result="effect1_dropShadow_110_538"/>
<feBlend mode="normal" in="SourceGraphic" in2="effect1_dropShadow_110_538" result="shape"/>
</filter>
<filter id="filter6_d_110_538" x="781" y="495" width="126" height="206" filterUnits="userSpaceOnUse" color-interpolation-filters="sRGB">
<feFlood flood-opacity="0" result="BackgroundImageFix"/>
<feColorMatrix in="SourceAlpha" type="matrix" values="0 0 0 0 0 0 0 0 0 0 0 0 0 0 0 0 0 0 127 0" result="hardAlpha"/>
<feOffset dy="4"/>
<feGaussianBlur stdDeviation="2"/>
<feComposite in2="hardAlpha" operator="out"/>
<feColorMatrix type="matrix" values="0 0 0 0 0 0 0 0 0 0 0 0 0 0 0 0 0 0 0.25 0"/>
<feBlend mode="normal" in2="BackgroundImageFix" result="effect1_dropShadow_110_538"/>
<feBlend mode="normal" in="SourceGraphic" in2="effect1_dropShadow_110_538" result="shape"/>
</filter>
<filter id="filter7_d_110_538" x="839" y="541" width="126" height="206" filterUnits="userSpaceOnUse" color-interpolation-filters="sRGB">
<feFlood flood-opacity="0" result="BackgroundImageFix"/>
<feColorMatrix in="SourceAlpha" type="matrix" values="0 0 0 0 0 0 0 0 0 0 0 0 0 0 0 0 0 0 127 0" result="hardAlpha"/>
<feOffset dy="4"/>
<feGaussianBlur stdDeviation="2"/>
<feComposite in2="hardAlpha" operator="out"/>
<feColorMatrix type="matrix" values="0 0 0 0 0 0 0 0 0 0 0 0 0 0 0 0 0 0 0.25 0"/>
<feBlend mode="normal" in2="BackgroundImageFix" result="effect1_dropShadow_110_538"/>
<feBlend mode="normal" in="SourceGraphic" in2="effect1_dropShadow_110_538" result="shape"/>
</filter>
<filter id="filter8_d_110_538" x="1057" y="495" width="126" height="206" filterUnits="userSpaceOnUse" color-interpolation-filters="sRGB">
<feFlood flood-opacity="0" result="BackgroundImageFix"/>
<feColorMatrix in="SourceAlpha" type="matrix" values="0 0 0 0 0 0 0 0 0 0 0 0 0 0 0 0 0 0 127 0" result="hardAlpha"/>
<feOffset dy="4"/>
<feGaussianBlur stdDeviation="2"/>
<feComposite in2="hardAlpha" operator="out"/>
<feColorMatrix type="matrix" values="0 0 0 0 0 0 0 0 0 0 0 0 0 0 0 0 0 0 0.25 0"/>
<feBlend mode="normal" in2="BackgroundImageFix" result="effect1_dropShadow_110_538"/>
<feBlend mode="normal" in="SourceGraphic" in2="effect1_dropShadow_110_538" result="shape"/>
</filter>
<filter id="filter9_d_110_538" x="701" y="541" width="126" height="206" filterUnits="userSpaceOnUse" color-interpolation-filters="sRGB">
<feFlood flood-opacity="0" result="BackgroundImageFix"/>
<feColorMatrix in="SourceAlpha" type="matrix" values="0 0 0 0 0 0 0 0 0 0 0 0 0 0 0 0 0 0 127 0" result="hardAlpha"/>
<feOffset dy="4"/>
<feGaussianBlur stdDeviation="2"/>
<feComposite in2="hardAlpha" operator="out"/>
<feColorMatrix type="matrix" values="0 0 0 0 0 0 0 0 0 0 0 0 0 0 0 0 0 0 0.25 0"/>
<feBlend mode="normal" in2="BackgroundImageFix" result="effect1_dropShadow_110_538"/>
<feBlend mode="normal" in="SourceGraphic" in2="effect1_dropShadow_110_538" result="shape"/>
</filter>
<filter id="filter10_d_110_538" x="977" y="541" width="126" height="206" filterUnits="userSpaceOnUse" color-interpolation-filters="sRGB">
<feFlood flood-opacity="0" result="BackgroundImageFix"/>
<feColorMatrix in="SourceAlpha" type="matrix" values="0 0 0 0 0 0 0 0 0 0 0 0 0 0 0 0 0 0 127 0" result="hardAlpha"/>
<feOffset dy="4"/>
<feGaussianBlur stdDeviation="2"/>
<feComposite in2="hardAlpha" operator="out"/>
<feColorMatrix type="matrix" values="0 0 0 0 0 0 0 0 0 0 0 0 0 0 0 0 0 0 0.25 0"/>
<feBlend mode="normal" in2="BackgroundImageFix" result="effect1_dropShadow_110_538"/>
<feBlend mode="normal" in="SourceGraphic" in2="effect1_dropShadow_110_538" result="shape"/>
</filter>
<filter id="filter11_d_110_538" x="1115" y="541" width="126" height="206" filterUnits="userSpaceOnUse" color-interpolation-filters="sRGB">
<feFlood flood-opacity="0" result="BackgroundImageFix"/>
<feColorMatrix in="SourceAlpha" type="matrix" values="0 0 0 0 0 0 0 0 0 0 0 0 0 0 0 0 0 0 127 0" result="hardAlpha"/>
<feOffset dy="4"/>
<feGaussianBlur stdDeviation="2"/>
<feComposite in2="hardAlpha" operator="out"/>
<feColorMatrix type="matrix" values="0 0 0 0 0 0 0 0 0 0 0 0 0 0 0 0 0 0 0.25 0"/>
<feBlend mode="normal" in2="BackgroundImageFix" result="effect1_dropShadow_110_538"/>
<feBlend mode="normal" in="SourceGraphic" in2="effect1_dropShadow_110_538" result="shape"/>
</filter>
<clipPath id="clip0_110_538">
<rect width="1440" height="1024" fill="white"/>
</clipPath>
</defs>
</svg>
