<svg width="1440" height="1024" viewBox="0 0 1440 1024" fill="none" xmlns="http://www.w3.org/2000/svg">
<g id="focus1-no" clip-path="url(#clip0_110_1112)">
<rect width="1440" height="1024" fill="#333148"/>
<rect id="Rectangle 18" width="115.523" height="695.859" transform="matrix(0.522133 -0.852864 0.522133 0.852864 1000.93 -9.47559)" fill="#201F2F"/>
<rect id="Rectangle 22" width="115.523" height="695.859" transform="matrix(0.522133 -0.852864 0.522133 0.852864 370.692 -9.47559)" fill="#201F2F"/>
<rect id="Rectangle 20" width="115.523" height="695.859" transform="matrix(0.522133 -0.852864 0.522133 0.852864 685.812 -9.47559)" fill="#201F2F"/>
<rect id="Rectangle 23" width="115.523" height="695.859" transform="matrix(0.522133 -0.852864 0.522133 0.852864 55.5713 -9.47559)" fill="#201F2F"/>
<rect id="Rectangle 19" width="115.523" height="695.859" transform="matrix(0.522133 0.852864 -0.522133 0.852864 1323.69 -132)" fill="#201F2F"/>
<rect id="Rectangle 24" width="115.523" height="695.859" transform="matrix(0.522133 0.852864 -0.522133 0.852864 693.451 -132)" fill="#201F2F"/>
<rect id="Rectangle 21" width="115.523" height="695.859" transform="matrix(0.522133 0.852864 -0.522133 0.852864 1008.57 -132)" fill="#201F2F"/>
<rect id="Rectangle 25" width="115.523" height="695.859" transform="matrix(0.522133 0.852864 -0.522133 0.852864 378.331 -132)" fill="#201F2F"/>
<path id="part 3" d="M47.096 132.12V60.024H61.688L62.264 71.448L59.384 70.584C59.832 68.536 61.048 66.648 63.032 64.92C65.016 63.192 67.512 61.784 70.52 60.696C73.592 59.608 76.856 59.064 80.312 59.064C85.304 59.064 89.688 60.216 93.464 62.52C97.24 64.76 100.184 67.864 102.296 71.832C104.472 75.736 105.56 80.28 105.56 85.464C105.56 90.584 104.472 95.128 102.296 99.096C100.184 103.064 97.208 106.2 93.368 108.504C89.528 110.744 85.112 111.864 80.12 111.864C76.664 111.864 73.432 111.288 70.424 110.136C67.416 108.984 64.888 107.48 62.84 105.624C60.856 103.768 59.576 101.816 59 99.768L62.552 98.424V132.12H47.096ZM76.376 98.904C79.256 98.904 81.752 98.36 83.864 97.272C85.976 96.12 87.608 94.552 88.76 92.568C89.976 90.584 90.584 88.216 90.584 85.464C90.584 82.776 89.976 80.44 88.76 78.456C87.608 76.408 85.976 74.84 83.864 73.752C81.816 72.6 79.32 72.024 76.376 72.024C73.496 72.024 70.968 72.568 68.792 73.656C66.68 74.744 65.016 76.312 63.8 78.36C62.648 80.408 62.072 82.776 62.072 85.464C62.072 88.216 62.648 90.584 63.8 92.568C65.016 94.552 66.68 96.12 68.792 97.272C70.968 98.36 73.496 98.904 76.376 98.904ZM144.211 111.864C139.155 111.864 134.739 110.744 130.963 108.504C127.187 106.264 124.211 103.16 122.035 99.192C119.923 95.16 118.867 90.584 118.867 85.464C118.867 80.28 119.955 75.704 122.131 71.736C124.307 67.768 127.315 64.664 131.155 62.424C135.059 60.12 139.539 58.968 144.595 58.968C147.475 58.968 150.131 59.352 152.563 60.12C154.995 60.824 157.107 61.816 158.899 63.096C160.755 64.376 162.259 65.784 163.411 67.32C164.627 68.856 165.427 70.456 165.811 72.12H162.451V60.024H177.619V111H162.163V97.944L165.427 98.424C165.043 100.088 164.243 101.72 163.027 103.32C161.811 104.92 160.243 106.36 158.323 107.64C156.403 108.92 154.227 109.944 151.795 110.712C149.427 111.48 146.899 111.864 144.211 111.864ZM148.339 98.904C151.219 98.904 153.715 98.36 155.827 97.272C158.003 96.184 159.667 94.648 160.819 92.664C162.035 90.616 162.643 88.216 162.643 85.464C162.643 82.776 162.035 80.44 160.819 78.456C159.667 76.408 158.003 74.808 155.827 73.656C153.715 72.504 151.219 71.928 148.339 71.928C145.459 71.928 142.963 72.504 140.851 73.656C138.739 74.808 137.075 76.408 135.859 78.456C134.707 80.44 134.131 82.776 134.131 85.464C134.131 88.216 134.707 90.616 135.859 92.664C137.075 94.648 138.739 96.184 140.851 97.272C142.963 98.36 145.459 98.904 148.339 98.904ZM201.315 111V60.024H215.907L216.579 77.592L212.931 75.768C213.763 72.632 215.203 69.816 217.251 67.32C219.363 64.76 221.763 62.744 224.451 61.272C227.203 59.736 230.115 58.968 233.187 58.968C234.851 58.968 236.419 59.128 237.891 59.448C239.427 59.768 240.739 60.184 241.827 60.696L237.603 77.496C236.643 76.792 235.331 76.248 233.667 75.864C232.067 75.48 230.435 75.288 228.771 75.288C226.915 75.288 225.219 75.608 223.683 76.248C222.211 76.824 220.963 77.656 219.939 78.744C218.915 79.768 218.115 80.952 217.539 82.296C217.027 83.64 216.771 85.08 216.771 86.616V111H201.315ZM265.932 111V46.008H281.292V111H265.932ZM254.604 73.464V60.024H294.252V73.464H254.604ZM371.848 111.96C365.768 111.96 360.52 110.712 356.104 108.216C351.688 105.72 347.848 101.912 344.584 96.792L356.296 88.632C357.576 90.616 358.984 92.344 360.52 93.816C362.12 95.224 363.848 96.344 365.704 97.176C367.624 98.008 369.736 98.424 372.04 98.424C374.216 98.424 376.232 98.072 378.088 97.368C379.944 96.664 381.448 95.608 382.6 94.2C383.752 92.728 384.328 90.968 384.328 88.92C384.328 86.872 383.784 85.208 382.696 83.928C381.608 82.584 380.2 81.624 378.472 81.048C376.744 80.408 374.856 80.088 372.808 80.088C371.784 80.088 370.728 80.184 369.64 80.376C368.552 80.568 367.496 80.824 366.472 81.144C365.448 81.4 364.456 81.784 363.496 82.296L359.656 73.08L377.896 54.936L381.16 57.528L349.288 56.952V43.224H394.408L397.48 50.616L373.288 74.52L369.448 68.856C370.088 68.6 371.08 68.376 372.424 68.184C373.832 67.992 375.272 67.896 376.744 67.896C379.752 67.896 382.6 68.44 385.288 69.528C387.976 70.552 390.376 71.992 392.488 73.848C394.6 75.704 396.264 77.912 397.48 80.472C398.696 82.968 399.304 85.688 399.304 88.632C399.304 93.24 398.056 97.304 395.56 100.824C393.128 104.28 389.832 107 385.672 108.984C381.576 110.968 376.968 111.96 371.848 111.96Z" fill="white"/>
<rect id="Rectangle 7" y="462" width="1567" height="626" fill="#211F2F"/>
<g id="Group 4">
<g id="Vector" filter="url(#filter0_d_110_1112)">
<path d="M169.246 465.996C174.515 442.672 207.714 442.672 212.983 465.996L221.541 503.874C224.712 517.912 214.05 531.267 199.672 531.267H182.557C168.179 531.267 157.517 517.912 160.688 503.874L169.246 465.996Z" fill="#3B5EC6"/>
<path d="M214.816 415.046C214.816 428.326 204.061 439.092 190.794 439.092C177.527 439.092 166.772 428.326 166.772 415.046C166.772 401.766 177.527 391 190.794 391C204.061 391 214.816 401.766 214.816 415.046Z" fill="#3B5EC6"/>
<path d="M195.599 519.565C195.599 513.013 200.904 507.702 207.45 507.702C213.995 507.702 219.3 513.013 219.3 519.565V547.137C219.3 553.689 213.995 559 207.45 559C200.904 559 195.599 553.689 195.599 547.137V519.565Z" fill="#3B5EC6"/>
<path d="M204.867 473.609C201.517 467.981 203.36 460.7 208.982 457.347C214.605 453.993 221.879 455.837 225.229 461.466L239.328 485.153C242.678 490.781 240.836 498.062 235.213 501.415C229.59 504.769 222.316 502.925 218.966 497.296L204.867 473.609Z" fill="#3B5EC6"/>
<path d="M156.362 461.548C159.635 455.874 166.883 453.93 172.551 457.206C178.219 460.482 180.161 467.737 176.889 473.411L163.116 497.289C159.844 502.963 152.596 504.907 146.927 501.631C141.259 498.355 139.317 491.1 142.59 485.427L156.362 461.548Z" fill="#3B5EC6"/>
<path d="M162.288 519.565C162.288 513.013 167.594 507.702 174.139 507.702C180.684 507.702 185.99 513.013 185.99 519.565V547.137C185.99 553.689 180.684 559 174.139 559C167.594 559 162.288 553.689 162.288 547.137V519.565Z" fill="#3B5EC6"/>
</g>
<g id="Vector_2" filter="url(#filter1_d_110_1112)">
<path d="M403.528 465.996C408.85 442.672 442.381 442.672 447.703 465.996L456.346 503.874C459.549 517.912 448.78 531.267 434.259 531.267H416.972C402.451 531.267 391.682 517.912 394.885 503.874L403.528 465.996Z" fill="#3B5EC6"/>
<path d="M449.555 415.046C449.555 428.326 438.692 439.092 425.292 439.092C411.892 439.092 401.03 428.326 401.03 415.046C401.03 401.766 411.892 391 425.292 391C438.692 391 449.555 401.766 449.555 415.046Z" fill="#3B5EC6"/>
<path d="M430.145 519.565C430.145 513.013 435.504 507.702 442.114 507.702C448.725 507.702 454.083 513.013 454.083 519.565V547.137C454.083 553.689 448.725 559 442.114 559C435.504 559 430.145 553.689 430.145 547.137V519.565Z" fill="#3B5EC6"/>
<path d="M439.506 473.609C436.123 467.981 437.983 460.7 443.662 457.347C449.341 453.993 456.688 455.837 460.071 461.466L474.311 485.153C477.695 490.781 475.834 498.062 470.155 501.415C464.476 504.769 457.13 502.925 453.746 497.296L439.506 473.609Z" fill="#3B5EC6"/>
<path d="M390.516 461.548C393.821 455.874 401.142 453.93 406.867 457.206C412.591 460.482 414.553 467.737 411.248 473.411L397.337 497.289C394.032 502.963 386.712 504.907 380.987 501.631C375.262 498.355 373.3 491.1 376.606 485.427L390.516 461.548Z" fill="#3B5EC6"/>
<path d="M396.501 519.565C396.501 513.013 401.86 507.702 408.47 507.702C415.081 507.702 420.44 513.013 420.44 519.565V547.137C420.44 553.689 415.081 559 408.47 559C401.86 559 396.501 553.689 396.501 547.137V519.565Z" fill="#3B5EC6"/>
</g>
<g id="Vector_3" filter="url(#filter2_d_110_1112)">
<path d="M286.528 465.996C291.85 442.672 325.381 442.672 330.703 465.996L339.346 503.874C342.549 517.912 331.78 531.267 317.259 531.267H299.972C285.451 531.267 274.682 517.912 277.885 503.874L286.528 465.996Z" fill="#3B5EC6"/>
<path d="M332.555 415.046C332.555 428.326 321.692 439.092 308.292 439.092C294.892 439.092 284.03 428.326 284.03 415.046C284.03 401.766 294.892 391 308.292 391C321.692 391 332.555 401.766 332.555 415.046Z" fill="#3B5EC6"/>
<path d="M313.145 519.565C313.145 513.013 318.504 507.702 325.114 507.702C331.725 507.702 337.083 513.013 337.083 519.565V547.137C337.083 553.689 331.725 559 325.114 559C318.504 559 313.145 553.689 313.145 547.137V519.565Z" fill="#3B5EC6"/>
<path d="M322.506 473.609C319.123 467.981 320.983 460.7 326.662 457.347C332.341 453.993 339.688 455.837 343.071 461.466L357.311 485.153C360.695 490.781 358.834 498.062 353.155 501.415C347.476 504.769 340.13 502.925 336.746 497.296L322.506 473.609Z" fill="#3B5EC6"/>
<path d="M273.516 461.548C276.821 455.874 284.142 453.93 289.867 457.206C295.591 460.482 297.553 467.737 294.248 473.411L280.337 497.289C277.032 502.963 269.712 504.907 263.987 501.631C258.262 498.355 256.3 491.1 259.606 485.427L273.516 461.548Z" fill="#3B5EC6"/>
<path d="M279.501 519.565C279.501 513.013 284.86 507.702 291.47 507.702C298.081 507.702 303.44 513.013 303.44 519.565V547.137C303.44 553.689 298.081 559 291.47 559C284.86 559 279.501 553.689 279.501 547.137V519.565Z" fill="#3B5EC6"/>
</g>
<g id="Vector_4" filter="url(#filter3_d_110_1112)">
<path d="M521.246 465.996C526.515 442.672 559.714 442.672 564.983 465.996L573.541 503.874C576.712 517.912 566.05 531.267 551.672 531.267H534.557C520.179 531.267 509.517 517.912 512.688 503.874L521.246 465.996Z" fill="#3B5EC6"/>
<path d="M566.816 415.046C566.816 428.326 556.061 439.092 542.794 439.092C529.527 439.092 518.772 428.326 518.772 415.046C518.772 401.766 529.527 391 542.794 391C556.061 391 566.816 401.766 566.816 415.046Z" fill="#3B5EC6"/>
<path d="M547.599 519.565C547.599 513.013 552.904 507.702 559.45 507.702C565.995 507.702 571.3 513.013 571.3 519.565V547.137C571.3 553.689 565.995 559 559.45 559C552.904 559 547.599 553.689 547.599 547.137V519.565Z" fill="#3B5EC6"/>
<path d="M556.867 473.609C553.517 467.981 555.36 460.7 560.982 457.347C566.605 453.993 573.879 455.837 577.229 461.466L591.328 485.153C594.678 490.781 592.836 498.062 587.213 501.415C581.59 504.769 574.316 502.925 570.966 497.296L556.867 473.609Z" fill="#3B5EC6"/>
<path d="M508.362 461.548C511.635 455.874 518.883 453.93 524.551 457.206C530.219 460.482 532.161 467.737 528.889 473.411L515.116 497.289C511.844 502.963 504.596 504.907 498.927 501.631C493.259 498.355 491.317 491.1 494.59 485.427L508.362 461.548Z" fill="#3B5EC6"/>
<path d="M514.288 519.565C514.288 513.013 519.594 507.702 526.139 507.702C532.684 507.702 537.99 513.013 537.99 519.565V547.137C537.99 553.689 532.684 559 526.139 559C519.594 559 514.288 553.689 514.288 547.137V519.565Z" fill="#3B5EC6"/>
</g>
<g id="Vector_5" filter="url(#filter4_d_110_1112)">
<path d="M68.3303 502.388C74.548 474.899 113.722 474.899 119.94 502.388L130.038 547.03C133.78 563.575 121.199 579.315 104.233 579.315H84.0371C67.0712 579.315 54.4901 563.575 58.2324 547.03L68.3303 502.388Z" fill="#6A94E0"/>
<path d="M122.103 442.34C122.103 457.991 109.412 470.679 93.7571 470.679C78.102 470.679 65.411 457.991 65.411 442.34C65.411 426.688 78.102 414 93.7571 414C109.412 414 122.103 426.688 122.103 442.34Z" fill="#6A94E0"/>
<path d="M99.4264 565.523C99.4264 557.801 105.687 551.542 113.41 551.542C121.134 551.542 127.395 557.801 127.395 565.523V598.019C127.395 605.741 121.134 612 113.41 612C105.687 612 99.4264 605.741 99.4264 598.019V565.523Z" fill="#6A94E0"/>
<path d="M110.364 511.361C106.41 504.728 108.584 496.146 115.219 492.194C121.854 488.242 130.437 490.416 134.39 497.049L151.027 524.966C154.98 531.599 152.806 540.18 146.171 544.132C139.537 548.085 130.953 545.911 127 539.278L110.364 511.361Z" fill="#6A94E0"/>
<path d="M53.1276 497.146C56.9892 490.459 65.5418 488.168 72.2303 492.029C78.9188 495.889 81.2104 504.44 77.3488 511.127L61.097 539.269C57.2354 545.956 48.6829 548.248 41.9944 544.387C35.3059 540.526 33.0142 531.975 36.8758 525.289L53.1276 497.146Z" fill="#6A94E0"/>
<path d="M60.1197 565.523C60.1197 557.801 66.3806 551.542 74.1038 551.542C81.827 551.542 88.0879 557.801 88.0879 565.523V598.019C88.0879 605.741 81.827 612 74.1038 612C66.3806 612 60.1197 605.741 60.1197 598.019V565.523Z" fill="#6A94E0"/>
</g>
<g id="Vector_6" filter="url(#filter5_d_110_1112)">
<path d="M344.33 502.388C350.548 474.899 389.722 474.899 395.94 502.388L406.038 547.03C409.78 563.575 397.199 579.315 380.233 579.315H360.037C343.071 579.315 330.49 563.575 334.232 547.03L344.33 502.388Z" fill="#6A94E0"/>
<path d="M398.103 442.34C398.103 457.991 385.412 470.679 369.757 470.679C354.102 470.679 341.411 457.991 341.411 442.34C341.411 426.688 354.102 414 369.757 414C385.412 414 398.103 426.688 398.103 442.34Z" fill="#6A94E0"/>
<path d="M375.426 565.523C375.426 557.801 381.687 551.542 389.41 551.542C397.134 551.542 403.395 557.801 403.395 565.523V598.019C403.395 605.741 397.134 612 389.41 612C381.687 612 375.426 605.741 375.426 598.019V565.523Z" fill="#6A94E0"/>
<path d="M386.364 511.361C382.41 504.728 384.584 496.146 391.219 492.194C397.854 488.242 406.437 490.416 410.39 497.049L427.027 524.966C430.98 531.599 428.806 540.18 422.171 544.132C415.537 548.085 406.953 545.911 403 539.278L386.364 511.361Z" fill="#6A94E0"/>
<path d="M329.128 497.146C332.989 490.459 341.542 488.168 348.23 492.029C354.919 495.889 357.21 504.44 353.349 511.127L337.097 539.269C333.235 545.956 324.683 548.248 317.994 544.387C311.306 540.526 309.014 531.975 312.876 525.289L329.128 497.146Z" fill="#6A94E0"/>
<path d="M336.12 565.523C336.12 557.801 342.381 551.542 350.104 551.542C357.827 551.542 364.088 557.801 364.088 565.523V598.019C364.088 605.741 357.827 612 350.104 612C342.381 612 336.12 605.741 336.12 598.019V565.523Z" fill="#6A94E0"/>
</g>
<g id="Vector_7" filter="url(#filter6_d_110_1112)">
<path d="M206.33 502.388C212.548 474.899 251.722 474.899 257.94 502.388L268.038 547.03C271.78 563.575 259.199 579.315 242.233 579.315H222.037C205.071 579.315 192.49 563.575 196.232 547.03L206.33 502.388Z" fill="#6A94E0"/>
<path d="M260.103 442.34C260.103 457.991 247.412 470.679 231.757 470.679C216.102 470.679 203.411 457.991 203.411 442.34C203.411 426.688 216.102 414 231.757 414C247.412 414 260.103 426.688 260.103 442.34Z" fill="#6A94E0"/>
<path d="M237.426 565.523C237.426 557.801 243.687 551.542 251.41 551.542C259.134 551.542 265.395 557.801 265.395 565.523V598.019C265.395 605.741 259.134 612 251.41 612C243.687 612 237.426 605.741 237.426 598.019V565.523Z" fill="#6A94E0"/>
<path d="M248.364 511.361C244.41 504.728 246.584 496.146 253.219 492.194C259.854 488.242 268.437 490.416 272.39 497.049L289.027 524.966C292.98 531.599 290.806 540.18 284.171 544.132C277.537 548.085 268.953 545.911 265 539.278L248.364 511.361Z" fill="#6A94E0"/>
<path d="M191.128 497.146C194.989 490.459 203.542 488.168 210.23 492.029C216.919 495.889 219.21 504.44 215.349 511.127L199.097 539.269C195.235 545.956 186.683 548.248 179.994 544.387C173.306 540.526 171.014 531.975 174.876 525.289L191.128 497.146Z" fill="#6A94E0"/>
<path d="M198.12 565.523C198.12 557.801 204.381 551.542 212.104 551.542C219.827 551.542 226.088 557.801 226.088 565.523V598.019C226.088 605.741 219.827 612 212.104 612C204.381 612 198.12 605.741 198.12 598.019V565.523Z" fill="#6A94E0"/>
</g>
<g id="Vector_8" filter="url(#filter7_d_110_1112)">
<path d="M264.33 548.388C270.548 520.899 309.722 520.899 315.94 548.388L326.038 593.03C329.78 609.575 317.199 625.315 300.233 625.315H280.037C263.071 625.315 250.49 609.575 254.232 593.03L264.33 548.388Z" fill="#8DBBFB"/>
<path d="M318.103 488.34C318.103 503.991 305.412 516.679 289.757 516.679C274.102 516.679 261.411 503.991 261.411 488.34C261.411 472.688 274.102 460 289.757 460C305.412 460 318.103 472.688 318.103 488.34Z" fill="#8DBBFB"/>
<path d="M295.426 611.523C295.426 603.801 301.687 597.542 309.41 597.542C317.134 597.542 323.395 603.801 323.395 611.523V644.019C323.395 651.741 317.134 658 309.41 658C301.687 658 295.426 651.741 295.426 644.019V611.523Z" fill="#8DBBFB"/>
<path d="M306.364 557.361C302.41 550.728 304.584 542.146 311.219 538.194C317.854 534.242 326.437 536.416 330.39 543.049L347.027 570.966C350.98 577.599 348.806 586.18 342.171 590.132C335.537 594.085 326.953 591.911 323 585.278L306.364 557.361Z" fill="#8DBBFB"/>
<path d="M249.128 543.146C252.989 536.459 261.542 534.168 268.23 538.029C274.919 541.889 277.21 550.44 273.349 557.127L257.097 585.269C253.235 591.956 244.683 594.248 237.994 590.387C231.306 586.526 229.014 577.975 232.876 571.289L249.128 543.146Z" fill="#8DBBFB"/>
<path d="M256.12 611.523C256.12 603.801 262.381 597.542 270.104 597.542C277.827 597.542 284.088 603.801 284.088 611.523V644.019C284.088 651.741 277.827 658 270.104 658C262.381 658 256.12 651.741 256.12 644.019V611.523Z" fill="#8DBBFB"/>
</g>
<g id="Vector_9" filter="url(#filter8_d_110_1112)">
<path d="M482.33 502.388C488.548 474.899 527.722 474.899 533.94 502.388L544.038 547.03C547.78 563.575 535.199 579.315 518.233 579.315H498.037C481.071 579.315 468.49 563.575 472.232 547.03L482.33 502.388Z" fill="#6A94E0"/>
<path d="M536.103 442.34C536.103 457.991 523.412 470.679 507.757 470.679C492.102 470.679 479.411 457.991 479.411 442.34C479.411 426.688 492.102 414 507.757 414C523.412 414 536.103 426.688 536.103 442.34Z" fill="#6A94E0"/>
<path d="M513.426 565.523C513.426 557.801 519.687 551.542 527.41 551.542C535.134 551.542 541.395 557.801 541.395 565.523V598.019C541.395 605.741 535.134 612 527.41 612C519.687 612 513.426 605.741 513.426 598.019V565.523Z" fill="#6A94E0"/>
<path d="M524.364 511.361C520.41 504.728 522.584 496.146 529.219 492.194C535.854 488.242 544.437 490.416 548.39 497.049L565.027 524.966C568.98 531.599 566.806 540.18 560.171 544.132C553.537 548.085 544.953 545.911 541 539.278L524.364 511.361Z" fill="#6A94E0"/>
<path d="M467.128 497.146C470.989 490.459 479.542 488.168 486.23 492.029C492.919 495.889 495.21 504.44 491.349 511.127L475.097 539.269C471.235 545.956 462.683 548.248 455.994 544.387C449.306 540.526 447.014 531.975 450.876 525.289L467.128 497.146Z" fill="#6A94E0"/>
<path d="M474.12 565.523C474.12 557.801 480.381 551.542 488.104 551.542C495.827 551.542 502.088 557.801 502.088 565.523V598.019C502.088 605.741 495.827 612 488.104 612C480.381 612 474.12 605.741 474.12 598.019V565.523Z" fill="#6A94E0"/>
</g>
<g id="Vector_10" filter="url(#filter9_d_110_1112)">
<path d="M126.33 548.388C132.548 520.899 171.722 520.899 177.94 548.388L188.038 593.03C191.78 609.575 179.199 625.315 162.233 625.315H142.037C125.071 625.315 112.49 609.575 116.232 593.03L126.33 548.388Z" fill="#8DBBFB"/>
<path d="M180.103 488.34C180.103 503.991 167.412 516.679 151.757 516.679C136.102 516.679 123.411 503.991 123.411 488.34C123.411 472.688 136.102 460 151.757 460C167.412 460 180.103 472.688 180.103 488.34Z" fill="#8DBBFB"/>
<path d="M157.426 611.523C157.426 603.801 163.687 597.542 171.41 597.542C179.134 597.542 185.395 603.801 185.395 611.523V644.019C185.395 651.741 179.134 658 171.41 658C163.687 658 157.426 651.741 157.426 644.019V611.523Z" fill="#8DBBFB"/>
<path d="M168.364 557.361C164.41 550.728 166.584 542.146 173.219 538.194C179.854 534.242 188.437 536.416 192.39 543.049L209.027 570.966C212.98 577.599 210.806 586.18 204.171 590.132C197.537 594.085 188.953 591.911 185 585.278L168.364 557.361Z" fill="#8DBBFB"/>
<path d="M111.128 543.146C114.989 536.459 123.542 534.168 130.23 538.029C136.919 541.889 139.21 550.44 135.349 557.127L119.097 585.269C115.235 591.956 106.683 594.248 99.9944 590.387C93.3059 586.526 91.0142 577.975 94.8758 571.289L111.128 543.146Z" fill="#8DBBFB"/>
<path d="M118.12 611.523C118.12 603.801 124.381 597.542 132.104 597.542C139.827 597.542 146.088 603.801 146.088 611.523V644.019C146.088 651.741 139.827 658 132.104 658C124.381 658 118.12 651.741 118.12 644.019V611.523Z" fill="#8DBBFB"/>
</g>
<g id="Vector_11" filter="url(#filter10_d_110_1112)">
<path d="M402.33 548.388C408.548 520.899 447.722 520.899 453.94 548.388L464.038 593.03C467.78 609.575 455.199 625.315 438.233 625.315H418.037C401.071 625.315 388.49 609.575 392.232 593.03L402.33 548.388Z" fill="#8DBBFB"/>
<path d="M456.103 488.34C456.103 503.991 443.412 516.679 427.757 516.679C412.102 516.679 399.411 503.991 399.411 488.34C399.411 472.688 412.102 460 427.757 460C443.412 460 456.103 472.688 456.103 488.34Z" fill="#8DBBFB"/>
<path d="M433.426 611.523C433.426 603.801 439.687 597.542 447.41 597.542C455.134 597.542 461.395 603.801 461.395 611.523V644.019C461.395 651.741 455.134 658 447.41 658C439.687 658 433.426 651.741 433.426 644.019V611.523Z" fill="#8DBBFB"/>
<path d="M444.364 557.361C440.41 550.728 442.584 542.146 449.219 538.194C455.854 534.242 464.437 536.416 468.39 543.049L485.027 570.966C488.98 577.599 486.806 586.18 480.171 590.132C473.537 594.085 464.953 591.911 461 585.278L444.364 557.361Z" fill="#8DBBFB"/>
<path d="M387.128 543.146C390.989 536.459 399.542 534.168 406.23 538.029C412.919 541.889 415.21 550.44 411.349 557.127L395.097 585.269C391.235 591.956 382.683 594.248 375.994 590.387C369.306 586.526 367.014 577.975 370.876 571.289L387.128 543.146Z" fill="#8DBBFB"/>
<path d="M394.12 611.523C394.12 603.801 400.381 597.542 408.104 597.542C415.827 597.542 422.088 603.801 422.088 611.523V644.019C422.088 651.741 415.827 658 408.104 658C400.381 658 394.12 651.741 394.12 644.019V611.523Z" fill="#8DBBFB"/>
</g>
<g id="Vector_12" filter="url(#filter11_d_110_1112)">
<path d="M540.33 548.388C546.548 520.899 585.722 520.899 591.94 548.388L602.038 593.03C605.78 609.575 593.199 625.315 576.233 625.315H556.037C539.071 625.315 526.49 609.575 530.232 593.03L540.33 548.388Z" fill="#8DBBFB"/>
<path d="M594.103 488.34C594.103 503.991 581.412 516.679 565.757 516.679C550.102 516.679 537.411 503.991 537.411 488.34C537.411 472.688 550.102 460 565.757 460C581.412 460 594.103 472.688 594.103 488.34Z" fill="#8DBBFB"/>
<path d="M571.426 611.523C571.426 603.801 577.687 597.542 585.41 597.542C593.134 597.542 599.395 603.801 599.395 611.523V644.019C599.395 651.741 593.134 658 585.41 658C577.687 658 571.426 651.741 571.426 644.019V611.523Z" fill="#8DBBFB"/>
<path d="M582.364 557.361C578.41 550.728 580.584 542.146 587.219 538.194C593.854 534.242 602.437 536.416 606.39 543.049L623.027 570.966C626.98 577.599 624.806 586.18 618.171 590.132C611.537 594.085 602.953 591.911 599 585.278L582.364 557.361Z" fill="#8DBBFB"/>
<path d="M525.128 543.146C528.989 536.459 537.542 534.168 544.23 538.029C550.919 541.889 553.21 550.44 549.349 557.127L533.097 585.269C529.235 591.956 520.683 594.248 513.994 590.387C507.306 586.526 505.014 577.975 508.876 571.289L525.128 543.146Z" fill="#8DBBFB"/>
<path d="M532.12 611.523C532.12 603.801 538.381 597.542 546.104 597.542C553.827 597.542 560.088 603.801 560.088 611.523V644.019C560.088 651.741 553.827 658 546.104 658C538.381 658 532.12 651.741 532.12 644.019V611.523Z" fill="#8DBBFB"/>
</g>
</g>
<g id="Group 5">
<g id="Vector_13" filter="url(#filter12_d_110_1112)">
<path d="M890.246 465.996C895.515 442.672 928.714 442.672 933.983 465.996L942.541 503.874C945.712 517.912 935.05 531.267 920.672 531.267H903.557C889.179 531.267 878.517 517.912 881.688 503.874L890.246 465.996Z" fill="#83C63B"/>
<path d="M935.816 415.046C935.816 428.326 925.061 439.092 911.794 439.092C898.527 439.092 887.772 428.326 887.772 415.046C887.772 401.766 898.527 391 911.794 391C925.061 391 935.816 401.766 935.816 415.046Z" fill="#83C63B"/>
<path d="M916.599 519.565C916.599 513.013 921.904 507.702 928.45 507.702C934.995 507.702 940.3 513.013 940.3 519.565V547.137C940.3 553.689 934.995 559 928.45 559C921.904 559 916.599 553.689 916.599 547.137V519.565Z" fill="#83C63B"/>
<path d="M925.867 473.609C922.517 467.981 924.36 460.7 929.982 457.347C935.605 453.993 942.879 455.837 946.229 461.466L960.328 485.153C963.678 490.781 961.836 498.062 956.213 501.415C950.59 504.769 943.316 502.925 939.966 497.296L925.867 473.609Z" fill="#83C63B"/>
<path d="M877.362 461.548C880.635 455.874 887.883 453.93 893.551 457.206C899.219 460.482 901.161 467.737 897.889 473.411L884.116 497.289C880.844 502.963 873.596 504.907 867.927 501.631C862.259 498.355 860.317 491.1 863.59 485.427L877.362 461.548Z" fill="#83C63B"/>
<path d="M883.288 519.565C883.288 513.013 888.594 507.702 895.139 507.702C901.684 507.702 906.99 513.013 906.99 519.565V547.137C906.99 553.689 901.684 559 895.139 559C888.594 559 883.288 553.689 883.288 547.137V519.565Z" fill="#83C63B"/>
</g>
<g id="Vector_14" filter="url(#filter13_d_110_1112)">
<path d="M1124.53 465.996C1129.85 442.672 1163.38 442.672 1168.7 465.996L1177.35 503.874C1180.55 517.912 1169.78 531.267 1155.26 531.267H1137.97C1123.45 531.267 1112.68 517.912 1115.89 503.874L1124.53 465.996Z" fill="#83C63B"/>
<path d="M1170.55 415.046C1170.55 428.326 1159.69 439.092 1146.29 439.092C1132.89 439.092 1122.03 428.326 1122.03 415.046C1122.03 401.766 1132.89 391 1146.29 391C1159.69 391 1170.55 401.766 1170.55 415.046Z" fill="#83C63B"/>
<path d="M1151.14 519.565C1151.14 513.013 1156.5 507.702 1163.11 507.702C1169.72 507.702 1175.08 513.013 1175.08 519.565V547.137C1175.08 553.689 1169.72 559 1163.11 559C1156.5 559 1151.14 553.689 1151.14 547.137V519.565Z" fill="#83C63B"/>
<path d="M1160.51 473.609C1157.12 467.981 1158.98 460.7 1164.66 457.347C1170.34 453.993 1177.69 455.837 1181.07 461.466L1195.31 485.153C1198.69 490.781 1196.83 498.062 1191.16 501.415C1185.48 504.769 1178.13 502.925 1174.75 497.296L1160.51 473.609Z" fill="#83C63B"/>
<path d="M1111.52 461.548C1114.82 455.874 1122.14 453.93 1127.87 457.206C1133.59 460.482 1135.55 467.737 1132.25 473.411L1118.34 497.289C1115.03 502.963 1107.71 504.907 1101.99 501.631C1096.26 498.355 1094.3 491.1 1097.61 485.427L1111.52 461.548Z" fill="#83C63B"/>
<path d="M1117.5 519.565C1117.5 513.013 1122.86 507.702 1129.47 507.702C1136.08 507.702 1141.44 513.013 1141.44 519.565V547.137C1141.44 553.689 1136.08 559 1129.47 559C1122.86 559 1117.5 553.689 1117.5 547.137V519.565Z" fill="#83C63B"/>
</g>
<g id="Vector_15" filter="url(#filter14_d_110_1112)">
<path d="M1007.53 465.996C1012.85 442.672 1046.38 442.672 1051.7 465.996L1060.35 503.874C1063.55 517.912 1052.78 531.267 1038.26 531.267H1020.97C1006.45 531.267 995.682 517.912 998.885 503.874L1007.53 465.996Z" fill="#83C63B"/>
<path d="M1053.55 415.046C1053.55 428.326 1042.69 439.092 1029.29 439.092C1015.89 439.092 1005.03 428.326 1005.03 415.046C1005.03 401.766 1015.89 391 1029.29 391C1042.69 391 1053.55 401.766 1053.55 415.046Z" fill="#83C63B"/>
<path d="M1034.14 519.565C1034.14 513.013 1039.5 507.702 1046.11 507.702C1052.72 507.702 1058.08 513.013 1058.08 519.565V547.137C1058.08 553.689 1052.72 559 1046.11 559C1039.5 559 1034.14 553.689 1034.14 547.137V519.565Z" fill="#83C63B"/>
<path d="M1043.51 473.609C1040.12 467.981 1041.98 460.7 1047.66 457.347C1053.34 453.993 1060.69 455.837 1064.07 461.466L1078.31 485.153C1081.69 490.781 1079.83 498.062 1074.16 501.415C1068.48 504.769 1061.13 502.925 1057.75 497.296L1043.51 473.609Z" fill="#83C63B"/>
<path d="M994.516 461.548C997.821 455.874 1005.14 453.93 1010.87 457.206C1016.59 460.482 1018.55 467.737 1015.25 473.411L1001.34 497.289C998.032 502.963 990.712 504.907 984.987 501.631C979.262 498.355 977.3 491.1 980.606 485.427L994.516 461.548Z" fill="#83C63B"/>
<path d="M1000.5 519.565C1000.5 513.013 1005.86 507.702 1012.47 507.702C1019.08 507.702 1024.44 513.013 1024.44 519.565V547.137C1024.44 553.689 1019.08 559 1012.47 559C1005.86 559 1000.5 553.689 1000.5 547.137V519.565Z" fill="#83C63B"/>
</g>
<g id="Vector_16" filter="url(#filter15_d_110_1112)">
<path d="M1242.25 465.996C1247.52 442.672 1280.71 442.672 1285.98 465.996L1294.54 503.874C1297.71 517.912 1287.05 531.267 1272.67 531.267H1255.56C1241.18 531.267 1230.52 517.912 1233.69 503.874L1242.25 465.996Z" fill="#83C63B"/>
<path d="M1287.82 415.046C1287.82 428.326 1277.06 439.092 1263.79 439.092C1250.53 439.092 1239.77 428.326 1239.77 415.046C1239.77 401.766 1250.53 391 1263.79 391C1277.06 391 1287.82 401.766 1287.82 415.046Z" fill="#83C63B"/>
<path d="M1268.6 519.565C1268.6 513.013 1273.9 507.702 1280.45 507.702C1286.99 507.702 1292.3 513.013 1292.3 519.565V547.137C1292.3 553.689 1286.99 559 1280.45 559C1273.9 559 1268.6 553.689 1268.6 547.137V519.565Z" fill="#83C63B"/>
<path d="M1277.87 473.609C1274.52 467.981 1276.36 460.7 1281.98 457.347C1287.61 453.993 1294.88 455.837 1298.23 461.466L1312.33 485.153C1315.68 490.781 1313.84 498.062 1308.21 501.415C1302.59 504.769 1295.32 502.925 1291.97 497.296L1277.87 473.609Z" fill="#83C63B"/>
<path d="M1229.36 461.548C1232.63 455.874 1239.88 453.93 1245.55 457.206C1251.22 460.482 1253.16 467.737 1249.89 473.411L1236.12 497.289C1232.84 502.963 1225.6 504.907 1219.93 501.631C1214.26 498.355 1212.32 491.1 1215.59 485.427L1229.36 461.548Z" fill="#83C63B"/>
<path d="M1235.29 519.565C1235.29 513.013 1240.59 507.702 1247.14 507.702C1253.68 507.702 1258.99 513.013 1258.99 519.565V547.137C1258.99 553.689 1253.68 559 1247.14 559C1240.59 559 1235.29 553.689 1235.29 547.137V519.565Z" fill="#83C63B"/>
</g>
<g id="Vector_17" filter="url(#filter16_d_110_1112)">
<path d="M789.33 502.388C795.548 474.899 834.722 474.899 840.94 502.388L851.038 547.03C854.78 563.575 842.199 579.315 825.233 579.315H805.037C788.071 579.315 775.49 563.575 779.232 547.03L789.33 502.388Z" fill="#7CE06A"/>
<path d="M843.103 442.34C843.103 457.991 830.412 470.679 814.757 470.679C799.102 470.679 786.411 457.991 786.411 442.34C786.411 426.688 799.102 414 814.757 414C830.412 414 843.103 426.688 843.103 442.34Z" fill="#7CE06A"/>
<path d="M820.426 565.523C820.426 557.801 826.687 551.542 834.41 551.542C842.134 551.542 848.395 557.801 848.395 565.523V598.019C848.395 605.741 842.134 612 834.41 612C826.687 612 820.426 605.741 820.426 598.019V565.523Z" fill="#7CE06A"/>
<path d="M831.364 511.361C827.41 504.728 829.584 496.146 836.219 492.194C842.854 488.242 851.437 490.416 855.39 497.049L872.027 524.966C875.98 531.599 873.806 540.18 867.171 544.132C860.537 548.085 851.953 545.911 848 539.278L831.364 511.361Z" fill="#7CE06A"/>
<path d="M774.128 497.146C777.989 490.459 786.542 488.168 793.23 492.029C799.919 495.889 802.21 504.44 798.349 511.127L782.097 539.269C778.235 545.956 769.683 548.248 762.994 544.387C756.306 540.526 754.014 531.975 757.876 525.289L774.128 497.146Z" fill="#7CE06A"/>
<path d="M781.12 565.523C781.12 557.801 787.381 551.542 795.104 551.542C802.827 551.542 809.088 557.801 809.088 565.523V598.019C809.088 605.741 802.827 612 795.104 612C787.381 612 781.12 605.741 781.12 598.019V565.523Z" fill="#7CE06A"/>
</g>
<g id="Vector_18" filter="url(#filter17_d_110_1112)">
<path d="M1065.33 502.388C1071.55 474.899 1110.72 474.899 1116.94 502.388L1127.04 547.03C1130.78 563.575 1118.2 579.315 1101.23 579.315H1081.04C1064.07 579.315 1051.49 563.575 1055.23 547.03L1065.33 502.388Z" fill="#7CE06A"/>
<path d="M1119.1 442.34C1119.1 457.991 1106.41 470.679 1090.76 470.679C1075.1 470.679 1062.41 457.991 1062.41 442.34C1062.41 426.688 1075.1 414 1090.76 414C1106.41 414 1119.1 426.688 1119.1 442.34Z" fill="#7CE06A"/>
<path d="M1096.43 565.523C1096.43 557.801 1102.69 551.542 1110.41 551.542C1118.13 551.542 1124.39 557.801 1124.39 565.523V598.019C1124.39 605.741 1118.13 612 1110.41 612C1102.69 612 1096.43 605.741 1096.43 598.019V565.523Z" fill="#7CE06A"/>
<path d="M1107.36 511.361C1103.41 504.728 1105.58 496.146 1112.22 492.194C1118.85 488.242 1127.44 490.416 1131.39 497.049L1148.03 524.966C1151.98 531.599 1149.81 540.18 1143.17 544.132C1136.54 548.085 1127.95 545.911 1124 539.278L1107.36 511.361Z" fill="#7CE06A"/>
<path d="M1050.13 497.146C1053.99 490.459 1062.54 488.168 1069.23 492.029C1075.92 495.889 1078.21 504.44 1074.35 511.127L1058.1 539.269C1054.24 545.956 1045.68 548.248 1038.99 544.387C1032.31 540.526 1030.01 531.975 1033.88 525.289L1050.13 497.146Z" fill="#7CE06A"/>
<path d="M1057.12 565.523C1057.12 557.801 1063.38 551.542 1071.1 551.542C1078.83 551.542 1085.09 557.801 1085.09 565.523V598.019C1085.09 605.741 1078.83 612 1071.1 612C1063.38 612 1057.12 605.741 1057.12 598.019V565.523Z" fill="#7CE06A"/>
</g>
<g id="Vector_19" filter="url(#filter18_d_110_1112)">
<path d="M927.33 502.388C933.548 474.899 972.722 474.899 978.94 502.388L989.038 547.03C992.78 563.575 980.199 579.315 963.233 579.315H943.037C926.071 579.315 913.49 563.575 917.232 547.03L927.33 502.388Z" fill="#7CE06A"/>
<path d="M981.103 442.34C981.103 457.991 968.412 470.679 952.757 470.679C937.102 470.679 924.411 457.991 924.411 442.34C924.411 426.688 937.102 414 952.757 414C968.412 414 981.103 426.688 981.103 442.34Z" fill="#7CE06A"/>
<path d="M958.426 565.523C958.426 557.801 964.687 551.542 972.41 551.542C980.134 551.542 986.395 557.801 986.395 565.523V598.019C986.395 605.741 980.134 612 972.41 612C964.687 612 958.426 605.741 958.426 598.019V565.523Z" fill="#7CE06A"/>
<path d="M969.364 511.361C965.41 504.728 967.584 496.146 974.219 492.194C980.854 488.242 989.437 490.416 993.39 497.049L1010.03 524.966C1013.98 531.599 1011.81 540.18 1005.17 544.132C998.537 548.085 989.953 545.911 986 539.278L969.364 511.361Z" fill="#7CE06A"/>
<path d="M912.128 497.146C915.989 490.459 924.542 488.168 931.23 492.029C937.919 495.889 940.21 504.44 936.349 511.127L920.097 539.269C916.235 545.956 907.683 548.248 900.994 544.387C894.306 540.526 892.014 531.975 895.876 525.289L912.128 497.146Z" fill="#7CE06A"/>
<path d="M919.12 565.523C919.12 557.801 925.381 551.542 933.104 551.542C940.827 551.542 947.088 557.801 947.088 565.523V598.019C947.088 605.741 940.827 612 933.104 612C925.381 612 919.12 605.741 919.12 598.019V565.523Z" fill="#7CE06A"/>
</g>
<g id="Vector_20" filter="url(#filter19_d_110_1112)">
<path d="M985.33 548.388C991.548 520.899 1030.72 520.899 1036.94 548.388L1047.04 593.03C1050.78 609.575 1038.2 625.315 1021.23 625.315H1001.04C984.071 625.315 971.49 609.575 975.232 593.03L985.33 548.388Z" fill="#9DFB8D"/>
<path d="M1039.1 488.34C1039.1 503.991 1026.41 516.679 1010.76 516.679C995.102 516.679 982.411 503.991 982.411 488.34C982.411 472.688 995.102 460 1010.76 460C1026.41 460 1039.1 472.688 1039.1 488.34Z" fill="#9DFB8D"/>
<path d="M1016.43 611.523C1016.43 603.801 1022.69 597.542 1030.41 597.542C1038.13 597.542 1044.39 603.801 1044.39 611.523V644.019C1044.39 651.741 1038.13 658 1030.41 658C1022.69 658 1016.43 651.741 1016.43 644.019V611.523Z" fill="#9DFB8D"/>
<path d="M1027.36 557.361C1023.41 550.728 1025.58 542.146 1032.22 538.194C1038.85 534.242 1047.44 536.416 1051.39 543.049L1068.03 570.966C1071.98 577.599 1069.81 586.18 1063.17 590.132C1056.54 594.085 1047.95 591.911 1044 585.278L1027.36 557.361Z" fill="#9DFB8D"/>
<path d="M970.128 543.146C973.989 536.459 982.542 534.168 989.23 538.029C995.919 541.889 998.21 550.44 994.349 557.127L978.097 585.269C974.235 591.956 965.683 594.248 958.994 590.387C952.306 586.526 950.014 577.975 953.876 571.289L970.128 543.146Z" fill="#9DFB8D"/>
<path d="M977.12 611.523C977.12 603.801 983.381 597.542 991.104 597.542C998.827 597.542 1005.09 603.801 1005.09 611.523V644.019C1005.09 651.741 998.827 658 991.104 658C983.381 658 977.12 651.741 977.12 644.019V611.523Z" fill="#9DFB8D"/>
</g>
<g id="Vector_21" filter="url(#filter20_d_110_1112)">
<path d="M1203.33 502.388C1209.55 474.899 1248.72 474.899 1254.94 502.388L1265.04 547.03C1268.78 563.575 1256.2 579.315 1239.23 579.315H1219.04C1202.07 579.315 1189.49 563.575 1193.23 547.03L1203.33 502.388Z" fill="#7CE06A"/>
<path d="M1257.1 442.34C1257.1 457.991 1244.41 470.679 1228.76 470.679C1213.1 470.679 1200.41 457.991 1200.41 442.34C1200.41 426.688 1213.1 414 1228.76 414C1244.41 414 1257.1 426.688 1257.1 442.34Z" fill="#7CE06A"/>
<path d="M1234.43 565.523C1234.43 557.801 1240.69 551.542 1248.41 551.542C1256.13 551.542 1262.39 557.801 1262.39 565.523V598.019C1262.39 605.741 1256.13 612 1248.41 612C1240.69 612 1234.43 605.741 1234.43 598.019V565.523Z" fill="#7CE06A"/>
<path d="M1245.36 511.361C1241.41 504.728 1243.58 496.146 1250.22 492.194C1256.85 488.242 1265.44 490.416 1269.39 497.049L1286.03 524.966C1289.98 531.599 1287.81 540.18 1281.17 544.132C1274.54 548.085 1265.95 545.911 1262 539.278L1245.36 511.361Z" fill="#7CE06A"/>
<path d="M1188.13 497.146C1191.99 490.459 1200.54 488.168 1207.23 492.029C1213.92 495.889 1216.21 504.44 1212.35 511.127L1196.1 539.269C1192.24 545.956 1183.68 548.248 1176.99 544.387C1170.31 540.526 1168.01 531.975 1171.88 525.289L1188.13 497.146Z" fill="#7CE06A"/>
<path d="M1195.12 565.523C1195.12 557.801 1201.38 551.542 1209.1 551.542C1216.83 551.542 1223.09 557.801 1223.09 565.523V598.019C1223.09 605.741 1216.83 612 1209.1 612C1201.38 612 1195.12 605.741 1195.12 598.019V565.523Z" fill="#7CE06A"/>
</g>
<g id="Vector_22" filter="url(#filter21_d_110_1112)">
<path d="M847.33 548.388C853.548 520.899 892.722 520.899 898.94 548.388L909.038 593.03C912.78 609.575 900.199 625.315 883.233 625.315H863.037C846.071 625.315 833.49 609.575 837.232 593.03L847.33 548.388Z" fill="#9DFB8D"/>
<path d="M901.103 488.34C901.103 503.991 888.412 516.679 872.757 516.679C857.102 516.679 844.411 503.991 844.411 488.34C844.411 472.688 857.102 460 872.757 460C888.412 460 901.103 472.688 901.103 488.34Z" fill="#9DFB8D"/>
<path d="M878.426 611.523C878.426 603.801 884.687 597.542 892.41 597.542C900.134 597.542 906.395 603.801 906.395 611.523V644.019C906.395 651.741 900.134 658 892.41 658C884.687 658 878.426 651.741 878.426 644.019V611.523Z" fill="#9DFB8D"/>
<path d="M889.364 557.361C885.41 550.728 887.584 542.146 894.219 538.194C900.854 534.242 909.437 536.416 913.39 543.049L930.027 570.966C933.98 577.599 931.806 586.18 925.171 590.132C918.537 594.085 909.953 591.911 906 585.278L889.364 557.361Z" fill="#9DFB8D"/>
<path d="M832.128 543.146C835.989 536.459 844.542 534.168 851.23 538.029C857.919 541.889 860.21 550.44 856.349 557.127L840.097 585.269C836.235 591.956 827.683 594.248 820.994 590.387C814.306 586.526 812.014 577.975 815.876 571.289L832.128 543.146Z" fill="#9DFB8D"/>
<path d="M839.12 611.523C839.12 603.801 845.381 597.542 853.104 597.542C860.827 597.542 867.088 603.801 867.088 611.523V644.019C867.088 651.741 860.827 658 853.104 658C845.381 658 839.12 651.741 839.12 644.019V611.523Z" fill="#9DFB8D"/>
</g>
<g id="Vector_23" filter="url(#filter22_d_110_1112)">
<path d="M1123.33 548.388C1129.55 520.899 1168.72 520.899 1174.94 548.388L1185.04 593.03C1188.78 609.575 1176.2 625.315 1159.23 625.315H1139.04C1122.07 625.315 1109.49 609.575 1113.23 593.03L1123.33 548.388Z" fill="#9DFB8D"/>
<path d="M1177.1 488.34C1177.1 503.991 1164.41 516.679 1148.76 516.679C1133.1 516.679 1120.41 503.991 1120.41 488.34C1120.41 472.688 1133.1 460 1148.76 460C1164.41 460 1177.1 472.688 1177.1 488.34Z" fill="#9DFB8D"/>
<path d="M1154.43 611.523C1154.43 603.801 1160.69 597.542 1168.41 597.542C1176.13 597.542 1182.39 603.801 1182.39 611.523V644.019C1182.39 651.741 1176.13 658 1168.41 658C1160.69 658 1154.43 651.741 1154.43 644.019V611.523Z" fill="#9DFB8D"/>
<path d="M1165.36 557.361C1161.41 550.728 1163.58 542.146 1170.22 538.194C1176.85 534.242 1185.44 536.416 1189.39 543.049L1206.03 570.966C1209.98 577.599 1207.81 586.18 1201.17 590.132C1194.54 594.085 1185.95 591.911 1182 585.278L1165.36 557.361Z" fill="#9DFB8D"/>
<path d="M1108.13 543.146C1111.99 536.459 1120.54 534.168 1127.23 538.029C1133.92 541.889 1136.21 550.44 1132.35 557.127L1116.1 585.269C1112.24 591.956 1103.68 594.248 1096.99 590.387C1090.31 586.526 1088.01 577.975 1091.88 571.289L1108.13 543.146Z" fill="#9DFB8D"/>
<path d="M1115.12 611.523C1115.12 603.801 1121.38 597.542 1129.1 597.542C1136.83 597.542 1143.09 603.801 1143.09 611.523V644.019C1143.09 651.741 1136.83 658 1129.1 658C1121.38 658 1115.12 651.741 1115.12 644.019V611.523Z" fill="#9DFB8D"/>
</g>
<g id="Vector_24" filter="url(#filter23_d_110_1112)">
<path d="M1261.33 548.388C1267.55 520.899 1306.72 520.899 1312.94 548.388L1323.04 593.03C1326.78 609.575 1314.2 625.315 1297.23 625.315H1277.04C1260.07 625.315 1247.49 609.575 1251.23 593.03L1261.33 548.388Z" fill="#9DFB8D"/>
<path d="M1315.1 488.34C1315.1 503.991 1302.41 516.679 1286.76 516.679C1271.1 516.679 1258.41 503.991 1258.41 488.34C1258.41 472.688 1271.1 460 1286.76 460C1302.41 460 1315.1 472.688 1315.1 488.34Z" fill="#9DFB8D"/>
<path d="M1292.43 611.523C1292.43 603.801 1298.69 597.542 1306.41 597.542C1314.13 597.542 1320.39 603.801 1320.39 611.523V644.019C1320.39 651.741 1314.13 658 1306.41 658C1298.69 658 1292.43 651.741 1292.43 644.019V611.523Z" fill="#9DFB8D"/>
<path d="M1303.36 557.361C1299.41 550.728 1301.58 542.146 1308.22 538.194C1314.85 534.242 1323.44 536.416 1327.39 543.049L1344.03 570.966C1347.98 577.599 1345.81 586.18 1339.17 590.132C1332.54 594.085 1323.95 591.911 1320 585.278L1303.36 557.361Z" fill="#9DFB8D"/>
<path d="M1246.13 543.146C1249.99 536.459 1258.54 534.168 1265.23 538.029C1271.92 541.889 1274.21 550.44 1270.35 557.127L1254.1 585.269C1250.24 591.956 1241.68 594.248 1234.99 590.387C1228.31 586.526 1226.01 577.975 1229.88 571.289L1246.13 543.146Z" fill="#9DFB8D"/>
<path d="M1253.12 611.523C1253.12 603.801 1259.38 597.542 1267.1 597.542C1274.83 597.542 1281.09 603.801 1281.09 611.523V644.019C1281.09 651.741 1274.83 658 1267.1 658C1259.38 658 1253.12 651.741 1253.12 644.019V611.523Z" fill="#9DFB8D"/>
</g>
</g>
<path id="we want to research!" d="M36.244 338L29.584 318.884H35.668L39.448 331.484L38.692 331.412L43.012 321.44H46.72L51.328 331.412L50.572 331.484L54.352 318.884H60.472L53.596 338H49.24L44.272 326.48L45.604 326.444L40.564 338H36.244ZM75.1203 338.36C72.7923 338.36 70.7523 337.94 69.0003 337.1C67.2723 336.236 65.9283 335.072 64.9683 333.608C64.0083 332.12 63.5283 330.428 63.5283 328.532C63.5283 327.02 63.8043 325.652 64.3563 324.428C64.9083 323.204 65.6763 322.148 66.6603 321.26C67.6443 320.372 68.7963 319.688 70.1163 319.208C71.4363 318.728 72.8643 318.488 74.4003 318.488C75.8883 318.488 77.2563 318.728 78.5043 319.208C79.7523 319.664 80.8323 320.324 81.7443 321.188C82.6803 322.052 83.4003 323.072 83.9043 324.248C84.4083 325.424 84.6363 326.72 84.5883 328.136L84.5523 329.756H67.3083L66.4803 326.408H79.8723L79.2603 327.128V326.408C79.1883 325.808 78.9243 325.268 78.4683 324.788C78.0363 324.308 77.4723 323.936 76.7763 323.672C76.0803 323.384 75.3123 323.24 74.4723 323.24C73.3923 323.24 72.4323 323.42 71.5923 323.78C70.7523 324.116 70.0923 324.644 69.6123 325.364C69.1563 326.084 68.9283 326.996 68.9283 328.1C68.9283 329.156 69.2043 330.08 69.7563 330.872C70.3323 331.664 71.1363 332.288 72.1683 332.744C73.2243 333.2 74.4603 333.428 75.8763 333.428C77.1003 333.428 78.1203 333.284 78.9363 332.996C79.7763 332.684 80.5323 332.3 81.2043 331.844L83.7963 335.588C83.0043 336.188 82.1283 336.704 81.1683 337.136C80.2323 337.544 79.2483 337.844 78.2163 338.036C77.2083 338.252 76.1763 338.36 75.1203 338.36ZM109.932 338L103.272 318.884H109.356L113.136 331.484L112.38 331.412L116.7 321.44H120.408L125.016 331.412L124.26 331.484L128.04 318.884H134.16L127.284 338H122.928L117.96 326.48L119.292 326.444L114.252 338H109.932ZM146.72 338.324C144.824 338.324 143.168 337.904 141.752 337.064C140.336 336.224 139.22 335.06 138.404 333.572C137.612 332.06 137.216 330.344 137.216 328.424C137.216 326.48 137.624 324.764 138.44 323.276C139.256 321.788 140.384 320.624 141.824 319.784C143.288 318.92 144.968 318.488 146.864 318.488C147.944 318.488 148.94 318.632 149.852 318.92C150.764 319.184 151.556 319.556 152.228 320.036C152.924 320.516 153.488 321.044 153.92 321.62C154.376 322.196 154.676 322.796 154.82 323.42H153.56V318.884H159.248V338H153.452V333.104L154.676 333.284C154.532 333.908 154.232 334.52 153.776 335.12C153.32 335.72 152.732 336.26 152.012 336.74C151.292 337.22 150.476 337.604 149.564 337.892C148.676 338.18 147.728 338.324 146.72 338.324ZM148.268 333.464C149.348 333.464 150.284 333.26 151.076 332.852C151.892 332.444 152.516 331.868 152.948 331.124C153.404 330.356 153.632 329.456 153.632 328.424C153.632 327.416 153.404 326.54 152.948 325.796C152.516 325.028 151.892 324.428 151.076 323.996C150.284 323.564 149.348 323.348 148.268 323.348C147.188 323.348 146.252 323.564 145.46 323.996C144.668 324.428 144.044 325.028 143.588 325.796C143.156 326.54 142.94 327.416 142.94 328.424C142.94 329.456 143.156 330.356 143.588 331.124C144.044 331.868 144.668 332.444 145.46 332.852C146.252 333.26 147.188 333.464 148.268 333.464ZM168.134 338V318.884H173.606L173.786 323.348L172.418 323.744C172.73 322.808 173.258 321.944 174.002 321.152C174.77 320.36 175.694 319.724 176.774 319.244C177.878 318.74 179.066 318.488 180.338 318.488C181.97 318.488 183.35 318.812 184.478 319.46C185.606 320.108 186.458 321.032 187.034 322.232C187.61 323.408 187.898 324.812 187.898 326.444V338H182.102V327.272C182.102 326.432 181.946 325.724 181.634 325.148C181.346 324.572 180.902 324.128 180.302 323.816C179.726 323.504 179.054 323.348 178.286 323.348C177.614 323.348 177.002 323.468 176.45 323.708C175.922 323.924 175.466 324.224 175.082 324.608C174.698 324.968 174.398 325.376 174.182 325.832C173.99 326.288 173.894 326.756 173.894 327.236V338H171.05C170.258 338 169.622 338 169.142 338C168.662 338 168.326 338 168.134 338ZM198.588 338V313.628H204.348V338H198.588ZM194.34 323.924V318.884H209.208V323.924H194.34ZM232.654 338V313.628H238.414V338H232.654ZM228.406 323.924V318.884H243.274V323.924H228.406ZM259.764 338.36C257.532 338.36 255.552 337.928 253.824 337.064C252.096 336.2 250.74 335.024 249.756 333.536C248.772 332.048 248.28 330.344 248.28 328.424C248.28 326.504 248.772 324.8 249.756 323.312C250.74 321.824 252.096 320.648 253.824 319.784C255.552 318.92 257.532 318.488 259.764 318.488C261.972 318.488 263.928 318.92 265.632 319.784C267.36 320.648 268.716 321.824 269.7 323.312C270.684 324.8 271.176 326.504 271.176 328.424C271.176 330.344 270.684 332.048 269.7 333.536C268.716 335.024 267.36 336.2 265.632 337.064C263.928 337.928 261.972 338.36 259.764 338.36ZM259.764 333.392C260.796 333.392 261.732 333.176 262.572 332.744C263.436 332.312 264.108 331.724 264.588 330.98C265.092 330.236 265.332 329.384 265.308 328.424C265.332 327.464 265.092 326.6 264.588 325.832C264.108 325.064 263.436 324.476 262.572 324.068C261.732 323.636 260.796 323.42 259.764 323.42C258.708 323.42 257.736 323.636 256.848 324.068C255.984 324.5 255.312 325.088 254.832 325.832C254.352 326.576 254.112 327.44 254.112 328.424C254.112 329.384 254.352 330.236 254.832 330.98C255.312 331.724 255.984 332.312 256.848 332.744C257.736 333.176 258.708 333.392 259.764 333.392ZM292.798 338V318.884H298.27L298.522 325.472L297.154 324.788C297.466 323.612 298.006 322.556 298.774 321.62C299.566 320.66 300.466 319.904 301.474 319.352C302.506 318.776 303.598 318.488 304.75 318.488C305.374 318.488 305.962 318.548 306.514 318.668C307.09 318.788 307.582 318.944 307.99 319.136L306.406 325.436C306.046 325.172 305.554 324.968 304.93 324.824C304.33 324.68 303.718 324.608 303.094 324.608C302.398 324.608 301.762 324.728 301.186 324.968C300.634 325.184 300.166 325.496 299.782 325.904C299.398 326.288 299.098 326.732 298.882 327.236C298.69 327.74 298.594 328.28 298.594 328.856V338H292.798ZM323.077 338.36C320.749 338.36 318.709 337.94 316.957 337.1C315.229 336.236 313.885 335.072 312.925 333.608C311.965 332.12 311.485 330.428 311.485 328.532C311.485 327.02 311.761 325.652 312.313 324.428C312.865 323.204 313.633 322.148 314.617 321.26C315.601 320.372 316.753 319.688 318.073 319.208C319.393 318.728 320.821 318.488 322.357 318.488C323.845 318.488 325.213 318.728 326.461 319.208C327.709 319.664 328.789 320.324 329.701 321.188C330.637 322.052 331.357 323.072 331.861 324.248C332.365 325.424 332.593 326.72 332.545 328.136L332.509 329.756H315.265L314.437 326.408H327.829L327.217 327.128V326.408C327.145 325.808 326.881 325.268 326.425 324.788C325.993 324.308 325.429 323.936 324.733 323.672C324.037 323.384 323.269 323.24 322.429 323.24C321.349 323.24 320.389 323.42 319.549 323.78C318.709 324.116 318.049 324.644 317.569 325.364C317.113 326.084 316.885 326.996 316.885 328.1C316.885 329.156 317.161 330.08 317.713 330.872C318.289 331.664 319.093 332.288 320.125 332.744C321.181 333.2 322.417 333.428 323.833 333.428C325.057 333.428 326.077 333.284 326.893 332.996C327.733 332.684 328.489 332.3 329.161 331.844L331.753 335.588C330.961 336.188 330.085 336.704 329.125 337.136C328.189 337.544 327.205 337.844 326.173 338.036C325.165 338.252 324.133 338.36 323.077 338.36ZM346.968 338.36C344.856 338.36 342.96 338.06 341.28 337.46C339.624 336.86 338.292 336.008 337.284 334.904L340.776 331.808C341.592 332.576 342.564 333.164 343.692 333.572C344.82 333.98 346.008 334.184 347.256 334.184C347.64 334.184 348.012 334.148 348.372 334.076C348.756 334.004 349.08 333.908 349.344 333.788C349.632 333.644 349.86 333.476 350.028 333.284C350.196 333.092 350.28 332.852 350.28 332.564C350.28 332.108 349.992 331.748 349.416 331.484C349.008 331.34 348.492 331.196 347.868 331.052C347.244 330.908 346.536 330.752 345.744 330.584C344.424 330.344 343.26 330.056 342.252 329.72C341.268 329.36 340.44 328.916 339.768 328.388C339.192 327.884 338.748 327.308 338.436 326.66C338.124 326.012 337.968 325.256 337.968 324.392C337.968 323.504 338.196 322.7 338.652 321.98C339.108 321.236 339.744 320.612 340.56 320.108C341.376 319.58 342.312 319.184 343.368 318.92C344.424 318.632 345.528 318.488 346.68 318.488C347.832 318.488 348.96 318.608 350.064 318.848C351.168 319.064 352.212 319.388 353.196 319.82C354.18 320.228 355.044 320.756 355.788 321.404L352.836 324.86C352.308 324.452 351.696 324.08 351 323.744C350.304 323.408 349.56 323.144 348.768 322.952C348 322.736 347.244 322.628 346.5 322.628C346.092 322.628 345.696 322.652 345.312 322.7C344.952 322.748 344.64 322.844 344.376 322.988C344.112 323.108 343.896 323.264 343.728 323.456C343.584 323.624 343.512 323.84 343.512 324.104C343.512 324.32 343.572 324.524 343.692 324.716C343.812 324.908 343.992 325.064 344.232 325.184C344.568 325.4 345.06 325.592 345.708 325.76C346.38 325.928 347.22 326.108 348.228 326.3C349.692 326.612 350.94 326.972 351.972 327.38C353.004 327.764 353.832 328.232 354.456 328.784C354.96 329.168 355.332 329.648 355.572 330.224C355.812 330.776 355.932 331.388 355.932 332.06C355.932 333.284 355.536 334.376 354.744 335.336C353.976 336.272 352.92 337.016 351.576 337.568C350.256 338.096 348.72 338.36 346.968 338.36ZM371.945 338.36C369.617 338.36 367.577 337.94 365.825 337.1C364.097 336.236 362.753 335.072 361.793 333.608C360.833 332.12 360.353 330.428 360.353 328.532C360.353 327.02 360.629 325.652 361.181 324.428C361.733 323.204 362.501 322.148 363.485 321.26C364.469 320.372 365.621 319.688 366.941 319.208C368.261 318.728 369.689 318.488 371.225 318.488C372.713 318.488 374.081 318.728 375.329 319.208C376.577 319.664 377.657 320.324 378.569 321.188C379.505 322.052 380.225 323.072 380.729 324.248C381.233 325.424 381.461 326.72 381.413 328.136L381.377 329.756H364.133L363.305 326.408H376.697L376.085 327.128V326.408C376.013 325.808 375.749 325.268 375.293 324.788C374.861 324.308 374.297 323.936 373.601 323.672C372.905 323.384 372.137 323.24 371.297 323.24C370.217 323.24 369.257 323.42 368.417 323.78C367.577 324.116 366.917 324.644 366.437 325.364C365.981 326.084 365.753 326.996 365.753 328.1C365.753 329.156 366.029 330.08 366.581 330.872C367.157 331.664 367.961 332.288 368.993 332.744C370.049 333.2 371.285 333.428 372.701 333.428C373.925 333.428 374.945 333.284 375.761 332.996C376.601 332.684 377.357 332.3 378.029 331.844L380.621 335.588C379.829 336.188 378.953 336.704 377.993 337.136C377.057 337.544 376.073 337.844 375.041 338.036C374.033 338.252 373.001 338.36 371.945 338.36ZM395.907 338.324C394.011 338.324 392.355 337.904 390.939 337.064C389.523 336.224 388.407 335.06 387.591 333.572C386.799 332.06 386.403 330.344 386.403 328.424C386.403 326.48 386.811 324.764 387.627 323.276C388.443 321.788 389.571 320.624 391.011 319.784C392.475 318.92 394.155 318.488 396.051 318.488C397.131 318.488 398.127 318.632 399.039 318.92C399.951 319.184 400.743 319.556 401.415 320.036C402.111 320.516 402.675 321.044 403.107 321.62C403.563 322.196 403.863 322.796 404.007 323.42H402.747V318.884H408.435V338H402.639V333.104L403.863 333.284C403.719 333.908 403.419 334.52 402.963 335.12C402.507 335.72 401.919 336.26 401.199 336.74C400.479 337.22 399.663 337.604 398.751 337.892C397.863 338.18 396.915 338.324 395.907 338.324ZM397.455 333.464C398.535 333.464 399.471 333.26 400.263 332.852C401.079 332.444 401.703 331.868 402.135 331.124C402.591 330.356 402.819 329.456 402.819 328.424C402.819 327.416 402.591 326.54 402.135 325.796C401.703 325.028 401.079 324.428 400.263 323.996C399.471 323.564 398.535 323.348 397.455 323.348C396.375 323.348 395.439 323.564 394.647 323.996C393.855 324.428 393.231 325.028 392.775 325.796C392.343 326.54 392.127 327.416 392.127 328.424C392.127 329.456 392.343 330.356 392.775 331.124C393.231 331.868 393.855 332.444 394.647 332.852C395.439 333.26 396.375 333.464 397.455 333.464ZM417.321 338V318.884H422.793L423.045 325.472L421.677 324.788C421.989 323.612 422.529 322.556 423.297 321.62C424.089 320.66 424.989 319.904 425.997 319.352C427.029 318.776 428.121 318.488 429.273 318.488C429.897 318.488 430.485 318.548 431.037 318.668C431.613 318.788 432.105 318.944 432.513 319.136L430.929 325.436C430.569 325.172 430.077 324.968 429.453 324.824C428.853 324.68 428.241 324.608 427.617 324.608C426.921 324.608 426.285 324.728 425.709 324.968C425.157 325.184 424.689 325.496 424.305 325.904C423.921 326.288 423.621 326.732 423.405 327.236C423.213 327.74 423.117 328.28 423.117 328.856V338H417.321ZM447.133 338.36C445.021 338.36 443.149 337.928 441.517 337.064C439.885 336.2 438.601 335.024 437.665 333.536C436.729 332.024 436.261 330.32 436.261 328.424C436.261 326.528 436.729 324.836 437.665 323.348C438.601 321.836 439.873 320.648 441.481 319.784C443.089 318.92 444.913 318.488 446.953 318.488C448.897 318.488 450.673 318.788 452.281 319.388C453.889 319.964 455.197 320.78 456.205 321.836L453.073 325.796C452.641 325.388 452.125 325.004 451.525 324.644C450.925 324.284 450.277 324.008 449.581 323.816C448.909 323.6 448.213 323.492 447.493 323.492C446.389 323.492 445.417 323.708 444.577 324.14C443.761 324.548 443.125 325.124 442.669 325.868C442.237 326.612 442.021 327.464 442.021 328.424C442.021 329.336 442.249 330.164 442.705 330.908C443.161 331.652 443.797 332.24 444.613 332.672C445.429 333.104 446.377 333.32 447.457 333.32C448.321 333.32 449.089 333.236 449.761 333.068C450.433 332.9 451.045 332.672 451.597 332.384C452.173 332.072 452.665 331.724 453.073 331.34L456.205 335.264C455.125 336.176 453.805 336.92 452.245 337.496C450.685 338.072 448.981 338.36 447.133 338.36ZM462.849 338V311.36H468.501V323.348L467.133 323.816C467.373 322.856 467.877 321.98 468.645 321.188C469.437 320.372 470.397 319.724 471.525 319.244C472.653 318.74 473.853 318.488 475.125 318.488C476.757 318.488 478.125 318.824 479.229 319.496C480.357 320.144 481.197 321.068 481.749 322.268C482.325 323.444 482.613 324.824 482.613 326.408V338H476.816V327.308C476.816 326.444 476.661 325.724 476.349 325.148C476.061 324.548 475.617 324.092 475.017 323.78C474.441 323.468 473.769 323.324 473.001 323.348C472.377 323.348 471.789 323.456 471.237 323.672C470.709 323.864 470.241 324.152 469.833 324.536C469.449 324.896 469.149 325.316 468.933 325.796C468.717 326.276 468.609 326.792 468.609 327.344V338H465.765C464.973 338 464.337 338 463.857 338C463.377 338 463.041 338 462.849 338ZM492.907 328.82C492.643 327.428 492.379 325.964 492.115 324.428C491.875 322.892 491.671 321.344 491.503 319.784C491.335 318.2 491.251 316.676 491.251 315.212V312.404H498.199V315.212C498.199 316.676 498.115 318.2 497.947 319.784C497.803 321.344 497.599 322.892 497.335 324.428C497.095 325.964 496.819 327.428 496.507 328.82H492.907ZM494.743 338.396C493.567 338.396 492.667 338.12 492.043 337.568C491.419 336.992 491.107 336.2 491.107 335.192C491.107 334.28 491.419 333.512 492.043 332.888C492.691 332.264 493.591 331.952 494.743 331.952C495.919 331.952 496.807 332.24 497.407 332.816C498.031 333.392 498.343 334.184 498.343 335.192C498.343 336.08 498.019 336.836 497.371 337.46C496.747 338.084 495.871 338.396 494.743 338.396Z" fill="white"/>
<path id="nice" d="M1240.83 347V327.884H1246.3L1246.48 332.348L1245.11 332.744C1245.42 331.808 1245.95 330.944 1246.69 330.152C1247.46 329.36 1248.39 328.724 1249.47 328.244C1250.57 327.74 1251.76 327.488 1253.03 327.488C1254.66 327.488 1256.04 327.812 1257.17 328.46C1258.3 329.108 1259.15 330.032 1259.73 331.232C1260.3 332.408 1260.59 333.812 1260.59 335.444V347H1254.79V336.272C1254.79 335.432 1254.64 334.724 1254.33 334.148C1254.04 333.572 1253.59 333.128 1252.99 332.816C1252.42 332.504 1251.75 332.348 1250.98 332.348C1250.31 332.348 1249.69 332.468 1249.14 332.708C1248.61 332.924 1248.16 333.224 1247.77 333.608C1247.39 333.968 1247.09 334.376 1246.87 334.832C1246.68 335.288 1246.59 335.756 1246.59 336.236V347H1243.74C1242.95 347 1242.31 347 1241.83 347C1241.35 347 1241.02 347 1240.83 347ZM1269.7 347V327.884H1275.49V347H1269.7ZM1272.58 323.96C1271.5 323.96 1270.66 323.708 1270.06 323.204C1269.46 322.676 1269.16 321.932 1269.16 320.972C1269.16 320.108 1269.46 319.4 1270.06 318.848C1270.68 318.296 1271.52 318.02 1272.58 318.02C1273.66 318.02 1274.5 318.284 1275.1 318.812C1275.7 319.316 1276 320.036 1276 320.972C1276 321.86 1275.68 322.58 1275.06 323.132C1274.46 323.684 1273.63 323.96 1272.58 323.96ZM1293.77 347.36C1291.66 347.36 1289.79 346.928 1288.15 346.064C1286.52 345.2 1285.24 344.024 1284.3 342.536C1283.37 341.024 1282.9 339.32 1282.9 337.424C1282.9 335.528 1283.37 333.836 1284.3 332.348C1285.24 330.836 1286.51 329.648 1288.12 328.784C1289.73 327.92 1291.55 327.488 1293.59 327.488C1295.53 327.488 1297.31 327.788 1298.92 328.388C1300.53 328.964 1301.83 329.78 1302.84 330.836L1299.71 334.796C1299.28 334.388 1298.76 334.004 1298.16 333.644C1297.56 333.284 1296.91 333.008 1296.22 332.816C1295.55 332.6 1294.85 332.492 1294.13 332.492C1293.03 332.492 1292.05 332.708 1291.21 333.14C1290.4 333.548 1289.76 334.124 1289.31 334.868C1288.87 335.612 1288.66 336.464 1288.66 337.424C1288.66 338.336 1288.89 339.164 1289.34 339.908C1289.8 340.652 1290.43 341.24 1291.25 341.672C1292.07 342.104 1293.01 342.32 1294.09 342.32C1294.96 342.32 1295.73 342.236 1296.4 342.068C1297.07 341.9 1297.68 341.672 1298.23 341.384C1298.81 341.072 1299.3 340.724 1299.71 340.34L1302.84 344.264C1301.76 345.176 1300.44 345.92 1298.88 346.496C1297.32 347.072 1295.62 347.36 1293.77 347.36ZM1318.92 347.36C1316.59 347.36 1314.55 346.94 1312.8 346.1C1311.07 345.236 1309.73 344.072 1308.77 342.608C1307.81 341.12 1307.33 339.428 1307.33 337.532C1307.33 336.02 1307.6 334.652 1308.15 333.428C1308.71 332.204 1309.47 331.148 1310.46 330.26C1311.44 329.372 1312.59 328.688 1313.91 328.208C1315.23 327.728 1316.66 327.488 1318.2 327.488C1319.69 327.488 1321.05 327.728 1322.3 328.208C1323.55 328.664 1324.63 329.324 1325.54 330.188C1326.48 331.052 1327.2 332.072 1327.7 333.248C1328.21 334.424 1328.43 335.72 1328.39 337.136L1328.35 338.756H1311.11L1310.28 335.408H1323.67L1323.06 336.128V335.408C1322.99 334.808 1322.72 334.268 1322.27 333.788C1321.83 333.308 1321.27 332.936 1320.57 332.672C1319.88 332.384 1319.11 332.24 1318.27 332.24C1317.19 332.24 1316.23 332.42 1315.39 332.78C1314.55 333.116 1313.89 333.644 1313.41 334.364C1312.95 335.084 1312.73 335.996 1312.73 337.1C1312.73 338.156 1313 339.08 1313.55 339.872C1314.13 340.664 1314.93 341.288 1315.97 341.744C1317.02 342.2 1318.26 342.428 1319.67 342.428C1320.9 342.428 1321.92 342.284 1322.73 341.996C1323.57 341.684 1324.33 341.3 1325 340.844L1327.59 344.588C1326.8 345.188 1325.93 345.704 1324.97 346.136C1324.03 346.544 1323.05 346.844 1322.01 347.036C1321.01 347.252 1319.97 347.36 1318.92 347.36Z" fill="white"/>
</g>
<defs>
<filter id="filter0_d_110_1112" x="137" y="391" width="108" height="176" filterUnits="userSpaceOnUse" color-interpolation-filters="sRGB">
<feFlood flood-opacity="0" result="BackgroundImageFix"/>
<feColorMatrix in="SourceAlpha" type="matrix" values="0 0 0 0 0 0 0 0 0 0 0 0 0 0 0 0 0 0 127 0" result="hardAlpha"/>
<feOffset dy="4"/>
<feGaussianBlur stdDeviation="2"/>
<feComposite in2="hardAlpha" operator="out"/>
<feColorMatrix type="matrix" values="0 0 0 0 0 0 0 0 0 0 0 0 0 0 0 0 0 0 0.25 0"/>
<feBlend mode="normal" in2="BackgroundImageFix" result="effect1_dropShadow_110_1112"/>
<feBlend mode="normal" in="SourceGraphic" in2="effect1_dropShadow_110_1112" result="shape"/>
</filter>
<filter id="filter1_d_110_1112" x="371" y="391" width="109" height="176" filterUnits="userSpaceOnUse" color-interpolation-filters="sRGB">
<feFlood flood-opacity="0" result="BackgroundImageFix"/>
<feColorMatrix in="SourceAlpha" type="matrix" values="0 0 0 0 0 0 0 0 0 0 0 0 0 0 0 0 0 0 127 0" result="hardAlpha"/>
<feOffset dy="4"/>
<feGaussianBlur stdDeviation="2"/>
<feComposite in2="hardAlpha" operator="out"/>
<feColorMatrix type="matrix" values="0 0 0 0 0 0 0 0 0 0 0 0 0 0 0 0 0 0 0.25 0"/>
<feBlend mode="normal" in2="BackgroundImageFix" result="effect1_dropShadow_110_1112"/>
<feBlend mode="normal" in="SourceGraphic" in2="effect1_dropShadow_110_1112" result="shape"/>
</filter>
<filter id="filter2_d_110_1112" x="254" y="391" width="109" height="176" filterUnits="userSpaceOnUse" color-interpolation-filters="sRGB">
<feFlood flood-opacity="0" result="BackgroundImageFix"/>
<feColorMatrix in="SourceAlpha" type="matrix" values="0 0 0 0 0 0 0 0 0 0 0 0 0 0 0 0 0 0 127 0" result="hardAlpha"/>
<feOffset dy="4"/>
<feGaussianBlur stdDeviation="2"/>
<feComposite in2="hardAlpha" operator="out"/>
<feColorMatrix type="matrix" values="0 0 0 0 0 0 0 0 0 0 0 0 0 0 0 0 0 0 0.25 0"/>
<feBlend mode="normal" in2="BackgroundImageFix" result="effect1_dropShadow_110_1112"/>
<feBlend mode="normal" in="SourceGraphic" in2="effect1_dropShadow_110_1112" result="shape"/>
</filter>
<filter id="filter3_d_110_1112" x="489" y="391" width="108" height="176" filterUnits="userSpaceOnUse" color-interpolation-filters="sRGB">
<feFlood flood-opacity="0" result="BackgroundImageFix"/>
<feColorMatrix in="SourceAlpha" type="matrix" values="0 0 0 0 0 0 0 0 0 0 0 0 0 0 0 0 0 0 127 0" result="hardAlpha"/>
<feOffset dy="4"/>
<feGaussianBlur stdDeviation="2"/>
<feComposite in2="hardAlpha" operator="out"/>
<feColorMatrix type="matrix" values="0 0 0 0 0 0 0 0 0 0 0 0 0 0 0 0 0 0 0.25 0"/>
<feBlend mode="normal" in2="BackgroundImageFix" result="effect1_dropShadow_110_1112"/>
<feBlend mode="normal" in="SourceGraphic" in2="effect1_dropShadow_110_1112" result="shape"/>
</filter>
<filter id="filter4_d_110_1112" x="31" y="414" width="126" height="206" filterUnits="userSpaceOnUse" color-interpolation-filters="sRGB">
<feFlood flood-opacity="0" result="BackgroundImageFix"/>
<feColorMatrix in="SourceAlpha" type="matrix" values="0 0 0 0 0 0 0 0 0 0 0 0 0 0 0 0 0 0 127 0" result="hardAlpha"/>
<feOffset dy="4"/>
<feGaussianBlur stdDeviation="2"/>
<feComposite in2="hardAlpha" operator="out"/>
<feColorMatrix type="matrix" values="0 0 0 0 0 0 0 0 0 0 0 0 0 0 0 0 0 0 0.25 0"/>
<feBlend mode="normal" in2="BackgroundImageFix" result="effect1_dropShadow_110_1112"/>
<feBlend mode="normal" in="SourceGraphic" in2="effect1_dropShadow_110_1112" result="shape"/>
</filter>
<filter id="filter5_d_110_1112" x="307" y="414" width="126" height="206" filterUnits="userSpaceOnUse" color-interpolation-filters="sRGB">
<feFlood flood-opacity="0" result="BackgroundImageFix"/>
<feColorMatrix in="SourceAlpha" type="matrix" values="0 0 0 0 0 0 0 0 0 0 0 0 0 0 0 0 0 0 127 0" result="hardAlpha"/>
<feOffset dy="4"/>
<feGaussianBlur stdDeviation="2"/>
<feComposite in2="hardAlpha" operator="out"/>
<feColorMatrix type="matrix" values="0 0 0 0 0 0 0 0 0 0 0 0 0 0 0 0 0 0 0.25 0"/>
<feBlend mode="normal" in2="BackgroundImageFix" result="effect1_dropShadow_110_1112"/>
<feBlend mode="normal" in="SourceGraphic" in2="effect1_dropShadow_110_1112" result="shape"/>
</filter>
<filter id="filter6_d_110_1112" x="169" y="414" width="126" height="206" filterUnits="userSpaceOnUse" color-interpolation-filters="sRGB">
<feFlood flood-opacity="0" result="BackgroundImageFix"/>
<feColorMatrix in="SourceAlpha" type="matrix" values="0 0 0 0 0 0 0 0 0 0 0 0 0 0 0 0 0 0 127 0" result="hardAlpha"/>
<feOffset dy="4"/>
<feGaussianBlur stdDeviation="2"/>
<feComposite in2="hardAlpha" operator="out"/>
<feColorMatrix type="matrix" values="0 0 0 0 0 0 0 0 0 0 0 0 0 0 0 0 0 0 0.25 0"/>
<feBlend mode="normal" in2="BackgroundImageFix" result="effect1_dropShadow_110_1112"/>
<feBlend mode="normal" in="SourceGraphic" in2="effect1_dropShadow_110_1112" result="shape"/>
</filter>
<filter id="filter7_d_110_1112" x="227" y="460" width="126" height="206" filterUnits="userSpaceOnUse" color-interpolation-filters="sRGB">
<feFlood flood-opacity="0" result="BackgroundImageFix"/>
<feColorMatrix in="SourceAlpha" type="matrix" values="0 0 0 0 0 0 0 0 0 0 0 0 0 0 0 0 0 0 127 0" result="hardAlpha"/>
<feOffset dy="4"/>
<feGaussianBlur stdDeviation="2"/>
<feComposite in2="hardAlpha" operator="out"/>
<feColorMatrix type="matrix" values="0 0 0 0 0 0 0 0 0 0 0 0 0 0 0 0 0 0 0.25 0"/>
<feBlend mode="normal" in2="BackgroundImageFix" result="effect1_dropShadow_110_1112"/>
<feBlend mode="normal" in="SourceGraphic" in2="effect1_dropShadow_110_1112" result="shape"/>
</filter>
<filter id="filter8_d_110_1112" x="445" y="414" width="126" height="206" filterUnits="userSpaceOnUse" color-interpolation-filters="sRGB">
<feFlood flood-opacity="0" result="BackgroundImageFix"/>
<feColorMatrix in="SourceAlpha" type="matrix" values="0 0 0 0 0 0 0 0 0 0 0 0 0 0 0 0 0 0 127 0" result="hardAlpha"/>
<feOffset dy="4"/>
<feGaussianBlur stdDeviation="2"/>
<feComposite in2="hardAlpha" operator="out"/>
<feColorMatrix type="matrix" values="0 0 0 0 0 0 0 0 0 0 0 0 0 0 0 0 0 0 0.25 0"/>
<feBlend mode="normal" in2="BackgroundImageFix" result="effect1_dropShadow_110_1112"/>
<feBlend mode="normal" in="SourceGraphic" in2="effect1_dropShadow_110_1112" result="shape"/>
</filter>
<filter id="filter9_d_110_1112" x="89" y="460" width="126" height="206" filterUnits="userSpaceOnUse" color-interpolation-filters="sRGB">
<feFlood flood-opacity="0" result="BackgroundImageFix"/>
<feColorMatrix in="SourceAlpha" type="matrix" values="0 0 0 0 0 0 0 0 0 0 0 0 0 0 0 0 0 0 127 0" result="hardAlpha"/>
<feOffset dy="4"/>
<feGaussianBlur stdDeviation="2"/>
<feComposite in2="hardAlpha" operator="out"/>
<feColorMatrix type="matrix" values="0 0 0 0 0 0 0 0 0 0 0 0 0 0 0 0 0 0 0.25 0"/>
<feBlend mode="normal" in2="BackgroundImageFix" result="effect1_dropShadow_110_1112"/>
<feBlend mode="normal" in="SourceGraphic" in2="effect1_dropShadow_110_1112" result="shape"/>
</filter>
<filter id="filter10_d_110_1112" x="365" y="460" width="126" height="206" filterUnits="userSpaceOnUse" color-interpolation-filters="sRGB">
<feFlood flood-opacity="0" result="BackgroundImageFix"/>
<feColorMatrix in="SourceAlpha" type="matrix" values="0 0 0 0 0 0 0 0 0 0 0 0 0 0 0 0 0 0 127 0" result="hardAlpha"/>
<feOffset dy="4"/>
<feGaussianBlur stdDeviation="2"/>
<feComposite in2="hardAlpha" operator="out"/>
<feColorMatrix type="matrix" values="0 0 0 0 0 0 0 0 0 0 0 0 0 0 0 0 0 0 0.25 0"/>
<feBlend mode="normal" in2="BackgroundImageFix" result="effect1_dropShadow_110_1112"/>
<feBlend mode="normal" in="SourceGraphic" in2="effect1_dropShadow_110_1112" result="shape"/>
</filter>
<filter id="filter11_d_110_1112" x="503" y="460" width="126" height="206" filterUnits="userSpaceOnUse" color-interpolation-filters="sRGB">
<feFlood flood-opacity="0" result="BackgroundImageFix"/>
<feColorMatrix in="SourceAlpha" type="matrix" values="0 0 0 0 0 0 0 0 0 0 0 0 0 0 0 0 0 0 127 0" result="hardAlpha"/>
<feOffset dy="4"/>
<feGaussianBlur stdDeviation="2"/>
<feComposite in2="hardAlpha" operator="out"/>
<feColorMatrix type="matrix" values="0 0 0 0 0 0 0 0 0 0 0 0 0 0 0 0 0 0 0.25 0"/>
<feBlend mode="normal" in2="BackgroundImageFix" result="effect1_dropShadow_110_1112"/>
<feBlend mode="normal" in="SourceGraphic" in2="effect1_dropShadow_110_1112" result="shape"/>
</filter>
<filter id="filter12_d_110_1112" x="858" y="391" width="108" height="176" filterUnits="userSpaceOnUse" color-interpolation-filters="sRGB">
<feFlood flood-opacity="0" result="BackgroundImageFix"/>
<feColorMatrix in="SourceAlpha" type="matrix" values="0 0 0 0 0 0 0 0 0 0 0 0 0 0 0 0 0 0 127 0" result="hardAlpha"/>
<feOffset dy="4"/>
<feGaussianBlur stdDeviation="2"/>
<feComposite in2="hardAlpha" operator="out"/>
<feColorMatrix type="matrix" values="0 0 0 0 0 0 0 0 0 0 0 0 0 0 0 0 0 0 0.25 0"/>
<feBlend mode="normal" in2="BackgroundImageFix" result="effect1_dropShadow_110_1112"/>
<feBlend mode="normal" in="SourceGraphic" in2="effect1_dropShadow_110_1112" result="shape"/>
</filter>
<filter id="filter13_d_110_1112" x="1092" y="391" width="109" height="176" filterUnits="userSpaceOnUse" color-interpolation-filters="sRGB">
<feFlood flood-opacity="0" result="BackgroundImageFix"/>
<feColorMatrix in="SourceAlpha" type="matrix" values="0 0 0 0 0 0 0 0 0 0 0 0 0 0 0 0 0 0 127 0" result="hardAlpha"/>
<feOffset dy="4"/>
<feGaussianBlur stdDeviation="2"/>
<feComposite in2="hardAlpha" operator="out"/>
<feColorMatrix type="matrix" values="0 0 0 0 0 0 0 0 0 0 0 0 0 0 0 0 0 0 0.25 0"/>
<feBlend mode="normal" in2="BackgroundImageFix" result="effect1_dropShadow_110_1112"/>
<feBlend mode="normal" in="SourceGraphic" in2="effect1_dropShadow_110_1112" result="shape"/>
</filter>
<filter id="filter14_d_110_1112" x="975" y="391" width="109" height="176" filterUnits="userSpaceOnUse" color-interpolation-filters="sRGB">
<feFlood flood-opacity="0" result="BackgroundImageFix"/>
<feColorMatrix in="SourceAlpha" type="matrix" values="0 0 0 0 0 0 0 0 0 0 0 0 0 0 0 0 0 0 127 0" result="hardAlpha"/>
<feOffset dy="4"/>
<feGaussianBlur stdDeviation="2"/>
<feComposite in2="hardAlpha" operator="out"/>
<feColorMatrix type="matrix" values="0 0 0 0 0 0 0 0 0 0 0 0 0 0 0 0 0 0 0.25 0"/>
<feBlend mode="normal" in2="BackgroundImageFix" result="effect1_dropShadow_110_1112"/>
<feBlend mode="normal" in="SourceGraphic" in2="effect1_dropShadow_110_1112" result="shape"/>
</filter>
<filter id="filter15_d_110_1112" x="1210" y="391" width="108" height="176" filterUnits="userSpaceOnUse" color-interpolation-filters="sRGB">
<feFlood flood-opacity="0" result="BackgroundImageFix"/>
<feColorMatrix in="SourceAlpha" type="matrix" values="0 0 0 0 0 0 0 0 0 0 0 0 0 0 0 0 0 0 127 0" result="hardAlpha"/>
<feOffset dy="4"/>
<feGaussianBlur stdDeviation="2"/>
<feComposite in2="hardAlpha" operator="out"/>
<feColorMatrix type="matrix" values="0 0 0 0 0 0 0 0 0 0 0 0 0 0 0 0 0 0 0.25 0"/>
<feBlend mode="normal" in2="BackgroundImageFix" result="effect1_dropShadow_110_1112"/>
<feBlend mode="normal" in="SourceGraphic" in2="effect1_dropShadow_110_1112" result="shape"/>
</filter>
<filter id="filter16_d_110_1112" x="752" y="414" width="126" height="206" filterUnits="userSpaceOnUse" color-interpolation-filters="sRGB">
<feFlood flood-opacity="0" result="BackgroundImageFix"/>
<feColorMatrix in="SourceAlpha" type="matrix" values="0 0 0 0 0 0 0 0 0 0 0 0 0 0 0 0 0 0 127 0" result="hardAlpha"/>
<feOffset dy="4"/>
<feGaussianBlur stdDeviation="2"/>
<feComposite in2="hardAlpha" operator="out"/>
<feColorMatrix type="matrix" values="0 0 0 0 0 0 0 0 0 0 0 0 0 0 0 0 0 0 0.25 0"/>
<feBlend mode="normal" in2="BackgroundImageFix" result="effect1_dropShadow_110_1112"/>
<feBlend mode="normal" in="SourceGraphic" in2="effect1_dropShadow_110_1112" result="shape"/>
</filter>
<filter id="filter17_d_110_1112" x="1028" y="414" width="126" height="206" filterUnits="userSpaceOnUse" color-interpolation-filters="sRGB">
<feFlood flood-opacity="0" result="BackgroundImageFix"/>
<feColorMatrix in="SourceAlpha" type="matrix" values="0 0 0 0 0 0 0 0 0 0 0 0 0 0 0 0 0 0 127 0" result="hardAlpha"/>
<feOffset dy="4"/>
<feGaussianBlur stdDeviation="2"/>
<feComposite in2="hardAlpha" operator="out"/>
<feColorMatrix type="matrix" values="0 0 0 0 0 0 0 0 0 0 0 0 0 0 0 0 0 0 0.25 0"/>
<feBlend mode="normal" in2="BackgroundImageFix" result="effect1_dropShadow_110_1112"/>
<feBlend mode="normal" in="SourceGraphic" in2="effect1_dropShadow_110_1112" result="shape"/>
</filter>
<filter id="filter18_d_110_1112" x="890" y="414" width="126" height="206" filterUnits="userSpaceOnUse" color-interpolation-filters="sRGB">
<feFlood flood-opacity="0" result="BackgroundImageFix"/>
<feColorMatrix in="SourceAlpha" type="matrix" values="0 0 0 0 0 0 0 0 0 0 0 0 0 0 0 0 0 0 127 0" result="hardAlpha"/>
<feOffset dy="4"/>
<feGaussianBlur stdDeviation="2"/>
<feComposite in2="hardAlpha" operator="out"/>
<feColorMatrix type="matrix" values="0 0 0 0 0 0 0 0 0 0 0 0 0 0 0 0 0 0 0.25 0"/>
<feBlend mode="normal" in2="BackgroundImageFix" result="effect1_dropShadow_110_1112"/>
<feBlend mode="normal" in="SourceGraphic" in2="effect1_dropShadow_110_1112" result="shape"/>
</filter>
<filter id="filter19_d_110_1112" x="948" y="460" width="126" height="206" filterUnits="userSpaceOnUse" color-interpolation-filters="sRGB">
<feFlood flood-opacity="0" result="BackgroundImageFix"/>
<feColorMatrix in="SourceAlpha" type="matrix" values="0 0 0 0 0 0 0 0 0 0 0 0 0 0 0 0 0 0 127 0" result="hardAlpha"/>
<feOffset dy="4"/>
<feGaussianBlur stdDeviation="2"/>
<feComposite in2="hardAlpha" operator="out"/>
<feColorMatrix type="matrix" values="0 0 0 0 0 0 0 0 0 0 0 0 0 0 0 0 0 0 0.25 0"/>
<feBlend mode="normal" in2="BackgroundImageFix" result="effect1_dropShadow_110_1112"/>
<feBlend mode="normal" in="SourceGraphic" in2="effect1_dropShadow_110_1112" result="shape"/>
</filter>
<filter id="filter20_d_110_1112" x="1166" y="414" width="126" height="206" filterUnits="userSpaceOnUse" color-interpolation-filters="sRGB">
<feFlood flood-opacity="0" result="BackgroundImageFix"/>
<feColorMatrix in="SourceAlpha" type="matrix" values="0 0 0 0 0 0 0 0 0 0 0 0 0 0 0 0 0 0 127 0" result="hardAlpha"/>
<feOffset dy="4"/>
<feGaussianBlur stdDeviation="2"/>
<feComposite in2="hardAlpha" operator="out"/>
<feColorMatrix type="matrix" values="0 0 0 0 0 0 0 0 0 0 0 0 0 0 0 0 0 0 0.25 0"/>
<feBlend mode="normal" in2="BackgroundImageFix" result="effect1_dropShadow_110_1112"/>
<feBlend mode="normal" in="SourceGraphic" in2="effect1_dropShadow_110_1112" result="shape"/>
</filter>
<filter id="filter21_d_110_1112" x="810" y="460" width="126" height="206" filterUnits="userSpaceOnUse" color-interpolation-filters="sRGB">
<feFlood flood-opacity="0" result="BackgroundImageFix"/>
<feColorMatrix in="SourceAlpha" type="matrix" values="0 0 0 0 0 0 0 0 0 0 0 0 0 0 0 0 0 0 127 0" result="hardAlpha"/>
<feOffset dy="4"/>
<feGaussianBlur stdDeviation="2"/>
<feComposite in2="hardAlpha" operator="out"/>
<feColorMatrix type="matrix" values="0 0 0 0 0 0 0 0 0 0 0 0 0 0 0 0 0 0 0.25 0"/>
<feBlend mode="normal" in2="BackgroundImageFix" result="effect1_dropShadow_110_1112"/>
<feBlend mode="normal" in="SourceGraphic" in2="effect1_dropShadow_110_1112" result="shape"/>
</filter>
<filter id="filter22_d_110_1112" x="1086" y="460" width="126" height="206" filterUnits="userSpaceOnUse" color-interpolation-filters="sRGB">
<feFlood flood-opacity="0" result="BackgroundImageFix"/>
<feColorMatrix in="SourceAlpha" type="matrix" values="0 0 0 0 0 0 0 0 0 0 0 0 0 0 0 0 0 0 127 0" result="hardAlpha"/>
<feOffset dy="4"/>
<feGaussianBlur stdDeviation="2"/>
<feComposite in2="hardAlpha" operator="out"/>
<feColorMatrix type="matrix" values="0 0 0 0 0 0 0 0 0 0 0 0 0 0 0 0 0 0 0.25 0"/>
<feBlend mode="normal" in2="BackgroundImageFix" result="effect1_dropShadow_110_1112"/>
<feBlend mode="normal" in="SourceGraphic" in2="effect1_dropShadow_110_1112" result="shape"/>
</filter>
<filter id="filter23_d_110_1112" x="1224" y="460" width="126" height="206" filterUnits="userSpaceOnUse" color-interpolation-filters="sRGB">
<feFlood flood-opacity="0" result="BackgroundImageFix"/>
<feColorMatrix in="SourceAlpha" type="matrix" values="0 0 0 0 0 0 0 0 0 0 0 0 0 0 0 0 0 0 127 0" result="hardAlpha"/>
<feOffset dy="4"/>
<feGaussianBlur stdDeviation="2"/>
<feComposite in2="hardAlpha" operator="out"/>
<feColorMatrix type="matrix" values="0 0 0 0 0 0 0 0 0 0 0 0 0 0 0 0 0 0 0.25 0"/>
<feBlend mode="normal" in2="BackgroundImageFix" result="effect1_dropShadow_110_1112"/>
<feBlend mode="normal" in="SourceGraphic" in2="effect1_dropShadow_110_1112" result="shape"/>
</filter>
<clipPath id="clip0_110_1112">
<rect width="1440" height="1024" fill="white"/>
</clipPath>
</defs>
</svg>
