<svg width="1440" height="1024" viewBox="0 0 1440 1024" fill="none" xmlns="http://www.w3.org/2000/svg">
<g id="focus2-no-device-no" clip-path="url(#clip0_110_1159)">
<rect width="1440" height="1024" fill="#333148"/>
<path id="part 3" d="M47.096 132.12V60.024H61.688L62.264 71.448L59.384 70.584C59.832 68.536 61.048 66.648 63.032 64.92C65.016 63.192 67.512 61.784 70.52 60.696C73.592 59.608 76.856 59.064 80.312 59.064C85.304 59.064 89.688 60.216 93.464 62.52C97.24 64.76 100.184 67.864 102.296 71.832C104.472 75.736 105.56 80.28 105.56 85.464C105.56 90.584 104.472 95.128 102.296 99.096C100.184 103.064 97.208 106.2 93.368 108.504C89.528 110.744 85.112 111.864 80.12 111.864C76.664 111.864 73.432 111.288 70.424 110.136C67.416 108.984 64.888 107.48 62.84 105.624C60.856 103.768 59.576 101.816 59 99.768L62.552 98.424V132.12H47.096ZM76.376 98.904C79.256 98.904 81.752 98.36 83.864 97.272C85.976 96.12 87.608 94.552 88.76 92.568C89.976 90.584 90.584 88.216 90.584 85.464C90.584 82.776 89.976 80.44 88.76 78.456C87.608 76.408 85.976 74.84 83.864 73.752C81.816 72.6 79.32 72.024 76.376 72.024C73.496 72.024 70.968 72.568 68.792 73.656C66.68 74.744 65.016 76.312 63.8 78.36C62.648 80.408 62.072 82.776 62.072 85.464C62.072 88.216 62.648 90.584 63.8 92.568C65.016 94.552 66.68 96.12 68.792 97.272C70.968 98.36 73.496 98.904 76.376 98.904ZM144.211 111.864C139.155 111.864 134.739 110.744 130.963 108.504C127.187 106.264 124.211 103.16 122.035 99.192C119.923 95.16 118.867 90.584 118.867 85.464C118.867 80.28 119.955 75.704 122.131 71.736C124.307 67.768 127.315 64.664 131.155 62.424C135.059 60.12 139.539 58.968 144.595 58.968C147.475 58.968 150.131 59.352 152.563 60.12C154.995 60.824 157.107 61.816 158.899 63.096C160.755 64.376 162.259 65.784 163.411 67.32C164.627 68.856 165.427 70.456 165.811 72.12H162.451V60.024H177.619V111H162.163V97.944L165.427 98.424C165.043 100.088 164.243 101.72 163.027 103.32C161.811 104.92 160.243 106.36 158.323 107.64C156.403 108.92 154.227 109.944 151.795 110.712C149.427 111.48 146.899 111.864 144.211 111.864ZM148.339 98.904C151.219 98.904 153.715 98.36 155.827 97.272C158.003 96.184 159.667 94.648 160.819 92.664C162.035 90.616 162.643 88.216 162.643 85.464C162.643 82.776 162.035 80.44 160.819 78.456C159.667 76.408 158.003 74.808 155.827 73.656C153.715 72.504 151.219 71.928 148.339 71.928C145.459 71.928 142.963 72.504 140.851 73.656C138.739 74.808 137.075 76.408 135.859 78.456C134.707 80.44 134.131 82.776 134.131 85.464C134.131 88.216 134.707 90.616 135.859 92.664C137.075 94.648 138.739 96.184 140.851 97.272C142.963 98.36 145.459 98.904 148.339 98.904ZM201.315 111V60.024H215.907L216.579 77.592L212.931 75.768C213.763 72.632 215.203 69.816 217.251 67.32C219.363 64.76 221.763 62.744 224.451 61.272C227.203 59.736 230.115 58.968 233.187 58.968C234.851 58.968 236.419 59.128 237.891 59.448C239.427 59.768 240.739 60.184 241.827 60.696L237.603 77.496C236.643 76.792 235.331 76.248 233.667 75.864C232.067 75.48 230.435 75.288 228.771 75.288C226.915 75.288 225.219 75.608 223.683 76.248C222.211 76.824 220.963 77.656 219.939 78.744C218.915 79.768 218.115 80.952 217.539 82.296C217.027 83.64 216.771 85.08 216.771 86.616V111H201.315ZM265.932 111V46.008H281.292V111H265.932ZM254.604 73.464V60.024H294.252V73.464H254.604ZM371.848 111.96C365.768 111.96 360.52 110.712 356.104 108.216C351.688 105.72 347.848 101.912 344.584 96.792L356.296 88.632C357.576 90.616 358.984 92.344 360.52 93.816C362.12 95.224 363.848 96.344 365.704 97.176C367.624 98.008 369.736 98.424 372.04 98.424C374.216 98.424 376.232 98.072 378.088 97.368C379.944 96.664 381.448 95.608 382.6 94.2C383.752 92.728 384.328 90.968 384.328 88.92C384.328 86.872 383.784 85.208 382.696 83.928C381.608 82.584 380.2 81.624 378.472 81.048C376.744 80.408 374.856 80.088 372.808 80.088C371.784 80.088 370.728 80.184 369.64 80.376C368.552 80.568 367.496 80.824 366.472 81.144C365.448 81.4 364.456 81.784 363.496 82.296L359.656 73.08L377.896 54.936L381.16 57.528L349.288 56.952V43.224H394.408L397.48 50.616L373.288 74.52L369.448 68.856C370.088 68.6 371.08 68.376 372.424 68.184C373.832 67.992 375.272 67.896 376.744 67.896C379.752 67.896 382.6 68.44 385.288 69.528C387.976 70.552 390.376 71.992 392.488 73.848C394.6 75.704 396.264 77.912 397.48 80.472C398.696 82.968 399.304 85.688 399.304 88.632C399.304 93.24 398.056 97.304 395.56 100.824C393.128 104.28 389.832 107 385.672 108.984C381.576 110.968 376.968 111.96 371.848 111.96Z" fill="white"/>
<rect id="Rectangle 7" y="462" width="1567" height="626" fill="#211F2F"/>
<g id="Group 4">
<g id="Vector" filter="url(#filter0_d_110_1159)">
<path d="M169.246 461.996C174.515 438.672 207.714 438.672 212.983 461.996L221.541 499.874C224.712 513.912 214.05 527.267 199.672 527.267H182.557C168.179 527.267 157.517 513.912 160.688 499.874L169.246 461.996Z" fill="#3B5EC6"/>
<path d="M214.816 411.046C214.816 424.326 204.061 435.092 190.794 435.092C177.527 435.092 166.772 424.326 166.772 411.046C166.772 397.766 177.527 387 190.794 387C204.061 387 214.816 397.766 214.816 411.046Z" fill="#3B5EC6"/>
<path d="M195.599 515.565C195.599 509.013 200.904 503.702 207.45 503.702C213.995 503.702 219.3 509.013 219.3 515.565V543.137C219.3 549.689 213.995 555 207.45 555C200.904 555 195.599 549.689 195.599 543.137V515.565Z" fill="#3B5EC6"/>
<path d="M204.867 469.609C201.517 463.981 203.36 456.7 208.982 453.347C214.605 449.993 221.879 451.837 225.229 457.466L239.328 481.153C242.678 486.781 240.836 494.062 235.213 497.415C229.59 500.769 222.316 498.925 218.966 493.296L204.867 469.609Z" fill="#3B5EC6"/>
<path d="M156.362 457.548C159.635 451.874 166.883 449.93 172.551 453.206C178.219 456.482 180.161 463.737 176.889 469.411L163.116 493.289C159.844 498.963 152.596 500.907 146.927 497.631C141.259 494.355 139.317 487.1 142.59 481.427L156.362 457.548Z" fill="#3B5EC6"/>
<path d="M162.288 515.565C162.288 509.013 167.594 503.702 174.139 503.702C180.684 503.702 185.99 509.013 185.99 515.565V543.137C185.99 549.689 180.684 555 174.139 555C167.594 555 162.288 549.689 162.288 543.137V515.565Z" fill="#3B5EC6"/>
</g>
<g id="Vector_2" filter="url(#filter1_d_110_1159)">
<path d="M403.528 461.996C408.85 438.672 442.381 438.672 447.703 461.996L456.346 499.874C459.549 513.912 448.78 527.267 434.259 527.267H416.972C402.451 527.267 391.682 513.912 394.885 499.874L403.528 461.996Z" fill="#3B5EC6"/>
<path d="M449.555 411.046C449.555 424.326 438.692 435.092 425.292 435.092C411.892 435.092 401.03 424.326 401.03 411.046C401.03 397.766 411.892 387 425.292 387C438.692 387 449.555 397.766 449.555 411.046Z" fill="#3B5EC6"/>
<path d="M430.145 515.565C430.145 509.013 435.504 503.702 442.114 503.702C448.725 503.702 454.083 509.013 454.083 515.565V543.137C454.083 549.689 448.725 555 442.114 555C435.504 555 430.145 549.689 430.145 543.137V515.565Z" fill="#3B5EC6"/>
<path d="M439.506 469.609C436.123 463.981 437.983 456.7 443.662 453.347C449.341 449.993 456.688 451.837 460.071 457.466L474.311 481.153C477.695 486.781 475.834 494.062 470.155 497.415C464.476 500.769 457.13 498.925 453.746 493.296L439.506 469.609Z" fill="#3B5EC6"/>
<path d="M390.516 457.548C393.821 451.874 401.142 449.93 406.867 453.206C412.591 456.482 414.553 463.737 411.248 469.411L397.337 493.289C394.032 498.963 386.712 500.907 380.987 497.631C375.262 494.355 373.3 487.1 376.606 481.427L390.516 457.548Z" fill="#3B5EC6"/>
<path d="M396.501 515.565C396.501 509.013 401.86 503.702 408.47 503.702C415.081 503.702 420.44 509.013 420.44 515.565V543.137C420.44 549.689 415.081 555 408.47 555C401.86 555 396.501 549.689 396.501 543.137V515.565Z" fill="#3B5EC6"/>
</g>
<g id="Vector_3" filter="url(#filter2_d_110_1159)">
<path d="M286.528 461.996C291.85 438.672 325.381 438.672 330.703 461.996L339.346 499.874C342.549 513.912 331.78 527.267 317.259 527.267H299.972C285.451 527.267 274.682 513.912 277.885 499.874L286.528 461.996Z" fill="#3B5EC6"/>
<path d="M332.555 411.046C332.555 424.326 321.692 435.092 308.292 435.092C294.892 435.092 284.03 424.326 284.03 411.046C284.03 397.766 294.892 387 308.292 387C321.692 387 332.555 397.766 332.555 411.046Z" fill="#3B5EC6"/>
<path d="M313.145 515.565C313.145 509.013 318.504 503.702 325.114 503.702C331.725 503.702 337.083 509.013 337.083 515.565V543.137C337.083 549.689 331.725 555 325.114 555C318.504 555 313.145 549.689 313.145 543.137V515.565Z" fill="#3B5EC6"/>
<path d="M322.506 469.609C319.123 463.981 320.983 456.7 326.662 453.347C332.341 449.993 339.688 451.837 343.071 457.466L357.311 481.153C360.695 486.781 358.834 494.062 353.155 497.415C347.476 500.769 340.13 498.925 336.746 493.296L322.506 469.609Z" fill="#3B5EC6"/>
<path d="M273.516 457.548C276.821 451.874 284.142 449.93 289.867 453.206C295.591 456.482 297.553 463.737 294.248 469.411L280.337 493.289C277.032 498.963 269.712 500.907 263.987 497.631C258.262 494.355 256.3 487.1 259.606 481.427L273.516 457.548Z" fill="#3B5EC6"/>
<path d="M279.501 515.565C279.501 509.013 284.86 503.702 291.47 503.702C298.081 503.702 303.44 509.013 303.44 515.565V543.137C303.44 549.689 298.081 555 291.47 555C284.86 555 279.501 549.689 279.501 543.137V515.565Z" fill="#3B5EC6"/>
</g>
<g id="Vector_4" filter="url(#filter3_d_110_1159)">
<path d="M521.246 461.996C526.515 438.672 559.714 438.672 564.983 461.996L573.541 499.874C576.712 513.912 566.05 527.267 551.672 527.267H534.557C520.179 527.267 509.517 513.912 512.688 499.874L521.246 461.996Z" fill="#3B5EC6"/>
<path d="M566.816 411.046C566.816 424.326 556.061 435.092 542.794 435.092C529.527 435.092 518.772 424.326 518.772 411.046C518.772 397.766 529.527 387 542.794 387C556.061 387 566.816 397.766 566.816 411.046Z" fill="#3B5EC6"/>
<path d="M547.599 515.565C547.599 509.013 552.904 503.702 559.45 503.702C565.995 503.702 571.3 509.013 571.3 515.565V543.137C571.3 549.689 565.995 555 559.45 555C552.904 555 547.599 549.689 547.599 543.137V515.565Z" fill="#3B5EC6"/>
<path d="M556.867 469.609C553.517 463.981 555.36 456.7 560.982 453.347C566.605 449.993 573.879 451.837 577.229 457.466L591.328 481.153C594.678 486.781 592.836 494.062 587.213 497.415C581.59 500.769 574.316 498.925 570.966 493.296L556.867 469.609Z" fill="#3B5EC6"/>
<path d="M508.362 457.548C511.635 451.874 518.883 449.93 524.551 453.206C530.219 456.482 532.161 463.737 528.889 469.411L515.116 493.289C511.844 498.963 504.596 500.907 498.927 497.631C493.259 494.355 491.317 487.1 494.59 481.427L508.362 457.548Z" fill="#3B5EC6"/>
<path d="M514.288 515.565C514.288 509.013 519.594 503.702 526.139 503.702C532.684 503.702 537.99 509.013 537.99 515.565V543.137C537.99 549.689 532.684 555 526.139 555C519.594 555 514.288 549.689 514.288 543.137V515.565Z" fill="#3B5EC6"/>
</g>
<g id="Vector_5" filter="url(#filter4_d_110_1159)">
<path d="M68.3303 498.388C74.548 470.899 113.722 470.899 119.94 498.388L130.038 543.03C133.78 559.575 121.199 575.315 104.233 575.315H84.0371C67.0712 575.315 54.4901 559.575 58.2324 543.03L68.3303 498.388Z" fill="#6A94E0"/>
<path d="M122.103 438.34C122.103 453.991 109.412 466.679 93.7571 466.679C78.102 466.679 65.411 453.991 65.411 438.34C65.411 422.688 78.102 410 93.7571 410C109.412 410 122.103 422.688 122.103 438.34Z" fill="#6A94E0"/>
<path d="M99.4264 561.523C99.4264 553.801 105.687 547.542 113.41 547.542C121.134 547.542 127.395 553.801 127.395 561.523V594.019C127.395 601.741 121.134 608 113.41 608C105.687 608 99.4264 601.741 99.4264 594.019V561.523Z" fill="#6A94E0"/>
<path d="M110.364 507.361C106.41 500.728 108.584 492.146 115.219 488.194C121.854 484.242 130.437 486.416 134.39 493.049L151.027 520.966C154.98 527.599 152.806 536.18 146.171 540.132C139.537 544.085 130.953 541.911 127 535.278L110.364 507.361Z" fill="#6A94E0"/>
<path d="M53.1276 493.146C56.9892 486.459 65.5418 484.168 72.2303 488.029C78.9188 491.889 81.2104 500.44 77.3488 507.127L61.097 535.269C57.2354 541.956 48.6829 544.248 41.9944 540.387C35.3059 536.526 33.0142 527.975 36.8758 521.289L53.1276 493.146Z" fill="#6A94E0"/>
<path d="M60.1197 561.523C60.1197 553.801 66.3806 547.542 74.1038 547.542C81.827 547.542 88.0879 553.801 88.0879 561.523V594.019C88.0879 601.741 81.827 608 74.1038 608C66.3806 608 60.1197 601.741 60.1197 594.019V561.523Z" fill="#6A94E0"/>
</g>
<g id="Vector_6" filter="url(#filter5_d_110_1159)">
<path d="M344.33 498.388C350.548 470.899 389.722 470.899 395.94 498.388L406.038 543.03C409.78 559.575 397.199 575.315 380.233 575.315H360.037C343.071 575.315 330.49 559.575 334.232 543.03L344.33 498.388Z" fill="#6A94E0"/>
<path d="M398.103 438.34C398.103 453.991 385.412 466.679 369.757 466.679C354.102 466.679 341.411 453.991 341.411 438.34C341.411 422.688 354.102 410 369.757 410C385.412 410 398.103 422.688 398.103 438.34Z" fill="#6A94E0"/>
<path d="M375.426 561.523C375.426 553.801 381.687 547.542 389.41 547.542C397.134 547.542 403.395 553.801 403.395 561.523V594.019C403.395 601.741 397.134 608 389.41 608C381.687 608 375.426 601.741 375.426 594.019V561.523Z" fill="#6A94E0"/>
<path d="M386.364 507.361C382.41 500.728 384.584 492.146 391.219 488.194C397.854 484.242 406.437 486.416 410.39 493.049L427.027 520.966C430.98 527.599 428.806 536.18 422.171 540.132C415.537 544.085 406.953 541.911 403 535.278L386.364 507.361Z" fill="#6A94E0"/>
<path d="M329.128 493.146C332.989 486.459 341.542 484.168 348.23 488.029C354.919 491.889 357.21 500.44 353.349 507.127L337.097 535.269C333.235 541.956 324.683 544.248 317.994 540.387C311.306 536.526 309.014 527.975 312.876 521.289L329.128 493.146Z" fill="#6A94E0"/>
<path d="M336.12 561.523C336.12 553.801 342.381 547.542 350.104 547.542C357.827 547.542 364.088 553.801 364.088 561.523V594.019C364.088 601.741 357.827 608 350.104 608C342.381 608 336.12 601.741 336.12 594.019V561.523Z" fill="#6A94E0"/>
</g>
<g id="Vector_7" filter="url(#filter6_d_110_1159)">
<path d="M206.33 498.388C212.548 470.899 251.722 470.899 257.94 498.388L268.038 543.03C271.78 559.575 259.199 575.315 242.233 575.315H222.037C205.071 575.315 192.49 559.575 196.232 543.03L206.33 498.388Z" fill="#6A94E0"/>
<path d="M260.103 438.34C260.103 453.991 247.412 466.679 231.757 466.679C216.102 466.679 203.411 453.991 203.411 438.34C203.411 422.688 216.102 410 231.757 410C247.412 410 260.103 422.688 260.103 438.34Z" fill="#6A94E0"/>
<path d="M237.426 561.523C237.426 553.801 243.687 547.542 251.41 547.542C259.134 547.542 265.395 553.801 265.395 561.523V594.019C265.395 601.741 259.134 608 251.41 608C243.687 608 237.426 601.741 237.426 594.019V561.523Z" fill="#6A94E0"/>
<path d="M248.364 507.361C244.41 500.728 246.584 492.146 253.219 488.194C259.854 484.242 268.437 486.416 272.39 493.049L289.027 520.966C292.98 527.599 290.806 536.18 284.171 540.132C277.537 544.085 268.953 541.911 265 535.278L248.364 507.361Z" fill="#6A94E0"/>
<path d="M191.128 493.146C194.989 486.459 203.542 484.168 210.23 488.029C216.919 491.889 219.21 500.44 215.349 507.127L199.097 535.269C195.235 541.956 186.683 544.248 179.994 540.387C173.306 536.526 171.014 527.975 174.876 521.289L191.128 493.146Z" fill="#6A94E0"/>
<path d="M198.12 561.523C198.12 553.801 204.381 547.542 212.104 547.542C219.827 547.542 226.088 553.801 226.088 561.523V594.019C226.088 601.741 219.827 608 212.104 608C204.381 608 198.12 601.741 198.12 594.019V561.523Z" fill="#6A94E0"/>
</g>
<g id="Vector_8" filter="url(#filter7_d_110_1159)">
<path d="M264.33 544.388C270.548 516.899 309.722 516.899 315.94 544.388L326.038 589.03C329.78 605.575 317.199 621.315 300.233 621.315H280.037C263.071 621.315 250.49 605.575 254.232 589.03L264.33 544.388Z" fill="#8DBBFB"/>
<path d="M318.103 484.34C318.103 499.991 305.412 512.679 289.757 512.679C274.102 512.679 261.411 499.991 261.411 484.34C261.411 468.688 274.102 456 289.757 456C305.412 456 318.103 468.688 318.103 484.34Z" fill="#8DBBFB"/>
<path d="M295.426 607.523C295.426 599.801 301.687 593.542 309.41 593.542C317.134 593.542 323.395 599.801 323.395 607.523V640.019C323.395 647.741 317.134 654 309.41 654C301.687 654 295.426 647.741 295.426 640.019V607.523Z" fill="#8DBBFB"/>
<path d="M306.364 553.361C302.41 546.728 304.584 538.146 311.219 534.194C317.854 530.242 326.437 532.416 330.39 539.049L347.027 566.966C350.98 573.599 348.806 582.18 342.171 586.132C335.537 590.085 326.953 587.911 323 581.278L306.364 553.361Z" fill="#8DBBFB"/>
<path d="M249.128 539.146C252.989 532.459 261.542 530.168 268.23 534.029C274.919 537.889 277.21 546.44 273.349 553.127L257.097 581.269C253.235 587.956 244.683 590.248 237.994 586.387C231.306 582.526 229.014 573.975 232.876 567.289L249.128 539.146Z" fill="#8DBBFB"/>
<path d="M256.12 607.523C256.12 599.801 262.381 593.542 270.104 593.542C277.827 593.542 284.088 599.801 284.088 607.523V640.019C284.088 647.741 277.827 654 270.104 654C262.381 654 256.12 647.741 256.12 640.019V607.523Z" fill="#8DBBFB"/>
</g>
<g id="Vector_9" filter="url(#filter8_d_110_1159)">
<path d="M482.33 498.388C488.548 470.899 527.722 470.899 533.94 498.388L544.038 543.03C547.78 559.575 535.199 575.315 518.233 575.315H498.037C481.071 575.315 468.49 559.575 472.232 543.03L482.33 498.388Z" fill="#6A94E0"/>
<path d="M536.103 438.34C536.103 453.991 523.412 466.679 507.757 466.679C492.102 466.679 479.411 453.991 479.411 438.34C479.411 422.688 492.102 410 507.757 410C523.412 410 536.103 422.688 536.103 438.34Z" fill="#6A94E0"/>
<path d="M513.426 561.523C513.426 553.801 519.687 547.542 527.41 547.542C535.134 547.542 541.395 553.801 541.395 561.523V594.019C541.395 601.741 535.134 608 527.41 608C519.687 608 513.426 601.741 513.426 594.019V561.523Z" fill="#6A94E0"/>
<path d="M524.364 507.361C520.41 500.728 522.584 492.146 529.219 488.194C535.854 484.242 544.437 486.416 548.39 493.049L565.027 520.966C568.98 527.599 566.806 536.18 560.171 540.132C553.537 544.085 544.953 541.911 541 535.278L524.364 507.361Z" fill="#6A94E0"/>
<path d="M467.128 493.146C470.989 486.459 479.542 484.168 486.23 488.029C492.919 491.889 495.21 500.44 491.349 507.127L475.097 535.269C471.235 541.956 462.683 544.248 455.994 540.387C449.306 536.526 447.014 527.975 450.876 521.289L467.128 493.146Z" fill="#6A94E0"/>
<path d="M474.12 561.523C474.12 553.801 480.381 547.542 488.104 547.542C495.827 547.542 502.088 553.801 502.088 561.523V594.019C502.088 601.741 495.827 608 488.104 608C480.381 608 474.12 601.741 474.12 594.019V561.523Z" fill="#6A94E0"/>
</g>
<g id="Vector_10" filter="url(#filter9_d_110_1159)">
<path d="M126.33 544.388C132.548 516.899 171.722 516.899 177.94 544.388L188.038 589.03C191.78 605.575 179.199 621.315 162.233 621.315H142.037C125.071 621.315 112.49 605.575 116.232 589.03L126.33 544.388Z" fill="#8DBBFB"/>
<path d="M180.103 484.34C180.103 499.991 167.412 512.679 151.757 512.679C136.102 512.679 123.411 499.991 123.411 484.34C123.411 468.688 136.102 456 151.757 456C167.412 456 180.103 468.688 180.103 484.34Z" fill="#8DBBFB"/>
<path d="M157.426 607.523C157.426 599.801 163.687 593.542 171.41 593.542C179.134 593.542 185.395 599.801 185.395 607.523V640.019C185.395 647.741 179.134 654 171.41 654C163.687 654 157.426 647.741 157.426 640.019V607.523Z" fill="#8DBBFB"/>
<path d="M168.364 553.361C164.41 546.728 166.584 538.146 173.219 534.194C179.854 530.242 188.437 532.416 192.39 539.049L209.027 566.966C212.98 573.599 210.806 582.18 204.171 586.132C197.537 590.085 188.953 587.911 185 581.278L168.364 553.361Z" fill="#8DBBFB"/>
<path d="M111.128 539.146C114.989 532.459 123.542 530.168 130.23 534.029C136.919 537.889 139.21 546.44 135.349 553.127L119.097 581.269C115.235 587.956 106.683 590.248 99.9944 586.387C93.3059 582.526 91.0142 573.975 94.8758 567.289L111.128 539.146Z" fill="#8DBBFB"/>
<path d="M118.12 607.523C118.12 599.801 124.381 593.542 132.104 593.542C139.827 593.542 146.088 599.801 146.088 607.523V640.019C146.088 647.741 139.827 654 132.104 654C124.381 654 118.12 647.741 118.12 640.019V607.523Z" fill="#8DBBFB"/>
</g>
<g id="Vector_11" filter="url(#filter10_d_110_1159)">
<path d="M402.33 544.388C408.548 516.899 447.722 516.899 453.94 544.388L464.038 589.03C467.78 605.575 455.199 621.315 438.233 621.315H418.037C401.071 621.315 388.49 605.575 392.232 589.03L402.33 544.388Z" fill="#8DBBFB"/>
<path d="M456.103 484.34C456.103 499.991 443.412 512.679 427.757 512.679C412.102 512.679 399.411 499.991 399.411 484.34C399.411 468.688 412.102 456 427.757 456C443.412 456 456.103 468.688 456.103 484.34Z" fill="#8DBBFB"/>
<path d="M433.426 607.523C433.426 599.801 439.687 593.542 447.41 593.542C455.134 593.542 461.395 599.801 461.395 607.523V640.019C461.395 647.741 455.134 654 447.41 654C439.687 654 433.426 647.741 433.426 640.019V607.523Z" fill="#8DBBFB"/>
<path d="M444.364 553.361C440.41 546.728 442.584 538.146 449.219 534.194C455.854 530.242 464.437 532.416 468.39 539.049L485.027 566.966C488.98 573.599 486.806 582.18 480.171 586.132C473.537 590.085 464.953 587.911 461 581.278L444.364 553.361Z" fill="#8DBBFB"/>
<path d="M387.128 539.146C390.989 532.459 399.542 530.168 406.23 534.029C412.919 537.889 415.21 546.44 411.349 553.127L395.097 581.269C391.235 587.956 382.683 590.248 375.994 586.387C369.306 582.526 367.014 573.975 370.876 567.289L387.128 539.146Z" fill="#8DBBFB"/>
<path d="M394.12 607.523C394.12 599.801 400.381 593.542 408.104 593.542C415.827 593.542 422.088 599.801 422.088 607.523V640.019C422.088 647.741 415.827 654 408.104 654C400.381 654 394.12 647.741 394.12 640.019V607.523Z" fill="#8DBBFB"/>
</g>
<g id="Vector_12" filter="url(#filter11_d_110_1159)">
<path d="M540.33 544.388C546.548 516.899 585.722 516.899 591.94 544.388L602.038 589.03C605.78 605.575 593.199 621.315 576.233 621.315H556.037C539.071 621.315 526.49 605.575 530.232 589.03L540.33 544.388Z" fill="#8DBBFB"/>
<path d="M594.103 484.34C594.103 499.991 581.412 512.679 565.757 512.679C550.102 512.679 537.411 499.991 537.411 484.34C537.411 468.688 550.102 456 565.757 456C581.412 456 594.103 468.688 594.103 484.34Z" fill="#8DBBFB"/>
<path d="M571.426 607.523C571.426 599.801 577.687 593.542 585.41 593.542C593.134 593.542 599.395 599.801 599.395 607.523V640.019C599.395 647.741 593.134 654 585.41 654C577.687 654 571.426 647.741 571.426 640.019V607.523Z" fill="#8DBBFB"/>
<path d="M582.364 553.361C578.41 546.728 580.584 538.146 587.219 534.194C593.854 530.242 602.437 532.416 606.39 539.049L623.027 566.966C626.98 573.599 624.806 582.18 618.171 586.132C611.537 590.085 602.953 587.911 599 581.278L582.364 553.361Z" fill="#8DBBFB"/>
<path d="M525.128 539.146C528.989 532.459 537.542 530.168 544.23 534.029C550.919 537.889 553.21 546.44 549.349 553.127L533.097 581.269C529.235 587.956 520.683 590.248 513.994 586.387C507.306 582.526 505.014 573.975 508.876 567.289L525.128 539.146Z" fill="#8DBBFB"/>
<path d="M532.12 607.523C532.12 599.801 538.381 593.542 546.104 593.542C553.827 593.542 560.088 599.801 560.088 607.523V640.019C560.088 647.741 553.827 654 546.104 654C538.381 654 532.12 647.741 532.12 640.019V607.523Z" fill="#8DBBFB"/>
</g>
</g>
<path id="Vector 20" d="M827 153.5V351.5L1310.5 658V69L827 153.5Z" fill="#EBEBEB"/>
<path id="Vector 24" d="M841.086 316.818L844.799 328.753L856.631 322.349L866.468 336.464L880.655 330.898L886.724 343.671L910.962 333.721L914.517 353.561L948.535 337.007L947.492 365.294L1003.46 342.223L1005.96 375.484L1046.33 357.476L1071.33 419.972L1126.06 372.047L1160.41 441.057L1226.48 388.141L1238.14 468.714L1282.53 408.088L1245.57 492.585L1221.6 473.442L1215.92 417.819L1153.71 459.9L1119.19 391.361L1064.96 437.873L1038.62 379.145L992.116 387.541L991.402 352.26L940.914 377.813L942.836 353.023L900.403 363.398L904.209 339.278L883.372 353.093L877.303 340.319L861.775 349.654L853.278 331.77L835.722 331.892L834.97 322.072L841.086 316.818Z" fill="#333148"/>
<path id="Vector 21" d="M939 352L1009 590L913 362.5L939 352Z" fill="#3B5EC6"/>
<g id="Vector_13" filter="url(#filter12_d_110_1159)">
<path d="M1031.45 540.885C1040.31 501.736 1096.08 501.736 1104.93 540.885L1119.31 604.467C1124.64 628.03 1106.72 650.448 1082.57 650.448H1053.82C1029.66 650.448 1011.75 628.03 1017.08 604.467L1031.45 540.885Z" fill="#8DBBFB"/>
<path d="M1108.01 455.363C1108.01 477.654 1089.94 495.725 1067.65 495.725C1045.37 495.725 1027.3 477.654 1027.3 455.363C1027.3 433.071 1045.37 415 1067.65 415C1089.94 415 1108.01 433.071 1108.01 455.363Z" fill="#8DBBFB"/>
<path d="M1075.73 630.805C1075.73 619.808 1084.64 610.893 1095.64 610.893C1106.63 610.893 1115.54 619.808 1115.54 630.805V677.088C1115.54 688.085 1106.63 697 1095.64 697C1084.64 697 1075.73 688.085 1075.73 677.088V630.805Z" fill="#8DBBFB"/>
<path d="M1091.3 553.666C1085.67 544.218 1088.76 531.996 1098.21 526.368C1107.66 520.739 1119.88 523.834 1125.5 533.282L1149.19 573.042C1154.82 582.489 1151.72 594.711 1142.28 600.34C1132.83 605.969 1120.61 602.873 1114.98 593.426L1091.3 553.666Z" fill="#8DBBFB"/>
<path d="M1009.81 533.42C1015.31 523.896 1027.48 520.633 1037.01 526.132C1046.53 531.63 1049.79 543.808 1044.29 553.332L1021.16 593.414C1015.66 602.938 1003.48 606.201 993.958 600.702C984.436 595.204 981.173 583.026 986.671 573.502L1009.81 533.42Z" fill="#8DBBFB"/>
<path d="M1019.76 630.805C1019.76 619.808 1028.68 610.893 1039.67 610.893C1050.67 610.893 1059.58 619.808 1059.58 630.805V677.088C1059.58 688.085 1050.67 697 1039.67 697C1028.68 697 1019.76 688.085 1019.76 677.088V630.805Z" fill="#8DBBFB"/>
</g>
<path id="Vector 22" d="M840 177.5L847.5 187.5L856.5 177.5L870.5 187.5L882 177.5L892 187.5L911.5 170L921.5 187.5L948 160.5L956.5 187.5L1001.5 147L1015 177.5L1047 147L1091.5 197.5L1127 134L1182.5 187.5L1227 115.5L1265 187.5L1286.5 115.5L1280 207.5L1251 197.5L1227 147L1182.5 207.5L1127 154.5L1091.5 216.5L1047 170L1006 193.5L993.5 160.5L954.5 201.5L948 177.5L911.5 201.5L907 177.5L892 197.5L882 187.5L870.5 201.5L856.5 187.5L840 193.5L836 184.5L840 177.5Z" fill="#333148"/>
<path id="Vector 23" d="M839.758 259.473L846.492 270.005L856.213 260.704L869.428 271.719L881.642 262.605L890.868 273.322L911.619 257.325L920.286 275.522L948.725 250.573L955.189 278.131L1003.08 241.099L1014.27 272.521L1048.46 244.491L1089.07 298.169L1129.2 237.492L1180.56 294.981L1230.3 226.499L1262.83 301.132L1289.64 230.935L1276.3 322.195L1248.12 310.06L1227.96 257.912L1179.07 314.925L1127.67 257.935L1087.65 317.116L1046.74 267.427L1004.1 287.805L994.099 253.965L952.15 291.943L947.458 267.525L909.27 288.737L906.572 264.469L890.123 283.295L880.896 272.577L868.384 285.681L855.467 270.676L838.566 275.429L835.248 266.156L839.758 259.473Z" fill="#333148"/>
<g id="next">
<g id="Next">
<path id="Next_2" d="M1076.81 878V833.2H1086.79L1113.86 865.2L1112.01 864.88C1111.75 863.387 1111.56 861.957 1111.43 860.592C1111.3 859.227 1111.18 857.904 1111.05 856.624C1110.96 855.344 1110.88 854.064 1110.79 852.784C1110.75 851.504 1110.73 850.16 1110.73 848.752C1110.73 847.344 1110.73 845.851 1110.73 844.272V833.2H1121.29V878H1111.18L1083.08 844.976L1086.09 845.424C1086.22 846.917 1086.34 848.261 1086.47 849.456C1086.64 850.651 1086.77 851.781 1086.86 852.848C1086.98 853.872 1087.07 854.917 1087.11 855.984C1087.2 857.008 1087.26 858.096 1087.3 859.248C1087.35 860.4 1087.37 861.659 1087.37 863.024V878H1076.81ZM1153.89 878.64C1149.76 878.64 1146.13 877.893 1143.01 876.4C1139.94 874.864 1137.55 872.795 1135.85 870.192C1134.14 867.547 1133.29 864.539 1133.29 861.168C1133.29 858.48 1133.78 856.048 1134.76 853.872C1135.74 851.696 1137.11 849.819 1138.85 848.24C1140.6 846.661 1142.65 845.445 1145 844.592C1147.35 843.739 1149.88 843.312 1152.61 843.312C1155.26 843.312 1157.69 843.739 1159.91 844.592C1162.13 845.403 1164.05 846.576 1165.67 848.112C1167.33 849.648 1168.61 851.461 1169.51 853.552C1170.41 855.643 1170.81 857.947 1170.73 860.464L1170.66 863.344H1140.01L1138.53 857.392H1162.34L1161.25 858.672V857.392C1161.13 856.325 1160.66 855.365 1159.85 854.512C1159.08 853.659 1158.08 852.997 1156.84 852.528C1155.6 852.016 1154.24 851.76 1152.74 851.76C1150.82 851.76 1149.12 852.08 1147.62 852.72C1146.13 853.317 1144.96 854.256 1144.1 855.536C1143.29 856.816 1142.89 858.437 1142.89 860.4C1142.89 862.277 1143.38 863.92 1144.36 865.328C1145.38 866.736 1146.81 867.845 1148.65 868.656C1150.52 869.467 1152.72 869.872 1155.24 869.872C1157.41 869.872 1159.23 869.616 1160.68 869.104C1162.17 868.549 1163.52 867.867 1164.71 867.056L1169.32 873.712C1167.91 874.779 1166.35 875.696 1164.65 876.464C1162.98 877.189 1161.23 877.723 1159.4 878.064C1157.61 878.448 1155.77 878.64 1153.89 878.64ZM1207.57 878L1198.16 865.776L1195.54 862.32L1180.63 844.016H1193.56L1202 855.216L1204.82 858.928L1220.37 878H1207.57ZM1179.8 878L1195.03 858.8L1201.24 865.136L1192.53 878H1179.8ZM1204.76 863.216L1198.74 856.816L1207.32 844.016H1219.99L1204.76 863.216ZM1236.39 878V834.672H1246.63V878H1236.39ZM1228.84 852.976V844.016H1255.27V852.976H1228.84Z" fill="white"/>
</g>
<path id="Arrow 1" d="M1070 882.5C1065.31 882.5 1061.5 886.306 1061.5 891C1061.5 895.694 1065.31 899.5 1070 899.5V891V882.5ZM1347 891L1262 841.925V940.075L1347 891ZM1070 891V899.5H1270.5V891V882.5H1070V891Z" fill="#EF1044"/>
</g>
<path id="we have a plan" d="M36.244 329L29.584 309.884H35.668L39.448 322.484L38.692 322.412L43.012 312.44H46.72L51.328 322.412L50.572 322.484L54.352 309.884H60.472L53.596 329H49.24L44.272 317.48L45.604 317.444L40.564 329H36.244ZM75.1203 329.36C72.7923 329.36 70.7523 328.94 69.0003 328.1C67.2723 327.236 65.9283 326.072 64.9683 324.608C64.0083 323.12 63.5283 321.428 63.5283 319.532C63.5283 318.02 63.8043 316.652 64.3563 315.428C64.9083 314.204 65.6763 313.148 66.6603 312.26C67.6443 311.372 68.7963 310.688 70.1163 310.208C71.4363 309.728 72.8643 309.488 74.4003 309.488C75.8883 309.488 77.2563 309.728 78.5043 310.208C79.7523 310.664 80.8323 311.324 81.7443 312.188C82.6803 313.052 83.4003 314.072 83.9043 315.248C84.4083 316.424 84.6363 317.72 84.5883 319.136L84.5523 320.756H67.3083L66.4803 317.408H79.8723L79.2603 318.128V317.408C79.1883 316.808 78.9243 316.268 78.4683 315.788C78.0363 315.308 77.4723 314.936 76.7763 314.672C76.0803 314.384 75.3123 314.24 74.4723 314.24C73.3923 314.24 72.4323 314.42 71.5923 314.78C70.7523 315.116 70.0923 315.644 69.6123 316.364C69.1563 317.084 68.9283 317.996 68.9283 319.1C68.9283 320.156 69.2043 321.08 69.7563 321.872C70.3323 322.664 71.1363 323.288 72.1683 323.744C73.2243 324.2 74.4603 324.428 75.8763 324.428C77.1003 324.428 78.1203 324.284 78.9363 323.996C79.7763 323.684 80.5323 323.3 81.2043 322.844L83.7963 326.588C83.0043 327.188 82.1283 327.704 81.1683 328.136C80.2323 328.544 79.2483 328.844 78.2163 329.036C77.2083 329.252 76.1763 329.36 75.1203 329.36ZM106.224 329V302.36H111.876V314.348L110.508 314.816C110.748 313.856 111.252 312.98 112.02 312.188C112.812 311.372 113.772 310.724 114.9 310.244C116.028 309.74 117.228 309.488 118.5 309.488C120.132 309.488 121.5 309.824 122.604 310.496C123.732 311.144 124.572 312.068 125.124 313.268C125.7 314.444 125.988 315.824 125.988 317.408V329H120.191V318.308C120.191 317.444 120.036 316.724 119.724 316.148C119.436 315.548 118.992 315.092 118.392 314.78C117.816 314.468 117.144 314.324 116.376 314.348C115.752 314.348 115.164 314.456 114.612 314.672C114.084 314.864 113.616 315.152 113.208 315.536C112.824 315.896 112.524 316.316 112.308 316.796C112.092 317.276 111.984 317.792 111.984 318.344V329H109.14C108.348 329 107.712 329 107.232 329C106.752 329 106.416 329 106.224 329ZM142.15 329.324C140.254 329.324 138.598 328.904 137.182 328.064C135.766 327.224 134.65 326.06 133.834 324.572C133.042 323.06 132.646 321.344 132.646 319.424C132.646 317.48 133.054 315.764 133.87 314.276C134.686 312.788 135.814 311.624 137.254 310.784C138.718 309.92 140.398 309.488 142.294 309.488C143.374 309.488 144.37 309.632 145.282 309.92C146.194 310.184 146.986 310.556 147.658 311.036C148.354 311.516 148.918 312.044 149.35 312.62C149.806 313.196 150.106 313.796 150.25 314.42H148.99V309.884H154.678V329H148.882V324.104L150.106 324.284C149.962 324.908 149.662 325.52 149.206 326.12C148.75 326.72 148.162 327.26 147.442 327.74C146.722 328.22 145.906 328.604 144.994 328.892C144.106 329.18 143.158 329.324 142.15 329.324ZM143.698 324.464C144.778 324.464 145.714 324.26 146.506 323.852C147.322 323.444 147.946 322.868 148.378 322.124C148.834 321.356 149.062 320.456 149.062 319.424C149.062 318.416 148.834 317.54 148.378 316.796C147.946 316.028 147.322 315.428 146.506 314.996C145.714 314.564 144.778 314.348 143.698 314.348C142.618 314.348 141.682 314.564 140.89 314.996C140.098 315.428 139.474 316.028 139.018 316.796C138.586 317.54 138.37 318.416 138.37 319.424C138.37 320.456 138.586 321.356 139.018 322.124C139.474 322.868 140.098 323.444 140.89 323.852C141.682 324.26 142.618 324.464 143.698 324.464ZM169.297 329L160.189 309.884H166.705L172.609 324.5L171.061 324.644L177.109 309.884H183.553L174.121 329H169.297ZM198.238 329.36C195.91 329.36 193.87 328.94 192.118 328.1C190.39 327.236 189.046 326.072 188.086 324.608C187.126 323.12 186.646 321.428 186.646 319.532C186.646 318.02 186.922 316.652 187.474 315.428C188.026 314.204 188.794 313.148 189.778 312.26C190.762 311.372 191.914 310.688 193.234 310.208C194.554 309.728 195.982 309.488 197.518 309.488C199.006 309.488 200.374 309.728 201.622 310.208C202.87 310.664 203.95 311.324 204.862 312.188C205.798 313.052 206.518 314.072 207.022 315.248C207.526 316.424 207.754 317.72 207.706 319.136L207.67 320.756H190.426L189.598 317.408H202.99L202.378 318.128V317.408C202.306 316.808 202.042 316.268 201.586 315.788C201.154 315.308 200.59 314.936 199.894 314.672C199.198 314.384 198.43 314.24 197.59 314.24C196.51 314.24 195.55 314.42 194.71 314.78C193.87 315.116 193.21 315.644 192.73 316.364C192.274 317.084 192.046 317.996 192.046 319.1C192.046 320.156 192.322 321.08 192.874 321.872C193.45 322.664 194.254 323.288 195.286 323.744C196.342 324.2 197.578 324.428 198.994 324.428C200.218 324.428 201.238 324.284 202.054 323.996C202.894 323.684 203.65 323.3 204.322 322.844L206.914 326.588C206.122 327.188 205.246 327.704 204.286 328.136C203.35 328.544 202.366 328.844 201.334 329.036C200.326 329.252 199.294 329.36 198.238 329.36ZM236.685 329.324C234.789 329.324 233.133 328.904 231.717 328.064C230.301 327.224 229.185 326.06 228.369 324.572C227.577 323.06 227.181 321.344 227.181 319.424C227.181 317.48 227.589 315.764 228.405 314.276C229.221 312.788 230.349 311.624 231.789 310.784C233.253 309.92 234.933 309.488 236.829 309.488C237.909 309.488 238.905 309.632 239.817 309.92C240.729 310.184 241.521 310.556 242.193 311.036C242.889 311.516 243.453 312.044 243.885 312.62C244.341 313.196 244.641 313.796 244.785 314.42H243.525V309.884H249.213V329H243.417V324.104L244.641 324.284C244.497 324.908 244.197 325.52 243.741 326.12C243.285 326.72 242.697 327.26 241.977 327.74C241.257 328.22 240.441 328.604 239.529 328.892C238.641 329.18 237.693 329.324 236.685 329.324ZM238.233 324.464C239.313 324.464 240.249 324.26 241.041 323.852C241.857 323.444 242.481 322.868 242.913 322.124C243.369 321.356 243.597 320.456 243.597 319.424C243.597 318.416 243.369 317.54 242.913 316.796C242.481 316.028 241.857 315.428 241.041 314.996C240.249 314.564 239.313 314.348 238.233 314.348C237.153 314.348 236.217 314.564 235.425 314.996C234.633 315.428 234.009 316.028 233.553 316.796C233.121 317.54 232.905 318.416 232.905 319.424C232.905 320.456 233.121 321.356 233.553 322.124C234.009 322.868 234.633 323.444 235.425 323.852C236.217 324.26 237.153 324.464 238.233 324.464ZM272.583 336.92V309.884H278.055L278.271 314.168L277.191 313.844C277.359 313.076 277.815 312.368 278.559 311.72C279.303 311.072 280.239 310.544 281.367 310.136C282.519 309.728 283.743 309.524 285.039 309.524C286.911 309.524 288.555 309.956 289.971 310.82C291.387 311.66 292.491 312.824 293.283 314.312C294.099 315.776 294.507 317.48 294.507 319.424C294.507 321.344 294.099 323.048 293.283 324.536C292.491 326.024 291.375 327.2 289.935 328.064C288.495 328.904 286.839 329.324 284.967 329.324C283.671 329.324 282.459 329.108 281.331 328.676C280.203 328.244 279.255 327.68 278.487 326.984C277.743 326.288 277.263 325.556 277.047 324.788L278.379 324.284V336.92H272.583ZM283.563 324.464C284.643 324.464 285.579 324.26 286.371 323.852C287.163 323.42 287.775 322.832 288.207 322.088C288.663 321.344 288.891 320.456 288.891 319.424C288.891 318.416 288.663 317.54 288.207 316.796C287.775 316.028 287.163 315.44 286.371 315.032C285.603 314.6 284.667 314.384 283.563 314.384C282.483 314.384 281.535 314.588 280.719 314.996C279.927 315.404 279.303 315.992 278.847 316.76C278.415 317.528 278.199 318.416 278.199 319.424C278.199 320.456 278.415 321.344 278.847 322.088C279.303 322.832 279.927 323.42 280.719 323.852C281.535 324.26 282.483 324.464 283.563 324.464ZM301.657 329V302.36H307.417V329H301.657ZM323.521 329.324C321.625 329.324 319.969 328.904 318.553 328.064C317.137 327.224 316.021 326.06 315.205 324.572C314.413 323.06 314.017 321.344 314.017 319.424C314.017 317.48 314.425 315.764 315.241 314.276C316.057 312.788 317.185 311.624 318.625 310.784C320.089 309.92 321.769 309.488 323.665 309.488C324.745 309.488 325.741 309.632 326.653 309.92C327.565 310.184 328.357 310.556 329.029 311.036C329.725 311.516 330.289 312.044 330.721 312.62C331.177 313.196 331.477 313.796 331.621 314.42H330.361V309.884H336.049V329H330.253V324.104L331.477 324.284C331.333 324.908 331.033 325.52 330.577 326.12C330.121 326.72 329.533 327.26 328.813 327.74C328.093 328.22 327.277 328.604 326.365 328.892C325.477 329.18 324.529 329.324 323.521 329.324ZM325.069 324.464C326.149 324.464 327.085 324.26 327.877 323.852C328.693 323.444 329.317 322.868 329.749 322.124C330.205 321.356 330.433 320.456 330.433 319.424C330.433 318.416 330.205 317.54 329.749 316.796C329.317 316.028 328.693 315.428 327.877 314.996C327.085 314.564 326.149 314.348 325.069 314.348C323.989 314.348 323.053 314.564 322.261 314.996C321.469 315.428 320.845 316.028 320.389 316.796C319.957 317.54 319.741 318.416 319.741 319.424C319.741 320.456 319.957 321.356 320.389 322.124C320.845 322.868 321.469 323.444 322.261 323.852C323.053 324.26 323.989 324.464 325.069 324.464ZM344.934 329V309.884H350.406L350.586 314.348L349.218 314.744C349.53 313.808 350.058 312.944 350.802 312.152C351.57 311.36 352.494 310.724 353.574 310.244C354.678 309.74 355.866 309.488 357.138 309.488C358.77 309.488 360.15 309.812 361.278 310.46C362.406 311.108 363.258 312.032 363.834 313.232C364.41 314.408 364.698 315.812 364.698 317.444V329H358.902V318.272C358.902 317.432 358.746 316.724 358.434 316.148C358.146 315.572 357.702 315.128 357.102 314.816C356.526 314.504 355.854 314.348 355.086 314.348C354.414 314.348 353.802 314.468 353.25 314.708C352.722 314.924 352.266 315.224 351.882 315.608C351.498 315.968 351.198 316.376 350.982 316.832C350.79 317.288 350.694 317.756 350.694 318.236V329H347.85C347.058 329 346.422 329 345.942 329C345.462 329 345.126 329 344.934 329Z" fill="white"/>
</g>
<defs>
<filter id="filter0_d_110_1159" x="137" y="387" width="108" height="176" filterUnits="userSpaceOnUse" color-interpolation-filters="sRGB">
<feFlood flood-opacity="0" result="BackgroundImageFix"/>
<feColorMatrix in="SourceAlpha" type="matrix" values="0 0 0 0 0 0 0 0 0 0 0 0 0 0 0 0 0 0 127 0" result="hardAlpha"/>
<feOffset dy="4"/>
<feGaussianBlur stdDeviation="2"/>
<feComposite in2="hardAlpha" operator="out"/>
<feColorMatrix type="matrix" values="0 0 0 0 0 0 0 0 0 0 0 0 0 0 0 0 0 0 0.25 0"/>
<feBlend mode="normal" in2="BackgroundImageFix" result="effect1_dropShadow_110_1159"/>
<feBlend mode="normal" in="SourceGraphic" in2="effect1_dropShadow_110_1159" result="shape"/>
</filter>
<filter id="filter1_d_110_1159" x="371" y="387" width="109" height="176" filterUnits="userSpaceOnUse" color-interpolation-filters="sRGB">
<feFlood flood-opacity="0" result="BackgroundImageFix"/>
<feColorMatrix in="SourceAlpha" type="matrix" values="0 0 0 0 0 0 0 0 0 0 0 0 0 0 0 0 0 0 127 0" result="hardAlpha"/>
<feOffset dy="4"/>
<feGaussianBlur stdDeviation="2"/>
<feComposite in2="hardAlpha" operator="out"/>
<feColorMatrix type="matrix" values="0 0 0 0 0 0 0 0 0 0 0 0 0 0 0 0 0 0 0.25 0"/>
<feBlend mode="normal" in2="BackgroundImageFix" result="effect1_dropShadow_110_1159"/>
<feBlend mode="normal" in="SourceGraphic" in2="effect1_dropShadow_110_1159" result="shape"/>
</filter>
<filter id="filter2_d_110_1159" x="254" y="387" width="109" height="176" filterUnits="userSpaceOnUse" color-interpolation-filters="sRGB">
<feFlood flood-opacity="0" result="BackgroundImageFix"/>
<feColorMatrix in="SourceAlpha" type="matrix" values="0 0 0 0 0 0 0 0 0 0 0 0 0 0 0 0 0 0 127 0" result="hardAlpha"/>
<feOffset dy="4"/>
<feGaussianBlur stdDeviation="2"/>
<feComposite in2="hardAlpha" operator="out"/>
<feColorMatrix type="matrix" values="0 0 0 0 0 0 0 0 0 0 0 0 0 0 0 0 0 0 0.25 0"/>
<feBlend mode="normal" in2="BackgroundImageFix" result="effect1_dropShadow_110_1159"/>
<feBlend mode="normal" in="SourceGraphic" in2="effect1_dropShadow_110_1159" result="shape"/>
</filter>
<filter id="filter3_d_110_1159" x="489" y="387" width="108" height="176" filterUnits="userSpaceOnUse" color-interpolation-filters="sRGB">
<feFlood flood-opacity="0" result="BackgroundImageFix"/>
<feColorMatrix in="SourceAlpha" type="matrix" values="0 0 0 0 0 0 0 0 0 0 0 0 0 0 0 0 0 0 127 0" result="hardAlpha"/>
<feOffset dy="4"/>
<feGaussianBlur stdDeviation="2"/>
<feComposite in2="hardAlpha" operator="out"/>
<feColorMatrix type="matrix" values="0 0 0 0 0 0 0 0 0 0 0 0 0 0 0 0 0 0 0.25 0"/>
<feBlend mode="normal" in2="BackgroundImageFix" result="effect1_dropShadow_110_1159"/>
<feBlend mode="normal" in="SourceGraphic" in2="effect1_dropShadow_110_1159" result="shape"/>
</filter>
<filter id="filter4_d_110_1159" x="31" y="410" width="126" height="206" filterUnits="userSpaceOnUse" color-interpolation-filters="sRGB">
<feFlood flood-opacity="0" result="BackgroundImageFix"/>
<feColorMatrix in="SourceAlpha" type="matrix" values="0 0 0 0 0 0 0 0 0 0 0 0 0 0 0 0 0 0 127 0" result="hardAlpha"/>
<feOffset dy="4"/>
<feGaussianBlur stdDeviation="2"/>
<feComposite in2="hardAlpha" operator="out"/>
<feColorMatrix type="matrix" values="0 0 0 0 0 0 0 0 0 0 0 0 0 0 0 0 0 0 0.25 0"/>
<feBlend mode="normal" in2="BackgroundImageFix" result="effect1_dropShadow_110_1159"/>
<feBlend mode="normal" in="SourceGraphic" in2="effect1_dropShadow_110_1159" result="shape"/>
</filter>
<filter id="filter5_d_110_1159" x="307" y="410" width="126" height="206" filterUnits="userSpaceOnUse" color-interpolation-filters="sRGB">
<feFlood flood-opacity="0" result="BackgroundImageFix"/>
<feColorMatrix in="SourceAlpha" type="matrix" values="0 0 0 0 0 0 0 0 0 0 0 0 0 0 0 0 0 0 127 0" result="hardAlpha"/>
<feOffset dy="4"/>
<feGaussianBlur stdDeviation="2"/>
<feComposite in2="hardAlpha" operator="out"/>
<feColorMatrix type="matrix" values="0 0 0 0 0 0 0 0 0 0 0 0 0 0 0 0 0 0 0.25 0"/>
<feBlend mode="normal" in2="BackgroundImageFix" result="effect1_dropShadow_110_1159"/>
<feBlend mode="normal" in="SourceGraphic" in2="effect1_dropShadow_110_1159" result="shape"/>
</filter>
<filter id="filter6_d_110_1159" x="169" y="410" width="126" height="206" filterUnits="userSpaceOnUse" color-interpolation-filters="sRGB">
<feFlood flood-opacity="0" result="BackgroundImageFix"/>
<feColorMatrix in="SourceAlpha" type="matrix" values="0 0 0 0 0 0 0 0 0 0 0 0 0 0 0 0 0 0 127 0" result="hardAlpha"/>
<feOffset dy="4"/>
<feGaussianBlur stdDeviation="2"/>
<feComposite in2="hardAlpha" operator="out"/>
<feColorMatrix type="matrix" values="0 0 0 0 0 0 0 0 0 0 0 0 0 0 0 0 0 0 0.25 0"/>
<feBlend mode="normal" in2="BackgroundImageFix" result="effect1_dropShadow_110_1159"/>
<feBlend mode="normal" in="SourceGraphic" in2="effect1_dropShadow_110_1159" result="shape"/>
</filter>
<filter id="filter7_d_110_1159" x="227" y="456" width="126" height="206" filterUnits="userSpaceOnUse" color-interpolation-filters="sRGB">
<feFlood flood-opacity="0" result="BackgroundImageFix"/>
<feColorMatrix in="SourceAlpha" type="matrix" values="0 0 0 0 0 0 0 0 0 0 0 0 0 0 0 0 0 0 127 0" result="hardAlpha"/>
<feOffset dy="4"/>
<feGaussianBlur stdDeviation="2"/>
<feComposite in2="hardAlpha" operator="out"/>
<feColorMatrix type="matrix" values="0 0 0 0 0 0 0 0 0 0 0 0 0 0 0 0 0 0 0.25 0"/>
<feBlend mode="normal" in2="BackgroundImageFix" result="effect1_dropShadow_110_1159"/>
<feBlend mode="normal" in="SourceGraphic" in2="effect1_dropShadow_110_1159" result="shape"/>
</filter>
<filter id="filter8_d_110_1159" x="445" y="410" width="126" height="206" filterUnits="userSpaceOnUse" color-interpolation-filters="sRGB">
<feFlood flood-opacity="0" result="BackgroundImageFix"/>
<feColorMatrix in="SourceAlpha" type="matrix" values="0 0 0 0 0 0 0 0 0 0 0 0 0 0 0 0 0 0 127 0" result="hardAlpha"/>
<feOffset dy="4"/>
<feGaussianBlur stdDeviation="2"/>
<feComposite in2="hardAlpha" operator="out"/>
<feColorMatrix type="matrix" values="0 0 0 0 0 0 0 0 0 0 0 0 0 0 0 0 0 0 0.25 0"/>
<feBlend mode="normal" in2="BackgroundImageFix" result="effect1_dropShadow_110_1159"/>
<feBlend mode="normal" in="SourceGraphic" in2="effect1_dropShadow_110_1159" result="shape"/>
</filter>
<filter id="filter9_d_110_1159" x="89" y="456" width="126" height="206" filterUnits="userSpaceOnUse" color-interpolation-filters="sRGB">
<feFlood flood-opacity="0" result="BackgroundImageFix"/>
<feColorMatrix in="SourceAlpha" type="matrix" values="0 0 0 0 0 0 0 0 0 0 0 0 0 0 0 0 0 0 127 0" result="hardAlpha"/>
<feOffset dy="4"/>
<feGaussianBlur stdDeviation="2"/>
<feComposite in2="hardAlpha" operator="out"/>
<feColorMatrix type="matrix" values="0 0 0 0 0 0 0 0 0 0 0 0 0 0 0 0 0 0 0.25 0"/>
<feBlend mode="normal" in2="BackgroundImageFix" result="effect1_dropShadow_110_1159"/>
<feBlend mode="normal" in="SourceGraphic" in2="effect1_dropShadow_110_1159" result="shape"/>
</filter>
<filter id="filter10_d_110_1159" x="365" y="456" width="126" height="206" filterUnits="userSpaceOnUse" color-interpolation-filters="sRGB">
<feFlood flood-opacity="0" result="BackgroundImageFix"/>
<feColorMatrix in="SourceAlpha" type="matrix" values="0 0 0 0 0 0 0 0 0 0 0 0 0 0 0 0 0 0 127 0" result="hardAlpha"/>
<feOffset dy="4"/>
<feGaussianBlur stdDeviation="2"/>
<feComposite in2="hardAlpha" operator="out"/>
<feColorMatrix type="matrix" values="0 0 0 0 0 0 0 0 0 0 0 0 0 0 0 0 0 0 0.25 0"/>
<feBlend mode="normal" in2="BackgroundImageFix" result="effect1_dropShadow_110_1159"/>
<feBlend mode="normal" in="SourceGraphic" in2="effect1_dropShadow_110_1159" result="shape"/>
</filter>
<filter id="filter11_d_110_1159" x="503" y="456" width="126" height="206" filterUnits="userSpaceOnUse" color-interpolation-filters="sRGB">
<feFlood flood-opacity="0" result="BackgroundImageFix"/>
<feColorMatrix in="SourceAlpha" type="matrix" values="0 0 0 0 0 0 0 0 0 0 0 0 0 0 0 0 0 0 127 0" result="hardAlpha"/>
<feOffset dy="4"/>
<feGaussianBlur stdDeviation="2"/>
<feComposite in2="hardAlpha" operator="out"/>
<feColorMatrix type="matrix" values="0 0 0 0 0 0 0 0 0 0 0 0 0 0 0 0 0 0 0.25 0"/>
<feBlend mode="normal" in2="BackgroundImageFix" result="effect1_dropShadow_110_1159"/>
<feBlend mode="normal" in="SourceGraphic" in2="effect1_dropShadow_110_1159" result="shape"/>
</filter>
<filter id="filter12_d_110_1159" x="980" y="415" width="176" height="290" filterUnits="userSpaceOnUse" color-interpolation-filters="sRGB">
<feFlood flood-opacity="0" result="BackgroundImageFix"/>
<feColorMatrix in="SourceAlpha" type="matrix" values="0 0 0 0 0 0 0 0 0 0 0 0 0 0 0 0 0 0 127 0" result="hardAlpha"/>
<feOffset dy="4"/>
<feGaussianBlur stdDeviation="2"/>
<feComposite in2="hardAlpha" operator="out"/>
<feColorMatrix type="matrix" values="0 0 0 0 0 0 0 0 0 0 0 0 0 0 0 0 0 0 0.25 0"/>
<feBlend mode="normal" in2="BackgroundImageFix" result="effect1_dropShadow_110_1159"/>
<feBlend mode="normal" in="SourceGraphic" in2="effect1_dropShadow_110_1159" result="shape"/>
</filter>
<clipPath id="clip0_110_1159">
<rect width="1440" height="1024" fill="white"/>
</clipPath>
</defs>
</svg>
