<svg width="1440" height="1024" viewBox="0 0 1440 1024" fill="none" xmlns="http://www.w3.org/2000/svg">
<g id="focus3-no" clip-path="url(#clip0_135_109)">
<rect width="1440" height="1024" fill="#333148"/>
<path id="part 4" d="M47.096 132.12V60.024H61.688L62.264 71.448L59.384 70.584C59.832 68.536 61.048 66.648 63.032 64.92C65.016 63.192 67.512 61.784 70.52 60.696C73.592 59.608 76.856 59.064 80.312 59.064C85.304 59.064 89.688 60.216 93.464 62.52C97.24 64.76 100.184 67.864 102.296 71.832C104.472 75.736 105.56 80.28 105.56 85.464C105.56 90.584 104.472 95.128 102.296 99.096C100.184 103.064 97.208 106.2 93.368 108.504C89.528 110.744 85.112 111.864 80.12 111.864C76.664 111.864 73.432 111.288 70.424 110.136C67.416 108.984 64.888 107.48 62.84 105.624C60.856 103.768 59.576 101.816 59 99.768L62.552 98.424V132.12H47.096ZM76.376 98.904C79.256 98.904 81.752 98.36 83.864 97.272C85.976 96.12 87.608 94.552 88.76 92.568C89.976 90.584 90.584 88.216 90.584 85.464C90.584 82.776 89.976 80.44 88.76 78.456C87.608 76.408 85.976 74.84 83.864 73.752C81.816 72.6 79.32 72.024 76.376 72.024C73.496 72.024 70.968 72.568 68.792 73.656C66.68 74.744 65.016 76.312 63.8 78.36C62.648 80.408 62.072 82.776 62.072 85.464C62.072 88.216 62.648 90.584 63.8 92.568C65.016 94.552 66.68 96.12 68.792 97.272C70.968 98.36 73.496 98.904 76.376 98.904ZM144.211 111.864C139.155 111.864 134.739 110.744 130.963 108.504C127.187 106.264 124.211 103.16 122.035 99.192C119.923 95.16 118.867 90.584 118.867 85.464C118.867 80.28 119.955 75.704 122.131 71.736C124.307 67.768 127.315 64.664 131.155 62.424C135.059 60.12 139.539 58.968 144.595 58.968C147.475 58.968 150.131 59.352 152.563 60.12C154.995 60.824 157.107 61.816 158.899 63.096C160.755 64.376 162.259 65.784 163.411 67.32C164.627 68.856 165.427 70.456 165.811 72.12H162.451V60.024H177.619V111H162.163V97.944L165.427 98.424C165.043 100.088 164.243 101.72 163.027 103.32C161.811 104.92 160.243 106.36 158.323 107.64C156.403 108.92 154.227 109.944 151.795 110.712C149.427 111.48 146.899 111.864 144.211 111.864ZM148.339 98.904C151.219 98.904 153.715 98.36 155.827 97.272C158.003 96.184 159.667 94.648 160.819 92.664C162.035 90.616 162.643 88.216 162.643 85.464C162.643 82.776 162.035 80.44 160.819 78.456C159.667 76.408 158.003 74.808 155.827 73.656C153.715 72.504 151.219 71.928 148.339 71.928C145.459 71.928 142.963 72.504 140.851 73.656C138.739 74.808 137.075 76.408 135.859 78.456C134.707 80.44 134.131 82.776 134.131 85.464C134.131 88.216 134.707 90.616 135.859 92.664C137.075 94.648 138.739 96.184 140.851 97.272C142.963 98.36 145.459 98.904 148.339 98.904ZM201.315 111V60.024H215.907L216.579 77.592L212.931 75.768C213.763 72.632 215.203 69.816 217.251 67.32C219.363 64.76 221.763 62.744 224.451 61.272C227.203 59.736 230.115 58.968 233.187 58.968C234.851 58.968 236.419 59.128 237.891 59.448C239.427 59.768 240.739 60.184 241.827 60.696L237.603 77.496C236.643 76.792 235.331 76.248 233.667 75.864C232.067 75.48 230.435 75.288 228.771 75.288C226.915 75.288 225.219 75.608 223.683 76.248C222.211 76.824 220.963 77.656 219.939 78.744C218.915 79.768 218.115 80.952 217.539 82.296C217.027 83.64 216.771 85.08 216.771 86.616V111H201.315ZM265.932 111V46.008H281.292V111H265.932ZM254.604 73.464V60.024H294.252V73.464H254.604ZM377.032 111V53.304H387.112L357.544 88.248L355.624 83.736H405.256V96.984H349.48L343.048 84.6L378.856 43.224H392.776V111H377.032Z" fill="white"/>
<rect id="Rectangle 7" y="462" width="1567" height="626" fill="#211F2F"/>
<g id="Group 4">
<g id="Vector" filter="url(#filter0_d_135_109)">
<path d="M264.246 698.996C269.515 675.672 302.714 675.672 307.983 698.996L316.541 736.874C319.712 750.912 309.05 764.267 294.672 764.267H277.557C263.179 764.267 252.517 750.912 255.688 736.874L264.246 698.996Z" fill="#3B5EC6"/>
<path d="M309.816 648.046C309.816 661.326 299.061 672.092 285.794 672.092C272.527 672.092 261.772 661.326 261.772 648.046C261.772 634.766 272.527 624 285.794 624C299.061 624 309.816 634.766 309.816 648.046Z" fill="#3B5EC6"/>
<path d="M290.599 752.565C290.599 746.013 295.904 740.702 302.45 740.702C308.995 740.702 314.3 746.013 314.3 752.565V780.137C314.3 786.689 308.995 792 302.45 792C295.904 792 290.599 786.689 290.599 780.137V752.565Z" fill="#3B5EC6"/>
<path d="M299.867 706.609C296.517 700.981 298.36 693.7 303.982 690.347C309.605 686.993 316.879 688.837 320.229 694.466L334.328 718.153C337.678 723.781 335.836 731.062 330.213 734.415C324.59 737.769 317.316 735.925 313.966 730.296L299.867 706.609Z" fill="#3B5EC6"/>
<path d="M251.362 694.548C254.635 688.874 261.883 686.93 267.551 690.206C273.219 693.482 275.161 700.737 271.889 706.411L258.116 730.289C254.844 735.963 247.596 737.907 241.927 734.631C236.259 731.355 234.317 724.1 237.59 718.427L251.362 694.548Z" fill="#3B5EC6"/>
<path d="M257.288 752.565C257.288 746.013 262.594 740.702 269.139 740.702C275.684 740.702 280.99 746.013 280.99 752.565V780.137C280.99 786.689 275.684 792 269.139 792C262.594 792 257.288 786.689 257.288 780.137V752.565Z" fill="#3B5EC6"/>
</g>
<g id="Vector_2" filter="url(#filter1_d_135_109)">
<path d="M498.528 698.996C503.85 675.672 537.381 675.672 542.703 698.996L551.346 736.874C554.549 750.912 543.78 764.267 529.259 764.267H511.972C497.451 764.267 486.682 750.912 489.885 736.874L498.528 698.996Z" fill="#3B5EC6"/>
<path d="M544.555 648.046C544.555 661.326 533.692 672.092 520.292 672.092C506.892 672.092 496.03 661.326 496.03 648.046C496.03 634.766 506.892 624 520.292 624C533.692 624 544.555 634.766 544.555 648.046Z" fill="#3B5EC6"/>
<path d="M525.145 752.565C525.145 746.013 530.504 740.702 537.114 740.702C543.725 740.702 549.083 746.013 549.083 752.565V780.137C549.083 786.689 543.725 792 537.114 792C530.504 792 525.145 786.689 525.145 780.137V752.565Z" fill="#3B5EC6"/>
<path d="M534.506 706.609C531.123 700.981 532.983 693.7 538.662 690.347C544.341 686.993 551.688 688.837 555.071 694.466L569.311 718.153C572.695 723.781 570.834 731.062 565.155 734.415C559.476 737.769 552.13 735.925 548.746 730.296L534.506 706.609Z" fill="#3B5EC6"/>
<path d="M485.516 694.548C488.821 688.874 496.142 686.93 501.867 690.206C507.591 693.482 509.553 700.737 506.248 706.411L492.337 730.289C489.032 735.963 481.712 737.907 475.987 734.631C470.262 731.355 468.3 724.1 471.606 718.427L485.516 694.548Z" fill="#3B5EC6"/>
<path d="M491.501 752.565C491.501 746.013 496.86 740.702 503.47 740.702C510.081 740.702 515.44 746.013 515.44 752.565V780.137C515.44 786.689 510.081 792 503.47 792C496.86 792 491.501 786.689 491.501 780.137V752.565Z" fill="#3B5EC6"/>
</g>
<g id="Vector_3" filter="url(#filter2_d_135_109)">
<path d="M381.528 698.996C386.85 675.672 420.381 675.672 425.703 698.996L434.346 736.874C437.549 750.912 426.78 764.267 412.259 764.267H394.972C380.451 764.267 369.682 750.912 372.885 736.874L381.528 698.996Z" fill="#3B5EC6"/>
<path d="M427.555 648.046C427.555 661.326 416.692 672.092 403.292 672.092C389.892 672.092 379.03 661.326 379.03 648.046C379.03 634.766 389.892 624 403.292 624C416.692 624 427.555 634.766 427.555 648.046Z" fill="#3B5EC6"/>
<path d="M408.145 752.565C408.145 746.013 413.504 740.702 420.114 740.702C426.725 740.702 432.083 746.013 432.083 752.565V780.137C432.083 786.689 426.725 792 420.114 792C413.504 792 408.145 786.689 408.145 780.137V752.565Z" fill="#3B5EC6"/>
<path d="M417.506 706.609C414.123 700.981 415.983 693.7 421.662 690.347C427.341 686.993 434.688 688.837 438.071 694.466L452.311 718.153C455.695 723.781 453.834 731.062 448.155 734.415C442.476 737.769 435.13 735.925 431.746 730.296L417.506 706.609Z" fill="#3B5EC6"/>
<path d="M368.516 694.548C371.821 688.874 379.142 686.93 384.867 690.206C390.591 693.482 392.553 700.737 389.248 706.411L375.337 730.289C372.032 735.963 364.712 737.907 358.987 734.631C353.262 731.355 351.3 724.1 354.606 718.427L368.516 694.548Z" fill="#3B5EC6"/>
<path d="M374.501 752.565C374.501 746.013 379.86 740.702 386.47 740.702C393.081 740.702 398.44 746.013 398.44 752.565V780.137C398.44 786.689 393.081 792 386.47 792C379.86 792 374.501 786.689 374.501 780.137V752.565Z" fill="#3B5EC6"/>
</g>
<g id="Vector_4" filter="url(#filter3_d_135_109)">
<path d="M616.246 698.996C621.515 675.672 654.714 675.672 659.983 698.996L668.541 736.874C671.712 750.912 661.05 764.267 646.672 764.267H629.557C615.179 764.267 604.517 750.912 607.688 736.874L616.246 698.996Z" fill="#3B5EC6"/>
<path d="M661.816 648.046C661.816 661.326 651.061 672.092 637.794 672.092C624.527 672.092 613.772 661.326 613.772 648.046C613.772 634.766 624.527 624 637.794 624C651.061 624 661.816 634.766 661.816 648.046Z" fill="#3B5EC6"/>
<path d="M642.599 752.565C642.599 746.013 647.904 740.702 654.45 740.702C660.995 740.702 666.3 746.013 666.3 752.565V780.137C666.3 786.689 660.995 792 654.45 792C647.904 792 642.599 786.689 642.599 780.137V752.565Z" fill="#3B5EC6"/>
<path d="M651.867 706.609C648.517 700.981 650.36 693.7 655.982 690.347C661.605 686.993 668.879 688.837 672.229 694.466L686.328 718.153C689.678 723.781 687.836 731.062 682.213 734.415C676.59 737.769 669.316 735.925 665.966 730.296L651.867 706.609Z" fill="#3B5EC6"/>
<path d="M603.362 694.548C606.635 688.874 613.883 686.93 619.551 690.206C625.219 693.482 627.161 700.737 623.889 706.411L610.116 730.289C606.844 735.963 599.596 737.907 593.927 734.631C588.259 731.355 586.317 724.1 589.59 718.427L603.362 694.548Z" fill="#3B5EC6"/>
<path d="M609.288 752.565C609.288 746.013 614.594 740.702 621.139 740.702C627.684 740.702 632.99 746.013 632.99 752.565V780.137C632.99 786.689 627.684 792 621.139 792C614.594 792 609.288 786.689 609.288 780.137V752.565Z" fill="#3B5EC6"/>
</g>
<g id="Vector_5" filter="url(#filter4_d_135_109)">
<path d="M163.33 735.388C169.548 707.899 208.722 707.899 214.94 735.388L225.038 780.03C228.78 796.575 216.199 812.315 199.233 812.315H179.037C162.071 812.315 149.49 796.575 153.232 780.03L163.33 735.388Z" fill="#6A94E0"/>
<path d="M217.103 675.34C217.103 690.991 204.412 703.679 188.757 703.679C173.102 703.679 160.411 690.991 160.411 675.34C160.411 659.688 173.102 647 188.757 647C204.412 647 217.103 659.688 217.103 675.34Z" fill="#6A94E0"/>
<path d="M194.426 798.523C194.426 790.801 200.687 784.542 208.41 784.542C216.134 784.542 222.395 790.801 222.395 798.523V831.019C222.395 838.741 216.134 845 208.41 845C200.687 845 194.426 838.741 194.426 831.019V798.523Z" fill="#6A94E0"/>
<path d="M205.364 744.361C201.41 737.728 203.584 729.146 210.219 725.194C216.854 721.242 225.437 723.416 229.39 730.049L246.027 757.966C249.98 764.599 247.806 773.18 241.171 777.132C234.537 781.085 225.953 778.911 222 772.278L205.364 744.361Z" fill="#6A94E0"/>
<path d="M148.128 730.146C151.989 723.459 160.542 721.168 167.23 725.029C173.919 728.889 176.21 737.44 172.349 744.127L156.097 772.269C152.235 778.956 143.683 781.248 136.994 777.387C130.306 773.526 128.014 764.975 131.876 758.289L148.128 730.146Z" fill="#6A94E0"/>
<path d="M155.12 798.523C155.12 790.801 161.381 784.542 169.104 784.542C176.827 784.542 183.088 790.801 183.088 798.523V831.019C183.088 838.741 176.827 845 169.104 845C161.381 845 155.12 838.741 155.12 831.019V798.523Z" fill="#6A94E0"/>
</g>
<g id="Vector_6" filter="url(#filter5_d_135_109)">
<path d="M439.33 735.388C445.548 707.899 484.722 707.899 490.94 735.388L501.038 780.03C504.78 796.575 492.199 812.315 475.233 812.315H455.037C438.071 812.315 425.49 796.575 429.232 780.03L439.33 735.388Z" fill="#6A94E0"/>
<path d="M493.103 675.34C493.103 690.991 480.412 703.679 464.757 703.679C449.102 703.679 436.411 690.991 436.411 675.34C436.411 659.688 449.102 647 464.757 647C480.412 647 493.103 659.688 493.103 675.34Z" fill="#6A94E0"/>
<path d="M470.426 798.523C470.426 790.801 476.687 784.542 484.41 784.542C492.134 784.542 498.395 790.801 498.395 798.523V831.019C498.395 838.741 492.134 845 484.41 845C476.687 845 470.426 838.741 470.426 831.019V798.523Z" fill="#6A94E0"/>
<path d="M481.364 744.361C477.41 737.728 479.584 729.146 486.219 725.194C492.854 721.242 501.437 723.416 505.39 730.049L522.027 757.966C525.98 764.599 523.806 773.18 517.171 777.132C510.537 781.085 501.953 778.911 498 772.278L481.364 744.361Z" fill="#6A94E0"/>
<path d="M424.128 730.146C427.989 723.459 436.542 721.168 443.23 725.029C449.919 728.889 452.21 737.44 448.349 744.127L432.097 772.269C428.235 778.956 419.683 781.248 412.994 777.387C406.306 773.526 404.014 764.975 407.876 758.289L424.128 730.146Z" fill="#6A94E0"/>
<path d="M431.12 798.523C431.12 790.801 437.381 784.542 445.104 784.542C452.827 784.542 459.088 790.801 459.088 798.523V831.019C459.088 838.741 452.827 845 445.104 845C437.381 845 431.12 838.741 431.12 831.019V798.523Z" fill="#6A94E0"/>
</g>
<g id="Vector_7" filter="url(#filter6_d_135_109)">
<path d="M301.33 735.388C307.548 707.899 346.722 707.899 352.94 735.388L363.038 780.03C366.78 796.575 354.199 812.315 337.233 812.315H317.037C300.071 812.315 287.49 796.575 291.232 780.03L301.33 735.388Z" fill="#6A94E0"/>
<path d="M355.103 675.34C355.103 690.991 342.412 703.679 326.757 703.679C311.102 703.679 298.411 690.991 298.411 675.34C298.411 659.688 311.102 647 326.757 647C342.412 647 355.103 659.688 355.103 675.34Z" fill="#6A94E0"/>
<path d="M332.426 798.523C332.426 790.801 338.687 784.542 346.41 784.542C354.134 784.542 360.395 790.801 360.395 798.523V831.019C360.395 838.741 354.134 845 346.41 845C338.687 845 332.426 838.741 332.426 831.019V798.523Z" fill="#6A94E0"/>
<path d="M343.364 744.361C339.41 737.728 341.584 729.146 348.219 725.194C354.854 721.242 363.437 723.416 367.39 730.049L384.027 757.966C387.98 764.599 385.806 773.18 379.171 777.132C372.537 781.085 363.953 778.911 360 772.278L343.364 744.361Z" fill="#6A94E0"/>
<path d="M286.128 730.146C289.989 723.459 298.542 721.168 305.23 725.029C311.919 728.889 314.21 737.44 310.349 744.127L294.097 772.269C290.235 778.956 281.683 781.248 274.994 777.387C268.306 773.526 266.014 764.975 269.876 758.289L286.128 730.146Z" fill="#6A94E0"/>
<path d="M293.12 798.523C293.12 790.801 299.381 784.542 307.104 784.542C314.827 784.542 321.088 790.801 321.088 798.523V831.019C321.088 838.741 314.827 845 307.104 845C299.381 845 293.12 838.741 293.12 831.019V798.523Z" fill="#6A94E0"/>
</g>
<g id="Vector_8" filter="url(#filter7_d_135_109)">
<path d="M359.33 781.388C365.548 753.899 404.722 753.899 410.94 781.388L421.038 826.03C424.78 842.575 412.199 858.315 395.233 858.315H375.037C358.071 858.315 345.49 842.575 349.232 826.03L359.33 781.388Z" fill="#8DBBFB"/>
<path d="M413.103 721.34C413.103 736.991 400.412 749.679 384.757 749.679C369.102 749.679 356.411 736.991 356.411 721.34C356.411 705.688 369.102 693 384.757 693C400.412 693 413.103 705.688 413.103 721.34Z" fill="#8DBBFB"/>
<path d="M390.426 844.523C390.426 836.801 396.687 830.542 404.41 830.542C412.134 830.542 418.395 836.801 418.395 844.523V877.019C418.395 884.741 412.134 891 404.41 891C396.687 891 390.426 884.741 390.426 877.019V844.523Z" fill="#8DBBFB"/>
<path d="M401.364 790.361C397.41 783.728 399.584 775.146 406.219 771.194C412.854 767.242 421.437 769.416 425.39 776.049L442.027 803.966C445.98 810.599 443.806 819.18 437.171 823.132C430.537 827.085 421.953 824.911 418 818.278L401.364 790.361Z" fill="#8DBBFB"/>
<path d="M344.128 776.146C347.989 769.459 356.542 767.168 363.23 771.029C369.919 774.889 372.21 783.44 368.349 790.127L352.097 818.269C348.235 824.956 339.683 827.248 332.994 823.387C326.306 819.526 324.014 810.975 327.876 804.289L344.128 776.146Z" fill="#8DBBFB"/>
<path d="M351.12 844.523C351.12 836.801 357.381 830.542 365.104 830.542C372.827 830.542 379.088 836.801 379.088 844.523V877.019C379.088 884.741 372.827 891 365.104 891C357.381 891 351.12 884.741 351.12 877.019V844.523Z" fill="#8DBBFB"/>
</g>
<g id="Vector_9" filter="url(#filter8_d_135_109)">
<path d="M577.33 735.388C583.548 707.899 622.722 707.899 628.94 735.388L639.038 780.03C642.78 796.575 630.199 812.315 613.233 812.315H593.037C576.071 812.315 563.49 796.575 567.232 780.03L577.33 735.388Z" fill="#6A94E0"/>
<path d="M631.103 675.34C631.103 690.991 618.412 703.679 602.757 703.679C587.102 703.679 574.411 690.991 574.411 675.34C574.411 659.688 587.102 647 602.757 647C618.412 647 631.103 659.688 631.103 675.34Z" fill="#6A94E0"/>
<path d="M608.426 798.523C608.426 790.801 614.687 784.542 622.41 784.542C630.134 784.542 636.395 790.801 636.395 798.523V831.019C636.395 838.741 630.134 845 622.41 845C614.687 845 608.426 838.741 608.426 831.019V798.523Z" fill="#6A94E0"/>
<path d="M619.364 744.361C615.41 737.728 617.584 729.146 624.219 725.194C630.854 721.242 639.437 723.416 643.39 730.049L660.027 757.966C663.98 764.599 661.806 773.18 655.171 777.132C648.537 781.085 639.953 778.911 636 772.278L619.364 744.361Z" fill="#6A94E0"/>
<path d="M562.128 730.146C565.989 723.459 574.542 721.168 581.23 725.029C587.919 728.889 590.21 737.44 586.349 744.127L570.097 772.269C566.235 778.956 557.683 781.248 550.994 777.387C544.306 773.526 542.014 764.975 545.876 758.289L562.128 730.146Z" fill="#6A94E0"/>
<path d="M569.12 798.523C569.12 790.801 575.381 784.542 583.104 784.542C590.827 784.542 597.088 790.801 597.088 798.523V831.019C597.088 838.741 590.827 845 583.104 845C575.381 845 569.12 838.741 569.12 831.019V798.523Z" fill="#6A94E0"/>
</g>
<g id="Vector_10" filter="url(#filter9_d_135_109)">
<path d="M221.33 781.388C227.548 753.899 266.722 753.899 272.94 781.388L283.038 826.03C286.78 842.575 274.199 858.315 257.233 858.315H237.037C220.071 858.315 207.49 842.575 211.232 826.03L221.33 781.388Z" fill="#8DBBFB"/>
<path d="M275.103 721.34C275.103 736.991 262.412 749.679 246.757 749.679C231.102 749.679 218.411 736.991 218.411 721.34C218.411 705.688 231.102 693 246.757 693C262.412 693 275.103 705.688 275.103 721.34Z" fill="#8DBBFB"/>
<path d="M252.426 844.523C252.426 836.801 258.687 830.542 266.41 830.542C274.134 830.542 280.395 836.801 280.395 844.523V877.019C280.395 884.741 274.134 891 266.41 891C258.687 891 252.426 884.741 252.426 877.019V844.523Z" fill="#8DBBFB"/>
<path d="M263.364 790.361C259.41 783.728 261.584 775.146 268.219 771.194C274.854 767.242 283.437 769.416 287.39 776.049L304.027 803.966C307.98 810.599 305.806 819.18 299.171 823.132C292.537 827.085 283.953 824.911 280 818.278L263.364 790.361Z" fill="#8DBBFB"/>
<path d="M206.128 776.146C209.989 769.459 218.542 767.168 225.23 771.029C231.919 774.889 234.21 783.44 230.349 790.127L214.097 818.269C210.235 824.956 201.683 827.248 194.994 823.387C188.306 819.526 186.014 810.975 189.876 804.289L206.128 776.146Z" fill="#8DBBFB"/>
<path d="M213.12 844.523C213.12 836.801 219.381 830.542 227.104 830.542C234.827 830.542 241.088 836.801 241.088 844.523V877.019C241.088 884.741 234.827 891 227.104 891C219.381 891 213.12 884.741 213.12 877.019V844.523Z" fill="#8DBBFB"/>
</g>
<g id="Vector_11" filter="url(#filter10_d_135_109)">
<path d="M497.33 781.388C503.548 753.899 542.722 753.899 548.94 781.388L559.038 826.03C562.78 842.575 550.199 858.315 533.233 858.315H513.037C496.071 858.315 483.49 842.575 487.232 826.03L497.33 781.388Z" fill="#8DBBFB"/>
<path d="M551.103 721.34C551.103 736.991 538.412 749.679 522.757 749.679C507.102 749.679 494.411 736.991 494.411 721.34C494.411 705.688 507.102 693 522.757 693C538.412 693 551.103 705.688 551.103 721.34Z" fill="#8DBBFB"/>
<path d="M528.426 844.523C528.426 836.801 534.687 830.542 542.41 830.542C550.134 830.542 556.395 836.801 556.395 844.523V877.019C556.395 884.741 550.134 891 542.41 891C534.687 891 528.426 884.741 528.426 877.019V844.523Z" fill="#8DBBFB"/>
<path d="M539.364 790.361C535.41 783.728 537.584 775.146 544.219 771.194C550.854 767.242 559.437 769.416 563.39 776.049L580.027 803.966C583.98 810.599 581.806 819.18 575.171 823.132C568.537 827.085 559.953 824.911 556 818.278L539.364 790.361Z" fill="#8DBBFB"/>
<path d="M482.128 776.146C485.989 769.459 494.542 767.168 501.23 771.029C507.919 774.889 510.21 783.44 506.349 790.127L490.097 818.269C486.235 824.956 477.683 827.248 470.994 823.387C464.306 819.526 462.014 810.975 465.876 804.289L482.128 776.146Z" fill="#8DBBFB"/>
<path d="M489.12 844.523C489.12 836.801 495.381 830.542 503.104 830.542C510.827 830.542 517.088 836.801 517.088 844.523V877.019C517.088 884.741 510.827 891 503.104 891C495.381 891 489.12 884.741 489.12 877.019V844.523Z" fill="#8DBBFB"/>
</g>
<g id="Vector_12" filter="url(#filter11_d_135_109)">
<path d="M635.33 781.388C641.548 753.899 680.722 753.899 686.94 781.388L697.038 826.03C700.78 842.575 688.199 858.315 671.233 858.315H651.037C634.071 858.315 621.49 842.575 625.232 826.03L635.33 781.388Z" fill="#8DBBFB"/>
<path d="M689.103 721.34C689.103 736.991 676.412 749.679 660.757 749.679C645.102 749.679 632.411 736.991 632.411 721.34C632.411 705.688 645.102 693 660.757 693C676.412 693 689.103 705.688 689.103 721.34Z" fill="#8DBBFB"/>
<path d="M666.426 844.523C666.426 836.801 672.687 830.542 680.41 830.542C688.134 830.542 694.395 836.801 694.395 844.523V877.019C694.395 884.741 688.134 891 680.41 891C672.687 891 666.426 884.741 666.426 877.019V844.523Z" fill="#8DBBFB"/>
<path d="M677.364 790.361C673.41 783.728 675.584 775.146 682.219 771.194C688.854 767.242 697.437 769.416 701.39 776.049L718.027 803.966C721.98 810.599 719.806 819.18 713.171 823.132C706.537 827.085 697.953 824.911 694 818.278L677.364 790.361Z" fill="#8DBBFB"/>
<path d="M620.128 776.146C623.989 769.459 632.542 767.168 639.23 771.029C645.919 774.889 648.21 783.44 644.349 790.127L628.097 818.269C624.235 824.956 615.683 827.248 608.994 823.387C602.306 819.526 600.014 810.975 603.876 804.289L620.128 776.146Z" fill="#8DBBFB"/>
<path d="M627.12 844.523C627.12 836.801 633.381 830.542 641.104 830.542C648.827 830.542 655.088 836.801 655.088 844.523V877.019C655.088 884.741 648.827 891 641.104 891C633.381 891 627.12 884.741 627.12 877.019V844.523Z" fill="#8DBBFB"/>
</g>
</g>
<g id="next">
<g id="Next">
<path id="Next_2" d="M1076.81 878V833.2H1086.79L1113.86 865.2L1112.01 864.88C1111.75 863.387 1111.56 861.957 1111.43 860.592C1111.3 859.227 1111.18 857.904 1111.05 856.624C1110.96 855.344 1110.88 854.064 1110.79 852.784C1110.75 851.504 1110.73 850.16 1110.73 848.752C1110.73 847.344 1110.73 845.851 1110.73 844.272V833.2H1121.29V878H1111.18L1083.08 844.976L1086.09 845.424C1086.22 846.917 1086.34 848.261 1086.47 849.456C1086.64 850.651 1086.77 851.781 1086.86 852.848C1086.98 853.872 1087.07 854.917 1087.11 855.984C1087.2 857.008 1087.26 858.096 1087.3 859.248C1087.35 860.4 1087.37 861.659 1087.37 863.024V878H1076.81ZM1153.89 878.64C1149.76 878.64 1146.13 877.893 1143.01 876.4C1139.94 874.864 1137.55 872.795 1135.85 870.192C1134.14 867.547 1133.29 864.539 1133.29 861.168C1133.29 858.48 1133.78 856.048 1134.76 853.872C1135.74 851.696 1137.11 849.819 1138.85 848.24C1140.6 846.661 1142.65 845.445 1145 844.592C1147.35 843.739 1149.88 843.312 1152.61 843.312C1155.26 843.312 1157.69 843.739 1159.91 844.592C1162.13 845.403 1164.05 846.576 1165.67 848.112C1167.33 849.648 1168.61 851.461 1169.51 853.552C1170.41 855.643 1170.81 857.947 1170.73 860.464L1170.66 863.344H1140.01L1138.53 857.392H1162.34L1161.25 858.672V857.392C1161.13 856.325 1160.66 855.365 1159.85 854.512C1159.08 853.659 1158.08 852.997 1156.84 852.528C1155.6 852.016 1154.24 851.76 1152.74 851.76C1150.82 851.76 1149.12 852.08 1147.62 852.72C1146.13 853.317 1144.96 854.256 1144.1 855.536C1143.29 856.816 1142.89 858.437 1142.89 860.4C1142.89 862.277 1143.38 863.92 1144.36 865.328C1145.38 866.736 1146.81 867.845 1148.65 868.656C1150.52 869.467 1152.72 869.872 1155.24 869.872C1157.41 869.872 1159.23 869.616 1160.68 869.104C1162.17 868.549 1163.52 867.867 1164.71 867.056L1169.32 873.712C1167.91 874.779 1166.35 875.696 1164.65 876.464C1162.98 877.189 1161.23 877.723 1159.4 878.064C1157.61 878.448 1155.77 878.64 1153.89 878.64ZM1207.57 878L1198.16 865.776L1195.54 862.32L1180.63 844.016H1193.56L1202 855.216L1204.82 858.928L1220.37 878H1207.57ZM1179.8 878L1195.03 858.8L1201.24 865.136L1192.53 878H1179.8ZM1204.76 863.216L1198.74 856.816L1207.32 844.016H1219.99L1204.76 863.216ZM1236.39 878V834.672H1246.63V878H1236.39ZM1228.84 852.976V844.016H1255.27V852.976H1228.84Z" fill="white"/>
</g>
<path id="Arrow 1" d="M1070 882.5C1065.31 882.5 1061.5 886.306 1061.5 891C1061.5 895.694 1065.31 899.5 1070 899.5V891V882.5ZM1347 891L1262 841.925V940.075L1347 891ZM1070 891V899.5H1270.5V891V882.5H1070V891Z" fill="#EF1044"/>
</g>
<rect id="Rectangle 26" x="854" y="232" width="279" height="425" rx="25" fill="#6A94E0"/>
<path id="Polygon 2" d="M834.384 434.306C840.428 422.003 858.914 425.761 859.151 439.34L862.384 625.135C862.53 633.51 854.733 639.957 846.487 638.281L760.565 620.816C752.318 619.14 747.968 610.223 751.696 602.635L834.384 434.306Z" fill="#3E5068"/>
<path id="Polygon 3" d="M1155.62 434.306C1149.57 422.003 1131.09 425.761 1130.85 439.34L1127.62 625.135C1127.47 633.51 1135.27 639.957 1143.51 638.281L1229.44 620.816C1237.68 619.14 1242.03 610.223 1238.31 602.635L1155.62 434.306Z" fill="#3E5068"/>
<path id="Polygon 5" d="M1008.63 494.046C1005.42 480.801 986.582 480.801 983.367 494.046L939.279 675.684C937.292 683.867 943.491 691.75 951.912 691.75L1040.09 691.75C1048.51 691.75 1054.71 683.867 1052.72 675.684L1008.63 494.046Z" fill="#3E5068"/>
<path id="Polygon 4" d="M977.409 65.7989C985.403 54.9692 1001.6 54.9692 1009.59 65.7989L1134.95 235.622C1144.69 248.826 1135.27 267.5 1118.86 267.5H868.144C851.733 267.5 842.307 248.826 852.053 235.622L977.409 65.7989Z" fill="#3E5068"/>
<path id="we have to get those deniers into this rocket to get rid of them!" d="M87.244 512L80.584 492.884H86.668L90.448 505.484L89.692 505.412L94.012 495.44H97.72L102.328 505.412L101.572 505.484L105.352 492.884H111.472L104.596 512H100.24L95.272 500.48L96.604 500.444L91.564 512H87.244ZM126.12 512.36C123.792 512.36 121.752 511.94 120 511.1C118.272 510.236 116.928 509.072 115.968 507.608C115.008 506.12 114.528 504.428 114.528 502.532C114.528 501.02 114.804 499.652 115.356 498.428C115.908 497.204 116.676 496.148 117.66 495.26C118.644 494.372 119.796 493.688 121.116 493.208C122.436 492.728 123.864 492.488 125.4 492.488C126.888 492.488 128.256 492.728 129.504 493.208C130.752 493.664 131.832 494.324 132.744 495.188C133.68 496.052 134.4 497.072 134.904 498.248C135.408 499.424 135.636 500.72 135.588 502.136L135.552 503.756H118.308L117.48 500.408H130.872L130.26 501.128V500.408C130.188 499.808 129.924 499.268 129.468 498.788C129.036 498.308 128.472 497.936 127.776 497.672C127.08 497.384 126.312 497.24 125.472 497.24C124.392 497.24 123.432 497.42 122.592 497.78C121.752 498.116 121.092 498.644 120.612 499.364C120.156 500.084 119.928 500.996 119.928 502.1C119.928 503.156 120.204 504.08 120.756 504.872C121.332 505.664 122.136 506.288 123.168 506.744C124.224 507.2 125.46 507.428 126.876 507.428C128.1 507.428 129.12 507.284 129.936 506.996C130.776 506.684 131.532 506.3 132.204 505.844L134.796 509.588C134.004 510.188 133.128 510.704 132.168 511.136C131.232 511.544 130.248 511.844 129.216 512.036C128.208 512.252 127.176 512.36 126.12 512.36ZM157.224 512V485.36H162.876V497.348L161.508 497.816C161.748 496.856 162.252 495.98 163.02 495.188C163.812 494.372 164.772 493.724 165.9 493.244C167.028 492.74 168.228 492.488 169.5 492.488C171.132 492.488 172.5 492.824 173.604 493.496C174.732 494.144 175.572 495.068 176.124 496.268C176.7 497.444 176.988 498.824 176.988 500.408V512H171.191V501.308C171.191 500.444 171.036 499.724 170.724 499.148C170.436 498.548 169.992 498.092 169.392 497.78C168.816 497.468 168.144 497.324 167.376 497.348C166.752 497.348 166.164 497.456 165.612 497.672C165.084 497.864 164.616 498.152 164.208 498.536C163.824 498.896 163.524 499.316 163.308 499.796C163.092 500.276 162.984 500.792 162.984 501.344V512H160.14C159.348 512 158.712 512 158.232 512C157.752 512 157.416 512 157.224 512ZM193.15 512.324C191.254 512.324 189.598 511.904 188.182 511.064C186.766 510.224 185.65 509.06 184.834 507.572C184.042 506.06 183.646 504.344 183.646 502.424C183.646 500.48 184.054 498.764 184.87 497.276C185.686 495.788 186.814 494.624 188.254 493.784C189.718 492.92 191.398 492.488 193.294 492.488C194.374 492.488 195.37 492.632 196.282 492.92C197.194 493.184 197.986 493.556 198.658 494.036C199.354 494.516 199.918 495.044 200.35 495.62C200.806 496.196 201.106 496.796 201.25 497.42H199.99V492.884H205.678V512H199.882V507.104L201.106 507.284C200.962 507.908 200.662 508.52 200.206 509.12C199.75 509.72 199.162 510.26 198.442 510.74C197.722 511.22 196.906 511.604 195.994 511.892C195.106 512.18 194.158 512.324 193.15 512.324ZM194.698 507.464C195.778 507.464 196.714 507.26 197.506 506.852C198.322 506.444 198.946 505.868 199.378 505.124C199.834 504.356 200.062 503.456 200.062 502.424C200.062 501.416 199.834 500.54 199.378 499.796C198.946 499.028 198.322 498.428 197.506 497.996C196.714 497.564 195.778 497.348 194.698 497.348C193.618 497.348 192.682 497.564 191.89 497.996C191.098 498.428 190.474 499.028 190.018 499.796C189.586 500.54 189.37 501.416 189.37 502.424C189.37 503.456 189.586 504.356 190.018 505.124C190.474 505.868 191.098 506.444 191.89 506.852C192.682 507.26 193.618 507.464 194.698 507.464ZM220.297 512L211.189 492.884H217.705L223.609 507.5L222.061 507.644L228.109 492.884H234.553L225.121 512H220.297ZM249.238 512.36C246.91 512.36 244.87 511.94 243.118 511.1C241.39 510.236 240.046 509.072 239.086 507.608C238.126 506.12 237.646 504.428 237.646 502.532C237.646 501.02 237.922 499.652 238.474 498.428C239.026 497.204 239.794 496.148 240.778 495.26C241.762 494.372 242.914 493.688 244.234 493.208C245.554 492.728 246.982 492.488 248.518 492.488C250.006 492.488 251.374 492.728 252.622 493.208C253.87 493.664 254.95 494.324 255.862 495.188C256.798 496.052 257.518 497.072 258.022 498.248C258.526 499.424 258.754 500.72 258.706 502.136L258.67 503.756H241.426L240.598 500.408H253.99L253.378 501.128V500.408C253.306 499.808 253.042 499.268 252.586 498.788C252.154 498.308 251.59 497.936 250.894 497.672C250.198 497.384 249.43 497.24 248.59 497.24C247.51 497.24 246.55 497.42 245.71 497.78C244.87 498.116 244.21 498.644 243.73 499.364C243.274 500.084 243.046 500.996 243.046 502.1C243.046 503.156 243.322 504.08 243.874 504.872C244.45 505.664 245.254 506.288 246.286 506.744C247.342 507.2 248.578 507.428 249.994 507.428C251.218 507.428 252.238 507.284 253.054 506.996C253.894 506.684 254.65 506.3 255.322 505.844L257.914 509.588C257.122 510.188 256.246 510.704 255.286 511.136C254.35 511.544 253.366 511.844 252.334 512.036C251.326 512.252 250.294 512.36 249.238 512.36ZM282.213 512V487.628H287.973V512H282.213ZM277.965 497.924V492.884H292.833V497.924H277.965ZM309.323 512.36C307.091 512.36 305.111 511.928 303.383 511.064C301.655 510.2 300.299 509.024 299.315 507.536C298.331 506.048 297.839 504.344 297.839 502.424C297.839 500.504 298.331 498.8 299.315 497.312C300.299 495.824 301.655 494.648 303.383 493.784C305.111 492.92 307.091 492.488 309.323 492.488C311.531 492.488 313.487 492.92 315.191 493.784C316.919 494.648 318.275 495.824 319.259 497.312C320.243 498.8 320.735 500.504 320.735 502.424C320.735 504.344 320.243 506.048 319.259 507.536C318.275 509.024 316.919 510.2 315.191 511.064C313.487 511.928 311.531 512.36 309.323 512.36ZM309.323 507.392C310.355 507.392 311.291 507.176 312.131 506.744C312.995 506.312 313.667 505.724 314.147 504.98C314.651 504.236 314.891 503.384 314.867 502.424C314.891 501.464 314.651 500.6 314.147 499.832C313.667 499.064 312.995 498.476 312.131 498.068C311.291 497.636 310.355 497.42 309.323 497.42C308.267 497.42 307.295 497.636 306.407 498.068C305.543 498.5 304.871 499.088 304.391 499.832C303.911 500.576 303.671 501.44 303.671 502.424C303.671 503.384 303.911 504.236 304.391 504.98C304.871 505.724 305.543 506.312 306.407 506.744C307.295 507.176 308.267 507.392 309.323 507.392ZM351.968 520.28C350.072 520.28 348.308 520.04 346.676 519.56C345.068 519.104 343.748 518.528 342.716 517.832L344.696 513.728C345.224 514.016 345.812 514.292 346.46 514.556C347.132 514.82 347.864 515.036 348.656 515.204C349.448 515.396 350.312 515.492 351.248 515.492C352.472 515.492 353.504 515.288 354.344 514.88C355.208 514.472 355.856 513.848 356.288 513.008C356.744 512.192 356.972 511.184 356.972 509.984V507.356L358.088 507.536C357.896 508.304 357.416 509.012 356.648 509.66C355.88 510.308 354.92 510.836 353.768 511.244C352.616 511.652 351.392 511.856 350.096 511.856C348.2 511.856 346.532 511.46 345.092 510.668C343.652 509.852 342.512 508.736 341.672 507.32C340.856 505.88 340.448 504.224 340.448 502.352C340.448 500.432 340.868 498.74 341.708 497.276C342.548 495.788 343.7 494.624 345.164 493.784C346.628 492.92 348.32 492.488 350.24 492.488C350.888 492.488 351.56 492.572 352.256 492.74C352.976 492.884 353.672 493.088 354.344 493.352C355.04 493.592 355.664 493.904 356.216 494.288C356.792 494.648 357.26 495.056 357.62 495.512C358.004 495.944 358.22 496.412 358.268 496.916L357.08 497.204L357.332 492.884H362.768V509.876C362.768 511.58 362.492 513.068 361.94 514.34C361.412 515.636 360.668 516.728 359.708 517.616C358.748 518.504 357.596 519.164 356.252 519.596C354.932 520.052 353.504 520.28 351.968 520.28ZM351.752 507.392C352.832 507.392 353.78 507.188 354.596 506.78C355.412 506.348 356.036 505.76 356.468 505.016C356.924 504.272 357.152 503.396 357.152 502.388C357.152 501.38 356.924 500.504 356.468 499.76C356.036 498.992 355.412 498.404 354.596 497.996C353.78 497.564 352.832 497.348 351.752 497.348C350.624 497.348 349.64 497.564 348.8 497.996C347.96 498.404 347.312 498.992 346.856 499.76C346.4 500.504 346.172 501.38 346.172 502.388C346.172 503.396 346.4 504.272 346.856 505.016C347.312 505.76 347.96 506.348 348.8 506.78C349.64 507.188 350.624 507.392 351.752 507.392ZM381.003 512.36C378.675 512.36 376.635 511.94 374.883 511.1C373.155 510.236 371.811 509.072 370.851 507.608C369.891 506.12 369.411 504.428 369.411 502.532C369.411 501.02 369.687 499.652 370.239 498.428C370.791 497.204 371.559 496.148 372.543 495.26C373.527 494.372 374.679 493.688 375.999 493.208C377.319 492.728 378.747 492.488 380.283 492.488C381.771 492.488 383.139 492.728 384.387 493.208C385.635 493.664 386.715 494.324 387.627 495.188C388.563 496.052 389.283 497.072 389.787 498.248C390.291 499.424 390.519 500.72 390.471 502.136L390.435 503.756H373.191L372.363 500.408H385.755L385.143 501.128V500.408C385.071 499.808 384.807 499.268 384.351 498.788C383.919 498.308 383.355 497.936 382.659 497.672C381.963 497.384 381.195 497.24 380.355 497.24C379.275 497.24 378.315 497.42 377.475 497.78C376.635 498.116 375.975 498.644 375.495 499.364C375.039 500.084 374.811 500.996 374.811 502.1C374.811 503.156 375.087 504.08 375.639 504.872C376.215 505.664 377.019 506.288 378.051 506.744C379.107 507.2 380.343 507.428 381.759 507.428C382.983 507.428 384.003 507.284 384.819 506.996C385.659 506.684 386.415 506.3 387.087 505.844L389.679 509.588C388.887 510.188 388.011 510.704 387.051 511.136C386.115 511.544 385.131 511.844 384.099 512.036C383.091 512.252 382.059 512.36 381.003 512.36ZM399.494 512V487.628H405.254V512H399.494ZM395.246 497.924V492.884H410.114V497.924H395.246ZM433.56 512V487.628H439.32V512H433.56ZM429.312 497.924V492.884H444.18V497.924H429.312ZM451.27 512V485.36H456.922V497.348L455.554 497.816C455.794 496.856 456.298 495.98 457.066 495.188C457.858 494.372 458.818 493.724 459.946 493.244C461.074 492.74 462.274 492.488 463.546 492.488C465.178 492.488 466.546 492.824 467.65 493.496C468.778 494.144 469.618 495.068 470.17 496.268C470.746 497.444 471.034 498.824 471.034 500.408V512H465.238V501.308C465.238 500.444 465.082 499.724 464.77 499.148C464.482 498.548 464.038 498.092 463.438 497.78C462.862 497.468 462.19 497.324 461.422 497.348C460.798 497.348 460.21 497.456 459.658 497.672C459.13 497.864 458.662 498.152 458.254 498.536C457.87 498.896 457.57 499.316 457.354 499.796C457.138 500.276 457.03 500.792 457.03 501.344V512H454.186C453.394 512 452.758 512 452.278 512C451.798 512 451.462 512 451.27 512ZM489.428 512.36C487.196 512.36 485.216 511.928 483.488 511.064C481.76 510.2 480.404 509.024 479.42 507.536C478.436 506.048 477.944 504.344 477.944 502.424C477.944 500.504 478.436 498.8 479.42 497.312C480.404 495.824 481.76 494.648 483.488 493.784C485.216 492.92 487.196 492.488 489.428 492.488C491.636 492.488 493.592 492.92 495.296 493.784C497.024 494.648 498.38 495.824 499.364 497.312C500.348 498.8 500.84 500.504 500.84 502.424C500.84 504.344 500.348 506.048 499.364 507.536C498.38 509.024 497.024 510.2 495.296 511.064C493.592 511.928 491.636 512.36 489.428 512.36ZM489.428 507.392C490.46 507.392 491.396 507.176 492.236 506.744C493.1 506.312 493.772 505.724 494.252 504.98C494.756 504.236 494.996 503.384 494.972 502.424C494.996 501.464 494.756 500.6 494.252 499.832C493.772 499.064 493.1 498.476 492.236 498.068C491.396 497.636 490.46 497.42 489.428 497.42C488.372 497.42 487.4 497.636 486.512 498.068C485.648 498.5 484.976 499.088 484.496 499.832C484.016 500.576 483.776 501.44 483.776 502.424C483.776 503.384 484.016 504.236 484.496 504.98C484.976 505.724 485.648 506.312 486.512 506.744C487.4 507.176 488.372 507.392 489.428 507.392ZM515.249 512.36C513.137 512.36 511.241 512.06 509.561 511.46C507.905 510.86 506.573 510.008 505.565 508.904L509.057 505.808C509.873 506.576 510.845 507.164 511.973 507.572C513.101 507.98 514.289 508.184 515.537 508.184C515.921 508.184 516.293 508.148 516.653 508.076C517.037 508.004 517.361 507.908 517.625 507.788C517.913 507.644 518.141 507.476 518.309 507.284C518.477 507.092 518.561 506.852 518.561 506.564C518.561 506.108 518.273 505.748 517.697 505.484C517.289 505.34 516.773 505.196 516.149 505.052C515.525 504.908 514.817 504.752 514.025 504.584C512.705 504.344 511.541 504.056 510.533 503.72C509.549 503.36 508.721 502.916 508.049 502.388C507.473 501.884 507.029 501.308 506.717 500.66C506.405 500.012 506.249 499.256 506.249 498.392C506.249 497.504 506.477 496.7 506.933 495.98C507.389 495.236 508.025 494.612 508.841 494.108C509.657 493.58 510.593 493.184 511.649 492.92C512.705 492.632 513.809 492.488 514.961 492.488C516.113 492.488 517.241 492.608 518.345 492.848C519.449 493.064 520.493 493.388 521.477 493.82C522.461 494.228 523.325 494.756 524.069 495.404L521.117 498.86C520.589 498.452 519.977 498.08 519.281 497.744C518.585 497.408 517.841 497.144 517.049 496.952C516.281 496.736 515.525 496.628 514.781 496.628C514.373 496.628 513.977 496.652 513.593 496.7C513.233 496.748 512.921 496.844 512.657 496.988C512.393 497.108 512.177 497.264 512.009 497.456C511.865 497.624 511.793 497.84 511.793 498.104C511.793 498.32 511.853 498.524 511.973 498.716C512.093 498.908 512.273 499.064 512.513 499.184C512.849 499.4 513.341 499.592 513.989 499.76C514.661 499.928 515.501 500.108 516.509 500.3C517.973 500.612 519.221 500.972 520.253 501.38C521.285 501.764 522.113 502.232 522.737 502.784C523.241 503.168 523.613 503.648 523.853 504.224C524.093 504.776 524.213 505.388 524.213 506.06C524.213 507.284 523.817 508.376 523.025 509.336C522.257 510.272 521.201 511.016 519.857 511.568C518.537 512.096 517.001 512.36 515.249 512.36ZM540.226 512.36C537.898 512.36 535.858 511.94 534.106 511.1C532.378 510.236 531.034 509.072 530.074 507.608C529.114 506.12 528.634 504.428 528.634 502.532C528.634 501.02 528.91 499.652 529.462 498.428C530.014 497.204 530.782 496.148 531.766 495.26C532.75 494.372 533.902 493.688 535.222 493.208C536.542 492.728 537.97 492.488 539.506 492.488C540.994 492.488 542.362 492.728 543.61 493.208C544.858 493.664 545.938 494.324 546.85 495.188C547.786 496.052 548.506 497.072 549.01 498.248C549.514 499.424 549.742 500.72 549.694 502.136L549.658 503.756H532.414L531.586 500.408H544.978L544.366 501.128V500.408C544.294 499.808 544.03 499.268 543.574 498.788C543.142 498.308 542.578 497.936 541.882 497.672C541.186 497.384 540.418 497.24 539.578 497.24C538.498 497.24 537.538 497.42 536.698 497.78C535.858 498.116 535.198 498.644 534.718 499.364C534.262 500.084 534.034 500.996 534.034 502.1C534.034 503.156 534.31 504.08 534.862 504.872C535.438 505.664 536.242 506.288 537.274 506.744C538.33 507.2 539.566 507.428 540.982 507.428C542.206 507.428 543.226 507.284 544.042 506.996C544.882 506.684 545.638 506.3 546.31 505.844L548.902 509.588C548.11 510.188 547.234 510.704 546.274 511.136C545.338 511.544 544.354 511.844 543.322 512.036C542.314 512.252 541.282 512.36 540.226 512.36ZM90.808 557.396C88.936 557.396 87.292 556.976 85.876 556.136C84.46 555.272 83.356 554.096 82.564 552.608C81.772 551.096 81.376 549.38 81.376 547.46C81.376 545.54 81.784 543.836 82.6 542.348C83.416 540.836 84.544 539.648 85.984 538.784C87.448 537.92 89.128 537.488 91.024 537.488C92.08 537.488 93.064 537.632 93.976 537.92C94.888 538.184 95.704 538.544 96.424 539C97.168 539.456 97.756 539.984 98.188 540.584C98.644 541.16 98.908 541.748 98.98 542.348L97.612 542.672V530.36H103.408V557H98.044L97.72 552.356L98.872 552.644C98.8 553.244 98.536 553.832 98.08 554.408C97.624 554.96 97.024 555.464 96.28 555.92C95.56 556.352 94.732 556.712 93.796 557C92.86 557.264 91.864 557.396 90.808 557.396ZM92.428 552.536C93.508 552.536 94.444 552.32 95.236 551.888C96.052 551.456 96.676 550.868 97.108 550.124C97.54 549.356 97.756 548.468 97.756 547.46C97.756 546.428 97.54 545.54 97.108 544.796C96.676 544.028 96.052 543.44 95.236 543.032C94.444 542.6 93.508 542.384 92.428 542.384C91.348 542.384 90.412 542.6 89.62 543.032C88.828 543.44 88.204 544.028 87.748 544.796C87.316 545.54 87.1 546.428 87.1 547.46C87.1 548.468 87.316 549.356 87.748 550.124C88.204 550.868 88.828 551.456 89.62 551.888C90.412 552.32 91.348 552.536 92.428 552.536ZM121.269 557.36C118.941 557.36 116.901 556.94 115.149 556.1C113.421 555.236 112.077 554.072 111.117 552.608C110.157 551.12 109.677 549.428 109.677 547.532C109.677 546.02 109.953 544.652 110.505 543.428C111.057 542.204 111.825 541.148 112.809 540.26C113.793 539.372 114.945 538.688 116.265 538.208C117.585 537.728 119.013 537.488 120.549 537.488C122.037 537.488 123.405 537.728 124.653 538.208C125.901 538.664 126.981 539.324 127.893 540.188C128.829 541.052 129.549 542.072 130.053 543.248C130.557 544.424 130.785 545.72 130.737 547.136L130.701 548.756H113.457L112.629 545.408H126.021L125.409 546.128V545.408C125.337 544.808 125.073 544.268 124.617 543.788C124.185 543.308 123.621 542.936 122.925 542.672C122.229 542.384 121.461 542.24 120.621 542.24C119.541 542.24 118.581 542.42 117.741 542.78C116.901 543.116 116.241 543.644 115.761 544.364C115.305 545.084 115.077 545.996 115.077 547.1C115.077 548.156 115.353 549.08 115.905 549.872C116.481 550.664 117.285 551.288 118.317 551.744C119.373 552.2 120.609 552.428 122.025 552.428C123.249 552.428 124.269 552.284 125.085 551.996C125.925 551.684 126.681 551.3 127.353 550.844L129.945 554.588C129.153 555.188 128.277 555.704 127.317 556.136C126.381 556.544 125.397 556.844 124.365 557.036C123.357 557.252 122.325 557.36 121.269 557.36ZM137.888 557V537.884H143.36L143.54 542.348L142.172 542.744C142.484 541.808 143.012 540.944 143.756 540.152C144.524 539.36 145.448 538.724 146.528 538.244C147.632 537.74 148.82 537.488 150.092 537.488C151.724 537.488 153.104 537.812 154.232 538.46C155.36 539.108 156.212 540.032 156.788 541.232C157.364 542.408 157.652 543.812 157.652 545.444V557H151.856V546.272C151.856 545.432 151.7 544.724 151.388 544.148C151.1 543.572 150.656 543.128 150.056 542.816C149.48 542.504 148.808 542.348 148.04 542.348C147.368 542.348 146.756 542.468 146.204 542.708C145.676 542.924 145.22 543.224 144.836 543.608C144.452 543.968 144.152 544.376 143.936 544.832C143.744 545.288 143.648 545.756 143.648 546.236V557H140.804C140.012 557 139.376 557 138.896 557C138.416 557 138.08 557 137.888 557ZM166.758 557V537.884H172.554V557H166.758ZM169.638 533.96C168.558 533.96 167.718 533.708 167.118 533.204C166.518 532.676 166.218 531.932 166.218 530.972C166.218 530.108 166.518 529.4 167.118 528.848C167.742 528.296 168.582 528.02 169.638 528.02C170.718 528.02 171.558 528.284 172.158 528.812C172.758 529.316 173.058 530.036 173.058 530.972C173.058 531.86 172.746 532.58 172.122 533.132C171.522 533.684 170.694 533.96 169.638 533.96ZM191.3 557.36C188.972 557.36 186.932 556.94 185.18 556.1C183.452 555.236 182.108 554.072 181.148 552.608C180.188 551.12 179.708 549.428 179.708 547.532C179.708 546.02 179.984 544.652 180.536 543.428C181.088 542.204 181.856 541.148 182.84 540.26C183.824 539.372 184.976 538.688 186.296 538.208C187.616 537.728 189.044 537.488 190.58 537.488C192.068 537.488 193.436 537.728 194.684 538.208C195.932 538.664 197.012 539.324 197.924 540.188C198.86 541.052 199.58 542.072 200.084 543.248C200.588 544.424 200.816 545.72 200.768 547.136L200.732 548.756H183.488L182.66 545.408H196.052L195.44 546.128V545.408C195.368 544.808 195.104 544.268 194.648 543.788C194.216 543.308 193.652 542.936 192.956 542.672C192.26 542.384 191.492 542.24 190.652 542.24C189.572 542.24 188.612 542.42 187.772 542.78C186.932 543.116 186.272 543.644 185.792 544.364C185.336 545.084 185.108 545.996 185.108 547.1C185.108 548.156 185.384 549.08 185.936 549.872C186.512 550.664 187.316 551.288 188.348 551.744C189.404 552.2 190.64 552.428 192.056 552.428C193.28 552.428 194.3 552.284 195.116 551.996C195.956 551.684 196.712 551.3 197.384 550.844L199.976 554.588C199.184 555.188 198.308 555.704 197.348 556.136C196.412 556.544 195.428 556.844 194.396 557.036C193.388 557.252 192.356 557.36 191.3 557.36ZM207.919 557V537.884H213.391L213.643 544.472L212.275 543.788C212.587 542.612 213.127 541.556 213.895 540.62C214.687 539.66 215.587 538.904 216.595 538.352C217.627 537.776 218.719 537.488 219.871 537.488C220.495 537.488 221.083 537.548 221.635 537.668C222.211 537.788 222.703 537.944 223.111 538.136L221.527 544.436C221.167 544.172 220.675 543.968 220.051 543.824C219.451 543.68 218.839 543.608 218.215 543.608C217.519 543.608 216.883 543.728 216.307 543.968C215.755 544.184 215.287 544.496 214.903 544.904C214.519 545.288 214.219 545.732 214.003 546.236C213.811 546.74 213.715 547.28 213.715 547.856V557H207.919ZM236.847 557.36C234.735 557.36 232.839 557.06 231.159 556.46C229.503 555.86 228.171 555.008 227.163 553.904L230.655 550.808C231.471 551.576 232.443 552.164 233.571 552.572C234.699 552.98 235.887 553.184 237.135 553.184C237.519 553.184 237.891 553.148 238.251 553.076C238.635 553.004 238.959 552.908 239.223 552.788C239.511 552.644 239.739 552.476 239.907 552.284C240.075 552.092 240.159 551.852 240.159 551.564C240.159 551.108 239.871 550.748 239.295 550.484C238.887 550.34 238.371 550.196 237.747 550.052C237.123 549.908 236.415 549.752 235.623 549.584C234.303 549.344 233.139 549.056 232.131 548.72C231.147 548.36 230.319 547.916 229.647 547.388C229.071 546.884 228.627 546.308 228.315 545.66C228.003 545.012 227.847 544.256 227.847 543.392C227.847 542.504 228.075 541.7 228.531 540.98C228.987 540.236 229.623 539.612 230.439 539.108C231.255 538.58 232.191 538.184 233.247 537.92C234.303 537.632 235.407 537.488 236.559 537.488C237.711 537.488 238.839 537.608 239.943 537.848C241.047 538.064 242.091 538.388 243.075 538.82C244.059 539.228 244.923 539.756 245.667 540.404L242.715 543.86C242.187 543.452 241.575 543.08 240.879 542.744C240.183 542.408 239.439 542.144 238.647 541.952C237.879 541.736 237.123 541.628 236.379 541.628C235.971 541.628 235.575 541.652 235.191 541.7C234.831 541.748 234.519 541.844 234.255 541.988C233.991 542.108 233.775 542.264 233.607 542.456C233.463 542.624 233.391 542.84 233.391 543.104C233.391 543.32 233.451 543.524 233.571 543.716C233.691 543.908 233.871 544.064 234.111 544.184C234.447 544.4 234.939 544.592 235.587 544.76C236.259 544.928 237.099 545.108 238.107 545.3C239.571 545.612 240.819 545.972 241.851 546.38C242.883 546.764 243.711 547.232 244.335 547.784C244.839 548.168 245.211 548.648 245.451 549.224C245.691 549.776 245.811 550.388 245.811 551.06C245.811 552.284 245.415 553.376 244.623 554.336C243.855 555.272 242.799 556.016 241.455 556.568C240.135 557.096 238.599 557.36 236.847 557.36ZM267.164 557V537.884H272.96V557H267.164ZM270.044 533.96C268.964 533.96 268.124 533.708 267.524 533.204C266.924 532.676 266.624 531.932 266.624 530.972C266.624 530.108 266.924 529.4 267.524 528.848C268.148 528.296 268.988 528.02 270.044 528.02C271.124 528.02 271.964 528.284 272.564 528.812C273.164 529.316 273.464 530.036 273.464 530.972C273.464 531.86 273.152 532.58 272.528 533.132C271.928 533.684 271.1 533.96 270.044 533.96ZM282.274 557V537.884H287.746L287.926 542.348L286.558 542.744C286.87 541.808 287.398 540.944 288.142 540.152C288.91 539.36 289.834 538.724 290.914 538.244C292.018 537.74 293.206 537.488 294.478 537.488C296.11 537.488 297.49 537.812 298.618 538.46C299.746 539.108 300.598 540.032 301.174 541.232C301.75 542.408 302.038 543.812 302.038 545.444V557H296.242V546.272C296.242 545.432 296.086 544.724 295.774 544.148C295.486 543.572 295.042 543.128 294.442 542.816C293.866 542.504 293.194 542.348 292.426 542.348C291.754 542.348 291.142 542.468 290.59 542.708C290.062 542.924 289.606 543.224 289.222 543.608C288.838 543.968 288.538 544.376 288.322 544.832C288.13 545.288 288.034 545.756 288.034 546.236V557H285.19C284.398 557 283.762 557 283.282 557C282.802 557 282.466 557 282.274 557ZM312.728 557V532.628H318.488V557H312.728ZM308.48 542.924V537.884H323.348V542.924H308.48ZM339.839 557.36C337.607 557.36 335.627 556.928 333.899 556.064C332.171 555.2 330.815 554.024 329.831 552.536C328.847 551.048 328.355 549.344 328.355 547.424C328.355 545.504 328.847 543.8 329.831 542.312C330.815 540.824 332.171 539.648 333.899 538.784C335.627 537.92 337.607 537.488 339.839 537.488C342.047 537.488 344.003 537.92 345.707 538.784C347.435 539.648 348.791 540.824 349.775 542.312C350.759 543.8 351.251 545.504 351.251 547.424C351.251 549.344 350.759 551.048 349.775 552.536C348.791 554.024 347.435 555.2 345.707 556.064C344.003 556.928 342.047 557.36 339.839 557.36ZM339.839 552.392C340.871 552.392 341.807 552.176 342.647 551.744C343.511 551.312 344.183 550.724 344.663 549.98C345.167 549.236 345.407 548.384 345.383 547.424C345.407 546.464 345.167 545.6 344.663 544.832C344.183 544.064 343.511 543.476 342.647 543.068C341.807 542.636 340.871 542.42 339.839 542.42C338.783 542.42 337.811 542.636 336.923 543.068C336.059 543.5 335.387 544.088 334.907 544.832C334.427 545.576 334.187 546.44 334.187 547.424C334.187 548.384 334.427 549.236 334.907 549.98C335.387 550.724 336.059 551.312 336.923 551.744C337.811 552.176 338.783 552.392 339.839 552.392ZM374.744 557V532.628H380.504V557H374.744ZM370.496 542.924V537.884H385.364V542.924H370.496ZM392.454 557V530.36H398.106V542.348L396.738 542.816C396.978 541.856 397.482 540.98 398.25 540.188C399.042 539.372 400.002 538.724 401.13 538.244C402.258 537.74 403.458 537.488 404.73 537.488C406.362 537.488 407.73 537.824 408.834 538.496C409.962 539.144 410.802 540.068 411.354 541.268C411.93 542.444 412.218 543.824 412.218 545.408V557H406.422V546.308C406.422 545.444 406.266 544.724 405.954 544.148C405.666 543.548 405.222 543.092 404.622 542.78C404.046 542.468 403.374 542.324 402.606 542.348C401.982 542.348 401.394 542.456 400.842 542.672C400.314 542.864 399.846 543.152 399.438 543.536C399.054 543.896 398.754 544.316 398.538 544.796C398.322 545.276 398.214 545.792 398.214 546.344V557H395.37C394.578 557 393.942 557 393.462 557C392.982 557 392.646 557 392.454 557ZM421.324 557V537.884H427.12V557H421.324ZM424.204 533.96C423.124 533.96 422.284 533.708 421.684 533.204C421.084 532.676 420.784 531.932 420.784 530.972C420.784 530.108 421.084 529.4 421.684 528.848C422.308 528.296 423.148 528.02 424.204 528.02C425.284 528.02 426.124 528.284 426.724 528.812C427.324 529.316 427.624 530.036 427.624 530.972C427.624 531.86 427.312 532.58 426.688 533.132C426.088 533.684 425.26 533.96 424.204 533.96ZM443.706 557.36C441.594 557.36 439.698 557.06 438.018 556.46C436.362 555.86 435.03 555.008 434.022 553.904L437.514 550.808C438.33 551.576 439.302 552.164 440.43 552.572C441.558 552.98 442.746 553.184 443.994 553.184C444.378 553.184 444.75 553.148 445.11 553.076C445.494 553.004 445.818 552.908 446.082 552.788C446.37 552.644 446.598 552.476 446.766 552.284C446.934 552.092 447.018 551.852 447.018 551.564C447.018 551.108 446.73 550.748 446.154 550.484C445.746 550.34 445.23 550.196 444.606 550.052C443.982 549.908 443.274 549.752 442.482 549.584C441.162 549.344 439.998 549.056 438.99 548.72C438.006 548.36 437.178 547.916 436.506 547.388C435.93 546.884 435.486 546.308 435.174 545.66C434.862 545.012 434.706 544.256 434.706 543.392C434.706 542.504 434.934 541.7 435.39 540.98C435.846 540.236 436.482 539.612 437.298 539.108C438.114 538.58 439.05 538.184 440.106 537.92C441.162 537.632 442.266 537.488 443.418 537.488C444.57 537.488 445.698 537.608 446.802 537.848C447.906 538.064 448.95 538.388 449.934 538.82C450.918 539.228 451.782 539.756 452.526 540.404L449.574 543.86C449.046 543.452 448.434 543.08 447.738 542.744C447.042 542.408 446.298 542.144 445.506 541.952C444.738 541.736 443.982 541.628 443.238 541.628C442.83 541.628 442.434 541.652 442.05 541.7C441.69 541.748 441.378 541.844 441.114 541.988C440.85 542.108 440.634 542.264 440.466 542.456C440.322 542.624 440.25 542.84 440.25 543.104C440.25 543.32 440.31 543.524 440.43 543.716C440.55 543.908 440.73 544.064 440.97 544.184C441.306 544.4 441.798 544.592 442.446 544.76C443.118 544.928 443.958 545.108 444.966 545.3C446.43 545.612 447.678 545.972 448.71 546.38C449.742 546.764 450.57 547.232 451.194 547.784C451.698 548.168 452.07 548.648 452.31 549.224C452.55 549.776 452.67 550.388 452.67 551.06C452.67 552.284 452.274 553.376 451.482 554.336C450.714 555.272 449.658 556.016 448.314 556.568C446.994 557.096 445.458 557.36 443.706 557.36ZM473.735 557V537.884H479.207L479.459 544.472L478.091 543.788C478.403 542.612 478.943 541.556 479.711 540.62C480.503 539.66 481.403 538.904 482.411 538.352C483.443 537.776 484.535 537.488 485.687 537.488C486.311 537.488 486.899 537.548 487.451 537.668C488.027 537.788 488.519 537.944 488.927 538.136L487.343 544.436C486.983 544.172 486.491 543.968 485.867 543.824C485.267 543.68 484.655 543.608 484.031 543.608C483.335 543.608 482.699 543.728 482.123 543.968C481.571 544.184 481.103 544.496 480.719 544.904C480.335 545.288 480.035 545.732 479.819 546.236C479.627 546.74 479.531 547.28 479.531 547.856V557H473.735ZM504.159 557.36C501.927 557.36 499.947 556.928 498.219 556.064C496.491 555.2 495.135 554.024 494.151 552.536C493.167 551.048 492.675 549.344 492.675 547.424C492.675 545.504 493.167 543.8 494.151 542.312C495.135 540.824 496.491 539.648 498.219 538.784C499.947 537.92 501.927 537.488 504.159 537.488C506.367 537.488 508.323 537.92 510.027 538.784C511.755 539.648 513.111 540.824 514.095 542.312C515.079 543.8 515.571 545.504 515.571 547.424C515.571 549.344 515.079 551.048 514.095 552.536C513.111 554.024 511.755 555.2 510.027 556.064C508.323 556.928 506.367 557.36 504.159 557.36ZM504.159 552.392C505.191 552.392 506.127 552.176 506.967 551.744C507.831 551.312 508.503 550.724 508.983 549.98C509.487 549.236 509.727 548.384 509.703 547.424C509.727 546.464 509.487 545.6 508.983 544.832C508.503 544.064 507.831 543.476 506.967 543.068C506.127 542.636 505.191 542.42 504.159 542.42C503.103 542.42 502.131 542.636 501.243 543.068C500.379 543.5 499.707 544.088 499.227 544.832C498.747 545.576 498.507 546.44 498.507 547.424C498.507 548.384 498.747 549.236 499.227 549.98C499.707 550.724 500.379 551.312 501.243 551.744C502.131 552.176 503.103 552.392 504.159 552.392ZM531.672 557.36C529.56 557.36 527.688 556.928 526.056 556.064C524.424 555.2 523.14 554.024 522.204 552.536C521.268 551.024 520.8 549.32 520.8 547.424C520.8 545.528 521.268 543.836 522.204 542.348C523.14 540.836 524.412 539.648 526.02 538.784C527.628 537.92 529.452 537.488 531.492 537.488C533.436 537.488 535.212 537.788 536.82 538.388C538.428 538.964 539.736 539.78 540.744 540.836L537.612 544.796C537.18 544.388 536.664 544.004 536.064 543.644C535.464 543.284 534.816 543.008 534.12 542.816C533.448 542.6 532.752 542.492 532.032 542.492C530.928 542.492 529.956 542.708 529.116 543.14C528.3 543.548 527.664 544.124 527.208 544.868C526.776 545.612 526.56 546.464 526.56 547.424C526.56 548.336 526.788 549.164 527.244 549.908C527.7 550.652 528.336 551.24 529.152 551.672C529.968 552.104 530.916 552.32 531.996 552.32C532.86 552.32 533.628 552.236 534.3 552.068C534.972 551.9 535.584 551.672 536.136 551.384C536.712 551.072 537.204 550.724 537.612 550.34L540.744 554.264C539.664 555.176 538.344 555.92 536.784 556.496C535.224 557.072 533.52 557.36 531.672 557.36ZM552.68 551.816L550.808 547.496L561.428 537.884H569.096L552.68 551.816ZM547.388 557V530.36H553.004V557H547.388ZM562.076 557L554.264 547.424L558.26 544.256L568.88 557H562.076ZM583.925 557.36C581.597 557.36 579.557 556.94 577.805 556.1C576.077 555.236 574.733 554.072 573.773 552.608C572.813 551.12 572.333 549.428 572.333 547.532C572.333 546.02 572.609 544.652 573.161 543.428C573.713 542.204 574.481 541.148 575.465 540.26C576.449 539.372 577.601 538.688 578.921 538.208C580.241 537.728 581.669 537.488 583.205 537.488C584.693 537.488 586.061 537.728 587.309 538.208C588.557 538.664 589.637 539.324 590.549 540.188C591.485 541.052 592.205 542.072 592.709 543.248C593.213 544.424 593.441 545.72 593.393 547.136L593.357 548.756H576.113L575.285 545.408H588.677L588.065 546.128V545.408C587.993 544.808 587.729 544.268 587.273 543.788C586.841 543.308 586.277 542.936 585.581 542.672C584.885 542.384 584.117 542.24 583.277 542.24C582.197 542.24 581.237 542.42 580.397 542.78C579.557 543.116 578.897 543.644 578.417 544.364C577.961 545.084 577.733 545.996 577.733 547.1C577.733 548.156 578.009 549.08 578.561 549.872C579.137 550.664 579.941 551.288 580.973 551.744C582.029 552.2 583.265 552.428 584.681 552.428C585.905 552.428 586.925 552.284 587.741 551.996C588.581 551.684 589.337 551.3 590.009 550.844L592.601 554.588C591.809 555.188 590.933 555.704 589.973 556.136C589.037 556.544 588.053 556.844 587.021 557.036C586.013 557.252 584.981 557.36 583.925 557.36ZM602.416 557V532.628H608.176V557H602.416ZM598.168 542.924V537.884H613.036V542.924H598.168ZM636.482 557V532.628H642.242V557H636.482ZM632.234 542.924V537.884H647.102V542.924H632.234ZM663.592 557.36C661.36 557.36 659.38 556.928 657.652 556.064C655.924 555.2 654.568 554.024 653.584 552.536C652.6 551.048 652.108 549.344 652.108 547.424C652.108 545.504 652.6 543.8 653.584 542.312C654.568 540.824 655.924 539.648 657.652 538.784C659.38 537.92 661.36 537.488 663.592 537.488C665.8 537.488 667.756 537.92 669.46 538.784C671.188 539.648 672.544 540.824 673.528 542.312C674.512 543.8 675.004 545.504 675.004 547.424C675.004 549.344 674.512 551.048 673.528 552.536C672.544 554.024 671.188 555.2 669.46 556.064C667.756 556.928 665.8 557.36 663.592 557.36ZM663.592 552.392C664.624 552.392 665.56 552.176 666.4 551.744C667.264 551.312 667.936 550.724 668.416 549.98C668.92 549.236 669.16 548.384 669.136 547.424C669.16 546.464 668.92 545.6 668.416 544.832C667.936 544.064 667.264 543.476 666.4 543.068C665.56 542.636 664.624 542.42 663.592 542.42C662.536 542.42 661.564 542.636 660.676 543.068C659.812 543.5 659.14 544.088 658.66 544.832C658.18 545.576 657.94 546.44 657.94 547.424C657.94 548.384 658.18 549.236 658.66 549.98C659.14 550.724 659.812 551.312 660.676 551.744C661.564 552.176 662.536 552.392 663.592 552.392ZM93.148 610.28C91.252 610.28 89.488 610.04 87.856 609.56C86.248 609.104 84.928 608.528 83.896 607.832L85.876 603.728C86.404 604.016 86.992 604.292 87.64 604.556C88.312 604.82 89.044 605.036 89.836 605.204C90.628 605.396 91.492 605.492 92.428 605.492C93.652 605.492 94.684 605.288 95.524 604.88C96.388 604.472 97.036 603.848 97.468 603.008C97.924 602.192 98.152 601.184 98.152 599.984V597.356L99.268 597.536C99.076 598.304 98.596 599.012 97.828 599.66C97.06 600.308 96.1 600.836 94.948 601.244C93.796 601.652 92.572 601.856 91.276 601.856C89.38 601.856 87.712 601.46 86.272 600.668C84.832 599.852 83.692 598.736 82.852 597.32C82.036 595.88 81.628 594.224 81.628 592.352C81.628 590.432 82.048 588.74 82.888 587.276C83.728 585.788 84.88 584.624 86.344 583.784C87.808 582.92 89.5 582.488 91.42 582.488C92.068 582.488 92.74 582.572 93.436 582.74C94.156 582.884 94.852 583.088 95.524 583.352C96.22 583.592 96.844 583.904 97.396 584.288C97.972 584.648 98.44 585.056 98.8 585.512C99.184 585.944 99.4 586.412 99.448 586.916L98.26 587.204L98.512 582.884H103.948V599.876C103.948 601.58 103.672 603.068 103.12 604.34C102.592 605.636 101.848 606.728 100.888 607.616C99.928 608.504 98.776 609.164 97.432 609.596C96.112 610.052 94.684 610.28 93.148 610.28ZM92.932 597.392C94.012 597.392 94.96 597.188 95.776 596.78C96.592 596.348 97.216 595.76 97.648 595.016C98.104 594.272 98.332 593.396 98.332 592.388C98.332 591.38 98.104 590.504 97.648 589.76C97.216 588.992 96.592 588.404 95.776 587.996C94.96 587.564 94.012 587.348 92.932 587.348C91.804 587.348 90.82 587.564 89.98 587.996C89.14 588.404 88.492 588.992 88.036 589.76C87.58 590.504 87.352 591.38 87.352 592.388C87.352 593.396 87.58 594.272 88.036 595.016C88.492 595.76 89.14 596.348 89.98 596.78C90.82 597.188 91.804 597.392 92.932 597.392ZM122.183 602.36C119.855 602.36 117.815 601.94 116.063 601.1C114.335 600.236 112.991 599.072 112.031 597.608C111.071 596.12 110.591 594.428 110.591 592.532C110.591 591.02 110.867 589.652 111.419 588.428C111.971 587.204 112.739 586.148 113.723 585.26C114.707 584.372 115.859 583.688 117.179 583.208C118.499 582.728 119.927 582.488 121.463 582.488C122.951 582.488 124.319 582.728 125.567 583.208C126.815 583.664 127.895 584.324 128.807 585.188C129.743 586.052 130.463 587.072 130.967 588.248C131.471 589.424 131.699 590.72 131.651 592.136L131.615 593.756H114.371L113.543 590.408H126.935L126.323 591.128V590.408C126.251 589.808 125.987 589.268 125.531 588.788C125.099 588.308 124.535 587.936 123.839 587.672C123.143 587.384 122.375 587.24 121.535 587.24C120.455 587.24 119.495 587.42 118.655 587.78C117.815 588.116 117.155 588.644 116.675 589.364C116.219 590.084 115.991 590.996 115.991 592.1C115.991 593.156 116.267 594.08 116.819 594.872C117.395 595.664 118.199 596.288 119.231 596.744C120.287 597.2 121.523 597.428 122.939 597.428C124.163 597.428 125.183 597.284 125.999 596.996C126.839 596.684 127.595 596.3 128.267 595.844L130.859 599.588C130.067 600.188 129.191 600.704 128.231 601.136C127.295 601.544 126.311 601.844 125.279 602.036C124.271 602.252 123.239 602.36 122.183 602.36ZM140.674 602V577.628H146.434V602H140.674ZM136.426 587.924V582.884H151.294V587.924H136.426ZM172.868 602V582.884H178.34L178.592 589.472L177.224 588.788C177.536 587.612 178.076 586.556 178.844 585.62C179.636 584.66 180.536 583.904 181.544 583.352C182.576 582.776 183.668 582.488 184.82 582.488C185.444 582.488 186.032 582.548 186.584 582.668C187.16 582.788 187.652 582.944 188.06 583.136L186.476 589.436C186.116 589.172 185.624 588.968 185 588.824C184.4 588.68 183.788 588.608 183.164 588.608C182.468 588.608 181.832 588.728 181.256 588.968C180.704 589.184 180.236 589.496 179.852 589.904C179.468 590.288 179.168 590.732 178.952 591.236C178.76 591.74 178.664 592.28 178.664 592.856V602H172.868ZM194.812 602V582.884H200.608V602H194.812ZM197.692 578.96C196.612 578.96 195.772 578.708 195.172 578.204C194.572 577.676 194.272 576.932 194.272 575.972C194.272 575.108 194.572 574.4 195.172 573.848C195.796 573.296 196.636 573.02 197.692 573.02C198.772 573.02 199.612 573.284 200.212 573.812C200.812 574.316 201.112 575.036 201.112 575.972C201.112 576.86 200.8 577.58 200.176 578.132C199.576 578.684 198.748 578.96 197.692 578.96ZM217.195 602.396C215.323 602.396 213.679 601.976 212.263 601.136C210.847 600.272 209.743 599.096 208.951 597.608C208.159 596.096 207.763 594.38 207.763 592.46C207.763 590.54 208.171 588.836 208.987 587.348C209.803 585.836 210.931 584.648 212.371 583.784C213.835 582.92 215.515 582.488 217.411 582.488C218.467 582.488 219.451 582.632 220.363 582.92C221.275 583.184 222.091 583.544 222.811 584C223.555 584.456 224.143 584.984 224.575 585.584C225.031 586.16 225.295 586.748 225.367 587.348L223.999 587.672V575.36H229.795V602H224.431L224.107 597.356L225.259 597.644C225.187 598.244 224.923 598.832 224.467 599.408C224.011 599.96 223.411 600.464 222.667 600.92C221.947 601.352 221.119 601.712 220.183 602C219.247 602.264 218.251 602.396 217.195 602.396ZM218.815 597.536C219.895 597.536 220.831 597.32 221.623 596.888C222.439 596.456 223.063 595.868 223.495 595.124C223.927 594.356 224.143 593.468 224.143 592.46C224.143 591.428 223.927 590.54 223.495 589.796C223.063 589.028 222.439 588.44 221.623 588.032C220.831 587.6 219.895 587.384 218.815 587.384C217.735 587.384 216.799 587.6 216.007 588.032C215.215 588.44 214.591 589.028 214.135 589.796C213.703 590.54 213.487 591.428 213.487 592.46C213.487 593.468 213.703 594.356 214.135 595.124C214.591 595.868 215.215 596.456 216.007 596.888C216.799 597.32 217.735 597.536 218.815 597.536ZM262.284 602.36C260.052 602.36 258.072 601.928 256.344 601.064C254.616 600.2 253.26 599.024 252.276 597.536C251.292 596.048 250.8 594.344 250.8 592.424C250.8 590.504 251.292 588.8 252.276 587.312C253.26 585.824 254.616 584.648 256.344 583.784C258.072 582.92 260.052 582.488 262.284 582.488C264.492 582.488 266.448 582.92 268.152 583.784C269.88 584.648 271.236 585.824 272.22 587.312C273.204 588.8 273.696 590.504 273.696 592.424C273.696 594.344 273.204 596.048 272.22 597.536C271.236 599.024 269.88 600.2 268.152 601.064C266.448 601.928 264.492 602.36 262.284 602.36ZM262.284 597.392C263.316 597.392 264.252 597.176 265.092 596.744C265.956 596.312 266.628 595.724 267.108 594.98C267.612 594.236 267.852 593.384 267.828 592.424C267.852 591.464 267.612 590.6 267.108 589.832C266.628 589.064 265.956 588.476 265.092 588.068C264.252 587.636 263.316 587.42 262.284 587.42C261.228 587.42 260.256 587.636 259.368 588.068C258.504 588.5 257.832 589.088 257.352 589.832C256.872 590.576 256.632 591.44 256.632 592.424C256.632 593.384 256.872 594.236 257.352 594.98C257.832 595.724 258.504 596.312 259.368 596.744C260.256 597.176 261.228 597.392 262.284 597.392ZM281.354 602V582.56C281.354 581.144 281.654 579.896 282.254 578.816C282.878 577.712 283.742 576.848 284.846 576.224C285.95 575.6 287.234 575.288 288.698 575.288C289.826 575.288 290.81 575.432 291.65 575.72C292.514 576.008 293.246 576.368 293.846 576.8L292.19 581.048C291.854 580.856 291.458 580.688 291.002 580.544C290.57 580.376 290.138 580.292 289.706 580.292C289.082 580.292 288.566 580.4 288.158 580.616C287.774 580.808 287.486 581.096 287.294 581.48C287.102 581.864 287.006 582.32 287.006 582.848V602H284.198C283.598 602 283.058 602 282.578 602C282.098 602 281.69 602 281.354 602ZM278.006 588.32V583.568H292.514V588.32H278.006ZM315.506 602V577.628H321.266V602H315.506ZM311.258 587.924V582.884H326.126V587.924H311.258ZM333.216 602V575.36H338.868V587.348L337.5 587.816C337.74 586.856 338.244 585.98 339.012 585.188C339.804 584.372 340.764 583.724 341.892 583.244C343.02 582.74 344.22 582.488 345.492 582.488C347.124 582.488 348.492 582.824 349.596 583.496C350.724 584.144 351.564 585.068 352.116 586.268C352.692 587.444 352.98 588.824 352.98 590.408V602H347.184V591.308C347.184 590.444 347.028 589.724 346.716 589.148C346.428 588.548 345.984 588.092 345.384 587.78C344.808 587.468 344.136 587.324 343.368 587.348C342.744 587.348 342.156 587.456 341.604 587.672C341.076 587.864 340.608 588.152 340.2 588.536C339.816 588.896 339.516 589.316 339.3 589.796C339.084 590.276 338.976 590.792 338.976 591.344V602H336.132C335.34 602 334.704 602 334.224 602C333.744 602 333.408 602 333.216 602ZM371.23 602.36C368.902 602.36 366.862 601.94 365.11 601.1C363.382 600.236 362.038 599.072 361.078 597.608C360.118 596.12 359.638 594.428 359.638 592.532C359.638 591.02 359.914 589.652 360.466 588.428C361.018 587.204 361.786 586.148 362.77 585.26C363.754 584.372 364.906 583.688 366.226 583.208C367.546 582.728 368.974 582.488 370.51 582.488C371.998 582.488 373.366 582.728 374.614 583.208C375.862 583.664 376.942 584.324 377.854 585.188C378.79 586.052 379.51 587.072 380.014 588.248C380.518 589.424 380.746 590.72 380.698 592.136L380.662 593.756H363.418L362.59 590.408H375.982L375.37 591.128V590.408C375.298 589.808 375.034 589.268 374.578 588.788C374.146 588.308 373.582 587.936 372.886 587.672C372.19 587.384 371.422 587.24 370.582 587.24C369.502 587.24 368.542 587.42 367.702 587.78C366.862 588.116 366.202 588.644 365.722 589.364C365.266 590.084 365.038 590.996 365.038 592.1C365.038 593.156 365.314 594.08 365.866 594.872C366.442 595.664 367.246 596.288 368.278 596.744C369.334 597.2 370.57 597.428 371.986 597.428C373.21 597.428 374.23 597.284 375.046 596.996C375.886 596.684 376.642 596.3 377.314 595.844L379.906 599.588C379.114 600.188 378.238 600.704 377.278 601.136C376.342 601.544 375.358 601.844 374.326 602.036C373.318 602.252 372.286 602.36 371.23 602.36ZM387.705 602V582.884H393.177L393.357 586.916L392.312 586.664C392.625 586.088 393.033 585.548 393.537 585.044C394.065 584.54 394.653 584.108 395.301 583.748C395.973 583.364 396.693 583.064 397.461 582.848C398.229 582.632 399.057 582.524 399.945 582.524C400.977 582.524 401.924 582.68 402.789 582.992C403.677 583.304 404.433 583.82 405.057 584.54C405.681 585.236 406.161 586.172 406.497 587.348L405.309 587.204L405.597 586.628C405.981 586.076 406.437 585.56 406.965 585.08C407.517 584.576 408.141 584.144 408.837 583.784C409.533 583.4 410.277 583.1 411.069 582.884C411.861 582.644 412.677 582.524 413.517 582.524C415.269 582.524 416.697 582.86 417.801 583.532C418.905 584.18 419.721 585.104 420.249 586.304C420.777 587.504 421.041 588.896 421.041 590.48V602H415.245V591.092C415.245 590.324 415.125 589.664 414.885 589.112C414.645 588.56 414.273 588.14 413.769 587.852C413.289 587.54 412.665 587.384 411.897 587.384C411.225 587.384 410.601 587.492 410.025 587.708C409.473 587.924 408.981 588.224 408.549 588.608C408.141 588.968 407.817 589.4 407.577 589.904C407.361 590.384 407.253 590.912 407.253 591.488V602H401.457V591.056C401.457 590.312 401.325 589.664 401.061 589.112C400.797 588.56 400.389 588.14 399.837 587.852C399.285 587.54 398.601 587.384 397.785 587.384C397.137 587.384 396.549 587.504 396.021 587.744C395.517 587.96 395.073 588.26 394.689 588.644C394.305 589.004 394.005 589.4 393.789 589.832C393.597 590.264 393.501 590.708 393.501 591.164V602H387.705ZM431.231 592.82C430.967 591.428 430.703 589.964 430.439 588.428C430.199 586.892 429.995 585.344 429.827 583.784C429.659 582.2 429.575 580.676 429.575 579.212V576.404H436.523V579.212C436.523 580.676 436.439 582.2 436.271 583.784C436.127 585.344 435.923 586.892 435.659 588.428C435.419 589.964 435.143 591.428 434.831 592.82H431.231ZM433.067 602.396C431.891 602.396 430.991 602.12 430.367 601.568C429.743 600.992 429.431 600.2 429.431 599.192C429.431 598.28 429.743 597.512 430.367 596.888C431.015 596.264 431.915 595.952 433.067 595.952C434.243 595.952 435.131 596.24 435.731 596.816C436.355 597.392 436.667 598.184 436.667 599.192C436.667 600.08 436.343 600.836 435.695 601.46C435.071 602.084 434.195 602.396 433.067 602.396Z" fill="white"/>
</g>
<defs>
<filter id="filter0_d_135_109" x="232" y="624" width="108" height="176" filterUnits="userSpaceOnUse" color-interpolation-filters="sRGB">
<feFlood flood-opacity="0" result="BackgroundImageFix"/>
<feColorMatrix in="SourceAlpha" type="matrix" values="0 0 0 0 0 0 0 0 0 0 0 0 0 0 0 0 0 0 127 0" result="hardAlpha"/>
<feOffset dy="4"/>
<feGaussianBlur stdDeviation="2"/>
<feComposite in2="hardAlpha" operator="out"/>
<feColorMatrix type="matrix" values="0 0 0 0 0 0 0 0 0 0 0 0 0 0 0 0 0 0 0.25 0"/>
<feBlend mode="normal" in2="BackgroundImageFix" result="effect1_dropShadow_135_109"/>
<feBlend mode="normal" in="SourceGraphic" in2="effect1_dropShadow_135_109" result="shape"/>
</filter>
<filter id="filter1_d_135_109" x="466" y="624" width="109" height="176" filterUnits="userSpaceOnUse" color-interpolation-filters="sRGB">
<feFlood flood-opacity="0" result="BackgroundImageFix"/>
<feColorMatrix in="SourceAlpha" type="matrix" values="0 0 0 0 0 0 0 0 0 0 0 0 0 0 0 0 0 0 127 0" result="hardAlpha"/>
<feOffset dy="4"/>
<feGaussianBlur stdDeviation="2"/>
<feComposite in2="hardAlpha" operator="out"/>
<feColorMatrix type="matrix" values="0 0 0 0 0 0 0 0 0 0 0 0 0 0 0 0 0 0 0.25 0"/>
<feBlend mode="normal" in2="BackgroundImageFix" result="effect1_dropShadow_135_109"/>
<feBlend mode="normal" in="SourceGraphic" in2="effect1_dropShadow_135_109" result="shape"/>
</filter>
<filter id="filter2_d_135_109" x="349" y="624" width="109" height="176" filterUnits="userSpaceOnUse" color-interpolation-filters="sRGB">
<feFlood flood-opacity="0" result="BackgroundImageFix"/>
<feColorMatrix in="SourceAlpha" type="matrix" values="0 0 0 0 0 0 0 0 0 0 0 0 0 0 0 0 0 0 127 0" result="hardAlpha"/>
<feOffset dy="4"/>
<feGaussianBlur stdDeviation="2"/>
<feComposite in2="hardAlpha" operator="out"/>
<feColorMatrix type="matrix" values="0 0 0 0 0 0 0 0 0 0 0 0 0 0 0 0 0 0 0.25 0"/>
<feBlend mode="normal" in2="BackgroundImageFix" result="effect1_dropShadow_135_109"/>
<feBlend mode="normal" in="SourceGraphic" in2="effect1_dropShadow_135_109" result="shape"/>
</filter>
<filter id="filter3_d_135_109" x="584" y="624" width="108" height="176" filterUnits="userSpaceOnUse" color-interpolation-filters="sRGB">
<feFlood flood-opacity="0" result="BackgroundImageFix"/>
<feColorMatrix in="SourceAlpha" type="matrix" values="0 0 0 0 0 0 0 0 0 0 0 0 0 0 0 0 0 0 127 0" result="hardAlpha"/>
<feOffset dy="4"/>
<feGaussianBlur stdDeviation="2"/>
<feComposite in2="hardAlpha" operator="out"/>
<feColorMatrix type="matrix" values="0 0 0 0 0 0 0 0 0 0 0 0 0 0 0 0 0 0 0.25 0"/>
<feBlend mode="normal" in2="BackgroundImageFix" result="effect1_dropShadow_135_109"/>
<feBlend mode="normal" in="SourceGraphic" in2="effect1_dropShadow_135_109" result="shape"/>
</filter>
<filter id="filter4_d_135_109" x="126" y="647" width="126" height="206" filterUnits="userSpaceOnUse" color-interpolation-filters="sRGB">
<feFlood flood-opacity="0" result="BackgroundImageFix"/>
<feColorMatrix in="SourceAlpha" type="matrix" values="0 0 0 0 0 0 0 0 0 0 0 0 0 0 0 0 0 0 127 0" result="hardAlpha"/>
<feOffset dy="4"/>
<feGaussianBlur stdDeviation="2"/>
<feComposite in2="hardAlpha" operator="out"/>
<feColorMatrix type="matrix" values="0 0 0 0 0 0 0 0 0 0 0 0 0 0 0 0 0 0 0.25 0"/>
<feBlend mode="normal" in2="BackgroundImageFix" result="effect1_dropShadow_135_109"/>
<feBlend mode="normal" in="SourceGraphic" in2="effect1_dropShadow_135_109" result="shape"/>
</filter>
<filter id="filter5_d_135_109" x="402" y="647" width="126" height="206" filterUnits="userSpaceOnUse" color-interpolation-filters="sRGB">
<feFlood flood-opacity="0" result="BackgroundImageFix"/>
<feColorMatrix in="SourceAlpha" type="matrix" values="0 0 0 0 0 0 0 0 0 0 0 0 0 0 0 0 0 0 127 0" result="hardAlpha"/>
<feOffset dy="4"/>
<feGaussianBlur stdDeviation="2"/>
<feComposite in2="hardAlpha" operator="out"/>
<feColorMatrix type="matrix" values="0 0 0 0 0 0 0 0 0 0 0 0 0 0 0 0 0 0 0.25 0"/>
<feBlend mode="normal" in2="BackgroundImageFix" result="effect1_dropShadow_135_109"/>
<feBlend mode="normal" in="SourceGraphic" in2="effect1_dropShadow_135_109" result="shape"/>
</filter>
<filter id="filter6_d_135_109" x="264" y="647" width="126" height="206" filterUnits="userSpaceOnUse" color-interpolation-filters="sRGB">
<feFlood flood-opacity="0" result="BackgroundImageFix"/>
<feColorMatrix in="SourceAlpha" type="matrix" values="0 0 0 0 0 0 0 0 0 0 0 0 0 0 0 0 0 0 127 0" result="hardAlpha"/>
<feOffset dy="4"/>
<feGaussianBlur stdDeviation="2"/>
<feComposite in2="hardAlpha" operator="out"/>
<feColorMatrix type="matrix" values="0 0 0 0 0 0 0 0 0 0 0 0 0 0 0 0 0 0 0.25 0"/>
<feBlend mode="normal" in2="BackgroundImageFix" result="effect1_dropShadow_135_109"/>
<feBlend mode="normal" in="SourceGraphic" in2="effect1_dropShadow_135_109" result="shape"/>
</filter>
<filter id="filter7_d_135_109" x="322" y="693" width="126" height="206" filterUnits="userSpaceOnUse" color-interpolation-filters="sRGB">
<feFlood flood-opacity="0" result="BackgroundImageFix"/>
<feColorMatrix in="SourceAlpha" type="matrix" values="0 0 0 0 0 0 0 0 0 0 0 0 0 0 0 0 0 0 127 0" result="hardAlpha"/>
<feOffset dy="4"/>
<feGaussianBlur stdDeviation="2"/>
<feComposite in2="hardAlpha" operator="out"/>
<feColorMatrix type="matrix" values="0 0 0 0 0 0 0 0 0 0 0 0 0 0 0 0 0 0 0.25 0"/>
<feBlend mode="normal" in2="BackgroundImageFix" result="effect1_dropShadow_135_109"/>
<feBlend mode="normal" in="SourceGraphic" in2="effect1_dropShadow_135_109" result="shape"/>
</filter>
<filter id="filter8_d_135_109" x="540" y="647" width="126" height="206" filterUnits="userSpaceOnUse" color-interpolation-filters="sRGB">
<feFlood flood-opacity="0" result="BackgroundImageFix"/>
<feColorMatrix in="SourceAlpha" type="matrix" values="0 0 0 0 0 0 0 0 0 0 0 0 0 0 0 0 0 0 127 0" result="hardAlpha"/>
<feOffset dy="4"/>
<feGaussianBlur stdDeviation="2"/>
<feComposite in2="hardAlpha" operator="out"/>
<feColorMatrix type="matrix" values="0 0 0 0 0 0 0 0 0 0 0 0 0 0 0 0 0 0 0.25 0"/>
<feBlend mode="normal" in2="BackgroundImageFix" result="effect1_dropShadow_135_109"/>
<feBlend mode="normal" in="SourceGraphic" in2="effect1_dropShadow_135_109" result="shape"/>
</filter>
<filter id="filter9_d_135_109" x="184" y="693" width="126" height="206" filterUnits="userSpaceOnUse" color-interpolation-filters="sRGB">
<feFlood flood-opacity="0" result="BackgroundImageFix"/>
<feColorMatrix in="SourceAlpha" type="matrix" values="0 0 0 0 0 0 0 0 0 0 0 0 0 0 0 0 0 0 127 0" result="hardAlpha"/>
<feOffset dy="4"/>
<feGaussianBlur stdDeviation="2"/>
<feComposite in2="hardAlpha" operator="out"/>
<feColorMatrix type="matrix" values="0 0 0 0 0 0 0 0 0 0 0 0 0 0 0 0 0 0 0.25 0"/>
<feBlend mode="normal" in2="BackgroundImageFix" result="effect1_dropShadow_135_109"/>
<feBlend mode="normal" in="SourceGraphic" in2="effect1_dropShadow_135_109" result="shape"/>
</filter>
<filter id="filter10_d_135_109" x="460" y="693" width="126" height="206" filterUnits="userSpaceOnUse" color-interpolation-filters="sRGB">
<feFlood flood-opacity="0" result="BackgroundImageFix"/>
<feColorMatrix in="SourceAlpha" type="matrix" values="0 0 0 0 0 0 0 0 0 0 0 0 0 0 0 0 0 0 127 0" result="hardAlpha"/>
<feOffset dy="4"/>
<feGaussianBlur stdDeviation="2"/>
<feComposite in2="hardAlpha" operator="out"/>
<feColorMatrix type="matrix" values="0 0 0 0 0 0 0 0 0 0 0 0 0 0 0 0 0 0 0.25 0"/>
<feBlend mode="normal" in2="BackgroundImageFix" result="effect1_dropShadow_135_109"/>
<feBlend mode="normal" in="SourceGraphic" in2="effect1_dropShadow_135_109" result="shape"/>
</filter>
<filter id="filter11_d_135_109" x="598" y="693" width="126" height="206" filterUnits="userSpaceOnUse" color-interpolation-filters="sRGB">
<feFlood flood-opacity="0" result="BackgroundImageFix"/>
<feColorMatrix in="SourceAlpha" type="matrix" values="0 0 0 0 0 0 0 0 0 0 0 0 0 0 0 0 0 0 127 0" result="hardAlpha"/>
<feOffset dy="4"/>
<feGaussianBlur stdDeviation="2"/>
<feComposite in2="hardAlpha" operator="out"/>
<feColorMatrix type="matrix" values="0 0 0 0 0 0 0 0 0 0 0 0 0 0 0 0 0 0 0.25 0"/>
<feBlend mode="normal" in2="BackgroundImageFix" result="effect1_dropShadow_135_109"/>
<feBlend mode="normal" in="SourceGraphic" in2="effect1_dropShadow_135_109" result="shape"/>
</filter>
<clipPath id="clip0_135_109">
<rect width="1440" height="1024" fill="white"/>
</clipPath>
</defs>
</svg>
