<svg width="1440" height="1024" viewBox="0 0 1440 1024" fill="none" xmlns="http://www.w3.org/2000/svg">
<g id="intro3">
<rect width="1440" height="1024" fill="#333148"/>
<path id="part 1" d="M357.096 322.12V250.024H371.688L372.264 261.448L369.384 260.584C369.832 258.536 371.048 256.648 373.032 254.92C375.016 253.192 377.512 251.784 380.52 250.696C383.592 249.608 386.856 249.064 390.312 249.064C395.304 249.064 399.688 250.216 403.464 252.52C407.24 254.76 410.184 257.864 412.296 261.832C414.472 265.736 415.56 270.28 415.56 275.464C415.56 280.584 414.472 285.128 412.296 289.096C410.184 293.064 407.208 296.2 403.368 298.504C399.528 300.744 395.112 301.864 390.12 301.864C386.664 301.864 383.432 301.288 380.424 300.136C377.416 298.984 374.888 297.48 372.84 295.624C370.856 293.768 369.576 291.816 369 289.768L372.552 288.424V322.12H357.096ZM386.376 288.904C389.256 288.904 391.752 288.36 393.864 287.272C395.976 286.12 397.608 284.552 398.76 282.568C399.976 280.584 400.584 278.216 400.584 275.464C400.584 272.776 399.976 270.44 398.76 268.456C397.608 266.408 395.976 264.84 393.864 263.752C391.816 262.6 389.32 262.024 386.376 262.024C383.496 262.024 380.968 262.568 378.792 263.656C376.68 264.744 375.016 266.312 373.8 268.36C372.648 270.408 372.072 272.776 372.072 275.464C372.072 278.216 372.648 280.584 373.8 282.568C375.016 284.552 376.68 286.12 378.792 287.272C380.968 288.36 383.496 288.904 386.376 288.904ZM454.211 301.864C449.155 301.864 444.739 300.744 440.963 298.504C437.187 296.264 434.211 293.16 432.035 289.192C429.923 285.16 428.867 280.584 428.867 275.464C428.867 270.28 429.955 265.704 432.131 261.736C434.307 257.768 437.315 254.664 441.155 252.424C445.059 250.12 449.539 248.968 454.595 248.968C457.475 248.968 460.131 249.352 462.563 250.12C464.995 250.824 467.107 251.816 468.899 253.096C470.755 254.376 472.259 255.784 473.411 257.32C474.627 258.856 475.427 260.456 475.811 262.12H472.451V250.024H487.619V301H472.163V287.944L475.427 288.424C475.043 290.088 474.243 291.72 473.027 293.32C471.811 294.92 470.243 296.36 468.323 297.64C466.403 298.92 464.227 299.944 461.795 300.712C459.427 301.48 456.899 301.864 454.211 301.864ZM458.339 288.904C461.219 288.904 463.715 288.36 465.827 287.272C468.003 286.184 469.667 284.648 470.819 282.664C472.035 280.616 472.643 278.216 472.643 275.464C472.643 272.776 472.035 270.44 470.819 268.456C469.667 266.408 468.003 264.808 465.827 263.656C463.715 262.504 461.219 261.928 458.339 261.928C455.459 261.928 452.963 262.504 450.851 263.656C448.739 264.808 447.075 266.408 445.859 268.456C444.707 270.44 444.131 272.776 444.131 275.464C444.131 278.216 444.707 280.616 445.859 282.664C447.075 284.648 448.739 286.184 450.851 287.272C452.963 288.36 455.459 288.904 458.339 288.904ZM511.315 301V250.024H525.907L526.579 267.592L522.931 265.768C523.763 262.632 525.203 259.816 527.251 257.32C529.363 254.76 531.763 252.744 534.451 251.272C537.203 249.736 540.115 248.968 543.187 248.968C544.851 248.968 546.419 249.128 547.891 249.448C549.427 249.768 550.739 250.184 551.827 250.696L547.603 267.496C546.643 266.792 545.331 266.248 543.667 265.864C542.067 265.48 540.435 265.288 538.771 265.288C536.915 265.288 535.219 265.608 533.683 266.248C532.211 266.824 530.963 267.656 529.939 268.744C528.915 269.768 528.115 270.952 527.539 272.296C527.027 273.64 526.771 275.08 526.771 276.616V301H511.315ZM575.932 301V236.008H591.292V301H575.932ZM564.604 263.464V250.024H604.252V263.464H564.604ZM673.496 296.296V241.768L677.144 248.872L661.496 256.552L658.328 242.152L677.24 232.84H689.528V296.296H673.496ZM659.672 301V286.6H702.488V301H659.672Z" fill="white"/>
<path id="And these are the global warming deniers!" d="M342.624 355L349.944 338.2H353.568L360.84 355H356.664L352.776 345.904C352.632 345.552 352.488 345.2 352.344 344.848C352.216 344.496 352.088 344.136 351.96 343.768C351.832 343.4 351.712 343.04 351.6 342.688C351.488 342.336 351.384 342 351.288 341.68L352.104 341.656C352.008 342.04 351.896 342.408 351.768 342.76C351.656 343.112 351.536 343.464 351.408 343.816C351.28 344.152 351.144 344.496 351 344.848C350.856 345.2 350.712 345.56 350.568 345.928L346.68 355H342.624ZM346.056 351.88L347.376 348.808H356.016L357 351.88H346.056ZM364.477 355V342.256H368.125L368.245 345.232L367.333 345.496C367.541 344.872 367.893 344.296 368.389 343.768C368.901 343.24 369.517 342.816 370.237 342.496C370.973 342.16 371.765 341.992 372.613 341.992C373.701 341.992 374.621 342.208 375.373 342.64C376.125 343.072 376.693 343.688 377.077 344.488C377.461 345.272 377.653 346.208 377.653 347.296V355H373.789V347.848C373.789 347.288 373.685 346.816 373.477 346.432C373.285 346.048 372.989 345.752 372.589 345.544C372.205 345.336 371.757 345.232 371.245 345.232C370.797 345.232 370.389 345.312 370.021 345.472C369.669 345.616 369.365 345.816 369.109 346.072C368.853 346.312 368.653 346.584 368.509 346.888C368.381 347.192 368.317 347.504 368.317 347.824V355H366.421C365.893 355 365.469 355 365.149 355C364.829 355 364.605 355 364.477 355ZM388.38 355.264C387.132 355.264 386.036 354.984 385.092 354.424C384.148 353.848 383.412 353.064 382.884 352.072C382.356 351.064 382.092 349.92 382.092 348.64C382.092 347.36 382.364 346.224 382.908 345.232C383.452 344.224 384.204 343.432 385.164 342.856C386.14 342.28 387.26 341.992 388.524 341.992C389.228 341.992 389.884 342.088 390.492 342.28C391.1 342.456 391.644 342.696 392.124 343C392.62 343.304 393.012 343.656 393.3 344.056C393.604 344.44 393.78 344.832 393.828 345.232L392.916 345.448V337.24H396.78V355H393.204L392.988 351.904L393.756 352.096C393.708 352.496 393.532 352.888 393.228 353.272C392.924 353.64 392.524 353.976 392.028 354.28C391.548 354.568 390.996 354.808 390.372 355C389.748 355.176 389.084 355.264 388.38 355.264ZM389.46 352.024C390.18 352.024 390.804 351.88 391.332 351.592C391.876 351.304 392.292 350.912 392.58 350.416C392.868 349.904 393.012 349.312 393.012 348.64C393.012 347.952 392.868 347.36 392.58 346.864C392.292 346.352 391.876 345.96 391.332 345.688C390.804 345.4 390.18 345.256 389.46 345.256C388.74 345.256 388.116 345.4 387.588 345.688C387.06 345.96 386.644 346.352 386.34 346.864C386.052 347.36 385.908 347.952 385.908 348.64C385.908 349.312 386.052 349.904 386.34 350.416C386.644 350.912 387.06 351.304 387.588 351.592C388.116 351.88 388.74 352.024 389.46 352.024ZM413.303 355V338.752H417.143V355H413.303ZM410.471 345.616V342.256H420.383V345.616H410.471ZM425.11 355V337.24H428.878V345.232L427.966 345.544C428.126 344.904 428.462 344.32 428.974 343.792C429.502 343.248 430.142 342.816 430.894 342.496C431.646 342.16 432.446 341.992 433.294 341.992C434.382 341.992 435.294 342.216 436.03 342.664C436.782 343.096 437.342 343.712 437.71 344.512C438.094 345.296 438.286 346.216 438.286 347.272V355H434.422V347.872C434.422 347.296 434.318 346.816 434.11 346.432C433.918 346.032 433.622 345.728 433.222 345.52C432.838 345.312 432.39 345.216 431.878 345.232C431.462 345.232 431.07 345.304 430.702 345.448C430.35 345.576 430.038 345.768 429.766 346.024C429.51 346.264 429.31 346.544 429.166 346.864C429.022 347.184 428.95 347.528 428.95 347.896V355H427.054C426.526 355 426.102 355 425.782 355C425.462 355 425.238 355 425.11 355ZM450.453 355.24C448.901 355.24 447.541 354.96 446.373 354.4C445.221 353.824 444.325 353.048 443.685 352.072C443.045 351.08 442.725 349.952 442.725 348.688C442.725 347.68 442.909 346.768 443.277 345.952C443.645 345.136 444.157 344.432 444.813 343.84C445.469 343.248 446.237 342.792 447.117 342.472C447.997 342.152 448.949 341.992 449.973 341.992C450.965 341.992 451.877 342.152 452.709 342.472C453.541 342.776 454.261 343.216 454.869 343.792C455.493 344.368 455.973 345.048 456.309 345.832C456.645 346.616 456.797 347.48 456.765 348.424L456.741 349.504H445.245L444.693 347.272H453.621L453.213 347.752V347.272C453.165 346.872 452.989 346.512 452.685 346.192C452.397 345.872 452.021 345.624 451.557 345.448C451.093 345.256 450.581 345.16 450.021 345.16C449.301 345.16 448.661 345.28 448.101 345.52C447.541 345.744 447.101 346.096 446.781 346.576C446.477 347.056 446.325 347.664 446.325 348.4C446.325 349.104 446.509 349.72 446.877 350.248C447.261 350.776 447.797 351.192 448.485 351.496C449.189 351.8 450.013 351.952 450.957 351.952C451.773 351.952 452.453 351.856 452.997 351.664C453.557 351.456 454.061 351.2 454.509 350.896L456.237 353.392C455.709 353.792 455.125 354.136 454.485 354.424C453.861 354.696 453.205 354.896 452.517 355.024C451.845 355.168 451.157 355.24 450.453 355.24ZM466.38 355.24C464.972 355.24 463.708 355.04 462.588 354.64C461.484 354.24 460.596 353.672 459.924 352.936L462.252 350.872C462.796 351.384 463.444 351.776 464.196 352.048C464.948 352.32 465.74 352.456 466.572 352.456C466.828 352.456 467.076 352.432 467.316 352.384C467.572 352.336 467.788 352.272 467.964 352.192C468.156 352.096 468.308 351.984 468.42 351.856C468.532 351.728 468.588 351.568 468.588 351.376C468.588 351.072 468.396 350.832 468.012 350.656C467.74 350.56 467.396 350.464 466.98 350.368C466.564 350.272 466.092 350.168 465.564 350.056C464.684 349.896 463.908 349.704 463.236 349.48C462.58 349.24 462.028 348.944 461.58 348.592C461.196 348.256 460.9 347.872 460.692 347.44C460.484 347.008 460.38 346.504 460.38 345.928C460.38 345.336 460.532 344.8 460.836 344.32C461.14 343.824 461.564 343.408 462.108 343.072C462.652 342.72 463.276 342.456 463.98 342.28C464.684 342.088 465.42 341.992 466.188 341.992C466.956 341.992 467.708 342.072 468.444 342.232C469.18 342.376 469.876 342.592 470.532 342.88C471.188 343.152 471.764 343.504 472.26 343.936L470.292 346.24C469.94 345.968 469.532 345.72 469.068 345.496C468.604 345.272 468.108 345.096 467.58 344.968C467.068 344.824 466.564 344.752 466.068 344.752C465.796 344.752 465.532 344.768 465.276 344.8C465.036 344.832 464.828 344.896 464.652 344.992C464.476 345.072 464.332 345.176 464.22 345.304C464.124 345.416 464.076 345.56 464.076 345.736C464.076 345.88 464.116 346.016 464.196 346.144C464.276 346.272 464.396 346.376 464.556 346.456C464.78 346.6 465.108 346.728 465.54 346.84C465.988 346.952 466.548 347.072 467.22 347.2C468.196 347.408 469.028 347.648 469.716 347.92C470.404 348.176 470.956 348.488 471.372 348.856C471.708 349.112 471.956 349.432 472.116 349.816C472.276 350.184 472.356 350.592 472.356 351.04C472.356 351.856 472.092 352.584 471.564 353.224C471.052 353.848 470.348 354.344 469.452 354.712C468.572 355.064 467.548 355.24 466.38 355.24ZM483.031 355.24C481.479 355.24 480.119 354.96 478.951 354.4C477.799 353.824 476.903 353.048 476.263 352.072C475.623 351.08 475.303 349.952 475.303 348.688C475.303 347.68 475.487 346.768 475.855 345.952C476.223 345.136 476.735 344.432 477.391 343.84C478.047 343.248 478.815 342.792 479.695 342.472C480.575 342.152 481.527 341.992 482.551 341.992C483.543 341.992 484.455 342.152 485.287 342.472C486.119 342.776 486.839 343.216 487.447 343.792C488.071 344.368 488.551 345.048 488.887 345.832C489.223 346.616 489.375 347.48 489.343 348.424L489.319 349.504H477.823L477.271 347.272H486.199L485.791 347.752V347.272C485.743 346.872 485.567 346.512 485.263 346.192C484.975 345.872 484.599 345.624 484.135 345.448C483.671 345.256 483.159 345.16 482.599 345.16C481.879 345.16 481.239 345.28 480.679 345.52C480.119 345.744 479.679 346.096 479.359 346.576C479.055 347.056 478.903 347.664 478.903 348.4C478.903 349.104 479.087 349.72 479.455 350.248C479.839 350.776 480.375 351.192 481.063 351.496C481.767 351.8 482.591 351.952 483.535 351.952C484.351 351.952 485.031 351.856 485.575 351.664C486.135 351.456 486.639 351.2 487.087 350.896L488.815 353.392C488.287 353.792 487.703 354.136 487.063 354.424C486.439 354.696 485.783 354.896 485.095 355.024C484.423 355.168 483.735 355.24 483.031 355.24ZM508.662 355.216C507.398 355.216 506.294 354.936 505.35 354.376C504.406 353.816 503.662 353.04 503.118 352.048C502.59 351.04 502.326 349.896 502.326 348.616C502.326 347.32 502.598 346.176 503.142 345.184C503.686 344.192 504.438 343.416 505.398 342.856C506.374 342.28 507.494 341.992 508.758 341.992C509.478 341.992 510.142 342.088 510.75 342.28C511.358 342.456 511.886 342.704 512.334 343.024C512.798 343.344 513.174 343.696 513.462 344.08C513.766 344.464 513.966 344.864 514.062 345.28H513.222V342.256H517.014V355H513.15V351.736L513.966 351.856C513.87 352.272 513.67 352.68 513.366 353.08C513.062 353.48 512.67 353.84 512.19 354.16C511.71 354.48 511.166 354.736 510.558 354.928C509.966 355.12 509.334 355.216 508.662 355.216ZM509.694 351.976C510.414 351.976 511.038 351.84 511.566 351.568C512.11 351.296 512.526 350.912 512.814 350.416C513.118 349.904 513.27 349.304 513.27 348.616C513.27 347.944 513.118 347.36 512.814 346.864C512.526 346.352 512.11 345.952 511.566 345.664C511.038 345.376 510.414 345.232 509.694 345.232C508.974 345.232 508.35 345.376 507.822 345.664C507.294 345.952 506.878 346.352 506.574 346.864C506.286 347.36 506.142 347.944 506.142 348.616C506.142 349.304 506.286 349.904 506.574 350.416C506.878 350.912 507.294 351.296 507.822 351.568C508.35 351.84 508.974 351.976 509.694 351.976ZM522.938 355V342.256H526.586L526.754 346.648L525.842 346.192C526.05 345.408 526.41 344.704 526.922 344.08C527.45 343.44 528.05 342.936 528.722 342.568C529.41 342.184 530.138 341.992 530.906 341.992C531.322 341.992 531.714 342.032 532.082 342.112C532.466 342.192 532.794 342.296 533.066 342.424L532.01 346.624C531.77 346.448 531.442 346.312 531.026 346.216C530.626 346.12 530.218 346.072 529.802 346.072C529.338 346.072 528.914 346.152 528.53 346.312C528.162 346.456 527.85 346.664 527.594 346.936C527.338 347.192 527.138 347.488 526.994 347.824C526.866 348.16 526.802 348.52 526.802 348.904V355H522.938ZM543.125 355.24C541.573 355.24 540.213 354.96 539.045 354.4C537.893 353.824 536.997 353.048 536.357 352.072C535.717 351.08 535.396 349.952 535.396 348.688C535.396 347.68 535.581 346.768 535.949 345.952C536.317 345.136 536.829 344.432 537.485 343.84C538.141 343.248 538.909 342.792 539.789 342.472C540.669 342.152 541.621 341.992 542.645 341.992C543.637 341.992 544.549 342.152 545.381 342.472C546.213 342.776 546.933 343.216 547.541 343.792C548.165 344.368 548.645 345.048 548.981 345.832C549.317 346.616 549.469 347.48 549.437 348.424L549.413 349.504H537.917L537.365 347.272H546.293L545.885 347.752V347.272C545.837 346.872 545.661 346.512 545.357 346.192C545.069 345.872 544.693 345.624 544.229 345.448C543.765 345.256 543.253 345.16 542.693 345.16C541.973 345.16 541.333 345.28 540.773 345.52C540.213 345.744 539.773 346.096 539.453 346.576C539.149 347.056 538.997 347.664 538.997 348.4C538.997 349.104 539.181 349.72 539.549 350.248C539.933 350.776 540.469 351.192 541.157 351.496C541.861 351.8 542.685 351.952 543.629 351.952C544.445 351.952 545.125 351.856 545.669 351.664C546.229 351.456 546.733 351.2 547.181 350.896L548.909 353.392C548.381 353.792 547.797 354.136 547.157 354.424C546.533 354.696 545.877 354.896 545.189 355.024C544.517 355.168 543.829 355.24 543.125 355.24ZM565.108 355V338.752H568.948V355H565.108ZM562.276 345.616V342.256H572.188V345.616H562.276ZM576.915 355V337.24H580.683V345.232L579.771 345.544C579.931 344.904 580.267 344.32 580.779 343.792C581.307 343.248 581.947 342.816 582.699 342.496C583.451 342.16 584.251 341.992 585.099 341.992C586.187 341.992 587.099 342.216 587.835 342.664C588.587 343.096 589.147 343.712 589.515 344.512C589.899 345.296 590.091 346.216 590.091 347.272V355H586.227V347.872C586.227 347.296 586.123 346.816 585.915 346.432C585.723 346.032 585.427 345.728 585.027 345.52C584.643 345.312 584.195 345.216 583.683 345.232C583.267 345.232 582.875 345.304 582.507 345.448C582.155 345.576 581.843 345.768 581.571 346.024C581.315 346.264 581.115 346.544 580.971 346.864C580.827 347.184 580.755 347.528 580.755 347.896V355H578.859C578.331 355 577.907 355 577.587 355C577.267 355 577.043 355 576.915 355ZM602.257 355.24C600.705 355.24 599.345 354.96 598.177 354.4C597.025 353.824 596.129 353.048 595.489 352.072C594.849 351.08 594.529 349.952 594.529 348.688C594.529 347.68 594.713 346.768 595.081 345.952C595.449 345.136 595.961 344.432 596.617 343.84C597.273 343.248 598.041 342.792 598.921 342.472C599.801 342.152 600.753 341.992 601.777 341.992C602.769 341.992 603.681 342.152 604.513 342.472C605.345 342.776 606.065 343.216 606.673 343.792C607.297 344.368 607.777 345.048 608.113 345.832C608.449 346.616 608.601 347.48 608.569 348.424L608.545 349.504H597.049L596.497 347.272H605.425L605.017 347.752V347.272C604.969 346.872 604.793 346.512 604.489 346.192C604.201 345.872 603.825 345.624 603.361 345.448C602.897 345.256 602.385 345.16 601.825 345.16C601.105 345.16 600.465 345.28 599.905 345.52C599.345 345.744 598.905 346.096 598.585 346.576C598.281 347.056 598.129 347.664 598.129 348.4C598.129 349.104 598.313 349.72 598.681 350.248C599.065 350.776 599.601 351.192 600.289 351.496C600.993 351.8 601.817 351.952 602.761 351.952C603.577 351.952 604.257 351.856 604.801 351.664C605.361 351.456 605.865 351.2 606.313 350.896L608.041 353.392C607.513 353.792 606.929 354.136 606.289 354.424C605.665 354.696 605.009 354.896 604.321 355.024C603.649 355.168 602.961 355.24 602.257 355.24ZM629.401 360.52C628.137 360.52 626.961 360.36 625.873 360.04C624.801 359.736 623.921 359.352 623.233 358.888L624.553 356.152C624.905 356.344 625.297 356.528 625.729 356.704C626.177 356.88 626.665 357.024 627.193 357.136C627.721 357.264 628.297 357.328 628.921 357.328C629.737 357.328 630.425 357.192 630.985 356.92C631.561 356.648 631.993 356.232 632.281 355.672C632.585 355.128 632.737 354.456 632.737 353.656V351.904L633.481 352.024C633.353 352.536 633.033 353.008 632.521 353.44C632.009 353.872 631.369 354.224 630.601 354.496C629.833 354.768 629.017 354.904 628.153 354.904C626.889 354.904 625.777 354.64 624.817 354.112C623.857 353.568 623.097 352.824 622.537 351.88C621.993 350.92 621.721 349.816 621.721 348.568C621.721 347.288 622.001 346.16 622.561 345.184C623.121 344.192 623.889 343.416 624.865 342.856C625.841 342.28 626.969 341.992 628.249 341.992C628.681 341.992 629.129 342.048 629.593 342.16C630.073 342.256 630.537 342.392 630.985 342.568C631.449 342.728 631.865 342.936 632.233 343.192C632.617 343.432 632.929 343.704 633.169 344.008C633.425 344.296 633.569 344.608 633.601 344.944L632.809 345.136L632.977 342.256H636.601V353.584C636.601 354.72 636.417 355.712 636.049 356.56C635.697 357.424 635.201 358.152 634.561 358.744C633.921 359.336 633.153 359.776 632.257 360.064C631.377 360.368 630.425 360.52 629.401 360.52ZM629.257 351.928C629.977 351.928 630.609 351.792 631.153 351.52C631.697 351.232 632.113 350.84 632.401 350.344C632.705 349.848 632.857 349.264 632.857 348.592C632.857 347.92 632.705 347.336 632.401 346.84C632.113 346.328 631.697 345.936 631.153 345.664C630.609 345.376 629.977 345.232 629.257 345.232C628.505 345.232 627.849 345.376 627.289 345.664C626.729 345.936 626.297 346.328 625.993 346.84C625.689 347.336 625.537 347.92 625.537 348.592C625.537 349.264 625.689 349.848 625.993 350.344C626.297 350.84 626.729 351.232 627.289 351.52C627.849 351.792 628.505 351.928 629.257 351.928ZM642.469 355V337.24H646.309V355H642.469ZM658.533 355.24C657.045 355.24 655.725 354.952 654.573 354.376C653.421 353.8 652.517 353.016 651.861 352.024C651.205 351.032 650.877 349.896 650.877 348.616C650.877 347.336 651.205 346.2 651.861 345.208C652.517 344.216 653.421 343.432 654.573 342.856C655.725 342.28 657.045 341.992 658.533 341.992C660.005 341.992 661.309 342.28 662.445 342.856C663.597 343.432 664.501 344.216 665.157 345.208C665.813 346.2 666.141 347.336 666.141 348.616C666.141 349.896 665.813 351.032 665.157 352.024C664.501 353.016 663.597 353.8 662.445 354.376C661.309 354.952 660.005 355.24 658.533 355.24ZM658.533 351.928C659.221 351.928 659.845 351.784 660.405 351.496C660.981 351.208 661.429 350.816 661.749 350.32C662.085 349.824 662.245 349.256 662.229 348.616C662.245 347.976 662.085 347.4 661.749 346.888C661.429 346.376 660.981 345.984 660.405 345.712C659.845 345.424 659.221 345.28 658.533 345.28C657.829 345.28 657.181 345.424 656.589 345.712C656.013 346 655.565 346.392 655.245 346.888C654.925 347.384 654.765 347.96 654.765 348.616C654.765 349.256 654.925 349.824 655.245 350.32C655.565 350.816 656.013 351.208 656.589 351.496C657.181 351.784 657.829 351.928 658.533 351.928ZM679.035 355.264C678.347 355.264 677.699 355.176 677.091 355C676.483 354.824 675.939 354.592 675.459 354.304C674.979 354.016 674.579 353.688 674.259 353.32C673.955 352.936 673.755 352.568 673.659 352.216L674.691 352.024L674.475 354.976H670.899V337.24H674.763V345.304L673.779 345.112C673.891 344.712 674.099 344.328 674.403 343.96C674.707 343.592 675.091 343.264 675.555 342.976C676.035 342.672 676.571 342.432 677.163 342.256C677.755 342.08 678.379 341.992 679.035 341.992C680.251 341.992 681.339 342.28 682.299 342.856C683.259 343.416 684.019 344.2 684.579 345.208C685.139 346.2 685.419 347.336 685.419 348.616C685.419 349.912 685.139 351.064 684.579 352.072C684.035 353.064 683.283 353.848 682.323 354.424C681.363 354.984 680.267 355.264 679.035 355.264ZM678.123 352C678.843 352 679.459 351.856 679.971 351.568C680.499 351.28 680.907 350.888 681.195 350.392C681.499 349.88 681.651 349.288 681.651 348.616C681.651 347.944 681.507 347.352 681.219 346.84C680.931 346.328 680.515 345.936 679.971 345.664C679.443 345.392 678.827 345.256 678.123 345.256C677.387 345.256 676.755 345.392 676.227 345.664C675.699 345.936 675.283 346.328 674.979 346.84C674.691 347.352 674.547 347.944 674.547 348.616C674.547 349.288 674.691 349.88 674.979 350.392C675.283 350.888 675.699 351.28 676.227 351.568C676.755 351.856 677.387 352 678.123 352ZM695.061 355.216C693.797 355.216 692.693 354.936 691.749 354.376C690.805 353.816 690.061 353.04 689.517 352.048C688.989 351.04 688.725 349.896 688.725 348.616C688.725 347.32 688.997 346.176 689.541 345.184C690.085 344.192 690.837 343.416 691.797 342.856C692.773 342.28 693.893 341.992 695.157 341.992C695.877 341.992 696.541 342.088 697.149 342.28C697.757 342.456 698.285 342.704 698.733 343.024C699.197 343.344 699.573 343.696 699.861 344.08C700.165 344.464 700.365 344.864 700.461 345.28H699.621V342.256H703.413V355H699.549V351.736L700.365 351.856C700.269 352.272 700.069 352.68 699.765 353.08C699.461 353.48 699.069 353.84 698.589 354.16C698.109 354.48 697.565 354.736 696.957 354.928C696.365 355.12 695.733 355.216 695.061 355.216ZM696.093 351.976C696.813 351.976 697.437 351.84 697.965 351.568C698.509 351.296 698.925 350.912 699.213 350.416C699.517 349.904 699.669 349.304 699.669 348.616C699.669 347.944 699.517 347.36 699.213 346.864C698.925 346.352 698.509 345.952 697.965 345.664C697.437 345.376 696.813 345.232 696.093 345.232C695.373 345.232 694.749 345.376 694.221 345.664C693.693 345.952 693.277 346.352 692.973 346.864C692.685 347.36 692.541 347.944 692.541 348.616C692.541 349.304 692.685 349.904 692.973 350.416C693.277 350.912 693.693 351.296 694.221 351.568C694.749 351.84 695.373 351.976 696.093 351.976ZM709.337 355V337.24H713.177V355H709.337ZM731.379 355L726.939 342.256H730.995L733.515 350.656L733.011 350.608L735.891 343.96H738.363L741.435 350.608L740.931 350.656L743.451 342.256H747.531L742.947 355H740.043L736.731 347.32L737.619 347.296L734.259 355H731.379ZM755.904 355.216C754.64 355.216 753.536 354.936 752.592 354.376C751.648 353.816 750.904 353.04 750.36 352.048C749.832 351.04 749.568 349.896 749.568 348.616C749.568 347.32 749.84 346.176 750.384 345.184C750.928 344.192 751.68 343.416 752.64 342.856C753.616 342.28 754.736 341.992 756 341.992C756.72 341.992 757.384 342.088 757.992 342.28C758.6 342.456 759.128 342.704 759.576 343.024C760.04 343.344 760.416 343.696 760.704 344.08C761.008 344.464 761.208 344.864 761.304 345.28H760.464V342.256H764.256V355H760.392V351.736L761.208 351.856C761.112 352.272 760.912 352.68 760.608 353.08C760.304 353.48 759.912 353.84 759.432 354.16C758.952 354.48 758.408 354.736 757.8 354.928C757.208 355.12 756.576 355.216 755.904 355.216ZM756.936 351.976C757.656 351.976 758.28 351.84 758.808 351.568C759.352 351.296 759.768 350.912 760.056 350.416C760.36 349.904 760.512 349.304 760.512 348.616C760.512 347.944 760.36 347.36 760.056 346.864C759.768 346.352 759.352 345.952 758.808 345.664C758.28 345.376 757.656 345.232 756.936 345.232C756.216 345.232 755.592 345.376 755.064 345.664C754.536 345.952 754.12 346.352 753.816 346.864C753.528 347.36 753.384 347.944 753.384 348.616C753.384 349.304 753.528 349.904 753.816 350.416C754.12 350.912 754.536 351.296 755.064 351.568C755.592 351.84 756.216 351.976 756.936 351.976ZM770.18 355V342.256H773.828L773.996 346.648L773.084 346.192C773.292 345.408 773.652 344.704 774.164 344.08C774.692 343.44 775.292 342.936 775.964 342.568C776.652 342.184 777.38 341.992 778.148 341.992C778.564 341.992 778.956 342.032 779.324 342.112C779.708 342.192 780.036 342.296 780.308 342.424L779.252 346.624C779.012 346.448 778.684 346.312 778.268 346.216C777.868 346.12 777.46 346.072 777.044 346.072C776.58 346.072 776.156 346.152 775.772 346.312C775.404 346.456 775.092 346.664 774.836 346.936C774.58 347.192 774.38 347.488 774.236 347.824C774.108 348.16 774.044 348.52 774.044 348.904V355H770.18ZM784.522 355V342.256H788.17L788.29 344.944L787.594 344.776C787.802 344.392 788.074 344.032 788.41 343.696C788.762 343.36 789.154 343.072 789.586 342.832C790.034 342.576 790.514 342.376 791.026 342.232C791.538 342.088 792.09 342.016 792.682 342.016C793.37 342.016 794.002 342.12 794.578 342.328C795.17 342.536 795.674 342.88 796.09 343.36C796.506 343.824 796.826 344.448 797.05 345.232L796.258 345.136L796.45 344.752C796.706 344.384 797.01 344.04 797.362 343.72C797.73 343.384 798.146 343.096 798.61 342.856C799.074 342.6 799.57 342.4 800.098 342.256C800.626 342.096 801.17 342.016 801.73 342.016C802.898 342.016 803.85 342.24 804.586 342.688C805.322 343.12 805.866 343.736 806.218 344.536C806.57 345.336 806.746 346.264 806.746 347.32V355H802.882V347.728C802.882 347.216 802.802 346.776 802.642 346.408C802.482 346.04 802.234 345.76 801.898 345.568C801.578 345.36 801.162 345.256 800.65 345.256C800.202 345.256 799.786 345.328 799.402 345.472C799.034 345.616 798.706 345.816 798.418 346.072C798.146 346.312 797.93 346.6 797.77 346.936C797.626 347.256 797.554 347.608 797.554 347.992V355H793.69V347.704C793.69 347.208 793.602 346.776 793.426 346.408C793.25 346.04 792.978 345.76 792.61 345.568C792.242 345.36 791.786 345.256 791.242 345.256C790.81 345.256 790.418 345.336 790.066 345.496C789.73 345.64 789.434 345.84 789.178 346.096C788.922 346.336 788.722 346.6 788.578 346.888C788.45 347.176 788.386 347.472 788.386 347.776V355H784.522ZM812.747 355V342.256H816.611V355H812.747ZM814.667 339.64C813.947 339.64 813.387 339.472 812.987 339.136C812.587 338.784 812.387 338.288 812.387 337.648C812.387 337.072 812.587 336.6 812.987 336.232C813.403 335.864 813.963 335.68 814.667 335.68C815.387 335.68 815.947 335.856 816.347 336.208C816.747 336.544 816.947 337.024 816.947 337.648C816.947 338.24 816.739 338.72 816.323 339.088C815.923 339.456 815.371 339.64 814.667 339.64ZM822.821 355V342.256H826.469L826.589 345.232L825.677 345.496C825.885 344.872 826.237 344.296 826.733 343.768C827.245 343.24 827.861 342.816 828.581 342.496C829.317 342.16 830.109 341.992 830.957 341.992C832.045 341.992 832.965 342.208 833.717 342.64C834.469 343.072 835.037 343.688 835.421 344.488C835.805 345.272 835.997 346.208 835.997 347.296V355H832.133V347.848C832.133 347.288 832.029 346.816 831.821 346.432C831.629 346.048 831.333 345.752 830.933 345.544C830.549 345.336 830.101 345.232 829.589 345.232C829.141 345.232 828.733 345.312 828.365 345.472C828.013 345.616 827.709 345.816 827.453 346.072C827.197 346.312 826.997 346.584 826.853 346.888C826.725 347.192 826.661 347.504 826.661 347.824V355H824.765C824.237 355 823.813 355 823.493 355C823.173 355 822.949 355 822.821 355ZM848.284 360.52C847.02 360.52 845.844 360.36 844.756 360.04C843.684 359.736 842.804 359.352 842.116 358.888L843.436 356.152C843.788 356.344 844.18 356.528 844.612 356.704C845.06 356.88 845.548 357.024 846.076 357.136C846.604 357.264 847.18 357.328 847.804 357.328C848.62 357.328 849.308 357.192 849.868 356.92C850.444 356.648 850.876 356.232 851.164 355.672C851.468 355.128 851.62 354.456 851.62 353.656V351.904L852.364 352.024C852.236 352.536 851.916 353.008 851.404 353.44C850.892 353.872 850.252 354.224 849.484 354.496C848.716 354.768 847.9 354.904 847.036 354.904C845.772 354.904 844.66 354.64 843.7 354.112C842.74 353.568 841.98 352.824 841.42 351.88C840.876 350.92 840.604 349.816 840.604 348.568C840.604 347.288 840.884 346.16 841.444 345.184C842.004 344.192 842.772 343.416 843.748 342.856C844.724 342.28 845.852 341.992 847.132 341.992C847.564 341.992 848.012 342.048 848.476 342.16C848.956 342.256 849.42 342.392 849.868 342.568C850.332 342.728 850.748 342.936 851.116 343.192C851.5 343.432 851.812 343.704 852.052 344.008C852.308 344.296 852.452 344.608 852.484 344.944L851.692 345.136L851.86 342.256H855.484V353.584C855.484 354.72 855.3 355.712 854.932 356.56C854.58 357.424 854.084 358.152 853.444 358.744C852.804 359.336 852.036 359.776 851.14 360.064C850.26 360.368 849.308 360.52 848.284 360.52ZM848.14 351.928C848.86 351.928 849.492 351.792 850.036 351.52C850.58 351.232 850.996 350.84 851.284 350.344C851.588 349.848 851.74 349.264 851.74 348.592C851.74 347.92 851.588 347.336 851.284 346.84C850.996 346.328 850.58 345.936 850.036 345.664C849.492 345.376 848.86 345.232 848.14 345.232C847.388 345.232 846.732 345.376 846.172 345.664C845.612 345.936 845.18 346.328 844.876 346.84C844.572 347.336 844.42 347.92 844.42 348.592C844.42 349.264 844.572 349.848 844.876 350.344C845.18 350.84 845.612 351.232 846.172 351.52C846.732 351.792 847.388 351.928 848.14 351.928ZM875.856 355.264C874.608 355.264 873.512 354.984 872.568 354.424C871.624 353.848 870.888 353.064 870.36 352.072C869.832 351.064 869.568 349.92 869.568 348.64C869.568 347.36 869.84 346.224 870.384 345.232C870.928 344.224 871.68 343.432 872.64 342.856C873.616 342.28 874.736 341.992 876 341.992C876.704 341.992 877.36 342.088 877.968 342.28C878.576 342.456 879.12 342.696 879.6 343C880.096 343.304 880.488 343.656 880.776 344.056C881.08 344.44 881.256 344.832 881.304 345.232L880.392 345.448V337.24H884.256V355H880.68L880.464 351.904L881.232 352.096C881.184 352.496 881.008 352.888 880.704 353.272C880.4 353.64 880 353.976 879.504 354.28C879.024 354.568 878.472 354.808 877.848 355C877.224 355.176 876.56 355.264 875.856 355.264ZM876.936 352.024C877.656 352.024 878.28 351.88 878.808 351.592C879.352 351.304 879.768 350.912 880.056 350.416C880.344 349.904 880.488 349.312 880.488 348.64C880.488 347.952 880.344 347.36 880.056 346.864C879.768 346.352 879.352 345.96 878.808 345.688C878.28 345.4 877.656 345.256 876.936 345.256C876.216 345.256 875.592 345.4 875.064 345.688C874.536 345.96 874.12 346.352 873.816 346.864C873.528 347.36 873.384 347.952 873.384 348.64C873.384 349.312 873.528 349.904 873.816 350.416C874.12 350.912 874.536 351.304 875.064 351.592C875.592 351.88 876.216 352.024 876.936 352.024ZM896.164 355.24C894.612 355.24 893.252 354.96 892.084 354.4C890.932 353.824 890.036 353.048 889.396 352.072C888.756 351.08 888.436 349.952 888.436 348.688C888.436 347.68 888.62 346.768 888.988 345.952C889.356 345.136 889.868 344.432 890.524 343.84C891.18 343.248 891.948 342.792 892.828 342.472C893.708 342.152 894.66 341.992 895.684 341.992C896.676 341.992 897.588 342.152 898.42 342.472C899.252 342.776 899.972 343.216 900.58 343.792C901.204 344.368 901.684 345.048 902.02 345.832C902.356 346.616 902.508 347.48 902.476 348.424L902.452 349.504H890.956L890.404 347.272H899.332L898.924 347.752V347.272C898.876 346.872 898.7 346.512 898.396 346.192C898.108 345.872 897.732 345.624 897.268 345.448C896.804 345.256 896.292 345.16 895.732 345.16C895.012 345.16 894.372 345.28 893.812 345.52C893.252 345.744 892.812 346.096 892.492 346.576C892.188 347.056 892.036 347.664 892.036 348.4C892.036 349.104 892.22 349.72 892.588 350.248C892.972 350.776 893.508 351.192 894.196 351.496C894.9 351.8 895.724 351.952 896.668 351.952C897.484 351.952 898.164 351.856 898.708 351.664C899.268 351.456 899.772 351.2 900.22 350.896L901.948 353.392C901.42 353.792 900.836 354.136 900.196 354.424C899.572 354.696 898.916 354.896 898.228 355.024C897.556 355.168 896.868 355.24 896.164 355.24ZM907.243 355V342.256H910.891L911.011 345.232L910.099 345.496C910.307 344.872 910.659 344.296 911.155 343.768C911.667 343.24 912.283 342.816 913.003 342.496C913.739 342.16 914.531 341.992 915.379 341.992C916.467 341.992 917.387 342.208 918.139 342.64C918.891 343.072 919.459 343.688 919.843 344.488C920.227 345.272 920.419 346.208 920.419 347.296V355H916.555V347.848C916.555 347.288 916.451 346.816 916.243 346.432C916.051 346.048 915.755 345.752 915.355 345.544C914.971 345.336 914.523 345.232 914.011 345.232C913.563 345.232 913.155 345.312 912.787 345.472C912.435 345.616 912.131 345.816 911.875 346.072C911.619 346.312 911.419 346.584 911.275 346.888C911.147 347.192 911.083 347.504 911.083 347.824V355H909.187C908.659 355 908.235 355 907.915 355C907.595 355 907.371 355 907.243 355ZM926.489 355V342.256H930.353V355H926.489ZM928.409 339.64C927.689 339.64 927.129 339.472 926.729 339.136C926.329 338.784 926.129 338.288 926.129 337.648C926.129 337.072 926.329 336.6 926.729 336.232C927.145 335.864 927.705 335.68 928.409 335.68C929.129 335.68 929.689 335.856 930.089 336.208C930.489 336.544 930.689 337.024 930.689 337.648C930.689 338.24 930.481 338.72 930.065 339.088C929.665 339.456 929.113 339.64 928.409 339.64ZM942.851 355.24C941.299 355.24 939.939 354.96 938.771 354.4C937.619 353.824 936.723 353.048 936.083 352.072C935.443 351.08 935.123 349.952 935.123 348.688C935.123 347.68 935.307 346.768 935.675 345.952C936.043 345.136 936.555 344.432 937.211 343.84C937.867 343.248 938.635 342.792 939.515 342.472C940.395 342.152 941.347 341.992 942.371 341.992C943.363 341.992 944.275 342.152 945.107 342.472C945.939 342.776 946.659 343.216 947.267 343.792C947.891 344.368 948.371 345.048 948.707 345.832C949.043 346.616 949.195 347.48 949.163 348.424L949.139 349.504H937.643L937.091 347.272H946.019L945.611 347.752V347.272C945.563 346.872 945.387 346.512 945.083 346.192C944.795 345.872 944.419 345.624 943.955 345.448C943.491 345.256 942.979 345.16 942.419 345.16C941.699 345.16 941.059 345.28 940.499 345.52C939.939 345.744 939.499 346.096 939.179 346.576C938.875 347.056 938.723 347.664 938.723 348.4C938.723 349.104 938.907 349.72 939.275 350.248C939.659 350.776 940.195 351.192 940.883 351.496C941.587 351.8 942.411 351.952 943.355 351.952C944.171 351.952 944.851 351.856 945.395 351.664C945.955 351.456 946.459 351.2 946.907 350.896L948.635 353.392C948.107 353.792 947.523 354.136 946.883 354.424C946.259 354.696 945.603 354.896 944.915 355.024C944.243 355.168 943.555 355.24 942.851 355.24ZM953.93 355V342.256H957.578L957.746 346.648L956.834 346.192C957.042 345.408 957.402 344.704 957.914 344.08C958.442 343.44 959.042 342.936 959.714 342.568C960.402 342.184 961.13 341.992 961.898 341.992C962.314 341.992 962.706 342.032 963.074 342.112C963.458 342.192 963.786 342.296 964.058 342.424L963.002 346.624C962.762 346.448 962.434 346.312 962.018 346.216C961.618 346.12 961.21 346.072 960.794 346.072C960.33 346.072 959.906 346.152 959.522 346.312C959.154 346.456 958.842 346.664 958.586 346.936C958.33 347.192 958.13 347.488 957.986 347.824C957.858 348.16 957.794 348.52 957.794 348.904V355H953.93ZM973.216 355.24C971.808 355.24 970.544 355.04 969.424 354.64C968.32 354.24 967.432 353.672 966.76 352.936L969.088 350.872C969.632 351.384 970.28 351.776 971.032 352.048C971.784 352.32 972.576 352.456 973.408 352.456C973.664 352.456 973.912 352.432 974.152 352.384C974.408 352.336 974.624 352.272 974.8 352.192C974.992 352.096 975.144 351.984 975.256 351.856C975.368 351.728 975.424 351.568 975.424 351.376C975.424 351.072 975.232 350.832 974.848 350.656C974.576 350.56 974.232 350.464 973.816 350.368C973.4 350.272 972.928 350.168 972.4 350.056C971.52 349.896 970.744 349.704 970.072 349.48C969.416 349.24 968.864 348.944 968.416 348.592C968.032 348.256 967.736 347.872 967.528 347.44C967.32 347.008 967.216 346.504 967.216 345.928C967.216 345.336 967.368 344.8 967.672 344.32C967.976 343.824 968.4 343.408 968.944 343.072C969.488 342.72 970.112 342.456 970.816 342.28C971.52 342.088 972.256 341.992 973.024 341.992C973.792 341.992 974.544 342.072 975.28 342.232C976.016 342.376 976.712 342.592 977.368 342.88C978.024 343.152 978.6 343.504 979.096 343.936L977.128 346.24C976.776 345.968 976.368 345.72 975.904 345.496C975.44 345.272 974.944 345.096 974.416 344.968C973.904 344.824 973.4 344.752 972.904 344.752C972.632 344.752 972.368 344.768 972.112 344.8C971.872 344.832 971.664 344.896 971.488 344.992C971.312 345.072 971.168 345.176 971.056 345.304C970.96 345.416 970.912 345.56 970.912 345.736C970.912 345.88 970.952 346.016 971.032 346.144C971.112 346.272 971.232 346.376 971.392 346.456C971.616 346.6 971.944 346.728 972.376 346.84C972.824 346.952 973.384 347.072 974.056 347.2C975.032 347.408 975.864 347.648 976.552 347.92C977.24 348.176 977.792 348.488 978.208 348.856C978.544 349.112 978.792 349.432 978.952 349.816C979.112 350.184 979.192 350.592 979.192 351.04C979.192 351.856 978.928 352.584 978.4 353.224C977.888 353.848 977.184 354.344 976.288 354.712C975.408 355.064 974.384 355.24 973.216 355.24ZM984.563 348.88C984.387 347.952 984.211 346.976 984.035 345.952C983.875 344.928 983.739 343.896 983.627 342.856C983.515 341.8 983.459 340.784 983.459 339.808V337.936H988.091V339.808C988.091 340.784 988.035 341.8 987.923 342.856C987.827 343.896 987.691 344.928 987.515 345.952C987.355 346.976 987.171 347.952 986.963 348.88H984.563ZM985.787 355.264C985.003 355.264 984.403 355.08 983.987 354.712C983.571 354.328 983.363 353.8 983.363 353.128C983.363 352.52 983.571 352.008 983.987 351.592C984.419 351.176 985.019 350.968 985.787 350.968C986.571 350.968 987.163 351.16 987.563 351.544C987.979 351.928 988.187 352.456 988.187 353.128C988.187 353.72 987.971 354.224 987.539 354.64C987.123 355.056 986.539 355.264 985.787 355.264Z" fill="white"/>
<g id="Vector" filter="url(#filter0_d_17_616)">
<path d="M479.246 463.996C484.515 440.672 517.714 440.672 522.983 463.996L531.541 501.874C534.712 515.912 524.05 529.267 509.672 529.267H492.557C478.179 529.267 467.517 515.912 470.688 501.874L479.246 463.996Z" fill="#C63B3B"/>
<path d="M524.816 413.046C524.816 426.326 514.061 437.092 500.794 437.092C487.527 437.092 476.772 426.326 476.772 413.046C476.772 399.766 487.527 389 500.794 389C514.061 389 524.816 399.766 524.816 413.046Z" fill="#C63B3B"/>
<path d="M505.599 517.565C505.599 511.013 510.904 505.702 517.45 505.702C523.995 505.702 529.3 511.013 529.3 517.565V545.137C529.3 551.689 523.995 557 517.45 557C510.904 557 505.599 551.689 505.599 545.137V517.565Z" fill="#C63B3B"/>
<path d="M514.867 471.609C511.517 465.981 513.36 458.7 518.982 455.347C524.605 451.993 531.879 453.837 535.229 459.466L549.328 483.153C552.678 488.781 550.836 496.062 545.213 499.415C539.59 502.769 532.316 500.925 528.966 495.296L514.867 471.609Z" fill="#C63B3B"/>
<path d="M466.362 459.548C469.635 453.874 476.883 451.93 482.551 455.206C488.219 458.482 490.161 465.737 486.889 471.411L473.116 495.289C469.844 500.963 462.596 502.907 456.927 499.631C451.259 496.355 449.317 489.1 452.59 483.427L466.362 459.548Z" fill="#C63B3B"/>
<path d="M472.288 517.565C472.288 511.013 477.594 505.702 484.139 505.702C490.684 505.702 495.99 511.013 495.99 517.565V545.137C495.99 551.689 490.684 557 484.139 557C477.594 557 472.288 551.689 472.288 545.137V517.565Z" fill="#C63B3B"/>
</g>
<g id="Vector_2" filter="url(#filter1_d_17_616)">
<path d="M713.528 463.996C718.85 440.672 752.381 440.672 757.703 463.996L766.346 501.874C769.549 515.912 758.78 529.267 744.259 529.267H726.972C712.451 529.267 701.682 515.912 704.885 501.874L713.528 463.996Z" fill="#C63B3B"/>
<path d="M759.555 413.046C759.555 426.326 748.692 437.092 735.292 437.092C721.892 437.092 711.03 426.326 711.03 413.046C711.03 399.766 721.892 389 735.292 389C748.692 389 759.555 399.766 759.555 413.046Z" fill="#C63B3B"/>
<path d="M740.145 517.565C740.145 511.013 745.504 505.702 752.114 505.702C758.725 505.702 764.083 511.013 764.083 517.565V545.137C764.083 551.689 758.725 557 752.114 557C745.504 557 740.145 551.689 740.145 545.137V517.565Z" fill="#C63B3B"/>
<path d="M749.506 471.609C746.123 465.981 747.983 458.7 753.662 455.347C759.341 451.993 766.688 453.837 770.071 459.466L784.311 483.153C787.695 488.781 785.834 496.062 780.155 499.415C774.476 502.769 767.13 500.925 763.746 495.296L749.506 471.609Z" fill="#C63B3B"/>
<path d="M700.516 459.548C703.821 453.874 711.142 451.93 716.867 455.206C722.591 458.482 724.553 465.737 721.248 471.411L707.337 495.289C704.032 500.963 696.712 502.907 690.987 499.631C685.262 496.355 683.3 489.1 686.606 483.427L700.516 459.548Z" fill="#C63B3B"/>
<path d="M706.501 517.565C706.501 511.013 711.86 505.702 718.47 505.702C725.081 505.702 730.44 511.013 730.44 517.565V545.137C730.44 551.689 725.081 557 718.47 557C711.86 557 706.501 551.689 706.501 545.137V517.565Z" fill="#C63B3B"/>
</g>
<g id="Vector_3" filter="url(#filter2_d_17_616)">
<path d="M596.528 463.996C601.85 440.672 635.381 440.672 640.703 463.996L649.346 501.874C652.549 515.912 641.78 529.267 627.259 529.267H609.972C595.451 529.267 584.682 515.912 587.885 501.874L596.528 463.996Z" fill="#C63B3B"/>
<path d="M642.555 413.046C642.555 426.326 631.692 437.092 618.292 437.092C604.892 437.092 594.03 426.326 594.03 413.046C594.03 399.766 604.892 389 618.292 389C631.692 389 642.555 399.766 642.555 413.046Z" fill="#C63B3B"/>
<path d="M623.145 517.565C623.145 511.013 628.504 505.702 635.114 505.702C641.725 505.702 647.083 511.013 647.083 517.565V545.137C647.083 551.689 641.725 557 635.114 557C628.504 557 623.145 551.689 623.145 545.137V517.565Z" fill="#C63B3B"/>
<path d="M632.506 471.609C629.123 465.981 630.983 458.7 636.662 455.347C642.341 451.993 649.688 453.837 653.071 459.466L667.311 483.153C670.695 488.781 668.834 496.062 663.155 499.415C657.476 502.769 650.13 500.925 646.746 495.296L632.506 471.609Z" fill="#C63B3B"/>
<path d="M583.516 459.548C586.821 453.874 594.142 451.93 599.867 455.206C605.591 458.482 607.553 465.737 604.248 471.411L590.337 495.289C587.032 500.963 579.712 502.907 573.987 499.631C568.262 496.355 566.3 489.1 569.606 483.427L583.516 459.548Z" fill="#C63B3B"/>
<path d="M589.501 517.565C589.501 511.013 594.86 505.702 601.47 505.702C608.081 505.702 613.44 511.013 613.44 517.565V545.137C613.44 551.689 608.081 557 601.47 557C594.86 557 589.501 551.689 589.501 545.137V517.565Z" fill="#C63B3B"/>
</g>
<g id="Vector_4" filter="url(#filter3_d_17_616)">
<path d="M831.246 463.996C836.515 440.672 869.714 440.672 874.983 463.996L883.541 501.874C886.712 515.912 876.05 529.267 861.672 529.267H844.557C830.179 529.267 819.517 515.912 822.688 501.874L831.246 463.996Z" fill="#C63B3B"/>
<path d="M876.816 413.046C876.816 426.326 866.061 437.092 852.794 437.092C839.527 437.092 828.772 426.326 828.772 413.046C828.772 399.766 839.527 389 852.794 389C866.061 389 876.816 399.766 876.816 413.046Z" fill="#C63B3B"/>
<path d="M857.599 517.565C857.599 511.013 862.904 505.702 869.45 505.702C875.995 505.702 881.3 511.013 881.3 517.565V545.137C881.3 551.689 875.995 557 869.45 557C862.904 557 857.599 551.689 857.599 545.137V517.565Z" fill="#C63B3B"/>
<path d="M866.867 471.609C863.517 465.981 865.36 458.7 870.982 455.347C876.605 451.993 883.879 453.837 887.229 459.466L901.328 483.153C904.678 488.781 902.836 496.062 897.213 499.415C891.59 502.769 884.316 500.925 880.966 495.296L866.867 471.609Z" fill="#C63B3B"/>
<path d="M818.362 459.548C821.635 453.874 828.883 451.93 834.551 455.206C840.219 458.482 842.161 465.737 838.889 471.411L825.116 495.289C821.844 500.963 814.596 502.907 808.927 499.631C803.259 496.355 801.317 489.1 804.59 483.427L818.362 459.548Z" fill="#C63B3B"/>
<path d="M824.288 517.565C824.288 511.013 829.594 505.702 836.139 505.702C842.684 505.702 847.99 511.013 847.99 517.565V545.137C847.99 551.689 842.684 557 836.139 557C829.594 557 824.288 551.689 824.288 545.137V517.565Z" fill="#C63B3B"/>
</g>
<g id="Vector_5" filter="url(#filter4_d_17_616)">
<path d="M378.33 500.388C384.548 472.899 423.722 472.899 429.94 500.388L440.038 545.03C443.78 561.575 431.199 577.315 414.233 577.315H394.037C377.071 577.315 364.49 561.575 368.232 545.03L378.33 500.388Z" fill="#E06A6A"/>
<path d="M432.103 440.34C432.103 455.991 419.412 468.679 403.757 468.679C388.102 468.679 375.411 455.991 375.411 440.34C375.411 424.688 388.102 412 403.757 412C419.412 412 432.103 424.688 432.103 440.34Z" fill="#E06A6A"/>
<path d="M409.426 563.523C409.426 555.801 415.687 549.542 423.41 549.542C431.134 549.542 437.395 555.801 437.395 563.523V596.019C437.395 603.741 431.134 610 423.41 610C415.687 610 409.426 603.741 409.426 596.019V563.523Z" fill="#E06A6A"/>
<path d="M420.364 509.361C416.41 502.728 418.584 494.146 425.219 490.194C431.854 486.242 440.437 488.416 444.39 495.049L461.027 522.966C464.98 529.599 462.806 538.18 456.171 542.132C449.537 546.085 440.953 543.911 437 537.278L420.364 509.361Z" fill="#E06A6A"/>
<path d="M363.128 495.146C366.989 488.459 375.542 486.168 382.23 490.029C388.919 493.889 391.21 502.44 387.349 509.127L371.097 537.269C367.235 543.956 358.683 546.248 351.994 542.387C345.306 538.526 343.014 529.975 346.876 523.289L363.128 495.146Z" fill="#E06A6A"/>
<path d="M370.12 563.523C370.12 555.801 376.381 549.542 384.104 549.542C391.827 549.542 398.088 555.801 398.088 563.523V596.019C398.088 603.741 391.827 610 384.104 610C376.381 610 370.12 603.741 370.12 596.019V563.523Z" fill="#E06A6A"/>
</g>
<g id="Vector_6" filter="url(#filter5_d_17_616)">
<path d="M654.33 500.388C660.548 472.899 699.722 472.899 705.94 500.388L716.038 545.03C719.78 561.575 707.199 577.315 690.233 577.315H670.037C653.071 577.315 640.49 561.575 644.232 545.03L654.33 500.388Z" fill="#E06A6A"/>
<path d="M708.103 440.34C708.103 455.991 695.412 468.679 679.757 468.679C664.102 468.679 651.411 455.991 651.411 440.34C651.411 424.688 664.102 412 679.757 412C695.412 412 708.103 424.688 708.103 440.34Z" fill="#E06A6A"/>
<path d="M685.426 563.523C685.426 555.801 691.687 549.542 699.41 549.542C707.134 549.542 713.395 555.801 713.395 563.523V596.019C713.395 603.741 707.134 610 699.41 610C691.687 610 685.426 603.741 685.426 596.019V563.523Z" fill="#E06A6A"/>
<path d="M696.364 509.361C692.41 502.728 694.584 494.146 701.219 490.194C707.854 486.242 716.437 488.416 720.39 495.049L737.027 522.966C740.98 529.599 738.806 538.18 732.171 542.132C725.537 546.085 716.953 543.911 713 537.278L696.364 509.361Z" fill="#E06A6A"/>
<path d="M639.128 495.146C642.989 488.459 651.542 486.168 658.23 490.029C664.919 493.889 667.21 502.44 663.349 509.127L647.097 537.269C643.235 543.956 634.683 546.248 627.994 542.387C621.306 538.526 619.014 529.975 622.876 523.289L639.128 495.146Z" fill="#E06A6A"/>
<path d="M646.12 563.523C646.12 555.801 652.381 549.542 660.104 549.542C667.827 549.542 674.088 555.801 674.088 563.523V596.019C674.088 603.741 667.827 610 660.104 610C652.381 610 646.12 603.741 646.12 596.019V563.523Z" fill="#E06A6A"/>
</g>
<g id="Vector_7" filter="url(#filter6_d_17_616)">
<path d="M516.33 500.388C522.548 472.899 561.722 472.899 567.94 500.388L578.038 545.03C581.78 561.575 569.199 577.315 552.233 577.315H532.037C515.071 577.315 502.49 561.575 506.232 545.03L516.33 500.388Z" fill="#E06A6A"/>
<path d="M570.103 440.34C570.103 455.991 557.412 468.679 541.757 468.679C526.102 468.679 513.411 455.991 513.411 440.34C513.411 424.688 526.102 412 541.757 412C557.412 412 570.103 424.688 570.103 440.34Z" fill="#E06A6A"/>
<path d="M547.426 563.523C547.426 555.801 553.687 549.542 561.41 549.542C569.134 549.542 575.395 555.801 575.395 563.523V596.019C575.395 603.741 569.134 610 561.41 610C553.687 610 547.426 603.741 547.426 596.019V563.523Z" fill="#E06A6A"/>
<path d="M558.364 509.361C554.41 502.728 556.584 494.146 563.219 490.194C569.854 486.242 578.437 488.416 582.39 495.049L599.027 522.966C602.98 529.599 600.806 538.18 594.171 542.132C587.537 546.085 578.953 543.911 575 537.278L558.364 509.361Z" fill="#E06A6A"/>
<path d="M501.128 495.146C504.989 488.459 513.542 486.168 520.23 490.029C526.919 493.889 529.21 502.44 525.349 509.127L509.097 537.269C505.235 543.956 496.683 546.248 489.994 542.387C483.306 538.526 481.014 529.975 484.876 523.289L501.128 495.146Z" fill="#E06A6A"/>
<path d="M508.12 563.523C508.12 555.801 514.381 549.542 522.104 549.542C529.827 549.542 536.088 555.801 536.088 563.523V596.019C536.088 603.741 529.827 610 522.104 610C514.381 610 508.12 603.741 508.12 596.019V563.523Z" fill="#E06A6A"/>
</g>
<g id="Vector_8" filter="url(#filter7_d_17_616)">
<path d="M574.33 546.388C580.548 518.899 619.722 518.899 625.94 546.388L636.038 591.03C639.78 607.575 627.199 623.315 610.233 623.315H590.037C573.071 623.315 560.49 607.575 564.232 591.03L574.33 546.388Z" fill="#FB8D8D"/>
<path d="M628.103 486.34C628.103 501.991 615.412 514.679 599.757 514.679C584.102 514.679 571.411 501.991 571.411 486.34C571.411 470.688 584.102 458 599.757 458C615.412 458 628.103 470.688 628.103 486.34Z" fill="#FB8D8D"/>
<path d="M605.426 609.523C605.426 601.801 611.687 595.542 619.41 595.542C627.134 595.542 633.395 601.801 633.395 609.523V642.019C633.395 649.741 627.134 656 619.41 656C611.687 656 605.426 649.741 605.426 642.019V609.523Z" fill="#FB8D8D"/>
<path d="M616.364 555.361C612.41 548.728 614.584 540.146 621.219 536.194C627.854 532.242 636.437 534.416 640.39 541.049L657.027 568.966C660.98 575.599 658.806 584.18 652.171 588.132C645.537 592.085 636.953 589.911 633 583.278L616.364 555.361Z" fill="#FB8D8D"/>
<path d="M559.128 541.146C562.989 534.459 571.542 532.168 578.23 536.029C584.919 539.889 587.21 548.44 583.349 555.127L567.097 583.269C563.235 589.956 554.683 592.248 547.994 588.387C541.306 584.526 539.014 575.975 542.876 569.289L559.128 541.146Z" fill="#FB8D8D"/>
<path d="M566.12 609.523C566.12 601.801 572.381 595.542 580.104 595.542C587.827 595.542 594.088 601.801 594.088 609.523V642.019C594.088 649.741 587.827 656 580.104 656C572.381 656 566.12 649.741 566.12 642.019V609.523Z" fill="#FB8D8D"/>
</g>
<g id="Vector_9" filter="url(#filter8_d_17_616)">
<path d="M792.33 500.388C798.548 472.899 837.722 472.899 843.94 500.388L854.038 545.03C857.78 561.575 845.199 577.315 828.233 577.315H808.037C791.071 577.315 778.49 561.575 782.232 545.03L792.33 500.388Z" fill="#E06A6A"/>
<path d="M846.103 440.34C846.103 455.991 833.412 468.679 817.757 468.679C802.102 468.679 789.411 455.991 789.411 440.34C789.411 424.688 802.102 412 817.757 412C833.412 412 846.103 424.688 846.103 440.34Z" fill="#E06A6A"/>
<path d="M823.426 563.523C823.426 555.801 829.687 549.542 837.41 549.542C845.134 549.542 851.395 555.801 851.395 563.523V596.019C851.395 603.741 845.134 610 837.41 610C829.687 610 823.426 603.741 823.426 596.019V563.523Z" fill="#E06A6A"/>
<path d="M834.364 509.361C830.41 502.728 832.584 494.146 839.219 490.194C845.854 486.242 854.437 488.416 858.39 495.049L875.027 522.966C878.98 529.599 876.806 538.18 870.171 542.132C863.537 546.085 854.953 543.911 851 537.278L834.364 509.361Z" fill="#E06A6A"/>
<path d="M777.128 495.146C780.989 488.459 789.542 486.168 796.23 490.029C802.919 493.889 805.21 502.44 801.349 509.127L785.097 537.269C781.235 543.956 772.683 546.248 765.994 542.387C759.306 538.526 757.014 529.975 760.876 523.289L777.128 495.146Z" fill="#E06A6A"/>
<path d="M784.12 563.523C784.12 555.801 790.381 549.542 798.104 549.542C805.827 549.542 812.088 555.801 812.088 563.523V596.019C812.088 603.741 805.827 610 798.104 610C790.381 610 784.12 603.741 784.12 596.019V563.523Z" fill="#E06A6A"/>
</g>
<g id="Vector_10" filter="url(#filter9_d_17_616)">
<path d="M436.33 546.388C442.548 518.899 481.722 518.899 487.94 546.388L498.038 591.03C501.78 607.575 489.199 623.315 472.233 623.315H452.037C435.071 623.315 422.49 607.575 426.232 591.03L436.33 546.388Z" fill="#FB8D8D"/>
<path d="M490.103 486.34C490.103 501.991 477.412 514.679 461.757 514.679C446.102 514.679 433.411 501.991 433.411 486.34C433.411 470.688 446.102 458 461.757 458C477.412 458 490.103 470.688 490.103 486.34Z" fill="#FB8D8D"/>
<path d="M467.426 609.523C467.426 601.801 473.687 595.542 481.41 595.542C489.134 595.542 495.395 601.801 495.395 609.523V642.019C495.395 649.741 489.134 656 481.41 656C473.687 656 467.426 649.741 467.426 642.019V609.523Z" fill="#FB8D8D"/>
<path d="M478.364 555.361C474.41 548.728 476.584 540.146 483.219 536.194C489.854 532.242 498.437 534.416 502.39 541.049L519.027 568.966C522.98 575.599 520.806 584.18 514.171 588.132C507.537 592.085 498.953 589.911 495 583.278L478.364 555.361Z" fill="#FB8D8D"/>
<path d="M421.128 541.146C424.989 534.459 433.542 532.168 440.23 536.029C446.919 539.889 449.21 548.44 445.349 555.127L429.097 583.269C425.235 589.956 416.683 592.248 409.994 588.387C403.306 584.526 401.014 575.975 404.876 569.289L421.128 541.146Z" fill="#FB8D8D"/>
<path d="M428.12 609.523C428.12 601.801 434.381 595.542 442.104 595.542C449.827 595.542 456.088 601.801 456.088 609.523V642.019C456.088 649.741 449.827 656 442.104 656C434.381 656 428.12 649.741 428.12 642.019V609.523Z" fill="#FB8D8D"/>
</g>
<g id="Vector_11" filter="url(#filter10_d_17_616)">
<path d="M712.33 546.388C718.548 518.899 757.722 518.899 763.94 546.388L774.038 591.03C777.78 607.575 765.199 623.315 748.233 623.315H728.037C711.071 623.315 698.49 607.575 702.232 591.03L712.33 546.388Z" fill="#FB8D8D"/>
<path d="M766.103 486.34C766.103 501.991 753.412 514.679 737.757 514.679C722.102 514.679 709.411 501.991 709.411 486.34C709.411 470.688 722.102 458 737.757 458C753.412 458 766.103 470.688 766.103 486.34Z" fill="#FB8D8D"/>
<path d="M743.426 609.523C743.426 601.801 749.687 595.542 757.41 595.542C765.134 595.542 771.395 601.801 771.395 609.523V642.019C771.395 649.741 765.134 656 757.41 656C749.687 656 743.426 649.741 743.426 642.019V609.523Z" fill="#FB8D8D"/>
<path d="M754.364 555.361C750.41 548.728 752.584 540.146 759.219 536.194C765.854 532.242 774.437 534.416 778.39 541.049L795.027 568.966C798.98 575.599 796.806 584.18 790.171 588.132C783.537 592.085 774.953 589.911 771 583.278L754.364 555.361Z" fill="#FB8D8D"/>
<path d="M697.128 541.146C700.989 534.459 709.542 532.168 716.23 536.029C722.919 539.889 725.21 548.44 721.349 555.127L705.097 583.269C701.235 589.956 692.683 592.248 685.994 588.387C679.306 584.526 677.014 575.975 680.876 569.289L697.128 541.146Z" fill="#FB8D8D"/>
<path d="M704.12 609.523C704.12 601.801 710.381 595.542 718.104 595.542C725.827 595.542 732.088 601.801 732.088 609.523V642.019C732.088 649.741 725.827 656 718.104 656C710.381 656 704.12 649.741 704.12 642.019V609.523Z" fill="#FB8D8D"/>
</g>
<g id="Vector_12" filter="url(#filter11_d_17_616)">
<path d="M850.33 546.388C856.548 518.899 895.722 518.899 901.94 546.388L912.038 591.03C915.78 607.575 903.199 623.315 886.233 623.315H866.037C849.071 623.315 836.49 607.575 840.232 591.03L850.33 546.388Z" fill="#FB8D8D"/>
<path d="M904.103 486.34C904.103 501.991 891.412 514.679 875.757 514.679C860.102 514.679 847.411 501.991 847.411 486.34C847.411 470.688 860.102 458 875.757 458C891.412 458 904.103 470.688 904.103 486.34Z" fill="#FB8D8D"/>
<path d="M881.426 609.523C881.426 601.801 887.687 595.542 895.41 595.542C903.134 595.542 909.395 601.801 909.395 609.523V642.019C909.395 649.741 903.134 656 895.41 656C887.687 656 881.426 649.741 881.426 642.019V609.523Z" fill="#FB8D8D"/>
<path d="M892.364 555.361C888.41 548.728 890.584 540.146 897.219 536.194C903.854 532.242 912.437 534.416 916.39 541.049L933.027 568.966C936.98 575.599 934.806 584.18 928.171 588.132C921.537 592.085 912.953 589.911 909 583.278L892.364 555.361Z" fill="#FB8D8D"/>
<path d="M835.128 541.146C838.989 534.459 847.542 532.168 854.23 536.029C860.919 539.889 863.21 548.44 859.349 555.127L843.097 583.269C839.235 589.956 830.683 592.248 823.994 588.387C817.306 584.526 815.014 575.975 818.876 569.289L835.128 541.146Z" fill="#FB8D8D"/>
<path d="M842.12 609.523C842.12 601.801 848.381 595.542 856.104 595.542C863.827 595.542 870.088 601.801 870.088 609.523V642.019C870.088 649.741 863.827 656 856.104 656C848.381 656 842.12 649.741 842.12 642.019V609.523Z" fill="#FB8D8D"/>
</g>
<g id="next">
<g id="Next">
<path id="Next_2" d="M1047.81 859V814.2H1057.79L1084.86 846.2L1083.01 845.88C1082.75 844.387 1082.56 842.957 1082.43 841.592C1082.3 840.227 1082.18 838.904 1082.05 837.624C1081.96 836.344 1081.88 835.064 1081.79 833.784C1081.75 832.504 1081.73 831.16 1081.73 829.752C1081.73 828.344 1081.73 826.851 1081.73 825.272V814.2H1092.29V859H1082.18L1054.08 825.976L1057.09 826.424C1057.22 827.917 1057.34 829.261 1057.47 830.456C1057.64 831.651 1057.77 832.781 1057.86 833.848C1057.98 834.872 1058.07 835.917 1058.11 836.984C1058.2 838.008 1058.26 839.096 1058.3 840.248C1058.35 841.4 1058.37 842.659 1058.37 844.024V859H1047.81ZM1124.89 859.64C1120.76 859.64 1117.13 858.893 1114.01 857.4C1110.94 855.864 1108.55 853.795 1106.85 851.192C1105.14 848.547 1104.29 845.539 1104.29 842.168C1104.29 839.48 1104.78 837.048 1105.76 834.872C1106.74 832.696 1108.11 830.819 1109.85 829.24C1111.6 827.661 1113.65 826.445 1116 825.592C1118.35 824.739 1120.88 824.312 1123.61 824.312C1126.26 824.312 1128.69 824.739 1130.91 825.592C1133.13 826.403 1135.05 827.576 1136.67 829.112C1138.33 830.648 1139.61 832.461 1140.51 834.552C1141.41 836.643 1141.81 838.947 1141.73 841.464L1141.66 844.344H1111.01L1109.53 838.392H1133.34L1132.25 839.672V838.392C1132.13 837.325 1131.66 836.365 1130.85 835.512C1130.08 834.659 1129.08 833.997 1127.84 833.528C1126.6 833.016 1125.24 832.76 1123.74 832.76C1121.82 832.76 1120.12 833.08 1118.62 833.72C1117.13 834.317 1115.96 835.256 1115.1 836.536C1114.29 837.816 1113.89 839.437 1113.89 841.4C1113.89 843.277 1114.38 844.92 1115.36 846.328C1116.38 847.736 1117.81 848.845 1119.65 849.656C1121.52 850.467 1123.72 850.872 1126.24 850.872C1128.41 850.872 1130.23 850.616 1131.68 850.104C1133.17 849.549 1134.52 848.867 1135.71 848.056L1140.32 854.712C1138.91 855.779 1137.35 856.696 1135.65 857.464C1133.98 858.189 1132.23 858.723 1130.4 859.064C1128.61 859.448 1126.77 859.64 1124.89 859.64ZM1178.57 859L1169.16 846.776L1166.54 843.32L1151.63 825.016H1164.56L1173 836.216L1175.82 839.928L1191.37 859H1178.57ZM1150.8 859L1166.03 839.8L1172.24 846.136L1163.53 859H1150.8ZM1175.76 844.216L1169.74 837.816L1178.32 825.016H1190.99L1175.76 844.216ZM1207.39 859V815.672H1217.63V859H1207.39ZM1199.84 833.976V825.016H1226.27V833.976H1199.84Z" fill="white"/>
</g>
<path id="Arrow 1" d="M1041 863.5C1036.31 863.5 1032.5 867.306 1032.5 872C1032.5 876.694 1036.31 880.5 1041 880.5V872V863.5ZM1318 872L1233 822.925V921.075L1318 872ZM1041 872V880.5H1241.5V872V863.5H1041V872Z" fill="#EF1044"/>
</g>
</g>
<defs>
<filter id="filter0_d_17_616" x="447" y="389" width="108" height="176" filterUnits="userSpaceOnUse" color-interpolation-filters="sRGB">
<feFlood flood-opacity="0" result="BackgroundImageFix"/>
<feColorMatrix in="SourceAlpha" type="matrix" values="0 0 0 0 0 0 0 0 0 0 0 0 0 0 0 0 0 0 127 0" result="hardAlpha"/>
<feOffset dy="4"/>
<feGaussianBlur stdDeviation="2"/>
<feComposite in2="hardAlpha" operator="out"/>
<feColorMatrix type="matrix" values="0 0 0 0 0 0 0 0 0 0 0 0 0 0 0 0 0 0 0.25 0"/>
<feBlend mode="normal" in2="BackgroundImageFix" result="effect1_dropShadow_17_616"/>
<feBlend mode="normal" in="SourceGraphic" in2="effect1_dropShadow_17_616" result="shape"/>
</filter>
<filter id="filter1_d_17_616" x="681" y="389" width="109" height="176" filterUnits="userSpaceOnUse" color-interpolation-filters="sRGB">
<feFlood flood-opacity="0" result="BackgroundImageFix"/>
<feColorMatrix in="SourceAlpha" type="matrix" values="0 0 0 0 0 0 0 0 0 0 0 0 0 0 0 0 0 0 127 0" result="hardAlpha"/>
<feOffset dy="4"/>
<feGaussianBlur stdDeviation="2"/>
<feComposite in2="hardAlpha" operator="out"/>
<feColorMatrix type="matrix" values="0 0 0 0 0 0 0 0 0 0 0 0 0 0 0 0 0 0 0.25 0"/>
<feBlend mode="normal" in2="BackgroundImageFix" result="effect1_dropShadow_17_616"/>
<feBlend mode="normal" in="SourceGraphic" in2="effect1_dropShadow_17_616" result="shape"/>
</filter>
<filter id="filter2_d_17_616" x="564" y="389" width="109" height="176" filterUnits="userSpaceOnUse" color-interpolation-filters="sRGB">
<feFlood flood-opacity="0" result="BackgroundImageFix"/>
<feColorMatrix in="SourceAlpha" type="matrix" values="0 0 0 0 0 0 0 0 0 0 0 0 0 0 0 0 0 0 127 0" result="hardAlpha"/>
<feOffset dy="4"/>
<feGaussianBlur stdDeviation="2"/>
<feComposite in2="hardAlpha" operator="out"/>
<feColorMatrix type="matrix" values="0 0 0 0 0 0 0 0 0 0 0 0 0 0 0 0 0 0 0.25 0"/>
<feBlend mode="normal" in2="BackgroundImageFix" result="effect1_dropShadow_17_616"/>
<feBlend mode="normal" in="SourceGraphic" in2="effect1_dropShadow_17_616" result="shape"/>
</filter>
<filter id="filter3_d_17_616" x="799" y="389" width="108" height="176" filterUnits="userSpaceOnUse" color-interpolation-filters="sRGB">
<feFlood flood-opacity="0" result="BackgroundImageFix"/>
<feColorMatrix in="SourceAlpha" type="matrix" values="0 0 0 0 0 0 0 0 0 0 0 0 0 0 0 0 0 0 127 0" result="hardAlpha"/>
<feOffset dy="4"/>
<feGaussianBlur stdDeviation="2"/>
<feComposite in2="hardAlpha" operator="out"/>
<feColorMatrix type="matrix" values="0 0 0 0 0 0 0 0 0 0 0 0 0 0 0 0 0 0 0.25 0"/>
<feBlend mode="normal" in2="BackgroundImageFix" result="effect1_dropShadow_17_616"/>
<feBlend mode="normal" in="SourceGraphic" in2="effect1_dropShadow_17_616" result="shape"/>
</filter>
<filter id="filter4_d_17_616" x="341" y="412" width="126" height="206" filterUnits="userSpaceOnUse" color-interpolation-filters="sRGB">
<feFlood flood-opacity="0" result="BackgroundImageFix"/>
<feColorMatrix in="SourceAlpha" type="matrix" values="0 0 0 0 0 0 0 0 0 0 0 0 0 0 0 0 0 0 127 0" result="hardAlpha"/>
<feOffset dy="4"/>
<feGaussianBlur stdDeviation="2"/>
<feComposite in2="hardAlpha" operator="out"/>
<feColorMatrix type="matrix" values="0 0 0 0 0 0 0 0 0 0 0 0 0 0 0 0 0 0 0.25 0"/>
<feBlend mode="normal" in2="BackgroundImageFix" result="effect1_dropShadow_17_616"/>
<feBlend mode="normal" in="SourceGraphic" in2="effect1_dropShadow_17_616" result="shape"/>
</filter>
<filter id="filter5_d_17_616" x="617" y="412" width="126" height="206" filterUnits="userSpaceOnUse" color-interpolation-filters="sRGB">
<feFlood flood-opacity="0" result="BackgroundImageFix"/>
<feColorMatrix in="SourceAlpha" type="matrix" values="0 0 0 0 0 0 0 0 0 0 0 0 0 0 0 0 0 0 127 0" result="hardAlpha"/>
<feOffset dy="4"/>
<feGaussianBlur stdDeviation="2"/>
<feComposite in2="hardAlpha" operator="out"/>
<feColorMatrix type="matrix" values="0 0 0 0 0 0 0 0 0 0 0 0 0 0 0 0 0 0 0.25 0"/>
<feBlend mode="normal" in2="BackgroundImageFix" result="effect1_dropShadow_17_616"/>
<feBlend mode="normal" in="SourceGraphic" in2="effect1_dropShadow_17_616" result="shape"/>
</filter>
<filter id="filter6_d_17_616" x="479" y="412" width="126" height="206" filterUnits="userSpaceOnUse" color-interpolation-filters="sRGB">
<feFlood flood-opacity="0" result="BackgroundImageFix"/>
<feColorMatrix in="SourceAlpha" type="matrix" values="0 0 0 0 0 0 0 0 0 0 0 0 0 0 0 0 0 0 127 0" result="hardAlpha"/>
<feOffset dy="4"/>
<feGaussianBlur stdDeviation="2"/>
<feComposite in2="hardAlpha" operator="out"/>
<feColorMatrix type="matrix" values="0 0 0 0 0 0 0 0 0 0 0 0 0 0 0 0 0 0 0.25 0"/>
<feBlend mode="normal" in2="BackgroundImageFix" result="effect1_dropShadow_17_616"/>
<feBlend mode="normal" in="SourceGraphic" in2="effect1_dropShadow_17_616" result="shape"/>
</filter>
<filter id="filter7_d_17_616" x="537" y="458" width="126" height="206" filterUnits="userSpaceOnUse" color-interpolation-filters="sRGB">
<feFlood flood-opacity="0" result="BackgroundImageFix"/>
<feColorMatrix in="SourceAlpha" type="matrix" values="0 0 0 0 0 0 0 0 0 0 0 0 0 0 0 0 0 0 127 0" result="hardAlpha"/>
<feOffset dy="4"/>
<feGaussianBlur stdDeviation="2"/>
<feComposite in2="hardAlpha" operator="out"/>
<feColorMatrix type="matrix" values="0 0 0 0 0 0 0 0 0 0 0 0 0 0 0 0 0 0 0.25 0"/>
<feBlend mode="normal" in2="BackgroundImageFix" result="effect1_dropShadow_17_616"/>
<feBlend mode="normal" in="SourceGraphic" in2="effect1_dropShadow_17_616" result="shape"/>
</filter>
<filter id="filter8_d_17_616" x="755" y="412" width="126" height="206" filterUnits="userSpaceOnUse" color-interpolation-filters="sRGB">
<feFlood flood-opacity="0" result="BackgroundImageFix"/>
<feColorMatrix in="SourceAlpha" type="matrix" values="0 0 0 0 0 0 0 0 0 0 0 0 0 0 0 0 0 0 127 0" result="hardAlpha"/>
<feOffset dy="4"/>
<feGaussianBlur stdDeviation="2"/>
<feComposite in2="hardAlpha" operator="out"/>
<feColorMatrix type="matrix" values="0 0 0 0 0 0 0 0 0 0 0 0 0 0 0 0 0 0 0.25 0"/>
<feBlend mode="normal" in2="BackgroundImageFix" result="effect1_dropShadow_17_616"/>
<feBlend mode="normal" in="SourceGraphic" in2="effect1_dropShadow_17_616" result="shape"/>
</filter>
<filter id="filter9_d_17_616" x="399" y="458" width="126" height="206" filterUnits="userSpaceOnUse" color-interpolation-filters="sRGB">
<feFlood flood-opacity="0" result="BackgroundImageFix"/>
<feColorMatrix in="SourceAlpha" type="matrix" values="0 0 0 0 0 0 0 0 0 0 0 0 0 0 0 0 0 0 127 0" result="hardAlpha"/>
<feOffset dy="4"/>
<feGaussianBlur stdDeviation="2"/>
<feComposite in2="hardAlpha" operator="out"/>
<feColorMatrix type="matrix" values="0 0 0 0 0 0 0 0 0 0 0 0 0 0 0 0 0 0 0.25 0"/>
<feBlend mode="normal" in2="BackgroundImageFix" result="effect1_dropShadow_17_616"/>
<feBlend mode="normal" in="SourceGraphic" in2="effect1_dropShadow_17_616" result="shape"/>
</filter>
<filter id="filter10_d_17_616" x="675" y="458" width="126" height="206" filterUnits="userSpaceOnUse" color-interpolation-filters="sRGB">
<feFlood flood-opacity="0" result="BackgroundImageFix"/>
<feColorMatrix in="SourceAlpha" type="matrix" values="0 0 0 0 0 0 0 0 0 0 0 0 0 0 0 0 0 0 127 0" result="hardAlpha"/>
<feOffset dy="4"/>
<feGaussianBlur stdDeviation="2"/>
<feComposite in2="hardAlpha" operator="out"/>
<feColorMatrix type="matrix" values="0 0 0 0 0 0 0 0 0 0 0 0 0 0 0 0 0 0 0.25 0"/>
<feBlend mode="normal" in2="BackgroundImageFix" result="effect1_dropShadow_17_616"/>
<feBlend mode="normal" in="SourceGraphic" in2="effect1_dropShadow_17_616" result="shape"/>
</filter>
<filter id="filter11_d_17_616" x="813" y="458" width="126" height="206" filterUnits="userSpaceOnUse" color-interpolation-filters="sRGB">
<feFlood flood-opacity="0" result="BackgroundImageFix"/>
<feColorMatrix in="SourceAlpha" type="matrix" values="0 0 0 0 0 0 0 0 0 0 0 0 0 0 0 0 0 0 127 0" result="hardAlpha"/>
<feOffset dy="4"/>
<feGaussianBlur stdDeviation="2"/>
<feComposite in2="hardAlpha" operator="out"/>
<feColorMatrix type="matrix" values="0 0 0 0 0 0 0 0 0 0 0 0 0 0 0 0 0 0 0.25 0"/>
<feBlend mode="normal" in2="BackgroundImageFix" result="effect1_dropShadow_17_616"/>
<feBlend mode="normal" in="SourceGraphic" in2="effect1_dropShadow_17_616" result="shape"/>
</filter>
</defs>
</svg>
