<svg width="1440" height="1024" viewBox="0 0 1440 1024" fill="none" xmlns="http://www.w3.org/2000/svg">
<g id="intro7">
<rect width="1440" height="1024" fill="#333148"/>
<path id="EARTH" d="M434.345 566V461H515.945V482.75H459.095V544.25H517.445V566H434.345ZM446.945 522.95V502.25H509.195V522.95H446.945ZM535.228 566L580.978 461H603.628L649.078 566H622.978L598.678 509.15C597.778 506.95 596.878 504.75 595.978 502.55C595.178 500.35 594.378 498.1 593.578 495.8C592.778 493.5 592.028 491.25 591.328 489.05C590.628 486.85 589.978 484.75 589.378 482.75L594.478 482.6C593.878 485 593.178 487.3 592.378 489.5C591.678 491.7 590.928 493.9 590.128 496.1C589.328 498.2 588.478 500.35 587.578 502.55C586.678 504.75 585.778 507 584.878 509.3L560.578 566H535.228ZM556.678 546.5L564.928 527.3H618.928L625.078 546.5H556.678ZM671.21 566V461H723.86C731.26 461 737.76 462.45 743.36 465.35C748.96 468.15 753.31 472.05 756.41 477.05C759.51 482.05 761.06 487.85 761.06 494.45C761.06 501.15 759.41 507.15 756.11 512.45C752.91 517.65 748.46 521.8 742.76 524.9C737.16 527.9 730.86 529.4 723.86 529.4H695.51V566H671.21ZM736.91 566L706.61 518.6L733.01 514.85L766.31 566H736.91ZM695.51 509.9H721.31C724.11 509.9 726.56 509.3 728.66 508.1C730.86 506.9 732.56 505.25 733.76 503.15C735.06 501.05 735.71 498.6 735.71 495.8C735.71 493.1 735.01 490.75 733.61 488.75C732.31 486.65 730.46 485.05 728.06 483.95C725.76 482.85 723.01 482.3 719.81 482.3H695.51V509.9ZM818.299 566V483.5H782.899V461H879.949V483.5H843.799V566H818.299ZM980.404 566V461H1005.9V566H980.404ZM906.904 566V461H932.404V566H906.904ZM916.804 525.35L916.954 502.55H993.904V525.35H916.804Z" fill="white"/>
<g id="next">
<g id="Next">
<path id="Next_2" d="M1047.81 859V814.2H1057.79L1084.86 846.2L1083.01 845.88C1082.75 844.387 1082.56 842.957 1082.43 841.592C1082.3 840.227 1082.18 838.904 1082.05 837.624C1081.96 836.344 1081.88 835.064 1081.79 833.784C1081.75 832.504 1081.73 831.16 1081.73 829.752C1081.73 828.344 1081.73 826.851 1081.73 825.272V814.2H1092.29V859H1082.18L1054.08 825.976L1057.09 826.424C1057.22 827.917 1057.34 829.261 1057.47 830.456C1057.64 831.651 1057.77 832.781 1057.86 833.848C1057.98 834.872 1058.07 835.917 1058.11 836.984C1058.2 838.008 1058.26 839.096 1058.3 840.248C1058.35 841.4 1058.37 842.659 1058.37 844.024V859H1047.81ZM1124.89 859.64C1120.76 859.64 1117.13 858.893 1114.01 857.4C1110.94 855.864 1108.55 853.795 1106.85 851.192C1105.14 848.547 1104.29 845.539 1104.29 842.168C1104.29 839.48 1104.78 837.048 1105.76 834.872C1106.74 832.696 1108.11 830.819 1109.85 829.24C1111.6 827.661 1113.65 826.445 1116 825.592C1118.35 824.739 1120.88 824.312 1123.61 824.312C1126.26 824.312 1128.69 824.739 1130.91 825.592C1133.13 826.403 1135.05 827.576 1136.67 829.112C1138.33 830.648 1139.61 832.461 1140.51 834.552C1141.41 836.643 1141.81 838.947 1141.73 841.464L1141.66 844.344H1111.01L1109.53 838.392H1133.34L1132.25 839.672V838.392C1132.13 837.325 1131.66 836.365 1130.85 835.512C1130.08 834.659 1129.08 833.997 1127.84 833.528C1126.6 833.016 1125.24 832.76 1123.74 832.76C1121.82 832.76 1120.12 833.08 1118.62 833.72C1117.13 834.317 1115.96 835.256 1115.1 836.536C1114.29 837.816 1113.89 839.437 1113.89 841.4C1113.89 843.277 1114.38 844.92 1115.36 846.328C1116.38 847.736 1117.81 848.845 1119.65 849.656C1121.52 850.467 1123.72 850.872 1126.24 850.872C1128.41 850.872 1130.23 850.616 1131.68 850.104C1133.17 849.549 1134.52 848.867 1135.71 848.056L1140.32 854.712C1138.91 855.779 1137.35 856.696 1135.65 857.464C1133.98 858.189 1132.23 858.723 1130.4 859.064C1128.61 859.448 1126.77 859.64 1124.89 859.64ZM1178.57 859L1169.16 846.776L1166.54 843.32L1151.63 825.016H1164.56L1173 836.216L1175.82 839.928L1191.37 859H1178.57ZM1150.8 859L1166.03 839.8L1172.24 846.136L1163.53 859H1150.8ZM1175.76 844.216L1169.74 837.816L1178.32 825.016H1190.99L1175.76 844.216ZM1207.39 859V815.672H1217.63V859H1207.39ZM1199.84 833.976V825.016H1226.27V833.976H1199.84Z" fill="white"/>
</g>
<path id="Arrow 1" d="M1041 863.5C1036.31 863.5 1032.5 867.306 1032.5 872C1032.5 876.694 1036.31 880.5 1041 880.5V872V863.5ZM1318 872L1233 822.925V921.075L1318 872ZM1041 872V880.5H1241.5V872V863.5H1041V872Z" fill="#EF1044"/>
</g>
</g>
</svg>
