<svg width="1440" height="1024" viewBox="0 0 1440 1024" fill="none" xmlns="http://www.w3.org/2000/svg">
<g id="intro13" clip-path="url(#clip0_59_130)">
<rect width="1440" height="1024" fill="#333148"/>
<path id="part 1" d="M357.096 322.12V250.024H371.688L372.264 261.448L369.384 260.584C369.832 258.536 371.048 256.648 373.032 254.92C375.016 253.192 377.512 251.784 380.52 250.696C383.592 249.608 386.856 249.064 390.312 249.064C395.304 249.064 399.688 250.216 403.464 252.52C407.24 254.76 410.184 257.864 412.296 261.832C414.472 265.736 415.56 270.28 415.56 275.464C415.56 280.584 414.472 285.128 412.296 289.096C410.184 293.064 407.208 296.2 403.368 298.504C399.528 300.744 395.112 301.864 390.12 301.864C386.664 301.864 383.432 301.288 380.424 300.136C377.416 298.984 374.888 297.48 372.84 295.624C370.856 293.768 369.576 291.816 369 289.768L372.552 288.424V322.12H357.096ZM386.376 288.904C389.256 288.904 391.752 288.36 393.864 287.272C395.976 286.12 397.608 284.552 398.76 282.568C399.976 280.584 400.584 278.216 400.584 275.464C400.584 272.776 399.976 270.44 398.76 268.456C397.608 266.408 395.976 264.84 393.864 263.752C391.816 262.6 389.32 262.024 386.376 262.024C383.496 262.024 380.968 262.568 378.792 263.656C376.68 264.744 375.016 266.312 373.8 268.36C372.648 270.408 372.072 272.776 372.072 275.464C372.072 278.216 372.648 280.584 373.8 282.568C375.016 284.552 376.68 286.12 378.792 287.272C380.968 288.36 383.496 288.904 386.376 288.904ZM454.211 301.864C449.155 301.864 444.739 300.744 440.963 298.504C437.187 296.264 434.211 293.16 432.035 289.192C429.923 285.16 428.867 280.584 428.867 275.464C428.867 270.28 429.955 265.704 432.131 261.736C434.307 257.768 437.315 254.664 441.155 252.424C445.059 250.12 449.539 248.968 454.595 248.968C457.475 248.968 460.131 249.352 462.563 250.12C464.995 250.824 467.107 251.816 468.899 253.096C470.755 254.376 472.259 255.784 473.411 257.32C474.627 258.856 475.427 260.456 475.811 262.12H472.451V250.024H487.619V301H472.163V287.944L475.427 288.424C475.043 290.088 474.243 291.72 473.027 293.32C471.811 294.92 470.243 296.36 468.323 297.64C466.403 298.92 464.227 299.944 461.795 300.712C459.427 301.48 456.899 301.864 454.211 301.864ZM458.339 288.904C461.219 288.904 463.715 288.36 465.827 287.272C468.003 286.184 469.667 284.648 470.819 282.664C472.035 280.616 472.643 278.216 472.643 275.464C472.643 272.776 472.035 270.44 470.819 268.456C469.667 266.408 468.003 264.808 465.827 263.656C463.715 262.504 461.219 261.928 458.339 261.928C455.459 261.928 452.963 262.504 450.851 263.656C448.739 264.808 447.075 266.408 445.859 268.456C444.707 270.44 444.131 272.776 444.131 275.464C444.131 278.216 444.707 280.616 445.859 282.664C447.075 284.648 448.739 286.184 450.851 287.272C452.963 288.36 455.459 288.904 458.339 288.904ZM511.315 301V250.024H525.907L526.579 267.592L522.931 265.768C523.763 262.632 525.203 259.816 527.251 257.32C529.363 254.76 531.763 252.744 534.451 251.272C537.203 249.736 540.115 248.968 543.187 248.968C544.851 248.968 546.419 249.128 547.891 249.448C549.427 249.768 550.739 250.184 551.827 250.696L547.603 267.496C546.643 266.792 545.331 266.248 543.667 265.864C542.067 265.48 540.435 265.288 538.771 265.288C536.915 265.288 535.219 265.608 533.683 266.248C532.211 266.824 530.963 267.656 529.939 268.744C528.915 269.768 528.115 270.952 527.539 272.296C527.027 273.64 526.771 275.08 526.771 276.616V301H511.315ZM575.932 301V236.008H591.292V301H575.932ZM564.604 263.464V250.024H604.252V263.464H564.604ZM673.496 296.296V241.768L677.144 248.872L661.496 256.552L658.328 242.152L677.24 232.84H689.528V296.296H673.496ZM659.672 301V286.6H702.488V301H659.672Z" fill="white"/>
<path id="Vector 5" d="M1116.24 170.44L935.565 103.77L980.167 227.97L745.711 250.31L971.451 356.596L823.997 459.775L974.922 516.828L837.773 762.548L995.957 613.783L979.667 793.592L1074.39 625.315L1176.02 797.82L1208.98 593.485L1418.24 740.007L1317.04 530.76L1477.51 488.6L1323.77 353.827L1434.27 213.538L1247.22 245.123L1384.4 34.1333L1212.83 145.509L1111.38 -25.0484L1116.24 170.44Z" fill="#C63B3B"/>
<path id="Vector 6" d="M1102.48 231.284L1042.23 215.612L1069.01 282.216L987 302.925L1042.23 365.052L987 426.619L1042.23 487.067L1009.31 520.649L1042.23 536.321L1126.46 613L1192.85 507.776L1224.65 520.649L1310 450.687L1248.08 350.5L1294.38 302.925L1192.85 282.216L1205.68 204.418L1149.89 163L1102.48 231.284Z" fill="#EC5F46"/>
<path id="Vector 7" d="M1162.66 309.489V224L1102.45 270.334L1077.58 309.489H1037L1077.58 396.284L1047.47 426.303L1067.11 515.708L1131.9 564L1190.81 468.722L1234.66 476.553L1270 426.303L1216.99 326.457L1244.47 314.71L1162.66 309.489Z" fill="#FD9D49"/>
<g id="Group 4">
<g id="Vector" filter="url(#filter0_d_59_130)">
<path d="M184.246 463.996C189.515 440.672 222.714 440.672 227.983 463.996L236.541 501.874C239.712 515.912 229.05 529.267 214.672 529.267H197.557C183.179 529.267 172.517 515.912 175.688 501.874L184.246 463.996Z" fill="#3B5EC6"/>
<path d="M229.816 413.046C229.816 426.326 219.061 437.092 205.794 437.092C192.527 437.092 181.772 426.326 181.772 413.046C181.772 399.766 192.527 389 205.794 389C219.061 389 229.816 399.766 229.816 413.046Z" fill="#3B5EC6"/>
<path d="M210.599 517.565C210.599 511.013 215.904 505.702 222.45 505.702C228.995 505.702 234.3 511.013 234.3 517.565V545.137C234.3 551.689 228.995 557 222.45 557C215.904 557 210.599 551.689 210.599 545.137V517.565Z" fill="#3B5EC6"/>
<path d="M219.867 471.609C216.517 465.981 218.36 458.7 223.982 455.347C229.605 451.993 236.879 453.837 240.229 459.466L254.328 483.153C257.678 488.781 255.836 496.062 250.213 499.415C244.59 502.769 237.316 500.925 233.966 495.296L219.867 471.609Z" fill="#3B5EC6"/>
<path d="M171.362 459.548C174.635 453.874 181.883 451.93 187.551 455.206C193.219 458.482 195.161 465.737 191.889 471.411L178.116 495.289C174.844 500.963 167.596 502.907 161.927 499.631C156.259 496.355 154.317 489.1 157.59 483.427L171.362 459.548Z" fill="#3B5EC6"/>
<path d="M177.288 517.565C177.288 511.013 182.594 505.702 189.139 505.702C195.684 505.702 200.99 511.013 200.99 517.565V545.137C200.99 551.689 195.684 557 189.139 557C182.594 557 177.288 551.689 177.288 545.137V517.565Z" fill="#3B5EC6"/>
</g>
<g id="Vector_2" filter="url(#filter1_d_59_130)">
<path d="M418.528 463.996C423.85 440.672 457.381 440.672 462.703 463.996L471.346 501.874C474.549 515.912 463.78 529.267 449.259 529.267H431.972C417.451 529.267 406.682 515.912 409.885 501.874L418.528 463.996Z" fill="#3B5EC6"/>
<path d="M464.555 413.046C464.555 426.326 453.692 437.092 440.292 437.092C426.892 437.092 416.03 426.326 416.03 413.046C416.03 399.766 426.892 389 440.292 389C453.692 389 464.555 399.766 464.555 413.046Z" fill="#3B5EC6"/>
<path d="M445.145 517.565C445.145 511.013 450.504 505.702 457.114 505.702C463.725 505.702 469.083 511.013 469.083 517.565V545.137C469.083 551.689 463.725 557 457.114 557C450.504 557 445.145 551.689 445.145 545.137V517.565Z" fill="#3B5EC6"/>
<path d="M454.506 471.609C451.123 465.981 452.983 458.7 458.662 455.347C464.341 451.993 471.688 453.837 475.071 459.466L489.311 483.153C492.695 488.781 490.834 496.062 485.155 499.415C479.476 502.769 472.13 500.925 468.746 495.296L454.506 471.609Z" fill="#3B5EC6"/>
<path d="M405.516 459.548C408.821 453.874 416.142 451.93 421.867 455.206C427.591 458.482 429.553 465.737 426.248 471.411L412.337 495.289C409.032 500.963 401.712 502.907 395.987 499.631C390.262 496.355 388.3 489.1 391.606 483.427L405.516 459.548Z" fill="#3B5EC6"/>
<path d="M411.501 517.565C411.501 511.013 416.86 505.702 423.47 505.702C430.081 505.702 435.44 511.013 435.44 517.565V545.137C435.44 551.689 430.081 557 423.47 557C416.86 557 411.501 551.689 411.501 545.137V517.565Z" fill="#3B5EC6"/>
</g>
<g id="Vector_3" filter="url(#filter2_d_59_130)">
<path d="M301.528 463.996C306.85 440.672 340.381 440.672 345.703 463.996L354.346 501.874C357.549 515.912 346.78 529.267 332.259 529.267H314.972C300.451 529.267 289.682 515.912 292.885 501.874L301.528 463.996Z" fill="#3B5EC6"/>
<path d="M347.555 413.046C347.555 426.326 336.692 437.092 323.292 437.092C309.892 437.092 299.03 426.326 299.03 413.046C299.03 399.766 309.892 389 323.292 389C336.692 389 347.555 399.766 347.555 413.046Z" fill="#3B5EC6"/>
<path d="M328.145 517.565C328.145 511.013 333.504 505.702 340.114 505.702C346.725 505.702 352.083 511.013 352.083 517.565V545.137C352.083 551.689 346.725 557 340.114 557C333.504 557 328.145 551.689 328.145 545.137V517.565Z" fill="#3B5EC6"/>
<path d="M337.506 471.609C334.123 465.981 335.983 458.7 341.662 455.347C347.341 451.993 354.688 453.837 358.071 459.466L372.311 483.153C375.695 488.781 373.834 496.062 368.155 499.415C362.476 502.769 355.13 500.925 351.746 495.296L337.506 471.609Z" fill="#3B5EC6"/>
<path d="M288.516 459.548C291.821 453.874 299.142 451.93 304.867 455.206C310.591 458.482 312.553 465.737 309.248 471.411L295.337 495.289C292.032 500.963 284.712 502.907 278.987 499.631C273.262 496.355 271.3 489.1 274.606 483.427L288.516 459.548Z" fill="#3B5EC6"/>
<path d="M294.501 517.565C294.501 511.013 299.86 505.702 306.47 505.702C313.081 505.702 318.44 511.013 318.44 517.565V545.137C318.44 551.689 313.081 557 306.47 557C299.86 557 294.501 551.689 294.501 545.137V517.565Z" fill="#3B5EC6"/>
</g>
<g id="Vector_4" filter="url(#filter3_d_59_130)">
<path d="M536.246 463.996C541.515 440.672 574.714 440.672 579.983 463.996L588.541 501.874C591.712 515.912 581.05 529.267 566.672 529.267H549.557C535.179 529.267 524.517 515.912 527.688 501.874L536.246 463.996Z" fill="#3B5EC6"/>
<path d="M581.816 413.046C581.816 426.326 571.061 437.092 557.794 437.092C544.527 437.092 533.772 426.326 533.772 413.046C533.772 399.766 544.527 389 557.794 389C571.061 389 581.816 399.766 581.816 413.046Z" fill="#3B5EC6"/>
<path d="M562.599 517.565C562.599 511.013 567.904 505.702 574.45 505.702C580.995 505.702 586.3 511.013 586.3 517.565V545.137C586.3 551.689 580.995 557 574.45 557C567.904 557 562.599 551.689 562.599 545.137V517.565Z" fill="#3B5EC6"/>
<path d="M571.867 471.609C568.517 465.981 570.36 458.7 575.982 455.347C581.605 451.993 588.879 453.837 592.229 459.466L606.328 483.153C609.678 488.781 607.836 496.062 602.213 499.415C596.59 502.769 589.316 500.925 585.966 495.296L571.867 471.609Z" fill="#3B5EC6"/>
<path d="M523.362 459.548C526.635 453.874 533.883 451.93 539.551 455.206C545.219 458.482 547.161 465.737 543.889 471.411L530.116 495.289C526.844 500.963 519.596 502.907 513.927 499.631C508.259 496.355 506.317 489.1 509.59 483.427L523.362 459.548Z" fill="#3B5EC6"/>
<path d="M529.288 517.565C529.288 511.013 534.594 505.702 541.139 505.702C547.684 505.702 552.99 511.013 552.99 517.565V545.137C552.99 551.689 547.684 557 541.139 557C534.594 557 529.288 551.689 529.288 545.137V517.565Z" fill="#3B5EC6"/>
</g>
<g id="Vector_5" filter="url(#filter4_d_59_130)">
<path d="M83.3303 500.388C89.548 472.899 128.722 472.899 134.94 500.388L145.038 545.03C148.78 561.575 136.199 577.315 119.233 577.315H99.0371C82.0712 577.315 69.4901 561.575 73.2324 545.03L83.3303 500.388Z" fill="#6A94E0"/>
<path d="M137.103 440.34C137.103 455.991 124.412 468.679 108.757 468.679C93.102 468.679 80.411 455.991 80.411 440.34C80.411 424.688 93.102 412 108.757 412C124.412 412 137.103 424.688 137.103 440.34Z" fill="#6A94E0"/>
<path d="M114.426 563.523C114.426 555.801 120.687 549.542 128.41 549.542C136.134 549.542 142.395 555.801 142.395 563.523V596.019C142.395 603.741 136.134 610 128.41 610C120.687 610 114.426 603.741 114.426 596.019V563.523Z" fill="#6A94E0"/>
<path d="M125.364 509.361C121.41 502.728 123.584 494.146 130.219 490.194C136.854 486.242 145.437 488.416 149.39 495.049L166.027 522.966C169.98 529.599 167.806 538.18 161.171 542.132C154.537 546.085 145.953 543.911 142 537.278L125.364 509.361Z" fill="#6A94E0"/>
<path d="M68.1276 495.146C71.9892 488.459 80.5418 486.168 87.2303 490.029C93.9188 493.889 96.2104 502.44 92.3488 509.127L76.097 537.269C72.2354 543.956 63.6829 546.248 56.9944 542.387C50.3059 538.526 48.0142 529.975 51.8758 523.289L68.1276 495.146Z" fill="#6A94E0"/>
<path d="M75.1197 563.523C75.1197 555.801 81.3806 549.542 89.1038 549.542C96.827 549.542 103.088 555.801 103.088 563.523V596.019C103.088 603.741 96.827 610 89.1038 610C81.3806 610 75.1197 603.741 75.1197 596.019V563.523Z" fill="#6A94E0"/>
</g>
<g id="Vector_6" filter="url(#filter5_d_59_130)">
<path d="M359.33 500.388C365.548 472.899 404.722 472.899 410.94 500.388L421.038 545.03C424.78 561.575 412.199 577.315 395.233 577.315H375.037C358.071 577.315 345.49 561.575 349.232 545.03L359.33 500.388Z" fill="#6A94E0"/>
<path d="M413.103 440.34C413.103 455.991 400.412 468.679 384.757 468.679C369.102 468.679 356.411 455.991 356.411 440.34C356.411 424.688 369.102 412 384.757 412C400.412 412 413.103 424.688 413.103 440.34Z" fill="#6A94E0"/>
<path d="M390.426 563.523C390.426 555.801 396.687 549.542 404.41 549.542C412.134 549.542 418.395 555.801 418.395 563.523V596.019C418.395 603.741 412.134 610 404.41 610C396.687 610 390.426 603.741 390.426 596.019V563.523Z" fill="#6A94E0"/>
<path d="M401.364 509.361C397.41 502.728 399.584 494.146 406.219 490.194C412.854 486.242 421.437 488.416 425.39 495.049L442.027 522.966C445.98 529.599 443.806 538.18 437.171 542.132C430.537 546.085 421.953 543.911 418 537.278L401.364 509.361Z" fill="#6A94E0"/>
<path d="M344.128 495.146C347.989 488.459 356.542 486.168 363.23 490.029C369.919 493.889 372.21 502.44 368.349 509.127L352.097 537.269C348.235 543.956 339.683 546.248 332.994 542.387C326.306 538.526 324.014 529.975 327.876 523.289L344.128 495.146Z" fill="#6A94E0"/>
<path d="M351.12 563.523C351.12 555.801 357.381 549.542 365.104 549.542C372.827 549.542 379.088 555.801 379.088 563.523V596.019C379.088 603.741 372.827 610 365.104 610C357.381 610 351.12 603.741 351.12 596.019V563.523Z" fill="#6A94E0"/>
</g>
<g id="Vector_7" filter="url(#filter6_d_59_130)">
<path d="M221.33 500.388C227.548 472.899 266.722 472.899 272.94 500.388L283.038 545.03C286.78 561.575 274.199 577.315 257.233 577.315H237.037C220.071 577.315 207.49 561.575 211.232 545.03L221.33 500.388Z" fill="#6A94E0"/>
<path d="M275.103 440.34C275.103 455.991 262.412 468.679 246.757 468.679C231.102 468.679 218.411 455.991 218.411 440.34C218.411 424.688 231.102 412 246.757 412C262.412 412 275.103 424.688 275.103 440.34Z" fill="#6A94E0"/>
<path d="M252.426 563.523C252.426 555.801 258.687 549.542 266.41 549.542C274.134 549.542 280.395 555.801 280.395 563.523V596.019C280.395 603.741 274.134 610 266.41 610C258.687 610 252.426 603.741 252.426 596.019V563.523Z" fill="#6A94E0"/>
<path d="M263.364 509.361C259.41 502.728 261.584 494.146 268.219 490.194C274.854 486.242 283.437 488.416 287.39 495.049L304.027 522.966C307.98 529.599 305.806 538.18 299.171 542.132C292.537 546.085 283.953 543.911 280 537.278L263.364 509.361Z" fill="#6A94E0"/>
<path d="M206.128 495.146C209.989 488.459 218.542 486.168 225.23 490.029C231.919 493.889 234.21 502.44 230.349 509.127L214.097 537.269C210.235 543.956 201.683 546.248 194.994 542.387C188.306 538.526 186.014 529.975 189.876 523.289L206.128 495.146Z" fill="#6A94E0"/>
<path d="M213.12 563.523C213.12 555.801 219.381 549.542 227.104 549.542C234.827 549.542 241.088 555.801 241.088 563.523V596.019C241.088 603.741 234.827 610 227.104 610C219.381 610 213.12 603.741 213.12 596.019V563.523Z" fill="#6A94E0"/>
</g>
<g id="Vector_8" filter="url(#filter7_d_59_130)">
<path d="M279.33 546.388C285.548 518.899 324.722 518.899 330.94 546.388L341.038 591.03C344.78 607.575 332.199 623.315 315.233 623.315H295.037C278.071 623.315 265.49 607.575 269.232 591.03L279.33 546.388Z" fill="#8DBBFB"/>
<path d="M333.103 486.34C333.103 501.991 320.412 514.679 304.757 514.679C289.102 514.679 276.411 501.991 276.411 486.34C276.411 470.688 289.102 458 304.757 458C320.412 458 333.103 470.688 333.103 486.34Z" fill="#8DBBFB"/>
<path d="M310.426 609.523C310.426 601.801 316.687 595.542 324.41 595.542C332.134 595.542 338.395 601.801 338.395 609.523V642.019C338.395 649.741 332.134 656 324.41 656C316.687 656 310.426 649.741 310.426 642.019V609.523Z" fill="#8DBBFB"/>
<path d="M321.364 555.361C317.41 548.728 319.584 540.146 326.219 536.194C332.854 532.242 341.437 534.416 345.39 541.049L362.027 568.966C365.98 575.599 363.806 584.18 357.171 588.132C350.537 592.085 341.953 589.911 338 583.278L321.364 555.361Z" fill="#8DBBFB"/>
<path d="M264.128 541.146C267.989 534.459 276.542 532.168 283.23 536.029C289.919 539.889 292.21 548.44 288.349 555.127L272.097 583.269C268.235 589.956 259.683 592.248 252.994 588.387C246.306 584.526 244.014 575.975 247.876 569.289L264.128 541.146Z" fill="#8DBBFB"/>
<path d="M271.12 609.523C271.12 601.801 277.381 595.542 285.104 595.542C292.827 595.542 299.088 601.801 299.088 609.523V642.019C299.088 649.741 292.827 656 285.104 656C277.381 656 271.12 649.741 271.12 642.019V609.523Z" fill="#8DBBFB"/>
</g>
<g id="Vector_9" filter="url(#filter8_d_59_130)">
<path d="M497.33 500.388C503.548 472.899 542.722 472.899 548.94 500.388L559.038 545.03C562.78 561.575 550.199 577.315 533.233 577.315H513.037C496.071 577.315 483.49 561.575 487.232 545.03L497.33 500.388Z" fill="#6A94E0"/>
<path d="M551.103 440.34C551.103 455.991 538.412 468.679 522.757 468.679C507.102 468.679 494.411 455.991 494.411 440.34C494.411 424.688 507.102 412 522.757 412C538.412 412 551.103 424.688 551.103 440.34Z" fill="#6A94E0"/>
<path d="M528.426 563.523C528.426 555.801 534.687 549.542 542.41 549.542C550.134 549.542 556.395 555.801 556.395 563.523V596.019C556.395 603.741 550.134 610 542.41 610C534.687 610 528.426 603.741 528.426 596.019V563.523Z" fill="#6A94E0"/>
<path d="M539.364 509.361C535.41 502.728 537.584 494.146 544.219 490.194C550.854 486.242 559.437 488.416 563.39 495.049L580.027 522.966C583.98 529.599 581.806 538.18 575.171 542.132C568.537 546.085 559.953 543.911 556 537.278L539.364 509.361Z" fill="#6A94E0"/>
<path d="M482.128 495.146C485.989 488.459 494.542 486.168 501.23 490.029C507.919 493.889 510.21 502.44 506.349 509.127L490.097 537.269C486.235 543.956 477.683 546.248 470.994 542.387C464.306 538.526 462.014 529.975 465.876 523.289L482.128 495.146Z" fill="#6A94E0"/>
<path d="M489.12 563.523C489.12 555.801 495.381 549.542 503.104 549.542C510.827 549.542 517.088 555.801 517.088 563.523V596.019C517.088 603.741 510.827 610 503.104 610C495.381 610 489.12 603.741 489.12 596.019V563.523Z" fill="#6A94E0"/>
</g>
<g id="Vector_10" filter="url(#filter9_d_59_130)">
<path d="M141.33 546.388C147.548 518.899 186.722 518.899 192.94 546.388L203.038 591.03C206.78 607.575 194.199 623.315 177.233 623.315H157.037C140.071 623.315 127.49 607.575 131.232 591.03L141.33 546.388Z" fill="#8DBBFB"/>
<path d="M195.103 486.34C195.103 501.991 182.412 514.679 166.757 514.679C151.102 514.679 138.411 501.991 138.411 486.34C138.411 470.688 151.102 458 166.757 458C182.412 458 195.103 470.688 195.103 486.34Z" fill="#8DBBFB"/>
<path d="M172.426 609.523C172.426 601.801 178.687 595.542 186.41 595.542C194.134 595.542 200.395 601.801 200.395 609.523V642.019C200.395 649.741 194.134 656 186.41 656C178.687 656 172.426 649.741 172.426 642.019V609.523Z" fill="#8DBBFB"/>
<path d="M183.364 555.361C179.41 548.728 181.584 540.146 188.219 536.194C194.854 532.242 203.437 534.416 207.39 541.049L224.027 568.966C227.98 575.599 225.806 584.18 219.171 588.132C212.537 592.085 203.953 589.911 200 583.278L183.364 555.361Z" fill="#8DBBFB"/>
<path d="M126.128 541.146C129.989 534.459 138.542 532.168 145.23 536.029C151.919 539.889 154.21 548.44 150.349 555.127L134.097 583.269C130.235 589.956 121.683 592.248 114.994 588.387C108.306 584.526 106.014 575.975 109.876 569.289L126.128 541.146Z" fill="#8DBBFB"/>
<path d="M133.12 609.523C133.12 601.801 139.381 595.542 147.104 595.542C154.827 595.542 161.088 601.801 161.088 609.523V642.019C161.088 649.741 154.827 656 147.104 656C139.381 656 133.12 649.741 133.12 642.019V609.523Z" fill="#8DBBFB"/>
</g>
<g id="Vector_11" filter="url(#filter10_d_59_130)">
<path d="M417.33 546.388C423.548 518.899 462.722 518.899 468.94 546.388L479.038 591.03C482.78 607.575 470.199 623.315 453.233 623.315H433.037C416.071 623.315 403.49 607.575 407.232 591.03L417.33 546.388Z" fill="#8DBBFB"/>
<path d="M471.103 486.34C471.103 501.991 458.412 514.679 442.757 514.679C427.102 514.679 414.411 501.991 414.411 486.34C414.411 470.688 427.102 458 442.757 458C458.412 458 471.103 470.688 471.103 486.34Z" fill="#8DBBFB"/>
<path d="M448.426 609.523C448.426 601.801 454.687 595.542 462.41 595.542C470.134 595.542 476.395 601.801 476.395 609.523V642.019C476.395 649.741 470.134 656 462.41 656C454.687 656 448.426 649.741 448.426 642.019V609.523Z" fill="#8DBBFB"/>
<path d="M459.364 555.361C455.41 548.728 457.584 540.146 464.219 536.194C470.854 532.242 479.437 534.416 483.39 541.049L500.027 568.966C503.98 575.599 501.806 584.18 495.171 588.132C488.537 592.085 479.953 589.911 476 583.278L459.364 555.361Z" fill="#8DBBFB"/>
<path d="M402.128 541.146C405.989 534.459 414.542 532.168 421.23 536.029C427.919 539.889 430.21 548.44 426.349 555.127L410.097 583.269C406.235 589.956 397.683 592.248 390.994 588.387C384.306 584.526 382.014 575.975 385.876 569.289L402.128 541.146Z" fill="#8DBBFB"/>
<path d="M409.12 609.523C409.12 601.801 415.381 595.542 423.104 595.542C430.827 595.542 437.088 601.801 437.088 609.523V642.019C437.088 649.741 430.827 656 423.104 656C415.381 656 409.12 649.741 409.12 642.019V609.523Z" fill="#8DBBFB"/>
</g>
<g id="Vector_12" filter="url(#filter11_d_59_130)">
<path d="M555.33 546.388C561.548 518.899 600.722 518.899 606.94 546.388L617.038 591.03C620.78 607.575 608.199 623.315 591.233 623.315H571.037C554.071 623.315 541.49 607.575 545.232 591.03L555.33 546.388Z" fill="#8DBBFB"/>
<path d="M609.103 486.34C609.103 501.991 596.412 514.679 580.757 514.679C565.102 514.679 552.411 501.991 552.411 486.34C552.411 470.688 565.102 458 580.757 458C596.412 458 609.103 470.688 609.103 486.34Z" fill="#8DBBFB"/>
<path d="M586.426 609.523C586.426 601.801 592.687 595.542 600.41 595.542C608.134 595.542 614.395 601.801 614.395 609.523V642.019C614.395 649.741 608.134 656 600.41 656C592.687 656 586.426 649.741 586.426 642.019V609.523Z" fill="#8DBBFB"/>
<path d="M597.364 555.361C593.41 548.728 595.584 540.146 602.219 536.194C608.854 532.242 617.437 534.416 621.39 541.049L638.027 568.966C641.98 575.599 639.806 584.18 633.171 588.132C626.537 592.085 617.953 589.911 614 583.278L597.364 555.361Z" fill="#8DBBFB"/>
<path d="M540.128 541.146C543.989 534.459 552.542 532.168 559.23 536.029C565.919 539.889 568.21 548.44 564.349 555.127L548.097 583.269C544.235 589.956 535.683 592.248 528.994 588.387C522.306 584.526 520.014 575.975 523.876 569.289L540.128 541.146Z" fill="#8DBBFB"/>
<path d="M547.12 609.523C547.12 601.801 553.381 595.542 561.104 595.542C568.827 595.542 575.088 601.801 575.088 609.523V642.019C575.088 649.741 568.827 656 561.104 656C553.381 656 547.12 649.741 547.12 642.019V609.523Z" fill="#8DBBFB"/>
</g>
</g>
</g>
<defs>
<filter id="filter0_d_59_130" x="152" y="389" width="108" height="176" filterUnits="userSpaceOnUse" color-interpolation-filters="sRGB">
<feFlood flood-opacity="0" result="BackgroundImageFix"/>
<feColorMatrix in="SourceAlpha" type="matrix" values="0 0 0 0 0 0 0 0 0 0 0 0 0 0 0 0 0 0 127 0" result="hardAlpha"/>
<feOffset dy="4"/>
<feGaussianBlur stdDeviation="2"/>
<feComposite in2="hardAlpha" operator="out"/>
<feColorMatrix type="matrix" values="0 0 0 0 0 0 0 0 0 0 0 0 0 0 0 0 0 0 0.25 0"/>
<feBlend mode="normal" in2="BackgroundImageFix" result="effect1_dropShadow_59_130"/>
<feBlend mode="normal" in="SourceGraphic" in2="effect1_dropShadow_59_130" result="shape"/>
</filter>
<filter id="filter1_d_59_130" x="386" y="389" width="109" height="176" filterUnits="userSpaceOnUse" color-interpolation-filters="sRGB">
<feFlood flood-opacity="0" result="BackgroundImageFix"/>
<feColorMatrix in="SourceAlpha" type="matrix" values="0 0 0 0 0 0 0 0 0 0 0 0 0 0 0 0 0 0 127 0" result="hardAlpha"/>
<feOffset dy="4"/>
<feGaussianBlur stdDeviation="2"/>
<feComposite in2="hardAlpha" operator="out"/>
<feColorMatrix type="matrix" values="0 0 0 0 0 0 0 0 0 0 0 0 0 0 0 0 0 0 0.25 0"/>
<feBlend mode="normal" in2="BackgroundImageFix" result="effect1_dropShadow_59_130"/>
<feBlend mode="normal" in="SourceGraphic" in2="effect1_dropShadow_59_130" result="shape"/>
</filter>
<filter id="filter2_d_59_130" x="269" y="389" width="109" height="176" filterUnits="userSpaceOnUse" color-interpolation-filters="sRGB">
<feFlood flood-opacity="0" result="BackgroundImageFix"/>
<feColorMatrix in="SourceAlpha" type="matrix" values="0 0 0 0 0 0 0 0 0 0 0 0 0 0 0 0 0 0 127 0" result="hardAlpha"/>
<feOffset dy="4"/>
<feGaussianBlur stdDeviation="2"/>
<feComposite in2="hardAlpha" operator="out"/>
<feColorMatrix type="matrix" values="0 0 0 0 0 0 0 0 0 0 0 0 0 0 0 0 0 0 0.25 0"/>
<feBlend mode="normal" in2="BackgroundImageFix" result="effect1_dropShadow_59_130"/>
<feBlend mode="normal" in="SourceGraphic" in2="effect1_dropShadow_59_130" result="shape"/>
</filter>
<filter id="filter3_d_59_130" x="504" y="389" width="108" height="176" filterUnits="userSpaceOnUse" color-interpolation-filters="sRGB">
<feFlood flood-opacity="0" result="BackgroundImageFix"/>
<feColorMatrix in="SourceAlpha" type="matrix" values="0 0 0 0 0 0 0 0 0 0 0 0 0 0 0 0 0 0 127 0" result="hardAlpha"/>
<feOffset dy="4"/>
<feGaussianBlur stdDeviation="2"/>
<feComposite in2="hardAlpha" operator="out"/>
<feColorMatrix type="matrix" values="0 0 0 0 0 0 0 0 0 0 0 0 0 0 0 0 0 0 0.25 0"/>
<feBlend mode="normal" in2="BackgroundImageFix" result="effect1_dropShadow_59_130"/>
<feBlend mode="normal" in="SourceGraphic" in2="effect1_dropShadow_59_130" result="shape"/>
</filter>
<filter id="filter4_d_59_130" x="46" y="412" width="126" height="206" filterUnits="userSpaceOnUse" color-interpolation-filters="sRGB">
<feFlood flood-opacity="0" result="BackgroundImageFix"/>
<feColorMatrix in="SourceAlpha" type="matrix" values="0 0 0 0 0 0 0 0 0 0 0 0 0 0 0 0 0 0 127 0" result="hardAlpha"/>
<feOffset dy="4"/>
<feGaussianBlur stdDeviation="2"/>
<feComposite in2="hardAlpha" operator="out"/>
<feColorMatrix type="matrix" values="0 0 0 0 0 0 0 0 0 0 0 0 0 0 0 0 0 0 0.25 0"/>
<feBlend mode="normal" in2="BackgroundImageFix" result="effect1_dropShadow_59_130"/>
<feBlend mode="normal" in="SourceGraphic" in2="effect1_dropShadow_59_130" result="shape"/>
</filter>
<filter id="filter5_d_59_130" x="322" y="412" width="126" height="206" filterUnits="userSpaceOnUse" color-interpolation-filters="sRGB">
<feFlood flood-opacity="0" result="BackgroundImageFix"/>
<feColorMatrix in="SourceAlpha" type="matrix" values="0 0 0 0 0 0 0 0 0 0 0 0 0 0 0 0 0 0 127 0" result="hardAlpha"/>
<feOffset dy="4"/>
<feGaussianBlur stdDeviation="2"/>
<feComposite in2="hardAlpha" operator="out"/>
<feColorMatrix type="matrix" values="0 0 0 0 0 0 0 0 0 0 0 0 0 0 0 0 0 0 0.25 0"/>
<feBlend mode="normal" in2="BackgroundImageFix" result="effect1_dropShadow_59_130"/>
<feBlend mode="normal" in="SourceGraphic" in2="effect1_dropShadow_59_130" result="shape"/>
</filter>
<filter id="filter6_d_59_130" x="184" y="412" width="126" height="206" filterUnits="userSpaceOnUse" color-interpolation-filters="sRGB">
<feFlood flood-opacity="0" result="BackgroundImageFix"/>
<feColorMatrix in="SourceAlpha" type="matrix" values="0 0 0 0 0 0 0 0 0 0 0 0 0 0 0 0 0 0 127 0" result="hardAlpha"/>
<feOffset dy="4"/>
<feGaussianBlur stdDeviation="2"/>
<feComposite in2="hardAlpha" operator="out"/>
<feColorMatrix type="matrix" values="0 0 0 0 0 0 0 0 0 0 0 0 0 0 0 0 0 0 0.25 0"/>
<feBlend mode="normal" in2="BackgroundImageFix" result="effect1_dropShadow_59_130"/>
<feBlend mode="normal" in="SourceGraphic" in2="effect1_dropShadow_59_130" result="shape"/>
</filter>
<filter id="filter7_d_59_130" x="242" y="458" width="126" height="206" filterUnits="userSpaceOnUse" color-interpolation-filters="sRGB">
<feFlood flood-opacity="0" result="BackgroundImageFix"/>
<feColorMatrix in="SourceAlpha" type="matrix" values="0 0 0 0 0 0 0 0 0 0 0 0 0 0 0 0 0 0 127 0" result="hardAlpha"/>
<feOffset dy="4"/>
<feGaussianBlur stdDeviation="2"/>
<feComposite in2="hardAlpha" operator="out"/>
<feColorMatrix type="matrix" values="0 0 0 0 0 0 0 0 0 0 0 0 0 0 0 0 0 0 0.25 0"/>
<feBlend mode="normal" in2="BackgroundImageFix" result="effect1_dropShadow_59_130"/>
<feBlend mode="normal" in="SourceGraphic" in2="effect1_dropShadow_59_130" result="shape"/>
</filter>
<filter id="filter8_d_59_130" x="460" y="412" width="126" height="206" filterUnits="userSpaceOnUse" color-interpolation-filters="sRGB">
<feFlood flood-opacity="0" result="BackgroundImageFix"/>
<feColorMatrix in="SourceAlpha" type="matrix" values="0 0 0 0 0 0 0 0 0 0 0 0 0 0 0 0 0 0 127 0" result="hardAlpha"/>
<feOffset dy="4"/>
<feGaussianBlur stdDeviation="2"/>
<feComposite in2="hardAlpha" operator="out"/>
<feColorMatrix type="matrix" values="0 0 0 0 0 0 0 0 0 0 0 0 0 0 0 0 0 0 0.25 0"/>
<feBlend mode="normal" in2="BackgroundImageFix" result="effect1_dropShadow_59_130"/>
<feBlend mode="normal" in="SourceGraphic" in2="effect1_dropShadow_59_130" result="shape"/>
</filter>
<filter id="filter9_d_59_130" x="104" y="458" width="126" height="206" filterUnits="userSpaceOnUse" color-interpolation-filters="sRGB">
<feFlood flood-opacity="0" result="BackgroundImageFix"/>
<feColorMatrix in="SourceAlpha" type="matrix" values="0 0 0 0 0 0 0 0 0 0 0 0 0 0 0 0 0 0 127 0" result="hardAlpha"/>
<feOffset dy="4"/>
<feGaussianBlur stdDeviation="2"/>
<feComposite in2="hardAlpha" operator="out"/>
<feColorMatrix type="matrix" values="0 0 0 0 0 0 0 0 0 0 0 0 0 0 0 0 0 0 0.25 0"/>
<feBlend mode="normal" in2="BackgroundImageFix" result="effect1_dropShadow_59_130"/>
<feBlend mode="normal" in="SourceGraphic" in2="effect1_dropShadow_59_130" result="shape"/>
</filter>
<filter id="filter10_d_59_130" x="380" y="458" width="126" height="206" filterUnits="userSpaceOnUse" color-interpolation-filters="sRGB">
<feFlood flood-opacity="0" result="BackgroundImageFix"/>
<feColorMatrix in="SourceAlpha" type="matrix" values="0 0 0 0 0 0 0 0 0 0 0 0 0 0 0 0 0 0 127 0" result="hardAlpha"/>
<feOffset dy="4"/>
<feGaussianBlur stdDeviation="2"/>
<feComposite in2="hardAlpha" operator="out"/>
<feColorMatrix type="matrix" values="0 0 0 0 0 0 0 0 0 0 0 0 0 0 0 0 0 0 0.25 0"/>
<feBlend mode="normal" in2="BackgroundImageFix" result="effect1_dropShadow_59_130"/>
<feBlend mode="normal" in="SourceGraphic" in2="effect1_dropShadow_59_130" result="shape"/>
</filter>
<filter id="filter11_d_59_130" x="518" y="458" width="126" height="206" filterUnits="userSpaceOnUse" color-interpolation-filters="sRGB">
<feFlood flood-opacity="0" result="BackgroundImageFix"/>
<feColorMatrix in="SourceAlpha" type="matrix" values="0 0 0 0 0 0 0 0 0 0 0 0 0 0 0 0 0 0 127 0" result="hardAlpha"/>
<feOffset dy="4"/>
<feGaussianBlur stdDeviation="2"/>
<feComposite in2="hardAlpha" operator="out"/>
<feColorMatrix type="matrix" values="0 0 0 0 0 0 0 0 0 0 0 0 0 0 0 0 0 0 0.25 0"/>
<feBlend mode="normal" in2="BackgroundImageFix" result="effect1_dropShadow_59_130"/>
<feBlend mode="normal" in="SourceGraphic" in2="effect1_dropShadow_59_130" result="shape"/>
</filter>
<clipPath id="clip0_59_130">
<rect width="1440" height="1024" fill="white"/>
</clipPath>
</defs>
</svg>
