<svg width="1440" height="1024" viewBox="0 0 1440 1024" fill="none" xmlns="http://www.w3.org/2000/svg">
<g id="intro5">
<rect width="1440" height="1024" fill="#333148"/>
<path id="BURN" d="M477.265 566V461H529.015C537.015 461 543.765 462.05 549.265 464.15C554.765 466.15 558.915 469.1 561.715 473C564.615 476.8 566.065 481.4 566.065 486.8C566.065 492.7 564.465 497.75 561.265 501.95C558.065 506.05 553.365 508.8 547.165 510.2L547.315 507.5C551.915 508.5 556.015 510.2 559.615 512.6C563.315 514.9 566.215 517.9 568.315 521.6C570.515 525.2 571.615 529.4 571.615 534.2C571.615 539.9 570.515 544.8 568.315 548.9C566.115 552.9 563.115 556.2 559.315 558.8C555.515 561.3 551.215 563.15 546.415 564.35C541.715 565.45 536.715 566 531.415 566H477.265ZM501.265 544.7H531.115C534.215 544.7 536.865 544.3 539.065 543.5C541.365 542.6 543.165 541.3 544.465 539.6C545.865 537.8 546.565 535.6 546.565 533C546.565 530.3 545.765 528.15 544.165 526.55C542.665 524.95 540.665 523.8 538.165 523.1C535.765 522.3 533.165 521.9 530.365 521.9H501.265V544.7ZM501.265 502.85H526.915C529.715 502.85 532.165 502.45 534.265 501.65C536.465 500.75 538.115 499.55 539.215 498.05C540.415 496.45 541.015 494.55 541.015 492.35C541.015 489.05 539.665 486.55 536.965 484.85C534.265 483.15 530.615 482.3 526.015 482.3H501.265V502.85ZM649.637 566.9C639.937 566.9 631.387 564.95 623.987 561.05C616.587 557.15 610.787 551.8 606.587 545C602.487 538.2 600.437 530.45 600.437 521.75V461H626.237V520.7C626.237 525.2 627.237 529.25 629.237 532.85C631.337 536.45 634.137 539.3 637.637 541.4C641.137 543.4 645.137 544.4 649.637 544.4C654.337 544.4 658.437 543.4 661.937 541.4C665.537 539.3 668.387 536.45 670.487 532.85C672.687 529.25 673.787 525.2 673.787 520.7V461H698.687V521.75C698.687 530.45 696.587 538.2 692.387 545C688.287 551.8 682.537 557.15 675.137 561.05C667.737 564.95 659.237 566.9 649.637 566.9ZM734.345 566V461H786.995C794.395 461 800.895 462.45 806.495 465.35C812.095 468.15 816.445 472.05 819.545 477.05C822.645 482.05 824.195 487.85 824.195 494.45C824.195 501.15 822.545 507.15 819.245 512.45C816.045 517.65 811.595 521.8 805.895 524.9C800.295 527.9 793.995 529.4 786.995 529.4H758.645V566H734.345ZM800.045 566L769.745 518.6L796.145 514.85L829.445 566H800.045ZM758.645 509.9H784.445C787.245 509.9 789.695 509.3 791.795 508.1C793.995 506.9 795.695 505.25 796.895 503.15C798.195 501.05 798.845 498.6 798.845 495.8C798.845 493.1 798.145 490.75 796.745 488.75C795.445 486.65 793.595 485.05 791.195 483.95C788.895 482.85 786.145 482.3 782.945 482.3H758.645V509.9ZM858.564 566V461H881.964L945.414 536L941.064 535.25C940.464 531.75 940.014 528.4 939.714 525.2C939.414 522 939.114 518.9 938.814 515.9C938.614 512.9 938.414 509.9 938.214 506.9C938.114 503.9 938.064 500.75 938.064 497.45C938.064 494.15 938.064 490.65 938.064 486.95V461H962.814V566H939.114L873.264 488.6L880.314 489.65C880.614 493.15 880.914 496.3 881.214 499.1C881.614 501.9 881.914 504.55 882.114 507.05C882.414 509.45 882.614 511.9 882.714 514.4C882.914 516.8 883.064 519.35 883.164 522.05C883.264 524.75 883.314 527.7 883.314 530.9V566H858.564Z" fill="white"/>
<g id="next">
<g id="Next">
<path id="Next_2" d="M1047.81 859V814.2H1057.79L1084.86 846.2L1083.01 845.88C1082.75 844.387 1082.56 842.957 1082.43 841.592C1082.3 840.227 1082.18 838.904 1082.05 837.624C1081.96 836.344 1081.88 835.064 1081.79 833.784C1081.75 832.504 1081.73 831.16 1081.73 829.752C1081.73 828.344 1081.73 826.851 1081.73 825.272V814.2H1092.29V859H1082.18L1054.08 825.976L1057.09 826.424C1057.22 827.917 1057.34 829.261 1057.47 830.456C1057.64 831.651 1057.77 832.781 1057.86 833.848C1057.98 834.872 1058.07 835.917 1058.11 836.984C1058.2 838.008 1058.26 839.096 1058.3 840.248C1058.35 841.4 1058.37 842.659 1058.37 844.024V859H1047.81ZM1124.89 859.64C1120.76 859.64 1117.13 858.893 1114.01 857.4C1110.94 855.864 1108.55 853.795 1106.85 851.192C1105.14 848.547 1104.29 845.539 1104.29 842.168C1104.29 839.48 1104.78 837.048 1105.76 834.872C1106.74 832.696 1108.11 830.819 1109.85 829.24C1111.6 827.661 1113.65 826.445 1116 825.592C1118.35 824.739 1120.88 824.312 1123.61 824.312C1126.26 824.312 1128.69 824.739 1130.91 825.592C1133.13 826.403 1135.05 827.576 1136.67 829.112C1138.33 830.648 1139.61 832.461 1140.51 834.552C1141.41 836.643 1141.81 838.947 1141.73 841.464L1141.66 844.344H1111.01L1109.53 838.392H1133.34L1132.25 839.672V838.392C1132.13 837.325 1131.66 836.365 1130.85 835.512C1130.08 834.659 1129.08 833.997 1127.84 833.528C1126.6 833.016 1125.24 832.76 1123.74 832.76C1121.82 832.76 1120.12 833.08 1118.62 833.72C1117.13 834.317 1115.96 835.256 1115.1 836.536C1114.29 837.816 1113.89 839.437 1113.89 841.4C1113.89 843.277 1114.38 844.92 1115.36 846.328C1116.38 847.736 1117.81 848.845 1119.65 849.656C1121.52 850.467 1123.72 850.872 1126.24 850.872C1128.41 850.872 1130.23 850.616 1131.68 850.104C1133.17 849.549 1134.52 848.867 1135.71 848.056L1140.32 854.712C1138.91 855.779 1137.35 856.696 1135.65 857.464C1133.98 858.189 1132.23 858.723 1130.4 859.064C1128.61 859.448 1126.77 859.64 1124.89 859.64ZM1178.57 859L1169.16 846.776L1166.54 843.32L1151.63 825.016H1164.56L1173 836.216L1175.82 839.928L1191.37 859H1178.57ZM1150.8 859L1166.03 839.8L1172.24 846.136L1163.53 859H1150.8ZM1175.76 844.216L1169.74 837.816L1178.32 825.016H1190.99L1175.76 844.216ZM1207.39 859V815.672H1217.63V859H1207.39ZM1199.84 833.976V825.016H1226.27V833.976H1199.84Z" fill="white"/>
</g>
<path id="Arrow 1" d="M1041 863.5C1036.31 863.5 1032.5 867.306 1032.5 872C1032.5 876.694 1036.31 880.5 1041 880.5V872V863.5ZM1318 872L1233 822.925V921.075L1318 872ZM1041 872V880.5H1241.5V872V863.5H1041V872Z" fill="#EF1044"/>
</g>
</g>
</svg>
