<svg width="1440" height="1024" viewBox="0 0 1440 1024" fill="none" xmlns="http://www.w3.org/2000/svg">
<g id="intro4">
<rect width="1440" height="1024" fill="#333148"/>
<path id="part 1" d="M357.096 322.12V250.024H371.688L372.264 261.448L369.384 260.584C369.832 258.536 371.048 256.648 373.032 254.92C375.016 253.192 377.512 251.784 380.52 250.696C383.592 249.608 386.856 249.064 390.312 249.064C395.304 249.064 399.688 250.216 403.464 252.52C407.24 254.76 410.184 257.864 412.296 261.832C414.472 265.736 415.56 270.28 415.56 275.464C415.56 280.584 414.472 285.128 412.296 289.096C410.184 293.064 407.208 296.2 403.368 298.504C399.528 300.744 395.112 301.864 390.12 301.864C386.664 301.864 383.432 301.288 380.424 300.136C377.416 298.984 374.888 297.48 372.84 295.624C370.856 293.768 369.576 291.816 369 289.768L372.552 288.424V322.12H357.096ZM386.376 288.904C389.256 288.904 391.752 288.36 393.864 287.272C395.976 286.12 397.608 284.552 398.76 282.568C399.976 280.584 400.584 278.216 400.584 275.464C400.584 272.776 399.976 270.44 398.76 268.456C397.608 266.408 395.976 264.84 393.864 263.752C391.816 262.6 389.32 262.024 386.376 262.024C383.496 262.024 380.968 262.568 378.792 263.656C376.68 264.744 375.016 266.312 373.8 268.36C372.648 270.408 372.072 272.776 372.072 275.464C372.072 278.216 372.648 280.584 373.8 282.568C375.016 284.552 376.68 286.12 378.792 287.272C380.968 288.36 383.496 288.904 386.376 288.904ZM454.211 301.864C449.155 301.864 444.739 300.744 440.963 298.504C437.187 296.264 434.211 293.16 432.035 289.192C429.923 285.16 428.867 280.584 428.867 275.464C428.867 270.28 429.955 265.704 432.131 261.736C434.307 257.768 437.315 254.664 441.155 252.424C445.059 250.12 449.539 248.968 454.595 248.968C457.475 248.968 460.131 249.352 462.563 250.12C464.995 250.824 467.107 251.816 468.899 253.096C470.755 254.376 472.259 255.784 473.411 257.32C474.627 258.856 475.427 260.456 475.811 262.12H472.451V250.024H487.619V301H472.163V287.944L475.427 288.424C475.043 290.088 474.243 291.72 473.027 293.32C471.811 294.92 470.243 296.36 468.323 297.64C466.403 298.92 464.227 299.944 461.795 300.712C459.427 301.48 456.899 301.864 454.211 301.864ZM458.339 288.904C461.219 288.904 463.715 288.36 465.827 287.272C468.003 286.184 469.667 284.648 470.819 282.664C472.035 280.616 472.643 278.216 472.643 275.464C472.643 272.776 472.035 270.44 470.819 268.456C469.667 266.408 468.003 264.808 465.827 263.656C463.715 262.504 461.219 261.928 458.339 261.928C455.459 261.928 452.963 262.504 450.851 263.656C448.739 264.808 447.075 266.408 445.859 268.456C444.707 270.44 444.131 272.776 444.131 275.464C444.131 278.216 444.707 280.616 445.859 282.664C447.075 284.648 448.739 286.184 450.851 287.272C452.963 288.36 455.459 288.904 458.339 288.904ZM511.315 301V250.024H525.907L526.579 267.592L522.931 265.768C523.763 262.632 525.203 259.816 527.251 257.32C529.363 254.76 531.763 252.744 534.451 251.272C537.203 249.736 540.115 248.968 543.187 248.968C544.851 248.968 546.419 249.128 547.891 249.448C549.427 249.768 550.739 250.184 551.827 250.696L547.603 267.496C546.643 266.792 545.331 266.248 543.667 265.864C542.067 265.48 540.435 265.288 538.771 265.288C536.915 265.288 535.219 265.608 533.683 266.248C532.211 266.824 530.963 267.656 529.939 268.744C528.915 269.768 528.115 270.952 527.539 272.296C527.027 273.64 526.771 275.08 526.771 276.616V301H511.315ZM575.932 301V236.008H591.292V301H575.932ZM564.604 263.464V250.024H604.252V263.464H564.604ZM673.496 296.296V241.768L677.144 248.872L661.496 256.552L658.328 242.152L677.24 232.84H689.528V296.296H673.496ZM659.672 301V286.6H702.488V301H659.672Z" fill="white"/>
<path id="you have to stop them before they..." d="M346.584 360.52L349.92 353.68L349.848 355.624L343.08 342.256H347.472L350.568 348.88C350.792 349.328 351 349.784 351.192 350.248C351.384 350.696 351.536 351.144 351.648 351.592L350.928 351.784C351.072 351.432 351.24 351.016 351.432 350.536C351.624 350.056 351.824 349.568 352.032 349.072L354.888 342.256H359.28L353.04 355.048L350.472 360.52H346.584ZM369.525 355.24C368.037 355.24 366.717 354.952 365.565 354.376C364.413 353.8 363.509 353.016 362.853 352.024C362.197 351.032 361.869 349.896 361.869 348.616C361.869 347.336 362.197 346.2 362.853 345.208C363.509 344.216 364.413 343.432 365.565 342.856C366.717 342.28 368.037 341.992 369.525 341.992C370.997 341.992 372.301 342.28 373.437 342.856C374.589 343.432 375.493 344.216 376.149 345.208C376.805 346.2 377.133 347.336 377.133 348.616C377.133 349.896 376.805 351.032 376.149 352.024C375.493 353.016 374.589 353.8 373.437 354.376C372.301 354.952 370.997 355.24 369.525 355.24ZM369.525 351.928C370.213 351.928 370.837 351.784 371.397 351.496C371.973 351.208 372.421 350.816 372.741 350.32C373.077 349.824 373.237 349.256 373.221 348.616C373.237 347.976 373.077 347.4 372.741 346.888C372.421 346.376 371.973 345.984 371.397 345.712C370.837 345.424 370.213 345.28 369.525 345.28C368.821 345.28 368.173 345.424 367.581 345.712C367.005 346 366.557 346.392 366.237 346.888C365.917 347.384 365.757 347.96 365.757 348.616C365.757 349.256 365.917 349.824 366.237 350.32C366.557 350.816 367.005 351.208 367.581 351.496C368.173 351.784 368.821 351.928 369.525 351.928ZM386.643 355.264C385.619 355.264 384.731 355.04 383.979 354.592C383.243 354.144 382.675 353.496 382.275 352.648C381.875 351.784 381.675 350.752 381.675 349.552V342.256H385.515V348.928C385.515 349.584 385.603 350.136 385.779 350.584C385.971 351.032 386.267 351.376 386.667 351.616C387.067 351.84 387.555 351.952 388.131 351.952C388.547 351.952 388.931 351.888 389.283 351.76C389.635 351.616 389.947 351.424 390.219 351.184C390.491 350.928 390.699 350.64 390.843 350.32C391.003 349.984 391.083 349.608 391.083 349.192V342.256H394.923V355H391.323L391.155 352.384L391.851 352.096C391.675 352.656 391.339 353.176 390.843 353.656C390.347 354.136 389.739 354.528 389.019 354.832C388.315 355.12 387.523 355.264 386.643 355.264ZM410.555 355V337.24H414.323V345.232L413.411 345.544C413.571 344.904 413.907 344.32 414.419 343.792C414.947 343.248 415.587 342.816 416.339 342.496C417.091 342.16 417.891 341.992 418.739 341.992C419.827 341.992 420.739 342.216 421.475 342.664C422.227 343.096 422.787 343.712 423.155 344.512C423.539 345.296 423.731 346.216 423.731 347.272V355H419.867V347.872C419.867 347.296 419.763 346.816 419.555 346.432C419.363 346.032 419.067 345.728 418.667 345.52C418.283 345.312 417.835 345.216 417.323 345.232C416.907 345.232 416.515 345.304 416.147 345.448C415.795 345.576 415.483 345.768 415.211 346.024C414.955 346.264 414.755 346.544 414.611 346.864C414.467 347.184 414.395 347.528 414.395 347.896V355H412.499C411.971 355 411.547 355 411.227 355C410.907 355 410.683 355 410.555 355ZM434.506 355.216C433.242 355.216 432.138 354.936 431.194 354.376C430.25 353.816 429.506 353.04 428.962 352.048C428.434 351.04 428.17 349.896 428.17 348.616C428.17 347.32 428.442 346.176 428.986 345.184C429.53 344.192 430.282 343.416 431.242 342.856C432.218 342.28 433.338 341.992 434.602 341.992C435.322 341.992 435.986 342.088 436.594 342.28C437.202 342.456 437.73 342.704 438.178 343.024C438.642 343.344 439.018 343.696 439.306 344.08C439.61 344.464 439.81 344.864 439.906 345.28H439.066V342.256H442.858V355H438.994V351.736L439.81 351.856C439.714 352.272 439.514 352.68 439.21 353.08C438.906 353.48 438.514 353.84 438.034 354.16C437.554 354.48 437.01 354.736 436.402 354.928C435.81 355.12 435.178 355.216 434.506 355.216ZM435.538 351.976C436.258 351.976 436.882 351.84 437.41 351.568C437.954 351.296 438.37 350.912 438.658 350.416C438.962 349.904 439.114 349.304 439.114 348.616C439.114 347.944 438.962 347.36 438.658 346.864C438.37 346.352 437.954 345.952 437.41 345.664C436.882 345.376 436.258 345.232 435.538 345.232C434.818 345.232 434.194 345.376 433.666 345.664C433.138 345.952 432.722 346.352 432.418 346.864C432.13 347.36 431.986 347.944 431.986 348.616C431.986 349.304 432.13 349.904 432.418 350.416C432.722 350.912 433.138 351.296 433.666 351.568C434.194 351.84 434.818 351.976 435.538 351.976ZM452.605 355L446.533 342.256H450.877L454.813 352L453.781 352.096L457.813 342.256H462.109L455.821 355H452.605ZM471.898 355.24C470.346 355.24 468.986 354.96 467.818 354.4C466.666 353.824 465.77 353.048 465.13 352.072C464.49 351.08 464.17 349.952 464.17 348.688C464.17 347.68 464.354 346.768 464.722 345.952C465.09 345.136 465.602 344.432 466.258 343.84C466.914 343.248 467.682 342.792 468.562 342.472C469.442 342.152 470.394 341.992 471.418 341.992C472.41 341.992 473.322 342.152 474.154 342.472C474.986 342.776 475.706 343.216 476.314 343.792C476.938 344.368 477.418 345.048 477.754 345.832C478.09 346.616 478.242 347.48 478.21 348.424L478.186 349.504H466.69L466.138 347.272H475.066L474.658 347.752V347.272C474.61 346.872 474.434 346.512 474.13 346.192C473.842 345.872 473.466 345.624 473.002 345.448C472.538 345.256 472.026 345.16 471.466 345.16C470.746 345.16 470.106 345.28 469.546 345.52C468.986 345.744 468.546 346.096 468.226 346.576C467.922 347.056 467.77 347.664 467.77 348.4C467.77 349.104 467.954 349.72 468.322 350.248C468.706 350.776 469.242 351.192 469.93 351.496C470.634 351.8 471.458 351.952 472.402 351.952C473.218 351.952 473.898 351.856 474.442 351.664C475.002 351.456 475.506 351.2 475.954 350.896L477.682 353.392C477.154 353.792 476.57 354.136 475.93 354.424C475.306 354.696 474.65 354.896 473.962 355.024C473.29 355.168 472.602 355.24 471.898 355.24ZM493.881 355V338.752H497.721V355H493.881ZM491.049 345.616V342.256H500.961V345.616H491.049ZM511.955 355.24C510.467 355.24 509.147 354.952 507.995 354.376C506.843 353.8 505.939 353.016 505.283 352.024C504.627 351.032 504.299 349.896 504.299 348.616C504.299 347.336 504.627 346.2 505.283 345.208C505.939 344.216 506.843 343.432 507.995 342.856C509.147 342.28 510.467 341.992 511.955 341.992C513.427 341.992 514.731 342.28 515.867 342.856C517.019 343.432 517.923 344.216 518.579 345.208C519.235 346.2 519.563 347.336 519.563 348.616C519.563 349.896 519.235 351.032 518.579 352.024C517.923 353.016 517.019 353.8 515.867 354.376C514.731 354.952 513.427 355.24 511.955 355.24ZM511.955 351.928C512.643 351.928 513.267 351.784 513.827 351.496C514.403 351.208 514.851 350.816 515.171 350.32C515.507 349.824 515.667 349.256 515.651 348.616C515.667 347.976 515.507 347.4 515.171 346.888C514.851 346.376 514.403 345.984 513.827 345.712C513.267 345.424 512.643 345.28 511.955 345.28C511.251 345.28 510.603 345.424 510.011 345.712C509.435 346 508.987 346.392 508.667 346.888C508.347 347.384 508.187 347.96 508.187 348.616C508.187 349.256 508.347 349.824 508.667 350.32C508.987 350.816 509.435 351.208 510.011 351.496C510.603 351.784 511.251 351.928 511.955 351.928ZM538.825 355.24C537.417 355.24 536.153 355.04 535.033 354.64C533.929 354.24 533.041 353.672 532.369 352.936L534.697 350.872C535.241 351.384 535.889 351.776 536.641 352.048C537.393 352.32 538.185 352.456 539.017 352.456C539.273 352.456 539.521 352.432 539.761 352.384C540.017 352.336 540.233 352.272 540.409 352.192C540.601 352.096 540.753 351.984 540.865 351.856C540.977 351.728 541.033 351.568 541.033 351.376C541.033 351.072 540.841 350.832 540.457 350.656C540.185 350.56 539.841 350.464 539.425 350.368C539.009 350.272 538.537 350.168 538.009 350.056C537.129 349.896 536.353 349.704 535.681 349.48C535.025 349.24 534.473 348.944 534.025 348.592C533.641 348.256 533.345 347.872 533.137 347.44C532.929 347.008 532.825 346.504 532.825 345.928C532.825 345.336 532.977 344.8 533.281 344.32C533.585 343.824 534.009 343.408 534.553 343.072C535.097 342.72 535.721 342.456 536.425 342.28C537.129 342.088 537.865 341.992 538.633 341.992C539.401 341.992 540.153 342.072 540.889 342.232C541.625 342.376 542.321 342.592 542.977 342.88C543.633 343.152 544.209 343.504 544.705 343.936L542.737 346.24C542.385 345.968 541.977 345.72 541.513 345.496C541.049 345.272 540.553 345.096 540.025 344.968C539.513 344.824 539.009 344.752 538.513 344.752C538.241 344.752 537.977 344.768 537.721 344.8C537.481 344.832 537.273 344.896 537.097 344.992C536.921 345.072 536.777 345.176 536.665 345.304C536.569 345.416 536.521 345.56 536.521 345.736C536.521 345.88 536.561 346.016 536.641 346.144C536.721 346.272 536.841 346.376 537.001 346.456C537.225 346.6 537.553 346.728 537.985 346.84C538.433 346.952 538.993 347.072 539.665 347.2C540.641 347.408 541.473 347.648 542.161 347.92C542.849 348.176 543.401 348.488 543.817 348.856C544.153 349.112 544.401 349.432 544.561 349.816C544.721 350.184 544.801 350.592 544.801 351.04C544.801 351.856 544.537 352.584 544.009 353.224C543.497 353.848 542.793 354.344 541.897 354.712C541.017 355.064 539.993 355.24 538.825 355.24ZM550.436 355V338.752H554.276V355H550.436ZM547.604 345.616V342.256H557.516V345.616H547.604ZM568.51 355.24C567.022 355.24 565.702 354.952 564.55 354.376C563.398 353.8 562.494 353.016 561.838 352.024C561.182 351.032 560.854 349.896 560.854 348.616C560.854 347.336 561.182 346.2 561.838 345.208C562.494 344.216 563.398 343.432 564.55 342.856C565.702 342.28 567.022 341.992 568.51 341.992C569.982 341.992 571.286 342.28 572.422 342.856C573.574 343.432 574.478 344.216 575.134 345.208C575.79 346.2 576.118 347.336 576.118 348.616C576.118 349.896 575.79 351.032 575.134 352.024C574.478 353.016 573.574 353.8 572.422 354.376C571.286 354.952 569.982 355.24 568.51 355.24ZM568.51 351.928C569.198 351.928 569.822 351.784 570.382 351.496C570.958 351.208 571.406 350.816 571.726 350.32C572.062 349.824 572.222 349.256 572.206 348.616C572.222 347.976 572.062 347.4 571.726 346.888C571.406 346.376 570.958 345.984 570.382 345.712C569.822 345.424 569.198 345.28 568.51 345.28C567.806 345.28 567.158 345.424 566.566 345.712C565.99 346 565.542 346.392 565.222 346.888C564.902 347.384 564.742 347.96 564.742 348.616C564.742 349.256 564.902 349.824 565.222 350.32C565.542 350.816 565.99 351.208 566.566 351.496C567.158 351.784 567.806 351.928 568.51 351.928ZM580.876 360.28V342.256H584.524L584.668 345.112L583.948 344.896C584.06 344.384 584.364 343.912 584.86 343.48C585.356 343.048 585.98 342.696 586.732 342.424C587.5 342.152 588.316 342.016 589.18 342.016C590.428 342.016 591.524 342.304 592.468 342.88C593.412 343.44 594.148 344.216 594.676 345.208C595.22 346.184 595.492 347.32 595.492 348.616C595.492 349.896 595.22 351.032 594.676 352.024C594.148 353.016 593.404 353.8 592.444 354.376C591.484 354.936 590.38 355.216 589.132 355.216C588.268 355.216 587.46 355.072 586.708 354.784C585.956 354.496 585.324 354.12 584.812 353.656C584.316 353.192 583.996 352.704 583.852 352.192L584.74 351.856V360.28H580.876ZM588.196 351.976C588.916 351.976 589.54 351.84 590.068 351.568C590.596 351.28 591.004 350.888 591.292 350.392C591.596 349.896 591.748 349.304 591.748 348.616C591.748 347.944 591.596 347.36 591.292 346.864C591.004 346.352 590.596 345.96 590.068 345.688C589.556 345.4 588.932 345.256 588.196 345.256C587.476 345.256 586.844 345.392 586.3 345.664C585.772 345.936 585.356 346.328 585.052 346.84C584.764 347.352 584.62 347.944 584.62 348.616C584.62 349.304 584.764 349.896 585.052 350.392C585.356 350.888 585.772 351.28 586.3 351.568C586.844 351.84 587.476 351.976 588.196 351.976ZM611.163 355V338.752H615.003V355H611.163ZM608.331 345.616V342.256H618.243V345.616H608.331ZM622.969 355V337.24H626.737V345.232L625.825 345.544C625.985 344.904 626.321 344.32 626.833 343.792C627.361 343.248 628.001 342.816 628.753 342.496C629.505 342.16 630.305 341.992 631.153 341.992C632.241 341.992 633.153 342.216 633.889 342.664C634.641 343.096 635.201 343.712 635.569 344.512C635.953 345.296 636.145 346.216 636.145 347.272V355H632.281V347.872C632.281 347.296 632.177 346.816 631.969 346.432C631.777 346.032 631.481 345.728 631.081 345.52C630.697 345.312 630.249 345.216 629.737 345.232C629.321 345.232 628.929 345.304 628.561 345.448C628.209 345.576 627.897 345.768 627.625 346.024C627.369 346.264 627.169 346.544 627.025 346.864C626.881 347.184 626.809 347.528 626.809 347.896V355H624.913C624.385 355 623.961 355 623.641 355C623.321 355 623.097 355 622.969 355ZM648.312 355.24C646.76 355.24 645.4 354.96 644.232 354.4C643.08 353.824 642.184 353.048 641.544 352.072C640.904 351.08 640.584 349.952 640.584 348.688C640.584 347.68 640.768 346.768 641.136 345.952C641.504 345.136 642.016 344.432 642.672 343.84C643.328 343.248 644.096 342.792 644.976 342.472C645.856 342.152 646.808 341.992 647.832 341.992C648.824 341.992 649.736 342.152 650.568 342.472C651.4 342.776 652.12 343.216 652.728 343.792C653.352 344.368 653.832 345.048 654.168 345.832C654.504 346.616 654.656 347.48 654.624 348.424L654.6 349.504H643.104L642.552 347.272H651.48L651.072 347.752V347.272C651.024 346.872 650.848 346.512 650.544 346.192C650.256 345.872 649.88 345.624 649.416 345.448C648.952 345.256 648.44 345.16 647.88 345.16C647.16 345.16 646.52 345.28 645.96 345.52C645.4 345.744 644.96 346.096 644.64 346.576C644.336 347.056 644.184 347.664 644.184 348.4C644.184 349.104 644.368 349.72 644.736 350.248C645.12 350.776 645.656 351.192 646.344 351.496C647.048 351.8 647.872 351.952 648.816 351.952C649.632 351.952 650.312 351.856 650.856 351.664C651.416 351.456 651.92 351.2 652.368 350.896L654.096 353.392C653.568 353.792 652.984 354.136 652.344 354.424C651.72 354.696 651.064 354.896 650.376 355.024C649.704 355.168 649.016 355.24 648.312 355.24ZM659.295 355V342.256H662.943L663.063 344.944L662.367 344.776C662.575 344.392 662.847 344.032 663.183 343.696C663.535 343.36 663.927 343.072 664.359 342.832C664.807 342.576 665.287 342.376 665.799 342.232C666.311 342.088 666.863 342.016 667.455 342.016C668.143 342.016 668.775 342.12 669.351 342.328C669.943 342.536 670.447 342.88 670.863 343.36C671.279 343.824 671.599 344.448 671.823 345.232L671.031 345.136L671.223 344.752C671.479 344.384 671.783 344.04 672.135 343.72C672.503 343.384 672.919 343.096 673.383 342.856C673.847 342.6 674.343 342.4 674.871 342.256C675.399 342.096 675.943 342.016 676.503 342.016C677.671 342.016 678.623 342.24 679.359 342.688C680.095 343.12 680.639 343.736 680.991 344.536C681.343 345.336 681.519 346.264 681.519 347.32V355H677.655V347.728C677.655 347.216 677.575 346.776 677.415 346.408C677.255 346.04 677.007 345.76 676.671 345.568C676.351 345.36 675.935 345.256 675.423 345.256C674.975 345.256 674.559 345.328 674.175 345.472C673.807 345.616 673.479 345.816 673.191 346.072C672.919 346.312 672.703 346.6 672.543 346.936C672.399 347.256 672.327 347.608 672.327 347.992V355H668.463V347.704C668.463 347.208 668.375 346.776 668.199 346.408C668.023 346.04 667.751 345.76 667.383 345.568C667.015 345.36 666.559 345.256 666.015 345.256C665.583 345.256 665.191 345.336 664.839 345.496C664.503 345.64 664.207 345.84 663.951 346.096C663.695 346.336 663.495 346.6 663.351 346.888C663.223 347.176 663.159 347.472 663.159 347.776V355H659.295ZM705.121 355.264C704.433 355.264 703.785 355.176 703.177 355C702.569 354.824 702.025 354.592 701.545 354.304C701.065 354.016 700.665 353.688 700.345 353.32C700.041 352.936 699.841 352.568 699.745 352.216L700.777 352.024L700.561 354.976H696.985V337.24H700.849V345.304L699.865 345.112C699.977 344.712 700.185 344.328 700.489 343.96C700.793 343.592 701.177 343.264 701.641 342.976C702.121 342.672 702.657 342.432 703.249 342.256C703.841 342.08 704.465 341.992 705.121 341.992C706.337 341.992 707.425 342.28 708.385 342.856C709.345 343.416 710.105 344.2 710.665 345.208C711.225 346.2 711.505 347.336 711.505 348.616C711.505 349.912 711.225 351.064 710.665 352.072C710.121 353.064 709.369 353.848 708.409 354.424C707.449 354.984 706.353 355.264 705.121 355.264ZM704.209 352C704.929 352 705.545 351.856 706.057 351.568C706.585 351.28 706.993 350.888 707.281 350.392C707.585 349.88 707.737 349.288 707.737 348.616C707.737 347.944 707.593 347.352 707.305 346.84C707.017 346.328 706.601 345.936 706.057 345.664C705.529 345.392 704.913 345.256 704.209 345.256C703.473 345.256 702.841 345.392 702.313 345.664C701.785 345.936 701.369 346.328 701.065 346.84C700.777 347.352 700.633 347.944 700.633 348.616C700.633 349.288 700.777 349.88 701.065 350.392C701.369 350.888 701.785 351.28 702.313 351.568C702.841 351.856 703.473 352 704.209 352ZM722.539 355.24C720.987 355.24 719.627 354.96 718.459 354.4C717.307 353.824 716.411 353.048 715.771 352.072C715.131 351.08 714.811 349.952 714.811 348.688C714.811 347.68 714.995 346.768 715.363 345.952C715.731 345.136 716.243 344.432 716.899 343.84C717.555 343.248 718.323 342.792 719.203 342.472C720.083 342.152 721.035 341.992 722.059 341.992C723.051 341.992 723.963 342.152 724.795 342.472C725.627 342.776 726.347 343.216 726.955 343.792C727.579 344.368 728.059 345.048 728.395 345.832C728.731 346.616 728.883 347.48 728.851 348.424L728.827 349.504H717.331L716.779 347.272H725.707L725.299 347.752V347.272C725.251 346.872 725.075 346.512 724.771 346.192C724.483 345.872 724.107 345.624 723.643 345.448C723.179 345.256 722.667 345.16 722.107 345.16C721.387 345.16 720.747 345.28 720.187 345.52C719.627 345.744 719.187 346.096 718.867 346.576C718.563 347.056 718.411 347.664 718.411 348.4C718.411 349.104 718.595 349.72 718.963 350.248C719.347 350.776 719.883 351.192 720.571 351.496C721.275 351.8 722.099 351.952 723.043 351.952C723.859 351.952 724.539 351.856 725.083 351.664C725.643 351.456 726.147 351.2 726.595 350.896L728.323 353.392C727.795 353.792 727.211 354.136 726.571 354.424C725.947 354.696 725.291 354.896 724.603 355.024C723.931 355.168 723.243 355.24 722.539 355.24ZM734.434 355V342.04C734.434 341.096 734.634 340.264 735.034 339.544C735.45 338.808 736.026 338.232 736.762 337.816C737.498 337.4 738.354 337.192 739.33 337.192C740.082 337.192 740.738 337.288 741.298 337.48C741.874 337.672 742.362 337.912 742.762 338.2L741.658 341.032C741.434 340.904 741.17 340.792 740.866 340.696C740.578 340.584 740.29 340.528 740.002 340.528C739.586 340.528 739.242 340.6 738.97 340.744C738.714 340.872 738.522 341.064 738.394 341.32C738.266 341.576 738.202 341.88 738.202 342.232V355H736.33C735.93 355 735.57 355 735.25 355C734.93 355 734.658 355 734.434 355ZM732.202 345.88V342.712H741.874V345.88H732.202ZM752.213 355.24C750.725 355.24 749.405 354.952 748.253 354.376C747.101 353.8 746.197 353.016 745.541 352.024C744.885 351.032 744.557 349.896 744.557 348.616C744.557 347.336 744.885 346.2 745.541 345.208C746.197 344.216 747.101 343.432 748.253 342.856C749.405 342.28 750.725 341.992 752.213 341.992C753.685 341.992 754.989 342.28 756.125 342.856C757.277 343.432 758.181 344.216 758.837 345.208C759.493 346.2 759.821 347.336 759.821 348.616C759.821 349.896 759.493 351.032 758.837 352.024C758.181 353.016 757.277 353.8 756.125 354.376C754.989 354.952 753.685 355.24 752.213 355.24ZM752.213 351.928C752.901 351.928 753.525 351.784 754.085 351.496C754.661 351.208 755.109 350.816 755.429 350.32C755.765 349.824 755.925 349.256 755.909 348.616C755.925 347.976 755.765 347.4 755.429 346.888C755.109 346.376 754.661 345.984 754.085 345.712C753.525 345.424 752.901 345.28 752.213 345.28C751.509 345.28 750.861 345.424 750.269 345.712C749.693 346 749.245 346.392 748.925 346.888C748.605 347.384 748.445 347.96 748.445 348.616C748.445 349.256 748.605 349.824 748.925 350.32C749.245 350.816 749.693 351.208 750.269 351.496C750.861 351.784 751.509 351.928 752.213 351.928ZM764.579 355V342.256H768.227L768.395 346.648L767.483 346.192C767.691 345.408 768.051 344.704 768.563 344.08C769.091 343.44 769.691 342.936 770.363 342.568C771.051 342.184 771.779 341.992 772.547 341.992C772.963 341.992 773.355 342.032 773.723 342.112C774.107 342.192 774.435 342.296 774.707 342.424L773.651 346.624C773.411 346.448 773.083 346.312 772.667 346.216C772.267 346.12 771.859 346.072 771.443 346.072C770.979 346.072 770.555 346.152 770.171 346.312C769.803 346.456 769.491 346.664 769.235 346.936C768.979 347.192 768.779 347.488 768.635 347.824C768.507 348.16 768.443 348.52 768.443 348.904V355H764.579ZM784.765 355.24C783.213 355.24 781.853 354.96 780.685 354.4C779.533 353.824 778.637 353.048 777.997 352.072C777.357 351.08 777.037 349.952 777.037 348.688C777.037 347.68 777.221 346.768 777.589 345.952C777.957 345.136 778.469 344.432 779.125 343.84C779.781 343.248 780.549 342.792 781.429 342.472C782.309 342.152 783.261 341.992 784.285 341.992C785.277 341.992 786.189 342.152 787.021 342.472C787.853 342.776 788.573 343.216 789.181 343.792C789.805 344.368 790.285 345.048 790.621 345.832C790.957 346.616 791.109 347.48 791.077 348.424L791.053 349.504H779.557L779.005 347.272H787.933L787.525 347.752V347.272C787.477 346.872 787.301 346.512 786.997 346.192C786.709 345.872 786.333 345.624 785.869 345.448C785.405 345.256 784.893 345.16 784.333 345.16C783.613 345.16 782.973 345.28 782.413 345.52C781.853 345.744 781.413 346.096 781.093 346.576C780.789 347.056 780.637 347.664 780.637 348.4C780.637 349.104 780.821 349.72 781.189 350.248C781.573 350.776 782.109 351.192 782.797 351.496C783.501 351.8 784.325 351.952 785.269 351.952C786.085 351.952 786.765 351.856 787.309 351.664C787.869 351.456 788.373 351.2 788.821 350.896L790.549 353.392C790.021 353.792 789.437 354.136 788.797 354.424C788.173 354.696 787.517 354.896 786.829 355.024C786.157 355.168 785.469 355.24 784.765 355.24ZM806.749 355V338.752H810.589V355H806.749ZM803.917 345.616V342.256H813.829V345.616H803.917ZM818.555 355V337.24H822.323V345.232L821.411 345.544C821.571 344.904 821.907 344.32 822.419 343.792C822.947 343.248 823.587 342.816 824.339 342.496C825.091 342.16 825.891 341.992 826.739 341.992C827.827 341.992 828.739 342.216 829.475 342.664C830.227 343.096 830.787 343.712 831.155 344.512C831.539 345.296 831.731 346.216 831.731 347.272V355H827.867V347.872C827.867 347.296 827.763 346.816 827.555 346.432C827.363 346.032 827.067 345.728 826.667 345.52C826.283 345.312 825.835 345.216 825.323 345.232C824.907 345.232 824.515 345.304 824.147 345.448C823.795 345.576 823.483 345.768 823.211 346.024C822.955 346.264 822.755 346.544 822.611 346.864C822.467 347.184 822.395 347.528 822.395 347.896V355H820.499C819.971 355 819.547 355 819.227 355C818.907 355 818.683 355 818.555 355ZM843.898 355.24C842.346 355.24 840.986 354.96 839.818 354.4C838.666 353.824 837.77 353.048 837.13 352.072C836.49 351.08 836.17 349.952 836.17 348.688C836.17 347.68 836.354 346.768 836.722 345.952C837.09 345.136 837.602 344.432 838.258 343.84C838.914 343.248 839.682 342.792 840.562 342.472C841.442 342.152 842.394 341.992 843.418 341.992C844.41 341.992 845.322 342.152 846.154 342.472C846.986 342.776 847.706 343.216 848.314 343.792C848.938 344.368 849.418 345.048 849.754 345.832C850.09 346.616 850.242 347.48 850.21 348.424L850.186 349.504H838.69L838.138 347.272H847.066L846.658 347.752V347.272C846.61 346.872 846.434 346.512 846.13 346.192C845.842 345.872 845.466 345.624 845.002 345.448C844.538 345.256 844.026 345.16 843.466 345.16C842.746 345.16 842.106 345.28 841.546 345.52C840.986 345.744 840.546 346.096 840.226 346.576C839.922 347.056 839.77 347.664 839.77 348.4C839.77 349.104 839.954 349.72 840.322 350.248C840.706 350.776 841.242 351.192 841.93 351.496C842.634 351.8 843.458 351.952 844.402 351.952C845.218 351.952 845.898 351.856 846.442 351.664C847.002 351.456 847.506 351.2 847.954 350.896L849.682 353.392C849.154 353.792 848.57 354.136 847.93 354.424C847.306 354.696 846.65 354.896 845.962 355.024C845.29 355.168 844.602 355.24 843.898 355.24ZM856.303 360.52L859.639 353.68L859.567 355.624L852.799 342.256H857.191L860.287 348.88C860.511 349.328 860.719 349.784 860.911 350.248C861.103 350.696 861.255 351.144 861.367 351.592L860.647 351.784C860.791 351.432 860.959 351.016 861.151 350.536C861.343 350.056 861.543 349.568 861.751 349.072L864.607 342.256H868.999L862.759 355.048L860.191 360.52H856.303ZM873.717 355.264C872.933 355.264 872.333 355.08 871.917 354.712C871.517 354.328 871.317 353.8 871.317 353.128C871.317 352.52 871.525 352.008 871.941 351.592C872.373 351.176 872.965 350.968 873.717 350.968C874.501 350.968 875.101 351.16 875.517 351.544C875.933 351.928 876.141 352.456 876.141 353.128C876.141 353.72 875.925 354.224 875.493 354.64C875.077 355.056 874.485 355.264 873.717 355.264ZM882.952 355.264C882.168 355.264 881.568 355.08 881.152 354.712C880.752 354.328 880.552 353.8 880.552 353.128C880.552 352.52 880.76 352.008 881.176 351.592C881.608 351.176 882.2 350.968 882.952 350.968C883.736 350.968 884.336 351.16 884.752 351.544C885.168 351.928 885.376 352.456 885.376 353.128C885.376 353.72 885.16 354.224 884.728 354.64C884.312 355.056 883.72 355.264 882.952 355.264ZM892.186 355.264C891.402 355.264 890.802 355.08 890.386 354.712C889.986 354.328 889.786 353.8 889.786 353.128C889.786 352.52 889.994 352.008 890.41 351.592C890.842 351.176 891.434 350.968 892.186 350.968C892.97 350.968 893.57 351.16 893.986 351.544C894.402 351.928 894.61 352.456 894.61 353.128C894.61 353.72 894.394 354.224 893.962 354.64C893.546 355.056 892.954 355.264 892.186 355.264Z" fill="white"/>
<g id="Vector" filter="url(#filter0_d_195_178)">
<path d="M479.246 463.996C484.515 440.672 517.714 440.672 522.983 463.996L531.541 501.874C534.712 515.912 524.05 529.267 509.672 529.267H492.557C478.179 529.267 467.517 515.912 470.688 501.874L479.246 463.996Z" fill="#C63B3B"/>
<path d="M524.816 413.046C524.816 426.326 514.061 437.092 500.794 437.092C487.527 437.092 476.772 426.326 476.772 413.046C476.772 399.766 487.527 389 500.794 389C514.061 389 524.816 399.766 524.816 413.046Z" fill="#C63B3B"/>
<path d="M505.599 517.565C505.599 511.013 510.904 505.702 517.45 505.702C523.995 505.702 529.3 511.013 529.3 517.565V545.137C529.3 551.689 523.995 557 517.45 557C510.904 557 505.599 551.689 505.599 545.137V517.565Z" fill="#C63B3B"/>
<path d="M514.867 471.609C511.517 465.981 513.36 458.7 518.982 455.347C524.605 451.993 531.879 453.837 535.229 459.466L549.328 483.153C552.678 488.781 550.836 496.062 545.213 499.415C539.59 502.769 532.316 500.925 528.966 495.296L514.867 471.609Z" fill="#C63B3B"/>
<path d="M466.362 459.548C469.635 453.874 476.883 451.93 482.551 455.206C488.219 458.482 490.161 465.737 486.889 471.411L473.116 495.289C469.844 500.963 462.596 502.907 456.927 499.631C451.259 496.355 449.317 489.1 452.59 483.427L466.362 459.548Z" fill="#C63B3B"/>
<path d="M472.288 517.565C472.288 511.013 477.594 505.702 484.139 505.702C490.684 505.702 495.99 511.013 495.99 517.565V545.137C495.99 551.689 490.684 557 484.139 557C477.594 557 472.288 551.689 472.288 545.137V517.565Z" fill="#C63B3B"/>
</g>
<g id="Vector_2" filter="url(#filter1_d_195_178)">
<path d="M713.528 463.996C718.85 440.672 752.381 440.672 757.703 463.996L766.346 501.874C769.549 515.912 758.78 529.267 744.259 529.267H726.972C712.451 529.267 701.682 515.912 704.885 501.874L713.528 463.996Z" fill="#C63B3B"/>
<path d="M759.555 413.046C759.555 426.326 748.692 437.092 735.292 437.092C721.892 437.092 711.03 426.326 711.03 413.046C711.03 399.766 721.892 389 735.292 389C748.692 389 759.555 399.766 759.555 413.046Z" fill="#C63B3B"/>
<path d="M740.145 517.565C740.145 511.013 745.504 505.702 752.114 505.702C758.725 505.702 764.083 511.013 764.083 517.565V545.137C764.083 551.689 758.725 557 752.114 557C745.504 557 740.145 551.689 740.145 545.137V517.565Z" fill="#C63B3B"/>
<path d="M749.506 471.609C746.123 465.981 747.983 458.7 753.662 455.347C759.341 451.993 766.688 453.837 770.071 459.466L784.311 483.153C787.695 488.781 785.834 496.062 780.155 499.415C774.476 502.769 767.13 500.925 763.746 495.296L749.506 471.609Z" fill="#C63B3B"/>
<path d="M700.516 459.548C703.821 453.874 711.142 451.93 716.867 455.206C722.591 458.482 724.553 465.737 721.248 471.411L707.337 495.289C704.032 500.963 696.712 502.907 690.987 499.631C685.262 496.355 683.3 489.1 686.606 483.427L700.516 459.548Z" fill="#C63B3B"/>
<path d="M706.501 517.565C706.501 511.013 711.86 505.702 718.47 505.702C725.081 505.702 730.44 511.013 730.44 517.565V545.137C730.44 551.689 725.081 557 718.47 557C711.86 557 706.501 551.689 706.501 545.137V517.565Z" fill="#C63B3B"/>
</g>
<g id="Vector_3" filter="url(#filter2_d_195_178)">
<path d="M596.528 463.996C601.85 440.672 635.381 440.672 640.703 463.996L649.346 501.874C652.549 515.912 641.78 529.267 627.259 529.267H609.972C595.451 529.267 584.682 515.912 587.885 501.874L596.528 463.996Z" fill="#C63B3B"/>
<path d="M642.555 413.046C642.555 426.326 631.692 437.092 618.292 437.092C604.892 437.092 594.03 426.326 594.03 413.046C594.03 399.766 604.892 389 618.292 389C631.692 389 642.555 399.766 642.555 413.046Z" fill="#C63B3B"/>
<path d="M623.145 517.565C623.145 511.013 628.504 505.702 635.114 505.702C641.725 505.702 647.083 511.013 647.083 517.565V545.137C647.083 551.689 641.725 557 635.114 557C628.504 557 623.145 551.689 623.145 545.137V517.565Z" fill="#C63B3B"/>
<path d="M632.506 471.609C629.123 465.981 630.983 458.7 636.662 455.347C642.341 451.993 649.688 453.837 653.071 459.466L667.311 483.153C670.695 488.781 668.834 496.062 663.155 499.415C657.476 502.769 650.13 500.925 646.746 495.296L632.506 471.609Z" fill="#C63B3B"/>
<path d="M583.516 459.548C586.821 453.874 594.142 451.93 599.867 455.206C605.591 458.482 607.553 465.737 604.248 471.411L590.337 495.289C587.032 500.963 579.712 502.907 573.987 499.631C568.262 496.355 566.3 489.1 569.606 483.427L583.516 459.548Z" fill="#C63B3B"/>
<path d="M589.501 517.565C589.501 511.013 594.86 505.702 601.47 505.702C608.081 505.702 613.44 511.013 613.44 517.565V545.137C613.44 551.689 608.081 557 601.47 557C594.86 557 589.501 551.689 589.501 545.137V517.565Z" fill="#C63B3B"/>
</g>
<g id="Vector_4" filter="url(#filter3_d_195_178)">
<path d="M831.246 463.996C836.515 440.672 869.714 440.672 874.983 463.996L883.541 501.874C886.712 515.912 876.05 529.267 861.672 529.267H844.557C830.179 529.267 819.517 515.912 822.688 501.874L831.246 463.996Z" fill="#C63B3B"/>
<path d="M876.816 413.046C876.816 426.326 866.061 437.092 852.794 437.092C839.527 437.092 828.772 426.326 828.772 413.046C828.772 399.766 839.527 389 852.794 389C866.061 389 876.816 399.766 876.816 413.046Z" fill="#C63B3B"/>
<path d="M857.599 517.565C857.599 511.013 862.904 505.702 869.45 505.702C875.995 505.702 881.3 511.013 881.3 517.565V545.137C881.3 551.689 875.995 557 869.45 557C862.904 557 857.599 551.689 857.599 545.137V517.565Z" fill="#C63B3B"/>
<path d="M866.867 471.609C863.517 465.981 865.36 458.7 870.982 455.347C876.605 451.993 883.879 453.837 887.229 459.466L901.328 483.153C904.678 488.781 902.836 496.062 897.213 499.415C891.59 502.769 884.316 500.925 880.966 495.296L866.867 471.609Z" fill="#C63B3B"/>
<path d="M818.362 459.548C821.635 453.874 828.883 451.93 834.551 455.206C840.219 458.482 842.161 465.737 838.889 471.411L825.116 495.289C821.844 500.963 814.596 502.907 808.927 499.631C803.259 496.355 801.317 489.1 804.59 483.427L818.362 459.548Z" fill="#C63B3B"/>
<path d="M824.288 517.565C824.288 511.013 829.594 505.702 836.139 505.702C842.684 505.702 847.99 511.013 847.99 517.565V545.137C847.99 551.689 842.684 557 836.139 557C829.594 557 824.288 551.689 824.288 545.137V517.565Z" fill="#C63B3B"/>
</g>
<g id="Vector_5" filter="url(#filter4_d_195_178)">
<path d="M378.33 500.388C384.548 472.899 423.722 472.899 429.94 500.388L440.038 545.03C443.78 561.575 431.199 577.315 414.233 577.315H394.037C377.071 577.315 364.49 561.575 368.232 545.03L378.33 500.388Z" fill="#E06A6A"/>
<path d="M432.103 440.34C432.103 455.991 419.412 468.679 403.757 468.679C388.102 468.679 375.411 455.991 375.411 440.34C375.411 424.688 388.102 412 403.757 412C419.412 412 432.103 424.688 432.103 440.34Z" fill="#E06A6A"/>
<path d="M409.426 563.523C409.426 555.801 415.687 549.542 423.41 549.542C431.134 549.542 437.395 555.801 437.395 563.523V596.019C437.395 603.741 431.134 610 423.41 610C415.687 610 409.426 603.741 409.426 596.019V563.523Z" fill="#E06A6A"/>
<path d="M420.364 509.361C416.41 502.728 418.584 494.146 425.219 490.194C431.854 486.242 440.437 488.416 444.39 495.049L461.027 522.966C464.98 529.599 462.806 538.18 456.171 542.132C449.537 546.085 440.953 543.911 437 537.278L420.364 509.361Z" fill="#E06A6A"/>
<path d="M363.128 495.146C366.989 488.459 375.542 486.168 382.23 490.029C388.919 493.889 391.21 502.44 387.349 509.127L371.097 537.269C367.235 543.956 358.683 546.248 351.994 542.387C345.306 538.526 343.014 529.975 346.876 523.289L363.128 495.146Z" fill="#E06A6A"/>
<path d="M370.12 563.523C370.12 555.801 376.381 549.542 384.104 549.542C391.827 549.542 398.088 555.801 398.088 563.523V596.019C398.088 603.741 391.827 610 384.104 610C376.381 610 370.12 603.741 370.12 596.019V563.523Z" fill="#E06A6A"/>
</g>
<g id="Vector_6" filter="url(#filter5_d_195_178)">
<path d="M654.33 500.388C660.548 472.899 699.722 472.899 705.94 500.388L716.038 545.03C719.78 561.575 707.199 577.315 690.233 577.315H670.037C653.071 577.315 640.49 561.575 644.232 545.03L654.33 500.388Z" fill="#E06A6A"/>
<path d="M708.103 440.34C708.103 455.991 695.412 468.679 679.757 468.679C664.102 468.679 651.411 455.991 651.411 440.34C651.411 424.688 664.102 412 679.757 412C695.412 412 708.103 424.688 708.103 440.34Z" fill="#E06A6A"/>
<path d="M685.426 563.523C685.426 555.801 691.687 549.542 699.41 549.542C707.134 549.542 713.395 555.801 713.395 563.523V596.019C713.395 603.741 707.134 610 699.41 610C691.687 610 685.426 603.741 685.426 596.019V563.523Z" fill="#E06A6A"/>
<path d="M696.364 509.361C692.41 502.728 694.584 494.146 701.219 490.194C707.854 486.242 716.437 488.416 720.39 495.049L737.027 522.966C740.98 529.599 738.806 538.18 732.171 542.132C725.537 546.085 716.953 543.911 713 537.278L696.364 509.361Z" fill="#E06A6A"/>
<path d="M639.128 495.146C642.989 488.459 651.542 486.168 658.23 490.029C664.919 493.889 667.21 502.44 663.349 509.127L647.097 537.269C643.235 543.956 634.683 546.248 627.994 542.387C621.306 538.526 619.014 529.975 622.876 523.289L639.128 495.146Z" fill="#E06A6A"/>
<path d="M646.12 563.523C646.12 555.801 652.381 549.542 660.104 549.542C667.827 549.542 674.088 555.801 674.088 563.523V596.019C674.088 603.741 667.827 610 660.104 610C652.381 610 646.12 603.741 646.12 596.019V563.523Z" fill="#E06A6A"/>
</g>
<g id="Vector_7" filter="url(#filter6_d_195_178)">
<path d="M516.33 500.388C522.548 472.899 561.722 472.899 567.94 500.388L578.038 545.03C581.78 561.575 569.199 577.315 552.233 577.315H532.037C515.071 577.315 502.49 561.575 506.232 545.03L516.33 500.388Z" fill="#E06A6A"/>
<path d="M570.103 440.34C570.103 455.991 557.412 468.679 541.757 468.679C526.102 468.679 513.411 455.991 513.411 440.34C513.411 424.688 526.102 412 541.757 412C557.412 412 570.103 424.688 570.103 440.34Z" fill="#E06A6A"/>
<path d="M547.426 563.523C547.426 555.801 553.687 549.542 561.41 549.542C569.134 549.542 575.395 555.801 575.395 563.523V596.019C575.395 603.741 569.134 610 561.41 610C553.687 610 547.426 603.741 547.426 596.019V563.523Z" fill="#E06A6A"/>
<path d="M558.364 509.361C554.41 502.728 556.584 494.146 563.219 490.194C569.854 486.242 578.437 488.416 582.39 495.049L599.027 522.966C602.98 529.599 600.806 538.18 594.171 542.132C587.537 546.085 578.953 543.911 575 537.278L558.364 509.361Z" fill="#E06A6A"/>
<path d="M501.128 495.146C504.989 488.459 513.542 486.168 520.23 490.029C526.919 493.889 529.21 502.44 525.349 509.127L509.097 537.269C505.235 543.956 496.683 546.248 489.994 542.387C483.306 538.526 481.014 529.975 484.876 523.289L501.128 495.146Z" fill="#E06A6A"/>
<path d="M508.12 563.523C508.12 555.801 514.381 549.542 522.104 549.542C529.827 549.542 536.088 555.801 536.088 563.523V596.019C536.088 603.741 529.827 610 522.104 610C514.381 610 508.12 603.741 508.12 596.019V563.523Z" fill="#E06A6A"/>
</g>
<g id="Vector_8" filter="url(#filter7_d_195_178)">
<path d="M574.33 546.388C580.548 518.899 619.722 518.899 625.94 546.388L636.038 591.03C639.78 607.575 627.199 623.315 610.233 623.315H590.037C573.071 623.315 560.49 607.575 564.232 591.03L574.33 546.388Z" fill="#FB8D8D"/>
<path d="M628.103 486.34C628.103 501.991 615.412 514.679 599.757 514.679C584.102 514.679 571.411 501.991 571.411 486.34C571.411 470.688 584.102 458 599.757 458C615.412 458 628.103 470.688 628.103 486.34Z" fill="#FB8D8D"/>
<path d="M605.426 609.523C605.426 601.801 611.687 595.542 619.41 595.542C627.134 595.542 633.395 601.801 633.395 609.523V642.019C633.395 649.741 627.134 656 619.41 656C611.687 656 605.426 649.741 605.426 642.019V609.523Z" fill="#FB8D8D"/>
<path d="M616.364 555.361C612.41 548.728 614.584 540.146 621.219 536.194C627.854 532.242 636.437 534.416 640.39 541.049L657.027 568.966C660.98 575.599 658.806 584.18 652.171 588.132C645.537 592.085 636.953 589.911 633 583.278L616.364 555.361Z" fill="#FB8D8D"/>
<path d="M559.128 541.146C562.989 534.459 571.542 532.168 578.23 536.029C584.919 539.889 587.21 548.44 583.349 555.127L567.097 583.269C563.235 589.956 554.683 592.248 547.994 588.387C541.306 584.526 539.014 575.975 542.876 569.289L559.128 541.146Z" fill="#FB8D8D"/>
<path d="M566.12 609.523C566.12 601.801 572.381 595.542 580.104 595.542C587.827 595.542 594.088 601.801 594.088 609.523V642.019C594.088 649.741 587.827 656 580.104 656C572.381 656 566.12 649.741 566.12 642.019V609.523Z" fill="#FB8D8D"/>
</g>
<g id="Vector_9" filter="url(#filter8_d_195_178)">
<path d="M792.33 500.388C798.548 472.899 837.722 472.899 843.94 500.388L854.038 545.03C857.78 561.575 845.199 577.315 828.233 577.315H808.037C791.071 577.315 778.49 561.575 782.232 545.03L792.33 500.388Z" fill="#E06A6A"/>
<path d="M846.103 440.34C846.103 455.991 833.412 468.679 817.757 468.679C802.102 468.679 789.411 455.991 789.411 440.34C789.411 424.688 802.102 412 817.757 412C833.412 412 846.103 424.688 846.103 440.34Z" fill="#E06A6A"/>
<path d="M823.426 563.523C823.426 555.801 829.687 549.542 837.41 549.542C845.134 549.542 851.395 555.801 851.395 563.523V596.019C851.395 603.741 845.134 610 837.41 610C829.687 610 823.426 603.741 823.426 596.019V563.523Z" fill="#E06A6A"/>
<path d="M834.364 509.361C830.41 502.728 832.584 494.146 839.219 490.194C845.854 486.242 854.437 488.416 858.39 495.049L875.027 522.966C878.98 529.599 876.806 538.18 870.171 542.132C863.537 546.085 854.953 543.911 851 537.278L834.364 509.361Z" fill="#E06A6A"/>
<path d="M777.128 495.146C780.989 488.459 789.542 486.168 796.23 490.029C802.919 493.889 805.21 502.44 801.349 509.127L785.097 537.269C781.235 543.956 772.683 546.248 765.994 542.387C759.306 538.526 757.014 529.975 760.876 523.289L777.128 495.146Z" fill="#E06A6A"/>
<path d="M784.12 563.523C784.12 555.801 790.381 549.542 798.104 549.542C805.827 549.542 812.088 555.801 812.088 563.523V596.019C812.088 603.741 805.827 610 798.104 610C790.381 610 784.12 603.741 784.12 596.019V563.523Z" fill="#E06A6A"/>
</g>
<g id="Vector_10" filter="url(#filter9_d_195_178)">
<path d="M436.33 546.388C442.548 518.899 481.722 518.899 487.94 546.388L498.038 591.03C501.78 607.575 489.199 623.315 472.233 623.315H452.037C435.071 623.315 422.49 607.575 426.232 591.03L436.33 546.388Z" fill="#FB8D8D"/>
<path d="M490.103 486.34C490.103 501.991 477.412 514.679 461.757 514.679C446.102 514.679 433.411 501.991 433.411 486.34C433.411 470.688 446.102 458 461.757 458C477.412 458 490.103 470.688 490.103 486.34Z" fill="#FB8D8D"/>
<path d="M467.426 609.523C467.426 601.801 473.687 595.542 481.41 595.542C489.134 595.542 495.395 601.801 495.395 609.523V642.019C495.395 649.741 489.134 656 481.41 656C473.687 656 467.426 649.741 467.426 642.019V609.523Z" fill="#FB8D8D"/>
<path d="M478.364 555.361C474.41 548.728 476.584 540.146 483.219 536.194C489.854 532.242 498.437 534.416 502.39 541.049L519.027 568.966C522.98 575.599 520.806 584.18 514.171 588.132C507.537 592.085 498.953 589.911 495 583.278L478.364 555.361Z" fill="#FB8D8D"/>
<path d="M421.128 541.146C424.989 534.459 433.542 532.168 440.23 536.029C446.919 539.889 449.21 548.44 445.349 555.127L429.097 583.269C425.235 589.956 416.683 592.248 409.994 588.387C403.306 584.526 401.014 575.975 404.876 569.289L421.128 541.146Z" fill="#FB8D8D"/>
<path d="M428.12 609.523C428.12 601.801 434.381 595.542 442.104 595.542C449.827 595.542 456.088 601.801 456.088 609.523V642.019C456.088 649.741 449.827 656 442.104 656C434.381 656 428.12 649.741 428.12 642.019V609.523Z" fill="#FB8D8D"/>
</g>
<g id="Vector_11" filter="url(#filter10_d_195_178)">
<path d="M712.33 546.388C718.548 518.899 757.722 518.899 763.94 546.388L774.038 591.03C777.78 607.575 765.199 623.315 748.233 623.315H728.037C711.071 623.315 698.49 607.575 702.232 591.03L712.33 546.388Z" fill="#FB8D8D"/>
<path d="M766.103 486.34C766.103 501.991 753.412 514.679 737.757 514.679C722.102 514.679 709.411 501.991 709.411 486.34C709.411 470.688 722.102 458 737.757 458C753.412 458 766.103 470.688 766.103 486.34Z" fill="#FB8D8D"/>
<path d="M743.426 609.523C743.426 601.801 749.687 595.542 757.41 595.542C765.134 595.542 771.395 601.801 771.395 609.523V642.019C771.395 649.741 765.134 656 757.41 656C749.687 656 743.426 649.741 743.426 642.019V609.523Z" fill="#FB8D8D"/>
<path d="M754.364 555.361C750.41 548.728 752.584 540.146 759.219 536.194C765.854 532.242 774.437 534.416 778.39 541.049L795.027 568.966C798.98 575.599 796.806 584.18 790.171 588.132C783.537 592.085 774.953 589.911 771 583.278L754.364 555.361Z" fill="#FB8D8D"/>
<path d="M697.128 541.146C700.989 534.459 709.542 532.168 716.23 536.029C722.919 539.889 725.21 548.44 721.349 555.127L705.097 583.269C701.235 589.956 692.683 592.248 685.994 588.387C679.306 584.526 677.014 575.975 680.876 569.289L697.128 541.146Z" fill="#FB8D8D"/>
<path d="M704.12 609.523C704.12 601.801 710.381 595.542 718.104 595.542C725.827 595.542 732.088 601.801 732.088 609.523V642.019C732.088 649.741 725.827 656 718.104 656C710.381 656 704.12 649.741 704.12 642.019V609.523Z" fill="#FB8D8D"/>
</g>
<g id="Vector_12" filter="url(#filter11_d_195_178)">
<path d="M850.33 546.388C856.548 518.899 895.722 518.899 901.94 546.388L912.038 591.03C915.78 607.575 903.199 623.315 886.233 623.315H866.037C849.071 623.315 836.49 607.575 840.232 591.03L850.33 546.388Z" fill="#FB8D8D"/>
<path d="M904.103 486.34C904.103 501.991 891.412 514.679 875.757 514.679C860.102 514.679 847.411 501.991 847.411 486.34C847.411 470.688 860.102 458 875.757 458C891.412 458 904.103 470.688 904.103 486.34Z" fill="#FB8D8D"/>
<path d="M881.426 609.523C881.426 601.801 887.687 595.542 895.41 595.542C903.134 595.542 909.395 601.801 909.395 609.523V642.019C909.395 649.741 903.134 656 895.41 656C887.687 656 881.426 649.741 881.426 642.019V609.523Z" fill="#FB8D8D"/>
<path d="M892.364 555.361C888.41 548.728 890.584 540.146 897.219 536.194C903.854 532.242 912.437 534.416 916.39 541.049L933.027 568.966C936.98 575.599 934.806 584.18 928.171 588.132C921.537 592.085 912.953 589.911 909 583.278L892.364 555.361Z" fill="#FB8D8D"/>
<path d="M835.128 541.146C838.989 534.459 847.542 532.168 854.23 536.029C860.919 539.889 863.21 548.44 859.349 555.127L843.097 583.269C839.235 589.956 830.683 592.248 823.994 588.387C817.306 584.526 815.014 575.975 818.876 569.289L835.128 541.146Z" fill="#FB8D8D"/>
<path d="M842.12 609.523C842.12 601.801 848.381 595.542 856.104 595.542C863.827 595.542 870.088 601.801 870.088 609.523V642.019C870.088 649.741 863.827 656 856.104 656C848.381 656 842.12 649.741 842.12 642.019V609.523Z" fill="#FB8D8D"/>
</g>
<g id="next">
<g id="Next">
<path id="Next_2" d="M1047.81 859V814.2H1057.79L1084.86 846.2L1083.01 845.88C1082.75 844.387 1082.56 842.957 1082.43 841.592C1082.3 840.227 1082.18 838.904 1082.05 837.624C1081.96 836.344 1081.88 835.064 1081.79 833.784C1081.75 832.504 1081.73 831.16 1081.73 829.752C1081.73 828.344 1081.73 826.851 1081.73 825.272V814.2H1092.29V859H1082.18L1054.08 825.976L1057.09 826.424C1057.22 827.917 1057.34 829.261 1057.47 830.456C1057.64 831.651 1057.77 832.781 1057.86 833.848C1057.98 834.872 1058.07 835.917 1058.11 836.984C1058.2 838.008 1058.26 839.096 1058.3 840.248C1058.35 841.4 1058.37 842.659 1058.37 844.024V859H1047.81ZM1124.89 859.64C1120.76 859.64 1117.13 858.893 1114.01 857.4C1110.94 855.864 1108.55 853.795 1106.85 851.192C1105.14 848.547 1104.29 845.539 1104.29 842.168C1104.29 839.48 1104.78 837.048 1105.76 834.872C1106.74 832.696 1108.11 830.819 1109.85 829.24C1111.6 827.661 1113.65 826.445 1116 825.592C1118.35 824.739 1120.88 824.312 1123.61 824.312C1126.26 824.312 1128.69 824.739 1130.91 825.592C1133.13 826.403 1135.05 827.576 1136.67 829.112C1138.33 830.648 1139.61 832.461 1140.51 834.552C1141.41 836.643 1141.81 838.947 1141.73 841.464L1141.66 844.344H1111.01L1109.53 838.392H1133.34L1132.25 839.672V838.392C1132.13 837.325 1131.66 836.365 1130.85 835.512C1130.08 834.659 1129.08 833.997 1127.84 833.528C1126.6 833.016 1125.24 832.76 1123.74 832.76C1121.82 832.76 1120.12 833.08 1118.62 833.72C1117.13 834.317 1115.96 835.256 1115.1 836.536C1114.29 837.816 1113.89 839.437 1113.89 841.4C1113.89 843.277 1114.38 844.92 1115.36 846.328C1116.38 847.736 1117.81 848.845 1119.65 849.656C1121.52 850.467 1123.72 850.872 1126.24 850.872C1128.41 850.872 1130.23 850.616 1131.68 850.104C1133.17 849.549 1134.52 848.867 1135.71 848.056L1140.32 854.712C1138.91 855.779 1137.35 856.696 1135.65 857.464C1133.98 858.189 1132.23 858.723 1130.4 859.064C1128.61 859.448 1126.77 859.64 1124.89 859.64ZM1178.57 859L1169.16 846.776L1166.54 843.32L1151.63 825.016H1164.56L1173 836.216L1175.82 839.928L1191.37 859H1178.57ZM1150.8 859L1166.03 839.8L1172.24 846.136L1163.53 859H1150.8ZM1175.76 844.216L1169.74 837.816L1178.32 825.016H1190.99L1175.76 844.216ZM1207.39 859V815.672H1217.63V859H1207.39ZM1199.84 833.976V825.016H1226.27V833.976H1199.84Z" fill="white"/>
</g>
<path id="Arrow 1" d="M1041 863.5C1036.31 863.5 1032.5 867.306 1032.5 872C1032.5 876.694 1036.31 880.5 1041 880.5V872V863.5ZM1318 872L1233 822.925V921.075L1318 872ZM1041 872V880.5H1241.5V872V863.5H1041V872Z" fill="#EF1044"/>
</g>
</g>
<defs>
<filter id="filter0_d_195_178" x="447" y="389" width="108" height="176" filterUnits="userSpaceOnUse" color-interpolation-filters="sRGB">
<feFlood flood-opacity="0" result="BackgroundImageFix"/>
<feColorMatrix in="SourceAlpha" type="matrix" values="0 0 0 0 0 0 0 0 0 0 0 0 0 0 0 0 0 0 127 0" result="hardAlpha"/>
<feOffset dy="4"/>
<feGaussianBlur stdDeviation="2"/>
<feComposite in2="hardAlpha" operator="out"/>
<feColorMatrix type="matrix" values="0 0 0 0 0 0 0 0 0 0 0 0 0 0 0 0 0 0 0.25 0"/>
<feBlend mode="normal" in2="BackgroundImageFix" result="effect1_dropShadow_195_178"/>
<feBlend mode="normal" in="SourceGraphic" in2="effect1_dropShadow_195_178" result="shape"/>
</filter>
<filter id="filter1_d_195_178" x="681" y="389" width="109" height="176" filterUnits="userSpaceOnUse" color-interpolation-filters="sRGB">
<feFlood flood-opacity="0" result="BackgroundImageFix"/>
<feColorMatrix in="SourceAlpha" type="matrix" values="0 0 0 0 0 0 0 0 0 0 0 0 0 0 0 0 0 0 127 0" result="hardAlpha"/>
<feOffset dy="4"/>
<feGaussianBlur stdDeviation="2"/>
<feComposite in2="hardAlpha" operator="out"/>
<feColorMatrix type="matrix" values="0 0 0 0 0 0 0 0 0 0 0 0 0 0 0 0 0 0 0.25 0"/>
<feBlend mode="normal" in2="BackgroundImageFix" result="effect1_dropShadow_195_178"/>
<feBlend mode="normal" in="SourceGraphic" in2="effect1_dropShadow_195_178" result="shape"/>
</filter>
<filter id="filter2_d_195_178" x="564" y="389" width="109" height="176" filterUnits="userSpaceOnUse" color-interpolation-filters="sRGB">
<feFlood flood-opacity="0" result="BackgroundImageFix"/>
<feColorMatrix in="SourceAlpha" type="matrix" values="0 0 0 0 0 0 0 0 0 0 0 0 0 0 0 0 0 0 127 0" result="hardAlpha"/>
<feOffset dy="4"/>
<feGaussianBlur stdDeviation="2"/>
<feComposite in2="hardAlpha" operator="out"/>
<feColorMatrix type="matrix" values="0 0 0 0 0 0 0 0 0 0 0 0 0 0 0 0 0 0 0.25 0"/>
<feBlend mode="normal" in2="BackgroundImageFix" result="effect1_dropShadow_195_178"/>
<feBlend mode="normal" in="SourceGraphic" in2="effect1_dropShadow_195_178" result="shape"/>
</filter>
<filter id="filter3_d_195_178" x="799" y="389" width="108" height="176" filterUnits="userSpaceOnUse" color-interpolation-filters="sRGB">
<feFlood flood-opacity="0" result="BackgroundImageFix"/>
<feColorMatrix in="SourceAlpha" type="matrix" values="0 0 0 0 0 0 0 0 0 0 0 0 0 0 0 0 0 0 127 0" result="hardAlpha"/>
<feOffset dy="4"/>
<feGaussianBlur stdDeviation="2"/>
<feComposite in2="hardAlpha" operator="out"/>
<feColorMatrix type="matrix" values="0 0 0 0 0 0 0 0 0 0 0 0 0 0 0 0 0 0 0.25 0"/>
<feBlend mode="normal" in2="BackgroundImageFix" result="effect1_dropShadow_195_178"/>
<feBlend mode="normal" in="SourceGraphic" in2="effect1_dropShadow_195_178" result="shape"/>
</filter>
<filter id="filter4_d_195_178" x="341" y="412" width="126" height="206" filterUnits="userSpaceOnUse" color-interpolation-filters="sRGB">
<feFlood flood-opacity="0" result="BackgroundImageFix"/>
<feColorMatrix in="SourceAlpha" type="matrix" values="0 0 0 0 0 0 0 0 0 0 0 0 0 0 0 0 0 0 127 0" result="hardAlpha"/>
<feOffset dy="4"/>
<feGaussianBlur stdDeviation="2"/>
<feComposite in2="hardAlpha" operator="out"/>
<feColorMatrix type="matrix" values="0 0 0 0 0 0 0 0 0 0 0 0 0 0 0 0 0 0 0.25 0"/>
<feBlend mode="normal" in2="BackgroundImageFix" result="effect1_dropShadow_195_178"/>
<feBlend mode="normal" in="SourceGraphic" in2="effect1_dropShadow_195_178" result="shape"/>
</filter>
<filter id="filter5_d_195_178" x="617" y="412" width="126" height="206" filterUnits="userSpaceOnUse" color-interpolation-filters="sRGB">
<feFlood flood-opacity="0" result="BackgroundImageFix"/>
<feColorMatrix in="SourceAlpha" type="matrix" values="0 0 0 0 0 0 0 0 0 0 0 0 0 0 0 0 0 0 127 0" result="hardAlpha"/>
<feOffset dy="4"/>
<feGaussianBlur stdDeviation="2"/>
<feComposite in2="hardAlpha" operator="out"/>
<feColorMatrix type="matrix" values="0 0 0 0 0 0 0 0 0 0 0 0 0 0 0 0 0 0 0.25 0"/>
<feBlend mode="normal" in2="BackgroundImageFix" result="effect1_dropShadow_195_178"/>
<feBlend mode="normal" in="SourceGraphic" in2="effect1_dropShadow_195_178" result="shape"/>
</filter>
<filter id="filter6_d_195_178" x="479" y="412" width="126" height="206" filterUnits="userSpaceOnUse" color-interpolation-filters="sRGB">
<feFlood flood-opacity="0" result="BackgroundImageFix"/>
<feColorMatrix in="SourceAlpha" type="matrix" values="0 0 0 0 0 0 0 0 0 0 0 0 0 0 0 0 0 0 127 0" result="hardAlpha"/>
<feOffset dy="4"/>
<feGaussianBlur stdDeviation="2"/>
<feComposite in2="hardAlpha" operator="out"/>
<feColorMatrix type="matrix" values="0 0 0 0 0 0 0 0 0 0 0 0 0 0 0 0 0 0 0.25 0"/>
<feBlend mode="normal" in2="BackgroundImageFix" result="effect1_dropShadow_195_178"/>
<feBlend mode="normal" in="SourceGraphic" in2="effect1_dropShadow_195_178" result="shape"/>
</filter>
<filter id="filter7_d_195_178" x="537" y="458" width="126" height="206" filterUnits="userSpaceOnUse" color-interpolation-filters="sRGB">
<feFlood flood-opacity="0" result="BackgroundImageFix"/>
<feColorMatrix in="SourceAlpha" type="matrix" values="0 0 0 0 0 0 0 0 0 0 0 0 0 0 0 0 0 0 127 0" result="hardAlpha"/>
<feOffset dy="4"/>
<feGaussianBlur stdDeviation="2"/>
<feComposite in2="hardAlpha" operator="out"/>
<feColorMatrix type="matrix" values="0 0 0 0 0 0 0 0 0 0 0 0 0 0 0 0 0 0 0.25 0"/>
<feBlend mode="normal" in2="BackgroundImageFix" result="effect1_dropShadow_195_178"/>
<feBlend mode="normal" in="SourceGraphic" in2="effect1_dropShadow_195_178" result="shape"/>
</filter>
<filter id="filter8_d_195_178" x="755" y="412" width="126" height="206" filterUnits="userSpaceOnUse" color-interpolation-filters="sRGB">
<feFlood flood-opacity="0" result="BackgroundImageFix"/>
<feColorMatrix in="SourceAlpha" type="matrix" values="0 0 0 0 0 0 0 0 0 0 0 0 0 0 0 0 0 0 127 0" result="hardAlpha"/>
<feOffset dy="4"/>
<feGaussianBlur stdDeviation="2"/>
<feComposite in2="hardAlpha" operator="out"/>
<feColorMatrix type="matrix" values="0 0 0 0 0 0 0 0 0 0 0 0 0 0 0 0 0 0 0.25 0"/>
<feBlend mode="normal" in2="BackgroundImageFix" result="effect1_dropShadow_195_178"/>
<feBlend mode="normal" in="SourceGraphic" in2="effect1_dropShadow_195_178" result="shape"/>
</filter>
<filter id="filter9_d_195_178" x="399" y="458" width="126" height="206" filterUnits="userSpaceOnUse" color-interpolation-filters="sRGB">
<feFlood flood-opacity="0" result="BackgroundImageFix"/>
<feColorMatrix in="SourceAlpha" type="matrix" values="0 0 0 0 0 0 0 0 0 0 0 0 0 0 0 0 0 0 127 0" result="hardAlpha"/>
<feOffset dy="4"/>
<feGaussianBlur stdDeviation="2"/>
<feComposite in2="hardAlpha" operator="out"/>
<feColorMatrix type="matrix" values="0 0 0 0 0 0 0 0 0 0 0 0 0 0 0 0 0 0 0.25 0"/>
<feBlend mode="normal" in2="BackgroundImageFix" result="effect1_dropShadow_195_178"/>
<feBlend mode="normal" in="SourceGraphic" in2="effect1_dropShadow_195_178" result="shape"/>
</filter>
<filter id="filter10_d_195_178" x="675" y="458" width="126" height="206" filterUnits="userSpaceOnUse" color-interpolation-filters="sRGB">
<feFlood flood-opacity="0" result="BackgroundImageFix"/>
<feColorMatrix in="SourceAlpha" type="matrix" values="0 0 0 0 0 0 0 0 0 0 0 0 0 0 0 0 0 0 127 0" result="hardAlpha"/>
<feOffset dy="4"/>
<feGaussianBlur stdDeviation="2"/>
<feComposite in2="hardAlpha" operator="out"/>
<feColorMatrix type="matrix" values="0 0 0 0 0 0 0 0 0 0 0 0 0 0 0 0 0 0 0.25 0"/>
<feBlend mode="normal" in2="BackgroundImageFix" result="effect1_dropShadow_195_178"/>
<feBlend mode="normal" in="SourceGraphic" in2="effect1_dropShadow_195_178" result="shape"/>
</filter>
<filter id="filter11_d_195_178" x="813" y="458" width="126" height="206" filterUnits="userSpaceOnUse" color-interpolation-filters="sRGB">
<feFlood flood-opacity="0" result="BackgroundImageFix"/>
<feColorMatrix in="SourceAlpha" type="matrix" values="0 0 0 0 0 0 0 0 0 0 0 0 0 0 0 0 0 0 127 0" result="hardAlpha"/>
<feOffset dy="4"/>
<feGaussianBlur stdDeviation="2"/>
<feComposite in2="hardAlpha" operator="out"/>
<feColorMatrix type="matrix" values="0 0 0 0 0 0 0 0 0 0 0 0 0 0 0 0 0 0 0.25 0"/>
<feBlend mode="normal" in2="BackgroundImageFix" result="effect1_dropShadow_195_178"/>
<feBlend mode="normal" in="SourceGraphic" in2="effect1_dropShadow_195_178" result="shape"/>
</filter>
</defs>
</svg>
