<svg width="1440" height="1024" viewBox="0 0 1440 1024" fill="none" xmlns="http://www.w3.org/2000/svg">
<g id="intro11">
<rect width="1440" height="1024" fill="#333148"/>
<path id="part 1" d="M357.096 322.12V250.024H371.688L372.264 261.448L369.384 260.584C369.832 258.536 371.048 256.648 373.032 254.92C375.016 253.192 377.512 251.784 380.52 250.696C383.592 249.608 386.856 249.064 390.312 249.064C395.304 249.064 399.688 250.216 403.464 252.52C407.24 254.76 410.184 257.864 412.296 261.832C414.472 265.736 415.56 270.28 415.56 275.464C415.56 280.584 414.472 285.128 412.296 289.096C410.184 293.064 407.208 296.2 403.368 298.504C399.528 300.744 395.112 301.864 390.12 301.864C386.664 301.864 383.432 301.288 380.424 300.136C377.416 298.984 374.888 297.48 372.84 295.624C370.856 293.768 369.576 291.816 369 289.768L372.552 288.424V322.12H357.096ZM386.376 288.904C389.256 288.904 391.752 288.36 393.864 287.272C395.976 286.12 397.608 284.552 398.76 282.568C399.976 280.584 400.584 278.216 400.584 275.464C400.584 272.776 399.976 270.44 398.76 268.456C397.608 266.408 395.976 264.84 393.864 263.752C391.816 262.6 389.32 262.024 386.376 262.024C383.496 262.024 380.968 262.568 378.792 263.656C376.68 264.744 375.016 266.312 373.8 268.36C372.648 270.408 372.072 272.776 372.072 275.464C372.072 278.216 372.648 280.584 373.8 282.568C375.016 284.552 376.68 286.12 378.792 287.272C380.968 288.36 383.496 288.904 386.376 288.904ZM454.211 301.864C449.155 301.864 444.739 300.744 440.963 298.504C437.187 296.264 434.211 293.16 432.035 289.192C429.923 285.16 428.867 280.584 428.867 275.464C428.867 270.28 429.955 265.704 432.131 261.736C434.307 257.768 437.315 254.664 441.155 252.424C445.059 250.12 449.539 248.968 454.595 248.968C457.475 248.968 460.131 249.352 462.563 250.12C464.995 250.824 467.107 251.816 468.899 253.096C470.755 254.376 472.259 255.784 473.411 257.32C474.627 258.856 475.427 260.456 475.811 262.12H472.451V250.024H487.619V301H472.163V287.944L475.427 288.424C475.043 290.088 474.243 291.72 473.027 293.32C471.811 294.92 470.243 296.36 468.323 297.64C466.403 298.92 464.227 299.944 461.795 300.712C459.427 301.48 456.899 301.864 454.211 301.864ZM458.339 288.904C461.219 288.904 463.715 288.36 465.827 287.272C468.003 286.184 469.667 284.648 470.819 282.664C472.035 280.616 472.643 278.216 472.643 275.464C472.643 272.776 472.035 270.44 470.819 268.456C469.667 266.408 468.003 264.808 465.827 263.656C463.715 262.504 461.219 261.928 458.339 261.928C455.459 261.928 452.963 262.504 450.851 263.656C448.739 264.808 447.075 266.408 445.859 268.456C444.707 270.44 444.131 272.776 444.131 275.464C444.131 278.216 444.707 280.616 445.859 282.664C447.075 284.648 448.739 286.184 450.851 287.272C452.963 288.36 455.459 288.904 458.339 288.904ZM511.315 301V250.024H525.907L526.579 267.592L522.931 265.768C523.763 262.632 525.203 259.816 527.251 257.32C529.363 254.76 531.763 252.744 534.451 251.272C537.203 249.736 540.115 248.968 543.187 248.968C544.851 248.968 546.419 249.128 547.891 249.448C549.427 249.768 550.739 250.184 551.827 250.696L547.603 267.496C546.643 266.792 545.331 266.248 543.667 265.864C542.067 265.48 540.435 265.288 538.771 265.288C536.915 265.288 535.219 265.608 533.683 266.248C532.211 266.824 530.963 267.656 529.939 268.744C528.915 269.768 528.115 270.952 527.539 272.296C527.027 273.64 526.771 275.08 526.771 276.616V301H511.315ZM575.932 301V236.008H591.292V301H575.932ZM564.604 263.464V250.024H604.252V263.464H564.604ZM673.496 296.296V241.768L677.144 248.872L661.496 256.552L658.328 242.152L677.24 232.84H689.528V296.296H673.496ZM659.672 301V286.6H702.488V301H659.672Z" fill="white"/>
<g id="Group 4">
<g id="Vector" filter="url(#filter0_d_59_154)">
<path d="M307.246 463.996C312.515 440.672 345.714 440.672 350.983 463.996L359.541 501.874C362.712 515.912 352.05 529.267 337.672 529.267H320.557C306.179 529.267 295.517 515.912 298.688 501.874L307.246 463.996Z" fill="#3B5EC6"/>
<path d="M352.816 413.046C352.816 426.326 342.061 437.092 328.794 437.092C315.527 437.092 304.772 426.326 304.772 413.046C304.772 399.766 315.527 389 328.794 389C342.061 389 352.816 399.766 352.816 413.046Z" fill="#3B5EC6"/>
<path d="M333.599 517.565C333.599 511.013 338.904 505.702 345.45 505.702C351.995 505.702 357.3 511.013 357.3 517.565V545.137C357.3 551.689 351.995 557 345.45 557C338.904 557 333.599 551.689 333.599 545.137V517.565Z" fill="#3B5EC6"/>
<path d="M342.867 471.609C339.517 465.981 341.36 458.7 346.982 455.347C352.605 451.993 359.879 453.837 363.229 459.466L377.328 483.153C380.678 488.781 378.836 496.062 373.213 499.415C367.59 502.769 360.316 500.925 356.966 495.296L342.867 471.609Z" fill="#3B5EC6"/>
<path d="M294.362 459.548C297.635 453.874 304.883 451.93 310.551 455.206C316.219 458.482 318.161 465.737 314.889 471.411L301.116 495.289C297.844 500.963 290.596 502.907 284.927 499.631C279.259 496.355 277.317 489.1 280.59 483.427L294.362 459.548Z" fill="#3B5EC6"/>
<path d="M300.288 517.565C300.288 511.013 305.594 505.702 312.139 505.702C318.684 505.702 323.99 511.013 323.99 517.565V545.137C323.99 551.689 318.684 557 312.139 557C305.594 557 300.288 551.689 300.288 545.137V517.565Z" fill="#3B5EC6"/>
</g>
<g id="Vector_2" filter="url(#filter1_d_59_154)">
<path d="M541.528 463.996C546.85 440.672 580.381 440.672 585.703 463.996L594.346 501.874C597.549 515.912 586.78 529.267 572.259 529.267H554.972C540.451 529.267 529.682 515.912 532.885 501.874L541.528 463.996Z" fill="#3B5EC6"/>
<path d="M587.555 413.046C587.555 426.326 576.692 437.092 563.292 437.092C549.892 437.092 539.03 426.326 539.03 413.046C539.03 399.766 549.892 389 563.292 389C576.692 389 587.555 399.766 587.555 413.046Z" fill="#3B5EC6"/>
<path d="M568.145 517.565C568.145 511.013 573.504 505.702 580.114 505.702C586.725 505.702 592.083 511.013 592.083 517.565V545.137C592.083 551.689 586.725 557 580.114 557C573.504 557 568.145 551.689 568.145 545.137V517.565Z" fill="#3B5EC6"/>
<path d="M577.506 471.609C574.123 465.981 575.983 458.7 581.662 455.347C587.341 451.993 594.688 453.837 598.071 459.466L612.311 483.153C615.695 488.781 613.834 496.062 608.155 499.415C602.476 502.769 595.13 500.925 591.746 495.296L577.506 471.609Z" fill="#3B5EC6"/>
<path d="M528.516 459.548C531.821 453.874 539.142 451.93 544.867 455.206C550.591 458.482 552.553 465.737 549.248 471.411L535.337 495.289C532.032 500.963 524.712 502.907 518.987 499.631C513.262 496.355 511.3 489.1 514.606 483.427L528.516 459.548Z" fill="#3B5EC6"/>
<path d="M534.501 517.565C534.501 511.013 539.86 505.702 546.47 505.702C553.081 505.702 558.44 511.013 558.44 517.565V545.137C558.44 551.689 553.081 557 546.47 557C539.86 557 534.501 551.689 534.501 545.137V517.565Z" fill="#3B5EC6"/>
</g>
<g id="Vector_3" filter="url(#filter2_d_59_154)">
<path d="M424.528 463.996C429.85 440.672 463.381 440.672 468.703 463.996L477.346 501.874C480.549 515.912 469.78 529.267 455.259 529.267H437.972C423.451 529.267 412.682 515.912 415.885 501.874L424.528 463.996Z" fill="#3B5EC6"/>
<path d="M470.555 413.046C470.555 426.326 459.692 437.092 446.292 437.092C432.892 437.092 422.03 426.326 422.03 413.046C422.03 399.766 432.892 389 446.292 389C459.692 389 470.555 399.766 470.555 413.046Z" fill="#3B5EC6"/>
<path d="M451.145 517.565C451.145 511.013 456.504 505.702 463.114 505.702C469.725 505.702 475.083 511.013 475.083 517.565V545.137C475.083 551.689 469.725 557 463.114 557C456.504 557 451.145 551.689 451.145 545.137V517.565Z" fill="#3B5EC6"/>
<path d="M460.506 471.609C457.123 465.981 458.983 458.7 464.662 455.347C470.341 451.993 477.688 453.837 481.071 459.466L495.311 483.153C498.695 488.781 496.834 496.062 491.155 499.415C485.476 502.769 478.13 500.925 474.746 495.296L460.506 471.609Z" fill="#3B5EC6"/>
<path d="M411.516 459.548C414.821 453.874 422.142 451.93 427.867 455.206C433.591 458.482 435.553 465.737 432.248 471.411L418.337 495.289C415.032 500.963 407.712 502.907 401.987 499.631C396.262 496.355 394.3 489.1 397.606 483.427L411.516 459.548Z" fill="#3B5EC6"/>
<path d="M417.501 517.565C417.501 511.013 422.86 505.702 429.47 505.702C436.081 505.702 441.44 511.013 441.44 517.565V545.137C441.44 551.689 436.081 557 429.47 557C422.86 557 417.501 551.689 417.501 545.137V517.565Z" fill="#3B5EC6"/>
</g>
<g id="Vector_4" filter="url(#filter3_d_59_154)">
<path d="M659.246 463.996C664.515 440.672 697.714 440.672 702.983 463.996L711.541 501.874C714.712 515.912 704.05 529.267 689.672 529.267H672.557C658.179 529.267 647.517 515.912 650.688 501.874L659.246 463.996Z" fill="#3B5EC6"/>
<path d="M704.816 413.046C704.816 426.326 694.061 437.092 680.794 437.092C667.527 437.092 656.772 426.326 656.772 413.046C656.772 399.766 667.527 389 680.794 389C694.061 389 704.816 399.766 704.816 413.046Z" fill="#3B5EC6"/>
<path d="M685.599 517.565C685.599 511.013 690.904 505.702 697.45 505.702C703.995 505.702 709.3 511.013 709.3 517.565V545.137C709.3 551.689 703.995 557 697.45 557C690.904 557 685.599 551.689 685.599 545.137V517.565Z" fill="#3B5EC6"/>
<path d="M694.867 471.609C691.517 465.981 693.36 458.7 698.982 455.347C704.605 451.993 711.879 453.837 715.229 459.466L729.328 483.153C732.678 488.781 730.836 496.062 725.213 499.415C719.59 502.769 712.316 500.925 708.966 495.296L694.867 471.609Z" fill="#3B5EC6"/>
<path d="M646.362 459.548C649.635 453.874 656.883 451.93 662.551 455.206C668.219 458.482 670.161 465.737 666.889 471.411L653.116 495.289C649.844 500.963 642.596 502.907 636.927 499.631C631.259 496.355 629.317 489.1 632.59 483.427L646.362 459.548Z" fill="#3B5EC6"/>
<path d="M652.288 517.565C652.288 511.013 657.594 505.702 664.139 505.702C670.684 505.702 675.99 511.013 675.99 517.565V545.137C675.99 551.689 670.684 557 664.139 557C657.594 557 652.288 551.689 652.288 545.137V517.565Z" fill="#3B5EC6"/>
</g>
<g id="Vector_5" filter="url(#filter4_d_59_154)">
<path d="M206.33 500.388C212.548 472.899 251.722 472.899 257.94 500.388L268.038 545.03C271.78 561.575 259.199 577.315 242.233 577.315H222.037C205.071 577.315 192.49 561.575 196.232 545.03L206.33 500.388Z" fill="#6A94E0"/>
<path d="M260.103 440.34C260.103 455.991 247.412 468.679 231.757 468.679C216.102 468.679 203.411 455.991 203.411 440.34C203.411 424.688 216.102 412 231.757 412C247.412 412 260.103 424.688 260.103 440.34Z" fill="#6A94E0"/>
<path d="M237.426 563.523C237.426 555.801 243.687 549.542 251.41 549.542C259.134 549.542 265.395 555.801 265.395 563.523V596.019C265.395 603.741 259.134 610 251.41 610C243.687 610 237.426 603.741 237.426 596.019V563.523Z" fill="#6A94E0"/>
<path d="M248.364 509.361C244.41 502.728 246.584 494.146 253.219 490.194C259.854 486.242 268.437 488.416 272.39 495.049L289.027 522.966C292.98 529.599 290.806 538.18 284.171 542.132C277.537 546.085 268.953 543.911 265 537.278L248.364 509.361Z" fill="#6A94E0"/>
<path d="M191.128 495.146C194.989 488.459 203.542 486.168 210.23 490.029C216.919 493.889 219.21 502.44 215.349 509.127L199.097 537.269C195.235 543.956 186.683 546.248 179.994 542.387C173.306 538.526 171.014 529.975 174.876 523.289L191.128 495.146Z" fill="#6A94E0"/>
<path d="M198.12 563.523C198.12 555.801 204.381 549.542 212.104 549.542C219.827 549.542 226.088 555.801 226.088 563.523V596.019C226.088 603.741 219.827 610 212.104 610C204.381 610 198.12 603.741 198.12 596.019V563.523Z" fill="#6A94E0"/>
</g>
<g id="Vector_6" filter="url(#filter5_d_59_154)">
<path d="M482.33 500.388C488.548 472.899 527.722 472.899 533.94 500.388L544.038 545.03C547.78 561.575 535.199 577.315 518.233 577.315H498.037C481.071 577.315 468.49 561.575 472.232 545.03L482.33 500.388Z" fill="#6A94E0"/>
<path d="M536.103 440.34C536.103 455.991 523.412 468.679 507.757 468.679C492.102 468.679 479.411 455.991 479.411 440.34C479.411 424.688 492.102 412 507.757 412C523.412 412 536.103 424.688 536.103 440.34Z" fill="#6A94E0"/>
<path d="M513.426 563.523C513.426 555.801 519.687 549.542 527.41 549.542C535.134 549.542 541.395 555.801 541.395 563.523V596.019C541.395 603.741 535.134 610 527.41 610C519.687 610 513.426 603.741 513.426 596.019V563.523Z" fill="#6A94E0"/>
<path d="M524.364 509.361C520.41 502.728 522.584 494.146 529.219 490.194C535.854 486.242 544.437 488.416 548.39 495.049L565.027 522.966C568.98 529.599 566.806 538.18 560.171 542.132C553.537 546.085 544.953 543.911 541 537.278L524.364 509.361Z" fill="#6A94E0"/>
<path d="M467.128 495.146C470.989 488.459 479.542 486.168 486.23 490.029C492.919 493.889 495.21 502.44 491.349 509.127L475.097 537.269C471.235 543.956 462.683 546.248 455.994 542.387C449.306 538.526 447.014 529.975 450.876 523.289L467.128 495.146Z" fill="#6A94E0"/>
<path d="M474.12 563.523C474.12 555.801 480.381 549.542 488.104 549.542C495.827 549.542 502.088 555.801 502.088 563.523V596.019C502.088 603.741 495.827 610 488.104 610C480.381 610 474.12 603.741 474.12 596.019V563.523Z" fill="#6A94E0"/>
</g>
<g id="Vector_7" filter="url(#filter6_d_59_154)">
<path d="M344.33 500.388C350.548 472.899 389.722 472.899 395.94 500.388L406.038 545.03C409.78 561.575 397.199 577.315 380.233 577.315H360.037C343.071 577.315 330.49 561.575 334.232 545.03L344.33 500.388Z" fill="#6A94E0"/>
<path d="M398.103 440.34C398.103 455.991 385.412 468.679 369.757 468.679C354.102 468.679 341.411 455.991 341.411 440.34C341.411 424.688 354.102 412 369.757 412C385.412 412 398.103 424.688 398.103 440.34Z" fill="#6A94E0"/>
<path d="M375.426 563.523C375.426 555.801 381.687 549.542 389.41 549.542C397.134 549.542 403.395 555.801 403.395 563.523V596.019C403.395 603.741 397.134 610 389.41 610C381.687 610 375.426 603.741 375.426 596.019V563.523Z" fill="#6A94E0"/>
<path d="M386.364 509.361C382.41 502.728 384.584 494.146 391.219 490.194C397.854 486.242 406.437 488.416 410.39 495.049L427.027 522.966C430.98 529.599 428.806 538.18 422.171 542.132C415.537 546.085 406.953 543.911 403 537.278L386.364 509.361Z" fill="#6A94E0"/>
<path d="M329.128 495.146C332.989 488.459 341.542 486.168 348.23 490.029C354.919 493.889 357.21 502.44 353.349 509.127L337.097 537.269C333.235 543.956 324.683 546.248 317.994 542.387C311.306 538.526 309.014 529.975 312.876 523.289L329.128 495.146Z" fill="#6A94E0"/>
<path d="M336.12 563.523C336.12 555.801 342.381 549.542 350.104 549.542C357.827 549.542 364.088 555.801 364.088 563.523V596.019C364.088 603.741 357.827 610 350.104 610C342.381 610 336.12 603.741 336.12 596.019V563.523Z" fill="#6A94E0"/>
</g>
<g id="Vector_8" filter="url(#filter7_d_59_154)">
<path d="M402.33 546.388C408.548 518.899 447.722 518.899 453.94 546.388L464.038 591.03C467.78 607.575 455.199 623.315 438.233 623.315H418.037C401.071 623.315 388.49 607.575 392.232 591.03L402.33 546.388Z" fill="#8DBBFB"/>
<path d="M456.103 486.34C456.103 501.991 443.412 514.679 427.757 514.679C412.102 514.679 399.411 501.991 399.411 486.34C399.411 470.688 412.102 458 427.757 458C443.412 458 456.103 470.688 456.103 486.34Z" fill="#8DBBFB"/>
<path d="M433.426 609.523C433.426 601.801 439.687 595.542 447.41 595.542C455.134 595.542 461.395 601.801 461.395 609.523V642.019C461.395 649.741 455.134 656 447.41 656C439.687 656 433.426 649.741 433.426 642.019V609.523Z" fill="#8DBBFB"/>
<path d="M444.364 555.361C440.41 548.728 442.584 540.146 449.219 536.194C455.854 532.242 464.437 534.416 468.39 541.049L485.027 568.966C488.98 575.599 486.806 584.18 480.171 588.132C473.537 592.085 464.953 589.911 461 583.278L444.364 555.361Z" fill="#8DBBFB"/>
<path d="M387.128 541.146C390.989 534.459 399.542 532.168 406.23 536.029C412.919 539.889 415.21 548.44 411.349 555.127L395.097 583.269C391.235 589.956 382.683 592.248 375.994 588.387C369.306 584.526 367.014 575.975 370.876 569.289L387.128 541.146Z" fill="#8DBBFB"/>
<path d="M394.12 609.523C394.12 601.801 400.381 595.542 408.104 595.542C415.827 595.542 422.088 601.801 422.088 609.523V642.019C422.088 649.741 415.827 656 408.104 656C400.381 656 394.12 649.741 394.12 642.019V609.523Z" fill="#8DBBFB"/>
</g>
<g id="Vector_9" filter="url(#filter8_d_59_154)">
<path d="M620.33 500.388C626.548 472.899 665.722 472.899 671.94 500.388L682.038 545.03C685.78 561.575 673.199 577.315 656.233 577.315H636.037C619.071 577.315 606.49 561.575 610.232 545.03L620.33 500.388Z" fill="#6A94E0"/>
<path d="M674.103 440.34C674.103 455.991 661.412 468.679 645.757 468.679C630.102 468.679 617.411 455.991 617.411 440.34C617.411 424.688 630.102 412 645.757 412C661.412 412 674.103 424.688 674.103 440.34Z" fill="#6A94E0"/>
<path d="M651.426 563.523C651.426 555.801 657.687 549.542 665.41 549.542C673.134 549.542 679.395 555.801 679.395 563.523V596.019C679.395 603.741 673.134 610 665.41 610C657.687 610 651.426 603.741 651.426 596.019V563.523Z" fill="#6A94E0"/>
<path d="M662.364 509.361C658.41 502.728 660.584 494.146 667.219 490.194C673.854 486.242 682.437 488.416 686.39 495.049L703.027 522.966C706.98 529.599 704.806 538.18 698.171 542.132C691.537 546.085 682.953 543.911 679 537.278L662.364 509.361Z" fill="#6A94E0"/>
<path d="M605.128 495.146C608.989 488.459 617.542 486.168 624.23 490.029C630.919 493.889 633.21 502.44 629.349 509.127L613.097 537.269C609.235 543.956 600.683 546.248 593.994 542.387C587.306 538.526 585.014 529.975 588.876 523.289L605.128 495.146Z" fill="#6A94E0"/>
<path d="M612.12 563.523C612.12 555.801 618.381 549.542 626.104 549.542C633.827 549.542 640.088 555.801 640.088 563.523V596.019C640.088 603.741 633.827 610 626.104 610C618.381 610 612.12 603.741 612.12 596.019V563.523Z" fill="#6A94E0"/>
</g>
<g id="Vector_10" filter="url(#filter9_d_59_154)">
<path d="M264.33 546.388C270.548 518.899 309.722 518.899 315.94 546.388L326.038 591.03C329.78 607.575 317.199 623.315 300.233 623.315H280.037C263.071 623.315 250.49 607.575 254.232 591.03L264.33 546.388Z" fill="#8DBBFB"/>
<path d="M318.103 486.34C318.103 501.991 305.412 514.679 289.757 514.679C274.102 514.679 261.411 501.991 261.411 486.34C261.411 470.688 274.102 458 289.757 458C305.412 458 318.103 470.688 318.103 486.34Z" fill="#8DBBFB"/>
<path d="M295.426 609.523C295.426 601.801 301.687 595.542 309.41 595.542C317.134 595.542 323.395 601.801 323.395 609.523V642.019C323.395 649.741 317.134 656 309.41 656C301.687 656 295.426 649.741 295.426 642.019V609.523Z" fill="#8DBBFB"/>
<path d="M306.364 555.361C302.41 548.728 304.584 540.146 311.219 536.194C317.854 532.242 326.437 534.416 330.39 541.049L347.027 568.966C350.98 575.599 348.806 584.18 342.171 588.132C335.537 592.085 326.953 589.911 323 583.278L306.364 555.361Z" fill="#8DBBFB"/>
<path d="M249.128 541.146C252.989 534.459 261.542 532.168 268.23 536.029C274.919 539.889 277.21 548.44 273.349 555.127L257.097 583.269C253.235 589.956 244.683 592.248 237.994 588.387C231.306 584.526 229.014 575.975 232.876 569.289L249.128 541.146Z" fill="#8DBBFB"/>
<path d="M256.12 609.523C256.12 601.801 262.381 595.542 270.104 595.542C277.827 595.542 284.088 601.801 284.088 609.523V642.019C284.088 649.741 277.827 656 270.104 656C262.381 656 256.12 649.741 256.12 642.019V609.523Z" fill="#8DBBFB"/>
</g>
<g id="Vector_11" filter="url(#filter10_d_59_154)">
<path d="M540.33 546.388C546.548 518.899 585.722 518.899 591.94 546.388L602.038 591.03C605.78 607.575 593.199 623.315 576.233 623.315H556.037C539.071 623.315 526.49 607.575 530.232 591.03L540.33 546.388Z" fill="#8DBBFB"/>
<path d="M594.103 486.34C594.103 501.991 581.412 514.679 565.757 514.679C550.102 514.679 537.411 501.991 537.411 486.34C537.411 470.688 550.102 458 565.757 458C581.412 458 594.103 470.688 594.103 486.34Z" fill="#8DBBFB"/>
<path d="M571.426 609.523C571.426 601.801 577.687 595.542 585.41 595.542C593.134 595.542 599.395 601.801 599.395 609.523V642.019C599.395 649.741 593.134 656 585.41 656C577.687 656 571.426 649.741 571.426 642.019V609.523Z" fill="#8DBBFB"/>
<path d="M582.364 555.361C578.41 548.728 580.584 540.146 587.219 536.194C593.854 532.242 602.437 534.416 606.39 541.049L623.027 568.966C626.98 575.599 624.806 584.18 618.171 588.132C611.537 592.085 602.953 589.911 599 583.278L582.364 555.361Z" fill="#8DBBFB"/>
<path d="M525.128 541.146C528.989 534.459 537.542 532.168 544.23 536.029C550.919 539.889 553.21 548.44 549.349 555.127L533.097 583.269C529.235 589.956 520.683 592.248 513.994 588.387C507.306 584.526 505.014 575.975 508.876 569.289L525.128 541.146Z" fill="#8DBBFB"/>
<path d="M532.12 609.523C532.12 601.801 538.381 595.542 546.104 595.542C553.827 595.542 560.088 601.801 560.088 609.523V642.019C560.088 649.741 553.827 656 546.104 656C538.381 656 532.12 649.741 532.12 642.019V609.523Z" fill="#8DBBFB"/>
</g>
<g id="Vector_12" filter="url(#filter11_d_59_154)">
<path d="M678.33 546.388C684.548 518.899 723.722 518.899 729.94 546.388L740.038 591.03C743.78 607.575 731.199 623.315 714.233 623.315H694.037C677.071 623.315 664.49 607.575 668.232 591.03L678.33 546.388Z" fill="#8DBBFB"/>
<path d="M732.103 486.34C732.103 501.991 719.412 514.679 703.757 514.679C688.102 514.679 675.411 501.991 675.411 486.34C675.411 470.688 688.102 458 703.757 458C719.412 458 732.103 470.688 732.103 486.34Z" fill="#8DBBFB"/>
<path d="M709.426 609.523C709.426 601.801 715.687 595.542 723.41 595.542C731.134 595.542 737.395 601.801 737.395 609.523V642.019C737.395 649.741 731.134 656 723.41 656C715.687 656 709.426 649.741 709.426 642.019V609.523Z" fill="#8DBBFB"/>
<path d="M720.364 555.361C716.41 548.728 718.584 540.146 725.219 536.194C731.854 532.242 740.437 534.416 744.39 541.049L761.027 568.966C764.98 575.599 762.806 584.18 756.171 588.132C749.537 592.085 740.953 589.911 737 583.278L720.364 555.361Z" fill="#8DBBFB"/>
<path d="M663.128 541.146C666.989 534.459 675.542 532.168 682.23 536.029C688.919 539.889 691.21 548.44 687.349 555.127L671.097 583.269C667.235 589.956 658.683 592.248 651.994 588.387C645.306 584.526 643.014 575.975 646.876 569.289L663.128 541.146Z" fill="#8DBBFB"/>
<path d="M670.12 609.523C670.12 601.801 676.381 595.542 684.104 595.542C691.827 595.542 698.088 601.801 698.088 609.523V642.019C698.088 649.741 691.827 656 684.104 656C676.381 656 670.12 649.741 670.12 642.019V609.523Z" fill="#8DBBFB"/>
</g>
</g>
<path id="Vector 3" d="M1140.5 146.5L1109 208L1140.5 305L1085.5 429V509.5L1109 435.5L1171.5 313.5L1129.5 218L1140.5 146.5Z" fill="#201F2F"/>
<g id="Vector 4">
<path d="M1085 431L1051 531.5L1166 622.5L1091.5 494L1085 431Z" fill="#201F2F"/>
<path d="M1135.5 178.5L1206.5 152.5L1226 63.5L1193 138L1135.5 152.5V178.5Z" fill="#201F2F"/>
</g>
<path id="Vector 8" d="M1123 371.5L1078 324.5L1005 382L902.5 360H986.5L1060 295.5L1145 314L1217 284L1199 252.5L1231.5 209L1217 252.5L1247.5 295.5L1296 314L1225 316.5L1176.5 345.5H1137L1123 371.5Z" fill="#201F2F"/>
</g>
<defs>
<filter id="filter0_d_59_154" x="275" y="389" width="108" height="176" filterUnits="userSpaceOnUse" color-interpolation-filters="sRGB">
<feFlood flood-opacity="0" result="BackgroundImageFix"/>
<feColorMatrix in="SourceAlpha" type="matrix" values="0 0 0 0 0 0 0 0 0 0 0 0 0 0 0 0 0 0 127 0" result="hardAlpha"/>
<feOffset dy="4"/>
<feGaussianBlur stdDeviation="2"/>
<feComposite in2="hardAlpha" operator="out"/>
<feColorMatrix type="matrix" values="0 0 0 0 0 0 0 0 0 0 0 0 0 0 0 0 0 0 0.25 0"/>
<feBlend mode="normal" in2="BackgroundImageFix" result="effect1_dropShadow_59_154"/>
<feBlend mode="normal" in="SourceGraphic" in2="effect1_dropShadow_59_154" result="shape"/>
</filter>
<filter id="filter1_d_59_154" x="509" y="389" width="109" height="176" filterUnits="userSpaceOnUse" color-interpolation-filters="sRGB">
<feFlood flood-opacity="0" result="BackgroundImageFix"/>
<feColorMatrix in="SourceAlpha" type="matrix" values="0 0 0 0 0 0 0 0 0 0 0 0 0 0 0 0 0 0 127 0" result="hardAlpha"/>
<feOffset dy="4"/>
<feGaussianBlur stdDeviation="2"/>
<feComposite in2="hardAlpha" operator="out"/>
<feColorMatrix type="matrix" values="0 0 0 0 0 0 0 0 0 0 0 0 0 0 0 0 0 0 0.25 0"/>
<feBlend mode="normal" in2="BackgroundImageFix" result="effect1_dropShadow_59_154"/>
<feBlend mode="normal" in="SourceGraphic" in2="effect1_dropShadow_59_154" result="shape"/>
</filter>
<filter id="filter2_d_59_154" x="392" y="389" width="109" height="176" filterUnits="userSpaceOnUse" color-interpolation-filters="sRGB">
<feFlood flood-opacity="0" result="BackgroundImageFix"/>
<feColorMatrix in="SourceAlpha" type="matrix" values="0 0 0 0 0 0 0 0 0 0 0 0 0 0 0 0 0 0 127 0" result="hardAlpha"/>
<feOffset dy="4"/>
<feGaussianBlur stdDeviation="2"/>
<feComposite in2="hardAlpha" operator="out"/>
<feColorMatrix type="matrix" values="0 0 0 0 0 0 0 0 0 0 0 0 0 0 0 0 0 0 0.25 0"/>
<feBlend mode="normal" in2="BackgroundImageFix" result="effect1_dropShadow_59_154"/>
<feBlend mode="normal" in="SourceGraphic" in2="effect1_dropShadow_59_154" result="shape"/>
</filter>
<filter id="filter3_d_59_154" x="627" y="389" width="108" height="176" filterUnits="userSpaceOnUse" color-interpolation-filters="sRGB">
<feFlood flood-opacity="0" result="BackgroundImageFix"/>
<feColorMatrix in="SourceAlpha" type="matrix" values="0 0 0 0 0 0 0 0 0 0 0 0 0 0 0 0 0 0 127 0" result="hardAlpha"/>
<feOffset dy="4"/>
<feGaussianBlur stdDeviation="2"/>
<feComposite in2="hardAlpha" operator="out"/>
<feColorMatrix type="matrix" values="0 0 0 0 0 0 0 0 0 0 0 0 0 0 0 0 0 0 0.25 0"/>
<feBlend mode="normal" in2="BackgroundImageFix" result="effect1_dropShadow_59_154"/>
<feBlend mode="normal" in="SourceGraphic" in2="effect1_dropShadow_59_154" result="shape"/>
</filter>
<filter id="filter4_d_59_154" x="169" y="412" width="126" height="206" filterUnits="userSpaceOnUse" color-interpolation-filters="sRGB">
<feFlood flood-opacity="0" result="BackgroundImageFix"/>
<feColorMatrix in="SourceAlpha" type="matrix" values="0 0 0 0 0 0 0 0 0 0 0 0 0 0 0 0 0 0 127 0" result="hardAlpha"/>
<feOffset dy="4"/>
<feGaussianBlur stdDeviation="2"/>
<feComposite in2="hardAlpha" operator="out"/>
<feColorMatrix type="matrix" values="0 0 0 0 0 0 0 0 0 0 0 0 0 0 0 0 0 0 0.25 0"/>
<feBlend mode="normal" in2="BackgroundImageFix" result="effect1_dropShadow_59_154"/>
<feBlend mode="normal" in="SourceGraphic" in2="effect1_dropShadow_59_154" result="shape"/>
</filter>
<filter id="filter5_d_59_154" x="445" y="412" width="126" height="206" filterUnits="userSpaceOnUse" color-interpolation-filters="sRGB">
<feFlood flood-opacity="0" result="BackgroundImageFix"/>
<feColorMatrix in="SourceAlpha" type="matrix" values="0 0 0 0 0 0 0 0 0 0 0 0 0 0 0 0 0 0 127 0" result="hardAlpha"/>
<feOffset dy="4"/>
<feGaussianBlur stdDeviation="2"/>
<feComposite in2="hardAlpha" operator="out"/>
<feColorMatrix type="matrix" values="0 0 0 0 0 0 0 0 0 0 0 0 0 0 0 0 0 0 0.25 0"/>
<feBlend mode="normal" in2="BackgroundImageFix" result="effect1_dropShadow_59_154"/>
<feBlend mode="normal" in="SourceGraphic" in2="effect1_dropShadow_59_154" result="shape"/>
</filter>
<filter id="filter6_d_59_154" x="307" y="412" width="126" height="206" filterUnits="userSpaceOnUse" color-interpolation-filters="sRGB">
<feFlood flood-opacity="0" result="BackgroundImageFix"/>
<feColorMatrix in="SourceAlpha" type="matrix" values="0 0 0 0 0 0 0 0 0 0 0 0 0 0 0 0 0 0 127 0" result="hardAlpha"/>
<feOffset dy="4"/>
<feGaussianBlur stdDeviation="2"/>
<feComposite in2="hardAlpha" operator="out"/>
<feColorMatrix type="matrix" values="0 0 0 0 0 0 0 0 0 0 0 0 0 0 0 0 0 0 0.25 0"/>
<feBlend mode="normal" in2="BackgroundImageFix" result="effect1_dropShadow_59_154"/>
<feBlend mode="normal" in="SourceGraphic" in2="effect1_dropShadow_59_154" result="shape"/>
</filter>
<filter id="filter7_d_59_154" x="365" y="458" width="126" height="206" filterUnits="userSpaceOnUse" color-interpolation-filters="sRGB">
<feFlood flood-opacity="0" result="BackgroundImageFix"/>
<feColorMatrix in="SourceAlpha" type="matrix" values="0 0 0 0 0 0 0 0 0 0 0 0 0 0 0 0 0 0 127 0" result="hardAlpha"/>
<feOffset dy="4"/>
<feGaussianBlur stdDeviation="2"/>
<feComposite in2="hardAlpha" operator="out"/>
<feColorMatrix type="matrix" values="0 0 0 0 0 0 0 0 0 0 0 0 0 0 0 0 0 0 0.25 0"/>
<feBlend mode="normal" in2="BackgroundImageFix" result="effect1_dropShadow_59_154"/>
<feBlend mode="normal" in="SourceGraphic" in2="effect1_dropShadow_59_154" result="shape"/>
</filter>
<filter id="filter8_d_59_154" x="583" y="412" width="126" height="206" filterUnits="userSpaceOnUse" color-interpolation-filters="sRGB">
<feFlood flood-opacity="0" result="BackgroundImageFix"/>
<feColorMatrix in="SourceAlpha" type="matrix" values="0 0 0 0 0 0 0 0 0 0 0 0 0 0 0 0 0 0 127 0" result="hardAlpha"/>
<feOffset dy="4"/>
<feGaussianBlur stdDeviation="2"/>
<feComposite in2="hardAlpha" operator="out"/>
<feColorMatrix type="matrix" values="0 0 0 0 0 0 0 0 0 0 0 0 0 0 0 0 0 0 0.25 0"/>
<feBlend mode="normal" in2="BackgroundImageFix" result="effect1_dropShadow_59_154"/>
<feBlend mode="normal" in="SourceGraphic" in2="effect1_dropShadow_59_154" result="shape"/>
</filter>
<filter id="filter9_d_59_154" x="227" y="458" width="126" height="206" filterUnits="userSpaceOnUse" color-interpolation-filters="sRGB">
<feFlood flood-opacity="0" result="BackgroundImageFix"/>
<feColorMatrix in="SourceAlpha" type="matrix" values="0 0 0 0 0 0 0 0 0 0 0 0 0 0 0 0 0 0 127 0" result="hardAlpha"/>
<feOffset dy="4"/>
<feGaussianBlur stdDeviation="2"/>
<feComposite in2="hardAlpha" operator="out"/>
<feColorMatrix type="matrix" values="0 0 0 0 0 0 0 0 0 0 0 0 0 0 0 0 0 0 0.25 0"/>
<feBlend mode="normal" in2="BackgroundImageFix" result="effect1_dropShadow_59_154"/>
<feBlend mode="normal" in="SourceGraphic" in2="effect1_dropShadow_59_154" result="shape"/>
</filter>
<filter id="filter10_d_59_154" x="503" y="458" width="126" height="206" filterUnits="userSpaceOnUse" color-interpolation-filters="sRGB">
<feFlood flood-opacity="0" result="BackgroundImageFix"/>
<feColorMatrix in="SourceAlpha" type="matrix" values="0 0 0 0 0 0 0 0 0 0 0 0 0 0 0 0 0 0 127 0" result="hardAlpha"/>
<feOffset dy="4"/>
<feGaussianBlur stdDeviation="2"/>
<feComposite in2="hardAlpha" operator="out"/>
<feColorMatrix type="matrix" values="0 0 0 0 0 0 0 0 0 0 0 0 0 0 0 0 0 0 0.25 0"/>
<feBlend mode="normal" in2="BackgroundImageFix" result="effect1_dropShadow_59_154"/>
<feBlend mode="normal" in="SourceGraphic" in2="effect1_dropShadow_59_154" result="shape"/>
</filter>
<filter id="filter11_d_59_154" x="641" y="458" width="126" height="206" filterUnits="userSpaceOnUse" color-interpolation-filters="sRGB">
<feFlood flood-opacity="0" result="BackgroundImageFix"/>
<feColorMatrix in="SourceAlpha" type="matrix" values="0 0 0 0 0 0 0 0 0 0 0 0 0 0 0 0 0 0 127 0" result="hardAlpha"/>
<feOffset dy="4"/>
<feGaussianBlur stdDeviation="2"/>
<feComposite in2="hardAlpha" operator="out"/>
<feColorMatrix type="matrix" values="0 0 0 0 0 0 0 0 0 0 0 0 0 0 0 0 0 0 0.25 0"/>
<feBlend mode="normal" in2="BackgroundImageFix" result="effect1_dropShadow_59_154"/>
<feBlend mode="normal" in="SourceGraphic" in2="effect1_dropShadow_59_154" result="shape"/>
</filter>
</defs>
</svg>
