<svg width="1440" height="1024" viewBox="0 0 1440 1024" fill="none" xmlns="http://www.w3.org/2000/svg">
<g id="intro2">
<rect width="1440" height="1024" fill="#333148"/>
<path id="part 1" d="M357.096 322.12V250.024H371.688L372.264 261.448L369.384 260.584C369.832 258.536 371.048 256.648 373.032 254.92C375.016 253.192 377.512 251.784 380.52 250.696C383.592 249.608 386.856 249.064 390.312 249.064C395.304 249.064 399.688 250.216 403.464 252.52C407.24 254.76 410.184 257.864 412.296 261.832C414.472 265.736 415.56 270.28 415.56 275.464C415.56 280.584 414.472 285.128 412.296 289.096C410.184 293.064 407.208 296.2 403.368 298.504C399.528 300.744 395.112 301.864 390.12 301.864C386.664 301.864 383.432 301.288 380.424 300.136C377.416 298.984 374.888 297.48 372.84 295.624C370.856 293.768 369.576 291.816 369 289.768L372.552 288.424V322.12H357.096ZM386.376 288.904C389.256 288.904 391.752 288.36 393.864 287.272C395.976 286.12 397.608 284.552 398.76 282.568C399.976 280.584 400.584 278.216 400.584 275.464C400.584 272.776 399.976 270.44 398.76 268.456C397.608 266.408 395.976 264.84 393.864 263.752C391.816 262.6 389.32 262.024 386.376 262.024C383.496 262.024 380.968 262.568 378.792 263.656C376.68 264.744 375.016 266.312 373.8 268.36C372.648 270.408 372.072 272.776 372.072 275.464C372.072 278.216 372.648 280.584 373.8 282.568C375.016 284.552 376.68 286.12 378.792 287.272C380.968 288.36 383.496 288.904 386.376 288.904ZM454.211 301.864C449.155 301.864 444.739 300.744 440.963 298.504C437.187 296.264 434.211 293.16 432.035 289.192C429.923 285.16 428.867 280.584 428.867 275.464C428.867 270.28 429.955 265.704 432.131 261.736C434.307 257.768 437.315 254.664 441.155 252.424C445.059 250.12 449.539 248.968 454.595 248.968C457.475 248.968 460.131 249.352 462.563 250.12C464.995 250.824 467.107 251.816 468.899 253.096C470.755 254.376 472.259 255.784 473.411 257.32C474.627 258.856 475.427 260.456 475.811 262.12H472.451V250.024H487.619V301H472.163V287.944L475.427 288.424C475.043 290.088 474.243 291.72 473.027 293.32C471.811 294.92 470.243 296.36 468.323 297.64C466.403 298.92 464.227 299.944 461.795 300.712C459.427 301.48 456.899 301.864 454.211 301.864ZM458.339 288.904C461.219 288.904 463.715 288.36 465.827 287.272C468.003 286.184 469.667 284.648 470.819 282.664C472.035 280.616 472.643 278.216 472.643 275.464C472.643 272.776 472.035 270.44 470.819 268.456C469.667 266.408 468.003 264.808 465.827 263.656C463.715 262.504 461.219 261.928 458.339 261.928C455.459 261.928 452.963 262.504 450.851 263.656C448.739 264.808 447.075 266.408 445.859 268.456C444.707 270.44 444.131 272.776 444.131 275.464C444.131 278.216 444.707 280.616 445.859 282.664C447.075 284.648 448.739 286.184 450.851 287.272C452.963 288.36 455.459 288.904 458.339 288.904ZM511.315 301V250.024H525.907L526.579 267.592L522.931 265.768C523.763 262.632 525.203 259.816 527.251 257.32C529.363 254.76 531.763 252.744 534.451 251.272C537.203 249.736 540.115 248.968 543.187 248.968C544.851 248.968 546.419 249.128 547.891 249.448C549.427 249.768 550.739 250.184 551.827 250.696L547.603 267.496C546.643 266.792 545.331 266.248 543.667 265.864C542.067 265.48 540.435 265.288 538.771 265.288C536.915 265.288 535.219 265.608 533.683 266.248C532.211 266.824 530.963 267.656 529.939 268.744C528.915 269.768 528.115 270.952 527.539 272.296C527.027 273.64 526.771 275.08 526.771 276.616V301H511.315ZM575.932 301V236.008H591.292V301H575.932ZM564.604 263.464V250.024H604.252V263.464H564.604ZM673.496 296.296V241.768L677.144 248.872L661.496 256.552L658.328 242.152L677.24 232.84H689.528V296.296H673.496ZM659.672 301V286.6H702.488V301H659.672Z" fill="white"/>
<path id="You are a group of scientists." d="M352.896 348V339.96L353.184 341.424L345.504 331.2H350.328L356.064 339.048L353.976 339L359.328 331.2H363.912L356.736 341.304L357 339.768V348H352.896ZM371.892 348.24C370.404 348.24 369.084 347.952 367.932 347.376C366.78 346.8 365.876 346.016 365.22 345.024C364.564 344.032 364.236 342.896 364.236 341.616C364.236 340.336 364.564 339.2 365.22 338.208C365.876 337.216 366.78 336.432 367.932 335.856C369.084 335.28 370.404 334.992 371.892 334.992C373.364 334.992 374.668 335.28 375.804 335.856C376.956 336.432 377.86 337.216 378.516 338.208C379.172 339.2 379.5 340.336 379.5 341.616C379.5 342.896 379.172 344.032 378.516 345.024C377.86 346.016 376.956 346.8 375.804 347.376C374.668 347.952 373.364 348.24 371.892 348.24ZM371.892 344.928C372.58 344.928 373.204 344.784 373.764 344.496C374.34 344.208 374.788 343.816 375.108 343.32C375.444 342.824 375.604 342.256 375.588 341.616C375.604 340.976 375.444 340.4 375.108 339.888C374.788 339.376 374.34 338.984 373.764 338.712C373.204 338.424 372.58 338.28 371.892 338.28C371.188 338.28 370.54 338.424 369.948 338.712C369.372 339 368.924 339.392 368.604 339.888C368.284 340.384 368.124 340.96 368.124 341.616C368.124 342.256 368.284 342.824 368.604 343.32C368.924 343.816 369.372 344.208 369.948 344.496C370.54 344.784 371.188 344.928 371.892 344.928ZM389.01 348.264C387.986 348.264 387.098 348.04 386.346 347.592C385.61 347.144 385.042 346.496 384.642 345.648C384.242 344.784 384.042 343.752 384.042 342.552V335.256H387.882V341.928C387.882 342.584 387.97 343.136 388.146 343.584C388.338 344.032 388.634 344.376 389.034 344.616C389.434 344.84 389.922 344.952 390.498 344.952C390.914 344.952 391.298 344.888 391.65 344.76C392.002 344.616 392.314 344.424 392.586 344.184C392.858 343.928 393.066 343.64 393.21 343.32C393.37 342.984 393.45 342.608 393.45 342.192V335.256H397.29V348H393.69L393.522 345.384L394.218 345.096C394.042 345.656 393.706 346.176 393.21 346.656C392.714 347.136 392.106 347.528 391.386 347.832C390.682 348.12 389.89 348.264 389.01 348.264ZM417.818 348.216C416.554 348.216 415.45 347.936 414.506 347.376C413.562 346.816 412.818 346.04 412.274 345.048C411.746 344.04 411.482 342.896 411.482 341.616C411.482 340.32 411.754 339.176 412.298 338.184C412.842 337.192 413.594 336.416 414.554 335.856C415.53 335.28 416.65 334.992 417.914 334.992C418.634 334.992 419.298 335.088 419.906 335.28C420.514 335.456 421.042 335.704 421.49 336.024C421.954 336.344 422.33 336.696 422.618 337.08C422.922 337.464 423.122 337.864 423.218 338.28H422.378V335.256H426.17V348H422.306V344.736L423.122 344.856C423.026 345.272 422.826 345.68 422.522 346.08C422.218 346.48 421.826 346.84 421.346 347.16C420.866 347.48 420.322 347.736 419.714 347.928C419.122 348.12 418.49 348.216 417.818 348.216ZM418.85 344.976C419.57 344.976 420.194 344.84 420.722 344.568C421.266 344.296 421.682 343.912 421.97 343.416C422.274 342.904 422.426 342.304 422.426 341.616C422.426 340.944 422.274 340.36 421.97 339.864C421.682 339.352 421.266 338.952 420.722 338.664C420.194 338.376 419.57 338.232 418.85 338.232C418.13 338.232 417.506 338.376 416.978 338.664C416.45 338.952 416.034 339.352 415.73 339.864C415.442 340.36 415.298 340.944 415.298 341.616C415.298 342.304 415.442 342.904 415.73 343.416C416.034 343.912 416.45 344.296 416.978 344.568C417.506 344.84 418.13 344.976 418.85 344.976ZM432.094 348V335.256H435.742L435.91 339.648L434.998 339.192C435.206 338.408 435.566 337.704 436.078 337.08C436.606 336.44 437.206 335.936 437.878 335.568C438.566 335.184 439.294 334.992 440.062 334.992C440.478 334.992 440.87 335.032 441.238 335.112C441.622 335.192 441.95 335.296 442.222 335.424L441.166 339.624C440.926 339.448 440.598 339.312 440.182 339.216C439.782 339.12 439.374 339.072 438.958 339.072C438.494 339.072 438.07 339.152 437.686 339.312C437.318 339.456 437.006 339.664 436.75 339.936C436.494 340.192 436.294 340.488 436.15 340.824C436.022 341.16 435.958 341.52 435.958 341.904V348H432.094ZM452.281 348.24C450.729 348.24 449.369 347.96 448.201 347.4C447.049 346.824 446.153 346.048 445.513 345.072C444.873 344.08 444.553 342.952 444.553 341.688C444.553 340.68 444.737 339.768 445.105 338.952C445.473 338.136 445.985 337.432 446.641 336.84C447.297 336.248 448.065 335.792 448.945 335.472C449.825 335.152 450.777 334.992 451.801 334.992C452.793 334.992 453.705 335.152 454.537 335.472C455.369 335.776 456.089 336.216 456.697 336.792C457.321 337.368 457.801 338.048 458.137 338.832C458.473 339.616 458.625 340.48 458.593 341.424L458.569 342.504H447.073L446.521 340.272H455.449L455.041 340.752V340.272C454.993 339.872 454.817 339.512 454.513 339.192C454.225 338.872 453.849 338.624 453.385 338.448C452.921 338.256 452.409 338.16 451.849 338.16C451.129 338.16 450.489 338.28 449.929 338.52C449.369 338.744 448.929 339.096 448.609 339.576C448.305 340.056 448.153 340.664 448.153 341.4C448.153 342.104 448.337 342.72 448.705 343.248C449.089 343.776 449.625 344.192 450.313 344.496C451.017 344.8 451.841 344.952 452.785 344.952C453.601 344.952 454.281 344.856 454.825 344.664C455.385 344.456 455.889 344.2 456.337 343.896L458.065 346.392C457.537 346.792 456.953 347.136 456.313 347.424C455.689 347.696 455.033 347.896 454.345 348.024C453.673 348.168 452.985 348.24 452.281 348.24ZM477.912 348.216C476.648 348.216 475.544 347.936 474.6 347.376C473.656 346.816 472.912 346.04 472.368 345.048C471.84 344.04 471.576 342.896 471.576 341.616C471.576 340.32 471.848 339.176 472.392 338.184C472.936 337.192 473.688 336.416 474.648 335.856C475.624 335.28 476.744 334.992 478.008 334.992C478.728 334.992 479.392 335.088 480 335.28C480.608 335.456 481.136 335.704 481.584 336.024C482.048 336.344 482.424 336.696 482.712 337.08C483.016 337.464 483.216 337.864 483.312 338.28H482.472V335.256H486.264V348H482.4V344.736L483.216 344.856C483.12 345.272 482.92 345.68 482.616 346.08C482.312 346.48 481.92 346.84 481.44 347.16C480.96 347.48 480.416 347.736 479.808 347.928C479.216 348.12 478.584 348.216 477.912 348.216ZM478.944 344.976C479.664 344.976 480.288 344.84 480.816 344.568C481.36 344.296 481.776 343.912 482.064 343.416C482.368 342.904 482.52 342.304 482.52 341.616C482.52 340.944 482.368 340.36 482.064 339.864C481.776 339.352 481.36 338.952 480.816 338.664C480.288 338.376 479.664 338.232 478.944 338.232C478.224 338.232 477.6 338.376 477.072 338.664C476.544 338.952 476.128 339.352 475.824 339.864C475.536 340.36 475.392 340.944 475.392 341.616C475.392 342.304 475.536 342.904 475.824 343.416C476.128 343.912 476.544 344.296 477.072 344.568C477.6 344.84 478.224 344.976 478.944 344.976ZM508.252 353.52C506.988 353.52 505.812 353.36 504.724 353.04C503.652 352.736 502.772 352.352 502.084 351.888L503.404 349.152C503.756 349.344 504.148 349.528 504.58 349.704C505.028 349.88 505.516 350.024 506.044 350.136C506.572 350.264 507.148 350.328 507.772 350.328C508.588 350.328 509.276 350.192 509.836 349.92C510.412 349.648 510.844 349.232 511.132 348.672C511.436 348.128 511.588 347.456 511.588 346.656V344.904L512.332 345.024C512.204 345.536 511.884 346.008 511.372 346.44C510.86 346.872 510.22 347.224 509.452 347.496C508.684 347.768 507.868 347.904 507.004 347.904C505.74 347.904 504.628 347.64 503.668 347.112C502.708 346.568 501.948 345.824 501.388 344.88C500.844 343.92 500.572 342.816 500.572 341.568C500.572 340.288 500.852 339.16 501.412 338.184C501.972 337.192 502.74 336.416 503.716 335.856C504.692 335.28 505.82 334.992 507.1 334.992C507.532 334.992 507.98 335.048 508.444 335.16C508.924 335.256 509.388 335.392 509.836 335.568C510.3 335.728 510.716 335.936 511.084 336.192C511.468 336.432 511.78 336.704 512.02 337.008C512.276 337.296 512.42 337.608 512.452 337.944L511.66 338.136L511.828 335.256H515.452V346.584C515.452 347.72 515.268 348.712 514.9 349.56C514.548 350.424 514.052 351.152 513.412 351.744C512.772 352.336 512.004 352.776 511.108 353.064C510.228 353.368 509.276 353.52 508.252 353.52ZM508.108 344.928C508.828 344.928 509.46 344.792 510.004 344.52C510.548 344.232 510.964 343.84 511.252 343.344C511.556 342.848 511.708 342.264 511.708 341.592C511.708 340.92 511.556 340.336 511.252 339.84C510.964 339.328 510.548 338.936 510.004 338.664C509.46 338.376 508.828 338.232 508.108 338.232C507.356 338.232 506.7 338.376 506.14 338.664C505.58 338.936 505.148 339.328 504.844 339.84C504.54 340.336 504.388 340.92 504.388 341.592C504.388 342.264 504.54 342.848 504.844 343.344C505.148 343.84 505.58 344.232 506.14 344.52C506.7 344.792 507.356 344.928 508.108 344.928ZM521.321 348V335.256H524.969L525.137 339.648L524.225 339.192C524.433 338.408 524.793 337.704 525.305 337.08C525.833 336.44 526.433 335.936 527.105 335.568C527.793 335.184 528.521 334.992 529.289 334.992C529.705 334.992 530.097 335.032 530.465 335.112C530.849 335.192 531.177 335.296 531.449 335.424L530.393 339.624C530.153 339.448 529.825 339.312 529.409 339.216C529.009 339.12 528.601 339.072 528.185 339.072C527.721 339.072 527.297 339.152 526.913 339.312C526.545 339.456 526.233 339.664 525.977 339.936C525.721 340.192 525.521 340.488 525.377 340.824C525.249 341.16 525.185 341.52 525.185 341.904V348H521.321ZM541.603 348.24C540.115 348.24 538.795 347.952 537.643 347.376C536.491 346.8 535.587 346.016 534.931 345.024C534.275 344.032 533.947 342.896 533.947 341.616C533.947 340.336 534.275 339.2 534.931 338.208C535.587 337.216 536.491 336.432 537.643 335.856C538.795 335.28 540.115 334.992 541.603 334.992C543.075 334.992 544.379 335.28 545.515 335.856C546.667 336.432 547.571 337.216 548.227 338.208C548.883 339.2 549.211 340.336 549.211 341.616C549.211 342.896 548.883 344.032 548.227 345.024C547.571 346.016 546.667 346.8 545.515 347.376C544.379 347.952 543.075 348.24 541.603 348.24ZM541.603 344.928C542.291 344.928 542.915 344.784 543.475 344.496C544.051 344.208 544.499 343.816 544.819 343.32C545.155 342.824 545.315 342.256 545.299 341.616C545.315 340.976 545.155 340.4 544.819 339.888C544.499 339.376 544.051 338.984 543.475 338.712C542.915 338.424 542.291 338.28 541.603 338.28C540.899 338.28 540.251 338.424 539.659 338.712C539.083 339 538.635 339.392 538.315 339.888C537.995 340.384 537.835 340.96 537.835 341.616C537.835 342.256 537.995 342.824 538.315 343.32C538.635 343.816 539.083 344.208 539.659 344.496C540.251 344.784 540.899 344.928 541.603 344.928ZM558.721 348.264C557.697 348.264 556.809 348.04 556.057 347.592C555.321 347.144 554.753 346.496 554.353 345.648C553.953 344.784 553.753 343.752 553.753 342.552V335.256H557.593V341.928C557.593 342.584 557.681 343.136 557.857 343.584C558.049 344.032 558.345 344.376 558.745 344.616C559.145 344.84 559.633 344.952 560.209 344.952C560.625 344.952 561.009 344.888 561.361 344.76C561.713 344.616 562.025 344.424 562.297 344.184C562.569 343.928 562.777 343.64 562.921 343.32C563.081 342.984 563.161 342.608 563.161 342.192V335.256H567.001V348H563.401L563.233 345.384L563.929 345.096C563.753 345.656 563.417 346.176 562.921 346.656C562.425 347.136 561.817 347.528 561.097 347.832C560.393 348.12 559.601 348.264 558.721 348.264ZM572.977 353.28V335.256H576.625L576.769 338.112L576.049 337.896C576.161 337.384 576.465 336.912 576.961 336.48C577.457 336.048 578.081 335.696 578.833 335.424C579.601 335.152 580.417 335.016 581.281 335.016C582.529 335.016 583.625 335.304 584.569 335.88C585.513 336.44 586.249 337.216 586.777 338.208C587.321 339.184 587.593 340.32 587.593 341.616C587.593 342.896 587.321 344.032 586.777 345.024C586.249 346.016 585.505 346.8 584.545 347.376C583.585 347.936 582.481 348.216 581.233 348.216C580.369 348.216 579.561 348.072 578.809 347.784C578.057 347.496 577.425 347.12 576.913 346.656C576.417 346.192 576.097 345.704 575.953 345.192L576.841 344.856V353.28H572.977ZM580.297 344.976C581.017 344.976 581.641 344.84 582.169 344.568C582.697 344.28 583.105 343.888 583.393 343.392C583.697 342.896 583.849 342.304 583.849 341.616C583.849 340.944 583.697 340.36 583.393 339.864C583.105 339.352 582.697 338.96 582.169 338.688C581.657 338.4 581.033 338.256 580.297 338.256C579.577 338.256 578.945 338.392 578.401 338.664C577.873 338.936 577.457 339.328 577.153 339.84C576.865 340.352 576.721 340.944 576.721 341.616C576.721 342.304 576.865 342.896 577.153 343.392C577.457 343.888 577.873 344.28 578.401 344.568C578.945 344.84 579.577 344.976 580.297 344.976ZM608.4 348.24C606.912 348.24 605.592 347.952 604.44 347.376C603.288 346.8 602.384 346.016 601.728 345.024C601.072 344.032 600.744 342.896 600.744 341.616C600.744 340.336 601.072 339.2 601.728 338.208C602.384 337.216 603.288 336.432 604.44 335.856C605.592 335.28 606.912 334.992 608.4 334.992C609.872 334.992 611.176 335.28 612.312 335.856C613.464 336.432 614.368 337.216 615.024 338.208C615.68 339.2 616.008 340.336 616.008 341.616C616.008 342.896 615.68 344.032 615.024 345.024C614.368 346.016 613.464 346.8 612.312 347.376C611.176 347.952 609.872 348.24 608.4 348.24ZM608.4 344.928C609.088 344.928 609.712 344.784 610.272 344.496C610.848 344.208 611.296 343.816 611.616 343.32C611.952 342.824 612.112 342.256 612.096 341.616C612.112 340.976 611.952 340.4 611.616 339.888C611.296 339.376 610.848 338.984 610.272 338.712C609.712 338.424 609.088 338.28 608.4 338.28C607.696 338.28 607.048 338.424 606.456 338.712C605.88 339 605.432 339.392 605.112 339.888C604.792 340.384 604.632 340.96 604.632 341.616C604.632 342.256 604.792 342.824 605.112 343.32C605.432 343.816 605.88 344.208 606.456 344.496C607.048 344.784 607.696 344.928 608.4 344.928ZM621.113 348V335.04C621.113 334.096 621.313 333.264 621.713 332.544C622.129 331.808 622.705 331.232 623.441 330.816C624.177 330.4 625.033 330.192 626.009 330.192C626.761 330.192 627.417 330.288 627.977 330.48C628.553 330.672 629.041 330.912 629.441 331.2L628.337 334.032C628.113 333.904 627.849 333.792 627.545 333.696C627.257 333.584 626.969 333.528 626.681 333.528C626.265 333.528 625.921 333.6 625.649 333.744C625.393 333.872 625.201 334.064 625.073 334.32C624.945 334.576 624.881 334.88 624.881 335.232V348H623.009C622.609 348 622.249 348 621.929 348C621.609 348 621.337 348 621.113 348ZM618.881 338.88V335.712H628.553V338.88H618.881ZM647.481 348.24C646.073 348.24 644.809 348.04 643.689 347.64C642.585 347.24 641.697 346.672 641.025 345.936L643.353 343.872C643.897 344.384 644.545 344.776 645.297 345.048C646.049 345.32 646.841 345.456 647.673 345.456C647.929 345.456 648.177 345.432 648.417 345.384C648.673 345.336 648.889 345.272 649.065 345.192C649.257 345.096 649.409 344.984 649.521 344.856C649.633 344.728 649.689 344.568 649.689 344.376C649.689 344.072 649.497 343.832 649.113 343.656C648.841 343.56 648.497 343.464 648.081 343.368C647.665 343.272 647.193 343.168 646.665 343.056C645.785 342.896 645.009 342.704 644.337 342.48C643.681 342.24 643.129 341.944 642.681 341.592C642.297 341.256 642.001 340.872 641.793 340.44C641.585 340.008 641.481 339.504 641.481 338.928C641.481 338.336 641.633 337.8 641.937 337.32C642.241 336.824 642.665 336.408 643.209 336.072C643.753 335.72 644.377 335.456 645.081 335.28C645.785 335.088 646.521 334.992 647.289 334.992C648.057 334.992 648.809 335.072 649.545 335.232C650.281 335.376 650.977 335.592 651.633 335.88C652.289 336.152 652.865 336.504 653.361 336.936L651.393 339.24C651.041 338.968 650.633 338.72 650.169 338.496C649.705 338.272 649.209 338.096 648.681 337.968C648.169 337.824 647.665 337.752 647.169 337.752C646.897 337.752 646.633 337.768 646.377 337.8C646.137 337.832 645.929 337.896 645.753 337.992C645.577 338.072 645.433 338.176 645.321 338.304C645.225 338.416 645.177 338.56 645.177 338.736C645.177 338.88 645.217 339.016 645.297 339.144C645.377 339.272 645.497 339.376 645.657 339.456C645.881 339.6 646.209 339.728 646.641 339.84C647.089 339.952 647.649 340.072 648.321 340.2C649.297 340.408 650.129 340.648 650.817 340.92C651.505 341.176 652.057 341.488 652.473 341.856C652.809 342.112 653.057 342.432 653.217 342.816C653.377 343.184 653.457 343.592 653.457 344.04C653.457 344.856 653.193 345.584 652.665 346.224C652.153 346.848 651.449 347.344 650.553 347.712C649.673 348.064 648.649 348.24 647.481 348.24ZM663.82 348.24C662.412 348.24 661.164 347.952 660.076 347.376C658.988 346.8 658.132 346.016 657.508 345.024C656.884 344.016 656.572 342.88 656.572 341.616C656.572 340.352 656.884 339.224 657.508 338.232C658.132 337.224 658.98 336.432 660.052 335.856C661.124 335.28 662.34 334.992 663.7 334.992C664.996 334.992 666.18 335.192 667.252 335.592C668.324 335.976 669.196 336.52 669.868 337.224L667.78 339.864C667.492 339.592 667.148 339.336 666.748 339.096C666.348 338.856 665.916 338.672 665.452 338.544C665.004 338.4 664.54 338.328 664.06 338.328C663.324 338.328 662.676 338.472 662.116 338.76C661.572 339.032 661.148 339.416 660.844 339.912C660.556 340.408 660.412 340.976 660.412 341.616C660.412 342.224 660.564 342.776 660.868 343.272C661.172 343.768 661.596 344.16 662.14 344.448C662.684 344.736 663.316 344.88 664.036 344.88C664.612 344.88 665.124 344.824 665.572 344.712C666.02 344.6 666.428 344.448 666.796 344.256C667.18 344.048 667.508 343.816 667.78 343.56L669.868 346.176C669.148 346.784 668.268 347.28 667.228 347.664C666.188 348.048 665.052 348.24 663.82 348.24ZM674.489 348V335.256H678.353V348H674.489ZM676.409 332.64C675.689 332.64 675.129 332.472 674.729 332.136C674.329 331.784 674.129 331.288 674.129 330.648C674.129 330.072 674.329 329.6 674.729 329.232C675.145 328.864 675.705 328.68 676.409 328.68C677.129 328.68 677.689 328.856 678.089 329.208C678.489 329.544 678.689 330.024 678.689 330.648C678.689 331.24 678.481 331.72 678.065 332.088C677.665 332.456 677.113 332.64 676.409 332.64ZM690.851 348.24C689.299 348.24 687.939 347.96 686.771 347.4C685.619 346.824 684.723 346.048 684.083 345.072C683.443 344.08 683.123 342.952 683.123 341.688C683.123 340.68 683.307 339.768 683.675 338.952C684.043 338.136 684.555 337.432 685.211 336.84C685.867 336.248 686.635 335.792 687.515 335.472C688.395 335.152 689.347 334.992 690.371 334.992C691.363 334.992 692.275 335.152 693.107 335.472C693.939 335.776 694.659 336.216 695.267 336.792C695.891 337.368 696.371 338.048 696.707 338.832C697.043 339.616 697.195 340.48 697.163 341.424L697.139 342.504H685.643L685.091 340.272H694.019L693.611 340.752V340.272C693.563 339.872 693.387 339.512 693.083 339.192C692.795 338.872 692.419 338.624 691.955 338.448C691.491 338.256 690.979 338.16 690.419 338.16C689.699 338.16 689.059 338.28 688.499 338.52C687.939 338.744 687.499 339.096 687.179 339.576C686.875 340.056 686.723 340.664 686.723 341.4C686.723 342.104 686.907 342.72 687.275 343.248C687.659 343.776 688.195 344.192 688.883 344.496C689.587 344.8 690.411 344.952 691.355 344.952C692.171 344.952 692.851 344.856 693.395 344.664C693.955 344.456 694.459 344.2 694.907 343.896L696.635 346.392C696.107 346.792 695.523 347.136 694.883 347.424C694.259 347.696 693.603 347.896 692.915 348.024C692.243 348.168 691.555 348.24 690.851 348.24ZM701.93 348V335.256H705.578L705.698 338.232L704.786 338.496C704.994 337.872 705.346 337.296 705.842 336.768C706.354 336.24 706.97 335.816 707.69 335.496C708.426 335.16 709.218 334.992 710.066 334.992C711.154 334.992 712.074 335.208 712.826 335.64C713.578 336.072 714.146 336.688 714.53 337.488C714.914 338.272 715.106 339.208 715.106 340.296V348H711.242V340.848C711.242 340.288 711.138 339.816 710.93 339.432C710.738 339.048 710.442 338.752 710.042 338.544C709.658 338.336 709.21 338.232 708.698 338.232C708.25 338.232 707.842 338.312 707.474 338.472C707.122 338.616 706.818 338.816 706.562 339.072C706.306 339.312 706.106 339.584 705.962 339.888C705.834 340.192 705.77 340.504 705.77 340.824V348H703.874C703.346 348 702.922 348 702.602 348C702.282 348 702.058 348 701.93 348ZM722.233 348V331.752H726.073V348H722.233ZM719.401 338.616V335.256H729.313V338.616H719.401ZM734.232 348V335.256H738.096V348H734.232ZM736.152 332.64C735.432 332.64 734.872 332.472 734.472 332.136C734.072 331.784 733.872 331.288 733.872 330.648C733.872 330.072 734.072 329.6 734.472 329.232C734.888 328.864 735.448 328.68 736.152 328.68C736.872 328.68 737.432 328.856 737.832 329.208C738.232 329.544 738.432 330.024 738.432 330.648C738.432 331.24 738.224 331.72 737.808 332.088C737.408 332.456 736.856 332.64 736.152 332.64ZM749.153 348.24C747.745 348.24 746.481 348.04 745.361 347.64C744.257 347.24 743.369 346.672 742.697 345.936L745.025 343.872C745.569 344.384 746.217 344.776 746.969 345.048C747.721 345.32 748.513 345.456 749.345 345.456C749.601 345.456 749.849 345.432 750.089 345.384C750.345 345.336 750.561 345.272 750.737 345.192C750.929 345.096 751.081 344.984 751.193 344.856C751.305 344.728 751.361 344.568 751.361 344.376C751.361 344.072 751.169 343.832 750.785 343.656C750.513 343.56 750.169 343.464 749.753 343.368C749.337 343.272 748.865 343.168 748.337 343.056C747.457 342.896 746.681 342.704 746.009 342.48C745.353 342.24 744.801 341.944 744.353 341.592C743.969 341.256 743.673 340.872 743.465 340.44C743.257 340.008 743.153 339.504 743.153 338.928C743.153 338.336 743.305 337.8 743.609 337.32C743.913 336.824 744.337 336.408 744.881 336.072C745.425 335.72 746.049 335.456 746.753 335.28C747.457 335.088 748.193 334.992 748.961 334.992C749.729 334.992 750.481 335.072 751.217 335.232C751.953 335.376 752.649 335.592 753.305 335.88C753.961 336.152 754.537 336.504 755.033 336.936L753.065 339.24C752.713 338.968 752.305 338.72 751.841 338.496C751.377 338.272 750.881 338.096 750.353 337.968C749.841 337.824 749.337 337.752 748.841 337.752C748.569 337.752 748.305 337.768 748.049 337.8C747.809 337.832 747.601 337.896 747.425 337.992C747.249 338.072 747.105 338.176 746.993 338.304C746.897 338.416 746.849 338.56 746.849 338.736C746.849 338.88 746.889 339.016 746.969 339.144C747.049 339.272 747.169 339.376 747.329 339.456C747.553 339.6 747.881 339.728 748.313 339.84C748.761 339.952 749.321 340.072 749.993 340.2C750.969 340.408 751.801 340.648 752.489 340.92C753.177 341.176 753.729 341.488 754.145 341.856C754.481 342.112 754.729 342.432 754.889 342.816C755.049 343.184 755.129 343.592 755.129 344.04C755.129 344.856 754.865 345.584 754.337 346.224C753.825 346.848 753.121 347.344 752.225 347.712C751.345 348.064 750.321 348.24 749.153 348.24ZM760.764 348V331.752H764.604V348H760.764ZM757.932 338.616V335.256H767.844V338.616H757.932ZM777.888 348.24C776.48 348.24 775.216 348.04 774.096 347.64C772.992 347.24 772.104 346.672 771.432 345.936L773.76 343.872C774.304 344.384 774.952 344.776 775.704 345.048C776.456 345.32 777.248 345.456 778.08 345.456C778.336 345.456 778.584 345.432 778.824 345.384C779.08 345.336 779.296 345.272 779.472 345.192C779.664 345.096 779.816 344.984 779.928 344.856C780.04 344.728 780.096 344.568 780.096 344.376C780.096 344.072 779.904 343.832 779.52 343.656C779.248 343.56 778.904 343.464 778.488 343.368C778.072 343.272 777.6 343.168 777.072 343.056C776.192 342.896 775.416 342.704 774.744 342.48C774.088 342.24 773.536 341.944 773.088 341.592C772.704 341.256 772.408 340.872 772.2 340.44C771.992 340.008 771.888 339.504 771.888 338.928C771.888 338.336 772.04 337.8 772.344 337.32C772.648 336.824 773.072 336.408 773.616 336.072C774.16 335.72 774.784 335.456 775.488 335.28C776.192 335.088 776.928 334.992 777.696 334.992C778.464 334.992 779.216 335.072 779.952 335.232C780.688 335.376 781.384 335.592 782.04 335.88C782.696 336.152 783.272 336.504 783.768 336.936L781.8 339.24C781.448 338.968 781.04 338.72 780.576 338.496C780.112 338.272 779.616 338.096 779.088 337.968C778.576 337.824 778.072 337.752 777.576 337.752C777.304 337.752 777.04 337.768 776.784 337.8C776.544 337.832 776.336 337.896 776.16 337.992C775.984 338.072 775.84 338.176 775.728 338.304C775.632 338.416 775.584 338.56 775.584 338.736C775.584 338.88 775.624 339.016 775.704 339.144C775.784 339.272 775.904 339.376 776.064 339.456C776.288 339.6 776.616 339.728 777.048 339.84C777.496 339.952 778.056 340.072 778.728 340.2C779.704 340.408 780.536 340.648 781.224 340.92C781.912 341.176 782.464 341.488 782.88 341.856C783.216 342.112 783.464 342.432 783.624 342.816C783.784 343.184 783.864 343.592 783.864 344.04C783.864 344.856 783.6 345.584 783.072 346.224C782.56 346.848 781.856 347.344 780.96 347.712C780.08 348.064 779.056 348.24 777.888 348.24ZM789.835 348.264C789.051 348.264 788.451 348.08 788.035 347.712C787.635 347.328 787.435 346.8 787.435 346.128C787.435 345.52 787.643 345.008 788.059 344.592C788.491 344.176 789.083 343.968 789.835 343.968C790.619 343.968 791.219 344.16 791.635 344.544C792.051 344.928 792.259 345.456 792.259 346.128C792.259 346.72 792.043 347.224 791.611 347.64C791.195 348.056 790.603 348.264 789.835 348.264Z" fill="white"/>
<g id="Vector" filter="url(#filter0_d_4_23)">
<path d="M479.246 463.996C484.515 440.672 517.714 440.672 522.983 463.996L531.541 501.874C534.712 515.912 524.05 529.267 509.672 529.267H492.557C478.179 529.267 467.517 515.912 470.688 501.874L479.246 463.996Z" fill="#3B5EC6"/>
<path d="M524.816 413.046C524.816 426.326 514.061 437.092 500.794 437.092C487.527 437.092 476.772 426.326 476.772 413.046C476.772 399.766 487.527 389 500.794 389C514.061 389 524.816 399.766 524.816 413.046Z" fill="#3B5EC6"/>
<path d="M505.599 517.565C505.599 511.013 510.904 505.702 517.45 505.702C523.995 505.702 529.3 511.013 529.3 517.565V545.137C529.3 551.689 523.995 557 517.45 557C510.904 557 505.599 551.689 505.599 545.137V517.565Z" fill="#3B5EC6"/>
<path d="M514.867 471.609C511.517 465.981 513.36 458.7 518.982 455.347C524.605 451.993 531.879 453.837 535.229 459.466L549.328 483.153C552.678 488.781 550.836 496.062 545.213 499.415C539.59 502.769 532.316 500.925 528.966 495.296L514.867 471.609Z" fill="#3B5EC6"/>
<path d="M466.362 459.548C469.635 453.874 476.883 451.93 482.551 455.206C488.219 458.482 490.161 465.737 486.889 471.411L473.116 495.289C469.844 500.963 462.596 502.907 456.927 499.631C451.259 496.355 449.317 489.1 452.59 483.427L466.362 459.548Z" fill="#3B5EC6"/>
<path d="M472.288 517.565C472.288 511.013 477.594 505.702 484.139 505.702C490.684 505.702 495.99 511.013 495.99 517.565V545.137C495.99 551.689 490.684 557 484.139 557C477.594 557 472.288 551.689 472.288 545.137V517.565Z" fill="#3B5EC6"/>
</g>
<g id="Vector_2" filter="url(#filter1_d_4_23)">
<path d="M713.528 463.996C718.85 440.672 752.381 440.672 757.703 463.996L766.346 501.874C769.549 515.912 758.78 529.267 744.259 529.267H726.972C712.451 529.267 701.682 515.912 704.885 501.874L713.528 463.996Z" fill="#3B5EC6"/>
<path d="M759.555 413.046C759.555 426.326 748.692 437.092 735.292 437.092C721.892 437.092 711.03 426.326 711.03 413.046C711.03 399.766 721.892 389 735.292 389C748.692 389 759.555 399.766 759.555 413.046Z" fill="#3B5EC6"/>
<path d="M740.145 517.565C740.145 511.013 745.504 505.702 752.114 505.702C758.725 505.702 764.083 511.013 764.083 517.565V545.137C764.083 551.689 758.725 557 752.114 557C745.504 557 740.145 551.689 740.145 545.137V517.565Z" fill="#3B5EC6"/>
<path d="M749.506 471.609C746.123 465.981 747.983 458.7 753.662 455.347C759.341 451.993 766.688 453.837 770.071 459.466L784.311 483.153C787.695 488.781 785.834 496.062 780.155 499.415C774.476 502.769 767.13 500.925 763.746 495.296L749.506 471.609Z" fill="#3B5EC6"/>
<path d="M700.516 459.548C703.821 453.874 711.142 451.93 716.867 455.206C722.591 458.482 724.553 465.737 721.248 471.411L707.337 495.289C704.032 500.963 696.712 502.907 690.987 499.631C685.262 496.355 683.3 489.1 686.606 483.427L700.516 459.548Z" fill="#3B5EC6"/>
<path d="M706.501 517.565C706.501 511.013 711.86 505.702 718.47 505.702C725.081 505.702 730.44 511.013 730.44 517.565V545.137C730.44 551.689 725.081 557 718.47 557C711.86 557 706.501 551.689 706.501 545.137V517.565Z" fill="#3B5EC6"/>
</g>
<g id="Vector_3" filter="url(#filter2_d_4_23)">
<path d="M596.528 463.996C601.85 440.672 635.381 440.672 640.703 463.996L649.346 501.874C652.549 515.912 641.78 529.267 627.259 529.267H609.972C595.451 529.267 584.682 515.912 587.885 501.874L596.528 463.996Z" fill="#3B5EC6"/>
<path d="M642.555 413.046C642.555 426.326 631.692 437.092 618.292 437.092C604.892 437.092 594.03 426.326 594.03 413.046C594.03 399.766 604.892 389 618.292 389C631.692 389 642.555 399.766 642.555 413.046Z" fill="#3B5EC6"/>
<path d="M623.145 517.565C623.145 511.013 628.504 505.702 635.114 505.702C641.725 505.702 647.083 511.013 647.083 517.565V545.137C647.083 551.689 641.725 557 635.114 557C628.504 557 623.145 551.689 623.145 545.137V517.565Z" fill="#3B5EC6"/>
<path d="M632.506 471.609C629.123 465.981 630.983 458.7 636.662 455.347C642.341 451.993 649.688 453.837 653.071 459.466L667.311 483.153C670.695 488.781 668.834 496.062 663.155 499.415C657.476 502.769 650.13 500.925 646.746 495.296L632.506 471.609Z" fill="#3B5EC6"/>
<path d="M583.516 459.548C586.821 453.874 594.142 451.93 599.867 455.206C605.591 458.482 607.553 465.737 604.248 471.411L590.337 495.289C587.032 500.963 579.712 502.907 573.987 499.631C568.262 496.355 566.3 489.1 569.606 483.427L583.516 459.548Z" fill="#3B5EC6"/>
<path d="M589.501 517.565C589.501 511.013 594.86 505.702 601.47 505.702C608.081 505.702 613.44 511.013 613.44 517.565V545.137C613.44 551.689 608.081 557 601.47 557C594.86 557 589.501 551.689 589.501 545.137V517.565Z" fill="#3B5EC6"/>
</g>
<g id="Vector_4" filter="url(#filter3_d_4_23)">
<path d="M831.246 463.996C836.515 440.672 869.714 440.672 874.983 463.996L883.541 501.874C886.712 515.912 876.05 529.267 861.672 529.267H844.557C830.179 529.267 819.517 515.912 822.688 501.874L831.246 463.996Z" fill="#3B5EC6"/>
<path d="M876.816 413.046C876.816 426.326 866.061 437.092 852.794 437.092C839.527 437.092 828.772 426.326 828.772 413.046C828.772 399.766 839.527 389 852.794 389C866.061 389 876.816 399.766 876.816 413.046Z" fill="#3B5EC6"/>
<path d="M857.599 517.565C857.599 511.013 862.904 505.702 869.45 505.702C875.995 505.702 881.3 511.013 881.3 517.565V545.137C881.3 551.689 875.995 557 869.45 557C862.904 557 857.599 551.689 857.599 545.137V517.565Z" fill="#3B5EC6"/>
<path d="M866.867 471.609C863.517 465.981 865.36 458.7 870.982 455.347C876.605 451.993 883.879 453.837 887.229 459.466L901.328 483.153C904.678 488.781 902.836 496.062 897.213 499.415C891.59 502.769 884.316 500.925 880.966 495.296L866.867 471.609Z" fill="#3B5EC6"/>
<path d="M818.362 459.548C821.635 453.874 828.883 451.93 834.551 455.206C840.219 458.482 842.161 465.737 838.889 471.411L825.116 495.289C821.844 500.963 814.596 502.907 808.927 499.631C803.259 496.355 801.317 489.1 804.59 483.427L818.362 459.548Z" fill="#3B5EC6"/>
<path d="M824.288 517.565C824.288 511.013 829.594 505.702 836.139 505.702C842.684 505.702 847.99 511.013 847.99 517.565V545.137C847.99 551.689 842.684 557 836.139 557C829.594 557 824.288 551.689 824.288 545.137V517.565Z" fill="#3B5EC6"/>
</g>
<g id="Vector_5" filter="url(#filter4_d_4_23)">
<path d="M378.33 500.388C384.548 472.899 423.722 472.899 429.94 500.388L440.038 545.03C443.78 561.575 431.199 577.315 414.233 577.315H394.037C377.071 577.315 364.49 561.575 368.232 545.03L378.33 500.388Z" fill="#6A94E0"/>
<path d="M432.103 440.34C432.103 455.991 419.412 468.679 403.757 468.679C388.102 468.679 375.411 455.991 375.411 440.34C375.411 424.688 388.102 412 403.757 412C419.412 412 432.103 424.688 432.103 440.34Z" fill="#6A94E0"/>
<path d="M409.426 563.523C409.426 555.801 415.687 549.542 423.41 549.542C431.134 549.542 437.395 555.801 437.395 563.523V596.019C437.395 603.741 431.134 610 423.41 610C415.687 610 409.426 603.741 409.426 596.019V563.523Z" fill="#6A94E0"/>
<path d="M420.364 509.361C416.41 502.728 418.584 494.146 425.219 490.194C431.854 486.242 440.437 488.416 444.39 495.049L461.027 522.966C464.98 529.599 462.806 538.18 456.171 542.132C449.537 546.085 440.953 543.911 437 537.278L420.364 509.361Z" fill="#6A94E0"/>
<path d="M363.128 495.146C366.989 488.459 375.542 486.168 382.23 490.029C388.919 493.889 391.21 502.44 387.349 509.127L371.097 537.269C367.235 543.956 358.683 546.248 351.994 542.387C345.306 538.526 343.014 529.975 346.876 523.289L363.128 495.146Z" fill="#6A94E0"/>
<path d="M370.12 563.523C370.12 555.801 376.381 549.542 384.104 549.542C391.827 549.542 398.088 555.801 398.088 563.523V596.019C398.088 603.741 391.827 610 384.104 610C376.381 610 370.12 603.741 370.12 596.019V563.523Z" fill="#6A94E0"/>
</g>
<g id="Vector_6" filter="url(#filter5_d_4_23)">
<path d="M654.33 500.388C660.548 472.899 699.722 472.899 705.94 500.388L716.038 545.03C719.78 561.575 707.199 577.315 690.233 577.315H670.037C653.071 577.315 640.49 561.575 644.232 545.03L654.33 500.388Z" fill="#6A94E0"/>
<path d="M708.103 440.34C708.103 455.991 695.412 468.679 679.757 468.679C664.102 468.679 651.411 455.991 651.411 440.34C651.411 424.688 664.102 412 679.757 412C695.412 412 708.103 424.688 708.103 440.34Z" fill="#6A94E0"/>
<path d="M685.426 563.523C685.426 555.801 691.687 549.542 699.41 549.542C707.134 549.542 713.395 555.801 713.395 563.523V596.019C713.395 603.741 707.134 610 699.41 610C691.687 610 685.426 603.741 685.426 596.019V563.523Z" fill="#6A94E0"/>
<path d="M696.364 509.361C692.41 502.728 694.584 494.146 701.219 490.194C707.854 486.242 716.437 488.416 720.39 495.049L737.027 522.966C740.98 529.599 738.806 538.18 732.171 542.132C725.537 546.085 716.953 543.911 713 537.278L696.364 509.361Z" fill="#6A94E0"/>
<path d="M639.128 495.146C642.989 488.459 651.542 486.168 658.23 490.029C664.919 493.889 667.21 502.44 663.349 509.127L647.097 537.269C643.235 543.956 634.683 546.248 627.994 542.387C621.306 538.526 619.014 529.975 622.876 523.289L639.128 495.146Z" fill="#6A94E0"/>
<path d="M646.12 563.523C646.12 555.801 652.381 549.542 660.104 549.542C667.827 549.542 674.088 555.801 674.088 563.523V596.019C674.088 603.741 667.827 610 660.104 610C652.381 610 646.12 603.741 646.12 596.019V563.523Z" fill="#6A94E0"/>
</g>
<g id="Vector_7" filter="url(#filter6_d_4_23)">
<path d="M516.33 500.388C522.548 472.899 561.722 472.899 567.94 500.388L578.038 545.03C581.78 561.575 569.199 577.315 552.233 577.315H532.037C515.071 577.315 502.49 561.575 506.232 545.03L516.33 500.388Z" fill="#6A94E0"/>
<path d="M570.103 440.34C570.103 455.991 557.412 468.679 541.757 468.679C526.102 468.679 513.411 455.991 513.411 440.34C513.411 424.688 526.102 412 541.757 412C557.412 412 570.103 424.688 570.103 440.34Z" fill="#6A94E0"/>
<path d="M547.426 563.523C547.426 555.801 553.687 549.542 561.41 549.542C569.134 549.542 575.395 555.801 575.395 563.523V596.019C575.395 603.741 569.134 610 561.41 610C553.687 610 547.426 603.741 547.426 596.019V563.523Z" fill="#6A94E0"/>
<path d="M558.364 509.361C554.41 502.728 556.584 494.146 563.219 490.194C569.854 486.242 578.437 488.416 582.39 495.049L599.027 522.966C602.98 529.599 600.806 538.18 594.171 542.132C587.537 546.085 578.953 543.911 575 537.278L558.364 509.361Z" fill="#6A94E0"/>
<path d="M501.128 495.146C504.989 488.459 513.542 486.168 520.23 490.029C526.919 493.889 529.21 502.44 525.349 509.127L509.097 537.269C505.235 543.956 496.683 546.248 489.994 542.387C483.306 538.526 481.014 529.975 484.876 523.289L501.128 495.146Z" fill="#6A94E0"/>
<path d="M508.12 563.523C508.12 555.801 514.381 549.542 522.104 549.542C529.827 549.542 536.088 555.801 536.088 563.523V596.019C536.088 603.741 529.827 610 522.104 610C514.381 610 508.12 603.741 508.12 596.019V563.523Z" fill="#6A94E0"/>
</g>
<g id="Vector_8" filter="url(#filter7_d_4_23)">
<path d="M574.33 546.388C580.548 518.899 619.722 518.899 625.94 546.388L636.038 591.03C639.78 607.575 627.199 623.315 610.233 623.315H590.037C573.071 623.315 560.49 607.575 564.232 591.03L574.33 546.388Z" fill="#8DBBFB"/>
<path d="M628.103 486.34C628.103 501.991 615.412 514.679 599.757 514.679C584.102 514.679 571.411 501.991 571.411 486.34C571.411 470.688 584.102 458 599.757 458C615.412 458 628.103 470.688 628.103 486.34Z" fill="#8DBBFB"/>
<path d="M605.426 609.523C605.426 601.801 611.687 595.542 619.41 595.542C627.134 595.542 633.395 601.801 633.395 609.523V642.019C633.395 649.741 627.134 656 619.41 656C611.687 656 605.426 649.741 605.426 642.019V609.523Z" fill="#8DBBFB"/>
<path d="M616.364 555.361C612.41 548.728 614.584 540.146 621.219 536.194C627.854 532.242 636.437 534.416 640.39 541.049L657.027 568.966C660.98 575.599 658.806 584.18 652.171 588.132C645.537 592.085 636.953 589.911 633 583.278L616.364 555.361Z" fill="#8DBBFB"/>
<path d="M559.128 541.146C562.989 534.459 571.542 532.168 578.23 536.029C584.919 539.889 587.21 548.44 583.349 555.127L567.097 583.269C563.235 589.956 554.683 592.248 547.994 588.387C541.306 584.526 539.014 575.975 542.876 569.289L559.128 541.146Z" fill="#8DBBFB"/>
<path d="M566.12 609.523C566.12 601.801 572.381 595.542 580.104 595.542C587.827 595.542 594.088 601.801 594.088 609.523V642.019C594.088 649.741 587.827 656 580.104 656C572.381 656 566.12 649.741 566.12 642.019V609.523Z" fill="#8DBBFB"/>
</g>
<g id="Vector_9" filter="url(#filter8_d_4_23)">
<path d="M792.33 500.388C798.548 472.899 837.722 472.899 843.94 500.388L854.038 545.03C857.78 561.575 845.199 577.315 828.233 577.315H808.037C791.071 577.315 778.49 561.575 782.232 545.03L792.33 500.388Z" fill="#6A94E0"/>
<path d="M846.103 440.34C846.103 455.991 833.412 468.679 817.757 468.679C802.102 468.679 789.411 455.991 789.411 440.34C789.411 424.688 802.102 412 817.757 412C833.412 412 846.103 424.688 846.103 440.34Z" fill="#6A94E0"/>
<path d="M823.426 563.523C823.426 555.801 829.687 549.542 837.41 549.542C845.134 549.542 851.395 555.801 851.395 563.523V596.019C851.395 603.741 845.134 610 837.41 610C829.687 610 823.426 603.741 823.426 596.019V563.523Z" fill="#6A94E0"/>
<path d="M834.364 509.361C830.41 502.728 832.584 494.146 839.219 490.194C845.854 486.242 854.437 488.416 858.39 495.049L875.027 522.966C878.98 529.599 876.806 538.18 870.171 542.132C863.537 546.085 854.953 543.911 851 537.278L834.364 509.361Z" fill="#6A94E0"/>
<path d="M777.128 495.146C780.989 488.459 789.542 486.168 796.23 490.029C802.919 493.889 805.21 502.44 801.349 509.127L785.097 537.269C781.235 543.956 772.683 546.248 765.994 542.387C759.306 538.526 757.014 529.975 760.876 523.289L777.128 495.146Z" fill="#6A94E0"/>
<path d="M784.12 563.523C784.12 555.801 790.381 549.542 798.104 549.542C805.827 549.542 812.088 555.801 812.088 563.523V596.019C812.088 603.741 805.827 610 798.104 610C790.381 610 784.12 603.741 784.12 596.019V563.523Z" fill="#6A94E0"/>
</g>
<g id="Vector_10" filter="url(#filter9_d_4_23)">
<path d="M436.33 546.388C442.548 518.899 481.722 518.899 487.94 546.388L498.038 591.03C501.78 607.575 489.199 623.315 472.233 623.315H452.037C435.071 623.315 422.49 607.575 426.232 591.03L436.33 546.388Z" fill="#8DBBFB"/>
<path d="M490.103 486.34C490.103 501.991 477.412 514.679 461.757 514.679C446.102 514.679 433.411 501.991 433.411 486.34C433.411 470.688 446.102 458 461.757 458C477.412 458 490.103 470.688 490.103 486.34Z" fill="#8DBBFB"/>
<path d="M467.426 609.523C467.426 601.801 473.687 595.542 481.41 595.542C489.134 595.542 495.395 601.801 495.395 609.523V642.019C495.395 649.741 489.134 656 481.41 656C473.687 656 467.426 649.741 467.426 642.019V609.523Z" fill="#8DBBFB"/>
<path d="M478.364 555.361C474.41 548.728 476.584 540.146 483.219 536.194C489.854 532.242 498.437 534.416 502.39 541.049L519.027 568.966C522.98 575.599 520.806 584.18 514.171 588.132C507.537 592.085 498.953 589.911 495 583.278L478.364 555.361Z" fill="#8DBBFB"/>
<path d="M421.128 541.146C424.989 534.459 433.542 532.168 440.23 536.029C446.919 539.889 449.21 548.44 445.349 555.127L429.097 583.269C425.235 589.956 416.683 592.248 409.994 588.387C403.306 584.526 401.014 575.975 404.876 569.289L421.128 541.146Z" fill="#8DBBFB"/>
<path d="M428.12 609.523C428.12 601.801 434.381 595.542 442.104 595.542C449.827 595.542 456.088 601.801 456.088 609.523V642.019C456.088 649.741 449.827 656 442.104 656C434.381 656 428.12 649.741 428.12 642.019V609.523Z" fill="#8DBBFB"/>
</g>
<g id="Vector_11" filter="url(#filter10_d_4_23)">
<path d="M712.33 546.388C718.548 518.899 757.722 518.899 763.94 546.388L774.038 591.03C777.78 607.575 765.199 623.315 748.233 623.315H728.037C711.071 623.315 698.49 607.575 702.232 591.03L712.33 546.388Z" fill="#8DBBFB"/>
<path d="M766.103 486.34C766.103 501.991 753.412 514.679 737.757 514.679C722.102 514.679 709.411 501.991 709.411 486.34C709.411 470.688 722.102 458 737.757 458C753.412 458 766.103 470.688 766.103 486.34Z" fill="#8DBBFB"/>
<path d="M743.426 609.523C743.426 601.801 749.687 595.542 757.41 595.542C765.134 595.542 771.395 601.801 771.395 609.523V642.019C771.395 649.741 765.134 656 757.41 656C749.687 656 743.426 649.741 743.426 642.019V609.523Z" fill="#8DBBFB"/>
<path d="M754.364 555.361C750.41 548.728 752.584 540.146 759.219 536.194C765.854 532.242 774.437 534.416 778.39 541.049L795.027 568.966C798.98 575.599 796.806 584.18 790.171 588.132C783.537 592.085 774.953 589.911 771 583.278L754.364 555.361Z" fill="#8DBBFB"/>
<path d="M697.128 541.146C700.989 534.459 709.542 532.168 716.23 536.029C722.919 539.889 725.21 548.44 721.349 555.127L705.097 583.269C701.235 589.956 692.683 592.248 685.994 588.387C679.306 584.526 677.014 575.975 680.876 569.289L697.128 541.146Z" fill="#8DBBFB"/>
<path d="M704.12 609.523C704.12 601.801 710.381 595.542 718.104 595.542C725.827 595.542 732.088 601.801 732.088 609.523V642.019C732.088 649.741 725.827 656 718.104 656C710.381 656 704.12 649.741 704.12 642.019V609.523Z" fill="#8DBBFB"/>
</g>
<g id="Vector_12" filter="url(#filter11_d_4_23)">
<path d="M850.33 546.388C856.548 518.899 895.722 518.899 901.94 546.388L912.038 591.03C915.78 607.575 903.199 623.315 886.233 623.315H866.037C849.071 623.315 836.49 607.575 840.232 591.03L850.33 546.388Z" fill="#8DBBFB"/>
<path d="M904.103 486.34C904.103 501.991 891.412 514.679 875.757 514.679C860.102 514.679 847.411 501.991 847.411 486.34C847.411 470.688 860.102 458 875.757 458C891.412 458 904.103 470.688 904.103 486.34Z" fill="#8DBBFB"/>
<path d="M881.426 609.523C881.426 601.801 887.687 595.542 895.41 595.542C903.134 595.542 909.395 601.801 909.395 609.523V642.019C909.395 649.741 903.134 656 895.41 656C887.687 656 881.426 649.741 881.426 642.019V609.523Z" fill="#8DBBFB"/>
<path d="M892.364 555.361C888.41 548.728 890.584 540.146 897.219 536.194C903.854 532.242 912.437 534.416 916.39 541.049L933.027 568.966C936.98 575.599 934.806 584.18 928.171 588.132C921.537 592.085 912.953 589.911 909 583.278L892.364 555.361Z" fill="#8DBBFB"/>
<path d="M835.128 541.146C838.989 534.459 847.542 532.168 854.23 536.029C860.919 539.889 863.21 548.44 859.349 555.127L843.097 583.269C839.235 589.956 830.683 592.248 823.994 588.387C817.306 584.526 815.014 575.975 818.876 569.289L835.128 541.146Z" fill="#8DBBFB"/>
<path d="M842.12 609.523C842.12 601.801 848.381 595.542 856.104 595.542C863.827 595.542 870.088 601.801 870.088 609.523V642.019C870.088 649.741 863.827 656 856.104 656C848.381 656 842.12 649.741 842.12 642.019V609.523Z" fill="#8DBBFB"/>
</g>
<g id="next">
<g id="Next">
<path id="Next_2" d="M1047.81 859V814.2H1057.79L1084.86 846.2L1083.01 845.88C1082.75 844.387 1082.56 842.957 1082.43 841.592C1082.3 840.227 1082.18 838.904 1082.05 837.624C1081.96 836.344 1081.88 835.064 1081.79 833.784C1081.75 832.504 1081.73 831.16 1081.73 829.752C1081.73 828.344 1081.73 826.851 1081.73 825.272V814.2H1092.29V859H1082.18L1054.08 825.976L1057.09 826.424C1057.22 827.917 1057.34 829.261 1057.47 830.456C1057.64 831.651 1057.77 832.781 1057.86 833.848C1057.98 834.872 1058.07 835.917 1058.11 836.984C1058.2 838.008 1058.26 839.096 1058.3 840.248C1058.35 841.4 1058.37 842.659 1058.37 844.024V859H1047.81ZM1124.89 859.64C1120.76 859.64 1117.13 858.893 1114.01 857.4C1110.94 855.864 1108.55 853.795 1106.85 851.192C1105.14 848.547 1104.29 845.539 1104.29 842.168C1104.29 839.48 1104.78 837.048 1105.76 834.872C1106.74 832.696 1108.11 830.819 1109.85 829.24C1111.6 827.661 1113.65 826.445 1116 825.592C1118.35 824.739 1120.88 824.312 1123.61 824.312C1126.26 824.312 1128.69 824.739 1130.91 825.592C1133.13 826.403 1135.05 827.576 1136.67 829.112C1138.33 830.648 1139.61 832.461 1140.51 834.552C1141.41 836.643 1141.81 838.947 1141.73 841.464L1141.66 844.344H1111.01L1109.53 838.392H1133.34L1132.25 839.672V838.392C1132.13 837.325 1131.66 836.365 1130.85 835.512C1130.08 834.659 1129.08 833.997 1127.84 833.528C1126.6 833.016 1125.24 832.76 1123.74 832.76C1121.82 832.76 1120.12 833.08 1118.62 833.72C1117.13 834.317 1115.96 835.256 1115.1 836.536C1114.29 837.816 1113.89 839.437 1113.89 841.4C1113.89 843.277 1114.38 844.92 1115.36 846.328C1116.38 847.736 1117.81 848.845 1119.65 849.656C1121.52 850.467 1123.72 850.872 1126.24 850.872C1128.41 850.872 1130.23 850.616 1131.68 850.104C1133.17 849.549 1134.52 848.867 1135.71 848.056L1140.32 854.712C1138.91 855.779 1137.35 856.696 1135.65 857.464C1133.98 858.189 1132.23 858.723 1130.4 859.064C1128.61 859.448 1126.77 859.64 1124.89 859.64ZM1178.57 859L1169.16 846.776L1166.54 843.32L1151.63 825.016H1164.56L1173 836.216L1175.82 839.928L1191.37 859H1178.57ZM1150.8 859L1166.03 839.8L1172.24 846.136L1163.53 859H1150.8ZM1175.76 844.216L1169.74 837.816L1178.32 825.016H1190.99L1175.76 844.216ZM1207.39 859V815.672H1217.63V859H1207.39ZM1199.84 833.976V825.016H1226.27V833.976H1199.84Z" fill="white"/>
</g>
<path id="Arrow 1" d="M1041 863.5C1036.31 863.5 1032.5 867.306 1032.5 872C1032.5 876.694 1036.31 880.5 1041 880.5V872V863.5ZM1318 872L1233 822.925V921.075L1318 872ZM1041 872V880.5H1241.5V872V863.5H1041V872Z" fill="#EF1044"/>
</g>
</g>
<defs>
<filter id="filter0_d_4_23" x="447" y="389" width="108" height="176" filterUnits="userSpaceOnUse" color-interpolation-filters="sRGB">
<feFlood flood-opacity="0" result="BackgroundImageFix"/>
<feColorMatrix in="SourceAlpha" type="matrix" values="0 0 0 0 0 0 0 0 0 0 0 0 0 0 0 0 0 0 127 0" result="hardAlpha"/>
<feOffset dy="4"/>
<feGaussianBlur stdDeviation="2"/>
<feComposite in2="hardAlpha" operator="out"/>
<feColorMatrix type="matrix" values="0 0 0 0 0 0 0 0 0 0 0 0 0 0 0 0 0 0 0.25 0"/>
<feBlend mode="normal" in2="BackgroundImageFix" result="effect1_dropShadow_4_23"/>
<feBlend mode="normal" in="SourceGraphic" in2="effect1_dropShadow_4_23" result="shape"/>
</filter>
<filter id="filter1_d_4_23" x="681" y="389" width="109" height="176" filterUnits="userSpaceOnUse" color-interpolation-filters="sRGB">
<feFlood flood-opacity="0" result="BackgroundImageFix"/>
<feColorMatrix in="SourceAlpha" type="matrix" values="0 0 0 0 0 0 0 0 0 0 0 0 0 0 0 0 0 0 127 0" result="hardAlpha"/>
<feOffset dy="4"/>
<feGaussianBlur stdDeviation="2"/>
<feComposite in2="hardAlpha" operator="out"/>
<feColorMatrix type="matrix" values="0 0 0 0 0 0 0 0 0 0 0 0 0 0 0 0 0 0 0.25 0"/>
<feBlend mode="normal" in2="BackgroundImageFix" result="effect1_dropShadow_4_23"/>
<feBlend mode="normal" in="SourceGraphic" in2="effect1_dropShadow_4_23" result="shape"/>
</filter>
<filter id="filter2_d_4_23" x="564" y="389" width="109" height="176" filterUnits="userSpaceOnUse" color-interpolation-filters="sRGB">
<feFlood flood-opacity="0" result="BackgroundImageFix"/>
<feColorMatrix in="SourceAlpha" type="matrix" values="0 0 0 0 0 0 0 0 0 0 0 0 0 0 0 0 0 0 127 0" result="hardAlpha"/>
<feOffset dy="4"/>
<feGaussianBlur stdDeviation="2"/>
<feComposite in2="hardAlpha" operator="out"/>
<feColorMatrix type="matrix" values="0 0 0 0 0 0 0 0 0 0 0 0 0 0 0 0 0 0 0.25 0"/>
<feBlend mode="normal" in2="BackgroundImageFix" result="effect1_dropShadow_4_23"/>
<feBlend mode="normal" in="SourceGraphic" in2="effect1_dropShadow_4_23" result="shape"/>
</filter>
<filter id="filter3_d_4_23" x="799" y="389" width="108" height="176" filterUnits="userSpaceOnUse" color-interpolation-filters="sRGB">
<feFlood flood-opacity="0" result="BackgroundImageFix"/>
<feColorMatrix in="SourceAlpha" type="matrix" values="0 0 0 0 0 0 0 0 0 0 0 0 0 0 0 0 0 0 127 0" result="hardAlpha"/>
<feOffset dy="4"/>
<feGaussianBlur stdDeviation="2"/>
<feComposite in2="hardAlpha" operator="out"/>
<feColorMatrix type="matrix" values="0 0 0 0 0 0 0 0 0 0 0 0 0 0 0 0 0 0 0.25 0"/>
<feBlend mode="normal" in2="BackgroundImageFix" result="effect1_dropShadow_4_23"/>
<feBlend mode="normal" in="SourceGraphic" in2="effect1_dropShadow_4_23" result="shape"/>
</filter>
<filter id="filter4_d_4_23" x="341" y="412" width="126" height="206" filterUnits="userSpaceOnUse" color-interpolation-filters="sRGB">
<feFlood flood-opacity="0" result="BackgroundImageFix"/>
<feColorMatrix in="SourceAlpha" type="matrix" values="0 0 0 0 0 0 0 0 0 0 0 0 0 0 0 0 0 0 127 0" result="hardAlpha"/>
<feOffset dy="4"/>
<feGaussianBlur stdDeviation="2"/>
<feComposite in2="hardAlpha" operator="out"/>
<feColorMatrix type="matrix" values="0 0 0 0 0 0 0 0 0 0 0 0 0 0 0 0 0 0 0.25 0"/>
<feBlend mode="normal" in2="BackgroundImageFix" result="effect1_dropShadow_4_23"/>
<feBlend mode="normal" in="SourceGraphic" in2="effect1_dropShadow_4_23" result="shape"/>
</filter>
<filter id="filter5_d_4_23" x="617" y="412" width="126" height="206" filterUnits="userSpaceOnUse" color-interpolation-filters="sRGB">
<feFlood flood-opacity="0" result="BackgroundImageFix"/>
<feColorMatrix in="SourceAlpha" type="matrix" values="0 0 0 0 0 0 0 0 0 0 0 0 0 0 0 0 0 0 127 0" result="hardAlpha"/>
<feOffset dy="4"/>
<feGaussianBlur stdDeviation="2"/>
<feComposite in2="hardAlpha" operator="out"/>
<feColorMatrix type="matrix" values="0 0 0 0 0 0 0 0 0 0 0 0 0 0 0 0 0 0 0.25 0"/>
<feBlend mode="normal" in2="BackgroundImageFix" result="effect1_dropShadow_4_23"/>
<feBlend mode="normal" in="SourceGraphic" in2="effect1_dropShadow_4_23" result="shape"/>
</filter>
<filter id="filter6_d_4_23" x="479" y="412" width="126" height="206" filterUnits="userSpaceOnUse" color-interpolation-filters="sRGB">
<feFlood flood-opacity="0" result="BackgroundImageFix"/>
<feColorMatrix in="SourceAlpha" type="matrix" values="0 0 0 0 0 0 0 0 0 0 0 0 0 0 0 0 0 0 127 0" result="hardAlpha"/>
<feOffset dy="4"/>
<feGaussianBlur stdDeviation="2"/>
<feComposite in2="hardAlpha" operator="out"/>
<feColorMatrix type="matrix" values="0 0 0 0 0 0 0 0 0 0 0 0 0 0 0 0 0 0 0.25 0"/>
<feBlend mode="normal" in2="BackgroundImageFix" result="effect1_dropShadow_4_23"/>
<feBlend mode="normal" in="SourceGraphic" in2="effect1_dropShadow_4_23" result="shape"/>
</filter>
<filter id="filter7_d_4_23" x="537" y="458" width="126" height="206" filterUnits="userSpaceOnUse" color-interpolation-filters="sRGB">
<feFlood flood-opacity="0" result="BackgroundImageFix"/>
<feColorMatrix in="SourceAlpha" type="matrix" values="0 0 0 0 0 0 0 0 0 0 0 0 0 0 0 0 0 0 127 0" result="hardAlpha"/>
<feOffset dy="4"/>
<feGaussianBlur stdDeviation="2"/>
<feComposite in2="hardAlpha" operator="out"/>
<feColorMatrix type="matrix" values="0 0 0 0 0 0 0 0 0 0 0 0 0 0 0 0 0 0 0.25 0"/>
<feBlend mode="normal" in2="BackgroundImageFix" result="effect1_dropShadow_4_23"/>
<feBlend mode="normal" in="SourceGraphic" in2="effect1_dropShadow_4_23" result="shape"/>
</filter>
<filter id="filter8_d_4_23" x="755" y="412" width="126" height="206" filterUnits="userSpaceOnUse" color-interpolation-filters="sRGB">
<feFlood flood-opacity="0" result="BackgroundImageFix"/>
<feColorMatrix in="SourceAlpha" type="matrix" values="0 0 0 0 0 0 0 0 0 0 0 0 0 0 0 0 0 0 127 0" result="hardAlpha"/>
<feOffset dy="4"/>
<feGaussianBlur stdDeviation="2"/>
<feComposite in2="hardAlpha" operator="out"/>
<feColorMatrix type="matrix" values="0 0 0 0 0 0 0 0 0 0 0 0 0 0 0 0 0 0 0.25 0"/>
<feBlend mode="normal" in2="BackgroundImageFix" result="effect1_dropShadow_4_23"/>
<feBlend mode="normal" in="SourceGraphic" in2="effect1_dropShadow_4_23" result="shape"/>
</filter>
<filter id="filter9_d_4_23" x="399" y="458" width="126" height="206" filterUnits="userSpaceOnUse" color-interpolation-filters="sRGB">
<feFlood flood-opacity="0" result="BackgroundImageFix"/>
<feColorMatrix in="SourceAlpha" type="matrix" values="0 0 0 0 0 0 0 0 0 0 0 0 0 0 0 0 0 0 127 0" result="hardAlpha"/>
<feOffset dy="4"/>
<feGaussianBlur stdDeviation="2"/>
<feComposite in2="hardAlpha" operator="out"/>
<feColorMatrix type="matrix" values="0 0 0 0 0 0 0 0 0 0 0 0 0 0 0 0 0 0 0.25 0"/>
<feBlend mode="normal" in2="BackgroundImageFix" result="effect1_dropShadow_4_23"/>
<feBlend mode="normal" in="SourceGraphic" in2="effect1_dropShadow_4_23" result="shape"/>
</filter>
<filter id="filter10_d_4_23" x="675" y="458" width="126" height="206" filterUnits="userSpaceOnUse" color-interpolation-filters="sRGB">
<feFlood flood-opacity="0" result="BackgroundImageFix"/>
<feColorMatrix in="SourceAlpha" type="matrix" values="0 0 0 0 0 0 0 0 0 0 0 0 0 0 0 0 0 0 127 0" result="hardAlpha"/>
<feOffset dy="4"/>
<feGaussianBlur stdDeviation="2"/>
<feComposite in2="hardAlpha" operator="out"/>
<feColorMatrix type="matrix" values="0 0 0 0 0 0 0 0 0 0 0 0 0 0 0 0 0 0 0.25 0"/>
<feBlend mode="normal" in2="BackgroundImageFix" result="effect1_dropShadow_4_23"/>
<feBlend mode="normal" in="SourceGraphic" in2="effect1_dropShadow_4_23" result="shape"/>
</filter>
<filter id="filter11_d_4_23" x="813" y="458" width="126" height="206" filterUnits="userSpaceOnUse" color-interpolation-filters="sRGB">
<feFlood flood-opacity="0" result="BackgroundImageFix"/>
<feColorMatrix in="SourceAlpha" type="matrix" values="0 0 0 0 0 0 0 0 0 0 0 0 0 0 0 0 0 0 127 0" result="hardAlpha"/>
<feOffset dy="4"/>
<feGaussianBlur stdDeviation="2"/>
<feComposite in2="hardAlpha" operator="out"/>
<feColorMatrix type="matrix" values="0 0 0 0 0 0 0 0 0 0 0 0 0 0 0 0 0 0 0.25 0"/>
<feBlend mode="normal" in2="BackgroundImageFix" result="effect1_dropShadow_4_23"/>
<feBlend mode="normal" in="SourceGraphic" in2="effect1_dropShadow_4_23" result="shape"/>
</filter>
</defs>
</svg>
