<svg width="1440" height="1024" viewBox="0 0 1440 1024" fill="none" xmlns="http://www.w3.org/2000/svg">
<g id="intro" clip-path="url(#clip0_1_2)">
<rect width="1440" height="1024" fill="#333148"/>
<path id="The earth is BURNING!" d="M373.224 301V248.2H350.568V233.8H412.68V248.2H389.544V301H373.224ZM430.315 301V229.96H445.387V261.928L441.739 263.176C442.379 260.616 443.723 258.28 445.771 256.168C447.883 253.992 450.443 252.264 453.451 250.984C456.459 249.64 459.659 248.968 463.051 248.968C467.403 248.968 471.051 249.864 473.995 251.656C477.003 253.384 479.243 255.848 480.715 259.048C482.251 262.184 483.019 265.864 483.019 270.088V301H467.563V272.488C467.563 270.184 467.147 268.264 466.315 266.728C465.547 265.128 464.363 263.912 462.763 263.08C461.227 262.248 459.435 261.864 457.387 261.928C455.723 261.928 454.155 262.216 452.683 262.792C451.275 263.304 450.027 264.072 448.939 265.096C447.915 266.056 447.115 267.176 446.539 268.456C445.963 269.736 445.675 271.112 445.675 272.584V301H438.091C435.979 301 434.283 301 433.003 301C431.723 301 430.827 301 430.315 301ZM531.686 301.96C525.478 301.96 520.038 300.84 515.366 298.6C510.758 296.296 507.174 293.192 504.614 289.288C502.054 285.32 500.773 280.808 500.773 275.752C500.773 271.72 501.51 268.072 502.982 264.808C504.454 261.544 506.502 258.728 509.126 256.36C511.75 253.992 514.822 252.168 518.342 250.888C521.862 249.608 525.67 248.968 529.766 248.968C533.734 248.968 537.382 249.608 540.71 250.888C544.038 252.104 546.918 253.864 549.35 256.168C551.846 258.472 553.766 261.192 555.11 264.328C556.454 267.464 557.062 270.92 556.934 274.696L556.838 279.016H510.854L508.646 270.088H544.358L542.726 272.008V270.088C542.534 268.488 541.83 267.048 540.614 265.768C539.462 264.488 537.958 263.496 536.102 262.792C534.246 262.024 532.198 261.64 529.958 261.64C527.078 261.64 524.518 262.12 522.278 263.08C520.038 263.976 518.278 265.384 516.998 267.304C515.782 269.224 515.174 271.656 515.174 274.6C515.174 277.416 515.91 279.88 517.382 281.992C518.918 284.104 521.062 285.768 523.814 286.984C526.63 288.2 529.926 288.808 533.702 288.808C536.966 288.808 539.686 288.424 541.862 287.656C544.102 286.824 546.118 285.8 547.91 284.584L554.822 294.568C552.71 296.168 550.374 297.544 547.814 298.696C545.318 299.784 542.694 300.584 539.942 301.096C537.254 301.672 534.502 301.96 531.686 301.96ZM639.779 301.96C633.571 301.96 628.131 300.84 623.459 298.6C618.851 296.296 615.267 293.192 612.707 289.288C610.147 285.32 608.867 280.808 608.867 275.752C608.867 271.72 609.603 268.072 611.075 264.808C612.547 261.544 614.595 258.728 617.219 256.36C619.843 253.992 622.915 252.168 626.435 250.888C629.955 249.608 633.763 248.968 637.859 248.968C641.827 248.968 645.475 249.608 648.803 250.888C652.131 252.104 655.011 253.864 657.443 256.168C659.939 258.472 661.859 261.192 663.203 264.328C664.547 267.464 665.155 270.92 665.027 274.696L664.931 279.016H618.947L616.739 270.088H652.451L650.819 272.008V270.088C650.627 268.488 649.923 267.048 648.707 265.768C647.555 264.488 646.051 263.496 644.195 262.792C642.339 262.024 640.291 261.64 638.051 261.64C635.171 261.64 632.611 262.12 630.371 263.08C628.131 263.976 626.371 265.384 625.091 267.304C623.875 269.224 623.267 271.656 623.267 274.6C623.267 277.416 624.003 279.88 625.475 281.992C627.011 284.104 629.155 285.768 631.907 286.984C634.723 288.2 638.019 288.808 641.795 288.808C645.059 288.808 647.779 288.424 649.955 287.656C652.195 286.824 654.211 285.8 656.003 284.584L662.915 294.568C660.803 296.168 658.467 297.544 655.907 298.696C653.411 299.784 650.787 300.584 648.035 301.096C645.347 301.672 642.595 301.96 639.779 301.96ZM703.68 301.864C698.624 301.864 694.208 300.744 690.432 298.504C686.656 296.264 683.68 293.16 681.504 289.192C679.392 285.16 678.336 280.584 678.336 275.464C678.336 270.28 679.424 265.704 681.6 261.736C683.776 257.768 686.784 254.664 690.624 252.424C694.528 250.12 699.008 248.968 704.064 248.968C706.944 248.968 709.6 249.352 712.032 250.12C714.464 250.824 716.576 251.816 718.368 253.096C720.224 254.376 721.728 255.784 722.88 257.32C724.096 258.856 724.896 260.456 725.28 262.12H721.92V250.024H737.088V301H721.632V287.944L724.896 288.424C724.512 290.088 723.712 291.72 722.496 293.32C721.28 294.92 719.712 296.36 717.792 297.64C715.872 298.92 713.696 299.944 711.264 300.712C708.896 301.48 706.368 301.864 703.68 301.864ZM707.808 288.904C710.688 288.904 713.184 288.36 715.296 287.272C717.472 286.184 719.136 284.648 720.288 282.664C721.504 280.616 722.112 278.216 722.112 275.464C722.112 272.776 721.504 270.44 720.288 268.456C719.136 266.408 717.472 264.808 715.296 263.656C713.184 262.504 710.688 261.928 707.808 261.928C704.928 261.928 702.432 262.504 700.32 263.656C698.208 264.808 696.544 266.408 695.328 268.456C694.176 270.44 693.6 272.776 693.6 275.464C693.6 278.216 694.176 280.616 695.328 282.664C696.544 284.648 698.208 286.184 700.32 287.272C702.432 288.36 704.928 288.904 707.808 288.904ZM760.784 301V250.024H775.376L776.048 267.592L772.4 265.768C773.232 262.632 774.672 259.816 776.72 257.32C778.832 254.76 781.232 252.744 783.92 251.272C786.672 249.736 789.584 248.968 792.656 248.968C794.32 248.968 795.888 249.128 797.36 249.448C798.896 249.768 800.208 250.184 801.296 250.696L797.072 267.496C796.112 266.792 794.8 266.248 793.136 265.864C791.536 265.48 789.904 265.288 788.24 265.288C786.384 265.288 784.688 265.608 783.152 266.248C781.68 266.824 780.432 267.656 779.408 268.744C778.384 269.768 777.584 270.952 777.008 272.296C776.496 273.64 776.24 275.08 776.24 276.616V301H760.784ZM825.401 301V236.008H840.761V301H825.401ZM814.073 263.464V250.024H853.721V263.464H814.073ZM872.627 301V229.96H887.699V261.928L884.051 263.176C884.691 260.616 886.035 258.28 888.083 256.168C890.195 253.992 892.755 252.264 895.763 250.984C898.771 249.64 901.971 248.968 905.363 248.968C909.715 248.968 913.363 249.864 916.307 251.656C919.315 253.384 921.555 255.848 923.027 259.048C924.563 262.184 925.331 265.864 925.331 270.088V301H909.875V272.488C909.875 270.184 909.459 268.264 908.627 266.728C907.859 265.128 906.675 263.912 905.075 263.08C903.539 262.248 901.747 261.864 899.699 261.928C898.035 261.928 896.467 262.216 894.995 262.792C893.587 263.304 892.339 264.072 891.251 265.096C890.227 266.056 889.427 267.176 888.851 268.456C888.275 269.736 887.987 271.112 887.987 272.584V301H880.403C878.291 301 876.595 301 875.315 301C874.035 301 873.139 301 872.627 301ZM988.239 301V250.024H1003.7V301H988.239ZM995.919 239.56C993.039 239.56 990.799 238.888 989.199 237.544C987.599 236.136 986.799 234.152 986.799 231.592C986.799 229.288 987.599 227.4 989.199 225.928C990.863 224.456 993.103 223.72 995.919 223.72C998.799 223.72 1001.04 224.424 1002.64 225.832C1004.24 227.176 1005.04 229.096 1005.04 231.592C1005.04 233.96 1004.21 235.88 1002.54 237.352C1000.94 238.824 998.735 239.56 995.919 239.56ZM1047.93 301.96C1042.29 301.96 1037.24 301.16 1032.76 299.56C1028.34 297.96 1024.79 295.688 1022.1 292.744L1031.41 284.488C1033.59 286.536 1036.18 288.104 1039.19 289.192C1042.2 290.28 1045.37 290.824 1048.69 290.824C1049.72 290.824 1050.71 290.728 1051.67 290.536C1052.69 290.344 1053.56 290.088 1054.26 289.768C1055.03 289.384 1055.64 288.936 1056.09 288.424C1056.53 287.912 1056.76 287.272 1056.76 286.504C1056.76 285.288 1055.99 284.328 1054.45 283.624C1053.37 283.24 1051.99 282.856 1050.33 282.472C1048.66 282.088 1046.77 281.672 1044.66 281.224C1041.14 280.584 1038.04 279.816 1035.35 278.92C1032.73 277.96 1030.52 276.776 1028.73 275.368C1027.19 274.024 1026.01 272.488 1025.17 270.76C1024.34 269.032 1023.93 267.016 1023.93 264.712C1023.93 262.344 1024.53 260.2 1025.75 258.28C1026.97 256.296 1028.66 254.632 1030.84 253.288C1033.01 251.88 1035.51 250.824 1038.33 250.12C1041.14 249.352 1044.09 248.968 1047.16 248.968C1050.23 248.968 1053.24 249.288 1056.18 249.928C1059.13 250.504 1061.91 251.368 1064.53 252.52C1067.16 253.608 1069.46 255.016 1071.45 256.744L1063.57 265.96C1062.17 264.872 1060.53 263.88 1058.68 262.984C1056.82 262.088 1054.84 261.384 1052.73 260.872C1050.68 260.296 1048.66 260.008 1046.68 260.008C1045.59 260.008 1044.53 260.072 1043.51 260.2C1042.55 260.328 1041.72 260.584 1041.01 260.968C1040.31 261.288 1039.73 261.704 1039.29 262.216C1038.9 262.664 1038.71 263.24 1038.71 263.944C1038.71 264.52 1038.87 265.064 1039.19 265.576C1039.51 266.088 1039.99 266.504 1040.63 266.824C1041.53 267.4 1042.84 267.912 1044.57 268.36C1046.36 268.808 1048.6 269.288 1051.29 269.8C1055.19 270.632 1058.52 271.592 1061.27 272.68C1064.02 273.704 1066.23 274.952 1067.89 276.424C1069.24 277.448 1070.23 278.728 1070.87 280.264C1071.51 281.736 1071.83 283.368 1071.83 285.16C1071.83 288.424 1070.77 291.336 1068.66 293.896C1066.61 296.392 1063.8 298.376 1060.21 299.848C1056.69 301.256 1052.6 301.96 1047.93 301.96ZM356.712 421V353.8H389.832C394.952 353.8 399.272 354.472 402.792 355.816C406.312 357.096 408.968 358.984 410.76 361.48C412.616 363.912 413.544 366.856 413.544 370.312C413.544 374.088 412.52 377.32 410.472 380.008C408.424 382.632 405.416 384.392 401.448 385.288L401.544 383.56C404.488 384.2 407.112 385.288 409.416 386.824C411.784 388.296 413.64 390.216 414.984 392.584C416.392 394.888 417.096 397.576 417.096 400.648C417.096 404.296 416.392 407.432 414.984 410.056C413.576 412.616 411.656 414.728 409.224 416.392C406.792 417.992 404.04 419.176 400.968 419.944C397.96 420.648 394.76 421 391.368 421H356.712ZM372.072 407.368H391.176C393.16 407.368 394.856 407.112 396.264 406.6C397.736 406.024 398.888 405.192 399.72 404.104C400.616 402.952 401.064 401.544 401.064 399.88C401.064 398.152 400.552 396.776 399.528 395.752C398.568 394.728 397.288 393.992 395.688 393.544C394.152 393.032 392.488 392.776 390.696 392.776H372.072V407.368ZM372.072 380.584H388.488C390.28 380.584 391.848 380.328 393.192 379.816C394.6 379.24 395.656 378.472 396.36 377.512C397.128 376.488 397.512 375.272 397.512 373.864C397.512 371.752 396.648 370.152 394.92 369.064C393.192 367.976 390.856 367.432 387.912 367.432H372.072V380.584ZM467.03 421.576C460.822 421.576 455.35 420.328 450.614 417.832C445.878 415.336 442.166 411.912 439.478 407.56C436.854 403.208 435.542 398.248 435.542 392.68V353.8H452.054V392.008C452.054 394.888 452.694 397.48 453.974 399.784C455.318 402.088 457.11 403.912 459.35 405.256C461.59 406.536 464.15 407.176 467.03 407.176C470.038 407.176 472.662 406.536 474.902 405.256C477.206 403.912 479.03 402.088 480.374 399.784C481.782 397.48 482.486 394.888 482.486 392.008V353.8H498.422V392.68C498.422 398.248 497.078 403.208 494.39 407.56C491.766 411.912 488.086 415.336 483.35 417.832C478.614 420.328 473.174 421.576 467.03 421.576ZM521.243 421V353.8H554.939C559.675 353.8 563.835 354.728 567.419 356.584C571.003 358.376 573.787 360.872 575.771 364.072C577.755 367.272 578.747 370.984 578.747 375.208C578.747 379.496 577.691 383.336 575.579 386.728C573.531 390.056 570.683 392.712 567.035 394.696C563.451 396.616 559.419 397.576 554.939 397.576H536.795V421H521.243ZM563.291 421L543.899 390.664L560.795 388.264L582.107 421H563.291ZM536.795 385.096H553.307C555.099 385.096 556.667 384.712 558.011 383.944C559.419 383.176 560.507 382.12 561.275 380.776C562.107 379.432 562.523 377.864 562.523 376.072C562.523 374.344 562.075 372.84 561.179 371.56C560.347 370.216 559.163 369.192 557.627 368.488C556.155 367.784 554.395 367.432 552.347 367.432H536.795V385.096ZM600.743 421V353.8H615.719L656.327 401.8L653.543 401.32C653.159 399.08 652.871 396.936 652.679 394.888C652.487 392.84 652.295 390.856 652.103 388.936C651.975 387.016 651.847 385.096 651.719 383.176C651.655 381.256 651.623 379.24 651.623 377.128C651.623 375.016 651.623 372.776 651.623 370.408V353.8H667.463V421H652.295L610.151 371.464L614.663 372.136C614.855 374.376 615.047 376.392 615.239 378.184C615.495 379.976 615.687 381.672 615.815 383.272C616.007 384.808 616.135 386.376 616.199 387.976C616.327 389.512 616.423 391.144 616.487 392.872C616.551 394.6 616.583 396.488 616.583 398.536V421H600.743ZM690.741 421V406.984H704.757V367.816H690.741V353.8H735.189V367.816H721.077V406.984H735.189V421H690.741ZM758.525 421V353.8H773.501L814.109 401.8L811.325 401.32C810.941 399.08 810.653 396.936 810.461 394.888C810.269 392.84 810.077 390.856 809.885 388.936C809.757 387.016 809.629 385.096 809.501 383.176C809.437 381.256 809.405 379.24 809.405 377.128C809.405 375.016 809.405 372.776 809.405 370.408V353.8H825.245V421H810.077L767.933 371.464L772.445 372.136C772.637 374.376 772.829 376.392 773.021 378.184C773.277 379.976 773.469 381.672 773.597 383.272C773.789 384.808 773.917 386.376 773.981 387.976C774.109 389.512 774.205 391.144 774.269 392.872C774.333 394.6 774.365 396.488 774.365 398.536V421H758.525ZM881.642 421.96C876.074 421.96 870.986 421.16 866.378 419.56C861.834 417.96 857.898 415.656 854.57 412.648C851.242 409.576 848.65 405.896 846.794 401.608C845.002 397.256 844.106 392.424 844.106 387.112C844.106 382.12 845.034 377.544 846.89 373.384C848.81 369.16 851.53 365.48 855.05 362.344C858.57 359.208 862.698 356.776 867.434 355.048C872.234 353.32 877.45 352.456 883.082 352.456C887.37 352.456 891.338 352.968 894.986 353.992C898.634 355.016 901.898 356.36 904.778 358.024C907.722 359.688 910.154 361.544 912.074 363.592L902.186 374.248C900.458 372.776 898.602 371.528 896.618 370.504C894.698 369.416 892.586 368.552 890.282 367.912C888.042 367.208 885.61 366.856 882.986 366.856C879.85 366.856 876.938 367.368 874.25 368.392C871.626 369.416 869.322 370.856 867.338 372.712C865.354 374.504 863.818 376.648 862.73 379.144C861.642 381.576 861.098 384.232 861.098 387.112C861.098 390.376 861.674 393.288 862.826 395.848C863.978 398.344 865.546 400.456 867.53 402.184C869.578 403.912 871.946 405.256 874.634 406.216C877.322 407.112 880.202 407.56 883.274 407.56C885.77 407.56 888.106 407.24 890.282 406.6C892.522 405.96 894.474 405.096 896.138 404.008C897.802 402.92 899.05 401.608 899.882 400.072C900.778 398.472 901.258 396.776 901.322 394.984V392.776L903.434 396.328H881.642V383.656H916.682C916.81 384.488 916.906 385.48 916.97 386.632C917.034 387.784 917.066 388.872 917.066 389.896C917.13 390.92 917.162 391.656 917.162 392.104C917.162 396.712 916.266 400.872 914.474 404.584C912.746 408.232 910.314 411.336 907.178 413.896C904.042 416.456 900.298 418.44 895.946 419.848C891.594 421.256 886.826 421.96 881.642 421.96ZM940.126 396.52C939.422 392.808 938.718 388.904 938.014 384.808C937.374 380.712 936.83 376.584 936.382 372.424C935.934 368.2 935.71 364.136 935.71 360.232V352.744H954.238V360.232C954.238 364.136 954.014 368.2 953.566 372.424C953.182 376.584 952.638 380.712 951.934 384.808C951.294 388.904 950.558 392.808 949.726 396.52H940.126ZM945.022 422.056C941.886 422.056 939.486 421.32 937.822 419.848C936.158 418.312 935.326 416.2 935.326 413.512C935.326 411.08 936.158 409.032 937.822 407.368C939.55 405.704 941.95 404.872 945.022 404.872C948.158 404.872 950.526 405.64 952.126 407.176C953.79 408.712 954.622 410.824 954.622 413.512C954.622 415.88 953.758 417.896 952.03 419.56C950.366 421.224 948.03 422.056 945.022 422.056Z" fill="white"/>
<path id="an interactive story game about global warming" d="M352.92 475.216C351.656 475.216 350.552 474.936 349.608 474.376C348.664 473.816 347.92 473.04 347.376 472.048C346.848 471.04 346.584 469.896 346.584 468.616C346.584 467.32 346.856 466.176 347.4 465.184C347.944 464.192 348.696 463.416 349.656 462.856C350.632 462.28 351.752 461.992 353.016 461.992C353.736 461.992 354.4 462.088 355.008 462.28C355.616 462.456 356.144 462.704 356.592 463.024C357.056 463.344 357.432 463.696 357.72 464.08C358.024 464.464 358.224 464.864 358.32 465.28H357.48V462.256H361.272V475H357.408V471.736L358.224 471.856C358.128 472.272 357.928 472.68 357.624 473.08C357.32 473.48 356.928 473.84 356.448 474.16C355.968 474.48 355.424 474.736 354.816 474.928C354.224 475.12 353.592 475.216 352.92 475.216ZM353.952 471.976C354.672 471.976 355.296 471.84 355.824 471.568C356.368 471.296 356.784 470.912 357.072 470.416C357.376 469.904 357.528 469.304 357.528 468.616C357.528 467.944 357.376 467.36 357.072 466.864C356.784 466.352 356.368 465.952 355.824 465.664C355.296 465.376 354.672 465.232 353.952 465.232C353.232 465.232 352.608 465.376 352.08 465.664C351.552 465.952 351.136 466.352 350.832 466.864C350.544 467.36 350.4 467.944 350.4 468.616C350.4 469.304 350.544 469.904 350.832 470.416C351.136 470.912 351.552 471.296 352.08 471.568C352.608 471.84 353.232 471.976 353.952 471.976ZM367.196 475V462.256H370.844L370.964 465.232L370.052 465.496C370.26 464.872 370.612 464.296 371.108 463.768C371.62 463.24 372.236 462.816 372.956 462.496C373.692 462.16 374.484 461.992 375.332 461.992C376.42 461.992 377.34 462.208 378.092 462.64C378.844 463.072 379.412 463.688 379.796 464.488C380.18 465.272 380.372 466.208 380.372 467.296V475H376.508V467.848C376.508 467.288 376.404 466.816 376.196 466.432C376.004 466.048 375.708 465.752 375.308 465.544C374.924 465.336 374.476 465.232 373.964 465.232C373.516 465.232 373.108 465.312 372.74 465.472C372.388 465.616 372.084 465.816 371.828 466.072C371.572 466.312 371.372 466.584 371.228 466.888C371.1 467.192 371.036 467.504 371.036 467.824V475H369.14C368.612 475 368.188 475 367.868 475C367.548 475 367.324 475 367.196 475ZM396.099 475V462.256H399.963V475H396.099ZM398.019 459.64C397.299 459.64 396.739 459.472 396.339 459.136C395.939 458.784 395.739 458.288 395.739 457.648C395.739 457.072 395.939 456.6 396.339 456.232C396.755 455.864 397.315 455.68 398.019 455.68C398.739 455.68 399.299 455.856 399.699 456.208C400.099 456.544 400.299 457.024 400.299 457.648C400.299 458.24 400.091 458.72 399.675 459.088C399.275 459.456 398.723 459.64 398.019 459.64ZM406.172 475V462.256H409.82L409.94 465.232L409.028 465.496C409.236 464.872 409.588 464.296 410.084 463.768C410.596 463.24 411.212 462.816 411.932 462.496C412.668 462.16 413.46 461.992 414.308 461.992C415.396 461.992 416.316 462.208 417.068 462.64C417.82 463.072 418.388 463.688 418.772 464.488C419.156 465.272 419.348 466.208 419.348 467.296V475H415.484V467.848C415.484 467.288 415.38 466.816 415.172 466.432C414.98 466.048 414.684 465.752 414.284 465.544C413.9 465.336 413.452 465.232 412.94 465.232C412.492 465.232 412.084 465.312 411.716 465.472C411.364 465.616 411.06 465.816 410.804 466.072C410.548 466.312 410.348 466.584 410.204 466.888C410.076 467.192 410.012 467.504 410.012 467.824V475H408.116C407.588 475 407.164 475 406.844 475C406.524 475 406.3 475 406.172 475ZM426.475 475V458.752H430.315V475H426.475ZM423.643 465.616V462.256H433.555V465.616H423.643ZM444.453 475.24C442.901 475.24 441.541 474.96 440.373 474.4C439.221 473.824 438.325 473.048 437.685 472.072C437.045 471.08 436.725 469.952 436.725 468.688C436.725 467.68 436.909 466.768 437.277 465.952C437.645 465.136 438.157 464.432 438.813 463.84C439.469 463.248 440.237 462.792 441.117 462.472C441.997 462.152 442.949 461.992 443.973 461.992C444.965 461.992 445.877 462.152 446.709 462.472C447.541 462.776 448.261 463.216 448.869 463.792C449.493 464.368 449.973 465.048 450.309 465.832C450.645 466.616 450.797 467.48 450.765 468.424L450.741 469.504H439.245L438.693 467.272H447.621L447.213 467.752V467.272C447.165 466.872 446.989 466.512 446.685 466.192C446.397 465.872 446.021 465.624 445.557 465.448C445.093 465.256 444.581 465.16 444.021 465.16C443.301 465.16 442.661 465.28 442.101 465.52C441.541 465.744 441.101 466.096 440.781 466.576C440.477 467.056 440.325 467.664 440.325 468.4C440.325 469.104 440.509 469.72 440.877 470.248C441.261 470.776 441.797 471.192 442.485 471.496C443.189 471.8 444.013 471.952 444.957 471.952C445.773 471.952 446.453 471.856 446.997 471.664C447.557 471.456 448.061 471.2 448.509 470.896L450.237 473.392C449.709 473.792 449.125 474.136 448.485 474.424C447.861 474.696 447.205 474.896 446.517 475.024C445.845 475.168 445.157 475.24 444.453 475.24ZM455.532 475V462.256H459.18L459.348 466.648L458.436 466.192C458.644 465.408 459.004 464.704 459.516 464.08C460.044 463.44 460.644 462.936 461.316 462.568C462.004 462.184 462.732 461.992 463.5 461.992C463.916 461.992 464.308 462.032 464.676 462.112C465.06 462.192 465.388 462.296 465.66 462.424L464.604 466.624C464.364 466.448 464.036 466.312 463.62 466.216C463.22 466.12 462.812 466.072 462.396 466.072C461.932 466.072 461.508 466.152 461.124 466.312C460.756 466.456 460.444 466.664 460.188 466.936C459.932 467.192 459.732 467.488 459.588 467.824C459.46 468.16 459.396 468.52 459.396 468.904V475H455.532ZM474.326 475.216C473.062 475.216 471.958 474.936 471.014 474.376C470.07 473.816 469.326 473.04 468.782 472.048C468.254 471.04 467.99 469.896 467.99 468.616C467.99 467.32 468.262 466.176 468.806 465.184C469.35 464.192 470.102 463.416 471.062 462.856C472.038 462.28 473.158 461.992 474.422 461.992C475.142 461.992 475.806 462.088 476.414 462.28C477.022 462.456 477.55 462.704 477.998 463.024C478.462 463.344 478.838 463.696 479.126 464.08C479.43 464.464 479.63 464.864 479.726 465.28H478.886V462.256H482.678V475H478.814V471.736L479.63 471.856C479.534 472.272 479.334 472.68 479.03 473.08C478.726 473.48 478.334 473.84 477.854 474.16C477.374 474.48 476.83 474.736 476.222 474.928C475.63 475.12 474.998 475.216 474.326 475.216ZM475.358 471.976C476.078 471.976 476.702 471.84 477.23 471.568C477.774 471.296 478.19 470.912 478.478 470.416C478.782 469.904 478.934 469.304 478.934 468.616C478.934 467.944 478.782 467.36 478.478 466.864C478.19 466.352 477.774 465.952 477.23 465.664C476.702 465.376 476.078 465.232 475.358 465.232C474.638 465.232 474.014 465.376 473.486 465.664C472.958 465.952 472.542 466.352 472.238 466.864C471.95 467.36 471.806 467.944 471.806 468.616C471.806 469.304 471.95 469.904 472.238 470.416C472.542 470.912 472.958 471.296 473.486 471.568C474.014 471.84 474.638 471.976 475.358 471.976ZM494.578 475.24C493.17 475.24 491.922 474.952 490.834 474.376C489.746 473.8 488.89 473.016 488.266 472.024C487.642 471.016 487.33 469.88 487.33 468.616C487.33 467.352 487.642 466.224 488.266 465.232C488.89 464.224 489.738 463.432 490.81 462.856C491.882 462.28 493.098 461.992 494.458 461.992C495.754 461.992 496.938 462.192 498.01 462.592C499.082 462.976 499.954 463.52 500.626 464.224L498.538 466.864C498.25 466.592 497.906 466.336 497.506 466.096C497.106 465.856 496.674 465.672 496.21 465.544C495.762 465.4 495.298 465.328 494.818 465.328C494.082 465.328 493.434 465.472 492.874 465.76C492.33 466.032 491.906 466.416 491.602 466.912C491.314 467.408 491.17 467.976 491.17 468.616C491.17 469.224 491.322 469.776 491.626 470.272C491.93 470.768 492.354 471.16 492.898 471.448C493.442 471.736 494.074 471.88 494.794 471.88C495.37 471.88 495.882 471.824 496.33 471.712C496.778 471.6 497.186 471.448 497.554 471.256C497.938 471.048 498.266 470.816 498.538 470.56L500.626 473.176C499.906 473.784 499.026 474.28 497.986 474.664C496.946 475.048 495.81 475.24 494.578 475.24ZM506.303 475V458.752H510.143V475H506.303ZM503.471 465.616V462.256H513.383V465.616H503.471ZM518.302 475V462.256H522.166V475H518.302ZM520.222 459.64C519.502 459.64 518.942 459.472 518.542 459.136C518.142 458.784 517.942 458.288 517.942 457.648C517.942 457.072 518.142 456.6 518.542 456.232C518.958 455.864 519.518 455.68 520.222 455.68C520.942 455.68 521.502 455.856 521.902 456.208C522.302 456.544 522.502 457.024 522.502 457.648C522.502 458.24 522.294 458.72 521.878 459.088C521.478 459.456 520.926 459.64 520.222 459.64ZM532.48 475L526.408 462.256H530.752L534.688 472L533.656 472.096L537.688 462.256H541.984L535.696 475H532.48ZM551.773 475.24C550.221 475.24 548.861 474.96 547.693 474.4C546.541 473.824 545.645 473.048 545.005 472.072C544.365 471.08 544.045 469.952 544.045 468.688C544.045 467.68 544.229 466.768 544.597 465.952C544.965 465.136 545.477 464.432 546.133 463.84C546.789 463.248 547.557 462.792 548.437 462.472C549.317 462.152 550.269 461.992 551.293 461.992C552.285 461.992 553.197 462.152 554.029 462.472C554.861 462.776 555.581 463.216 556.189 463.792C556.813 464.368 557.293 465.048 557.629 465.832C557.965 466.616 558.117 467.48 558.085 468.424L558.061 469.504H546.565L546.013 467.272H554.941L554.533 467.752V467.272C554.485 466.872 554.309 466.512 554.005 466.192C553.717 465.872 553.341 465.624 552.877 465.448C552.413 465.256 551.901 465.16 551.341 465.16C550.621 465.16 549.981 465.28 549.421 465.52C548.861 465.744 548.421 466.096 548.101 466.576C547.797 467.056 547.645 467.664 547.645 468.4C547.645 469.104 547.829 469.72 548.197 470.248C548.581 470.776 549.117 471.192 549.805 471.496C550.509 471.8 551.333 471.952 552.277 471.952C553.093 471.952 553.773 471.856 554.317 471.664C554.877 471.456 555.381 471.2 555.829 470.896L557.557 473.392C557.029 473.792 556.445 474.136 555.805 474.424C555.181 474.696 554.525 474.896 553.837 475.024C553.165 475.168 552.477 475.24 551.773 475.24ZM577.356 475.24C575.948 475.24 574.684 475.04 573.564 474.64C572.46 474.24 571.572 473.672 570.9 472.936L573.228 470.872C573.772 471.384 574.42 471.776 575.172 472.048C575.924 472.32 576.716 472.456 577.548 472.456C577.804 472.456 578.052 472.432 578.292 472.384C578.548 472.336 578.764 472.272 578.94 472.192C579.132 472.096 579.284 471.984 579.396 471.856C579.508 471.728 579.564 471.568 579.564 471.376C579.564 471.072 579.372 470.832 578.988 470.656C578.716 470.56 578.372 470.464 577.956 470.368C577.54 470.272 577.068 470.168 576.54 470.056C575.66 469.896 574.884 469.704 574.212 469.48C573.556 469.24 573.004 468.944 572.556 468.592C572.172 468.256 571.876 467.872 571.668 467.44C571.46 467.008 571.356 466.504 571.356 465.928C571.356 465.336 571.508 464.8 571.812 464.32C572.116 463.824 572.54 463.408 573.084 463.072C573.628 462.72 574.252 462.456 574.956 462.28C575.66 462.088 576.396 461.992 577.164 461.992C577.932 461.992 578.684 462.072 579.42 462.232C580.156 462.376 580.852 462.592 581.508 462.88C582.164 463.152 582.74 463.504 583.236 463.936L581.268 466.24C580.916 465.968 580.508 465.72 580.044 465.496C579.58 465.272 579.084 465.096 578.556 464.968C578.044 464.824 577.54 464.752 577.044 464.752C576.772 464.752 576.508 464.768 576.252 464.8C576.012 464.832 575.804 464.896 575.628 464.992C575.452 465.072 575.308 465.176 575.196 465.304C575.1 465.416 575.052 465.56 575.052 465.736C575.052 465.88 575.092 466.016 575.172 466.144C575.252 466.272 575.372 466.376 575.532 466.456C575.756 466.6 576.084 466.728 576.516 466.84C576.964 466.952 577.524 467.072 578.196 467.2C579.172 467.408 580.004 467.648 580.692 467.92C581.38 468.176 581.932 468.488 582.348 468.856C582.684 469.112 582.932 469.432 583.092 469.816C583.252 470.184 583.332 470.592 583.332 471.04C583.332 471.856 583.068 472.584 582.54 473.224C582.028 473.848 581.324 474.344 580.428 474.712C579.548 475.064 578.524 475.24 577.356 475.24ZM588.967 475V458.752H592.807V475H588.967ZM586.135 465.616V462.256H596.047V465.616H586.135ZM607.041 475.24C605.553 475.24 604.233 474.952 603.081 474.376C601.929 473.8 601.025 473.016 600.369 472.024C599.713 471.032 599.385 469.896 599.385 468.616C599.385 467.336 599.713 466.2 600.369 465.208C601.025 464.216 601.929 463.432 603.081 462.856C604.233 462.28 605.553 461.992 607.041 461.992C608.513 461.992 609.817 462.28 610.953 462.856C612.105 463.432 613.009 464.216 613.665 465.208C614.321 466.2 614.649 467.336 614.649 468.616C614.649 469.896 614.321 471.032 613.665 472.024C613.009 473.016 612.105 473.8 610.953 474.376C609.817 474.952 608.513 475.24 607.041 475.24ZM607.041 471.928C607.729 471.928 608.353 471.784 608.913 471.496C609.489 471.208 609.937 470.816 610.257 470.32C610.593 469.824 610.753 469.256 610.737 468.616C610.753 467.976 610.593 467.4 610.257 466.888C609.937 466.376 609.489 465.984 608.913 465.712C608.353 465.424 607.729 465.28 607.041 465.28C606.337 465.28 605.689 465.424 605.097 465.712C604.521 466 604.073 466.392 603.753 466.888C603.433 467.384 603.273 467.96 603.273 468.616C603.273 469.256 603.433 469.824 603.753 470.32C604.073 470.816 604.521 471.208 605.097 471.496C605.689 471.784 606.337 471.928 607.041 471.928ZM619.407 475V462.256H623.055L623.223 466.648L622.311 466.192C622.519 465.408 622.879 464.704 623.391 464.08C623.919 463.44 624.519 462.936 625.191 462.568C625.879 462.184 626.607 461.992 627.375 461.992C627.791 461.992 628.183 462.032 628.551 462.112C628.935 462.192 629.263 462.296 629.535 462.424L628.479 466.624C628.239 466.448 627.911 466.312 627.495 466.216C627.095 466.12 626.687 466.072 626.271 466.072C625.807 466.072 625.383 466.152 624.999 466.312C624.631 466.456 624.319 466.664 624.063 466.936C623.807 467.192 623.607 467.488 623.463 467.824C623.335 468.16 623.271 468.52 623.271 468.904V475H619.407ZM635.404 480.52L638.74 473.68L638.668 475.624L631.9 462.256H636.292L639.388 468.88C639.612 469.328 639.82 469.784 640.012 470.248C640.204 470.696 640.356 471.144 640.468 471.592L639.748 471.784C639.892 471.432 640.06 471.016 640.252 470.536C640.444 470.056 640.644 469.568 640.852 469.072L643.708 462.256H648.1L641.86 475.048L639.292 480.52H635.404ZM668.26 480.52C666.996 480.52 665.82 480.36 664.732 480.04C663.66 479.736 662.78 479.352 662.092 478.888L663.412 476.152C663.764 476.344 664.156 476.528 664.588 476.704C665.036 476.88 665.524 477.024 666.052 477.136C666.58 477.264 667.156 477.328 667.78 477.328C668.596 477.328 669.284 477.192 669.844 476.92C670.42 476.648 670.852 476.232 671.14 475.672C671.444 475.128 671.596 474.456 671.596 473.656V471.904L672.34 472.024C672.212 472.536 671.892 473.008 671.38 473.44C670.868 473.872 670.228 474.224 669.46 474.496C668.692 474.768 667.876 474.904 667.012 474.904C665.748 474.904 664.636 474.64 663.676 474.112C662.716 473.568 661.956 472.824 661.396 471.88C660.852 470.92 660.58 469.816 660.58 468.568C660.58 467.288 660.86 466.16 661.42 465.184C661.98 464.192 662.748 463.416 663.724 462.856C664.7 462.28 665.828 461.992 667.108 461.992C667.54 461.992 667.988 462.048 668.452 462.16C668.932 462.256 669.396 462.392 669.844 462.568C670.308 462.728 670.724 462.936 671.092 463.192C671.476 463.432 671.788 463.704 672.028 464.008C672.284 464.296 672.428 464.608 672.46 464.944L671.668 465.136L671.836 462.256H675.46V473.584C675.46 474.72 675.276 475.712 674.908 476.56C674.556 477.424 674.06 478.152 673.42 478.744C672.78 479.336 672.012 479.776 671.116 480.064C670.236 480.368 669.284 480.52 668.26 480.52ZM668.116 471.928C668.836 471.928 669.468 471.792 670.012 471.52C670.556 471.232 670.972 470.84 671.26 470.344C671.564 469.848 671.716 469.264 671.716 468.592C671.716 467.92 671.564 467.336 671.26 466.84C670.972 466.328 670.556 465.936 670.012 465.664C669.468 465.376 668.836 465.232 668.116 465.232C667.364 465.232 666.708 465.376 666.148 465.664C665.588 465.936 665.156 466.328 664.852 466.84C664.548 467.336 664.396 467.92 664.396 468.592C664.396 469.264 664.548 469.848 664.852 470.344C665.156 470.84 665.588 471.232 666.148 471.52C666.708 471.792 667.364 471.928 668.116 471.928ZM686.225 475.216C684.961 475.216 683.857 474.936 682.913 474.376C681.969 473.816 681.225 473.04 680.681 472.048C680.153 471.04 679.889 469.896 679.889 468.616C679.889 467.32 680.161 466.176 680.705 465.184C681.249 464.192 682.001 463.416 682.961 462.856C683.937 462.28 685.057 461.992 686.321 461.992C687.041 461.992 687.705 462.088 688.313 462.28C688.921 462.456 689.449 462.704 689.897 463.024C690.361 463.344 690.737 463.696 691.025 464.08C691.329 464.464 691.529 464.864 691.625 465.28H690.785V462.256H694.577V475H690.713V471.736L691.529 471.856C691.433 472.272 691.233 472.68 690.929 473.08C690.625 473.48 690.233 473.84 689.753 474.16C689.273 474.48 688.729 474.736 688.121 474.928C687.529 475.12 686.897 475.216 686.225 475.216ZM687.257 471.976C687.977 471.976 688.601 471.84 689.129 471.568C689.673 471.296 690.089 470.912 690.377 470.416C690.681 469.904 690.833 469.304 690.833 468.616C690.833 467.944 690.681 467.36 690.377 466.864C690.089 466.352 689.673 465.952 689.129 465.664C688.601 465.376 687.977 465.232 687.257 465.232C686.537 465.232 685.913 465.376 685.385 465.664C684.857 465.952 684.441 466.352 684.137 466.864C683.849 467.36 683.705 467.944 683.705 468.616C683.705 469.304 683.849 469.904 684.137 470.416C684.441 470.912 684.857 471.296 685.385 471.568C685.913 471.84 686.537 471.976 687.257 471.976ZM700.405 475V462.256H704.053L704.173 464.944L703.477 464.776C703.685 464.392 703.957 464.032 704.293 463.696C704.645 463.36 705.037 463.072 705.469 462.832C705.917 462.576 706.397 462.376 706.909 462.232C707.421 462.088 707.973 462.016 708.565 462.016C709.253 462.016 709.885 462.12 710.461 462.328C711.053 462.536 711.557 462.88 711.973 463.36C712.389 463.824 712.709 464.448 712.933 465.232L712.141 465.136L712.333 464.752C712.589 464.384 712.893 464.04 713.245 463.72C713.613 463.384 714.029 463.096 714.493 462.856C714.957 462.6 715.453 462.4 715.981 462.256C716.509 462.096 717.053 462.016 717.613 462.016C718.781 462.016 719.733 462.24 720.469 462.688C721.205 463.12 721.749 463.736 722.101 464.536C722.453 465.336 722.629 466.264 722.629 467.32V475H718.765V467.728C718.765 467.216 718.685 466.776 718.525 466.408C718.365 466.04 718.117 465.76 717.781 465.568C717.461 465.36 717.045 465.256 716.533 465.256C716.085 465.256 715.669 465.328 715.285 465.472C714.917 465.616 714.589 465.816 714.301 466.072C714.029 466.312 713.813 466.6 713.653 466.936C713.509 467.256 713.437 467.608 713.437 467.992V475H709.573V467.704C709.573 467.208 709.485 466.776 709.309 466.408C709.133 466.04 708.861 465.76 708.493 465.568C708.125 465.36 707.669 465.256 707.125 465.256C706.693 465.256 706.301 465.336 705.949 465.496C705.613 465.64 705.317 465.84 705.061 466.096C704.805 466.336 704.605 466.6 704.461 466.888C704.333 467.176 704.269 467.472 704.269 467.776V475H700.405ZM734.726 475.24C733.174 475.24 731.814 474.96 730.646 474.4C729.494 473.824 728.598 473.048 727.958 472.072C727.318 471.08 726.998 469.952 726.998 468.688C726.998 467.68 727.182 466.768 727.55 465.952C727.918 465.136 728.43 464.432 729.086 463.84C729.742 463.248 730.51 462.792 731.39 462.472C732.27 462.152 733.222 461.992 734.246 461.992C735.238 461.992 736.15 462.152 736.982 462.472C737.814 462.776 738.534 463.216 739.142 463.792C739.766 464.368 740.246 465.048 740.582 465.832C740.918 466.616 741.07 467.48 741.038 468.424L741.014 469.504H729.518L728.966 467.272H737.894L737.486 467.752V467.272C737.438 466.872 737.262 466.512 736.958 466.192C736.67 465.872 736.294 465.624 735.83 465.448C735.366 465.256 734.854 465.16 734.294 465.16C733.574 465.16 732.934 465.28 732.374 465.52C731.814 465.744 731.374 466.096 731.054 466.576C730.75 467.056 730.598 467.664 730.598 468.4C730.598 469.104 730.782 469.72 731.15 470.248C731.534 470.776 732.07 471.192 732.758 471.496C733.462 471.8 734.286 471.952 735.23 471.952C736.046 471.952 736.726 471.856 737.27 471.664C737.83 471.456 738.334 471.2 738.782 470.896L740.51 473.392C739.982 473.792 739.398 474.136 738.758 474.424C738.134 474.696 737.478 474.896 736.79 475.024C736.118 475.168 735.43 475.24 734.726 475.24ZM760.358 475.216C759.094 475.216 757.99 474.936 757.046 474.376C756.102 473.816 755.358 473.04 754.814 472.048C754.286 471.04 754.021 469.896 754.021 468.616C754.021 467.32 754.294 466.176 754.838 465.184C755.382 464.192 756.134 463.416 757.094 462.856C758.07 462.28 759.19 461.992 760.454 461.992C761.174 461.992 761.838 462.088 762.446 462.28C763.054 462.456 763.582 462.704 764.03 463.024C764.494 463.344 764.87 463.696 765.158 464.08C765.462 464.464 765.662 464.864 765.758 465.28H764.918V462.256H768.71V475H764.846V471.736L765.661 471.856C765.566 472.272 765.366 472.68 765.062 473.08C764.758 473.48 764.366 473.84 763.886 474.16C763.406 474.48 762.862 474.736 762.254 474.928C761.662 475.12 761.03 475.216 760.358 475.216ZM761.39 471.976C762.11 471.976 762.734 471.84 763.262 471.568C763.806 471.296 764.222 470.912 764.51 470.416C764.814 469.904 764.966 469.304 764.966 468.616C764.966 467.944 764.814 467.36 764.51 466.864C764.222 466.352 763.806 465.952 763.262 465.664C762.734 465.376 762.11 465.232 761.39 465.232C760.67 465.232 760.046 465.376 759.518 465.664C758.99 465.952 758.574 466.352 758.27 466.864C757.982 467.36 757.838 467.944 757.838 468.616C757.838 469.304 757.982 469.904 758.27 470.416C758.574 470.912 758.99 471.296 759.518 471.568C760.046 471.84 760.67 471.976 761.39 471.976ZM782.769 475.264C782.081 475.264 781.433 475.176 780.825 475C780.217 474.824 779.673 474.592 779.193 474.304C778.713 474.016 778.313 473.688 777.993 473.32C777.689 472.936 777.489 472.568 777.393 472.216L778.425 472.024L778.209 474.976H774.633V457.24H778.497V465.304L777.513 465.112C777.625 464.712 777.833 464.328 778.137 463.96C778.441 463.592 778.825 463.264 779.289 462.976C779.769 462.672 780.305 462.432 780.897 462.256C781.489 462.08 782.113 461.992 782.769 461.992C783.985 461.992 785.073 462.28 786.033 462.856C786.993 463.416 787.753 464.2 788.313 465.208C788.873 466.2 789.153 467.336 789.153 468.616C789.153 469.912 788.873 471.064 788.313 472.072C787.769 473.064 787.017 473.848 786.057 474.424C785.097 474.984 784.001 475.264 782.769 475.264ZM781.857 472C782.577 472 783.193 471.856 783.705 471.568C784.233 471.28 784.641 470.888 784.929 470.392C785.233 469.88 785.385 469.288 785.385 468.616C785.385 467.944 785.241 467.352 784.953 466.84C784.665 466.328 784.249 465.936 783.705 465.664C783.177 465.392 782.561 465.256 781.857 465.256C781.121 465.256 780.489 465.392 779.961 465.664C779.433 465.936 779.017 466.328 778.713 466.84C778.425 467.352 778.281 467.944 778.281 468.616C778.281 469.288 778.425 469.88 778.713 470.392C779.017 470.888 779.433 471.28 779.961 471.568C780.489 471.856 781.121 472 781.857 472ZM800.283 475.24C798.795 475.24 797.475 474.952 796.323 474.376C795.171 473.8 794.267 473.016 793.611 472.024C792.955 471.032 792.627 469.896 792.627 468.616C792.627 467.336 792.955 466.2 793.611 465.208C794.267 464.216 795.171 463.432 796.323 462.856C797.475 462.28 798.795 461.992 800.283 461.992C801.755 461.992 803.059 462.28 804.195 462.856C805.347 463.432 806.251 464.216 806.907 465.208C807.563 466.2 807.891 467.336 807.891 468.616C807.891 469.896 807.563 471.032 806.907 472.024C806.251 473.016 805.347 473.8 804.195 474.376C803.059 474.952 801.755 475.24 800.283 475.24ZM800.283 471.928C800.971 471.928 801.595 471.784 802.155 471.496C802.731 471.208 803.179 470.816 803.499 470.32C803.835 469.824 803.995 469.256 803.979 468.616C803.995 467.976 803.835 467.4 803.499 466.888C803.179 466.376 802.731 465.984 802.155 465.712C801.595 465.424 800.971 465.28 800.283 465.28C799.579 465.28 798.931 465.424 798.339 465.712C797.763 466 797.315 466.392 796.995 466.888C796.675 467.384 796.515 467.96 796.515 468.616C796.515 469.256 796.675 469.824 796.995 470.32C797.315 470.816 797.763 471.208 798.339 471.496C798.931 471.784 799.579 471.928 800.283 471.928ZM817.401 475.264C816.377 475.264 815.489 475.04 814.737 474.592C814.001 474.144 813.433 473.496 813.033 472.648C812.633 471.784 812.433 470.752 812.433 469.552V462.256H816.273V468.928C816.273 469.584 816.361 470.136 816.537 470.584C816.729 471.032 817.025 471.376 817.425 471.616C817.825 471.84 818.313 471.952 818.889 471.952C819.305 471.952 819.689 471.888 820.041 471.76C820.393 471.616 820.705 471.424 820.977 471.184C821.249 470.928 821.457 470.64 821.601 470.32C821.761 469.984 821.841 469.608 821.841 469.192V462.256H825.681V475H822.081L821.913 472.384L822.609 472.096C822.433 472.656 822.097 473.176 821.601 473.656C821.105 474.136 820.497 474.528 819.777 474.832C819.073 475.12 818.281 475.264 817.401 475.264ZM832.905 475V458.752H836.745V475H832.905ZM830.073 465.616V462.256H839.985V465.616H830.073ZM860.776 480.52C859.512 480.52 858.336 480.36 857.248 480.04C856.176 479.736 855.296 479.352 854.608 478.888L855.928 476.152C856.28 476.344 856.672 476.528 857.104 476.704C857.552 476.88 858.04 477.024 858.568 477.136C859.096 477.264 859.672 477.328 860.296 477.328C861.112 477.328 861.8 477.192 862.36 476.92C862.936 476.648 863.368 476.232 863.656 475.672C863.96 475.128 864.112 474.456 864.112 473.656V471.904L864.856 472.024C864.728 472.536 864.408 473.008 863.896 473.44C863.384 473.872 862.744 474.224 861.976 474.496C861.208 474.768 860.392 474.904 859.528 474.904C858.264 474.904 857.152 474.64 856.192 474.112C855.232 473.568 854.472 472.824 853.912 471.88C853.368 470.92 853.096 469.816 853.096 468.568C853.096 467.288 853.376 466.16 853.936 465.184C854.496 464.192 855.264 463.416 856.24 462.856C857.216 462.28 858.344 461.992 859.624 461.992C860.056 461.992 860.504 462.048 860.968 462.16C861.448 462.256 861.912 462.392 862.36 462.568C862.824 462.728 863.24 462.936 863.608 463.192C863.992 463.432 864.304 463.704 864.544 464.008C864.8 464.296 864.944 464.608 864.976 464.944L864.184 465.136L864.352 462.256H867.976V473.584C867.976 474.72 867.792 475.712 867.424 476.56C867.072 477.424 866.576 478.152 865.936 478.744C865.296 479.336 864.528 479.776 863.632 480.064C862.752 480.368 861.8 480.52 860.776 480.52ZM860.632 471.928C861.352 471.928 861.984 471.792 862.528 471.52C863.072 471.232 863.488 470.84 863.776 470.344C864.08 469.848 864.232 469.264 864.232 468.592C864.232 467.92 864.08 467.336 863.776 466.84C863.488 466.328 863.072 465.936 862.528 465.664C861.984 465.376 861.352 465.232 860.632 465.232C859.88 465.232 859.224 465.376 858.664 465.664C858.104 465.936 857.672 466.328 857.368 466.84C857.064 467.336 856.912 467.92 856.912 468.592C856.912 469.264 857.064 469.848 857.368 470.344C857.672 470.84 858.104 471.232 858.664 471.52C859.224 471.792 859.88 471.928 860.632 471.928ZM873.844 475V457.24H877.684V475H873.844ZM889.908 475.24C888.42 475.24 887.1 474.952 885.948 474.376C884.796 473.8 883.892 473.016 883.236 472.024C882.58 471.032 882.252 469.896 882.252 468.616C882.252 467.336 882.58 466.2 883.236 465.208C883.892 464.216 884.796 463.432 885.948 462.856C887.1 462.28 888.42 461.992 889.908 461.992C891.38 461.992 892.684 462.28 893.82 462.856C894.972 463.432 895.876 464.216 896.532 465.208C897.188 466.2 897.516 467.336 897.516 468.616C897.516 469.896 897.188 471.032 896.532 472.024C895.876 473.016 894.972 473.8 893.82 474.376C892.684 474.952 891.38 475.24 889.908 475.24ZM889.908 471.928C890.596 471.928 891.22 471.784 891.78 471.496C892.356 471.208 892.804 470.816 893.124 470.32C893.46 469.824 893.62 469.256 893.604 468.616C893.62 467.976 893.46 467.4 893.124 466.888C892.804 466.376 892.356 465.984 891.78 465.712C891.22 465.424 890.596 465.28 889.908 465.28C889.204 465.28 888.556 465.424 887.964 465.712C887.388 466 886.94 466.392 886.62 466.888C886.3 467.384 886.14 467.96 886.14 468.616C886.14 469.256 886.3 469.824 886.62 470.32C886.94 470.816 887.388 471.208 887.964 471.496C888.556 471.784 889.204 471.928 889.908 471.928ZM910.41 475.264C909.722 475.264 909.074 475.176 908.466 475C907.858 474.824 907.314 474.592 906.834 474.304C906.354 474.016 905.954 473.688 905.634 473.32C905.33 472.936 905.13 472.568 905.034 472.216L906.066 472.024L905.85 474.976H902.274V457.24H906.138V465.304L905.154 465.112C905.266 464.712 905.474 464.328 905.778 463.96C906.082 463.592 906.466 463.264 906.93 462.976C907.41 462.672 907.946 462.432 908.538 462.256C909.13 462.08 909.754 461.992 910.41 461.992C911.626 461.992 912.714 462.28 913.674 462.856C914.634 463.416 915.394 464.2 915.954 465.208C916.514 466.2 916.794 467.336 916.794 468.616C916.794 469.912 916.514 471.064 915.954 472.072C915.41 473.064 914.658 473.848 913.698 474.424C912.738 474.984 911.642 475.264 910.41 475.264ZM909.498 472C910.218 472 910.834 471.856 911.346 471.568C911.874 471.28 912.282 470.888 912.57 470.392C912.874 469.88 913.026 469.288 913.026 468.616C913.026 467.944 912.882 467.352 912.594 466.84C912.306 466.328 911.89 465.936 911.346 465.664C910.818 465.392 910.202 465.256 909.498 465.256C908.762 465.256 908.13 465.392 907.602 465.664C907.074 465.936 906.658 466.328 906.354 466.84C906.066 467.352 905.922 467.944 905.922 468.616C905.922 469.288 906.066 469.88 906.354 470.392C906.658 470.888 907.074 471.28 907.602 471.568C908.13 471.856 908.762 472 909.498 472ZM926.436 475.216C925.172 475.216 924.068 474.936 923.124 474.376C922.18 473.816 921.436 473.04 920.892 472.048C920.364 471.04 920.1 469.896 920.1 468.616C920.1 467.32 920.372 466.176 920.916 465.184C921.46 464.192 922.212 463.416 923.172 462.856C924.148 462.28 925.268 461.992 926.532 461.992C927.252 461.992 927.916 462.088 928.524 462.28C929.132 462.456 929.66 462.704 930.108 463.024C930.572 463.344 930.948 463.696 931.236 464.08C931.54 464.464 931.74 464.864 931.836 465.28H930.996V462.256H934.788V475H930.924V471.736L931.74 471.856C931.644 472.272 931.444 472.68 931.14 473.08C930.836 473.48 930.444 473.84 929.964 474.16C929.484 474.48 928.94 474.736 928.332 474.928C927.74 475.12 927.108 475.216 926.436 475.216ZM927.468 471.976C928.188 471.976 928.812 471.84 929.34 471.568C929.884 471.296 930.3 470.912 930.588 470.416C930.892 469.904 931.044 469.304 931.044 468.616C931.044 467.944 930.892 467.36 930.588 466.864C930.3 466.352 929.884 465.952 929.34 465.664C928.812 465.376 928.188 465.232 927.468 465.232C926.748 465.232 926.124 465.376 925.596 465.664C925.068 465.952 924.652 466.352 924.348 466.864C924.06 467.36 923.916 467.944 923.916 468.616C923.916 469.304 924.06 469.904 924.348 470.416C924.652 470.912 925.068 471.296 925.596 471.568C926.124 471.84 926.748 471.976 927.468 471.976ZM940.712 475V457.24H944.552V475H940.712ZM962.754 475L958.314 462.256H962.37L964.89 470.656L964.386 470.608L967.266 463.96H969.738L972.81 470.608L972.306 470.656L974.826 462.256H978.906L974.322 475H971.418L968.106 467.32L968.994 467.296L965.634 475H962.754ZM987.279 475.216C986.015 475.216 984.911 474.936 983.967 474.376C983.023 473.816 982.279 473.04 981.735 472.048C981.207 471.04 980.943 469.896 980.943 468.616C980.943 467.32 981.215 466.176 981.759 465.184C982.303 464.192 983.055 463.416 984.015 462.856C984.991 462.28 986.111 461.992 987.375 461.992C988.095 461.992 988.759 462.088 989.367 462.28C989.975 462.456 990.503 462.704 990.951 463.024C991.415 463.344 991.791 463.696 992.079 464.08C992.383 464.464 992.583 464.864 992.679 465.28H991.839V462.256H995.631V475H991.767V471.736L992.583 471.856C992.487 472.272 992.287 472.68 991.983 473.08C991.679 473.48 991.287 473.84 990.807 474.16C990.327 474.48 989.783 474.736 989.175 474.928C988.583 475.12 987.951 475.216 987.279 475.216ZM988.311 471.976C989.031 471.976 989.655 471.84 990.183 471.568C990.727 471.296 991.143 470.912 991.431 470.416C991.735 469.904 991.887 469.304 991.887 468.616C991.887 467.944 991.735 467.36 991.431 466.864C991.143 466.352 990.727 465.952 990.183 465.664C989.655 465.376 989.031 465.232 988.311 465.232C987.591 465.232 986.967 465.376 986.439 465.664C985.911 465.952 985.495 466.352 985.191 466.864C984.903 467.36 984.759 467.944 984.759 468.616C984.759 469.304 984.903 469.904 985.191 470.416C985.495 470.912 985.911 471.296 986.439 471.568C986.967 471.84 987.591 471.976 988.311 471.976ZM1001.56 475V462.256H1005.2L1005.37 466.648L1004.46 466.192C1004.67 465.408 1005.03 464.704 1005.54 464.08C1006.07 463.44 1006.67 462.936 1007.34 462.568C1008.03 462.184 1008.76 461.992 1009.52 461.992C1009.94 461.992 1010.33 462.032 1010.7 462.112C1011.08 462.192 1011.41 462.296 1011.68 462.424L1010.63 466.624C1010.39 466.448 1010.06 466.312 1009.64 466.216C1009.24 466.12 1008.84 466.072 1008.42 466.072C1007.96 466.072 1007.53 466.152 1007.15 466.312C1006.78 466.456 1006.47 466.664 1006.21 466.936C1005.96 467.192 1005.76 467.488 1005.61 467.824C1005.48 468.16 1005.42 468.52 1005.42 468.904V475H1001.56ZM1015.9 475V462.256H1019.54L1019.66 464.944L1018.97 464.776C1019.18 464.392 1019.45 464.032 1019.78 463.696C1020.14 463.36 1020.53 463.072 1020.96 462.832C1021.41 462.576 1021.89 462.376 1022.4 462.232C1022.91 462.088 1023.46 462.016 1024.06 462.016C1024.74 462.016 1025.38 462.12 1025.95 462.328C1026.54 462.536 1027.05 462.88 1027.46 463.36C1027.88 463.824 1028.2 464.448 1028.42 465.232L1027.63 465.136L1027.82 464.752C1028.08 464.384 1028.38 464.04 1028.74 463.72C1029.1 463.384 1029.52 463.096 1029.98 462.856C1030.45 462.6 1030.94 462.4 1031.47 462.256C1032 462.096 1032.54 462.016 1033.1 462.016C1034.27 462.016 1035.22 462.24 1035.96 462.688C1036.7 463.12 1037.24 463.736 1037.59 464.536C1037.94 465.336 1038.12 466.264 1038.12 467.32V475H1034.26V467.728C1034.26 467.216 1034.18 466.776 1034.02 466.408C1033.86 466.04 1033.61 465.76 1033.27 465.568C1032.95 465.36 1032.54 465.256 1032.02 465.256C1031.58 465.256 1031.16 465.328 1030.78 465.472C1030.41 465.616 1030.08 465.816 1029.79 466.072C1029.52 466.312 1029.3 466.6 1029.14 466.936C1029 467.256 1028.93 467.608 1028.93 467.992V475H1025.06V467.704C1025.06 467.208 1024.98 466.776 1024.8 466.408C1024.62 466.04 1024.35 465.76 1023.98 465.568C1023.62 465.36 1023.16 465.256 1022.62 465.256C1022.18 465.256 1021.79 465.336 1021.44 465.496C1021.1 465.64 1020.81 465.84 1020.55 466.096C1020.3 466.336 1020.1 466.6 1019.95 466.888C1019.82 467.176 1019.76 467.472 1019.76 467.776V475H1015.9ZM1044.12 475V462.256H1047.99V475H1044.12ZM1046.04 459.64C1045.32 459.64 1044.76 459.472 1044.36 459.136C1043.96 458.784 1043.76 458.288 1043.76 457.648C1043.76 457.072 1043.96 456.6 1044.36 456.232C1044.78 455.864 1045.34 455.68 1046.04 455.68C1046.76 455.68 1047.32 455.856 1047.72 456.208C1048.12 456.544 1048.32 457.024 1048.32 457.648C1048.32 458.24 1048.11 458.72 1047.7 459.088C1047.3 459.456 1046.75 459.64 1046.04 459.64ZM1054.2 475V462.256H1057.84L1057.96 465.232L1057.05 465.496C1057.26 464.872 1057.61 464.296 1058.11 463.768C1058.62 463.24 1059.24 462.816 1059.96 462.496C1060.69 462.16 1061.48 461.992 1062.33 461.992C1063.42 461.992 1064.34 462.208 1065.09 462.64C1065.84 463.072 1066.41 463.688 1066.8 464.488C1067.18 465.272 1067.37 466.208 1067.37 467.296V475H1063.51V467.848C1063.51 467.288 1063.4 466.816 1063.2 466.432C1063 466.048 1062.71 465.752 1062.31 465.544C1061.92 465.336 1061.48 465.232 1060.96 465.232C1060.52 465.232 1060.11 465.312 1059.74 465.472C1059.39 465.616 1059.08 465.816 1058.83 466.072C1058.57 466.312 1058.37 466.584 1058.23 466.888C1058.1 467.192 1058.04 467.504 1058.04 467.824V475H1056.14C1055.61 475 1055.19 475 1054.87 475C1054.55 475 1054.32 475 1054.2 475ZM1079.66 480.52C1078.39 480.52 1077.22 480.36 1076.13 480.04C1075.06 479.736 1074.18 479.352 1073.49 478.888L1074.81 476.152C1075.16 476.344 1075.55 476.528 1075.99 476.704C1076.43 476.88 1076.92 477.024 1077.45 477.136C1077.98 477.264 1078.55 477.328 1079.18 477.328C1079.99 477.328 1080.68 477.192 1081.24 476.92C1081.82 476.648 1082.25 476.232 1082.54 475.672C1082.84 475.128 1082.99 474.456 1082.99 473.656V471.904L1083.74 472.024C1083.61 472.536 1083.29 473.008 1082.78 473.44C1082.27 473.872 1081.63 474.224 1080.86 474.496C1080.09 474.768 1079.27 474.904 1078.41 474.904C1077.15 474.904 1076.03 474.64 1075.07 474.112C1074.11 473.568 1073.35 472.824 1072.79 471.88C1072.25 470.92 1071.98 469.816 1071.98 468.568C1071.98 467.288 1072.26 466.16 1072.82 465.184C1073.38 464.192 1074.15 463.416 1075.12 462.856C1076.1 462.28 1077.23 461.992 1078.51 461.992C1078.94 461.992 1079.39 462.048 1079.85 462.16C1080.33 462.256 1080.79 462.392 1081.24 462.568C1081.71 462.728 1082.12 462.936 1082.49 463.192C1082.87 463.432 1083.19 463.704 1083.43 464.008C1083.68 464.296 1083.83 464.608 1083.86 464.944L1083.07 465.136L1083.23 462.256H1086.86V473.584C1086.86 474.72 1086.67 475.712 1086.31 476.56C1085.95 477.424 1085.46 478.152 1084.82 478.744C1084.18 479.336 1083.41 479.776 1082.51 480.064C1081.63 480.368 1080.68 480.52 1079.66 480.52ZM1079.51 471.928C1080.23 471.928 1080.87 471.792 1081.41 471.52C1081.95 471.232 1082.37 470.84 1082.66 470.344C1082.96 469.848 1083.11 469.264 1083.11 468.592C1083.11 467.92 1082.96 467.336 1082.66 466.84C1082.37 466.328 1081.95 465.936 1081.41 465.664C1080.87 465.376 1080.23 465.232 1079.51 465.232C1078.76 465.232 1078.11 465.376 1077.55 465.664C1076.99 465.936 1076.55 466.328 1076.25 466.84C1075.95 467.336 1075.79 467.92 1075.79 468.592C1075.79 469.264 1075.95 469.848 1076.25 470.344C1076.55 470.84 1076.99 471.232 1077.55 471.52C1078.11 471.792 1078.76 471.928 1079.51 471.928Z" fill="white"/>
<g id="Vector 1" filter="url(#filter0_d_1_2)">
<path d="M-45.5 880.5L95.5 640.5L293 775.5L492.5 521.5L615.5 687L744.5 608.5L898 787.5L1015 626.5L1131.5 737.5L1271 451L1349.5 721L1498.5 592L1551 1144.5H-112L-45.5 880.5Z" fill="#EC5F46"/>
</g>
<g id="Vector 2" filter="url(#filter1_d_1_2)">
<path d="M-79 1230.5L90.5 779L346.5 865.5L469.5 674L652.5 779L711 722.5L904.5 888L983 755L1158.5 865.5L1225 722.5L1360 823.5L1469 1260.5L-79 1230.5Z" fill="#FD9D49"/>
</g>
<g id="start!">
<g id="start!_2" filter="url(#filter2_i_1_2)">
<path d="M554.488 975.96C548.856 975.96 543.8 975.16 539.32 973.56C534.904 971.96 531.352 969.688 528.664 966.744L537.976 958.488C540.152 960.536 542.744 962.104 545.752 963.192C548.76 964.28 551.928 964.824 555.256 964.824C556.28 964.824 557.272 964.728 558.232 964.536C559.256 964.344 560.12 964.088 560.824 963.768C561.592 963.384 562.2 962.936 562.648 962.424C563.096 961.912 563.32 961.272 563.32 960.504C563.32 959.288 562.552 958.328 561.016 957.624C559.928 957.24 558.552 956.856 556.888 956.472C555.224 956.088 553.336 955.672 551.224 955.224C547.704 954.584 544.6 953.816 541.912 952.92C539.288 951.96 537.08 950.776 535.288 949.368C533.752 948.024 532.568 946.488 531.736 944.76C530.904 943.032 530.488 941.016 530.488 938.712C530.488 936.344 531.096 934.2 532.312 932.28C533.528 930.296 535.224 928.632 537.4 927.288C539.576 925.88 542.072 924.824 544.888 924.12C547.704 923.352 550.648 922.968 553.72 922.968C556.792 922.968 559.8 923.288 562.744 923.928C565.688 924.504 568.472 925.368 571.096 926.52C573.72 927.608 576.024 929.016 578.008 930.744L570.136 939.96C568.728 938.872 567.096 937.88 565.24 936.984C563.384 936.088 561.4 935.384 559.288 934.872C557.24 934.296 555.224 934.008 553.24 934.008C552.152 934.008 551.096 934.072 550.072 934.2C549.112 934.328 548.28 934.584 547.576 934.968C546.872 935.288 546.296 935.704 545.848 936.216C545.464 936.664 545.272 937.24 545.272 937.944C545.272 938.52 545.432 939.064 545.752 939.576C546.072 940.088 546.552 940.504 547.192 940.824C548.088 941.4 549.4 941.912 551.128 942.36C552.92 942.808 555.16 943.288 557.848 943.8C561.752 944.632 565.08 945.592 567.832 946.68C570.584 947.704 572.792 948.952 574.456 950.424C575.8 951.448 576.792 952.728 577.432 954.264C578.072 955.736 578.392 957.368 578.392 959.16C578.392 962.424 577.336 965.336 575.224 967.896C573.176 970.392 570.36 972.376 566.776 973.848C563.256 975.256 559.16 975.96 554.488 975.96ZM600.932 975V910.008H616.292V975H600.932ZM589.604 937.464V924.024H629.252V937.464H589.604ZM667.274 975.864C662.218 975.864 657.802 974.744 654.026 972.504C650.25 970.264 647.274 967.16 645.098 963.192C642.986 959.16 641.93 954.584 641.93 949.464C641.93 944.28 643.018 939.704 645.194 935.736C647.37 931.768 650.378 928.664 654.218 926.424C658.122 924.12 662.602 922.968 667.658 922.968C670.538 922.968 673.194 923.352 675.626 924.12C678.058 924.824 680.17 925.816 681.962 927.096C683.818 928.376 685.322 929.784 686.474 931.32C687.69 932.856 688.49 934.456 688.874 936.12H685.514V924.024H700.682V975H685.226V961.944L688.49 962.424C688.106 964.088 687.306 965.72 686.09 967.32C684.874 968.92 683.306 970.36 681.386 971.64C679.466 972.92 677.29 973.944 674.858 974.712C672.49 975.48 669.962 975.864 667.274 975.864ZM671.402 962.904C674.282 962.904 676.778 962.36 678.89 961.272C681.066 960.184 682.73 958.648 683.882 956.664C685.098 954.616 685.706 952.216 685.706 949.464C685.706 946.776 685.098 944.44 683.882 942.456C682.73 940.408 681.066 938.808 678.89 937.656C676.778 936.504 674.282 935.928 671.402 935.928C668.522 935.928 666.026 936.504 663.914 937.656C661.802 938.808 660.138 940.408 658.922 942.456C657.77 944.44 657.194 946.776 657.194 949.464C657.194 952.216 657.77 954.616 658.922 956.664C660.138 958.648 661.802 960.184 663.914 961.272C666.026 962.36 668.522 962.904 671.402 962.904ZM724.377 975V924.024H738.969L739.641 941.592L735.993 939.768C736.825 936.632 738.265 933.816 740.313 931.32C742.425 928.76 744.825 926.744 747.513 925.272C750.265 923.736 753.177 922.968 756.249 922.968C757.913 922.968 759.481 923.128 760.953 923.448C762.489 923.768 763.801 924.184 764.889 924.696L760.665 941.496C759.705 940.792 758.393 940.248 756.729 939.864C755.129 939.48 753.497 939.288 751.833 939.288C749.977 939.288 748.281 939.608 746.745 940.248C745.273 940.824 744.025 941.656 743.001 942.744C741.977 943.768 741.177 944.952 740.601 946.296C740.089 947.64 739.833 949.08 739.833 950.616V975H724.377ZM788.994 975V910.008H804.354V975H788.994ZM777.666 937.464V924.024H817.314V937.464H777.666ZM840.157 950.52C839.453 946.808 838.749 942.904 838.045 938.808C837.405 934.712 836.861 930.584 836.413 926.424C835.965 922.2 835.741 918.136 835.741 914.232V906.744H854.269V914.232C854.269 918.136 854.045 922.2 853.597 926.424C853.213 930.584 852.669 934.712 851.965 938.808C851.325 942.904 850.589 946.808 849.757 950.52H840.157ZM845.053 976.056C841.917 976.056 839.517 975.32 837.853 973.848C836.189 972.312 835.357 970.2 835.357 967.512C835.357 965.08 836.189 963.032 837.853 961.368C839.581 959.704 841.981 958.872 845.053 958.872C848.189 958.872 850.557 959.64 852.157 961.176C853.821 962.712 854.653 964.824 854.653 967.512C854.653 969.88 853.789 971.896 852.061 973.56C850.397 975.224 848.061 976.056 845.053 976.056Z" fill="#EC5F46"/>
</g>
</g>
</g>
<defs>
<filter id="filter0_d_1_2" x="-116" y="451" width="1671" height="701.5" filterUnits="userSpaceOnUse" color-interpolation-filters="sRGB">
<feFlood flood-opacity="0" result="BackgroundImageFix"/>
<feColorMatrix in="SourceAlpha" type="matrix" values="0 0 0 0 0 0 0 0 0 0 0 0 0 0 0 0 0 0 127 0" result="hardAlpha"/>
<feOffset dy="4"/>
<feGaussianBlur stdDeviation="2"/>
<feComposite in2="hardAlpha" operator="out"/>
<feColorMatrix type="matrix" values="0 0 0 0 0 0 0 0 0 0 0 0 0 0 0 0 0 0 0.25 0"/>
<feBlend mode="normal" in2="BackgroundImageFix" result="effect1_dropShadow_1_2"/>
<feBlend mode="normal" in="SourceGraphic" in2="effect1_dropShadow_1_2" result="shape"/>
</filter>
<filter id="filter1_d_1_2" x="-83" y="674" width="1556" height="594.5" filterUnits="userSpaceOnUse" color-interpolation-filters="sRGB">
<feFlood flood-opacity="0" result="BackgroundImageFix"/>
<feColorMatrix in="SourceAlpha" type="matrix" values="0 0 0 0 0 0 0 0 0 0 0 0 0 0 0 0 0 0 127 0" result="hardAlpha"/>
<feOffset dy="4"/>
<feGaussianBlur stdDeviation="2"/>
<feComposite in2="hardAlpha" operator="out"/>
<feColorMatrix type="matrix" values="0 0 0 0 0 0 0 0 0 0 0 0 0 0 0 0 0 0 0.25 0"/>
<feBlend mode="normal" in2="BackgroundImageFix" result="effect1_dropShadow_1_2"/>
<feBlend mode="normal" in="SourceGraphic" in2="effect1_dropShadow_1_2" result="shape"/>
</filter>
<filter id="filter2_i_1_2" x="528.664" y="906.744" width="325.989" height="73.312" filterUnits="userSpaceOnUse" color-interpolation-filters="sRGB">
<feFlood flood-opacity="0" result="BackgroundImageFix"/>
<feBlend mode="normal" in="SourceGraphic" in2="BackgroundImageFix" result="shape"/>
<feColorMatrix in="SourceAlpha" type="matrix" values="0 0 0 0 0 0 0 0 0 0 0 0 0 0 0 0 0 0 127 0" result="hardAlpha"/>
<feOffset dy="4"/>
<feGaussianBlur stdDeviation="2"/>
<feComposite in2="hardAlpha" operator="arithmetic" k2="-1" k3="1"/>
<feColorMatrix type="matrix" values="0 0 0 0 0 0 0 0 0 0 0 0 0 0 0 0 0 0 0.25 0"/>
<feBlend mode="normal" in2="shape" result="effect1_innerShadow_1_2"/>
</filter>
<clipPath id="clip0_1_2">
<rect width="1440" height="1024" fill="white"/>
</clipPath>
</defs>
</svg>
