<svg width="1440" height="1024" viewBox="0 0 1440 1024" fill="none" xmlns="http://www.w3.org/2000/svg">
<g id="intro9">
<rect width="1440" height="1024" fill="#333148"/>
<path id="part 1" d="M357.096 322.12V250.024H371.688L372.264 261.448L369.384 260.584C369.832 258.536 371.048 256.648 373.032 254.92C375.016 253.192 377.512 251.784 380.52 250.696C383.592 249.608 386.856 249.064 390.312 249.064C395.304 249.064 399.688 250.216 403.464 252.52C407.24 254.76 410.184 257.864 412.296 261.832C414.472 265.736 415.56 270.28 415.56 275.464C415.56 280.584 414.472 285.128 412.296 289.096C410.184 293.064 407.208 296.2 403.368 298.504C399.528 300.744 395.112 301.864 390.12 301.864C386.664 301.864 383.432 301.288 380.424 300.136C377.416 298.984 374.888 297.48 372.84 295.624C370.856 293.768 369.576 291.816 369 289.768L372.552 288.424V322.12H357.096ZM386.376 288.904C389.256 288.904 391.752 288.36 393.864 287.272C395.976 286.12 397.608 284.552 398.76 282.568C399.976 280.584 400.584 278.216 400.584 275.464C400.584 272.776 399.976 270.44 398.76 268.456C397.608 266.408 395.976 264.84 393.864 263.752C391.816 262.6 389.32 262.024 386.376 262.024C383.496 262.024 380.968 262.568 378.792 263.656C376.68 264.744 375.016 266.312 373.8 268.36C372.648 270.408 372.072 272.776 372.072 275.464C372.072 278.216 372.648 280.584 373.8 282.568C375.016 284.552 376.68 286.12 378.792 287.272C380.968 288.36 383.496 288.904 386.376 288.904ZM454.211 301.864C449.155 301.864 444.739 300.744 440.963 298.504C437.187 296.264 434.211 293.16 432.035 289.192C429.923 285.16 428.867 280.584 428.867 275.464C428.867 270.28 429.955 265.704 432.131 261.736C434.307 257.768 437.315 254.664 441.155 252.424C445.059 250.12 449.539 248.968 454.595 248.968C457.475 248.968 460.131 249.352 462.563 250.12C464.995 250.824 467.107 251.816 468.899 253.096C470.755 254.376 472.259 255.784 473.411 257.32C474.627 258.856 475.427 260.456 475.811 262.12H472.451V250.024H487.619V301H472.163V287.944L475.427 288.424C475.043 290.088 474.243 291.72 473.027 293.32C471.811 294.92 470.243 296.36 468.323 297.64C466.403 298.92 464.227 299.944 461.795 300.712C459.427 301.48 456.899 301.864 454.211 301.864ZM458.339 288.904C461.219 288.904 463.715 288.36 465.827 287.272C468.003 286.184 469.667 284.648 470.819 282.664C472.035 280.616 472.643 278.216 472.643 275.464C472.643 272.776 472.035 270.44 470.819 268.456C469.667 266.408 468.003 264.808 465.827 263.656C463.715 262.504 461.219 261.928 458.339 261.928C455.459 261.928 452.963 262.504 450.851 263.656C448.739 264.808 447.075 266.408 445.859 268.456C444.707 270.44 444.131 272.776 444.131 275.464C444.131 278.216 444.707 280.616 445.859 282.664C447.075 284.648 448.739 286.184 450.851 287.272C452.963 288.36 455.459 288.904 458.339 288.904ZM511.315 301V250.024H525.907L526.579 267.592L522.931 265.768C523.763 262.632 525.203 259.816 527.251 257.32C529.363 254.76 531.763 252.744 534.451 251.272C537.203 249.736 540.115 248.968 543.187 248.968C544.851 248.968 546.419 249.128 547.891 249.448C549.427 249.768 550.739 250.184 551.827 250.696L547.603 267.496C546.643 266.792 545.331 266.248 543.667 265.864C542.067 265.48 540.435 265.288 538.771 265.288C536.915 265.288 535.219 265.608 533.683 266.248C532.211 266.824 530.963 267.656 529.939 268.744C528.915 269.768 528.115 270.952 527.539 272.296C527.027 273.64 526.771 275.08 526.771 276.616V301H511.315ZM575.932 301V236.008H591.292V301H575.932ZM564.604 263.464V250.024H604.252V263.464H564.604ZM673.496 296.296V241.768L677.144 248.872L661.496 256.552L658.328 242.152L677.24 232.84H689.528V296.296H673.496ZM659.672 301V286.6H702.488V301H659.672Z" fill="white"/>
<g id="Vector" filter="url(#filter0_d_59_85)">
<path d="M479.246 463.996C484.515 440.672 517.714 440.672 522.983 463.996L531.541 501.874C534.712 515.912 524.05 529.267 509.672 529.267H492.557C478.179 529.267 467.517 515.912 470.688 501.874L479.246 463.996Z" fill="#3B5EC6"/>
<path d="M524.816 413.046C524.816 426.326 514.061 437.092 500.794 437.092C487.527 437.092 476.772 426.326 476.772 413.046C476.772 399.766 487.527 389 500.794 389C514.061 389 524.816 399.766 524.816 413.046Z" fill="#3B5EC6"/>
<path d="M505.599 517.565C505.599 511.013 510.904 505.702 517.45 505.702C523.995 505.702 529.3 511.013 529.3 517.565V545.137C529.3 551.689 523.995 557 517.45 557C510.904 557 505.599 551.689 505.599 545.137V517.565Z" fill="#3B5EC6"/>
<path d="M514.867 471.609C511.517 465.981 513.36 458.7 518.982 455.347C524.605 451.993 531.879 453.837 535.229 459.466L549.328 483.153C552.678 488.781 550.836 496.062 545.213 499.415C539.59 502.769 532.316 500.925 528.966 495.296L514.867 471.609Z" fill="#3B5EC6"/>
<path d="M466.362 459.548C469.635 453.874 476.883 451.93 482.551 455.206C488.219 458.482 490.161 465.737 486.889 471.411L473.116 495.289C469.844 500.963 462.596 502.907 456.927 499.631C451.259 496.355 449.317 489.1 452.59 483.427L466.362 459.548Z" fill="#3B5EC6"/>
<path d="M472.288 517.565C472.288 511.013 477.594 505.702 484.139 505.702C490.684 505.702 495.99 511.013 495.99 517.565V545.137C495.99 551.689 490.684 557 484.139 557C477.594 557 472.288 551.689 472.288 545.137V517.565Z" fill="#3B5EC6"/>
</g>
<g id="Vector_2" filter="url(#filter1_d_59_85)">
<path d="M713.528 463.996C718.85 440.672 752.381 440.672 757.703 463.996L766.346 501.874C769.549 515.912 758.78 529.267 744.259 529.267H726.972C712.451 529.267 701.682 515.912 704.885 501.874L713.528 463.996Z" fill="#3B5EC6"/>
<path d="M759.555 413.046C759.555 426.326 748.692 437.092 735.292 437.092C721.892 437.092 711.03 426.326 711.03 413.046C711.03 399.766 721.892 389 735.292 389C748.692 389 759.555 399.766 759.555 413.046Z" fill="#3B5EC6"/>
<path d="M740.145 517.565C740.145 511.013 745.504 505.702 752.114 505.702C758.725 505.702 764.083 511.013 764.083 517.565V545.137C764.083 551.689 758.725 557 752.114 557C745.504 557 740.145 551.689 740.145 545.137V517.565Z" fill="#3B5EC6"/>
<path d="M749.506 471.609C746.123 465.981 747.983 458.7 753.662 455.347C759.341 451.993 766.688 453.837 770.071 459.466L784.311 483.153C787.695 488.781 785.834 496.062 780.155 499.415C774.476 502.769 767.13 500.925 763.746 495.296L749.506 471.609Z" fill="#3B5EC6"/>
<path d="M700.516 459.548C703.821 453.874 711.142 451.93 716.867 455.206C722.591 458.482 724.553 465.737 721.248 471.411L707.337 495.289C704.032 500.963 696.712 502.907 690.987 499.631C685.262 496.355 683.3 489.1 686.606 483.427L700.516 459.548Z" fill="#3B5EC6"/>
<path d="M706.501 517.565C706.501 511.013 711.86 505.702 718.47 505.702C725.081 505.702 730.44 511.013 730.44 517.565V545.137C730.44 551.689 725.081 557 718.47 557C711.86 557 706.501 551.689 706.501 545.137V517.565Z" fill="#3B5EC6"/>
</g>
<g id="Vector_3" filter="url(#filter2_d_59_85)">
<path d="M596.528 463.996C601.85 440.672 635.381 440.672 640.703 463.996L649.346 501.874C652.549 515.912 641.78 529.267 627.259 529.267H609.972C595.451 529.267 584.682 515.912 587.885 501.874L596.528 463.996Z" fill="#3B5EC6"/>
<path d="M642.555 413.046C642.555 426.326 631.692 437.092 618.292 437.092C604.892 437.092 594.03 426.326 594.03 413.046C594.03 399.766 604.892 389 618.292 389C631.692 389 642.555 399.766 642.555 413.046Z" fill="#3B5EC6"/>
<path d="M623.145 517.565C623.145 511.013 628.504 505.702 635.114 505.702C641.725 505.702 647.083 511.013 647.083 517.565V545.137C647.083 551.689 641.725 557 635.114 557C628.504 557 623.145 551.689 623.145 545.137V517.565Z" fill="#3B5EC6"/>
<path d="M632.506 471.609C629.123 465.981 630.983 458.7 636.662 455.347C642.341 451.993 649.688 453.837 653.071 459.466L667.311 483.153C670.695 488.781 668.834 496.062 663.155 499.415C657.476 502.769 650.13 500.925 646.746 495.296L632.506 471.609Z" fill="#3B5EC6"/>
<path d="M583.516 459.548C586.821 453.874 594.142 451.93 599.867 455.206C605.591 458.482 607.553 465.737 604.248 471.411L590.337 495.289C587.032 500.963 579.712 502.907 573.987 499.631C568.262 496.355 566.3 489.1 569.606 483.427L583.516 459.548Z" fill="#3B5EC6"/>
<path d="M589.501 517.565C589.501 511.013 594.86 505.702 601.47 505.702C608.081 505.702 613.44 511.013 613.44 517.565V545.137C613.44 551.689 608.081 557 601.47 557C594.86 557 589.501 551.689 589.501 545.137V517.565Z" fill="#3B5EC6"/>
</g>
<g id="Vector_4" filter="url(#filter3_d_59_85)">
<path d="M831.246 463.996C836.515 440.672 869.714 440.672 874.983 463.996L883.541 501.874C886.712 515.912 876.05 529.267 861.672 529.267H844.557C830.179 529.267 819.517 515.912 822.688 501.874L831.246 463.996Z" fill="#3B5EC6"/>
<path d="M876.816 413.046C876.816 426.326 866.061 437.092 852.794 437.092C839.527 437.092 828.772 426.326 828.772 413.046C828.772 399.766 839.527 389 852.794 389C866.061 389 876.816 399.766 876.816 413.046Z" fill="#3B5EC6"/>
<path d="M857.599 517.565C857.599 511.013 862.904 505.702 869.45 505.702C875.995 505.702 881.3 511.013 881.3 517.565V545.137C881.3 551.689 875.995 557 869.45 557C862.904 557 857.599 551.689 857.599 545.137V517.565Z" fill="#3B5EC6"/>
<path d="M866.867 471.609C863.517 465.981 865.36 458.7 870.982 455.347C876.605 451.993 883.879 453.837 887.229 459.466L901.328 483.153C904.678 488.781 902.836 496.062 897.213 499.415C891.59 502.769 884.316 500.925 880.966 495.296L866.867 471.609Z" fill="#3B5EC6"/>
<path d="M818.362 459.548C821.635 453.874 828.883 451.93 834.551 455.206C840.219 458.482 842.161 465.737 838.889 471.411L825.116 495.289C821.844 500.963 814.596 502.907 808.927 499.631C803.259 496.355 801.317 489.1 804.59 483.427L818.362 459.548Z" fill="#3B5EC6"/>
<path d="M824.288 517.565C824.288 511.013 829.594 505.702 836.139 505.702C842.684 505.702 847.99 511.013 847.99 517.565V545.137C847.99 551.689 842.684 557 836.139 557C829.594 557 824.288 551.689 824.288 545.137V517.565Z" fill="#3B5EC6"/>
</g>
<g id="Vector_5" filter="url(#filter4_d_59_85)">
<path d="M378.33 500.388C384.548 472.899 423.722 472.899 429.94 500.388L440.038 545.03C443.78 561.575 431.199 577.315 414.233 577.315H394.037C377.071 577.315 364.49 561.575 368.232 545.03L378.33 500.388Z" fill="#6A94E0"/>
<path d="M432.103 440.34C432.103 455.991 419.412 468.679 403.757 468.679C388.102 468.679 375.411 455.991 375.411 440.34C375.411 424.688 388.102 412 403.757 412C419.412 412 432.103 424.688 432.103 440.34Z" fill="#6A94E0"/>
<path d="M409.426 563.523C409.426 555.801 415.687 549.542 423.41 549.542C431.134 549.542 437.395 555.801 437.395 563.523V596.019C437.395 603.741 431.134 610 423.41 610C415.687 610 409.426 603.741 409.426 596.019V563.523Z" fill="#6A94E0"/>
<path d="M420.364 509.361C416.41 502.728 418.584 494.146 425.219 490.194C431.854 486.242 440.437 488.416 444.39 495.049L461.027 522.966C464.98 529.599 462.806 538.18 456.171 542.132C449.537 546.085 440.953 543.911 437 537.278L420.364 509.361Z" fill="#6A94E0"/>
<path d="M363.128 495.146C366.989 488.459 375.542 486.168 382.23 490.029C388.919 493.889 391.21 502.44 387.349 509.127L371.097 537.269C367.235 543.956 358.683 546.248 351.994 542.387C345.306 538.526 343.014 529.975 346.876 523.289L363.128 495.146Z" fill="#6A94E0"/>
<path d="M370.12 563.523C370.12 555.801 376.381 549.542 384.104 549.542C391.827 549.542 398.088 555.801 398.088 563.523V596.019C398.088 603.741 391.827 610 384.104 610C376.381 610 370.12 603.741 370.12 596.019V563.523Z" fill="#6A94E0"/>
</g>
<g id="Vector_6" filter="url(#filter5_d_59_85)">
<path d="M654.33 500.388C660.548 472.899 699.722 472.899 705.94 500.388L716.038 545.03C719.78 561.575 707.199 577.315 690.233 577.315H670.037C653.071 577.315 640.49 561.575 644.232 545.03L654.33 500.388Z" fill="#6A94E0"/>
<path d="M708.103 440.34C708.103 455.991 695.412 468.679 679.757 468.679C664.102 468.679 651.411 455.991 651.411 440.34C651.411 424.688 664.102 412 679.757 412C695.412 412 708.103 424.688 708.103 440.34Z" fill="#6A94E0"/>
<path d="M685.426 563.523C685.426 555.801 691.687 549.542 699.41 549.542C707.134 549.542 713.395 555.801 713.395 563.523V596.019C713.395 603.741 707.134 610 699.41 610C691.687 610 685.426 603.741 685.426 596.019V563.523Z" fill="#6A94E0"/>
<path d="M696.364 509.361C692.41 502.728 694.584 494.146 701.219 490.194C707.854 486.242 716.437 488.416 720.39 495.049L737.027 522.966C740.98 529.599 738.806 538.18 732.171 542.132C725.537 546.085 716.953 543.911 713 537.278L696.364 509.361Z" fill="#6A94E0"/>
<path d="M639.128 495.146C642.989 488.459 651.542 486.168 658.23 490.029C664.919 493.889 667.21 502.44 663.349 509.127L647.097 537.269C643.235 543.956 634.683 546.248 627.994 542.387C621.306 538.526 619.014 529.975 622.876 523.289L639.128 495.146Z" fill="#6A94E0"/>
<path d="M646.12 563.523C646.12 555.801 652.381 549.542 660.104 549.542C667.827 549.542 674.088 555.801 674.088 563.523V596.019C674.088 603.741 667.827 610 660.104 610C652.381 610 646.12 603.741 646.12 596.019V563.523Z" fill="#6A94E0"/>
</g>
<g id="Vector_7" filter="url(#filter6_d_59_85)">
<path d="M516.33 500.388C522.548 472.899 561.722 472.899 567.94 500.388L578.038 545.03C581.78 561.575 569.199 577.315 552.233 577.315H532.037C515.071 577.315 502.49 561.575 506.232 545.03L516.33 500.388Z" fill="#6A94E0"/>
<path d="M570.103 440.34C570.103 455.991 557.412 468.679 541.757 468.679C526.102 468.679 513.411 455.991 513.411 440.34C513.411 424.688 526.102 412 541.757 412C557.412 412 570.103 424.688 570.103 440.34Z" fill="#6A94E0"/>
<path d="M547.426 563.523C547.426 555.801 553.687 549.542 561.41 549.542C569.134 549.542 575.395 555.801 575.395 563.523V596.019C575.395 603.741 569.134 610 561.41 610C553.687 610 547.426 603.741 547.426 596.019V563.523Z" fill="#6A94E0"/>
<path d="M558.364 509.361C554.41 502.728 556.584 494.146 563.219 490.194C569.854 486.242 578.437 488.416 582.39 495.049L599.027 522.966C602.98 529.599 600.806 538.18 594.171 542.132C587.537 546.085 578.953 543.911 575 537.278L558.364 509.361Z" fill="#6A94E0"/>
<path d="M501.128 495.146C504.989 488.459 513.542 486.168 520.23 490.029C526.919 493.889 529.21 502.44 525.349 509.127L509.097 537.269C505.235 543.956 496.683 546.248 489.994 542.387C483.306 538.526 481.014 529.975 484.876 523.289L501.128 495.146Z" fill="#6A94E0"/>
<path d="M508.12 563.523C508.12 555.801 514.381 549.542 522.104 549.542C529.827 549.542 536.088 555.801 536.088 563.523V596.019C536.088 603.741 529.827 610 522.104 610C514.381 610 508.12 603.741 508.12 596.019V563.523Z" fill="#6A94E0"/>
</g>
<g id="Vector_8" filter="url(#filter7_d_59_85)">
<path d="M574.33 546.388C580.548 518.899 619.722 518.899 625.94 546.388L636.038 591.03C639.78 607.575 627.199 623.315 610.233 623.315H590.037C573.071 623.315 560.49 607.575 564.232 591.03L574.33 546.388Z" fill="#8DBBFB"/>
<path d="M628.103 486.34C628.103 501.991 615.412 514.679 599.757 514.679C584.102 514.679 571.411 501.991 571.411 486.34C571.411 470.688 584.102 458 599.757 458C615.412 458 628.103 470.688 628.103 486.34Z" fill="#8DBBFB"/>
<path d="M605.426 609.523C605.426 601.801 611.687 595.542 619.41 595.542C627.134 595.542 633.395 601.801 633.395 609.523V642.019C633.395 649.741 627.134 656 619.41 656C611.687 656 605.426 649.741 605.426 642.019V609.523Z" fill="#8DBBFB"/>
<path d="M616.364 555.361C612.41 548.728 614.584 540.146 621.219 536.194C627.854 532.242 636.437 534.416 640.39 541.049L657.027 568.966C660.98 575.599 658.806 584.18 652.171 588.132C645.537 592.085 636.953 589.911 633 583.278L616.364 555.361Z" fill="#8DBBFB"/>
<path d="M559.128 541.146C562.989 534.459 571.542 532.168 578.23 536.029C584.919 539.889 587.21 548.44 583.349 555.127L567.097 583.269C563.235 589.956 554.683 592.248 547.994 588.387C541.306 584.526 539.014 575.975 542.876 569.289L559.128 541.146Z" fill="#8DBBFB"/>
<path d="M566.12 609.523C566.12 601.801 572.381 595.542 580.104 595.542C587.827 595.542 594.088 601.801 594.088 609.523V642.019C594.088 649.741 587.827 656 580.104 656C572.381 656 566.12 649.741 566.12 642.019V609.523Z" fill="#8DBBFB"/>
</g>
<g id="Vector_9" filter="url(#filter8_d_59_85)">
<path d="M792.33 500.388C798.548 472.899 837.722 472.899 843.94 500.388L854.038 545.03C857.78 561.575 845.199 577.315 828.233 577.315H808.037C791.071 577.315 778.49 561.575 782.232 545.03L792.33 500.388Z" fill="#6A94E0"/>
<path d="M846.103 440.34C846.103 455.991 833.412 468.679 817.757 468.679C802.102 468.679 789.411 455.991 789.411 440.34C789.411 424.688 802.102 412 817.757 412C833.412 412 846.103 424.688 846.103 440.34Z" fill="#6A94E0"/>
<path d="M823.426 563.523C823.426 555.801 829.687 549.542 837.41 549.542C845.134 549.542 851.395 555.801 851.395 563.523V596.019C851.395 603.741 845.134 610 837.41 610C829.687 610 823.426 603.741 823.426 596.019V563.523Z" fill="#6A94E0"/>
<path d="M834.364 509.361C830.41 502.728 832.584 494.146 839.219 490.194C845.854 486.242 854.437 488.416 858.39 495.049L875.027 522.966C878.98 529.599 876.806 538.18 870.171 542.132C863.537 546.085 854.953 543.911 851 537.278L834.364 509.361Z" fill="#6A94E0"/>
<path d="M777.128 495.146C780.989 488.459 789.542 486.168 796.23 490.029C802.919 493.889 805.21 502.44 801.349 509.127L785.097 537.269C781.235 543.956 772.683 546.248 765.994 542.387C759.306 538.526 757.014 529.975 760.876 523.289L777.128 495.146Z" fill="#6A94E0"/>
<path d="M784.12 563.523C784.12 555.801 790.381 549.542 798.104 549.542C805.827 549.542 812.088 555.801 812.088 563.523V596.019C812.088 603.741 805.827 610 798.104 610C790.381 610 784.12 603.741 784.12 596.019V563.523Z" fill="#6A94E0"/>
</g>
<g id="Vector_10" filter="url(#filter9_d_59_85)">
<path d="M436.33 546.388C442.548 518.899 481.722 518.899 487.94 546.388L498.038 591.03C501.78 607.575 489.199 623.315 472.233 623.315H452.037C435.071 623.315 422.49 607.575 426.232 591.03L436.33 546.388Z" fill="#8DBBFB"/>
<path d="M490.103 486.34C490.103 501.991 477.412 514.679 461.757 514.679C446.102 514.679 433.411 501.991 433.411 486.34C433.411 470.688 446.102 458 461.757 458C477.412 458 490.103 470.688 490.103 486.34Z" fill="#8DBBFB"/>
<path d="M467.426 609.523C467.426 601.801 473.687 595.542 481.41 595.542C489.134 595.542 495.395 601.801 495.395 609.523V642.019C495.395 649.741 489.134 656 481.41 656C473.687 656 467.426 649.741 467.426 642.019V609.523Z" fill="#8DBBFB"/>
<path d="M478.364 555.361C474.41 548.728 476.584 540.146 483.219 536.194C489.854 532.242 498.437 534.416 502.39 541.049L519.027 568.966C522.98 575.599 520.806 584.18 514.171 588.132C507.537 592.085 498.953 589.911 495 583.278L478.364 555.361Z" fill="#8DBBFB"/>
<path d="M421.128 541.146C424.989 534.459 433.542 532.168 440.23 536.029C446.919 539.889 449.21 548.44 445.349 555.127L429.097 583.269C425.235 589.956 416.683 592.248 409.994 588.387C403.306 584.526 401.014 575.975 404.876 569.289L421.128 541.146Z" fill="#8DBBFB"/>
<path d="M428.12 609.523C428.12 601.801 434.381 595.542 442.104 595.542C449.827 595.542 456.088 601.801 456.088 609.523V642.019C456.088 649.741 449.827 656 442.104 656C434.381 656 428.12 649.741 428.12 642.019V609.523Z" fill="#8DBBFB"/>
</g>
<g id="Vector_11" filter="url(#filter10_d_59_85)">
<path d="M712.33 546.388C718.548 518.899 757.722 518.899 763.94 546.388L774.038 591.03C777.78 607.575 765.199 623.315 748.233 623.315H728.037C711.071 623.315 698.49 607.575 702.232 591.03L712.33 546.388Z" fill="#8DBBFB"/>
<path d="M766.103 486.34C766.103 501.991 753.412 514.679 737.757 514.679C722.102 514.679 709.411 501.991 709.411 486.34C709.411 470.688 722.102 458 737.757 458C753.412 458 766.103 470.688 766.103 486.34Z" fill="#8DBBFB"/>
<path d="M743.426 609.523C743.426 601.801 749.687 595.542 757.41 595.542C765.134 595.542 771.395 601.801 771.395 609.523V642.019C771.395 649.741 765.134 656 757.41 656C749.687 656 743.426 649.741 743.426 642.019V609.523Z" fill="#8DBBFB"/>
<path d="M754.364 555.361C750.41 548.728 752.584 540.146 759.219 536.194C765.854 532.242 774.437 534.416 778.39 541.049L795.027 568.966C798.98 575.599 796.806 584.18 790.171 588.132C783.537 592.085 774.953 589.911 771 583.278L754.364 555.361Z" fill="#8DBBFB"/>
<path d="M697.128 541.146C700.989 534.459 709.542 532.168 716.23 536.029C722.919 539.889 725.21 548.44 721.349 555.127L705.097 583.269C701.235 589.956 692.683 592.248 685.994 588.387C679.306 584.526 677.014 575.975 680.876 569.289L697.128 541.146Z" fill="#8DBBFB"/>
<path d="M704.12 609.523C704.12 601.801 710.381 595.542 718.104 595.542C725.827 595.542 732.088 601.801 732.088 609.523V642.019C732.088 649.741 725.827 656 718.104 656C710.381 656 704.12 649.741 704.12 642.019V609.523Z" fill="#8DBBFB"/>
</g>
<g id="Vector_12" filter="url(#filter11_d_59_85)">
<path d="M850.33 546.388C856.548 518.899 895.722 518.899 901.94 546.388L912.038 591.03C915.78 607.575 903.199 623.315 886.233 623.315H866.037C849.071 623.315 836.49 607.575 840.232 591.03L850.33 546.388Z" fill="#8DBBFB"/>
<path d="M904.103 486.34C904.103 501.991 891.412 514.679 875.757 514.679C860.102 514.679 847.411 501.991 847.411 486.34C847.411 470.688 860.102 458 875.757 458C891.412 458 904.103 470.688 904.103 486.34Z" fill="#8DBBFB"/>
<path d="M881.426 609.523C881.426 601.801 887.687 595.542 895.41 595.542C903.134 595.542 909.395 601.801 909.395 609.523V642.019C909.395 649.741 903.134 656 895.41 656C887.687 656 881.426 649.741 881.426 642.019V609.523Z" fill="#8DBBFB"/>
<path d="M892.364 555.361C888.41 548.728 890.584 540.146 897.219 536.194C903.854 532.242 912.437 534.416 916.39 541.049L933.027 568.966C936.98 575.599 934.806 584.18 928.171 588.132C921.537 592.085 912.953 589.911 909 583.278L892.364 555.361Z" fill="#8DBBFB"/>
<path d="M835.128 541.146C838.989 534.459 847.542 532.168 854.23 536.029C860.919 539.889 863.21 548.44 859.349 555.127L843.097 583.269C839.235 589.956 830.683 592.248 823.994 588.387C817.306 584.526 815.014 575.975 818.876 569.289L835.128 541.146Z" fill="#8DBBFB"/>
<path d="M842.12 609.523C842.12 601.801 848.381 595.542 856.104 595.542C863.827 595.542 870.088 601.801 870.088 609.523V642.019C870.088 649.741 863.827 656 856.104 656C848.381 656 842.12 649.741 842.12 642.019V609.523Z" fill="#8DBBFB"/>
</g>
<path id="Vector 3" d="M1140.5 146.5L1109 208L1140.5 305L1085.5 429V509.5L1109 435.5L1171.5 313.5L1129.5 218L1140.5 146.5Z" fill="#201F2F"/>
</g>
<defs>
<filter id="filter0_d_59_85" x="447" y="389" width="108" height="176" filterUnits="userSpaceOnUse" color-interpolation-filters="sRGB">
<feFlood flood-opacity="0" result="BackgroundImageFix"/>
<feColorMatrix in="SourceAlpha" type="matrix" values="0 0 0 0 0 0 0 0 0 0 0 0 0 0 0 0 0 0 127 0" result="hardAlpha"/>
<feOffset dy="4"/>
<feGaussianBlur stdDeviation="2"/>
<feComposite in2="hardAlpha" operator="out"/>
<feColorMatrix type="matrix" values="0 0 0 0 0 0 0 0 0 0 0 0 0 0 0 0 0 0 0.25 0"/>
<feBlend mode="normal" in2="BackgroundImageFix" result="effect1_dropShadow_59_85"/>
<feBlend mode="normal" in="SourceGraphic" in2="effect1_dropShadow_59_85" result="shape"/>
</filter>
<filter id="filter1_d_59_85" x="681" y="389" width="109" height="176" filterUnits="userSpaceOnUse" color-interpolation-filters="sRGB">
<feFlood flood-opacity="0" result="BackgroundImageFix"/>
<feColorMatrix in="SourceAlpha" type="matrix" values="0 0 0 0 0 0 0 0 0 0 0 0 0 0 0 0 0 0 127 0" result="hardAlpha"/>
<feOffset dy="4"/>
<feGaussianBlur stdDeviation="2"/>
<feComposite in2="hardAlpha" operator="out"/>
<feColorMatrix type="matrix" values="0 0 0 0 0 0 0 0 0 0 0 0 0 0 0 0 0 0 0.25 0"/>
<feBlend mode="normal" in2="BackgroundImageFix" result="effect1_dropShadow_59_85"/>
<feBlend mode="normal" in="SourceGraphic" in2="effect1_dropShadow_59_85" result="shape"/>
</filter>
<filter id="filter2_d_59_85" x="564" y="389" width="109" height="176" filterUnits="userSpaceOnUse" color-interpolation-filters="sRGB">
<feFlood flood-opacity="0" result="BackgroundImageFix"/>
<feColorMatrix in="SourceAlpha" type="matrix" values="0 0 0 0 0 0 0 0 0 0 0 0 0 0 0 0 0 0 127 0" result="hardAlpha"/>
<feOffset dy="4"/>
<feGaussianBlur stdDeviation="2"/>
<feComposite in2="hardAlpha" operator="out"/>
<feColorMatrix type="matrix" values="0 0 0 0 0 0 0 0 0 0 0 0 0 0 0 0 0 0 0.25 0"/>
<feBlend mode="normal" in2="BackgroundImageFix" result="effect1_dropShadow_59_85"/>
<feBlend mode="normal" in="SourceGraphic" in2="effect1_dropShadow_59_85" result="shape"/>
</filter>
<filter id="filter3_d_59_85" x="799" y="389" width="108" height="176" filterUnits="userSpaceOnUse" color-interpolation-filters="sRGB">
<feFlood flood-opacity="0" result="BackgroundImageFix"/>
<feColorMatrix in="SourceAlpha" type="matrix" values="0 0 0 0 0 0 0 0 0 0 0 0 0 0 0 0 0 0 127 0" result="hardAlpha"/>
<feOffset dy="4"/>
<feGaussianBlur stdDeviation="2"/>
<feComposite in2="hardAlpha" operator="out"/>
<feColorMatrix type="matrix" values="0 0 0 0 0 0 0 0 0 0 0 0 0 0 0 0 0 0 0.25 0"/>
<feBlend mode="normal" in2="BackgroundImageFix" result="effect1_dropShadow_59_85"/>
<feBlend mode="normal" in="SourceGraphic" in2="effect1_dropShadow_59_85" result="shape"/>
</filter>
<filter id="filter4_d_59_85" x="341" y="412" width="126" height="206" filterUnits="userSpaceOnUse" color-interpolation-filters="sRGB">
<feFlood flood-opacity="0" result="BackgroundImageFix"/>
<feColorMatrix in="SourceAlpha" type="matrix" values="0 0 0 0 0 0 0 0 0 0 0 0 0 0 0 0 0 0 127 0" result="hardAlpha"/>
<feOffset dy="4"/>
<feGaussianBlur stdDeviation="2"/>
<feComposite in2="hardAlpha" operator="out"/>
<feColorMatrix type="matrix" values="0 0 0 0 0 0 0 0 0 0 0 0 0 0 0 0 0 0 0.25 0"/>
<feBlend mode="normal" in2="BackgroundImageFix" result="effect1_dropShadow_59_85"/>
<feBlend mode="normal" in="SourceGraphic" in2="effect1_dropShadow_59_85" result="shape"/>
</filter>
<filter id="filter5_d_59_85" x="617" y="412" width="126" height="206" filterUnits="userSpaceOnUse" color-interpolation-filters="sRGB">
<feFlood flood-opacity="0" result="BackgroundImageFix"/>
<feColorMatrix in="SourceAlpha" type="matrix" values="0 0 0 0 0 0 0 0 0 0 0 0 0 0 0 0 0 0 127 0" result="hardAlpha"/>
<feOffset dy="4"/>
<feGaussianBlur stdDeviation="2"/>
<feComposite in2="hardAlpha" operator="out"/>
<feColorMatrix type="matrix" values="0 0 0 0 0 0 0 0 0 0 0 0 0 0 0 0 0 0 0.25 0"/>
<feBlend mode="normal" in2="BackgroundImageFix" result="effect1_dropShadow_59_85"/>
<feBlend mode="normal" in="SourceGraphic" in2="effect1_dropShadow_59_85" result="shape"/>
</filter>
<filter id="filter6_d_59_85" x="479" y="412" width="126" height="206" filterUnits="userSpaceOnUse" color-interpolation-filters="sRGB">
<feFlood flood-opacity="0" result="BackgroundImageFix"/>
<feColorMatrix in="SourceAlpha" type="matrix" values="0 0 0 0 0 0 0 0 0 0 0 0 0 0 0 0 0 0 127 0" result="hardAlpha"/>
<feOffset dy="4"/>
<feGaussianBlur stdDeviation="2"/>
<feComposite in2="hardAlpha" operator="out"/>
<feColorMatrix type="matrix" values="0 0 0 0 0 0 0 0 0 0 0 0 0 0 0 0 0 0 0.25 0"/>
<feBlend mode="normal" in2="BackgroundImageFix" result="effect1_dropShadow_59_85"/>
<feBlend mode="normal" in="SourceGraphic" in2="effect1_dropShadow_59_85" result="shape"/>
</filter>
<filter id="filter7_d_59_85" x="537" y="458" width="126" height="206" filterUnits="userSpaceOnUse" color-interpolation-filters="sRGB">
<feFlood flood-opacity="0" result="BackgroundImageFix"/>
<feColorMatrix in="SourceAlpha" type="matrix" values="0 0 0 0 0 0 0 0 0 0 0 0 0 0 0 0 0 0 127 0" result="hardAlpha"/>
<feOffset dy="4"/>
<feGaussianBlur stdDeviation="2"/>
<feComposite in2="hardAlpha" operator="out"/>
<feColorMatrix type="matrix" values="0 0 0 0 0 0 0 0 0 0 0 0 0 0 0 0 0 0 0.25 0"/>
<feBlend mode="normal" in2="BackgroundImageFix" result="effect1_dropShadow_59_85"/>
<feBlend mode="normal" in="SourceGraphic" in2="effect1_dropShadow_59_85" result="shape"/>
</filter>
<filter id="filter8_d_59_85" x="755" y="412" width="126" height="206" filterUnits="userSpaceOnUse" color-interpolation-filters="sRGB">
<feFlood flood-opacity="0" result="BackgroundImageFix"/>
<feColorMatrix in="SourceAlpha" type="matrix" values="0 0 0 0 0 0 0 0 0 0 0 0 0 0 0 0 0 0 127 0" result="hardAlpha"/>
<feOffset dy="4"/>
<feGaussianBlur stdDeviation="2"/>
<feComposite in2="hardAlpha" operator="out"/>
<feColorMatrix type="matrix" values="0 0 0 0 0 0 0 0 0 0 0 0 0 0 0 0 0 0 0.25 0"/>
<feBlend mode="normal" in2="BackgroundImageFix" result="effect1_dropShadow_59_85"/>
<feBlend mode="normal" in="SourceGraphic" in2="effect1_dropShadow_59_85" result="shape"/>
</filter>
<filter id="filter9_d_59_85" x="399" y="458" width="126" height="206" filterUnits="userSpaceOnUse" color-interpolation-filters="sRGB">
<feFlood flood-opacity="0" result="BackgroundImageFix"/>
<feColorMatrix in="SourceAlpha" type="matrix" values="0 0 0 0 0 0 0 0 0 0 0 0 0 0 0 0 0 0 127 0" result="hardAlpha"/>
<feOffset dy="4"/>
<feGaussianBlur stdDeviation="2"/>
<feComposite in2="hardAlpha" operator="out"/>
<feColorMatrix type="matrix" values="0 0 0 0 0 0 0 0 0 0 0 0 0 0 0 0 0 0 0.25 0"/>
<feBlend mode="normal" in2="BackgroundImageFix" result="effect1_dropShadow_59_85"/>
<feBlend mode="normal" in="SourceGraphic" in2="effect1_dropShadow_59_85" result="shape"/>
</filter>
<filter id="filter10_d_59_85" x="675" y="458" width="126" height="206" filterUnits="userSpaceOnUse" color-interpolation-filters="sRGB">
<feFlood flood-opacity="0" result="BackgroundImageFix"/>
<feColorMatrix in="SourceAlpha" type="matrix" values="0 0 0 0 0 0 0 0 0 0 0 0 0 0 0 0 0 0 127 0" result="hardAlpha"/>
<feOffset dy="4"/>
<feGaussianBlur stdDeviation="2"/>
<feComposite in2="hardAlpha" operator="out"/>
<feColorMatrix type="matrix" values="0 0 0 0 0 0 0 0 0 0 0 0 0 0 0 0 0 0 0.25 0"/>
<feBlend mode="normal" in2="BackgroundImageFix" result="effect1_dropShadow_59_85"/>
<feBlend mode="normal" in="SourceGraphic" in2="effect1_dropShadow_59_85" result="shape"/>
</filter>
<filter id="filter11_d_59_85" x="813" y="458" width="126" height="206" filterUnits="userSpaceOnUse" color-interpolation-filters="sRGB">
<feFlood flood-opacity="0" result="BackgroundImageFix"/>
<feColorMatrix in="SourceAlpha" type="matrix" values="0 0 0 0 0 0 0 0 0 0 0 0 0 0 0 0 0 0 127 0" result="hardAlpha"/>
<feOffset dy="4"/>
<feGaussianBlur stdDeviation="2"/>
<feComposite in2="hardAlpha" operator="out"/>
<feColorMatrix type="matrix" values="0 0 0 0 0 0 0 0 0 0 0 0 0 0 0 0 0 0 0.25 0"/>
<feBlend mode="normal" in2="BackgroundImageFix" result="effect1_dropShadow_59_85"/>
<feBlend mode="normal" in="SourceGraphic" in2="effect1_dropShadow_59_85" result="shape"/>
</filter>
</defs>
</svg>
