<svg width="1440" height="1024" viewBox="0 0 1440 1024" fill="none" xmlns="http://www.w3.org/2000/svg">
<g id="laborweapon-recognize" clip-path="url(#clip0_160_264)">
<rect width="1440" height="1024" fill="#333148"/>
<path id="part 4" d="M47.096 132.12V60.024H61.688L62.264 71.448L59.384 70.584C59.832 68.536 61.048 66.648 63.032 64.92C65.016 63.192 67.512 61.784 70.52 60.696C73.592 59.608 76.856 59.064 80.312 59.064C85.304 59.064 89.688 60.216 93.464 62.52C97.24 64.76 100.184 67.864 102.296 71.832C104.472 75.736 105.56 80.28 105.56 85.464C105.56 90.584 104.472 95.128 102.296 99.096C100.184 103.064 97.208 106.2 93.368 108.504C89.528 110.744 85.112 111.864 80.12 111.864C76.664 111.864 73.432 111.288 70.424 110.136C67.416 108.984 64.888 107.48 62.84 105.624C60.856 103.768 59.576 101.816 59 99.768L62.552 98.424V132.12H47.096ZM76.376 98.904C79.256 98.904 81.752 98.36 83.864 97.272C85.976 96.12 87.608 94.552 88.76 92.568C89.976 90.584 90.584 88.216 90.584 85.464C90.584 82.776 89.976 80.44 88.76 78.456C87.608 76.408 85.976 74.84 83.864 73.752C81.816 72.6 79.32 72.024 76.376 72.024C73.496 72.024 70.968 72.568 68.792 73.656C66.68 74.744 65.016 76.312 63.8 78.36C62.648 80.408 62.072 82.776 62.072 85.464C62.072 88.216 62.648 90.584 63.8 92.568C65.016 94.552 66.68 96.12 68.792 97.272C70.968 98.36 73.496 98.904 76.376 98.904ZM144.211 111.864C139.155 111.864 134.739 110.744 130.963 108.504C127.187 106.264 124.211 103.16 122.035 99.192C119.923 95.16 118.867 90.584 118.867 85.464C118.867 80.28 119.955 75.704 122.131 71.736C124.307 67.768 127.315 64.664 131.155 62.424C135.059 60.12 139.539 58.968 144.595 58.968C147.475 58.968 150.131 59.352 152.563 60.12C154.995 60.824 157.107 61.816 158.899 63.096C160.755 64.376 162.259 65.784 163.411 67.32C164.627 68.856 165.427 70.456 165.811 72.12H162.451V60.024H177.619V111H162.163V97.944L165.427 98.424C165.043 100.088 164.243 101.72 163.027 103.32C161.811 104.92 160.243 106.36 158.323 107.64C156.403 108.92 154.227 109.944 151.795 110.712C149.427 111.48 146.899 111.864 144.211 111.864ZM148.339 98.904C151.219 98.904 153.715 98.36 155.827 97.272C158.003 96.184 159.667 94.648 160.819 92.664C162.035 90.616 162.643 88.216 162.643 85.464C162.643 82.776 162.035 80.44 160.819 78.456C159.667 76.408 158.003 74.808 155.827 73.656C153.715 72.504 151.219 71.928 148.339 71.928C145.459 71.928 142.963 72.504 140.851 73.656C138.739 74.808 137.075 76.408 135.859 78.456C134.707 80.44 134.131 82.776 134.131 85.464C134.131 88.216 134.707 90.616 135.859 92.664C137.075 94.648 138.739 96.184 140.851 97.272C142.963 98.36 145.459 98.904 148.339 98.904ZM201.315 111V60.024H215.907L216.579 77.592L212.931 75.768C213.763 72.632 215.203 69.816 217.251 67.32C219.363 64.76 221.763 62.744 224.451 61.272C227.203 59.736 230.115 58.968 233.187 58.968C234.851 58.968 236.419 59.128 237.891 59.448C239.427 59.768 240.739 60.184 241.827 60.696L237.603 77.496C236.643 76.792 235.331 76.248 233.667 75.864C232.067 75.48 230.435 75.288 228.771 75.288C226.915 75.288 225.219 75.608 223.683 76.248C222.211 76.824 220.963 77.656 219.939 78.744C218.915 79.768 218.115 80.952 217.539 82.296C217.027 83.64 216.771 85.08 216.771 86.616V111H201.315ZM265.932 111V46.008H281.292V111H265.932ZM254.604 73.464V60.024H294.252V73.464H254.604ZM377.032 111V53.304H387.112L357.544 88.248L355.624 83.736H405.256V96.984H349.48L343.048 84.6L378.856 43.224H392.776V111H377.032Z" fill="white"/>
<rect id="Rectangle 7" y="462" width="1567" height="626" fill="#211F2F"/>
<g id="Group 34">
<line id="Line 1" x1="452.501" y1="458.705" x2="452.501" y2="112.705" stroke="#485C77" stroke-width="25" stroke-linecap="round"/>
<rect id="Rectangle 8" x="440.001" y="100.207" width="172" height="96" rx="14" fill="#3B5EC6"/>
<rect id="Rectangle 9" x="510.001" y="100.207" width="32" height="96" fill="white"/>
<rect id="Rectangle 11" x="609" y="97.207" width="21.7609" height="196.456" rx="10.8804" transform="rotate(62.972 609 97.207)" fill="white"/>
<rect id="Rectangle 12" x="616.953" y="191.229" width="21.7609" height="196.456" rx="10.8804" transform="rotate(120 616.953 191.229)" fill="white"/>
<rect id="Rectangle 10" x="440.001" y="164.207" width="27" height="172" transform="rotate(-90 440.001 164.207)" fill="white"/>
<rect id="Rectangle 13" x="608.061" y="102.564" width="13.0698" height="189.913" rx="6.53491" transform="rotate(62.972 608.061 102.564)" fill="#EF1044"/>
<rect id="Rectangle 14" x="612.058" y="192.998" width="13.0698" height="189.913" rx="6.53491" transform="rotate(120 612.058 192.998)" fill="#EF1044"/>
<rect id="Rectangle 15" x="440.001" y="144.207" width="172" height="14" fill="#EF1044"/>
<rect id="Rectangle 16" x="534.001" y="100.207" width="96" height="16" transform="rotate(90 534.001 100.207)" fill="#EF1044"/>
</g>
<g id="Group 33">
<path id="Polygon 1" d="M769.372 285.85C785.607 268.261 813.393 268.261 829.628 285.85L1058.58 533.9C1082.82 560.164 1064.2 602.709 1028.46 602.709H570.545C534.803 602.709 516.175 560.164 540.417 533.9L769.372 285.85Z" fill="#485C77"/>
<rect id="Rectangle 17" x="748" y="447.209" width="104" height="198" rx="28" fill="#201F2F"/>
</g>
<g id="Group 32">
<g id="Group 31">
<rect id="Rectangle 31" x="905" y="176.211" width="93" height="352" rx="36" fill="#485C77"/>
<rect id="Rectangle 32" x="794.855" y="159.469" width="264.672" height="73.942" rx="36.971" transform="rotate(-8.76431 794.855 159.469)" fill="#405066"/>
<path id="Polygon 8" d="M931.054 210.908C933.371 217.288 932.108 224.42 927.741 229.617L880.094 286.315C875.727 291.512 868.919 293.984 862.235 292.801L789.309 279.886C782.625 278.703 777.08 274.043 774.763 267.663L749.484 198.05C747.167 191.669 748.43 184.538 752.797 179.341L800.444 122.642C804.812 117.445 811.619 114.973 818.303 116.157L891.229 129.071C897.913 130.255 903.458 134.915 905.775 141.295L931.054 210.908Z" fill="#73839A"/>
<ellipse id="Ellipse 13" cx="840" cy="204.211" rx="64" ry="67" fill="#C63B3B"/>
<line id="Line 18" x1="760.047" y1="190.798" x2="786.587" y2="222.164" stroke="#201F2F" stroke-width="10" stroke-linecap="round"/>
<line id="Line 19" x1="814.706" y1="130.233" x2="792.022" y2="225.505" stroke="#201F2F" stroke-width="10" stroke-linecap="round"/>
<line id="Line 20" x1="893.123" y1="147.227" x2="793.016" y2="225.088" stroke="#201F2F" stroke-width="10" stroke-linecap="round"/>
<line id="Line 21" x1="916.383" y1="224.567" x2="791.356" y2="233.828" stroke="#201F2F" stroke-width="10" stroke-linecap="round"/>
<line id="Line 22" x1="865.051" y1="286.52" x2="791.309" y2="236.16" stroke="#201F2F" stroke-width="10" stroke-linecap="round"/>
<line id="Line 23" x1="781.485" y1="269.769" x2="784.558" y2="236.726" stroke="#201F2F" stroke-width="10" stroke-linecap="round"/>
</g>
<circle id="Ellipse 14" cx="785.5" cy="228.711" r="18.5" fill="#DC4B4B"/>
</g>
<g id="no">
<rect id="Rectangle 3" x="214" y="911.033" width="369" height="72.9669" rx="35" fill="#DC4B4B"/>
<path id="no_2" d="M325.605 890.64C322.064 890.64 318.757 890.085 315.685 888.976C312.656 887.824 309.989 886.224 307.685 884.176C305.424 882.128 303.675 879.696 302.437 876.88C301.2 874.021 300.581 870.864 300.581 867.408C300.581 864.037 301.221 860.944 302.501 858.128C303.824 855.312 305.616 852.88 307.877 850.832C310.139 848.784 312.805 847.184 315.877 846.032C318.949 844.88 322.256 844.304 325.797 844.304C328.229 844.304 330.576 844.603 332.837 845.2C335.141 845.797 337.275 846.629 339.237 847.696C341.2 848.763 342.864 849.979 344.229 851.344L337.765 859.408C336.741 858.427 335.632 857.573 334.437 856.848C333.243 856.08 331.899 855.483 330.405 855.056C328.912 854.587 327.269 854.352 325.477 854.352C323.728 854.352 322.021 854.651 320.357 855.248C318.693 855.845 317.221 856.72 315.941 857.872C314.661 858.981 313.637 860.368 312.869 862.032C312.144 863.653 311.781 865.488 311.781 867.536C311.781 869.584 312.165 871.419 312.933 873.04C313.701 874.661 314.747 876.048 316.069 877.2C317.435 878.309 319.013 879.163 320.805 879.76C322.597 880.357 324.539 880.656 326.629 880.656C328.464 880.656 330.128 880.4 331.621 879.888C333.115 879.376 334.459 878.757 335.653 878.032C336.848 877.264 337.915 876.453 338.853 875.6L344.037 883.984C342.885 885.093 341.349 886.16 339.429 887.184C337.509 888.208 335.355 889.04 332.965 889.68C330.576 890.32 328.123 890.64 325.605 890.64ZM377.793 890.64C374.251 890.64 370.945 890.085 367.873 888.976C364.843 887.824 362.177 886.224 359.873 884.176C357.611 882.128 355.862 879.696 354.625 876.88C353.387 874.021 352.769 870.864 352.769 867.408C352.769 864.037 353.409 860.944 354.689 858.128C356.011 855.312 357.803 852.88 360.065 850.832C362.326 848.784 364.993 847.184 368.065 846.032C371.137 844.88 374.443 844.304 377.985 844.304C380.417 844.304 382.763 844.603 385.025 845.2C387.329 845.797 389.462 846.629 391.425 847.696C393.387 848.763 395.051 849.979 396.417 851.344L389.953 859.408C388.929 858.427 387.819 857.573 386.625 856.848C385.43 856.08 384.086 855.483 382.593 855.056C381.099 854.587 379.457 854.352 377.665 854.352C375.915 854.352 374.209 854.651 372.545 855.248C370.881 855.845 369.409 856.72 368.129 857.872C366.849 858.981 365.825 860.368 365.057 862.032C364.331 863.653 363.969 865.488 363.969 867.536C363.969 869.584 364.353 871.419 365.121 873.04C365.889 874.661 366.934 876.048 368.257 877.2C369.622 878.309 371.201 879.163 372.993 879.76C374.785 880.357 376.726 880.656 378.817 880.656C380.651 880.656 382.315 880.4 383.809 879.888C385.302 879.376 386.646 878.757 387.841 878.032C389.035 877.264 390.102 876.453 391.041 875.6L396.225 883.984C395.073 885.093 393.537 886.16 391.617 887.184C389.697 888.208 387.542 889.04 385.153 889.68C382.763 890.32 380.31 890.64 377.793 890.64ZM418.972 890V854.8H403.868V845.2H445.276V854.8H429.852V890H418.972ZM470.586 890L451.578 845.2H462.906L472.058 867.856C472.442 868.88 472.847 869.904 473.274 870.928C473.7 871.909 474.127 872.933 474.554 874C474.98 875.067 475.364 876.155 475.706 877.264C476.09 878.373 476.452 879.547 476.794 880.784H474.618C475.044 879.248 475.514 877.797 476.026 876.432C476.538 875.024 477.05 873.637 477.562 872.272C478.116 870.907 478.692 869.456 479.29 867.92L488.058 845.2H499.258L480.314 890H470.586Z" fill="white"/>
</g>
<g id="yes">
<g id="yes_2">
<rect id="Rectangle 3_2" x="924" y="911.033" width="369" height="72.9669" rx="35" fill="#6A94E0"/>
<path id="yes_3" d="M1061.66 890L1081.18 845.2H1090.85L1110.24 890H1099.1L1088.74 865.744C1088.35 864.805 1087.97 863.867 1087.58 862.928C1087.24 861.989 1086.9 861.029 1086.56 860.048C1086.22 859.067 1085.9 858.107 1085.6 857.168C1085.3 856.229 1085.02 855.333 1084.77 854.48L1086.94 854.416C1086.69 855.44 1086.39 856.421 1086.05 857.36C1085.75 858.299 1085.43 859.237 1085.09 860.176C1084.75 861.072 1084.38 861.989 1084 862.928C1083.62 863.867 1083.23 864.827 1082.85 865.808L1072.48 890H1061.66ZM1070.82 881.68L1074.34 873.488H1097.38L1100 881.68H1070.82ZM1119.62 890V880.656H1128.96V854.544H1119.62V845.2H1149.25V854.544H1139.84V880.656H1149.25V890H1119.62Z" fill="white"/>
</g>
</g>
<path id="how will it recognize the deniers?" d="M107.424 693V621.96H122.496V653.928L118.848 655.176C119.488 652.616 120.832 650.28 122.88 648.168C124.992 645.992 127.552 644.264 130.56 642.984C133.568 641.64 136.768 640.968 140.16 640.968C144.512 640.968 148.16 641.864 151.104 643.656C154.112 645.384 156.352 647.848 157.824 651.048C159.36 654.184 160.128 657.864 160.128 662.088V693H144.672V664.488C144.672 662.184 144.256 660.264 143.424 658.728C142.656 657.128 141.472 655.912 139.872 655.08C138.336 654.248 136.544 653.864 134.496 653.928C132.832 653.928 131.264 654.216 129.792 654.792C128.384 655.304 127.136 656.072 126.048 657.096C125.024 658.056 124.224 659.176 123.648 660.456C123.072 661.736 122.784 663.112 122.784 664.584V693H115.2C113.088 693 111.392 693 110.112 693C108.832 693 107.936 693 107.424 693ZM209.179 693.96C203.227 693.96 197.947 692.808 193.339 690.504C188.731 688.2 185.115 685.064 182.491 681.096C179.867 677.128 178.555 672.584 178.555 667.464C178.555 662.344 179.867 657.8 182.491 653.832C185.115 649.864 188.731 646.728 193.339 644.424C197.947 642.12 203.227 640.968 209.179 640.968C215.067 640.968 220.283 642.12 224.827 644.424C229.435 646.728 233.051 649.864 235.675 653.832C238.299 657.8 239.611 662.344 239.611 667.464C239.611 672.584 238.299 677.128 235.675 681.096C233.051 685.064 229.435 688.2 224.827 690.504C220.283 692.808 215.067 693.96 209.179 693.96ZM209.179 680.712C211.931 680.712 214.427 680.136 216.667 678.984C218.971 677.832 220.763 676.264 222.043 674.28C223.387 672.296 224.027 670.024 223.963 667.464C224.027 664.904 223.387 662.6 222.043 660.552C220.763 658.504 218.971 656.936 216.667 655.848C214.427 654.696 211.931 654.12 209.179 654.12C206.363 654.12 203.771 654.696 201.403 655.848C199.099 657 197.307 658.568 196.027 660.552C194.747 662.536 194.107 664.84 194.107 667.464C194.107 670.024 194.747 672.296 196.027 674.28C197.307 676.264 199.099 677.832 201.403 678.984C203.771 680.136 206.363 680.712 209.179 680.712ZM266.656 693L248.896 642.024H265.12L275.2 675.624L273.184 675.432L284.704 648.84H294.592L306.88 675.432L304.864 675.624L314.944 642.024H331.264L312.928 693H301.312L288.064 662.28L291.616 662.184L278.176 693H266.656ZM395.093 693L377.333 642.024H393.557L403.637 675.624L401.621 675.432L413.141 648.84H423.029L435.317 675.432L433.301 675.624L443.381 642.024H459.701L441.365 693H429.749L416.501 662.28L420.053 662.184L406.613 693H395.093ZM475.786 693V642.024H491.242V693H475.786ZM483.466 631.56C480.586 631.56 478.346 630.888 476.746 629.544C475.146 628.136 474.346 626.152 474.346 623.592C474.346 621.288 475.146 619.4 476.746 617.928C478.41 616.456 480.65 615.72 483.466 615.72C486.346 615.72 488.586 616.424 490.186 617.832C491.786 619.176 492.586 621.096 492.586 623.592C492.586 625.96 491.754 627.88 490.09 629.352C488.49 630.824 486.282 631.56 483.466 631.56ZM516.08 693V621.96H531.44V693H516.08ZM555.737 693V621.96H571.097V693H555.737ZM634.786 693V642.024H650.242V693H634.786ZM642.466 631.56C639.586 631.56 637.346 630.888 635.746 629.544C634.146 628.136 633.346 626.152 633.346 623.592C633.346 621.288 634.146 619.4 635.746 617.928C637.41 616.456 639.65 615.72 642.466 615.72C645.346 615.72 647.586 616.424 649.186 617.832C650.786 619.176 651.586 621.096 651.586 623.592C651.586 625.96 650.754 627.88 649.09 629.352C647.49 630.824 645.282 631.56 642.466 631.56ZM680.072 693V628.008H695.432V693H680.072ZM668.744 655.464V642.024H708.392V655.464H668.744ZM765.924 693V642.024H780.516L781.188 659.592L777.54 657.768C778.372 654.632 779.812 651.816 781.86 649.32C783.972 646.76 786.372 644.744 789.06 643.272C791.812 641.736 794.724 640.968 797.796 640.968C799.46 640.968 801.028 641.128 802.5 641.448C804.036 641.768 805.348 642.184 806.436 642.696L802.212 659.496C801.252 658.792 799.94 658.248 798.276 657.864C796.676 657.48 795.044 657.288 793.38 657.288C791.524 657.288 789.828 657.608 788.292 658.248C786.82 658.824 785.572 659.656 784.548 660.744C783.524 661.768 782.724 662.952 782.148 664.296C781.636 665.64 781.38 667.08 781.38 668.616V693H765.924ZM846.67 693.96C840.462 693.96 835.022 692.84 830.35 690.6C825.742 688.296 822.158 685.192 819.598 681.288C817.038 677.32 815.758 672.808 815.758 667.752C815.758 663.72 816.494 660.072 817.966 656.808C819.438 653.544 821.486 650.728 824.11 648.36C826.734 645.992 829.806 644.168 833.326 642.888C836.846 641.608 840.654 640.968 844.75 640.968C848.718 640.968 852.366 641.608 855.694 642.888C859.022 644.104 861.902 645.864 864.334 648.168C866.83 650.472 868.75 653.192 870.094 656.328C871.438 659.464 872.046 662.92 871.918 666.696L871.822 671.016H825.838L823.63 662.088H859.342L857.71 664.008V662.088C857.518 660.488 856.814 659.048 855.598 657.768C854.446 656.488 852.942 655.496 851.086 654.792C849.23 654.024 847.182 653.64 844.942 653.64C842.062 653.64 839.502 654.12 837.262 655.08C835.022 655.976 833.262 657.384 831.982 659.304C830.766 661.224 830.158 663.656 830.158 666.6C830.158 669.416 830.894 671.88 832.366 673.992C833.902 676.104 836.046 677.768 838.798 678.984C841.614 680.2 844.91 680.808 848.686 680.808C851.95 680.808 854.67 680.424 856.846 679.656C859.086 678.824 861.102 677.8 862.894 676.584L869.806 686.568C867.694 688.168 865.358 689.544 862.798 690.696C860.302 691.784 857.678 692.584 854.926 693.096C852.238 693.672 849.486 693.96 846.67 693.96ZM914.891 693.96C909.259 693.96 904.267 692.808 899.915 690.504C895.563 688.2 892.139 685.064 889.643 681.096C887.147 677.064 885.899 672.52 885.899 667.464C885.899 662.408 887.147 657.896 889.643 653.928C892.139 649.896 895.531 646.728 899.819 644.424C904.107 642.12 908.971 640.968 914.411 640.968C919.595 640.968 924.331 641.768 928.619 643.368C932.907 644.904 936.395 647.08 939.083 649.896L930.731 660.456C929.579 659.368 928.203 658.344 926.603 657.384C925.003 656.424 923.275 655.688 921.419 655.176C919.627 654.6 917.771 654.312 915.851 654.312C912.907 654.312 910.315 654.888 908.075 656.04C905.899 657.128 904.203 658.664 902.987 660.648C901.835 662.632 901.259 664.904 901.259 667.464C901.259 669.896 901.867 672.104 903.083 674.088C904.299 676.072 905.995 677.64 908.171 678.792C910.347 679.944 912.875 680.52 915.755 680.52C918.059 680.52 920.107 680.296 921.899 679.848C923.691 679.4 925.323 678.792 926.795 678.024C928.331 677.192 929.643 676.264 930.731 675.24L939.083 685.704C936.203 688.136 932.683 690.12 928.523 691.656C924.363 693.192 919.819 693.96 914.891 693.96ZM982.335 693.96C976.383 693.96 971.103 692.808 966.495 690.504C961.887 688.2 958.271 685.064 955.647 681.096C953.023 677.128 951.711 672.584 951.711 667.464C951.711 662.344 953.023 657.8 955.647 653.832C958.271 649.864 961.887 646.728 966.495 644.424C971.103 642.12 976.383 640.968 982.335 640.968C988.223 640.968 993.439 642.12 997.983 644.424C1002.59 646.728 1006.21 649.864 1008.83 653.832C1011.46 657.8 1012.77 662.344 1012.77 667.464C1012.77 672.584 1011.46 677.128 1008.83 681.096C1006.21 685.064 1002.59 688.2 997.983 690.504C993.439 692.808 988.223 693.96 982.335 693.96ZM982.335 680.712C985.087 680.712 987.583 680.136 989.823 678.984C992.127 677.832 993.919 676.264 995.199 674.28C996.543 672.296 997.183 670.024 997.119 667.464C997.183 664.904 996.543 662.6 995.199 660.552C993.919 658.504 992.127 656.936 989.823 655.848C987.583 654.696 985.087 654.12 982.335 654.12C979.519 654.12 976.927 654.696 974.559 655.848C972.255 657 970.463 658.568 969.183 660.552C967.903 662.536 967.263 664.84 967.263 667.464C967.263 670.024 967.903 672.296 969.183 674.28C970.463 676.264 972.255 677.832 974.559 678.984C976.927 680.136 979.519 680.712 982.335 680.712ZM1057.43 715.08C1052.38 715.08 1047.67 714.44 1043.32 713.16C1039.03 711.944 1035.51 710.408 1032.76 708.552L1038.04 697.608C1039.45 698.376 1041.02 699.112 1042.74 699.816C1044.54 700.52 1046.49 701.096 1048.6 701.544C1050.71 702.056 1053.02 702.312 1055.51 702.312C1058.78 702.312 1061.53 701.768 1063.77 700.68C1066.07 699.592 1067.8 697.928 1068.95 695.688C1070.17 693.512 1070.78 690.824 1070.78 687.624V680.616L1073.75 681.096C1073.24 683.144 1071.96 685.032 1069.91 686.76C1067.86 688.488 1065.3 689.896 1062.23 690.984C1059.16 692.072 1055.9 692.616 1052.44 692.616C1047.38 692.616 1042.94 691.56 1039.1 689.448C1035.26 687.272 1032.22 684.296 1029.98 680.52C1027.8 676.68 1026.71 672.264 1026.71 667.272C1026.71 662.152 1027.83 657.64 1030.07 653.736C1032.31 649.768 1035.38 646.664 1039.29 644.424C1043.19 642.12 1047.7 640.968 1052.82 640.968C1054.55 640.968 1056.34 641.192 1058.2 641.64C1060.12 642.024 1061.98 642.568 1063.77 643.272C1065.62 643.912 1067.29 644.744 1068.76 645.768C1070.3 646.728 1071.54 647.816 1072.5 649.032C1073.53 650.184 1074.1 651.432 1074.23 652.776L1071.06 653.544L1071.74 642.024H1086.23V687.336C1086.23 691.88 1085.5 695.848 1084.02 699.24C1082.62 702.696 1080.63 705.608 1078.07 707.976C1075.51 710.344 1072.44 712.104 1068.86 713.256C1065.34 714.472 1061.53 715.08 1057.43 715.08ZM1056.86 680.712C1059.74 680.712 1062.26 680.168 1064.44 679.08C1066.62 677.928 1068.28 676.36 1069.43 674.376C1070.65 672.392 1071.26 670.056 1071.26 667.368C1071.26 664.68 1070.65 662.344 1069.43 660.36C1068.28 658.312 1066.62 656.744 1064.44 655.656C1062.26 654.504 1059.74 653.928 1056.86 653.928C1053.85 653.928 1051.22 654.504 1048.98 655.656C1046.74 656.744 1045.02 658.312 1043.8 660.36C1042.58 662.344 1041.98 664.68 1041.98 667.368C1041.98 670.056 1042.58 672.392 1043.8 674.376C1045.02 676.36 1046.74 677.928 1048.98 679.08C1051.22 680.168 1053.85 680.712 1056.86 680.712ZM1109.71 693V642.024H1124.3L1124.78 653.928L1121.13 654.984C1121.96 652.488 1123.37 650.184 1125.35 648.072C1127.4 645.96 1129.87 644.264 1132.75 642.984C1135.69 641.64 1138.86 640.968 1142.25 640.968C1146.6 640.968 1150.28 641.832 1153.29 643.56C1156.3 645.288 1158.57 647.752 1160.11 650.952C1161.64 654.088 1162.41 657.832 1162.41 662.184V693H1146.95V664.392C1146.95 662.152 1146.54 660.264 1145.71 658.728C1144.94 657.192 1143.75 656.008 1142.15 655.176C1140.62 654.344 1138.83 653.928 1136.78 653.928C1134.99 653.928 1133.35 654.248 1131.88 654.888C1130.47 655.464 1129.26 656.264 1128.23 657.288C1127.21 658.248 1126.41 659.336 1125.83 660.552C1125.32 661.768 1125.07 663.016 1125.07 664.296V693H1117.48C1115.37 693 1113.67 693 1112.39 693C1111.11 693 1110.22 693 1109.71 693ZM1186.69 693V642.024H1202.15V693H1186.69ZM1194.37 631.56C1191.49 631.56 1189.25 630.888 1187.65 629.544C1186.05 628.136 1185.25 626.152 1185.25 623.592C1185.25 621.288 1186.05 619.4 1187.65 617.928C1189.32 616.456 1191.56 615.72 1194.37 615.72C1197.25 615.72 1199.49 616.424 1201.09 617.832C1202.69 619.176 1203.49 621.096 1203.49 623.592C1203.49 625.96 1202.66 627.88 1201 629.352C1199.4 630.824 1197.19 631.56 1194.37 631.56ZM1221.61 693V684.168L1253.77 649.416L1254.44 654.408H1221.61V642.024H1269.23V651.24L1238.41 684.936L1237.45 680.616H1270.09V693H1221.61ZM1313.45 693.96C1307.24 693.96 1301.8 692.84 1297.13 690.6C1292.52 688.296 1288.94 685.192 1286.38 681.288C1283.82 677.32 1282.54 672.808 1282.54 667.752C1282.54 663.72 1283.28 660.072 1284.75 656.808C1286.22 653.544 1288.27 650.728 1290.89 648.36C1293.52 645.992 1296.59 644.168 1300.11 642.888C1303.63 641.608 1307.44 640.968 1311.53 640.968C1315.5 640.968 1319.15 641.608 1322.48 642.888C1325.8 644.104 1328.68 645.864 1331.12 648.168C1333.61 650.472 1335.53 653.192 1336.88 656.328C1338.22 659.464 1338.83 662.92 1338.7 666.696L1338.6 671.016H1292.62L1290.41 662.088H1326.12L1324.49 664.008V662.088C1324.3 660.488 1323.6 659.048 1322.38 657.768C1321.23 656.488 1319.72 655.496 1317.87 654.792C1316.01 654.024 1313.96 653.64 1311.72 653.64C1308.84 653.64 1306.28 654.12 1304.04 655.08C1301.8 655.976 1300.04 657.384 1298.76 659.304C1297.55 661.224 1296.94 663.656 1296.94 666.6C1296.94 669.416 1297.68 671.88 1299.15 673.992C1300.68 676.104 1302.83 677.768 1305.58 678.984C1308.4 680.2 1311.69 680.808 1315.47 680.808C1318.73 680.808 1321.45 680.424 1323.63 679.656C1325.87 678.824 1327.88 677.8 1329.68 676.584L1336.59 686.568C1334.48 688.168 1332.14 689.544 1329.58 690.696C1327.08 691.784 1324.46 692.584 1321.71 693.096C1319.02 693.672 1316.27 693.96 1313.45 693.96ZM362.354 813V748.008H377.714V813H362.354ZM351.026 775.464V762.024H390.674V775.464H351.026ZM409.58 813V741.96H424.652V773.928L421.004 775.176C421.644 772.616 422.988 770.28 425.036 768.168C427.148 765.992 429.708 764.264 432.716 762.984C435.724 761.64 438.924 760.968 442.316 760.968C446.668 760.968 450.316 761.864 453.26 763.656C456.268 765.384 458.508 767.848 459.98 771.048C461.516 774.184 462.284 777.864 462.284 782.088V813H446.828V784.488C446.828 782.184 446.412 780.264 445.58 778.728C444.812 777.128 443.628 775.912 442.028 775.08C440.492 774.248 438.7 773.864 436.652 773.928C434.988 773.928 433.42 774.216 431.948 774.792C430.54 775.304 429.292 776.072 428.204 777.096C427.18 778.056 426.38 779.176 425.804 780.456C425.228 781.736 424.94 783.112 424.94 784.584V813H417.356C415.244 813 413.548 813 412.268 813C410.988 813 410.092 813 409.58 813ZM510.951 813.96C504.743 813.96 499.303 812.84 494.631 810.6C490.023 808.296 486.439 805.192 483.879 801.288C481.319 797.32 480.039 792.808 480.039 787.752C480.039 783.72 480.775 780.072 482.247 776.808C483.719 773.544 485.767 770.728 488.391 768.36C491.015 765.992 494.087 764.168 497.607 762.888C501.127 761.608 504.935 760.968 509.031 760.968C512.999 760.968 516.647 761.608 519.975 762.888C523.303 764.104 526.183 765.864 528.615 768.168C531.111 770.472 533.031 773.192 534.375 776.328C535.719 779.464 536.327 782.92 536.199 786.696L536.103 791.016H490.119L487.911 782.088H523.623L521.991 784.008V782.088C521.799 780.488 521.095 779.048 519.879 777.768C518.727 776.488 517.223 775.496 515.367 774.792C513.511 774.024 511.463 773.64 509.223 773.64C506.343 773.64 503.783 774.12 501.543 775.08C499.303 775.976 497.543 777.384 496.263 779.304C495.047 781.224 494.439 783.656 494.439 786.6C494.439 789.416 495.175 791.88 496.647 793.992C498.183 796.104 500.327 797.768 503.079 798.984C505.895 800.2 509.191 800.808 512.967 800.808C516.231 800.808 518.951 800.424 521.127 799.656C523.367 798.824 525.383 797.8 527.175 796.584L534.087 806.568C531.975 808.168 529.639 809.544 527.079 810.696C524.583 811.784 521.959 812.584 519.207 813.096C516.519 813.672 513.767 813.96 510.951 813.96ZM613.285 814.056C608.293 814.056 603.909 812.936 600.133 810.696C596.357 808.392 593.413 805.256 591.301 801.288C589.189 797.256 588.133 792.68 588.133 787.56C588.133 782.44 589.221 777.896 591.397 773.928C593.573 769.896 596.581 766.728 600.421 764.424C604.325 762.12 608.805 760.968 613.861 760.968C616.677 760.968 619.301 761.352 621.733 762.12C624.165 762.824 626.341 763.784 628.261 765C630.245 766.216 631.813 767.624 632.965 769.224C634.181 770.76 634.885 772.328 635.077 773.928L631.429 774.792V741.96H646.885V813H632.581L631.717 800.616L634.789 801.384C634.597 802.984 633.893 804.552 632.677 806.088C631.461 807.56 629.861 808.904 627.877 810.12C625.957 811.272 623.749 812.232 621.253 813C618.757 813.704 616.101 814.056 613.285 814.056ZM617.605 801.096C620.485 801.096 622.981 800.52 625.093 799.368C627.269 798.216 628.933 796.648 630.085 794.664C631.237 792.616 631.813 790.248 631.813 787.56C631.813 784.808 631.237 782.44 630.085 780.456C628.933 778.408 627.269 776.84 625.093 775.752C622.981 774.6 620.485 774.024 617.605 774.024C614.725 774.024 612.229 774.6 610.117 775.752C608.005 776.84 606.341 778.408 605.125 780.456C603.973 782.44 603.397 784.808 603.397 787.56C603.397 790.248 603.973 792.616 605.125 794.664C606.341 796.648 608.005 798.216 610.117 799.368C612.229 800.52 614.725 801.096 617.605 801.096ZM694.514 813.96C688.306 813.96 682.866 812.84 678.194 810.6C673.586 808.296 670.002 805.192 667.442 801.288C664.882 797.32 663.602 792.808 663.602 787.752C663.602 783.72 664.338 780.072 665.81 776.808C667.282 773.544 669.33 770.728 671.954 768.36C674.578 765.992 677.65 764.168 681.17 762.888C684.69 761.608 688.498 760.968 692.594 760.968C696.562 760.968 700.21 761.608 703.538 762.888C706.866 764.104 709.746 765.864 712.178 768.168C714.674 770.472 716.594 773.192 717.938 776.328C719.282 779.464 719.89 782.92 719.762 786.696L719.666 791.016H673.682L671.474 782.088H707.186L705.554 784.008V782.088C705.362 780.488 704.658 779.048 703.442 777.768C702.29 776.488 700.786 775.496 698.93 774.792C697.074 774.024 695.026 773.64 692.786 773.64C689.906 773.64 687.346 774.12 685.106 775.08C682.866 775.976 681.106 777.384 679.826 779.304C678.61 781.224 678.002 783.656 678.002 786.6C678.002 789.416 678.738 791.88 680.21 793.992C681.746 796.104 683.89 797.768 686.642 798.984C689.458 800.2 692.754 800.808 696.53 800.808C699.794 800.808 702.514 800.424 704.69 799.656C706.93 798.824 708.946 797.8 710.738 796.584L717.65 806.568C715.538 808.168 713.202 809.544 710.642 810.696C708.146 811.784 705.522 812.584 702.77 813.096C700.082 813.672 697.33 813.96 694.514 813.96ZM738.83 813V762.024H753.422L753.902 773.928L750.254 774.984C751.086 772.488 752.494 770.184 754.478 768.072C756.526 765.96 758.99 764.264 761.87 762.984C764.814 761.64 767.982 760.968 771.374 760.968C775.726 760.968 779.406 761.832 782.414 763.56C785.422 765.288 787.694 767.752 789.23 770.952C790.766 774.088 791.534 777.832 791.534 782.184V813H776.078V784.392C776.078 782.152 775.662 780.264 774.83 778.728C774.062 777.192 772.878 776.008 771.278 775.176C769.742 774.344 767.95 773.928 765.902 773.928C764.11 773.928 762.478 774.248 761.006 774.888C759.598 775.464 758.382 776.264 757.358 777.288C756.334 778.248 755.534 779.336 754.958 780.552C754.446 781.768 754.19 783.016 754.19 784.296V813H746.606C744.494 813 742.798 813 741.518 813C740.238 813 739.342 813 738.83 813ZM815.817 813V762.024H831.273V813H815.817ZM823.497 751.56C820.617 751.56 818.377 750.888 816.777 749.544C815.177 748.136 814.377 746.152 814.377 743.592C814.377 741.288 815.177 739.4 816.777 737.928C818.441 736.456 820.681 735.72 823.497 735.72C826.377 735.72 828.617 736.424 830.217 737.832C831.817 739.176 832.617 741.096 832.617 743.592C832.617 745.96 831.785 747.88 830.121 749.352C828.521 750.824 826.313 751.56 823.497 751.56ZM881.264 813.96C875.056 813.96 869.616 812.84 864.944 810.6C860.336 808.296 856.752 805.192 854.192 801.288C851.632 797.32 850.352 792.808 850.352 787.752C850.352 783.72 851.088 780.072 852.56 776.808C854.032 773.544 856.08 770.728 858.704 768.36C861.328 765.992 864.4 764.168 867.92 762.888C871.44 761.608 875.248 760.968 879.344 760.968C883.312 760.968 886.96 761.608 890.288 762.888C893.616 764.104 896.496 765.864 898.928 768.168C901.424 770.472 903.344 773.192 904.688 776.328C906.032 779.464 906.64 782.92 906.512 786.696L906.416 791.016H860.432L858.224 782.088H893.936L892.304 784.008V782.088C892.112 780.488 891.408 779.048 890.192 777.768C889.04 776.488 887.536 775.496 885.68 774.792C883.824 774.024 881.776 773.64 879.536 773.64C876.656 773.64 874.096 774.12 871.856 775.08C869.616 775.976 867.856 777.384 866.576 779.304C865.36 781.224 864.752 783.656 864.752 786.6C864.752 789.416 865.488 791.88 866.96 793.992C868.496 796.104 870.64 797.768 873.392 798.984C876.208 800.2 879.504 800.808 883.28 800.808C886.544 800.808 889.264 800.424 891.44 799.656C893.68 798.824 895.696 797.8 897.488 796.584L904.4 806.568C902.288 808.168 899.952 809.544 897.392 810.696C894.896 811.784 892.272 812.584 889.52 813.096C886.832 813.672 884.08 813.96 881.264 813.96ZM925.58 813V762.024H940.172L940.844 779.592L937.196 777.768C938.028 774.632 939.468 771.816 941.516 769.32C943.628 766.76 946.028 764.744 948.716 763.272C951.468 761.736 954.38 760.968 957.452 760.968C959.116 760.968 960.684 761.128 962.156 761.448C963.692 761.768 965.004 762.184 966.092 762.696L961.868 779.496C960.908 778.792 959.596 778.248 957.932 777.864C956.332 777.48 954.7 777.288 953.036 777.288C951.18 777.288 949.484 777.608 947.948 778.248C946.476 778.824 945.228 779.656 944.204 780.744C943.18 781.768 942.38 782.952 941.804 784.296C941.292 785.64 941.036 787.08 941.036 788.616V813H925.58ZM1002.72 813.96C997.09 813.96 992.034 813.16 987.554 811.56C983.138 809.96 979.586 807.688 976.898 804.744L986.21 796.488C988.386 798.536 990.978 800.104 993.986 801.192C996.994 802.28 1000.16 802.824 1003.49 802.824C1004.51 802.824 1005.51 802.728 1006.47 802.536C1007.49 802.344 1008.35 802.088 1009.06 801.768C1009.83 801.384 1010.43 800.936 1010.88 800.424C1011.33 799.912 1011.55 799.272 1011.55 798.504C1011.55 797.288 1010.79 796.328 1009.25 795.624C1008.16 795.24 1006.79 794.856 1005.12 794.472C1003.46 794.088 1001.57 793.672 999.458 793.224C995.938 792.584 992.834 791.816 990.146 790.92C987.522 789.96 985.314 788.776 983.522 787.368C981.986 786.024 980.802 784.488 979.97 782.76C979.138 781.032 978.722 779.016 978.722 776.712C978.722 774.344 979.33 772.2 980.546 770.28C981.762 768.296 983.458 766.632 985.634 765.288C987.81 763.88 990.306 762.824 993.122 762.12C995.938 761.352 998.882 760.968 1001.95 760.968C1005.03 760.968 1008.03 761.288 1010.98 761.928C1013.92 762.504 1016.71 763.368 1019.33 764.52C1021.95 765.608 1024.26 767.016 1026.24 768.744L1018.37 777.96C1016.96 776.872 1015.33 775.88 1013.47 774.984C1011.62 774.088 1009.63 773.384 1007.52 772.872C1005.47 772.296 1003.46 772.008 1001.47 772.008C1000.39 772.008 999.33 772.072 998.306 772.2C997.346 772.328 996.514 772.584 995.81 772.968C995.106 773.288 994.53 773.704 994.082 774.216C993.698 774.664 993.506 775.24 993.506 775.944C993.506 776.52 993.666 777.064 993.986 777.576C994.306 778.088 994.786 778.504 995.426 778.824C996.322 779.4 997.634 779.912 999.362 780.36C1001.15 780.808 1003.39 781.288 1006.08 781.8C1009.99 782.632 1013.31 783.592 1016.07 784.68C1018.82 785.704 1021.03 786.952 1022.69 788.424C1024.03 789.448 1025.03 790.728 1025.67 792.264C1026.31 793.736 1026.63 795.368 1026.63 797.16C1026.63 800.424 1025.57 803.336 1023.46 805.896C1021.41 808.392 1018.59 810.376 1015.01 811.848C1011.49 813.256 1007.39 813.96 1002.72 813.96ZM1057.23 789.96L1054.16 776.808C1055.82 776.488 1057.52 776.072 1059.25 775.56C1060.97 775.048 1062.67 774.472 1064.33 773.832C1066 773.192 1067.44 772.424 1068.65 771.528C1069.93 770.632 1070.93 769.64 1071.63 768.552C1072.4 767.4 1072.78 766.184 1072.78 764.904C1072.78 763.56 1072.37 762.472 1071.53 761.64C1070.77 760.744 1069.74 760.104 1068.46 759.72C1067.25 759.272 1065.87 759.048 1064.33 759.048C1061.26 759.048 1058.38 759.816 1055.69 761.352C1053.07 762.888 1050.7 765.288 1048.59 768.552L1038.13 758.28C1041.33 753.928 1045.17 750.536 1049.65 748.104C1054.19 745.608 1059.15 744.36 1064.53 744.36C1069.13 744.36 1073.26 745.224 1076.91 746.952C1080.62 748.616 1083.53 750.952 1085.65 753.96C1087.76 756.904 1088.81 760.232 1088.81 763.944C1088.81 766.376 1088.24 768.776 1087.09 771.144C1085.93 773.448 1084.33 775.592 1082.29 777.576C1080.3 779.56 1078 781.32 1075.37 782.856C1072.75 784.328 1069.93 785.48 1066.93 786.312L1065.87 789.96H1057.23ZM1053.1 805.512C1053.1 803.08 1053.93 801.032 1055.6 799.368C1057.33 797.704 1059.69 796.872 1062.7 796.872C1065.84 796.872 1068.24 797.64 1069.9 799.176C1071.57 800.712 1072.4 802.824 1072.4 805.512C1072.4 807.88 1071.53 809.896 1069.81 811.56C1068.14 813.224 1065.77 814.056 1062.7 814.056C1059.57 814.056 1057.17 813.32 1055.5 811.848C1053.9 810.312 1053.1 808.2 1053.1 805.512Z" fill="white"/>
</g>
<defs>
<clipPath id="clip0_160_264">
<rect width="1440" height="1024" fill="white"/>
</clipPath>
</defs>
</svg>
