<svg width="1440" height="1024" viewBox="0 0 1440 1024" fill="none" xmlns="http://www.w3.org/2000/svg">
<g id="laborweapon1-no" clip-path="url(#clip0_160_181)">
<rect width="1440" height="1024" fill="#333148"/>
<path id="part 4" d="M47.096 132.12V60.024H61.688L62.264 71.448L59.384 70.584C59.832 68.536 61.048 66.648 63.032 64.92C65.016 63.192 67.512 61.784 70.52 60.696C73.592 59.608 76.856 59.064 80.312 59.064C85.304 59.064 89.688 60.216 93.464 62.52C97.24 64.76 100.184 67.864 102.296 71.832C104.472 75.736 105.56 80.28 105.56 85.464C105.56 90.584 104.472 95.128 102.296 99.096C100.184 103.064 97.208 106.2 93.368 108.504C89.528 110.744 85.112 111.864 80.12 111.864C76.664 111.864 73.432 111.288 70.424 110.136C67.416 108.984 64.888 107.48 62.84 105.624C60.856 103.768 59.576 101.816 59 99.768L62.552 98.424V132.12H47.096ZM76.376 98.904C79.256 98.904 81.752 98.36 83.864 97.272C85.976 96.12 87.608 94.552 88.76 92.568C89.976 90.584 90.584 88.216 90.584 85.464C90.584 82.776 89.976 80.44 88.76 78.456C87.608 76.408 85.976 74.84 83.864 73.752C81.816 72.6 79.32 72.024 76.376 72.024C73.496 72.024 70.968 72.568 68.792 73.656C66.68 74.744 65.016 76.312 63.8 78.36C62.648 80.408 62.072 82.776 62.072 85.464C62.072 88.216 62.648 90.584 63.8 92.568C65.016 94.552 66.68 96.12 68.792 97.272C70.968 98.36 73.496 98.904 76.376 98.904ZM144.211 111.864C139.155 111.864 134.739 110.744 130.963 108.504C127.187 106.264 124.211 103.16 122.035 99.192C119.923 95.16 118.867 90.584 118.867 85.464C118.867 80.28 119.955 75.704 122.131 71.736C124.307 67.768 127.315 64.664 131.155 62.424C135.059 60.12 139.539 58.968 144.595 58.968C147.475 58.968 150.131 59.352 152.563 60.12C154.995 60.824 157.107 61.816 158.899 63.096C160.755 64.376 162.259 65.784 163.411 67.32C164.627 68.856 165.427 70.456 165.811 72.12H162.451V60.024H177.619V111H162.163V97.944L165.427 98.424C165.043 100.088 164.243 101.72 163.027 103.32C161.811 104.92 160.243 106.36 158.323 107.64C156.403 108.92 154.227 109.944 151.795 110.712C149.427 111.48 146.899 111.864 144.211 111.864ZM148.339 98.904C151.219 98.904 153.715 98.36 155.827 97.272C158.003 96.184 159.667 94.648 160.819 92.664C162.035 90.616 162.643 88.216 162.643 85.464C162.643 82.776 162.035 80.44 160.819 78.456C159.667 76.408 158.003 74.808 155.827 73.656C153.715 72.504 151.219 71.928 148.339 71.928C145.459 71.928 142.963 72.504 140.851 73.656C138.739 74.808 137.075 76.408 135.859 78.456C134.707 80.44 134.131 82.776 134.131 85.464C134.131 88.216 134.707 90.616 135.859 92.664C137.075 94.648 138.739 96.184 140.851 97.272C142.963 98.36 145.459 98.904 148.339 98.904ZM201.315 111V60.024H215.907L216.579 77.592L212.931 75.768C213.763 72.632 215.203 69.816 217.251 67.32C219.363 64.76 221.763 62.744 224.451 61.272C227.203 59.736 230.115 58.968 233.187 58.968C234.851 58.968 236.419 59.128 237.891 59.448C239.427 59.768 240.739 60.184 241.827 60.696L237.603 77.496C236.643 76.792 235.331 76.248 233.667 75.864C232.067 75.48 230.435 75.288 228.771 75.288C226.915 75.288 225.219 75.608 223.683 76.248C222.211 76.824 220.963 77.656 219.939 78.744C218.915 79.768 218.115 80.952 217.539 82.296C217.027 83.64 216.771 85.08 216.771 86.616V111H201.315ZM265.932 111V46.008H281.292V111H265.932ZM254.604 73.464V60.024H294.252V73.464H254.604ZM377.032 111V53.304H387.112L357.544 88.248L355.624 83.736H405.256V96.984H349.48L343.048 84.6L378.856 43.224H392.776V111H377.032Z" fill="white"/>
<rect id="Rectangle 7" y="462" width="1567" height="626" fill="#211F2F"/>
<g id="Group 34">
<line id="Line 1" x1="452.501" y1="458.705" x2="452.501" y2="112.705" stroke="#485C77" stroke-width="25" stroke-linecap="round"/>
<rect id="Rectangle 8" x="440.001" y="100.207" width="172" height="96" rx="14" fill="#3B5EC6"/>
<rect id="Rectangle 9" x="510.001" y="100.207" width="32" height="96" fill="white"/>
<rect id="Rectangle 11" x="609" y="97.207" width="21.7609" height="196.456" rx="10.8804" transform="rotate(62.972 609 97.207)" fill="white"/>
<rect id="Rectangle 12" x="616.953" y="191.229" width="21.7609" height="196.456" rx="10.8804" transform="rotate(120 616.953 191.229)" fill="white"/>
<rect id="Rectangle 10" x="440.001" y="164.208" width="27" height="172" transform="rotate(-90 440.001 164.208)" fill="white"/>
<rect id="Rectangle 13" x="608.061" y="102.564" width="13.0698" height="189.913" rx="6.53491" transform="rotate(62.972 608.061 102.564)" fill="#EF1044"/>
<rect id="Rectangle 14" x="612.058" y="192.999" width="13.0698" height="189.913" rx="6.53491" transform="rotate(120 612.058 192.999)" fill="#EF1044"/>
<rect id="Rectangle 15" x="440.001" y="144.207" width="172" height="14" fill="#EF1044"/>
<rect id="Rectangle 16" x="534.001" y="100.207" width="96" height="16" transform="rotate(90 534.001 100.207)" fill="#EF1044"/>
</g>
<g id="Group 33">
<path id="Polygon 1" d="M769.372 285.85C785.607 268.261 813.393 268.261 829.628 285.85L1058.58 533.9C1082.82 560.164 1064.2 602.709 1028.46 602.709H570.545C534.803 602.709 516.175 560.164 540.417 533.9L769.372 285.85Z" fill="#485C77"/>
<rect id="Rectangle 17" x="748" y="447.209" width="104" height="198" rx="28" fill="#201F2F"/>
</g>
<g id="next">
<g id="Next">
<path id="Next_2" d="M1100.81 909V864.2H1110.79L1137.86 896.2L1136.01 895.88C1135.75 894.387 1135.56 892.957 1135.43 891.592C1135.3 890.227 1135.18 888.904 1135.05 887.624C1134.96 886.344 1134.88 885.064 1134.79 883.784C1134.75 882.504 1134.73 881.16 1134.73 879.752C1134.73 878.344 1134.73 876.851 1134.73 875.272V864.2H1145.29V909H1135.18L1107.08 875.976L1110.09 876.424C1110.22 877.917 1110.34 879.261 1110.47 880.456C1110.64 881.651 1110.77 882.781 1110.86 883.848C1110.98 884.872 1111.07 885.917 1111.11 886.984C1111.2 888.008 1111.26 889.096 1111.3 890.248C1111.35 891.4 1111.37 892.659 1111.37 894.024V909H1100.81ZM1177.89 909.64C1173.76 909.64 1170.13 908.893 1167.01 907.4C1163.94 905.864 1161.55 903.795 1159.85 901.192C1158.14 898.547 1157.29 895.539 1157.29 892.168C1157.29 889.48 1157.78 887.048 1158.76 884.872C1159.74 882.696 1161.11 880.819 1162.85 879.24C1164.6 877.661 1166.65 876.445 1169 875.592C1171.35 874.739 1173.88 874.312 1176.61 874.312C1179.26 874.312 1181.69 874.739 1183.91 875.592C1186.13 876.403 1188.05 877.576 1189.67 879.112C1191.33 880.648 1192.61 882.461 1193.51 884.552C1194.41 886.643 1194.81 888.947 1194.73 891.464L1194.66 894.344H1164.01L1162.53 888.392H1186.34L1185.25 889.672V888.392C1185.13 887.325 1184.66 886.365 1183.85 885.512C1183.08 884.659 1182.08 883.997 1180.84 883.528C1179.6 883.016 1178.24 882.76 1176.74 882.76C1174.82 882.76 1173.12 883.08 1171.62 883.72C1170.13 884.317 1168.96 885.256 1168.1 886.536C1167.29 887.816 1166.89 889.437 1166.89 891.4C1166.89 893.277 1167.38 894.92 1168.36 896.328C1169.38 897.736 1170.81 898.845 1172.65 899.656C1174.52 900.467 1176.72 900.872 1179.24 900.872C1181.41 900.872 1183.23 900.616 1184.68 900.104C1186.17 899.549 1187.52 898.867 1188.71 898.056L1193.32 904.712C1191.91 905.779 1190.35 906.696 1188.65 907.464C1186.98 908.189 1185.23 908.723 1183.4 909.064C1181.61 909.448 1179.77 909.64 1177.89 909.64ZM1231.57 909L1222.16 896.776L1219.54 893.32L1204.63 875.016H1217.56L1226 886.216L1228.82 889.928L1244.37 909H1231.57ZM1203.8 909L1219.03 889.8L1225.24 896.136L1216.53 909H1203.8ZM1228.76 894.216L1222.74 887.816L1231.32 875.016H1243.99L1228.76 894.216ZM1260.39 909V865.672H1270.63V909H1260.39ZM1252.84 883.976V875.016H1279.27V883.976H1252.84Z" fill="white"/>
</g>
<path id="Arrow 1" d="M1094 913.5C1089.31 913.5 1085.5 917.306 1085.5 922C1085.5 926.694 1089.31 930.5 1094 930.5V922V913.5ZM1371 922L1286 872.925V971.075L1371 922ZM1094 922V930.5H1294.5V922V913.5H1094V922Z" fill="#EF1044"/>
</g>
<g id="Group 32">
<g id="Group 31">
<rect id="Rectangle 31" x="905" y="176.209" width="93" height="352" rx="36" fill="#485C77"/>
<rect id="Rectangle 32" x="794.855" y="159.468" width="264.672" height="73.942" rx="36.971" transform="rotate(-8.76431 794.855 159.468)" fill="#405066"/>
<path id="Polygon 8" d="M931.054 210.907C933.371 217.287 932.108 224.419 927.741 229.616L880.094 286.314C875.727 291.511 868.919 293.983 862.235 292.8L789.309 279.885C782.625 278.702 777.08 274.042 774.763 267.662L749.484 198.049C747.167 191.668 748.43 184.537 752.797 179.34L800.444 122.641C804.812 117.444 811.619 114.972 818.303 116.156L891.229 129.07C897.913 130.254 903.458 134.914 905.775 141.294L931.054 210.907Z" fill="#73839A"/>
<ellipse id="Ellipse 13" cx="840" cy="204.209" rx="64" ry="67" fill="#C63B3B"/>
<line id="Line 18" x1="760.047" y1="190.796" x2="786.587" y2="222.162" stroke="#201F2F" stroke-width="10" stroke-linecap="round"/>
<line id="Line 19" x1="814.706" y1="130.231" x2="792.022" y2="225.503" stroke="#201F2F" stroke-width="10" stroke-linecap="round"/>
<line id="Line 20" x1="893.123" y1="147.225" x2="793.016" y2="225.086" stroke="#201F2F" stroke-width="10" stroke-linecap="round"/>
<line id="Line 21" x1="916.383" y1="224.565" x2="791.356" y2="233.826" stroke="#201F2F" stroke-width="10" stroke-linecap="round"/>
<line id="Line 22" x1="865.051" y1="286.518" x2="791.309" y2="236.158" stroke="#201F2F" stroke-width="10" stroke-linecap="round"/>
<line id="Line 23" x1="781.485" y1="269.767" x2="784.558" y2="236.724" stroke="#201F2F" stroke-width="10" stroke-linecap="round"/>
</g>
<circle id="Ellipse 14" cx="785.5" cy="228.709" r="18.5" fill="#DC4B4B"/>
</g>
<g id="Group 4">
<g id="Vector" filter="url(#filter0_d_160_181)">
<path d="M311.246 560.996C316.515 537.672 349.714 537.672 354.983 560.996L363.541 598.874C366.712 612.912 356.05 626.267 341.672 626.267H324.557C310.179 626.267 299.517 612.912 302.688 598.874L311.246 560.996Z" fill="#3B5EC6"/>
<path d="M356.816 510.046C356.816 523.326 346.061 534.092 332.794 534.092C319.527 534.092 308.772 523.326 308.772 510.046C308.772 496.766 319.527 486 332.794 486C346.061 486 356.816 496.766 356.816 510.046Z" fill="#3B5EC6"/>
<path d="M337.599 614.565C337.599 608.013 342.904 602.702 349.45 602.702C355.995 602.702 361.3 608.013 361.3 614.565V642.137C361.3 648.689 355.995 654 349.45 654C342.904 654 337.599 648.689 337.599 642.137V614.565Z" fill="#3B5EC6"/>
<path d="M346.867 568.609C343.517 562.981 345.36 555.7 350.982 552.347C356.605 548.993 363.879 550.837 367.229 556.466L381.328 580.153C384.678 585.781 382.836 593.062 377.213 596.415C371.59 599.769 364.316 597.925 360.966 592.296L346.867 568.609Z" fill="#3B5EC6"/>
<path d="M298.362 556.548C301.635 550.874 308.883 548.93 314.551 552.206C320.219 555.482 322.161 562.737 318.889 568.411L305.116 592.289C301.844 597.963 294.596 599.907 288.927 596.631C283.259 593.355 281.317 586.1 284.59 580.427L298.362 556.548Z" fill="#3B5EC6"/>
<path d="M304.288 614.565C304.288 608.013 309.594 602.702 316.139 602.702C322.684 602.702 327.99 608.013 327.99 614.565V642.137C327.99 648.689 322.684 654 316.139 654C309.594 654 304.288 648.689 304.288 642.137V614.565Z" fill="#3B5EC6"/>
</g>
<g id="Vector_2" filter="url(#filter1_d_160_181)">
<path d="M545.528 560.996C550.85 537.672 584.381 537.672 589.703 560.996L598.346 598.874C601.549 612.912 590.78 626.267 576.259 626.267H558.972C544.451 626.267 533.682 612.912 536.885 598.874L545.528 560.996Z" fill="#3B5EC6"/>
<path d="M591.555 510.046C591.555 523.326 580.692 534.092 567.292 534.092C553.892 534.092 543.03 523.326 543.03 510.046C543.03 496.766 553.892 486 567.292 486C580.692 486 591.555 496.766 591.555 510.046Z" fill="#3B5EC6"/>
<path d="M572.145 614.565C572.145 608.013 577.504 602.702 584.114 602.702C590.725 602.702 596.083 608.013 596.083 614.565V642.137C596.083 648.689 590.725 654 584.114 654C577.504 654 572.145 648.689 572.145 642.137V614.565Z" fill="#3B5EC6"/>
<path d="M581.506 568.609C578.123 562.981 579.983 555.7 585.662 552.347C591.341 548.993 598.688 550.837 602.071 556.466L616.311 580.153C619.695 585.781 617.834 593.062 612.155 596.415C606.476 599.769 599.13 597.925 595.746 592.296L581.506 568.609Z" fill="#3B5EC6"/>
<path d="M532.516 556.548C535.821 550.874 543.142 548.93 548.867 552.206C554.591 555.482 556.553 562.737 553.248 568.411L539.337 592.289C536.032 597.963 528.712 599.907 522.987 596.631C517.262 593.355 515.3 586.1 518.606 580.427L532.516 556.548Z" fill="#3B5EC6"/>
<path d="M538.501 614.565C538.501 608.013 543.86 602.702 550.47 602.702C557.081 602.702 562.44 608.013 562.44 614.565V642.137C562.44 648.689 557.081 654 550.47 654C543.86 654 538.501 648.689 538.501 642.137V614.565Z" fill="#3B5EC6"/>
</g>
<g id="Vector_3" filter="url(#filter2_d_160_181)">
<path d="M428.528 560.996C433.85 537.672 467.381 537.672 472.703 560.996L481.346 598.874C484.549 612.912 473.78 626.267 459.259 626.267H441.972C427.451 626.267 416.682 612.912 419.885 598.874L428.528 560.996Z" fill="#3B5EC6"/>
<path d="M474.555 510.046C474.555 523.326 463.692 534.092 450.292 534.092C436.892 534.092 426.03 523.326 426.03 510.046C426.03 496.766 436.892 486 450.292 486C463.692 486 474.555 496.766 474.555 510.046Z" fill="#3B5EC6"/>
<path d="M455.145 614.565C455.145 608.013 460.504 602.702 467.114 602.702C473.725 602.702 479.083 608.013 479.083 614.565V642.137C479.083 648.689 473.725 654 467.114 654C460.504 654 455.145 648.689 455.145 642.137V614.565Z" fill="#3B5EC6"/>
<path d="M464.506 568.609C461.123 562.981 462.983 555.7 468.662 552.347C474.341 548.993 481.688 550.837 485.071 556.466L499.311 580.153C502.695 585.781 500.834 593.062 495.155 596.415C489.476 599.769 482.13 597.925 478.746 592.296L464.506 568.609Z" fill="#3B5EC6"/>
<path d="M415.516 556.548C418.821 550.874 426.142 548.93 431.867 552.206C437.591 555.482 439.553 562.737 436.248 568.411L422.337 592.289C419.032 597.963 411.712 599.907 405.987 596.631C400.262 593.355 398.3 586.1 401.606 580.427L415.516 556.548Z" fill="#3B5EC6"/>
<path d="M421.501 614.565C421.501 608.013 426.86 602.702 433.47 602.702C440.081 602.702 445.44 608.013 445.44 614.565V642.137C445.44 648.689 440.081 654 433.47 654C426.86 654 421.501 648.689 421.501 642.137V614.565Z" fill="#3B5EC6"/>
</g>
<g id="Vector_4" filter="url(#filter3_d_160_181)">
<path d="M663.246 560.996C668.515 537.672 701.714 537.672 706.983 560.996L715.541 598.874C718.712 612.912 708.05 626.267 693.672 626.267H676.557C662.179 626.267 651.517 612.912 654.688 598.874L663.246 560.996Z" fill="#3B5EC6"/>
<path d="M708.816 510.046C708.816 523.326 698.061 534.092 684.794 534.092C671.527 534.092 660.772 523.326 660.772 510.046C660.772 496.766 671.527 486 684.794 486C698.061 486 708.816 496.766 708.816 510.046Z" fill="#3B5EC6"/>
<path d="M689.599 614.565C689.599 608.013 694.904 602.702 701.45 602.702C707.995 602.702 713.3 608.013 713.3 614.565V642.137C713.3 648.689 707.995 654 701.45 654C694.904 654 689.599 648.689 689.599 642.137V614.565Z" fill="#3B5EC6"/>
<path d="M698.867 568.609C695.517 562.981 697.36 555.7 702.982 552.347C708.605 548.993 715.879 550.837 719.229 556.466L733.328 580.153C736.678 585.781 734.836 593.062 729.213 596.415C723.59 599.769 716.316 597.925 712.966 592.296L698.867 568.609Z" fill="#3B5EC6"/>
<path d="M650.362 556.548C653.635 550.874 660.883 548.93 666.551 552.206C672.219 555.482 674.161 562.737 670.889 568.411L657.116 592.289C653.844 597.963 646.596 599.907 640.927 596.631C635.259 593.355 633.317 586.1 636.59 580.427L650.362 556.548Z" fill="#3B5EC6"/>
<path d="M656.288 614.565C656.288 608.013 661.594 602.702 668.139 602.702C674.684 602.702 679.99 608.013 679.99 614.565V642.137C679.99 648.689 674.684 654 668.139 654C661.594 654 656.288 648.689 656.288 642.137V614.565Z" fill="#3B5EC6"/>
</g>
<g id="Vector_5" filter="url(#filter4_d_160_181)">
<path d="M210.33 597.388C216.548 569.899 255.722 569.899 261.94 597.388L272.038 642.03C275.78 658.575 263.199 674.315 246.233 674.315H226.037C209.071 674.315 196.49 658.575 200.232 642.03L210.33 597.388Z" fill="#6A94E0"/>
<path d="M264.103 537.34C264.103 552.991 251.412 565.679 235.757 565.679C220.102 565.679 207.411 552.991 207.411 537.34C207.411 521.688 220.102 509 235.757 509C251.412 509 264.103 521.688 264.103 537.34Z" fill="#6A94E0"/>
<path d="M241.426 660.523C241.426 652.801 247.687 646.542 255.41 646.542C263.134 646.542 269.395 652.801 269.395 660.523V693.019C269.395 700.741 263.134 707 255.41 707C247.687 707 241.426 700.741 241.426 693.019V660.523Z" fill="#6A94E0"/>
<path d="M252.364 606.361C248.41 599.728 250.584 591.146 257.219 587.194C263.854 583.242 272.437 585.416 276.39 592.049L293.027 619.966C296.98 626.599 294.806 635.18 288.171 639.132C281.537 643.085 272.953 640.911 269 634.278L252.364 606.361Z" fill="#6A94E0"/>
<path d="M195.128 592.146C198.989 585.459 207.542 583.168 214.23 587.029C220.919 590.889 223.21 599.44 219.349 606.127L203.097 634.269C199.235 640.956 190.683 643.248 183.994 639.387C177.306 635.526 175.014 626.975 178.876 620.289L195.128 592.146Z" fill="#6A94E0"/>
<path d="M202.12 660.523C202.12 652.801 208.381 646.542 216.104 646.542C223.827 646.542 230.088 652.801 230.088 660.523V693.019C230.088 700.741 223.827 707 216.104 707C208.381 707 202.12 700.741 202.12 693.019V660.523Z" fill="#6A94E0"/>
</g>
<g id="Vector_6" filter="url(#filter5_d_160_181)">
<path d="M486.33 597.388C492.548 569.899 531.722 569.899 537.94 597.388L548.038 642.03C551.78 658.575 539.199 674.315 522.233 674.315H502.037C485.071 674.315 472.49 658.575 476.232 642.03L486.33 597.388Z" fill="#6A94E0"/>
<path d="M540.103 537.34C540.103 552.991 527.412 565.679 511.757 565.679C496.102 565.679 483.411 552.991 483.411 537.34C483.411 521.688 496.102 509 511.757 509C527.412 509 540.103 521.688 540.103 537.34Z" fill="#6A94E0"/>
<path d="M517.426 660.523C517.426 652.801 523.687 646.542 531.41 646.542C539.134 646.542 545.395 652.801 545.395 660.523V693.019C545.395 700.741 539.134 707 531.41 707C523.687 707 517.426 700.741 517.426 693.019V660.523Z" fill="#6A94E0"/>
<path d="M528.364 606.361C524.41 599.728 526.584 591.146 533.219 587.194C539.854 583.242 548.437 585.416 552.39 592.049L569.027 619.966C572.98 626.599 570.806 635.18 564.171 639.132C557.537 643.085 548.953 640.911 545 634.278L528.364 606.361Z" fill="#6A94E0"/>
<path d="M471.128 592.146C474.989 585.459 483.542 583.168 490.23 587.029C496.919 590.889 499.21 599.44 495.349 606.127L479.097 634.269C475.235 640.956 466.683 643.248 459.994 639.387C453.306 635.526 451.014 626.975 454.876 620.289L471.128 592.146Z" fill="#6A94E0"/>
<path d="M478.12 660.523C478.12 652.801 484.381 646.542 492.104 646.542C499.827 646.542 506.088 652.801 506.088 660.523V693.019C506.088 700.741 499.827 707 492.104 707C484.381 707 478.12 700.741 478.12 693.019V660.523Z" fill="#6A94E0"/>
</g>
<g id="Vector_7" filter="url(#filter6_d_160_181)">
<path d="M348.33 597.388C354.548 569.899 393.722 569.899 399.94 597.388L410.038 642.03C413.78 658.575 401.199 674.315 384.233 674.315H364.037C347.071 674.315 334.49 658.575 338.232 642.03L348.33 597.388Z" fill="#6A94E0"/>
<path d="M402.103 537.34C402.103 552.991 389.412 565.679 373.757 565.679C358.102 565.679 345.411 552.991 345.411 537.34C345.411 521.688 358.102 509 373.757 509C389.412 509 402.103 521.688 402.103 537.34Z" fill="#6A94E0"/>
<path d="M379.426 660.523C379.426 652.801 385.687 646.542 393.41 646.542C401.134 646.542 407.395 652.801 407.395 660.523V693.019C407.395 700.741 401.134 707 393.41 707C385.687 707 379.426 700.741 379.426 693.019V660.523Z" fill="#6A94E0"/>
<path d="M390.364 606.361C386.41 599.728 388.584 591.146 395.219 587.194C401.854 583.242 410.437 585.416 414.39 592.049L431.027 619.966C434.98 626.599 432.806 635.18 426.171 639.132C419.537 643.085 410.953 640.911 407 634.278L390.364 606.361Z" fill="#6A94E0"/>
<path d="M333.128 592.146C336.989 585.459 345.542 583.168 352.23 587.029C358.919 590.889 361.21 599.44 357.349 606.127L341.097 634.269C337.235 640.956 328.683 643.248 321.994 639.387C315.306 635.526 313.014 626.975 316.876 620.289L333.128 592.146Z" fill="#6A94E0"/>
<path d="M340.12 660.523C340.12 652.801 346.381 646.542 354.104 646.542C361.827 646.542 368.088 652.801 368.088 660.523V693.019C368.088 700.741 361.827 707 354.104 707C346.381 707 340.12 700.741 340.12 693.019V660.523Z" fill="#6A94E0"/>
</g>
<g id="Vector_8" filter="url(#filter7_d_160_181)">
<path d="M406.33 643.388C412.548 615.899 451.722 615.899 457.94 643.388L468.038 688.03C471.78 704.575 459.199 720.315 442.233 720.315H422.037C405.071 720.315 392.49 704.575 396.232 688.03L406.33 643.388Z" fill="#8DBBFB"/>
<path d="M460.103 583.34C460.103 598.991 447.412 611.679 431.757 611.679C416.102 611.679 403.411 598.991 403.411 583.34C403.411 567.688 416.102 555 431.757 555C447.412 555 460.103 567.688 460.103 583.34Z" fill="#8DBBFB"/>
<path d="M437.426 706.523C437.426 698.801 443.687 692.542 451.41 692.542C459.134 692.542 465.395 698.801 465.395 706.523V739.019C465.395 746.741 459.134 753 451.41 753C443.687 753 437.426 746.741 437.426 739.019V706.523Z" fill="#8DBBFB"/>
<path d="M448.364 652.361C444.41 645.728 446.584 637.146 453.219 633.194C459.854 629.242 468.437 631.416 472.39 638.049L489.027 665.966C492.98 672.599 490.806 681.18 484.171 685.132C477.537 689.085 468.953 686.911 465 680.278L448.364 652.361Z" fill="#8DBBFB"/>
<path d="M391.128 638.146C394.989 631.459 403.542 629.168 410.23 633.029C416.919 636.889 419.21 645.44 415.349 652.127L399.097 680.269C395.235 686.956 386.683 689.248 379.994 685.387C373.306 681.526 371.014 672.975 374.876 666.289L391.128 638.146Z" fill="#8DBBFB"/>
<path d="M398.12 706.523C398.12 698.801 404.381 692.542 412.104 692.542C419.827 692.542 426.088 698.801 426.088 706.523V739.019C426.088 746.741 419.827 753 412.104 753C404.381 753 398.12 746.741 398.12 739.019V706.523Z" fill="#8DBBFB"/>
</g>
<g id="Vector_9" filter="url(#filter8_d_160_181)">
<path d="M624.33 597.388C630.548 569.899 669.722 569.899 675.94 597.388L686.038 642.03C689.78 658.575 677.199 674.315 660.233 674.315H640.037C623.071 674.315 610.49 658.575 614.232 642.03L624.33 597.388Z" fill="#6A94E0"/>
<path d="M678.103 537.34C678.103 552.991 665.412 565.679 649.757 565.679C634.102 565.679 621.411 552.991 621.411 537.34C621.411 521.688 634.102 509 649.757 509C665.412 509 678.103 521.688 678.103 537.34Z" fill="#6A94E0"/>
<path d="M655.426 660.523C655.426 652.801 661.687 646.542 669.41 646.542C677.134 646.542 683.395 652.801 683.395 660.523V693.019C683.395 700.741 677.134 707 669.41 707C661.687 707 655.426 700.741 655.426 693.019V660.523Z" fill="#6A94E0"/>
<path d="M666.364 606.361C662.41 599.728 664.584 591.146 671.219 587.194C677.854 583.242 686.437 585.416 690.39 592.049L707.027 619.966C710.98 626.599 708.806 635.18 702.171 639.132C695.537 643.085 686.953 640.911 683 634.278L666.364 606.361Z" fill="#6A94E0"/>
<path d="M609.128 592.146C612.989 585.459 621.542 583.168 628.23 587.029C634.919 590.889 637.21 599.44 633.349 606.127L617.097 634.269C613.235 640.956 604.683 643.248 597.994 639.387C591.306 635.526 589.014 626.975 592.876 620.289L609.128 592.146Z" fill="#6A94E0"/>
<path d="M616.12 660.523C616.12 652.801 622.381 646.542 630.104 646.542C637.827 646.542 644.088 652.801 644.088 660.523V693.019C644.088 700.741 637.827 707 630.104 707C622.381 707 616.12 700.741 616.12 693.019V660.523Z" fill="#6A94E0"/>
</g>
<g id="Vector_10" filter="url(#filter9_d_160_181)">
<path d="M268.33 643.388C274.548 615.899 313.722 615.899 319.94 643.388L330.038 688.03C333.78 704.575 321.199 720.315 304.233 720.315H284.037C267.071 720.315 254.49 704.575 258.232 688.03L268.33 643.388Z" fill="#8DBBFB"/>
<path d="M322.103 583.34C322.103 598.991 309.412 611.679 293.757 611.679C278.102 611.679 265.411 598.991 265.411 583.34C265.411 567.688 278.102 555 293.757 555C309.412 555 322.103 567.688 322.103 583.34Z" fill="#8DBBFB"/>
<path d="M299.426 706.523C299.426 698.801 305.687 692.542 313.41 692.542C321.134 692.542 327.395 698.801 327.395 706.523V739.019C327.395 746.741 321.134 753 313.41 753C305.687 753 299.426 746.741 299.426 739.019V706.523Z" fill="#8DBBFB"/>
<path d="M310.364 652.361C306.41 645.728 308.584 637.146 315.219 633.194C321.854 629.242 330.437 631.416 334.39 638.049L351.027 665.966C354.98 672.599 352.806 681.18 346.171 685.132C339.537 689.085 330.953 686.911 327 680.278L310.364 652.361Z" fill="#8DBBFB"/>
<path d="M253.128 638.146C256.989 631.459 265.542 629.168 272.23 633.029C278.919 636.889 281.21 645.44 277.349 652.127L261.097 680.269C257.235 686.956 248.683 689.248 241.994 685.387C235.306 681.526 233.014 672.975 236.876 666.289L253.128 638.146Z" fill="#8DBBFB"/>
<path d="M260.12 706.523C260.12 698.801 266.381 692.542 274.104 692.542C281.827 692.542 288.088 698.801 288.088 706.523V739.019C288.088 746.741 281.827 753 274.104 753C266.381 753 260.12 746.741 260.12 739.019V706.523Z" fill="#8DBBFB"/>
</g>
<g id="Vector_11" filter="url(#filter10_d_160_181)">
<path d="M544.33 643.388C550.548 615.899 589.722 615.899 595.94 643.388L606.038 688.03C609.78 704.575 597.199 720.315 580.233 720.315H560.037C543.071 720.315 530.49 704.575 534.232 688.03L544.33 643.388Z" fill="#8DBBFB"/>
<path d="M598.103 583.34C598.103 598.991 585.412 611.679 569.757 611.679C554.102 611.679 541.411 598.991 541.411 583.34C541.411 567.688 554.102 555 569.757 555C585.412 555 598.103 567.688 598.103 583.34Z" fill="#8DBBFB"/>
<path d="M575.426 706.523C575.426 698.801 581.687 692.542 589.41 692.542C597.134 692.542 603.395 698.801 603.395 706.523V739.019C603.395 746.741 597.134 753 589.41 753C581.687 753 575.426 746.741 575.426 739.019V706.523Z" fill="#8DBBFB"/>
<path d="M586.364 652.361C582.41 645.728 584.584 637.146 591.219 633.194C597.854 629.242 606.437 631.416 610.39 638.049L627.027 665.966C630.98 672.599 628.806 681.18 622.171 685.132C615.537 689.085 606.953 686.911 603 680.278L586.364 652.361Z" fill="#8DBBFB"/>
<path d="M529.128 638.146C532.989 631.459 541.542 629.168 548.23 633.029C554.919 636.889 557.21 645.44 553.349 652.127L537.097 680.269C533.235 686.956 524.683 689.248 517.994 685.387C511.306 681.526 509.014 672.975 512.876 666.289L529.128 638.146Z" fill="#8DBBFB"/>
<path d="M536.12 706.523C536.12 698.801 542.381 692.542 550.104 692.542C557.827 692.542 564.088 698.801 564.088 706.523V739.019C564.088 746.741 557.827 753 550.104 753C542.381 753 536.12 746.741 536.12 739.019V706.523Z" fill="#8DBBFB"/>
</g>
<g id="Vector_12" filter="url(#filter11_d_160_181)">
<path d="M682.33 643.388C688.548 615.899 727.722 615.899 733.94 643.388L744.038 688.03C747.78 704.575 735.199 720.315 718.233 720.315H698.037C681.071 720.315 668.49 704.575 672.232 688.03L682.33 643.388Z" fill="#8DBBFB"/>
<path d="M736.103 583.34C736.103 598.991 723.412 611.679 707.757 611.679C692.102 611.679 679.411 598.991 679.411 583.34C679.411 567.688 692.102 555 707.757 555C723.412 555 736.103 567.688 736.103 583.34Z" fill="#8DBBFB"/>
<path d="M713.426 706.523C713.426 698.801 719.687 692.542 727.41 692.542C735.134 692.542 741.395 698.801 741.395 706.523V739.019C741.395 746.741 735.134 753 727.41 753C719.687 753 713.426 746.741 713.426 739.019V706.523Z" fill="#8DBBFB"/>
<path d="M724.364 652.361C720.41 645.728 722.584 637.146 729.219 633.194C735.854 629.242 744.437 631.416 748.39 638.049L765.027 665.966C768.98 672.599 766.806 681.18 760.171 685.132C753.537 689.085 744.953 686.911 741 680.278L724.364 652.361Z" fill="#8DBBFB"/>
<path d="M667.128 638.146C670.989 631.459 679.542 629.168 686.23 633.029C692.919 636.889 695.21 645.44 691.349 652.127L675.097 680.269C671.235 686.956 662.683 689.248 655.994 685.387C649.306 681.526 647.014 672.975 650.876 666.289L667.128 638.146Z" fill="#8DBBFB"/>
<path d="M674.12 706.523C674.12 698.801 680.381 692.542 688.104 692.542C695.827 692.542 702.088 698.801 702.088 706.523V739.019C702.088 746.741 695.827 753 688.104 753C680.381 753 674.12 746.741 674.12 739.019V706.523Z" fill="#8DBBFB"/>
</g>
</g>
</g>
<defs>
<filter id="filter0_d_160_181" x="279" y="486" width="108" height="176" filterUnits="userSpaceOnUse" color-interpolation-filters="sRGB">
<feFlood flood-opacity="0" result="BackgroundImageFix"/>
<feColorMatrix in="SourceAlpha" type="matrix" values="0 0 0 0 0 0 0 0 0 0 0 0 0 0 0 0 0 0 127 0" result="hardAlpha"/>
<feOffset dy="4"/>
<feGaussianBlur stdDeviation="2"/>
<feComposite in2="hardAlpha" operator="out"/>
<feColorMatrix type="matrix" values="0 0 0 0 0 0 0 0 0 0 0 0 0 0 0 0 0 0 0.25 0"/>
<feBlend mode="normal" in2="BackgroundImageFix" result="effect1_dropShadow_160_181"/>
<feBlend mode="normal" in="SourceGraphic" in2="effect1_dropShadow_160_181" result="shape"/>
</filter>
<filter id="filter1_d_160_181" x="513" y="486" width="109" height="176" filterUnits="userSpaceOnUse" color-interpolation-filters="sRGB">
<feFlood flood-opacity="0" result="BackgroundImageFix"/>
<feColorMatrix in="SourceAlpha" type="matrix" values="0 0 0 0 0 0 0 0 0 0 0 0 0 0 0 0 0 0 127 0" result="hardAlpha"/>
<feOffset dy="4"/>
<feGaussianBlur stdDeviation="2"/>
<feComposite in2="hardAlpha" operator="out"/>
<feColorMatrix type="matrix" values="0 0 0 0 0 0 0 0 0 0 0 0 0 0 0 0 0 0 0.25 0"/>
<feBlend mode="normal" in2="BackgroundImageFix" result="effect1_dropShadow_160_181"/>
<feBlend mode="normal" in="SourceGraphic" in2="effect1_dropShadow_160_181" result="shape"/>
</filter>
<filter id="filter2_d_160_181" x="396" y="486" width="109" height="176" filterUnits="userSpaceOnUse" color-interpolation-filters="sRGB">
<feFlood flood-opacity="0" result="BackgroundImageFix"/>
<feColorMatrix in="SourceAlpha" type="matrix" values="0 0 0 0 0 0 0 0 0 0 0 0 0 0 0 0 0 0 127 0" result="hardAlpha"/>
<feOffset dy="4"/>
<feGaussianBlur stdDeviation="2"/>
<feComposite in2="hardAlpha" operator="out"/>
<feColorMatrix type="matrix" values="0 0 0 0 0 0 0 0 0 0 0 0 0 0 0 0 0 0 0.25 0"/>
<feBlend mode="normal" in2="BackgroundImageFix" result="effect1_dropShadow_160_181"/>
<feBlend mode="normal" in="SourceGraphic" in2="effect1_dropShadow_160_181" result="shape"/>
</filter>
<filter id="filter3_d_160_181" x="631" y="486" width="108" height="176" filterUnits="userSpaceOnUse" color-interpolation-filters="sRGB">
<feFlood flood-opacity="0" result="BackgroundImageFix"/>
<feColorMatrix in="SourceAlpha" type="matrix" values="0 0 0 0 0 0 0 0 0 0 0 0 0 0 0 0 0 0 127 0" result="hardAlpha"/>
<feOffset dy="4"/>
<feGaussianBlur stdDeviation="2"/>
<feComposite in2="hardAlpha" operator="out"/>
<feColorMatrix type="matrix" values="0 0 0 0 0 0 0 0 0 0 0 0 0 0 0 0 0 0 0.25 0"/>
<feBlend mode="normal" in2="BackgroundImageFix" result="effect1_dropShadow_160_181"/>
<feBlend mode="normal" in="SourceGraphic" in2="effect1_dropShadow_160_181" result="shape"/>
</filter>
<filter id="filter4_d_160_181" x="173" y="509" width="126" height="206" filterUnits="userSpaceOnUse" color-interpolation-filters="sRGB">
<feFlood flood-opacity="0" result="BackgroundImageFix"/>
<feColorMatrix in="SourceAlpha" type="matrix" values="0 0 0 0 0 0 0 0 0 0 0 0 0 0 0 0 0 0 127 0" result="hardAlpha"/>
<feOffset dy="4"/>
<feGaussianBlur stdDeviation="2"/>
<feComposite in2="hardAlpha" operator="out"/>
<feColorMatrix type="matrix" values="0 0 0 0 0 0 0 0 0 0 0 0 0 0 0 0 0 0 0.25 0"/>
<feBlend mode="normal" in2="BackgroundImageFix" result="effect1_dropShadow_160_181"/>
<feBlend mode="normal" in="SourceGraphic" in2="effect1_dropShadow_160_181" result="shape"/>
</filter>
<filter id="filter5_d_160_181" x="449" y="509" width="126" height="206" filterUnits="userSpaceOnUse" color-interpolation-filters="sRGB">
<feFlood flood-opacity="0" result="BackgroundImageFix"/>
<feColorMatrix in="SourceAlpha" type="matrix" values="0 0 0 0 0 0 0 0 0 0 0 0 0 0 0 0 0 0 127 0" result="hardAlpha"/>
<feOffset dy="4"/>
<feGaussianBlur stdDeviation="2"/>
<feComposite in2="hardAlpha" operator="out"/>
<feColorMatrix type="matrix" values="0 0 0 0 0 0 0 0 0 0 0 0 0 0 0 0 0 0 0.25 0"/>
<feBlend mode="normal" in2="BackgroundImageFix" result="effect1_dropShadow_160_181"/>
<feBlend mode="normal" in="SourceGraphic" in2="effect1_dropShadow_160_181" result="shape"/>
</filter>
<filter id="filter6_d_160_181" x="311" y="509" width="126" height="206" filterUnits="userSpaceOnUse" color-interpolation-filters="sRGB">
<feFlood flood-opacity="0" result="BackgroundImageFix"/>
<feColorMatrix in="SourceAlpha" type="matrix" values="0 0 0 0 0 0 0 0 0 0 0 0 0 0 0 0 0 0 127 0" result="hardAlpha"/>
<feOffset dy="4"/>
<feGaussianBlur stdDeviation="2"/>
<feComposite in2="hardAlpha" operator="out"/>
<feColorMatrix type="matrix" values="0 0 0 0 0 0 0 0 0 0 0 0 0 0 0 0 0 0 0.25 0"/>
<feBlend mode="normal" in2="BackgroundImageFix" result="effect1_dropShadow_160_181"/>
<feBlend mode="normal" in="SourceGraphic" in2="effect1_dropShadow_160_181" result="shape"/>
</filter>
<filter id="filter7_d_160_181" x="369" y="555" width="126" height="206" filterUnits="userSpaceOnUse" color-interpolation-filters="sRGB">
<feFlood flood-opacity="0" result="BackgroundImageFix"/>
<feColorMatrix in="SourceAlpha" type="matrix" values="0 0 0 0 0 0 0 0 0 0 0 0 0 0 0 0 0 0 127 0" result="hardAlpha"/>
<feOffset dy="4"/>
<feGaussianBlur stdDeviation="2"/>
<feComposite in2="hardAlpha" operator="out"/>
<feColorMatrix type="matrix" values="0 0 0 0 0 0 0 0 0 0 0 0 0 0 0 0 0 0 0.25 0"/>
<feBlend mode="normal" in2="BackgroundImageFix" result="effect1_dropShadow_160_181"/>
<feBlend mode="normal" in="SourceGraphic" in2="effect1_dropShadow_160_181" result="shape"/>
</filter>
<filter id="filter8_d_160_181" x="587" y="509" width="126" height="206" filterUnits="userSpaceOnUse" color-interpolation-filters="sRGB">
<feFlood flood-opacity="0" result="BackgroundImageFix"/>
<feColorMatrix in="SourceAlpha" type="matrix" values="0 0 0 0 0 0 0 0 0 0 0 0 0 0 0 0 0 0 127 0" result="hardAlpha"/>
<feOffset dy="4"/>
<feGaussianBlur stdDeviation="2"/>
<feComposite in2="hardAlpha" operator="out"/>
<feColorMatrix type="matrix" values="0 0 0 0 0 0 0 0 0 0 0 0 0 0 0 0 0 0 0.25 0"/>
<feBlend mode="normal" in2="BackgroundImageFix" result="effect1_dropShadow_160_181"/>
<feBlend mode="normal" in="SourceGraphic" in2="effect1_dropShadow_160_181" result="shape"/>
</filter>
<filter id="filter9_d_160_181" x="231" y="555" width="126" height="206" filterUnits="userSpaceOnUse" color-interpolation-filters="sRGB">
<feFlood flood-opacity="0" result="BackgroundImageFix"/>
<feColorMatrix in="SourceAlpha" type="matrix" values="0 0 0 0 0 0 0 0 0 0 0 0 0 0 0 0 0 0 127 0" result="hardAlpha"/>
<feOffset dy="4"/>
<feGaussianBlur stdDeviation="2"/>
<feComposite in2="hardAlpha" operator="out"/>
<feColorMatrix type="matrix" values="0 0 0 0 0 0 0 0 0 0 0 0 0 0 0 0 0 0 0.25 0"/>
<feBlend mode="normal" in2="BackgroundImageFix" result="effect1_dropShadow_160_181"/>
<feBlend mode="normal" in="SourceGraphic" in2="effect1_dropShadow_160_181" result="shape"/>
</filter>
<filter id="filter10_d_160_181" x="507" y="555" width="126" height="206" filterUnits="userSpaceOnUse" color-interpolation-filters="sRGB">
<feFlood flood-opacity="0" result="BackgroundImageFix"/>
<feColorMatrix in="SourceAlpha" type="matrix" values="0 0 0 0 0 0 0 0 0 0 0 0 0 0 0 0 0 0 127 0" result="hardAlpha"/>
<feOffset dy="4"/>
<feGaussianBlur stdDeviation="2"/>
<feComposite in2="hardAlpha" operator="out"/>
<feColorMatrix type="matrix" values="0 0 0 0 0 0 0 0 0 0 0 0 0 0 0 0 0 0 0.25 0"/>
<feBlend mode="normal" in2="BackgroundImageFix" result="effect1_dropShadow_160_181"/>
<feBlend mode="normal" in="SourceGraphic" in2="effect1_dropShadow_160_181" result="shape"/>
</filter>
<filter id="filter11_d_160_181" x="645" y="555" width="126" height="206" filterUnits="userSpaceOnUse" color-interpolation-filters="sRGB">
<feFlood flood-opacity="0" result="BackgroundImageFix"/>
<feColorMatrix in="SourceAlpha" type="matrix" values="0 0 0 0 0 0 0 0 0 0 0 0 0 0 0 0 0 0 127 0" result="hardAlpha"/>
<feOffset dy="4"/>
<feGaussianBlur stdDeviation="2"/>
<feComposite in2="hardAlpha" operator="out"/>
<feColorMatrix type="matrix" values="0 0 0 0 0 0 0 0 0 0 0 0 0 0 0 0 0 0 0.25 0"/>
<feBlend mode="normal" in2="BackgroundImageFix" result="effect1_dropShadow_160_181"/>
<feBlend mode="normal" in="SourceGraphic" in2="effect1_dropShadow_160_181" result="shape"/>
</filter>
<clipPath id="clip0_160_181">
<rect width="1440" height="1024" fill="white"/>
</clipPath>
</defs>
</svg>
