<svg width="1440" height="1024" viewBox="0 0 1440 1024" fill="none" xmlns="http://www.w3.org/2000/svg">
<g id="listen4-no" clip-path="url(#clip0_110_402)">
<rect width="1440" height="1024" fill="#333148"/>
<path id="part 4" d="M47.096 132.12V60.024H61.688L62.264 71.448L59.384 70.584C59.832 68.536 61.048 66.648 63.032 64.92C65.016 63.192 67.512 61.784 70.52 60.696C73.592 59.608 76.856 59.064 80.312 59.064C85.304 59.064 89.688 60.216 93.464 62.52C97.24 64.76 100.184 67.864 102.296 71.832C104.472 75.736 105.56 80.28 105.56 85.464C105.56 90.584 104.472 95.128 102.296 99.096C100.184 103.064 97.208 106.2 93.368 108.504C89.528 110.744 85.112 111.864 80.12 111.864C76.664 111.864 73.432 111.288 70.424 110.136C67.416 108.984 64.888 107.48 62.84 105.624C60.856 103.768 59.576 101.816 59 99.768L62.552 98.424V132.12H47.096ZM76.376 98.904C79.256 98.904 81.752 98.36 83.864 97.272C85.976 96.12 87.608 94.552 88.76 92.568C89.976 90.584 90.584 88.216 90.584 85.464C90.584 82.776 89.976 80.44 88.76 78.456C87.608 76.408 85.976 74.84 83.864 73.752C81.816 72.6 79.32 72.024 76.376 72.024C73.496 72.024 70.968 72.568 68.792 73.656C66.68 74.744 65.016 76.312 63.8 78.36C62.648 80.408 62.072 82.776 62.072 85.464C62.072 88.216 62.648 90.584 63.8 92.568C65.016 94.552 66.68 96.12 68.792 97.272C70.968 98.36 73.496 98.904 76.376 98.904ZM144.211 111.864C139.155 111.864 134.739 110.744 130.963 108.504C127.187 106.264 124.211 103.16 122.035 99.192C119.923 95.16 118.867 90.584 118.867 85.464C118.867 80.28 119.955 75.704 122.131 71.736C124.307 67.768 127.315 64.664 131.155 62.424C135.059 60.12 139.539 58.968 144.595 58.968C147.475 58.968 150.131 59.352 152.563 60.12C154.995 60.824 157.107 61.816 158.899 63.096C160.755 64.376 162.259 65.784 163.411 67.32C164.627 68.856 165.427 70.456 165.811 72.12H162.451V60.024H177.619V111H162.163V97.944L165.427 98.424C165.043 100.088 164.243 101.72 163.027 103.32C161.811 104.92 160.243 106.36 158.323 107.64C156.403 108.92 154.227 109.944 151.795 110.712C149.427 111.48 146.899 111.864 144.211 111.864ZM148.339 98.904C151.219 98.904 153.715 98.36 155.827 97.272C158.003 96.184 159.667 94.648 160.819 92.664C162.035 90.616 162.643 88.216 162.643 85.464C162.643 82.776 162.035 80.44 160.819 78.456C159.667 76.408 158.003 74.808 155.827 73.656C153.715 72.504 151.219 71.928 148.339 71.928C145.459 71.928 142.963 72.504 140.851 73.656C138.739 74.808 137.075 76.408 135.859 78.456C134.707 80.44 134.131 82.776 134.131 85.464C134.131 88.216 134.707 90.616 135.859 92.664C137.075 94.648 138.739 96.184 140.851 97.272C142.963 98.36 145.459 98.904 148.339 98.904ZM201.315 111V60.024H215.907L216.579 77.592L212.931 75.768C213.763 72.632 215.203 69.816 217.251 67.32C219.363 64.76 221.763 62.744 224.451 61.272C227.203 59.736 230.115 58.968 233.187 58.968C234.851 58.968 236.419 59.128 237.891 59.448C239.427 59.768 240.739 60.184 241.827 60.696L237.603 77.496C236.643 76.792 235.331 76.248 233.667 75.864C232.067 75.48 230.435 75.288 228.771 75.288C226.915 75.288 225.219 75.608 223.683 76.248C222.211 76.824 220.963 77.656 219.939 78.744C218.915 79.768 218.115 80.952 217.539 82.296C217.027 83.64 216.771 85.08 216.771 86.616V111H201.315ZM265.932 111V46.008H281.292V111H265.932ZM254.604 73.464V60.024H294.252V73.464H254.604ZM377.032 111V53.304H387.112L357.544 88.248L355.624 83.736H405.256V96.984H349.48L343.048 84.6L378.856 43.224H392.776V111H377.032Z" fill="white"/>
<rect id="Rectangle 7" x="-65" y="534" width="1649" height="192" fill="#211F2F"/>
<g id="Group 4">
<g id="Vector" filter="url(#filter0_d_110_402)">
<path d="M264.246 486.996C269.515 463.672 302.714 463.672 307.983 486.996L316.541 524.874C319.712 538.912 309.05 552.267 294.672 552.267H277.557C263.179 552.267 252.517 538.912 255.688 524.874L264.246 486.996Z" fill="#3B5EC6"/>
<path d="M309.816 436.046C309.816 449.326 299.061 460.092 285.794 460.092C272.527 460.092 261.772 449.326 261.772 436.046C261.772 422.766 272.527 412 285.794 412C299.061 412 309.816 422.766 309.816 436.046Z" fill="#3B5EC6"/>
<path d="M290.599 540.565C290.599 534.013 295.904 528.702 302.45 528.702C308.995 528.702 314.3 534.013 314.3 540.565V568.137C314.3 574.689 308.995 580 302.45 580C295.904 580 290.599 574.689 290.599 568.137V540.565Z" fill="#3B5EC6"/>
<path d="M299.867 494.609C296.517 488.981 298.36 481.7 303.982 478.347C309.605 474.993 316.879 476.837 320.229 482.466L334.328 506.153C337.678 511.781 335.836 519.062 330.213 522.415C324.59 525.769 317.316 523.925 313.966 518.296L299.867 494.609Z" fill="#3B5EC6"/>
<path d="M251.362 482.548C254.635 476.874 261.883 474.93 267.551 478.206C273.219 481.482 275.161 488.737 271.889 494.411L258.116 518.289C254.844 523.963 247.596 525.907 241.927 522.631C236.259 519.355 234.317 512.1 237.59 506.427L251.362 482.548Z" fill="#3B5EC6"/>
<path d="M257.288 540.565C257.288 534.013 262.594 528.702 269.139 528.702C275.684 528.702 280.99 534.013 280.99 540.565V568.137C280.99 574.689 275.684 580 269.139 580C262.594 580 257.288 574.689 257.288 568.137V540.565Z" fill="#3B5EC6"/>
</g>
<g id="Vector_2" filter="url(#filter1_d_110_402)">
<path d="M498.528 486.996C503.85 463.672 537.381 463.672 542.703 486.996L551.346 524.874C554.549 538.912 543.78 552.267 529.259 552.267H511.972C497.451 552.267 486.682 538.912 489.885 524.874L498.528 486.996Z" fill="#3B5EC6"/>
<path d="M544.555 436.046C544.555 449.326 533.692 460.092 520.292 460.092C506.892 460.092 496.03 449.326 496.03 436.046C496.03 422.766 506.892 412 520.292 412C533.692 412 544.555 422.766 544.555 436.046Z" fill="#3B5EC6"/>
<path d="M525.145 540.565C525.145 534.013 530.504 528.702 537.114 528.702C543.725 528.702 549.083 534.013 549.083 540.565V568.137C549.083 574.689 543.725 580 537.114 580C530.504 580 525.145 574.689 525.145 568.137V540.565Z" fill="#3B5EC6"/>
<path d="M534.506 494.609C531.123 488.981 532.983 481.7 538.662 478.347C544.341 474.993 551.688 476.837 555.071 482.466L569.311 506.153C572.695 511.781 570.834 519.062 565.155 522.415C559.476 525.769 552.13 523.925 548.746 518.296L534.506 494.609Z" fill="#3B5EC6"/>
<path d="M485.516 482.548C488.821 476.874 496.142 474.93 501.867 478.206C507.591 481.482 509.553 488.737 506.248 494.411L492.337 518.289C489.032 523.963 481.712 525.907 475.987 522.631C470.262 519.355 468.3 512.1 471.606 506.427L485.516 482.548Z" fill="#3B5EC6"/>
<path d="M491.501 540.565C491.501 534.013 496.86 528.702 503.47 528.702C510.081 528.702 515.44 534.013 515.44 540.565V568.137C515.44 574.689 510.081 580 503.47 580C496.86 580 491.501 574.689 491.501 568.137V540.565Z" fill="#3B5EC6"/>
</g>
<g id="Vector_3" filter="url(#filter2_d_110_402)">
<path d="M381.528 486.996C386.85 463.672 420.381 463.672 425.703 486.996L434.346 524.874C437.549 538.912 426.78 552.267 412.259 552.267H394.972C380.451 552.267 369.682 538.912 372.885 524.874L381.528 486.996Z" fill="#3B5EC6"/>
<path d="M427.555 436.046C427.555 449.326 416.692 460.092 403.292 460.092C389.892 460.092 379.03 449.326 379.03 436.046C379.03 422.766 389.892 412 403.292 412C416.692 412 427.555 422.766 427.555 436.046Z" fill="#3B5EC6"/>
<path d="M408.145 540.565C408.145 534.013 413.504 528.702 420.114 528.702C426.725 528.702 432.083 534.013 432.083 540.565V568.137C432.083 574.689 426.725 580 420.114 580C413.504 580 408.145 574.689 408.145 568.137V540.565Z" fill="#3B5EC6"/>
<path d="M417.506 494.609C414.123 488.981 415.983 481.7 421.662 478.347C427.341 474.993 434.688 476.837 438.071 482.466L452.311 506.153C455.695 511.781 453.834 519.062 448.155 522.415C442.476 525.769 435.13 523.925 431.746 518.296L417.506 494.609Z" fill="#3B5EC6"/>
<path d="M368.516 482.548C371.821 476.874 379.142 474.93 384.867 478.206C390.591 481.482 392.553 488.737 389.248 494.411L375.337 518.289C372.032 523.963 364.712 525.907 358.987 522.631C353.262 519.355 351.3 512.1 354.606 506.427L368.516 482.548Z" fill="#3B5EC6"/>
<path d="M374.501 540.565C374.501 534.013 379.86 528.702 386.47 528.702C393.081 528.702 398.44 534.013 398.44 540.565V568.137C398.44 574.689 393.081 580 386.47 580C379.86 580 374.501 574.689 374.501 568.137V540.565Z" fill="#3B5EC6"/>
</g>
<g id="Vector_4" filter="url(#filter3_d_110_402)">
<path d="M616.246 486.996C621.515 463.672 654.714 463.672 659.983 486.996L668.541 524.874C671.712 538.912 661.05 552.267 646.672 552.267H629.557C615.179 552.267 604.517 538.912 607.688 524.874L616.246 486.996Z" fill="#3B5EC6"/>
<path d="M661.816 436.046C661.816 449.326 651.061 460.092 637.794 460.092C624.527 460.092 613.772 449.326 613.772 436.046C613.772 422.766 624.527 412 637.794 412C651.061 412 661.816 422.766 661.816 436.046Z" fill="#3B5EC6"/>
<path d="M642.599 540.565C642.599 534.013 647.904 528.702 654.45 528.702C660.995 528.702 666.3 534.013 666.3 540.565V568.137C666.3 574.689 660.995 580 654.45 580C647.904 580 642.599 574.689 642.599 568.137V540.565Z" fill="#3B5EC6"/>
<path d="M651.867 494.609C648.517 488.981 650.36 481.7 655.982 478.347C661.605 474.993 668.879 476.837 672.229 482.466L686.328 506.153C689.678 511.781 687.836 519.062 682.213 522.415C676.59 525.769 669.316 523.925 665.966 518.296L651.867 494.609Z" fill="#3B5EC6"/>
<path d="M603.362 482.548C606.635 476.874 613.883 474.93 619.551 478.206C625.219 481.482 627.161 488.737 623.889 494.411L610.116 518.289C606.844 523.963 599.596 525.907 593.927 522.631C588.259 519.355 586.317 512.1 589.59 506.427L603.362 482.548Z" fill="#3B5EC6"/>
<path d="M609.288 540.565C609.288 534.013 614.594 528.702 621.139 528.702C627.684 528.702 632.99 534.013 632.99 540.565V568.137C632.99 574.689 627.684 580 621.139 580C614.594 580 609.288 574.689 609.288 568.137V540.565Z" fill="#3B5EC6"/>
</g>
<g id="Vector_5" filter="url(#filter4_d_110_402)">
<path d="M163.33 523.388C169.548 495.899 208.722 495.899 214.94 523.388L225.038 568.03C228.78 584.575 216.199 600.315 199.233 600.315H179.037C162.071 600.315 149.49 584.575 153.232 568.03L163.33 523.388Z" fill="#6A94E0"/>
<path d="M217.103 463.34C217.103 478.991 204.412 491.679 188.757 491.679C173.102 491.679 160.411 478.991 160.411 463.34C160.411 447.688 173.102 435 188.757 435C204.412 435 217.103 447.688 217.103 463.34Z" fill="#6A94E0"/>
<path d="M194.426 586.523C194.426 578.801 200.687 572.542 208.41 572.542C216.134 572.542 222.395 578.801 222.395 586.523V619.019C222.395 626.741 216.134 633 208.41 633C200.687 633 194.426 626.741 194.426 619.019V586.523Z" fill="#6A94E0"/>
<path d="M205.364 532.361C201.41 525.728 203.584 517.146 210.219 513.194C216.854 509.242 225.437 511.416 229.39 518.049L246.027 545.966C249.98 552.599 247.806 561.18 241.171 565.132C234.537 569.085 225.953 566.911 222 560.278L205.364 532.361Z" fill="#6A94E0"/>
<path d="M148.128 518.146C151.989 511.459 160.542 509.168 167.23 513.029C173.919 516.889 176.21 525.44 172.349 532.127L156.097 560.269C152.235 566.956 143.683 569.248 136.994 565.387C130.306 561.526 128.014 552.975 131.876 546.289L148.128 518.146Z" fill="#6A94E0"/>
<path d="M155.12 586.523C155.12 578.801 161.381 572.542 169.104 572.542C176.827 572.542 183.088 578.801 183.088 586.523V619.019C183.088 626.741 176.827 633 169.104 633C161.381 633 155.12 626.741 155.12 619.019V586.523Z" fill="#6A94E0"/>
</g>
<g id="Vector_6" filter="url(#filter5_d_110_402)">
<path d="M439.33 523.388C445.548 495.899 484.722 495.899 490.94 523.388L501.038 568.03C504.78 584.575 492.199 600.315 475.233 600.315H455.037C438.071 600.315 425.49 584.575 429.232 568.03L439.33 523.388Z" fill="#6A94E0"/>
<path d="M493.103 463.34C493.103 478.991 480.412 491.679 464.757 491.679C449.102 491.679 436.411 478.991 436.411 463.34C436.411 447.688 449.102 435 464.757 435C480.412 435 493.103 447.688 493.103 463.34Z" fill="#6A94E0"/>
<path d="M470.426 586.523C470.426 578.801 476.687 572.542 484.41 572.542C492.134 572.542 498.395 578.801 498.395 586.523V619.019C498.395 626.741 492.134 633 484.41 633C476.687 633 470.426 626.741 470.426 619.019V586.523Z" fill="#6A94E0"/>
<path d="M481.364 532.361C477.41 525.728 479.584 517.146 486.219 513.194C492.854 509.242 501.437 511.416 505.39 518.049L522.027 545.966C525.98 552.599 523.806 561.18 517.171 565.132C510.537 569.085 501.953 566.911 498 560.278L481.364 532.361Z" fill="#6A94E0"/>
<path d="M424.128 518.146C427.989 511.459 436.542 509.168 443.23 513.029C449.919 516.889 452.21 525.44 448.349 532.127L432.097 560.269C428.235 566.956 419.683 569.248 412.994 565.387C406.306 561.526 404.014 552.975 407.876 546.289L424.128 518.146Z" fill="#6A94E0"/>
<path d="M431.12 586.523C431.12 578.801 437.381 572.542 445.104 572.542C452.827 572.542 459.088 578.801 459.088 586.523V619.019C459.088 626.741 452.827 633 445.104 633C437.381 633 431.12 626.741 431.12 619.019V586.523Z" fill="#6A94E0"/>
</g>
<g id="Vector_7" filter="url(#filter6_d_110_402)">
<path d="M301.33 523.388C307.548 495.899 346.722 495.899 352.94 523.388L363.038 568.03C366.78 584.575 354.199 600.315 337.233 600.315H317.037C300.071 600.315 287.49 584.575 291.232 568.03L301.33 523.388Z" fill="#6A94E0"/>
<path d="M355.103 463.34C355.103 478.991 342.412 491.679 326.757 491.679C311.102 491.679 298.411 478.991 298.411 463.34C298.411 447.688 311.102 435 326.757 435C342.412 435 355.103 447.688 355.103 463.34Z" fill="#6A94E0"/>
<path d="M332.426 586.523C332.426 578.801 338.687 572.542 346.41 572.542C354.134 572.542 360.395 578.801 360.395 586.523V619.019C360.395 626.741 354.134 633 346.41 633C338.687 633 332.426 626.741 332.426 619.019V586.523Z" fill="#6A94E0"/>
<path d="M343.364 532.361C339.41 525.728 341.584 517.146 348.219 513.194C354.854 509.242 363.437 511.416 367.39 518.049L384.027 545.966C387.98 552.599 385.806 561.18 379.171 565.132C372.537 569.085 363.953 566.911 360 560.278L343.364 532.361Z" fill="#6A94E0"/>
<path d="M286.128 518.146C289.989 511.459 298.542 509.168 305.23 513.029C311.919 516.889 314.21 525.44 310.349 532.127L294.097 560.269C290.235 566.956 281.683 569.248 274.994 565.387C268.306 561.526 266.014 552.975 269.876 546.289L286.128 518.146Z" fill="#6A94E0"/>
<path d="M293.12 586.523C293.12 578.801 299.381 572.542 307.104 572.542C314.827 572.542 321.088 578.801 321.088 586.523V619.019C321.088 626.741 314.827 633 307.104 633C299.381 633 293.12 626.741 293.12 619.019V586.523Z" fill="#6A94E0"/>
</g>
<g id="Vector_8" filter="url(#filter7_d_110_402)">
<path d="M359.33 569.388C365.548 541.899 404.722 541.899 410.94 569.388L421.038 614.03C424.78 630.575 412.199 646.315 395.233 646.315H375.037C358.071 646.315 345.49 630.575 349.232 614.03L359.33 569.388Z" fill="#8DBBFB"/>
<path d="M413.103 509.34C413.103 524.991 400.412 537.679 384.757 537.679C369.102 537.679 356.411 524.991 356.411 509.34C356.411 493.688 369.102 481 384.757 481C400.412 481 413.103 493.688 413.103 509.34Z" fill="#8DBBFB"/>
<path d="M390.426 632.523C390.426 624.801 396.687 618.542 404.41 618.542C412.134 618.542 418.395 624.801 418.395 632.523V665.019C418.395 672.741 412.134 679 404.41 679C396.687 679 390.426 672.741 390.426 665.019V632.523Z" fill="#8DBBFB"/>
<path d="M401.364 578.361C397.41 571.728 399.584 563.146 406.219 559.194C412.854 555.242 421.437 557.416 425.39 564.049L442.027 591.966C445.98 598.599 443.806 607.18 437.171 611.132C430.537 615.085 421.953 612.911 418 606.278L401.364 578.361Z" fill="#8DBBFB"/>
<path d="M344.128 564.146C347.989 557.459 356.542 555.168 363.23 559.029C369.919 562.889 372.21 571.44 368.349 578.127L352.097 606.269C348.235 612.956 339.683 615.248 332.994 611.387C326.306 607.526 324.014 598.975 327.876 592.289L344.128 564.146Z" fill="#8DBBFB"/>
<path d="M351.12 632.523C351.12 624.801 357.381 618.542 365.104 618.542C372.827 618.542 379.088 624.801 379.088 632.523V665.019C379.088 672.741 372.827 679 365.104 679C357.381 679 351.12 672.741 351.12 665.019V632.523Z" fill="#8DBBFB"/>
</g>
<g id="Vector_9" filter="url(#filter8_d_110_402)">
<path d="M577.33 523.388C583.548 495.899 622.722 495.899 628.94 523.388L639.038 568.03C642.78 584.575 630.199 600.315 613.233 600.315H593.037C576.071 600.315 563.49 584.575 567.232 568.03L577.33 523.388Z" fill="#6A94E0"/>
<path d="M631.103 463.34C631.103 478.991 618.412 491.679 602.757 491.679C587.102 491.679 574.411 478.991 574.411 463.34C574.411 447.688 587.102 435 602.757 435C618.412 435 631.103 447.688 631.103 463.34Z" fill="#6A94E0"/>
<path d="M608.426 586.523C608.426 578.801 614.687 572.542 622.41 572.542C630.134 572.542 636.395 578.801 636.395 586.523V619.019C636.395 626.741 630.134 633 622.41 633C614.687 633 608.426 626.741 608.426 619.019V586.523Z" fill="#6A94E0"/>
<path d="M619.364 532.361C615.41 525.728 617.584 517.146 624.219 513.194C630.854 509.242 639.437 511.416 643.39 518.049L660.027 545.966C663.98 552.599 661.806 561.18 655.171 565.132C648.537 569.085 639.953 566.911 636 560.278L619.364 532.361Z" fill="#6A94E0"/>
<path d="M562.128 518.146C565.989 511.459 574.542 509.168 581.23 513.029C587.919 516.889 590.21 525.44 586.349 532.127L570.097 560.269C566.235 566.956 557.683 569.248 550.994 565.387C544.306 561.526 542.014 552.975 545.876 546.289L562.128 518.146Z" fill="#6A94E0"/>
<path d="M569.12 586.523C569.12 578.801 575.381 572.542 583.104 572.542C590.827 572.542 597.088 578.801 597.088 586.523V619.019C597.088 626.741 590.827 633 583.104 633C575.381 633 569.12 626.741 569.12 619.019V586.523Z" fill="#6A94E0"/>
</g>
<g id="Vector_10" filter="url(#filter9_d_110_402)">
<path d="M221.33 569.388C227.548 541.899 266.722 541.899 272.94 569.388L283.038 614.03C286.78 630.575 274.199 646.315 257.233 646.315H237.037C220.071 646.315 207.49 630.575 211.232 614.03L221.33 569.388Z" fill="#8DBBFB"/>
<path d="M275.103 509.34C275.103 524.991 262.412 537.679 246.757 537.679C231.102 537.679 218.411 524.991 218.411 509.34C218.411 493.688 231.102 481 246.757 481C262.412 481 275.103 493.688 275.103 509.34Z" fill="#8DBBFB"/>
<path d="M252.426 632.523C252.426 624.801 258.687 618.542 266.41 618.542C274.134 618.542 280.395 624.801 280.395 632.523V665.019C280.395 672.741 274.134 679 266.41 679C258.687 679 252.426 672.741 252.426 665.019V632.523Z" fill="#8DBBFB"/>
<path d="M263.364 578.361C259.41 571.728 261.584 563.146 268.219 559.194C274.854 555.242 283.437 557.416 287.39 564.049L304.027 591.966C307.98 598.599 305.806 607.18 299.171 611.132C292.537 615.085 283.953 612.911 280 606.278L263.364 578.361Z" fill="#8DBBFB"/>
<path d="M206.128 564.146C209.989 557.459 218.542 555.168 225.23 559.029C231.919 562.889 234.21 571.44 230.349 578.127L214.097 606.269C210.235 612.956 201.683 615.248 194.994 611.387C188.306 607.526 186.014 598.975 189.876 592.289L206.128 564.146Z" fill="#8DBBFB"/>
<path d="M213.12 632.523C213.12 624.801 219.381 618.542 227.104 618.542C234.827 618.542 241.088 624.801 241.088 632.523V665.019C241.088 672.741 234.827 679 227.104 679C219.381 679 213.12 672.741 213.12 665.019V632.523Z" fill="#8DBBFB"/>
</g>
<g id="Vector_11" filter="url(#filter10_d_110_402)">
<path d="M497.33 569.388C503.548 541.899 542.722 541.899 548.94 569.388L559.038 614.03C562.78 630.575 550.199 646.315 533.233 646.315H513.037C496.071 646.315 483.49 630.575 487.232 614.03L497.33 569.388Z" fill="#8DBBFB"/>
<path d="M551.103 509.34C551.103 524.991 538.412 537.679 522.757 537.679C507.102 537.679 494.411 524.991 494.411 509.34C494.411 493.688 507.102 481 522.757 481C538.412 481 551.103 493.688 551.103 509.34Z" fill="#8DBBFB"/>
<path d="M528.426 632.523C528.426 624.801 534.687 618.542 542.41 618.542C550.134 618.542 556.395 624.801 556.395 632.523V665.019C556.395 672.741 550.134 679 542.41 679C534.687 679 528.426 672.741 528.426 665.019V632.523Z" fill="#8DBBFB"/>
<path d="M539.364 578.361C535.41 571.728 537.584 563.146 544.219 559.194C550.854 555.242 559.437 557.416 563.39 564.049L580.027 591.966C583.98 598.599 581.806 607.18 575.171 611.132C568.537 615.085 559.953 612.911 556 606.278L539.364 578.361Z" fill="#8DBBFB"/>
<path d="M482.128 564.146C485.989 557.459 494.542 555.168 501.23 559.029C507.919 562.889 510.21 571.44 506.349 578.127L490.097 606.269C486.235 612.956 477.683 615.248 470.994 611.387C464.306 607.526 462.014 598.975 465.876 592.289L482.128 564.146Z" fill="#8DBBFB"/>
<path d="M489.12 632.523C489.12 624.801 495.381 618.542 503.104 618.542C510.827 618.542 517.088 624.801 517.088 632.523V665.019C517.088 672.741 510.827 679 503.104 679C495.381 679 489.12 672.741 489.12 665.019V632.523Z" fill="#8DBBFB"/>
</g>
<g id="Vector_12" filter="url(#filter11_d_110_402)">
<path d="M635.33 569.388C641.548 541.899 680.722 541.899 686.94 569.388L697.038 614.03C700.78 630.575 688.199 646.315 671.233 646.315H651.037C634.071 646.315 621.49 630.575 625.232 614.03L635.33 569.388Z" fill="#8DBBFB"/>
<path d="M689.103 509.34C689.103 524.991 676.412 537.679 660.757 537.679C645.102 537.679 632.411 524.991 632.411 509.34C632.411 493.688 645.102 481 660.757 481C676.412 481 689.103 493.688 689.103 509.34Z" fill="#8DBBFB"/>
<path d="M666.426 632.523C666.426 624.801 672.687 618.542 680.41 618.542C688.134 618.542 694.395 624.801 694.395 632.523V665.019C694.395 672.741 688.134 679 680.41 679C672.687 679 666.426 672.741 666.426 665.019V632.523Z" fill="#8DBBFB"/>
<path d="M677.364 578.361C673.41 571.728 675.584 563.146 682.219 559.194C688.854 555.242 697.437 557.416 701.39 564.049L718.027 591.966C721.98 598.599 719.806 607.18 713.171 611.132C706.537 615.085 697.953 612.911 694 606.278L677.364 578.361Z" fill="#8DBBFB"/>
<path d="M620.128 564.146C623.989 557.459 632.542 555.168 639.23 559.029C645.919 562.889 648.21 571.44 644.349 578.127L628.097 606.269C624.235 612.956 615.683 615.248 608.994 611.387C602.306 607.526 600.014 598.975 603.876 592.289L620.128 564.146Z" fill="#8DBBFB"/>
<path d="M627.12 632.523C627.12 624.801 633.381 618.542 641.104 618.542C648.827 618.542 655.088 624.801 655.088 632.523V665.019C655.088 672.741 648.827 679 641.104 679C633.381 679 627.12 672.741 627.12 665.019V632.523Z" fill="#8DBBFB"/>
</g>
</g>
<g id="next">
<g id="Next">
<path id="Next_2" d="M1126.81 910V865.2H1136.79L1163.86 897.2L1162.01 896.88C1161.75 895.387 1161.56 893.957 1161.43 892.592C1161.3 891.227 1161.18 889.904 1161.05 888.624C1160.96 887.344 1160.88 886.064 1160.79 884.784C1160.75 883.504 1160.73 882.16 1160.73 880.752C1160.73 879.344 1160.73 877.851 1160.73 876.272V865.2H1171.29V910H1161.18L1133.08 876.976L1136.09 877.424C1136.22 878.917 1136.34 880.261 1136.47 881.456C1136.64 882.651 1136.77 883.781 1136.86 884.848C1136.98 885.872 1137.07 886.917 1137.11 887.984C1137.2 889.008 1137.26 890.096 1137.3 891.248C1137.35 892.4 1137.37 893.659 1137.37 895.024V910H1126.81ZM1203.89 910.64C1199.76 910.64 1196.13 909.893 1193.01 908.4C1189.94 906.864 1187.55 904.795 1185.85 902.192C1184.14 899.547 1183.29 896.539 1183.29 893.168C1183.29 890.48 1183.78 888.048 1184.76 885.872C1185.74 883.696 1187.11 881.819 1188.85 880.24C1190.6 878.661 1192.65 877.445 1195 876.592C1197.35 875.739 1199.88 875.312 1202.61 875.312C1205.26 875.312 1207.69 875.739 1209.91 876.592C1212.13 877.403 1214.05 878.576 1215.67 880.112C1217.33 881.648 1218.61 883.461 1219.51 885.552C1220.41 887.643 1220.81 889.947 1220.73 892.464L1220.66 895.344H1190.01L1188.53 889.392H1212.34L1211.25 890.672V889.392C1211.13 888.325 1210.66 887.365 1209.85 886.512C1209.08 885.659 1208.08 884.997 1206.84 884.528C1205.6 884.016 1204.24 883.76 1202.74 883.76C1200.82 883.76 1199.12 884.08 1197.62 884.72C1196.13 885.317 1194.96 886.256 1194.1 887.536C1193.29 888.816 1192.89 890.437 1192.89 892.4C1192.89 894.277 1193.38 895.92 1194.36 897.328C1195.38 898.736 1196.81 899.845 1198.65 900.656C1200.52 901.467 1202.72 901.872 1205.24 901.872C1207.41 901.872 1209.23 901.616 1210.68 901.104C1212.17 900.549 1213.52 899.867 1214.71 899.056L1219.32 905.712C1217.91 906.779 1216.35 907.696 1214.65 908.464C1212.98 909.189 1211.23 909.723 1209.4 910.064C1207.61 910.448 1205.77 910.64 1203.89 910.64ZM1257.57 910L1248.16 897.776L1245.54 894.32L1230.63 876.016H1243.56L1252 887.216L1254.82 890.928L1270.37 910H1257.57ZM1229.8 910L1245.03 890.8L1251.24 897.136L1242.53 910H1229.8ZM1254.76 895.216L1248.74 888.816L1257.32 876.016H1269.99L1254.76 895.216ZM1286.39 910V866.672H1296.63V910H1286.39ZM1278.84 884.976V876.016H1305.27V884.976H1278.84Z" fill="white"/>
</g>
<path id="Arrow 1" d="M1120 914.5C1115.31 914.5 1111.5 918.306 1111.5 923C1111.5 927.694 1115.31 931.5 1120 931.5V923V914.5ZM1397 923L1312 873.925V972.075L1397 923ZM1120 923V931.5H1320.5V923V914.5H1120V923Z" fill="#EF1044"/>
</g>
<ellipse id="Ellipse 3" cx="1119" cy="425" rx="213" ry="58" fill="#211F2F"/>
<rect id="Rectangle 26" x="1019" y="135" width="197" height="300" rx="25" fill="#C63B3B"/>
<path id="Polygon 2" d="M998.062 291.866C1004.11 279.563 1022.59 283.321 1022.83 296.9L1024.76 407.616C1024.9 415.99 1017.1 422.438 1008.86 420.762L957.657 410.354C949.411 408.678 945.061 399.762 948.788 392.174L998.062 291.866Z" fill="#3E5068"/>
<path id="Polygon 3" d="M1239 291.866C1232.95 279.563 1214.47 283.321 1214.23 296.9L1212.3 407.616C1212.16 415.99 1219.95 422.438 1228.2 420.762L1279.4 410.354C1287.65 408.678 1292 399.762 1288.27 392.174L1239 291.866Z" fill="#3E5068"/>
<path id="Polygon 5" d="M1132.13 334.935C1128.91 321.698 1110.09 321.698 1106.87 334.935L1080.54 443.178C1078.55 451.362 1084.75 459.25 1093.17 459.25L1145.83 459.25C1154.25 459.25 1160.45 451.362 1158.46 443.178L1132.13 334.935Z" fill="#3E5068"/>
<path id="Polygon 4" d="M1101.39 36.8832C1109.39 26.0242 1125.61 26.0242 1133.61 36.8832L1210.53 141.394C1220.25 154.601 1210.82 173.25 1194.43 173.25H1040.57C1024.18 173.25 1014.75 154.601 1024.47 141.394L1101.39 36.8832Z" fill="#3E5068"/>
<path id="you find a rocket" d="M212.383 844.08L225.727 816.72L225.439 824.496L198.367 771.024H215.935L228.319 797.52C229.215 799.312 230.047 801.136 230.815 802.992C231.583 804.784 232.191 806.576 232.639 808.368L229.759 809.136C230.335 807.728 231.007 806.064 231.775 804.144C232.543 802.224 233.343 800.272 234.175 798.288L245.599 771.024H263.167L238.207 822.192L227.935 844.08H212.383ZM304.148 822.96C298.196 822.96 292.916 821.808 288.308 819.504C283.7 817.2 280.084 814.064 277.46 810.096C274.836 806.128 273.524 801.584 273.524 796.464C273.524 791.344 274.836 786.8 277.46 782.832C280.084 778.864 283.7 775.728 288.308 773.424C292.916 771.12 298.196 769.968 304.148 769.968C310.036 769.968 315.252 771.12 319.796 773.424C324.404 775.728 328.02 778.864 330.644 782.832C333.268 786.8 334.58 791.344 334.58 796.464C334.58 801.584 333.268 806.128 330.644 810.096C328.02 814.064 324.404 817.2 319.796 819.504C315.252 821.808 310.036 822.96 304.148 822.96ZM304.148 809.712C306.9 809.712 309.396 809.136 311.636 807.984C313.94 806.832 315.732 805.264 317.012 803.28C318.356 801.296 318.996 799.024 318.932 796.464C318.996 793.904 318.356 791.6 317.012 789.552C315.732 787.504 313.94 785.936 311.636 784.848C309.396 783.696 306.9 783.12 304.148 783.12C301.332 783.12 298.74 783.696 296.372 784.848C294.068 786 292.276 787.568 290.996 789.552C289.716 791.536 289.076 793.84 289.076 796.464C289.076 799.024 289.716 801.296 290.996 803.28C292.276 805.264 294.068 806.832 296.372 807.984C298.74 809.136 301.332 809.712 304.148 809.712ZM372.62 823.056C368.524 823.056 364.972 822.16 361.964 820.368C359.02 818.576 356.748 815.984 355.148 812.592C353.548 809.136 352.748 805.008 352.748 800.208V771.024H368.108V797.712C368.108 800.336 368.46 802.544 369.164 804.336C369.932 806.128 371.116 807.504 372.716 808.464C374.316 809.36 376.268 809.808 378.572 809.808C380.236 809.808 381.772 809.552 383.18 809.04C384.588 808.464 385.836 807.696 386.924 806.736C388.012 805.712 388.844 804.56 389.42 803.28C390.06 801.936 390.38 800.432 390.38 798.768V771.024H405.74V822H391.34L390.668 811.536L393.452 810.384C392.748 812.624 391.404 814.704 389.42 816.624C387.436 818.544 385.004 820.112 382.124 821.328C379.308 822.48 376.14 823.056 372.62 823.056ZM471.532 822V770.16C471.532 766.384 472.332 763.056 473.932 760.176C475.596 757.232 477.9 754.928 480.844 753.264C483.788 751.6 487.212 750.768 491.116 750.768C494.124 750.768 496.748 751.152 498.988 751.92C501.292 752.688 503.244 753.648 504.844 754.8L500.428 766.128C499.532 765.616 498.476 765.168 497.26 764.784C496.108 764.336 494.956 764.112 493.804 764.112C492.14 764.112 490.764 764.4 489.676 764.976C488.652 765.488 487.884 766.256 487.372 767.28C486.86 768.304 486.604 769.52 486.604 770.928V822H479.116C477.516 822 476.076 822 474.796 822C473.516 822 472.428 822 471.532 822ZM462.604 785.52V772.848H501.292V785.52H462.604ZM519.724 822V771.024H535.18V822H519.724ZM527.404 760.56C524.524 760.56 522.284 759.888 520.684 758.544C519.084 757.136 518.284 755.152 518.284 752.592C518.284 750.288 519.084 748.4 520.684 746.928C522.348 745.456 524.588 744.72 527.404 744.72C530.284 744.72 532.524 745.424 534.124 746.832C535.724 748.176 536.524 750.096 536.524 752.592C536.524 754.96 535.692 756.88 534.028 758.352C532.428 759.824 530.22 760.56 527.404 760.56ZM560.049 822V771.024H574.641L575.121 782.928L571.473 783.984C572.305 781.488 573.713 779.184 575.697 777.072C577.745 774.96 580.209 773.264 583.089 771.984C586.033 770.64 589.201 769.968 592.593 769.968C596.945 769.968 600.625 770.832 603.633 772.56C606.641 774.288 608.913 776.752 610.449 779.952C611.985 783.088 612.753 786.832 612.753 791.184V822H597.297V793.392C597.297 791.152 596.881 789.264 596.049 787.728C595.281 786.192 594.097 785.008 592.497 784.176C590.961 783.344 589.169 782.928 587.121 782.928C585.329 782.928 583.697 783.248 582.225 783.888C580.817 784.464 579.601 785.264 578.577 786.288C577.553 787.248 576.753 788.336 576.177 789.552C575.665 790.768 575.409 792.016 575.409 793.296V822H567.825C565.713 822 564.017 822 562.737 822C561.457 822 560.561 822 560.049 822ZM655.66 823.056C650.668 823.056 646.284 821.936 642.508 819.696C638.732 817.392 635.788 814.256 633.676 810.288C631.564 806.256 630.508 801.68 630.508 796.56C630.508 791.44 631.596 786.896 633.772 782.928C635.948 778.896 638.956 775.728 642.796 773.424C646.7 771.12 651.18 769.968 656.236 769.968C659.052 769.968 661.676 770.352 664.108 771.12C666.54 771.824 668.716 772.784 670.636 774C672.62 775.216 674.188 776.624 675.34 778.224C676.556 779.76 677.26 781.328 677.452 782.928L673.804 783.792V750.96H689.26V822H674.956L674.092 809.616L677.164 810.384C676.972 811.984 676.268 813.552 675.052 815.088C673.836 816.56 672.236 817.904 670.252 819.12C668.332 820.272 666.124 821.232 663.628 822C661.132 822.704 658.476 823.056 655.66 823.056ZM659.98 810.096C662.86 810.096 665.356 809.52 667.468 808.368C669.644 807.216 671.308 805.648 672.46 803.664C673.612 801.616 674.188 799.248 674.188 796.56C674.188 793.808 673.612 791.44 672.46 789.456C671.308 787.408 669.644 785.84 667.468 784.752C665.356 783.6 662.86 783.024 659.98 783.024C657.1 783.024 654.604 783.6 652.492 784.752C650.38 785.84 648.716 787.408 647.5 789.456C646.348 791.44 645.772 793.808 645.772 796.56C645.772 799.248 646.348 801.616 647.5 803.664C648.716 805.648 650.38 807.216 652.492 808.368C654.604 809.52 657.1 810.096 659.98 810.096ZM769.946 822.864C764.89 822.864 760.474 821.744 756.698 819.504C752.922 817.264 749.946 814.16 747.77 810.192C745.658 806.16 744.602 801.584 744.602 796.464C744.602 791.28 745.69 786.704 747.866 782.736C750.042 778.768 753.05 775.664 756.89 773.424C760.794 771.12 765.274 769.968 770.33 769.968C773.21 769.968 775.866 770.352 778.298 771.12C780.73 771.824 782.842 772.816 784.634 774.096C786.49 775.376 787.994 776.784 789.146 778.32C790.362 779.856 791.162 781.456 791.546 783.12H788.186V771.024H803.354V822H787.898V808.944L791.162 809.424C790.778 811.088 789.978 812.72 788.762 814.32C787.546 815.92 785.978 817.36 784.058 818.64C782.138 819.92 779.962 820.944 777.53 821.712C775.162 822.48 772.634 822.864 769.946 822.864ZM774.074 809.904C776.954 809.904 779.45 809.36 781.562 808.272C783.738 807.184 785.402 805.648 786.554 803.664C787.77 801.616 788.378 799.216 788.378 796.464C788.378 793.776 787.77 791.44 786.554 789.456C785.402 787.408 783.738 785.808 781.562 784.656C779.45 783.504 776.954 782.928 774.074 782.928C771.194 782.928 768.698 783.504 766.586 784.656C764.474 785.808 762.81 787.408 761.594 789.456C760.442 791.44 759.866 793.776 759.866 796.464C759.866 799.216 760.442 801.616 761.594 803.664C762.81 805.648 764.474 807.184 766.586 808.272C768.698 809.36 771.194 809.904 774.074 809.904ZM865.674 822V771.024H880.266L880.938 788.592L877.29 786.768C878.122 783.632 879.562 780.816 881.61 778.32C883.722 775.76 886.122 773.744 888.81 772.272C891.562 770.736 894.474 769.968 897.546 769.968C899.21 769.968 900.778 770.128 902.25 770.448C903.786 770.768 905.098 771.184 906.186 771.696L901.962 788.496C901.002 787.792 899.69 787.248 898.026 786.864C896.426 786.48 894.794 786.288 893.13 786.288C891.274 786.288 889.578 786.608 888.042 787.248C886.57 787.824 885.322 788.656 884.298 789.744C883.274 790.768 882.474 791.952 881.898 793.296C881.386 794.64 881.13 796.08 881.13 797.616V822H865.674ZM946.804 822.96C940.852 822.96 935.572 821.808 930.964 819.504C926.356 817.2 922.74 814.064 920.116 810.096C917.492 806.128 916.18 801.584 916.18 796.464C916.18 791.344 917.492 786.8 920.116 782.832C922.74 778.864 926.356 775.728 930.964 773.424C935.572 771.12 940.852 769.968 946.804 769.968C952.692 769.968 957.908 771.12 962.452 773.424C967.06 775.728 970.676 778.864 973.3 782.832C975.924 786.8 977.236 791.344 977.236 796.464C977.236 801.584 975.924 806.128 973.3 810.096C970.676 814.064 967.06 817.2 962.452 819.504C957.908 821.808 952.692 822.96 946.804 822.96ZM946.804 809.712C949.556 809.712 952.052 809.136 954.292 807.984C956.596 806.832 958.388 805.264 959.668 803.28C961.012 801.296 961.652 799.024 961.588 796.464C961.652 793.904 961.012 791.6 959.668 789.552C958.388 787.504 956.596 785.936 954.292 784.848C952.052 783.696 949.556 783.12 946.804 783.12C943.988 783.12 941.396 783.696 939.028 784.848C936.724 786 934.932 787.568 933.652 789.552C932.372 791.536 931.732 793.84 931.732 796.464C931.732 799.024 932.372 801.296 933.652 803.28C934.932 805.264 936.724 806.832 939.028 807.984C941.396 809.136 943.988 809.712 946.804 809.712ZM1020.17 822.96C1014.54 822.96 1009.55 821.808 1005.2 819.504C1000.84 817.2 997.42 814.064 994.924 810.096C992.428 806.064 991.18 801.52 991.18 796.464C991.18 791.408 992.428 786.896 994.924 782.928C997.42 778.896 1000.81 775.728 1005.1 773.424C1009.39 771.12 1014.25 769.968 1019.69 769.968C1024.88 769.968 1029.61 770.768 1033.9 772.368C1038.19 773.904 1041.68 776.08 1044.36 778.896L1036.01 789.456C1034.86 788.368 1033.48 787.344 1031.88 786.384C1030.28 785.424 1028.56 784.688 1026.7 784.176C1024.91 783.6 1023.05 783.312 1021.13 783.312C1018.19 783.312 1015.6 783.888 1013.36 785.04C1011.18 786.128 1009.48 787.664 1008.27 789.648C1007.12 791.632 1006.54 793.904 1006.54 796.464C1006.54 798.896 1007.15 801.104 1008.36 803.088C1009.58 805.072 1011.28 806.64 1013.45 807.792C1015.63 808.944 1018.16 809.52 1021.04 809.52C1023.34 809.52 1025.39 809.296 1027.18 808.848C1028.97 808.4 1030.6 807.792 1032.08 807.024C1033.61 806.192 1034.92 805.264 1036.01 804.24L1044.36 814.704C1041.48 817.136 1037.96 819.12 1033.8 820.656C1029.64 822.192 1025.1 822.96 1020.17 822.96ZM1076.19 808.176L1071.2 796.656L1099.52 771.024H1119.97L1076.19 808.176ZM1062.08 822V750.96H1077.06V822H1062.08ZM1101.25 822L1080.42 796.464L1091.07 788.016L1119.39 822H1101.25ZM1159.51 822.96C1153.31 822.96 1147.87 821.84 1143.19 819.6C1138.59 817.296 1135 814.192 1132.44 810.288C1129.88 806.32 1128.6 801.808 1128.6 796.752C1128.6 792.72 1129.34 789.072 1130.81 785.808C1132.28 782.544 1134.33 779.728 1136.95 777.36C1139.58 774.992 1142.65 773.168 1146.17 771.888C1149.69 770.608 1153.5 769.968 1157.59 769.968C1161.56 769.968 1165.21 770.608 1168.54 771.888C1171.87 773.104 1174.75 774.864 1177.18 777.168C1179.67 779.472 1181.59 782.192 1182.94 785.328C1184.28 788.464 1184.89 791.92 1184.76 795.696L1184.67 800.016H1138.68L1136.47 791.088H1172.19L1170.55 793.008V791.088C1170.36 789.488 1169.66 788.048 1168.44 786.768C1167.29 785.488 1165.79 784.496 1163.93 783.792C1162.07 783.024 1160.03 782.64 1157.79 782.64C1154.91 782.64 1152.35 783.12 1150.11 784.08C1147.87 784.976 1146.11 786.384 1144.83 788.304C1143.61 790.224 1143 792.656 1143 795.6C1143 798.416 1143.74 800.88 1145.21 802.992C1146.75 805.104 1148.89 806.768 1151.64 807.984C1154.46 809.2 1157.75 809.808 1161.53 809.808C1164.79 809.808 1167.51 809.424 1169.69 808.656C1171.93 807.824 1173.95 806.8 1175.74 805.584L1182.65 815.568C1180.54 817.168 1178.2 818.544 1175.64 819.696C1173.15 820.784 1170.52 821.584 1167.77 822.096C1165.08 822.672 1162.33 822.96 1159.51 822.96ZM1208.82 822V757.008H1224.18V822H1208.82ZM1197.49 784.464V771.024H1237.14V784.464H1197.49Z" fill="white"/>
</g>
<defs>
<filter id="filter0_d_110_402" x="232" y="412" width="108" height="176" filterUnits="userSpaceOnUse" color-interpolation-filters="sRGB">
<feFlood flood-opacity="0" result="BackgroundImageFix"/>
<feColorMatrix in="SourceAlpha" type="matrix" values="0 0 0 0 0 0 0 0 0 0 0 0 0 0 0 0 0 0 127 0" result="hardAlpha"/>
<feOffset dy="4"/>
<feGaussianBlur stdDeviation="2"/>
<feComposite in2="hardAlpha" operator="out"/>
<feColorMatrix type="matrix" values="0 0 0 0 0 0 0 0 0 0 0 0 0 0 0 0 0 0 0.25 0"/>
<feBlend mode="normal" in2="BackgroundImageFix" result="effect1_dropShadow_110_402"/>
<feBlend mode="normal" in="SourceGraphic" in2="effect1_dropShadow_110_402" result="shape"/>
</filter>
<filter id="filter1_d_110_402" x="466" y="412" width="109" height="176" filterUnits="userSpaceOnUse" color-interpolation-filters="sRGB">
<feFlood flood-opacity="0" result="BackgroundImageFix"/>
<feColorMatrix in="SourceAlpha" type="matrix" values="0 0 0 0 0 0 0 0 0 0 0 0 0 0 0 0 0 0 127 0" result="hardAlpha"/>
<feOffset dy="4"/>
<feGaussianBlur stdDeviation="2"/>
<feComposite in2="hardAlpha" operator="out"/>
<feColorMatrix type="matrix" values="0 0 0 0 0 0 0 0 0 0 0 0 0 0 0 0 0 0 0.25 0"/>
<feBlend mode="normal" in2="BackgroundImageFix" result="effect1_dropShadow_110_402"/>
<feBlend mode="normal" in="SourceGraphic" in2="effect1_dropShadow_110_402" result="shape"/>
</filter>
<filter id="filter2_d_110_402" x="349" y="412" width="109" height="176" filterUnits="userSpaceOnUse" color-interpolation-filters="sRGB">
<feFlood flood-opacity="0" result="BackgroundImageFix"/>
<feColorMatrix in="SourceAlpha" type="matrix" values="0 0 0 0 0 0 0 0 0 0 0 0 0 0 0 0 0 0 127 0" result="hardAlpha"/>
<feOffset dy="4"/>
<feGaussianBlur stdDeviation="2"/>
<feComposite in2="hardAlpha" operator="out"/>
<feColorMatrix type="matrix" values="0 0 0 0 0 0 0 0 0 0 0 0 0 0 0 0 0 0 0.25 0"/>
<feBlend mode="normal" in2="BackgroundImageFix" result="effect1_dropShadow_110_402"/>
<feBlend mode="normal" in="SourceGraphic" in2="effect1_dropShadow_110_402" result="shape"/>
</filter>
<filter id="filter3_d_110_402" x="584" y="412" width="108" height="176" filterUnits="userSpaceOnUse" color-interpolation-filters="sRGB">
<feFlood flood-opacity="0" result="BackgroundImageFix"/>
<feColorMatrix in="SourceAlpha" type="matrix" values="0 0 0 0 0 0 0 0 0 0 0 0 0 0 0 0 0 0 127 0" result="hardAlpha"/>
<feOffset dy="4"/>
<feGaussianBlur stdDeviation="2"/>
<feComposite in2="hardAlpha" operator="out"/>
<feColorMatrix type="matrix" values="0 0 0 0 0 0 0 0 0 0 0 0 0 0 0 0 0 0 0.25 0"/>
<feBlend mode="normal" in2="BackgroundImageFix" result="effect1_dropShadow_110_402"/>
<feBlend mode="normal" in="SourceGraphic" in2="effect1_dropShadow_110_402" result="shape"/>
</filter>
<filter id="filter4_d_110_402" x="126" y="435" width="126" height="206" filterUnits="userSpaceOnUse" color-interpolation-filters="sRGB">
<feFlood flood-opacity="0" result="BackgroundImageFix"/>
<feColorMatrix in="SourceAlpha" type="matrix" values="0 0 0 0 0 0 0 0 0 0 0 0 0 0 0 0 0 0 127 0" result="hardAlpha"/>
<feOffset dy="4"/>
<feGaussianBlur stdDeviation="2"/>
<feComposite in2="hardAlpha" operator="out"/>
<feColorMatrix type="matrix" values="0 0 0 0 0 0 0 0 0 0 0 0 0 0 0 0 0 0 0.25 0"/>
<feBlend mode="normal" in2="BackgroundImageFix" result="effect1_dropShadow_110_402"/>
<feBlend mode="normal" in="SourceGraphic" in2="effect1_dropShadow_110_402" result="shape"/>
</filter>
<filter id="filter5_d_110_402" x="402" y="435" width="126" height="206" filterUnits="userSpaceOnUse" color-interpolation-filters="sRGB">
<feFlood flood-opacity="0" result="BackgroundImageFix"/>
<feColorMatrix in="SourceAlpha" type="matrix" values="0 0 0 0 0 0 0 0 0 0 0 0 0 0 0 0 0 0 127 0" result="hardAlpha"/>
<feOffset dy="4"/>
<feGaussianBlur stdDeviation="2"/>
<feComposite in2="hardAlpha" operator="out"/>
<feColorMatrix type="matrix" values="0 0 0 0 0 0 0 0 0 0 0 0 0 0 0 0 0 0 0.25 0"/>
<feBlend mode="normal" in2="BackgroundImageFix" result="effect1_dropShadow_110_402"/>
<feBlend mode="normal" in="SourceGraphic" in2="effect1_dropShadow_110_402" result="shape"/>
</filter>
<filter id="filter6_d_110_402" x="264" y="435" width="126" height="206" filterUnits="userSpaceOnUse" color-interpolation-filters="sRGB">
<feFlood flood-opacity="0" result="BackgroundImageFix"/>
<feColorMatrix in="SourceAlpha" type="matrix" values="0 0 0 0 0 0 0 0 0 0 0 0 0 0 0 0 0 0 127 0" result="hardAlpha"/>
<feOffset dy="4"/>
<feGaussianBlur stdDeviation="2"/>
<feComposite in2="hardAlpha" operator="out"/>
<feColorMatrix type="matrix" values="0 0 0 0 0 0 0 0 0 0 0 0 0 0 0 0 0 0 0.25 0"/>
<feBlend mode="normal" in2="BackgroundImageFix" result="effect1_dropShadow_110_402"/>
<feBlend mode="normal" in="SourceGraphic" in2="effect1_dropShadow_110_402" result="shape"/>
</filter>
<filter id="filter7_d_110_402" x="322" y="481" width="126" height="206" filterUnits="userSpaceOnUse" color-interpolation-filters="sRGB">
<feFlood flood-opacity="0" result="BackgroundImageFix"/>
<feColorMatrix in="SourceAlpha" type="matrix" values="0 0 0 0 0 0 0 0 0 0 0 0 0 0 0 0 0 0 127 0" result="hardAlpha"/>
<feOffset dy="4"/>
<feGaussianBlur stdDeviation="2"/>
<feComposite in2="hardAlpha" operator="out"/>
<feColorMatrix type="matrix" values="0 0 0 0 0 0 0 0 0 0 0 0 0 0 0 0 0 0 0.25 0"/>
<feBlend mode="normal" in2="BackgroundImageFix" result="effect1_dropShadow_110_402"/>
<feBlend mode="normal" in="SourceGraphic" in2="effect1_dropShadow_110_402" result="shape"/>
</filter>
<filter id="filter8_d_110_402" x="540" y="435" width="126" height="206" filterUnits="userSpaceOnUse" color-interpolation-filters="sRGB">
<feFlood flood-opacity="0" result="BackgroundImageFix"/>
<feColorMatrix in="SourceAlpha" type="matrix" values="0 0 0 0 0 0 0 0 0 0 0 0 0 0 0 0 0 0 127 0" result="hardAlpha"/>
<feOffset dy="4"/>
<feGaussianBlur stdDeviation="2"/>
<feComposite in2="hardAlpha" operator="out"/>
<feColorMatrix type="matrix" values="0 0 0 0 0 0 0 0 0 0 0 0 0 0 0 0 0 0 0.25 0"/>
<feBlend mode="normal" in2="BackgroundImageFix" result="effect1_dropShadow_110_402"/>
<feBlend mode="normal" in="SourceGraphic" in2="effect1_dropShadow_110_402" result="shape"/>
</filter>
<filter id="filter9_d_110_402" x="184" y="481" width="126" height="206" filterUnits="userSpaceOnUse" color-interpolation-filters="sRGB">
<feFlood flood-opacity="0" result="BackgroundImageFix"/>
<feColorMatrix in="SourceAlpha" type="matrix" values="0 0 0 0 0 0 0 0 0 0 0 0 0 0 0 0 0 0 127 0" result="hardAlpha"/>
<feOffset dy="4"/>
<feGaussianBlur stdDeviation="2"/>
<feComposite in2="hardAlpha" operator="out"/>
<feColorMatrix type="matrix" values="0 0 0 0 0 0 0 0 0 0 0 0 0 0 0 0 0 0 0.25 0"/>
<feBlend mode="normal" in2="BackgroundImageFix" result="effect1_dropShadow_110_402"/>
<feBlend mode="normal" in="SourceGraphic" in2="effect1_dropShadow_110_402" result="shape"/>
</filter>
<filter id="filter10_d_110_402" x="460" y="481" width="126" height="206" filterUnits="userSpaceOnUse" color-interpolation-filters="sRGB">
<feFlood flood-opacity="0" result="BackgroundImageFix"/>
<feColorMatrix in="SourceAlpha" type="matrix" values="0 0 0 0 0 0 0 0 0 0 0 0 0 0 0 0 0 0 127 0" result="hardAlpha"/>
<feOffset dy="4"/>
<feGaussianBlur stdDeviation="2"/>
<feComposite in2="hardAlpha" operator="out"/>
<feColorMatrix type="matrix" values="0 0 0 0 0 0 0 0 0 0 0 0 0 0 0 0 0 0 0.25 0"/>
<feBlend mode="normal" in2="BackgroundImageFix" result="effect1_dropShadow_110_402"/>
<feBlend mode="normal" in="SourceGraphic" in2="effect1_dropShadow_110_402" result="shape"/>
</filter>
<filter id="filter11_d_110_402" x="598" y="481" width="126" height="206" filterUnits="userSpaceOnUse" color-interpolation-filters="sRGB">
<feFlood flood-opacity="0" result="BackgroundImageFix"/>
<feColorMatrix in="SourceAlpha" type="matrix" values="0 0 0 0 0 0 0 0 0 0 0 0 0 0 0 0 0 0 127 0" result="hardAlpha"/>
<feOffset dy="4"/>
<feGaussianBlur stdDeviation="2"/>
<feComposite in2="hardAlpha" operator="out"/>
<feColorMatrix type="matrix" values="0 0 0 0 0 0 0 0 0 0 0 0 0 0 0 0 0 0 0.25 0"/>
<feBlend mode="normal" in2="BackgroundImageFix" result="effect1_dropShadow_110_402"/>
<feBlend mode="normal" in="SourceGraphic" in2="effect1_dropShadow_110_402" result="shape"/>
</filter>
<clipPath id="clip0_110_402">
<rect width="1440" height="1024" fill="white"/>
</clipPath>
</defs>
</svg>
