<svg width="1440" height="1024" viewBox="0 0 1440 1024" fill="none" xmlns="http://www.w3.org/2000/svg">
<g id="listen3-no-planning-no">
<rect width="1440" height="1024" fill="#333148"/>
<path id="part 4" d="M47.096 132.12V60.024H61.688L62.264 71.448L59.384 70.584C59.832 68.536 61.048 66.648 63.032 64.92C65.016 63.192 67.512 61.784 70.52 60.696C73.592 59.608 76.856 59.064 80.312 59.064C85.304 59.064 89.688 60.216 93.464 62.52C97.24 64.76 100.184 67.864 102.296 71.832C104.472 75.736 105.56 80.28 105.56 85.464C105.56 90.584 104.472 95.128 102.296 99.096C100.184 103.064 97.208 106.2 93.368 108.504C89.528 110.744 85.112 111.864 80.12 111.864C76.664 111.864 73.432 111.288 70.424 110.136C67.416 108.984 64.888 107.48 62.84 105.624C60.856 103.768 59.576 101.816 59 99.768L62.552 98.424V132.12H47.096ZM76.376 98.904C79.256 98.904 81.752 98.36 83.864 97.272C85.976 96.12 87.608 94.552 88.76 92.568C89.976 90.584 90.584 88.216 90.584 85.464C90.584 82.776 89.976 80.44 88.76 78.456C87.608 76.408 85.976 74.84 83.864 73.752C81.816 72.6 79.32 72.024 76.376 72.024C73.496 72.024 70.968 72.568 68.792 73.656C66.68 74.744 65.016 76.312 63.8 78.36C62.648 80.408 62.072 82.776 62.072 85.464C62.072 88.216 62.648 90.584 63.8 92.568C65.016 94.552 66.68 96.12 68.792 97.272C70.968 98.36 73.496 98.904 76.376 98.904ZM144.211 111.864C139.155 111.864 134.739 110.744 130.963 108.504C127.187 106.264 124.211 103.16 122.035 99.192C119.923 95.16 118.867 90.584 118.867 85.464C118.867 80.28 119.955 75.704 122.131 71.736C124.307 67.768 127.315 64.664 131.155 62.424C135.059 60.12 139.539 58.968 144.595 58.968C147.475 58.968 150.131 59.352 152.563 60.12C154.995 60.824 157.107 61.816 158.899 63.096C160.755 64.376 162.259 65.784 163.411 67.32C164.627 68.856 165.427 70.456 165.811 72.12H162.451V60.024H177.619V111H162.163V97.944L165.427 98.424C165.043 100.088 164.243 101.72 163.027 103.32C161.811 104.92 160.243 106.36 158.323 107.64C156.403 108.92 154.227 109.944 151.795 110.712C149.427 111.48 146.899 111.864 144.211 111.864ZM148.339 98.904C151.219 98.904 153.715 98.36 155.827 97.272C158.003 96.184 159.667 94.648 160.819 92.664C162.035 90.616 162.643 88.216 162.643 85.464C162.643 82.776 162.035 80.44 160.819 78.456C159.667 76.408 158.003 74.808 155.827 73.656C153.715 72.504 151.219 71.928 148.339 71.928C145.459 71.928 142.963 72.504 140.851 73.656C138.739 74.808 137.075 76.408 135.859 78.456C134.707 80.44 134.131 82.776 134.131 85.464C134.131 88.216 134.707 90.616 135.859 92.664C137.075 94.648 138.739 96.184 140.851 97.272C142.963 98.36 145.459 98.904 148.339 98.904ZM201.315 111V60.024H215.907L216.579 77.592L212.931 75.768C213.763 72.632 215.203 69.816 217.251 67.32C219.363 64.76 221.763 62.744 224.451 61.272C227.203 59.736 230.115 58.968 233.187 58.968C234.851 58.968 236.419 59.128 237.891 59.448C239.427 59.768 240.739 60.184 241.827 60.696L237.603 77.496C236.643 76.792 235.331 76.248 233.667 75.864C232.067 75.48 230.435 75.288 228.771 75.288C226.915 75.288 225.219 75.608 223.683 76.248C222.211 76.824 220.963 77.656 219.939 78.744C218.915 79.768 218.115 80.952 217.539 82.296C217.027 83.64 216.771 85.08 216.771 86.616V111H201.315ZM265.932 111V46.008H281.292V111H265.932ZM254.604 73.464V60.024H294.252V73.464H254.604ZM377.032 111V53.304H387.112L357.544 88.248L355.624 83.736H405.256V96.984H349.48L343.048 84.6L378.856 43.224H392.776V111H377.032Z" fill="white"/>
<rect id="Rectangle 7" y="546" width="1440" height="185" fill="#211F2F"/>
<g id="Group 4">
<g id="Vector" filter="url(#filter0_d_110_381)">
<path d="M559.246 486.996C564.515 463.672 597.714 463.672 602.983 486.996L611.541 524.874C614.712 538.912 604.05 552.267 589.672 552.267H572.557C558.179 552.267 547.517 538.912 550.688 524.874L559.246 486.996Z" fill="#3B5EC6"/>
<path d="M604.816 436.046C604.816 449.326 594.061 460.092 580.794 460.092C567.527 460.092 556.772 449.326 556.772 436.046C556.772 422.766 567.527 412 580.794 412C594.061 412 604.816 422.766 604.816 436.046Z" fill="#3B5EC6"/>
<path d="M585.599 540.565C585.599 534.013 590.904 528.702 597.45 528.702C603.995 528.702 609.3 534.013 609.3 540.565V568.137C609.3 574.689 603.995 580 597.45 580C590.904 580 585.599 574.689 585.599 568.137V540.565Z" fill="#3B5EC6"/>
<path d="M594.867 494.609C591.517 488.981 593.36 481.7 598.982 478.347C604.605 474.993 611.879 476.837 615.229 482.466L629.328 506.153C632.678 511.781 630.836 519.062 625.213 522.415C619.59 525.769 612.316 523.925 608.966 518.296L594.867 494.609Z" fill="#3B5EC6"/>
<path d="M546.362 482.548C549.635 476.874 556.883 474.93 562.551 478.206C568.219 481.482 570.161 488.737 566.889 494.411L553.116 518.289C549.844 523.963 542.596 525.907 536.927 522.631C531.259 519.355 529.317 512.1 532.59 506.427L546.362 482.548Z" fill="#3B5EC6"/>
<path d="M552.288 540.565C552.288 534.013 557.594 528.702 564.139 528.702C570.684 528.702 575.99 534.013 575.99 540.565V568.137C575.99 574.689 570.684 580 564.139 580C557.594 580 552.288 574.689 552.288 568.137V540.565Z" fill="#3B5EC6"/>
</g>
<g id="Vector_2" filter="url(#filter1_d_110_381)">
<path d="M793.528 486.996C798.85 463.672 832.381 463.672 837.703 486.996L846.346 524.874C849.549 538.912 838.78 552.267 824.259 552.267H806.972C792.451 552.267 781.682 538.912 784.885 524.874L793.528 486.996Z" fill="#3B5EC6"/>
<path d="M839.555 436.046C839.555 449.326 828.692 460.092 815.292 460.092C801.892 460.092 791.03 449.326 791.03 436.046C791.03 422.766 801.892 412 815.292 412C828.692 412 839.555 422.766 839.555 436.046Z" fill="#3B5EC6"/>
<path d="M820.145 540.565C820.145 534.013 825.504 528.702 832.114 528.702C838.725 528.702 844.083 534.013 844.083 540.565V568.137C844.083 574.689 838.725 580 832.114 580C825.504 580 820.145 574.689 820.145 568.137V540.565Z" fill="#3B5EC6"/>
<path d="M829.506 494.609C826.123 488.981 827.983 481.7 833.662 478.347C839.341 474.993 846.688 476.837 850.071 482.466L864.311 506.153C867.695 511.781 865.834 519.062 860.155 522.415C854.476 525.769 847.13 523.925 843.746 518.296L829.506 494.609Z" fill="#3B5EC6"/>
<path d="M780.516 482.548C783.821 476.874 791.142 474.93 796.867 478.206C802.591 481.482 804.553 488.737 801.248 494.411L787.337 518.289C784.032 523.963 776.712 525.907 770.987 522.631C765.262 519.355 763.3 512.1 766.606 506.427L780.516 482.548Z" fill="#3B5EC6"/>
<path d="M786.501 540.565C786.501 534.013 791.86 528.702 798.47 528.702C805.081 528.702 810.44 534.013 810.44 540.565V568.137C810.44 574.689 805.081 580 798.47 580C791.86 580 786.501 574.689 786.501 568.137V540.565Z" fill="#3B5EC6"/>
</g>
<g id="Vector_3" filter="url(#filter2_d_110_381)">
<path d="M676.528 486.996C681.85 463.672 715.381 463.672 720.703 486.996L729.346 524.874C732.549 538.912 721.78 552.267 707.259 552.267H689.972C675.451 552.267 664.682 538.912 667.885 524.874L676.528 486.996Z" fill="#3B5EC6"/>
<path d="M722.555 436.046C722.555 449.326 711.692 460.092 698.292 460.092C684.892 460.092 674.03 449.326 674.03 436.046C674.03 422.766 684.892 412 698.292 412C711.692 412 722.555 422.766 722.555 436.046Z" fill="#3B5EC6"/>
<path d="M703.145 540.565C703.145 534.013 708.504 528.702 715.114 528.702C721.725 528.702 727.083 534.013 727.083 540.565V568.137C727.083 574.689 721.725 580 715.114 580C708.504 580 703.145 574.689 703.145 568.137V540.565Z" fill="#3B5EC6"/>
<path d="M712.506 494.609C709.123 488.981 710.983 481.7 716.662 478.347C722.341 474.993 729.688 476.837 733.071 482.466L747.311 506.153C750.695 511.781 748.834 519.062 743.155 522.415C737.476 525.769 730.13 523.925 726.746 518.296L712.506 494.609Z" fill="#3B5EC6"/>
<path d="M663.516 482.548C666.821 476.874 674.142 474.93 679.867 478.206C685.591 481.482 687.553 488.737 684.248 494.411L670.337 518.289C667.032 523.963 659.712 525.907 653.987 522.631C648.262 519.355 646.3 512.1 649.606 506.427L663.516 482.548Z" fill="#3B5EC6"/>
<path d="M669.501 540.565C669.501 534.013 674.86 528.702 681.47 528.702C688.081 528.702 693.44 534.013 693.44 540.565V568.137C693.44 574.689 688.081 580 681.47 580C674.86 580 669.501 574.689 669.501 568.137V540.565Z" fill="#3B5EC6"/>
</g>
<g id="Vector_4" filter="url(#filter3_d_110_381)">
<path d="M911.246 486.996C916.515 463.672 949.714 463.672 954.983 486.996L963.541 524.874C966.712 538.912 956.05 552.267 941.672 552.267H924.557C910.179 552.267 899.517 538.912 902.688 524.874L911.246 486.996Z" fill="#3B5EC6"/>
<path d="M956.816 436.046C956.816 449.326 946.061 460.092 932.794 460.092C919.527 460.092 908.772 449.326 908.772 436.046C908.772 422.766 919.527 412 932.794 412C946.061 412 956.816 422.766 956.816 436.046Z" fill="#3B5EC6"/>
<path d="M937.599 540.565C937.599 534.013 942.904 528.702 949.45 528.702C955.995 528.702 961.3 534.013 961.3 540.565V568.137C961.3 574.689 955.995 580 949.45 580C942.904 580 937.599 574.689 937.599 568.137V540.565Z" fill="#3B5EC6"/>
<path d="M946.867 494.609C943.517 488.981 945.36 481.7 950.982 478.347C956.605 474.993 963.879 476.837 967.229 482.466L981.328 506.153C984.678 511.781 982.836 519.062 977.213 522.415C971.59 525.769 964.316 523.925 960.966 518.296L946.867 494.609Z" fill="#3B5EC6"/>
<path d="M898.362 482.548C901.635 476.874 908.883 474.93 914.551 478.206C920.219 481.482 922.161 488.737 918.889 494.411L905.116 518.289C901.844 523.963 894.596 525.907 888.927 522.631C883.259 519.355 881.317 512.1 884.59 506.427L898.362 482.548Z" fill="#3B5EC6"/>
<path d="M904.288 540.565C904.288 534.013 909.594 528.702 916.139 528.702C922.684 528.702 927.99 534.013 927.99 540.565V568.137C927.99 574.689 922.684 580 916.139 580C909.594 580 904.288 574.689 904.288 568.137V540.565Z" fill="#3B5EC6"/>
</g>
<g id="Vector_5" filter="url(#filter4_d_110_381)">
<path d="M458.33 523.388C464.548 495.899 503.722 495.899 509.94 523.388L520.038 568.03C523.78 584.575 511.199 600.315 494.233 600.315H474.037C457.071 600.315 444.49 584.575 448.232 568.03L458.33 523.388Z" fill="#6A94E0"/>
<path d="M512.103 463.34C512.103 478.991 499.412 491.679 483.757 491.679C468.102 491.679 455.411 478.991 455.411 463.34C455.411 447.688 468.102 435 483.757 435C499.412 435 512.103 447.688 512.103 463.34Z" fill="#6A94E0"/>
<path d="M489.426 586.523C489.426 578.801 495.687 572.542 503.41 572.542C511.134 572.542 517.395 578.801 517.395 586.523V619.019C517.395 626.741 511.134 633 503.41 633C495.687 633 489.426 626.741 489.426 619.019V586.523Z" fill="#6A94E0"/>
<path d="M500.364 532.361C496.41 525.728 498.584 517.146 505.219 513.194C511.854 509.242 520.437 511.416 524.39 518.049L541.027 545.966C544.98 552.599 542.806 561.18 536.171 565.132C529.537 569.085 520.953 566.911 517 560.278L500.364 532.361Z" fill="#6A94E0"/>
<path d="M443.128 518.146C446.989 511.459 455.542 509.168 462.23 513.029C468.919 516.889 471.21 525.44 467.349 532.127L451.097 560.269C447.235 566.956 438.683 569.248 431.994 565.387C425.306 561.526 423.014 552.975 426.876 546.289L443.128 518.146Z" fill="#6A94E0"/>
<path d="M450.12 586.523C450.12 578.801 456.381 572.542 464.104 572.542C471.827 572.542 478.088 578.801 478.088 586.523V619.019C478.088 626.741 471.827 633 464.104 633C456.381 633 450.12 626.741 450.12 619.019V586.523Z" fill="#6A94E0"/>
</g>
<g id="Vector_6" filter="url(#filter5_d_110_381)">
<path d="M734.33 523.388C740.548 495.899 779.722 495.899 785.94 523.388L796.038 568.03C799.78 584.575 787.199 600.315 770.233 600.315H750.037C733.071 600.315 720.49 584.575 724.232 568.03L734.33 523.388Z" fill="#6A94E0"/>
<path d="M788.103 463.34C788.103 478.991 775.412 491.679 759.757 491.679C744.102 491.679 731.411 478.991 731.411 463.34C731.411 447.688 744.102 435 759.757 435C775.412 435 788.103 447.688 788.103 463.34Z" fill="#6A94E0"/>
<path d="M765.426 586.523C765.426 578.801 771.687 572.542 779.41 572.542C787.134 572.542 793.395 578.801 793.395 586.523V619.019C793.395 626.741 787.134 633 779.41 633C771.687 633 765.426 626.741 765.426 619.019V586.523Z" fill="#6A94E0"/>
<path d="M776.364 532.361C772.41 525.728 774.584 517.146 781.219 513.194C787.854 509.242 796.437 511.416 800.39 518.049L817.027 545.966C820.98 552.599 818.806 561.18 812.171 565.132C805.537 569.085 796.953 566.911 793 560.278L776.364 532.361Z" fill="#6A94E0"/>
<path d="M719.128 518.146C722.989 511.459 731.542 509.168 738.23 513.029C744.919 516.889 747.21 525.44 743.349 532.127L727.097 560.269C723.235 566.956 714.683 569.248 707.994 565.387C701.306 561.526 699.014 552.975 702.876 546.289L719.128 518.146Z" fill="#6A94E0"/>
<path d="M726.12 586.523C726.12 578.801 732.381 572.542 740.104 572.542C747.827 572.542 754.088 578.801 754.088 586.523V619.019C754.088 626.741 747.827 633 740.104 633C732.381 633 726.12 626.741 726.12 619.019V586.523Z" fill="#6A94E0"/>
</g>
<g id="Vector_7" filter="url(#filter6_d_110_381)">
<path d="M596.33 523.388C602.548 495.899 641.722 495.899 647.94 523.388L658.038 568.03C661.78 584.575 649.199 600.315 632.233 600.315H612.037C595.071 600.315 582.49 584.575 586.232 568.03L596.33 523.388Z" fill="#6A94E0"/>
<path d="M650.103 463.34C650.103 478.991 637.412 491.679 621.757 491.679C606.102 491.679 593.411 478.991 593.411 463.34C593.411 447.688 606.102 435 621.757 435C637.412 435 650.103 447.688 650.103 463.34Z" fill="#6A94E0"/>
<path d="M627.426 586.523C627.426 578.801 633.687 572.542 641.41 572.542C649.134 572.542 655.395 578.801 655.395 586.523V619.019C655.395 626.741 649.134 633 641.41 633C633.687 633 627.426 626.741 627.426 619.019V586.523Z" fill="#6A94E0"/>
<path d="M638.364 532.361C634.41 525.728 636.584 517.146 643.219 513.194C649.854 509.242 658.437 511.416 662.39 518.049L679.027 545.966C682.98 552.599 680.806 561.18 674.171 565.132C667.537 569.085 658.953 566.911 655 560.278L638.364 532.361Z" fill="#6A94E0"/>
<path d="M581.128 518.146C584.989 511.459 593.542 509.168 600.23 513.029C606.919 516.889 609.21 525.44 605.349 532.127L589.097 560.269C585.235 566.956 576.683 569.248 569.994 565.387C563.306 561.526 561.014 552.975 564.876 546.289L581.128 518.146Z" fill="#6A94E0"/>
<path d="M588.12 586.523C588.12 578.801 594.381 572.542 602.104 572.542C609.827 572.542 616.088 578.801 616.088 586.523V619.019C616.088 626.741 609.827 633 602.104 633C594.381 633 588.12 626.741 588.12 619.019V586.523Z" fill="#6A94E0"/>
</g>
<g id="Vector_8" filter="url(#filter7_d_110_381)">
<path d="M654.33 569.388C660.548 541.899 699.722 541.899 705.94 569.388L716.038 614.03C719.78 630.575 707.199 646.315 690.233 646.315H670.037C653.071 646.315 640.49 630.575 644.232 614.03L654.33 569.388Z" fill="#8DBBFB"/>
<path d="M708.103 509.34C708.103 524.991 695.412 537.679 679.757 537.679C664.102 537.679 651.411 524.991 651.411 509.34C651.411 493.688 664.102 481 679.757 481C695.412 481 708.103 493.688 708.103 509.34Z" fill="#8DBBFB"/>
<path d="M685.426 632.523C685.426 624.801 691.687 618.542 699.41 618.542C707.134 618.542 713.395 624.801 713.395 632.523V665.019C713.395 672.741 707.134 679 699.41 679C691.687 679 685.426 672.741 685.426 665.019V632.523Z" fill="#8DBBFB"/>
<path d="M696.364 578.361C692.41 571.728 694.584 563.146 701.219 559.194C707.854 555.242 716.437 557.416 720.39 564.049L737.027 591.966C740.98 598.599 738.806 607.18 732.171 611.132C725.537 615.085 716.953 612.911 713 606.278L696.364 578.361Z" fill="#8DBBFB"/>
<path d="M639.128 564.146C642.989 557.459 651.542 555.168 658.23 559.029C664.919 562.889 667.21 571.44 663.349 578.127L647.097 606.269C643.235 612.956 634.683 615.248 627.994 611.387C621.306 607.526 619.014 598.975 622.876 592.289L639.128 564.146Z" fill="#8DBBFB"/>
<path d="M646.12 632.523C646.12 624.801 652.381 618.542 660.104 618.542C667.827 618.542 674.088 624.801 674.088 632.523V665.019C674.088 672.741 667.827 679 660.104 679C652.381 679 646.12 672.741 646.12 665.019V632.523Z" fill="#8DBBFB"/>
</g>
<g id="Vector_9" filter="url(#filter8_d_110_381)">
<path d="M872.33 523.388C878.548 495.899 917.722 495.899 923.94 523.388L934.038 568.03C937.78 584.575 925.199 600.315 908.233 600.315H888.037C871.071 600.315 858.49 584.575 862.232 568.03L872.33 523.388Z" fill="#6A94E0"/>
<path d="M926.103 463.34C926.103 478.991 913.412 491.679 897.757 491.679C882.102 491.679 869.411 478.991 869.411 463.34C869.411 447.688 882.102 435 897.757 435C913.412 435 926.103 447.688 926.103 463.34Z" fill="#6A94E0"/>
<path d="M903.426 586.523C903.426 578.801 909.687 572.542 917.41 572.542C925.134 572.542 931.395 578.801 931.395 586.523V619.019C931.395 626.741 925.134 633 917.41 633C909.687 633 903.426 626.741 903.426 619.019V586.523Z" fill="#6A94E0"/>
<path d="M914.364 532.361C910.41 525.728 912.584 517.146 919.219 513.194C925.854 509.242 934.437 511.416 938.39 518.049L955.027 545.966C958.98 552.599 956.806 561.18 950.171 565.132C943.537 569.085 934.953 566.911 931 560.278L914.364 532.361Z" fill="#6A94E0"/>
<path d="M857.128 518.146C860.989 511.459 869.542 509.168 876.23 513.029C882.919 516.889 885.21 525.44 881.349 532.127L865.097 560.269C861.235 566.956 852.683 569.248 845.994 565.387C839.306 561.526 837.014 552.975 840.876 546.289L857.128 518.146Z" fill="#6A94E0"/>
<path d="M864.12 586.523C864.12 578.801 870.381 572.542 878.104 572.542C885.827 572.542 892.088 578.801 892.088 586.523V619.019C892.088 626.741 885.827 633 878.104 633C870.381 633 864.12 626.741 864.12 619.019V586.523Z" fill="#6A94E0"/>
</g>
<g id="Vector_10" filter="url(#filter9_d_110_381)">
<path d="M516.33 569.388C522.548 541.899 561.722 541.899 567.94 569.388L578.038 614.03C581.78 630.575 569.199 646.315 552.233 646.315H532.037C515.071 646.315 502.49 630.575 506.232 614.03L516.33 569.388Z" fill="#8DBBFB"/>
<path d="M570.103 509.34C570.103 524.991 557.412 537.679 541.757 537.679C526.102 537.679 513.411 524.991 513.411 509.34C513.411 493.688 526.102 481 541.757 481C557.412 481 570.103 493.688 570.103 509.34Z" fill="#8DBBFB"/>
<path d="M547.426 632.523C547.426 624.801 553.687 618.542 561.41 618.542C569.134 618.542 575.395 624.801 575.395 632.523V665.019C575.395 672.741 569.134 679 561.41 679C553.687 679 547.426 672.741 547.426 665.019V632.523Z" fill="#8DBBFB"/>
<path d="M558.364 578.361C554.41 571.728 556.584 563.146 563.219 559.194C569.854 555.242 578.437 557.416 582.39 564.049L599.027 591.966C602.98 598.599 600.806 607.18 594.171 611.132C587.537 615.085 578.953 612.911 575 606.278L558.364 578.361Z" fill="#8DBBFB"/>
<path d="M501.128 564.146C504.989 557.459 513.542 555.168 520.23 559.029C526.919 562.889 529.21 571.44 525.349 578.127L509.097 606.269C505.235 612.956 496.683 615.248 489.994 611.387C483.306 607.526 481.014 598.975 484.876 592.289L501.128 564.146Z" fill="#8DBBFB"/>
<path d="M508.12 632.523C508.12 624.801 514.381 618.542 522.104 618.542C529.827 618.542 536.088 624.801 536.088 632.523V665.019C536.088 672.741 529.827 679 522.104 679C514.381 679 508.12 672.741 508.12 665.019V632.523Z" fill="#8DBBFB"/>
</g>
<g id="Vector_11" filter="url(#filter10_d_110_381)">
<path d="M792.33 569.388C798.548 541.899 837.722 541.899 843.94 569.388L854.038 614.03C857.78 630.575 845.199 646.315 828.233 646.315H808.037C791.071 646.315 778.49 630.575 782.232 614.03L792.33 569.388Z" fill="#8DBBFB"/>
<path d="M846.103 509.34C846.103 524.991 833.412 537.679 817.757 537.679C802.102 537.679 789.411 524.991 789.411 509.34C789.411 493.688 802.102 481 817.757 481C833.412 481 846.103 493.688 846.103 509.34Z" fill="#8DBBFB"/>
<path d="M823.426 632.523C823.426 624.801 829.687 618.542 837.41 618.542C845.134 618.542 851.395 624.801 851.395 632.523V665.019C851.395 672.741 845.134 679 837.41 679C829.687 679 823.426 672.741 823.426 665.019V632.523Z" fill="#8DBBFB"/>
<path d="M834.364 578.361C830.41 571.728 832.584 563.146 839.219 559.194C845.854 555.242 854.437 557.416 858.39 564.049L875.027 591.966C878.98 598.599 876.806 607.18 870.171 611.132C863.537 615.085 854.953 612.911 851 606.278L834.364 578.361Z" fill="#8DBBFB"/>
<path d="M777.128 564.146C780.989 557.459 789.542 555.168 796.23 559.029C802.919 562.889 805.21 571.44 801.349 578.127L785.097 606.269C781.235 612.956 772.683 615.248 765.994 611.387C759.306 607.526 757.014 598.975 760.876 592.289L777.128 564.146Z" fill="#8DBBFB"/>
<path d="M784.12 632.523C784.12 624.801 790.381 618.542 798.104 618.542C805.827 618.542 812.088 624.801 812.088 632.523V665.019C812.088 672.741 805.827 679 798.104 679C790.381 679 784.12 672.741 784.12 665.019V632.523Z" fill="#8DBBFB"/>
</g>
<g id="Vector_12" filter="url(#filter11_d_110_381)">
<path d="M930.33 569.388C936.548 541.899 975.722 541.899 981.94 569.388L992.038 614.03C995.78 630.575 983.199 646.315 966.233 646.315H946.037C929.071 646.315 916.49 630.575 920.232 614.03L930.33 569.388Z" fill="#8DBBFB"/>
<path d="M984.103 509.34C984.103 524.991 971.412 537.679 955.757 537.679C940.102 537.679 927.411 524.991 927.411 509.34C927.411 493.688 940.102 481 955.757 481C971.412 481 984.103 493.688 984.103 509.34Z" fill="#8DBBFB"/>
<path d="M961.426 632.523C961.426 624.801 967.687 618.542 975.41 618.542C983.134 618.542 989.395 624.801 989.395 632.523V665.019C989.395 672.741 983.134 679 975.41 679C967.687 679 961.426 672.741 961.426 665.019V632.523Z" fill="#8DBBFB"/>
<path d="M972.364 578.361C968.41 571.728 970.584 563.146 977.219 559.194C983.854 555.242 992.437 557.416 996.39 564.049L1013.03 591.966C1016.98 598.599 1014.81 607.18 1008.17 611.132C1001.54 615.085 992.953 612.911 989 606.278L972.364 578.361Z" fill="#8DBBFB"/>
<path d="M915.128 564.146C918.989 557.459 927.542 555.168 934.23 559.029C940.919 562.889 943.21 571.44 939.349 578.127L923.097 606.269C919.235 612.956 910.683 615.248 903.994 611.387C897.306 607.526 895.014 598.975 898.876 592.289L915.128 564.146Z" fill="#8DBBFB"/>
<path d="M922.12 632.523C922.12 624.801 928.381 618.542 936.104 618.542C943.827 618.542 950.088 624.801 950.088 632.523V665.019C950.088 672.741 943.827 679 936.104 679C928.381 679 922.12 672.741 922.12 665.019V632.523Z" fill="#8DBBFB"/>
</g>
</g>
</g>
<defs>
<filter id="filter0_d_110_381" x="527" y="412" width="108" height="176" filterUnits="userSpaceOnUse" color-interpolation-filters="sRGB">
<feFlood flood-opacity="0" result="BackgroundImageFix"/>
<feColorMatrix in="SourceAlpha" type="matrix" values="0 0 0 0 0 0 0 0 0 0 0 0 0 0 0 0 0 0 127 0" result="hardAlpha"/>
<feOffset dy="4"/>
<feGaussianBlur stdDeviation="2"/>
<feComposite in2="hardAlpha" operator="out"/>
<feColorMatrix type="matrix" values="0 0 0 0 0 0 0 0 0 0 0 0 0 0 0 0 0 0 0.25 0"/>
<feBlend mode="normal" in2="BackgroundImageFix" result="effect1_dropShadow_110_381"/>
<feBlend mode="normal" in="SourceGraphic" in2="effect1_dropShadow_110_381" result="shape"/>
</filter>
<filter id="filter1_d_110_381" x="761" y="412" width="109" height="176" filterUnits="userSpaceOnUse" color-interpolation-filters="sRGB">
<feFlood flood-opacity="0" result="BackgroundImageFix"/>
<feColorMatrix in="SourceAlpha" type="matrix" values="0 0 0 0 0 0 0 0 0 0 0 0 0 0 0 0 0 0 127 0" result="hardAlpha"/>
<feOffset dy="4"/>
<feGaussianBlur stdDeviation="2"/>
<feComposite in2="hardAlpha" operator="out"/>
<feColorMatrix type="matrix" values="0 0 0 0 0 0 0 0 0 0 0 0 0 0 0 0 0 0 0.25 0"/>
<feBlend mode="normal" in2="BackgroundImageFix" result="effect1_dropShadow_110_381"/>
<feBlend mode="normal" in="SourceGraphic" in2="effect1_dropShadow_110_381" result="shape"/>
</filter>
<filter id="filter2_d_110_381" x="644" y="412" width="109" height="176" filterUnits="userSpaceOnUse" color-interpolation-filters="sRGB">
<feFlood flood-opacity="0" result="BackgroundImageFix"/>
<feColorMatrix in="SourceAlpha" type="matrix" values="0 0 0 0 0 0 0 0 0 0 0 0 0 0 0 0 0 0 127 0" result="hardAlpha"/>
<feOffset dy="4"/>
<feGaussianBlur stdDeviation="2"/>
<feComposite in2="hardAlpha" operator="out"/>
<feColorMatrix type="matrix" values="0 0 0 0 0 0 0 0 0 0 0 0 0 0 0 0 0 0 0.25 0"/>
<feBlend mode="normal" in2="BackgroundImageFix" result="effect1_dropShadow_110_381"/>
<feBlend mode="normal" in="SourceGraphic" in2="effect1_dropShadow_110_381" result="shape"/>
</filter>
<filter id="filter3_d_110_381" x="879" y="412" width="108" height="176" filterUnits="userSpaceOnUse" color-interpolation-filters="sRGB">
<feFlood flood-opacity="0" result="BackgroundImageFix"/>
<feColorMatrix in="SourceAlpha" type="matrix" values="0 0 0 0 0 0 0 0 0 0 0 0 0 0 0 0 0 0 127 0" result="hardAlpha"/>
<feOffset dy="4"/>
<feGaussianBlur stdDeviation="2"/>
<feComposite in2="hardAlpha" operator="out"/>
<feColorMatrix type="matrix" values="0 0 0 0 0 0 0 0 0 0 0 0 0 0 0 0 0 0 0.25 0"/>
<feBlend mode="normal" in2="BackgroundImageFix" result="effect1_dropShadow_110_381"/>
<feBlend mode="normal" in="SourceGraphic" in2="effect1_dropShadow_110_381" result="shape"/>
</filter>
<filter id="filter4_d_110_381" x="421" y="435" width="126" height="206" filterUnits="userSpaceOnUse" color-interpolation-filters="sRGB">
<feFlood flood-opacity="0" result="BackgroundImageFix"/>
<feColorMatrix in="SourceAlpha" type="matrix" values="0 0 0 0 0 0 0 0 0 0 0 0 0 0 0 0 0 0 127 0" result="hardAlpha"/>
<feOffset dy="4"/>
<feGaussianBlur stdDeviation="2"/>
<feComposite in2="hardAlpha" operator="out"/>
<feColorMatrix type="matrix" values="0 0 0 0 0 0 0 0 0 0 0 0 0 0 0 0 0 0 0.25 0"/>
<feBlend mode="normal" in2="BackgroundImageFix" result="effect1_dropShadow_110_381"/>
<feBlend mode="normal" in="SourceGraphic" in2="effect1_dropShadow_110_381" result="shape"/>
</filter>
<filter id="filter5_d_110_381" x="697" y="435" width="126" height="206" filterUnits="userSpaceOnUse" color-interpolation-filters="sRGB">
<feFlood flood-opacity="0" result="BackgroundImageFix"/>
<feColorMatrix in="SourceAlpha" type="matrix" values="0 0 0 0 0 0 0 0 0 0 0 0 0 0 0 0 0 0 127 0" result="hardAlpha"/>
<feOffset dy="4"/>
<feGaussianBlur stdDeviation="2"/>
<feComposite in2="hardAlpha" operator="out"/>
<feColorMatrix type="matrix" values="0 0 0 0 0 0 0 0 0 0 0 0 0 0 0 0 0 0 0.25 0"/>
<feBlend mode="normal" in2="BackgroundImageFix" result="effect1_dropShadow_110_381"/>
<feBlend mode="normal" in="SourceGraphic" in2="effect1_dropShadow_110_381" result="shape"/>
</filter>
<filter id="filter6_d_110_381" x="559" y="435" width="126" height="206" filterUnits="userSpaceOnUse" color-interpolation-filters="sRGB">
<feFlood flood-opacity="0" result="BackgroundImageFix"/>
<feColorMatrix in="SourceAlpha" type="matrix" values="0 0 0 0 0 0 0 0 0 0 0 0 0 0 0 0 0 0 127 0" result="hardAlpha"/>
<feOffset dy="4"/>
<feGaussianBlur stdDeviation="2"/>
<feComposite in2="hardAlpha" operator="out"/>
<feColorMatrix type="matrix" values="0 0 0 0 0 0 0 0 0 0 0 0 0 0 0 0 0 0 0.25 0"/>
<feBlend mode="normal" in2="BackgroundImageFix" result="effect1_dropShadow_110_381"/>
<feBlend mode="normal" in="SourceGraphic" in2="effect1_dropShadow_110_381" result="shape"/>
</filter>
<filter id="filter7_d_110_381" x="617" y="481" width="126" height="206" filterUnits="userSpaceOnUse" color-interpolation-filters="sRGB">
<feFlood flood-opacity="0" result="BackgroundImageFix"/>
<feColorMatrix in="SourceAlpha" type="matrix" values="0 0 0 0 0 0 0 0 0 0 0 0 0 0 0 0 0 0 127 0" result="hardAlpha"/>
<feOffset dy="4"/>
<feGaussianBlur stdDeviation="2"/>
<feComposite in2="hardAlpha" operator="out"/>
<feColorMatrix type="matrix" values="0 0 0 0 0 0 0 0 0 0 0 0 0 0 0 0 0 0 0.25 0"/>
<feBlend mode="normal" in2="BackgroundImageFix" result="effect1_dropShadow_110_381"/>
<feBlend mode="normal" in="SourceGraphic" in2="effect1_dropShadow_110_381" result="shape"/>
</filter>
<filter id="filter8_d_110_381" x="835" y="435" width="126" height="206" filterUnits="userSpaceOnUse" color-interpolation-filters="sRGB">
<feFlood flood-opacity="0" result="BackgroundImageFix"/>
<feColorMatrix in="SourceAlpha" type="matrix" values="0 0 0 0 0 0 0 0 0 0 0 0 0 0 0 0 0 0 127 0" result="hardAlpha"/>
<feOffset dy="4"/>
<feGaussianBlur stdDeviation="2"/>
<feComposite in2="hardAlpha" operator="out"/>
<feColorMatrix type="matrix" values="0 0 0 0 0 0 0 0 0 0 0 0 0 0 0 0 0 0 0.25 0"/>
<feBlend mode="normal" in2="BackgroundImageFix" result="effect1_dropShadow_110_381"/>
<feBlend mode="normal" in="SourceGraphic" in2="effect1_dropShadow_110_381" result="shape"/>
</filter>
<filter id="filter9_d_110_381" x="479" y="481" width="126" height="206" filterUnits="userSpaceOnUse" color-interpolation-filters="sRGB">
<feFlood flood-opacity="0" result="BackgroundImageFix"/>
<feColorMatrix in="SourceAlpha" type="matrix" values="0 0 0 0 0 0 0 0 0 0 0 0 0 0 0 0 0 0 127 0" result="hardAlpha"/>
<feOffset dy="4"/>
<feGaussianBlur stdDeviation="2"/>
<feComposite in2="hardAlpha" operator="out"/>
<feColorMatrix type="matrix" values="0 0 0 0 0 0 0 0 0 0 0 0 0 0 0 0 0 0 0.25 0"/>
<feBlend mode="normal" in2="BackgroundImageFix" result="effect1_dropShadow_110_381"/>
<feBlend mode="normal" in="SourceGraphic" in2="effect1_dropShadow_110_381" result="shape"/>
</filter>
<filter id="filter10_d_110_381" x="755" y="481" width="126" height="206" filterUnits="userSpaceOnUse" color-interpolation-filters="sRGB">
<feFlood flood-opacity="0" result="BackgroundImageFix"/>
<feColorMatrix in="SourceAlpha" type="matrix" values="0 0 0 0 0 0 0 0 0 0 0 0 0 0 0 0 0 0 127 0" result="hardAlpha"/>
<feOffset dy="4"/>
<feGaussianBlur stdDeviation="2"/>
<feComposite in2="hardAlpha" operator="out"/>
<feColorMatrix type="matrix" values="0 0 0 0 0 0 0 0 0 0 0 0 0 0 0 0 0 0 0.25 0"/>
<feBlend mode="normal" in2="BackgroundImageFix" result="effect1_dropShadow_110_381"/>
<feBlend mode="normal" in="SourceGraphic" in2="effect1_dropShadow_110_381" result="shape"/>
</filter>
<filter id="filter11_d_110_381" x="893" y="481" width="126" height="206" filterUnits="userSpaceOnUse" color-interpolation-filters="sRGB">
<feFlood flood-opacity="0" result="BackgroundImageFix"/>
<feColorMatrix in="SourceAlpha" type="matrix" values="0 0 0 0 0 0 0 0 0 0 0 0 0 0 0 0 0 0 127 0" result="hardAlpha"/>
<feOffset dy="4"/>
<feGaussianBlur stdDeviation="2"/>
<feComposite in2="hardAlpha" operator="out"/>
<feColorMatrix type="matrix" values="0 0 0 0 0 0 0 0 0 0 0 0 0 0 0 0 0 0 0.25 0"/>
<feBlend mode="normal" in2="BackgroundImageFix" result="effect1_dropShadow_110_381"/>
<feBlend mode="normal" in="SourceGraphic" in2="effect1_dropShadow_110_381" result="shape"/>
</filter>
</defs>
</svg>
