<svg width="1440" height="1024" viewBox="0 0 1440 1024" fill="none" xmlns="http://www.w3.org/2000/svg">
<g id="listen-enterrocket" clip-path="url(#clip0_110_435)">
<rect width="1440" height="1024" fill="#333148"/>
<path id="part 4" d="M47.096 132.12V60.024H61.688L62.264 71.448L59.384 70.584C59.832 68.536 61.048 66.648 63.032 64.92C65.016 63.192 67.512 61.784 70.52 60.696C73.592 59.608 76.856 59.064 80.312 59.064C85.304 59.064 89.688 60.216 93.464 62.52C97.24 64.76 100.184 67.864 102.296 71.832C104.472 75.736 105.56 80.28 105.56 85.464C105.56 90.584 104.472 95.128 102.296 99.096C100.184 103.064 97.208 106.2 93.368 108.504C89.528 110.744 85.112 111.864 80.12 111.864C76.664 111.864 73.432 111.288 70.424 110.136C67.416 108.984 64.888 107.48 62.84 105.624C60.856 103.768 59.576 101.816 59 99.768L62.552 98.424V132.12H47.096ZM76.376 98.904C79.256 98.904 81.752 98.36 83.864 97.272C85.976 96.12 87.608 94.552 88.76 92.568C89.976 90.584 90.584 88.216 90.584 85.464C90.584 82.776 89.976 80.44 88.76 78.456C87.608 76.408 85.976 74.84 83.864 73.752C81.816 72.6 79.32 72.024 76.376 72.024C73.496 72.024 70.968 72.568 68.792 73.656C66.68 74.744 65.016 76.312 63.8 78.36C62.648 80.408 62.072 82.776 62.072 85.464C62.072 88.216 62.648 90.584 63.8 92.568C65.016 94.552 66.68 96.12 68.792 97.272C70.968 98.36 73.496 98.904 76.376 98.904ZM144.211 111.864C139.155 111.864 134.739 110.744 130.963 108.504C127.187 106.264 124.211 103.16 122.035 99.192C119.923 95.16 118.867 90.584 118.867 85.464C118.867 80.28 119.955 75.704 122.131 71.736C124.307 67.768 127.315 64.664 131.155 62.424C135.059 60.12 139.539 58.968 144.595 58.968C147.475 58.968 150.131 59.352 152.563 60.12C154.995 60.824 157.107 61.816 158.899 63.096C160.755 64.376 162.259 65.784 163.411 67.32C164.627 68.856 165.427 70.456 165.811 72.12H162.451V60.024H177.619V111H162.163V97.944L165.427 98.424C165.043 100.088 164.243 101.72 163.027 103.32C161.811 104.92 160.243 106.36 158.323 107.64C156.403 108.92 154.227 109.944 151.795 110.712C149.427 111.48 146.899 111.864 144.211 111.864ZM148.339 98.904C151.219 98.904 153.715 98.36 155.827 97.272C158.003 96.184 159.667 94.648 160.819 92.664C162.035 90.616 162.643 88.216 162.643 85.464C162.643 82.776 162.035 80.44 160.819 78.456C159.667 76.408 158.003 74.808 155.827 73.656C153.715 72.504 151.219 71.928 148.339 71.928C145.459 71.928 142.963 72.504 140.851 73.656C138.739 74.808 137.075 76.408 135.859 78.456C134.707 80.44 134.131 82.776 134.131 85.464C134.131 88.216 134.707 90.616 135.859 92.664C137.075 94.648 138.739 96.184 140.851 97.272C142.963 98.36 145.459 98.904 148.339 98.904ZM201.315 111V60.024H215.907L216.579 77.592L212.931 75.768C213.763 72.632 215.203 69.816 217.251 67.32C219.363 64.76 221.763 62.744 224.451 61.272C227.203 59.736 230.115 58.968 233.187 58.968C234.851 58.968 236.419 59.128 237.891 59.448C239.427 59.768 240.739 60.184 241.827 60.696L237.603 77.496C236.643 76.792 235.331 76.248 233.667 75.864C232.067 75.48 230.435 75.288 228.771 75.288C226.915 75.288 225.219 75.608 223.683 76.248C222.211 76.824 220.963 77.656 219.939 78.744C218.915 79.768 218.115 80.952 217.539 82.296C217.027 83.64 216.771 85.08 216.771 86.616V111H201.315ZM265.932 111V46.008H281.292V111H265.932ZM254.604 73.464V60.024H294.252V73.464H254.604ZM377.032 111V53.304H387.112L357.544 88.248L355.624 83.736H405.256V96.984H349.48L343.048 84.6L378.856 43.224H392.776V111H377.032Z" fill="white"/>
<rect id="Rectangle 7" x="-65" y="534" width="1649" height="192" fill="#211F2F"/>
<g id="Group 4">
<g id="Vector" filter="url(#filter0_d_110_435)">
<path d="M264.246 486.996C269.515 463.672 302.714 463.672 307.983 486.996L316.541 524.874C319.712 538.912 309.05 552.267 294.672 552.267H277.557C263.179 552.267 252.517 538.912 255.688 524.874L264.246 486.996Z" fill="#3B5EC6"/>
<path d="M309.816 436.046C309.816 449.326 299.061 460.092 285.794 460.092C272.527 460.092 261.772 449.326 261.772 436.046C261.772 422.766 272.527 412 285.794 412C299.061 412 309.816 422.766 309.816 436.046Z" fill="#3B5EC6"/>
<path d="M290.599 540.565C290.599 534.013 295.904 528.702 302.45 528.702C308.995 528.702 314.3 534.013 314.3 540.565V568.137C314.3 574.689 308.995 580 302.45 580C295.904 580 290.599 574.689 290.599 568.137V540.565Z" fill="#3B5EC6"/>
<path d="M299.867 494.609C296.517 488.981 298.36 481.7 303.982 478.347C309.605 474.993 316.879 476.837 320.229 482.466L334.328 506.153C337.678 511.781 335.836 519.062 330.213 522.415C324.59 525.769 317.316 523.925 313.966 518.296L299.867 494.609Z" fill="#3B5EC6"/>
<path d="M251.362 482.548C254.635 476.874 261.883 474.93 267.551 478.206C273.219 481.482 275.161 488.737 271.889 494.411L258.116 518.289C254.844 523.963 247.596 525.907 241.927 522.631C236.259 519.355 234.317 512.1 237.59 506.427L251.362 482.548Z" fill="#3B5EC6"/>
<path d="M257.288 540.565C257.288 534.013 262.594 528.702 269.139 528.702C275.684 528.702 280.99 534.013 280.99 540.565V568.137C280.99 574.689 275.684 580 269.139 580C262.594 580 257.288 574.689 257.288 568.137V540.565Z" fill="#3B5EC6"/>
</g>
<g id="Vector_2" filter="url(#filter1_d_110_435)">
<path d="M498.528 486.996C503.85 463.672 537.381 463.672 542.703 486.996L551.346 524.874C554.549 538.912 543.78 552.267 529.259 552.267H511.972C497.451 552.267 486.682 538.912 489.885 524.874L498.528 486.996Z" fill="#3B5EC6"/>
<path d="M544.555 436.046C544.555 449.326 533.692 460.092 520.292 460.092C506.892 460.092 496.03 449.326 496.03 436.046C496.03 422.766 506.892 412 520.292 412C533.692 412 544.555 422.766 544.555 436.046Z" fill="#3B5EC6"/>
<path d="M525.145 540.565C525.145 534.013 530.504 528.702 537.114 528.702C543.725 528.702 549.083 534.013 549.083 540.565V568.137C549.083 574.689 543.725 580 537.114 580C530.504 580 525.145 574.689 525.145 568.137V540.565Z" fill="#3B5EC6"/>
<path d="M534.506 494.609C531.123 488.981 532.983 481.7 538.662 478.347C544.341 474.993 551.688 476.837 555.071 482.466L569.311 506.153C572.695 511.781 570.834 519.062 565.155 522.415C559.476 525.769 552.13 523.925 548.746 518.296L534.506 494.609Z" fill="#3B5EC6"/>
<path d="M485.516 482.548C488.821 476.874 496.142 474.93 501.867 478.206C507.591 481.482 509.553 488.737 506.248 494.411L492.337 518.289C489.032 523.963 481.712 525.907 475.987 522.631C470.262 519.355 468.3 512.1 471.606 506.427L485.516 482.548Z" fill="#3B5EC6"/>
<path d="M491.501 540.565C491.501 534.013 496.86 528.702 503.47 528.702C510.081 528.702 515.44 534.013 515.44 540.565V568.137C515.44 574.689 510.081 580 503.47 580C496.86 580 491.501 574.689 491.501 568.137V540.565Z" fill="#3B5EC6"/>
</g>
<g id="Vector_3" filter="url(#filter2_d_110_435)">
<path d="M381.528 486.996C386.85 463.672 420.381 463.672 425.703 486.996L434.346 524.874C437.549 538.912 426.78 552.267 412.259 552.267H394.972C380.451 552.267 369.682 538.912 372.885 524.874L381.528 486.996Z" fill="#3B5EC6"/>
<path d="M427.555 436.046C427.555 449.326 416.692 460.092 403.292 460.092C389.892 460.092 379.03 449.326 379.03 436.046C379.03 422.766 389.892 412 403.292 412C416.692 412 427.555 422.766 427.555 436.046Z" fill="#3B5EC6"/>
<path d="M408.145 540.565C408.145 534.013 413.504 528.702 420.114 528.702C426.725 528.702 432.083 534.013 432.083 540.565V568.137C432.083 574.689 426.725 580 420.114 580C413.504 580 408.145 574.689 408.145 568.137V540.565Z" fill="#3B5EC6"/>
<path d="M417.506 494.609C414.123 488.981 415.983 481.7 421.662 478.347C427.341 474.993 434.688 476.837 438.071 482.466L452.311 506.153C455.695 511.781 453.834 519.062 448.155 522.415C442.476 525.769 435.13 523.925 431.746 518.296L417.506 494.609Z" fill="#3B5EC6"/>
<path d="M368.516 482.548C371.821 476.874 379.142 474.93 384.867 478.206C390.591 481.482 392.553 488.737 389.248 494.411L375.337 518.289C372.032 523.963 364.712 525.907 358.987 522.631C353.262 519.355 351.3 512.1 354.606 506.427L368.516 482.548Z" fill="#3B5EC6"/>
<path d="M374.501 540.565C374.501 534.013 379.86 528.702 386.47 528.702C393.081 528.702 398.44 534.013 398.44 540.565V568.137C398.44 574.689 393.081 580 386.47 580C379.86 580 374.501 574.689 374.501 568.137V540.565Z" fill="#3B5EC6"/>
</g>
<g id="Vector_4" filter="url(#filter3_d_110_435)">
<path d="M616.246 486.996C621.515 463.672 654.714 463.672 659.983 486.996L668.541 524.874C671.712 538.912 661.05 552.267 646.672 552.267H629.557C615.179 552.267 604.517 538.912 607.688 524.874L616.246 486.996Z" fill="#3B5EC6"/>
<path d="M661.816 436.046C661.816 449.326 651.061 460.092 637.794 460.092C624.527 460.092 613.772 449.326 613.772 436.046C613.772 422.766 624.527 412 637.794 412C651.061 412 661.816 422.766 661.816 436.046Z" fill="#3B5EC6"/>
<path d="M642.599 540.565C642.599 534.013 647.904 528.702 654.45 528.702C660.995 528.702 666.3 534.013 666.3 540.565V568.137C666.3 574.689 660.995 580 654.45 580C647.904 580 642.599 574.689 642.599 568.137V540.565Z" fill="#3B5EC6"/>
<path d="M651.867 494.609C648.517 488.981 650.36 481.7 655.982 478.347C661.605 474.993 668.879 476.837 672.229 482.466L686.328 506.153C689.678 511.781 687.836 519.062 682.213 522.415C676.59 525.769 669.316 523.925 665.966 518.296L651.867 494.609Z" fill="#3B5EC6"/>
<path d="M603.362 482.548C606.635 476.874 613.883 474.93 619.551 478.206C625.219 481.482 627.161 488.737 623.889 494.411L610.116 518.289C606.844 523.963 599.596 525.907 593.927 522.631C588.259 519.355 586.317 512.1 589.59 506.427L603.362 482.548Z" fill="#3B5EC6"/>
<path d="M609.288 540.565C609.288 534.013 614.594 528.702 621.139 528.702C627.684 528.702 632.99 534.013 632.99 540.565V568.137C632.99 574.689 627.684 580 621.139 580C614.594 580 609.288 574.689 609.288 568.137V540.565Z" fill="#3B5EC6"/>
</g>
<g id="Vector_5" filter="url(#filter4_d_110_435)">
<path d="M163.33 523.388C169.548 495.899 208.722 495.899 214.94 523.388L225.038 568.03C228.78 584.575 216.199 600.315 199.233 600.315H179.037C162.071 600.315 149.49 584.575 153.232 568.03L163.33 523.388Z" fill="#6A94E0"/>
<path d="M217.103 463.34C217.103 478.991 204.412 491.679 188.757 491.679C173.102 491.679 160.411 478.991 160.411 463.34C160.411 447.688 173.102 435 188.757 435C204.412 435 217.103 447.688 217.103 463.34Z" fill="#6A94E0"/>
<path d="M194.426 586.523C194.426 578.801 200.687 572.542 208.41 572.542C216.134 572.542 222.395 578.801 222.395 586.523V619.019C222.395 626.741 216.134 633 208.41 633C200.687 633 194.426 626.741 194.426 619.019V586.523Z" fill="#6A94E0"/>
<path d="M205.364 532.361C201.41 525.728 203.584 517.146 210.219 513.194C216.854 509.242 225.437 511.416 229.39 518.049L246.027 545.966C249.98 552.599 247.806 561.18 241.171 565.132C234.537 569.085 225.953 566.911 222 560.278L205.364 532.361Z" fill="#6A94E0"/>
<path d="M148.128 518.146C151.989 511.459 160.542 509.168 167.23 513.029C173.919 516.889 176.21 525.44 172.349 532.127L156.097 560.269C152.235 566.956 143.683 569.248 136.994 565.387C130.306 561.526 128.014 552.975 131.876 546.289L148.128 518.146Z" fill="#6A94E0"/>
<path d="M155.12 586.523C155.12 578.801 161.381 572.542 169.104 572.542C176.827 572.542 183.088 578.801 183.088 586.523V619.019C183.088 626.741 176.827 633 169.104 633C161.381 633 155.12 626.741 155.12 619.019V586.523Z" fill="#6A94E0"/>
</g>
<g id="Vector_6" filter="url(#filter5_d_110_435)">
<path d="M439.33 523.388C445.548 495.899 484.722 495.899 490.94 523.388L501.038 568.03C504.78 584.575 492.199 600.315 475.233 600.315H455.037C438.071 600.315 425.49 584.575 429.232 568.03L439.33 523.388Z" fill="#6A94E0"/>
<path d="M493.103 463.34C493.103 478.991 480.412 491.679 464.757 491.679C449.102 491.679 436.411 478.991 436.411 463.34C436.411 447.688 449.102 435 464.757 435C480.412 435 493.103 447.688 493.103 463.34Z" fill="#6A94E0"/>
<path d="M470.426 586.523C470.426 578.801 476.687 572.542 484.41 572.542C492.134 572.542 498.395 578.801 498.395 586.523V619.019C498.395 626.741 492.134 633 484.41 633C476.687 633 470.426 626.741 470.426 619.019V586.523Z" fill="#6A94E0"/>
<path d="M481.364 532.361C477.41 525.728 479.584 517.146 486.219 513.194C492.854 509.242 501.437 511.416 505.39 518.049L522.027 545.966C525.98 552.599 523.806 561.18 517.171 565.132C510.537 569.085 501.953 566.911 498 560.278L481.364 532.361Z" fill="#6A94E0"/>
<path d="M424.128 518.146C427.989 511.459 436.542 509.168 443.23 513.029C449.919 516.889 452.21 525.44 448.349 532.127L432.097 560.269C428.235 566.956 419.683 569.248 412.994 565.387C406.306 561.526 404.014 552.975 407.876 546.289L424.128 518.146Z" fill="#6A94E0"/>
<path d="M431.12 586.523C431.12 578.801 437.381 572.542 445.104 572.542C452.827 572.542 459.088 578.801 459.088 586.523V619.019C459.088 626.741 452.827 633 445.104 633C437.381 633 431.12 626.741 431.12 619.019V586.523Z" fill="#6A94E0"/>
</g>
<g id="Vector_7" filter="url(#filter6_d_110_435)">
<path d="M301.33 523.388C307.548 495.899 346.722 495.899 352.94 523.388L363.038 568.03C366.78 584.575 354.199 600.315 337.233 600.315H317.037C300.071 600.315 287.49 584.575 291.232 568.03L301.33 523.388Z" fill="#6A94E0"/>
<path d="M355.103 463.34C355.103 478.991 342.412 491.679 326.757 491.679C311.102 491.679 298.411 478.991 298.411 463.34C298.411 447.688 311.102 435 326.757 435C342.412 435 355.103 447.688 355.103 463.34Z" fill="#6A94E0"/>
<path d="M332.426 586.523C332.426 578.801 338.687 572.542 346.41 572.542C354.134 572.542 360.395 578.801 360.395 586.523V619.019C360.395 626.741 354.134 633 346.41 633C338.687 633 332.426 626.741 332.426 619.019V586.523Z" fill="#6A94E0"/>
<path d="M343.364 532.361C339.41 525.728 341.584 517.146 348.219 513.194C354.854 509.242 363.437 511.416 367.39 518.049L384.027 545.966C387.98 552.599 385.806 561.18 379.171 565.132C372.537 569.085 363.953 566.911 360 560.278L343.364 532.361Z" fill="#6A94E0"/>
<path d="M286.128 518.146C289.989 511.459 298.542 509.168 305.23 513.029C311.919 516.889 314.21 525.44 310.349 532.127L294.097 560.269C290.235 566.956 281.683 569.248 274.994 565.387C268.306 561.526 266.014 552.975 269.876 546.289L286.128 518.146Z" fill="#6A94E0"/>
<path d="M293.12 586.523C293.12 578.801 299.381 572.542 307.104 572.542C314.827 572.542 321.088 578.801 321.088 586.523V619.019C321.088 626.741 314.827 633 307.104 633C299.381 633 293.12 626.741 293.12 619.019V586.523Z" fill="#6A94E0"/>
</g>
<g id="Vector_8" filter="url(#filter7_d_110_435)">
<path d="M359.33 569.388C365.548 541.899 404.722 541.899 410.94 569.388L421.038 614.03C424.78 630.575 412.199 646.315 395.233 646.315H375.037C358.071 646.315 345.49 630.575 349.232 614.03L359.33 569.388Z" fill="#8DBBFB"/>
<path d="M413.103 509.34C413.103 524.991 400.412 537.679 384.757 537.679C369.102 537.679 356.411 524.991 356.411 509.34C356.411 493.688 369.102 481 384.757 481C400.412 481 413.103 493.688 413.103 509.34Z" fill="#8DBBFB"/>
<path d="M390.426 632.523C390.426 624.801 396.687 618.542 404.41 618.542C412.134 618.542 418.395 624.801 418.395 632.523V665.019C418.395 672.741 412.134 679 404.41 679C396.687 679 390.426 672.741 390.426 665.019V632.523Z" fill="#8DBBFB"/>
<path d="M401.364 578.361C397.41 571.728 399.584 563.146 406.219 559.194C412.854 555.242 421.437 557.416 425.39 564.049L442.027 591.966C445.98 598.599 443.806 607.18 437.171 611.132C430.537 615.085 421.953 612.911 418 606.278L401.364 578.361Z" fill="#8DBBFB"/>
<path d="M344.128 564.146C347.989 557.459 356.542 555.168 363.23 559.029C369.919 562.889 372.21 571.44 368.349 578.127L352.097 606.269C348.235 612.956 339.683 615.248 332.994 611.387C326.306 607.526 324.014 598.975 327.876 592.289L344.128 564.146Z" fill="#8DBBFB"/>
<path d="M351.12 632.523C351.12 624.801 357.381 618.542 365.104 618.542C372.827 618.542 379.088 624.801 379.088 632.523V665.019C379.088 672.741 372.827 679 365.104 679C357.381 679 351.12 672.741 351.12 665.019V632.523Z" fill="#8DBBFB"/>
</g>
<g id="Vector_9" filter="url(#filter8_d_110_435)">
<path d="M577.33 523.388C583.548 495.899 622.722 495.899 628.94 523.388L639.038 568.03C642.78 584.575 630.199 600.315 613.233 600.315H593.037C576.071 600.315 563.49 584.575 567.232 568.03L577.33 523.388Z" fill="#6A94E0"/>
<path d="M631.103 463.34C631.103 478.991 618.412 491.679 602.757 491.679C587.102 491.679 574.411 478.991 574.411 463.34C574.411 447.688 587.102 435 602.757 435C618.412 435 631.103 447.688 631.103 463.34Z" fill="#6A94E0"/>
<path d="M608.426 586.523C608.426 578.801 614.687 572.542 622.41 572.542C630.134 572.542 636.395 578.801 636.395 586.523V619.019C636.395 626.741 630.134 633 622.41 633C614.687 633 608.426 626.741 608.426 619.019V586.523Z" fill="#6A94E0"/>
<path d="M619.364 532.361C615.41 525.728 617.584 517.146 624.219 513.194C630.854 509.242 639.437 511.416 643.39 518.049L660.027 545.966C663.98 552.599 661.806 561.18 655.171 565.132C648.537 569.085 639.953 566.911 636 560.278L619.364 532.361Z" fill="#6A94E0"/>
<path d="M562.128 518.146C565.989 511.459 574.542 509.168 581.23 513.029C587.919 516.889 590.21 525.44 586.349 532.127L570.097 560.269C566.235 566.956 557.683 569.248 550.994 565.387C544.306 561.526 542.014 552.975 545.876 546.289L562.128 518.146Z" fill="#6A94E0"/>
<path d="M569.12 586.523C569.12 578.801 575.381 572.542 583.104 572.542C590.827 572.542 597.088 578.801 597.088 586.523V619.019C597.088 626.741 590.827 633 583.104 633C575.381 633 569.12 626.741 569.12 619.019V586.523Z" fill="#6A94E0"/>
</g>
<g id="Vector_10" filter="url(#filter9_d_110_435)">
<path d="M221.33 569.388C227.548 541.899 266.722 541.899 272.94 569.388L283.038 614.03C286.78 630.575 274.199 646.315 257.233 646.315H237.037C220.071 646.315 207.49 630.575 211.232 614.03L221.33 569.388Z" fill="#8DBBFB"/>
<path d="M275.103 509.34C275.103 524.991 262.412 537.679 246.757 537.679C231.102 537.679 218.411 524.991 218.411 509.34C218.411 493.688 231.102 481 246.757 481C262.412 481 275.103 493.688 275.103 509.34Z" fill="#8DBBFB"/>
<path d="M252.426 632.523C252.426 624.801 258.687 618.542 266.41 618.542C274.134 618.542 280.395 624.801 280.395 632.523V665.019C280.395 672.741 274.134 679 266.41 679C258.687 679 252.426 672.741 252.426 665.019V632.523Z" fill="#8DBBFB"/>
<path d="M263.364 578.361C259.41 571.728 261.584 563.146 268.219 559.194C274.854 555.242 283.437 557.416 287.39 564.049L304.027 591.966C307.98 598.599 305.806 607.18 299.171 611.132C292.537 615.085 283.953 612.911 280 606.278L263.364 578.361Z" fill="#8DBBFB"/>
<path d="M206.128 564.146C209.989 557.459 218.542 555.168 225.23 559.029C231.919 562.889 234.21 571.44 230.349 578.127L214.097 606.269C210.235 612.956 201.683 615.248 194.994 611.387C188.306 607.526 186.014 598.975 189.876 592.289L206.128 564.146Z" fill="#8DBBFB"/>
<path d="M213.12 632.523C213.12 624.801 219.381 618.542 227.104 618.542C234.827 618.542 241.088 624.801 241.088 632.523V665.019C241.088 672.741 234.827 679 227.104 679C219.381 679 213.12 672.741 213.12 665.019V632.523Z" fill="#8DBBFB"/>
</g>
<g id="Vector_11" filter="url(#filter10_d_110_435)">
<path d="M497.33 569.388C503.548 541.899 542.722 541.899 548.94 569.388L559.038 614.03C562.78 630.575 550.199 646.315 533.233 646.315H513.037C496.071 646.315 483.49 630.575 487.232 614.03L497.33 569.388Z" fill="#8DBBFB"/>
<path d="M551.103 509.34C551.103 524.991 538.412 537.679 522.757 537.679C507.102 537.679 494.411 524.991 494.411 509.34C494.411 493.688 507.102 481 522.757 481C538.412 481 551.103 493.688 551.103 509.34Z" fill="#8DBBFB"/>
<path d="M528.426 632.523C528.426 624.801 534.687 618.542 542.41 618.542C550.134 618.542 556.395 624.801 556.395 632.523V665.019C556.395 672.741 550.134 679 542.41 679C534.687 679 528.426 672.741 528.426 665.019V632.523Z" fill="#8DBBFB"/>
<path d="M539.364 578.361C535.41 571.728 537.584 563.146 544.219 559.194C550.854 555.242 559.437 557.416 563.39 564.049L580.027 591.966C583.98 598.599 581.806 607.18 575.171 611.132C568.537 615.085 559.953 612.911 556 606.278L539.364 578.361Z" fill="#8DBBFB"/>
<path d="M482.128 564.146C485.989 557.459 494.542 555.168 501.23 559.029C507.919 562.889 510.21 571.44 506.349 578.127L490.097 606.269C486.235 612.956 477.683 615.248 470.994 611.387C464.306 607.526 462.014 598.975 465.876 592.289L482.128 564.146Z" fill="#8DBBFB"/>
<path d="M489.12 632.523C489.12 624.801 495.381 618.542 503.104 618.542C510.827 618.542 517.088 624.801 517.088 632.523V665.019C517.088 672.741 510.827 679 503.104 679C495.381 679 489.12 672.741 489.12 665.019V632.523Z" fill="#8DBBFB"/>
</g>
<g id="Vector_12" filter="url(#filter11_d_110_435)">
<path d="M635.33 569.388C641.548 541.899 680.722 541.899 686.94 569.388L697.038 614.03C700.78 630.575 688.199 646.315 671.233 646.315H651.037C634.071 646.315 621.49 630.575 625.232 614.03L635.33 569.388Z" fill="#8DBBFB"/>
<path d="M689.103 509.34C689.103 524.991 676.412 537.679 660.757 537.679C645.102 537.679 632.411 524.991 632.411 509.34C632.411 493.688 645.102 481 660.757 481C676.412 481 689.103 493.688 689.103 509.34Z" fill="#8DBBFB"/>
<path d="M666.426 632.523C666.426 624.801 672.687 618.542 680.41 618.542C688.134 618.542 694.395 624.801 694.395 632.523V665.019C694.395 672.741 688.134 679 680.41 679C672.687 679 666.426 672.741 666.426 665.019V632.523Z" fill="#8DBBFB"/>
<path d="M677.364 578.361C673.41 571.728 675.584 563.146 682.219 559.194C688.854 555.242 697.437 557.416 701.39 564.049L718.027 591.966C721.98 598.599 719.806 607.18 713.171 611.132C706.537 615.085 697.953 612.911 694 606.278L677.364 578.361Z" fill="#8DBBFB"/>
<path d="M620.128 564.146C623.989 557.459 632.542 555.168 639.23 559.029C645.919 562.889 648.21 571.44 644.349 578.127L628.097 606.269C624.235 612.956 615.683 615.248 608.994 611.387C602.306 607.526 600.014 598.975 603.876 592.289L620.128 564.146Z" fill="#8DBBFB"/>
<path d="M627.12 632.523C627.12 624.801 633.381 618.542 641.104 618.542C648.827 618.542 655.088 624.801 655.088 632.523V665.019C655.088 672.741 648.827 679 641.104 679C633.381 679 627.12 672.741 627.12 665.019V632.523Z" fill="#8DBBFB"/>
</g>
</g>
<ellipse id="Ellipse 3" cx="1119" cy="425" rx="213" ry="58" fill="#211F2F"/>
<rect id="Rectangle 26" x="1019" y="135" width="197" height="300" rx="25" fill="#C63B3B"/>
<path id="Polygon 2" d="M998.062 291.866C1004.11 279.563 1022.59 283.321 1022.83 296.9L1024.76 407.616C1024.9 415.99 1017.1 422.438 1008.86 420.762L957.657 410.354C949.411 408.678 945.061 399.762 948.788 392.174L998.062 291.866Z" fill="#3E5068"/>
<path id="Polygon 3" d="M1239 291.866C1232.95 279.563 1214.47 283.321 1214.23 296.9L1212.3 407.616C1212.16 415.99 1219.95 422.438 1228.2 420.762L1279.4 410.354C1287.65 408.678 1292 399.762 1288.27 392.174L1239 291.866Z" fill="#3E5068"/>
<path id="Polygon 5" d="M1132.13 334.935C1128.91 321.698 1110.09 321.698 1106.87 334.935L1080.54 443.178C1078.55 451.362 1084.75 459.25 1093.17 459.25L1145.83 459.25C1154.25 459.25 1160.45 451.362 1158.46 443.178L1132.13 334.935Z" fill="#3E5068"/>
<path id="Polygon 4" d="M1101.39 36.8832C1109.39 26.0242 1125.61 26.0242 1133.61 36.8832L1210.53 141.394C1220.25 154.601 1210.82 173.25 1194.43 173.25H1040.57C1024.18 173.25 1014.75 154.601 1024.47 141.394L1101.39 36.8832Z" fill="#3E5068"/>
<path id="enter it?" d="M496.639 822.96C490.431 822.96 484.991 821.84 480.319 819.6C475.711 817.296 472.127 814.192 469.567 810.288C467.007 806.32 465.727 801.808 465.727 796.752C465.727 792.72 466.463 789.072 467.935 785.808C469.407 782.544 471.455 779.728 474.079 777.36C476.703 774.992 479.775 773.168 483.295 771.888C486.815 770.608 490.623 769.968 494.719 769.968C498.687 769.968 502.335 770.608 505.663 771.888C508.991 773.104 511.871 774.864 514.303 777.168C516.799 779.472 518.719 782.192 520.063 785.328C521.407 788.464 522.015 791.92 521.887 795.696L521.791 800.016H475.807L473.599 791.088H509.311L507.679 793.008V791.088C507.487 789.488 506.783 788.048 505.567 786.768C504.415 785.488 502.911 784.496 501.055 783.792C499.199 783.024 497.151 782.64 494.911 782.64C492.031 782.64 489.471 783.12 487.231 784.08C484.991 784.976 483.231 786.384 481.951 788.304C480.735 790.224 480.127 792.656 480.127 795.6C480.127 798.416 480.863 800.88 482.335 802.992C483.871 805.104 486.015 806.768 488.767 807.984C491.583 809.2 494.879 809.808 498.655 809.808C501.919 809.808 504.639 809.424 506.815 808.656C509.055 807.824 511.071 806.8 512.863 805.584L519.775 815.568C517.663 817.168 515.327 818.544 512.767 819.696C510.271 820.784 507.647 821.584 504.895 822.096C502.207 822.672 499.455 822.96 496.639 822.96ZM540.955 822V771.024H555.547L556.027 782.928L552.379 783.984C553.211 781.488 554.619 779.184 556.603 777.072C558.651 774.96 561.115 773.264 563.995 771.984C566.939 770.64 570.107 769.968 573.499 769.968C577.851 769.968 581.531 770.832 584.539 772.56C587.547 774.288 589.819 776.752 591.355 779.952C592.891 783.088 593.659 786.832 593.659 791.184V822H578.203V793.392C578.203 791.152 577.787 789.264 576.955 787.728C576.187 786.192 575.003 785.008 573.403 784.176C571.867 783.344 570.075 782.928 568.027 782.928C566.235 782.928 564.603 783.248 563.131 783.888C561.723 784.464 560.507 785.264 559.483 786.288C558.459 787.248 557.659 788.336 557.083 789.552C556.571 790.768 556.315 792.016 556.315 793.296V822H548.731C546.619 822 544.923 822 543.643 822C542.363 822 541.467 822 540.955 822ZM622.166 822V757.008H637.526V822H622.166ZM610.838 784.464V771.024H650.486V784.464H610.838ZM694.076 822.96C687.868 822.96 682.428 821.84 677.756 819.6C673.148 817.296 669.564 814.192 667.004 810.288C664.444 806.32 663.164 801.808 663.164 796.752C663.164 792.72 663.9 789.072 665.372 785.808C666.844 782.544 668.892 779.728 671.516 777.36C674.14 774.992 677.212 773.168 680.732 771.888C684.252 770.608 688.06 769.968 692.156 769.968C696.124 769.968 699.772 770.608 703.1 771.888C706.428 773.104 709.308 774.864 711.74 777.168C714.236 779.472 716.156 782.192 717.5 785.328C718.844 788.464 719.452 791.92 719.324 795.696L719.228 800.016H673.244L671.036 791.088H706.748L705.116 793.008V791.088C704.924 789.488 704.22 788.048 703.004 786.768C701.852 785.488 700.348 784.496 698.492 783.792C696.636 783.024 694.588 782.64 692.348 782.64C689.468 782.64 686.908 783.12 684.668 784.08C682.428 784.976 680.668 786.384 679.388 788.304C678.172 790.224 677.564 792.656 677.564 795.6C677.564 798.416 678.3 800.88 679.772 802.992C681.308 805.104 683.452 806.768 686.204 807.984C689.02 809.2 692.316 809.808 696.092 809.808C699.356 809.808 702.076 809.424 704.252 808.656C706.492 807.824 708.508 806.8 710.3 805.584L717.212 815.568C715.1 817.168 712.764 818.544 710.204 819.696C707.708 820.784 705.084 821.584 702.332 822.096C699.644 822.672 696.892 822.96 694.076 822.96ZM738.393 822V771.024H752.985L753.657 788.592L750.009 786.768C750.841 783.632 752.281 780.816 754.329 778.32C756.441 775.76 758.841 773.744 761.529 772.272C764.281 770.736 767.193 769.968 770.265 769.968C771.929 769.968 773.497 770.128 774.969 770.448C776.505 770.768 777.817 771.184 778.905 771.696L774.681 788.496C773.721 787.792 772.409 787.248 770.745 786.864C769.145 786.48 767.513 786.288 765.849 786.288C763.993 786.288 762.297 786.608 760.761 787.248C759.289 787.824 758.041 788.656 757.017 789.744C755.993 790.768 755.193 791.952 754.617 793.296C754.105 794.64 753.849 796.08 753.849 797.616V822H738.393ZM835.536 822V771.024H850.992V822H835.536ZM843.216 760.56C840.336 760.56 838.096 759.888 836.496 758.544C834.896 757.136 834.096 755.152 834.096 752.592C834.096 750.288 834.896 748.4 836.496 746.928C838.16 745.456 840.4 744.72 843.216 744.72C846.096 744.72 848.336 745.424 849.936 746.832C851.536 748.176 852.336 750.096 852.336 752.592C852.336 754.96 851.504 756.88 849.84 758.352C848.24 759.824 846.032 760.56 843.216 760.56ZM880.822 822V757.008H896.182V822H880.822ZM869.494 784.464V771.024H909.142V784.464H869.494ZM941.105 798.96L938.033 785.808C939.697 785.488 941.393 785.072 943.121 784.56C944.849 784.048 946.545 783.472 948.209 782.832C949.873 782.192 951.313 781.424 952.529 780.528C953.809 779.632 954.801 778.64 955.505 777.552C956.273 776.4 956.657 775.184 956.657 773.904C956.657 772.56 956.241 771.472 955.409 770.64C954.641 769.744 953.617 769.104 952.337 768.72C951.121 768.272 949.745 768.048 948.209 768.048C945.137 768.048 942.257 768.816 939.569 770.352C936.945 771.888 934.577 774.288 932.465 777.552L922.001 767.28C925.201 762.928 929.041 759.536 933.521 757.104C938.065 754.608 943.025 753.36 948.401 753.36C953.009 753.36 957.137 754.224 960.785 755.952C964.497 757.616 967.409 759.952 969.521 762.96C971.633 765.904 972.689 769.232 972.689 772.944C972.689 775.376 972.113 777.776 970.961 780.144C969.809 782.448 968.209 784.592 966.161 786.576C964.177 788.56 961.873 790.32 959.249 791.856C956.625 793.328 953.809 794.48 950.801 795.312L949.745 798.96H941.105ZM936.977 814.512C936.977 812.08 937.809 810.032 939.473 808.368C941.201 806.704 943.569 805.872 946.577 805.872C949.713 805.872 952.113 806.64 953.777 808.176C955.441 809.712 956.273 811.824 956.273 814.512C956.273 816.88 955.409 818.896 953.681 820.56C952.017 822.224 949.649 823.056 946.577 823.056C943.441 823.056 941.041 822.32 939.377 820.848C937.777 819.312 936.977 817.2 936.977 814.512Z" fill="white"/>
<g id="no">
<rect id="Rectangle 3" x="276" y="923.033" width="369" height="72.9669" rx="35" fill="#DC4B4B"/>
<path id="no_2" d="M418.158 902V868.016H427.886L428.206 875.952L425.774 876.656C426.328 874.992 427.267 873.456 428.59 872.048C429.955 870.64 431.598 869.509 433.518 868.656C435.48 867.76 437.592 867.312 439.854 867.312C442.755 867.312 445.208 867.888 447.214 869.04C449.219 870.192 450.734 871.835 451.758 873.968C452.782 876.059 453.294 878.555 453.294 881.456V902H442.99V882.928C442.99 881.435 442.712 880.176 442.158 879.152C441.646 878.128 440.856 877.339 439.79 876.784C438.766 876.229 437.571 875.952 436.206 875.952C435.011 875.952 433.923 876.165 432.942 876.592C432.003 876.976 431.192 877.509 430.51 878.192C429.827 878.832 429.294 879.557 428.91 880.368C428.568 881.179 428.398 882.011 428.398 882.864V902H423.342C421.934 902 420.803 902 419.95 902C419.096 902 418.499 902 418.158 902ZM485.994 902.64C482.026 902.64 478.506 901.872 475.434 900.336C472.362 898.8 469.952 896.709 468.202 894.064C466.453 891.419 465.578 888.389 465.578 884.976C465.578 881.563 466.453 878.533 468.202 875.888C469.952 873.243 472.362 871.152 475.434 869.616C478.506 868.08 482.026 867.312 485.994 867.312C489.92 867.312 493.397 868.08 496.426 869.616C499.498 871.152 501.909 873.243 503.658 875.888C505.408 878.533 506.282 881.563 506.282 884.976C506.282 888.389 505.408 891.419 503.658 894.064C501.909 896.709 499.498 898.8 496.426 900.336C493.397 901.872 489.92 902.64 485.994 902.64ZM485.994 893.808C487.829 893.808 489.493 893.424 490.986 892.656C492.522 891.888 493.717 890.843 494.57 889.52C495.466 888.197 495.893 886.683 495.85 884.976C495.893 883.269 495.466 881.733 494.57 880.368C493.717 879.003 492.522 877.957 490.986 877.232C489.493 876.464 487.829 876.08 485.994 876.08C484.117 876.08 482.389 876.464 480.81 877.232C479.274 878 478.08 879.045 477.226 880.368C476.373 881.691 475.946 883.227 475.946 884.976C475.946 886.683 476.373 888.197 477.226 889.52C478.08 890.843 479.274 891.888 480.81 892.656C482.389 893.424 484.117 893.808 485.994 893.808Z" fill="white"/>
</g>
<g id="yes">
<g id="yes_2">
<rect id="Rectangle 3_2" x="798" y="923.033" width="369" height="72.9669" rx="35" fill="#6A94E0"/>
<path id="yes_3" d="M927.13 916.72L936.026 898.48L935.834 903.664L917.786 868.016H929.498L937.754 885.68C938.352 886.875 938.906 888.091 939.418 889.328C939.93 890.523 940.336 891.717 940.634 892.912L938.714 893.424C939.098 892.485 939.546 891.376 940.058 890.096C940.57 888.816 941.104 887.515 941.658 886.192L949.274 868.016H960.986L944.346 902.128L937.498 916.72H927.13ZM988.051 902.64C983.912 902.64 980.285 901.893 977.171 900.4C974.099 898.864 971.709 896.795 970.003 894.192C968.296 891.547 967.443 888.539 967.443 885.168C967.443 882.48 967.933 880.048 968.915 877.872C969.896 875.696 971.261 873.819 973.011 872.24C974.76 870.661 976.808 869.445 979.155 868.592C981.501 867.739 984.04 867.312 986.771 867.312C989.416 867.312 991.848 867.739 994.067 868.592C996.285 869.403 998.205 870.576 999.827 872.112C1001.49 873.648 1002.77 875.461 1003.67 877.552C1004.56 879.643 1004.97 881.947 1004.88 884.464L1004.82 887.344H974.163L972.691 881.392H996.499L995.411 882.672V881.392C995.283 880.325 994.813 879.365 994.003 878.512C993.235 877.659 992.232 876.997 990.995 876.528C989.757 876.016 988.392 875.76 986.899 875.76C984.979 875.76 983.272 876.08 981.779 876.72C980.285 877.317 979.112 878.256 978.259 879.536C977.448 880.816 977.043 882.437 977.043 884.4C977.043 886.277 977.533 887.92 978.515 889.328C979.539 890.736 980.968 891.845 982.803 892.656C984.68 893.467 986.877 893.872 989.395 893.872C991.571 893.872 993.384 893.616 994.835 893.104C996.328 892.549 997.672 891.867 998.867 891.056L1003.47 897.712C1002.07 898.779 1000.51 899.696 998.803 900.464C997.139 901.189 995.389 901.723 993.555 902.064C991.763 902.448 989.928 902.64 988.051 902.64ZM1030.52 902.64C1026.77 902.64 1023.4 902.107 1020.41 901.04C1017.47 899.973 1015.1 898.459 1013.31 896.496L1019.52 890.992C1020.97 892.357 1022.69 893.403 1024.7 894.128C1026.7 894.853 1028.82 895.216 1031.04 895.216C1031.72 895.216 1032.38 895.152 1033.02 895.024C1033.7 894.896 1034.28 894.725 1034.75 894.512C1035.26 894.256 1035.66 893.957 1035.96 893.616C1036.26 893.275 1036.41 892.848 1036.41 892.336C1036.41 891.525 1035.9 890.885 1034.88 890.416C1034.15 890.16 1033.23 889.904 1032.12 889.648C1031.01 889.392 1029.76 889.115 1028.35 888.816C1026 888.389 1023.93 887.877 1022.14 887.28C1020.39 886.64 1018.92 885.851 1017.72 884.912C1016.7 884.016 1015.91 882.992 1015.36 881.84C1014.8 880.688 1014.52 879.344 1014.52 877.808C1014.52 876.229 1014.93 874.8 1015.74 873.52C1016.55 872.197 1017.68 871.088 1019.13 870.192C1020.58 869.253 1022.25 868.549 1024.12 868.08C1026 867.568 1027.96 867.312 1030.01 867.312C1032.06 867.312 1034.06 867.525 1036.03 867.952C1037.99 868.336 1039.85 868.912 1041.6 869.68C1043.34 870.405 1044.88 871.344 1046.2 872.496L1040.96 878.64C1040.02 877.915 1038.93 877.253 1037.69 876.656C1036.45 876.059 1035.13 875.589 1033.72 875.248C1032.36 874.864 1031.01 874.672 1029.69 874.672C1028.97 874.672 1028.26 874.715 1027.58 874.8C1026.94 874.885 1026.38 875.056 1025.92 875.312C1025.45 875.525 1025.06 875.803 1024.76 876.144C1024.51 876.443 1024.38 876.827 1024.38 877.296C1024.38 877.68 1024.49 878.043 1024.7 878.384C1024.91 878.725 1025.23 879.003 1025.66 879.216C1026.26 879.6 1027.13 879.941 1028.28 880.24C1029.48 880.539 1030.97 880.859 1032.76 881.2C1035.37 881.755 1037.58 882.395 1039.42 883.12C1041.25 883.803 1042.73 884.635 1043.84 885.616C1044.73 886.299 1045.39 887.152 1045.82 888.176C1046.25 889.157 1046.46 890.245 1046.46 891.44C1046.46 893.616 1045.76 895.557 1044.35 897.264C1042.98 898.928 1041.1 900.251 1038.72 901.232C1036.37 902.171 1033.64 902.64 1030.52 902.64Z" fill="white"/>
</g>
</g>
</g>
<defs>
<filter id="filter0_d_110_435" x="232" y="412" width="108" height="176" filterUnits="userSpaceOnUse" color-interpolation-filters="sRGB">
<feFlood flood-opacity="0" result="BackgroundImageFix"/>
<feColorMatrix in="SourceAlpha" type="matrix" values="0 0 0 0 0 0 0 0 0 0 0 0 0 0 0 0 0 0 127 0" result="hardAlpha"/>
<feOffset dy="4"/>
<feGaussianBlur stdDeviation="2"/>
<feComposite in2="hardAlpha" operator="out"/>
<feColorMatrix type="matrix" values="0 0 0 0 0 0 0 0 0 0 0 0 0 0 0 0 0 0 0.25 0"/>
<feBlend mode="normal" in2="BackgroundImageFix" result="effect1_dropShadow_110_435"/>
<feBlend mode="normal" in="SourceGraphic" in2="effect1_dropShadow_110_435" result="shape"/>
</filter>
<filter id="filter1_d_110_435" x="466" y="412" width="109" height="176" filterUnits="userSpaceOnUse" color-interpolation-filters="sRGB">
<feFlood flood-opacity="0" result="BackgroundImageFix"/>
<feColorMatrix in="SourceAlpha" type="matrix" values="0 0 0 0 0 0 0 0 0 0 0 0 0 0 0 0 0 0 127 0" result="hardAlpha"/>
<feOffset dy="4"/>
<feGaussianBlur stdDeviation="2"/>
<feComposite in2="hardAlpha" operator="out"/>
<feColorMatrix type="matrix" values="0 0 0 0 0 0 0 0 0 0 0 0 0 0 0 0 0 0 0.25 0"/>
<feBlend mode="normal" in2="BackgroundImageFix" result="effect1_dropShadow_110_435"/>
<feBlend mode="normal" in="SourceGraphic" in2="effect1_dropShadow_110_435" result="shape"/>
</filter>
<filter id="filter2_d_110_435" x="349" y="412" width="109" height="176" filterUnits="userSpaceOnUse" color-interpolation-filters="sRGB">
<feFlood flood-opacity="0" result="BackgroundImageFix"/>
<feColorMatrix in="SourceAlpha" type="matrix" values="0 0 0 0 0 0 0 0 0 0 0 0 0 0 0 0 0 0 127 0" result="hardAlpha"/>
<feOffset dy="4"/>
<feGaussianBlur stdDeviation="2"/>
<feComposite in2="hardAlpha" operator="out"/>
<feColorMatrix type="matrix" values="0 0 0 0 0 0 0 0 0 0 0 0 0 0 0 0 0 0 0.25 0"/>
<feBlend mode="normal" in2="BackgroundImageFix" result="effect1_dropShadow_110_435"/>
<feBlend mode="normal" in="SourceGraphic" in2="effect1_dropShadow_110_435" result="shape"/>
</filter>
<filter id="filter3_d_110_435" x="584" y="412" width="108" height="176" filterUnits="userSpaceOnUse" color-interpolation-filters="sRGB">
<feFlood flood-opacity="0" result="BackgroundImageFix"/>
<feColorMatrix in="SourceAlpha" type="matrix" values="0 0 0 0 0 0 0 0 0 0 0 0 0 0 0 0 0 0 127 0" result="hardAlpha"/>
<feOffset dy="4"/>
<feGaussianBlur stdDeviation="2"/>
<feComposite in2="hardAlpha" operator="out"/>
<feColorMatrix type="matrix" values="0 0 0 0 0 0 0 0 0 0 0 0 0 0 0 0 0 0 0.25 0"/>
<feBlend mode="normal" in2="BackgroundImageFix" result="effect1_dropShadow_110_435"/>
<feBlend mode="normal" in="SourceGraphic" in2="effect1_dropShadow_110_435" result="shape"/>
</filter>
<filter id="filter4_d_110_435" x="126" y="435" width="126" height="206" filterUnits="userSpaceOnUse" color-interpolation-filters="sRGB">
<feFlood flood-opacity="0" result="BackgroundImageFix"/>
<feColorMatrix in="SourceAlpha" type="matrix" values="0 0 0 0 0 0 0 0 0 0 0 0 0 0 0 0 0 0 127 0" result="hardAlpha"/>
<feOffset dy="4"/>
<feGaussianBlur stdDeviation="2"/>
<feComposite in2="hardAlpha" operator="out"/>
<feColorMatrix type="matrix" values="0 0 0 0 0 0 0 0 0 0 0 0 0 0 0 0 0 0 0.25 0"/>
<feBlend mode="normal" in2="BackgroundImageFix" result="effect1_dropShadow_110_435"/>
<feBlend mode="normal" in="SourceGraphic" in2="effect1_dropShadow_110_435" result="shape"/>
</filter>
<filter id="filter5_d_110_435" x="402" y="435" width="126" height="206" filterUnits="userSpaceOnUse" color-interpolation-filters="sRGB">
<feFlood flood-opacity="0" result="BackgroundImageFix"/>
<feColorMatrix in="SourceAlpha" type="matrix" values="0 0 0 0 0 0 0 0 0 0 0 0 0 0 0 0 0 0 127 0" result="hardAlpha"/>
<feOffset dy="4"/>
<feGaussianBlur stdDeviation="2"/>
<feComposite in2="hardAlpha" operator="out"/>
<feColorMatrix type="matrix" values="0 0 0 0 0 0 0 0 0 0 0 0 0 0 0 0 0 0 0.25 0"/>
<feBlend mode="normal" in2="BackgroundImageFix" result="effect1_dropShadow_110_435"/>
<feBlend mode="normal" in="SourceGraphic" in2="effect1_dropShadow_110_435" result="shape"/>
</filter>
<filter id="filter6_d_110_435" x="264" y="435" width="126" height="206" filterUnits="userSpaceOnUse" color-interpolation-filters="sRGB">
<feFlood flood-opacity="0" result="BackgroundImageFix"/>
<feColorMatrix in="SourceAlpha" type="matrix" values="0 0 0 0 0 0 0 0 0 0 0 0 0 0 0 0 0 0 127 0" result="hardAlpha"/>
<feOffset dy="4"/>
<feGaussianBlur stdDeviation="2"/>
<feComposite in2="hardAlpha" operator="out"/>
<feColorMatrix type="matrix" values="0 0 0 0 0 0 0 0 0 0 0 0 0 0 0 0 0 0 0.25 0"/>
<feBlend mode="normal" in2="BackgroundImageFix" result="effect1_dropShadow_110_435"/>
<feBlend mode="normal" in="SourceGraphic" in2="effect1_dropShadow_110_435" result="shape"/>
</filter>
<filter id="filter7_d_110_435" x="322" y="481" width="126" height="206" filterUnits="userSpaceOnUse" color-interpolation-filters="sRGB">
<feFlood flood-opacity="0" result="BackgroundImageFix"/>
<feColorMatrix in="SourceAlpha" type="matrix" values="0 0 0 0 0 0 0 0 0 0 0 0 0 0 0 0 0 0 127 0" result="hardAlpha"/>
<feOffset dy="4"/>
<feGaussianBlur stdDeviation="2"/>
<feComposite in2="hardAlpha" operator="out"/>
<feColorMatrix type="matrix" values="0 0 0 0 0 0 0 0 0 0 0 0 0 0 0 0 0 0 0.25 0"/>
<feBlend mode="normal" in2="BackgroundImageFix" result="effect1_dropShadow_110_435"/>
<feBlend mode="normal" in="SourceGraphic" in2="effect1_dropShadow_110_435" result="shape"/>
</filter>
<filter id="filter8_d_110_435" x="540" y="435" width="126" height="206" filterUnits="userSpaceOnUse" color-interpolation-filters="sRGB">
<feFlood flood-opacity="0" result="BackgroundImageFix"/>
<feColorMatrix in="SourceAlpha" type="matrix" values="0 0 0 0 0 0 0 0 0 0 0 0 0 0 0 0 0 0 127 0" result="hardAlpha"/>
<feOffset dy="4"/>
<feGaussianBlur stdDeviation="2"/>
<feComposite in2="hardAlpha" operator="out"/>
<feColorMatrix type="matrix" values="0 0 0 0 0 0 0 0 0 0 0 0 0 0 0 0 0 0 0.25 0"/>
<feBlend mode="normal" in2="BackgroundImageFix" result="effect1_dropShadow_110_435"/>
<feBlend mode="normal" in="SourceGraphic" in2="effect1_dropShadow_110_435" result="shape"/>
</filter>
<filter id="filter9_d_110_435" x="184" y="481" width="126" height="206" filterUnits="userSpaceOnUse" color-interpolation-filters="sRGB">
<feFlood flood-opacity="0" result="BackgroundImageFix"/>
<feColorMatrix in="SourceAlpha" type="matrix" values="0 0 0 0 0 0 0 0 0 0 0 0 0 0 0 0 0 0 127 0" result="hardAlpha"/>
<feOffset dy="4"/>
<feGaussianBlur stdDeviation="2"/>
<feComposite in2="hardAlpha" operator="out"/>
<feColorMatrix type="matrix" values="0 0 0 0 0 0 0 0 0 0 0 0 0 0 0 0 0 0 0.25 0"/>
<feBlend mode="normal" in2="BackgroundImageFix" result="effect1_dropShadow_110_435"/>
<feBlend mode="normal" in="SourceGraphic" in2="effect1_dropShadow_110_435" result="shape"/>
</filter>
<filter id="filter10_d_110_435" x="460" y="481" width="126" height="206" filterUnits="userSpaceOnUse" color-interpolation-filters="sRGB">
<feFlood flood-opacity="0" result="BackgroundImageFix"/>
<feColorMatrix in="SourceAlpha" type="matrix" values="0 0 0 0 0 0 0 0 0 0 0 0 0 0 0 0 0 0 127 0" result="hardAlpha"/>
<feOffset dy="4"/>
<feGaussianBlur stdDeviation="2"/>
<feComposite in2="hardAlpha" operator="out"/>
<feColorMatrix type="matrix" values="0 0 0 0 0 0 0 0 0 0 0 0 0 0 0 0 0 0 0.25 0"/>
<feBlend mode="normal" in2="BackgroundImageFix" result="effect1_dropShadow_110_435"/>
<feBlend mode="normal" in="SourceGraphic" in2="effect1_dropShadow_110_435" result="shape"/>
</filter>
<filter id="filter11_d_110_435" x="598" y="481" width="126" height="206" filterUnits="userSpaceOnUse" color-interpolation-filters="sRGB">
<feFlood flood-opacity="0" result="BackgroundImageFix"/>
<feColorMatrix in="SourceAlpha" type="matrix" values="0 0 0 0 0 0 0 0 0 0 0 0 0 0 0 0 0 0 127 0" result="hardAlpha"/>
<feOffset dy="4"/>
<feGaussianBlur stdDeviation="2"/>
<feComposite in2="hardAlpha" operator="out"/>
<feColorMatrix type="matrix" values="0 0 0 0 0 0 0 0 0 0 0 0 0 0 0 0 0 0 0.25 0"/>
<feBlend mode="normal" in2="BackgroundImageFix" result="effect1_dropShadow_110_435"/>
<feBlend mode="normal" in="SourceGraphic" in2="effect1_dropShadow_110_435" result="shape"/>
</filter>
<clipPath id="clip0_110_435">
<rect width="1440" height="1024" fill="white"/>
</clipPath>
</defs>
</svg>
