<svg width="1440" height="1024" viewBox="0 0 1440 1024" fill="none" xmlns="http://www.w3.org/2000/svg">
<g id="listen2-no" clip-path="url(#clip0_110_347)">
<rect width="1440" height="1024" fill="#333148"/>
<path id="part 4" d="M47.096 132.12V60.024H61.688L62.264 71.448L59.384 70.584C59.832 68.536 61.048 66.648 63.032 64.92C65.016 63.192 67.512 61.784 70.52 60.696C73.592 59.608 76.856 59.064 80.312 59.064C85.304 59.064 89.688 60.216 93.464 62.52C97.24 64.76 100.184 67.864 102.296 71.832C104.472 75.736 105.56 80.28 105.56 85.464C105.56 90.584 104.472 95.128 102.296 99.096C100.184 103.064 97.208 106.2 93.368 108.504C89.528 110.744 85.112 111.864 80.12 111.864C76.664 111.864 73.432 111.288 70.424 110.136C67.416 108.984 64.888 107.48 62.84 105.624C60.856 103.768 59.576 101.816 59 99.768L62.552 98.424V132.12H47.096ZM76.376 98.904C79.256 98.904 81.752 98.36 83.864 97.272C85.976 96.12 87.608 94.552 88.76 92.568C89.976 90.584 90.584 88.216 90.584 85.464C90.584 82.776 89.976 80.44 88.76 78.456C87.608 76.408 85.976 74.84 83.864 73.752C81.816 72.6 79.32 72.024 76.376 72.024C73.496 72.024 70.968 72.568 68.792 73.656C66.68 74.744 65.016 76.312 63.8 78.36C62.648 80.408 62.072 82.776 62.072 85.464C62.072 88.216 62.648 90.584 63.8 92.568C65.016 94.552 66.68 96.12 68.792 97.272C70.968 98.36 73.496 98.904 76.376 98.904ZM144.211 111.864C139.155 111.864 134.739 110.744 130.963 108.504C127.187 106.264 124.211 103.16 122.035 99.192C119.923 95.16 118.867 90.584 118.867 85.464C118.867 80.28 119.955 75.704 122.131 71.736C124.307 67.768 127.315 64.664 131.155 62.424C135.059 60.12 139.539 58.968 144.595 58.968C147.475 58.968 150.131 59.352 152.563 60.12C154.995 60.824 157.107 61.816 158.899 63.096C160.755 64.376 162.259 65.784 163.411 67.32C164.627 68.856 165.427 70.456 165.811 72.12H162.451V60.024H177.619V111H162.163V97.944L165.427 98.424C165.043 100.088 164.243 101.72 163.027 103.32C161.811 104.92 160.243 106.36 158.323 107.64C156.403 108.92 154.227 109.944 151.795 110.712C149.427 111.48 146.899 111.864 144.211 111.864ZM148.339 98.904C151.219 98.904 153.715 98.36 155.827 97.272C158.003 96.184 159.667 94.648 160.819 92.664C162.035 90.616 162.643 88.216 162.643 85.464C162.643 82.776 162.035 80.44 160.819 78.456C159.667 76.408 158.003 74.808 155.827 73.656C153.715 72.504 151.219 71.928 148.339 71.928C145.459 71.928 142.963 72.504 140.851 73.656C138.739 74.808 137.075 76.408 135.859 78.456C134.707 80.44 134.131 82.776 134.131 85.464C134.131 88.216 134.707 90.616 135.859 92.664C137.075 94.648 138.739 96.184 140.851 97.272C142.963 98.36 145.459 98.904 148.339 98.904ZM201.315 111V60.024H215.907L216.579 77.592L212.931 75.768C213.763 72.632 215.203 69.816 217.251 67.32C219.363 64.76 221.763 62.744 224.451 61.272C227.203 59.736 230.115 58.968 233.187 58.968C234.851 58.968 236.419 59.128 237.891 59.448C239.427 59.768 240.739 60.184 241.827 60.696L237.603 77.496C236.643 76.792 235.331 76.248 233.667 75.864C232.067 75.48 230.435 75.288 228.771 75.288C226.915 75.288 225.219 75.608 223.683 76.248C222.211 76.824 220.963 77.656 219.939 78.744C218.915 79.768 218.115 80.952 217.539 82.296C217.027 83.64 216.771 85.08 216.771 86.616V111H201.315ZM265.932 111V46.008H281.292V111H265.932ZM254.604 73.464V60.024H294.252V73.464H254.604ZM377.032 111V53.304H387.112L357.544 88.248L355.624 83.736H405.256V96.984H349.48L343.048 84.6L378.856 43.224H392.776V111H377.032Z" fill="white"/>
<rect id="Rectangle 7" y="462" width="1567" height="626" fill="#211F2F"/>
<g id="Group 4">
<g id="Vector" filter="url(#filter0_d_110_347)">
<path d="M249.246 452.996C254.515 429.672 287.714 429.672 292.983 452.996L301.541 490.874C304.712 504.912 294.05 518.267 279.672 518.267H262.557C248.179 518.267 237.517 504.912 240.688 490.874L249.246 452.996Z" fill="#3B5EC6"/>
<path d="M294.816 402.046C294.816 415.326 284.061 426.092 270.794 426.092C257.527 426.092 246.772 415.326 246.772 402.046C246.772 388.766 257.527 378 270.794 378C284.061 378 294.816 388.766 294.816 402.046Z" fill="#3B5EC6"/>
<path d="M275.599 506.565C275.599 500.013 280.904 494.702 287.45 494.702C293.995 494.702 299.3 500.013 299.3 506.565V534.137C299.3 540.689 293.995 546 287.45 546C280.904 546 275.599 540.689 275.599 534.137V506.565Z" fill="#3B5EC6"/>
<path d="M284.867 460.609C281.517 454.981 283.36 447.7 288.982 444.347C294.605 440.993 301.879 442.837 305.229 448.466L319.328 472.153C322.678 477.781 320.836 485.062 315.213 488.415C309.59 491.769 302.316 489.925 298.966 484.296L284.867 460.609Z" fill="#3B5EC6"/>
<path d="M236.362 448.548C239.635 442.874 246.883 440.93 252.551 444.206C258.219 447.482 260.161 454.737 256.889 460.411L243.116 484.289C239.844 489.963 232.596 491.907 226.927 488.631C221.259 485.355 219.317 478.1 222.59 472.427L236.362 448.548Z" fill="#3B5EC6"/>
<path d="M242.288 506.565C242.288 500.013 247.594 494.702 254.139 494.702C260.684 494.702 265.99 500.013 265.99 506.565V534.137C265.99 540.689 260.684 546 254.139 546C247.594 546 242.288 540.689 242.288 534.137V506.565Z" fill="#3B5EC6"/>
</g>
<g id="Vector_2" filter="url(#filter1_d_110_347)">
<path d="M483.528 452.996C488.85 429.672 522.381 429.672 527.703 452.996L536.346 490.874C539.549 504.912 528.78 518.267 514.259 518.267H496.972C482.451 518.267 471.682 504.912 474.885 490.874L483.528 452.996Z" fill="#3B5EC6"/>
<path d="M529.555 402.046C529.555 415.326 518.692 426.092 505.292 426.092C491.892 426.092 481.03 415.326 481.03 402.046C481.03 388.766 491.892 378 505.292 378C518.692 378 529.555 388.766 529.555 402.046Z" fill="#3B5EC6"/>
<path d="M510.145 506.565C510.145 500.013 515.504 494.702 522.114 494.702C528.725 494.702 534.083 500.013 534.083 506.565V534.137C534.083 540.689 528.725 546 522.114 546C515.504 546 510.145 540.689 510.145 534.137V506.565Z" fill="#3B5EC6"/>
<path d="M519.506 460.609C516.123 454.981 517.983 447.7 523.662 444.347C529.341 440.993 536.688 442.837 540.071 448.466L554.311 472.153C557.695 477.781 555.834 485.062 550.155 488.415C544.476 491.769 537.13 489.925 533.746 484.296L519.506 460.609Z" fill="#3B5EC6"/>
<path d="M470.516 448.548C473.821 442.874 481.142 440.93 486.867 444.206C492.591 447.482 494.553 454.737 491.248 460.411L477.337 484.289C474.032 489.963 466.712 491.907 460.987 488.631C455.262 485.355 453.3 478.1 456.606 472.427L470.516 448.548Z" fill="#3B5EC6"/>
<path d="M476.501 506.565C476.501 500.013 481.86 494.702 488.47 494.702C495.081 494.702 500.44 500.013 500.44 506.565V534.137C500.44 540.689 495.081 546 488.47 546C481.86 546 476.501 540.689 476.501 534.137V506.565Z" fill="#3B5EC6"/>
</g>
<g id="Vector_3" filter="url(#filter2_d_110_347)">
<path d="M366.528 452.996C371.85 429.672 405.381 429.672 410.703 452.996L419.346 490.874C422.549 504.912 411.78 518.267 397.259 518.267H379.972C365.451 518.267 354.682 504.912 357.885 490.874L366.528 452.996Z" fill="#3B5EC6"/>
<path d="M412.555 402.046C412.555 415.326 401.692 426.092 388.292 426.092C374.892 426.092 364.03 415.326 364.03 402.046C364.03 388.766 374.892 378 388.292 378C401.692 378 412.555 388.766 412.555 402.046Z" fill="#3B5EC6"/>
<path d="M393.145 506.565C393.145 500.013 398.504 494.702 405.114 494.702C411.725 494.702 417.083 500.013 417.083 506.565V534.137C417.083 540.689 411.725 546 405.114 546C398.504 546 393.145 540.689 393.145 534.137V506.565Z" fill="#3B5EC6"/>
<path d="M402.506 460.609C399.123 454.981 400.983 447.7 406.662 444.347C412.341 440.993 419.688 442.837 423.071 448.466L437.311 472.153C440.695 477.781 438.834 485.062 433.155 488.415C427.476 491.769 420.13 489.925 416.746 484.296L402.506 460.609Z" fill="#3B5EC6"/>
<path d="M353.516 448.548C356.821 442.874 364.142 440.93 369.867 444.206C375.591 447.482 377.553 454.737 374.248 460.411L360.337 484.289C357.032 489.963 349.712 491.907 343.987 488.631C338.262 485.355 336.3 478.1 339.606 472.427L353.516 448.548Z" fill="#3B5EC6"/>
<path d="M359.501 506.565C359.501 500.013 364.86 494.702 371.47 494.702C378.081 494.702 383.44 500.013 383.44 506.565V534.137C383.44 540.689 378.081 546 371.47 546C364.86 546 359.501 540.689 359.501 534.137V506.565Z" fill="#3B5EC6"/>
</g>
<g id="Vector_4" filter="url(#filter3_d_110_347)">
<path d="M601.246 452.996C606.515 429.672 639.714 429.672 644.983 452.996L653.541 490.874C656.712 504.912 646.05 518.267 631.672 518.267H614.557C600.179 518.267 589.517 504.912 592.688 490.874L601.246 452.996Z" fill="#3B5EC6"/>
<path d="M646.816 402.046C646.816 415.326 636.061 426.092 622.794 426.092C609.527 426.092 598.772 415.326 598.772 402.046C598.772 388.766 609.527 378 622.794 378C636.061 378 646.816 388.766 646.816 402.046Z" fill="#3B5EC6"/>
<path d="M627.599 506.565C627.599 500.013 632.904 494.702 639.45 494.702C645.995 494.702 651.3 500.013 651.3 506.565V534.137C651.3 540.689 645.995 546 639.45 546C632.904 546 627.599 540.689 627.599 534.137V506.565Z" fill="#3B5EC6"/>
<path d="M636.867 460.609C633.517 454.981 635.36 447.7 640.982 444.347C646.605 440.993 653.879 442.837 657.229 448.466L671.328 472.153C674.678 477.781 672.836 485.062 667.213 488.415C661.59 491.769 654.316 489.925 650.966 484.296L636.867 460.609Z" fill="#3B5EC6"/>
<path d="M588.362 448.548C591.635 442.874 598.883 440.93 604.551 444.206C610.219 447.482 612.161 454.737 608.889 460.411L595.116 484.289C591.844 489.963 584.596 491.907 578.927 488.631C573.259 485.355 571.317 478.1 574.59 472.427L588.362 448.548Z" fill="#3B5EC6"/>
<path d="M594.288 506.565C594.288 500.013 599.594 494.702 606.139 494.702C612.684 494.702 617.99 500.013 617.99 506.565V534.137C617.99 540.689 612.684 546 606.139 546C599.594 546 594.288 540.689 594.288 534.137V506.565Z" fill="#3B5EC6"/>
</g>
<g id="Vector_5" filter="url(#filter4_d_110_347)">
<path d="M148.33 489.388C154.548 461.899 193.722 461.899 199.94 489.388L210.038 534.03C213.78 550.575 201.199 566.315 184.233 566.315H164.037C147.071 566.315 134.49 550.575 138.232 534.03L148.33 489.388Z" fill="#6A94E0"/>
<path d="M202.103 429.34C202.103 444.991 189.412 457.679 173.757 457.679C158.102 457.679 145.411 444.991 145.411 429.34C145.411 413.688 158.102 401 173.757 401C189.412 401 202.103 413.688 202.103 429.34Z" fill="#6A94E0"/>
<path d="M179.426 552.523C179.426 544.801 185.687 538.542 193.41 538.542C201.134 538.542 207.395 544.801 207.395 552.523V585.019C207.395 592.741 201.134 599 193.41 599C185.687 599 179.426 592.741 179.426 585.019V552.523Z" fill="#6A94E0"/>
<path d="M190.364 498.361C186.41 491.728 188.584 483.146 195.219 479.194C201.854 475.242 210.437 477.416 214.39 484.049L231.027 511.966C234.98 518.599 232.806 527.18 226.171 531.132C219.537 535.085 210.953 532.911 207 526.278L190.364 498.361Z" fill="#6A94E0"/>
<path d="M133.128 484.146C136.989 477.459 145.542 475.168 152.23 479.029C158.919 482.889 161.21 491.44 157.349 498.127L141.097 526.269C137.235 532.956 128.683 535.248 121.994 531.387C115.306 527.526 113.014 518.975 116.876 512.289L133.128 484.146Z" fill="#6A94E0"/>
<path d="M140.12 552.523C140.12 544.801 146.381 538.542 154.104 538.542C161.827 538.542 168.088 544.801 168.088 552.523V585.019C168.088 592.741 161.827 599 154.104 599C146.381 599 140.12 592.741 140.12 585.019V552.523Z" fill="#6A94E0"/>
</g>
<g id="Vector_6" filter="url(#filter5_d_110_347)">
<path d="M424.33 489.388C430.548 461.899 469.722 461.899 475.94 489.388L486.038 534.03C489.78 550.575 477.199 566.315 460.233 566.315H440.037C423.071 566.315 410.49 550.575 414.232 534.03L424.33 489.388Z" fill="#6A94E0"/>
<path d="M478.103 429.34C478.103 444.991 465.412 457.679 449.757 457.679C434.102 457.679 421.411 444.991 421.411 429.34C421.411 413.688 434.102 401 449.757 401C465.412 401 478.103 413.688 478.103 429.34Z" fill="#6A94E0"/>
<path d="M455.426 552.523C455.426 544.801 461.687 538.542 469.41 538.542C477.134 538.542 483.395 544.801 483.395 552.523V585.019C483.395 592.741 477.134 599 469.41 599C461.687 599 455.426 592.741 455.426 585.019V552.523Z" fill="#6A94E0"/>
<path d="M466.364 498.361C462.41 491.728 464.584 483.146 471.219 479.194C477.854 475.242 486.437 477.416 490.39 484.049L507.027 511.966C510.98 518.599 508.806 527.18 502.171 531.132C495.537 535.085 486.953 532.911 483 526.278L466.364 498.361Z" fill="#6A94E0"/>
<path d="M409.128 484.146C412.989 477.459 421.542 475.168 428.23 479.029C434.919 482.889 437.21 491.44 433.349 498.127L417.097 526.269C413.235 532.956 404.683 535.248 397.994 531.387C391.306 527.526 389.014 518.975 392.876 512.289L409.128 484.146Z" fill="#6A94E0"/>
<path d="M416.12 552.523C416.12 544.801 422.381 538.542 430.104 538.542C437.827 538.542 444.088 544.801 444.088 552.523V585.019C444.088 592.741 437.827 599 430.104 599C422.381 599 416.12 592.741 416.12 585.019V552.523Z" fill="#6A94E0"/>
</g>
<g id="Vector_7" filter="url(#filter6_d_110_347)">
<path d="M286.33 489.388C292.548 461.899 331.722 461.899 337.94 489.388L348.038 534.03C351.78 550.575 339.199 566.315 322.233 566.315H302.037C285.071 566.315 272.49 550.575 276.232 534.03L286.33 489.388Z" fill="#6A94E0"/>
<path d="M340.103 429.34C340.103 444.991 327.412 457.679 311.757 457.679C296.102 457.679 283.411 444.991 283.411 429.34C283.411 413.688 296.102 401 311.757 401C327.412 401 340.103 413.688 340.103 429.34Z" fill="#6A94E0"/>
<path d="M317.426 552.523C317.426 544.801 323.687 538.542 331.41 538.542C339.134 538.542 345.395 544.801 345.395 552.523V585.019C345.395 592.741 339.134 599 331.41 599C323.687 599 317.426 592.741 317.426 585.019V552.523Z" fill="#6A94E0"/>
<path d="M328.364 498.361C324.41 491.728 326.584 483.146 333.219 479.194C339.854 475.242 348.437 477.416 352.39 484.049L369.027 511.966C372.98 518.599 370.806 527.18 364.171 531.132C357.537 535.085 348.953 532.911 345 526.278L328.364 498.361Z" fill="#6A94E0"/>
<path d="M271.128 484.146C274.989 477.459 283.542 475.168 290.23 479.029C296.919 482.889 299.21 491.44 295.349 498.127L279.097 526.269C275.235 532.956 266.683 535.248 259.994 531.387C253.306 527.526 251.014 518.975 254.876 512.289L271.128 484.146Z" fill="#6A94E0"/>
<path d="M278.12 552.523C278.12 544.801 284.381 538.542 292.104 538.542C299.827 538.542 306.088 544.801 306.088 552.523V585.019C306.088 592.741 299.827 599 292.104 599C284.381 599 278.12 592.741 278.12 585.019V552.523Z" fill="#6A94E0"/>
</g>
<g id="Vector_8" filter="url(#filter7_d_110_347)">
<path d="M344.33 535.388C350.548 507.899 389.722 507.899 395.94 535.388L406.038 580.03C409.78 596.575 397.199 612.315 380.233 612.315H360.037C343.071 612.315 330.49 596.575 334.232 580.03L344.33 535.388Z" fill="#8DBBFB"/>
<path d="M398.103 475.34C398.103 490.991 385.412 503.679 369.757 503.679C354.102 503.679 341.411 490.991 341.411 475.34C341.411 459.688 354.102 447 369.757 447C385.412 447 398.103 459.688 398.103 475.34Z" fill="#8DBBFB"/>
<path d="M375.426 598.523C375.426 590.801 381.687 584.542 389.41 584.542C397.134 584.542 403.395 590.801 403.395 598.523V631.019C403.395 638.741 397.134 645 389.41 645C381.687 645 375.426 638.741 375.426 631.019V598.523Z" fill="#8DBBFB"/>
<path d="M386.364 544.361C382.41 537.728 384.584 529.146 391.219 525.194C397.854 521.242 406.437 523.416 410.39 530.049L427.027 557.966C430.98 564.599 428.806 573.18 422.171 577.132C415.537 581.085 406.953 578.911 403 572.278L386.364 544.361Z" fill="#8DBBFB"/>
<path d="M329.128 530.146C332.989 523.459 341.542 521.168 348.23 525.029C354.919 528.889 357.21 537.44 353.349 544.127L337.097 572.269C333.235 578.956 324.683 581.248 317.994 577.387C311.306 573.526 309.014 564.975 312.876 558.289L329.128 530.146Z" fill="#8DBBFB"/>
<path d="M336.12 598.523C336.12 590.801 342.381 584.542 350.104 584.542C357.827 584.542 364.088 590.801 364.088 598.523V631.019C364.088 638.741 357.827 645 350.104 645C342.381 645 336.12 638.741 336.12 631.019V598.523Z" fill="#8DBBFB"/>
</g>
<g id="Vector_9" filter="url(#filter8_d_110_347)">
<path d="M562.33 489.388C568.548 461.899 607.722 461.899 613.94 489.388L624.038 534.03C627.78 550.575 615.199 566.315 598.233 566.315H578.037C561.071 566.315 548.49 550.575 552.232 534.03L562.33 489.388Z" fill="#6A94E0"/>
<path d="M616.103 429.34C616.103 444.991 603.412 457.679 587.757 457.679C572.102 457.679 559.411 444.991 559.411 429.34C559.411 413.688 572.102 401 587.757 401C603.412 401 616.103 413.688 616.103 429.34Z" fill="#6A94E0"/>
<path d="M593.426 552.523C593.426 544.801 599.687 538.542 607.41 538.542C615.134 538.542 621.395 544.801 621.395 552.523V585.019C621.395 592.741 615.134 599 607.41 599C599.687 599 593.426 592.741 593.426 585.019V552.523Z" fill="#6A94E0"/>
<path d="M604.364 498.361C600.41 491.728 602.584 483.146 609.219 479.194C615.854 475.242 624.437 477.416 628.39 484.049L645.027 511.966C648.98 518.599 646.806 527.18 640.171 531.132C633.537 535.085 624.953 532.911 621 526.278L604.364 498.361Z" fill="#6A94E0"/>
<path d="M547.128 484.146C550.989 477.459 559.542 475.168 566.23 479.029C572.919 482.889 575.21 491.44 571.349 498.127L555.097 526.269C551.235 532.956 542.683 535.248 535.994 531.387C529.306 527.526 527.014 518.975 530.876 512.289L547.128 484.146Z" fill="#6A94E0"/>
<path d="M554.12 552.523C554.12 544.801 560.381 538.542 568.104 538.542C575.827 538.542 582.088 544.801 582.088 552.523V585.019C582.088 592.741 575.827 599 568.104 599C560.381 599 554.12 592.741 554.12 585.019V552.523Z" fill="#6A94E0"/>
</g>
<g id="Vector_10" filter="url(#filter9_d_110_347)">
<path d="M206.33 535.388C212.548 507.899 251.722 507.899 257.94 535.388L268.038 580.03C271.78 596.575 259.199 612.315 242.233 612.315H222.037C205.071 612.315 192.49 596.575 196.232 580.03L206.33 535.388Z" fill="#8DBBFB"/>
<path d="M260.103 475.34C260.103 490.991 247.412 503.679 231.757 503.679C216.102 503.679 203.411 490.991 203.411 475.34C203.411 459.688 216.102 447 231.757 447C247.412 447 260.103 459.688 260.103 475.34Z" fill="#8DBBFB"/>
<path d="M237.426 598.523C237.426 590.801 243.687 584.542 251.41 584.542C259.134 584.542 265.395 590.801 265.395 598.523V631.019C265.395 638.741 259.134 645 251.41 645C243.687 645 237.426 638.741 237.426 631.019V598.523Z" fill="#8DBBFB"/>
<path d="M248.364 544.361C244.41 537.728 246.584 529.146 253.219 525.194C259.854 521.242 268.437 523.416 272.39 530.049L289.027 557.966C292.98 564.599 290.806 573.18 284.171 577.132C277.537 581.085 268.953 578.911 265 572.278L248.364 544.361Z" fill="#8DBBFB"/>
<path d="M191.128 530.146C194.989 523.459 203.542 521.168 210.23 525.029C216.919 528.889 219.21 537.44 215.349 544.127L199.097 572.269C195.235 578.956 186.683 581.248 179.994 577.387C173.306 573.526 171.014 564.975 174.876 558.289L191.128 530.146Z" fill="#8DBBFB"/>
<path d="M198.12 598.523C198.12 590.801 204.381 584.542 212.104 584.542C219.827 584.542 226.088 590.801 226.088 598.523V631.019C226.088 638.741 219.827 645 212.104 645C204.381 645 198.12 638.741 198.12 631.019V598.523Z" fill="#8DBBFB"/>
</g>
<g id="Vector_11" filter="url(#filter10_d_110_347)">
<path d="M482.33 535.388C488.548 507.899 527.722 507.899 533.94 535.388L544.038 580.03C547.78 596.575 535.199 612.315 518.233 612.315H498.037C481.071 612.315 468.49 596.575 472.232 580.03L482.33 535.388Z" fill="#8DBBFB"/>
<path d="M536.103 475.34C536.103 490.991 523.412 503.679 507.757 503.679C492.102 503.679 479.411 490.991 479.411 475.34C479.411 459.688 492.102 447 507.757 447C523.412 447 536.103 459.688 536.103 475.34Z" fill="#8DBBFB"/>
<path d="M513.426 598.523C513.426 590.801 519.687 584.542 527.41 584.542C535.134 584.542 541.395 590.801 541.395 598.523V631.019C541.395 638.741 535.134 645 527.41 645C519.687 645 513.426 638.741 513.426 631.019V598.523Z" fill="#8DBBFB"/>
<path d="M524.364 544.361C520.41 537.728 522.584 529.146 529.219 525.194C535.854 521.242 544.437 523.416 548.39 530.049L565.027 557.966C568.98 564.599 566.806 573.18 560.171 577.132C553.537 581.085 544.953 578.911 541 572.278L524.364 544.361Z" fill="#8DBBFB"/>
<path d="M467.128 530.146C470.989 523.459 479.542 521.168 486.23 525.029C492.919 528.889 495.21 537.44 491.349 544.127L475.097 572.269C471.235 578.956 462.683 581.248 455.994 577.387C449.306 573.526 447.014 564.975 450.876 558.289L467.128 530.146Z" fill="#8DBBFB"/>
<path d="M474.12 598.523C474.12 590.801 480.381 584.542 488.104 584.542C495.827 584.542 502.088 590.801 502.088 598.523V631.019C502.088 638.741 495.827 645 488.104 645C480.381 645 474.12 638.741 474.12 631.019V598.523Z" fill="#8DBBFB"/>
</g>
<g id="Vector_12" filter="url(#filter11_d_110_347)">
<path d="M620.33 535.388C626.548 507.899 665.722 507.899 671.94 535.388L682.038 580.03C685.78 596.575 673.199 612.315 656.233 612.315H636.037C619.071 612.315 606.49 596.575 610.232 580.03L620.33 535.388Z" fill="#8DBBFB"/>
<path d="M674.103 475.34C674.103 490.991 661.412 503.679 645.757 503.679C630.102 503.679 617.411 490.991 617.411 475.34C617.411 459.688 630.102 447 645.757 447C661.412 447 674.103 459.688 674.103 475.34Z" fill="#8DBBFB"/>
<path d="M651.426 598.523C651.426 590.801 657.687 584.542 665.41 584.542C673.134 584.542 679.395 590.801 679.395 598.523V631.019C679.395 638.741 673.134 645 665.41 645C657.687 645 651.426 638.741 651.426 631.019V598.523Z" fill="#8DBBFB"/>
<path d="M662.364 544.361C658.41 537.728 660.584 529.146 667.219 525.194C673.854 521.242 682.437 523.416 686.39 530.049L703.027 557.966C706.98 564.599 704.806 573.18 698.171 577.132C691.537 581.085 682.953 578.911 679 572.278L662.364 544.361Z" fill="#8DBBFB"/>
<path d="M605.128 530.146C608.989 523.459 617.542 521.168 624.23 525.029C630.919 528.889 633.21 537.44 629.349 544.127L613.097 572.269C609.235 578.956 600.683 581.248 593.994 577.387C587.306 573.526 585.014 564.975 588.876 558.289L605.128 530.146Z" fill="#8DBBFB"/>
<path d="M612.12 598.523C612.12 590.801 618.381 584.542 626.104 584.542C633.827 584.542 640.088 590.801 640.088 598.523V631.019C640.088 638.741 633.827 645 626.104 645C618.381 645 612.12 638.741 612.12 631.019V598.523Z" fill="#8DBBFB"/>
</g>
</g>
<path id="Polygon 1" d="M1062.37 285.641C1078.61 268.052 1106.39 268.052 1122.63 285.641L1351.58 533.691C1375.82 559.955 1357.2 602.5 1321.46 602.5H863.545C827.803 602.5 809.175 559.955 833.417 533.691L1062.37 285.641Z" fill="#485C77"/>
<line id="Line 1" x1="745.5" y1="458.5" x2="745.5" y2="112.5" stroke="#485C77" stroke-width="25" stroke-linecap="round"/>
<rect id="Rectangle 8" x="733" y="100" width="172" height="96" rx="14" fill="#3B5EC6"/>
<rect id="Rectangle 9" x="803" y="100" width="32" height="96" fill="white"/>
<rect id="Rectangle 11" x="902" y="97" width="21.7609" height="196.456" rx="10.8804" transform="rotate(62.972 902 97)" fill="white"/>
<rect id="Rectangle 12" x="909.953" y="191.021" width="21.7609" height="196.456" rx="10.8804" transform="rotate(120 909.953 191.021)" fill="white"/>
<rect id="Rectangle 10" x="733" y="164" width="27" height="172" transform="rotate(-90 733 164)" fill="white"/>
<rect id="Rectangle 13" x="901.061" y="102.357" width="13.0698" height="189.913" rx="6.53491" transform="rotate(62.972 901.061 102.357)" fill="#EF1044"/>
<rect id="Rectangle 14" x="905.058" y="192.791" width="13.0698" height="189.913" rx="6.53491" transform="rotate(120 905.058 192.791)" fill="#EF1044"/>
<rect id="Rectangle 15" x="733" y="144" width="172" height="14" fill="#EF1044"/>
<rect id="Rectangle 16" x="827" y="100" width="96" height="16" transform="rotate(90 827 100)" fill="#EF1044"/>
<rect id="Rectangle 17" x="1041" y="447" width="104" height="198" rx="28" fill="#201F2F"/>
<path id="you get kicked out" d="M181.461 797.08L194.805 769.72L194.517 777.496L167.445 724.024H185.013L197.397 750.52C198.293 752.312 199.125 754.136 199.893 755.992C200.661 757.784 201.269 759.576 201.717 761.368L198.837 762.136C199.413 760.728 200.085 759.064 200.853 757.144C201.621 755.224 202.421 753.272 203.253 751.288L214.677 724.024H232.245L207.285 775.192L197.013 797.08H181.461ZM273.226 775.96C267.274 775.96 261.994 774.808 257.386 772.504C252.778 770.2 249.162 767.064 246.538 763.096C243.914 759.128 242.602 754.584 242.602 749.464C242.602 744.344 243.914 739.8 246.538 735.832C249.162 731.864 252.778 728.728 257.386 726.424C261.994 724.12 267.274 722.968 273.226 722.968C279.114 722.968 284.33 724.12 288.874 726.424C293.482 728.728 297.098 731.864 299.722 735.832C302.346 739.8 303.658 744.344 303.658 749.464C303.658 754.584 302.346 759.128 299.722 763.096C297.098 767.064 293.482 770.2 288.874 772.504C284.33 774.808 279.114 775.96 273.226 775.96ZM273.226 762.712C275.978 762.712 278.474 762.136 280.714 760.984C283.018 759.832 284.81 758.264 286.09 756.28C287.434 754.296 288.074 752.024 288.01 749.464C288.074 746.904 287.434 744.6 286.09 742.552C284.81 740.504 283.018 738.936 280.714 737.848C278.474 736.696 275.978 736.12 273.226 736.12C270.41 736.12 267.818 736.696 265.45 737.848C263.146 739 261.354 740.568 260.074 742.552C258.794 744.536 258.154 746.84 258.154 749.464C258.154 752.024 258.794 754.296 260.074 756.28C261.354 758.264 263.146 759.832 265.45 760.984C267.818 762.136 270.41 762.712 273.226 762.712ZM341.698 776.056C337.602 776.056 334.05 775.16 331.042 773.368C328.098 771.576 325.826 768.984 324.226 765.592C322.626 762.136 321.826 758.008 321.826 753.208V724.024H337.186V750.712C337.186 753.336 337.538 755.544 338.242 757.336C339.01 759.128 340.194 760.504 341.794 761.464C343.394 762.36 345.346 762.808 347.65 762.808C349.314 762.808 350.85 762.552 352.258 762.04C353.666 761.464 354.914 760.696 356.002 759.736C357.09 758.712 357.922 757.56 358.498 756.28C359.138 754.936 359.458 753.432 359.458 751.768V724.024H374.818V775H360.418L359.746 764.536L362.53 763.384C361.826 765.624 360.482 767.704 358.498 769.624C356.514 771.544 354.082 773.112 351.202 774.328C348.386 775.48 345.218 776.056 341.698 776.056ZM462.978 797.08C457.922 797.08 453.218 796.44 448.866 795.16C444.578 793.944 441.058 792.408 438.306 790.552L443.586 779.608C444.994 780.376 446.562 781.112 448.29 781.816C450.082 782.52 452.034 783.096 454.146 783.544C456.258 784.056 458.562 784.312 461.058 784.312C464.322 784.312 467.074 783.768 469.314 782.68C471.618 781.592 473.346 779.928 474.498 777.688C475.714 775.512 476.322 772.824 476.322 769.624V762.616L479.298 763.096C478.786 765.144 477.506 767.032 475.458 768.76C473.41 770.488 470.85 771.896 467.778 772.984C464.706 774.072 461.442 774.616 457.986 774.616C452.93 774.616 448.482 773.56 444.642 771.448C440.802 769.272 437.762 766.296 435.522 762.52C433.346 758.68 432.258 754.264 432.258 749.272C432.258 744.152 433.378 739.64 435.618 735.736C437.858 731.768 440.93 728.664 444.834 726.424C448.738 724.12 453.25 722.968 458.37 722.968C460.098 722.968 461.89 723.192 463.746 723.64C465.666 724.024 467.522 724.568 469.314 725.272C471.17 725.912 472.834 726.744 474.306 727.768C475.842 728.728 477.09 729.816 478.05 731.032C479.074 732.184 479.65 733.432 479.778 734.776L476.61 735.544L477.282 724.024H491.778V769.336C491.778 773.88 491.042 777.848 489.57 781.24C488.162 784.696 486.178 787.608 483.618 789.976C481.058 792.344 477.986 794.104 474.402 795.256C470.882 796.472 467.074 797.08 462.978 797.08ZM462.402 762.712C465.282 762.712 467.81 762.168 469.986 761.08C472.162 759.928 473.826 758.36 474.978 756.376C476.194 754.392 476.802 752.056 476.802 749.368C476.802 746.68 476.194 744.344 474.978 742.36C473.826 740.312 472.162 738.744 469.986 737.656C467.81 736.504 465.282 735.928 462.402 735.928C459.394 735.928 456.77 736.504 454.53 737.656C452.29 738.744 450.562 740.312 449.346 742.36C448.13 744.344 447.522 746.68 447.522 749.368C447.522 752.056 448.13 754.392 449.346 756.376C450.562 758.36 452.29 759.928 454.53 761.08C456.77 762.168 459.394 762.712 462.402 762.712ZM540.404 775.96C534.196 775.96 528.756 774.84 524.084 772.6C519.476 770.296 515.892 767.192 513.332 763.288C510.772 759.32 509.492 754.808 509.492 749.752C509.492 745.72 510.228 742.072 511.7 738.808C513.172 735.544 515.22 732.728 517.844 730.36C520.468 727.992 523.54 726.168 527.06 724.888C530.58 723.608 534.388 722.968 538.484 722.968C542.452 722.968 546.1 723.608 549.428 724.888C552.756 726.104 555.636 727.864 558.068 730.168C560.564 732.472 562.484 735.192 563.828 738.328C565.172 741.464 565.78 744.92 565.652 748.696L565.556 753.016H519.572L517.364 744.088H553.076L551.444 746.008V744.088C551.252 742.488 550.548 741.048 549.332 739.768C548.18 738.488 546.676 737.496 544.82 736.792C542.964 736.024 540.916 735.64 538.676 735.64C535.796 735.64 533.236 736.12 530.996 737.08C528.756 737.976 526.996 739.384 525.716 741.304C524.5 743.224 523.892 745.656 523.892 748.6C523.892 751.416 524.628 753.88 526.1 755.992C527.636 758.104 529.78 759.768 532.532 760.984C535.348 762.2 538.644 762.808 542.42 762.808C545.684 762.808 548.404 762.424 550.58 761.656C552.82 760.824 554.836 759.8 556.628 758.584L563.54 768.568C561.428 770.168 559.092 771.544 556.532 772.696C554.036 773.784 551.412 774.584 548.66 775.096C545.972 775.672 543.22 775.96 540.404 775.96ZM589.713 775V710.008H605.073V775H589.713ZM578.385 737.464V724.024H618.033V737.464H578.385ZM689.677 761.176L684.685 749.656L713.005 724.024H733.453L689.677 761.176ZM675.565 775V703.96H690.541V775H675.565ZM714.733 775L693.901 749.464L704.557 741.016L732.877 775H714.733ZM750.77 775V724.024H766.226V775H750.77ZM758.45 713.56C755.57 713.56 753.33 712.888 751.73 711.544C750.13 710.136 749.33 708.152 749.33 705.592C749.33 703.288 750.13 701.4 751.73 699.928C753.394 698.456 755.634 697.72 758.45 697.72C761.33 697.72 763.57 698.424 765.17 699.832C766.77 701.176 767.57 703.096 767.57 705.592C767.57 707.96 766.738 709.88 765.074 711.352C763.474 712.824 761.266 713.56 758.45 713.56ZM814.969 775.96C809.337 775.96 804.345 774.808 799.993 772.504C795.641 770.2 792.217 767.064 789.721 763.096C787.225 759.064 785.977 754.52 785.977 749.464C785.977 744.408 787.225 739.896 789.721 735.928C792.217 731.896 795.609 728.728 799.897 726.424C804.185 724.12 809.049 722.968 814.489 722.968C819.673 722.968 824.409 723.768 828.697 725.368C832.985 726.904 836.473 729.08 839.161 731.896L830.809 742.456C829.657 741.368 828.281 740.344 826.681 739.384C825.081 738.424 823.353 737.688 821.497 737.176C819.705 736.6 817.849 736.312 815.929 736.312C812.985 736.312 810.393 736.888 808.153 738.04C805.977 739.128 804.281 740.664 803.065 742.648C801.913 744.632 801.337 746.904 801.337 749.464C801.337 751.896 801.945 754.104 803.161 756.088C804.377 758.072 806.073 759.64 808.249 760.792C810.425 761.944 812.953 762.52 815.833 762.52C818.137 762.52 820.185 762.296 821.977 761.848C823.769 761.4 825.401 760.792 826.873 760.024C828.409 759.192 829.721 758.264 830.809 757.24L839.161 767.704C836.281 770.136 832.761 772.12 828.601 773.656C824.441 775.192 819.897 775.96 814.969 775.96ZM870.989 761.176L865.997 749.656L894.317 724.024H914.765L870.989 761.176ZM856.877 775V703.96H871.853V775H856.877ZM896.045 775L875.213 749.464L885.869 741.016L914.189 775H896.045ZM954.311 775.96C948.103 775.96 942.663 774.84 937.991 772.6C933.383 770.296 929.799 767.192 927.239 763.288C924.679 759.32 923.398 754.808 923.398 749.752C923.398 745.72 924.135 742.072 925.607 738.808C927.079 735.544 929.127 732.728 931.751 730.36C934.375 727.992 937.447 726.168 940.967 724.888C944.487 723.608 948.295 722.968 952.391 722.968C956.359 722.968 960.007 723.608 963.335 724.888C966.663 726.104 969.543 727.864 971.975 730.168C974.471 732.472 976.391 735.192 977.735 738.328C979.079 741.464 979.687 744.92 979.559 748.696L979.463 753.016H933.479L931.271 744.088H966.983L965.351 746.008V744.088C965.159 742.488 964.455 741.048 963.239 739.768C962.087 738.488 960.583 737.496 958.727 736.792C956.871 736.024 954.823 735.64 952.583 735.64C949.703 735.64 947.143 736.12 944.903 737.08C942.663 737.976 940.903 739.384 939.623 741.304C938.407 743.224 937.799 745.656 937.799 748.6C937.799 751.416 938.535 753.88 940.007 755.992C941.543 758.104 943.687 759.768 946.439 760.984C949.255 762.2 952.551 762.808 956.327 762.808C959.591 762.808 962.311 762.424 964.487 761.656C966.727 760.824 968.743 759.8 970.535 758.584L977.447 768.568C975.335 770.168 972.999 771.544 970.439 772.696C967.943 773.784 965.319 774.584 962.567 775.096C959.879 775.672 957.127 775.96 954.311 775.96ZM1018.02 776.056C1013.03 776.056 1008.64 774.936 1004.87 772.696C1001.09 770.392 998.147 767.256 996.035 763.288C993.923 759.256 992.867 754.68 992.867 749.56C992.867 744.44 993.955 739.896 996.131 735.928C998.307 731.896 1001.32 728.728 1005.16 726.424C1009.06 724.12 1013.54 722.968 1018.6 722.968C1021.41 722.968 1024.04 723.352 1026.47 724.12C1028.9 724.824 1031.08 725.784 1033 727C1034.98 728.216 1036.55 729.624 1037.7 731.224C1038.92 732.76 1039.62 734.328 1039.81 735.928L1036.16 736.792V703.96H1051.62V775H1037.32L1036.45 762.616L1039.52 763.384C1039.33 764.984 1038.63 766.552 1037.41 768.088C1036.2 769.56 1034.6 770.904 1032.61 772.12C1030.69 773.272 1028.48 774.232 1025.99 775C1023.49 775.704 1020.84 776.056 1018.02 776.056ZM1022.34 763.096C1025.22 763.096 1027.72 762.52 1029.83 761.368C1032 760.216 1033.67 758.648 1034.82 756.664C1035.97 754.616 1036.55 752.248 1036.55 749.56C1036.55 746.808 1035.97 744.44 1034.82 742.456C1033.67 740.408 1032 738.84 1029.83 737.752C1027.72 736.6 1025.22 736.024 1022.34 736.024C1019.46 736.024 1016.96 736.6 1014.85 737.752C1012.74 738.84 1011.08 740.408 1009.86 742.456C1008.71 744.44 1008.13 746.808 1008.13 749.56C1008.13 752.248 1008.71 754.616 1009.86 756.664C1011.08 758.648 1012.74 760.216 1014.85 761.368C1016.96 762.52 1019.46 763.096 1022.34 763.096ZM1138.26 775.96C1132.31 775.96 1127.03 774.808 1122.42 772.504C1117.81 770.2 1114.19 767.064 1111.57 763.096C1108.95 759.128 1107.63 754.584 1107.63 749.464C1107.63 744.344 1108.95 739.8 1111.57 735.832C1114.19 731.864 1117.81 728.728 1122.42 726.424C1127.03 724.12 1132.31 722.968 1138.26 722.968C1144.15 722.968 1149.36 724.12 1153.91 726.424C1158.51 728.728 1162.13 731.864 1164.75 735.832C1167.38 739.8 1168.69 744.344 1168.69 749.464C1168.69 754.584 1167.38 759.128 1164.75 763.096C1162.13 767.064 1158.51 770.2 1153.91 772.504C1149.36 774.808 1144.15 775.96 1138.26 775.96ZM1138.26 762.712C1141.01 762.712 1143.51 762.136 1145.75 760.984C1148.05 759.832 1149.84 758.264 1151.12 756.28C1152.47 754.296 1153.11 752.024 1153.04 749.464C1153.11 746.904 1152.47 744.6 1151.12 742.552C1149.84 740.504 1148.05 738.936 1145.75 737.848C1143.51 736.696 1141.01 736.12 1138.26 736.12C1135.44 736.12 1132.85 736.696 1130.48 737.848C1128.18 739 1126.39 740.568 1125.11 742.552C1123.83 744.536 1123.19 746.84 1123.19 749.464C1123.19 752.024 1123.83 754.296 1125.11 756.28C1126.39 758.264 1128.18 759.832 1130.48 760.984C1132.85 762.136 1135.44 762.712 1138.26 762.712ZM1206.73 776.056C1202.63 776.056 1199.08 775.16 1196.07 773.368C1193.13 771.576 1190.86 768.984 1189.26 765.592C1187.66 762.136 1186.86 758.008 1186.86 753.208V724.024H1202.22V750.712C1202.22 753.336 1202.57 755.544 1203.27 757.336C1204.04 759.128 1205.23 760.504 1206.83 761.464C1208.43 762.36 1210.38 762.808 1212.68 762.808C1214.35 762.808 1215.88 762.552 1217.29 762.04C1218.7 761.464 1219.95 760.696 1221.03 759.736C1222.12 758.712 1222.95 757.56 1223.53 756.28C1224.17 754.936 1224.49 753.432 1224.49 751.768V724.024H1239.85V775H1225.45L1224.78 764.536L1227.56 763.384C1226.86 765.624 1225.51 767.704 1223.53 769.624C1221.55 771.544 1219.11 773.112 1216.23 774.328C1213.42 775.48 1210.25 776.056 1206.73 776.056ZM1268.74 775V710.008H1284.1V775H1268.74ZM1257.42 737.464V724.024H1297.06V737.464H1257.42Z" fill="white"/>
<g id="next">
<g id="Next">
<path id="Next_2" d="M1100.81 897V852.2H1110.79L1137.86 884.2L1136.01 883.88C1135.75 882.387 1135.56 880.957 1135.43 879.592C1135.3 878.227 1135.18 876.904 1135.05 875.624C1134.96 874.344 1134.88 873.064 1134.79 871.784C1134.75 870.504 1134.73 869.16 1134.73 867.752C1134.73 866.344 1134.73 864.851 1134.73 863.272V852.2H1145.29V897H1135.18L1107.08 863.976L1110.09 864.424C1110.22 865.917 1110.34 867.261 1110.47 868.456C1110.64 869.651 1110.77 870.781 1110.86 871.848C1110.98 872.872 1111.07 873.917 1111.11 874.984C1111.2 876.008 1111.26 877.096 1111.3 878.248C1111.35 879.4 1111.37 880.659 1111.37 882.024V897H1100.81ZM1177.89 897.64C1173.76 897.64 1170.13 896.893 1167.01 895.4C1163.94 893.864 1161.55 891.795 1159.85 889.192C1158.14 886.547 1157.29 883.539 1157.29 880.168C1157.29 877.48 1157.78 875.048 1158.76 872.872C1159.74 870.696 1161.11 868.819 1162.85 867.24C1164.6 865.661 1166.65 864.445 1169 863.592C1171.35 862.739 1173.88 862.312 1176.61 862.312C1179.26 862.312 1181.69 862.739 1183.91 863.592C1186.13 864.403 1188.05 865.576 1189.67 867.112C1191.33 868.648 1192.61 870.461 1193.51 872.552C1194.41 874.643 1194.81 876.947 1194.73 879.464L1194.66 882.344H1164.01L1162.53 876.392H1186.34L1185.25 877.672V876.392C1185.13 875.325 1184.66 874.365 1183.85 873.512C1183.08 872.659 1182.08 871.997 1180.84 871.528C1179.6 871.016 1178.24 870.76 1176.74 870.76C1174.82 870.76 1173.12 871.08 1171.62 871.72C1170.13 872.317 1168.96 873.256 1168.1 874.536C1167.29 875.816 1166.89 877.437 1166.89 879.4C1166.89 881.277 1167.38 882.92 1168.36 884.328C1169.38 885.736 1170.81 886.845 1172.65 887.656C1174.52 888.467 1176.72 888.872 1179.24 888.872C1181.41 888.872 1183.23 888.616 1184.68 888.104C1186.17 887.549 1187.52 886.867 1188.71 886.056L1193.32 892.712C1191.91 893.779 1190.35 894.696 1188.65 895.464C1186.98 896.189 1185.23 896.723 1183.4 897.064C1181.61 897.448 1179.77 897.64 1177.89 897.64ZM1231.57 897L1222.16 884.776L1219.54 881.32L1204.63 863.016H1217.56L1226 874.216L1228.82 877.928L1244.37 897H1231.57ZM1203.8 897L1219.03 877.8L1225.24 884.136L1216.53 897H1203.8ZM1228.76 882.216L1222.74 875.816L1231.32 863.016H1243.99L1228.76 882.216ZM1260.39 897V853.672H1270.63V897H1260.39ZM1252.84 871.976V863.016H1279.27V871.976H1252.84Z" fill="white"/>
</g>
<path id="Arrow 1" d="M1094 901.5C1089.31 901.5 1085.5 905.306 1085.5 910C1085.5 914.694 1089.31 918.5 1094 918.5V910V901.5ZM1371 910L1286 860.925V959.075L1371 910ZM1094 910V918.5H1294.5V910V901.5H1094V910Z" fill="#EF1044"/>
</g>
</g>
<defs>
<filter id="filter0_d_110_347" x="217" y="378" width="108" height="176" filterUnits="userSpaceOnUse" color-interpolation-filters="sRGB">
<feFlood flood-opacity="0" result="BackgroundImageFix"/>
<feColorMatrix in="SourceAlpha" type="matrix" values="0 0 0 0 0 0 0 0 0 0 0 0 0 0 0 0 0 0 127 0" result="hardAlpha"/>
<feOffset dy="4"/>
<feGaussianBlur stdDeviation="2"/>
<feComposite in2="hardAlpha" operator="out"/>
<feColorMatrix type="matrix" values="0 0 0 0 0 0 0 0 0 0 0 0 0 0 0 0 0 0 0.25 0"/>
<feBlend mode="normal" in2="BackgroundImageFix" result="effect1_dropShadow_110_347"/>
<feBlend mode="normal" in="SourceGraphic" in2="effect1_dropShadow_110_347" result="shape"/>
</filter>
<filter id="filter1_d_110_347" x="451" y="378" width="109" height="176" filterUnits="userSpaceOnUse" color-interpolation-filters="sRGB">
<feFlood flood-opacity="0" result="BackgroundImageFix"/>
<feColorMatrix in="SourceAlpha" type="matrix" values="0 0 0 0 0 0 0 0 0 0 0 0 0 0 0 0 0 0 127 0" result="hardAlpha"/>
<feOffset dy="4"/>
<feGaussianBlur stdDeviation="2"/>
<feComposite in2="hardAlpha" operator="out"/>
<feColorMatrix type="matrix" values="0 0 0 0 0 0 0 0 0 0 0 0 0 0 0 0 0 0 0.25 0"/>
<feBlend mode="normal" in2="BackgroundImageFix" result="effect1_dropShadow_110_347"/>
<feBlend mode="normal" in="SourceGraphic" in2="effect1_dropShadow_110_347" result="shape"/>
</filter>
<filter id="filter2_d_110_347" x="334" y="378" width="109" height="176" filterUnits="userSpaceOnUse" color-interpolation-filters="sRGB">
<feFlood flood-opacity="0" result="BackgroundImageFix"/>
<feColorMatrix in="SourceAlpha" type="matrix" values="0 0 0 0 0 0 0 0 0 0 0 0 0 0 0 0 0 0 127 0" result="hardAlpha"/>
<feOffset dy="4"/>
<feGaussianBlur stdDeviation="2"/>
<feComposite in2="hardAlpha" operator="out"/>
<feColorMatrix type="matrix" values="0 0 0 0 0 0 0 0 0 0 0 0 0 0 0 0 0 0 0.25 0"/>
<feBlend mode="normal" in2="BackgroundImageFix" result="effect1_dropShadow_110_347"/>
<feBlend mode="normal" in="SourceGraphic" in2="effect1_dropShadow_110_347" result="shape"/>
</filter>
<filter id="filter3_d_110_347" x="569" y="378" width="108" height="176" filterUnits="userSpaceOnUse" color-interpolation-filters="sRGB">
<feFlood flood-opacity="0" result="BackgroundImageFix"/>
<feColorMatrix in="SourceAlpha" type="matrix" values="0 0 0 0 0 0 0 0 0 0 0 0 0 0 0 0 0 0 127 0" result="hardAlpha"/>
<feOffset dy="4"/>
<feGaussianBlur stdDeviation="2"/>
<feComposite in2="hardAlpha" operator="out"/>
<feColorMatrix type="matrix" values="0 0 0 0 0 0 0 0 0 0 0 0 0 0 0 0 0 0 0.25 0"/>
<feBlend mode="normal" in2="BackgroundImageFix" result="effect1_dropShadow_110_347"/>
<feBlend mode="normal" in="SourceGraphic" in2="effect1_dropShadow_110_347" result="shape"/>
</filter>
<filter id="filter4_d_110_347" x="111" y="401" width="126" height="206" filterUnits="userSpaceOnUse" color-interpolation-filters="sRGB">
<feFlood flood-opacity="0" result="BackgroundImageFix"/>
<feColorMatrix in="SourceAlpha" type="matrix" values="0 0 0 0 0 0 0 0 0 0 0 0 0 0 0 0 0 0 127 0" result="hardAlpha"/>
<feOffset dy="4"/>
<feGaussianBlur stdDeviation="2"/>
<feComposite in2="hardAlpha" operator="out"/>
<feColorMatrix type="matrix" values="0 0 0 0 0 0 0 0 0 0 0 0 0 0 0 0 0 0 0.25 0"/>
<feBlend mode="normal" in2="BackgroundImageFix" result="effect1_dropShadow_110_347"/>
<feBlend mode="normal" in="SourceGraphic" in2="effect1_dropShadow_110_347" result="shape"/>
</filter>
<filter id="filter5_d_110_347" x="387" y="401" width="126" height="206" filterUnits="userSpaceOnUse" color-interpolation-filters="sRGB">
<feFlood flood-opacity="0" result="BackgroundImageFix"/>
<feColorMatrix in="SourceAlpha" type="matrix" values="0 0 0 0 0 0 0 0 0 0 0 0 0 0 0 0 0 0 127 0" result="hardAlpha"/>
<feOffset dy="4"/>
<feGaussianBlur stdDeviation="2"/>
<feComposite in2="hardAlpha" operator="out"/>
<feColorMatrix type="matrix" values="0 0 0 0 0 0 0 0 0 0 0 0 0 0 0 0 0 0 0.25 0"/>
<feBlend mode="normal" in2="BackgroundImageFix" result="effect1_dropShadow_110_347"/>
<feBlend mode="normal" in="SourceGraphic" in2="effect1_dropShadow_110_347" result="shape"/>
</filter>
<filter id="filter6_d_110_347" x="249" y="401" width="126" height="206" filterUnits="userSpaceOnUse" color-interpolation-filters="sRGB">
<feFlood flood-opacity="0" result="BackgroundImageFix"/>
<feColorMatrix in="SourceAlpha" type="matrix" values="0 0 0 0 0 0 0 0 0 0 0 0 0 0 0 0 0 0 127 0" result="hardAlpha"/>
<feOffset dy="4"/>
<feGaussianBlur stdDeviation="2"/>
<feComposite in2="hardAlpha" operator="out"/>
<feColorMatrix type="matrix" values="0 0 0 0 0 0 0 0 0 0 0 0 0 0 0 0 0 0 0.25 0"/>
<feBlend mode="normal" in2="BackgroundImageFix" result="effect1_dropShadow_110_347"/>
<feBlend mode="normal" in="SourceGraphic" in2="effect1_dropShadow_110_347" result="shape"/>
</filter>
<filter id="filter7_d_110_347" x="307" y="447" width="126" height="206" filterUnits="userSpaceOnUse" color-interpolation-filters="sRGB">
<feFlood flood-opacity="0" result="BackgroundImageFix"/>
<feColorMatrix in="SourceAlpha" type="matrix" values="0 0 0 0 0 0 0 0 0 0 0 0 0 0 0 0 0 0 127 0" result="hardAlpha"/>
<feOffset dy="4"/>
<feGaussianBlur stdDeviation="2"/>
<feComposite in2="hardAlpha" operator="out"/>
<feColorMatrix type="matrix" values="0 0 0 0 0 0 0 0 0 0 0 0 0 0 0 0 0 0 0.25 0"/>
<feBlend mode="normal" in2="BackgroundImageFix" result="effect1_dropShadow_110_347"/>
<feBlend mode="normal" in="SourceGraphic" in2="effect1_dropShadow_110_347" result="shape"/>
</filter>
<filter id="filter8_d_110_347" x="525" y="401" width="126" height="206" filterUnits="userSpaceOnUse" color-interpolation-filters="sRGB">
<feFlood flood-opacity="0" result="BackgroundImageFix"/>
<feColorMatrix in="SourceAlpha" type="matrix" values="0 0 0 0 0 0 0 0 0 0 0 0 0 0 0 0 0 0 127 0" result="hardAlpha"/>
<feOffset dy="4"/>
<feGaussianBlur stdDeviation="2"/>
<feComposite in2="hardAlpha" operator="out"/>
<feColorMatrix type="matrix" values="0 0 0 0 0 0 0 0 0 0 0 0 0 0 0 0 0 0 0.25 0"/>
<feBlend mode="normal" in2="BackgroundImageFix" result="effect1_dropShadow_110_347"/>
<feBlend mode="normal" in="SourceGraphic" in2="effect1_dropShadow_110_347" result="shape"/>
</filter>
<filter id="filter9_d_110_347" x="169" y="447" width="126" height="206" filterUnits="userSpaceOnUse" color-interpolation-filters="sRGB">
<feFlood flood-opacity="0" result="BackgroundImageFix"/>
<feColorMatrix in="SourceAlpha" type="matrix" values="0 0 0 0 0 0 0 0 0 0 0 0 0 0 0 0 0 0 127 0" result="hardAlpha"/>
<feOffset dy="4"/>
<feGaussianBlur stdDeviation="2"/>
<feComposite in2="hardAlpha" operator="out"/>
<feColorMatrix type="matrix" values="0 0 0 0 0 0 0 0 0 0 0 0 0 0 0 0 0 0 0.25 0"/>
<feBlend mode="normal" in2="BackgroundImageFix" result="effect1_dropShadow_110_347"/>
<feBlend mode="normal" in="SourceGraphic" in2="effect1_dropShadow_110_347" result="shape"/>
</filter>
<filter id="filter10_d_110_347" x="445" y="447" width="126" height="206" filterUnits="userSpaceOnUse" color-interpolation-filters="sRGB">
<feFlood flood-opacity="0" result="BackgroundImageFix"/>
<feColorMatrix in="SourceAlpha" type="matrix" values="0 0 0 0 0 0 0 0 0 0 0 0 0 0 0 0 0 0 127 0" result="hardAlpha"/>
<feOffset dy="4"/>
<feGaussianBlur stdDeviation="2"/>
<feComposite in2="hardAlpha" operator="out"/>
<feColorMatrix type="matrix" values="0 0 0 0 0 0 0 0 0 0 0 0 0 0 0 0 0 0 0.25 0"/>
<feBlend mode="normal" in2="BackgroundImageFix" result="effect1_dropShadow_110_347"/>
<feBlend mode="normal" in="SourceGraphic" in2="effect1_dropShadow_110_347" result="shape"/>
</filter>
<filter id="filter11_d_110_347" x="583" y="447" width="126" height="206" filterUnits="userSpaceOnUse" color-interpolation-filters="sRGB">
<feFlood flood-opacity="0" result="BackgroundImageFix"/>
<feColorMatrix in="SourceAlpha" type="matrix" values="0 0 0 0 0 0 0 0 0 0 0 0 0 0 0 0 0 0 127 0" result="hardAlpha"/>
<feOffset dy="4"/>
<feGaussianBlur stdDeviation="2"/>
<feComposite in2="hardAlpha" operator="out"/>
<feColorMatrix type="matrix" values="0 0 0 0 0 0 0 0 0 0 0 0 0 0 0 0 0 0 0.25 0"/>
<feBlend mode="normal" in2="BackgroundImageFix" result="effect1_dropShadow_110_347"/>
<feBlend mode="normal" in="SourceGraphic" in2="effect1_dropShadow_110_347" result="shape"/>
</filter>
<clipPath id="clip0_110_347">
<rect width="1440" height="1024" fill="white"/>
</clipPath>
</defs>
</svg>
