<svg width="1440" height="1024" viewBox="0 0 1440 1024" fill="none" xmlns="http://www.w3.org/2000/svg">
<g id="planning1-no" clip-path="url(#clip0_110_830)">
<rect width="1440" height="1024" fill="#333148"/>
<rect id="Rectangle 18" width="115.523" height="695.859" transform="matrix(0.522133 -0.852864 0.522133 0.852864 1000.93 -9.47559)" fill="#201F2F"/>
<rect id="Rectangle 22" width="115.523" height="695.859" transform="matrix(0.522133 -0.852864 0.522133 0.852864 370.692 -9.47559)" fill="#201F2F"/>
<rect id="Rectangle 20" width="115.523" height="695.859" transform="matrix(0.522133 -0.852864 0.522133 0.852864 685.812 -9.47559)" fill="#201F2F"/>
<rect id="Rectangle 23" width="115.523" height="695.859" transform="matrix(0.522133 -0.852864 0.522133 0.852864 55.5715 -9.47559)" fill="#201F2F"/>
<rect id="Rectangle 19" width="115.523" height="695.859" transform="matrix(0.522133 0.852864 -0.522133 0.852864 1323.69 -132)" fill="#201F2F"/>
<rect id="Rectangle 24" width="115.523" height="695.859" transform="matrix(0.522133 0.852864 -0.522133 0.852864 693.451 -132)" fill="#201F2F"/>
<rect id="Rectangle 21" width="115.523" height="695.859" transform="matrix(0.522133 0.852864 -0.522133 0.852864 1008.57 -132)" fill="#201F2F"/>
<rect id="Rectangle 25" width="115.523" height="695.859" transform="matrix(0.522133 0.852864 -0.522133 0.852864 378.331 -132)" fill="#201F2F"/>
<path id="part 3" d="M47.096 132.12V60.024H61.688L62.264 71.448L59.384 70.584C59.832 68.536 61.048 66.648 63.032 64.92C65.016 63.192 67.512 61.784 70.52 60.696C73.592 59.608 76.856 59.064 80.312 59.064C85.304 59.064 89.688 60.216 93.464 62.52C97.24 64.76 100.184 67.864 102.296 71.832C104.472 75.736 105.56 80.28 105.56 85.464C105.56 90.584 104.472 95.128 102.296 99.096C100.184 103.064 97.208 106.2 93.368 108.504C89.528 110.744 85.112 111.864 80.12 111.864C76.664 111.864 73.432 111.288 70.424 110.136C67.416 108.984 64.888 107.48 62.84 105.624C60.856 103.768 59.576 101.816 59 99.768L62.552 98.424V132.12H47.096ZM76.376 98.904C79.256 98.904 81.752 98.36 83.864 97.272C85.976 96.12 87.608 94.552 88.76 92.568C89.976 90.584 90.584 88.216 90.584 85.464C90.584 82.776 89.976 80.44 88.76 78.456C87.608 76.408 85.976 74.84 83.864 73.752C81.816 72.6 79.32 72.024 76.376 72.024C73.496 72.024 70.968 72.568 68.792 73.656C66.68 74.744 65.016 76.312 63.8 78.36C62.648 80.408 62.072 82.776 62.072 85.464C62.072 88.216 62.648 90.584 63.8 92.568C65.016 94.552 66.68 96.12 68.792 97.272C70.968 98.36 73.496 98.904 76.376 98.904ZM144.211 111.864C139.155 111.864 134.739 110.744 130.963 108.504C127.187 106.264 124.211 103.16 122.035 99.192C119.923 95.16 118.867 90.584 118.867 85.464C118.867 80.28 119.955 75.704 122.131 71.736C124.307 67.768 127.315 64.664 131.155 62.424C135.059 60.12 139.539 58.968 144.595 58.968C147.475 58.968 150.131 59.352 152.563 60.12C154.995 60.824 157.107 61.816 158.899 63.096C160.755 64.376 162.259 65.784 163.411 67.32C164.627 68.856 165.427 70.456 165.811 72.12H162.451V60.024H177.619V111H162.163V97.944L165.427 98.424C165.043 100.088 164.243 101.72 163.027 103.32C161.811 104.92 160.243 106.36 158.323 107.64C156.403 108.92 154.227 109.944 151.795 110.712C149.427 111.48 146.899 111.864 144.211 111.864ZM148.339 98.904C151.219 98.904 153.715 98.36 155.827 97.272C158.003 96.184 159.667 94.648 160.819 92.664C162.035 90.616 162.643 88.216 162.643 85.464C162.643 82.776 162.035 80.44 160.819 78.456C159.667 76.408 158.003 74.808 155.827 73.656C153.715 72.504 151.219 71.928 148.339 71.928C145.459 71.928 142.963 72.504 140.851 73.656C138.739 74.808 137.075 76.408 135.859 78.456C134.707 80.44 134.131 82.776 134.131 85.464C134.131 88.216 134.707 90.616 135.859 92.664C137.075 94.648 138.739 96.184 140.851 97.272C142.963 98.36 145.459 98.904 148.339 98.904ZM201.315 111V60.024H215.907L216.579 77.592L212.931 75.768C213.763 72.632 215.203 69.816 217.251 67.32C219.363 64.76 221.763 62.744 224.451 61.272C227.203 59.736 230.115 58.968 233.187 58.968C234.851 58.968 236.419 59.128 237.891 59.448C239.427 59.768 240.739 60.184 241.827 60.696L237.603 77.496C236.643 76.792 235.331 76.248 233.667 75.864C232.067 75.48 230.435 75.288 228.771 75.288C226.915 75.288 225.219 75.608 223.683 76.248C222.211 76.824 220.963 77.656 219.939 78.744C218.915 79.768 218.115 80.952 217.539 82.296C217.027 83.64 216.771 85.08 216.771 86.616V111H201.315ZM265.932 111V46.008H281.292V111H265.932ZM254.604 73.464V60.024H294.252V73.464H254.604ZM371.848 111.96C365.768 111.96 360.52 110.712 356.104 108.216C351.688 105.72 347.848 101.912 344.584 96.792L356.296 88.632C357.576 90.616 358.984 92.344 360.52 93.816C362.12 95.224 363.848 96.344 365.704 97.176C367.624 98.008 369.736 98.424 372.04 98.424C374.216 98.424 376.232 98.072 378.088 97.368C379.944 96.664 381.448 95.608 382.6 94.2C383.752 92.728 384.328 90.968 384.328 88.92C384.328 86.872 383.784 85.208 382.696 83.928C381.608 82.584 380.2 81.624 378.472 81.048C376.744 80.408 374.856 80.088 372.808 80.088C371.784 80.088 370.728 80.184 369.64 80.376C368.552 80.568 367.496 80.824 366.472 81.144C365.448 81.4 364.456 81.784 363.496 82.296L359.656 73.08L377.896 54.936L381.16 57.528L349.288 56.952V43.224H394.408L397.48 50.616L373.288 74.52L369.448 68.856C370.088 68.6 371.08 68.376 372.424 68.184C373.832 67.992 375.272 67.896 376.744 67.896C379.752 67.896 382.6 68.44 385.288 69.528C387.976 70.552 390.376 71.992 392.488 73.848C394.6 75.704 396.264 77.912 397.48 80.472C398.696 82.968 399.304 85.688 399.304 88.632C399.304 93.24 398.056 97.304 395.56 100.824C393.128 104.28 389.832 107 385.672 108.984C381.576 110.968 376.968 111.96 371.848 111.96Z" fill="white"/>
<rect id="Rectangle 7" y="462" width="1567" height="626" fill="#211F2F"/>
<g id="Group 4">
<g id="Vector" filter="url(#filter0_d_110_830)">
<path d="M169.246 465.996C174.515 442.672 207.714 442.672 212.983 465.996L221.541 503.874C224.712 517.912 214.05 531.267 199.672 531.267H182.557C168.179 531.267 157.517 517.912 160.688 503.874L169.246 465.996Z" fill="#3B5EC6"/>
<path d="M214.816 415.046C214.816 428.326 204.061 439.092 190.794 439.092C177.527 439.092 166.772 428.326 166.772 415.046C166.772 401.766 177.527 391 190.794 391C204.061 391 214.816 401.766 214.816 415.046Z" fill="#3B5EC6"/>
<path d="M195.599 519.565C195.599 513.013 200.904 507.702 207.45 507.702C213.995 507.702 219.3 513.013 219.3 519.565V547.137C219.3 553.689 213.995 559 207.45 559C200.904 559 195.599 553.689 195.599 547.137V519.565Z" fill="#3B5EC6"/>
<path d="M204.867 473.609C201.517 467.981 203.36 460.7 208.982 457.347C214.605 453.993 221.879 455.837 225.229 461.466L239.328 485.153C242.678 490.781 240.836 498.062 235.213 501.415C229.59 504.769 222.316 502.925 218.966 497.296L204.867 473.609Z" fill="#3B5EC6"/>
<path d="M156.362 461.548C159.635 455.874 166.883 453.93 172.551 457.206C178.219 460.482 180.161 467.737 176.889 473.411L163.116 497.289C159.844 502.963 152.596 504.907 146.927 501.631C141.259 498.355 139.317 491.1 142.59 485.427L156.362 461.548Z" fill="#3B5EC6"/>
<path d="M162.288 519.565C162.288 513.013 167.594 507.702 174.139 507.702C180.684 507.702 185.99 513.013 185.99 519.565V547.137C185.99 553.689 180.684 559 174.139 559C167.594 559 162.288 553.689 162.288 547.137V519.565Z" fill="#3B5EC6"/>
</g>
<g id="Vector_2" filter="url(#filter1_d_110_830)">
<path d="M403.528 465.996C408.85 442.672 442.381 442.672 447.703 465.996L456.346 503.874C459.549 517.912 448.78 531.267 434.259 531.267H416.972C402.451 531.267 391.682 517.912 394.885 503.874L403.528 465.996Z" fill="#3B5EC6"/>
<path d="M449.555 415.046C449.555 428.326 438.692 439.092 425.292 439.092C411.892 439.092 401.03 428.326 401.03 415.046C401.03 401.766 411.892 391 425.292 391C438.692 391 449.555 401.766 449.555 415.046Z" fill="#3B5EC6"/>
<path d="M430.145 519.565C430.145 513.013 435.504 507.702 442.114 507.702C448.725 507.702 454.083 513.013 454.083 519.565V547.137C454.083 553.689 448.725 559 442.114 559C435.504 559 430.145 553.689 430.145 547.137V519.565Z" fill="#3B5EC6"/>
<path d="M439.506 473.609C436.123 467.981 437.983 460.7 443.662 457.347C449.341 453.993 456.688 455.837 460.071 461.466L474.311 485.153C477.695 490.781 475.834 498.062 470.155 501.415C464.476 504.769 457.13 502.925 453.746 497.296L439.506 473.609Z" fill="#3B5EC6"/>
<path d="M390.516 461.548C393.821 455.874 401.142 453.93 406.867 457.206C412.591 460.482 414.553 467.737 411.248 473.411L397.337 497.289C394.032 502.963 386.712 504.907 380.987 501.631C375.262 498.355 373.3 491.1 376.606 485.427L390.516 461.548Z" fill="#3B5EC6"/>
<path d="M396.501 519.565C396.501 513.013 401.86 507.702 408.47 507.702C415.081 507.702 420.44 513.013 420.44 519.565V547.137C420.44 553.689 415.081 559 408.47 559C401.86 559 396.501 553.689 396.501 547.137V519.565Z" fill="#3B5EC6"/>
</g>
<g id="Vector_3" filter="url(#filter2_d_110_830)">
<path d="M286.528 465.996C291.85 442.672 325.381 442.672 330.703 465.996L339.346 503.874C342.549 517.912 331.78 531.267 317.259 531.267H299.972C285.451 531.267 274.682 517.912 277.885 503.874L286.528 465.996Z" fill="#3B5EC6"/>
<path d="M332.555 415.046C332.555 428.326 321.692 439.092 308.292 439.092C294.892 439.092 284.03 428.326 284.03 415.046C284.03 401.766 294.892 391 308.292 391C321.692 391 332.555 401.766 332.555 415.046Z" fill="#3B5EC6"/>
<path d="M313.145 519.565C313.145 513.013 318.504 507.702 325.114 507.702C331.725 507.702 337.083 513.013 337.083 519.565V547.137C337.083 553.689 331.725 559 325.114 559C318.504 559 313.145 553.689 313.145 547.137V519.565Z" fill="#3B5EC6"/>
<path d="M322.506 473.609C319.123 467.981 320.983 460.7 326.662 457.347C332.341 453.993 339.688 455.837 343.071 461.466L357.311 485.153C360.695 490.781 358.834 498.062 353.155 501.415C347.476 504.769 340.13 502.925 336.746 497.296L322.506 473.609Z" fill="#3B5EC6"/>
<path d="M273.516 461.548C276.821 455.874 284.142 453.93 289.867 457.206C295.591 460.482 297.553 467.737 294.248 473.411L280.337 497.289C277.032 502.963 269.712 504.907 263.987 501.631C258.262 498.355 256.3 491.1 259.606 485.427L273.516 461.548Z" fill="#3B5EC6"/>
<path d="M279.501 519.565C279.501 513.013 284.86 507.702 291.47 507.702C298.081 507.702 303.44 513.013 303.44 519.565V547.137C303.44 553.689 298.081 559 291.47 559C284.86 559 279.501 553.689 279.501 547.137V519.565Z" fill="#3B5EC6"/>
</g>
<g id="Vector_4" filter="url(#filter3_d_110_830)">
<path d="M521.246 465.996C526.515 442.672 559.714 442.672 564.983 465.996L573.541 503.874C576.712 517.912 566.05 531.267 551.672 531.267H534.557C520.179 531.267 509.517 517.912 512.688 503.874L521.246 465.996Z" fill="#3B5EC6"/>
<path d="M566.816 415.046C566.816 428.326 556.061 439.092 542.794 439.092C529.527 439.092 518.772 428.326 518.772 415.046C518.772 401.766 529.527 391 542.794 391C556.061 391 566.816 401.766 566.816 415.046Z" fill="#3B5EC6"/>
<path d="M547.599 519.565C547.599 513.013 552.904 507.702 559.45 507.702C565.995 507.702 571.3 513.013 571.3 519.565V547.137C571.3 553.689 565.995 559 559.45 559C552.904 559 547.599 553.689 547.599 547.137V519.565Z" fill="#3B5EC6"/>
<path d="M556.867 473.609C553.517 467.981 555.36 460.7 560.982 457.347C566.605 453.993 573.879 455.837 577.229 461.466L591.328 485.153C594.678 490.781 592.836 498.062 587.213 501.415C581.59 504.769 574.316 502.925 570.966 497.296L556.867 473.609Z" fill="#3B5EC6"/>
<path d="M508.362 461.548C511.635 455.874 518.883 453.93 524.551 457.206C530.219 460.482 532.161 467.737 528.889 473.411L515.116 497.289C511.844 502.963 504.596 504.907 498.927 501.631C493.259 498.355 491.317 491.1 494.59 485.427L508.362 461.548Z" fill="#3B5EC6"/>
<path d="M514.288 519.565C514.288 513.013 519.594 507.702 526.139 507.702C532.684 507.702 537.99 513.013 537.99 519.565V547.137C537.99 553.689 532.684 559 526.139 559C519.594 559 514.288 553.689 514.288 547.137V519.565Z" fill="#3B5EC6"/>
</g>
<g id="Vector_5" filter="url(#filter4_d_110_830)">
<path d="M68.3303 502.388C74.548 474.899 113.722 474.899 119.94 502.388L130.038 547.03C133.78 563.575 121.199 579.315 104.233 579.315H84.0371C67.0712 579.315 54.4901 563.575 58.2324 547.03L68.3303 502.388Z" fill="#6A94E0"/>
<path d="M122.103 442.34C122.103 457.991 109.412 470.679 93.7571 470.679C78.102 470.679 65.411 457.991 65.411 442.34C65.411 426.688 78.102 414 93.7571 414C109.412 414 122.103 426.688 122.103 442.34Z" fill="#6A94E0"/>
<path d="M99.4264 565.523C99.4264 557.801 105.687 551.542 113.41 551.542C121.134 551.542 127.395 557.801 127.395 565.523V598.019C127.395 605.741 121.134 612 113.41 612C105.687 612 99.4264 605.741 99.4264 598.019V565.523Z" fill="#6A94E0"/>
<path d="M110.364 511.361C106.41 504.728 108.584 496.146 115.219 492.194C121.854 488.242 130.437 490.416 134.39 497.049L151.027 524.966C154.98 531.599 152.806 540.18 146.171 544.132C139.537 548.085 130.953 545.911 127 539.278L110.364 511.361Z" fill="#6A94E0"/>
<path d="M53.1276 497.146C56.9892 490.459 65.5418 488.168 72.2303 492.029C78.9188 495.889 81.2104 504.44 77.3488 511.127L61.097 539.269C57.2354 545.956 48.6829 548.248 41.9944 544.387C35.3059 540.526 33.0142 531.975 36.8758 525.289L53.1276 497.146Z" fill="#6A94E0"/>
<path d="M60.1197 565.523C60.1197 557.801 66.3806 551.542 74.1038 551.542C81.827 551.542 88.0879 557.801 88.0879 565.523V598.019C88.0879 605.741 81.827 612 74.1038 612C66.3806 612 60.1197 605.741 60.1197 598.019V565.523Z" fill="#6A94E0"/>
</g>
<g id="Vector_6" filter="url(#filter5_d_110_830)">
<path d="M344.33 502.388C350.548 474.899 389.722 474.899 395.94 502.388L406.038 547.03C409.78 563.575 397.199 579.315 380.233 579.315H360.037C343.071 579.315 330.49 563.575 334.232 547.03L344.33 502.388Z" fill="#6A94E0"/>
<path d="M398.103 442.34C398.103 457.991 385.412 470.679 369.757 470.679C354.102 470.679 341.411 457.991 341.411 442.34C341.411 426.688 354.102 414 369.757 414C385.412 414 398.103 426.688 398.103 442.34Z" fill="#6A94E0"/>
<path d="M375.426 565.523C375.426 557.801 381.687 551.542 389.41 551.542C397.134 551.542 403.395 557.801 403.395 565.523V598.019C403.395 605.741 397.134 612 389.41 612C381.687 612 375.426 605.741 375.426 598.019V565.523Z" fill="#6A94E0"/>
<path d="M386.364 511.361C382.41 504.728 384.584 496.146 391.219 492.194C397.854 488.242 406.437 490.416 410.39 497.049L427.027 524.966C430.98 531.599 428.806 540.18 422.171 544.132C415.537 548.085 406.953 545.911 403 539.278L386.364 511.361Z" fill="#6A94E0"/>
<path d="M329.128 497.146C332.989 490.459 341.542 488.168 348.23 492.029C354.919 495.889 357.21 504.44 353.349 511.127L337.097 539.269C333.235 545.956 324.683 548.248 317.994 544.387C311.306 540.526 309.014 531.975 312.876 525.289L329.128 497.146Z" fill="#6A94E0"/>
<path d="M336.12 565.523C336.12 557.801 342.381 551.542 350.104 551.542C357.827 551.542 364.088 557.801 364.088 565.523V598.019C364.088 605.741 357.827 612 350.104 612C342.381 612 336.12 605.741 336.12 598.019V565.523Z" fill="#6A94E0"/>
</g>
<g id="Vector_7" filter="url(#filter6_d_110_830)">
<path d="M206.33 502.388C212.548 474.899 251.722 474.899 257.94 502.388L268.038 547.03C271.78 563.575 259.199 579.315 242.233 579.315H222.037C205.071 579.315 192.49 563.575 196.232 547.03L206.33 502.388Z" fill="#6A94E0"/>
<path d="M260.103 442.34C260.103 457.991 247.412 470.679 231.757 470.679C216.102 470.679 203.411 457.991 203.411 442.34C203.411 426.688 216.102 414 231.757 414C247.412 414 260.103 426.688 260.103 442.34Z" fill="#6A94E0"/>
<path d="M237.426 565.523C237.426 557.801 243.687 551.542 251.41 551.542C259.134 551.542 265.395 557.801 265.395 565.523V598.019C265.395 605.741 259.134 612 251.41 612C243.687 612 237.426 605.741 237.426 598.019V565.523Z" fill="#6A94E0"/>
<path d="M248.364 511.361C244.41 504.728 246.584 496.146 253.219 492.194C259.854 488.242 268.437 490.416 272.39 497.049L289.027 524.966C292.98 531.599 290.806 540.18 284.171 544.132C277.537 548.085 268.953 545.911 265 539.278L248.364 511.361Z" fill="#6A94E0"/>
<path d="M191.128 497.146C194.989 490.459 203.542 488.168 210.23 492.029C216.919 495.889 219.21 504.44 215.349 511.127L199.097 539.269C195.235 545.956 186.683 548.248 179.994 544.387C173.306 540.526 171.014 531.975 174.876 525.289L191.128 497.146Z" fill="#6A94E0"/>
<path d="M198.12 565.523C198.12 557.801 204.381 551.542 212.104 551.542C219.827 551.542 226.088 557.801 226.088 565.523V598.019C226.088 605.741 219.827 612 212.104 612C204.381 612 198.12 605.741 198.12 598.019V565.523Z" fill="#6A94E0"/>
</g>
<g id="Vector_8" filter="url(#filter7_d_110_830)">
<path d="M264.33 548.388C270.548 520.899 309.722 520.899 315.94 548.388L326.038 593.03C329.78 609.575 317.199 625.315 300.233 625.315H280.037C263.071 625.315 250.49 609.575 254.232 593.03L264.33 548.388Z" fill="#8DBBFB"/>
<path d="M318.103 488.34C318.103 503.991 305.412 516.679 289.757 516.679C274.102 516.679 261.411 503.991 261.411 488.34C261.411 472.688 274.102 460 289.757 460C305.412 460 318.103 472.688 318.103 488.34Z" fill="#8DBBFB"/>
<path d="M295.426 611.523C295.426 603.801 301.687 597.542 309.41 597.542C317.134 597.542 323.395 603.801 323.395 611.523V644.019C323.395 651.741 317.134 658 309.41 658C301.687 658 295.426 651.741 295.426 644.019V611.523Z" fill="#8DBBFB"/>
<path d="M306.364 557.361C302.41 550.728 304.584 542.146 311.219 538.194C317.854 534.242 326.437 536.416 330.39 543.049L347.027 570.966C350.98 577.599 348.806 586.18 342.171 590.132C335.537 594.085 326.953 591.911 323 585.278L306.364 557.361Z" fill="#8DBBFB"/>
<path d="M249.128 543.146C252.989 536.459 261.542 534.168 268.23 538.029C274.919 541.889 277.21 550.44 273.349 557.127L257.097 585.269C253.235 591.956 244.683 594.248 237.994 590.387C231.306 586.526 229.014 577.975 232.876 571.289L249.128 543.146Z" fill="#8DBBFB"/>
<path d="M256.12 611.523C256.12 603.801 262.381 597.542 270.104 597.542C277.827 597.542 284.088 603.801 284.088 611.523V644.019C284.088 651.741 277.827 658 270.104 658C262.381 658 256.12 651.741 256.12 644.019V611.523Z" fill="#8DBBFB"/>
</g>
<g id="Vector_9" filter="url(#filter8_d_110_830)">
<path d="M482.33 502.388C488.548 474.899 527.722 474.899 533.94 502.388L544.038 547.03C547.78 563.575 535.199 579.315 518.233 579.315H498.037C481.071 579.315 468.49 563.575 472.232 547.03L482.33 502.388Z" fill="#6A94E0"/>
<path d="M536.103 442.34C536.103 457.991 523.412 470.679 507.757 470.679C492.102 470.679 479.411 457.991 479.411 442.34C479.411 426.688 492.102 414 507.757 414C523.412 414 536.103 426.688 536.103 442.34Z" fill="#6A94E0"/>
<path d="M513.426 565.523C513.426 557.801 519.687 551.542 527.41 551.542C535.134 551.542 541.395 557.801 541.395 565.523V598.019C541.395 605.741 535.134 612 527.41 612C519.687 612 513.426 605.741 513.426 598.019V565.523Z" fill="#6A94E0"/>
<path d="M524.364 511.361C520.41 504.728 522.584 496.146 529.219 492.194C535.854 488.242 544.437 490.416 548.39 497.049L565.027 524.966C568.98 531.599 566.806 540.18 560.171 544.132C553.537 548.085 544.953 545.911 541 539.278L524.364 511.361Z" fill="#6A94E0"/>
<path d="M467.128 497.146C470.989 490.459 479.542 488.168 486.23 492.029C492.919 495.889 495.21 504.44 491.349 511.127L475.097 539.269C471.235 545.956 462.683 548.248 455.994 544.387C449.306 540.526 447.014 531.975 450.876 525.289L467.128 497.146Z" fill="#6A94E0"/>
<path d="M474.12 565.523C474.12 557.801 480.381 551.542 488.104 551.542C495.827 551.542 502.088 557.801 502.088 565.523V598.019C502.088 605.741 495.827 612 488.104 612C480.381 612 474.12 605.741 474.12 598.019V565.523Z" fill="#6A94E0"/>
</g>
<g id="Vector_10" filter="url(#filter9_d_110_830)">
<path d="M126.33 548.388C132.548 520.899 171.722 520.899 177.94 548.388L188.038 593.03C191.78 609.575 179.199 625.315 162.233 625.315H142.037C125.071 625.315 112.49 609.575 116.232 593.03L126.33 548.388Z" fill="#8DBBFB"/>
<path d="M180.103 488.34C180.103 503.991 167.412 516.679 151.757 516.679C136.102 516.679 123.411 503.991 123.411 488.34C123.411 472.688 136.102 460 151.757 460C167.412 460 180.103 472.688 180.103 488.34Z" fill="#8DBBFB"/>
<path d="M157.426 611.523C157.426 603.801 163.687 597.542 171.41 597.542C179.134 597.542 185.395 603.801 185.395 611.523V644.019C185.395 651.741 179.134 658 171.41 658C163.687 658 157.426 651.741 157.426 644.019V611.523Z" fill="#8DBBFB"/>
<path d="M168.364 557.361C164.41 550.728 166.584 542.146 173.219 538.194C179.854 534.242 188.437 536.416 192.39 543.049L209.027 570.966C212.98 577.599 210.806 586.18 204.171 590.132C197.537 594.085 188.953 591.911 185 585.278L168.364 557.361Z" fill="#8DBBFB"/>
<path d="M111.128 543.146C114.989 536.459 123.542 534.168 130.23 538.029C136.919 541.889 139.21 550.44 135.349 557.127L119.097 585.269C115.235 591.956 106.683 594.248 99.9944 590.387C93.3059 586.526 91.0142 577.975 94.8758 571.289L111.128 543.146Z" fill="#8DBBFB"/>
<path d="M118.12 611.523C118.12 603.801 124.381 597.542 132.104 597.542C139.827 597.542 146.088 603.801 146.088 611.523V644.019C146.088 651.741 139.827 658 132.104 658C124.381 658 118.12 651.741 118.12 644.019V611.523Z" fill="#8DBBFB"/>
</g>
<g id="Vector_11" filter="url(#filter10_d_110_830)">
<path d="M402.33 548.388C408.548 520.899 447.722 520.899 453.94 548.388L464.038 593.03C467.78 609.575 455.199 625.315 438.233 625.315H418.037C401.071 625.315 388.49 609.575 392.232 593.03L402.33 548.388Z" fill="#8DBBFB"/>
<path d="M456.103 488.34C456.103 503.991 443.412 516.679 427.757 516.679C412.102 516.679 399.411 503.991 399.411 488.34C399.411 472.688 412.102 460 427.757 460C443.412 460 456.103 472.688 456.103 488.34Z" fill="#8DBBFB"/>
<path d="M433.426 611.523C433.426 603.801 439.687 597.542 447.41 597.542C455.134 597.542 461.395 603.801 461.395 611.523V644.019C461.395 651.741 455.134 658 447.41 658C439.687 658 433.426 651.741 433.426 644.019V611.523Z" fill="#8DBBFB"/>
<path d="M444.364 557.361C440.41 550.728 442.584 542.146 449.219 538.194C455.854 534.242 464.437 536.416 468.39 543.049L485.027 570.966C488.98 577.599 486.806 586.18 480.171 590.132C473.537 594.085 464.953 591.911 461 585.278L444.364 557.361Z" fill="#8DBBFB"/>
<path d="M387.128 543.146C390.989 536.459 399.542 534.168 406.23 538.029C412.919 541.889 415.21 550.44 411.349 557.127L395.097 585.269C391.235 591.956 382.683 594.248 375.994 590.387C369.306 586.526 367.014 577.975 370.876 571.289L387.128 543.146Z" fill="#8DBBFB"/>
<path d="M394.12 611.523C394.12 603.801 400.381 597.542 408.104 597.542C415.827 597.542 422.088 603.801 422.088 611.523V644.019C422.088 651.741 415.827 658 408.104 658C400.381 658 394.12 651.741 394.12 644.019V611.523Z" fill="#8DBBFB"/>
</g>
<g id="Vector_12" filter="url(#filter11_d_110_830)">
<path d="M540.33 548.388C546.548 520.899 585.722 520.899 591.94 548.388L602.038 593.03C605.78 609.575 593.199 625.315 576.233 625.315H556.037C539.071 625.315 526.49 609.575 530.232 593.03L540.33 548.388Z" fill="#8DBBFB"/>
<path d="M594.103 488.34C594.103 503.991 581.412 516.679 565.757 516.679C550.102 516.679 537.411 503.991 537.411 488.34C537.411 472.688 550.102 460 565.757 460C581.412 460 594.103 472.688 594.103 488.34Z" fill="#8DBBFB"/>
<path d="M571.426 611.523C571.426 603.801 577.687 597.542 585.41 597.542C593.134 597.542 599.395 603.801 599.395 611.523V644.019C599.395 651.741 593.134 658 585.41 658C577.687 658 571.426 651.741 571.426 644.019V611.523Z" fill="#8DBBFB"/>
<path d="M582.364 557.361C578.41 550.728 580.584 542.146 587.219 538.194C593.854 534.242 602.437 536.416 606.39 543.049L623.027 570.966C626.98 577.599 624.806 586.18 618.171 590.132C611.537 594.085 602.953 591.911 599 585.278L582.364 557.361Z" fill="#8DBBFB"/>
<path d="M525.128 543.146C528.989 536.459 537.542 534.168 544.23 538.029C550.919 541.889 553.21 550.44 549.349 557.127L533.097 585.269C529.235 591.956 520.683 594.248 513.994 590.387C507.306 586.526 505.014 577.975 508.876 571.289L525.128 543.146Z" fill="#8DBBFB"/>
<path d="M532.12 611.523C532.12 603.801 538.381 597.542 546.104 597.542C553.827 597.542 560.088 603.801 560.088 611.523V644.019C560.088 651.741 553.827 658 546.104 658C538.381 658 532.12 651.741 532.12 644.019V611.523Z" fill="#8DBBFB"/>
</g>
</g>
<g id="Group 5">
<g id="Vector_13" filter="url(#filter12_d_110_830)">
<path d="M890.246 465.996C895.515 442.672 928.714 442.672 933.983 465.996L942.541 503.874C945.712 517.912 935.05 531.267 920.672 531.267H903.557C889.179 531.267 878.517 517.912 881.688 503.874L890.246 465.996Z" fill="#83C63B"/>
<path d="M935.816 415.046C935.816 428.326 925.061 439.092 911.794 439.092C898.527 439.092 887.772 428.326 887.772 415.046C887.772 401.766 898.527 391 911.794 391C925.061 391 935.816 401.766 935.816 415.046Z" fill="#83C63B"/>
<path d="M916.599 519.565C916.599 513.013 921.904 507.702 928.45 507.702C934.995 507.702 940.3 513.013 940.3 519.565V547.137C940.3 553.689 934.995 559 928.45 559C921.904 559 916.599 553.689 916.599 547.137V519.565Z" fill="#83C63B"/>
<path d="M925.867 473.609C922.517 467.981 924.36 460.7 929.982 457.347C935.605 453.993 942.879 455.837 946.229 461.466L960.328 485.153C963.678 490.781 961.836 498.062 956.213 501.415C950.59 504.769 943.316 502.925 939.966 497.296L925.867 473.609Z" fill="#83C63B"/>
<path d="M877.362 461.548C880.635 455.874 887.883 453.93 893.551 457.206C899.219 460.482 901.161 467.737 897.889 473.411L884.116 497.289C880.844 502.963 873.596 504.907 867.927 501.631C862.259 498.355 860.317 491.1 863.59 485.427L877.362 461.548Z" fill="#83C63B"/>
<path d="M883.288 519.565C883.288 513.013 888.594 507.702 895.139 507.702C901.684 507.702 906.99 513.013 906.99 519.565V547.137C906.99 553.689 901.684 559 895.139 559C888.594 559 883.288 553.689 883.288 547.137V519.565Z" fill="#83C63B"/>
</g>
<g id="Vector_14" filter="url(#filter13_d_110_830)">
<path d="M1124.53 465.996C1129.85 442.672 1163.38 442.672 1168.7 465.996L1177.35 503.874C1180.55 517.912 1169.78 531.267 1155.26 531.267H1137.97C1123.45 531.267 1112.68 517.912 1115.89 503.874L1124.53 465.996Z" fill="#83C63B"/>
<path d="M1170.55 415.046C1170.55 428.326 1159.69 439.092 1146.29 439.092C1132.89 439.092 1122.03 428.326 1122.03 415.046C1122.03 401.766 1132.89 391 1146.29 391C1159.69 391 1170.55 401.766 1170.55 415.046Z" fill="#83C63B"/>
<path d="M1151.14 519.565C1151.14 513.013 1156.5 507.702 1163.11 507.702C1169.72 507.702 1175.08 513.013 1175.08 519.565V547.137C1175.08 553.689 1169.72 559 1163.11 559C1156.5 559 1151.14 553.689 1151.14 547.137V519.565Z" fill="#83C63B"/>
<path d="M1160.51 473.609C1157.12 467.981 1158.98 460.7 1164.66 457.347C1170.34 453.993 1177.69 455.837 1181.07 461.466L1195.31 485.153C1198.69 490.781 1196.83 498.062 1191.16 501.415C1185.48 504.769 1178.13 502.925 1174.75 497.296L1160.51 473.609Z" fill="#83C63B"/>
<path d="M1111.52 461.548C1114.82 455.874 1122.14 453.93 1127.87 457.206C1133.59 460.482 1135.55 467.737 1132.25 473.411L1118.34 497.289C1115.03 502.963 1107.71 504.907 1101.99 501.631C1096.26 498.355 1094.3 491.1 1097.61 485.427L1111.52 461.548Z" fill="#83C63B"/>
<path d="M1117.5 519.565C1117.5 513.013 1122.86 507.702 1129.47 507.702C1136.08 507.702 1141.44 513.013 1141.44 519.565V547.137C1141.44 553.689 1136.08 559 1129.47 559C1122.86 559 1117.5 553.689 1117.5 547.137V519.565Z" fill="#83C63B"/>
</g>
<g id="Vector_15" filter="url(#filter14_d_110_830)">
<path d="M1007.53 465.996C1012.85 442.672 1046.38 442.672 1051.7 465.996L1060.35 503.874C1063.55 517.912 1052.78 531.267 1038.26 531.267H1020.97C1006.45 531.267 995.682 517.912 998.885 503.874L1007.53 465.996Z" fill="#83C63B"/>
<path d="M1053.55 415.046C1053.55 428.326 1042.69 439.092 1029.29 439.092C1015.89 439.092 1005.03 428.326 1005.03 415.046C1005.03 401.766 1015.89 391 1029.29 391C1042.69 391 1053.55 401.766 1053.55 415.046Z" fill="#83C63B"/>
<path d="M1034.14 519.565C1034.14 513.013 1039.5 507.702 1046.11 507.702C1052.72 507.702 1058.08 513.013 1058.08 519.565V547.137C1058.08 553.689 1052.72 559 1046.11 559C1039.5 559 1034.14 553.689 1034.14 547.137V519.565Z" fill="#83C63B"/>
<path d="M1043.51 473.609C1040.12 467.981 1041.98 460.7 1047.66 457.347C1053.34 453.993 1060.69 455.837 1064.07 461.466L1078.31 485.153C1081.69 490.781 1079.83 498.062 1074.16 501.415C1068.48 504.769 1061.13 502.925 1057.75 497.296L1043.51 473.609Z" fill="#83C63B"/>
<path d="M994.516 461.548C997.821 455.874 1005.14 453.93 1010.87 457.206C1016.59 460.482 1018.55 467.737 1015.25 473.411L1001.34 497.289C998.032 502.963 990.712 504.907 984.987 501.631C979.262 498.355 977.3 491.1 980.606 485.427L994.516 461.548Z" fill="#83C63B"/>
<path d="M1000.5 519.565C1000.5 513.013 1005.86 507.702 1012.47 507.702C1019.08 507.702 1024.44 513.013 1024.44 519.565V547.137C1024.44 553.689 1019.08 559 1012.47 559C1005.86 559 1000.5 553.689 1000.5 547.137V519.565Z" fill="#83C63B"/>
</g>
<g id="Vector_16" filter="url(#filter15_d_110_830)">
<path d="M1242.25 465.996C1247.52 442.672 1280.71 442.672 1285.98 465.996L1294.54 503.874C1297.71 517.912 1287.05 531.267 1272.67 531.267H1255.56C1241.18 531.267 1230.52 517.912 1233.69 503.874L1242.25 465.996Z" fill="#83C63B"/>
<path d="M1287.82 415.046C1287.82 428.326 1277.06 439.092 1263.79 439.092C1250.53 439.092 1239.77 428.326 1239.77 415.046C1239.77 401.766 1250.53 391 1263.79 391C1277.06 391 1287.82 401.766 1287.82 415.046Z" fill="#83C63B"/>
<path d="M1268.6 519.565C1268.6 513.013 1273.9 507.702 1280.45 507.702C1286.99 507.702 1292.3 513.013 1292.3 519.565V547.137C1292.3 553.689 1286.99 559 1280.45 559C1273.9 559 1268.6 553.689 1268.6 547.137V519.565Z" fill="#83C63B"/>
<path d="M1277.87 473.609C1274.52 467.981 1276.36 460.7 1281.98 457.347C1287.61 453.993 1294.88 455.837 1298.23 461.466L1312.33 485.153C1315.68 490.781 1313.84 498.062 1308.21 501.415C1302.59 504.769 1295.32 502.925 1291.97 497.296L1277.87 473.609Z" fill="#83C63B"/>
<path d="M1229.36 461.548C1232.63 455.874 1239.88 453.93 1245.55 457.206C1251.22 460.482 1253.16 467.737 1249.89 473.411L1236.12 497.289C1232.84 502.963 1225.6 504.907 1219.93 501.631C1214.26 498.355 1212.32 491.1 1215.59 485.427L1229.36 461.548Z" fill="#83C63B"/>
<path d="M1235.29 519.565C1235.29 513.013 1240.59 507.702 1247.14 507.702C1253.68 507.702 1258.99 513.013 1258.99 519.565V547.137C1258.99 553.689 1253.68 559 1247.14 559C1240.59 559 1235.29 553.689 1235.29 547.137V519.565Z" fill="#83C63B"/>
</g>
<g id="Vector_17" filter="url(#filter16_d_110_830)">
<path d="M789.33 502.388C795.548 474.899 834.722 474.899 840.94 502.388L851.038 547.03C854.78 563.575 842.199 579.315 825.233 579.315H805.037C788.071 579.315 775.49 563.575 779.232 547.03L789.33 502.388Z" fill="#7CE06A"/>
<path d="M843.103 442.34C843.103 457.991 830.412 470.679 814.757 470.679C799.102 470.679 786.411 457.991 786.411 442.34C786.411 426.688 799.102 414 814.757 414C830.412 414 843.103 426.688 843.103 442.34Z" fill="#7CE06A"/>
<path d="M820.426 565.523C820.426 557.801 826.687 551.542 834.41 551.542C842.134 551.542 848.395 557.801 848.395 565.523V598.019C848.395 605.741 842.134 612 834.41 612C826.687 612 820.426 605.741 820.426 598.019V565.523Z" fill="#7CE06A"/>
<path d="M831.364 511.361C827.41 504.728 829.584 496.146 836.219 492.194C842.854 488.242 851.437 490.416 855.39 497.049L872.027 524.966C875.98 531.599 873.806 540.18 867.171 544.132C860.537 548.085 851.953 545.911 848 539.278L831.364 511.361Z" fill="#7CE06A"/>
<path d="M774.128 497.146C777.989 490.459 786.542 488.168 793.23 492.029C799.919 495.889 802.21 504.44 798.349 511.127L782.097 539.269C778.235 545.956 769.683 548.248 762.994 544.387C756.306 540.526 754.014 531.975 757.876 525.289L774.128 497.146Z" fill="#7CE06A"/>
<path d="M781.12 565.523C781.12 557.801 787.381 551.542 795.104 551.542C802.827 551.542 809.088 557.801 809.088 565.523V598.019C809.088 605.741 802.827 612 795.104 612C787.381 612 781.12 605.741 781.12 598.019V565.523Z" fill="#7CE06A"/>
</g>
<g id="Vector_18" filter="url(#filter17_d_110_830)">
<path d="M1065.33 502.388C1071.55 474.899 1110.72 474.899 1116.94 502.388L1127.04 547.03C1130.78 563.575 1118.2 579.315 1101.23 579.315H1081.04C1064.07 579.315 1051.49 563.575 1055.23 547.03L1065.33 502.388Z" fill="#7CE06A"/>
<path d="M1119.1 442.34C1119.1 457.991 1106.41 470.679 1090.76 470.679C1075.1 470.679 1062.41 457.991 1062.41 442.34C1062.41 426.688 1075.1 414 1090.76 414C1106.41 414 1119.1 426.688 1119.1 442.34Z" fill="#7CE06A"/>
<path d="M1096.43 565.523C1096.43 557.801 1102.69 551.542 1110.41 551.542C1118.13 551.542 1124.39 557.801 1124.39 565.523V598.019C1124.39 605.741 1118.13 612 1110.41 612C1102.69 612 1096.43 605.741 1096.43 598.019V565.523Z" fill="#7CE06A"/>
<path d="M1107.36 511.361C1103.41 504.728 1105.58 496.146 1112.22 492.194C1118.85 488.242 1127.44 490.416 1131.39 497.049L1148.03 524.966C1151.98 531.599 1149.81 540.18 1143.17 544.132C1136.54 548.085 1127.95 545.911 1124 539.278L1107.36 511.361Z" fill="#7CE06A"/>
<path d="M1050.13 497.146C1053.99 490.459 1062.54 488.168 1069.23 492.029C1075.92 495.889 1078.21 504.44 1074.35 511.127L1058.1 539.269C1054.24 545.956 1045.68 548.248 1038.99 544.387C1032.31 540.526 1030.01 531.975 1033.88 525.289L1050.13 497.146Z" fill="#7CE06A"/>
<path d="M1057.12 565.523C1057.12 557.801 1063.38 551.542 1071.1 551.542C1078.83 551.542 1085.09 557.801 1085.09 565.523V598.019C1085.09 605.741 1078.83 612 1071.1 612C1063.38 612 1057.12 605.741 1057.12 598.019V565.523Z" fill="#7CE06A"/>
</g>
<g id="Vector_19" filter="url(#filter18_d_110_830)">
<path d="M927.33 502.388C933.548 474.899 972.722 474.899 978.94 502.388L989.038 547.03C992.78 563.575 980.199 579.315 963.233 579.315H943.037C926.071 579.315 913.49 563.575 917.232 547.03L927.33 502.388Z" fill="#7CE06A"/>
<path d="M981.103 442.34C981.103 457.991 968.412 470.679 952.757 470.679C937.102 470.679 924.411 457.991 924.411 442.34C924.411 426.688 937.102 414 952.757 414C968.412 414 981.103 426.688 981.103 442.34Z" fill="#7CE06A"/>
<path d="M958.426 565.523C958.426 557.801 964.687 551.542 972.41 551.542C980.134 551.542 986.395 557.801 986.395 565.523V598.019C986.395 605.741 980.134 612 972.41 612C964.687 612 958.426 605.741 958.426 598.019V565.523Z" fill="#7CE06A"/>
<path d="M969.364 511.361C965.41 504.728 967.584 496.146 974.219 492.194C980.854 488.242 989.437 490.416 993.39 497.049L1010.03 524.966C1013.98 531.599 1011.81 540.18 1005.17 544.132C998.537 548.085 989.953 545.911 986 539.278L969.364 511.361Z" fill="#7CE06A"/>
<path d="M912.128 497.146C915.989 490.459 924.542 488.168 931.23 492.029C937.919 495.889 940.21 504.44 936.349 511.127L920.097 539.269C916.235 545.956 907.683 548.248 900.994 544.387C894.306 540.526 892.014 531.975 895.876 525.289L912.128 497.146Z" fill="#7CE06A"/>
<path d="M919.12 565.523C919.12 557.801 925.381 551.542 933.104 551.542C940.827 551.542 947.088 557.801 947.088 565.523V598.019C947.088 605.741 940.827 612 933.104 612C925.381 612 919.12 605.741 919.12 598.019V565.523Z" fill="#7CE06A"/>
</g>
<g id="Vector_20" filter="url(#filter19_d_110_830)">
<path d="M985.33 548.388C991.548 520.899 1030.72 520.899 1036.94 548.388L1047.04 593.03C1050.78 609.575 1038.2 625.315 1021.23 625.315H1001.04C984.071 625.315 971.49 609.575 975.232 593.03L985.33 548.388Z" fill="#9DFB8D"/>
<path d="M1039.1 488.34C1039.1 503.991 1026.41 516.679 1010.76 516.679C995.102 516.679 982.411 503.991 982.411 488.34C982.411 472.688 995.102 460 1010.76 460C1026.41 460 1039.1 472.688 1039.1 488.34Z" fill="#9DFB8D"/>
<path d="M1016.43 611.523C1016.43 603.801 1022.69 597.542 1030.41 597.542C1038.13 597.542 1044.39 603.801 1044.39 611.523V644.019C1044.39 651.741 1038.13 658 1030.41 658C1022.69 658 1016.43 651.741 1016.43 644.019V611.523Z" fill="#9DFB8D"/>
<path d="M1027.36 557.361C1023.41 550.728 1025.58 542.146 1032.22 538.194C1038.85 534.242 1047.44 536.416 1051.39 543.049L1068.03 570.966C1071.98 577.599 1069.81 586.18 1063.17 590.132C1056.54 594.085 1047.95 591.911 1044 585.278L1027.36 557.361Z" fill="#9DFB8D"/>
<path d="M970.128 543.146C973.989 536.459 982.542 534.168 989.23 538.029C995.919 541.889 998.21 550.44 994.349 557.127L978.097 585.269C974.235 591.956 965.683 594.248 958.994 590.387C952.306 586.526 950.014 577.975 953.876 571.289L970.128 543.146Z" fill="#9DFB8D"/>
<path d="M977.12 611.523C977.12 603.801 983.381 597.542 991.104 597.542C998.827 597.542 1005.09 603.801 1005.09 611.523V644.019C1005.09 651.741 998.827 658 991.104 658C983.381 658 977.12 651.741 977.12 644.019V611.523Z" fill="#9DFB8D"/>
</g>
<g id="Vector_21" filter="url(#filter20_d_110_830)">
<path d="M1203.33 502.388C1209.55 474.899 1248.72 474.899 1254.94 502.388L1265.04 547.03C1268.78 563.575 1256.2 579.315 1239.23 579.315H1219.04C1202.07 579.315 1189.49 563.575 1193.23 547.03L1203.33 502.388Z" fill="#7CE06A"/>
<path d="M1257.1 442.34C1257.1 457.991 1244.41 470.679 1228.76 470.679C1213.1 470.679 1200.41 457.991 1200.41 442.34C1200.41 426.688 1213.1 414 1228.76 414C1244.41 414 1257.1 426.688 1257.1 442.34Z" fill="#7CE06A"/>
<path d="M1234.43 565.523C1234.43 557.801 1240.69 551.542 1248.41 551.542C1256.13 551.542 1262.39 557.801 1262.39 565.523V598.019C1262.39 605.741 1256.13 612 1248.41 612C1240.69 612 1234.43 605.741 1234.43 598.019V565.523Z" fill="#7CE06A"/>
<path d="M1245.36 511.361C1241.41 504.728 1243.58 496.146 1250.22 492.194C1256.85 488.242 1265.44 490.416 1269.39 497.049L1286.03 524.966C1289.98 531.599 1287.81 540.18 1281.17 544.132C1274.54 548.085 1265.95 545.911 1262 539.278L1245.36 511.361Z" fill="#7CE06A"/>
<path d="M1188.13 497.146C1191.99 490.459 1200.54 488.168 1207.23 492.029C1213.92 495.889 1216.21 504.44 1212.35 511.127L1196.1 539.269C1192.24 545.956 1183.68 548.248 1176.99 544.387C1170.31 540.526 1168.01 531.975 1171.88 525.289L1188.13 497.146Z" fill="#7CE06A"/>
<path d="M1195.12 565.523C1195.12 557.801 1201.38 551.542 1209.1 551.542C1216.83 551.542 1223.09 557.801 1223.09 565.523V598.019C1223.09 605.741 1216.83 612 1209.1 612C1201.38 612 1195.12 605.741 1195.12 598.019V565.523Z" fill="#7CE06A"/>
</g>
<g id="Vector_22" filter="url(#filter21_d_110_830)">
<path d="M847.33 548.388C853.548 520.899 892.722 520.899 898.94 548.388L909.038 593.03C912.78 609.575 900.199 625.315 883.233 625.315H863.037C846.071 625.315 833.49 609.575 837.232 593.03L847.33 548.388Z" fill="#9DFB8D"/>
<path d="M901.103 488.34C901.103 503.991 888.412 516.679 872.757 516.679C857.102 516.679 844.411 503.991 844.411 488.34C844.411 472.688 857.102 460 872.757 460C888.412 460 901.103 472.688 901.103 488.34Z" fill="#9DFB8D"/>
<path d="M878.426 611.523C878.426 603.801 884.687 597.542 892.41 597.542C900.134 597.542 906.395 603.801 906.395 611.523V644.019C906.395 651.741 900.134 658 892.41 658C884.687 658 878.426 651.741 878.426 644.019V611.523Z" fill="#9DFB8D"/>
<path d="M889.364 557.361C885.41 550.728 887.584 542.146 894.219 538.194C900.854 534.242 909.437 536.416 913.39 543.049L930.027 570.966C933.98 577.599 931.806 586.18 925.171 590.132C918.537 594.085 909.953 591.911 906 585.278L889.364 557.361Z" fill="#9DFB8D"/>
<path d="M832.128 543.146C835.989 536.459 844.542 534.168 851.23 538.029C857.919 541.889 860.21 550.44 856.349 557.127L840.097 585.269C836.235 591.956 827.683 594.248 820.994 590.387C814.306 586.526 812.014 577.975 815.876 571.289L832.128 543.146Z" fill="#9DFB8D"/>
<path d="M839.12 611.523C839.12 603.801 845.381 597.542 853.104 597.542C860.827 597.542 867.088 603.801 867.088 611.523V644.019C867.088 651.741 860.827 658 853.104 658C845.381 658 839.12 651.741 839.12 644.019V611.523Z" fill="#9DFB8D"/>
</g>
<g id="Vector_23" filter="url(#filter22_d_110_830)">
<path d="M1123.33 548.388C1129.55 520.899 1168.72 520.899 1174.94 548.388L1185.04 593.03C1188.78 609.575 1176.2 625.315 1159.23 625.315H1139.04C1122.07 625.315 1109.49 609.575 1113.23 593.03L1123.33 548.388Z" fill="#9DFB8D"/>
<path d="M1177.1 488.34C1177.1 503.991 1164.41 516.679 1148.76 516.679C1133.1 516.679 1120.41 503.991 1120.41 488.34C1120.41 472.688 1133.1 460 1148.76 460C1164.41 460 1177.1 472.688 1177.1 488.34Z" fill="#9DFB8D"/>
<path d="M1154.43 611.523C1154.43 603.801 1160.69 597.542 1168.41 597.542C1176.13 597.542 1182.39 603.801 1182.39 611.523V644.019C1182.39 651.741 1176.13 658 1168.41 658C1160.69 658 1154.43 651.741 1154.43 644.019V611.523Z" fill="#9DFB8D"/>
<path d="M1165.36 557.361C1161.41 550.728 1163.58 542.146 1170.22 538.194C1176.85 534.242 1185.44 536.416 1189.39 543.049L1206.03 570.966C1209.98 577.599 1207.81 586.18 1201.17 590.132C1194.54 594.085 1185.95 591.911 1182 585.278L1165.36 557.361Z" fill="#9DFB8D"/>
<path d="M1108.13 543.146C1111.99 536.459 1120.54 534.168 1127.23 538.029C1133.92 541.889 1136.21 550.44 1132.35 557.127L1116.1 585.269C1112.24 591.956 1103.68 594.248 1096.99 590.387C1090.31 586.526 1088.01 577.975 1091.88 571.289L1108.13 543.146Z" fill="#9DFB8D"/>
<path d="M1115.12 611.523C1115.12 603.801 1121.38 597.542 1129.1 597.542C1136.83 597.542 1143.09 603.801 1143.09 611.523V644.019C1143.09 651.741 1136.83 658 1129.1 658C1121.38 658 1115.12 651.741 1115.12 644.019V611.523Z" fill="#9DFB8D"/>
</g>
<g id="Vector_24" filter="url(#filter23_d_110_830)">
<path d="M1261.33 548.388C1267.55 520.899 1306.72 520.899 1312.94 548.388L1323.04 593.03C1326.78 609.575 1314.2 625.315 1297.23 625.315H1277.04C1260.07 625.315 1247.49 609.575 1251.23 593.03L1261.33 548.388Z" fill="#9DFB8D"/>
<path d="M1315.1 488.34C1315.1 503.991 1302.41 516.679 1286.76 516.679C1271.1 516.679 1258.41 503.991 1258.41 488.34C1258.41 472.688 1271.1 460 1286.76 460C1302.41 460 1315.1 472.688 1315.1 488.34Z" fill="#9DFB8D"/>
<path d="M1292.43 611.523C1292.43 603.801 1298.69 597.542 1306.41 597.542C1314.13 597.542 1320.39 603.801 1320.39 611.523V644.019C1320.39 651.741 1314.13 658 1306.41 658C1298.69 658 1292.43 651.741 1292.43 644.019V611.523Z" fill="#9DFB8D"/>
<path d="M1303.36 557.361C1299.41 550.728 1301.58 542.146 1308.22 538.194C1314.85 534.242 1323.44 536.416 1327.39 543.049L1344.03 570.966C1347.98 577.599 1345.81 586.18 1339.17 590.132C1332.54 594.085 1323.95 591.911 1320 585.278L1303.36 557.361Z" fill="#9DFB8D"/>
<path d="M1246.13 543.146C1249.99 536.459 1258.54 534.168 1265.23 538.029C1271.92 541.889 1274.21 550.44 1270.35 557.127L1254.1 585.269C1250.24 591.956 1241.68 594.248 1234.99 590.387C1228.31 586.526 1226.01 577.975 1229.88 571.289L1246.13 543.146Z" fill="#9DFB8D"/>
<path d="M1253.12 611.523C1253.12 603.801 1259.38 597.542 1267.1 597.542C1274.83 597.542 1281.09 603.801 1281.09 611.523V644.019C1281.09 651.741 1274.83 658 1267.1 658C1259.38 658 1253.12 651.741 1253.12 644.019V611.523Z" fill="#9DFB8D"/>
</g>
</g>
<path id="you guys are as useful as working with a drunk man" d="M821.618 270.28L826.622 260.02L826.514 262.936L816.362 242.884H822.95L827.594 252.82C827.93 253.492 828.242 254.176 828.53 254.872C828.818 255.544 829.046 256.216 829.214 256.888L828.134 257.176C828.35 256.648 828.602 256.024 828.89 255.304C829.178 254.584 829.478 253.852 829.79 253.108L834.074 242.884H840.662L831.302 262.072L827.45 270.28H821.618ZM856.03 262.36C853.798 262.36 851.818 261.928 850.09 261.064C848.362 260.2 847.006 259.024 846.022 257.536C845.038 256.048 844.546 254.344 844.546 252.424C844.546 250.504 845.038 248.8 846.022 247.312C847.006 245.824 848.362 244.648 850.09 243.784C851.818 242.92 853.798 242.488 856.03 242.488C858.238 242.488 860.194 242.92 861.898 243.784C863.626 244.648 864.982 245.824 865.966 247.312C866.95 248.8 867.442 250.504 867.442 252.424C867.442 254.344 866.95 256.048 865.966 257.536C864.982 259.024 863.626 260.2 861.898 261.064C860.194 261.928 858.238 262.36 856.03 262.36ZM856.03 257.392C857.062 257.392 857.998 257.176 858.838 256.744C859.702 256.312 860.374 255.724 860.854 254.98C861.358 254.236 861.598 253.384 861.574 252.424C861.598 251.464 861.358 250.6 860.854 249.832C860.374 249.064 859.702 248.476 858.838 248.068C857.998 247.636 857.062 247.42 856.03 247.42C854.974 247.42 854.002 247.636 853.114 248.068C852.25 248.5 851.578 249.088 851.098 249.832C850.618 250.576 850.378 251.44 850.378 252.424C850.378 253.384 850.618 254.236 851.098 254.98C851.578 255.724 852.25 256.312 853.114 256.744C854.002 257.176 854.974 257.392 856.03 257.392ZM881.707 262.396C880.171 262.396 878.839 262.06 877.711 261.388C876.607 260.716 875.755 259.744 875.155 258.472C874.555 257.176 874.255 255.628 874.255 253.828V242.884H880.015V252.892C880.015 253.876 880.147 254.704 880.411 255.376C880.699 256.048 881.143 256.564 881.743 256.924C882.343 257.26 883.075 257.428 883.939 257.428C884.563 257.428 885.139 257.332 885.667 257.14C886.195 256.924 886.663 256.636 887.071 256.276C887.479 255.892 887.791 255.46 888.007 254.98C888.247 254.476 888.367 253.912 888.367 253.288V242.884H894.127V262H888.727L888.475 258.076L889.519 257.644C889.255 258.484 888.751 259.264 888.007 259.984C887.263 260.704 886.351 261.292 885.271 261.748C884.215 262.18 883.027 262.396 881.707 262.396ZM927.187 270.28C925.291 270.28 923.527 270.04 921.895 269.56C920.287 269.104 918.967 268.528 917.935 267.832L919.915 263.728C920.443 264.016 921.031 264.292 921.679 264.556C922.351 264.82 923.083 265.036 923.875 265.204C924.667 265.396 925.531 265.492 926.467 265.492C927.691 265.492 928.723 265.288 929.563 264.88C930.427 264.472 931.075 263.848 931.507 263.008C931.963 262.192 932.191 261.184 932.191 259.984V257.356L933.307 257.536C933.115 258.304 932.635 259.012 931.867 259.66C931.099 260.308 930.139 260.836 928.987 261.244C927.835 261.652 926.611 261.856 925.315 261.856C923.419 261.856 921.751 261.46 920.311 260.668C918.871 259.852 917.731 258.736 916.891 257.32C916.075 255.88 915.667 254.224 915.667 252.352C915.667 250.432 916.087 248.74 916.927 247.276C917.767 245.788 918.919 244.624 920.383 243.784C921.847 242.92 923.539 242.488 925.459 242.488C926.107 242.488 926.779 242.572 927.475 242.74C928.195 242.884 928.891 243.088 929.563 243.352C930.259 243.592 930.883 243.904 931.435 244.288C932.011 244.648 932.479 245.056 932.839 245.512C933.223 245.944 933.439 246.412 933.487 246.916L932.299 247.204L932.551 242.884H937.987V259.876C937.987 261.58 937.711 263.068 937.159 264.34C936.631 265.636 935.887 266.728 934.927 267.616C933.967 268.504 932.815 269.164 931.471 269.596C930.151 270.052 928.723 270.28 927.187 270.28ZM926.971 257.392C928.051 257.392 928.999 257.188 929.815 256.78C930.631 256.348 931.255 255.76 931.687 255.016C932.143 254.272 932.371 253.396 932.371 252.388C932.371 251.38 932.143 250.504 931.687 249.76C931.255 248.992 930.631 248.404 929.815 247.996C928.999 247.564 928.051 247.348 926.971 247.348C925.843 247.348 924.859 247.564 924.019 247.996C923.179 248.404 922.531 248.992 922.075 249.76C921.619 250.504 921.391 251.38 921.391 252.388C921.391 253.396 921.619 254.272 922.075 255.016C922.531 255.76 923.179 256.348 924.019 256.78C924.859 257.188 925.843 257.392 926.971 257.392ZM953.637 262.396C952.101 262.396 950.769 262.06 949.641 261.388C948.537 260.716 947.685 259.744 947.085 258.472C946.485 257.176 946.185 255.628 946.185 253.828V242.884H951.945V252.892C951.945 253.876 952.077 254.704 952.341 255.376C952.629 256.048 953.073 256.564 953.673 256.924C954.273 257.26 955.005 257.428 955.869 257.428C956.493 257.428 957.069 257.332 957.597 257.14C958.125 256.924 958.593 256.636 959.001 256.276C959.409 255.892 959.721 255.46 959.937 254.98C960.177 254.476 960.297 253.912 960.297 253.288V242.884H966.057V262H960.657L960.405 258.076L961.449 257.644C961.185 258.484 960.681 259.264 959.937 259.984C959.193 260.704 958.281 261.292 957.201 261.748C956.145 262.18 954.957 262.396 953.637 262.396ZM977.36 270.28L982.364 260.02L982.256 262.936L972.104 242.884H978.692L983.336 252.82C983.672 253.492 983.984 254.176 984.272 254.872C984.56 255.544 984.788 256.216 984.956 256.888L983.876 257.176C984.092 256.648 984.344 256.024 984.632 255.304C984.92 254.584 985.22 253.852 985.532 253.108L989.816 242.884H996.404L987.044 262.072L983.192 270.28H977.36ZM1009.47 262.36C1007.36 262.36 1005.46 262.06 1003.78 261.46C1002.12 260.86 1000.79 260.008 999.784 258.904L1003.28 255.808C1004.09 256.576 1005.06 257.164 1006.19 257.572C1007.32 257.98 1008.51 258.184 1009.76 258.184C1010.14 258.184 1010.51 258.148 1010.87 258.076C1011.26 258.004 1011.58 257.908 1011.84 257.788C1012.13 257.644 1012.36 257.476 1012.53 257.284C1012.7 257.092 1012.78 256.852 1012.78 256.564C1012.78 256.108 1012.49 255.748 1011.92 255.484C1011.51 255.34 1010.99 255.196 1010.37 255.052C1009.74 254.908 1009.04 254.752 1008.24 254.584C1006.92 254.344 1005.76 254.056 1004.75 253.72C1003.77 253.36 1002.94 252.916 1002.27 252.388C1001.69 251.884 1001.25 251.308 1000.94 250.66C1000.62 250.012 1000.47 249.256 1000.47 248.392C1000.47 247.504 1000.7 246.7 1001.15 245.98C1001.61 245.236 1002.24 244.612 1003.06 244.108C1003.88 243.58 1004.81 243.184 1005.87 242.92C1006.92 242.632 1008.03 242.488 1009.18 242.488C1010.33 242.488 1011.46 242.608 1012.56 242.848C1013.67 243.064 1014.71 243.388 1015.7 243.82C1016.68 244.228 1017.54 244.756 1018.29 245.404L1015.34 248.86C1014.81 248.452 1014.2 248.08 1013.5 247.744C1012.8 247.408 1012.06 247.144 1011.27 246.952C1010.5 246.736 1009.74 246.628 1009 246.628C1008.59 246.628 1008.2 246.652 1007.81 246.7C1007.45 246.748 1007.14 246.844 1006.88 246.988C1006.61 247.108 1006.4 247.264 1006.23 247.456C1006.08 247.624 1006.01 247.84 1006.01 248.104C1006.01 248.32 1006.07 248.524 1006.19 248.716C1006.31 248.908 1006.49 249.064 1006.73 249.184C1007.07 249.4 1007.56 249.592 1008.21 249.76C1008.88 249.928 1009.72 250.108 1010.73 250.3C1012.19 250.612 1013.44 250.972 1014.47 251.38C1015.5 251.764 1016.33 252.232 1016.96 252.784C1017.46 253.168 1017.83 253.648 1018.07 254.224C1018.31 254.776 1018.43 255.388 1018.43 256.06C1018.43 257.284 1018.04 258.376 1017.24 259.336C1016.48 260.272 1015.42 261.016 1014.08 261.568C1012.76 262.096 1011.22 262.36 1009.47 262.36ZM1046.84 262.324C1044.94 262.324 1043.29 261.904 1041.87 261.064C1040.46 260.224 1039.34 259.06 1038.52 257.572C1037.73 256.06 1037.34 254.344 1037.34 252.424C1037.34 250.48 1037.74 248.764 1038.56 247.276C1039.38 245.788 1040.5 244.624 1041.94 243.784C1043.41 242.92 1045.09 242.488 1046.98 242.488C1048.06 242.488 1049.06 242.632 1049.97 242.92C1050.88 243.184 1051.68 243.556 1052.35 244.036C1053.04 244.516 1053.61 245.044 1054.04 245.62C1054.5 246.196 1054.8 246.796 1054.94 247.42H1053.68V242.884H1059.37V262H1053.57V257.104L1054.8 257.284C1054.65 257.908 1054.35 258.52 1053.9 259.12C1053.44 259.72 1052.85 260.26 1052.13 260.74C1051.41 261.22 1050.6 261.604 1049.68 261.892C1048.8 262.18 1047.85 262.324 1046.84 262.324ZM1048.39 257.464C1049.47 257.464 1050.4 257.26 1051.2 256.852C1052.01 256.444 1052.64 255.868 1053.07 255.124C1053.52 254.356 1053.75 253.456 1053.75 252.424C1053.75 251.416 1053.52 250.54 1053.07 249.796C1052.64 249.028 1052.01 248.428 1051.2 247.996C1050.4 247.564 1049.47 247.348 1048.39 247.348C1047.31 247.348 1046.37 247.564 1045.58 247.996C1044.79 248.428 1044.16 249.028 1043.71 249.796C1043.28 250.54 1043.06 251.416 1043.06 252.424C1043.06 253.456 1043.28 254.356 1043.71 255.124C1044.16 255.868 1044.79 256.444 1045.58 256.852C1046.37 257.26 1047.31 257.464 1048.39 257.464ZM1068.25 262V242.884H1073.73L1073.98 249.472L1072.61 248.788C1072.92 247.612 1073.46 246.556 1074.23 245.62C1075.02 244.66 1075.92 243.904 1076.93 243.352C1077.96 242.776 1079.05 242.488 1080.21 242.488C1080.83 242.488 1081.42 242.548 1081.97 242.668C1082.55 242.788 1083.04 242.944 1083.45 243.136L1081.86 249.436C1081.5 249.172 1081.01 248.968 1080.39 248.824C1079.79 248.68 1079.17 248.608 1078.55 248.608C1077.85 248.608 1077.22 248.728 1076.64 248.968C1076.09 249.184 1075.62 249.496 1075.24 249.904C1074.85 250.288 1074.55 250.732 1074.34 251.236C1074.15 251.74 1074.05 252.28 1074.05 252.856V262H1068.25ZM1098.53 262.36C1096.21 262.36 1094.17 261.94 1092.41 261.1C1090.69 260.236 1089.34 259.072 1088.38 257.608C1087.42 256.12 1086.94 254.428 1086.94 252.532C1086.94 251.02 1087.22 249.652 1087.77 248.428C1088.32 247.204 1089.09 246.148 1090.07 245.26C1091.06 244.372 1092.21 243.688 1093.53 243.208C1094.85 242.728 1096.28 242.488 1097.81 242.488C1099.3 242.488 1100.67 242.728 1101.92 243.208C1103.17 243.664 1104.25 244.324 1105.16 245.188C1106.09 246.052 1106.81 247.072 1107.32 248.248C1107.82 249.424 1108.05 250.72 1108 252.136L1107.97 253.756H1090.72L1089.89 250.408H1103.29L1102.67 251.128V250.408C1102.6 249.808 1102.34 249.268 1101.88 248.788C1101.45 248.308 1100.89 247.936 1100.19 247.672C1099.49 247.384 1098.73 247.24 1097.89 247.24C1096.81 247.24 1095.85 247.42 1095.01 247.78C1094.17 248.116 1093.51 248.644 1093.03 249.364C1092.57 250.084 1092.34 250.996 1092.34 252.1C1092.34 253.156 1092.62 254.08 1093.17 254.872C1093.75 255.664 1094.55 256.288 1095.58 256.744C1096.64 257.2 1097.87 257.428 1099.29 257.428C1100.51 257.428 1101.53 257.284 1102.35 256.996C1103.19 256.684 1103.95 256.3 1104.62 255.844L1107.21 259.588C1106.42 260.188 1105.54 260.704 1104.58 261.136C1103.65 261.544 1102.66 261.844 1101.63 262.036C1100.62 262.252 1099.59 262.36 1098.53 262.36ZM1136.98 262.324C1135.09 262.324 1133.43 261.904 1132.01 261.064C1130.6 260.224 1129.48 259.06 1128.67 257.572C1127.87 256.06 1127.48 254.344 1127.48 252.424C1127.48 250.48 1127.89 248.764 1128.7 247.276C1129.52 245.788 1130.65 244.624 1132.09 243.784C1133.55 242.92 1135.23 242.488 1137.13 242.488C1138.21 242.488 1139.2 242.632 1140.11 242.92C1141.03 243.184 1141.82 243.556 1142.49 244.036C1143.19 244.516 1143.75 245.044 1144.18 245.62C1144.64 246.196 1144.94 246.796 1145.08 247.42H1143.82V242.884H1149.51V262H1143.71V257.104L1144.94 257.284C1144.79 257.908 1144.49 258.52 1144.04 259.12C1143.58 259.72 1142.99 260.26 1142.27 260.74C1141.55 261.22 1140.74 261.604 1139.83 261.892C1138.94 262.18 1137.99 262.324 1136.98 262.324ZM1138.53 257.464C1139.61 257.464 1140.55 257.26 1141.34 256.852C1142.15 256.444 1142.78 255.868 1143.21 255.124C1143.67 254.356 1143.89 253.456 1143.89 252.424C1143.89 251.416 1143.67 250.54 1143.21 249.796C1142.78 249.028 1142.15 248.428 1141.34 247.996C1140.55 247.564 1139.61 247.348 1138.53 247.348C1137.45 247.348 1136.51 247.564 1135.72 247.996C1134.93 248.428 1134.31 249.028 1133.85 249.796C1133.42 250.54 1133.2 251.416 1133.2 252.424C1133.2 253.456 1133.42 254.356 1133.85 255.124C1134.31 255.868 1134.93 256.444 1135.72 256.852C1136.51 257.26 1137.45 257.464 1138.53 257.464ZM1165.67 262.36C1163.56 262.36 1161.66 262.06 1159.98 261.46C1158.32 260.86 1156.99 260.008 1155.98 258.904L1159.48 255.808C1160.29 256.576 1161.26 257.164 1162.39 257.572C1163.52 257.98 1164.71 258.184 1165.96 258.184C1166.34 258.184 1166.71 258.148 1167.07 258.076C1167.46 258.004 1167.78 257.908 1168.04 257.788C1168.33 257.644 1168.56 257.476 1168.73 257.284C1168.9 257.092 1168.98 256.852 1168.98 256.564C1168.98 256.108 1168.69 255.748 1168.12 255.484C1167.71 255.34 1167.19 255.196 1166.57 255.052C1165.94 254.908 1165.24 254.752 1164.44 254.584C1163.12 254.344 1161.96 254.056 1160.95 253.72C1159.97 253.36 1159.14 252.916 1158.47 252.388C1157.89 251.884 1157.45 251.308 1157.14 250.66C1156.82 250.012 1156.67 249.256 1156.67 248.392C1156.67 247.504 1156.9 246.7 1157.35 245.98C1157.81 245.236 1158.44 244.612 1159.26 244.108C1160.08 243.58 1161.01 243.184 1162.07 242.92C1163.12 242.632 1164.23 242.488 1165.38 242.488C1166.53 242.488 1167.66 242.608 1168.76 242.848C1169.87 243.064 1170.91 243.388 1171.9 243.82C1172.88 244.228 1173.74 244.756 1174.49 245.404L1171.54 248.86C1171.01 248.452 1170.4 248.08 1169.7 247.744C1169 247.408 1168.26 247.144 1167.47 246.952C1166.7 246.736 1165.94 246.628 1165.2 246.628C1164.79 246.628 1164.4 246.652 1164.01 246.7C1163.65 246.748 1163.34 246.844 1163.08 246.988C1162.81 247.108 1162.6 247.264 1162.43 247.456C1162.28 247.624 1162.21 247.84 1162.21 248.104C1162.21 248.32 1162.27 248.524 1162.39 248.716C1162.51 248.908 1162.69 249.064 1162.93 249.184C1163.27 249.4 1163.76 249.592 1164.41 249.76C1165.08 249.928 1165.92 250.108 1166.93 250.3C1168.39 250.612 1169.64 250.972 1170.67 251.38C1171.7 251.764 1172.53 252.232 1173.16 252.784C1173.66 253.168 1174.03 253.648 1174.27 254.224C1174.51 254.776 1174.63 255.388 1174.63 256.06C1174.63 257.284 1174.24 258.376 1173.44 259.336C1172.68 260.272 1171.62 261.016 1170.28 261.568C1168.96 262.096 1167.42 262.36 1165.67 262.36ZM1202.82 262.396C1201.29 262.396 1199.96 262.06 1198.83 261.388C1197.72 260.716 1196.87 259.744 1196.27 258.472C1195.67 257.176 1195.37 255.628 1195.37 253.828V242.884H1201.13V252.892C1201.13 253.876 1201.26 254.704 1201.53 255.376C1201.82 256.048 1202.26 256.564 1202.86 256.924C1203.46 257.26 1204.19 257.428 1205.06 257.428C1205.68 257.428 1206.26 257.332 1206.78 257.14C1207.31 256.924 1207.78 256.636 1208.19 256.276C1208.6 255.892 1208.91 255.46 1209.12 254.98C1209.36 254.476 1209.48 253.912 1209.48 253.288V242.884H1215.24V262H1209.84L1209.59 258.076L1210.64 257.644C1210.37 258.484 1209.87 259.264 1209.12 259.984C1208.38 260.704 1207.47 261.292 1206.39 261.748C1205.33 262.18 1204.14 262.396 1202.82 262.396ZM1231.48 262.36C1229.37 262.36 1227.47 262.06 1225.79 261.46C1224.14 260.86 1222.8 260.008 1221.8 258.904L1225.29 255.808C1226.1 256.576 1227.08 257.164 1228.2 257.572C1229.33 257.98 1230.52 258.184 1231.77 258.184C1232.15 258.184 1232.52 258.148 1232.88 258.076C1233.27 258.004 1233.59 257.908 1233.86 257.788C1234.14 257.644 1234.37 257.476 1234.54 257.284C1234.71 257.092 1234.79 256.852 1234.79 256.564C1234.79 256.108 1234.5 255.748 1233.93 255.484C1233.52 255.34 1233 255.196 1232.38 255.052C1231.76 254.908 1231.05 254.752 1230.26 254.584C1228.94 254.344 1227.77 254.056 1226.76 253.72C1225.78 253.36 1224.95 252.916 1224.28 252.388C1223.7 251.884 1223.26 251.308 1222.95 250.66C1222.64 250.012 1222.48 249.256 1222.48 248.392C1222.48 247.504 1222.71 246.7 1223.16 245.98C1223.62 245.236 1224.26 244.612 1225.07 244.108C1225.89 243.58 1226.82 243.184 1227.88 242.92C1228.94 242.632 1230.04 242.488 1231.19 242.488C1232.34 242.488 1233.47 242.608 1234.58 242.848C1235.68 243.064 1236.72 243.388 1237.71 243.82C1238.69 244.228 1239.56 244.756 1240.3 245.404L1237.35 248.86C1236.82 248.452 1236.21 248.08 1235.51 247.744C1234.82 247.408 1234.07 247.144 1233.28 246.952C1232.51 246.736 1231.76 246.628 1231.01 246.628C1230.6 246.628 1230.21 246.652 1229.82 246.7C1229.46 246.748 1229.15 246.844 1228.89 246.988C1228.62 247.108 1228.41 247.264 1228.24 247.456C1228.1 247.624 1228.02 247.84 1228.02 248.104C1228.02 248.32 1228.08 248.524 1228.2 248.716C1228.32 248.908 1228.5 249.064 1228.74 249.184C1229.08 249.4 1229.57 249.592 1230.22 249.76C1230.89 249.928 1231.73 250.108 1232.74 250.3C1234.2 250.612 1235.45 250.972 1236.48 251.38C1237.52 251.764 1238.34 252.232 1238.97 252.784C1239.47 253.168 1239.84 253.648 1240.08 254.224C1240.32 254.776 1240.44 255.388 1240.44 256.06C1240.44 257.284 1240.05 258.376 1239.26 259.336C1238.49 260.272 1237.43 261.016 1236.09 261.568C1234.77 262.096 1233.23 262.36 1231.48 262.36ZM1256.46 262.36C1254.13 262.36 1252.09 261.94 1250.34 261.1C1248.61 260.236 1247.26 259.072 1246.3 257.608C1245.34 256.12 1244.86 254.428 1244.86 252.532C1244.86 251.02 1245.14 249.652 1245.69 248.428C1246.24 247.204 1247.01 246.148 1248 245.26C1248.98 244.372 1250.13 243.688 1251.45 243.208C1252.77 242.728 1254.2 242.488 1255.74 242.488C1257.22 242.488 1258.59 242.728 1259.84 243.208C1261.09 243.664 1262.17 244.324 1263.08 245.188C1264.02 246.052 1264.74 247.072 1265.24 248.248C1265.74 249.424 1265.97 250.72 1265.92 252.136L1265.89 253.756H1248.64L1247.82 250.408H1261.21L1260.6 251.128V250.408C1260.52 249.808 1260.26 249.268 1259.8 248.788C1259.37 248.308 1258.81 247.936 1258.11 247.672C1257.42 247.384 1256.65 247.24 1255.81 247.24C1254.73 247.24 1253.77 247.42 1252.93 247.78C1252.09 248.116 1251.43 248.644 1250.95 249.364C1250.49 250.084 1250.26 250.996 1250.26 252.1C1250.26 253.156 1250.54 254.08 1251.09 254.872C1251.67 255.664 1252.47 256.288 1253.5 256.744C1254.56 257.2 1255.8 257.428 1257.21 257.428C1258.44 257.428 1259.46 257.284 1260.27 256.996C1261.11 256.684 1261.87 256.3 1262.54 255.844L1265.13 259.588C1264.34 260.188 1263.46 260.704 1262.5 261.136C1261.57 261.544 1260.58 261.844 1259.55 262.036C1258.54 262.252 1257.51 262.36 1256.46 262.36ZM1274.3 262V242.56C1274.3 241.144 1274.6 239.896 1275.2 238.816C1275.82 237.712 1276.69 236.848 1277.79 236.224C1278.9 235.6 1280.18 235.288 1281.64 235.288C1282.77 235.288 1283.76 235.432 1284.6 235.72C1285.46 236.008 1286.19 236.368 1286.79 236.8L1285.14 241.048C1284.8 240.856 1284.4 240.688 1283.95 240.544C1283.52 240.376 1283.08 240.292 1282.65 240.292C1282.03 240.292 1281.51 240.4 1281.1 240.616C1280.72 240.808 1280.43 241.096 1280.24 241.48C1280.05 241.864 1279.95 242.32 1279.95 242.848V262H1277.14C1276.54 262 1276 262 1275.52 262C1275.04 262 1274.64 262 1274.3 262ZM1270.95 248.32V243.568H1285.46V248.32H1270.95ZM1299.22 262.396C1297.69 262.396 1296.35 262.06 1295.23 261.388C1294.12 260.716 1293.27 259.744 1292.67 258.472C1292.07 257.176 1291.77 255.628 1291.77 253.828V242.884H1297.53V252.892C1297.53 253.876 1297.66 254.704 1297.93 255.376C1298.21 256.048 1298.66 256.564 1299.26 256.924C1299.86 257.26 1300.59 257.428 1301.45 257.428C1302.08 257.428 1302.65 257.332 1303.18 257.14C1303.71 256.924 1304.18 256.636 1304.59 256.276C1304.99 255.892 1305.31 255.46 1305.52 254.98C1305.76 254.476 1305.88 253.912 1305.88 253.288V242.884H1311.64V262H1306.24L1305.99 258.076L1307.03 257.644C1306.77 258.484 1306.27 259.264 1305.52 259.984C1304.78 260.704 1303.87 261.292 1302.79 261.748C1301.73 262.18 1300.54 262.396 1299.22 262.396ZM1320.61 262V235.36H1326.37V262H1320.61ZM1357.31 262.324C1355.41 262.324 1353.75 261.904 1352.34 261.064C1350.92 260.224 1349.81 259.06 1348.99 257.572C1348.2 256.06 1347.8 254.344 1347.8 252.424C1347.8 250.48 1348.21 248.764 1349.03 247.276C1349.84 245.788 1350.97 244.624 1352.41 243.784C1353.87 242.92 1355.55 242.488 1357.45 242.488C1358.53 242.488 1359.53 242.632 1360.44 242.92C1361.35 243.184 1362.14 243.556 1362.81 244.036C1363.51 244.516 1364.07 245.044 1364.51 245.62C1364.96 246.196 1365.26 246.796 1365.41 247.42H1364.15V242.884H1369.83V262H1364.04V257.104L1365.26 257.284C1365.12 257.908 1364.82 258.52 1364.36 259.12C1363.91 259.72 1363.32 260.26 1362.6 260.74C1361.88 261.22 1361.06 261.604 1360.15 261.892C1359.26 262.18 1358.31 262.324 1357.31 262.324ZM1358.85 257.464C1359.93 257.464 1360.87 257.26 1361.66 256.852C1362.48 256.444 1363.1 255.868 1363.53 255.124C1363.99 254.356 1364.22 253.456 1364.22 252.424C1364.22 251.416 1363.99 250.54 1363.53 249.796C1363.1 249.028 1362.48 248.428 1361.66 247.996C1360.87 247.564 1359.93 247.348 1358.85 247.348C1357.77 247.348 1356.84 247.564 1356.05 247.996C1355.25 248.428 1354.63 249.028 1354.17 249.796C1353.74 250.54 1353.53 251.416 1353.53 252.424C1353.53 253.456 1353.74 254.356 1354.17 255.124C1354.63 255.868 1355.25 256.444 1356.05 256.852C1356.84 257.26 1357.77 257.464 1358.85 257.464ZM1385.99 262.36C1383.88 262.36 1381.98 262.06 1380.3 261.46C1378.65 260.86 1377.32 260.008 1376.31 258.904L1379.8 255.808C1380.62 256.576 1381.59 257.164 1382.72 257.572C1383.84 257.98 1385.03 258.184 1386.28 258.184C1386.66 258.184 1387.04 258.148 1387.4 258.076C1387.78 258.004 1388.1 257.908 1388.37 257.788C1388.66 257.644 1388.88 257.476 1389.05 257.284C1389.22 257.092 1389.3 256.852 1389.3 256.564C1389.3 256.108 1389.02 255.748 1388.44 255.484C1388.03 255.34 1387.52 255.196 1386.89 255.052C1386.27 254.908 1385.56 254.752 1384.77 254.584C1383.45 254.344 1382.28 254.056 1381.28 253.72C1380.29 253.36 1379.46 252.916 1378.79 252.388C1378.22 251.884 1377.77 251.308 1377.46 250.66C1377.15 250.012 1376.99 249.256 1376.99 248.392C1376.99 247.504 1377.22 246.7 1377.68 245.98C1378.13 245.236 1378.77 244.612 1379.58 244.108C1380.4 243.58 1381.34 243.184 1382.39 242.92C1383.45 242.632 1384.55 242.488 1385.7 242.488C1386.86 242.488 1387.98 242.608 1389.09 242.848C1390.19 243.064 1391.24 243.388 1392.22 243.82C1393.2 244.228 1394.07 244.756 1394.81 245.404L1391.86 248.86C1391.33 248.452 1390.72 248.08 1390.02 247.744C1389.33 247.408 1388.58 247.144 1387.79 246.952C1387.02 246.736 1386.27 246.628 1385.52 246.628C1385.12 246.628 1384.72 246.652 1384.34 246.7C1383.98 246.748 1383.66 246.844 1383.4 246.988C1383.14 247.108 1382.92 247.264 1382.75 247.456C1382.61 247.624 1382.54 247.84 1382.54 248.104C1382.54 248.32 1382.6 248.524 1382.72 248.716C1382.84 248.908 1383.02 249.064 1383.26 249.184C1383.59 249.4 1384.08 249.592 1384.73 249.76C1385.4 249.928 1386.24 250.108 1387.25 250.3C1388.72 250.612 1389.96 250.972 1391 251.38C1392.03 251.764 1392.86 252.232 1393.48 252.784C1393.98 253.168 1394.36 253.648 1394.6 254.224C1394.84 254.776 1394.96 255.388 1394.96 256.06C1394.96 257.284 1394.56 258.376 1393.77 259.336C1393 260.272 1391.94 261.016 1390.6 261.568C1389.28 262.096 1387.74 262.36 1385.99 262.36ZM803.053 307L796.393 287.884H802.477L806.257 300.484L805.501 300.412L809.821 290.44H813.529L818.137 300.412L817.381 300.484L821.161 287.884H827.281L820.405 307H816.049L811.081 295.48L812.413 295.444L807.373 307H803.053ZM842.073 307.36C839.841 307.36 837.861 306.928 836.133 306.064C834.405 305.2 833.049 304.024 832.065 302.536C831.081 301.048 830.589 299.344 830.589 297.424C830.589 295.504 831.081 293.8 832.065 292.312C833.049 290.824 834.405 289.648 836.133 288.784C837.861 287.92 839.841 287.488 842.073 287.488C844.281 287.488 846.237 287.92 847.941 288.784C849.669 289.648 851.025 290.824 852.009 292.312C852.993 293.8 853.485 295.504 853.485 297.424C853.485 299.344 852.993 301.048 852.009 302.536C851.025 304.024 849.669 305.2 847.941 306.064C846.237 306.928 844.281 307.36 842.073 307.36ZM842.073 302.392C843.105 302.392 844.041 302.176 844.881 301.744C845.745 301.312 846.417 300.724 846.897 299.98C847.401 299.236 847.641 298.384 847.617 297.424C847.641 296.464 847.401 295.6 846.897 294.832C846.417 294.064 845.745 293.476 844.881 293.068C844.041 292.636 843.105 292.42 842.073 292.42C841.017 292.42 840.045 292.636 839.157 293.068C838.293 293.5 837.621 294.088 837.141 294.832C836.661 295.576 836.421 296.44 836.421 297.424C836.421 298.384 836.661 299.236 837.141 299.98C837.621 300.724 838.293 301.312 839.157 301.744C840.045 302.176 841.017 302.392 842.073 302.392ZM860.622 307V287.884H866.094L866.346 294.472L864.978 293.788C865.29 292.612 865.83 291.556 866.598 290.62C867.39 289.66 868.29 288.904 869.298 288.352C870.33 287.776 871.422 287.488 872.574 287.488C873.198 287.488 873.786 287.548 874.338 287.668C874.914 287.788 875.406 287.944 875.814 288.136L874.23 294.436C873.87 294.172 873.378 293.968 872.754 293.824C872.154 293.68 871.542 293.608 870.918 293.608C870.222 293.608 869.586 293.728 869.01 293.968C868.458 294.184 867.99 294.496 867.606 294.904C867.222 295.288 866.922 295.732 866.706 296.236C866.514 296.74 866.418 297.28 866.418 297.856V307H860.622ZM887.57 301.816L885.698 297.496L896.318 287.884H903.986L887.57 301.816ZM882.278 307V280.36H887.894V307H882.278ZM896.966 307L889.154 297.424L893.15 294.256L903.77 307H896.966ZM910.48 307V287.884H916.276V307H910.48ZM913.36 283.96C912.28 283.96 911.44 283.708 910.84 283.204C910.24 282.676 909.94 281.932 909.94 280.972C909.94 280.108 910.24 279.4 910.84 278.848C911.464 278.296 912.304 278.02 913.36 278.02C914.44 278.02 915.28 278.284 915.88 278.812C916.48 279.316 916.78 280.036 916.78 280.972C916.78 281.86 916.468 282.58 915.844 283.132C915.244 283.684 914.416 283.96 913.36 283.96ZM925.591 307V287.884H931.063L931.243 292.348L929.875 292.744C930.187 291.808 930.715 290.944 931.459 290.152C932.227 289.36 933.151 288.724 934.231 288.244C935.335 287.74 936.523 287.488 937.795 287.488C939.427 287.488 940.807 287.812 941.935 288.46C943.063 289.108 943.915 290.032 944.491 291.232C945.067 292.408 945.355 293.812 945.355 295.444V307H939.559V296.272C939.559 295.432 939.403 294.724 939.091 294.148C938.803 293.572 938.359 293.128 937.759 292.816C937.183 292.504 936.511 292.348 935.743 292.348C935.071 292.348 934.459 292.468 933.907 292.708C933.379 292.924 932.923 293.224 932.539 293.608C932.155 293.968 931.855 294.376 931.639 294.832C931.447 295.288 931.351 295.756 931.351 296.236V307H928.507C927.715 307 927.079 307 926.599 307C926.119 307 925.783 307 925.591 307ZM963.785 315.28C961.889 315.28 960.125 315.04 958.493 314.56C956.885 314.104 955.565 313.528 954.533 312.832L956.513 308.728C957.041 309.016 957.629 309.292 958.277 309.556C958.949 309.82 959.681 310.036 960.473 310.204C961.265 310.396 962.129 310.492 963.065 310.492C964.289 310.492 965.321 310.288 966.161 309.88C967.025 309.472 967.673 308.848 968.105 308.008C968.561 307.192 968.789 306.184 968.789 304.984V302.356L969.905 302.536C969.713 303.304 969.233 304.012 968.465 304.66C967.697 305.308 966.737 305.836 965.585 306.244C964.433 306.652 963.209 306.856 961.913 306.856C960.017 306.856 958.349 306.46 956.909 305.668C955.469 304.852 954.329 303.736 953.489 302.32C952.673 300.88 952.265 299.224 952.265 297.352C952.265 295.432 952.685 293.74 953.525 292.276C954.365 290.788 955.517 289.624 956.981 288.784C958.445 287.92 960.137 287.488 962.057 287.488C962.705 287.488 963.377 287.572 964.073 287.74C964.793 287.884 965.489 288.088 966.161 288.352C966.857 288.592 967.481 288.904 968.033 289.288C968.609 289.648 969.077 290.056 969.437 290.512C969.821 290.944 970.037 291.412 970.085 291.916L968.897 292.204L969.149 287.884H974.585V304.876C974.585 306.58 974.309 308.068 973.757 309.34C973.229 310.636 972.485 311.728 971.525 312.616C970.565 313.504 969.413 314.164 968.069 314.596C966.749 315.052 965.321 315.28 963.785 315.28ZM963.569 302.392C964.649 302.392 965.597 302.188 966.413 301.78C967.229 301.348 967.853 300.76 968.285 300.016C968.741 299.272 968.969 298.396 968.969 297.388C968.969 296.38 968.741 295.504 968.285 294.76C967.853 293.992 967.229 293.404 966.413 292.996C965.597 292.564 964.649 292.348 963.569 292.348C962.441 292.348 961.457 292.564 960.617 292.996C959.777 293.404 959.129 293.992 958.673 294.76C958.217 295.504 957.989 296.38 957.989 297.388C957.989 298.396 958.217 299.272 958.673 300.016C959.129 300.76 959.777 301.348 960.617 301.78C961.457 302.188 962.441 302.392 963.569 302.392ZM1001.58 307L994.92 287.884H1001L1004.78 300.484L1004.03 300.412L1008.35 290.44H1012.06L1016.66 300.412L1015.91 300.484L1019.69 287.884H1025.81L1018.93 307H1014.58L1009.61 295.48L1010.94 295.444L1005.9 307H1001.58ZM1031.84 307V287.884H1037.64V307H1031.84ZM1034.72 283.96C1033.64 283.96 1032.8 283.708 1032.2 283.204C1031.6 282.676 1031.3 281.932 1031.3 280.972C1031.3 280.108 1031.6 279.4 1032.2 278.848C1032.82 278.296 1033.66 278.02 1034.72 278.02C1035.8 278.02 1036.64 278.284 1037.24 278.812C1037.84 279.316 1038.14 280.036 1038.14 280.972C1038.14 281.86 1037.83 282.58 1037.2 283.132C1036.6 283.684 1035.78 283.96 1034.72 283.96ZM1048.82 307V282.628H1054.58V307H1048.82ZM1044.57 292.924V287.884H1059.44V292.924H1044.57ZM1066.53 307V280.36H1072.18V292.348L1070.82 292.816C1071.06 291.856 1071.56 290.98 1072.33 290.188C1073.12 289.372 1074.08 288.724 1075.21 288.244C1076.34 287.74 1077.54 287.488 1078.81 287.488C1080.44 287.488 1081.81 287.824 1082.91 288.496C1084.04 289.144 1084.88 290.068 1085.43 291.268C1086.01 292.444 1086.3 293.824 1086.3 295.408V307H1080.5V296.308C1080.5 295.444 1080.34 294.724 1080.03 294.148C1079.74 293.548 1079.3 293.092 1078.7 292.78C1078.12 292.468 1077.45 292.324 1076.68 292.348C1076.06 292.348 1075.47 292.456 1074.92 292.672C1074.39 292.864 1073.92 293.152 1073.52 293.536C1073.13 293.896 1072.83 294.316 1072.62 294.796C1072.4 295.276 1072.29 295.792 1072.29 296.344V307H1069.45C1068.66 307 1068.02 307 1067.54 307C1067.06 307 1066.72 307 1066.53 307ZM1116.94 307.324C1115.05 307.324 1113.39 306.904 1111.97 306.064C1110.56 305.224 1109.44 304.06 1108.63 302.572C1107.83 301.06 1107.44 299.344 1107.44 297.424C1107.44 295.48 1107.85 293.764 1108.66 292.276C1109.48 290.788 1110.61 289.624 1112.05 288.784C1113.51 287.92 1115.19 287.488 1117.09 287.488C1118.17 287.488 1119.16 287.632 1120.07 287.92C1120.99 288.184 1121.78 288.556 1122.45 289.036C1123.15 289.516 1123.71 290.044 1124.14 290.62C1124.6 291.196 1124.9 291.796 1125.04 292.42H1123.78V287.884H1129.47V307H1123.67V302.104L1124.9 302.284C1124.75 302.908 1124.45 303.52 1124 304.12C1123.54 304.72 1122.95 305.26 1122.23 305.74C1121.51 306.22 1120.7 306.604 1119.79 306.892C1118.9 307.18 1117.95 307.324 1116.94 307.324ZM1118.49 302.464C1119.57 302.464 1120.51 302.26 1121.3 301.852C1122.11 301.444 1122.74 300.868 1123.17 300.124C1123.63 299.356 1123.85 298.456 1123.85 297.424C1123.85 296.416 1123.63 295.54 1123.17 294.796C1122.74 294.028 1122.11 293.428 1121.3 292.996C1120.51 292.564 1119.57 292.348 1118.49 292.348C1117.41 292.348 1116.47 292.564 1115.68 292.996C1114.89 293.428 1114.27 294.028 1113.81 294.796C1113.38 295.54 1113.16 296.416 1113.16 297.424C1113.16 298.456 1113.38 299.356 1113.81 300.124C1114.27 300.868 1114.89 301.444 1115.68 301.852C1116.47 302.26 1117.41 302.464 1118.49 302.464ZM1160.11 307.396C1158.24 307.396 1156.6 306.976 1155.18 306.136C1153.76 305.272 1152.66 304.096 1151.87 302.608C1151.08 301.096 1150.68 299.38 1150.68 297.46C1150.68 295.54 1151.09 293.836 1151.9 292.348C1152.72 290.836 1153.85 289.648 1155.29 288.784C1156.75 287.92 1158.43 287.488 1160.33 287.488C1161.38 287.488 1162.37 287.632 1163.28 287.92C1164.19 288.184 1165.01 288.544 1165.73 289C1166.47 289.456 1167.06 289.984 1167.49 290.584C1167.95 291.16 1168.21 291.748 1168.28 292.348L1166.92 292.672V280.36H1172.71V307H1167.35L1167.02 302.356L1168.18 302.644C1168.1 303.244 1167.84 303.832 1167.38 304.408C1166.93 304.96 1166.33 305.464 1165.58 305.92C1164.86 306.352 1164.04 306.712 1163.1 307C1162.16 307.264 1161.17 307.396 1160.11 307.396ZM1161.73 302.536C1162.81 302.536 1163.75 302.32 1164.54 301.888C1165.36 301.456 1165.98 300.868 1166.41 300.124C1166.84 299.356 1167.06 298.468 1167.06 297.46C1167.06 296.428 1166.84 295.54 1166.41 294.796C1165.98 294.028 1165.36 293.44 1164.54 293.032C1163.75 292.6 1162.81 292.384 1161.73 292.384C1160.65 292.384 1159.72 292.6 1158.92 293.032C1158.13 293.44 1157.51 294.028 1157.05 294.796C1156.62 295.54 1156.4 296.428 1156.4 297.46C1156.4 298.468 1156.62 299.356 1157.05 300.124C1157.51 300.868 1158.13 301.456 1158.92 301.888C1159.72 302.32 1160.65 302.536 1161.73 302.536ZM1181.14 307V287.884H1186.61L1186.87 294.472L1185.5 293.788C1185.81 292.612 1186.35 291.556 1187.12 290.62C1187.91 289.66 1188.81 288.904 1189.82 288.352C1190.85 287.776 1191.94 287.488 1193.09 287.488C1193.72 287.488 1194.31 287.548 1194.86 287.668C1195.43 287.788 1195.93 287.944 1196.33 288.136L1194.75 294.436C1194.39 294.172 1193.9 293.968 1193.27 293.824C1192.67 293.68 1192.06 293.608 1191.44 293.608C1190.74 293.608 1190.11 293.728 1189.53 293.968C1188.98 294.184 1188.51 294.496 1188.13 294.904C1187.74 295.288 1187.44 295.732 1187.23 296.236C1187.03 296.74 1186.94 297.28 1186.94 297.856V307H1181.14ZM1209.93 307.396C1208.39 307.396 1207.06 307.06 1205.93 306.388C1204.83 305.716 1203.97 304.744 1203.37 303.472C1202.77 302.176 1202.47 300.628 1202.47 298.828V287.884H1208.23V297.892C1208.23 298.876 1208.37 299.704 1208.63 300.376C1208.92 301.048 1209.36 301.564 1209.96 301.924C1210.56 302.26 1211.29 302.428 1212.16 302.428C1212.78 302.428 1213.36 302.332 1213.89 302.14C1214.41 301.924 1214.88 301.636 1215.29 301.276C1215.7 300.892 1216.01 300.46 1216.23 299.98C1216.47 299.476 1216.59 298.912 1216.59 298.288V287.884H1222.35V307H1216.95L1216.69 303.076L1217.74 302.644C1217.47 303.484 1216.97 304.264 1216.23 304.984C1215.48 305.704 1214.57 306.292 1213.49 306.748C1212.43 307.18 1211.25 307.396 1209.93 307.396ZM1231.31 307V287.884H1236.78L1236.96 292.348L1235.59 292.744C1235.91 291.808 1236.43 290.944 1237.18 290.152C1237.95 289.36 1238.87 288.724 1239.95 288.244C1241.05 287.74 1242.24 287.488 1243.51 287.488C1245.15 287.488 1246.53 287.812 1247.65 288.46C1248.78 289.108 1249.63 290.032 1250.21 291.232C1250.79 292.408 1251.07 293.812 1251.07 295.444V307H1245.28V296.272C1245.28 295.432 1245.12 294.724 1244.81 294.148C1244.52 293.572 1244.08 293.128 1243.48 292.816C1242.9 292.504 1242.23 292.348 1241.46 292.348C1240.79 292.348 1240.18 292.468 1239.63 292.708C1239.1 292.924 1238.64 293.224 1238.26 293.608C1237.87 293.968 1237.57 294.376 1237.36 294.832C1237.17 295.288 1237.07 295.756 1237.07 296.236V307H1234.23C1233.43 307 1232.8 307 1232.32 307C1231.84 307 1231.5 307 1231.31 307ZM1265.18 301.816L1263.31 297.496L1273.93 287.884H1281.6L1265.18 301.816ZM1259.89 307V280.36H1265.51V307H1259.89ZM1274.58 307L1266.77 297.424L1270.76 294.256L1281.38 307H1274.58ZM1302.15 307V287.884H1307.62L1307.8 291.916L1306.75 291.664C1307.07 291.088 1307.47 290.548 1307.98 290.044C1308.51 289.54 1309.09 289.108 1309.74 288.748C1310.41 288.364 1311.13 288.064 1311.9 287.848C1312.67 287.632 1313.5 287.524 1314.39 287.524C1315.42 287.524 1316.37 287.68 1317.23 287.992C1318.12 288.304 1318.87 288.82 1319.5 289.54C1320.12 290.236 1320.6 291.172 1320.94 292.348L1319.75 292.204L1320.04 291.628C1320.42 291.076 1320.88 290.56 1321.41 290.08C1321.96 289.576 1322.58 289.144 1323.28 288.784C1323.97 288.4 1324.72 288.1 1325.51 287.884C1326.3 287.644 1327.12 287.524 1327.96 287.524C1329.71 287.524 1331.14 287.86 1332.24 288.532C1333.35 289.18 1334.16 290.104 1334.69 291.304C1335.22 292.504 1335.48 293.896 1335.48 295.48V307H1329.69V296.092C1329.69 295.324 1329.57 294.664 1329.33 294.112C1329.09 293.56 1328.71 293.14 1328.21 292.852C1327.73 292.54 1327.11 292.384 1326.34 292.384C1325.67 292.384 1325.04 292.492 1324.47 292.708C1323.91 292.924 1323.42 293.224 1322.99 293.608C1322.58 293.968 1322.26 294.4 1322.02 294.904C1321.8 295.384 1321.69 295.912 1321.69 296.488V307H1315.9V296.056C1315.9 295.312 1315.77 294.664 1315.5 294.112C1315.24 293.56 1314.83 293.14 1314.28 292.852C1313.73 292.54 1313.04 292.384 1312.23 292.384C1311.58 292.384 1310.99 292.504 1310.46 292.744C1309.96 292.96 1309.51 293.26 1309.13 293.644C1308.75 294.004 1308.45 294.4 1308.23 294.832C1308.04 295.264 1307.94 295.708 1307.94 296.164V307H1302.15ZM1351.54 307.324C1349.64 307.324 1347.99 306.904 1346.57 306.064C1345.16 305.224 1344.04 304.06 1343.22 302.572C1342.43 301.06 1342.04 299.344 1342.04 297.424C1342.04 295.48 1342.44 293.764 1343.26 292.276C1344.08 290.788 1345.2 289.624 1346.64 288.784C1348.11 287.92 1349.79 287.488 1351.68 287.488C1352.76 287.488 1353.76 287.632 1354.67 287.92C1355.58 288.184 1356.38 288.556 1357.05 289.036C1357.74 289.516 1358.31 290.044 1358.74 290.62C1359.2 291.196 1359.5 291.796 1359.64 292.42H1358.38V287.884H1364.07V307H1358.27V302.104L1359.5 302.284C1359.35 302.908 1359.05 303.52 1358.6 304.12C1358.14 304.72 1357.55 305.26 1356.83 305.74C1356.11 306.22 1355.3 306.604 1354.38 306.892C1353.5 307.18 1352.55 307.324 1351.54 307.324ZM1353.09 302.464C1354.17 302.464 1355.1 302.26 1355.9 301.852C1356.71 301.444 1357.34 300.868 1357.77 300.124C1358.22 299.356 1358.45 298.456 1358.45 297.424C1358.45 296.416 1358.22 295.54 1357.77 294.796C1357.34 294.028 1356.71 293.428 1355.9 292.996C1355.1 292.564 1354.17 292.348 1353.09 292.348C1352.01 292.348 1351.07 292.564 1350.28 292.996C1349.49 293.428 1348.86 294.028 1348.41 294.796C1347.98 295.54 1347.76 296.416 1347.76 297.424C1347.76 298.456 1347.98 299.356 1348.41 300.124C1348.86 300.868 1349.49 301.444 1350.28 301.852C1351.07 302.26 1352.01 302.464 1353.09 302.464ZM1372.95 307V287.884H1378.43L1378.61 292.348L1377.24 292.744C1377.55 291.808 1378.08 290.944 1378.82 290.152C1379.59 289.36 1380.51 288.724 1381.59 288.244C1382.7 287.74 1383.89 287.488 1385.16 287.488C1386.79 287.488 1388.17 287.812 1389.3 288.46C1390.43 289.108 1391.28 290.032 1391.85 291.232C1392.43 292.408 1392.72 293.812 1392.72 295.444V307H1386.92V296.272C1386.92 295.432 1386.77 294.724 1386.45 294.148C1386.17 293.572 1385.72 293.128 1385.12 292.816C1384.55 292.504 1383.87 292.348 1383.11 292.348C1382.43 292.348 1381.82 292.468 1381.27 292.708C1380.74 292.924 1380.29 293.224 1379.9 293.608C1379.52 293.968 1379.22 294.376 1379 294.832C1378.81 295.288 1378.71 295.756 1378.71 296.236V307H1375.87C1375.08 307 1374.44 307 1373.96 307C1373.48 307 1373.15 307 1372.95 307Z" fill="white"/>
<g id="next">
<g id="Next">
<path id="Next_2" d="M1113.81 914V869.2H1123.79L1150.86 901.2L1149.01 900.88C1148.75 899.387 1148.56 897.957 1148.43 896.592C1148.3 895.227 1148.18 893.904 1148.05 892.624C1147.96 891.344 1147.88 890.064 1147.79 888.784C1147.75 887.504 1147.73 886.16 1147.73 884.752C1147.73 883.344 1147.73 881.851 1147.73 880.272V869.2H1158.29V914H1148.18L1120.08 880.976L1123.09 881.424C1123.22 882.917 1123.34 884.261 1123.47 885.456C1123.64 886.651 1123.77 887.781 1123.86 888.848C1123.98 889.872 1124.07 890.917 1124.11 891.984C1124.2 893.008 1124.26 894.096 1124.3 895.248C1124.35 896.4 1124.37 897.659 1124.37 899.024V914H1113.81ZM1190.89 914.64C1186.76 914.64 1183.13 913.893 1180.01 912.4C1176.94 910.864 1174.55 908.795 1172.85 906.192C1171.14 903.547 1170.29 900.539 1170.29 897.168C1170.29 894.48 1170.78 892.048 1171.76 889.872C1172.74 887.696 1174.11 885.819 1175.85 884.24C1177.6 882.661 1179.65 881.445 1182 880.592C1184.35 879.739 1186.88 879.312 1189.61 879.312C1192.26 879.312 1194.69 879.739 1196.91 880.592C1199.13 881.403 1201.05 882.576 1202.67 884.112C1204.33 885.648 1205.61 887.461 1206.51 889.552C1207.41 891.643 1207.81 893.947 1207.73 896.464L1207.66 899.344H1177.01L1175.53 893.392H1199.34L1198.25 894.672V893.392C1198.13 892.325 1197.66 891.365 1196.85 890.512C1196.08 889.659 1195.08 888.997 1193.84 888.528C1192.6 888.016 1191.24 887.76 1189.74 887.76C1187.82 887.76 1186.12 888.08 1184.62 888.72C1183.13 889.317 1181.96 890.256 1181.1 891.536C1180.29 892.816 1179.89 894.437 1179.89 896.4C1179.89 898.277 1180.38 899.92 1181.36 901.328C1182.38 902.736 1183.81 903.845 1185.65 904.656C1187.52 905.467 1189.72 905.872 1192.24 905.872C1194.41 905.872 1196.23 905.616 1197.68 905.104C1199.17 904.549 1200.52 903.867 1201.71 903.056L1206.32 909.712C1204.91 910.779 1203.35 911.696 1201.65 912.464C1199.98 913.189 1198.23 913.723 1196.4 914.064C1194.61 914.448 1192.77 914.64 1190.89 914.64ZM1244.57 914L1235.16 901.776L1232.54 898.32L1217.63 880.016H1230.56L1239 891.216L1241.82 894.928L1257.37 914H1244.57ZM1216.8 914L1232.03 894.8L1238.24 901.136L1229.53 914H1216.8ZM1241.76 899.216L1235.74 892.816L1244.32 880.016H1256.99L1241.76 899.216ZM1273.39 914V870.672H1283.63V914H1273.39ZM1265.84 888.976V880.016H1292.27V888.976H1265.84Z" fill="white"/>
</g>
<path id="Arrow 1" d="M1107 918.5C1102.31 918.5 1098.5 922.306 1098.5 927C1098.5 931.694 1102.31 935.5 1107 935.5V927V918.5ZM1384 927L1299 877.925V976.075L1384 927ZM1107 927V935.5H1307.5V927V918.5H1107V927Z" fill="#EF1044"/>
</g>
</g>
<defs>
<filter id="filter0_d_110_830" x="137" y="391" width="108" height="176" filterUnits="userSpaceOnUse" color-interpolation-filters="sRGB">
<feFlood flood-opacity="0" result="BackgroundImageFix"/>
<feColorMatrix in="SourceAlpha" type="matrix" values="0 0 0 0 0 0 0 0 0 0 0 0 0 0 0 0 0 0 127 0" result="hardAlpha"/>
<feOffset dy="4"/>
<feGaussianBlur stdDeviation="2"/>
<feComposite in2="hardAlpha" operator="out"/>
<feColorMatrix type="matrix" values="0 0 0 0 0 0 0 0 0 0 0 0 0 0 0 0 0 0 0.25 0"/>
<feBlend mode="normal" in2="BackgroundImageFix" result="effect1_dropShadow_110_830"/>
<feBlend mode="normal" in="SourceGraphic" in2="effect1_dropShadow_110_830" result="shape"/>
</filter>
<filter id="filter1_d_110_830" x="371" y="391" width="109" height="176" filterUnits="userSpaceOnUse" color-interpolation-filters="sRGB">
<feFlood flood-opacity="0" result="BackgroundImageFix"/>
<feColorMatrix in="SourceAlpha" type="matrix" values="0 0 0 0 0 0 0 0 0 0 0 0 0 0 0 0 0 0 127 0" result="hardAlpha"/>
<feOffset dy="4"/>
<feGaussianBlur stdDeviation="2"/>
<feComposite in2="hardAlpha" operator="out"/>
<feColorMatrix type="matrix" values="0 0 0 0 0 0 0 0 0 0 0 0 0 0 0 0 0 0 0.25 0"/>
<feBlend mode="normal" in2="BackgroundImageFix" result="effect1_dropShadow_110_830"/>
<feBlend mode="normal" in="SourceGraphic" in2="effect1_dropShadow_110_830" result="shape"/>
</filter>
<filter id="filter2_d_110_830" x="254" y="391" width="109" height="176" filterUnits="userSpaceOnUse" color-interpolation-filters="sRGB">
<feFlood flood-opacity="0" result="BackgroundImageFix"/>
<feColorMatrix in="SourceAlpha" type="matrix" values="0 0 0 0 0 0 0 0 0 0 0 0 0 0 0 0 0 0 127 0" result="hardAlpha"/>
<feOffset dy="4"/>
<feGaussianBlur stdDeviation="2"/>
<feComposite in2="hardAlpha" operator="out"/>
<feColorMatrix type="matrix" values="0 0 0 0 0 0 0 0 0 0 0 0 0 0 0 0 0 0 0.25 0"/>
<feBlend mode="normal" in2="BackgroundImageFix" result="effect1_dropShadow_110_830"/>
<feBlend mode="normal" in="SourceGraphic" in2="effect1_dropShadow_110_830" result="shape"/>
</filter>
<filter id="filter3_d_110_830" x="489" y="391" width="108" height="176" filterUnits="userSpaceOnUse" color-interpolation-filters="sRGB">
<feFlood flood-opacity="0" result="BackgroundImageFix"/>
<feColorMatrix in="SourceAlpha" type="matrix" values="0 0 0 0 0 0 0 0 0 0 0 0 0 0 0 0 0 0 127 0" result="hardAlpha"/>
<feOffset dy="4"/>
<feGaussianBlur stdDeviation="2"/>
<feComposite in2="hardAlpha" operator="out"/>
<feColorMatrix type="matrix" values="0 0 0 0 0 0 0 0 0 0 0 0 0 0 0 0 0 0 0.25 0"/>
<feBlend mode="normal" in2="BackgroundImageFix" result="effect1_dropShadow_110_830"/>
<feBlend mode="normal" in="SourceGraphic" in2="effect1_dropShadow_110_830" result="shape"/>
</filter>
<filter id="filter4_d_110_830" x="31" y="414" width="126" height="206" filterUnits="userSpaceOnUse" color-interpolation-filters="sRGB">
<feFlood flood-opacity="0" result="BackgroundImageFix"/>
<feColorMatrix in="SourceAlpha" type="matrix" values="0 0 0 0 0 0 0 0 0 0 0 0 0 0 0 0 0 0 127 0" result="hardAlpha"/>
<feOffset dy="4"/>
<feGaussianBlur stdDeviation="2"/>
<feComposite in2="hardAlpha" operator="out"/>
<feColorMatrix type="matrix" values="0 0 0 0 0 0 0 0 0 0 0 0 0 0 0 0 0 0 0.25 0"/>
<feBlend mode="normal" in2="BackgroundImageFix" result="effect1_dropShadow_110_830"/>
<feBlend mode="normal" in="SourceGraphic" in2="effect1_dropShadow_110_830" result="shape"/>
</filter>
<filter id="filter5_d_110_830" x="307" y="414" width="126" height="206" filterUnits="userSpaceOnUse" color-interpolation-filters="sRGB">
<feFlood flood-opacity="0" result="BackgroundImageFix"/>
<feColorMatrix in="SourceAlpha" type="matrix" values="0 0 0 0 0 0 0 0 0 0 0 0 0 0 0 0 0 0 127 0" result="hardAlpha"/>
<feOffset dy="4"/>
<feGaussianBlur stdDeviation="2"/>
<feComposite in2="hardAlpha" operator="out"/>
<feColorMatrix type="matrix" values="0 0 0 0 0 0 0 0 0 0 0 0 0 0 0 0 0 0 0.25 0"/>
<feBlend mode="normal" in2="BackgroundImageFix" result="effect1_dropShadow_110_830"/>
<feBlend mode="normal" in="SourceGraphic" in2="effect1_dropShadow_110_830" result="shape"/>
</filter>
<filter id="filter6_d_110_830" x="169" y="414" width="126" height="206" filterUnits="userSpaceOnUse" color-interpolation-filters="sRGB">
<feFlood flood-opacity="0" result="BackgroundImageFix"/>
<feColorMatrix in="SourceAlpha" type="matrix" values="0 0 0 0 0 0 0 0 0 0 0 0 0 0 0 0 0 0 127 0" result="hardAlpha"/>
<feOffset dy="4"/>
<feGaussianBlur stdDeviation="2"/>
<feComposite in2="hardAlpha" operator="out"/>
<feColorMatrix type="matrix" values="0 0 0 0 0 0 0 0 0 0 0 0 0 0 0 0 0 0 0.25 0"/>
<feBlend mode="normal" in2="BackgroundImageFix" result="effect1_dropShadow_110_830"/>
<feBlend mode="normal" in="SourceGraphic" in2="effect1_dropShadow_110_830" result="shape"/>
</filter>
<filter id="filter7_d_110_830" x="227" y="460" width="126" height="206" filterUnits="userSpaceOnUse" color-interpolation-filters="sRGB">
<feFlood flood-opacity="0" result="BackgroundImageFix"/>
<feColorMatrix in="SourceAlpha" type="matrix" values="0 0 0 0 0 0 0 0 0 0 0 0 0 0 0 0 0 0 127 0" result="hardAlpha"/>
<feOffset dy="4"/>
<feGaussianBlur stdDeviation="2"/>
<feComposite in2="hardAlpha" operator="out"/>
<feColorMatrix type="matrix" values="0 0 0 0 0 0 0 0 0 0 0 0 0 0 0 0 0 0 0.25 0"/>
<feBlend mode="normal" in2="BackgroundImageFix" result="effect1_dropShadow_110_830"/>
<feBlend mode="normal" in="SourceGraphic" in2="effect1_dropShadow_110_830" result="shape"/>
</filter>
<filter id="filter8_d_110_830" x="445" y="414" width="126" height="206" filterUnits="userSpaceOnUse" color-interpolation-filters="sRGB">
<feFlood flood-opacity="0" result="BackgroundImageFix"/>
<feColorMatrix in="SourceAlpha" type="matrix" values="0 0 0 0 0 0 0 0 0 0 0 0 0 0 0 0 0 0 127 0" result="hardAlpha"/>
<feOffset dy="4"/>
<feGaussianBlur stdDeviation="2"/>
<feComposite in2="hardAlpha" operator="out"/>
<feColorMatrix type="matrix" values="0 0 0 0 0 0 0 0 0 0 0 0 0 0 0 0 0 0 0.25 0"/>
<feBlend mode="normal" in2="BackgroundImageFix" result="effect1_dropShadow_110_830"/>
<feBlend mode="normal" in="SourceGraphic" in2="effect1_dropShadow_110_830" result="shape"/>
</filter>
<filter id="filter9_d_110_830" x="89" y="460" width="126" height="206" filterUnits="userSpaceOnUse" color-interpolation-filters="sRGB">
<feFlood flood-opacity="0" result="BackgroundImageFix"/>
<feColorMatrix in="SourceAlpha" type="matrix" values="0 0 0 0 0 0 0 0 0 0 0 0 0 0 0 0 0 0 127 0" result="hardAlpha"/>
<feOffset dy="4"/>
<feGaussianBlur stdDeviation="2"/>
<feComposite in2="hardAlpha" operator="out"/>
<feColorMatrix type="matrix" values="0 0 0 0 0 0 0 0 0 0 0 0 0 0 0 0 0 0 0.25 0"/>
<feBlend mode="normal" in2="BackgroundImageFix" result="effect1_dropShadow_110_830"/>
<feBlend mode="normal" in="SourceGraphic" in2="effect1_dropShadow_110_830" result="shape"/>
</filter>
<filter id="filter10_d_110_830" x="365" y="460" width="126" height="206" filterUnits="userSpaceOnUse" color-interpolation-filters="sRGB">
<feFlood flood-opacity="0" result="BackgroundImageFix"/>
<feColorMatrix in="SourceAlpha" type="matrix" values="0 0 0 0 0 0 0 0 0 0 0 0 0 0 0 0 0 0 127 0" result="hardAlpha"/>
<feOffset dy="4"/>
<feGaussianBlur stdDeviation="2"/>
<feComposite in2="hardAlpha" operator="out"/>
<feColorMatrix type="matrix" values="0 0 0 0 0 0 0 0 0 0 0 0 0 0 0 0 0 0 0.25 0"/>
<feBlend mode="normal" in2="BackgroundImageFix" result="effect1_dropShadow_110_830"/>
<feBlend mode="normal" in="SourceGraphic" in2="effect1_dropShadow_110_830" result="shape"/>
</filter>
<filter id="filter11_d_110_830" x="503" y="460" width="126" height="206" filterUnits="userSpaceOnUse" color-interpolation-filters="sRGB">
<feFlood flood-opacity="0" result="BackgroundImageFix"/>
<feColorMatrix in="SourceAlpha" type="matrix" values="0 0 0 0 0 0 0 0 0 0 0 0 0 0 0 0 0 0 127 0" result="hardAlpha"/>
<feOffset dy="4"/>
<feGaussianBlur stdDeviation="2"/>
<feComposite in2="hardAlpha" operator="out"/>
<feColorMatrix type="matrix" values="0 0 0 0 0 0 0 0 0 0 0 0 0 0 0 0 0 0 0.25 0"/>
<feBlend mode="normal" in2="BackgroundImageFix" result="effect1_dropShadow_110_830"/>
<feBlend mode="normal" in="SourceGraphic" in2="effect1_dropShadow_110_830" result="shape"/>
</filter>
<filter id="filter12_d_110_830" x="858" y="391" width="108" height="176" filterUnits="userSpaceOnUse" color-interpolation-filters="sRGB">
<feFlood flood-opacity="0" result="BackgroundImageFix"/>
<feColorMatrix in="SourceAlpha" type="matrix" values="0 0 0 0 0 0 0 0 0 0 0 0 0 0 0 0 0 0 127 0" result="hardAlpha"/>
<feOffset dy="4"/>
<feGaussianBlur stdDeviation="2"/>
<feComposite in2="hardAlpha" operator="out"/>
<feColorMatrix type="matrix" values="0 0 0 0 0 0 0 0 0 0 0 0 0 0 0 0 0 0 0.25 0"/>
<feBlend mode="normal" in2="BackgroundImageFix" result="effect1_dropShadow_110_830"/>
<feBlend mode="normal" in="SourceGraphic" in2="effect1_dropShadow_110_830" result="shape"/>
</filter>
<filter id="filter13_d_110_830" x="1092" y="391" width="109" height="176" filterUnits="userSpaceOnUse" color-interpolation-filters="sRGB">
<feFlood flood-opacity="0" result="BackgroundImageFix"/>
<feColorMatrix in="SourceAlpha" type="matrix" values="0 0 0 0 0 0 0 0 0 0 0 0 0 0 0 0 0 0 127 0" result="hardAlpha"/>
<feOffset dy="4"/>
<feGaussianBlur stdDeviation="2"/>
<feComposite in2="hardAlpha" operator="out"/>
<feColorMatrix type="matrix" values="0 0 0 0 0 0 0 0 0 0 0 0 0 0 0 0 0 0 0.25 0"/>
<feBlend mode="normal" in2="BackgroundImageFix" result="effect1_dropShadow_110_830"/>
<feBlend mode="normal" in="SourceGraphic" in2="effect1_dropShadow_110_830" result="shape"/>
</filter>
<filter id="filter14_d_110_830" x="975" y="391" width="109" height="176" filterUnits="userSpaceOnUse" color-interpolation-filters="sRGB">
<feFlood flood-opacity="0" result="BackgroundImageFix"/>
<feColorMatrix in="SourceAlpha" type="matrix" values="0 0 0 0 0 0 0 0 0 0 0 0 0 0 0 0 0 0 127 0" result="hardAlpha"/>
<feOffset dy="4"/>
<feGaussianBlur stdDeviation="2"/>
<feComposite in2="hardAlpha" operator="out"/>
<feColorMatrix type="matrix" values="0 0 0 0 0 0 0 0 0 0 0 0 0 0 0 0 0 0 0.25 0"/>
<feBlend mode="normal" in2="BackgroundImageFix" result="effect1_dropShadow_110_830"/>
<feBlend mode="normal" in="SourceGraphic" in2="effect1_dropShadow_110_830" result="shape"/>
</filter>
<filter id="filter15_d_110_830" x="1210" y="391" width="108" height="176" filterUnits="userSpaceOnUse" color-interpolation-filters="sRGB">
<feFlood flood-opacity="0" result="BackgroundImageFix"/>
<feColorMatrix in="SourceAlpha" type="matrix" values="0 0 0 0 0 0 0 0 0 0 0 0 0 0 0 0 0 0 127 0" result="hardAlpha"/>
<feOffset dy="4"/>
<feGaussianBlur stdDeviation="2"/>
<feComposite in2="hardAlpha" operator="out"/>
<feColorMatrix type="matrix" values="0 0 0 0 0 0 0 0 0 0 0 0 0 0 0 0 0 0 0.25 0"/>
<feBlend mode="normal" in2="BackgroundImageFix" result="effect1_dropShadow_110_830"/>
<feBlend mode="normal" in="SourceGraphic" in2="effect1_dropShadow_110_830" result="shape"/>
</filter>
<filter id="filter16_d_110_830" x="752" y="414" width="126" height="206" filterUnits="userSpaceOnUse" color-interpolation-filters="sRGB">
<feFlood flood-opacity="0" result="BackgroundImageFix"/>
<feColorMatrix in="SourceAlpha" type="matrix" values="0 0 0 0 0 0 0 0 0 0 0 0 0 0 0 0 0 0 127 0" result="hardAlpha"/>
<feOffset dy="4"/>
<feGaussianBlur stdDeviation="2"/>
<feComposite in2="hardAlpha" operator="out"/>
<feColorMatrix type="matrix" values="0 0 0 0 0 0 0 0 0 0 0 0 0 0 0 0 0 0 0.25 0"/>
<feBlend mode="normal" in2="BackgroundImageFix" result="effect1_dropShadow_110_830"/>
<feBlend mode="normal" in="SourceGraphic" in2="effect1_dropShadow_110_830" result="shape"/>
</filter>
<filter id="filter17_d_110_830" x="1028" y="414" width="126" height="206" filterUnits="userSpaceOnUse" color-interpolation-filters="sRGB">
<feFlood flood-opacity="0" result="BackgroundImageFix"/>
<feColorMatrix in="SourceAlpha" type="matrix" values="0 0 0 0 0 0 0 0 0 0 0 0 0 0 0 0 0 0 127 0" result="hardAlpha"/>
<feOffset dy="4"/>
<feGaussianBlur stdDeviation="2"/>
<feComposite in2="hardAlpha" operator="out"/>
<feColorMatrix type="matrix" values="0 0 0 0 0 0 0 0 0 0 0 0 0 0 0 0 0 0 0.25 0"/>
<feBlend mode="normal" in2="BackgroundImageFix" result="effect1_dropShadow_110_830"/>
<feBlend mode="normal" in="SourceGraphic" in2="effect1_dropShadow_110_830" result="shape"/>
</filter>
<filter id="filter18_d_110_830" x="890" y="414" width="126" height="206" filterUnits="userSpaceOnUse" color-interpolation-filters="sRGB">
<feFlood flood-opacity="0" result="BackgroundImageFix"/>
<feColorMatrix in="SourceAlpha" type="matrix" values="0 0 0 0 0 0 0 0 0 0 0 0 0 0 0 0 0 0 127 0" result="hardAlpha"/>
<feOffset dy="4"/>
<feGaussianBlur stdDeviation="2"/>
<feComposite in2="hardAlpha" operator="out"/>
<feColorMatrix type="matrix" values="0 0 0 0 0 0 0 0 0 0 0 0 0 0 0 0 0 0 0.25 0"/>
<feBlend mode="normal" in2="BackgroundImageFix" result="effect1_dropShadow_110_830"/>
<feBlend mode="normal" in="SourceGraphic" in2="effect1_dropShadow_110_830" result="shape"/>
</filter>
<filter id="filter19_d_110_830" x="948" y="460" width="126" height="206" filterUnits="userSpaceOnUse" color-interpolation-filters="sRGB">
<feFlood flood-opacity="0" result="BackgroundImageFix"/>
<feColorMatrix in="SourceAlpha" type="matrix" values="0 0 0 0 0 0 0 0 0 0 0 0 0 0 0 0 0 0 127 0" result="hardAlpha"/>
<feOffset dy="4"/>
<feGaussianBlur stdDeviation="2"/>
<feComposite in2="hardAlpha" operator="out"/>
<feColorMatrix type="matrix" values="0 0 0 0 0 0 0 0 0 0 0 0 0 0 0 0 0 0 0.25 0"/>
<feBlend mode="normal" in2="BackgroundImageFix" result="effect1_dropShadow_110_830"/>
<feBlend mode="normal" in="SourceGraphic" in2="effect1_dropShadow_110_830" result="shape"/>
</filter>
<filter id="filter20_d_110_830" x="1166" y="414" width="126" height="206" filterUnits="userSpaceOnUse" color-interpolation-filters="sRGB">
<feFlood flood-opacity="0" result="BackgroundImageFix"/>
<feColorMatrix in="SourceAlpha" type="matrix" values="0 0 0 0 0 0 0 0 0 0 0 0 0 0 0 0 0 0 127 0" result="hardAlpha"/>
<feOffset dy="4"/>
<feGaussianBlur stdDeviation="2"/>
<feComposite in2="hardAlpha" operator="out"/>
<feColorMatrix type="matrix" values="0 0 0 0 0 0 0 0 0 0 0 0 0 0 0 0 0 0 0.25 0"/>
<feBlend mode="normal" in2="BackgroundImageFix" result="effect1_dropShadow_110_830"/>
<feBlend mode="normal" in="SourceGraphic" in2="effect1_dropShadow_110_830" result="shape"/>
</filter>
<filter id="filter21_d_110_830" x="810" y="460" width="126" height="206" filterUnits="userSpaceOnUse" color-interpolation-filters="sRGB">
<feFlood flood-opacity="0" result="BackgroundImageFix"/>
<feColorMatrix in="SourceAlpha" type="matrix" values="0 0 0 0 0 0 0 0 0 0 0 0 0 0 0 0 0 0 127 0" result="hardAlpha"/>
<feOffset dy="4"/>
<feGaussianBlur stdDeviation="2"/>
<feComposite in2="hardAlpha" operator="out"/>
<feColorMatrix type="matrix" values="0 0 0 0 0 0 0 0 0 0 0 0 0 0 0 0 0 0 0.25 0"/>
<feBlend mode="normal" in2="BackgroundImageFix" result="effect1_dropShadow_110_830"/>
<feBlend mode="normal" in="SourceGraphic" in2="effect1_dropShadow_110_830" result="shape"/>
</filter>
<filter id="filter22_d_110_830" x="1086" y="460" width="126" height="206" filterUnits="userSpaceOnUse" color-interpolation-filters="sRGB">
<feFlood flood-opacity="0" result="BackgroundImageFix"/>
<feColorMatrix in="SourceAlpha" type="matrix" values="0 0 0 0 0 0 0 0 0 0 0 0 0 0 0 0 0 0 127 0" result="hardAlpha"/>
<feOffset dy="4"/>
<feGaussianBlur stdDeviation="2"/>
<feComposite in2="hardAlpha" operator="out"/>
<feColorMatrix type="matrix" values="0 0 0 0 0 0 0 0 0 0 0 0 0 0 0 0 0 0 0.25 0"/>
<feBlend mode="normal" in2="BackgroundImageFix" result="effect1_dropShadow_110_830"/>
<feBlend mode="normal" in="SourceGraphic" in2="effect1_dropShadow_110_830" result="shape"/>
</filter>
<filter id="filter23_d_110_830" x="1224" y="460" width="126" height="206" filterUnits="userSpaceOnUse" color-interpolation-filters="sRGB">
<feFlood flood-opacity="0" result="BackgroundImageFix"/>
<feColorMatrix in="SourceAlpha" type="matrix" values="0 0 0 0 0 0 0 0 0 0 0 0 0 0 0 0 0 0 127 0" result="hardAlpha"/>
<feOffset dy="4"/>
<feGaussianBlur stdDeviation="2"/>
<feComposite in2="hardAlpha" operator="out"/>
<feColorMatrix type="matrix" values="0 0 0 0 0 0 0 0 0 0 0 0 0 0 0 0 0 0 0.25 0"/>
<feBlend mode="normal" in2="BackgroundImageFix" result="effect1_dropShadow_110_830"/>
<feBlend mode="normal" in="SourceGraphic" in2="effect1_dropShadow_110_830" result="shape"/>
</filter>
<clipPath id="clip0_110_830">
<rect width="1440" height="1024" fill="white"/>
</clipPath>
</defs>
</svg>
