<svg width="1440" height="1024" viewBox="0 0 1440 1024" fill="none" xmlns="http://www.w3.org/2000/svg">
<g id="planning1-yes" clip-path="url(#clip0_110_887)">
<rect width="1440" height="1024" fill="#333148"/>
<rect id="Rectangle 18" width="115.523" height="695.859" transform="matrix(0.522133 -0.852864 0.522133 0.852864 1000.93 -9.47559)" fill="#201F2F"/>
<rect id="Rectangle 22" width="115.523" height="695.859" transform="matrix(0.522133 -0.852864 0.522133 0.852864 370.692 -9.47559)" fill="#201F2F"/>
<rect id="Rectangle 20" width="115.523" height="695.859" transform="matrix(0.522133 -0.852864 0.522133 0.852864 685.812 -9.47559)" fill="#201F2F"/>
<rect id="Rectangle 23" width="115.523" height="695.859" transform="matrix(0.522133 -0.852864 0.522133 0.852864 55.5713 -9.47559)" fill="#201F2F"/>
<rect id="Rectangle 19" width="115.523" height="695.859" transform="matrix(0.522133 0.852864 -0.522133 0.852864 1323.69 -132)" fill="#201F2F"/>
<rect id="Rectangle 24" width="115.523" height="695.859" transform="matrix(0.522133 0.852864 -0.522133 0.852864 693.451 -132)" fill="#201F2F"/>
<rect id="Rectangle 21" width="115.523" height="695.859" transform="matrix(0.522133 0.852864 -0.522133 0.852864 1008.57 -132)" fill="#201F2F"/>
<rect id="Rectangle 25" width="115.523" height="695.859" transform="matrix(0.522133 0.852864 -0.522133 0.852864 378.331 -132)" fill="#201F2F"/>
<path id="part 3" d="M47.096 132.12V60.024H61.688L62.264 71.448L59.384 70.584C59.832 68.536 61.048 66.648 63.032 64.92C65.016 63.192 67.512 61.784 70.52 60.696C73.592 59.608 76.856 59.064 80.312 59.064C85.304 59.064 89.688 60.216 93.464 62.52C97.24 64.76 100.184 67.864 102.296 71.832C104.472 75.736 105.56 80.28 105.56 85.464C105.56 90.584 104.472 95.128 102.296 99.096C100.184 103.064 97.208 106.2 93.368 108.504C89.528 110.744 85.112 111.864 80.12 111.864C76.664 111.864 73.432 111.288 70.424 110.136C67.416 108.984 64.888 107.48 62.84 105.624C60.856 103.768 59.576 101.816 59 99.768L62.552 98.424V132.12H47.096ZM76.376 98.904C79.256 98.904 81.752 98.36 83.864 97.272C85.976 96.12 87.608 94.552 88.76 92.568C89.976 90.584 90.584 88.216 90.584 85.464C90.584 82.776 89.976 80.44 88.76 78.456C87.608 76.408 85.976 74.84 83.864 73.752C81.816 72.6 79.32 72.024 76.376 72.024C73.496 72.024 70.968 72.568 68.792 73.656C66.68 74.744 65.016 76.312 63.8 78.36C62.648 80.408 62.072 82.776 62.072 85.464C62.072 88.216 62.648 90.584 63.8 92.568C65.016 94.552 66.68 96.12 68.792 97.272C70.968 98.36 73.496 98.904 76.376 98.904ZM144.211 111.864C139.155 111.864 134.739 110.744 130.963 108.504C127.187 106.264 124.211 103.16 122.035 99.192C119.923 95.16 118.867 90.584 118.867 85.464C118.867 80.28 119.955 75.704 122.131 71.736C124.307 67.768 127.315 64.664 131.155 62.424C135.059 60.12 139.539 58.968 144.595 58.968C147.475 58.968 150.131 59.352 152.563 60.12C154.995 60.824 157.107 61.816 158.899 63.096C160.755 64.376 162.259 65.784 163.411 67.32C164.627 68.856 165.427 70.456 165.811 72.12H162.451V60.024H177.619V111H162.163V97.944L165.427 98.424C165.043 100.088 164.243 101.72 163.027 103.32C161.811 104.92 160.243 106.36 158.323 107.64C156.403 108.92 154.227 109.944 151.795 110.712C149.427 111.48 146.899 111.864 144.211 111.864ZM148.339 98.904C151.219 98.904 153.715 98.36 155.827 97.272C158.003 96.184 159.667 94.648 160.819 92.664C162.035 90.616 162.643 88.216 162.643 85.464C162.643 82.776 162.035 80.44 160.819 78.456C159.667 76.408 158.003 74.808 155.827 73.656C153.715 72.504 151.219 71.928 148.339 71.928C145.459 71.928 142.963 72.504 140.851 73.656C138.739 74.808 137.075 76.408 135.859 78.456C134.707 80.44 134.131 82.776 134.131 85.464C134.131 88.216 134.707 90.616 135.859 92.664C137.075 94.648 138.739 96.184 140.851 97.272C142.963 98.36 145.459 98.904 148.339 98.904ZM201.315 111V60.024H215.907L216.579 77.592L212.931 75.768C213.763 72.632 215.203 69.816 217.251 67.32C219.363 64.76 221.763 62.744 224.451 61.272C227.203 59.736 230.115 58.968 233.187 58.968C234.851 58.968 236.419 59.128 237.891 59.448C239.427 59.768 240.739 60.184 241.827 60.696L237.603 77.496C236.643 76.792 235.331 76.248 233.667 75.864C232.067 75.48 230.435 75.288 228.771 75.288C226.915 75.288 225.219 75.608 223.683 76.248C222.211 76.824 220.963 77.656 219.939 78.744C218.915 79.768 218.115 80.952 217.539 82.296C217.027 83.64 216.771 85.08 216.771 86.616V111H201.315ZM265.932 111V46.008H281.292V111H265.932ZM254.604 73.464V60.024H294.252V73.464H254.604ZM371.848 111.96C365.768 111.96 360.52 110.712 356.104 108.216C351.688 105.72 347.848 101.912 344.584 96.792L356.296 88.632C357.576 90.616 358.984 92.344 360.52 93.816C362.12 95.224 363.848 96.344 365.704 97.176C367.624 98.008 369.736 98.424 372.04 98.424C374.216 98.424 376.232 98.072 378.088 97.368C379.944 96.664 381.448 95.608 382.6 94.2C383.752 92.728 384.328 90.968 384.328 88.92C384.328 86.872 383.784 85.208 382.696 83.928C381.608 82.584 380.2 81.624 378.472 81.048C376.744 80.408 374.856 80.088 372.808 80.088C371.784 80.088 370.728 80.184 369.64 80.376C368.552 80.568 367.496 80.824 366.472 81.144C365.448 81.4 364.456 81.784 363.496 82.296L359.656 73.08L377.896 54.936L381.16 57.528L349.288 56.952V43.224H394.408L397.48 50.616L373.288 74.52L369.448 68.856C370.088 68.6 371.08 68.376 372.424 68.184C373.832 67.992 375.272 67.896 376.744 67.896C379.752 67.896 382.6 68.44 385.288 69.528C387.976 70.552 390.376 71.992 392.488 73.848C394.6 75.704 396.264 77.912 397.48 80.472C398.696 82.968 399.304 85.688 399.304 88.632C399.304 93.24 398.056 97.304 395.56 100.824C393.128 104.28 389.832 107 385.672 108.984C381.576 110.968 376.968 111.96 371.848 111.96Z" fill="white"/>
<rect id="Rectangle 7" y="462" width="1567" height="626" fill="#211F2F"/>
<g id="Group 4">
<g id="Vector" filter="url(#filter0_d_110_887)">
<path d="M169.246 465.996C174.515 442.672 207.714 442.672 212.983 465.996L221.541 503.874C224.712 517.912 214.05 531.267 199.672 531.267H182.557C168.179 531.267 157.517 517.912 160.688 503.874L169.246 465.996Z" fill="#3B5EC6"/>
<path d="M214.816 415.046C214.816 428.326 204.061 439.092 190.794 439.092C177.527 439.092 166.772 428.326 166.772 415.046C166.772 401.766 177.527 391 190.794 391C204.061 391 214.816 401.766 214.816 415.046Z" fill="#3B5EC6"/>
<path d="M195.599 519.565C195.599 513.013 200.904 507.702 207.45 507.702C213.995 507.702 219.3 513.013 219.3 519.565V547.137C219.3 553.689 213.995 559 207.45 559C200.904 559 195.599 553.689 195.599 547.137V519.565Z" fill="#3B5EC6"/>
<path d="M204.867 473.609C201.517 467.981 203.36 460.7 208.982 457.347C214.605 453.993 221.879 455.837 225.229 461.466L239.328 485.153C242.678 490.781 240.836 498.062 235.213 501.415C229.59 504.769 222.316 502.925 218.966 497.296L204.867 473.609Z" fill="#3B5EC6"/>
<path d="M156.362 461.548C159.635 455.874 166.883 453.93 172.551 457.206C178.219 460.482 180.161 467.737 176.889 473.411L163.116 497.289C159.844 502.963 152.596 504.907 146.927 501.631C141.259 498.355 139.317 491.1 142.59 485.427L156.362 461.548Z" fill="#3B5EC6"/>
<path d="M162.288 519.565C162.288 513.013 167.594 507.702 174.139 507.702C180.684 507.702 185.99 513.013 185.99 519.565V547.137C185.99 553.689 180.684 559 174.139 559C167.594 559 162.288 553.689 162.288 547.137V519.565Z" fill="#3B5EC6"/>
</g>
<g id="Vector_2" filter="url(#filter1_d_110_887)">
<path d="M403.528 465.996C408.85 442.672 442.381 442.672 447.703 465.996L456.346 503.874C459.549 517.912 448.78 531.267 434.259 531.267H416.972C402.451 531.267 391.682 517.912 394.885 503.874L403.528 465.996Z" fill="#3B5EC6"/>
<path d="M449.555 415.046C449.555 428.326 438.692 439.092 425.292 439.092C411.892 439.092 401.03 428.326 401.03 415.046C401.03 401.766 411.892 391 425.292 391C438.692 391 449.555 401.766 449.555 415.046Z" fill="#3B5EC6"/>
<path d="M430.145 519.565C430.145 513.013 435.504 507.702 442.114 507.702C448.725 507.702 454.083 513.013 454.083 519.565V547.137C454.083 553.689 448.725 559 442.114 559C435.504 559 430.145 553.689 430.145 547.137V519.565Z" fill="#3B5EC6"/>
<path d="M439.506 473.609C436.123 467.981 437.983 460.7 443.662 457.347C449.341 453.993 456.688 455.837 460.071 461.466L474.311 485.153C477.695 490.781 475.834 498.062 470.155 501.415C464.476 504.769 457.13 502.925 453.746 497.296L439.506 473.609Z" fill="#3B5EC6"/>
<path d="M390.516 461.548C393.821 455.874 401.142 453.93 406.867 457.206C412.591 460.482 414.553 467.737 411.248 473.411L397.337 497.289C394.032 502.963 386.712 504.907 380.987 501.631C375.262 498.355 373.3 491.1 376.606 485.427L390.516 461.548Z" fill="#3B5EC6"/>
<path d="M396.501 519.565C396.501 513.013 401.86 507.702 408.47 507.702C415.081 507.702 420.44 513.013 420.44 519.565V547.137C420.44 553.689 415.081 559 408.47 559C401.86 559 396.501 553.689 396.501 547.137V519.565Z" fill="#3B5EC6"/>
</g>
<g id="Vector_3" filter="url(#filter2_d_110_887)">
<path d="M286.528 465.996C291.85 442.672 325.381 442.672 330.703 465.996L339.346 503.874C342.549 517.912 331.78 531.267 317.259 531.267H299.972C285.451 531.267 274.682 517.912 277.885 503.874L286.528 465.996Z" fill="#3B5EC6"/>
<path d="M332.555 415.046C332.555 428.326 321.692 439.092 308.292 439.092C294.892 439.092 284.03 428.326 284.03 415.046C284.03 401.766 294.892 391 308.292 391C321.692 391 332.555 401.766 332.555 415.046Z" fill="#3B5EC6"/>
<path d="M313.145 519.565C313.145 513.013 318.504 507.702 325.114 507.702C331.725 507.702 337.083 513.013 337.083 519.565V547.137C337.083 553.689 331.725 559 325.114 559C318.504 559 313.145 553.689 313.145 547.137V519.565Z" fill="#3B5EC6"/>
<path d="M322.506 473.609C319.123 467.981 320.983 460.7 326.662 457.347C332.341 453.993 339.688 455.837 343.071 461.466L357.311 485.153C360.695 490.781 358.834 498.062 353.155 501.415C347.476 504.769 340.13 502.925 336.746 497.296L322.506 473.609Z" fill="#3B5EC6"/>
<path d="M273.516 461.548C276.821 455.874 284.142 453.93 289.867 457.206C295.591 460.482 297.553 467.737 294.248 473.411L280.337 497.289C277.032 502.963 269.712 504.907 263.987 501.631C258.262 498.355 256.3 491.1 259.606 485.427L273.516 461.548Z" fill="#3B5EC6"/>
<path d="M279.501 519.565C279.501 513.013 284.86 507.702 291.47 507.702C298.081 507.702 303.44 513.013 303.44 519.565V547.137C303.44 553.689 298.081 559 291.47 559C284.86 559 279.501 553.689 279.501 547.137V519.565Z" fill="#3B5EC6"/>
</g>
<g id="Vector_4" filter="url(#filter3_d_110_887)">
<path d="M521.246 465.996C526.515 442.672 559.714 442.672 564.983 465.996L573.541 503.874C576.712 517.912 566.05 531.267 551.672 531.267H534.557C520.179 531.267 509.517 517.912 512.688 503.874L521.246 465.996Z" fill="#3B5EC6"/>
<path d="M566.816 415.046C566.816 428.326 556.061 439.092 542.794 439.092C529.527 439.092 518.772 428.326 518.772 415.046C518.772 401.766 529.527 391 542.794 391C556.061 391 566.816 401.766 566.816 415.046Z" fill="#3B5EC6"/>
<path d="M547.599 519.565C547.599 513.013 552.904 507.702 559.45 507.702C565.995 507.702 571.3 513.013 571.3 519.565V547.137C571.3 553.689 565.995 559 559.45 559C552.904 559 547.599 553.689 547.599 547.137V519.565Z" fill="#3B5EC6"/>
<path d="M556.867 473.609C553.517 467.981 555.36 460.7 560.982 457.347C566.605 453.993 573.879 455.837 577.229 461.466L591.328 485.153C594.678 490.781 592.836 498.062 587.213 501.415C581.59 504.769 574.316 502.925 570.966 497.296L556.867 473.609Z" fill="#3B5EC6"/>
<path d="M508.362 461.548C511.635 455.874 518.883 453.93 524.551 457.206C530.219 460.482 532.161 467.737 528.889 473.411L515.116 497.289C511.844 502.963 504.596 504.907 498.927 501.631C493.259 498.355 491.317 491.1 494.59 485.427L508.362 461.548Z" fill="#3B5EC6"/>
<path d="M514.288 519.565C514.288 513.013 519.594 507.702 526.139 507.702C532.684 507.702 537.99 513.013 537.99 519.565V547.137C537.99 553.689 532.684 559 526.139 559C519.594 559 514.288 553.689 514.288 547.137V519.565Z" fill="#3B5EC6"/>
</g>
<g id="Vector_5" filter="url(#filter4_d_110_887)">
<path d="M68.3303 502.388C74.548 474.899 113.722 474.899 119.94 502.388L130.038 547.03C133.78 563.575 121.199 579.315 104.233 579.315H84.0371C67.0712 579.315 54.4901 563.575 58.2324 547.03L68.3303 502.388Z" fill="#6A94E0"/>
<path d="M122.103 442.34C122.103 457.991 109.412 470.679 93.7571 470.679C78.102 470.679 65.411 457.991 65.411 442.34C65.411 426.688 78.102 414 93.7571 414C109.412 414 122.103 426.688 122.103 442.34Z" fill="#6A94E0"/>
<path d="M99.4264 565.523C99.4264 557.801 105.687 551.542 113.41 551.542C121.134 551.542 127.395 557.801 127.395 565.523V598.019C127.395 605.741 121.134 612 113.41 612C105.687 612 99.4264 605.741 99.4264 598.019V565.523Z" fill="#6A94E0"/>
<path d="M110.364 511.361C106.41 504.728 108.584 496.146 115.219 492.194C121.854 488.242 130.437 490.416 134.39 497.049L151.027 524.966C154.98 531.599 152.806 540.18 146.171 544.132C139.537 548.085 130.953 545.911 127 539.278L110.364 511.361Z" fill="#6A94E0"/>
<path d="M53.1276 497.146C56.9892 490.459 65.5418 488.168 72.2303 492.029C78.9188 495.889 81.2104 504.44 77.3488 511.127L61.097 539.269C57.2354 545.956 48.6829 548.248 41.9944 544.387C35.3059 540.526 33.0142 531.975 36.8758 525.289L53.1276 497.146Z" fill="#6A94E0"/>
<path d="M60.1197 565.523C60.1197 557.801 66.3806 551.542 74.1038 551.542C81.827 551.542 88.0879 557.801 88.0879 565.523V598.019C88.0879 605.741 81.827 612 74.1038 612C66.3806 612 60.1197 605.741 60.1197 598.019V565.523Z" fill="#6A94E0"/>
</g>
<g id="Vector_6" filter="url(#filter5_d_110_887)">
<path d="M344.33 502.388C350.548 474.899 389.722 474.899 395.94 502.388L406.038 547.03C409.78 563.575 397.199 579.315 380.233 579.315H360.037C343.071 579.315 330.49 563.575 334.232 547.03L344.33 502.388Z" fill="#6A94E0"/>
<path d="M398.103 442.34C398.103 457.991 385.412 470.679 369.757 470.679C354.102 470.679 341.411 457.991 341.411 442.34C341.411 426.688 354.102 414 369.757 414C385.412 414 398.103 426.688 398.103 442.34Z" fill="#6A94E0"/>
<path d="M375.426 565.523C375.426 557.801 381.687 551.542 389.41 551.542C397.134 551.542 403.395 557.801 403.395 565.523V598.019C403.395 605.741 397.134 612 389.41 612C381.687 612 375.426 605.741 375.426 598.019V565.523Z" fill="#6A94E0"/>
<path d="M386.364 511.361C382.41 504.728 384.584 496.146 391.219 492.194C397.854 488.242 406.437 490.416 410.39 497.049L427.027 524.966C430.98 531.599 428.806 540.18 422.171 544.132C415.537 548.085 406.953 545.911 403 539.278L386.364 511.361Z" fill="#6A94E0"/>
<path d="M329.128 497.146C332.989 490.459 341.542 488.168 348.23 492.029C354.919 495.889 357.21 504.44 353.349 511.127L337.097 539.269C333.235 545.956 324.683 548.248 317.994 544.387C311.306 540.526 309.014 531.975 312.876 525.289L329.128 497.146Z" fill="#6A94E0"/>
<path d="M336.12 565.523C336.12 557.801 342.381 551.542 350.104 551.542C357.827 551.542 364.088 557.801 364.088 565.523V598.019C364.088 605.741 357.827 612 350.104 612C342.381 612 336.12 605.741 336.12 598.019V565.523Z" fill="#6A94E0"/>
</g>
<g id="Vector_7" filter="url(#filter6_d_110_887)">
<path d="M206.33 502.388C212.548 474.899 251.722 474.899 257.94 502.388L268.038 547.03C271.78 563.575 259.199 579.315 242.233 579.315H222.037C205.071 579.315 192.49 563.575 196.232 547.03L206.33 502.388Z" fill="#6A94E0"/>
<path d="M260.103 442.34C260.103 457.991 247.412 470.679 231.757 470.679C216.102 470.679 203.411 457.991 203.411 442.34C203.411 426.688 216.102 414 231.757 414C247.412 414 260.103 426.688 260.103 442.34Z" fill="#6A94E0"/>
<path d="M237.426 565.523C237.426 557.801 243.687 551.542 251.41 551.542C259.134 551.542 265.395 557.801 265.395 565.523V598.019C265.395 605.741 259.134 612 251.41 612C243.687 612 237.426 605.741 237.426 598.019V565.523Z" fill="#6A94E0"/>
<path d="M248.364 511.361C244.41 504.728 246.584 496.146 253.219 492.194C259.854 488.242 268.437 490.416 272.39 497.049L289.027 524.966C292.98 531.599 290.806 540.18 284.171 544.132C277.537 548.085 268.953 545.911 265 539.278L248.364 511.361Z" fill="#6A94E0"/>
<path d="M191.128 497.146C194.989 490.459 203.542 488.168 210.23 492.029C216.919 495.889 219.21 504.44 215.349 511.127L199.097 539.269C195.235 545.956 186.683 548.248 179.994 544.387C173.306 540.526 171.014 531.975 174.876 525.289L191.128 497.146Z" fill="#6A94E0"/>
<path d="M198.12 565.523C198.12 557.801 204.381 551.542 212.104 551.542C219.827 551.542 226.088 557.801 226.088 565.523V598.019C226.088 605.741 219.827 612 212.104 612C204.381 612 198.12 605.741 198.12 598.019V565.523Z" fill="#6A94E0"/>
</g>
<g id="Vector_8" filter="url(#filter7_d_110_887)">
<path d="M264.33 548.388C270.548 520.899 309.722 520.899 315.94 548.388L326.038 593.03C329.78 609.575 317.199 625.315 300.233 625.315H280.037C263.071 625.315 250.49 609.575 254.232 593.03L264.33 548.388Z" fill="#8DBBFB"/>
<path d="M318.103 488.34C318.103 503.991 305.412 516.679 289.757 516.679C274.102 516.679 261.411 503.991 261.411 488.34C261.411 472.688 274.102 460 289.757 460C305.412 460 318.103 472.688 318.103 488.34Z" fill="#8DBBFB"/>
<path d="M295.426 611.523C295.426 603.801 301.687 597.542 309.41 597.542C317.134 597.542 323.395 603.801 323.395 611.523V644.019C323.395 651.741 317.134 658 309.41 658C301.687 658 295.426 651.741 295.426 644.019V611.523Z" fill="#8DBBFB"/>
<path d="M306.364 557.361C302.41 550.728 304.584 542.146 311.219 538.194C317.854 534.242 326.437 536.416 330.39 543.049L347.027 570.966C350.98 577.599 348.806 586.18 342.171 590.132C335.537 594.085 326.953 591.911 323 585.278L306.364 557.361Z" fill="#8DBBFB"/>
<path d="M249.128 543.146C252.989 536.459 261.542 534.168 268.23 538.029C274.919 541.889 277.21 550.44 273.349 557.127L257.097 585.269C253.235 591.956 244.683 594.248 237.994 590.387C231.306 586.526 229.014 577.975 232.876 571.289L249.128 543.146Z" fill="#8DBBFB"/>
<path d="M256.12 611.523C256.12 603.801 262.381 597.542 270.104 597.542C277.827 597.542 284.088 603.801 284.088 611.523V644.019C284.088 651.741 277.827 658 270.104 658C262.381 658 256.12 651.741 256.12 644.019V611.523Z" fill="#8DBBFB"/>
</g>
<g id="Vector_9" filter="url(#filter8_d_110_887)">
<path d="M482.33 502.388C488.548 474.899 527.722 474.899 533.94 502.388L544.038 547.03C547.78 563.575 535.199 579.315 518.233 579.315H498.037C481.071 579.315 468.49 563.575 472.232 547.03L482.33 502.388Z" fill="#6A94E0"/>
<path d="M536.103 442.34C536.103 457.991 523.412 470.679 507.757 470.679C492.102 470.679 479.411 457.991 479.411 442.34C479.411 426.688 492.102 414 507.757 414C523.412 414 536.103 426.688 536.103 442.34Z" fill="#6A94E0"/>
<path d="M513.426 565.523C513.426 557.801 519.687 551.542 527.41 551.542C535.134 551.542 541.395 557.801 541.395 565.523V598.019C541.395 605.741 535.134 612 527.41 612C519.687 612 513.426 605.741 513.426 598.019V565.523Z" fill="#6A94E0"/>
<path d="M524.364 511.361C520.41 504.728 522.584 496.146 529.219 492.194C535.854 488.242 544.437 490.416 548.39 497.049L565.027 524.966C568.98 531.599 566.806 540.18 560.171 544.132C553.537 548.085 544.953 545.911 541 539.278L524.364 511.361Z" fill="#6A94E0"/>
<path d="M467.128 497.146C470.989 490.459 479.542 488.168 486.23 492.029C492.919 495.889 495.21 504.44 491.349 511.127L475.097 539.269C471.235 545.956 462.683 548.248 455.994 544.387C449.306 540.526 447.014 531.975 450.876 525.289L467.128 497.146Z" fill="#6A94E0"/>
<path d="M474.12 565.523C474.12 557.801 480.381 551.542 488.104 551.542C495.827 551.542 502.088 557.801 502.088 565.523V598.019C502.088 605.741 495.827 612 488.104 612C480.381 612 474.12 605.741 474.12 598.019V565.523Z" fill="#6A94E0"/>
</g>
<g id="Vector_10" filter="url(#filter9_d_110_887)">
<path d="M126.33 548.388C132.548 520.899 171.722 520.899 177.94 548.388L188.038 593.03C191.78 609.575 179.199 625.315 162.233 625.315H142.037C125.071 625.315 112.49 609.575 116.232 593.03L126.33 548.388Z" fill="#8DBBFB"/>
<path d="M180.103 488.34C180.103 503.991 167.412 516.679 151.757 516.679C136.102 516.679 123.411 503.991 123.411 488.34C123.411 472.688 136.102 460 151.757 460C167.412 460 180.103 472.688 180.103 488.34Z" fill="#8DBBFB"/>
<path d="M157.426 611.523C157.426 603.801 163.687 597.542 171.41 597.542C179.134 597.542 185.395 603.801 185.395 611.523V644.019C185.395 651.741 179.134 658 171.41 658C163.687 658 157.426 651.741 157.426 644.019V611.523Z" fill="#8DBBFB"/>
<path d="M168.364 557.361C164.41 550.728 166.584 542.146 173.219 538.194C179.854 534.242 188.437 536.416 192.39 543.049L209.027 570.966C212.98 577.599 210.806 586.18 204.171 590.132C197.537 594.085 188.953 591.911 185 585.278L168.364 557.361Z" fill="#8DBBFB"/>
<path d="M111.128 543.146C114.989 536.459 123.542 534.168 130.23 538.029C136.919 541.889 139.21 550.44 135.349 557.127L119.097 585.269C115.235 591.956 106.683 594.248 99.9944 590.387C93.3059 586.526 91.0142 577.975 94.8758 571.289L111.128 543.146Z" fill="#8DBBFB"/>
<path d="M118.12 611.523C118.12 603.801 124.381 597.542 132.104 597.542C139.827 597.542 146.088 603.801 146.088 611.523V644.019C146.088 651.741 139.827 658 132.104 658C124.381 658 118.12 651.741 118.12 644.019V611.523Z" fill="#8DBBFB"/>
</g>
<g id="Vector_11" filter="url(#filter10_d_110_887)">
<path d="M402.33 548.388C408.548 520.899 447.722 520.899 453.94 548.388L464.038 593.03C467.78 609.575 455.199 625.315 438.233 625.315H418.037C401.071 625.315 388.49 609.575 392.232 593.03L402.33 548.388Z" fill="#8DBBFB"/>
<path d="M456.103 488.34C456.103 503.991 443.412 516.679 427.757 516.679C412.102 516.679 399.411 503.991 399.411 488.34C399.411 472.688 412.102 460 427.757 460C443.412 460 456.103 472.688 456.103 488.34Z" fill="#8DBBFB"/>
<path d="M433.426 611.523C433.426 603.801 439.687 597.542 447.41 597.542C455.134 597.542 461.395 603.801 461.395 611.523V644.019C461.395 651.741 455.134 658 447.41 658C439.687 658 433.426 651.741 433.426 644.019V611.523Z" fill="#8DBBFB"/>
<path d="M444.364 557.361C440.41 550.728 442.584 542.146 449.219 538.194C455.854 534.242 464.437 536.416 468.39 543.049L485.027 570.966C488.98 577.599 486.806 586.18 480.171 590.132C473.537 594.085 464.953 591.911 461 585.278L444.364 557.361Z" fill="#8DBBFB"/>
<path d="M387.128 543.146C390.989 536.459 399.542 534.168 406.23 538.029C412.919 541.889 415.21 550.44 411.349 557.127L395.097 585.269C391.235 591.956 382.683 594.248 375.994 590.387C369.306 586.526 367.014 577.975 370.876 571.289L387.128 543.146Z" fill="#8DBBFB"/>
<path d="M394.12 611.523C394.12 603.801 400.381 597.542 408.104 597.542C415.827 597.542 422.088 603.801 422.088 611.523V644.019C422.088 651.741 415.827 658 408.104 658C400.381 658 394.12 651.741 394.12 644.019V611.523Z" fill="#8DBBFB"/>
</g>
<g id="Vector_12" filter="url(#filter11_d_110_887)">
<path d="M540.33 548.388C546.548 520.899 585.722 520.899 591.94 548.388L602.038 593.03C605.78 609.575 593.199 625.315 576.233 625.315H556.037C539.071 625.315 526.49 609.575 530.232 593.03L540.33 548.388Z" fill="#8DBBFB"/>
<path d="M594.103 488.34C594.103 503.991 581.412 516.679 565.757 516.679C550.102 516.679 537.411 503.991 537.411 488.34C537.411 472.688 550.102 460 565.757 460C581.412 460 594.103 472.688 594.103 488.34Z" fill="#8DBBFB"/>
<path d="M571.426 611.523C571.426 603.801 577.687 597.542 585.41 597.542C593.134 597.542 599.395 603.801 599.395 611.523V644.019C599.395 651.741 593.134 658 585.41 658C577.687 658 571.426 651.741 571.426 644.019V611.523Z" fill="#8DBBFB"/>
<path d="M582.364 557.361C578.41 550.728 580.584 542.146 587.219 538.194C593.854 534.242 602.437 536.416 606.39 543.049L623.027 570.966C626.98 577.599 624.806 586.18 618.171 590.132C611.537 594.085 602.953 591.911 599 585.278L582.364 557.361Z" fill="#8DBBFB"/>
<path d="M525.128 543.146C528.989 536.459 537.542 534.168 544.23 538.029C550.919 541.889 553.21 550.44 549.349 557.127L533.097 585.269C529.235 591.956 520.683 594.248 513.994 590.387C507.306 586.526 505.014 577.975 508.876 571.289L525.128 543.146Z" fill="#8DBBFB"/>
<path d="M532.12 611.523C532.12 603.801 538.381 597.542 546.104 597.542C553.827 597.542 560.088 603.801 560.088 611.523V644.019C560.088 651.741 553.827 658 546.104 658C538.381 658 532.12 651.741 532.12 644.019V611.523Z" fill="#8DBBFB"/>
</g>
</g>
<g id="Group 5">
<g id="Vector_13" filter="url(#filter12_d_110_887)">
<path d="M890.246 465.996C895.515 442.672 928.714 442.672 933.983 465.996L942.541 503.874C945.712 517.912 935.05 531.267 920.672 531.267H903.557C889.179 531.267 878.517 517.912 881.688 503.874L890.246 465.996Z" fill="#83C63B"/>
<path d="M935.816 415.046C935.816 428.326 925.061 439.092 911.794 439.092C898.527 439.092 887.772 428.326 887.772 415.046C887.772 401.766 898.527 391 911.794 391C925.061 391 935.816 401.766 935.816 415.046Z" fill="#83C63B"/>
<path d="M916.599 519.565C916.599 513.013 921.904 507.702 928.45 507.702C934.995 507.702 940.3 513.013 940.3 519.565V547.137C940.3 553.689 934.995 559 928.45 559C921.904 559 916.599 553.689 916.599 547.137V519.565Z" fill="#83C63B"/>
<path d="M925.867 473.609C922.517 467.981 924.36 460.7 929.982 457.347C935.605 453.993 942.879 455.837 946.229 461.466L960.328 485.153C963.678 490.781 961.836 498.062 956.213 501.415C950.59 504.769 943.316 502.925 939.966 497.296L925.867 473.609Z" fill="#83C63B"/>
<path d="M877.362 461.548C880.635 455.874 887.883 453.93 893.551 457.206C899.219 460.482 901.161 467.737 897.889 473.411L884.116 497.289C880.844 502.963 873.596 504.907 867.927 501.631C862.259 498.355 860.317 491.1 863.59 485.427L877.362 461.548Z" fill="#83C63B"/>
<path d="M883.288 519.565C883.288 513.013 888.594 507.702 895.139 507.702C901.684 507.702 906.99 513.013 906.99 519.565V547.137C906.99 553.689 901.684 559 895.139 559C888.594 559 883.288 553.689 883.288 547.137V519.565Z" fill="#83C63B"/>
</g>
<g id="Vector_14" filter="url(#filter13_d_110_887)">
<path d="M1124.53 465.996C1129.85 442.672 1163.38 442.672 1168.7 465.996L1177.35 503.874C1180.55 517.912 1169.78 531.267 1155.26 531.267H1137.97C1123.45 531.267 1112.68 517.912 1115.89 503.874L1124.53 465.996Z" fill="#83C63B"/>
<path d="M1170.55 415.046C1170.55 428.326 1159.69 439.092 1146.29 439.092C1132.89 439.092 1122.03 428.326 1122.03 415.046C1122.03 401.766 1132.89 391 1146.29 391C1159.69 391 1170.55 401.766 1170.55 415.046Z" fill="#83C63B"/>
<path d="M1151.14 519.565C1151.14 513.013 1156.5 507.702 1163.11 507.702C1169.72 507.702 1175.08 513.013 1175.08 519.565V547.137C1175.08 553.689 1169.72 559 1163.11 559C1156.5 559 1151.14 553.689 1151.14 547.137V519.565Z" fill="#83C63B"/>
<path d="M1160.51 473.609C1157.12 467.981 1158.98 460.7 1164.66 457.347C1170.34 453.993 1177.69 455.837 1181.07 461.466L1195.31 485.153C1198.69 490.781 1196.83 498.062 1191.16 501.415C1185.48 504.769 1178.13 502.925 1174.75 497.296L1160.51 473.609Z" fill="#83C63B"/>
<path d="M1111.52 461.548C1114.82 455.874 1122.14 453.93 1127.87 457.206C1133.59 460.482 1135.55 467.737 1132.25 473.411L1118.34 497.289C1115.03 502.963 1107.71 504.907 1101.99 501.631C1096.26 498.355 1094.3 491.1 1097.61 485.427L1111.52 461.548Z" fill="#83C63B"/>
<path d="M1117.5 519.565C1117.5 513.013 1122.86 507.702 1129.47 507.702C1136.08 507.702 1141.44 513.013 1141.44 519.565V547.137C1141.44 553.689 1136.08 559 1129.47 559C1122.86 559 1117.5 553.689 1117.5 547.137V519.565Z" fill="#83C63B"/>
</g>
<g id="Vector_15" filter="url(#filter14_d_110_887)">
<path d="M1007.53 465.996C1012.85 442.672 1046.38 442.672 1051.7 465.996L1060.35 503.874C1063.55 517.912 1052.78 531.267 1038.26 531.267H1020.97C1006.45 531.267 995.682 517.912 998.885 503.874L1007.53 465.996Z" fill="#83C63B"/>
<path d="M1053.55 415.046C1053.55 428.326 1042.69 439.092 1029.29 439.092C1015.89 439.092 1005.03 428.326 1005.03 415.046C1005.03 401.766 1015.89 391 1029.29 391C1042.69 391 1053.55 401.766 1053.55 415.046Z" fill="#83C63B"/>
<path d="M1034.14 519.565C1034.14 513.013 1039.5 507.702 1046.11 507.702C1052.72 507.702 1058.08 513.013 1058.08 519.565V547.137C1058.08 553.689 1052.72 559 1046.11 559C1039.5 559 1034.14 553.689 1034.14 547.137V519.565Z" fill="#83C63B"/>
<path d="M1043.51 473.609C1040.12 467.981 1041.98 460.7 1047.66 457.347C1053.34 453.993 1060.69 455.837 1064.07 461.466L1078.31 485.153C1081.69 490.781 1079.83 498.062 1074.16 501.415C1068.48 504.769 1061.13 502.925 1057.75 497.296L1043.51 473.609Z" fill="#83C63B"/>
<path d="M994.516 461.548C997.821 455.874 1005.14 453.93 1010.87 457.206C1016.59 460.482 1018.55 467.737 1015.25 473.411L1001.34 497.289C998.032 502.963 990.712 504.907 984.987 501.631C979.262 498.355 977.3 491.1 980.606 485.427L994.516 461.548Z" fill="#83C63B"/>
<path d="M1000.5 519.565C1000.5 513.013 1005.86 507.702 1012.47 507.702C1019.08 507.702 1024.44 513.013 1024.44 519.565V547.137C1024.44 553.689 1019.08 559 1012.47 559C1005.86 559 1000.5 553.689 1000.5 547.137V519.565Z" fill="#83C63B"/>
</g>
<g id="Vector_16" filter="url(#filter15_d_110_887)">
<path d="M1242.25 465.996C1247.52 442.672 1280.71 442.672 1285.98 465.996L1294.54 503.874C1297.71 517.912 1287.05 531.267 1272.67 531.267H1255.56C1241.18 531.267 1230.52 517.912 1233.69 503.874L1242.25 465.996Z" fill="#83C63B"/>
<path d="M1287.82 415.046C1287.82 428.326 1277.06 439.092 1263.79 439.092C1250.53 439.092 1239.77 428.326 1239.77 415.046C1239.77 401.766 1250.53 391 1263.79 391C1277.06 391 1287.82 401.766 1287.82 415.046Z" fill="#83C63B"/>
<path d="M1268.6 519.565C1268.6 513.013 1273.9 507.702 1280.45 507.702C1286.99 507.702 1292.3 513.013 1292.3 519.565V547.137C1292.3 553.689 1286.99 559 1280.45 559C1273.9 559 1268.6 553.689 1268.6 547.137V519.565Z" fill="#83C63B"/>
<path d="M1277.87 473.609C1274.52 467.981 1276.36 460.7 1281.98 457.347C1287.61 453.993 1294.88 455.837 1298.23 461.466L1312.33 485.153C1315.68 490.781 1313.84 498.062 1308.21 501.415C1302.59 504.769 1295.32 502.925 1291.97 497.296L1277.87 473.609Z" fill="#83C63B"/>
<path d="M1229.36 461.548C1232.63 455.874 1239.88 453.93 1245.55 457.206C1251.22 460.482 1253.16 467.737 1249.89 473.411L1236.12 497.289C1232.84 502.963 1225.6 504.907 1219.93 501.631C1214.26 498.355 1212.32 491.1 1215.59 485.427L1229.36 461.548Z" fill="#83C63B"/>
<path d="M1235.29 519.565C1235.29 513.013 1240.59 507.702 1247.14 507.702C1253.68 507.702 1258.99 513.013 1258.99 519.565V547.137C1258.99 553.689 1253.68 559 1247.14 559C1240.59 559 1235.29 553.689 1235.29 547.137V519.565Z" fill="#83C63B"/>
</g>
<g id="Vector_17" filter="url(#filter16_d_110_887)">
<path d="M789.33 502.388C795.548 474.899 834.722 474.899 840.94 502.388L851.038 547.03C854.78 563.575 842.199 579.315 825.233 579.315H805.037C788.071 579.315 775.49 563.575 779.232 547.03L789.33 502.388Z" fill="#7CE06A"/>
<path d="M843.103 442.34C843.103 457.991 830.412 470.679 814.757 470.679C799.102 470.679 786.411 457.991 786.411 442.34C786.411 426.688 799.102 414 814.757 414C830.412 414 843.103 426.688 843.103 442.34Z" fill="#7CE06A"/>
<path d="M820.426 565.523C820.426 557.801 826.687 551.542 834.41 551.542C842.134 551.542 848.395 557.801 848.395 565.523V598.019C848.395 605.741 842.134 612 834.41 612C826.687 612 820.426 605.741 820.426 598.019V565.523Z" fill="#7CE06A"/>
<path d="M831.364 511.361C827.41 504.728 829.584 496.146 836.219 492.194C842.854 488.242 851.437 490.416 855.39 497.049L872.027 524.966C875.98 531.599 873.806 540.18 867.171 544.132C860.537 548.085 851.953 545.911 848 539.278L831.364 511.361Z" fill="#7CE06A"/>
<path d="M774.128 497.146C777.989 490.459 786.542 488.168 793.23 492.029C799.919 495.889 802.21 504.44 798.349 511.127L782.097 539.269C778.235 545.956 769.683 548.248 762.994 544.387C756.306 540.526 754.014 531.975 757.876 525.289L774.128 497.146Z" fill="#7CE06A"/>
<path d="M781.12 565.523C781.12 557.801 787.381 551.542 795.104 551.542C802.827 551.542 809.088 557.801 809.088 565.523V598.019C809.088 605.741 802.827 612 795.104 612C787.381 612 781.12 605.741 781.12 598.019V565.523Z" fill="#7CE06A"/>
</g>
<g id="Vector_18" filter="url(#filter17_d_110_887)">
<path d="M1065.33 502.388C1071.55 474.899 1110.72 474.899 1116.94 502.388L1127.04 547.03C1130.78 563.575 1118.2 579.315 1101.23 579.315H1081.04C1064.07 579.315 1051.49 563.575 1055.23 547.03L1065.33 502.388Z" fill="#7CE06A"/>
<path d="M1119.1 442.34C1119.1 457.991 1106.41 470.679 1090.76 470.679C1075.1 470.679 1062.41 457.991 1062.41 442.34C1062.41 426.688 1075.1 414 1090.76 414C1106.41 414 1119.1 426.688 1119.1 442.34Z" fill="#7CE06A"/>
<path d="M1096.43 565.523C1096.43 557.801 1102.69 551.542 1110.41 551.542C1118.13 551.542 1124.39 557.801 1124.39 565.523V598.019C1124.39 605.741 1118.13 612 1110.41 612C1102.69 612 1096.43 605.741 1096.43 598.019V565.523Z" fill="#7CE06A"/>
<path d="M1107.36 511.361C1103.41 504.728 1105.58 496.146 1112.22 492.194C1118.85 488.242 1127.44 490.416 1131.39 497.049L1148.03 524.966C1151.98 531.599 1149.81 540.18 1143.17 544.132C1136.54 548.085 1127.95 545.911 1124 539.278L1107.36 511.361Z" fill="#7CE06A"/>
<path d="M1050.13 497.146C1053.99 490.459 1062.54 488.168 1069.23 492.029C1075.92 495.889 1078.21 504.44 1074.35 511.127L1058.1 539.269C1054.24 545.956 1045.68 548.248 1038.99 544.387C1032.31 540.526 1030.01 531.975 1033.88 525.289L1050.13 497.146Z" fill="#7CE06A"/>
<path d="M1057.12 565.523C1057.12 557.801 1063.38 551.542 1071.1 551.542C1078.83 551.542 1085.09 557.801 1085.09 565.523V598.019C1085.09 605.741 1078.83 612 1071.1 612C1063.38 612 1057.12 605.741 1057.12 598.019V565.523Z" fill="#7CE06A"/>
</g>
<g id="Vector_19" filter="url(#filter18_d_110_887)">
<path d="M927.33 502.388C933.548 474.899 972.722 474.899 978.94 502.388L989.038 547.03C992.78 563.575 980.199 579.315 963.233 579.315H943.037C926.071 579.315 913.49 563.575 917.232 547.03L927.33 502.388Z" fill="#7CE06A"/>
<path d="M981.103 442.34C981.103 457.991 968.412 470.679 952.757 470.679C937.102 470.679 924.411 457.991 924.411 442.34C924.411 426.688 937.102 414 952.757 414C968.412 414 981.103 426.688 981.103 442.34Z" fill="#7CE06A"/>
<path d="M958.426 565.523C958.426 557.801 964.687 551.542 972.41 551.542C980.134 551.542 986.395 557.801 986.395 565.523V598.019C986.395 605.741 980.134 612 972.41 612C964.687 612 958.426 605.741 958.426 598.019V565.523Z" fill="#7CE06A"/>
<path d="M969.364 511.361C965.41 504.728 967.584 496.146 974.219 492.194C980.854 488.242 989.437 490.416 993.39 497.049L1010.03 524.966C1013.98 531.599 1011.81 540.18 1005.17 544.132C998.537 548.085 989.953 545.911 986 539.278L969.364 511.361Z" fill="#7CE06A"/>
<path d="M912.128 497.146C915.989 490.459 924.542 488.168 931.23 492.029C937.919 495.889 940.21 504.44 936.349 511.127L920.097 539.269C916.235 545.956 907.683 548.248 900.994 544.387C894.306 540.526 892.014 531.975 895.876 525.289L912.128 497.146Z" fill="#7CE06A"/>
<path d="M919.12 565.523C919.12 557.801 925.381 551.542 933.104 551.542C940.827 551.542 947.088 557.801 947.088 565.523V598.019C947.088 605.741 940.827 612 933.104 612C925.381 612 919.12 605.741 919.12 598.019V565.523Z" fill="#7CE06A"/>
</g>
<g id="Vector_20" filter="url(#filter19_d_110_887)">
<path d="M985.33 548.388C991.548 520.899 1030.72 520.899 1036.94 548.388L1047.04 593.03C1050.78 609.575 1038.2 625.315 1021.23 625.315H1001.04C984.071 625.315 971.49 609.575 975.232 593.03L985.33 548.388Z" fill="#9DFB8D"/>
<path d="M1039.1 488.34C1039.1 503.991 1026.41 516.679 1010.76 516.679C995.102 516.679 982.411 503.991 982.411 488.34C982.411 472.688 995.102 460 1010.76 460C1026.41 460 1039.1 472.688 1039.1 488.34Z" fill="#9DFB8D"/>
<path d="M1016.43 611.523C1016.43 603.801 1022.69 597.542 1030.41 597.542C1038.13 597.542 1044.39 603.801 1044.39 611.523V644.019C1044.39 651.741 1038.13 658 1030.41 658C1022.69 658 1016.43 651.741 1016.43 644.019V611.523Z" fill="#9DFB8D"/>
<path d="M1027.36 557.361C1023.41 550.728 1025.58 542.146 1032.22 538.194C1038.85 534.242 1047.44 536.416 1051.39 543.049L1068.03 570.966C1071.98 577.599 1069.81 586.18 1063.17 590.132C1056.54 594.085 1047.95 591.911 1044 585.278L1027.36 557.361Z" fill="#9DFB8D"/>
<path d="M970.128 543.146C973.989 536.459 982.542 534.168 989.23 538.029C995.919 541.889 998.21 550.44 994.349 557.127L978.097 585.269C974.235 591.956 965.683 594.248 958.994 590.387C952.306 586.526 950.014 577.975 953.876 571.289L970.128 543.146Z" fill="#9DFB8D"/>
<path d="M977.12 611.523C977.12 603.801 983.381 597.542 991.104 597.542C998.827 597.542 1005.09 603.801 1005.09 611.523V644.019C1005.09 651.741 998.827 658 991.104 658C983.381 658 977.12 651.741 977.12 644.019V611.523Z" fill="#9DFB8D"/>
</g>
<g id="Vector_21" filter="url(#filter20_d_110_887)">
<path d="M1203.33 502.388C1209.55 474.899 1248.72 474.899 1254.94 502.388L1265.04 547.03C1268.78 563.575 1256.2 579.315 1239.23 579.315H1219.04C1202.07 579.315 1189.49 563.575 1193.23 547.03L1203.33 502.388Z" fill="#7CE06A"/>
<path d="M1257.1 442.34C1257.1 457.991 1244.41 470.679 1228.76 470.679C1213.1 470.679 1200.41 457.991 1200.41 442.34C1200.41 426.688 1213.1 414 1228.76 414C1244.41 414 1257.1 426.688 1257.1 442.34Z" fill="#7CE06A"/>
<path d="M1234.43 565.523C1234.43 557.801 1240.69 551.542 1248.41 551.542C1256.13 551.542 1262.39 557.801 1262.39 565.523V598.019C1262.39 605.741 1256.13 612 1248.41 612C1240.69 612 1234.43 605.741 1234.43 598.019V565.523Z" fill="#7CE06A"/>
<path d="M1245.36 511.361C1241.41 504.728 1243.58 496.146 1250.22 492.194C1256.85 488.242 1265.44 490.416 1269.39 497.049L1286.03 524.966C1289.98 531.599 1287.81 540.18 1281.17 544.132C1274.54 548.085 1265.95 545.911 1262 539.278L1245.36 511.361Z" fill="#7CE06A"/>
<path d="M1188.13 497.146C1191.99 490.459 1200.54 488.168 1207.23 492.029C1213.92 495.889 1216.21 504.44 1212.35 511.127L1196.1 539.269C1192.24 545.956 1183.68 548.248 1176.99 544.387C1170.31 540.526 1168.01 531.975 1171.88 525.289L1188.13 497.146Z" fill="#7CE06A"/>
<path d="M1195.12 565.523C1195.12 557.801 1201.38 551.542 1209.1 551.542C1216.83 551.542 1223.09 557.801 1223.09 565.523V598.019C1223.09 605.741 1216.83 612 1209.1 612C1201.38 612 1195.12 605.741 1195.12 598.019V565.523Z" fill="#7CE06A"/>
</g>
<g id="Vector_22" filter="url(#filter21_d_110_887)">
<path d="M847.33 548.388C853.548 520.899 892.722 520.899 898.94 548.388L909.038 593.03C912.78 609.575 900.199 625.315 883.233 625.315H863.037C846.071 625.315 833.49 609.575 837.232 593.03L847.33 548.388Z" fill="#9DFB8D"/>
<path d="M901.103 488.34C901.103 503.991 888.412 516.679 872.757 516.679C857.102 516.679 844.411 503.991 844.411 488.34C844.411 472.688 857.102 460 872.757 460C888.412 460 901.103 472.688 901.103 488.34Z" fill="#9DFB8D"/>
<path d="M878.426 611.523C878.426 603.801 884.687 597.542 892.41 597.542C900.134 597.542 906.395 603.801 906.395 611.523V644.019C906.395 651.741 900.134 658 892.41 658C884.687 658 878.426 651.741 878.426 644.019V611.523Z" fill="#9DFB8D"/>
<path d="M889.364 557.361C885.41 550.728 887.584 542.146 894.219 538.194C900.854 534.242 909.437 536.416 913.39 543.049L930.027 570.966C933.98 577.599 931.806 586.18 925.171 590.132C918.537 594.085 909.953 591.911 906 585.278L889.364 557.361Z" fill="#9DFB8D"/>
<path d="M832.128 543.146C835.989 536.459 844.542 534.168 851.23 538.029C857.919 541.889 860.21 550.44 856.349 557.127L840.097 585.269C836.235 591.956 827.683 594.248 820.994 590.387C814.306 586.526 812.014 577.975 815.876 571.289L832.128 543.146Z" fill="#9DFB8D"/>
<path d="M839.12 611.523C839.12 603.801 845.381 597.542 853.104 597.542C860.827 597.542 867.088 603.801 867.088 611.523V644.019C867.088 651.741 860.827 658 853.104 658C845.381 658 839.12 651.741 839.12 644.019V611.523Z" fill="#9DFB8D"/>
</g>
<g id="Vector_23" filter="url(#filter22_d_110_887)">
<path d="M1123.33 548.388C1129.55 520.899 1168.72 520.899 1174.94 548.388L1185.04 593.03C1188.78 609.575 1176.2 625.315 1159.23 625.315H1139.04C1122.07 625.315 1109.49 609.575 1113.23 593.03L1123.33 548.388Z" fill="#9DFB8D"/>
<path d="M1177.1 488.34C1177.1 503.991 1164.41 516.679 1148.76 516.679C1133.1 516.679 1120.41 503.991 1120.41 488.34C1120.41 472.688 1133.1 460 1148.76 460C1164.41 460 1177.1 472.688 1177.1 488.34Z" fill="#9DFB8D"/>
<path d="M1154.43 611.523C1154.43 603.801 1160.69 597.542 1168.41 597.542C1176.13 597.542 1182.39 603.801 1182.39 611.523V644.019C1182.39 651.741 1176.13 658 1168.41 658C1160.69 658 1154.43 651.741 1154.43 644.019V611.523Z" fill="#9DFB8D"/>
<path d="M1165.36 557.361C1161.41 550.728 1163.58 542.146 1170.22 538.194C1176.85 534.242 1185.44 536.416 1189.39 543.049L1206.03 570.966C1209.98 577.599 1207.81 586.18 1201.17 590.132C1194.54 594.085 1185.95 591.911 1182 585.278L1165.36 557.361Z" fill="#9DFB8D"/>
<path d="M1108.13 543.146C1111.99 536.459 1120.54 534.168 1127.23 538.029C1133.92 541.889 1136.21 550.44 1132.35 557.127L1116.1 585.269C1112.24 591.956 1103.68 594.248 1096.99 590.387C1090.31 586.526 1088.01 577.975 1091.88 571.289L1108.13 543.146Z" fill="#9DFB8D"/>
<path d="M1115.12 611.523C1115.12 603.801 1121.38 597.542 1129.1 597.542C1136.83 597.542 1143.09 603.801 1143.09 611.523V644.019C1143.09 651.741 1136.83 658 1129.1 658C1121.38 658 1115.12 651.741 1115.12 644.019V611.523Z" fill="#9DFB8D"/>
</g>
<g id="Vector_24" filter="url(#filter23_d_110_887)">
<path d="M1261.33 548.388C1267.55 520.899 1306.72 520.899 1312.94 548.388L1323.04 593.03C1326.78 609.575 1314.2 625.315 1297.23 625.315H1277.04C1260.07 625.315 1247.49 609.575 1251.23 593.03L1261.33 548.388Z" fill="#9DFB8D"/>
<path d="M1315.1 488.34C1315.1 503.991 1302.41 516.679 1286.76 516.679C1271.1 516.679 1258.41 503.991 1258.41 488.34C1258.41 472.688 1271.1 460 1286.76 460C1302.41 460 1315.1 472.688 1315.1 488.34Z" fill="#9DFB8D"/>
<path d="M1292.43 611.523C1292.43 603.801 1298.69 597.542 1306.41 597.542C1314.13 597.542 1320.39 603.801 1320.39 611.523V644.019C1320.39 651.741 1314.13 658 1306.41 658C1298.69 658 1292.43 651.741 1292.43 644.019V611.523Z" fill="#9DFB8D"/>
<path d="M1303.36 557.361C1299.41 550.728 1301.58 542.146 1308.22 538.194C1314.85 534.242 1323.44 536.416 1327.39 543.049L1344.03 570.966C1347.98 577.599 1345.81 586.18 1339.17 590.132C1332.54 594.085 1323.95 591.911 1320 585.278L1303.36 557.361Z" fill="#9DFB8D"/>
<path d="M1246.13 543.146C1249.99 536.459 1258.54 534.168 1265.23 538.029C1271.92 541.889 1274.21 550.44 1270.35 557.127L1254.1 585.269C1250.24 591.956 1241.68 594.248 1234.99 590.387C1228.31 586.526 1226.01 577.975 1229.88 571.289L1246.13 543.146Z" fill="#9DFB8D"/>
<path d="M1253.12 611.523C1253.12 603.801 1259.38 597.542 1267.1 597.542C1274.83 597.542 1281.09 603.801 1281.09 611.523V644.019C1281.09 651.741 1274.83 658 1267.1 658C1259.38 658 1253.12 651.741 1253.12 644.019V611.523Z" fill="#9DFB8D"/>
</g>
</g>
<path id="where do we start?" d="M70.244 323L63.584 303.884H69.668L73.448 316.484L72.692 316.412L77.012 306.44H80.72L85.328 316.412L84.572 316.484L88.352 303.884H94.472L87.596 323H83.24L78.272 311.48L79.604 311.444L74.564 323H70.244ZM100.216 323V296.36H105.868V308.348L104.5 308.816C104.74 307.856 105.244 306.98 106.012 306.188C106.804 305.372 107.764 304.724 108.892 304.244C110.02 303.74 111.22 303.488 112.492 303.488C114.124 303.488 115.492 303.824 116.596 304.496C117.724 305.144 118.564 306.068 119.116 307.268C119.692 308.444 119.98 309.824 119.98 311.408V323H114.184V312.308C114.184 311.444 114.028 310.724 113.716 310.148C113.428 309.548 112.984 309.092 112.384 308.78C111.808 308.468 111.136 308.324 110.368 308.348C109.744 308.348 109.156 308.456 108.604 308.672C108.076 308.864 107.608 309.152 107.2 309.536C106.816 309.896 106.516 310.316 106.3 310.796C106.084 311.276 105.976 311.792 105.976 312.344V323H103.132C102.34 323 101.704 323 101.224 323C100.744 323 100.408 323 100.216 323ZM138.23 323.36C135.902 323.36 133.862 322.94 132.11 322.1C130.382 321.236 129.038 320.072 128.078 318.608C127.118 317.12 126.638 315.428 126.638 313.532C126.638 312.02 126.914 310.652 127.466 309.428C128.018 308.204 128.786 307.148 129.77 306.26C130.754 305.372 131.906 304.688 133.226 304.208C134.546 303.728 135.974 303.488 137.51 303.488C138.998 303.488 140.366 303.728 141.614 304.208C142.862 304.664 143.942 305.324 144.854 306.188C145.79 307.052 146.51 308.072 147.014 309.248C147.518 310.424 147.746 311.72 147.698 313.136L147.662 314.756H130.418L129.59 311.408H142.982L142.37 312.128V311.408C142.298 310.808 142.034 310.268 141.578 309.788C141.146 309.308 140.582 308.936 139.886 308.672C139.19 308.384 138.422 308.24 137.582 308.24C136.502 308.24 135.542 308.42 134.702 308.78C133.862 309.116 133.202 309.644 132.722 310.364C132.266 311.084 132.038 311.996 132.038 313.1C132.038 314.156 132.314 315.08 132.866 315.872C133.442 316.664 134.246 317.288 135.278 317.744C136.334 318.2 137.57 318.428 138.986 318.428C140.21 318.428 141.23 318.284 142.046 317.996C142.886 317.684 143.642 317.3 144.314 316.844L146.906 320.588C146.114 321.188 145.238 321.704 144.278 322.136C143.342 322.544 142.358 322.844 141.326 323.036C140.318 323.252 139.286 323.36 138.23 323.36ZM154.849 323V303.884H160.321L160.573 310.472L159.205 309.788C159.517 308.612 160.057 307.556 160.825 306.62C161.617 305.66 162.517 304.904 163.525 304.352C164.557 303.776 165.649 303.488 166.801 303.488C167.425 303.488 168.013 303.548 168.565 303.668C169.141 303.788 169.633 303.944 170.041 304.136L168.457 310.436C168.097 310.172 167.605 309.968 166.981 309.824C166.381 309.68 165.769 309.608 165.145 309.608C164.449 309.608 163.813 309.728 163.237 309.968C162.685 310.184 162.217 310.496 161.833 310.904C161.449 311.288 161.149 311.732 160.933 312.236C160.741 312.74 160.645 313.28 160.645 313.856V323H154.849ZM185.128 323.36C182.8 323.36 180.76 322.94 179.008 322.1C177.28 321.236 175.936 320.072 174.976 318.608C174.016 317.12 173.536 315.428 173.536 313.532C173.536 312.02 173.812 310.652 174.364 309.428C174.916 308.204 175.684 307.148 176.668 306.26C177.652 305.372 178.804 304.688 180.124 304.208C181.444 303.728 182.872 303.488 184.408 303.488C185.896 303.488 187.264 303.728 188.512 304.208C189.76 304.664 190.84 305.324 191.752 306.188C192.688 307.052 193.408 308.072 193.912 309.248C194.416 310.424 194.644 311.72 194.596 313.136L194.56 314.756H177.316L176.488 311.408H189.88L189.268 312.128V311.408C189.196 310.808 188.932 310.268 188.476 309.788C188.044 309.308 187.48 308.936 186.784 308.672C186.088 308.384 185.32 308.24 184.48 308.24C183.4 308.24 182.44 308.42 181.6 308.78C180.76 309.116 180.1 309.644 179.62 310.364C179.164 311.084 178.936 311.996 178.936 313.1C178.936 314.156 179.212 315.08 179.764 315.872C180.34 316.664 181.144 317.288 182.176 317.744C183.232 318.2 184.468 318.428 185.884 318.428C187.108 318.428 188.128 318.284 188.944 317.996C189.784 317.684 190.54 317.3 191.212 316.844L193.804 320.588C193.012 321.188 192.136 321.704 191.176 322.136C190.24 322.544 189.256 322.844 188.224 323.036C187.216 323.252 186.184 323.36 185.128 323.36ZM223.503 323.396C221.631 323.396 219.987 322.976 218.571 322.136C217.155 321.272 216.051 320.096 215.259 318.608C214.467 317.096 214.071 315.38 214.071 313.46C214.071 311.54 214.479 309.836 215.295 308.348C216.111 306.836 217.239 305.648 218.679 304.784C220.143 303.92 221.823 303.488 223.719 303.488C224.775 303.488 225.759 303.632 226.671 303.92C227.583 304.184 228.399 304.544 229.119 305C229.863 305.456 230.451 305.984 230.883 306.584C231.339 307.16 231.603 307.748 231.675 308.348L230.307 308.672V296.36H236.103V323H230.739L230.415 318.356L231.567 318.644C231.495 319.244 231.231 319.832 230.775 320.408C230.319 320.96 229.719 321.464 228.975 321.92C228.255 322.352 227.427 322.712 226.491 323C225.555 323.264 224.559 323.396 223.503 323.396ZM225.123 318.536C226.203 318.536 227.139 318.32 227.931 317.888C228.747 317.456 229.371 316.868 229.803 316.124C230.235 315.356 230.451 314.468 230.451 313.46C230.451 312.428 230.235 311.54 229.803 310.796C229.371 310.028 228.747 309.44 227.931 309.032C227.139 308.6 226.203 308.384 225.123 308.384C224.043 308.384 223.107 308.6 222.315 309.032C221.523 309.44 220.899 310.028 220.443 310.796C220.011 311.54 219.795 312.428 219.795 313.46C219.795 314.468 220.011 315.356 220.443 316.124C220.899 316.868 221.523 317.456 222.315 317.888C223.107 318.32 224.043 318.536 225.123 318.536ZM254.108 323.36C251.876 323.36 249.896 322.928 248.168 322.064C246.44 321.2 245.084 320.024 244.1 318.536C243.116 317.048 242.624 315.344 242.624 313.424C242.624 311.504 243.116 309.8 244.1 308.312C245.084 306.824 246.44 305.648 248.168 304.784C249.896 303.92 251.876 303.488 254.108 303.488C256.316 303.488 258.272 303.92 259.976 304.784C261.704 305.648 263.06 306.824 264.044 308.312C265.028 309.8 265.52 311.504 265.52 313.424C265.52 315.344 265.028 317.048 264.044 318.536C263.06 320.024 261.704 321.2 259.976 322.064C258.272 322.928 256.316 323.36 254.108 323.36ZM254.108 318.392C255.14 318.392 256.076 318.176 256.916 317.744C257.78 317.312 258.452 316.724 258.932 315.98C259.436 315.236 259.676 314.384 259.652 313.424C259.676 312.464 259.436 311.6 258.932 310.832C258.452 310.064 257.78 309.476 256.916 309.068C256.076 308.636 255.14 308.42 254.108 308.42C253.052 308.42 252.08 308.636 251.192 309.068C250.328 309.5 249.656 310.088 249.176 310.832C248.696 311.576 248.456 312.44 248.456 313.424C248.456 314.384 248.696 315.236 249.176 315.98C249.656 316.724 250.328 317.312 251.192 317.744C252.08 318.176 253.052 318.392 254.108 318.392ZM290.849 323L284.189 303.884H290.273L294.053 316.484L293.297 316.412L297.617 306.44H301.325L305.933 316.412L305.177 316.484L308.957 303.884H315.077L308.201 323H303.845L298.877 311.48L300.209 311.444L295.169 323H290.849ZM329.726 323.36C327.398 323.36 325.358 322.94 323.606 322.1C321.878 321.236 320.534 320.072 319.574 318.608C318.614 317.12 318.134 315.428 318.134 313.532C318.134 312.02 318.41 310.652 318.962 309.428C319.514 308.204 320.282 307.148 321.266 306.26C322.25 305.372 323.402 304.688 324.722 304.208C326.042 303.728 327.47 303.488 329.006 303.488C330.494 303.488 331.862 303.728 333.11 304.208C334.358 304.664 335.438 305.324 336.35 306.188C337.286 307.052 338.006 308.072 338.51 309.248C339.014 310.424 339.242 311.72 339.194 313.136L339.158 314.756H321.914L321.086 311.408H334.478L333.866 312.128V311.408C333.794 310.808 333.53 310.268 333.074 309.788C332.642 309.308 332.078 308.936 331.382 308.672C330.686 308.384 329.918 308.24 329.078 308.24C327.998 308.24 327.038 308.42 326.198 308.78C325.358 309.116 324.698 309.644 324.218 310.364C323.762 311.084 323.534 311.996 323.534 313.1C323.534 314.156 323.81 315.08 324.362 315.872C324.938 316.664 325.742 317.288 326.774 317.744C327.83 318.2 329.066 318.428 330.482 318.428C331.706 318.428 332.726 318.284 333.542 317.996C334.382 317.684 335.138 317.3 335.81 316.844L338.402 320.588C337.61 321.188 336.734 321.704 335.774 322.136C334.838 322.544 333.854 322.844 332.822 323.036C331.814 323.252 330.782 323.36 329.726 323.36ZM368.101 323.36C365.989 323.36 364.093 323.06 362.413 322.46C360.757 321.86 359.425 321.008 358.417 319.904L361.909 316.808C362.725 317.576 363.697 318.164 364.825 318.572C365.953 318.98 367.141 319.184 368.389 319.184C368.773 319.184 369.145 319.148 369.505 319.076C369.889 319.004 370.213 318.908 370.477 318.788C370.765 318.644 370.993 318.476 371.161 318.284C371.329 318.092 371.413 317.852 371.413 317.564C371.413 317.108 371.125 316.748 370.549 316.484C370.141 316.34 369.625 316.196 369.001 316.052C368.377 315.908 367.669 315.752 366.877 315.584C365.557 315.344 364.393 315.056 363.385 314.72C362.401 314.36 361.573 313.916 360.901 313.388C360.325 312.884 359.881 312.308 359.569 311.66C359.257 311.012 359.101 310.256 359.101 309.392C359.101 308.504 359.329 307.7 359.785 306.98C360.241 306.236 360.877 305.612 361.693 305.108C362.509 304.58 363.445 304.184 364.501 303.92C365.557 303.632 366.661 303.488 367.813 303.488C368.965 303.488 370.093 303.608 371.197 303.848C372.301 304.064 373.345 304.388 374.329 304.82C375.313 305.228 376.177 305.756 376.921 306.404L373.969 309.86C373.441 309.452 372.829 309.08 372.133 308.744C371.437 308.408 370.693 308.144 369.901 307.952C369.133 307.736 368.377 307.628 367.633 307.628C367.225 307.628 366.829 307.652 366.445 307.7C366.085 307.748 365.773 307.844 365.509 307.988C365.245 308.108 365.029 308.264 364.861 308.456C364.717 308.624 364.645 308.84 364.645 309.104C364.645 309.32 364.705 309.524 364.825 309.716C364.945 309.908 365.125 310.064 365.365 310.184C365.701 310.4 366.193 310.592 366.841 310.76C367.513 310.928 368.353 311.108 369.361 311.3C370.825 311.612 372.073 311.972 373.105 312.38C374.137 312.764 374.965 313.232 375.589 313.784C376.093 314.168 376.465 314.648 376.705 315.224C376.945 315.776 377.065 316.388 377.065 317.06C377.065 318.284 376.669 319.376 375.877 320.336C375.109 321.272 374.053 322.016 372.709 322.568C371.389 323.096 369.853 323.36 368.101 323.36ZM385.517 323V298.628H391.277V323H385.517ZM381.269 308.924V303.884H396.137V308.924H381.269ZM410.396 323.324C408.5 323.324 406.844 322.904 405.428 322.064C404.012 321.224 402.896 320.06 402.08 318.572C401.288 317.06 400.892 315.344 400.892 313.424C400.892 311.48 401.3 309.764 402.116 308.276C402.932 306.788 404.06 305.624 405.5 304.784C406.964 303.92 408.644 303.488 410.54 303.488C411.62 303.488 412.616 303.632 413.528 303.92C414.44 304.184 415.232 304.556 415.904 305.036C416.6 305.516 417.164 306.044 417.596 306.62C418.052 307.196 418.352 307.796 418.496 308.42H417.236V303.884H422.924V323H417.128V318.104L418.352 318.284C418.208 318.908 417.908 319.52 417.452 320.12C416.996 320.72 416.408 321.26 415.688 321.74C414.968 322.22 414.152 322.604 413.24 322.892C412.352 323.18 411.404 323.324 410.396 323.324ZM411.944 318.464C413.024 318.464 413.96 318.26 414.752 317.852C415.568 317.444 416.192 316.868 416.624 316.124C417.08 315.356 417.308 314.456 417.308 313.424C417.308 312.416 417.08 311.54 416.624 310.796C416.192 310.028 415.568 309.428 414.752 308.996C413.96 308.564 413.024 308.348 411.944 308.348C410.864 308.348 409.928 308.564 409.136 308.996C408.344 309.428 407.72 310.028 407.264 310.796C406.832 311.54 406.616 312.416 406.616 313.424C406.616 314.456 406.832 315.356 407.264 316.124C407.72 316.868 408.344 317.444 409.136 317.852C409.928 318.26 410.864 318.464 411.944 318.464ZM431.809 323V303.884H437.281L437.533 310.472L436.165 309.788C436.477 308.612 437.017 307.556 437.785 306.62C438.577 305.66 439.477 304.904 440.485 304.352C441.517 303.776 442.609 303.488 443.761 303.488C444.385 303.488 444.973 303.548 445.525 303.668C446.101 303.788 446.593 303.944 447.001 304.136L445.417 310.436C445.057 310.172 444.565 309.968 443.941 309.824C443.341 309.68 442.729 309.608 442.105 309.608C441.409 309.608 440.773 309.728 440.197 309.968C439.645 310.184 439.177 310.496 438.793 310.904C438.409 311.288 438.109 311.732 437.893 312.236C437.701 312.74 437.605 313.28 437.605 313.856V323H431.809ZM456.041 323V298.628H461.801V323H456.041ZM451.793 308.924V303.884H466.661V308.924H451.793ZM478.647 314.36L477.495 309.428C478.119 309.308 478.755 309.152 479.403 308.96C480.051 308.768 480.687 308.552 481.311 308.312C481.935 308.072 482.475 307.784 482.931 307.448C483.411 307.112 483.783 306.74 484.047 306.332C484.335 305.9 484.479 305.444 484.479 304.964C484.479 304.46 484.323 304.052 484.011 303.74C483.723 303.404 483.339 303.164 482.859 303.02C482.403 302.852 481.887 302.768 481.311 302.768C480.159 302.768 479.079 303.056 478.071 303.632C477.087 304.208 476.199 305.108 475.407 306.332L471.483 302.48C472.683 300.848 474.123 299.576 475.803 298.664C477.507 297.728 479.367 297.26 481.383 297.26C483.111 297.26 484.659 297.584 486.027 298.232C487.419 298.856 488.511 299.732 489.303 300.86C490.095 301.964 490.491 303.212 490.491 304.604C490.491 305.516 490.275 306.416 489.843 307.304C489.411 308.168 488.811 308.972 488.043 309.716C487.299 310.46 486.435 311.12 485.451 311.696C484.467 312.248 483.411 312.68 482.283 312.992L481.887 314.36H478.647ZM477.099 320.192C477.099 319.28 477.411 318.512 478.035 317.888C478.683 317.264 479.571 316.952 480.699 316.952C481.875 316.952 482.775 317.24 483.399 317.816C484.023 318.392 484.335 319.184 484.335 320.192C484.335 321.08 484.011 321.836 483.363 322.46C482.739 323.084 481.851 323.396 480.699 323.396C479.523 323.396 478.623 323.12 477.999 322.568C477.399 321.992 477.099 321.2 477.099 320.192Z" fill="white"/>
<g id="next">
<g id="Next">
<path id="Next_2" d="M1113.81 914V869.2H1123.79L1150.86 901.2L1149.01 900.88C1148.75 899.387 1148.56 897.957 1148.43 896.592C1148.3 895.227 1148.18 893.904 1148.05 892.624C1147.96 891.344 1147.88 890.064 1147.79 888.784C1147.75 887.504 1147.73 886.16 1147.73 884.752C1147.73 883.344 1147.73 881.851 1147.73 880.272V869.2H1158.29V914H1148.18L1120.08 880.976L1123.09 881.424C1123.22 882.917 1123.34 884.261 1123.47 885.456C1123.64 886.651 1123.77 887.781 1123.86 888.848C1123.98 889.872 1124.07 890.917 1124.11 891.984C1124.2 893.008 1124.26 894.096 1124.3 895.248C1124.35 896.4 1124.37 897.659 1124.37 899.024V914H1113.81ZM1190.89 914.64C1186.76 914.64 1183.13 913.893 1180.01 912.4C1176.94 910.864 1174.55 908.795 1172.85 906.192C1171.14 903.547 1170.29 900.539 1170.29 897.168C1170.29 894.48 1170.78 892.048 1171.76 889.872C1172.74 887.696 1174.11 885.819 1175.85 884.24C1177.6 882.661 1179.65 881.445 1182 880.592C1184.35 879.739 1186.88 879.312 1189.61 879.312C1192.26 879.312 1194.69 879.739 1196.91 880.592C1199.13 881.403 1201.05 882.576 1202.67 884.112C1204.33 885.648 1205.61 887.461 1206.51 889.552C1207.41 891.643 1207.81 893.947 1207.73 896.464L1207.66 899.344H1177.01L1175.53 893.392H1199.34L1198.25 894.672V893.392C1198.13 892.325 1197.66 891.365 1196.85 890.512C1196.08 889.659 1195.08 888.997 1193.84 888.528C1192.6 888.016 1191.24 887.76 1189.74 887.76C1187.82 887.76 1186.12 888.08 1184.62 888.72C1183.13 889.317 1181.96 890.256 1181.1 891.536C1180.29 892.816 1179.89 894.437 1179.89 896.4C1179.89 898.277 1180.38 899.92 1181.36 901.328C1182.38 902.736 1183.81 903.845 1185.65 904.656C1187.52 905.467 1189.72 905.872 1192.24 905.872C1194.41 905.872 1196.23 905.616 1197.68 905.104C1199.17 904.549 1200.52 903.867 1201.71 903.056L1206.32 909.712C1204.91 910.779 1203.35 911.696 1201.65 912.464C1199.98 913.189 1198.23 913.723 1196.4 914.064C1194.61 914.448 1192.77 914.64 1190.89 914.64ZM1244.57 914L1235.16 901.776L1232.54 898.32L1217.63 880.016H1230.56L1239 891.216L1241.82 894.928L1257.37 914H1244.57ZM1216.8 914L1232.03 894.8L1238.24 901.136L1229.53 914H1216.8ZM1241.76 899.216L1235.74 892.816L1244.32 880.016H1256.99L1241.76 899.216ZM1273.39 914V870.672H1283.63V914H1273.39ZM1265.84 888.976V880.016H1292.27V888.976H1265.84Z" fill="white"/>
</g>
<path id="Arrow 1" d="M1107 918.5C1102.31 918.5 1098.5 922.306 1098.5 927C1098.5 931.694 1102.31 935.5 1107 935.5V927V918.5ZM1384 927L1299 877.925V976.075L1384 927ZM1107 927V935.5H1307.5V927V918.5H1107V927Z" fill="#EF1044"/>
</g>
</g>
<defs>
<filter id="filter0_d_110_887" x="137" y="391" width="108" height="176" filterUnits="userSpaceOnUse" color-interpolation-filters="sRGB">
<feFlood flood-opacity="0" result="BackgroundImageFix"/>
<feColorMatrix in="SourceAlpha" type="matrix" values="0 0 0 0 0 0 0 0 0 0 0 0 0 0 0 0 0 0 127 0" result="hardAlpha"/>
<feOffset dy="4"/>
<feGaussianBlur stdDeviation="2"/>
<feComposite in2="hardAlpha" operator="out"/>
<feColorMatrix type="matrix" values="0 0 0 0 0 0 0 0 0 0 0 0 0 0 0 0 0 0 0.25 0"/>
<feBlend mode="normal" in2="BackgroundImageFix" result="effect1_dropShadow_110_887"/>
<feBlend mode="normal" in="SourceGraphic" in2="effect1_dropShadow_110_887" result="shape"/>
</filter>
<filter id="filter1_d_110_887" x="371" y="391" width="109" height="176" filterUnits="userSpaceOnUse" color-interpolation-filters="sRGB">
<feFlood flood-opacity="0" result="BackgroundImageFix"/>
<feColorMatrix in="SourceAlpha" type="matrix" values="0 0 0 0 0 0 0 0 0 0 0 0 0 0 0 0 0 0 127 0" result="hardAlpha"/>
<feOffset dy="4"/>
<feGaussianBlur stdDeviation="2"/>
<feComposite in2="hardAlpha" operator="out"/>
<feColorMatrix type="matrix" values="0 0 0 0 0 0 0 0 0 0 0 0 0 0 0 0 0 0 0.25 0"/>
<feBlend mode="normal" in2="BackgroundImageFix" result="effect1_dropShadow_110_887"/>
<feBlend mode="normal" in="SourceGraphic" in2="effect1_dropShadow_110_887" result="shape"/>
</filter>
<filter id="filter2_d_110_887" x="254" y="391" width="109" height="176" filterUnits="userSpaceOnUse" color-interpolation-filters="sRGB">
<feFlood flood-opacity="0" result="BackgroundImageFix"/>
<feColorMatrix in="SourceAlpha" type="matrix" values="0 0 0 0 0 0 0 0 0 0 0 0 0 0 0 0 0 0 127 0" result="hardAlpha"/>
<feOffset dy="4"/>
<feGaussianBlur stdDeviation="2"/>
<feComposite in2="hardAlpha" operator="out"/>
<feColorMatrix type="matrix" values="0 0 0 0 0 0 0 0 0 0 0 0 0 0 0 0 0 0 0.25 0"/>
<feBlend mode="normal" in2="BackgroundImageFix" result="effect1_dropShadow_110_887"/>
<feBlend mode="normal" in="SourceGraphic" in2="effect1_dropShadow_110_887" result="shape"/>
</filter>
<filter id="filter3_d_110_887" x="489" y="391" width="108" height="176" filterUnits="userSpaceOnUse" color-interpolation-filters="sRGB">
<feFlood flood-opacity="0" result="BackgroundImageFix"/>
<feColorMatrix in="SourceAlpha" type="matrix" values="0 0 0 0 0 0 0 0 0 0 0 0 0 0 0 0 0 0 127 0" result="hardAlpha"/>
<feOffset dy="4"/>
<feGaussianBlur stdDeviation="2"/>
<feComposite in2="hardAlpha" operator="out"/>
<feColorMatrix type="matrix" values="0 0 0 0 0 0 0 0 0 0 0 0 0 0 0 0 0 0 0.25 0"/>
<feBlend mode="normal" in2="BackgroundImageFix" result="effect1_dropShadow_110_887"/>
<feBlend mode="normal" in="SourceGraphic" in2="effect1_dropShadow_110_887" result="shape"/>
</filter>
<filter id="filter4_d_110_887" x="31" y="414" width="126" height="206" filterUnits="userSpaceOnUse" color-interpolation-filters="sRGB">
<feFlood flood-opacity="0" result="BackgroundImageFix"/>
<feColorMatrix in="SourceAlpha" type="matrix" values="0 0 0 0 0 0 0 0 0 0 0 0 0 0 0 0 0 0 127 0" result="hardAlpha"/>
<feOffset dy="4"/>
<feGaussianBlur stdDeviation="2"/>
<feComposite in2="hardAlpha" operator="out"/>
<feColorMatrix type="matrix" values="0 0 0 0 0 0 0 0 0 0 0 0 0 0 0 0 0 0 0.25 0"/>
<feBlend mode="normal" in2="BackgroundImageFix" result="effect1_dropShadow_110_887"/>
<feBlend mode="normal" in="SourceGraphic" in2="effect1_dropShadow_110_887" result="shape"/>
</filter>
<filter id="filter5_d_110_887" x="307" y="414" width="126" height="206" filterUnits="userSpaceOnUse" color-interpolation-filters="sRGB">
<feFlood flood-opacity="0" result="BackgroundImageFix"/>
<feColorMatrix in="SourceAlpha" type="matrix" values="0 0 0 0 0 0 0 0 0 0 0 0 0 0 0 0 0 0 127 0" result="hardAlpha"/>
<feOffset dy="4"/>
<feGaussianBlur stdDeviation="2"/>
<feComposite in2="hardAlpha" operator="out"/>
<feColorMatrix type="matrix" values="0 0 0 0 0 0 0 0 0 0 0 0 0 0 0 0 0 0 0.25 0"/>
<feBlend mode="normal" in2="BackgroundImageFix" result="effect1_dropShadow_110_887"/>
<feBlend mode="normal" in="SourceGraphic" in2="effect1_dropShadow_110_887" result="shape"/>
</filter>
<filter id="filter6_d_110_887" x="169" y="414" width="126" height="206" filterUnits="userSpaceOnUse" color-interpolation-filters="sRGB">
<feFlood flood-opacity="0" result="BackgroundImageFix"/>
<feColorMatrix in="SourceAlpha" type="matrix" values="0 0 0 0 0 0 0 0 0 0 0 0 0 0 0 0 0 0 127 0" result="hardAlpha"/>
<feOffset dy="4"/>
<feGaussianBlur stdDeviation="2"/>
<feComposite in2="hardAlpha" operator="out"/>
<feColorMatrix type="matrix" values="0 0 0 0 0 0 0 0 0 0 0 0 0 0 0 0 0 0 0.25 0"/>
<feBlend mode="normal" in2="BackgroundImageFix" result="effect1_dropShadow_110_887"/>
<feBlend mode="normal" in="SourceGraphic" in2="effect1_dropShadow_110_887" result="shape"/>
</filter>
<filter id="filter7_d_110_887" x="227" y="460" width="126" height="206" filterUnits="userSpaceOnUse" color-interpolation-filters="sRGB">
<feFlood flood-opacity="0" result="BackgroundImageFix"/>
<feColorMatrix in="SourceAlpha" type="matrix" values="0 0 0 0 0 0 0 0 0 0 0 0 0 0 0 0 0 0 127 0" result="hardAlpha"/>
<feOffset dy="4"/>
<feGaussianBlur stdDeviation="2"/>
<feComposite in2="hardAlpha" operator="out"/>
<feColorMatrix type="matrix" values="0 0 0 0 0 0 0 0 0 0 0 0 0 0 0 0 0 0 0.25 0"/>
<feBlend mode="normal" in2="BackgroundImageFix" result="effect1_dropShadow_110_887"/>
<feBlend mode="normal" in="SourceGraphic" in2="effect1_dropShadow_110_887" result="shape"/>
</filter>
<filter id="filter8_d_110_887" x="445" y="414" width="126" height="206" filterUnits="userSpaceOnUse" color-interpolation-filters="sRGB">
<feFlood flood-opacity="0" result="BackgroundImageFix"/>
<feColorMatrix in="SourceAlpha" type="matrix" values="0 0 0 0 0 0 0 0 0 0 0 0 0 0 0 0 0 0 127 0" result="hardAlpha"/>
<feOffset dy="4"/>
<feGaussianBlur stdDeviation="2"/>
<feComposite in2="hardAlpha" operator="out"/>
<feColorMatrix type="matrix" values="0 0 0 0 0 0 0 0 0 0 0 0 0 0 0 0 0 0 0.25 0"/>
<feBlend mode="normal" in2="BackgroundImageFix" result="effect1_dropShadow_110_887"/>
<feBlend mode="normal" in="SourceGraphic" in2="effect1_dropShadow_110_887" result="shape"/>
</filter>
<filter id="filter9_d_110_887" x="89" y="460" width="126" height="206" filterUnits="userSpaceOnUse" color-interpolation-filters="sRGB">
<feFlood flood-opacity="0" result="BackgroundImageFix"/>
<feColorMatrix in="SourceAlpha" type="matrix" values="0 0 0 0 0 0 0 0 0 0 0 0 0 0 0 0 0 0 127 0" result="hardAlpha"/>
<feOffset dy="4"/>
<feGaussianBlur stdDeviation="2"/>
<feComposite in2="hardAlpha" operator="out"/>
<feColorMatrix type="matrix" values="0 0 0 0 0 0 0 0 0 0 0 0 0 0 0 0 0 0 0.25 0"/>
<feBlend mode="normal" in2="BackgroundImageFix" result="effect1_dropShadow_110_887"/>
<feBlend mode="normal" in="SourceGraphic" in2="effect1_dropShadow_110_887" result="shape"/>
</filter>
<filter id="filter10_d_110_887" x="365" y="460" width="126" height="206" filterUnits="userSpaceOnUse" color-interpolation-filters="sRGB">
<feFlood flood-opacity="0" result="BackgroundImageFix"/>
<feColorMatrix in="SourceAlpha" type="matrix" values="0 0 0 0 0 0 0 0 0 0 0 0 0 0 0 0 0 0 127 0" result="hardAlpha"/>
<feOffset dy="4"/>
<feGaussianBlur stdDeviation="2"/>
<feComposite in2="hardAlpha" operator="out"/>
<feColorMatrix type="matrix" values="0 0 0 0 0 0 0 0 0 0 0 0 0 0 0 0 0 0 0.25 0"/>
<feBlend mode="normal" in2="BackgroundImageFix" result="effect1_dropShadow_110_887"/>
<feBlend mode="normal" in="SourceGraphic" in2="effect1_dropShadow_110_887" result="shape"/>
</filter>
<filter id="filter11_d_110_887" x="503" y="460" width="126" height="206" filterUnits="userSpaceOnUse" color-interpolation-filters="sRGB">
<feFlood flood-opacity="0" result="BackgroundImageFix"/>
<feColorMatrix in="SourceAlpha" type="matrix" values="0 0 0 0 0 0 0 0 0 0 0 0 0 0 0 0 0 0 127 0" result="hardAlpha"/>
<feOffset dy="4"/>
<feGaussianBlur stdDeviation="2"/>
<feComposite in2="hardAlpha" operator="out"/>
<feColorMatrix type="matrix" values="0 0 0 0 0 0 0 0 0 0 0 0 0 0 0 0 0 0 0.25 0"/>
<feBlend mode="normal" in2="BackgroundImageFix" result="effect1_dropShadow_110_887"/>
<feBlend mode="normal" in="SourceGraphic" in2="effect1_dropShadow_110_887" result="shape"/>
</filter>
<filter id="filter12_d_110_887" x="858" y="391" width="108" height="176" filterUnits="userSpaceOnUse" color-interpolation-filters="sRGB">
<feFlood flood-opacity="0" result="BackgroundImageFix"/>
<feColorMatrix in="SourceAlpha" type="matrix" values="0 0 0 0 0 0 0 0 0 0 0 0 0 0 0 0 0 0 127 0" result="hardAlpha"/>
<feOffset dy="4"/>
<feGaussianBlur stdDeviation="2"/>
<feComposite in2="hardAlpha" operator="out"/>
<feColorMatrix type="matrix" values="0 0 0 0 0 0 0 0 0 0 0 0 0 0 0 0 0 0 0.25 0"/>
<feBlend mode="normal" in2="BackgroundImageFix" result="effect1_dropShadow_110_887"/>
<feBlend mode="normal" in="SourceGraphic" in2="effect1_dropShadow_110_887" result="shape"/>
</filter>
<filter id="filter13_d_110_887" x="1092" y="391" width="109" height="176" filterUnits="userSpaceOnUse" color-interpolation-filters="sRGB">
<feFlood flood-opacity="0" result="BackgroundImageFix"/>
<feColorMatrix in="SourceAlpha" type="matrix" values="0 0 0 0 0 0 0 0 0 0 0 0 0 0 0 0 0 0 127 0" result="hardAlpha"/>
<feOffset dy="4"/>
<feGaussianBlur stdDeviation="2"/>
<feComposite in2="hardAlpha" operator="out"/>
<feColorMatrix type="matrix" values="0 0 0 0 0 0 0 0 0 0 0 0 0 0 0 0 0 0 0.25 0"/>
<feBlend mode="normal" in2="BackgroundImageFix" result="effect1_dropShadow_110_887"/>
<feBlend mode="normal" in="SourceGraphic" in2="effect1_dropShadow_110_887" result="shape"/>
</filter>
<filter id="filter14_d_110_887" x="975" y="391" width="109" height="176" filterUnits="userSpaceOnUse" color-interpolation-filters="sRGB">
<feFlood flood-opacity="0" result="BackgroundImageFix"/>
<feColorMatrix in="SourceAlpha" type="matrix" values="0 0 0 0 0 0 0 0 0 0 0 0 0 0 0 0 0 0 127 0" result="hardAlpha"/>
<feOffset dy="4"/>
<feGaussianBlur stdDeviation="2"/>
<feComposite in2="hardAlpha" operator="out"/>
<feColorMatrix type="matrix" values="0 0 0 0 0 0 0 0 0 0 0 0 0 0 0 0 0 0 0.25 0"/>
<feBlend mode="normal" in2="BackgroundImageFix" result="effect1_dropShadow_110_887"/>
<feBlend mode="normal" in="SourceGraphic" in2="effect1_dropShadow_110_887" result="shape"/>
</filter>
<filter id="filter15_d_110_887" x="1210" y="391" width="108" height="176" filterUnits="userSpaceOnUse" color-interpolation-filters="sRGB">
<feFlood flood-opacity="0" result="BackgroundImageFix"/>
<feColorMatrix in="SourceAlpha" type="matrix" values="0 0 0 0 0 0 0 0 0 0 0 0 0 0 0 0 0 0 127 0" result="hardAlpha"/>
<feOffset dy="4"/>
<feGaussianBlur stdDeviation="2"/>
<feComposite in2="hardAlpha" operator="out"/>
<feColorMatrix type="matrix" values="0 0 0 0 0 0 0 0 0 0 0 0 0 0 0 0 0 0 0.25 0"/>
<feBlend mode="normal" in2="BackgroundImageFix" result="effect1_dropShadow_110_887"/>
<feBlend mode="normal" in="SourceGraphic" in2="effect1_dropShadow_110_887" result="shape"/>
</filter>
<filter id="filter16_d_110_887" x="752" y="414" width="126" height="206" filterUnits="userSpaceOnUse" color-interpolation-filters="sRGB">
<feFlood flood-opacity="0" result="BackgroundImageFix"/>
<feColorMatrix in="SourceAlpha" type="matrix" values="0 0 0 0 0 0 0 0 0 0 0 0 0 0 0 0 0 0 127 0" result="hardAlpha"/>
<feOffset dy="4"/>
<feGaussianBlur stdDeviation="2"/>
<feComposite in2="hardAlpha" operator="out"/>
<feColorMatrix type="matrix" values="0 0 0 0 0 0 0 0 0 0 0 0 0 0 0 0 0 0 0.25 0"/>
<feBlend mode="normal" in2="BackgroundImageFix" result="effect1_dropShadow_110_887"/>
<feBlend mode="normal" in="SourceGraphic" in2="effect1_dropShadow_110_887" result="shape"/>
</filter>
<filter id="filter17_d_110_887" x="1028" y="414" width="126" height="206" filterUnits="userSpaceOnUse" color-interpolation-filters="sRGB">
<feFlood flood-opacity="0" result="BackgroundImageFix"/>
<feColorMatrix in="SourceAlpha" type="matrix" values="0 0 0 0 0 0 0 0 0 0 0 0 0 0 0 0 0 0 127 0" result="hardAlpha"/>
<feOffset dy="4"/>
<feGaussianBlur stdDeviation="2"/>
<feComposite in2="hardAlpha" operator="out"/>
<feColorMatrix type="matrix" values="0 0 0 0 0 0 0 0 0 0 0 0 0 0 0 0 0 0 0.25 0"/>
<feBlend mode="normal" in2="BackgroundImageFix" result="effect1_dropShadow_110_887"/>
<feBlend mode="normal" in="SourceGraphic" in2="effect1_dropShadow_110_887" result="shape"/>
</filter>
<filter id="filter18_d_110_887" x="890" y="414" width="126" height="206" filterUnits="userSpaceOnUse" color-interpolation-filters="sRGB">
<feFlood flood-opacity="0" result="BackgroundImageFix"/>
<feColorMatrix in="SourceAlpha" type="matrix" values="0 0 0 0 0 0 0 0 0 0 0 0 0 0 0 0 0 0 127 0" result="hardAlpha"/>
<feOffset dy="4"/>
<feGaussianBlur stdDeviation="2"/>
<feComposite in2="hardAlpha" operator="out"/>
<feColorMatrix type="matrix" values="0 0 0 0 0 0 0 0 0 0 0 0 0 0 0 0 0 0 0.25 0"/>
<feBlend mode="normal" in2="BackgroundImageFix" result="effect1_dropShadow_110_887"/>
<feBlend mode="normal" in="SourceGraphic" in2="effect1_dropShadow_110_887" result="shape"/>
</filter>
<filter id="filter19_d_110_887" x="948" y="460" width="126" height="206" filterUnits="userSpaceOnUse" color-interpolation-filters="sRGB">
<feFlood flood-opacity="0" result="BackgroundImageFix"/>
<feColorMatrix in="SourceAlpha" type="matrix" values="0 0 0 0 0 0 0 0 0 0 0 0 0 0 0 0 0 0 127 0" result="hardAlpha"/>
<feOffset dy="4"/>
<feGaussianBlur stdDeviation="2"/>
<feComposite in2="hardAlpha" operator="out"/>
<feColorMatrix type="matrix" values="0 0 0 0 0 0 0 0 0 0 0 0 0 0 0 0 0 0 0.25 0"/>
<feBlend mode="normal" in2="BackgroundImageFix" result="effect1_dropShadow_110_887"/>
<feBlend mode="normal" in="SourceGraphic" in2="effect1_dropShadow_110_887" result="shape"/>
</filter>
<filter id="filter20_d_110_887" x="1166" y="414" width="126" height="206" filterUnits="userSpaceOnUse" color-interpolation-filters="sRGB">
<feFlood flood-opacity="0" result="BackgroundImageFix"/>
<feColorMatrix in="SourceAlpha" type="matrix" values="0 0 0 0 0 0 0 0 0 0 0 0 0 0 0 0 0 0 127 0" result="hardAlpha"/>
<feOffset dy="4"/>
<feGaussianBlur stdDeviation="2"/>
<feComposite in2="hardAlpha" operator="out"/>
<feColorMatrix type="matrix" values="0 0 0 0 0 0 0 0 0 0 0 0 0 0 0 0 0 0 0.25 0"/>
<feBlend mode="normal" in2="BackgroundImageFix" result="effect1_dropShadow_110_887"/>
<feBlend mode="normal" in="SourceGraphic" in2="effect1_dropShadow_110_887" result="shape"/>
</filter>
<filter id="filter21_d_110_887" x="810" y="460" width="126" height="206" filterUnits="userSpaceOnUse" color-interpolation-filters="sRGB">
<feFlood flood-opacity="0" result="BackgroundImageFix"/>
<feColorMatrix in="SourceAlpha" type="matrix" values="0 0 0 0 0 0 0 0 0 0 0 0 0 0 0 0 0 0 127 0" result="hardAlpha"/>
<feOffset dy="4"/>
<feGaussianBlur stdDeviation="2"/>
<feComposite in2="hardAlpha" operator="out"/>
<feColorMatrix type="matrix" values="0 0 0 0 0 0 0 0 0 0 0 0 0 0 0 0 0 0 0.25 0"/>
<feBlend mode="normal" in2="BackgroundImageFix" result="effect1_dropShadow_110_887"/>
<feBlend mode="normal" in="SourceGraphic" in2="effect1_dropShadow_110_887" result="shape"/>
</filter>
<filter id="filter22_d_110_887" x="1086" y="460" width="126" height="206" filterUnits="userSpaceOnUse" color-interpolation-filters="sRGB">
<feFlood flood-opacity="0" result="BackgroundImageFix"/>
<feColorMatrix in="SourceAlpha" type="matrix" values="0 0 0 0 0 0 0 0 0 0 0 0 0 0 0 0 0 0 127 0" result="hardAlpha"/>
<feOffset dy="4"/>
<feGaussianBlur stdDeviation="2"/>
<feComposite in2="hardAlpha" operator="out"/>
<feColorMatrix type="matrix" values="0 0 0 0 0 0 0 0 0 0 0 0 0 0 0 0 0 0 0.25 0"/>
<feBlend mode="normal" in2="BackgroundImageFix" result="effect1_dropShadow_110_887"/>
<feBlend mode="normal" in="SourceGraphic" in2="effect1_dropShadow_110_887" result="shape"/>
</filter>
<filter id="filter23_d_110_887" x="1224" y="460" width="126" height="206" filterUnits="userSpaceOnUse" color-interpolation-filters="sRGB">
<feFlood flood-opacity="0" result="BackgroundImageFix"/>
<feColorMatrix in="SourceAlpha" type="matrix" values="0 0 0 0 0 0 0 0 0 0 0 0 0 0 0 0 0 0 127 0" result="hardAlpha"/>
<feOffset dy="4"/>
<feGaussianBlur stdDeviation="2"/>
<feComposite in2="hardAlpha" operator="out"/>
<feColorMatrix type="matrix" values="0 0 0 0 0 0 0 0 0 0 0 0 0 0 0 0 0 0 0.25 0"/>
<feBlend mode="normal" in2="BackgroundImageFix" result="effect1_dropShadow_110_887"/>
<feBlend mode="normal" in="SourceGraphic" in2="effect1_dropShadow_110_887" result="shape"/>
</filter>
<clipPath id="clip0_110_887">
<rect width="1440" height="1024" fill="white"/>
</clipPath>
</defs>
</svg>
