<svg width="1440" height="1024" viewBox="0 0 1440 1024" fill="none" xmlns="http://www.w3.org/2000/svg">
<g id="planning2-no" clip-path="url(#clip0_110_797)">
<rect width="1440" height="1024" fill="#333148"/>
<path id="part 3" d="M47.096 132.12V60.024H61.688L62.264 71.448L59.384 70.584C59.832 68.536 61.048 66.648 63.032 64.92C65.016 63.192 67.512 61.784 70.52 60.696C73.592 59.608 76.856 59.064 80.312 59.064C85.304 59.064 89.688 60.216 93.464 62.52C97.24 64.76 100.184 67.864 102.296 71.832C104.472 75.736 105.56 80.28 105.56 85.464C105.56 90.584 104.472 95.128 102.296 99.096C100.184 103.064 97.208 106.2 93.368 108.504C89.528 110.744 85.112 111.864 80.12 111.864C76.664 111.864 73.432 111.288 70.424 110.136C67.416 108.984 64.888 107.48 62.84 105.624C60.856 103.768 59.576 101.816 59 99.768L62.552 98.424V132.12H47.096ZM76.376 98.904C79.256 98.904 81.752 98.36 83.864 97.272C85.976 96.12 87.608 94.552 88.76 92.568C89.976 90.584 90.584 88.216 90.584 85.464C90.584 82.776 89.976 80.44 88.76 78.456C87.608 76.408 85.976 74.84 83.864 73.752C81.816 72.6 79.32 72.024 76.376 72.024C73.496 72.024 70.968 72.568 68.792 73.656C66.68 74.744 65.016 76.312 63.8 78.36C62.648 80.408 62.072 82.776 62.072 85.464C62.072 88.216 62.648 90.584 63.8 92.568C65.016 94.552 66.68 96.12 68.792 97.272C70.968 98.36 73.496 98.904 76.376 98.904ZM144.211 111.864C139.155 111.864 134.739 110.744 130.963 108.504C127.187 106.264 124.211 103.16 122.035 99.192C119.923 95.16 118.867 90.584 118.867 85.464C118.867 80.28 119.955 75.704 122.131 71.736C124.307 67.768 127.315 64.664 131.155 62.424C135.059 60.12 139.539 58.968 144.595 58.968C147.475 58.968 150.131 59.352 152.563 60.12C154.995 60.824 157.107 61.816 158.899 63.096C160.755 64.376 162.259 65.784 163.411 67.32C164.627 68.856 165.427 70.456 165.811 72.12H162.451V60.024H177.619V111H162.163V97.944L165.427 98.424C165.043 100.088 164.243 101.72 163.027 103.32C161.811 104.92 160.243 106.36 158.323 107.64C156.403 108.92 154.227 109.944 151.795 110.712C149.427 111.48 146.899 111.864 144.211 111.864ZM148.339 98.904C151.219 98.904 153.715 98.36 155.827 97.272C158.003 96.184 159.667 94.648 160.819 92.664C162.035 90.616 162.643 88.216 162.643 85.464C162.643 82.776 162.035 80.44 160.819 78.456C159.667 76.408 158.003 74.808 155.827 73.656C153.715 72.504 151.219 71.928 148.339 71.928C145.459 71.928 142.963 72.504 140.851 73.656C138.739 74.808 137.075 76.408 135.859 78.456C134.707 80.44 134.131 82.776 134.131 85.464C134.131 88.216 134.707 90.616 135.859 92.664C137.075 94.648 138.739 96.184 140.851 97.272C142.963 98.36 145.459 98.904 148.339 98.904ZM201.315 111V60.024H215.907L216.579 77.592L212.931 75.768C213.763 72.632 215.203 69.816 217.251 67.32C219.363 64.76 221.763 62.744 224.451 61.272C227.203 59.736 230.115 58.968 233.187 58.968C234.851 58.968 236.419 59.128 237.891 59.448C239.427 59.768 240.739 60.184 241.827 60.696L237.603 77.496C236.643 76.792 235.331 76.248 233.667 75.864C232.067 75.48 230.435 75.288 228.771 75.288C226.915 75.288 225.219 75.608 223.683 76.248C222.211 76.824 220.963 77.656 219.939 78.744C218.915 79.768 218.115 80.952 217.539 82.296C217.027 83.64 216.771 85.08 216.771 86.616V111H201.315ZM265.932 111V46.008H281.292V111H265.932ZM254.604 73.464V60.024H294.252V73.464H254.604ZM371.848 111.96C365.768 111.96 360.52 110.712 356.104 108.216C351.688 105.72 347.848 101.912 344.584 96.792L356.296 88.632C357.576 90.616 358.984 92.344 360.52 93.816C362.12 95.224 363.848 96.344 365.704 97.176C367.624 98.008 369.736 98.424 372.04 98.424C374.216 98.424 376.232 98.072 378.088 97.368C379.944 96.664 381.448 95.608 382.6 94.2C383.752 92.728 384.328 90.968 384.328 88.92C384.328 86.872 383.784 85.208 382.696 83.928C381.608 82.584 380.2 81.624 378.472 81.048C376.744 80.408 374.856 80.088 372.808 80.088C371.784 80.088 370.728 80.184 369.64 80.376C368.552 80.568 367.496 80.824 366.472 81.144C365.448 81.4 364.456 81.784 363.496 82.296L359.656 73.08L377.896 54.936L381.16 57.528L349.288 56.952V43.224H394.408L397.48 50.616L373.288 74.52L369.448 68.856C370.088 68.6 371.08 68.376 372.424 68.184C373.832 67.992 375.272 67.896 376.744 67.896C379.752 67.896 382.6 68.44 385.288 69.528C387.976 70.552 390.376 71.992 392.488 73.848C394.6 75.704 396.264 77.912 397.48 80.472C398.696 82.968 399.304 85.688 399.304 88.632C399.304 93.24 398.056 97.304 395.56 100.824C393.128 104.28 389.832 107 385.672 108.984C381.576 110.968 376.968 111.96 371.848 111.96Z" fill="white"/>
<rect id="Rectangle 7" y="462" width="1567" height="626" fill="#211F2F"/>
<g id="Group 4">
<g id="Vector" filter="url(#filter0_d_110_797)">
<path d="M460.246 518.996C465.515 495.672 498.714 495.672 503.983 518.996L512.541 556.874C515.712 570.912 505.05 584.267 490.672 584.267H473.557C459.179 584.267 448.517 570.912 451.688 556.874L460.246 518.996Z" fill="#3B5EC6"/>
<path d="M505.816 468.046C505.816 481.326 495.061 492.092 481.794 492.092C468.527 492.092 457.772 481.326 457.772 468.046C457.772 454.766 468.527 444 481.794 444C495.061 444 505.816 454.766 505.816 468.046Z" fill="#3B5EC6"/>
<path d="M486.599 572.565C486.599 566.013 491.904 560.702 498.45 560.702C504.995 560.702 510.3 566.013 510.3 572.565V600.137C510.3 606.689 504.995 612 498.45 612C491.904 612 486.599 606.689 486.599 600.137V572.565Z" fill="#3B5EC6"/>
<path d="M495.867 526.609C492.517 520.981 494.36 513.7 499.982 510.347C505.605 506.993 512.879 508.837 516.229 514.466L530.328 538.153C533.678 543.781 531.836 551.062 526.213 554.415C520.59 557.769 513.316 555.925 509.966 550.296L495.867 526.609Z" fill="#3B5EC6"/>
<path d="M447.362 514.548C450.635 508.874 457.883 506.93 463.551 510.206C469.219 513.482 471.161 520.737 467.889 526.411L454.116 550.289C450.844 555.963 443.596 557.907 437.927 554.631C432.259 551.355 430.317 544.1 433.59 538.427L447.362 514.548Z" fill="#3B5EC6"/>
<path d="M453.288 572.565C453.288 566.013 458.594 560.702 465.139 560.702C471.684 560.702 476.99 566.013 476.99 572.565V600.137C476.99 606.689 471.684 612 465.139 612C458.594 612 453.288 606.689 453.288 600.137V572.565Z" fill="#3B5EC6"/>
</g>
<g id="Vector_2" filter="url(#filter1_d_110_797)">
<path d="M694.528 518.996C699.85 495.672 733.381 495.672 738.703 518.996L747.346 556.874C750.549 570.912 739.78 584.267 725.259 584.267H707.972C693.451 584.267 682.682 570.912 685.885 556.874L694.528 518.996Z" fill="#3B5EC6"/>
<path d="M740.555 468.046C740.555 481.326 729.692 492.092 716.292 492.092C702.892 492.092 692.03 481.326 692.03 468.046C692.03 454.766 702.892 444 716.292 444C729.692 444 740.555 454.766 740.555 468.046Z" fill="#3B5EC6"/>
<path d="M721.145 572.565C721.145 566.013 726.504 560.702 733.114 560.702C739.725 560.702 745.083 566.013 745.083 572.565V600.137C745.083 606.689 739.725 612 733.114 612C726.504 612 721.145 606.689 721.145 600.137V572.565Z" fill="#3B5EC6"/>
<path d="M730.506 526.609C727.123 520.981 728.983 513.7 734.662 510.347C740.341 506.993 747.688 508.837 751.071 514.466L765.311 538.153C768.695 543.781 766.834 551.062 761.155 554.415C755.476 557.769 748.13 555.925 744.746 550.296L730.506 526.609Z" fill="#3B5EC6"/>
<path d="M681.516 514.548C684.821 508.874 692.142 506.93 697.867 510.206C703.591 513.482 705.553 520.737 702.248 526.411L688.337 550.289C685.032 555.963 677.712 557.907 671.987 554.631C666.262 551.355 664.3 544.1 667.606 538.427L681.516 514.548Z" fill="#3B5EC6"/>
<path d="M687.501 572.565C687.501 566.013 692.86 560.702 699.47 560.702C706.081 560.702 711.44 566.013 711.44 572.565V600.137C711.44 606.689 706.081 612 699.47 612C692.86 612 687.501 606.689 687.501 600.137V572.565Z" fill="#3B5EC6"/>
</g>
<g id="Vector_3" filter="url(#filter2_d_110_797)">
<path d="M577.528 518.996C582.85 495.672 616.381 495.672 621.703 518.996L630.346 556.874C633.549 570.912 622.78 584.267 608.259 584.267H590.972C576.451 584.267 565.682 570.912 568.885 556.874L577.528 518.996Z" fill="#3B5EC6"/>
<path d="M623.555 468.046C623.555 481.326 612.692 492.092 599.292 492.092C585.892 492.092 575.03 481.326 575.03 468.046C575.03 454.766 585.892 444 599.292 444C612.692 444 623.555 454.766 623.555 468.046Z" fill="#3B5EC6"/>
<path d="M604.145 572.565C604.145 566.013 609.504 560.702 616.114 560.702C622.725 560.702 628.083 566.013 628.083 572.565V600.137C628.083 606.689 622.725 612 616.114 612C609.504 612 604.145 606.689 604.145 600.137V572.565Z" fill="#3B5EC6"/>
<path d="M613.506 526.609C610.123 520.981 611.983 513.7 617.662 510.347C623.341 506.993 630.688 508.837 634.071 514.466L648.311 538.153C651.695 543.781 649.834 551.062 644.155 554.415C638.476 557.769 631.13 555.925 627.746 550.296L613.506 526.609Z" fill="#3B5EC6"/>
<path d="M564.516 514.548C567.821 508.874 575.142 506.93 580.867 510.206C586.591 513.482 588.553 520.737 585.248 526.411L571.337 550.289C568.032 555.963 560.712 557.907 554.987 554.631C549.262 551.355 547.3 544.1 550.606 538.427L564.516 514.548Z" fill="#3B5EC6"/>
<path d="M570.501 572.565C570.501 566.013 575.86 560.702 582.47 560.702C589.081 560.702 594.44 566.013 594.44 572.565V600.137C594.44 606.689 589.081 612 582.47 612C575.86 612 570.501 606.689 570.501 600.137V572.565Z" fill="#3B5EC6"/>
</g>
<g id="Vector_4" filter="url(#filter3_d_110_797)">
<path d="M812.246 518.996C817.515 495.672 850.714 495.672 855.983 518.996L864.541 556.874C867.712 570.912 857.05 584.267 842.672 584.267H825.557C811.179 584.267 800.517 570.912 803.688 556.874L812.246 518.996Z" fill="#3B5EC6"/>
<path d="M857.816 468.046C857.816 481.326 847.061 492.092 833.794 492.092C820.527 492.092 809.772 481.326 809.772 468.046C809.772 454.766 820.527 444 833.794 444C847.061 444 857.816 454.766 857.816 468.046Z" fill="#3B5EC6"/>
<path d="M838.599 572.565C838.599 566.013 843.904 560.702 850.45 560.702C856.995 560.702 862.3 566.013 862.3 572.565V600.137C862.3 606.689 856.995 612 850.45 612C843.904 612 838.599 606.689 838.599 600.137V572.565Z" fill="#3B5EC6"/>
<path d="M847.867 526.609C844.517 520.981 846.36 513.7 851.982 510.347C857.605 506.993 864.879 508.837 868.229 514.466L882.328 538.153C885.678 543.781 883.836 551.062 878.213 554.415C872.59 557.769 865.316 555.925 861.966 550.296L847.867 526.609Z" fill="#3B5EC6"/>
<path d="M799.362 514.548C802.635 508.874 809.883 506.93 815.551 510.206C821.219 513.482 823.161 520.737 819.889 526.411L806.116 550.289C802.844 555.963 795.596 557.907 789.927 554.631C784.259 551.355 782.317 544.1 785.59 538.427L799.362 514.548Z" fill="#3B5EC6"/>
<path d="M805.288 572.565C805.288 566.013 810.594 560.702 817.139 560.702C823.684 560.702 828.99 566.013 828.99 572.565V600.137C828.99 606.689 823.684 612 817.139 612C810.594 612 805.288 606.689 805.288 600.137V572.565Z" fill="#3B5EC6"/>
</g>
<g id="Vector_5" filter="url(#filter4_d_110_797)">
<path d="M359.33 555.388C365.548 527.899 404.722 527.899 410.94 555.388L421.038 600.03C424.78 616.575 412.199 632.315 395.233 632.315H375.037C358.071 632.315 345.49 616.575 349.232 600.03L359.33 555.388Z" fill="#6A94E0"/>
<path d="M413.103 495.34C413.103 510.991 400.412 523.679 384.757 523.679C369.102 523.679 356.411 510.991 356.411 495.34C356.411 479.688 369.102 467 384.757 467C400.412 467 413.103 479.688 413.103 495.34Z" fill="#6A94E0"/>
<path d="M390.426 618.523C390.426 610.801 396.687 604.542 404.41 604.542C412.134 604.542 418.395 610.801 418.395 618.523V651.019C418.395 658.741 412.134 665 404.41 665C396.687 665 390.426 658.741 390.426 651.019V618.523Z" fill="#6A94E0"/>
<path d="M401.364 564.361C397.41 557.728 399.584 549.146 406.219 545.194C412.854 541.242 421.437 543.416 425.39 550.049L442.027 577.966C445.98 584.599 443.806 593.18 437.171 597.132C430.537 601.085 421.953 598.911 418 592.278L401.364 564.361Z" fill="#6A94E0"/>
<path d="M344.128 550.146C347.989 543.459 356.542 541.168 363.23 545.029C369.919 548.889 372.21 557.44 368.349 564.127L352.097 592.269C348.235 598.956 339.683 601.248 332.994 597.387C326.306 593.526 324.014 584.975 327.876 578.289L344.128 550.146Z" fill="#6A94E0"/>
<path d="M351.12 618.523C351.12 610.801 357.381 604.542 365.104 604.542C372.827 604.542 379.088 610.801 379.088 618.523V651.019C379.088 658.741 372.827 665 365.104 665C357.381 665 351.12 658.741 351.12 651.019V618.523Z" fill="#6A94E0"/>
</g>
<g id="Vector_6" filter="url(#filter5_d_110_797)">
<path d="M635.33 555.388C641.548 527.899 680.722 527.899 686.94 555.388L697.038 600.03C700.78 616.575 688.199 632.315 671.233 632.315H651.037C634.071 632.315 621.49 616.575 625.232 600.03L635.33 555.388Z" fill="#6A94E0"/>
<path d="M689.103 495.34C689.103 510.991 676.412 523.679 660.757 523.679C645.102 523.679 632.411 510.991 632.411 495.34C632.411 479.688 645.102 467 660.757 467C676.412 467 689.103 479.688 689.103 495.34Z" fill="#6A94E0"/>
<path d="M666.426 618.523C666.426 610.801 672.687 604.542 680.41 604.542C688.134 604.542 694.395 610.801 694.395 618.523V651.019C694.395 658.741 688.134 665 680.41 665C672.687 665 666.426 658.741 666.426 651.019V618.523Z" fill="#6A94E0"/>
<path d="M677.364 564.361C673.41 557.728 675.584 549.146 682.219 545.194C688.854 541.242 697.437 543.416 701.39 550.049L718.027 577.966C721.98 584.599 719.806 593.18 713.171 597.132C706.537 601.085 697.953 598.911 694 592.278L677.364 564.361Z" fill="#6A94E0"/>
<path d="M620.128 550.146C623.989 543.459 632.542 541.168 639.23 545.029C645.919 548.889 648.21 557.44 644.349 564.127L628.097 592.269C624.235 598.956 615.683 601.248 608.994 597.387C602.306 593.526 600.014 584.975 603.876 578.289L620.128 550.146Z" fill="#6A94E0"/>
<path d="M627.12 618.523C627.12 610.801 633.381 604.542 641.104 604.542C648.827 604.542 655.088 610.801 655.088 618.523V651.019C655.088 658.741 648.827 665 641.104 665C633.381 665 627.12 658.741 627.12 651.019V618.523Z" fill="#6A94E0"/>
</g>
<g id="Vector_7" filter="url(#filter6_d_110_797)">
<path d="M497.33 555.388C503.548 527.899 542.722 527.899 548.94 555.388L559.038 600.03C562.78 616.575 550.199 632.315 533.233 632.315H513.037C496.071 632.315 483.49 616.575 487.232 600.03L497.33 555.388Z" fill="#6A94E0"/>
<path d="M551.103 495.34C551.103 510.991 538.412 523.679 522.757 523.679C507.102 523.679 494.411 510.991 494.411 495.34C494.411 479.688 507.102 467 522.757 467C538.412 467 551.103 479.688 551.103 495.34Z" fill="#6A94E0"/>
<path d="M528.426 618.523C528.426 610.801 534.687 604.542 542.41 604.542C550.134 604.542 556.395 610.801 556.395 618.523V651.019C556.395 658.741 550.134 665 542.41 665C534.687 665 528.426 658.741 528.426 651.019V618.523Z" fill="#6A94E0"/>
<path d="M539.364 564.361C535.41 557.728 537.584 549.146 544.219 545.194C550.854 541.242 559.437 543.416 563.39 550.049L580.027 577.966C583.98 584.599 581.806 593.18 575.171 597.132C568.537 601.085 559.953 598.911 556 592.278L539.364 564.361Z" fill="#6A94E0"/>
<path d="M482.128 550.146C485.989 543.459 494.542 541.168 501.23 545.029C507.919 548.889 510.21 557.44 506.349 564.127L490.097 592.269C486.235 598.956 477.683 601.248 470.994 597.387C464.306 593.526 462.014 584.975 465.876 578.289L482.128 550.146Z" fill="#6A94E0"/>
<path d="M489.12 618.523C489.12 610.801 495.381 604.542 503.104 604.542C510.827 604.542 517.088 610.801 517.088 618.523V651.019C517.088 658.741 510.827 665 503.104 665C495.381 665 489.12 658.741 489.12 651.019V618.523Z" fill="#6A94E0"/>
</g>
<g id="Vector_8" filter="url(#filter7_d_110_797)">
<path d="M555.33 601.388C561.548 573.899 600.722 573.899 606.94 601.388L617.038 646.03C620.78 662.575 608.199 678.315 591.233 678.315H571.037C554.071 678.315 541.49 662.575 545.232 646.03L555.33 601.388Z" fill="#8DBBFB"/>
<path d="M609.103 541.34C609.103 556.991 596.412 569.679 580.757 569.679C565.102 569.679 552.411 556.991 552.411 541.34C552.411 525.688 565.102 513 580.757 513C596.412 513 609.103 525.688 609.103 541.34Z" fill="#8DBBFB"/>
<path d="M586.426 664.523C586.426 656.801 592.687 650.542 600.41 650.542C608.134 650.542 614.395 656.801 614.395 664.523V697.019C614.395 704.741 608.134 711 600.41 711C592.687 711 586.426 704.741 586.426 697.019V664.523Z" fill="#8DBBFB"/>
<path d="M597.364 610.361C593.41 603.728 595.584 595.146 602.219 591.194C608.854 587.242 617.437 589.416 621.39 596.049L638.027 623.966C641.98 630.599 639.806 639.18 633.171 643.132C626.537 647.085 617.953 644.911 614 638.278L597.364 610.361Z" fill="#8DBBFB"/>
<path d="M540.128 596.146C543.989 589.459 552.542 587.168 559.23 591.029C565.919 594.889 568.21 603.44 564.349 610.127L548.097 638.269C544.235 644.956 535.683 647.248 528.994 643.387C522.306 639.526 520.014 630.975 523.876 624.289L540.128 596.146Z" fill="#8DBBFB"/>
<path d="M547.12 664.523C547.12 656.801 553.381 650.542 561.104 650.542C568.827 650.542 575.088 656.801 575.088 664.523V697.019C575.088 704.741 568.827 711 561.104 711C553.381 711 547.12 704.741 547.12 697.019V664.523Z" fill="#8DBBFB"/>
</g>
<g id="Vector_9" filter="url(#filter8_d_110_797)">
<path d="M773.33 555.388C779.548 527.899 818.722 527.899 824.94 555.388L835.038 600.03C838.78 616.575 826.199 632.315 809.233 632.315H789.037C772.071 632.315 759.49 616.575 763.232 600.03L773.33 555.388Z" fill="#6A94E0"/>
<path d="M827.103 495.34C827.103 510.991 814.412 523.679 798.757 523.679C783.102 523.679 770.411 510.991 770.411 495.34C770.411 479.688 783.102 467 798.757 467C814.412 467 827.103 479.688 827.103 495.34Z" fill="#6A94E0"/>
<path d="M804.426 618.523C804.426 610.801 810.687 604.542 818.41 604.542C826.134 604.542 832.395 610.801 832.395 618.523V651.019C832.395 658.741 826.134 665 818.41 665C810.687 665 804.426 658.741 804.426 651.019V618.523Z" fill="#6A94E0"/>
<path d="M815.364 564.361C811.41 557.728 813.584 549.146 820.219 545.194C826.854 541.242 835.437 543.416 839.39 550.049L856.027 577.966C859.98 584.599 857.806 593.18 851.171 597.132C844.537 601.085 835.953 598.911 832 592.278L815.364 564.361Z" fill="#6A94E0"/>
<path d="M758.128 550.146C761.989 543.459 770.542 541.168 777.23 545.029C783.919 548.889 786.21 557.44 782.349 564.127L766.097 592.269C762.235 598.956 753.683 601.248 746.994 597.387C740.306 593.526 738.014 584.975 741.876 578.289L758.128 550.146Z" fill="#6A94E0"/>
<path d="M765.12 618.523C765.12 610.801 771.381 604.542 779.104 604.542C786.827 604.542 793.088 610.801 793.088 618.523V651.019C793.088 658.741 786.827 665 779.104 665C771.381 665 765.12 658.741 765.12 651.019V618.523Z" fill="#6A94E0"/>
</g>
<g id="Vector_10" filter="url(#filter9_d_110_797)">
<path d="M417.33 601.388C423.548 573.899 462.722 573.899 468.94 601.388L479.038 646.03C482.78 662.575 470.199 678.315 453.233 678.315H433.037C416.071 678.315 403.49 662.575 407.232 646.03L417.33 601.388Z" fill="#8DBBFB"/>
<path d="M471.103 541.34C471.103 556.991 458.412 569.679 442.757 569.679C427.102 569.679 414.411 556.991 414.411 541.34C414.411 525.688 427.102 513 442.757 513C458.412 513 471.103 525.688 471.103 541.34Z" fill="#8DBBFB"/>
<path d="M448.426 664.523C448.426 656.801 454.687 650.542 462.41 650.542C470.134 650.542 476.395 656.801 476.395 664.523V697.019C476.395 704.741 470.134 711 462.41 711C454.687 711 448.426 704.741 448.426 697.019V664.523Z" fill="#8DBBFB"/>
<path d="M459.364 610.361C455.41 603.728 457.584 595.146 464.219 591.194C470.854 587.242 479.437 589.416 483.39 596.049L500.027 623.966C503.98 630.599 501.806 639.18 495.171 643.132C488.537 647.085 479.953 644.911 476 638.278L459.364 610.361Z" fill="#8DBBFB"/>
<path d="M402.128 596.146C405.989 589.459 414.542 587.168 421.23 591.029C427.919 594.889 430.21 603.44 426.349 610.127L410.097 638.269C406.235 644.956 397.683 647.248 390.994 643.387C384.306 639.526 382.014 630.975 385.876 624.289L402.128 596.146Z" fill="#8DBBFB"/>
<path d="M409.12 664.523C409.12 656.801 415.381 650.542 423.104 650.542C430.827 650.542 437.088 656.801 437.088 664.523V697.019C437.088 704.741 430.827 711 423.104 711C415.381 711 409.12 704.741 409.12 697.019V664.523Z" fill="#8DBBFB"/>
</g>
<g id="Vector_11" filter="url(#filter10_d_110_797)">
<path d="M693.33 601.388C699.548 573.899 738.722 573.899 744.94 601.388L755.038 646.03C758.78 662.575 746.199 678.315 729.233 678.315H709.037C692.071 678.315 679.49 662.575 683.232 646.03L693.33 601.388Z" fill="#8DBBFB"/>
<path d="M747.103 541.34C747.103 556.991 734.412 569.679 718.757 569.679C703.102 569.679 690.411 556.991 690.411 541.34C690.411 525.688 703.102 513 718.757 513C734.412 513 747.103 525.688 747.103 541.34Z" fill="#8DBBFB"/>
<path d="M724.426 664.523C724.426 656.801 730.687 650.542 738.41 650.542C746.134 650.542 752.395 656.801 752.395 664.523V697.019C752.395 704.741 746.134 711 738.41 711C730.687 711 724.426 704.741 724.426 697.019V664.523Z" fill="#8DBBFB"/>
<path d="M735.364 610.361C731.41 603.728 733.584 595.146 740.219 591.194C746.854 587.242 755.437 589.416 759.39 596.049L776.027 623.966C779.98 630.599 777.806 639.18 771.171 643.132C764.537 647.085 755.953 644.911 752 638.278L735.364 610.361Z" fill="#8DBBFB"/>
<path d="M678.128 596.146C681.989 589.459 690.542 587.168 697.23 591.029C703.919 594.889 706.21 603.44 702.349 610.127L686.097 638.269C682.235 644.956 673.683 647.248 666.994 643.387C660.306 639.526 658.014 630.975 661.876 624.289L678.128 596.146Z" fill="#8DBBFB"/>
<path d="M685.12 664.523C685.12 656.801 691.381 650.542 699.104 650.542C706.827 650.542 713.088 656.801 713.088 664.523V697.019C713.088 704.741 706.827 711 699.104 711C691.381 711 685.12 704.741 685.12 697.019V664.523Z" fill="#8DBBFB"/>
</g>
<g id="Vector_12" filter="url(#filter11_d_110_797)">
<path d="M831.33 601.388C837.548 573.899 876.722 573.899 882.94 601.388L893.038 646.03C896.78 662.575 884.199 678.315 867.233 678.315H847.037C830.071 678.315 817.49 662.575 821.232 646.03L831.33 601.388Z" fill="#8DBBFB"/>
<path d="M885.103 541.34C885.103 556.991 872.412 569.679 856.757 569.679C841.102 569.679 828.411 556.991 828.411 541.34C828.411 525.688 841.102 513 856.757 513C872.412 513 885.103 525.688 885.103 541.34Z" fill="#8DBBFB"/>
<path d="M862.426 664.523C862.426 656.801 868.687 650.542 876.41 650.542C884.134 650.542 890.395 656.801 890.395 664.523V697.019C890.395 704.741 884.134 711 876.41 711C868.687 711 862.426 704.741 862.426 697.019V664.523Z" fill="#8DBBFB"/>
<path d="M873.364 610.361C869.41 603.728 871.584 595.146 878.219 591.194C884.854 587.242 893.437 589.416 897.39 596.049L914.027 623.966C917.98 630.599 915.806 639.18 909.171 643.132C902.537 647.085 893.953 644.911 890 638.278L873.364 610.361Z" fill="#8DBBFB"/>
<path d="M816.128 596.146C819.989 589.459 828.542 587.168 835.23 591.029C841.919 594.889 844.21 603.44 840.349 610.127L824.097 638.269C820.235 644.956 811.683 647.248 804.994 643.387C798.306 639.526 796.014 630.975 799.876 624.289L816.128 596.146Z" fill="#8DBBFB"/>
<path d="M823.12 664.523C823.12 656.801 829.381 650.542 837.104 650.542C844.827 650.542 851.088 656.801 851.088 664.523V697.019C851.088 704.741 844.827 711 837.104 711C829.381 711 823.12 704.741 823.12 697.019V664.523Z" fill="#8DBBFB"/>
</g>
</g>
<line id="Line 1" x1="41.5002" y1="577.708" x2="41.5002" y2="231.708" stroke="#485C77" stroke-width="25" stroke-linecap="round"/>
<rect id="Rectangle 8" x="29.0002" y="219.208" width="172" height="96" rx="14" fill="#3B5EC6"/>
<rect id="Rectangle 9" x="99.0002" y="219.208" width="32" height="96" fill="white"/>
<rect id="Rectangle 11" x="198" y="216.208" width="21.7609" height="196.456" rx="10.8804" transform="rotate(62.972 198 216.208)" fill="white"/>
<rect id="Rectangle 12" x="205.953" y="310.229" width="21.7609" height="196.456" rx="10.8804" transform="rotate(120 205.953 310.229)" fill="white"/>
<rect id="Rectangle 10" x="29.0002" y="283.208" width="27" height="172" transform="rotate(-90 29.0002 283.208)" fill="white"/>
<rect id="Rectangle 13" x="197.061" y="221.565" width="13.0698" height="189.913" rx="6.53491" transform="rotate(62.972 197.061 221.565)" fill="#EF1044"/>
<rect id="Rectangle 14" x="201.058" y="311.999" width="13.0698" height="189.913" rx="6.53491" transform="rotate(120 201.058 311.999)" fill="#EF1044"/>
<rect id="Rectangle 15" x="29.0002" y="263.208" width="172" height="14" fill="#EF1044"/>
<rect id="Rectangle 16" x="123" y="219.208" width="96" height="16" transform="rotate(90 123 219.208)" fill="#EF1044"/>
<g id="next">
<g id="Next">
<path id="Next_2" d="M1100.81 909V864.2H1110.79L1137.86 896.2L1136.01 895.88C1135.75 894.387 1135.56 892.957 1135.43 891.592C1135.3 890.227 1135.18 888.904 1135.05 887.624C1134.96 886.344 1134.88 885.064 1134.79 883.784C1134.75 882.504 1134.73 881.16 1134.73 879.752C1134.73 878.344 1134.73 876.851 1134.73 875.272V864.2H1145.29V909H1135.18L1107.08 875.976L1110.09 876.424C1110.22 877.917 1110.34 879.261 1110.47 880.456C1110.64 881.651 1110.77 882.781 1110.86 883.848C1110.98 884.872 1111.07 885.917 1111.11 886.984C1111.2 888.008 1111.26 889.096 1111.3 890.248C1111.35 891.4 1111.37 892.659 1111.37 894.024V909H1100.81ZM1177.89 909.64C1173.76 909.64 1170.13 908.893 1167.01 907.4C1163.94 905.864 1161.55 903.795 1159.85 901.192C1158.14 898.547 1157.29 895.539 1157.29 892.168C1157.29 889.48 1157.78 887.048 1158.76 884.872C1159.74 882.696 1161.11 880.819 1162.85 879.24C1164.6 877.661 1166.65 876.445 1169 875.592C1171.35 874.739 1173.88 874.312 1176.61 874.312C1179.26 874.312 1181.69 874.739 1183.91 875.592C1186.13 876.403 1188.05 877.576 1189.67 879.112C1191.33 880.648 1192.61 882.461 1193.51 884.552C1194.41 886.643 1194.81 888.947 1194.73 891.464L1194.66 894.344H1164.01L1162.53 888.392H1186.34L1185.25 889.672V888.392C1185.13 887.325 1184.66 886.365 1183.85 885.512C1183.08 884.659 1182.08 883.997 1180.84 883.528C1179.6 883.016 1178.24 882.76 1176.74 882.76C1174.82 882.76 1173.12 883.08 1171.62 883.72C1170.13 884.317 1168.96 885.256 1168.1 886.536C1167.29 887.816 1166.89 889.437 1166.89 891.4C1166.89 893.277 1167.38 894.92 1168.36 896.328C1169.38 897.736 1170.81 898.845 1172.65 899.656C1174.52 900.467 1176.72 900.872 1179.24 900.872C1181.41 900.872 1183.23 900.616 1184.68 900.104C1186.17 899.549 1187.52 898.867 1188.71 898.056L1193.32 904.712C1191.91 905.779 1190.35 906.696 1188.65 907.464C1186.98 908.189 1185.23 908.723 1183.4 909.064C1181.61 909.448 1179.77 909.64 1177.89 909.64ZM1231.57 909L1222.16 896.776L1219.54 893.32L1204.63 875.016H1217.56L1226 886.216L1228.82 889.928L1244.37 909H1231.57ZM1203.8 909L1219.03 889.8L1225.24 896.136L1216.53 909H1203.8ZM1228.76 894.216L1222.74 887.816L1231.32 875.016H1243.99L1228.76 894.216ZM1260.39 909V865.672H1270.63V909H1260.39ZM1252.84 883.976V875.016H1279.27V883.976H1252.84Z" fill="white"/>
</g>
<path id="Arrow 1" d="M1094 913.5C1089.31 913.5 1085.5 917.306 1085.5 922C1085.5 926.694 1089.31 930.5 1094 930.5V922V913.5ZM1371 922L1286 872.925V971.075L1371 922ZM1094 922V930.5H1294.5V922V913.5H1094V922Z" fill="#EF1044"/>
</g>
<path id="you get kicked out" d="M167.461 833.08L180.805 805.72L180.517 813.496L153.445 760.024H171.013L183.397 786.52C184.293 788.312 185.125 790.136 185.893 791.992C186.661 793.784 187.269 795.576 187.717 797.368L184.837 798.136C185.413 796.728 186.085 795.064 186.853 793.144C187.621 791.224 188.421 789.272 189.253 787.288L200.677 760.024H218.245L193.285 811.192L183.013 833.08H167.461ZM259.226 811.96C253.274 811.96 247.994 810.808 243.386 808.504C238.778 806.2 235.162 803.064 232.538 799.096C229.914 795.128 228.602 790.584 228.602 785.464C228.602 780.344 229.914 775.8 232.538 771.832C235.162 767.864 238.778 764.728 243.386 762.424C247.994 760.12 253.274 758.968 259.226 758.968C265.114 758.968 270.33 760.12 274.874 762.424C279.482 764.728 283.098 767.864 285.722 771.832C288.346 775.8 289.658 780.344 289.658 785.464C289.658 790.584 288.346 795.128 285.722 799.096C283.098 803.064 279.482 806.2 274.874 808.504C270.33 810.808 265.114 811.96 259.226 811.96ZM259.226 798.712C261.978 798.712 264.474 798.136 266.714 796.984C269.018 795.832 270.81 794.264 272.09 792.28C273.434 790.296 274.074 788.024 274.01 785.464C274.074 782.904 273.434 780.6 272.09 778.552C270.81 776.504 269.018 774.936 266.714 773.848C264.474 772.696 261.978 772.12 259.226 772.12C256.41 772.12 253.818 772.696 251.45 773.848C249.146 775 247.354 776.568 246.074 778.552C244.794 780.536 244.154 782.84 244.154 785.464C244.154 788.024 244.794 790.296 246.074 792.28C247.354 794.264 249.146 795.832 251.45 796.984C253.818 798.136 256.41 798.712 259.226 798.712ZM327.698 812.056C323.602 812.056 320.05 811.16 317.042 809.368C314.098 807.576 311.826 804.984 310.226 801.592C308.626 798.136 307.826 794.008 307.826 789.208V760.024H323.186V786.712C323.186 789.336 323.538 791.544 324.242 793.336C325.01 795.128 326.194 796.504 327.794 797.464C329.394 798.36 331.346 798.808 333.65 798.808C335.314 798.808 336.85 798.552 338.258 798.04C339.666 797.464 340.914 796.696 342.002 795.736C343.09 794.712 343.922 793.56 344.498 792.28C345.138 790.936 345.458 789.432 345.458 787.768V760.024H360.818V811H346.418L345.746 800.536L348.53 799.384C347.826 801.624 346.482 803.704 344.498 805.624C342.514 807.544 340.082 809.112 337.202 810.328C334.386 811.48 331.218 812.056 327.698 812.056ZM448.978 833.08C443.922 833.08 439.218 832.44 434.866 831.16C430.578 829.944 427.058 828.408 424.306 826.552L429.586 815.608C430.994 816.376 432.562 817.112 434.29 817.816C436.082 818.52 438.034 819.096 440.146 819.544C442.258 820.056 444.562 820.312 447.058 820.312C450.322 820.312 453.074 819.768 455.314 818.68C457.618 817.592 459.346 815.928 460.498 813.688C461.714 811.512 462.322 808.824 462.322 805.624V798.616L465.298 799.096C464.786 801.144 463.506 803.032 461.458 804.76C459.41 806.488 456.85 807.896 453.778 808.984C450.706 810.072 447.442 810.616 443.986 810.616C438.93 810.616 434.482 809.56 430.642 807.448C426.802 805.272 423.762 802.296 421.522 798.52C419.346 794.68 418.258 790.264 418.258 785.272C418.258 780.152 419.378 775.64 421.618 771.736C423.858 767.768 426.93 764.664 430.834 762.424C434.738 760.12 439.25 758.968 444.37 758.968C446.098 758.968 447.89 759.192 449.746 759.64C451.666 760.024 453.522 760.568 455.314 761.272C457.17 761.912 458.834 762.744 460.306 763.768C461.842 764.728 463.09 765.816 464.05 767.032C465.074 768.184 465.65 769.432 465.778 770.776L462.61 771.544L463.282 760.024H477.778V805.336C477.778 809.88 477.042 813.848 475.57 817.24C474.162 820.696 472.178 823.608 469.618 825.976C467.058 828.344 463.986 830.104 460.402 831.256C456.882 832.472 453.074 833.08 448.978 833.08ZM448.402 798.712C451.282 798.712 453.81 798.168 455.986 797.08C458.162 795.928 459.826 794.36 460.978 792.376C462.194 790.392 462.802 788.056 462.802 785.368C462.802 782.68 462.194 780.344 460.978 778.36C459.826 776.312 458.162 774.744 455.986 773.656C453.81 772.504 451.282 771.928 448.402 771.928C445.394 771.928 442.77 772.504 440.53 773.656C438.29 774.744 436.562 776.312 435.346 778.36C434.13 780.344 433.522 782.68 433.522 785.368C433.522 788.056 434.13 790.392 435.346 792.376C436.562 794.36 438.29 795.928 440.53 797.08C442.77 798.168 445.394 798.712 448.402 798.712ZM526.404 811.96C520.196 811.96 514.756 810.84 510.084 808.6C505.476 806.296 501.892 803.192 499.332 799.288C496.772 795.32 495.492 790.808 495.492 785.752C495.492 781.72 496.228 778.072 497.7 774.808C499.172 771.544 501.22 768.728 503.844 766.36C506.468 763.992 509.54 762.168 513.06 760.888C516.58 759.608 520.388 758.968 524.484 758.968C528.452 758.968 532.1 759.608 535.428 760.888C538.756 762.104 541.636 763.864 544.068 766.168C546.564 768.472 548.484 771.192 549.828 774.328C551.172 777.464 551.78 780.92 551.652 784.696L551.556 789.016H505.572L503.364 780.088H539.076L537.444 782.008V780.088C537.252 778.488 536.548 777.048 535.332 775.768C534.18 774.488 532.676 773.496 530.82 772.792C528.964 772.024 526.916 771.64 524.676 771.64C521.796 771.64 519.236 772.12 516.996 773.08C514.756 773.976 512.996 775.384 511.716 777.304C510.5 779.224 509.892 781.656 509.892 784.6C509.892 787.416 510.628 789.88 512.1 791.992C513.636 794.104 515.78 795.768 518.532 796.984C521.348 798.2 524.644 798.808 528.42 798.808C531.684 798.808 534.404 798.424 536.58 797.656C538.82 796.824 540.836 795.8 542.628 794.584L549.54 804.568C547.428 806.168 545.092 807.544 542.532 808.696C540.036 809.784 537.412 810.584 534.66 811.096C531.972 811.672 529.22 811.96 526.404 811.96ZM575.713 811V746.008H591.073V811H575.713ZM564.385 773.464V760.024H604.033V773.464H564.385ZM675.677 797.176L670.685 785.656L699.005 760.024H719.453L675.677 797.176ZM661.565 811V739.96H676.541V811H661.565ZM700.733 811L679.901 785.464L690.557 777.016L718.877 811H700.733ZM736.77 811V760.024H752.226V811H736.77ZM744.45 749.56C741.57 749.56 739.33 748.888 737.73 747.544C736.13 746.136 735.33 744.152 735.33 741.592C735.33 739.288 736.13 737.4 737.73 735.928C739.394 734.456 741.634 733.72 744.45 733.72C747.33 733.72 749.57 734.424 751.17 735.832C752.77 737.176 753.57 739.096 753.57 741.592C753.57 743.96 752.738 745.88 751.074 747.352C749.474 748.824 747.266 749.56 744.45 749.56ZM800.969 811.96C795.337 811.96 790.345 810.808 785.993 808.504C781.641 806.2 778.217 803.064 775.721 799.096C773.225 795.064 771.977 790.52 771.977 785.464C771.977 780.408 773.225 775.896 775.721 771.928C778.217 767.896 781.609 764.728 785.897 762.424C790.185 760.12 795.049 758.968 800.489 758.968C805.673 758.968 810.409 759.768 814.697 761.368C818.985 762.904 822.473 765.08 825.161 767.896L816.809 778.456C815.657 777.368 814.281 776.344 812.681 775.384C811.081 774.424 809.353 773.688 807.497 773.176C805.705 772.6 803.849 772.312 801.929 772.312C798.985 772.312 796.393 772.888 794.153 774.04C791.977 775.128 790.281 776.664 789.065 778.648C787.913 780.632 787.337 782.904 787.337 785.464C787.337 787.896 787.945 790.104 789.161 792.088C790.377 794.072 792.073 795.64 794.249 796.792C796.425 797.944 798.953 798.52 801.833 798.52C804.137 798.52 806.185 798.296 807.977 797.848C809.769 797.4 811.401 796.792 812.873 796.024C814.409 795.192 815.721 794.264 816.809 793.24L825.161 803.704C822.281 806.136 818.761 808.12 814.601 809.656C810.441 811.192 805.897 811.96 800.969 811.96ZM856.989 797.176L851.997 785.656L880.317 760.024H900.765L856.989 797.176ZM842.877 811V739.96H857.853V811H842.877ZM882.045 811L861.213 785.464L871.869 777.016L900.189 811H882.045ZM940.311 811.96C934.103 811.96 928.663 810.84 923.991 808.6C919.383 806.296 915.799 803.192 913.239 799.288C910.679 795.32 909.398 790.808 909.398 785.752C909.398 781.72 910.135 778.072 911.607 774.808C913.079 771.544 915.127 768.728 917.751 766.36C920.375 763.992 923.447 762.168 926.967 760.888C930.487 759.608 934.295 758.968 938.391 758.968C942.359 758.968 946.007 759.608 949.335 760.888C952.663 762.104 955.543 763.864 957.975 766.168C960.471 768.472 962.391 771.192 963.735 774.328C965.079 777.464 965.687 780.92 965.559 784.696L965.463 789.016H919.479L917.271 780.088H952.983L951.351 782.008V780.088C951.159 778.488 950.455 777.048 949.239 775.768C948.087 774.488 946.583 773.496 944.727 772.792C942.871 772.024 940.823 771.64 938.583 771.64C935.703 771.64 933.143 772.12 930.903 773.08C928.663 773.976 926.903 775.384 925.623 777.304C924.407 779.224 923.799 781.656 923.799 784.6C923.799 787.416 924.535 789.88 926.007 791.992C927.543 794.104 929.687 795.768 932.439 796.984C935.255 798.2 938.551 798.808 942.327 798.808C945.591 798.808 948.311 798.424 950.487 797.656C952.727 796.824 954.743 795.8 956.535 794.584L963.447 804.568C961.335 806.168 958.999 807.544 956.439 808.696C953.943 809.784 951.319 810.584 948.567 811.096C945.879 811.672 943.127 811.96 940.311 811.96ZM1004.02 812.056C999.027 812.056 994.643 810.936 990.867 808.696C987.091 806.392 984.147 803.256 982.035 799.288C979.923 795.256 978.867 790.68 978.867 785.56C978.867 780.44 979.955 775.896 982.131 771.928C984.307 767.896 987.315 764.728 991.155 762.424C995.059 760.12 999.539 758.968 1004.6 758.968C1007.41 758.968 1010.04 759.352 1012.47 760.12C1014.9 760.824 1017.08 761.784 1019 763C1020.98 764.216 1022.55 765.624 1023.7 767.224C1024.92 768.76 1025.62 770.328 1025.81 771.928L1022.16 772.792V739.96H1037.62V811H1023.32L1022.45 798.616L1025.52 799.384C1025.33 800.984 1024.63 802.552 1023.41 804.088C1022.2 805.56 1020.6 806.904 1018.61 808.12C1016.69 809.272 1014.48 810.232 1011.99 811C1009.49 811.704 1006.84 812.056 1004.02 812.056ZM1008.34 799.096C1011.22 799.096 1013.72 798.52 1015.83 797.368C1018 796.216 1019.67 794.648 1020.82 792.664C1021.97 790.616 1022.55 788.248 1022.55 785.56C1022.55 782.808 1021.97 780.44 1020.82 778.456C1019.67 776.408 1018 774.84 1015.83 773.752C1013.72 772.6 1011.22 772.024 1008.34 772.024C1005.46 772.024 1002.96 772.6 1000.85 773.752C998.739 774.84 997.075 776.408 995.859 778.456C994.707 780.44 994.131 782.808 994.131 785.56C994.131 788.248 994.707 790.616 995.859 792.664C997.075 794.648 998.739 796.216 1000.85 797.368C1002.96 798.52 1005.46 799.096 1008.34 799.096ZM1124.26 811.96C1118.31 811.96 1113.03 810.808 1108.42 808.504C1103.81 806.2 1100.19 803.064 1097.57 799.096C1094.95 795.128 1093.63 790.584 1093.63 785.464C1093.63 780.344 1094.95 775.8 1097.57 771.832C1100.19 767.864 1103.81 764.728 1108.42 762.424C1113.03 760.12 1118.31 758.968 1124.26 758.968C1130.15 758.968 1135.36 760.12 1139.91 762.424C1144.51 764.728 1148.13 767.864 1150.75 771.832C1153.38 775.8 1154.69 780.344 1154.69 785.464C1154.69 790.584 1153.38 795.128 1150.75 799.096C1148.13 803.064 1144.51 806.2 1139.91 808.504C1135.36 810.808 1130.15 811.96 1124.26 811.96ZM1124.26 798.712C1127.01 798.712 1129.51 798.136 1131.75 796.984C1134.05 795.832 1135.84 794.264 1137.12 792.28C1138.47 790.296 1139.11 788.024 1139.04 785.464C1139.11 782.904 1138.47 780.6 1137.12 778.552C1135.84 776.504 1134.05 774.936 1131.75 773.848C1129.51 772.696 1127.01 772.12 1124.26 772.12C1121.44 772.12 1118.85 772.696 1116.48 773.848C1114.18 775 1112.39 776.568 1111.11 778.552C1109.83 780.536 1109.19 782.84 1109.19 785.464C1109.19 788.024 1109.83 790.296 1111.11 792.28C1112.39 794.264 1114.18 795.832 1116.48 796.984C1118.85 798.136 1121.44 798.712 1124.26 798.712ZM1192.73 812.056C1188.63 812.056 1185.08 811.16 1182.07 809.368C1179.13 807.576 1176.86 804.984 1175.26 801.592C1173.66 798.136 1172.86 794.008 1172.86 789.208V760.024H1188.22V786.712C1188.22 789.336 1188.57 791.544 1189.27 793.336C1190.04 795.128 1191.23 796.504 1192.83 797.464C1194.43 798.36 1196.38 798.808 1198.68 798.808C1200.35 798.808 1201.88 798.552 1203.29 798.04C1204.7 797.464 1205.95 796.696 1207.03 795.736C1208.12 794.712 1208.95 793.56 1209.53 792.28C1210.17 790.936 1210.49 789.432 1210.49 787.768V760.024H1225.85V811H1211.45L1210.78 800.536L1213.56 799.384C1212.86 801.624 1211.51 803.704 1209.53 805.624C1207.55 807.544 1205.11 809.112 1202.23 810.328C1199.42 811.48 1196.25 812.056 1192.73 812.056ZM1254.74 811V746.008H1270.1V811H1254.74ZM1243.42 773.464V760.024H1283.06V773.464H1243.42Z" fill="white"/>
<rect id="Rectangle 28" x="957" y="-230" width="695" height="764" rx="69" fill="#485C77"/>
<rect id="Rectangle 29" x="1093" y="310" width="152" height="268" rx="29" fill="#211F2F"/>
</g>
<defs>
<filter id="filter0_d_110_797" x="428" y="444" width="108" height="176" filterUnits="userSpaceOnUse" color-interpolation-filters="sRGB">
<feFlood flood-opacity="0" result="BackgroundImageFix"/>
<feColorMatrix in="SourceAlpha" type="matrix" values="0 0 0 0 0 0 0 0 0 0 0 0 0 0 0 0 0 0 127 0" result="hardAlpha"/>
<feOffset dy="4"/>
<feGaussianBlur stdDeviation="2"/>
<feComposite in2="hardAlpha" operator="out"/>
<feColorMatrix type="matrix" values="0 0 0 0 0 0 0 0 0 0 0 0 0 0 0 0 0 0 0.25 0"/>
<feBlend mode="normal" in2="BackgroundImageFix" result="effect1_dropShadow_110_797"/>
<feBlend mode="normal" in="SourceGraphic" in2="effect1_dropShadow_110_797" result="shape"/>
</filter>
<filter id="filter1_d_110_797" x="662" y="444" width="109" height="176" filterUnits="userSpaceOnUse" color-interpolation-filters="sRGB">
<feFlood flood-opacity="0" result="BackgroundImageFix"/>
<feColorMatrix in="SourceAlpha" type="matrix" values="0 0 0 0 0 0 0 0 0 0 0 0 0 0 0 0 0 0 127 0" result="hardAlpha"/>
<feOffset dy="4"/>
<feGaussianBlur stdDeviation="2"/>
<feComposite in2="hardAlpha" operator="out"/>
<feColorMatrix type="matrix" values="0 0 0 0 0 0 0 0 0 0 0 0 0 0 0 0 0 0 0.25 0"/>
<feBlend mode="normal" in2="BackgroundImageFix" result="effect1_dropShadow_110_797"/>
<feBlend mode="normal" in="SourceGraphic" in2="effect1_dropShadow_110_797" result="shape"/>
</filter>
<filter id="filter2_d_110_797" x="545" y="444" width="109" height="176" filterUnits="userSpaceOnUse" color-interpolation-filters="sRGB">
<feFlood flood-opacity="0" result="BackgroundImageFix"/>
<feColorMatrix in="SourceAlpha" type="matrix" values="0 0 0 0 0 0 0 0 0 0 0 0 0 0 0 0 0 0 127 0" result="hardAlpha"/>
<feOffset dy="4"/>
<feGaussianBlur stdDeviation="2"/>
<feComposite in2="hardAlpha" operator="out"/>
<feColorMatrix type="matrix" values="0 0 0 0 0 0 0 0 0 0 0 0 0 0 0 0 0 0 0.25 0"/>
<feBlend mode="normal" in2="BackgroundImageFix" result="effect1_dropShadow_110_797"/>
<feBlend mode="normal" in="SourceGraphic" in2="effect1_dropShadow_110_797" result="shape"/>
</filter>
<filter id="filter3_d_110_797" x="780" y="444" width="108" height="176" filterUnits="userSpaceOnUse" color-interpolation-filters="sRGB">
<feFlood flood-opacity="0" result="BackgroundImageFix"/>
<feColorMatrix in="SourceAlpha" type="matrix" values="0 0 0 0 0 0 0 0 0 0 0 0 0 0 0 0 0 0 127 0" result="hardAlpha"/>
<feOffset dy="4"/>
<feGaussianBlur stdDeviation="2"/>
<feComposite in2="hardAlpha" operator="out"/>
<feColorMatrix type="matrix" values="0 0 0 0 0 0 0 0 0 0 0 0 0 0 0 0 0 0 0.25 0"/>
<feBlend mode="normal" in2="BackgroundImageFix" result="effect1_dropShadow_110_797"/>
<feBlend mode="normal" in="SourceGraphic" in2="effect1_dropShadow_110_797" result="shape"/>
</filter>
<filter id="filter4_d_110_797" x="322" y="467" width="126" height="206" filterUnits="userSpaceOnUse" color-interpolation-filters="sRGB">
<feFlood flood-opacity="0" result="BackgroundImageFix"/>
<feColorMatrix in="SourceAlpha" type="matrix" values="0 0 0 0 0 0 0 0 0 0 0 0 0 0 0 0 0 0 127 0" result="hardAlpha"/>
<feOffset dy="4"/>
<feGaussianBlur stdDeviation="2"/>
<feComposite in2="hardAlpha" operator="out"/>
<feColorMatrix type="matrix" values="0 0 0 0 0 0 0 0 0 0 0 0 0 0 0 0 0 0 0.25 0"/>
<feBlend mode="normal" in2="BackgroundImageFix" result="effect1_dropShadow_110_797"/>
<feBlend mode="normal" in="SourceGraphic" in2="effect1_dropShadow_110_797" result="shape"/>
</filter>
<filter id="filter5_d_110_797" x="598" y="467" width="126" height="206" filterUnits="userSpaceOnUse" color-interpolation-filters="sRGB">
<feFlood flood-opacity="0" result="BackgroundImageFix"/>
<feColorMatrix in="SourceAlpha" type="matrix" values="0 0 0 0 0 0 0 0 0 0 0 0 0 0 0 0 0 0 127 0" result="hardAlpha"/>
<feOffset dy="4"/>
<feGaussianBlur stdDeviation="2"/>
<feComposite in2="hardAlpha" operator="out"/>
<feColorMatrix type="matrix" values="0 0 0 0 0 0 0 0 0 0 0 0 0 0 0 0 0 0 0.25 0"/>
<feBlend mode="normal" in2="BackgroundImageFix" result="effect1_dropShadow_110_797"/>
<feBlend mode="normal" in="SourceGraphic" in2="effect1_dropShadow_110_797" result="shape"/>
</filter>
<filter id="filter6_d_110_797" x="460" y="467" width="126" height="206" filterUnits="userSpaceOnUse" color-interpolation-filters="sRGB">
<feFlood flood-opacity="0" result="BackgroundImageFix"/>
<feColorMatrix in="SourceAlpha" type="matrix" values="0 0 0 0 0 0 0 0 0 0 0 0 0 0 0 0 0 0 127 0" result="hardAlpha"/>
<feOffset dy="4"/>
<feGaussianBlur stdDeviation="2"/>
<feComposite in2="hardAlpha" operator="out"/>
<feColorMatrix type="matrix" values="0 0 0 0 0 0 0 0 0 0 0 0 0 0 0 0 0 0 0.25 0"/>
<feBlend mode="normal" in2="BackgroundImageFix" result="effect1_dropShadow_110_797"/>
<feBlend mode="normal" in="SourceGraphic" in2="effect1_dropShadow_110_797" result="shape"/>
</filter>
<filter id="filter7_d_110_797" x="518" y="513" width="126" height="206" filterUnits="userSpaceOnUse" color-interpolation-filters="sRGB">
<feFlood flood-opacity="0" result="BackgroundImageFix"/>
<feColorMatrix in="SourceAlpha" type="matrix" values="0 0 0 0 0 0 0 0 0 0 0 0 0 0 0 0 0 0 127 0" result="hardAlpha"/>
<feOffset dy="4"/>
<feGaussianBlur stdDeviation="2"/>
<feComposite in2="hardAlpha" operator="out"/>
<feColorMatrix type="matrix" values="0 0 0 0 0 0 0 0 0 0 0 0 0 0 0 0 0 0 0.25 0"/>
<feBlend mode="normal" in2="BackgroundImageFix" result="effect1_dropShadow_110_797"/>
<feBlend mode="normal" in="SourceGraphic" in2="effect1_dropShadow_110_797" result="shape"/>
</filter>
<filter id="filter8_d_110_797" x="736" y="467" width="126" height="206" filterUnits="userSpaceOnUse" color-interpolation-filters="sRGB">
<feFlood flood-opacity="0" result="BackgroundImageFix"/>
<feColorMatrix in="SourceAlpha" type="matrix" values="0 0 0 0 0 0 0 0 0 0 0 0 0 0 0 0 0 0 127 0" result="hardAlpha"/>
<feOffset dy="4"/>
<feGaussianBlur stdDeviation="2"/>
<feComposite in2="hardAlpha" operator="out"/>
<feColorMatrix type="matrix" values="0 0 0 0 0 0 0 0 0 0 0 0 0 0 0 0 0 0 0.25 0"/>
<feBlend mode="normal" in2="BackgroundImageFix" result="effect1_dropShadow_110_797"/>
<feBlend mode="normal" in="SourceGraphic" in2="effect1_dropShadow_110_797" result="shape"/>
</filter>
<filter id="filter9_d_110_797" x="380" y="513" width="126" height="206" filterUnits="userSpaceOnUse" color-interpolation-filters="sRGB">
<feFlood flood-opacity="0" result="BackgroundImageFix"/>
<feColorMatrix in="SourceAlpha" type="matrix" values="0 0 0 0 0 0 0 0 0 0 0 0 0 0 0 0 0 0 127 0" result="hardAlpha"/>
<feOffset dy="4"/>
<feGaussianBlur stdDeviation="2"/>
<feComposite in2="hardAlpha" operator="out"/>
<feColorMatrix type="matrix" values="0 0 0 0 0 0 0 0 0 0 0 0 0 0 0 0 0 0 0.25 0"/>
<feBlend mode="normal" in2="BackgroundImageFix" result="effect1_dropShadow_110_797"/>
<feBlend mode="normal" in="SourceGraphic" in2="effect1_dropShadow_110_797" result="shape"/>
</filter>
<filter id="filter10_d_110_797" x="656" y="513" width="126" height="206" filterUnits="userSpaceOnUse" color-interpolation-filters="sRGB">
<feFlood flood-opacity="0" result="BackgroundImageFix"/>
<feColorMatrix in="SourceAlpha" type="matrix" values="0 0 0 0 0 0 0 0 0 0 0 0 0 0 0 0 0 0 127 0" result="hardAlpha"/>
<feOffset dy="4"/>
<feGaussianBlur stdDeviation="2"/>
<feComposite in2="hardAlpha" operator="out"/>
<feColorMatrix type="matrix" values="0 0 0 0 0 0 0 0 0 0 0 0 0 0 0 0 0 0 0.25 0"/>
<feBlend mode="normal" in2="BackgroundImageFix" result="effect1_dropShadow_110_797"/>
<feBlend mode="normal" in="SourceGraphic" in2="effect1_dropShadow_110_797" result="shape"/>
</filter>
<filter id="filter11_d_110_797" x="794" y="513" width="126" height="206" filterUnits="userSpaceOnUse" color-interpolation-filters="sRGB">
<feFlood flood-opacity="0" result="BackgroundImageFix"/>
<feColorMatrix in="SourceAlpha" type="matrix" values="0 0 0 0 0 0 0 0 0 0 0 0 0 0 0 0 0 0 127 0" result="hardAlpha"/>
<feOffset dy="4"/>
<feGaussianBlur stdDeviation="2"/>
<feComposite in2="hardAlpha" operator="out"/>
<feColorMatrix type="matrix" values="0 0 0 0 0 0 0 0 0 0 0 0 0 0 0 0 0 0 0.25 0"/>
<feBlend mode="normal" in2="BackgroundImageFix" result="effect1_dropShadow_110_797"/>
<feBlend mode="normal" in="SourceGraphic" in2="effect1_dropShadow_110_797" result="shape"/>
</filter>
<clipPath id="clip0_110_797">
<rect width="1440" height="1024" fill="white"/>
</clipPath>
</defs>
</svg>
