<svg width="1440" height="1024" viewBox="0 0 1440 1024" fill="none" xmlns="http://www.w3.org/2000/svg">
<g id="recognize1-yes" clip-path="url(#clip0_164_162)">
<rect width="1440" height="1024" fill="#333148"/>
<rect id="Rectangle 18" x="1227" width="85" height="512" fill="#201F2F"/>
<rect id="Rectangle 22" x="599" width="85" height="512" fill="#201F2F"/>
<rect id="Rectangle 20" x="913" width="85" height="512" fill="#201F2F"/>
<rect id="Rectangle 23" x="285" width="85" height="512" fill="#201F2F"/>
<rect id="Rectangle 19" x="1070" width="85" height="512" fill="#201F2F"/>
<rect id="Rectangle 24" x="442" width="85" height="512" fill="#201F2F"/>
<rect id="Rectangle 21" x="756" width="85" height="512" fill="#201F2F"/>
<rect id="Rectangle 25" x="128" width="85" height="512" fill="#201F2F"/>
<path id="part 4" d="M47.096 132.12V60.024H61.688L62.264 71.448L59.384 70.584C59.832 68.536 61.048 66.648 63.032 64.92C65.016 63.192 67.512 61.784 70.52 60.696C73.592 59.608 76.856 59.064 80.312 59.064C85.304 59.064 89.688 60.216 93.464 62.52C97.24 64.76 100.184 67.864 102.296 71.832C104.472 75.736 105.56 80.28 105.56 85.464C105.56 90.584 104.472 95.128 102.296 99.096C100.184 103.064 97.208 106.2 93.368 108.504C89.528 110.744 85.112 111.864 80.12 111.864C76.664 111.864 73.432 111.288 70.424 110.136C67.416 108.984 64.888 107.48 62.84 105.624C60.856 103.768 59.576 101.816 59 99.768L62.552 98.424V132.12H47.096ZM76.376 98.904C79.256 98.904 81.752 98.36 83.864 97.272C85.976 96.12 87.608 94.552 88.76 92.568C89.976 90.584 90.584 88.216 90.584 85.464C90.584 82.776 89.976 80.44 88.76 78.456C87.608 76.408 85.976 74.84 83.864 73.752C81.816 72.6 79.32 72.024 76.376 72.024C73.496 72.024 70.968 72.568 68.792 73.656C66.68 74.744 65.016 76.312 63.8 78.36C62.648 80.408 62.072 82.776 62.072 85.464C62.072 88.216 62.648 90.584 63.8 92.568C65.016 94.552 66.68 96.12 68.792 97.272C70.968 98.36 73.496 98.904 76.376 98.904ZM144.211 111.864C139.155 111.864 134.739 110.744 130.963 108.504C127.187 106.264 124.211 103.16 122.035 99.192C119.923 95.16 118.867 90.584 118.867 85.464C118.867 80.28 119.955 75.704 122.131 71.736C124.307 67.768 127.315 64.664 131.155 62.424C135.059 60.12 139.539 58.968 144.595 58.968C147.475 58.968 150.131 59.352 152.563 60.12C154.995 60.824 157.107 61.816 158.899 63.096C160.755 64.376 162.259 65.784 163.411 67.32C164.627 68.856 165.427 70.456 165.811 72.12H162.451V60.024H177.619V111H162.163V97.944L165.427 98.424C165.043 100.088 164.243 101.72 163.027 103.32C161.811 104.92 160.243 106.36 158.323 107.64C156.403 108.92 154.227 109.944 151.795 110.712C149.427 111.48 146.899 111.864 144.211 111.864ZM148.339 98.904C151.219 98.904 153.715 98.36 155.827 97.272C158.003 96.184 159.667 94.648 160.819 92.664C162.035 90.616 162.643 88.216 162.643 85.464C162.643 82.776 162.035 80.44 160.819 78.456C159.667 76.408 158.003 74.808 155.827 73.656C153.715 72.504 151.219 71.928 148.339 71.928C145.459 71.928 142.963 72.504 140.851 73.656C138.739 74.808 137.075 76.408 135.859 78.456C134.707 80.44 134.131 82.776 134.131 85.464C134.131 88.216 134.707 90.616 135.859 92.664C137.075 94.648 138.739 96.184 140.851 97.272C142.963 98.36 145.459 98.904 148.339 98.904ZM201.315 111V60.024H215.907L216.579 77.592L212.931 75.768C213.763 72.632 215.203 69.816 217.251 67.32C219.363 64.76 221.763 62.744 224.451 61.272C227.203 59.736 230.115 58.968 233.187 58.968C234.851 58.968 236.419 59.128 237.891 59.448C239.427 59.768 240.739 60.184 241.827 60.696L237.603 77.496C236.643 76.792 235.331 76.248 233.667 75.864C232.067 75.48 230.435 75.288 228.771 75.288C226.915 75.288 225.219 75.608 223.683 76.248C222.211 76.824 220.963 77.656 219.939 78.744C218.915 79.768 218.115 80.952 217.539 82.296C217.027 83.64 216.771 85.08 216.771 86.616V111H201.315ZM265.932 111V46.008H281.292V111H265.932ZM254.604 73.464V60.024H294.252V73.464H254.604ZM377.032 111V53.304H387.112L357.544 88.248L355.624 83.736H405.256V96.984H349.48L343.048 84.6L378.856 43.224H392.776V111H377.032Z" fill="white"/>
<rect id="Rectangle 7" y="462" width="1567" height="626" fill="#211F2F"/>
<g id="Group 4">
<g id="Vector" filter="url(#filter0_d_164_162)">
<path d="M504.246 465.996C509.515 442.672 542.714 442.672 547.983 465.996L556.541 503.874C559.712 517.912 549.05 531.267 534.672 531.267H517.557C503.179 531.267 492.517 517.912 495.688 503.874L504.246 465.996Z" fill="#3B5EC6"/>
<path d="M549.816 415.046C549.816 428.326 539.061 439.092 525.794 439.092C512.527 439.092 501.772 428.326 501.772 415.046C501.772 401.766 512.527 391 525.794 391C539.061 391 549.816 401.766 549.816 415.046Z" fill="#3B5EC6"/>
<path d="M530.599 519.565C530.599 513.013 535.904 507.702 542.45 507.702C548.995 507.702 554.3 513.013 554.3 519.565V547.137C554.3 553.689 548.995 559 542.45 559C535.904 559 530.599 553.689 530.599 547.137V519.565Z" fill="#3B5EC6"/>
<path d="M539.867 473.609C536.517 467.981 538.36 460.7 543.982 457.347C549.605 453.993 556.879 455.837 560.229 461.466L574.328 485.153C577.678 490.781 575.836 498.062 570.213 501.415C564.59 504.769 557.316 502.925 553.966 497.296L539.867 473.609Z" fill="#3B5EC6"/>
<path d="M491.362 461.548C494.635 455.874 501.883 453.93 507.551 457.206C513.219 460.482 515.161 467.737 511.889 473.411L498.116 497.289C494.844 502.963 487.596 504.907 481.927 501.631C476.259 498.355 474.317 491.1 477.59 485.427L491.362 461.548Z" fill="#3B5EC6"/>
<path d="M497.288 519.565C497.288 513.013 502.594 507.702 509.139 507.702C515.684 507.702 520.99 513.013 520.99 519.565V547.137C520.99 553.689 515.684 559 509.139 559C502.594 559 497.288 553.689 497.288 547.137V519.565Z" fill="#3B5EC6"/>
</g>
<g id="Vector_2" filter="url(#filter1_d_164_162)">
<path d="M738.528 465.996C743.85 442.672 777.381 442.672 782.703 465.996L791.346 503.874C794.549 517.912 783.78 531.267 769.259 531.267H751.972C737.451 531.267 726.682 517.912 729.885 503.874L738.528 465.996Z" fill="#3B5EC6"/>
<path d="M784.555 415.046C784.555 428.326 773.692 439.092 760.292 439.092C746.892 439.092 736.03 428.326 736.03 415.046C736.03 401.766 746.892 391 760.292 391C773.692 391 784.555 401.766 784.555 415.046Z" fill="#3B5EC6"/>
<path d="M765.145 519.565C765.145 513.013 770.504 507.702 777.114 507.702C783.725 507.702 789.083 513.013 789.083 519.565V547.137C789.083 553.689 783.725 559 777.114 559C770.504 559 765.145 553.689 765.145 547.137V519.565Z" fill="#3B5EC6"/>
<path d="M774.506 473.609C771.123 467.981 772.983 460.7 778.662 457.347C784.341 453.993 791.688 455.837 795.071 461.466L809.311 485.153C812.695 490.781 810.834 498.062 805.155 501.415C799.476 504.769 792.13 502.925 788.746 497.296L774.506 473.609Z" fill="#3B5EC6"/>
<path d="M725.516 461.548C728.821 455.874 736.142 453.93 741.867 457.206C747.591 460.482 749.553 467.737 746.248 473.411L732.337 497.289C729.032 502.963 721.712 504.907 715.987 501.631C710.262 498.355 708.3 491.1 711.606 485.427L725.516 461.548Z" fill="#3B5EC6"/>
<path d="M731.501 519.565C731.501 513.013 736.86 507.702 743.47 507.702C750.081 507.702 755.44 513.013 755.44 519.565V547.137C755.44 553.689 750.081 559 743.47 559C736.86 559 731.501 553.689 731.501 547.137V519.565Z" fill="#3B5EC6"/>
</g>
<g id="Vector_3" filter="url(#filter2_d_164_162)">
<path d="M621.528 465.996C626.85 442.672 660.381 442.672 665.703 465.996L674.346 503.874C677.549 517.912 666.78 531.267 652.259 531.267H634.972C620.451 531.267 609.682 517.912 612.885 503.874L621.528 465.996Z" fill="#3B5EC6"/>
<path d="M667.555 415.046C667.555 428.326 656.692 439.092 643.292 439.092C629.892 439.092 619.03 428.326 619.03 415.046C619.03 401.766 629.892 391 643.292 391C656.692 391 667.555 401.766 667.555 415.046Z" fill="#3B5EC6"/>
<path d="M648.145 519.565C648.145 513.013 653.504 507.702 660.114 507.702C666.725 507.702 672.083 513.013 672.083 519.565V547.137C672.083 553.689 666.725 559 660.114 559C653.504 559 648.145 553.689 648.145 547.137V519.565Z" fill="#3B5EC6"/>
<path d="M657.506 473.609C654.123 467.981 655.983 460.7 661.662 457.347C667.341 453.993 674.688 455.837 678.071 461.466L692.311 485.153C695.695 490.781 693.834 498.062 688.155 501.415C682.476 504.769 675.13 502.925 671.746 497.296L657.506 473.609Z" fill="#3B5EC6"/>
<path d="M608.516 461.548C611.821 455.874 619.142 453.93 624.867 457.206C630.591 460.482 632.553 467.737 629.248 473.411L615.337 497.289C612.032 502.963 604.712 504.907 598.987 501.631C593.262 498.355 591.3 491.1 594.606 485.427L608.516 461.548Z" fill="#3B5EC6"/>
<path d="M614.501 519.565C614.501 513.013 619.86 507.702 626.47 507.702C633.081 507.702 638.44 513.013 638.44 519.565V547.137C638.44 553.689 633.081 559 626.47 559C619.86 559 614.501 553.689 614.501 547.137V519.565Z" fill="#3B5EC6"/>
</g>
<g id="Vector_4" filter="url(#filter3_d_164_162)">
<path d="M856.246 465.996C861.515 442.672 894.714 442.672 899.983 465.996L908.541 503.874C911.712 517.912 901.05 531.267 886.672 531.267H869.557C855.179 531.267 844.517 517.912 847.688 503.874L856.246 465.996Z" fill="#3B5EC6"/>
<path d="M901.816 415.046C901.816 428.326 891.061 439.092 877.794 439.092C864.527 439.092 853.772 428.326 853.772 415.046C853.772 401.766 864.527 391 877.794 391C891.061 391 901.816 401.766 901.816 415.046Z" fill="#3B5EC6"/>
<path d="M882.599 519.565C882.599 513.013 887.904 507.702 894.45 507.702C900.995 507.702 906.3 513.013 906.3 519.565V547.137C906.3 553.689 900.995 559 894.45 559C887.904 559 882.599 553.689 882.599 547.137V519.565Z" fill="#3B5EC6"/>
<path d="M891.867 473.609C888.517 467.981 890.36 460.7 895.982 457.347C901.605 453.993 908.879 455.837 912.229 461.466L926.328 485.153C929.678 490.781 927.836 498.062 922.213 501.415C916.59 504.769 909.316 502.925 905.966 497.296L891.867 473.609Z" fill="#3B5EC6"/>
<path d="M843.362 461.548C846.635 455.874 853.883 453.93 859.551 457.206C865.219 460.482 867.161 467.737 863.889 473.411L850.116 497.289C846.844 502.963 839.596 504.907 833.927 501.631C828.259 498.355 826.317 491.1 829.59 485.427L843.362 461.548Z" fill="#3B5EC6"/>
<path d="M849.288 519.565C849.288 513.013 854.594 507.702 861.139 507.702C867.684 507.702 872.99 513.013 872.99 519.565V547.137C872.99 553.689 867.684 559 861.139 559C854.594 559 849.288 553.689 849.288 547.137V519.565Z" fill="#3B5EC6"/>
</g>
<g id="Vector_5" filter="url(#filter4_d_164_162)">
<path d="M403.33 502.388C409.548 474.899 448.722 474.899 454.94 502.388L465.038 547.03C468.78 563.575 456.199 579.315 439.233 579.315H419.037C402.071 579.315 389.49 563.575 393.232 547.03L403.33 502.388Z" fill="#6A94E0"/>
<path d="M457.103 442.34C457.103 457.991 444.412 470.679 428.757 470.679C413.102 470.679 400.411 457.991 400.411 442.34C400.411 426.688 413.102 414 428.757 414C444.412 414 457.103 426.688 457.103 442.34Z" fill="#6A94E0"/>
<path d="M434.426 565.523C434.426 557.801 440.687 551.542 448.41 551.542C456.134 551.542 462.395 557.801 462.395 565.523V598.019C462.395 605.741 456.134 612 448.41 612C440.687 612 434.426 605.741 434.426 598.019V565.523Z" fill="#6A94E0"/>
<path d="M445.364 511.361C441.41 504.728 443.584 496.146 450.219 492.194C456.854 488.242 465.437 490.416 469.39 497.049L486.027 524.966C489.98 531.599 487.806 540.18 481.171 544.132C474.537 548.085 465.953 545.911 462 539.278L445.364 511.361Z" fill="#6A94E0"/>
<path d="M388.128 497.146C391.989 490.459 400.542 488.168 407.23 492.029C413.919 495.889 416.21 504.44 412.349 511.127L396.097 539.269C392.235 545.956 383.683 548.248 376.994 544.387C370.306 540.526 368.014 531.975 371.876 525.289L388.128 497.146Z" fill="#6A94E0"/>
<path d="M395.12 565.523C395.12 557.801 401.381 551.542 409.104 551.542C416.827 551.542 423.088 557.801 423.088 565.523V598.019C423.088 605.741 416.827 612 409.104 612C401.381 612 395.12 605.741 395.12 598.019V565.523Z" fill="#6A94E0"/>
</g>
<g id="Vector_6" filter="url(#filter5_d_164_162)">
<path d="M679.33 502.388C685.548 474.899 724.722 474.899 730.94 502.388L741.038 547.03C744.78 563.575 732.199 579.315 715.233 579.315H695.037C678.071 579.315 665.49 563.575 669.232 547.03L679.33 502.388Z" fill="#6A94E0"/>
<path d="M733.103 442.34C733.103 457.991 720.412 470.679 704.757 470.679C689.102 470.679 676.411 457.991 676.411 442.34C676.411 426.688 689.102 414 704.757 414C720.412 414 733.103 426.688 733.103 442.34Z" fill="#6A94E0"/>
<path d="M710.426 565.523C710.426 557.801 716.687 551.542 724.41 551.542C732.134 551.542 738.395 557.801 738.395 565.523V598.019C738.395 605.741 732.134 612 724.41 612C716.687 612 710.426 605.741 710.426 598.019V565.523Z" fill="#6A94E0"/>
<path d="M721.364 511.361C717.41 504.728 719.584 496.146 726.219 492.194C732.854 488.242 741.437 490.416 745.39 497.049L762.027 524.966C765.98 531.599 763.806 540.18 757.171 544.132C750.537 548.085 741.953 545.911 738 539.278L721.364 511.361Z" fill="#6A94E0"/>
<path d="M664.128 497.146C667.989 490.459 676.542 488.168 683.23 492.029C689.919 495.889 692.21 504.44 688.349 511.127L672.097 539.269C668.235 545.956 659.683 548.248 652.994 544.387C646.306 540.526 644.014 531.975 647.876 525.289L664.128 497.146Z" fill="#6A94E0"/>
<path d="M671.12 565.523C671.12 557.801 677.381 551.542 685.104 551.542C692.827 551.542 699.088 557.801 699.088 565.523V598.019C699.088 605.741 692.827 612 685.104 612C677.381 612 671.12 605.741 671.12 598.019V565.523Z" fill="#6A94E0"/>
</g>
<g id="Vector_7" filter="url(#filter6_d_164_162)">
<path d="M541.33 502.388C547.548 474.899 586.722 474.899 592.94 502.388L603.038 547.03C606.78 563.575 594.199 579.315 577.233 579.315H557.037C540.071 579.315 527.49 563.575 531.232 547.03L541.33 502.388Z" fill="#6A94E0"/>
<path d="M595.103 442.34C595.103 457.991 582.412 470.679 566.757 470.679C551.102 470.679 538.411 457.991 538.411 442.34C538.411 426.688 551.102 414 566.757 414C582.412 414 595.103 426.688 595.103 442.34Z" fill="#6A94E0"/>
<path d="M572.426 565.523C572.426 557.801 578.687 551.542 586.41 551.542C594.134 551.542 600.395 557.801 600.395 565.523V598.019C600.395 605.741 594.134 612 586.41 612C578.687 612 572.426 605.741 572.426 598.019V565.523Z" fill="#6A94E0"/>
<path d="M583.364 511.361C579.41 504.728 581.584 496.146 588.219 492.194C594.854 488.242 603.437 490.416 607.39 497.049L624.027 524.966C627.98 531.599 625.806 540.18 619.171 544.132C612.537 548.085 603.953 545.911 600 539.278L583.364 511.361Z" fill="#6A94E0"/>
<path d="M526.128 497.146C529.989 490.459 538.542 488.168 545.23 492.029C551.919 495.889 554.21 504.44 550.349 511.127L534.097 539.269C530.235 545.956 521.683 548.248 514.994 544.387C508.306 540.526 506.014 531.975 509.876 525.289L526.128 497.146Z" fill="#6A94E0"/>
<path d="M533.12 565.523C533.12 557.801 539.381 551.542 547.104 551.542C554.827 551.542 561.088 557.801 561.088 565.523V598.019C561.088 605.741 554.827 612 547.104 612C539.381 612 533.12 605.741 533.12 598.019V565.523Z" fill="#6A94E0"/>
</g>
<g id="Vector_8" filter="url(#filter7_d_164_162)">
<path d="M599.33 548.388C605.548 520.899 644.722 520.899 650.94 548.388L661.038 593.03C664.78 609.575 652.199 625.315 635.233 625.315H615.037C598.071 625.315 585.49 609.575 589.232 593.03L599.33 548.388Z" fill="#8DBBFB"/>
<path d="M653.103 488.34C653.103 503.991 640.412 516.679 624.757 516.679C609.102 516.679 596.411 503.991 596.411 488.34C596.411 472.688 609.102 460 624.757 460C640.412 460 653.103 472.688 653.103 488.34Z" fill="#8DBBFB"/>
<path d="M630.426 611.523C630.426 603.801 636.687 597.542 644.41 597.542C652.134 597.542 658.395 603.801 658.395 611.523V644.019C658.395 651.741 652.134 658 644.41 658C636.687 658 630.426 651.741 630.426 644.019V611.523Z" fill="#8DBBFB"/>
<path d="M641.364 557.361C637.41 550.728 639.584 542.146 646.219 538.194C652.854 534.242 661.437 536.416 665.39 543.049L682.027 570.966C685.98 577.599 683.806 586.18 677.171 590.132C670.537 594.085 661.953 591.911 658 585.278L641.364 557.361Z" fill="#8DBBFB"/>
<path d="M584.128 543.146C587.989 536.459 596.542 534.168 603.23 538.029C609.919 541.889 612.21 550.44 608.349 557.127L592.097 585.269C588.235 591.956 579.683 594.248 572.994 590.387C566.306 586.526 564.014 577.975 567.876 571.289L584.128 543.146Z" fill="#8DBBFB"/>
<path d="M591.12 611.523C591.12 603.801 597.381 597.542 605.104 597.542C612.827 597.542 619.088 603.801 619.088 611.523V644.019C619.088 651.741 612.827 658 605.104 658C597.381 658 591.12 651.741 591.12 644.019V611.523Z" fill="#8DBBFB"/>
</g>
<g id="Vector_9" filter="url(#filter8_d_164_162)">
<path d="M817.33 502.388C823.548 474.899 862.722 474.899 868.94 502.388L879.038 547.03C882.78 563.575 870.199 579.315 853.233 579.315H833.037C816.071 579.315 803.49 563.575 807.232 547.03L817.33 502.388Z" fill="#6A94E0"/>
<path d="M871.103 442.34C871.103 457.991 858.412 470.679 842.757 470.679C827.102 470.679 814.411 457.991 814.411 442.34C814.411 426.688 827.102 414 842.757 414C858.412 414 871.103 426.688 871.103 442.34Z" fill="#6A94E0"/>
<path d="M848.426 565.523C848.426 557.801 854.687 551.542 862.41 551.542C870.134 551.542 876.395 557.801 876.395 565.523V598.019C876.395 605.741 870.134 612 862.41 612C854.687 612 848.426 605.741 848.426 598.019V565.523Z" fill="#6A94E0"/>
<path d="M859.364 511.361C855.41 504.728 857.584 496.146 864.219 492.194C870.854 488.242 879.437 490.416 883.39 497.049L900.027 524.966C903.98 531.599 901.806 540.18 895.171 544.132C888.537 548.085 879.953 545.911 876 539.278L859.364 511.361Z" fill="#6A94E0"/>
<path d="M802.128 497.146C805.989 490.459 814.542 488.168 821.23 492.029C827.919 495.889 830.21 504.44 826.349 511.127L810.097 539.269C806.235 545.956 797.683 548.248 790.994 544.387C784.306 540.526 782.014 531.975 785.876 525.289L802.128 497.146Z" fill="#6A94E0"/>
<path d="M809.12 565.523C809.12 557.801 815.381 551.542 823.104 551.542C830.827 551.542 837.088 557.801 837.088 565.523V598.019C837.088 605.741 830.827 612 823.104 612C815.381 612 809.12 605.741 809.12 598.019V565.523Z" fill="#6A94E0"/>
</g>
<g id="Vector_10" filter="url(#filter9_d_164_162)">
<path d="M461.33 548.388C467.548 520.899 506.722 520.899 512.94 548.388L523.038 593.03C526.78 609.575 514.199 625.315 497.233 625.315H477.037C460.071 625.315 447.49 609.575 451.232 593.03L461.33 548.388Z" fill="#8DBBFB"/>
<path d="M515.103 488.34C515.103 503.991 502.412 516.679 486.757 516.679C471.102 516.679 458.411 503.991 458.411 488.34C458.411 472.688 471.102 460 486.757 460C502.412 460 515.103 472.688 515.103 488.34Z" fill="#8DBBFB"/>
<path d="M492.426 611.523C492.426 603.801 498.687 597.542 506.41 597.542C514.134 597.542 520.395 603.801 520.395 611.523V644.019C520.395 651.741 514.134 658 506.41 658C498.687 658 492.426 651.741 492.426 644.019V611.523Z" fill="#8DBBFB"/>
<path d="M503.364 557.361C499.41 550.728 501.584 542.146 508.219 538.194C514.854 534.242 523.437 536.416 527.39 543.049L544.027 570.966C547.98 577.599 545.806 586.18 539.171 590.132C532.537 594.085 523.953 591.911 520 585.278L503.364 557.361Z" fill="#8DBBFB"/>
<path d="M446.128 543.146C449.989 536.459 458.542 534.168 465.23 538.029C471.919 541.889 474.21 550.44 470.349 557.127L454.097 585.269C450.235 591.956 441.683 594.248 434.994 590.387C428.306 586.526 426.014 577.975 429.876 571.289L446.128 543.146Z" fill="#8DBBFB"/>
<path d="M453.12 611.523C453.12 603.801 459.381 597.542 467.104 597.542C474.827 597.542 481.088 603.801 481.088 611.523V644.019C481.088 651.741 474.827 658 467.104 658C459.381 658 453.12 651.741 453.12 644.019V611.523Z" fill="#8DBBFB"/>
</g>
<g id="Vector_11" filter="url(#filter10_d_164_162)">
<path d="M737.33 548.388C743.548 520.899 782.722 520.899 788.94 548.388L799.038 593.03C802.78 609.575 790.199 625.315 773.233 625.315H753.037C736.071 625.315 723.49 609.575 727.232 593.03L737.33 548.388Z" fill="#8DBBFB"/>
<path d="M791.103 488.34C791.103 503.991 778.412 516.679 762.757 516.679C747.102 516.679 734.411 503.991 734.411 488.34C734.411 472.688 747.102 460 762.757 460C778.412 460 791.103 472.688 791.103 488.34Z" fill="#8DBBFB"/>
<path d="M768.426 611.523C768.426 603.801 774.687 597.542 782.41 597.542C790.134 597.542 796.395 603.801 796.395 611.523V644.019C796.395 651.741 790.134 658 782.41 658C774.687 658 768.426 651.741 768.426 644.019V611.523Z" fill="#8DBBFB"/>
<path d="M779.364 557.361C775.41 550.728 777.584 542.146 784.219 538.194C790.854 534.242 799.437 536.416 803.39 543.049L820.027 570.966C823.98 577.599 821.806 586.18 815.171 590.132C808.537 594.085 799.953 591.911 796 585.278L779.364 557.361Z" fill="#8DBBFB"/>
<path d="M722.128 543.146C725.989 536.459 734.542 534.168 741.23 538.029C747.919 541.889 750.21 550.44 746.349 557.127L730.097 585.269C726.235 591.956 717.683 594.248 710.994 590.387C704.306 586.526 702.014 577.975 705.876 571.289L722.128 543.146Z" fill="#8DBBFB"/>
<path d="M729.12 611.523C729.12 603.801 735.381 597.542 743.104 597.542C750.827 597.542 757.088 603.801 757.088 611.523V644.019C757.088 651.741 750.827 658 743.104 658C735.381 658 729.12 651.741 729.12 644.019V611.523Z" fill="#8DBBFB"/>
</g>
<g id="Vector_12" filter="url(#filter11_d_164_162)">
<path d="M875.33 548.388C881.548 520.899 920.722 520.899 926.94 548.388L937.038 593.03C940.78 609.575 928.199 625.315 911.233 625.315H891.037C874.071 625.315 861.49 609.575 865.232 593.03L875.33 548.388Z" fill="#8DBBFB"/>
<path d="M929.103 488.34C929.103 503.991 916.412 516.679 900.757 516.679C885.102 516.679 872.411 503.991 872.411 488.34C872.411 472.688 885.102 460 900.757 460C916.412 460 929.103 472.688 929.103 488.34Z" fill="#8DBBFB"/>
<path d="M906.426 611.523C906.426 603.801 912.687 597.542 920.41 597.542C928.134 597.542 934.395 603.801 934.395 611.523V644.019C934.395 651.741 928.134 658 920.41 658C912.687 658 906.426 651.741 906.426 644.019V611.523Z" fill="#8DBBFB"/>
<path d="M917.364 557.361C913.41 550.728 915.584 542.146 922.219 538.194C928.854 534.242 937.437 536.416 941.39 543.049L958.027 570.966C961.98 577.599 959.806 586.18 953.171 590.132C946.537 594.085 937.953 591.911 934 585.278L917.364 557.361Z" fill="#8DBBFB"/>
<path d="M860.128 543.146C863.989 536.459 872.542 534.168 879.23 538.029C885.919 541.889 888.21 550.44 884.349 557.127L868.097 585.269C864.235 591.956 855.683 594.248 848.994 590.387C842.306 586.526 840.014 577.975 843.876 571.289L860.128 543.146Z" fill="#8DBBFB"/>
<path d="M867.12 611.523C867.12 603.801 873.381 597.542 881.104 597.542C888.827 597.542 895.088 603.801 895.088 611.523V644.019C895.088 651.741 888.827 658 881.104 658C873.381 658 867.12 651.741 867.12 644.019V611.523Z" fill="#8DBBFB"/>
</g>
</g>
<g id="next">
<g id="Next">
<path id="Next_2" d="M1100.81 909V864.2H1110.79L1137.86 896.2L1136.01 895.88C1135.75 894.387 1135.56 892.957 1135.43 891.592C1135.3 890.227 1135.18 888.904 1135.05 887.624C1134.96 886.344 1134.88 885.064 1134.79 883.784C1134.75 882.504 1134.73 881.16 1134.73 879.752C1134.73 878.344 1134.73 876.851 1134.73 875.272V864.2H1145.29V909H1135.18L1107.08 875.976L1110.09 876.424C1110.22 877.917 1110.34 879.261 1110.47 880.456C1110.64 881.651 1110.77 882.781 1110.86 883.848C1110.98 884.872 1111.07 885.917 1111.11 886.984C1111.2 888.008 1111.26 889.096 1111.3 890.248C1111.35 891.4 1111.37 892.659 1111.37 894.024V909H1100.81ZM1177.89 909.64C1173.76 909.64 1170.13 908.893 1167.01 907.4C1163.94 905.864 1161.55 903.795 1159.85 901.192C1158.14 898.547 1157.29 895.539 1157.29 892.168C1157.29 889.48 1157.78 887.048 1158.76 884.872C1159.74 882.696 1161.11 880.819 1162.85 879.24C1164.6 877.661 1166.65 876.445 1169 875.592C1171.35 874.739 1173.88 874.312 1176.61 874.312C1179.26 874.312 1181.69 874.739 1183.91 875.592C1186.13 876.403 1188.05 877.576 1189.67 879.112C1191.33 880.648 1192.61 882.461 1193.51 884.552C1194.41 886.643 1194.81 888.947 1194.73 891.464L1194.66 894.344H1164.01L1162.53 888.392H1186.34L1185.25 889.672V888.392C1185.13 887.325 1184.66 886.365 1183.85 885.512C1183.08 884.659 1182.08 883.997 1180.84 883.528C1179.6 883.016 1178.24 882.76 1176.74 882.76C1174.82 882.76 1173.12 883.08 1171.62 883.72C1170.13 884.317 1168.96 885.256 1168.1 886.536C1167.29 887.816 1166.89 889.437 1166.89 891.4C1166.89 893.277 1167.38 894.92 1168.36 896.328C1169.38 897.736 1170.81 898.845 1172.65 899.656C1174.52 900.467 1176.72 900.872 1179.24 900.872C1181.41 900.872 1183.23 900.616 1184.68 900.104C1186.17 899.549 1187.52 898.867 1188.71 898.056L1193.32 904.712C1191.91 905.779 1190.35 906.696 1188.65 907.464C1186.98 908.189 1185.23 908.723 1183.4 909.064C1181.61 909.448 1179.77 909.64 1177.89 909.64ZM1231.57 909L1222.16 896.776L1219.54 893.32L1204.63 875.016H1217.56L1226 886.216L1228.82 889.928L1244.37 909H1231.57ZM1203.8 909L1219.03 889.8L1225.24 896.136L1216.53 909H1203.8ZM1228.76 894.216L1222.74 887.816L1231.32 875.016H1243.99L1228.76 894.216ZM1260.39 909V865.672H1270.63V909H1260.39ZM1252.84 883.976V875.016H1279.27V883.976H1252.84Z" fill="white"/>
</g>
<path id="Arrow 1" d="M1094 913.5C1089.31 913.5 1085.5 917.306 1085.5 922C1085.5 926.694 1089.31 930.5 1094 930.5V922V913.5ZM1371 922L1286 872.925V971.075L1371 922ZM1094 922V930.5H1294.5V922V913.5H1094V922Z" fill="#EF1044"/>
</g>
<rect id="Rectangle 36" x="1137" y="414" width="154" height="222" rx="32" fill="#8DBBFB"/>
<path id="super AI PC 3000" d="M1167.56 462.32C1165.68 462.32 1164 462.053 1162.5 461.52C1161.03 460.987 1159.85 460.229 1158.95 459.248L1162.05 456.496C1162.78 457.179 1163.64 457.701 1164.65 458.064C1165.65 458.427 1166.71 458.608 1167.81 458.608C1168.16 458.608 1168.49 458.576 1168.81 458.512C1169.15 458.448 1169.44 458.363 1169.67 458.256C1169.93 458.128 1170.13 457.979 1170.28 457.808C1170.43 457.637 1170.5 457.424 1170.5 457.168C1170.5 456.763 1170.25 456.443 1169.73 456.208C1169.37 456.08 1168.91 455.952 1168.36 455.824C1167.8 455.696 1167.17 455.557 1166.47 455.408C1165.3 455.195 1164.26 454.939 1163.37 454.64C1162.49 454.32 1161.76 453.925 1161.16 453.456C1160.65 453.008 1160.25 452.496 1159.97 451.92C1159.7 451.344 1159.56 450.672 1159.56 449.904C1159.56 449.115 1159.76 448.4 1160.17 447.76C1160.57 447.099 1161.14 446.544 1161.86 446.096C1162.59 445.627 1163.42 445.275 1164.36 445.04C1165.3 444.784 1166.28 444.656 1167.3 444.656C1168.33 444.656 1169.33 444.763 1170.31 444.976C1171.29 445.168 1172.22 445.456 1173.09 445.84C1173.97 446.203 1174.74 446.672 1175.4 447.248L1172.77 450.32C1172.31 449.957 1171.76 449.627 1171.14 449.328C1170.52 449.029 1169.86 448.795 1169.16 448.624C1168.48 448.432 1167.8 448.336 1167.14 448.336C1166.78 448.336 1166.43 448.357 1166.09 448.4C1165.77 448.443 1165.49 448.528 1165.25 448.656C1165.02 448.763 1164.83 448.901 1164.68 449.072C1164.55 449.221 1164.49 449.413 1164.49 449.648C1164.49 449.84 1164.54 450.021 1164.65 450.192C1164.75 450.363 1164.91 450.501 1165.13 450.608C1165.43 450.8 1165.86 450.971 1166.44 451.12C1167.04 451.269 1167.78 451.429 1168.68 451.6C1169.98 451.877 1171.09 452.197 1172.01 452.56C1172.92 452.901 1173.66 453.317 1174.21 453.808C1174.66 454.149 1174.99 454.576 1175.21 455.088C1175.42 455.579 1175.53 456.123 1175.53 456.72C1175.53 457.808 1175.17 458.779 1174.47 459.632C1173.79 460.464 1172.85 461.125 1171.65 461.616C1170.48 462.085 1169.12 462.32 1167.56 462.32ZM1187.71 462.352C1186.35 462.352 1185.16 462.053 1184.16 461.456C1183.18 460.859 1182.42 459.995 1181.89 458.864C1181.35 457.712 1181.09 456.336 1181.09 454.736V445.008H1186.21V453.904C1186.21 454.779 1186.33 455.515 1186.56 456.112C1186.82 456.709 1187.21 457.168 1187.74 457.488C1188.28 457.787 1188.93 457.936 1189.7 457.936C1190.25 457.936 1190.76 457.851 1191.23 457.68C1191.7 457.488 1192.12 457.232 1192.48 456.912C1192.84 456.571 1193.12 456.187 1193.31 455.76C1193.53 455.312 1193.63 454.811 1193.63 454.256V445.008H1198.75V462H1193.95L1193.73 458.512L1194.66 458.128C1194.42 458.875 1193.97 459.568 1193.31 460.208C1192.65 460.848 1191.84 461.371 1190.88 461.776C1189.94 462.16 1188.89 462.352 1187.71 462.352ZM1206.72 469.04V445.008H1211.58L1211.78 448.816L1210.82 448.528C1210.96 447.845 1211.37 447.216 1212.03 446.64C1212.69 446.064 1213.52 445.595 1214.53 445.232C1215.55 444.869 1216.64 444.688 1217.79 444.688C1219.46 444.688 1220.92 445.072 1222.18 445.84C1223.43 446.587 1224.42 447.621 1225.12 448.944C1225.84 450.245 1226.21 451.76 1226.21 453.488C1226.21 455.195 1225.84 456.709 1225.12 458.032C1224.42 459.355 1223.42 460.4 1222.14 461.168C1220.86 461.915 1219.39 462.288 1217.73 462.288C1216.58 462.288 1215.5 462.096 1214.5 461.712C1213.49 461.328 1212.65 460.827 1211.97 460.208C1211.31 459.589 1210.88 458.939 1210.69 458.256L1211.87 457.808V469.04H1206.72ZM1216.48 457.968C1217.44 457.968 1218.27 457.787 1218.98 457.424C1219.68 457.04 1220.22 456.517 1220.61 455.856C1221.01 455.195 1221.22 454.405 1221.22 453.488C1221.22 452.592 1221.01 451.813 1220.61 451.152C1220.22 450.469 1219.68 449.947 1218.98 449.584C1218.29 449.2 1217.46 449.008 1216.48 449.008C1215.52 449.008 1214.68 449.189 1213.95 449.552C1213.25 449.915 1212.69 450.437 1212.29 451.12C1211.9 451.803 1211.71 452.592 1211.71 453.488C1211.71 454.405 1211.9 455.195 1212.29 455.856C1212.69 456.517 1213.25 457.04 1213.95 457.424C1214.68 457.787 1215.52 457.968 1216.48 457.968ZM1240.95 462.32C1238.88 462.32 1237.06 461.947 1235.51 461.2C1233.97 460.432 1232.78 459.397 1231.92 458.096C1231.07 456.773 1230.64 455.269 1230.64 453.584C1230.64 452.24 1230.89 451.024 1231.38 449.936C1231.87 448.848 1232.55 447.909 1233.43 447.12C1234.3 446.331 1235.33 445.723 1236.5 445.296C1237.67 444.869 1238.94 444.656 1240.31 444.656C1241.63 444.656 1242.85 444.869 1243.96 445.296C1245.06 445.701 1246.02 446.288 1246.84 447.056C1247.67 447.824 1248.31 448.731 1248.76 449.776C1249.2 450.821 1249.41 451.973 1249.36 453.232L1249.33 454.672H1234L1233.27 451.696H1245.17L1244.63 452.336V451.696C1244.56 451.163 1244.33 450.683 1243.92 450.256C1243.54 449.829 1243.04 449.499 1242.42 449.264C1241.8 449.008 1241.12 448.88 1240.37 448.88C1239.41 448.88 1238.56 449.04 1237.81 449.36C1237.06 449.659 1236.48 450.128 1236.05 450.768C1235.65 451.408 1235.44 452.219 1235.44 453.2C1235.44 454.139 1235.69 454.96 1236.18 455.664C1236.69 456.368 1237.41 456.923 1238.32 457.328C1239.26 457.733 1240.36 457.936 1241.62 457.936C1242.71 457.936 1243.61 457.808 1244.34 457.552C1245.09 457.275 1245.76 456.933 1246.36 456.528L1248.66 459.856C1247.96 460.389 1247.18 460.848 1246.32 461.232C1245.49 461.595 1244.62 461.861 1243.7 462.032C1242.8 462.224 1241.89 462.32 1240.95 462.32ZM1255.72 462V445.008H1260.58L1260.81 450.864L1259.59 450.256C1259.87 449.211 1260.35 448.272 1261.03 447.44C1261.74 446.587 1262.54 445.915 1263.43 445.424C1264.35 444.912 1265.32 444.656 1266.34 444.656C1266.9 444.656 1267.42 444.709 1267.91 444.816C1268.42 444.923 1268.86 445.061 1269.22 445.232L1267.82 450.832C1267.5 450.597 1267.06 450.416 1266.5 450.288C1265.97 450.16 1265.43 450.096 1264.87 450.096C1264.25 450.096 1263.69 450.203 1263.18 450.416C1262.68 450.608 1262.27 450.885 1261.93 451.248C1261.59 451.589 1261.32 451.984 1261.13 452.432C1260.96 452.88 1260.87 453.36 1260.87 453.872V462H1255.72ZM1158.46 502L1168.22 479.6H1173.05L1182.75 502H1177.18L1171.99 489.872C1171.8 489.403 1171.61 488.933 1171.42 488.464C1171.25 487.995 1171.08 487.515 1170.91 487.024C1170.73 486.533 1170.57 486.053 1170.43 485.584C1170.28 485.115 1170.14 484.667 1170.01 484.24L1171.1 484.208C1170.97 484.72 1170.82 485.211 1170.65 485.68C1170.5 486.149 1170.34 486.619 1170.17 487.088C1170 487.536 1169.82 487.995 1169.63 488.464C1169.43 488.933 1169.24 489.413 1169.05 489.904L1163.87 502H1158.46ZM1163.03 497.84L1164.79 493.744H1176.31L1177.62 497.84H1163.03ZM1187.43 502V497.328H1192.11V484.272H1187.43V479.6H1202.25V484.272H1197.55V497.328H1202.25V502H1187.43ZM1222.9 502V479.6H1234.14C1235.59 479.6 1236.88 479.92 1238.01 480.56C1239.16 481.2 1240.08 482.075 1240.76 483.184C1241.44 484.293 1241.78 485.541 1241.78 486.928C1241.78 488.4 1241.43 489.723 1240.73 490.896C1240.02 492.048 1239.07 492.965 1237.88 493.648C1236.71 494.309 1235.37 494.64 1233.88 494.64H1228.34V502H1222.9ZM1228.25 489.872H1233.02C1233.57 489.872 1234.08 489.755 1234.55 489.52C1235.04 489.264 1235.43 488.923 1235.7 488.496C1236 488.069 1236.15 487.579 1236.15 487.024C1236.15 486.469 1236 486 1235.7 485.616C1235.43 485.232 1235.04 484.933 1234.55 484.72C1234.08 484.507 1233.57 484.4 1233.02 484.4H1228.25V489.872ZM1259.19 502.32C1257.42 502.32 1255.77 502.043 1254.23 501.488C1252.72 500.912 1251.39 500.112 1250.23 499.088C1249.1 498.064 1248.23 496.848 1247.61 495.44C1246.99 494.011 1246.68 492.432 1246.68 490.704C1246.68 489.019 1247 487.472 1247.64 486.064C1248.3 484.656 1249.2 483.44 1250.33 482.416C1251.46 481.392 1252.79 480.592 1254.33 480.016C1255.87 479.44 1257.52 479.152 1259.29 479.152C1260.51 479.152 1261.68 479.301 1262.81 479.6C1263.96 479.899 1265.03 480.315 1266.01 480.848C1266.99 481.381 1267.82 481.989 1268.51 482.672L1265.27 486.704C1264.76 486.213 1264.21 485.787 1263.61 485.424C1263.01 485.04 1262.34 484.741 1261.59 484.528C1260.85 484.293 1260.03 484.176 1259.13 484.176C1258.25 484.176 1257.4 484.325 1256.57 484.624C1255.74 484.923 1255 485.36 1254.36 485.936C1253.72 486.491 1253.21 487.184 1252.83 488.016C1252.46 488.827 1252.28 489.744 1252.28 490.768C1252.28 491.792 1252.47 492.709 1252.86 493.52C1253.24 494.331 1253.76 495.024 1254.43 495.6C1255.11 496.155 1255.9 496.581 1256.79 496.88C1257.69 497.179 1258.66 497.328 1259.71 497.328C1260.62 497.328 1261.45 497.2 1262.2 496.944C1262.95 496.688 1263.62 496.379 1264.22 496.016C1264.81 495.632 1265.35 495.227 1265.82 494.8L1268.41 498.992C1267.83 499.547 1267.07 500.08 1266.11 500.592C1265.15 501.104 1264.07 501.52 1262.87 501.84C1261.68 502.16 1260.45 502.32 1259.19 502.32ZM1177.2 542.32C1175.18 542.32 1173.43 541.904 1171.96 541.072C1170.48 540.24 1169.2 538.971 1168.12 537.264L1172.02 534.544C1172.45 535.205 1172.92 535.781 1173.43 536.272C1173.96 536.741 1174.54 537.115 1175.16 537.392C1175.8 537.669 1176.5 537.808 1177.27 537.808C1177.99 537.808 1178.67 537.691 1179.28 537.456C1179.9 537.221 1180.4 536.869 1180.79 536.4C1181.17 535.909 1181.36 535.323 1181.36 534.64C1181.36 533.957 1181.18 533.403 1180.82 532.976C1180.46 532.528 1179.99 532.208 1179.41 532.016C1178.84 531.803 1178.21 531.696 1177.52 531.696C1177.18 531.696 1176.83 531.728 1176.47 531.792C1176.11 531.856 1175.75 531.941 1175.41 532.048C1175.07 532.133 1174.74 532.261 1174.42 532.432L1173.14 529.36L1179.22 523.312L1180.31 524.176L1169.68 523.984V519.408H1184.72L1185.75 521.872L1177.68 529.84L1176.4 527.952C1176.62 527.867 1176.95 527.792 1177.4 527.728C1177.87 527.664 1178.35 527.632 1178.84 527.632C1179.84 527.632 1180.79 527.813 1181.68 528.176C1182.58 528.517 1183.38 528.997 1184.08 529.616C1184.79 530.235 1185.34 530.971 1185.75 531.824C1186.15 532.656 1186.36 533.563 1186.36 534.544C1186.36 536.08 1185.94 537.435 1185.11 538.608C1184.3 539.76 1183.2 540.667 1181.81 541.328C1180.45 541.989 1178.91 542.32 1177.2 542.32ZM1200.65 542.32C1198.45 542.32 1196.58 541.851 1195.05 540.912C1193.51 539.973 1192.35 538.64 1191.56 536.912C1190.77 535.184 1190.37 533.147 1190.37 530.8C1190.37 528.453 1190.77 526.416 1191.56 524.688C1192.35 522.96 1193.51 521.627 1195.05 520.688C1196.58 519.749 1198.45 519.28 1200.65 519.28C1202.82 519.28 1204.67 519.749 1206.18 520.688C1207.7 521.627 1208.85 522.96 1209.64 524.688C1210.43 526.416 1210.82 528.453 1210.82 530.8C1210.82 533.147 1210.43 535.184 1209.64 536.912C1208.85 538.64 1207.7 539.973 1206.18 540.912C1204.67 541.851 1202.82 542.32 1200.65 542.32ZM1200.65 537.712C1202.23 537.712 1203.45 537.115 1204.33 535.92C1205.2 534.725 1205.64 533.019 1205.64 530.8C1205.64 528.517 1205.2 526.768 1204.33 525.552C1203.45 524.315 1202.23 523.696 1200.65 523.696C1199.03 523.696 1197.77 524.315 1196.87 525.552C1195.97 526.768 1195.53 528.517 1195.53 530.8C1195.53 533.019 1195.97 534.725 1196.87 535.92C1197.77 537.115 1199.03 537.712 1200.65 537.712ZM1225.02 542.32C1222.82 542.32 1220.96 541.851 1219.42 540.912C1217.89 539.973 1216.72 538.64 1215.93 536.912C1215.14 535.184 1214.75 533.147 1214.75 530.8C1214.75 528.453 1215.14 526.416 1215.93 524.688C1216.72 522.96 1217.89 521.627 1219.42 520.688C1220.96 519.749 1222.82 519.28 1225.02 519.28C1227.2 519.28 1229.04 519.749 1230.56 520.688C1232.07 521.627 1233.22 522.96 1234.01 524.688C1234.8 526.416 1235.2 528.453 1235.2 530.8C1235.2 533.147 1234.8 535.184 1234.01 536.912C1233.22 538.64 1232.07 539.973 1230.56 540.912C1229.04 541.851 1227.2 542.32 1225.02 542.32ZM1225.02 537.712C1226.6 537.712 1227.83 537.115 1228.7 535.92C1229.58 534.725 1230.01 533.019 1230.01 530.8C1230.01 528.517 1229.58 526.768 1228.7 525.552C1227.83 524.315 1226.6 523.696 1225.02 523.696C1223.4 523.696 1222.14 524.315 1221.25 525.552C1220.35 526.768 1219.9 528.517 1219.9 530.8C1219.9 533.019 1220.35 534.725 1221.25 535.92C1222.14 537.115 1223.4 537.712 1225.02 537.712ZM1249.4 542.32C1247.2 542.32 1245.33 541.851 1243.8 540.912C1242.26 539.973 1241.1 538.64 1240.31 536.912C1239.52 535.184 1239.12 533.147 1239.12 530.8C1239.12 528.453 1239.52 526.416 1240.31 524.688C1241.1 522.96 1242.26 521.627 1243.8 520.688C1245.33 519.749 1247.2 519.28 1249.4 519.28C1251.57 519.28 1253.42 519.749 1254.93 520.688C1256.45 521.627 1257.6 522.96 1258.39 524.688C1259.18 526.416 1259.57 528.453 1259.57 530.8C1259.57 533.147 1259.18 535.184 1258.39 536.912C1257.6 538.64 1256.45 539.973 1254.93 540.912C1253.42 541.851 1251.57 542.32 1249.4 542.32ZM1249.4 537.712C1250.98 537.712 1252.2 537.115 1253.08 535.92C1253.95 534.725 1254.39 533.019 1254.39 530.8C1254.39 528.517 1253.95 526.768 1253.08 525.552C1252.2 524.315 1250.98 523.696 1249.4 523.696C1247.78 523.696 1246.52 524.315 1245.62 525.552C1244.72 526.768 1244.28 528.517 1244.28 530.8C1244.28 533.019 1244.72 534.725 1245.62 535.92C1246.52 537.115 1247.78 537.712 1249.4 537.712Z" fill="#211F2F"/>
<path id="this will do!" d="M484.408 327V302.628H490.168V327H484.408ZM480.16 312.924V307.884H495.028V312.924H480.16ZM502.118 327V300.36H507.77V312.348L506.402 312.816C506.642 311.856 507.146 310.98 507.914 310.188C508.706 309.372 509.666 308.724 510.794 308.244C511.922 307.74 513.122 307.488 514.394 307.488C516.026 307.488 517.394 307.824 518.498 308.496C519.626 309.144 520.466 310.068 521.018 311.268C521.594 312.444 521.882 313.824 521.882 315.408V327H516.086V316.308C516.086 315.444 515.93 314.724 515.618 314.148C515.33 313.548 514.886 313.092 514.286 312.78C513.71 312.468 513.038 312.324 512.27 312.348C511.646 312.348 511.058 312.456 510.506 312.672C509.978 312.864 509.51 313.152 509.102 313.536C508.718 313.896 508.418 314.316 508.202 314.796C507.986 315.276 507.878 315.792 507.878 316.344V327H505.034C504.242 327 503.606 327 503.126 327C502.646 327 502.31 327 502.118 327ZM530.988 327V307.884H536.784V327H530.988ZM533.868 303.96C532.788 303.96 531.948 303.708 531.348 303.204C530.748 302.676 530.448 301.932 530.448 300.972C530.448 300.108 530.748 299.4 531.348 298.848C531.972 298.296 532.812 298.02 533.868 298.02C534.948 298.02 535.788 298.284 536.388 298.812C536.988 299.316 537.288 300.036 537.288 300.972C537.288 301.86 536.976 302.58 536.352 303.132C535.752 303.684 534.924 303.96 533.868 303.96ZM553.371 327.36C551.259 327.36 549.363 327.06 547.683 326.46C546.027 325.86 544.695 325.008 543.687 323.904L547.179 320.808C547.995 321.576 548.967 322.164 550.095 322.572C551.223 322.98 552.411 323.184 553.659 323.184C554.043 323.184 554.415 323.148 554.775 323.076C555.159 323.004 555.483 322.908 555.747 322.788C556.035 322.644 556.263 322.476 556.431 322.284C556.599 322.092 556.683 321.852 556.683 321.564C556.683 321.108 556.395 320.748 555.819 320.484C555.411 320.34 554.895 320.196 554.271 320.052C553.647 319.908 552.939 319.752 552.146 319.584C550.827 319.344 549.663 319.056 548.655 318.72C547.671 318.36 546.843 317.916 546.171 317.388C545.595 316.884 545.151 316.308 544.839 315.66C544.527 315.012 544.371 314.256 544.371 313.392C544.371 312.504 544.599 311.7 545.055 310.98C545.511 310.236 546.147 309.612 546.963 309.108C547.779 308.58 548.715 308.184 549.771 307.92C550.827 307.632 551.931 307.488 553.083 307.488C554.235 307.488 555.363 307.608 556.467 307.848C557.571 308.064 558.615 308.388 559.599 308.82C560.583 309.228 561.447 309.756 562.191 310.404L559.239 313.86C558.711 313.452 558.099 313.08 557.403 312.744C556.707 312.408 555.963 312.144 555.171 311.952C554.403 311.736 553.647 311.628 552.903 311.628C552.495 311.628 552.099 311.652 551.715 311.7C551.355 311.748 551.043 311.844 550.779 311.988C550.515 312.108 550.299 312.264 550.131 312.456C549.987 312.624 549.915 312.84 549.915 313.104C549.915 313.32 549.975 313.524 550.095 313.716C550.215 313.908 550.395 314.064 550.635 314.184C550.971 314.4 551.463 314.592 552.111 314.76C552.783 314.928 553.623 315.108 554.631 315.3C556.095 315.612 557.343 315.972 558.375 316.38C559.407 316.764 560.235 317.232 560.859 317.784C561.363 318.168 561.735 318.648 561.975 319.224C562.215 319.776 562.335 320.388 562.335 321.06C562.335 322.284 561.939 323.376 561.147 324.336C560.379 325.272 559.323 326.016 557.979 326.568C556.659 327.096 555.123 327.36 553.371 327.36ZM587.107 327L580.447 307.884H586.531L590.311 320.484L589.555 320.412L593.875 310.44H597.583L602.191 320.412L601.435 320.484L605.215 307.884H611.335L604.459 327H600.103L595.135 315.48L596.467 315.444L591.427 327H587.107ZM617.367 327V307.884H623.163V327H617.367ZM620.247 303.96C619.167 303.96 618.327 303.708 617.727 303.204C617.127 302.676 616.827 301.932 616.827 300.972C616.827 300.108 617.127 299.4 617.727 298.848C618.351 298.296 619.191 298.02 620.247 298.02C621.327 298.02 622.167 298.284 622.767 298.812C623.367 299.316 623.667 300.036 623.667 300.972C623.667 301.86 623.355 302.58 622.731 303.132C622.131 303.684 621.303 303.96 620.247 303.96ZM632.477 327V300.36H638.237V327H632.477ZM647.349 327V300.36H653.109V327H647.349ZM683.976 327.396C682.104 327.396 680.46 326.976 679.044 326.136C677.628 325.272 676.524 324.096 675.732 322.608C674.94 321.096 674.544 319.38 674.544 317.46C674.544 315.54 674.952 313.836 675.768 312.348C676.584 310.836 677.712 309.648 679.152 308.784C680.616 307.92 682.296 307.488 684.192 307.488C685.248 307.488 686.232 307.632 687.144 307.92C688.056 308.184 688.872 308.544 689.592 309C690.336 309.456 690.924 309.984 691.356 310.584C691.812 311.16 692.076 311.748 692.148 312.348L690.78 312.672V300.36H696.576V327H691.212L690.888 322.356L692.04 322.644C691.968 323.244 691.704 323.832 691.248 324.408C690.792 324.96 690.192 325.464 689.448 325.92C688.728 326.352 687.9 326.712 686.964 327C686.028 327.264 685.032 327.396 683.976 327.396ZM685.596 322.536C686.676 322.536 687.612 322.32 688.404 321.888C689.22 321.456 689.844 320.868 690.276 320.124C690.708 319.356 690.924 318.468 690.924 317.46C690.924 316.428 690.708 315.54 690.276 314.796C689.844 314.028 689.22 313.44 688.404 313.032C687.612 312.6 686.676 312.384 685.596 312.384C684.516 312.384 683.58 312.6 682.788 313.032C681.996 313.44 681.372 314.028 680.916 314.796C680.484 315.54 680.268 316.428 680.268 317.46C680.268 318.468 680.484 319.356 680.916 320.124C681.372 320.868 681.996 321.456 682.788 321.888C683.58 322.32 684.516 322.536 685.596 322.536ZM714.581 327.36C712.349 327.36 710.369 326.928 708.641 326.064C706.913 325.2 705.557 324.024 704.573 322.536C703.589 321.048 703.097 319.344 703.097 317.424C703.097 315.504 703.589 313.8 704.573 312.312C705.557 310.824 706.913 309.648 708.641 308.784C710.369 307.92 712.349 307.488 714.581 307.488C716.789 307.488 718.745 307.92 720.449 308.784C722.177 309.648 723.533 310.824 724.517 312.312C725.501 313.8 725.993 315.504 725.993 317.424C725.993 319.344 725.501 321.048 724.517 322.536C723.533 324.024 722.177 325.2 720.449 326.064C718.745 326.928 716.789 327.36 714.581 327.36ZM714.581 322.392C715.613 322.392 716.549 322.176 717.389 321.744C718.253 321.312 718.925 320.724 719.405 319.98C719.909 319.236 720.149 318.384 720.125 317.424C720.149 316.464 719.909 315.6 719.405 314.832C718.925 314.064 718.253 313.476 717.389 313.068C716.549 312.636 715.613 312.42 714.581 312.42C713.525 312.42 712.553 312.636 711.665 313.068C710.801 313.5 710.129 314.088 709.649 314.832C709.169 315.576 708.929 316.44 708.929 317.424C708.929 318.384 709.169 319.236 709.649 319.98C710.129 320.724 710.801 321.312 711.665 321.744C712.553 322.176 713.525 322.392 714.581 322.392ZM734.606 317.82C734.342 316.428 734.078 314.964 733.814 313.428C733.574 311.892 733.37 310.344 733.202 308.784C733.034 307.2 732.95 305.676 732.95 304.212V301.404H739.898V304.212C739.898 305.676 739.814 307.2 739.646 308.784C739.502 310.344 739.298 311.892 739.034 313.428C738.794 314.964 738.518 316.428 738.206 317.82H734.606ZM736.442 327.396C735.266 327.396 734.366 327.12 733.742 326.568C733.118 325.992 732.806 325.2 732.806 324.192C732.806 323.28 733.118 322.512 733.742 321.888C734.39 321.264 735.29 320.952 736.442 320.952C737.618 320.952 738.506 321.24 739.106 321.816C739.73 322.392 740.042 323.184 740.042 324.192C740.042 325.08 739.718 325.836 739.07 326.46C738.446 327.084 737.57 327.396 736.442 327.396Z" fill="white"/>
</g>
<defs>
<filter id="filter0_d_164_162" x="472" y="391" width="108" height="176" filterUnits="userSpaceOnUse" color-interpolation-filters="sRGB">
<feFlood flood-opacity="0" result="BackgroundImageFix"/>
<feColorMatrix in="SourceAlpha" type="matrix" values="0 0 0 0 0 0 0 0 0 0 0 0 0 0 0 0 0 0 127 0" result="hardAlpha"/>
<feOffset dy="4"/>
<feGaussianBlur stdDeviation="2"/>
<feComposite in2="hardAlpha" operator="out"/>
<feColorMatrix type="matrix" values="0 0 0 0 0 0 0 0 0 0 0 0 0 0 0 0 0 0 0.25 0"/>
<feBlend mode="normal" in2="BackgroundImageFix" result="effect1_dropShadow_164_162"/>
<feBlend mode="normal" in="SourceGraphic" in2="effect1_dropShadow_164_162" result="shape"/>
</filter>
<filter id="filter1_d_164_162" x="706" y="391" width="109" height="176" filterUnits="userSpaceOnUse" color-interpolation-filters="sRGB">
<feFlood flood-opacity="0" result="BackgroundImageFix"/>
<feColorMatrix in="SourceAlpha" type="matrix" values="0 0 0 0 0 0 0 0 0 0 0 0 0 0 0 0 0 0 127 0" result="hardAlpha"/>
<feOffset dy="4"/>
<feGaussianBlur stdDeviation="2"/>
<feComposite in2="hardAlpha" operator="out"/>
<feColorMatrix type="matrix" values="0 0 0 0 0 0 0 0 0 0 0 0 0 0 0 0 0 0 0.25 0"/>
<feBlend mode="normal" in2="BackgroundImageFix" result="effect1_dropShadow_164_162"/>
<feBlend mode="normal" in="SourceGraphic" in2="effect1_dropShadow_164_162" result="shape"/>
</filter>
<filter id="filter2_d_164_162" x="589" y="391" width="109" height="176" filterUnits="userSpaceOnUse" color-interpolation-filters="sRGB">
<feFlood flood-opacity="0" result="BackgroundImageFix"/>
<feColorMatrix in="SourceAlpha" type="matrix" values="0 0 0 0 0 0 0 0 0 0 0 0 0 0 0 0 0 0 127 0" result="hardAlpha"/>
<feOffset dy="4"/>
<feGaussianBlur stdDeviation="2"/>
<feComposite in2="hardAlpha" operator="out"/>
<feColorMatrix type="matrix" values="0 0 0 0 0 0 0 0 0 0 0 0 0 0 0 0 0 0 0.25 0"/>
<feBlend mode="normal" in2="BackgroundImageFix" result="effect1_dropShadow_164_162"/>
<feBlend mode="normal" in="SourceGraphic" in2="effect1_dropShadow_164_162" result="shape"/>
</filter>
<filter id="filter3_d_164_162" x="824" y="391" width="108" height="176" filterUnits="userSpaceOnUse" color-interpolation-filters="sRGB">
<feFlood flood-opacity="0" result="BackgroundImageFix"/>
<feColorMatrix in="SourceAlpha" type="matrix" values="0 0 0 0 0 0 0 0 0 0 0 0 0 0 0 0 0 0 127 0" result="hardAlpha"/>
<feOffset dy="4"/>
<feGaussianBlur stdDeviation="2"/>
<feComposite in2="hardAlpha" operator="out"/>
<feColorMatrix type="matrix" values="0 0 0 0 0 0 0 0 0 0 0 0 0 0 0 0 0 0 0.25 0"/>
<feBlend mode="normal" in2="BackgroundImageFix" result="effect1_dropShadow_164_162"/>
<feBlend mode="normal" in="SourceGraphic" in2="effect1_dropShadow_164_162" result="shape"/>
</filter>
<filter id="filter4_d_164_162" x="366" y="414" width="126" height="206" filterUnits="userSpaceOnUse" color-interpolation-filters="sRGB">
<feFlood flood-opacity="0" result="BackgroundImageFix"/>
<feColorMatrix in="SourceAlpha" type="matrix" values="0 0 0 0 0 0 0 0 0 0 0 0 0 0 0 0 0 0 127 0" result="hardAlpha"/>
<feOffset dy="4"/>
<feGaussianBlur stdDeviation="2"/>
<feComposite in2="hardAlpha" operator="out"/>
<feColorMatrix type="matrix" values="0 0 0 0 0 0 0 0 0 0 0 0 0 0 0 0 0 0 0.25 0"/>
<feBlend mode="normal" in2="BackgroundImageFix" result="effect1_dropShadow_164_162"/>
<feBlend mode="normal" in="SourceGraphic" in2="effect1_dropShadow_164_162" result="shape"/>
</filter>
<filter id="filter5_d_164_162" x="642" y="414" width="126" height="206" filterUnits="userSpaceOnUse" color-interpolation-filters="sRGB">
<feFlood flood-opacity="0" result="BackgroundImageFix"/>
<feColorMatrix in="SourceAlpha" type="matrix" values="0 0 0 0 0 0 0 0 0 0 0 0 0 0 0 0 0 0 127 0" result="hardAlpha"/>
<feOffset dy="4"/>
<feGaussianBlur stdDeviation="2"/>
<feComposite in2="hardAlpha" operator="out"/>
<feColorMatrix type="matrix" values="0 0 0 0 0 0 0 0 0 0 0 0 0 0 0 0 0 0 0.25 0"/>
<feBlend mode="normal" in2="BackgroundImageFix" result="effect1_dropShadow_164_162"/>
<feBlend mode="normal" in="SourceGraphic" in2="effect1_dropShadow_164_162" result="shape"/>
</filter>
<filter id="filter6_d_164_162" x="504" y="414" width="126" height="206" filterUnits="userSpaceOnUse" color-interpolation-filters="sRGB">
<feFlood flood-opacity="0" result="BackgroundImageFix"/>
<feColorMatrix in="SourceAlpha" type="matrix" values="0 0 0 0 0 0 0 0 0 0 0 0 0 0 0 0 0 0 127 0" result="hardAlpha"/>
<feOffset dy="4"/>
<feGaussianBlur stdDeviation="2"/>
<feComposite in2="hardAlpha" operator="out"/>
<feColorMatrix type="matrix" values="0 0 0 0 0 0 0 0 0 0 0 0 0 0 0 0 0 0 0.25 0"/>
<feBlend mode="normal" in2="BackgroundImageFix" result="effect1_dropShadow_164_162"/>
<feBlend mode="normal" in="SourceGraphic" in2="effect1_dropShadow_164_162" result="shape"/>
</filter>
<filter id="filter7_d_164_162" x="562" y="460" width="126" height="206" filterUnits="userSpaceOnUse" color-interpolation-filters="sRGB">
<feFlood flood-opacity="0" result="BackgroundImageFix"/>
<feColorMatrix in="SourceAlpha" type="matrix" values="0 0 0 0 0 0 0 0 0 0 0 0 0 0 0 0 0 0 127 0" result="hardAlpha"/>
<feOffset dy="4"/>
<feGaussianBlur stdDeviation="2"/>
<feComposite in2="hardAlpha" operator="out"/>
<feColorMatrix type="matrix" values="0 0 0 0 0 0 0 0 0 0 0 0 0 0 0 0 0 0 0.25 0"/>
<feBlend mode="normal" in2="BackgroundImageFix" result="effect1_dropShadow_164_162"/>
<feBlend mode="normal" in="SourceGraphic" in2="effect1_dropShadow_164_162" result="shape"/>
</filter>
<filter id="filter8_d_164_162" x="780" y="414" width="126" height="206" filterUnits="userSpaceOnUse" color-interpolation-filters="sRGB">
<feFlood flood-opacity="0" result="BackgroundImageFix"/>
<feColorMatrix in="SourceAlpha" type="matrix" values="0 0 0 0 0 0 0 0 0 0 0 0 0 0 0 0 0 0 127 0" result="hardAlpha"/>
<feOffset dy="4"/>
<feGaussianBlur stdDeviation="2"/>
<feComposite in2="hardAlpha" operator="out"/>
<feColorMatrix type="matrix" values="0 0 0 0 0 0 0 0 0 0 0 0 0 0 0 0 0 0 0.25 0"/>
<feBlend mode="normal" in2="BackgroundImageFix" result="effect1_dropShadow_164_162"/>
<feBlend mode="normal" in="SourceGraphic" in2="effect1_dropShadow_164_162" result="shape"/>
</filter>
<filter id="filter9_d_164_162" x="424" y="460" width="126" height="206" filterUnits="userSpaceOnUse" color-interpolation-filters="sRGB">
<feFlood flood-opacity="0" result="BackgroundImageFix"/>
<feColorMatrix in="SourceAlpha" type="matrix" values="0 0 0 0 0 0 0 0 0 0 0 0 0 0 0 0 0 0 127 0" result="hardAlpha"/>
<feOffset dy="4"/>
<feGaussianBlur stdDeviation="2"/>
<feComposite in2="hardAlpha" operator="out"/>
<feColorMatrix type="matrix" values="0 0 0 0 0 0 0 0 0 0 0 0 0 0 0 0 0 0 0.25 0"/>
<feBlend mode="normal" in2="BackgroundImageFix" result="effect1_dropShadow_164_162"/>
<feBlend mode="normal" in="SourceGraphic" in2="effect1_dropShadow_164_162" result="shape"/>
</filter>
<filter id="filter10_d_164_162" x="700" y="460" width="126" height="206" filterUnits="userSpaceOnUse" color-interpolation-filters="sRGB">
<feFlood flood-opacity="0" result="BackgroundImageFix"/>
<feColorMatrix in="SourceAlpha" type="matrix" values="0 0 0 0 0 0 0 0 0 0 0 0 0 0 0 0 0 0 127 0" result="hardAlpha"/>
<feOffset dy="4"/>
<feGaussianBlur stdDeviation="2"/>
<feComposite in2="hardAlpha" operator="out"/>
<feColorMatrix type="matrix" values="0 0 0 0 0 0 0 0 0 0 0 0 0 0 0 0 0 0 0.25 0"/>
<feBlend mode="normal" in2="BackgroundImageFix" result="effect1_dropShadow_164_162"/>
<feBlend mode="normal" in="SourceGraphic" in2="effect1_dropShadow_164_162" result="shape"/>
</filter>
<filter id="filter11_d_164_162" x="838" y="460" width="126" height="206" filterUnits="userSpaceOnUse" color-interpolation-filters="sRGB">
<feFlood flood-opacity="0" result="BackgroundImageFix"/>
<feColorMatrix in="SourceAlpha" type="matrix" values="0 0 0 0 0 0 0 0 0 0 0 0 0 0 0 0 0 0 127 0" result="hardAlpha"/>
<feOffset dy="4"/>
<feGaussianBlur stdDeviation="2"/>
<feComposite in2="hardAlpha" operator="out"/>
<feColorMatrix type="matrix" values="0 0 0 0 0 0 0 0 0 0 0 0 0 0 0 0 0 0 0.25 0"/>
<feBlend mode="normal" in2="BackgroundImageFix" result="effect1_dropShadow_164_162"/>
<feBlend mode="normal" in="SourceGraphic" in2="effect1_dropShadow_164_162" result="shape"/>
</filter>
<clipPath id="clip0_164_162">
<rect width="1440" height="1024" fill="white"/>
</clipPath>
</defs>
</svg>
