<svg width="1440" height="1024" viewBox="0 0 1440 1024" fill="none" xmlns="http://www.w3.org/2000/svg">
<g id="recognize7-end" clip-path="url(#clip0_164_512)">
<rect width="1440" height="1024" fill="#333148"/>
<path id="part 4" d="M47.096 132.12V60.024H61.688L62.264 71.448L59.384 70.584C59.832 68.536 61.048 66.648 63.032 64.92C65.016 63.192 67.512 61.784 70.52 60.696C73.592 59.608 76.856 59.064 80.312 59.064C85.304 59.064 89.688 60.216 93.464 62.52C97.24 64.76 100.184 67.864 102.296 71.832C104.472 75.736 105.56 80.28 105.56 85.464C105.56 90.584 104.472 95.128 102.296 99.096C100.184 103.064 97.208 106.2 93.368 108.504C89.528 110.744 85.112 111.864 80.12 111.864C76.664 111.864 73.432 111.288 70.424 110.136C67.416 108.984 64.888 107.48 62.84 105.624C60.856 103.768 59.576 101.816 59 99.768L62.552 98.424V132.12H47.096ZM76.376 98.904C79.256 98.904 81.752 98.36 83.864 97.272C85.976 96.12 87.608 94.552 88.76 92.568C89.976 90.584 90.584 88.216 90.584 85.464C90.584 82.776 89.976 80.44 88.76 78.456C87.608 76.408 85.976 74.84 83.864 73.752C81.816 72.6 79.32 72.024 76.376 72.024C73.496 72.024 70.968 72.568 68.792 73.656C66.68 74.744 65.016 76.312 63.8 78.36C62.648 80.408 62.072 82.776 62.072 85.464C62.072 88.216 62.648 90.584 63.8 92.568C65.016 94.552 66.68 96.12 68.792 97.272C70.968 98.36 73.496 98.904 76.376 98.904ZM144.211 111.864C139.155 111.864 134.739 110.744 130.963 108.504C127.187 106.264 124.211 103.16 122.035 99.192C119.923 95.16 118.867 90.584 118.867 85.464C118.867 80.28 119.955 75.704 122.131 71.736C124.307 67.768 127.315 64.664 131.155 62.424C135.059 60.12 139.539 58.968 144.595 58.968C147.475 58.968 150.131 59.352 152.563 60.12C154.995 60.824 157.107 61.816 158.899 63.096C160.755 64.376 162.259 65.784 163.411 67.32C164.627 68.856 165.427 70.456 165.811 72.12H162.451V60.024H177.619V111H162.163V97.944L165.427 98.424C165.043 100.088 164.243 101.72 163.027 103.32C161.811 104.92 160.243 106.36 158.323 107.64C156.403 108.92 154.227 109.944 151.795 110.712C149.427 111.48 146.899 111.864 144.211 111.864ZM148.339 98.904C151.219 98.904 153.715 98.36 155.827 97.272C158.003 96.184 159.667 94.648 160.819 92.664C162.035 90.616 162.643 88.216 162.643 85.464C162.643 82.776 162.035 80.44 160.819 78.456C159.667 76.408 158.003 74.808 155.827 73.656C153.715 72.504 151.219 71.928 148.339 71.928C145.459 71.928 142.963 72.504 140.851 73.656C138.739 74.808 137.075 76.408 135.859 78.456C134.707 80.44 134.131 82.776 134.131 85.464C134.131 88.216 134.707 90.616 135.859 92.664C137.075 94.648 138.739 96.184 140.851 97.272C142.963 98.36 145.459 98.904 148.339 98.904ZM201.315 111V60.024H215.907L216.579 77.592L212.931 75.768C213.763 72.632 215.203 69.816 217.251 67.32C219.363 64.76 221.763 62.744 224.451 61.272C227.203 59.736 230.115 58.968 233.187 58.968C234.851 58.968 236.419 59.128 237.891 59.448C239.427 59.768 240.739 60.184 241.827 60.696L237.603 77.496C236.643 76.792 235.331 76.248 233.667 75.864C232.067 75.48 230.435 75.288 228.771 75.288C226.915 75.288 225.219 75.608 223.683 76.248C222.211 76.824 220.963 77.656 219.939 78.744C218.915 79.768 218.115 80.952 217.539 82.296C217.027 83.64 216.771 85.08 216.771 86.616V111H201.315ZM265.932 111V46.008H281.292V111H265.932ZM254.604 73.464V60.024H294.252V73.464H254.604ZM377.032 111V53.304H387.112L357.544 88.248L355.624 83.736H405.256V96.984H349.48L343.048 84.6L378.856 43.224H392.776V111H377.032Z" fill="white"/>
<rect id="Rectangle 7" y="462" width="1567" height="626" fill="#211F2F"/>
<g id="Group 34">
<line id="Line 1" x1="452.501" y1="458.705" x2="452.501" y2="112.705" stroke="#485C77" stroke-width="25" stroke-linecap="round"/>
<rect id="Rectangle 8" x="440.001" y="100.207" width="172" height="96" rx="14" fill="#3B5EC6"/>
<rect id="Rectangle 9" x="510.001" y="100.207" width="32" height="96" fill="white"/>
<rect id="Rectangle 11" x="609" y="97.207" width="21.7609" height="196.456" rx="10.8804" transform="rotate(62.972 609 97.207)" fill="white"/>
<rect id="Rectangle 12" x="616.953" y="191.229" width="21.7609" height="196.456" rx="10.8804" transform="rotate(120 616.953 191.229)" fill="white"/>
<rect id="Rectangle 10" x="440.001" y="164.207" width="27" height="172" transform="rotate(-90 440.001 164.207)" fill="white"/>
<rect id="Rectangle 13" x="608.061" y="102.564" width="13.0698" height="189.913" rx="6.53491" transform="rotate(62.972 608.061 102.564)" fill="#EF1044"/>
<rect id="Rectangle 14" x="612.058" y="192.998" width="13.0698" height="189.913" rx="6.53491" transform="rotate(120 612.058 192.998)" fill="#EF1044"/>
<rect id="Rectangle 15" x="440.001" y="144.207" width="172" height="14" fill="#EF1044"/>
<rect id="Rectangle 16" x="534.001" y="100.207" width="96" height="16" transform="rotate(90 534.001 100.207)" fill="#EF1044"/>
</g>
<g id="Group 33">
<path id="Polygon 1" d="M769.372 285.85C785.607 268.261 813.393 268.261 829.628 285.85L1058.58 533.9C1082.82 560.164 1064.2 602.709 1028.46 602.709H570.545C534.803 602.709 516.175 560.164 540.417 533.9L769.372 285.85Z" fill="#485C77"/>
<rect id="Rectangle 17" x="748" y="447.209" width="104" height="198" rx="28" fill="#201F2F"/>
</g>
<g id="Group 32">
<g id="Group 31">
<rect id="Rectangle 31" x="905" y="176.209" width="93" height="352" rx="36" fill="#485C77"/>
<rect id="Rectangle 32" x="794.855" y="159.467" width="264.672" height="73.942" rx="36.971" transform="rotate(-8.76431 794.855 159.467)" fill="#405066"/>
<path id="Polygon 8" d="M931.054 210.906C933.371 217.286 932.108 224.418 927.741 229.615L880.094 286.313C875.727 291.51 868.919 293.982 862.235 292.799L789.309 279.884C782.625 278.701 777.08 274.041 774.763 267.661L749.484 198.048C747.167 191.667 748.43 184.536 752.797 179.339L800.444 122.64C804.811 117.443 811.619 114.971 818.303 116.155L891.229 129.069C897.913 130.253 903.458 134.913 905.775 141.293L931.054 210.906Z" fill="#73839A"/>
<ellipse id="Ellipse 13" cx="840" cy="204.209" rx="64" ry="67" fill="#C63B3B"/>
<line id="Line 18" x1="760.047" y1="190.796" x2="786.587" y2="222.162" stroke="#201F2F" stroke-width="10" stroke-linecap="round"/>
<line id="Line 19" x1="814.706" y1="130.231" x2="792.022" y2="225.503" stroke="#201F2F" stroke-width="10" stroke-linecap="round"/>
<line id="Line 20" x1="893.123" y1="147.225" x2="793.016" y2="225.086" stroke="#201F2F" stroke-width="10" stroke-linecap="round"/>
<line id="Line 21" x1="916.383" y1="224.565" x2="791.356" y2="233.826" stroke="#201F2F" stroke-width="10" stroke-linecap="round"/>
<line id="Line 22" x1="865.051" y1="286.518" x2="791.309" y2="236.158" stroke="#201F2F" stroke-width="10" stroke-linecap="round"/>
<line id="Line 23" x1="781.485" y1="269.767" x2="784.558" y2="236.724" stroke="#201F2F" stroke-width="10" stroke-linecap="round"/>
</g>
<circle id="Ellipse 14" cx="785.5" cy="228.709" r="18.5" fill="#DC4B4B"/>
</g>
<g id="Group 3">
<g id="Vector" filter="url(#filter0_d_164_512)">
<path d="M228.388 696.67C200.899 690.452 200.899 651.278 228.388 645.06L273.03 634.962C289.575 631.22 305.315 643.801 305.315 660.767L305.315 680.963C305.315 697.929 289.575 710.51 273.03 706.768L228.388 696.67Z" fill="#8DBBFB"/>
<path d="M168.34 642.897C183.991 642.897 196.679 655.588 196.679 671.243C196.679 686.898 183.991 699.589 168.34 699.589C152.688 699.589 140 686.898 140 671.243C140 655.588 152.688 642.897 168.34 642.897Z" fill="#8DBBFB"/>
<path d="M291.523 665.574C283.801 665.574 277.542 659.313 277.542 651.59C277.542 643.866 283.801 637.605 291.523 637.605L324.019 637.605C331.741 637.605 338 643.866 338 651.59C338 659.313 331.741 665.574 324.019 665.574L291.523 665.574Z" fill="#8DBBFB"/>
<path d="M237.361 654.636C230.728 658.59 222.146 656.416 218.194 649.781C214.242 643.146 216.416 634.563 223.049 630.61L250.966 613.973C257.599 610.02 266.18 612.194 270.132 618.829C274.085 625.463 271.911 634.047 265.278 638L237.361 654.636Z" fill="#8DBBFB"/>
<path d="M223.146 711.872C216.459 708.011 214.168 699.458 218.029 692.77C221.889 686.081 230.44 683.79 237.127 687.651L265.269 703.903C271.956 707.765 274.248 716.317 270.387 723.006C266.526 729.694 257.975 731.986 251.289 728.124L223.146 711.872Z" fill="#8DBBFB"/>
<path d="M291.523 704.88C283.801 704.88 277.542 698.619 277.542 690.896C277.542 683.173 283.801 676.912 291.523 676.912L324.019 676.912C331.741 676.912 338 683.173 338 690.896C338 698.619 331.741 704.88 324.019 704.88L291.523 704.88Z" fill="#8DBBFB"/>
</g>
</g>
<g id="Group 4">
<g id="Vector_2" filter="url(#filter1_d_164_512)">
<path d="M457.996 626.754C434.672 621.485 434.672 588.286 457.996 583.017L495.874 574.459C509.912 571.288 523.267 581.95 523.267 596.328L523.267 613.443C523.267 627.821 509.912 638.483 495.874 635.312L457.996 626.754Z" fill="#3B5EC6"/>
<path d="M407.046 581.184C420.326 581.184 431.092 591.939 431.092 605.206C431.092 618.473 420.326 629.228 407.046 629.228C393.766 629.228 383 618.473 383 605.206C383 591.939 393.766 581.184 407.046 581.184Z" fill="#3B5EC6"/>
<path d="M511.565 600.401C505.013 600.401 499.702 595.096 499.702 588.55C499.702 582.005 505.013 576.7 511.565 576.7L539.137 576.7C545.689 576.7 551 582.005 551 588.55C551 595.096 545.689 600.401 539.137 600.401L511.565 600.401Z" fill="#3B5EC6"/>
<path d="M465.609 591.133C459.981 594.483 452.7 592.64 449.347 587.018C445.993 581.395 447.837 574.121 453.466 570.771L477.153 556.672C482.781 553.322 490.062 555.164 493.415 560.787C496.769 566.41 494.925 573.684 489.296 577.034L465.609 591.133Z" fill="#3B5EC6"/>
<path d="M453.548 639.638C447.874 636.365 445.93 629.117 449.206 623.449C452.482 617.781 459.737 615.839 465.411 619.111L489.289 632.884C494.963 636.156 496.907 643.404 493.631 649.073C490.355 654.741 483.1 656.683 477.427 653.41L453.548 639.638Z" fill="#3B5EC6"/>
<path d="M511.565 633.712C505.013 633.712 499.702 628.406 499.702 621.861C499.702 615.316 505.013 610.01 511.565 610.01L539.137 610.01C545.689 610.01 551 615.316 551 621.861C551 628.406 545.689 633.712 539.137 633.712L511.565 633.712Z" fill="#3B5EC6"/>
</g>
<g id="Vector_3" filter="url(#filter2_d_164_512)">
<path d="M808.996 567.472C785.672 562.15 785.672 528.619 808.996 523.297L846.874 514.654C860.912 511.451 874.267 522.22 874.267 536.741L874.267 554.028C874.267 568.549 860.912 579.318 846.874 576.115L808.996 567.472Z" fill="#3B5EC6"/>
<path d="M758.046 521.445C771.326 521.445 782.092 532.308 782.092 545.708C782.092 559.108 771.326 569.97 758.046 569.97C744.766 569.97 734 559.108 734 545.708C734 532.308 744.766 521.445 758.046 521.445Z" fill="#3B5EC6"/>
<path d="M862.565 540.855C856.013 540.855 850.702 535.496 850.702 528.886C850.702 522.275 856.013 516.917 862.565 516.917L890.137 516.917C896.689 516.917 902 522.275 902 528.886C902 535.497 896.689 540.855 890.137 540.855L862.565 540.855Z" fill="#3B5EC6"/>
<path d="M816.609 531.494C810.981 534.877 803.7 533.017 800.347 527.338C796.993 521.659 798.837 514.312 804.466 510.929L828.153 496.689C833.781 493.305 841.062 495.166 844.415 500.845C847.769 506.524 845.925 513.87 840.296 517.254L816.609 531.494Z" fill="#3B5EC6"/>
<path d="M804.548 580.484C798.874 577.179 796.93 569.858 800.206 564.133C803.482 558.409 810.737 556.447 816.411 559.752L840.289 573.663C845.963 576.968 847.907 584.288 844.631 590.013C841.355 595.738 834.1 597.7 828.427 594.394L804.548 580.484Z" fill="#3B5EC6"/>
<path d="M862.565 574.499C856.013 574.499 850.702 569.14 850.702 562.53C850.702 555.919 856.013 550.56 862.565 550.56L890.137 550.56C896.689 550.56 902 555.919 902 562.53C902 569.14 896.689 574.499 890.137 574.499L862.565 574.499Z" fill="#3B5EC6"/>
</g>
<g id="Vector_4" filter="url(#filter3_d_164_512)">
<path d="M601.996 576.472C578.672 571.15 578.672 537.619 601.996 532.297L639.874 523.654C653.912 520.451 667.267 531.22 667.267 545.741L667.267 563.028C667.267 577.549 653.912 588.318 639.874 585.115L601.996 576.472Z" fill="#3B5EC6"/>
<path d="M551.046 530.445C564.326 530.445 575.092 541.308 575.092 554.708C575.092 568.108 564.326 578.97 551.046 578.97C537.766 578.97 527 568.108 527 554.708C527 541.308 537.766 530.445 551.046 530.445Z" fill="#3B5EC6"/>
<path d="M655.565 549.855C649.013 549.855 643.702 544.496 643.702 537.886C643.702 531.275 649.013 525.917 655.565 525.917L683.137 525.917C689.689 525.917 695 531.275 695 537.886C695 544.496 689.689 549.855 683.137 549.855L655.565 549.855Z" fill="#3B5EC6"/>
<path d="M609.609 540.494C603.981 543.877 596.7 542.017 593.347 536.338C589.993 530.659 591.837 523.312 597.466 519.929L621.153 505.689C626.781 502.305 634.062 504.166 637.415 509.845C640.769 515.524 638.925 522.87 633.296 526.254L609.609 540.494Z" fill="#3B5EC6"/>
<path d="M597.548 589.484C591.874 586.179 589.93 578.858 593.206 573.133C596.482 567.409 603.737 565.447 609.411 568.752L633.289 582.663C638.963 585.968 640.907 593.288 637.631 599.013C634.355 604.738 627.1 606.7 621.427 603.394L597.548 589.484Z" fill="#3B5EC6"/>
<path d="M655.565 583.499C649.013 583.499 643.702 578.14 643.702 571.53C643.702 564.919 649.013 559.56 655.565 559.56L683.137 559.56C689.689 559.56 695 564.919 695 571.53C695 578.14 689.689 583.499 683.137 583.499L655.565 583.499Z" fill="#3B5EC6"/>
</g>
<g id="Vector_5" filter="url(#filter4_d_164_512)">
<path d="M963.996 609.754C940.672 604.485 940.672 571.286 963.996 566.017L1001.87 557.459C1015.91 554.288 1029.27 564.95 1029.27 579.328L1029.27 596.443C1029.27 610.821 1015.91 621.483 1001.87 618.312L963.996 609.754Z" fill="#3B5EC6"/>
<path d="M913.046 564.184C926.326 564.184 937.092 574.939 937.092 588.206C937.092 601.473 926.326 612.228 913.046 612.228C899.766 612.228 889 601.473 889 588.206C889 574.939 899.766 564.184 913.046 564.184Z" fill="#3B5EC6"/>
<path d="M1017.56 583.401C1011.01 583.401 1005.7 578.096 1005.7 571.55C1005.7 565.005 1011.01 559.7 1017.56 559.7L1045.14 559.7C1051.69 559.7 1057 565.005 1057 571.55C1057 578.096 1051.69 583.401 1045.14 583.401L1017.56 583.401Z" fill="#3B5EC6"/>
<path d="M971.609 574.133C965.981 577.483 958.7 575.64 955.347 570.018C951.993 564.395 953.837 557.121 959.466 553.771L983.153 539.672C988.781 536.322 996.062 538.164 999.415 543.787C1002.77 549.41 1000.92 556.684 995.296 560.034L971.609 574.133Z" fill="#3B5EC6"/>
<path d="M959.548 622.638C953.874 619.365 951.93 612.117 955.206 606.449C958.482 600.781 965.737 598.839 971.411 602.111L995.289 615.884C1000.96 619.156 1002.91 626.404 999.631 632.073C996.355 637.741 989.1 639.683 983.427 636.41L959.548 622.638Z" fill="#3B5EC6"/>
<path d="M1017.56 616.712C1011.01 616.712 1005.7 611.406 1005.7 604.861C1005.7 598.316 1011.01 593.01 1017.56 593.01L1045.14 593.01C1051.69 593.01 1057 598.316 1057 604.861C1057 611.406 1051.69 616.712 1045.14 616.712L1017.56 616.712Z" fill="#3B5EC6"/>
</g>
<g id="Vector_6" filter="url(#filter5_d_164_512)">
<path d="M471.388 691.67C443.899 685.452 443.899 646.278 471.388 640.06L516.03 629.962C532.575 626.22 548.315 638.801 548.315 655.767L548.315 675.963C548.315 692.929 532.575 705.51 516.03 701.768L471.388 691.67Z" fill="#6A94E0"/>
<path d="M411.34 637.897C426.991 637.897 439.679 650.588 439.679 666.243C439.679 681.898 426.991 694.589 411.34 694.589C395.688 694.589 383 681.898 383 666.243C383 650.588 395.688 637.897 411.34 637.897Z" fill="#6A94E0"/>
<path d="M534.523 660.574C526.801 660.574 520.542 654.313 520.542 646.59C520.542 638.866 526.801 632.605 534.523 632.605L567.019 632.605C574.741 632.605 581 638.866 581 646.59C581 654.313 574.741 660.574 567.019 660.574L534.523 660.574Z" fill="#6A94E0"/>
<path d="M480.361 649.636C473.728 653.59 465.146 651.416 461.194 644.781C457.242 638.146 459.416 629.563 466.049 625.61L493.966 608.973C500.599 605.02 509.18 607.194 513.132 613.829C517.085 620.463 514.911 629.047 508.278 633L480.361 649.636Z" fill="#6A94E0"/>
<path d="M466.146 706.872C459.459 703.011 457.168 694.458 461.029 687.77C464.889 681.081 473.44 678.79 480.127 682.651L508.269 698.903C514.956 702.765 517.248 711.317 513.387 718.006C509.526 724.694 500.975 726.986 494.289 723.124L466.146 706.872Z" fill="#6A94E0"/>
<path d="M534.523 699.88C526.801 699.88 520.542 693.619 520.542 685.896C520.542 678.173 526.801 671.912 534.523 671.912L567.019 671.912C574.741 671.912 581 678.173 581 685.896C581 693.619 574.741 699.88 567.019 699.88L534.523 699.88Z" fill="#6A94E0"/>
</g>
<g id="Vector_7" filter="url(#filter6_d_164_512)">
<path d="M570.388 652.67C542.899 646.452 542.899 607.278 570.388 601.06L615.03 590.962C631.575 587.22 647.315 599.801 647.315 616.767L647.315 636.963C647.315 653.929 631.575 666.51 615.03 662.768L570.388 652.67Z" fill="#6A94E0"/>
<path d="M510.34 598.897C525.991 598.897 538.679 611.588 538.679 627.243C538.679 642.898 525.991 655.589 510.34 655.589C494.688 655.589 482 642.898 482 627.243C482 611.588 494.688 598.897 510.34 598.897Z" fill="#6A94E0"/>
<path d="M633.523 621.574C625.801 621.574 619.542 615.313 619.542 607.59C619.542 599.866 625.801 593.605 633.523 593.605L666.019 593.605C673.741 593.605 680 599.866 680 607.59C680 615.313 673.741 621.574 666.019 621.574L633.523 621.574Z" fill="#6A94E0"/>
<path d="M579.361 610.636C572.728 614.59 564.146 612.416 560.194 605.781C556.242 599.146 558.416 590.563 565.049 586.61L592.966 569.973C599.599 566.02 608.18 568.194 612.132 574.829C616.085 581.463 613.911 590.047 607.278 594L579.361 610.636Z" fill="#6A94E0"/>
<path d="M565.146 667.872C558.459 664.011 556.168 655.458 560.029 648.77C563.889 642.081 572.44 639.79 579.127 643.651L607.269 659.903C613.956 663.765 616.248 672.317 612.387 679.006C608.526 685.694 599.975 687.986 593.289 684.124L565.146 667.872Z" fill="#6A94E0"/>
<path d="M633.523 660.88C625.801 660.88 619.542 654.619 619.542 646.896C619.542 639.173 625.801 632.912 633.523 632.912L666.019 632.912C673.741 632.912 680 639.173 680 646.896C680 654.619 673.741 660.88 666.019 660.88L633.523 660.88Z" fill="#6A94E0"/>
</g>
<g id="Vector_8" filter="url(#filter7_d_164_512)">
<path d="M693.388 613.67C665.899 607.452 665.899 568.278 693.388 562.06L738.03 551.962C754.575 548.22 770.315 560.801 770.315 577.767L770.315 597.963C770.315 614.929 754.575 627.51 738.03 623.768L693.388 613.67Z" fill="#6A94E0"/>
<path d="M633.34 559.897C648.991 559.897 661.679 572.588 661.679 588.243C661.679 603.898 648.991 616.589 633.34 616.589C617.688 616.589 605 603.898 605 588.243C605 572.588 617.688 559.897 633.34 559.897Z" fill="#6A94E0"/>
<path d="M756.523 582.574C748.801 582.574 742.542 576.313 742.542 568.59C742.542 560.866 748.801 554.605 756.523 554.605L789.019 554.605C796.741 554.605 803 560.866 803 568.59C803 576.313 796.741 582.574 789.019 582.574L756.523 582.574Z" fill="#6A94E0"/>
<path d="M702.361 571.636C695.728 575.59 687.146 573.416 683.194 566.781C679.242 560.146 681.416 551.563 688.049 547.61L715.966 530.973C722.599 527.02 731.18 529.194 735.132 535.829C739.085 542.463 736.911 551.047 730.278 555L702.361 571.636Z" fill="#6A94E0"/>
<path d="M688.146 628.872C681.459 625.011 679.168 616.458 683.029 609.77C686.889 603.081 695.44 600.79 702.127 604.651L730.269 620.903C736.956 624.765 739.248 633.317 735.387 640.006C731.526 646.694 722.975 648.986 716.289 645.124L688.146 628.872Z" fill="#6A94E0"/>
<path d="M756.523 621.88C748.801 621.88 742.542 615.619 742.542 607.896C742.542 600.173 748.801 593.912 756.523 593.912L789.019 593.912C796.741 593.912 803 600.173 803 607.896C803 615.619 796.741 621.88 789.019 621.88L756.523 621.88Z" fill="#6A94E0"/>
</g>
<g id="Vector_9" filter="url(#filter8_d_164_512)">
<path d="M822.388 652.67C794.899 646.452 794.899 607.278 822.388 601.06L867.03 590.962C883.575 587.22 899.315 599.801 899.315 616.767L899.315 636.963C899.315 653.929 883.575 666.51 867.03 662.768L822.388 652.67Z" fill="#6A94E0"/>
<path d="M762.34 598.897C777.991 598.897 790.679 611.588 790.679 627.243C790.679 642.898 777.991 655.589 762.34 655.589C746.688 655.589 734 642.898 734 627.243C734 611.588 746.688 598.897 762.34 598.897Z" fill="#6A94E0"/>
<path d="M885.523 621.574C877.801 621.574 871.542 615.313 871.542 607.59C871.542 599.866 877.801 593.605 885.523 593.605L918.019 593.605C925.741 593.605 932 599.866 932 607.59C932 615.313 925.741 621.574 918.019 621.574L885.523 621.574Z" fill="#6A94E0"/>
<path d="M831.361 610.636C824.728 614.59 816.146 612.416 812.194 605.781C808.242 599.146 810.416 590.563 817.049 586.61L844.966 569.973C851.599 566.02 860.18 568.194 864.132 574.829C868.085 581.463 865.911 590.047 859.278 594L831.361 610.636Z" fill="#6A94E0"/>
<path d="M817.146 667.872C810.459 664.011 808.168 655.458 812.029 648.77C815.889 642.081 824.44 639.79 831.127 643.651L859.269 659.903C865.956 663.765 868.248 672.317 864.387 679.006C860.526 685.694 851.975 687.986 845.289 684.124L817.146 667.872Z" fill="#6A94E0"/>
<path d="M885.523 660.88C877.801 660.88 871.542 654.619 871.542 646.896C871.542 639.173 877.801 632.912 885.523 632.912L918.019 632.912C925.741 632.912 932 639.173 932 646.896C932 654.619 925.741 660.88 918.019 660.88L885.523 660.88Z" fill="#6A94E0"/>
</g>
<g id="Vector_10" filter="url(#filter9_d_164_512)">
<path d="M673.388 680.67C645.899 674.452 645.899 635.278 673.388 629.06L718.03 618.962C734.575 615.22 750.315 627.801 750.315 644.767L750.315 664.963C750.315 681.929 734.575 694.51 718.03 690.768L673.388 680.67Z" fill="#8DBBFB"/>
<path d="M613.34 626.897C628.991 626.897 641.679 639.588 641.679 655.243C641.679 670.898 628.991 683.589 613.34 683.589C597.688 683.589 585 670.898 585 655.243C585 639.588 597.688 626.897 613.34 626.897Z" fill="#8DBBFB"/>
<path d="M736.523 649.574C728.801 649.574 722.542 643.313 722.542 635.59C722.542 627.866 728.801 621.605 736.523 621.605L769.019 621.605C776.741 621.605 783 627.866 783 635.59C783 643.313 776.741 649.574 769.019 649.574L736.523 649.574Z" fill="#8DBBFB"/>
<path d="M682.361 638.636C675.728 642.59 667.146 640.416 663.194 633.781C659.242 627.146 661.416 618.563 668.049 614.61L695.966 597.973C702.599 594.02 711.18 596.194 715.132 602.829C719.085 609.463 716.911 618.047 710.278 622L682.361 638.636Z" fill="#8DBBFB"/>
<path d="M668.146 695.872C661.459 692.011 659.168 683.458 663.029 676.77C666.889 670.081 675.44 667.79 682.127 671.651L710.269 687.903C716.956 691.765 719.248 700.317 715.387 707.006C711.526 713.694 702.975 715.986 696.289 712.124L668.146 695.872Z" fill="#8DBBFB"/>
<path d="M736.523 688.88C728.801 688.88 722.542 682.619 722.542 674.896C722.542 667.173 728.801 660.912 736.523 660.912L769.019 660.912C776.741 660.912 783 667.173 783 674.896C783 682.619 776.741 688.88 769.019 688.88L736.523 688.88Z" fill="#8DBBFB"/>
</g>
<g id="Vector_11" filter="url(#filter10_d_164_512)">
<path d="M516.388 761.67C488.899 755.452 488.899 716.278 516.388 710.06L561.03 699.962C577.575 696.22 593.315 708.801 593.315 725.767L593.315 745.963C593.315 762.929 577.575 775.51 561.03 771.768L516.388 761.67Z" fill="#8DBBFB"/>
<path d="M456.34 707.897C471.991 707.897 484.679 720.588 484.679 736.243C484.679 751.898 471.991 764.589 456.34 764.589C440.688 764.589 428 751.898 428 736.243C428 720.588 440.688 707.897 456.34 707.897Z" fill="#8DBBFB"/>
<path d="M579.523 730.574C571.801 730.574 565.542 724.313 565.542 716.59C565.542 708.866 571.801 702.605 579.523 702.605L612.019 702.605C619.741 702.605 626 708.866 626 716.59C626 724.313 619.741 730.574 612.019 730.574L579.523 730.574Z" fill="#8DBBFB"/>
<path d="M525.361 719.636C518.728 723.59 510.146 721.416 506.194 714.781C502.242 708.146 504.416 699.563 511.049 695.61L538.966 678.973C545.599 675.02 554.18 677.194 558.132 683.829C562.085 690.463 559.911 699.047 553.278 703L525.361 719.636Z" fill="#8DBBFB"/>
<path d="M511.146 776.872C504.459 773.011 502.168 764.458 506.029 757.77C509.889 751.081 518.44 748.79 525.127 752.651L553.269 768.903C559.956 772.765 562.248 781.317 558.387 788.006C554.526 794.694 545.975 796.986 539.289 793.124L511.146 776.872Z" fill="#8DBBFB"/>
<path d="M579.523 769.88C571.801 769.88 565.542 763.619 565.542 755.896C565.542 748.173 571.801 741.912 579.523 741.912L612.019 741.912C619.741 741.912 626 748.173 626 755.896C626 763.619 619.741 769.88 612.019 769.88L579.523 769.88Z" fill="#8DBBFB"/>
</g>
<g id="Vector_12" filter="url(#filter11_d_164_512)">
<path d="M792.388 761.67C764.899 755.452 764.899 716.278 792.388 710.06L837.03 699.962C853.575 696.22 869.315 708.801 869.315 725.767L869.315 745.963C869.315 762.929 853.575 775.51 837.03 771.768L792.388 761.67Z" fill="#8DBBFB"/>
<path d="M732.34 707.897C747.991 707.897 760.679 720.588 760.679 736.243C760.679 751.898 747.991 764.589 732.34 764.589C716.688 764.589 704 751.898 704 736.243C704 720.588 716.688 707.897 732.34 707.897Z" fill="#8DBBFB"/>
<path d="M855.523 730.574C847.801 730.574 841.542 724.313 841.542 716.59C841.542 708.866 847.801 702.605 855.523 702.605L888.019 702.605C895.741 702.605 902 708.866 902 716.59C902 724.313 895.741 730.574 888.019 730.574L855.523 730.574Z" fill="#8DBBFB"/>
<path d="M801.361 719.636C794.728 723.59 786.146 721.416 782.194 714.781C778.242 708.146 780.416 699.563 787.049 695.61L814.966 678.973C821.599 675.02 830.18 677.194 834.132 683.829C838.085 690.463 835.911 699.047 829.278 703L801.361 719.636Z" fill="#8DBBFB"/>
<path d="M787.146 776.872C780.459 773.011 778.168 764.458 782.029 757.77C785.889 751.081 794.44 748.79 801.127 752.651L829.269 768.903C835.956 772.765 838.248 781.317 834.387 788.006C830.526 794.694 821.975 796.986 815.289 793.124L787.146 776.872Z" fill="#8DBBFB"/>
<path d="M855.523 769.88C847.801 769.88 841.542 763.619 841.542 755.896C841.542 748.173 847.801 741.912 855.523 741.912L888.019 741.912C895.741 741.912 902 748.173 902 755.896C902 763.619 895.741 769.88 888.019 769.88L855.523 769.88Z" fill="#8DBBFB"/>
</g>
<g id="Vector_13" filter="url(#filter12_d_164_512)">
<path d="M925.388 691.67C897.899 685.452 897.899 646.278 925.388 640.06L970.03 629.962C986.575 626.22 1002.31 638.801 1002.31 655.767L1002.31 675.963C1002.31 692.929 986.575 705.51 970.03 701.768L925.388 691.67Z" fill="#8DBBFB"/>
<path d="M865.34 637.897C880.991 637.897 893.679 650.588 893.679 666.243C893.679 681.898 880.991 694.589 865.34 694.589C849.688 694.589 837 681.898 837 666.243C837 650.588 849.688 637.897 865.34 637.897Z" fill="#8DBBFB"/>
<path d="M988.523 660.574C980.801 660.574 974.542 654.313 974.542 646.59C974.542 638.866 980.801 632.605 988.523 632.605L1021.02 632.605C1028.74 632.605 1035 638.866 1035 646.59C1035 654.313 1028.74 660.574 1021.02 660.574L988.523 660.574Z" fill="#8DBBFB"/>
<path d="M934.361 649.636C927.728 653.59 919.146 651.416 915.194 644.781C911.242 638.146 913.416 629.563 920.049 625.61L947.966 608.973C954.599 605.02 963.18 607.194 967.132 613.829C971.085 620.463 968.911 629.047 962.278 633L934.361 649.636Z" fill="#8DBBFB"/>
<path d="M920.146 706.872C913.459 703.011 911.168 694.458 915.029 687.77C918.889 681.081 927.44 678.79 934.127 682.651L962.269 698.903C968.956 702.765 971.248 711.317 967.387 718.006C963.526 724.694 954.975 726.986 948.289 723.124L920.146 706.872Z" fill="#8DBBFB"/>
<path d="M988.523 699.88C980.801 699.88 974.542 693.619 974.542 685.896C974.542 678.173 980.801 671.912 988.523 671.912L1021.02 671.912C1028.74 671.912 1035 678.173 1035 685.896C1035 693.619 1028.74 699.88 1021.02 699.88L988.523 699.88Z" fill="#8DBBFB"/>
</g>
</g>
<path id="you died..." d="M363.336 442.08L376.68 414.72L376.392 422.496L349.32 369.024H366.888L379.272 395.52C380.168 397.312 381 399.136 381.768 400.992C382.536 402.784 383.144 404.576 383.592 406.368L380.712 407.136C381.288 405.728 381.96 404.064 382.728 402.144C383.496 400.224 384.296 398.272 385.128 396.288L396.552 369.024H414.12L389.16 420.192L378.888 442.08H363.336ZM455.101 420.96C449.149 420.96 443.869 419.808 439.261 417.504C434.653 415.2 431.037 412.064 428.413 408.096C425.789 404.128 424.477 399.584 424.477 394.464C424.477 389.344 425.789 384.8 428.413 380.832C431.037 376.864 434.653 373.728 439.261 371.424C443.869 369.12 449.149 367.968 455.101 367.968C460.989 367.968 466.205 369.12 470.749 371.424C475.357 373.728 478.973 376.864 481.597 380.832C484.221 384.8 485.533 389.344 485.533 394.464C485.533 399.584 484.221 404.128 481.597 408.096C478.973 412.064 475.357 415.2 470.749 417.504C466.205 419.808 460.989 420.96 455.101 420.96ZM455.101 407.712C457.853 407.712 460.349 407.136 462.589 405.984C464.893 404.832 466.685 403.264 467.965 401.28C469.309 399.296 469.949 397.024 469.885 394.464C469.949 391.904 469.309 389.6 467.965 387.552C466.685 385.504 464.893 383.936 462.589 382.848C460.349 381.696 457.853 381.12 455.101 381.12C452.285 381.12 449.693 381.696 447.325 382.848C445.021 384 443.229 385.568 441.949 387.552C440.669 389.536 440.029 391.84 440.029 394.464C440.029 397.024 440.669 399.296 441.949 401.28C443.229 403.264 445.021 404.832 447.325 405.984C449.693 407.136 452.285 407.712 455.101 407.712ZM523.573 421.056C519.477 421.056 515.925 420.16 512.917 418.368C509.973 416.576 507.701 413.984 506.101 410.592C504.501 407.136 503.701 403.008 503.701 398.208V369.024H519.061V395.712C519.061 398.336 519.413 400.544 520.117 402.336C520.885 404.128 522.069 405.504 523.669 406.464C525.269 407.36 527.221 407.808 529.525 407.808C531.189 407.808 532.725 407.552 534.133 407.04C535.541 406.464 536.789 405.696 537.877 404.736C538.965 403.712 539.797 402.56 540.373 401.28C541.013 399.936 541.333 398.432 541.333 396.768V369.024H556.693V420H542.293L541.621 409.536L544.405 408.384C543.701 410.624 542.357 412.704 540.373 414.624C538.389 416.544 535.957 418.112 533.077 419.328C530.261 420.48 527.093 421.056 523.573 421.056ZM638.613 421.056C633.621 421.056 629.237 419.936 625.461 417.696C621.685 415.392 618.741 412.256 616.629 408.288C614.517 404.256 613.461 399.68 613.461 394.56C613.461 389.44 614.549 384.896 616.725 380.928C618.901 376.896 621.909 373.728 625.749 371.424C629.653 369.12 634.133 367.968 639.189 367.968C642.005 367.968 644.629 368.352 647.061 369.12C649.493 369.824 651.669 370.784 653.589 372C655.573 373.216 657.141 374.624 658.293 376.224C659.509 377.76 660.213 379.328 660.405 380.928L656.757 381.792V348.96H672.213V420H657.909L657.045 407.616L660.117 408.384C659.925 409.984 659.221 411.552 658.005 413.088C656.789 414.56 655.189 415.904 653.205 417.12C651.285 418.272 649.077 419.232 646.581 420C644.085 420.704 641.429 421.056 638.613 421.056ZM642.933 408.096C645.813 408.096 648.309 407.52 650.421 406.368C652.597 405.216 654.261 403.648 655.413 401.664C656.565 399.616 657.141 397.248 657.141 394.56C657.141 391.808 656.565 389.44 655.413 387.456C654.261 385.408 652.597 383.84 650.421 382.752C648.309 381.6 645.813 381.024 642.933 381.024C640.053 381.024 637.557 381.6 635.445 382.752C633.333 383.84 631.669 385.408 630.453 387.456C629.301 389.44 628.725 391.808 628.725 394.56C628.725 397.248 629.301 399.616 630.453 401.664C631.669 403.648 633.333 405.216 635.445 406.368C637.557 407.52 640.053 408.096 642.933 408.096ZM695.458 420V369.024H710.914V420H695.458ZM703.138 358.56C700.258 358.56 698.018 357.888 696.418 356.544C694.818 355.136 694.018 353.152 694.018 350.592C694.018 348.288 694.818 346.4 696.418 344.928C698.082 343.456 700.322 342.72 703.138 342.72C706.018 342.72 708.258 343.424 709.858 344.832C711.458 346.176 712.258 348.096 712.258 350.592C712.258 352.96 711.426 354.88 709.762 356.352C708.162 357.824 705.954 358.56 703.138 358.56ZM760.904 420.96C754.696 420.96 749.256 419.84 744.584 417.6C739.976 415.296 736.392 412.192 733.832 408.288C731.272 404.32 729.992 399.808 729.992 394.752C729.992 390.72 730.728 387.072 732.2 383.808C733.672 380.544 735.72 377.728 738.344 375.36C740.968 372.992 744.04 371.168 747.56 369.888C751.08 368.608 754.888 367.968 758.984 367.968C762.952 367.968 766.6 368.608 769.928 369.888C773.256 371.104 776.136 372.864 778.568 375.168C781.064 377.472 782.984 380.192 784.328 383.328C785.672 386.464 786.28 389.92 786.152 393.696L786.056 398.016H740.072L737.864 389.088H773.576L771.944 391.008V389.088C771.752 387.488 771.048 386.048 769.832 384.768C768.68 383.488 767.176 382.496 765.32 381.792C763.464 381.024 761.416 380.64 759.176 380.64C756.296 380.64 753.736 381.12 751.496 382.08C749.256 382.976 747.496 384.384 746.216 386.304C745 388.224 744.392 390.656 744.392 393.6C744.392 396.416 745.128 398.88 746.6 400.992C748.136 403.104 750.28 404.768 753.032 405.984C755.848 407.2 759.144 407.808 762.92 407.808C766.184 407.808 768.904 407.424 771.08 406.656C773.32 405.824 775.336 404.8 777.128 403.584L784.04 413.568C781.928 415.168 779.592 416.544 777.032 417.696C774.536 418.784 771.912 419.584 769.16 420.096C766.472 420.672 763.72 420.96 760.904 420.96ZM824.613 421.056C819.621 421.056 815.237 419.936 811.461 417.696C807.685 415.392 804.741 412.256 802.629 408.288C800.517 404.256 799.461 399.68 799.461 394.56C799.461 389.44 800.549 384.896 802.725 380.928C804.901 376.896 807.909 373.728 811.749 371.424C815.653 369.12 820.133 367.968 825.189 367.968C828.005 367.968 830.629 368.352 833.061 369.12C835.493 369.824 837.669 370.784 839.589 372C841.573 373.216 843.141 374.624 844.293 376.224C845.509 377.76 846.213 379.328 846.405 380.928L842.757 381.792V348.96H858.213V420H843.909L843.045 407.616L846.117 408.384C845.925 409.984 845.221 411.552 844.005 413.088C842.789 414.56 841.189 415.904 839.205 417.12C837.285 418.272 835.077 419.232 832.581 420C830.085 420.704 827.429 421.056 824.613 421.056ZM828.933 408.096C831.813 408.096 834.309 407.52 836.421 406.368C838.597 405.216 840.261 403.648 841.413 401.664C842.565 399.616 843.141 397.248 843.141 394.56C843.141 391.808 842.565 389.44 841.413 387.456C840.261 385.408 838.597 383.84 836.421 382.752C834.309 381.6 831.813 381.024 828.933 381.024C826.053 381.024 823.557 381.6 821.445 382.752C819.333 383.84 817.669 385.408 816.453 387.456C815.301 389.44 814.725 391.808 814.725 394.56C814.725 397.248 815.301 399.616 816.453 401.664C817.669 403.648 819.333 405.216 821.445 406.368C823.557 407.52 826.053 408.096 828.933 408.096ZM887.026 421.056C883.89 421.056 881.49 420.32 879.826 418.848C878.226 417.312 877.426 415.2 877.426 412.512C877.426 410.08 878.258 408.032 879.922 406.368C881.65 404.704 884.018 403.872 887.026 403.872C890.162 403.872 892.562 404.64 894.226 406.176C895.89 407.712 896.722 409.824 896.722 412.512C896.722 414.88 895.858 416.896 894.13 418.56C892.466 420.224 890.098 421.056 887.026 421.056ZM923.963 421.056C920.827 421.056 918.427 420.32 916.763 418.848C915.163 417.312 914.363 415.2 914.363 412.512C914.363 410.08 915.195 408.032 916.859 406.368C918.587 404.704 920.955 403.872 923.963 403.872C927.099 403.872 929.499 404.64 931.163 406.176C932.827 407.712 933.659 409.824 933.659 412.512C933.659 414.88 932.795 416.896 931.067 418.56C929.403 420.224 927.035 421.056 923.963 421.056ZM960.901 421.056C957.765 421.056 955.365 420.32 953.701 418.848C952.101 417.312 951.301 415.2 951.301 412.512C951.301 410.08 952.133 408.032 953.797 406.368C955.525 404.704 957.893 403.872 960.901 403.872C964.037 403.872 966.437 404.64 968.101 406.176C969.765 407.712 970.597 409.824 970.597 412.512C970.597 414.88 969.733 416.896 968.005 418.56C966.341 420.224 963.973 421.056 960.901 421.056Z" fill="white"/>
<path id="I don&#226;&#128;&#153;t think the AI worked as intended..." d="M347.904 467V463.496H351.408V453.704H347.904V450.2H359.016V453.704H355.488V463.496H359.016V467H347.904ZM379.45 467.264C378.202 467.264 377.106 466.984 376.162 466.424C375.218 465.848 374.482 465.064 373.954 464.072C373.426 463.064 373.162 461.92 373.162 460.64C373.162 459.36 373.434 458.224 373.978 457.232C374.522 456.224 375.274 455.432 376.234 454.856C377.21 454.28 378.33 453.992 379.594 453.992C380.298 453.992 380.954 454.088 381.562 454.28C382.17 454.456 382.714 454.696 383.194 455C383.69 455.304 384.082 455.656 384.37 456.056C384.674 456.44 384.85 456.832 384.898 457.232L383.986 457.448V449.24H387.85V467H384.274L384.058 463.904L384.826 464.096C384.778 464.496 384.602 464.888 384.298 465.272C383.994 465.64 383.594 465.976 383.098 466.28C382.618 466.568 382.066 466.808 381.442 467C380.818 467.176 380.154 467.264 379.45 467.264ZM380.53 464.024C381.25 464.024 381.874 463.88 382.402 463.592C382.946 463.304 383.362 462.912 383.65 462.416C383.938 461.904 384.082 461.312 384.082 460.64C384.082 459.952 383.938 459.36 383.65 458.864C383.362 458.352 382.946 457.96 382.402 457.688C381.874 457.4 381.25 457.256 380.53 457.256C379.81 457.256 379.186 457.4 378.658 457.688C378.13 457.96 377.714 458.352 377.41 458.864C377.122 459.36 376.978 459.952 376.978 460.64C376.978 461.312 377.122 461.904 377.41 462.416C377.714 462.912 378.13 463.304 378.658 463.592C379.186 463.88 379.81 464.024 380.53 464.024ZM399.853 467.24C398.365 467.24 397.045 466.952 395.893 466.376C394.741 465.8 393.837 465.016 393.181 464.024C392.525 463.032 392.197 461.896 392.197 460.616C392.197 459.336 392.525 458.2 393.181 457.208C393.837 456.216 394.741 455.432 395.893 454.856C397.045 454.28 398.365 453.992 399.853 453.992C401.325 453.992 402.629 454.28 403.765 454.856C404.917 455.432 405.821 456.216 406.477 457.208C407.133 458.2 407.461 459.336 407.461 460.616C407.461 461.896 407.133 463.032 406.477 464.024C405.821 465.016 404.917 465.8 403.765 466.376C402.629 466.952 401.325 467.24 399.853 467.24ZM399.853 463.928C400.541 463.928 401.165 463.784 401.725 463.496C402.301 463.208 402.749 462.816 403.069 462.32C403.405 461.824 403.565 461.256 403.549 460.616C403.565 459.976 403.405 459.4 403.069 458.888C402.749 458.376 402.301 457.984 401.725 457.712C401.165 457.424 400.541 457.28 399.853 457.28C399.149 457.28 398.501 457.424 397.909 457.712C397.333 458 396.885 458.392 396.565 458.888C396.245 459.384 396.085 459.96 396.085 460.616C396.085 461.256 396.245 461.824 396.565 462.32C396.885 462.816 397.333 463.208 397.909 463.496C398.501 463.784 399.149 463.928 399.853 463.928ZM412.219 467V454.256H415.867L415.987 457.232L415.075 457.496C415.283 456.872 415.635 456.296 416.131 455.768C416.643 455.24 417.259 454.816 417.979 454.496C418.715 454.16 419.507 453.992 420.355 453.992C421.443 453.992 422.363 454.208 423.115 454.64C423.867 455.072 424.435 455.688 424.819 456.488C425.203 457.272 425.395 458.208 425.395 459.296V467H421.531V459.848C421.531 459.288 421.427 458.816 421.219 458.432C421.027 458.048 420.731 457.752 420.331 457.544C419.947 457.336 419.499 457.232 418.987 457.232C418.539 457.232 418.131 457.312 417.763 457.472C417.411 457.616 417.107 457.816 416.851 458.072C416.595 458.312 416.395 458.584 416.251 458.888C416.123 459.192 416.059 459.504 416.059 459.824V467H414.163C413.635 467 413.211 467 412.891 467C412.571 467 412.347 467 412.219 467ZM430.074 457.448L428.874 456.008C429.61 455.656 430.194 455.264 430.626 454.832C431.074 454.384 431.298 454 431.298 453.68C431.298 453.472 431.234 453.288 431.106 453.128C430.978 452.952 430.77 452.784 430.482 452.624C430.13 452.384 429.834 452.128 429.594 451.856C429.37 451.568 429.258 451.224 429.258 450.824C429.258 450.248 429.466 449.808 429.882 449.504C430.314 449.184 430.85 449.024 431.49 449.024C432.002 449.024 432.482 449.168 432.93 449.456C433.378 449.744 433.73 450.136 433.986 450.632C434.258 451.128 434.394 451.688 434.394 452.312C434.394 452.856 434.282 453.392 434.058 453.92C433.834 454.432 433.514 454.92 433.098 455.384C432.698 455.848 432.234 456.264 431.706 456.632C431.194 456.984 430.65 457.256 430.074 457.448ZM440.116 467V450.752H443.956V467H440.116ZM437.284 457.616V454.256H447.196V457.616H437.284ZM462.827 467V450.752H466.667V467H462.827ZM459.995 457.616V454.256H469.907V457.616H459.995ZM474.633 467V449.24H478.401V457.232L477.489 457.544C477.649 456.904 477.985 456.32 478.497 455.792C479.025 455.248 479.665 454.816 480.417 454.496C481.169 454.16 481.969 453.992 482.817 453.992C483.905 453.992 484.817 454.216 485.553 454.664C486.305 455.096 486.865 455.712 487.233 456.512C487.617 457.296 487.809 458.216 487.809 459.272V467H483.945V459.872C483.945 459.296 483.841 458.816 483.633 458.432C483.441 458.032 483.145 457.728 482.745 457.52C482.361 457.312 481.913 457.216 481.401 457.232C480.985 457.232 480.593 457.304 480.225 457.448C479.873 457.576 479.561 457.768 479.289 458.024C479.033 458.264 478.833 458.544 478.689 458.864C478.545 459.184 478.473 459.528 478.473 459.896V467H476.577C476.049 467 475.625 467 475.305 467C474.985 467 474.761 467 474.633 467ZM493.88 467V454.256H497.744V467H493.88ZM495.8 451.64C495.08 451.64 494.52 451.472 494.12 451.136C493.72 450.784 493.52 450.288 493.52 449.648C493.52 449.072 493.72 448.6 494.12 448.232C494.536 447.864 495.096 447.68 495.8 447.68C496.52 447.68 497.08 447.856 497.48 448.208C497.88 448.544 498.08 449.024 498.08 449.648C498.08 450.24 497.872 450.72 497.456 451.088C497.056 451.456 496.504 451.64 495.8 451.64ZM503.954 467V454.256H507.602L507.722 457.232L506.81 457.496C507.018 456.872 507.37 456.296 507.866 455.768C508.378 455.24 508.994 454.816 509.714 454.496C510.45 454.16 511.242 453.992 512.09 453.992C513.178 453.992 514.098 454.208 514.85 454.64C515.602 455.072 516.17 455.688 516.554 456.488C516.938 457.272 517.13 458.208 517.13 459.296V467H513.266V459.848C513.266 459.288 513.162 458.816 512.954 458.432C512.762 458.048 512.466 457.752 512.066 457.544C511.682 457.336 511.234 457.232 510.722 457.232C510.274 457.232 509.866 457.312 509.498 457.472C509.146 457.616 508.842 457.816 508.586 458.072C508.33 458.312 508.13 458.584 507.986 458.888C507.858 459.192 507.794 459.504 507.794 459.824V467H505.898C505.37 467 504.946 467 504.626 467C504.306 467 504.082 467 503.954 467ZM526.536 463.544L525.288 460.664L532.368 454.256H537.48L526.536 463.544ZM523.008 467V449.24H526.752V467H523.008ZM532.8 467L527.592 460.616L530.256 458.504L537.336 467H532.8ZM552.522 467V450.752H556.362V467H552.522ZM549.69 457.616V454.256H559.602V457.616H549.69ZM564.329 467V449.24H568.097V457.232L567.185 457.544C567.345 456.904 567.681 456.32 568.193 455.792C568.721 455.248 569.361 454.816 570.113 454.496C570.865 454.16 571.665 453.992 572.513 453.992C573.601 453.992 574.513 454.216 575.249 454.664C576.001 455.096 576.561 455.712 576.929 456.512C577.313 457.296 577.505 458.216 577.505 459.272V467H573.641V459.872C573.641 459.296 573.537 458.816 573.329 458.432C573.137 458.032 572.841 457.728 572.441 457.52C572.057 457.312 571.609 457.216 571.097 457.232C570.681 457.232 570.289 457.304 569.921 457.448C569.569 457.576 569.257 457.768 568.985 458.024C568.729 458.264 568.529 458.544 568.385 458.864C568.241 459.184 568.169 459.528 568.169 459.896V467H566.273C565.745 467 565.321 467 565.001 467C564.681 467 564.457 467 564.329 467ZM589.671 467.24C588.119 467.24 586.759 466.96 585.591 466.4C584.439 465.824 583.543 465.048 582.903 464.072C582.263 463.08 581.943 461.952 581.943 460.688C581.943 459.68 582.127 458.768 582.495 457.952C582.863 457.136 583.375 456.432 584.031 455.84C584.687 455.248 585.455 454.792 586.335 454.472C587.215 454.152 588.167 453.992 589.191 453.992C590.183 453.992 591.095 454.152 591.927 454.472C592.759 454.776 593.479 455.216 594.087 455.792C594.711 456.368 595.191 457.048 595.527 457.832C595.863 458.616 596.015 459.48 595.983 460.424L595.959 461.504H584.463L583.911 459.272H592.839L592.431 459.752V459.272C592.383 458.872 592.207 458.512 591.903 458.192C591.615 457.872 591.239 457.624 590.775 457.448C590.311 457.256 589.799 457.16 589.239 457.16C588.519 457.16 587.879 457.28 587.319 457.52C586.759 457.744 586.319 458.096 585.999 458.576C585.695 459.056 585.543 459.664 585.543 460.4C585.543 461.104 585.727 461.72 586.095 462.248C586.479 462.776 587.015 463.192 587.703 463.496C588.407 463.8 589.231 463.952 590.175 463.952C590.991 463.952 591.671 463.856 592.215 463.664C592.775 463.456 593.279 463.2 593.727 462.896L595.455 465.392C594.927 465.792 594.343 466.136 593.703 466.424C593.079 466.696 592.423 466.896 591.735 467.024C591.063 467.168 590.375 467.24 589.671 467.24ZM608.007 467L615.327 450.2H618.951L626.223 467H622.047L618.159 457.904C618.015 457.552 617.871 457.2 617.727 456.848C617.599 456.496 617.471 456.136 617.343 455.768C617.215 455.4 617.095 455.04 616.983 454.688C616.871 454.336 616.767 454 616.671 453.68L617.487 453.656C617.391 454.04 617.279 454.408 617.151 454.76C617.039 455.112 616.919 455.464 616.791 455.816C616.663 456.152 616.527 456.496 616.383 456.848C616.239 457.2 616.095 457.56 615.951 457.928L612.063 467H608.007ZM611.439 463.88L612.759 460.808H621.399L622.383 463.88H611.439ZM629.74 467V463.496H633.244V453.704H629.74V450.2H640.852V453.704H637.324V463.496H640.852V467H629.74ZM658.91 467L654.47 454.256H658.526L661.046 462.656L660.542 462.608L663.422 455.96H665.894L668.966 462.608L668.462 462.656L670.982 454.256H675.062L670.478 467H667.574L664.262 459.32L665.15 459.296L661.79 467H658.91ZM684.924 467.24C683.436 467.24 682.116 466.952 680.964 466.376C679.812 465.8 678.908 465.016 678.252 464.024C677.596 463.032 677.268 461.896 677.268 460.616C677.268 459.336 677.596 458.2 678.252 457.208C678.908 456.216 679.812 455.432 680.964 454.856C682.116 454.28 683.436 453.992 684.924 453.992C686.396 453.992 687.7 454.28 688.836 454.856C689.988 455.432 690.892 456.216 691.548 457.208C692.204 458.2 692.532 459.336 692.532 460.616C692.532 461.896 692.204 463.032 691.548 464.024C690.892 465.016 689.988 465.8 688.836 466.376C687.7 466.952 686.396 467.24 684.924 467.24ZM684.924 463.928C685.612 463.928 686.236 463.784 686.796 463.496C687.372 463.208 687.82 462.816 688.14 462.32C688.476 461.824 688.636 461.256 688.62 460.616C688.636 459.976 688.476 459.4 688.14 458.888C687.82 458.376 687.372 457.984 686.796 457.712C686.236 457.424 685.612 457.28 684.924 457.28C684.22 457.28 683.572 457.424 682.98 457.712C682.404 458 681.956 458.392 681.636 458.888C681.316 459.384 681.156 459.96 681.156 460.616C681.156 461.256 681.316 461.824 681.636 462.32C681.956 462.816 682.404 463.208 682.98 463.496C683.572 463.784 684.22 463.928 684.924 463.928ZM697.29 467V454.256H700.938L701.106 458.648L700.194 458.192C700.402 457.408 700.762 456.704 701.274 456.08C701.802 455.44 702.402 454.936 703.074 454.568C703.762 454.184 704.49 453.992 705.258 453.992C705.674 453.992 706.066 454.032 706.434 454.112C706.818 454.192 707.146 454.296 707.418 454.424L706.362 458.624C706.122 458.448 705.794 458.312 705.378 458.216C704.978 458.12 704.57 458.072 704.154 458.072C703.69 458.072 703.266 458.152 702.882 458.312C702.514 458.456 702.202 458.664 701.946 458.936C701.69 459.192 701.49 459.488 701.346 459.824C701.218 460.16 701.154 460.52 701.154 460.904V467H697.29ZM715.255 463.544L714.007 460.664L721.087 454.256H726.199L715.255 463.544ZM711.727 467V449.24H715.471V467H711.727ZM721.519 467L716.311 460.616L718.975 458.504L726.055 467H721.519ZM736.085 467.24C734.533 467.24 733.173 466.96 732.005 466.4C730.853 465.824 729.957 465.048 729.317 464.072C728.677 463.08 728.357 461.952 728.357 460.688C728.357 459.68 728.541 458.768 728.909 457.952C729.277 457.136 729.789 456.432 730.445 455.84C731.101 455.248 731.869 454.792 732.749 454.472C733.629 454.152 734.581 453.992 735.605 453.992C736.597 453.992 737.509 454.152 738.341 454.472C739.173 454.776 739.893 455.216 740.501 455.792C741.125 456.368 741.605 457.048 741.941 457.832C742.277 458.616 742.429 459.48 742.397 460.424L742.373 461.504H730.877L730.325 459.272H739.253L738.845 459.752V459.272C738.797 458.872 738.621 458.512 738.317 458.192C738.029 457.872 737.653 457.624 737.189 457.448C736.725 457.256 736.213 457.16 735.653 457.16C734.933 457.16 734.293 457.28 733.733 457.52C733.173 457.744 732.733 458.096 732.413 458.576C732.109 459.056 731.957 459.664 731.957 460.4C731.957 461.104 732.141 461.72 732.509 462.248C732.893 462.776 733.429 463.192 734.117 463.496C734.821 463.8 735.645 463.952 736.589 463.952C737.405 463.952 738.085 463.856 738.629 463.664C739.189 463.456 739.693 463.2 740.141 462.896L741.869 465.392C741.341 465.792 740.757 466.136 740.117 466.424C739.493 466.696 738.837 466.896 738.149 467.024C737.477 467.168 736.789 467.24 736.085 467.24ZM752.013 467.264C750.765 467.264 749.669 466.984 748.725 466.424C747.781 465.848 747.045 465.064 746.517 464.072C745.989 463.064 745.725 461.92 745.725 460.64C745.725 459.36 745.997 458.224 746.541 457.232C747.085 456.224 747.837 455.432 748.797 454.856C749.773 454.28 750.893 453.992 752.157 453.992C752.861 453.992 753.517 454.088 754.125 454.28C754.733 454.456 755.277 454.696 755.757 455C756.253 455.304 756.645 455.656 756.933 456.056C757.237 456.44 757.413 456.832 757.461 457.232L756.549 457.448V449.24H760.413V467H756.837L756.621 463.904L757.389 464.096C757.341 464.496 757.165 464.888 756.861 465.272C756.557 465.64 756.157 465.976 755.661 466.28C755.181 466.568 754.629 466.808 754.005 467C753.381 467.176 752.717 467.264 752.013 467.264ZM753.093 464.024C753.813 464.024 754.437 463.88 754.965 463.592C755.509 463.304 755.925 462.912 756.213 462.416C756.501 461.904 756.645 461.312 756.645 460.64C756.645 459.952 756.501 459.36 756.213 458.864C755.925 458.352 755.509 457.96 754.965 457.688C754.437 457.4 753.813 457.256 753.093 457.256C752.373 457.256 751.749 457.4 751.221 457.688C750.693 457.96 750.277 458.352 749.973 458.864C749.685 459.36 749.541 459.952 749.541 460.64C749.541 461.312 749.685 461.904 749.973 462.416C750.277 462.912 750.693 463.304 751.221 463.592C751.749 463.88 752.373 464.024 753.093 464.024ZM780.584 467.216C779.32 467.216 778.216 466.936 777.272 466.376C776.328 465.816 775.584 465.04 775.04 464.048C774.512 463.04 774.248 461.896 774.248 460.616C774.248 459.32 774.52 458.176 775.064 457.184C775.608 456.192 776.36 455.416 777.32 454.856C778.296 454.28 779.416 453.992 780.68 453.992C781.4 453.992 782.064 454.088 782.672 454.28C783.28 454.456 783.808 454.704 784.256 455.024C784.72 455.344 785.096 455.696 785.384 456.08C785.688 456.464 785.888 456.864 785.984 457.28H785.144V454.256H788.936V467H785.072V463.736L785.888 463.856C785.792 464.272 785.592 464.68 785.288 465.08C784.984 465.48 784.592 465.84 784.112 466.16C783.632 466.48 783.088 466.736 782.48 466.928C781.888 467.12 781.256 467.216 780.584 467.216ZM781.616 463.976C782.336 463.976 782.96 463.84 783.488 463.568C784.032 463.296 784.448 462.912 784.736 462.416C785.04 461.904 785.192 461.304 785.192 460.616C785.192 459.944 785.04 459.36 784.736 458.864C784.448 458.352 784.032 457.952 783.488 457.664C782.96 457.376 782.336 457.232 781.616 457.232C780.896 457.232 780.272 457.376 779.744 457.664C779.216 457.952 778.8 458.352 778.496 458.864C778.208 459.36 778.064 459.944 778.064 460.616C778.064 461.304 778.208 461.904 778.496 462.416C778.8 462.912 779.216 463.296 779.744 463.568C780.272 463.84 780.896 463.976 781.616 463.976ZM799.708 467.24C798.3 467.24 797.036 467.04 795.916 466.64C794.812 466.24 793.924 465.672 793.252 464.936L795.58 462.872C796.124 463.384 796.772 463.776 797.524 464.048C798.276 464.32 799.068 464.456 799.9 464.456C800.156 464.456 800.404 464.432 800.644 464.384C800.9 464.336 801.116 464.272 801.292 464.192C801.484 464.096 801.636 463.984 801.748 463.856C801.86 463.728 801.916 463.568 801.916 463.376C801.916 463.072 801.724 462.832 801.34 462.656C801.068 462.56 800.724 462.464 800.308 462.368C799.892 462.272 799.42 462.168 798.892 462.056C798.012 461.896 797.236 461.704 796.564 461.48C795.908 461.24 795.356 460.944 794.908 460.592C794.524 460.256 794.228 459.872 794.02 459.44C793.812 459.008 793.708 458.504 793.708 457.928C793.708 457.336 793.86 456.8 794.164 456.32C794.468 455.824 794.892 455.408 795.436 455.072C795.98 454.72 796.604 454.456 797.308 454.28C798.012 454.088 798.748 453.992 799.516 453.992C800.284 453.992 801.036 454.072 801.772 454.232C802.508 454.376 803.204 454.592 803.86 454.88C804.516 455.152 805.092 455.504 805.588 455.936L803.62 458.24C803.268 457.968 802.86 457.72 802.396 457.496C801.932 457.272 801.436 457.096 800.908 456.968C800.396 456.824 799.892 456.752 799.396 456.752C799.124 456.752 798.86 456.768 798.604 456.8C798.364 456.832 798.156 456.896 797.98 456.992C797.804 457.072 797.66 457.176 797.548 457.304C797.452 457.416 797.404 457.56 797.404 457.736C797.404 457.88 797.444 458.016 797.524 458.144C797.604 458.272 797.724 458.376 797.884 458.456C798.108 458.6 798.436 458.728 798.868 458.84C799.316 458.952 799.876 459.072 800.548 459.2C801.524 459.408 802.356 459.648 803.044 459.92C803.732 460.176 804.284 460.488 804.7 460.856C805.036 461.112 805.284 461.432 805.444 461.816C805.604 462.184 805.684 462.592 805.684 463.04C805.684 463.856 805.42 464.584 804.892 465.224C804.38 465.848 803.676 466.344 802.78 466.712C801.9 467.064 800.876 467.24 799.708 467.24ZM819.919 467V454.256H823.783V467H819.919ZM821.839 451.64C821.119 451.64 820.559 451.472 820.159 451.136C819.759 450.784 819.559 450.288 819.559 449.648C819.559 449.072 819.759 448.6 820.159 448.232C820.575 447.864 821.135 447.68 821.839 447.68C822.559 447.68 823.119 447.856 823.519 448.208C823.919 448.544 824.119 449.024 824.119 449.648C824.119 450.24 823.911 450.72 823.495 451.088C823.095 451.456 822.543 451.64 821.839 451.64ZM829.993 467V454.256H833.641L833.761 457.232L832.849 457.496C833.057 456.872 833.409 456.296 833.905 455.768C834.417 455.24 835.033 454.816 835.753 454.496C836.489 454.16 837.281 453.992 838.129 453.992C839.217 453.992 840.137 454.208 840.889 454.64C841.641 455.072 842.209 455.688 842.593 456.488C842.977 457.272 843.169 458.208 843.169 459.296V467H839.305V459.848C839.305 459.288 839.201 458.816 838.993 458.432C838.801 458.048 838.505 457.752 838.105 457.544C837.721 457.336 837.273 457.232 836.761 457.232C836.313 457.232 835.905 457.312 835.537 457.472C835.185 457.616 834.881 457.816 834.625 458.072C834.369 458.312 834.169 458.584 834.025 458.888C833.897 459.192 833.833 459.504 833.833 459.824V467H831.937C831.409 467 830.985 467 830.665 467C830.345 467 830.121 467 829.993 467ZM850.295 467V450.752H854.135V467H850.295ZM847.463 457.616V454.256H857.375V457.616H847.463ZM868.273 467.24C866.721 467.24 865.361 466.96 864.193 466.4C863.041 465.824 862.145 465.048 861.505 464.072C860.865 463.08 860.545 461.952 860.545 460.688C860.545 459.68 860.729 458.768 861.097 457.952C861.465 457.136 861.977 456.432 862.633 455.84C863.289 455.248 864.057 454.792 864.937 454.472C865.817 454.152 866.769 453.992 867.793 453.992C868.785 453.992 869.697 454.152 870.529 454.472C871.361 454.776 872.081 455.216 872.689 455.792C873.313 456.368 873.793 457.048 874.129 457.832C874.465 458.616 874.617 459.48 874.585 460.424L874.561 461.504H863.065L862.513 459.272H871.441L871.033 459.752V459.272C870.985 458.872 870.809 458.512 870.505 458.192C870.217 457.872 869.841 457.624 869.377 457.448C868.913 457.256 868.401 457.16 867.841 457.16C867.121 457.16 866.481 457.28 865.921 457.52C865.361 457.744 864.921 458.096 864.601 458.576C864.297 459.056 864.145 459.664 864.145 460.4C864.145 461.104 864.329 461.72 864.697 462.248C865.081 462.776 865.617 463.192 866.305 463.496C867.009 463.8 867.833 463.952 868.777 463.952C869.593 463.952 870.273 463.856 870.817 463.664C871.377 463.456 871.881 463.2 872.329 462.896L874.057 465.392C873.529 465.792 872.945 466.136 872.305 466.424C871.681 466.696 871.025 466.896 870.337 467.024C869.665 467.168 868.977 467.24 868.273 467.24ZM879.352 467V454.256H883L883.12 457.232L882.208 457.496C882.416 456.872 882.768 456.296 883.264 455.768C883.776 455.24 884.392 454.816 885.112 454.496C885.848 454.16 886.64 453.992 887.488 453.992C888.576 453.992 889.496 454.208 890.248 454.64C891 455.072 891.568 455.688 891.952 456.488C892.336 457.272 892.528 458.208 892.528 459.296V467H888.664V459.848C888.664 459.288 888.56 458.816 888.352 458.432C888.16 458.048 887.864 457.752 887.464 457.544C887.08 457.336 886.632 457.232 886.12 457.232C885.672 457.232 885.264 457.312 884.896 457.472C884.544 457.616 884.24 457.816 883.984 458.072C883.728 458.312 883.528 458.584 883.384 458.888C883.256 459.192 883.192 459.504 883.192 459.824V467H881.296C880.768 467 880.344 467 880.024 467C879.704 467 879.48 467 879.352 467ZM903.255 467.264C902.007 467.264 900.911 466.984 899.967 466.424C899.023 465.848 898.287 465.064 897.759 464.072C897.231 463.064 896.967 461.92 896.967 460.64C896.967 459.36 897.239 458.224 897.783 457.232C898.327 456.224 899.079 455.432 900.039 454.856C901.015 454.28 902.135 453.992 903.399 453.992C904.103 453.992 904.759 454.088 905.367 454.28C905.975 454.456 906.519 454.696 906.999 455C907.495 455.304 907.887 455.656 908.175 456.056C908.479 456.44 908.655 456.832 908.703 457.232L907.791 457.448V449.24H911.655V467H908.079L907.863 463.904L908.631 464.096C908.583 464.496 908.407 464.888 908.103 465.272C907.799 465.64 907.399 465.976 906.903 466.28C906.423 466.568 905.871 466.808 905.247 467C904.623 467.176 903.959 467.264 903.255 467.264ZM904.335 464.024C905.055 464.024 905.679 463.88 906.207 463.592C906.751 463.304 907.167 462.912 907.455 462.416C907.743 461.904 907.887 461.312 907.887 460.64C907.887 459.952 907.743 459.36 907.455 458.864C907.167 458.352 906.751 457.96 906.207 457.688C905.679 457.4 905.055 457.256 904.335 457.256C903.615 457.256 902.991 457.4 902.463 457.688C901.935 457.96 901.519 458.352 901.215 458.864C900.927 459.36 900.783 459.952 900.783 460.64C900.783 461.312 900.927 461.904 901.215 462.416C901.519 462.912 901.935 463.304 902.463 463.592C902.991 463.88 903.615 464.024 904.335 464.024ZM923.562 467.24C922.01 467.24 920.65 466.96 919.482 466.4C918.33 465.824 917.434 465.048 916.794 464.072C916.154 463.08 915.834 461.952 915.834 460.688C915.834 459.68 916.018 458.768 916.386 457.952C916.754 457.136 917.266 456.432 917.922 455.84C918.578 455.248 919.346 454.792 920.226 454.472C921.106 454.152 922.058 453.992 923.082 453.992C924.074 453.992 924.986 454.152 925.818 454.472C926.65 454.776 927.37 455.216 927.978 455.792C928.602 456.368 929.082 457.048 929.418 457.832C929.754 458.616 929.906 459.48 929.874 460.424L929.85 461.504H918.354L917.802 459.272H926.73L926.322 459.752V459.272C926.274 458.872 926.098 458.512 925.794 458.192C925.506 457.872 925.13 457.624 924.666 457.448C924.202 457.256 923.69 457.16 923.13 457.16C922.41 457.16 921.77 457.28 921.21 457.52C920.65 457.744 920.21 458.096 919.89 458.576C919.586 459.056 919.434 459.664 919.434 460.4C919.434 461.104 919.618 461.72 919.986 462.248C920.37 462.776 920.906 463.192 921.594 463.496C922.298 463.8 923.122 463.952 924.066 463.952C924.882 463.952 925.562 463.856 926.106 463.664C926.666 463.456 927.17 463.2 927.618 462.896L929.346 465.392C928.818 465.792 928.234 466.136 927.594 466.424C926.97 466.696 926.314 466.896 925.626 467.024C924.954 467.168 924.266 467.24 923.562 467.24ZM939.489 467.264C938.241 467.264 937.145 466.984 936.201 466.424C935.257 465.848 934.521 465.064 933.993 464.072C933.465 463.064 933.201 461.92 933.201 460.64C933.201 459.36 933.473 458.224 934.017 457.232C934.561 456.224 935.313 455.432 936.273 454.856C937.249 454.28 938.369 453.992 939.633 453.992C940.337 453.992 940.993 454.088 941.601 454.28C942.209 454.456 942.753 454.696 943.233 455C943.729 455.304 944.121 455.656 944.409 456.056C944.713 456.44 944.889 456.832 944.937 457.232L944.025 457.448V449.24H947.889V467H944.313L944.097 463.904L944.865 464.096C944.817 464.496 944.641 464.888 944.337 465.272C944.033 465.64 943.633 465.976 943.137 466.28C942.657 466.568 942.105 466.808 941.481 467C940.857 467.176 940.193 467.264 939.489 467.264ZM940.569 464.024C941.289 464.024 941.913 463.88 942.441 463.592C942.985 463.304 943.401 462.912 943.689 462.416C943.977 461.904 944.121 461.312 944.121 460.64C944.121 459.952 943.977 459.36 943.689 458.864C943.401 458.352 942.985 457.96 942.441 457.688C941.913 457.4 941.289 457.256 940.569 457.256C939.849 457.256 939.225 457.4 938.697 457.688C938.169 457.96 937.753 458.352 937.449 458.864C937.161 459.36 937.017 459.952 937.017 460.64C937.017 461.312 937.161 461.904 937.449 462.416C937.753 462.912 938.169 463.304 938.697 463.592C939.225 463.88 939.849 464.024 940.569 464.024ZM955.092 467.264C954.308 467.264 953.708 467.08 953.292 466.712C952.892 466.328 952.692 465.8 952.692 465.128C952.692 464.52 952.9 464.008 953.316 463.592C953.748 463.176 954.34 462.968 955.092 462.968C955.876 462.968 956.476 463.16 956.892 463.544C957.308 463.928 957.516 464.456 957.516 465.128C957.516 465.72 957.3 466.224 956.868 466.64C956.452 467.056 955.86 467.264 955.092 467.264ZM964.327 467.264C963.543 467.264 962.943 467.08 962.527 466.712C962.127 466.328 961.927 465.8 961.927 465.128C961.927 464.52 962.135 464.008 962.551 463.592C962.983 463.176 963.575 462.968 964.327 462.968C965.111 462.968 965.711 463.16 966.127 463.544C966.543 463.928 966.751 464.456 966.751 465.128C966.751 465.72 966.535 466.224 966.103 466.64C965.687 467.056 965.095 467.264 964.327 467.264ZM973.561 467.264C972.777 467.264 972.177 467.08 971.761 466.712C971.361 466.328 971.161 465.8 971.161 465.128C971.161 464.52 971.369 464.008 971.785 463.592C972.217 463.176 972.809 462.968 973.561 462.968C974.345 462.968 974.945 463.16 975.361 463.544C975.777 463.928 975.985 464.456 975.985 465.128C975.985 465.72 975.769 466.224 975.337 466.64C974.921 467.056 974.329 467.264 973.561 467.264Z" fill="white"/>
</g>
<defs>
<filter id="filter0_d_164_512" x="136" y="612" width="206" height="126" filterUnits="userSpaceOnUse" color-interpolation-filters="sRGB">
<feFlood flood-opacity="0" result="BackgroundImageFix"/>
<feColorMatrix in="SourceAlpha" type="matrix" values="0 0 0 0 0 0 0 0 0 0 0 0 0 0 0 0 0 0 127 0" result="hardAlpha"/>
<feOffset dy="4"/>
<feGaussianBlur stdDeviation="2"/>
<feComposite in2="hardAlpha" operator="out"/>
<feColorMatrix type="matrix" values="0 0 0 0 0 0 0 0 0 0 0 0 0 0 0 0 0 0 0.25 0"/>
<feBlend mode="normal" in2="BackgroundImageFix" result="effect1_dropShadow_164_512"/>
<feBlend mode="normal" in="SourceGraphic" in2="effect1_dropShadow_164_512" result="shape"/>
</filter>
<filter id="filter1_d_164_512" x="379" y="555" width="176" height="108" filterUnits="userSpaceOnUse" color-interpolation-filters="sRGB">
<feFlood flood-opacity="0" result="BackgroundImageFix"/>
<feColorMatrix in="SourceAlpha" type="matrix" values="0 0 0 0 0 0 0 0 0 0 0 0 0 0 0 0 0 0 127 0" result="hardAlpha"/>
<feOffset dy="4"/>
<feGaussianBlur stdDeviation="2"/>
<feComposite in2="hardAlpha" operator="out"/>
<feColorMatrix type="matrix" values="0 0 0 0 0 0 0 0 0 0 0 0 0 0 0 0 0 0 0.25 0"/>
<feBlend mode="normal" in2="BackgroundImageFix" result="effect1_dropShadow_164_512"/>
<feBlend mode="normal" in="SourceGraphic" in2="effect1_dropShadow_164_512" result="shape"/>
</filter>
<filter id="filter2_d_164_512" x="730" y="495" width="176" height="109" filterUnits="userSpaceOnUse" color-interpolation-filters="sRGB">
<feFlood flood-opacity="0" result="BackgroundImageFix"/>
<feColorMatrix in="SourceAlpha" type="matrix" values="0 0 0 0 0 0 0 0 0 0 0 0 0 0 0 0 0 0 127 0" result="hardAlpha"/>
<feOffset dy="4"/>
<feGaussianBlur stdDeviation="2"/>
<feComposite in2="hardAlpha" operator="out"/>
<feColorMatrix type="matrix" values="0 0 0 0 0 0 0 0 0 0 0 0 0 0 0 0 0 0 0.25 0"/>
<feBlend mode="normal" in2="BackgroundImageFix" result="effect1_dropShadow_164_512"/>
<feBlend mode="normal" in="SourceGraphic" in2="effect1_dropShadow_164_512" result="shape"/>
</filter>
<filter id="filter3_d_164_512" x="523" y="504" width="176" height="109" filterUnits="userSpaceOnUse" color-interpolation-filters="sRGB">
<feFlood flood-opacity="0" result="BackgroundImageFix"/>
<feColorMatrix in="SourceAlpha" type="matrix" values="0 0 0 0 0 0 0 0 0 0 0 0 0 0 0 0 0 0 127 0" result="hardAlpha"/>
<feOffset dy="4"/>
<feGaussianBlur stdDeviation="2"/>
<feComposite in2="hardAlpha" operator="out"/>
<feColorMatrix type="matrix" values="0 0 0 0 0 0 0 0 0 0 0 0 0 0 0 0 0 0 0.25 0"/>
<feBlend mode="normal" in2="BackgroundImageFix" result="effect1_dropShadow_164_512"/>
<feBlend mode="normal" in="SourceGraphic" in2="effect1_dropShadow_164_512" result="shape"/>
</filter>
<filter id="filter4_d_164_512" x="885" y="538" width="176" height="108" filterUnits="userSpaceOnUse" color-interpolation-filters="sRGB">
<feFlood flood-opacity="0" result="BackgroundImageFix"/>
<feColorMatrix in="SourceAlpha" type="matrix" values="0 0 0 0 0 0 0 0 0 0 0 0 0 0 0 0 0 0 127 0" result="hardAlpha"/>
<feOffset dy="4"/>
<feGaussianBlur stdDeviation="2"/>
<feComposite in2="hardAlpha" operator="out"/>
<feColorMatrix type="matrix" values="0 0 0 0 0 0 0 0 0 0 0 0 0 0 0 0 0 0 0.25 0"/>
<feBlend mode="normal" in2="BackgroundImageFix" result="effect1_dropShadow_164_512"/>
<feBlend mode="normal" in="SourceGraphic" in2="effect1_dropShadow_164_512" result="shape"/>
</filter>
<filter id="filter5_d_164_512" x="379" y="607" width="206" height="126" filterUnits="userSpaceOnUse" color-interpolation-filters="sRGB">
<feFlood flood-opacity="0" result="BackgroundImageFix"/>
<feColorMatrix in="SourceAlpha" type="matrix" values="0 0 0 0 0 0 0 0 0 0 0 0 0 0 0 0 0 0 127 0" result="hardAlpha"/>
<feOffset dy="4"/>
<feGaussianBlur stdDeviation="2"/>
<feComposite in2="hardAlpha" operator="out"/>
<feColorMatrix type="matrix" values="0 0 0 0 0 0 0 0 0 0 0 0 0 0 0 0 0 0 0.25 0"/>
<feBlend mode="normal" in2="BackgroundImageFix" result="effect1_dropShadow_164_512"/>
<feBlend mode="normal" in="SourceGraphic" in2="effect1_dropShadow_164_512" result="shape"/>
</filter>
<filter id="filter6_d_164_512" x="478" y="568" width="206" height="126" filterUnits="userSpaceOnUse" color-interpolation-filters="sRGB">
<feFlood flood-opacity="0" result="BackgroundImageFix"/>
<feColorMatrix in="SourceAlpha" type="matrix" values="0 0 0 0 0 0 0 0 0 0 0 0 0 0 0 0 0 0 127 0" result="hardAlpha"/>
<feOffset dy="4"/>
<feGaussianBlur stdDeviation="2"/>
<feComposite in2="hardAlpha" operator="out"/>
<feColorMatrix type="matrix" values="0 0 0 0 0 0 0 0 0 0 0 0 0 0 0 0 0 0 0.25 0"/>
<feBlend mode="normal" in2="BackgroundImageFix" result="effect1_dropShadow_164_512"/>
<feBlend mode="normal" in="SourceGraphic" in2="effect1_dropShadow_164_512" result="shape"/>
</filter>
<filter id="filter7_d_164_512" x="601" y="529" width="206" height="126" filterUnits="userSpaceOnUse" color-interpolation-filters="sRGB">
<feFlood flood-opacity="0" result="BackgroundImageFix"/>
<feColorMatrix in="SourceAlpha" type="matrix" values="0 0 0 0 0 0 0 0 0 0 0 0 0 0 0 0 0 0 127 0" result="hardAlpha"/>
<feOffset dy="4"/>
<feGaussianBlur stdDeviation="2"/>
<feComposite in2="hardAlpha" operator="out"/>
<feColorMatrix type="matrix" values="0 0 0 0 0 0 0 0 0 0 0 0 0 0 0 0 0 0 0.25 0"/>
<feBlend mode="normal" in2="BackgroundImageFix" result="effect1_dropShadow_164_512"/>
<feBlend mode="normal" in="SourceGraphic" in2="effect1_dropShadow_164_512" result="shape"/>
</filter>
<filter id="filter8_d_164_512" x="730" y="568" width="206" height="126" filterUnits="userSpaceOnUse" color-interpolation-filters="sRGB">
<feFlood flood-opacity="0" result="BackgroundImageFix"/>
<feColorMatrix in="SourceAlpha" type="matrix" values="0 0 0 0 0 0 0 0 0 0 0 0 0 0 0 0 0 0 127 0" result="hardAlpha"/>
<feOffset dy="4"/>
<feGaussianBlur stdDeviation="2"/>
<feComposite in2="hardAlpha" operator="out"/>
<feColorMatrix type="matrix" values="0 0 0 0 0 0 0 0 0 0 0 0 0 0 0 0 0 0 0.25 0"/>
<feBlend mode="normal" in2="BackgroundImageFix" result="effect1_dropShadow_164_512"/>
<feBlend mode="normal" in="SourceGraphic" in2="effect1_dropShadow_164_512" result="shape"/>
</filter>
<filter id="filter9_d_164_512" x="581" y="596" width="206" height="126" filterUnits="userSpaceOnUse" color-interpolation-filters="sRGB">
<feFlood flood-opacity="0" result="BackgroundImageFix"/>
<feColorMatrix in="SourceAlpha" type="matrix" values="0 0 0 0 0 0 0 0 0 0 0 0 0 0 0 0 0 0 127 0" result="hardAlpha"/>
<feOffset dy="4"/>
<feGaussianBlur stdDeviation="2"/>
<feComposite in2="hardAlpha" operator="out"/>
<feColorMatrix type="matrix" values="0 0 0 0 0 0 0 0 0 0 0 0 0 0 0 0 0 0 0.25 0"/>
<feBlend mode="normal" in2="BackgroundImageFix" result="effect1_dropShadow_164_512"/>
<feBlend mode="normal" in="SourceGraphic" in2="effect1_dropShadow_164_512" result="shape"/>
</filter>
<filter id="filter10_d_164_512" x="424" y="677" width="206" height="126" filterUnits="userSpaceOnUse" color-interpolation-filters="sRGB">
<feFlood flood-opacity="0" result="BackgroundImageFix"/>
<feColorMatrix in="SourceAlpha" type="matrix" values="0 0 0 0 0 0 0 0 0 0 0 0 0 0 0 0 0 0 127 0" result="hardAlpha"/>
<feOffset dy="4"/>
<feGaussianBlur stdDeviation="2"/>
<feComposite in2="hardAlpha" operator="out"/>
<feColorMatrix type="matrix" values="0 0 0 0 0 0 0 0 0 0 0 0 0 0 0 0 0 0 0.25 0"/>
<feBlend mode="normal" in2="BackgroundImageFix" result="effect1_dropShadow_164_512"/>
<feBlend mode="normal" in="SourceGraphic" in2="effect1_dropShadow_164_512" result="shape"/>
</filter>
<filter id="filter11_d_164_512" x="700" y="677" width="206" height="126" filterUnits="userSpaceOnUse" color-interpolation-filters="sRGB">
<feFlood flood-opacity="0" result="BackgroundImageFix"/>
<feColorMatrix in="SourceAlpha" type="matrix" values="0 0 0 0 0 0 0 0 0 0 0 0 0 0 0 0 0 0 127 0" result="hardAlpha"/>
<feOffset dy="4"/>
<feGaussianBlur stdDeviation="2"/>
<feComposite in2="hardAlpha" operator="out"/>
<feColorMatrix type="matrix" values="0 0 0 0 0 0 0 0 0 0 0 0 0 0 0 0 0 0 0.25 0"/>
<feBlend mode="normal" in2="BackgroundImageFix" result="effect1_dropShadow_164_512"/>
<feBlend mode="normal" in="SourceGraphic" in2="effect1_dropShadow_164_512" result="shape"/>
</filter>
<filter id="filter12_d_164_512" x="833" y="607" width="206" height="126" filterUnits="userSpaceOnUse" color-interpolation-filters="sRGB">
<feFlood flood-opacity="0" result="BackgroundImageFix"/>
<feColorMatrix in="SourceAlpha" type="matrix" values="0 0 0 0 0 0 0 0 0 0 0 0 0 0 0 0 0 0 127 0" result="hardAlpha"/>
<feOffset dy="4"/>
<feGaussianBlur stdDeviation="2"/>
<feComposite in2="hardAlpha" operator="out"/>
<feColorMatrix type="matrix" values="0 0 0 0 0 0 0 0 0 0 0 0 0 0 0 0 0 0 0.25 0"/>
<feBlend mode="normal" in2="BackgroundImageFix" result="effect1_dropShadow_164_512"/>
<feBlend mode="normal" in="SourceGraphic" in2="effect1_dropShadow_164_512" result="shape"/>
</filter>
<clipPath id="clip0_164_512">
<rect width="1440" height="1024" fill="white"/>
</clipPath>
</defs>
</svg>
