<svg width="1440" height="1024" viewBox="0 0 1440 1024" fill="none" xmlns="http://www.w3.org/2000/svg">
<g id="recognize7-no" clip-path="url(#clip0_162_709)">
<rect width="1440" height="1024" fill="#333148"/>
<g id="Group 35">
<rect id="Rectangle 22" x="877.529" y="-1056" width="245" height="1475.76" fill="#201F2F"/>
<rect id="Rectangle 23" x="-27.5294" y="-1056" width="245" height="1475.76" fill="#201F2F"/>
<rect id="Rectangle 24" x="425" y="-1056" width="245" height="1475.76" fill="#201F2F"/>
<rect id="Rectangle 21" x="1330.06" y="-1056" width="245" height="1475.76" fill="#201F2F"/>
</g>
<path id="part 4" d="M47.096 132.12V60.024H61.688L62.264 71.448L59.384 70.584C59.832 68.536 61.048 66.648 63.032 64.92C65.016 63.192 67.512 61.784 70.52 60.696C73.592 59.608 76.856 59.064 80.312 59.064C85.304 59.064 89.688 60.216 93.464 62.52C97.24 64.76 100.184 67.864 102.296 71.832C104.472 75.736 105.56 80.28 105.56 85.464C105.56 90.584 104.472 95.128 102.296 99.096C100.184 103.064 97.208 106.2 93.368 108.504C89.528 110.744 85.112 111.864 80.12 111.864C76.664 111.864 73.432 111.288 70.424 110.136C67.416 108.984 64.888 107.48 62.84 105.624C60.856 103.768 59.576 101.816 59 99.768L62.552 98.424V132.12H47.096ZM76.376 98.904C79.256 98.904 81.752 98.36 83.864 97.272C85.976 96.12 87.608 94.552 88.76 92.568C89.976 90.584 90.584 88.216 90.584 85.464C90.584 82.776 89.976 80.44 88.76 78.456C87.608 76.408 85.976 74.84 83.864 73.752C81.816 72.6 79.32 72.024 76.376 72.024C73.496 72.024 70.968 72.568 68.792 73.656C66.68 74.744 65.016 76.312 63.8 78.36C62.648 80.408 62.072 82.776 62.072 85.464C62.072 88.216 62.648 90.584 63.8 92.568C65.016 94.552 66.68 96.12 68.792 97.272C70.968 98.36 73.496 98.904 76.376 98.904ZM144.211 111.864C139.155 111.864 134.739 110.744 130.963 108.504C127.187 106.264 124.211 103.16 122.035 99.192C119.923 95.16 118.867 90.584 118.867 85.464C118.867 80.28 119.955 75.704 122.131 71.736C124.307 67.768 127.315 64.664 131.155 62.424C135.059 60.12 139.539 58.968 144.595 58.968C147.475 58.968 150.131 59.352 152.563 60.12C154.995 60.824 157.107 61.816 158.899 63.096C160.755 64.376 162.259 65.784 163.411 67.32C164.627 68.856 165.427 70.456 165.811 72.12H162.451V60.024H177.619V111H162.163V97.944L165.427 98.424C165.043 100.088 164.243 101.72 163.027 103.32C161.811 104.92 160.243 106.36 158.323 107.64C156.403 108.92 154.227 109.944 151.795 110.712C149.427 111.48 146.899 111.864 144.211 111.864ZM148.339 98.904C151.219 98.904 153.715 98.36 155.827 97.272C158.003 96.184 159.667 94.648 160.819 92.664C162.035 90.616 162.643 88.216 162.643 85.464C162.643 82.776 162.035 80.44 160.819 78.456C159.667 76.408 158.003 74.808 155.827 73.656C153.715 72.504 151.219 71.928 148.339 71.928C145.459 71.928 142.963 72.504 140.851 73.656C138.739 74.808 137.075 76.408 135.859 78.456C134.707 80.44 134.131 82.776 134.131 85.464C134.131 88.216 134.707 90.616 135.859 92.664C137.075 94.648 138.739 96.184 140.851 97.272C142.963 98.36 145.459 98.904 148.339 98.904ZM201.315 111V60.024H215.907L216.579 77.592L212.931 75.768C213.763 72.632 215.203 69.816 217.251 67.32C219.363 64.76 221.763 62.744 224.451 61.272C227.203 59.736 230.115 58.968 233.187 58.968C234.851 58.968 236.419 59.128 237.891 59.448C239.427 59.768 240.739 60.184 241.827 60.696L237.603 77.496C236.643 76.792 235.331 76.248 233.667 75.864C232.067 75.48 230.435 75.288 228.771 75.288C226.915 75.288 225.219 75.608 223.683 76.248C222.211 76.824 220.963 77.656 219.939 78.744C218.915 79.768 218.115 80.952 217.539 82.296C217.027 83.64 216.771 85.08 216.771 86.616V111H201.315ZM265.932 111V46.008H281.292V111H265.932ZM254.604 73.464V60.024H294.252V73.464H254.604ZM377.032 111V53.304H387.112L357.544 88.248L355.624 83.736H405.256V96.984H349.48L343.048 84.6L378.856 43.224H392.776V111H377.032Z" fill="white"/>
<rect id="Rectangle 7" x="-849" y="276" width="4517" height="1804" fill="#211F2F"/>
<g id="next">
<g id="Next">
<path id="Next_2" d="M1100.81 909V864.2H1110.79L1137.86 896.2L1136.01 895.88C1135.75 894.387 1135.56 892.957 1135.43 891.592C1135.3 890.227 1135.18 888.904 1135.05 887.624C1134.96 886.344 1134.88 885.064 1134.79 883.784C1134.75 882.504 1134.73 881.16 1134.73 879.752C1134.73 878.344 1134.73 876.851 1134.73 875.272V864.2H1145.29V909H1135.18L1107.08 875.976L1110.09 876.424C1110.22 877.917 1110.34 879.261 1110.47 880.456C1110.64 881.651 1110.77 882.781 1110.86 883.848C1110.98 884.872 1111.07 885.917 1111.11 886.984C1111.2 888.008 1111.26 889.096 1111.3 890.248C1111.35 891.4 1111.37 892.659 1111.37 894.024V909H1100.81ZM1177.89 909.64C1173.76 909.64 1170.13 908.893 1167.01 907.4C1163.94 905.864 1161.55 903.795 1159.85 901.192C1158.14 898.547 1157.29 895.539 1157.29 892.168C1157.29 889.48 1157.78 887.048 1158.76 884.872C1159.74 882.696 1161.11 880.819 1162.85 879.24C1164.6 877.661 1166.65 876.445 1169 875.592C1171.35 874.739 1173.88 874.312 1176.61 874.312C1179.26 874.312 1181.69 874.739 1183.91 875.592C1186.13 876.403 1188.05 877.576 1189.67 879.112C1191.33 880.648 1192.61 882.461 1193.51 884.552C1194.41 886.643 1194.81 888.947 1194.73 891.464L1194.66 894.344H1164.01L1162.53 888.392H1186.34L1185.25 889.672V888.392C1185.13 887.325 1184.66 886.365 1183.85 885.512C1183.08 884.659 1182.08 883.997 1180.84 883.528C1179.6 883.016 1178.24 882.76 1176.74 882.76C1174.82 882.76 1173.12 883.08 1171.62 883.72C1170.13 884.317 1168.96 885.256 1168.1 886.536C1167.29 887.816 1166.89 889.437 1166.89 891.4C1166.89 893.277 1167.38 894.92 1168.36 896.328C1169.38 897.736 1170.81 898.845 1172.65 899.656C1174.52 900.467 1176.72 900.872 1179.24 900.872C1181.41 900.872 1183.23 900.616 1184.68 900.104C1186.17 899.549 1187.52 898.867 1188.71 898.056L1193.32 904.712C1191.91 905.779 1190.35 906.696 1188.65 907.464C1186.98 908.189 1185.23 908.723 1183.4 909.064C1181.61 909.448 1179.77 909.64 1177.89 909.64ZM1231.57 909L1222.16 896.776L1219.54 893.32L1204.63 875.016H1217.56L1226 886.216L1228.82 889.928L1244.37 909H1231.57ZM1203.8 909L1219.03 889.8L1225.24 896.136L1216.53 909H1203.8ZM1228.76 894.216L1222.74 887.816L1231.32 875.016H1243.99L1228.76 894.216ZM1260.39 909V865.672H1270.63V909H1260.39ZM1252.84 883.976V875.016H1279.27V883.976H1252.84Z" fill="white"/>
</g>
<path id="Arrow 1" d="M1094 913.5C1089.31 913.5 1085.5 917.306 1085.5 922C1085.5 926.694 1089.31 930.5 1094 930.5V922V913.5ZM1371 922L1286 872.925V971.075L1371 922ZM1094 922V930.5H1294.5V922V913.5H1094V922Z" fill="#EF1044"/>
</g>
<g id="Group 3">
<g id="Vector" filter="url(#filter0_d_162_709)">
<path d="M429.406 356.339C444.745 289.113 541.392 289.113 556.732 356.339L581.644 465.519C590.877 505.98 559.838 544.475 517.981 544.475H468.156C426.299 544.475 395.261 505.98 404.493 465.519L429.406 356.339Z" fill="#C63B3B"/>
<path d="M562.069 209.484C562.069 247.762 530.759 278.793 492.136 278.793C453.513 278.793 422.203 247.762 422.203 209.484C422.203 171.206 453.513 140.176 492.136 140.176C530.759 140.176 562.069 171.206 562.069 209.484Z" fill="#C63B3B"/>
<path d="M506.123 510.745C506.123 491.861 521.569 476.553 540.623 476.553C559.677 476.553 575.123 491.861 575.123 510.745V590.219C575.123 609.103 559.677 624.411 540.623 624.411C521.569 624.411 506.123 609.103 506.123 590.219V510.745Z" fill="#C63B3B"/>
<path d="M533.106 378.285C523.353 362.062 528.717 341.076 545.085 331.41C561.454 321.745 582.63 327.06 592.382 343.283L633.427 411.557C643.18 427.78 637.816 448.766 621.447 458.432C605.079 468.097 583.903 462.782 574.15 446.559L533.106 378.285Z" fill="#C63B3B"/>
<path d="M391.899 343.52C401.426 327.166 422.526 321.563 439.027 331.005C455.528 340.447 461.182 361.359 451.655 377.713L411.56 446.539C402.033 462.893 380.934 468.496 364.432 459.054C347.931 449.612 342.277 428.701 351.804 412.347L391.899 343.52Z" fill="#C63B3B"/>
<path d="M409.149 510.745C409.149 491.861 424.596 476.553 443.649 476.553C462.703 476.553 478.15 491.861 478.15 510.745V590.219C478.15 609.103 462.703 624.411 443.649 624.411C424.596 624.411 409.149 609.103 409.149 590.219V510.745Z" fill="#C63B3B"/>
</g>
<g id="Vector_2" filter="url(#filter1_d_162_709)">
<path d="M92.1703 356.339C107.51 289.113 204.157 289.113 219.496 356.339L244.409 465.519C253.641 505.98 222.602 544.475 180.746 544.475H130.921C89.0639 544.475 58.0252 505.98 67.2577 465.519L92.1703 356.339Z" fill="#C63B3B"/>
<path d="M224.834 209.484C224.834 247.762 193.524 278.793 154.901 278.793C116.278 278.793 84.968 247.762 84.968 209.484C84.968 171.206 116.278 140.176 154.901 140.176C193.524 140.176 224.834 171.206 224.834 209.484Z" fill="#C63B3B"/>
<path d="M168.887 510.745C168.887 491.861 184.334 476.553 203.388 476.553C222.441 476.553 237.888 491.861 237.888 510.745V590.219C237.888 609.103 222.441 624.411 203.388 624.411C184.334 624.411 168.887 609.103 168.887 590.219V510.745Z" fill="#C63B3B"/>
<path d="M195.87 378.285C186.118 362.062 191.481 341.076 207.85 331.41C224.219 321.745 245.394 327.06 255.147 343.283L296.192 411.557C305.944 427.78 300.581 448.766 284.212 458.432C267.843 468.097 246.668 462.782 236.915 446.559L195.87 378.285Z" fill="#C63B3B"/>
<path d="M54.6638 343.52C64.1908 327.166 85.2908 321.563 101.792 331.005C118.293 340.447 123.947 361.359 114.42 377.713L74.3251 446.539C64.7981 462.893 43.6982 468.496 27.197 459.054C10.6958 449.612 5.04211 428.701 14.5691 412.347L54.6638 343.52Z" fill="#C63B3B"/>
<path d="M71.9139 510.745C71.9139 491.861 87.3602 476.553 106.414 476.553C125.468 476.553 140.914 491.861 140.914 510.745V590.219C140.914 609.103 125.468 624.411 106.414 624.411C87.3602 624.411 71.9139 609.103 71.9139 590.219V510.745Z" fill="#C63B3B"/>
</g>
<g id="Vector_3" filter="url(#filter2_d_162_709)">
<path d="M768.709 356.339C783.897 289.113 879.587 289.113 894.774 356.339L919.44 465.519C928.581 505.98 897.85 544.475 856.408 544.475H807.076C765.633 544.475 734.902 505.98 744.043 465.519L768.709 356.339Z" fill="#C63B3B"/>
<path d="M900.059 209.484C900.059 247.762 869.059 278.793 830.818 278.793C792.578 278.793 761.578 247.762 761.578 209.484C761.578 171.206 792.578 140.176 830.818 140.176C869.059 140.176 900.059 171.206 900.059 209.484Z" fill="#C63B3B"/>
<path d="M844.667 510.745C844.667 491.861 859.96 476.553 878.825 476.553C897.69 476.553 912.984 491.861 912.984 510.745V590.219C912.984 609.103 897.69 624.411 878.825 624.411C859.96 624.411 844.667 609.103 844.667 590.219V510.745Z" fill="#C63B3B"/>
<path d="M871.382 378.285C861.726 362.062 867.037 341.076 883.243 331.41C899.45 321.745 920.416 327.06 930.072 343.283L970.71 411.557C980.366 427.78 975.056 448.766 958.849 458.432C942.643 468.097 921.677 462.782 912.021 446.559L871.382 378.285Z" fill="#C63B3B"/>
<path d="M731.574 343.52C741.007 327.166 761.898 321.563 778.235 331.005C794.573 340.447 800.171 361.359 790.738 377.713L751.041 446.539C741.608 462.893 720.717 468.496 704.379 459.054C688.041 449.612 682.444 428.701 691.876 412.347L731.574 343.52Z" fill="#C63B3B"/>
<path d="M748.653 510.745C748.653 491.861 763.947 476.553 782.812 476.553C801.677 476.553 816.97 491.861 816.97 510.745V590.219C816.97 609.103 801.677 624.411 782.812 624.411C763.947 624.411 748.653 609.103 748.653 590.219V510.745Z" fill="#C63B3B"/>
</g>
<g id="Vector_4" filter="url(#filter3_d_162_709)">
<path d="M258.776 461.235C276.697 382.004 389.611 382.004 407.533 461.235L436.638 589.911C447.425 637.597 411.162 682.967 362.26 682.967H304.048C255.146 682.967 218.883 637.597 229.67 589.911L258.776 461.235Z" fill="#E06A6A"/>
<path d="M413.768 288.156C413.768 333.269 377.188 369.841 332.065 369.841C286.941 369.841 250.361 333.269 250.361 288.156C250.361 243.042 286.941 206.471 332.065 206.471C377.188 206.471 413.768 243.042 413.768 288.156Z" fill="#E06A6A"/>
<path d="M348.405 643.213C348.405 620.957 366.452 602.915 388.713 602.915C410.974 602.915 429.02 620.957 429.02 643.213V736.879C429.02 759.135 410.974 777.177 388.713 777.177C366.452 777.177 348.405 759.135 348.405 736.879V643.213Z" fill="#E06A6A"/>
<path d="M379.93 487.099C368.536 467.98 374.802 443.246 393.926 431.854C413.05 420.462 437.79 426.727 449.184 445.847L497.137 526.313C508.531 545.432 502.265 570.167 483.141 581.558C464.017 592.95 439.277 586.685 427.883 567.565L379.93 487.099Z" fill="#E06A6A"/>
<path d="M214.956 446.127C226.087 426.853 250.738 420.249 270.017 431.377C289.295 442.505 295.901 467.151 284.77 486.425L237.927 567.541C226.796 586.816 202.145 593.419 182.866 582.291C163.588 571.164 156.982 546.518 168.113 527.243L214.956 446.127Z" fill="#E06A6A"/>
<path d="M235.11 643.213C235.11 620.957 253.156 602.915 275.417 602.915C297.678 602.915 315.724 620.957 315.724 643.213V736.879C315.724 759.135 297.678 777.177 275.417 777.177C253.156 777.177 235.11 759.135 235.11 736.879V643.213Z" fill="#E06A6A"/>
</g>
<g id="Vector_5" filter="url(#filter4_d_162_709)">
<path d="M-138.989 461.235C-121.068 382.004 -8.15367 382.004 9.76787 461.235L38.8737 589.911C49.6601 637.597 13.397 682.967 -35.5049 682.967H-93.7165C-142.618 682.967 -178.881 637.597 -168.095 589.911L-138.989 461.235Z" fill="#E06A6A"/>
<path d="M16.0036 288.156C16.0036 333.269 -20.5764 369.841 -65.7 369.841C-110.824 369.841 -147.404 333.269 -147.404 288.156C-147.404 243.042 -110.824 206.471 -65.7 206.471C-20.5764 206.471 16.0036 243.042 16.0036 288.156Z" fill="#E06A6A"/>
<path d="M-49.3593 643.213C-49.3593 620.957 -31.3132 602.915 -9.0522 602.915C13.2088 602.915 31.2549 620.957 31.2549 643.213V736.879C31.2549 759.135 13.2088 777.177 -9.0522 777.177C-31.3132 777.177 -49.3593 759.135 -49.3593 736.879V643.213Z" fill="#E06A6A"/>
<path d="M-17.8345 487.099C-29.2287 467.98 -22.9625 443.246 -3.83855 431.854C15.2854 420.462 40.0252 426.727 51.4194 445.847L99.3724 526.313C110.767 545.432 104.5 570.167 85.3764 581.558C66.2525 592.95 41.5127 586.685 30.1185 567.565L-17.8345 487.099Z" fill="#E06A6A"/>
<path d="M-182.809 446.127C-171.678 426.853 -147.027 420.249 -127.748 431.377C-108.469 442.505 -101.864 467.151 -112.995 486.425L-159.838 567.541C-170.969 586.816 -195.62 593.419 -214.899 582.291C-234.177 571.164 -240.782 546.518 -229.652 527.243L-182.809 446.127Z" fill="#E06A6A"/>
<path d="M-162.655 643.213C-162.655 620.957 -144.609 602.915 -122.348 602.915C-100.087 602.915 -82.0408 620.957 -82.0408 643.213V736.879C-82.0408 759.135 -100.087 777.177 -122.348 777.177C-144.609 777.177 -162.655 759.135 -162.655 736.879V643.213Z" fill="#E06A6A"/>
</g>
<g id="Vector_6" filter="url(#filter5_d_162_709)">
<path d="M28.1873 593.823C46.1089 514.592 159.023 514.592 176.944 593.823L206.05 722.499C216.837 770.185 180.574 815.554 131.672 815.554H73.46C24.5581 815.554 -11.7049 770.185 -0.918495 722.499L28.1873 593.823Z" fill="#FB8D8D"/>
<path d="M183.18 420.744C183.18 465.857 146.6 502.429 101.476 502.429C56.3528 502.429 19.7729 465.857 19.7729 420.744C19.7729 375.63 56.3528 339.059 101.476 339.059C146.6 339.059 183.18 375.63 183.18 420.744Z" fill="#FB8D8D"/>
<path d="M117.817 775.801C117.817 753.545 135.863 735.503 158.124 735.503C180.385 735.503 198.431 753.545 198.431 775.801V869.467C198.431 891.722 180.385 909.764 158.124 909.764C135.863 909.764 117.817 891.722 117.817 869.467V775.801Z" fill="#FB8D8D"/>
<path d="M149.342 619.687C137.948 600.568 144.214 575.833 163.338 564.442C182.462 553.05 207.202 559.315 218.596 578.435L266.549 658.901C277.943 678.02 271.677 702.754 252.553 714.146C233.429 725.538 208.689 719.273 197.295 700.153L149.342 619.687Z" fill="#FB8D8D"/>
<path d="M-15.6321 578.715C-4.50155 559.44 20.1499 552.837 39.4285 563.965C58.7071 575.093 65.3124 599.738 54.1819 619.013L7.33852 700.129C-3.79199 719.404 -28.4434 726.007 -47.722 714.879C-67.0006 703.751 -73.606 679.106 -62.4755 659.831L-15.6321 578.715Z" fill="#FB8D8D"/>
<path d="M4.52151 775.801C4.52151 753.545 22.5676 735.503 44.8286 735.503C67.0896 735.503 85.1357 753.545 85.1357 775.801V869.467C85.1357 891.722 67.0896 909.764 44.8286 909.764C22.5676 909.764 4.52151 891.722 4.52151 869.467V775.801Z" fill="#FB8D8D"/>
</g>
<g id="Vector_7" filter="url(#filter6_d_162_709)">
<path d="M656.54 461.235C674.462 382.004 787.376 382.004 805.297 461.235L834.403 589.911C845.19 637.597 808.926 682.967 760.025 682.967H701.813C652.911 682.967 616.648 637.597 627.434 589.911L656.54 461.235Z" fill="#E06A6A"/>
<path d="M811.533 288.156C811.533 333.269 774.953 369.841 729.829 369.841C684.706 369.841 648.126 333.269 648.126 288.156C648.126 243.042 684.706 206.471 729.829 206.471C774.953 206.471 811.533 243.042 811.533 288.156Z" fill="#E06A6A"/>
<path d="M746.17 643.213C746.17 620.957 764.216 602.915 786.477 602.915C808.738 602.915 826.784 620.957 826.784 643.213V736.879C826.784 759.135 808.738 777.177 786.477 777.177C764.216 777.177 746.17 759.135 746.17 736.879V643.213Z" fill="#E06A6A"/>
<path d="M777.695 487.099C766.301 467.98 772.567 443.246 791.691 431.854C810.815 420.462 835.555 426.727 846.949 445.847L894.902 526.313C906.296 545.432 900.03 570.167 880.906 581.558C861.782 592.95 837.042 586.685 825.648 567.565L777.695 487.099Z" fill="#E06A6A"/>
<path d="M612.721 446.127C623.851 426.853 648.503 420.249 667.781 431.377C687.06 442.505 693.665 467.151 682.535 486.425L635.691 567.541C624.561 586.816 599.909 593.419 580.631 582.291C561.352 571.164 554.747 546.518 565.877 527.243L612.721 446.127Z" fill="#E06A6A"/>
<path d="M632.874 643.213C632.874 620.957 650.921 602.915 673.182 602.915C695.443 602.915 713.489 620.957 713.489 643.213V736.879C713.489 759.135 695.443 777.177 673.182 777.177C650.921 777.177 632.874 759.135 632.874 736.879V643.213Z" fill="#E06A6A"/>
</g>
<g id="Vector_8" filter="url(#filter7_d_162_709)">
<path d="M823.717 593.823C841.638 514.592 954.552 514.592 972.474 593.823L1001.58 722.499C1012.37 770.185 976.103 815.554 927.201 815.554H868.989C820.088 815.554 783.824 770.185 794.611 722.499L823.717 593.823Z" fill="#FB8D8D"/>
<path d="M978.71 420.744C978.71 465.857 942.13 502.429 897.006 502.429C851.882 502.429 815.302 465.857 815.302 420.744C815.302 375.63 851.882 339.059 897.006 339.059C942.13 339.059 978.71 375.63 978.71 420.744Z" fill="#FB8D8D"/>
<path d="M913.347 775.801C913.347 753.545 931.393 735.503 953.654 735.503C975.915 735.503 993.961 753.545 993.961 775.801V869.467C993.961 891.722 975.915 909.764 953.654 909.764C931.393 909.764 913.347 891.722 913.347 869.467V775.801Z" fill="#FB8D8D"/>
<path d="M944.871 619.687C933.477 600.568 939.743 575.833 958.867 564.442C977.991 553.05 1002.73 559.315 1014.13 578.435L1062.08 658.901C1073.47 678.02 1067.21 702.754 1048.08 714.146C1028.96 725.538 1004.22 719.273 992.824 700.153L944.871 619.687Z" fill="#FB8D8D"/>
<path d="M779.897 578.715C791.028 559.44 815.679 552.837 834.958 563.965C854.237 575.093 860.842 599.738 849.711 619.013L802.868 700.129C791.737 719.404 767.086 726.007 747.807 714.879C728.529 703.751 721.923 679.106 733.054 659.831L779.897 578.715Z" fill="#FB8D8D"/>
<path d="M800.051 775.801C800.051 753.545 818.097 735.503 840.358 735.503C862.619 735.503 880.665 753.545 880.665 775.801V869.467C880.665 891.722 862.619 909.764 840.358 909.764C818.097 909.764 800.051 891.722 800.051 869.467V775.801Z" fill="#FB8D8D"/>
</g>
<g id="Vector_9" filter="url(#filter8_d_162_709)">
<path d="M425.952 593.823C443.874 514.592 556.787 514.592 574.709 593.823L603.815 722.499C614.601 770.185 578.338 815.554 529.436 815.554H471.225C422.323 815.554 386.06 770.185 396.846 722.499L425.952 593.823Z" fill="#FB8D8D"/>
<path d="M580.945 420.744C580.945 465.857 544.365 502.429 499.241 502.429C454.117 502.429 417.537 465.857 417.537 420.744C417.537 375.63 454.117 339.059 499.241 339.059C544.365 339.059 580.945 375.63 580.945 420.744Z" fill="#FB8D8D"/>
<path d="M515.582 775.801C515.582 753.545 533.628 735.503 555.889 735.503C578.15 735.503 596.196 753.545 596.196 775.801V869.467C596.196 891.722 578.15 909.764 555.889 909.764C533.628 909.764 515.582 891.722 515.582 869.467V775.801Z" fill="#FB8D8D"/>
<path d="M547.107 619.687C535.712 600.568 541.979 575.833 561.103 564.442C580.227 553.05 604.966 559.315 616.361 578.435L664.314 658.901C675.708 678.02 669.442 702.754 650.318 714.146C631.194 725.538 606.454 719.273 595.06 700.153L547.107 619.687Z" fill="#FB8D8D"/>
<path d="M382.133 578.715C393.263 559.44 417.915 552.837 437.193 563.965C456.472 575.093 463.077 599.738 451.947 619.013L405.103 700.129C393.973 719.404 369.321 726.007 350.043 714.879C330.764 703.751 324.159 679.106 335.289 659.831L382.133 578.715Z" fill="#FB8D8D"/>
<path d="M402.286 775.801C402.286 753.545 420.332 735.503 442.593 735.503C464.854 735.503 482.9 753.545 482.9 775.801V869.467C482.9 891.722 464.854 909.764 442.593 909.764C420.332 909.764 402.286 891.722 402.286 869.467V775.801Z" fill="#FB8D8D"/>
</g>
</g>
<g id="lighter">
<circle id="Ellipse 2" cx="732.434" cy="655.583" r="13.8128" transform="rotate(11.4942 732.434 655.583)" fill="#73839A"/>
<path id="Vector 11" d="M679.096 669.706L631.326 630.464L643.863 623.445L587.437 555.998L618.688 568.285L590.803 500.85C594.004 505.082 600.48 512.338 600.775 507.513C601.069 502.687 596.143 470.039 593.643 454.318L619.502 498.277L623.895 482.977L650.753 510.563L647.161 484.397L680.111 553.871L681.216 535.775L700.242 620.832L709.049 604.071L715.056 661.522L679.096 669.706Z" fill="#FD9D49"/>
<rect id="Rectangle 6" x="661.116" y="658.387" width="59.9818" height="45.62" rx="7" transform="rotate(-22.9929 661.116 658.387)" fill="#3E5068"/>
<rect id="Rectangle 4" x="759.647" y="648.479" width="103.319" height="125.246" rx="8" transform="rotate(66.5646 759.647 648.479)" fill="#485C77"/>
<rect id="Rectangle 5" x="649.614" y="700.41" width="46.7196" height="119.464" rx="4" transform="rotate(84.4974 649.614 700.41)" fill="#485C77"/>
<circle id="Ellipse 1" cx="650.998" cy="700.662" r="7.76969" transform="rotate(36.5646 650.998 700.662)" fill="#405066"/>
</g>
</g>
<defs>
<filter id="filter0_d_162_709" x="343.177" y="140.176" width="299.118" height="492.234" filterUnits="userSpaceOnUse" color-interpolation-filters="sRGB">
<feFlood flood-opacity="0" result="BackgroundImageFix"/>
<feColorMatrix in="SourceAlpha" type="matrix" values="0 0 0 0 0 0 0 0 0 0 0 0 0 0 0 0 0 0 127 0" result="hardAlpha"/>
<feOffset dy="4"/>
<feGaussianBlur stdDeviation="2"/>
<feComposite in2="hardAlpha" operator="out"/>
<feColorMatrix type="matrix" values="0 0 0 0 0 0 0 0 0 0 0 0 0 0 0 0 0 0 0.25 0"/>
<feBlend mode="normal" in2="BackgroundImageFix" result="effect1_dropShadow_162_709"/>
<feBlend mode="normal" in="SourceGraphic" in2="effect1_dropShadow_162_709" result="shape"/>
</filter>
<filter id="filter1_d_162_709" x="5.94116" y="140.176" width="299.118" height="492.234" filterUnits="userSpaceOnUse" color-interpolation-filters="sRGB">
<feFlood flood-opacity="0" result="BackgroundImageFix"/>
<feColorMatrix in="SourceAlpha" type="matrix" values="0 0 0 0 0 0 0 0 0 0 0 0 0 0 0 0 0 0 127 0" result="hardAlpha"/>
<feOffset dy="4"/>
<feGaussianBlur stdDeviation="2"/>
<feComposite in2="hardAlpha" operator="out"/>
<feColorMatrix type="matrix" values="0 0 0 0 0 0 0 0 0 0 0 0 0 0 0 0 0 0 0.25 0"/>
<feBlend mode="normal" in2="BackgroundImageFix" result="effect1_dropShadow_162_709"/>
<feBlend mode="normal" in="SourceGraphic" in2="effect1_dropShadow_162_709" result="shape"/>
</filter>
<filter id="filter2_d_162_709" x="683.294" y="140.176" width="296.235" height="492.234" filterUnits="userSpaceOnUse" color-interpolation-filters="sRGB">
<feFlood flood-opacity="0" result="BackgroundImageFix"/>
<feColorMatrix in="SourceAlpha" type="matrix" values="0 0 0 0 0 0 0 0 0 0 0 0 0 0 0 0 0 0 127 0" result="hardAlpha"/>
<feOffset dy="4"/>
<feGaussianBlur stdDeviation="2"/>
<feComposite in2="hardAlpha" operator="out"/>
<feColorMatrix type="matrix" values="0 0 0 0 0 0 0 0 0 0 0 0 0 0 0 0 0 0 0.25 0"/>
<feBlend mode="normal" in2="BackgroundImageFix" result="effect1_dropShadow_162_709"/>
<feBlend mode="normal" in="SourceGraphic" in2="effect1_dropShadow_162_709" result="shape"/>
</filter>
<filter id="filter3_d_162_709" x="158.706" y="206.471" width="348.118" height="578.705" filterUnits="userSpaceOnUse" color-interpolation-filters="sRGB">
<feFlood flood-opacity="0" result="BackgroundImageFix"/>
<feColorMatrix in="SourceAlpha" type="matrix" values="0 0 0 0 0 0 0 0 0 0 0 0 0 0 0 0 0 0 127 0" result="hardAlpha"/>
<feOffset dy="4"/>
<feGaussianBlur stdDeviation="2"/>
<feComposite in2="hardAlpha" operator="out"/>
<feColorMatrix type="matrix" values="0 0 0 0 0 0 0 0 0 0 0 0 0 0 0 0 0 0 0.25 0"/>
<feBlend mode="normal" in2="BackgroundImageFix" result="effect1_dropShadow_162_709"/>
<feBlend mode="normal" in="SourceGraphic" in2="effect1_dropShadow_162_709" result="shape"/>
</filter>
<filter id="filter4_d_162_709" x="-239.059" y="206.471" width="348.118" height="578.705" filterUnits="userSpaceOnUse" color-interpolation-filters="sRGB">
<feFlood flood-opacity="0" result="BackgroundImageFix"/>
<feColorMatrix in="SourceAlpha" type="matrix" values="0 0 0 0 0 0 0 0 0 0 0 0 0 0 0 0 0 0 127 0" result="hardAlpha"/>
<feOffset dy="4"/>
<feGaussianBlur stdDeviation="2"/>
<feComposite in2="hardAlpha" operator="out"/>
<feColorMatrix type="matrix" values="0 0 0 0 0 0 0 0 0 0 0 0 0 0 0 0 0 0 0.25 0"/>
<feBlend mode="normal" in2="BackgroundImageFix" result="effect1_dropShadow_162_709"/>
<feBlend mode="normal" in="SourceGraphic" in2="effect1_dropShadow_162_709" result="shape"/>
</filter>
<filter id="filter5_d_162_709" x="-71.8823" y="339.059" width="348.118" height="578.705" filterUnits="userSpaceOnUse" color-interpolation-filters="sRGB">
<feFlood flood-opacity="0" result="BackgroundImageFix"/>
<feColorMatrix in="SourceAlpha" type="matrix" values="0 0 0 0 0 0 0 0 0 0 0 0 0 0 0 0 0 0 127 0" result="hardAlpha"/>
<feOffset dy="4"/>
<feGaussianBlur stdDeviation="2"/>
<feComposite in2="hardAlpha" operator="out"/>
<feColorMatrix type="matrix" values="0 0 0 0 0 0 0 0 0 0 0 0 0 0 0 0 0 0 0.25 0"/>
<feBlend mode="normal" in2="BackgroundImageFix" result="effect1_dropShadow_162_709"/>
<feBlend mode="normal" in="SourceGraphic" in2="effect1_dropShadow_162_709" result="shape"/>
</filter>
<filter id="filter6_d_162_709" x="556.471" y="206.471" width="348.118" height="578.705" filterUnits="userSpaceOnUse" color-interpolation-filters="sRGB">
<feFlood flood-opacity="0" result="BackgroundImageFix"/>
<feColorMatrix in="SourceAlpha" type="matrix" values="0 0 0 0 0 0 0 0 0 0 0 0 0 0 0 0 0 0 127 0" result="hardAlpha"/>
<feOffset dy="4"/>
<feGaussianBlur stdDeviation="2"/>
<feComposite in2="hardAlpha" operator="out"/>
<feColorMatrix type="matrix" values="0 0 0 0 0 0 0 0 0 0 0 0 0 0 0 0 0 0 0.25 0"/>
<feBlend mode="normal" in2="BackgroundImageFix" result="effect1_dropShadow_162_709"/>
<feBlend mode="normal" in="SourceGraphic" in2="effect1_dropShadow_162_709" result="shape"/>
</filter>
<filter id="filter7_d_162_709" x="723.647" y="339.059" width="348.118" height="578.705" filterUnits="userSpaceOnUse" color-interpolation-filters="sRGB">
<feFlood flood-opacity="0" result="BackgroundImageFix"/>
<feColorMatrix in="SourceAlpha" type="matrix" values="0 0 0 0 0 0 0 0 0 0 0 0 0 0 0 0 0 0 127 0" result="hardAlpha"/>
<feOffset dy="4"/>
<feGaussianBlur stdDeviation="2"/>
<feComposite in2="hardAlpha" operator="out"/>
<feColorMatrix type="matrix" values="0 0 0 0 0 0 0 0 0 0 0 0 0 0 0 0 0 0 0.25 0"/>
<feBlend mode="normal" in2="BackgroundImageFix" result="effect1_dropShadow_162_709"/>
<feBlend mode="normal" in="SourceGraphic" in2="effect1_dropShadow_162_709" result="shape"/>
</filter>
<filter id="filter8_d_162_709" x="325.882" y="339.059" width="348.118" height="578.705" filterUnits="userSpaceOnUse" color-interpolation-filters="sRGB">
<feFlood flood-opacity="0" result="BackgroundImageFix"/>
<feColorMatrix in="SourceAlpha" type="matrix" values="0 0 0 0 0 0 0 0 0 0 0 0 0 0 0 0 0 0 127 0" result="hardAlpha"/>
<feOffset dy="4"/>
<feGaussianBlur stdDeviation="2"/>
<feComposite in2="hardAlpha" operator="out"/>
<feColorMatrix type="matrix" values="0 0 0 0 0 0 0 0 0 0 0 0 0 0 0 0 0 0 0.25 0"/>
<feBlend mode="normal" in2="BackgroundImageFix" result="effect1_dropShadow_162_709"/>
<feBlend mode="normal" in="SourceGraphic" in2="effect1_dropShadow_162_709" result="shape"/>
</filter>
<clipPath id="clip0_162_709">
<rect width="1440" height="1024" fill="white"/>
</clipPath>
</defs>
</svg>
