<svg width="1440" height="1024" viewBox="0 0 1440 1024" fill="none" xmlns="http://www.w3.org/2000/svg">
<g id="recognize2-yes" clip-path="url(#clip0_164_254)">
<rect width="1440" height="1024" fill="#333148"/>
<path id="part 4" d="M47.096 132.12V60.024H61.688L62.264 71.448L59.384 70.584C59.832 68.536 61.048 66.648 63.032 64.92C65.016 63.192 67.512 61.784 70.52 60.696C73.592 59.608 76.856 59.064 80.312 59.064C85.304 59.064 89.688 60.216 93.464 62.52C97.24 64.76 100.184 67.864 102.296 71.832C104.472 75.736 105.56 80.28 105.56 85.464C105.56 90.584 104.472 95.128 102.296 99.096C100.184 103.064 97.208 106.2 93.368 108.504C89.528 110.744 85.112 111.864 80.12 111.864C76.664 111.864 73.432 111.288 70.424 110.136C67.416 108.984 64.888 107.48 62.84 105.624C60.856 103.768 59.576 101.816 59 99.768L62.552 98.424V132.12H47.096ZM76.376 98.904C79.256 98.904 81.752 98.36 83.864 97.272C85.976 96.12 87.608 94.552 88.76 92.568C89.976 90.584 90.584 88.216 90.584 85.464C90.584 82.776 89.976 80.44 88.76 78.456C87.608 76.408 85.976 74.84 83.864 73.752C81.816 72.6 79.32 72.024 76.376 72.024C73.496 72.024 70.968 72.568 68.792 73.656C66.68 74.744 65.016 76.312 63.8 78.36C62.648 80.408 62.072 82.776 62.072 85.464C62.072 88.216 62.648 90.584 63.8 92.568C65.016 94.552 66.68 96.12 68.792 97.272C70.968 98.36 73.496 98.904 76.376 98.904ZM144.211 111.864C139.155 111.864 134.739 110.744 130.963 108.504C127.187 106.264 124.211 103.16 122.035 99.192C119.923 95.16 118.867 90.584 118.867 85.464C118.867 80.28 119.955 75.704 122.131 71.736C124.307 67.768 127.315 64.664 131.155 62.424C135.059 60.12 139.539 58.968 144.595 58.968C147.475 58.968 150.131 59.352 152.563 60.12C154.995 60.824 157.107 61.816 158.899 63.096C160.755 64.376 162.259 65.784 163.411 67.32C164.627 68.856 165.427 70.456 165.811 72.12H162.451V60.024H177.619V111H162.163V97.944L165.427 98.424C165.043 100.088 164.243 101.72 163.027 103.32C161.811 104.92 160.243 106.36 158.323 107.64C156.403 108.92 154.227 109.944 151.795 110.712C149.427 111.48 146.899 111.864 144.211 111.864ZM148.339 98.904C151.219 98.904 153.715 98.36 155.827 97.272C158.003 96.184 159.667 94.648 160.819 92.664C162.035 90.616 162.643 88.216 162.643 85.464C162.643 82.776 162.035 80.44 160.819 78.456C159.667 76.408 158.003 74.808 155.827 73.656C153.715 72.504 151.219 71.928 148.339 71.928C145.459 71.928 142.963 72.504 140.851 73.656C138.739 74.808 137.075 76.408 135.859 78.456C134.707 80.44 134.131 82.776 134.131 85.464C134.131 88.216 134.707 90.616 135.859 92.664C137.075 94.648 138.739 96.184 140.851 97.272C142.963 98.36 145.459 98.904 148.339 98.904ZM201.315 111V60.024H215.907L216.579 77.592L212.931 75.768C213.763 72.632 215.203 69.816 217.251 67.32C219.363 64.76 221.763 62.744 224.451 61.272C227.203 59.736 230.115 58.968 233.187 58.968C234.851 58.968 236.419 59.128 237.891 59.448C239.427 59.768 240.739 60.184 241.827 60.696L237.603 77.496C236.643 76.792 235.331 76.248 233.667 75.864C232.067 75.48 230.435 75.288 228.771 75.288C226.915 75.288 225.219 75.608 223.683 76.248C222.211 76.824 220.963 77.656 219.939 78.744C218.915 79.768 218.115 80.952 217.539 82.296C217.027 83.64 216.771 85.08 216.771 86.616V111H201.315ZM265.932 111V46.008H281.292V111H265.932ZM254.604 73.464V60.024H294.252V73.464H254.604ZM377.032 111V53.304H387.112L357.544 88.248L355.624 83.736H405.256V96.984H349.48L343.048 84.6L378.856 43.224H392.776V111H377.032Z" fill="white"/>
<rect id="Rectangle 7" y="462" width="1567" height="626" fill="#211F2F"/>
<g id="Group 34">
<line id="Line 1" x1="452.501" y1="458.705" x2="452.501" y2="112.705" stroke="#485C77" stroke-width="25" stroke-linecap="round"/>
<rect id="Rectangle 8" x="440.001" y="100.207" width="172" height="96" rx="14" fill="#3B5EC6"/>
<rect id="Rectangle 9" x="510.001" y="100.207" width="32" height="96" fill="white"/>
<rect id="Rectangle 11" x="609" y="97.207" width="21.7609" height="196.456" rx="10.8804" transform="rotate(62.972 609 97.207)" fill="white"/>
<rect id="Rectangle 12" x="616.953" y="191.229" width="21.7609" height="196.456" rx="10.8804" transform="rotate(120 616.953 191.229)" fill="white"/>
<rect id="Rectangle 10" x="440.001" y="164.207" width="27" height="172" transform="rotate(-90 440.001 164.207)" fill="white"/>
<rect id="Rectangle 13" x="608.061" y="102.564" width="13.0698" height="189.913" rx="6.53491" transform="rotate(62.972 608.061 102.564)" fill="#EF1044"/>
<rect id="Rectangle 14" x="612.058" y="192.998" width="13.0698" height="189.913" rx="6.53491" transform="rotate(120 612.058 192.998)" fill="#EF1044"/>
<rect id="Rectangle 15" x="440.001" y="144.207" width="172" height="14" fill="#EF1044"/>
<rect id="Rectangle 16" x="534.001" y="100.207" width="96" height="16" transform="rotate(90 534.001 100.207)" fill="#EF1044"/>
</g>
<g id="Group 33">
<path id="Polygon 1" d="M769.372 285.85C785.607 268.261 813.393 268.261 829.628 285.85L1058.58 533.9C1082.82 560.164 1064.2 602.709 1028.46 602.709H570.545C534.803 602.709 516.175 560.164 540.417 533.9L769.372 285.85Z" fill="#485C77"/>
<rect id="Rectangle 17" x="748" y="447.209" width="104" height="198" rx="28" fill="#201F2F"/>
</g>
<g id="next">
<g id="Next">
<path id="Next_2" d="M1100.81 909V864.2H1110.79L1137.86 896.2L1136.01 895.88C1135.75 894.387 1135.56 892.957 1135.43 891.592C1135.3 890.227 1135.18 888.904 1135.05 887.624C1134.96 886.344 1134.88 885.064 1134.79 883.784C1134.75 882.504 1134.73 881.16 1134.73 879.752C1134.73 878.344 1134.73 876.851 1134.73 875.272V864.2H1145.29V909H1135.18L1107.08 875.976L1110.09 876.424C1110.22 877.917 1110.34 879.261 1110.47 880.456C1110.64 881.651 1110.77 882.781 1110.86 883.848C1110.98 884.872 1111.07 885.917 1111.11 886.984C1111.2 888.008 1111.26 889.096 1111.3 890.248C1111.35 891.4 1111.37 892.659 1111.37 894.024V909H1100.81ZM1177.89 909.64C1173.76 909.64 1170.13 908.893 1167.01 907.4C1163.94 905.864 1161.55 903.795 1159.85 901.192C1158.14 898.547 1157.29 895.539 1157.29 892.168C1157.29 889.48 1157.78 887.048 1158.76 884.872C1159.74 882.696 1161.11 880.819 1162.85 879.24C1164.6 877.661 1166.65 876.445 1169 875.592C1171.35 874.739 1173.88 874.312 1176.61 874.312C1179.26 874.312 1181.69 874.739 1183.91 875.592C1186.13 876.403 1188.05 877.576 1189.67 879.112C1191.33 880.648 1192.61 882.461 1193.51 884.552C1194.41 886.643 1194.81 888.947 1194.73 891.464L1194.66 894.344H1164.01L1162.53 888.392H1186.34L1185.25 889.672V888.392C1185.13 887.325 1184.66 886.365 1183.85 885.512C1183.08 884.659 1182.08 883.997 1180.84 883.528C1179.6 883.016 1178.24 882.76 1176.74 882.76C1174.82 882.76 1173.12 883.08 1171.62 883.72C1170.13 884.317 1168.96 885.256 1168.1 886.536C1167.29 887.816 1166.89 889.437 1166.89 891.4C1166.89 893.277 1167.38 894.92 1168.36 896.328C1169.38 897.736 1170.81 898.845 1172.65 899.656C1174.52 900.467 1176.72 900.872 1179.24 900.872C1181.41 900.872 1183.23 900.616 1184.68 900.104C1186.17 899.549 1187.52 898.867 1188.71 898.056L1193.32 904.712C1191.91 905.779 1190.35 906.696 1188.65 907.464C1186.98 908.189 1185.23 908.723 1183.4 909.064C1181.61 909.448 1179.77 909.64 1177.89 909.64ZM1231.57 909L1222.16 896.776L1219.54 893.32L1204.63 875.016H1217.56L1226 886.216L1228.82 889.928L1244.37 909H1231.57ZM1203.8 909L1219.03 889.8L1225.24 896.136L1216.53 909H1203.8ZM1228.76 894.216L1222.74 887.816L1231.32 875.016H1243.99L1228.76 894.216ZM1260.39 909V865.672H1270.63V909H1260.39ZM1252.84 883.976V875.016H1279.27V883.976H1252.84Z" fill="white"/>
</g>
<path id="Arrow 1" d="M1094 913.5C1089.31 913.5 1085.5 917.306 1085.5 922C1085.5 926.694 1089.31 930.5 1094 930.5V922V913.5ZM1371 922L1286 872.925V971.075L1371 922ZM1094 922V930.5H1294.5V922V913.5H1094V922Z" fill="#EF1044"/>
</g>
<g id="Group 32">
<g id="Group 31">
<rect id="Rectangle 31" x="905" y="176.209" width="93" height="352" rx="36" fill="#485C77"/>
<rect id="Rectangle 32" x="794.855" y="159.467" width="264.672" height="73.942" rx="36.971" transform="rotate(-8.76431 794.855 159.467)" fill="#405066"/>
<path id="Polygon 8" d="M931.054 210.906C933.371 217.286 932.108 224.418 927.741 229.615L880.094 286.313C875.727 291.51 868.919 293.982 862.235 292.799L789.309 279.884C782.625 278.701 777.08 274.041 774.763 267.661L749.484 198.048C747.167 191.667 748.43 184.536 752.797 179.339L800.444 122.64C804.812 117.443 811.619 114.971 818.303 116.155L891.229 129.069C897.913 130.253 903.458 134.913 905.775 141.293L931.054 210.906Z" fill="#73839A"/>
<ellipse id="Ellipse 13" cx="840" cy="204.209" rx="64" ry="67" fill="#C63B3B"/>
<line id="Line 18" x1="760.047" y1="190.796" x2="786.587" y2="222.162" stroke="#201F2F" stroke-width="10" stroke-linecap="round"/>
<line id="Line 19" x1="814.706" y1="130.231" x2="792.022" y2="225.503" stroke="#201F2F" stroke-width="10" stroke-linecap="round"/>
<line id="Line 20" x1="893.123" y1="147.225" x2="793.016" y2="225.086" stroke="#201F2F" stroke-width="10" stroke-linecap="round"/>
<line id="Line 21" x1="916.383" y1="224.565" x2="791.356" y2="233.826" stroke="#201F2F" stroke-width="10" stroke-linecap="round"/>
<line id="Line 22" x1="865.051" y1="286.518" x2="791.309" y2="236.158" stroke="#201F2F" stroke-width="10" stroke-linecap="round"/>
<line id="Line 23" x1="781.485" y1="269.767" x2="784.558" y2="236.724" stroke="#201F2F" stroke-width="10" stroke-linecap="round"/>
</g>
<circle id="Ellipse 14" cx="785.5" cy="228.709" r="18.5" fill="#DC4B4B"/>
</g>
<g id="Group 3">
<g id="Vector" filter="url(#filter0_d_164_254)">
<path d="M213.33 635.388C219.548 607.899 258.722 607.899 264.94 635.388L275.038 680.03C278.78 696.575 266.199 712.315 249.233 712.315H229.037C212.071 712.315 199.49 696.575 203.232 680.03L213.33 635.388Z" fill="#8DBBFB"/>
<path d="M267.103 575.34C267.103 590.991 254.412 603.679 238.757 603.679C223.102 603.679 210.411 590.991 210.411 575.34C210.411 559.688 223.102 547 238.757 547C254.412 547 267.103 559.688 267.103 575.34Z" fill="#8DBBFB"/>
<path d="M244.426 698.523C244.426 690.801 250.687 684.542 258.41 684.542C266.134 684.542 272.395 690.801 272.395 698.523V731.019C272.395 738.741 266.134 745 258.41 745C250.687 745 244.426 738.741 244.426 731.019V698.523Z" fill="#8DBBFB"/>
<path d="M255.364 644.361C251.41 637.728 253.584 629.146 260.219 625.194C266.854 621.242 275.437 623.416 279.39 630.049L296.027 657.966C299.98 664.599 297.806 673.18 291.171 677.132C284.537 681.085 275.953 678.911 272 672.278L255.364 644.361Z" fill="#8DBBFB"/>
<path d="M198.128 630.146C201.989 623.459 210.542 621.168 217.23 625.029C223.919 628.889 226.21 637.44 222.349 644.127L206.097 672.269C202.235 678.956 193.683 681.248 186.994 677.387C180.306 673.526 178.014 664.975 181.876 658.289L198.128 630.146Z" fill="#8DBBFB"/>
<path d="M205.12 698.523C205.12 690.801 211.381 684.542 219.104 684.542C226.827 684.542 233.088 690.801 233.088 698.523V731.019C233.088 738.741 226.827 745 219.104 745C211.381 745 205.12 738.741 205.12 731.019V698.523Z" fill="#8DBBFB"/>
</g>
</g>
<path id="I love fresh air!" d="M103.356 461V455.744H108.612V441.056H103.356V435.8H120.024V441.056H114.732V455.744H120.024V461H103.356ZM143.403 461V434.36H149.163V461H143.403ZM167.499 461.36C165.267 461.36 163.287 460.928 161.559 460.064C159.831 459.2 158.475 458.024 157.491 456.536C156.507 455.048 156.015 453.344 156.015 451.424C156.015 449.504 156.507 447.8 157.491 446.312C158.475 444.824 159.831 443.648 161.559 442.784C163.287 441.92 165.267 441.488 167.499 441.488C169.707 441.488 171.663 441.92 173.367 442.784C175.095 443.648 176.451 444.824 177.435 446.312C178.419 447.8 178.911 449.504 178.911 451.424C178.911 453.344 178.419 455.048 177.435 456.536C176.451 458.024 175.095 459.2 173.367 460.064C171.663 460.928 169.707 461.36 167.499 461.36ZM167.499 456.392C168.531 456.392 169.467 456.176 170.307 455.744C171.171 455.312 171.843 454.724 172.323 453.98C172.827 453.236 173.067 452.384 173.043 451.424C173.067 450.464 172.827 449.6 172.323 448.832C171.843 448.064 171.171 447.476 170.307 447.068C169.467 446.636 168.531 446.42 167.499 446.42C166.443 446.42 165.471 446.636 164.583 447.068C163.719 447.5 163.047 448.088 162.567 448.832C162.087 449.576 161.847 450.44 161.847 451.424C161.847 452.384 162.087 453.236 162.567 453.98C163.047 454.724 163.719 455.312 164.583 455.744C165.471 456.176 166.443 456.392 167.499 456.392ZM191.676 461L182.568 441.884H189.084L194.988 456.5L193.44 456.644L199.488 441.884H205.932L196.5 461H191.676ZM220.616 461.36C218.288 461.36 216.248 460.94 214.496 460.1C212.768 459.236 211.424 458.072 210.464 456.608C209.504 455.12 209.024 453.428 209.024 451.532C209.024 450.02 209.3 448.652 209.852 447.428C210.404 446.204 211.172 445.148 212.156 444.26C213.14 443.372 214.292 442.688 215.612 442.208C216.932 441.728 218.36 441.488 219.896 441.488C221.384 441.488 222.752 441.728 224 442.208C225.248 442.664 226.328 443.324 227.24 444.188C228.176 445.052 228.896 446.072 229.4 447.248C229.904 448.424 230.132 449.72 230.084 451.136L230.048 452.756H212.804L211.976 449.408H225.368L224.756 450.128V449.408C224.684 448.808 224.42 448.268 223.964 447.788C223.532 447.308 222.968 446.936 222.272 446.672C221.576 446.384 220.808 446.24 219.968 446.24C218.888 446.24 217.928 446.42 217.088 446.78C216.248 447.116 215.588 447.644 215.108 448.364C214.652 449.084 214.424 449.996 214.424 451.1C214.424 452.156 214.7 453.08 215.252 453.872C215.828 454.664 216.632 455.288 217.664 455.744C218.72 456.2 219.956 456.428 221.372 456.428C222.596 456.428 223.616 456.284 224.432 455.996C225.272 455.684 226.028 455.3 226.7 454.844L229.292 458.588C228.5 459.188 227.624 459.704 226.664 460.136C225.728 460.544 224.744 460.844 223.712 461.036C222.704 461.252 221.672 461.36 220.616 461.36ZM252.944 461V441.56C252.944 440.144 253.244 438.896 253.844 437.816C254.468 436.712 255.332 435.848 256.436 435.224C257.54 434.6 258.824 434.288 260.288 434.288C261.416 434.288 262.4 434.432 263.24 434.72C264.104 435.008 264.836 435.368 265.436 435.8L263.78 440.048C263.444 439.856 263.048 439.688 262.592 439.544C262.16 439.376 261.728 439.292 261.296 439.292C260.672 439.292 260.156 439.4 259.748 439.616C259.364 439.808 259.076 440.096 258.884 440.48C258.692 440.864 258.596 441.32 258.596 441.848V461H255.788C255.188 461 254.648 461 254.168 461C253.688 461 253.28 461 252.944 461ZM249.596 447.32V442.568H264.104V447.32H249.596ZM270.739 461V441.884H276.211L276.463 448.472L275.095 447.788C275.407 446.612 275.947 445.556 276.715 444.62C277.507 443.66 278.407 442.904 279.415 442.352C280.447 441.776 281.539 441.488 282.691 441.488C283.315 441.488 283.903 441.548 284.455 441.668C285.031 441.788 285.523 441.944 285.931 442.136L284.347 448.436C283.987 448.172 283.495 447.968 282.871 447.824C282.271 447.68 281.659 447.608 281.035 447.608C280.339 447.608 279.703 447.728 279.127 447.968C278.575 448.184 278.107 448.496 277.723 448.904C277.339 449.288 277.039 449.732 276.823 450.236C276.631 450.74 276.535 451.28 276.535 451.856V461H270.739ZM301.019 461.36C298.691 461.36 296.651 460.94 294.899 460.1C293.171 459.236 291.827 458.072 290.867 456.608C289.907 455.12 289.427 453.428 289.427 451.532C289.427 450.02 289.703 448.652 290.255 447.428C290.807 446.204 291.575 445.148 292.559 444.26C293.543 443.372 294.695 442.688 296.015 442.208C297.335 441.728 298.763 441.488 300.299 441.488C301.787 441.488 303.155 441.728 304.403 442.208C305.651 442.664 306.731 443.324 307.643 444.188C308.579 445.052 309.299 446.072 309.803 447.248C310.307 448.424 310.535 449.72 310.487 451.136L310.451 452.756H293.207L292.379 449.408H305.771L305.159 450.128V449.408C305.087 448.808 304.823 448.268 304.367 447.788C303.935 447.308 303.371 446.936 302.675 446.672C301.979 446.384 301.211 446.24 300.371 446.24C299.291 446.24 298.331 446.42 297.491 446.78C296.651 447.116 295.991 447.644 295.511 448.364C295.055 449.084 294.827 449.996 294.827 451.1C294.827 452.156 295.103 453.08 295.655 453.872C296.231 454.664 297.035 455.288 298.067 455.744C299.123 456.2 300.359 456.428 301.775 456.428C302.999 456.428 304.019 456.284 304.835 455.996C305.675 455.684 306.431 455.3 307.103 454.844L309.695 458.588C308.903 459.188 308.027 459.704 307.067 460.136C306.131 460.544 305.147 460.844 304.115 461.036C303.107 461.252 302.075 461.36 301.019 461.36ZM324.91 461.36C322.798 461.36 320.902 461.06 319.222 460.46C317.566 459.86 316.234 459.008 315.226 457.904L318.718 454.808C319.534 455.576 320.506 456.164 321.634 456.572C322.762 456.98 323.95 457.184 325.198 457.184C325.582 457.184 325.954 457.148 326.314 457.076C326.698 457.004 327.022 456.908 327.286 456.788C327.574 456.644 327.802 456.476 327.97 456.284C328.138 456.092 328.222 455.852 328.222 455.564C328.222 455.108 327.934 454.748 327.358 454.484C326.95 454.34 326.434 454.196 325.81 454.052C325.186 453.908 324.478 453.752 323.686 453.584C322.366 453.344 321.202 453.056 320.194 452.72C319.21 452.36 318.382 451.916 317.71 451.388C317.134 450.884 316.69 450.308 316.378 449.66C316.066 449.012 315.91 448.256 315.91 447.392C315.91 446.504 316.138 445.7 316.594 444.98C317.05 444.236 317.686 443.612 318.502 443.108C319.318 442.58 320.254 442.184 321.31 441.92C322.366 441.632 323.47 441.488 324.622 441.488C325.774 441.488 326.902 441.608 328.006 441.848C329.11 442.064 330.154 442.388 331.138 442.82C332.122 443.228 332.986 443.756 333.73 444.404L330.778 447.86C330.25 447.452 329.638 447.08 328.942 446.744C328.246 446.408 327.502 446.144 326.71 445.952C325.942 445.736 325.186 445.628 324.442 445.628C324.034 445.628 323.638 445.652 323.254 445.7C322.894 445.748 322.582 445.844 322.318 445.988C322.054 446.108 321.838 446.264 321.67 446.456C321.526 446.624 321.454 446.84 321.454 447.104C321.454 447.32 321.514 447.524 321.634 447.716C321.754 447.908 321.934 448.064 322.174 448.184C322.51 448.4 323.002 448.592 323.65 448.76C324.322 448.928 325.162 449.108 326.17 449.3C327.634 449.612 328.882 449.972 329.914 450.38C330.946 450.764 331.774 451.232 332.398 451.784C332.902 452.168 333.274 452.648 333.514 453.224C333.754 453.776 333.874 454.388 333.874 455.06C333.874 456.284 333.478 457.376 332.686 458.336C331.918 459.272 330.862 460.016 329.518 460.568C328.198 461.096 326.662 461.36 324.91 461.36ZM340.454 461V434.36H346.106V446.348L344.738 446.816C344.978 445.856 345.482 444.98 346.25 444.188C347.042 443.372 348.002 442.724 349.13 442.244C350.258 441.74 351.458 441.488 352.73 441.488C354.362 441.488 355.73 441.824 356.834 442.496C357.962 443.144 358.802 444.068 359.354 445.268C359.93 446.444 360.218 447.824 360.218 449.408V461H354.422V450.308C354.422 449.444 354.266 448.724 353.954 448.148C353.666 447.548 353.222 447.092 352.622 446.78C352.046 446.468 351.374 446.324 350.606 446.348C349.982 446.348 349.394 446.456 348.842 446.672C348.314 446.864 347.846 447.152 347.438 447.536C347.054 447.896 346.754 448.316 346.538 448.796C346.322 449.276 346.214 449.792 346.214 450.344V461H343.37C342.578 461 341.942 461 341.462 461C340.982 461 340.646 461 340.454 461ZM390.864 461.324C388.968 461.324 387.312 460.904 385.896 460.064C384.48 459.224 383.364 458.06 382.548 456.572C381.756 455.06 381.36 453.344 381.36 451.424C381.36 449.48 381.768 447.764 382.584 446.276C383.4 444.788 384.528 443.624 385.968 442.784C387.432 441.92 389.112 441.488 391.008 441.488C392.088 441.488 393.084 441.632 393.996 441.92C394.908 442.184 395.7 442.556 396.372 443.036C397.068 443.516 397.632 444.044 398.064 444.62C398.52 445.196 398.82 445.796 398.964 446.42H397.704V441.884H403.392V461H397.596V456.104L398.82 456.284C398.676 456.908 398.376 457.52 397.92 458.12C397.464 458.72 396.876 459.26 396.156 459.74C395.436 460.22 394.62 460.604 393.708 460.892C392.82 461.18 391.872 461.324 390.864 461.324ZM392.412 456.464C393.492 456.464 394.428 456.26 395.22 455.852C396.036 455.444 396.66 454.868 397.092 454.124C397.548 453.356 397.776 452.456 397.776 451.424C397.776 450.416 397.548 449.54 397.092 448.796C396.66 448.028 396.036 447.428 395.22 446.996C394.428 446.564 393.492 446.348 392.412 446.348C391.332 446.348 390.396 446.564 389.604 446.996C388.812 447.428 388.188 448.028 387.732 448.796C387.3 449.54 387.084 450.416 387.084 451.424C387.084 452.456 387.3 453.356 387.732 454.124C388.188 454.868 388.812 455.444 389.604 455.852C390.396 456.26 391.332 456.464 392.412 456.464ZM412.566 461V441.884H418.362V461H412.566ZM415.446 437.96C414.366 437.96 413.526 437.708 412.926 437.204C412.326 436.676 412.026 435.932 412.026 434.972C412.026 434.108 412.326 433.4 412.926 432.848C413.55 432.296 414.39 432.02 415.446 432.02C416.526 432.02 417.366 432.284 417.966 432.812C418.566 433.316 418.866 434.036 418.866 434.972C418.866 435.86 418.554 436.58 417.93 437.132C417.33 437.684 416.502 437.96 415.446 437.96ZM427.677 461V441.884H433.149L433.401 448.472L432.033 447.788C432.345 446.612 432.885 445.556 433.653 444.62C434.445 443.66 435.345 442.904 436.353 442.352C437.385 441.776 438.477 441.488 439.629 441.488C440.253 441.488 440.841 441.548 441.393 441.668C441.969 441.788 442.461 441.944 442.869 442.136L441.285 448.436C440.925 448.172 440.433 447.968 439.809 447.824C439.209 447.68 438.597 447.608 437.973 447.608C437.277 447.608 436.641 447.728 436.065 447.968C435.513 448.184 435.045 448.496 434.661 448.904C434.277 449.288 433.977 449.732 433.761 450.236C433.569 450.74 433.473 451.28 433.473 451.856V461H427.677ZM450.809 451.82C450.545 450.428 450.281 448.964 450.017 447.428C449.777 445.892 449.573 444.344 449.405 442.784C449.237 441.2 449.153 439.676 449.153 438.212V435.404H456.101V438.212C456.101 439.676 456.017 441.2 455.849 442.784C455.705 444.344 455.501 445.892 455.237 447.428C454.997 448.964 454.721 450.428 454.409 451.82H450.809ZM452.645 461.396C451.469 461.396 450.569 461.12 449.945 460.568C449.321 459.992 449.009 459.2 449.009 458.192C449.009 457.28 449.321 456.512 449.945 455.888C450.593 455.264 451.493 454.952 452.645 454.952C453.821 454.952 454.709 455.24 455.309 455.816C455.933 456.392 456.245 457.184 456.245 458.192C456.245 459.08 455.921 459.836 455.273 460.46C454.649 461.084 453.773 461.396 452.645 461.396Z" fill="white"/>
</g>
<defs>
<filter id="filter0_d_164_254" x="176" y="547" width="126" height="206" filterUnits="userSpaceOnUse" color-interpolation-filters="sRGB">
<feFlood flood-opacity="0" result="BackgroundImageFix"/>
<feColorMatrix in="SourceAlpha" type="matrix" values="0 0 0 0 0 0 0 0 0 0 0 0 0 0 0 0 0 0 127 0" result="hardAlpha"/>
<feOffset dy="4"/>
<feGaussianBlur stdDeviation="2"/>
<feComposite in2="hardAlpha" operator="out"/>
<feColorMatrix type="matrix" values="0 0 0 0 0 0 0 0 0 0 0 0 0 0 0 0 0 0 0.25 0"/>
<feBlend mode="normal" in2="BackgroundImageFix" result="effect1_dropShadow_164_254"/>
<feBlend mode="normal" in="SourceGraphic" in2="effect1_dropShadow_164_254" result="shape"/>
</filter>
<clipPath id="clip0_164_254">
<rect width="1440" height="1024" fill="white"/>
</clipPath>
</defs>
</svg>
