<svg width="1440" height="1024" viewBox="0 0 1440 1024" fill="none" xmlns="http://www.w3.org/2000/svg">
<g id="recognize5-yes" clip-path="url(#clip0_164_384)">
<rect width="1440" height="1024" fill="#333148"/>
<path id="part 4" d="M47.096 132.12V60.024H61.688L62.264 71.448L59.384 70.584C59.832 68.536 61.048 66.648 63.032 64.92C65.016 63.192 67.512 61.784 70.52 60.696C73.592 59.608 76.856 59.064 80.312 59.064C85.304 59.064 89.688 60.216 93.464 62.52C97.24 64.76 100.184 67.864 102.296 71.832C104.472 75.736 105.56 80.28 105.56 85.464C105.56 90.584 104.472 95.128 102.296 99.096C100.184 103.064 97.208 106.2 93.368 108.504C89.528 110.744 85.112 111.864 80.12 111.864C76.664 111.864 73.432 111.288 70.424 110.136C67.416 108.984 64.888 107.48 62.84 105.624C60.856 103.768 59.576 101.816 59 99.768L62.552 98.424V132.12H47.096ZM76.376 98.904C79.256 98.904 81.752 98.36 83.864 97.272C85.976 96.12 87.608 94.552 88.76 92.568C89.976 90.584 90.584 88.216 90.584 85.464C90.584 82.776 89.976 80.44 88.76 78.456C87.608 76.408 85.976 74.84 83.864 73.752C81.816 72.6 79.32 72.024 76.376 72.024C73.496 72.024 70.968 72.568 68.792 73.656C66.68 74.744 65.016 76.312 63.8 78.36C62.648 80.408 62.072 82.776 62.072 85.464C62.072 88.216 62.648 90.584 63.8 92.568C65.016 94.552 66.68 96.12 68.792 97.272C70.968 98.36 73.496 98.904 76.376 98.904ZM144.211 111.864C139.155 111.864 134.739 110.744 130.963 108.504C127.187 106.264 124.211 103.16 122.035 99.192C119.923 95.16 118.867 90.584 118.867 85.464C118.867 80.28 119.955 75.704 122.131 71.736C124.307 67.768 127.315 64.664 131.155 62.424C135.059 60.12 139.539 58.968 144.595 58.968C147.475 58.968 150.131 59.352 152.563 60.12C154.995 60.824 157.107 61.816 158.899 63.096C160.755 64.376 162.259 65.784 163.411 67.32C164.627 68.856 165.427 70.456 165.811 72.12H162.451V60.024H177.619V111H162.163V97.944L165.427 98.424C165.043 100.088 164.243 101.72 163.027 103.32C161.811 104.92 160.243 106.36 158.323 107.64C156.403 108.92 154.227 109.944 151.795 110.712C149.427 111.48 146.899 111.864 144.211 111.864ZM148.339 98.904C151.219 98.904 153.715 98.36 155.827 97.272C158.003 96.184 159.667 94.648 160.819 92.664C162.035 90.616 162.643 88.216 162.643 85.464C162.643 82.776 162.035 80.44 160.819 78.456C159.667 76.408 158.003 74.808 155.827 73.656C153.715 72.504 151.219 71.928 148.339 71.928C145.459 71.928 142.963 72.504 140.851 73.656C138.739 74.808 137.075 76.408 135.859 78.456C134.707 80.44 134.131 82.776 134.131 85.464C134.131 88.216 134.707 90.616 135.859 92.664C137.075 94.648 138.739 96.184 140.851 97.272C142.963 98.36 145.459 98.904 148.339 98.904ZM201.315 111V60.024H215.907L216.579 77.592L212.931 75.768C213.763 72.632 215.203 69.816 217.251 67.32C219.363 64.76 221.763 62.744 224.451 61.272C227.203 59.736 230.115 58.968 233.187 58.968C234.851 58.968 236.419 59.128 237.891 59.448C239.427 59.768 240.739 60.184 241.827 60.696L237.603 77.496C236.643 76.792 235.331 76.248 233.667 75.864C232.067 75.48 230.435 75.288 228.771 75.288C226.915 75.288 225.219 75.608 223.683 76.248C222.211 76.824 220.963 77.656 219.939 78.744C218.915 79.768 218.115 80.952 217.539 82.296C217.027 83.64 216.771 85.08 216.771 86.616V111H201.315ZM265.932 111V46.008H281.292V111H265.932ZM254.604 73.464V60.024H294.252V73.464H254.604ZM377.032 111V53.304H387.112L357.544 88.248L355.624 83.736H405.256V96.984H349.48L343.048 84.6L378.856 43.224H392.776V111H377.032Z" fill="white"/>
<rect id="Rectangle 7" y="462" width="1567" height="626" fill="#211F2F"/>
<g id="Group 34">
<line id="Line 1" x1="452.501" y1="458.705" x2="452.501" y2="112.705" stroke="#485C77" stroke-width="25" stroke-linecap="round"/>
<rect id="Rectangle 8" x="440.001" y="100.207" width="172" height="96" rx="14" fill="#3B5EC6"/>
<rect id="Rectangle 9" x="510.001" y="100.207" width="32" height="96" fill="white"/>
<rect id="Rectangle 11" x="609" y="97.207" width="21.7609" height="196.456" rx="10.8804" transform="rotate(62.972 609 97.207)" fill="white"/>
<rect id="Rectangle 12" x="616.953" y="191.229" width="21.7609" height="196.456" rx="10.8804" transform="rotate(120 616.953 191.229)" fill="white"/>
<rect id="Rectangle 10" x="440.001" y="164.209" width="27" height="172" transform="rotate(-90 440.001 164.209)" fill="white"/>
<rect id="Rectangle 13" x="608.061" y="102.564" width="13.0698" height="189.913" rx="6.53491" transform="rotate(62.972 608.061 102.564)" fill="#EF1044"/>
<rect id="Rectangle 14" x="612.058" y="193" width="13.0698" height="189.913" rx="6.53491" transform="rotate(120 612.058 193)" fill="#EF1044"/>
<rect id="Rectangle 15" x="440.001" y="144.207" width="172" height="14" fill="#EF1044"/>
<rect id="Rectangle 16" x="534.001" y="100.207" width="96" height="16" transform="rotate(90 534.001 100.207)" fill="#EF1044"/>
</g>
<g id="Group 33">
<path id="Polygon 1" d="M769.372 285.85C785.607 268.261 813.393 268.261 829.628 285.85L1058.58 533.9C1082.82 560.164 1064.2 602.709 1028.46 602.709H570.545C534.803 602.709 516.175 560.164 540.417 533.9L769.372 285.85Z" fill="#485C77"/>
<rect id="Rectangle 17" x="748" y="447.209" width="104" height="198" rx="28" fill="#201F2F"/>
</g>
<g id="next">
<g id="Next">
<path id="Next_2" d="M1100.81 909V864.2H1110.79L1137.86 896.2L1136.01 895.88C1135.75 894.387 1135.56 892.957 1135.43 891.592C1135.3 890.227 1135.18 888.904 1135.05 887.624C1134.96 886.344 1134.88 885.064 1134.79 883.784C1134.75 882.504 1134.73 881.16 1134.73 879.752C1134.73 878.344 1134.73 876.851 1134.73 875.272V864.2H1145.29V909H1135.18L1107.08 875.976L1110.09 876.424C1110.22 877.917 1110.34 879.261 1110.47 880.456C1110.64 881.651 1110.77 882.781 1110.86 883.848C1110.98 884.872 1111.07 885.917 1111.11 886.984C1111.2 888.008 1111.26 889.096 1111.3 890.248C1111.35 891.4 1111.37 892.659 1111.37 894.024V909H1100.81ZM1177.89 909.64C1173.76 909.64 1170.13 908.893 1167.01 907.4C1163.94 905.864 1161.55 903.795 1159.85 901.192C1158.14 898.547 1157.29 895.539 1157.29 892.168C1157.29 889.48 1157.78 887.048 1158.76 884.872C1159.74 882.696 1161.11 880.819 1162.85 879.24C1164.6 877.661 1166.65 876.445 1169 875.592C1171.35 874.739 1173.88 874.312 1176.61 874.312C1179.26 874.312 1181.69 874.739 1183.91 875.592C1186.13 876.403 1188.05 877.576 1189.67 879.112C1191.33 880.648 1192.61 882.461 1193.51 884.552C1194.41 886.643 1194.81 888.947 1194.73 891.464L1194.66 894.344H1164.01L1162.53 888.392H1186.34L1185.25 889.672V888.392C1185.13 887.325 1184.66 886.365 1183.85 885.512C1183.08 884.659 1182.08 883.997 1180.84 883.528C1179.6 883.016 1178.24 882.76 1176.74 882.76C1174.82 882.76 1173.12 883.08 1171.62 883.72C1170.13 884.317 1168.96 885.256 1168.1 886.536C1167.29 887.816 1166.89 889.437 1166.89 891.4C1166.89 893.277 1167.38 894.92 1168.36 896.328C1169.38 897.736 1170.81 898.845 1172.65 899.656C1174.52 900.467 1176.72 900.872 1179.24 900.872C1181.41 900.872 1183.23 900.616 1184.68 900.104C1186.17 899.549 1187.52 898.867 1188.71 898.056L1193.32 904.712C1191.91 905.779 1190.35 906.696 1188.65 907.464C1186.98 908.189 1185.23 908.723 1183.4 909.064C1181.61 909.448 1179.77 909.64 1177.89 909.64ZM1231.57 909L1222.16 896.776L1219.54 893.32L1204.63 875.016H1217.56L1226 886.216L1228.82 889.928L1244.37 909H1231.57ZM1203.8 909L1219.03 889.8L1225.24 896.136L1216.53 909H1203.8ZM1228.76 894.216L1222.74 887.816L1231.32 875.016H1243.99L1228.76 894.216ZM1260.39 909V865.672H1270.63V909H1260.39ZM1252.84 883.976V875.016H1279.27V883.976H1252.84Z" fill="white"/>
</g>
<path id="Arrow 1" d="M1094 913.5C1089.31 913.5 1085.5 917.306 1085.5 922C1085.5 926.694 1089.31 930.5 1094 930.5V922V913.5ZM1371 922L1286 872.925V971.075L1371 922ZM1094 922V930.5H1294.5V922V913.5H1094V922Z" fill="#EF1044"/>
</g>
<g id="Group 32">
<g id="Group 31">
<rect id="Rectangle 31" x="905" y="176.209" width="93" height="352" rx="36" fill="#485C77"/>
<rect id="Rectangle 32" x="794.855" y="159.467" width="264.672" height="73.942" rx="36.971" transform="rotate(-8.76431 794.855 159.467)" fill="#405066"/>
<path id="Polygon 8" d="M931.054 210.906C933.371 217.286 932.108 224.418 927.741 229.615L880.094 286.313C875.727 291.51 868.919 293.982 862.235 292.799L789.309 279.884C782.625 278.701 777.08 274.041 774.763 267.661L749.484 198.048C747.167 191.667 748.43 184.536 752.797 179.339L800.444 122.64C804.812 117.443 811.619 114.971 818.303 116.155L891.229 129.069C897.913 130.253 903.458 134.913 905.775 141.293L931.054 210.906Z" fill="#73839A"/>
<ellipse id="Ellipse 13" cx="840" cy="204.209" rx="64" ry="67" fill="#C63B3B"/>
<line id="Line 18" x1="760.047" y1="190.796" x2="786.587" y2="222.162" stroke="#201F2F" stroke-width="10" stroke-linecap="round"/>
<line id="Line 19" x1="814.706" y1="130.231" x2="792.022" y2="225.503" stroke="#201F2F" stroke-width="10" stroke-linecap="round"/>
<line id="Line 20" x1="893.123" y1="147.225" x2="793.016" y2="225.086" stroke="#201F2F" stroke-width="10" stroke-linecap="round"/>
<line id="Line 21" x1="916.383" y1="224.565" x2="791.356" y2="233.826" stroke="#201F2F" stroke-width="10" stroke-linecap="round"/>
<line id="Line 22" x1="865.051" y1="286.518" x2="791.309" y2="236.158" stroke="#201F2F" stroke-width="10" stroke-linecap="round"/>
<line id="Line 23" x1="781.485" y1="269.767" x2="784.558" y2="236.724" stroke="#201F2F" stroke-width="10" stroke-linecap="round"/>
</g>
<circle id="Ellipse 14" cx="785.5" cy="228.709" r="18.5" fill="#DC4B4B"/>
</g>
<g id="Group 3">
<g id="Vector" filter="url(#filter0_d_164_384)">
<path d="M228.388 696.67C200.899 690.452 200.899 651.278 228.388 645.06L273.03 634.962C289.575 631.22 305.315 643.801 305.315 660.767L305.315 680.963C305.315 697.929 289.575 710.51 273.03 706.768L228.388 696.67Z" fill="#8DBBFB"/>
<path d="M168.34 642.897C183.991 642.897 196.679 655.588 196.679 671.243C196.679 686.898 183.991 699.589 168.34 699.589C152.688 699.589 140 686.898 140 671.243C140 655.588 152.688 642.897 168.34 642.897Z" fill="#8DBBFB"/>
<path d="M291.523 665.574C283.801 665.574 277.542 659.313 277.542 651.59C277.542 643.866 283.801 637.605 291.523 637.605L324.019 637.605C331.741 637.605 338 643.866 338 651.59C338 659.313 331.741 665.574 324.019 665.574L291.523 665.574Z" fill="#8DBBFB"/>
<path d="M237.361 654.636C230.728 658.59 222.146 656.416 218.194 649.781C214.242 643.146 216.416 634.563 223.049 630.61L250.966 613.973C257.599 610.02 266.18 612.194 270.132 618.829C274.085 625.463 271.911 634.047 265.278 638L237.361 654.636Z" fill="#8DBBFB"/>
<path d="M223.146 711.872C216.459 708.011 214.168 699.458 218.029 692.77C221.889 686.081 230.44 683.79 237.127 687.651L265.269 703.903C271.956 707.765 274.248 716.317 270.387 723.006C266.526 729.694 257.975 731.986 251.289 728.124L223.146 711.872Z" fill="#8DBBFB"/>
<path d="M291.523 704.88C283.801 704.88 277.542 698.619 277.542 690.896C277.542 683.173 283.801 676.912 291.523 676.912L324.019 676.912C331.741 676.912 338 683.173 338 690.896C338 698.619 331.741 704.88 324.019 704.88L291.523 704.88Z" fill="#8DBBFB"/>
</g>
</g>
<g id="Group 4">
<g id="Vector_2" filter="url(#filter1_d_164_384)">
<path d="M491.123 548.637C495.524 529.157 523.252 529.157 527.652 548.637L534.8 580.273C537.449 591.997 528.544 603.152 516.535 603.152H502.24C490.232 603.152 481.327 591.997 483.976 580.273L491.123 548.637Z" fill="#3B5EC6"/>
<path d="M529.184 506.083C529.184 517.175 520.201 526.166 509.12 526.166C498.04 526.166 489.057 517.175 489.057 506.083C489.057 494.992 498.04 486 509.12 486C520.201 486 529.184 494.992 529.184 506.083Z" fill="#3B5EC6"/>
<path d="M513.133 593.378C513.133 587.906 517.564 583.47 523.031 583.47C528.497 583.47 532.929 587.906 532.929 593.378V616.407C532.929 621.879 528.497 626.315 523.031 626.315C517.564 626.315 513.133 621.879 513.133 616.407V593.378Z" fill="#3B5EC6"/>
<path d="M520.874 554.996C518.076 550.295 519.615 544.214 524.311 541.413C529.007 538.612 535.083 540.153 537.881 544.853L549.656 564.637C552.454 569.338 550.915 575.419 546.219 578.22C541.523 581.02 535.448 579.48 532.65 574.779L520.874 554.996Z" fill="#3B5EC6"/>
<path d="M480.363 544.922C483.096 540.183 489.149 538.56 493.884 541.296C498.618 544.032 500.24 550.091 497.506 554.83L486.003 574.773C483.27 579.512 477.217 581.136 472.482 578.4C467.748 575.664 466.126 569.604 468.86 564.866L480.363 544.922Z" fill="#3B5EC6"/>
<path d="M485.312 593.378C485.312 587.906 489.743 583.47 495.21 583.47C500.676 583.47 505.108 587.906 505.108 593.378V616.407C505.108 621.879 500.676 626.315 495.21 626.315C489.743 626.315 485.312 621.879 485.312 616.407V593.378Z" fill="#3B5EC6"/>
</g>
<g id="Vector_3" filter="url(#filter2_d_164_384)">
<path d="M686.797 548.637C691.242 529.157 719.247 529.157 723.692 548.637L730.911 580.273C733.586 591.997 724.592 603.152 712.463 603.152H698.026C685.897 603.152 676.903 591.997 679.578 580.273L686.797 548.637Z" fill="#3B5EC6"/>
<path d="M725.238 506.083C725.238 517.175 716.166 526.166 704.974 526.166C693.783 526.166 684.71 517.175 684.71 506.083C684.71 494.992 693.783 486 704.974 486C716.166 486 725.238 494.992 725.238 506.083Z" fill="#3B5EC6"/>
<path d="M709.027 593.378C709.027 587.906 713.503 583.47 719.024 583.47C724.545 583.47 729.021 587.906 729.021 593.378V616.407C729.021 621.879 724.545 626.315 719.024 626.315C713.503 626.315 709.027 621.879 709.027 616.407V593.378Z" fill="#3B5EC6"/>
<path d="M716.846 554.996C714.02 550.295 715.574 544.214 720.317 541.413C725.06 538.612 731.196 540.153 734.022 544.853L745.915 564.637C748.741 569.338 747.187 575.419 742.444 578.22C737.701 581.02 731.565 579.48 728.739 574.779L716.846 554.996Z" fill="#3B5EC6"/>
<path d="M675.929 544.922C678.69 540.183 684.804 538.56 689.585 541.296C694.367 544.032 696.005 550.091 693.244 554.83L681.626 574.773C678.866 579.512 672.752 581.136 667.97 578.4C663.189 575.664 661.55 569.604 664.311 564.866L675.929 544.922Z" fill="#3B5EC6"/>
<path d="M680.928 593.378C680.928 587.906 685.403 583.47 690.924 583.47C696.446 583.47 700.921 587.906 700.921 593.378V616.407C700.921 621.879 696.446 626.315 690.924 626.315C685.403 626.315 680.928 621.879 680.928 616.407V593.378Z" fill="#3B5EC6"/>
</g>
<g id="Vector_4" filter="url(#filter3_d_164_384)">
<path d="M589.078 548.637C593.523 529.157 621.528 529.157 625.973 548.637L633.192 580.273C635.867 591.997 626.873 603.152 614.744 603.152H600.307C588.178 603.152 579.184 591.997 581.859 580.273L589.078 548.637Z" fill="#3B5EC6"/>
<path d="M627.519 506.083C627.519 517.175 618.447 526.166 607.255 526.166C596.064 526.166 586.991 517.175 586.991 506.083C586.991 494.992 596.064 486 607.255 486C618.447 486 627.519 494.992 627.519 506.083Z" fill="#3B5EC6"/>
<path d="M611.308 593.378C611.308 587.906 615.784 583.47 621.305 583.47C626.826 583.47 631.302 587.906 631.302 593.378V616.407C631.302 621.879 626.826 626.315 621.305 626.315C615.784 626.315 611.308 621.879 611.308 616.407V593.378Z" fill="#3B5EC6"/>
<path d="M619.127 554.996C616.301 550.295 617.855 544.214 622.598 541.413C627.341 538.612 633.477 540.153 636.303 544.853L648.196 564.637C651.022 569.338 649.468 575.419 644.725 578.22C639.982 581.02 633.846 579.48 631.02 574.779L619.127 554.996Z" fill="#3B5EC6"/>
<path d="M578.21 544.922C580.971 540.183 587.085 538.56 591.866 541.296C596.648 544.032 598.286 550.091 595.525 554.83L583.907 574.773C581.147 579.512 575.033 581.136 570.251 578.4C565.47 575.664 563.831 569.604 566.592 564.866L578.21 544.922Z" fill="#3B5EC6"/>
<path d="M583.209 593.378C583.209 587.906 587.684 583.47 593.205 583.47C598.727 583.47 603.202 587.906 603.202 593.378V616.407C603.202 621.879 598.727 626.315 593.205 626.315C587.684 626.315 583.209 621.879 583.209 616.407V593.378Z" fill="#3B5EC6"/>
</g>
<g id="Vector_5" filter="url(#filter4_d_164_384)">
<path d="M785.116 548.637C789.517 529.157 817.244 529.157 821.645 548.637L828.792 580.273C831.441 591.997 822.536 603.152 810.528 603.152H796.233C784.224 603.152 775.32 591.997 777.968 580.273L785.116 548.637Z" fill="#3B5EC6"/>
<path d="M823.176 506.083C823.176 517.175 814.194 526.166 803.113 526.166C792.032 526.166 783.049 517.175 783.049 506.083C783.049 494.992 792.032 486 803.113 486C814.194 486 823.176 494.992 823.176 506.083Z" fill="#3B5EC6"/>
<path d="M807.126 593.378C807.126 587.906 811.557 583.47 817.023 583.47C822.49 583.47 826.921 587.906 826.921 593.378V616.407C826.921 621.879 822.49 626.315 817.023 626.315C811.557 626.315 807.126 621.879 807.126 616.407V593.378Z" fill="#3B5EC6"/>
<path d="M814.867 554.996C812.069 550.295 813.608 544.214 818.304 541.413C823 538.612 829.075 540.153 831.873 544.853L843.649 564.637C846.447 569.338 844.908 575.419 840.212 578.22C835.516 581.02 829.44 579.48 826.642 574.779L814.867 554.996Z" fill="#3B5EC6"/>
<path d="M774.355 544.922C777.088 540.183 783.142 538.56 787.876 541.296C792.61 544.032 794.232 550.091 791.499 554.83L779.996 574.773C777.263 579.512 771.209 581.136 766.475 578.4C761.741 575.664 760.119 569.604 762.852 564.866L774.355 544.922Z" fill="#3B5EC6"/>
<path d="M779.304 593.378C779.304 587.906 783.736 583.47 789.202 583.47C794.669 583.47 799.1 587.906 799.1 593.378V616.407C799.1 621.879 794.669 626.315 789.202 626.315C783.736 626.315 779.304 621.879 779.304 616.407V593.378Z" fill="#3B5EC6"/>
</g>
<g id="Vector_6" filter="url(#filter5_d_164_384)">
<path d="M406.838 579.031C412.031 556.073 444.749 556.073 449.942 579.031L458.376 616.317C461.502 630.135 450.994 643.281 436.824 643.281H419.956C405.786 643.281 395.278 630.135 398.404 616.317L406.838 579.031Z" fill="#6A94E0"/>
<path d="M451.749 528.878C451.749 541.951 441.15 552.548 428.074 552.548C414.999 552.548 404.399 541.951 404.399 528.878C404.399 515.806 414.999 505.209 428.074 505.209C441.15 505.209 451.749 515.806 451.749 528.878Z" fill="#6A94E0"/>
<path d="M432.809 631.762C432.809 625.313 438.038 620.085 444.489 620.085C450.939 620.085 456.168 625.313 456.168 631.762V658.903C456.168 665.352 450.939 670.58 444.489 670.58C438.038 670.58 432.809 665.352 432.809 658.903V631.762Z" fill="#6A94E0"/>
<path d="M441.944 586.525C438.642 580.985 440.458 573.818 446 570.517C451.541 567.216 458.71 569.032 462.011 574.572L475.907 597.888C479.208 603.428 477.392 610.595 471.851 613.896C466.31 617.197 459.141 615.382 455.839 609.842L441.944 586.525Z" fill="#6A94E0"/>
<path d="M394.14 574.653C397.366 569.068 404.509 567.154 410.095 570.379C415.681 573.603 417.595 580.745 414.37 586.33L400.796 609.835C397.571 615.42 390.428 617.333 384.842 614.109C379.255 610.884 377.341 603.743 380.567 598.158L394.14 574.653Z" fill="#6A94E0"/>
<path d="M399.98 631.762C399.98 625.313 405.209 620.085 411.66 620.085C418.11 620.085 423.339 625.313 423.339 631.762V658.903C423.339 665.352 418.11 670.58 411.66 670.58C405.209 670.58 399.98 665.352 399.98 658.903V631.762Z" fill="#6A94E0"/>
</g>
<g id="Vector_7" filter="url(#filter6_d_164_384)">
<path d="M637.354 579.031C642.548 556.073 675.266 556.073 680.459 579.031L688.893 616.317C692.019 630.135 681.511 643.281 667.341 643.281H650.473C636.303 643.281 625.795 630.135 628.921 616.317L637.354 579.031Z" fill="#6A94E0"/>
<path d="M682.266 528.878C682.266 541.951 671.666 552.548 658.591 552.548C645.516 552.548 634.916 541.951 634.916 528.878C634.916 515.806 645.516 505.209 658.591 505.209C671.666 505.209 682.266 515.806 682.266 528.878Z" fill="#6A94E0"/>
<path d="M663.326 631.762C663.326 625.313 668.555 620.085 675.006 620.085C681.456 620.085 686.685 625.313 686.685 631.762V658.903C686.685 665.352 681.456 670.58 675.006 670.58C668.555 670.58 663.326 665.352 663.326 658.903V631.762Z" fill="#6A94E0"/>
<path d="M672.461 586.525C669.159 580.985 670.975 573.818 676.516 570.517C682.058 567.216 689.227 569.032 692.528 574.572L706.423 597.888C709.725 603.428 707.909 610.595 702.368 613.896C696.826 617.197 689.658 615.382 686.356 609.842L672.461 586.525Z" fill="#6A94E0"/>
<path d="M624.657 574.653C627.882 569.068 635.026 567.154 640.612 570.379C646.198 573.603 648.112 580.745 644.887 586.33L631.313 609.835C628.088 615.42 620.945 617.333 615.359 614.109C609.772 610.884 607.858 603.743 611.084 598.158L624.657 574.653Z" fill="#6A94E0"/>
<path d="M630.497 631.762C630.497 625.313 635.726 620.085 642.177 620.085C648.627 620.085 653.856 625.313 653.856 631.762V658.903C653.856 665.352 648.627 670.58 642.177 670.58C635.726 670.58 630.497 665.352 630.497 658.903V631.762Z" fill="#6A94E0"/>
</g>
<g id="Vector_8" filter="url(#filter7_d_164_384)">
<path d="M522.096 579.031C527.289 556.073 560.008 556.073 565.201 579.031L573.635 616.317C576.76 630.135 566.252 643.281 552.082 643.281H535.215C521.044 643.281 510.537 630.135 513.662 616.317L522.096 579.031Z" fill="#6A94E0"/>
<path d="M567.008 528.878C567.008 541.951 556.408 552.548 543.333 552.548C530.257 552.548 519.658 541.951 519.658 528.878C519.658 515.806 530.257 505.209 543.333 505.209C556.408 505.209 567.008 515.806 567.008 528.878Z" fill="#6A94E0"/>
<path d="M548.068 631.762C548.068 625.313 553.297 620.085 559.747 620.085C566.198 620.085 571.427 625.313 571.427 631.762V658.903C571.427 665.352 566.198 670.58 559.747 670.58C553.297 670.58 548.068 665.352 548.068 658.903V631.762Z" fill="#6A94E0"/>
<path d="M557.202 586.525C553.901 580.985 555.717 573.818 561.258 570.517C566.8 567.216 573.968 569.032 577.27 574.572L591.165 597.888C594.467 603.428 592.651 610.595 587.109 613.896C581.568 617.197 574.399 615.382 571.098 609.842L557.202 586.525Z" fill="#6A94E0"/>
<path d="M509.399 574.653C512.624 569.068 519.767 567.154 525.353 570.379C530.94 573.603 532.854 580.745 529.628 586.33L516.055 609.835C512.83 615.42 505.686 617.333 500.1 614.109C494.514 610.884 492.6 603.743 495.825 598.158L509.399 574.653Z" fill="#6A94E0"/>
<path d="M515.239 631.762C515.239 625.313 520.468 620.085 526.918 620.085C533.369 620.085 538.598 625.313 538.598 631.762V658.903C538.598 665.352 533.369 670.58 526.918 670.58C520.468 670.58 515.239 665.352 515.239 658.903V631.762Z" fill="#6A94E0"/>
</g>
<g id="Vector_9" filter="url(#filter8_d_164_384)">
<path d="M570.538 617.451C575.731 594.492 608.45 594.492 613.643 617.451L622.077 654.737C625.202 668.554 614.694 681.701 600.524 681.701H583.657C569.486 681.701 558.979 668.554 562.104 654.737L570.538 617.451Z" fill="#8DBBFB"/>
<path d="M615.45 567.298C615.45 580.371 604.85 590.968 591.775 590.968C578.699 590.968 568.1 580.371 568.1 567.298C568.1 554.226 578.699 543.629 591.775 543.629C604.85 543.629 615.45 554.226 615.45 567.298Z" fill="#8DBBFB"/>
<path d="M596.51 670.182C596.51 663.733 601.739 658.505 608.189 658.505C614.64 658.505 619.869 663.733 619.869 670.182V697.323C619.869 703.772 614.64 709 608.189 709C601.739 709 596.51 703.772 596.51 697.323V670.182Z" fill="#8DBBFB"/>
<path d="M605.645 624.945C602.343 619.405 604.159 612.238 609.7 608.937C615.242 605.636 622.41 607.452 625.712 612.992L639.607 636.308C642.909 641.848 641.093 649.015 635.551 652.316C630.01 655.617 622.841 653.802 619.54 648.262L605.645 624.945Z" fill="#8DBBFB"/>
<path d="M557.841 613.073C561.066 607.488 568.209 605.574 573.795 608.799C579.382 612.023 581.296 619.165 578.07 624.75L564.497 648.255C561.272 653.84 554.128 655.753 548.542 652.529C542.956 649.304 541.042 642.163 544.267 636.578L557.841 613.073Z" fill="#8DBBFB"/>
<path d="M563.681 670.182C563.681 663.733 568.91 658.505 575.36 658.505C581.811 658.505 587.04 663.733 587.04 670.182V697.323C587.04 703.772 581.811 709 575.36 709C568.91 709 563.681 703.772 563.681 697.323V670.182Z" fill="#8DBBFB"/>
</g>
<g id="Vector_10" filter="url(#filter9_d_164_384)">
<path d="M752.613 579.031C757.806 556.073 790.525 556.073 795.718 579.031L804.152 616.317C807.277 630.135 796.769 643.281 782.599 643.281H765.731C751.561 643.281 741.054 630.135 744.179 616.317L752.613 579.031Z" fill="#6A94E0"/>
<path d="M797.525 528.878C797.525 541.951 786.925 552.548 773.85 552.548C760.774 552.548 750.175 541.951 750.175 528.878C750.175 515.806 760.774 505.209 773.85 505.209C786.925 505.209 797.525 515.806 797.525 528.878Z" fill="#6A94E0"/>
<path d="M778.585 631.762C778.585 625.313 783.814 620.085 790.264 620.085C796.715 620.085 801.944 625.313 801.944 631.762V658.903C801.944 665.352 796.715 670.58 790.264 670.58C783.814 670.58 778.585 665.352 778.585 658.903V631.762Z" fill="#6A94E0"/>
<path d="M787.719 586.525C784.418 580.985 786.234 573.818 791.775 570.517C797.316 567.216 804.485 569.032 807.787 574.572L821.682 597.888C824.984 603.428 823.168 610.595 817.626 613.896C812.085 617.197 804.916 615.382 801.615 609.842L787.719 586.525Z" fill="#6A94E0"/>
<path d="M739.916 574.653C743.141 569.068 750.284 567.154 755.87 570.379C761.457 573.603 763.371 580.745 760.145 586.33L746.572 609.835C743.347 615.42 736.203 617.333 730.617 614.109C725.031 610.884 723.117 603.743 726.342 598.158L739.916 574.653Z" fill="#6A94E0"/>
<path d="M745.756 631.762C745.756 625.313 750.985 620.085 757.435 620.085C763.886 620.085 769.115 625.313 769.115 631.762V658.903C769.115 665.352 763.886 670.58 757.435 670.58C750.985 670.58 745.756 665.352 745.756 658.903V631.762Z" fill="#6A94E0"/>
</g>
<g id="Vector_11" filter="url(#filter10_d_164_384)">
<path d="M455.28 617.451C460.473 594.492 493.191 594.492 498.384 617.451L506.818 654.737C509.944 668.554 499.436 681.701 485.266 681.701H468.398C454.228 681.701 443.72 668.554 446.846 654.737L455.28 617.451Z" fill="#8DBBFB"/>
<path d="M500.191 567.298C500.191 580.371 489.591 590.968 476.516 590.968C463.441 590.968 452.841 580.371 452.841 567.298C452.841 554.226 463.441 543.629 476.516 543.629C489.591 543.629 500.191 554.226 500.191 567.298Z" fill="#8DBBFB"/>
<path d="M481.251 670.182C481.251 663.733 486.48 658.505 492.931 658.505C499.381 658.505 504.61 663.733 504.61 670.182V697.323C504.61 703.772 499.381 709 492.931 709C486.48 709 481.251 703.772 481.251 697.323V670.182Z" fill="#8DBBFB"/>
<path d="M490.386 624.945C487.084 619.405 488.9 612.238 494.442 608.937C499.983 605.636 507.152 607.452 510.453 612.992L524.348 636.308C527.65 641.848 525.834 649.015 520.293 652.316C514.751 655.617 507.583 653.802 504.281 648.262L490.386 624.945Z" fill="#8DBBFB"/>
<path d="M442.582 613.073C445.807 607.488 452.951 605.574 458.537 608.799C464.123 612.023 466.037 619.165 462.812 624.75L449.238 648.255C446.013 653.84 438.87 655.753 433.284 652.529C427.697 649.304 425.783 642.163 429.009 636.578L442.582 613.073Z" fill="#8DBBFB"/>
<path d="M448.422 670.182C448.422 663.733 453.651 658.505 460.102 658.505C466.552 658.505 471.781 663.733 471.781 670.182V697.323C471.781 703.772 466.552 709 460.102 709C453.651 709 448.422 703.772 448.422 697.323V670.182Z" fill="#8DBBFB"/>
</g>
<g id="Vector_12" filter="url(#filter11_d_164_384)">
<path d="M685.796 617.451C690.989 594.492 723.708 594.492 728.901 617.451L737.335 654.737C740.46 668.554 729.953 681.701 715.783 681.701H698.915C684.745 681.701 674.237 668.554 677.363 654.737L685.796 617.451Z" fill="#8DBBFB"/>
<path d="M730.708 567.298C730.708 580.371 720.108 590.968 707.033 590.968C693.958 590.968 683.358 580.371 683.358 567.298C683.358 554.226 693.958 543.629 707.033 543.629C720.108 543.629 730.708 554.226 730.708 567.298Z" fill="#8DBBFB"/>
<path d="M711.768 670.182C711.768 663.733 716.997 658.505 723.448 658.505C729.898 658.505 735.127 663.733 735.127 670.182V697.323C735.127 703.772 729.898 709 723.448 709C716.997 709 711.768 703.772 711.768 697.323V670.182Z" fill="#8DBBFB"/>
<path d="M720.903 624.945C717.601 619.405 719.417 612.238 724.958 608.937C730.5 605.636 737.669 607.452 740.97 612.992L754.865 636.308C758.167 641.848 756.351 649.015 750.81 652.316C745.268 655.617 738.1 653.802 734.798 648.262L720.903 624.945Z" fill="#8DBBFB"/>
<path d="M673.099 613.073C676.324 607.488 683.467 605.574 689.054 608.799C694.64 612.023 696.554 619.165 693.329 624.75L679.755 648.255C676.53 653.84 669.387 655.753 663.8 652.529C658.214 649.304 656.3 642.163 659.525 636.578L673.099 613.073Z" fill="#8DBBFB"/>
<path d="M678.939 670.182C678.939 663.733 684.168 658.505 690.618 658.505C697.069 658.505 702.298 663.733 702.298 670.182V697.323C702.298 703.772 697.069 709 690.618 709C684.168 709 678.939 703.772 678.939 697.323V670.182Z" fill="#8DBBFB"/>
</g>
<g id="Vector_13" filter="url(#filter12_d_164_384)">
<path d="M801.055 617.451C806.248 594.492 838.967 594.492 844.16 617.451L852.593 654.737C855.719 668.554 845.211 681.701 831.041 681.701H814.173C800.003 681.701 789.496 668.554 792.621 654.737L801.055 617.451Z" fill="#8DBBFB"/>
<path d="M845.966 567.298C845.966 580.371 835.367 590.968 822.292 590.968C809.216 590.968 798.617 580.371 798.617 567.298C798.617 554.226 809.216 543.629 822.292 543.629C835.367 543.629 845.966 554.226 845.966 567.298Z" fill="#8DBBFB"/>
<path d="M827.027 670.182C827.027 663.733 832.256 658.505 838.706 658.505C845.157 658.505 850.386 663.733 850.386 670.182V697.323C850.386 703.772 845.157 709 838.706 709C832.256 709 827.027 703.772 827.027 697.323V670.182Z" fill="#8DBBFB"/>
<path d="M836.161 624.945C832.86 619.405 834.675 612.238 840.217 608.937C845.758 605.636 852.927 607.452 856.229 612.992L870.124 636.308C873.426 641.848 871.61 649.015 866.068 652.316C860.527 655.617 853.358 653.802 850.056 648.262L836.161 624.945Z" fill="#8DBBFB"/>
<path d="M788.358 613.073C791.583 607.488 798.726 605.574 804.312 608.799C809.899 612.023 811.813 619.165 808.587 624.75L795.014 648.255C791.788 653.84 784.645 655.753 779.059 652.529C773.473 649.304 771.559 642.163 774.784 636.578L788.358 613.073Z" fill="#8DBBFB"/>
<path d="M794.197 670.182C794.197 663.733 799.427 658.505 805.877 658.505C812.327 658.505 817.557 663.733 817.557 670.182V697.323C817.557 703.772 812.327 709 805.877 709C799.427 709 794.197 703.772 794.197 697.323V670.182Z" fill="#8DBBFB"/>
</g>
</g>
<path id="What happened?!" d="M428.18 453L420.116 427.8H426.416L430.376 440.652C430.544 441.228 430.7 441.828 430.844 442.452C431.012 443.052 431.156 443.676 431.276 444.324C431.42 444.948 431.54 445.536 431.636 446.088C431.732 446.64 431.804 447.096 431.852 447.456H430.844C430.988 446.664 431.144 445.896 431.312 445.152C431.48 444.408 431.66 443.664 431.852 442.92C432.068 442.176 432.308 441.432 432.572 440.688L436.388 431.076H441.356L445.1 440.652C445.412 441.468 445.688 442.272 445.928 443.064C446.192 443.856 446.408 444.612 446.576 445.332C446.744 446.028 446.852 446.688 446.9 447.312L446 447.42C446.048 447.012 446.096 446.604 446.144 446.196C446.192 445.764 446.252 445.32 446.324 444.864C446.396 444.408 446.48 443.952 446.576 443.496C446.672 443.04 446.78 442.572 446.9 442.092C447.044 441.588 447.188 441.084 447.332 440.58L451.544 427.8H457.628L449.132 453H444.452L438.224 438.024L439.052 438.096L433.148 453H428.18ZM463.333 453V426.36H468.985V438.348L467.617 438.816C467.857 437.856 468.361 436.98 469.129 436.188C469.921 435.372 470.881 434.724 472.009 434.244C473.137 433.74 474.337 433.488 475.609 433.488C477.241 433.488 478.609 433.824 479.713 434.496C480.841 435.144 481.681 436.068 482.233 437.268C482.809 438.444 483.097 439.824 483.097 441.408V453H477.301V442.308C477.301 441.444 477.145 440.724 476.833 440.148C476.545 439.548 476.101 439.092 475.501 438.78C474.925 438.468 474.253 438.324 473.485 438.348C472.861 438.348 472.273 438.456 471.721 438.672C471.193 438.864 470.725 439.152 470.317 439.536C469.933 439.896 469.633 440.316 469.417 440.796C469.201 441.276 469.093 441.792 469.093 442.344V453H466.249C465.457 453 464.821 453 464.341 453C463.861 453 463.525 453 463.333 453ZM499.259 453.324C497.363 453.324 495.707 452.904 494.291 452.064C492.875 451.224 491.759 450.06 490.943 448.572C490.151 447.06 489.755 445.344 489.755 443.424C489.755 441.48 490.163 439.764 490.979 438.276C491.795 436.788 492.923 435.624 494.363 434.784C495.827 433.92 497.507 433.488 499.403 433.488C500.483 433.488 501.479 433.632 502.391 433.92C503.303 434.184 504.095 434.556 504.767 435.036C505.463 435.516 506.027 436.044 506.459 436.62C506.915 437.196 507.215 437.796 507.359 438.42H506.099V433.884H511.787V453H505.991V448.104L507.215 448.284C507.071 448.908 506.771 449.52 506.315 450.12C505.859 450.72 505.271 451.26 504.551 451.74C503.831 452.22 503.015 452.604 502.103 452.892C501.215 453.18 500.267 453.324 499.259 453.324ZM500.807 448.464C501.887 448.464 502.823 448.26 503.615 447.852C504.431 447.444 505.055 446.868 505.487 446.124C505.943 445.356 506.171 444.456 506.171 443.424C506.171 442.416 505.943 441.54 505.487 440.796C505.055 440.028 504.431 439.428 503.615 438.996C502.823 438.564 501.887 438.348 500.807 438.348C499.727 438.348 498.791 438.564 497.999 438.996C497.207 439.428 496.583 440.028 496.127 440.796C495.695 441.54 495.479 442.416 495.479 443.424C495.479 444.456 495.695 445.356 496.127 446.124C496.583 446.868 497.207 447.444 497.999 447.852C498.791 448.26 499.727 448.464 500.807 448.464ZM522.545 453V428.628H528.305V453H522.545ZM518.297 438.924V433.884H533.165V438.924H518.297ZM554.739 453V426.36H560.391V438.348L559.023 438.816C559.263 437.856 559.767 436.98 560.535 436.188C561.327 435.372 562.287 434.724 563.415 434.244C564.543 433.74 565.743 433.488 567.015 433.488C568.647 433.488 570.015 433.824 571.119 434.496C572.247 435.144 573.087 436.068 573.639 437.268C574.215 438.444 574.503 439.824 574.503 441.408V453H568.707V442.308C568.707 441.444 568.551 440.724 568.239 440.148C567.951 439.548 567.507 439.092 566.907 438.78C566.331 438.468 565.659 438.324 564.891 438.348C564.267 438.348 563.679 438.456 563.127 438.672C562.599 438.864 562.131 439.152 561.723 439.536C561.339 439.896 561.039 440.316 560.823 440.796C560.607 441.276 560.499 441.792 560.499 442.344V453H557.655C556.863 453 556.227 453 555.747 453C555.267 453 554.931 453 554.739 453ZM590.665 453.324C588.769 453.324 587.113 452.904 585.697 452.064C584.281 451.224 583.165 450.06 582.349 448.572C581.557 447.06 581.161 445.344 581.161 443.424C581.161 441.48 581.569 439.764 582.385 438.276C583.201 436.788 584.329 435.624 585.769 434.784C587.233 433.92 588.913 433.488 590.809 433.488C591.889 433.488 592.885 433.632 593.797 433.92C594.709 434.184 595.501 434.556 596.173 435.036C596.869 435.516 597.433 436.044 597.865 436.62C598.321 437.196 598.621 437.796 598.765 438.42H597.505V433.884H603.193V453H597.397V448.104L598.621 448.284C598.477 448.908 598.177 449.52 597.721 450.12C597.265 450.72 596.677 451.26 595.957 451.74C595.237 452.22 594.421 452.604 593.509 452.892C592.621 453.18 591.673 453.324 590.665 453.324ZM592.213 448.464C593.293 448.464 594.229 448.26 595.021 447.852C595.837 447.444 596.461 446.868 596.893 446.124C597.349 445.356 597.577 444.456 597.577 443.424C597.577 442.416 597.349 441.54 596.893 440.796C596.461 440.028 595.837 439.428 595.021 438.996C594.229 438.564 593.293 438.348 592.213 438.348C591.133 438.348 590.197 438.564 589.405 438.996C588.613 439.428 587.989 440.028 587.533 440.796C587.101 441.54 586.885 442.416 586.885 443.424C586.885 444.456 587.101 445.356 587.533 446.124C587.989 446.868 588.613 447.444 589.405 447.852C590.197 448.26 591.133 448.464 592.213 448.464ZM612.079 460.92V433.884H617.551L617.767 438.168L616.687 437.844C616.855 437.076 617.311 436.368 618.055 435.72C618.799 435.072 619.735 434.544 620.863 434.136C622.015 433.728 623.239 433.524 624.535 433.524C626.407 433.524 628.051 433.956 629.467 434.82C630.883 435.66 631.987 436.824 632.779 438.312C633.595 439.776 634.003 441.48 634.003 443.424C634.003 445.344 633.595 447.048 632.779 448.536C631.987 450.024 630.871 451.2 629.431 452.064C627.991 452.904 626.335 453.324 624.463 453.324C623.167 453.324 621.955 453.108 620.827 452.676C619.699 452.244 618.751 451.68 617.983 450.984C617.239 450.288 616.759 449.556 616.543 448.788L617.875 448.284V460.92H612.079ZM623.059 448.464C624.139 448.464 625.075 448.26 625.867 447.852C626.659 447.42 627.271 446.832 627.703 446.088C628.159 445.344 628.387 444.456 628.387 443.424C628.387 442.416 628.159 441.54 627.703 440.796C627.271 440.028 626.659 439.44 625.867 439.032C625.099 438.6 624.163 438.384 623.059 438.384C621.979 438.384 621.031 438.588 620.215 438.996C619.423 439.404 618.799 439.992 618.343 440.76C617.911 441.528 617.695 442.416 617.695 443.424C617.695 444.456 617.911 445.344 618.343 446.088C618.799 446.832 619.423 447.42 620.215 447.852C621.031 448.26 621.979 448.464 623.059 448.464ZM641.153 460.92V433.884H646.625L646.841 438.168L645.761 437.844C645.929 437.076 646.385 436.368 647.129 435.72C647.873 435.072 648.809 434.544 649.937 434.136C651.089 433.728 652.313 433.524 653.609 433.524C655.481 433.524 657.125 433.956 658.541 434.82C659.957 435.66 661.061 436.824 661.853 438.312C662.669 439.776 663.077 441.48 663.077 443.424C663.077 445.344 662.669 447.048 661.853 448.536C661.061 450.024 659.945 451.2 658.505 452.064C657.065 452.904 655.409 453.324 653.537 453.324C652.241 453.324 651.029 453.108 649.901 452.676C648.773 452.244 647.825 451.68 647.057 450.984C646.313 450.288 645.833 449.556 645.617 448.788L646.949 448.284V460.92H641.153ZM652.133 448.464C653.213 448.464 654.149 448.26 654.941 447.852C655.733 447.42 656.345 446.832 656.777 446.088C657.233 445.344 657.461 444.456 657.461 443.424C657.461 442.416 657.233 441.54 656.777 440.796C656.345 440.028 655.733 439.44 654.941 439.032C654.173 438.6 653.237 438.384 652.133 438.384C651.053 438.384 650.105 438.588 649.289 438.996C648.497 439.404 647.873 439.992 647.417 440.76C646.985 441.528 646.769 442.416 646.769 443.424C646.769 444.456 646.985 445.344 647.417 446.088C647.873 446.832 648.497 447.42 649.289 447.852C650.105 448.26 651.053 448.464 652.133 448.464ZM679.659 453.36C677.331 453.36 675.291 452.94 673.539 452.1C671.811 451.236 670.467 450.072 669.507 448.608C668.547 447.12 668.067 445.428 668.067 443.532C668.067 442.02 668.343 440.652 668.895 439.428C669.447 438.204 670.215 437.148 671.199 436.26C672.183 435.372 673.335 434.688 674.655 434.208C675.975 433.728 677.403 433.488 678.939 433.488C680.427 433.488 681.795 433.728 683.043 434.208C684.291 434.664 685.371 435.324 686.283 436.188C687.219 437.052 687.939 438.072 688.443 439.248C688.947 440.424 689.175 441.72 689.127 443.136L689.091 444.756H671.847L671.019 441.408H684.411L683.799 442.128V441.408C683.727 440.808 683.463 440.268 683.007 439.788C682.575 439.308 682.011 438.936 681.315 438.672C680.619 438.384 679.851 438.24 679.011 438.24C677.931 438.24 676.971 438.42 676.131 438.78C675.291 439.116 674.631 439.644 674.151 440.364C673.695 441.084 673.467 441.996 673.467 443.1C673.467 444.156 673.743 445.08 674.295 445.872C674.871 446.664 675.675 447.288 676.707 447.744C677.763 448.2 678.999 448.428 680.415 448.428C681.639 448.428 682.659 448.284 683.475 447.996C684.315 447.684 685.071 447.3 685.743 446.844L688.335 450.588C687.543 451.188 686.667 451.704 685.707 452.136C684.771 452.544 683.787 452.844 682.755 453.036C681.747 453.252 680.715 453.36 679.659 453.36ZM696.278 453V433.884H701.75L701.93 438.348L700.562 438.744C700.874 437.808 701.402 436.944 702.146 436.152C702.914 435.36 703.838 434.724 704.918 434.244C706.022 433.74 707.21 433.488 708.482 433.488C710.114 433.488 711.494 433.812 712.622 434.46C713.75 435.108 714.602 436.032 715.178 437.232C715.754 438.408 716.042 439.812 716.042 441.444V453H710.246V442.272C710.246 441.432 710.09 440.724 709.778 440.148C709.49 439.572 709.046 439.128 708.446 438.816C707.87 438.504 707.198 438.348 706.43 438.348C705.758 438.348 705.146 438.468 704.594 438.708C704.066 438.924 703.61 439.224 703.226 439.608C702.842 439.968 702.542 440.376 702.326 440.832C702.134 441.288 702.038 441.756 702.038 442.236V453H699.194C698.402 453 697.766 453 697.286 453C696.806 453 696.47 453 696.278 453ZM734.292 453.36C731.964 453.36 729.924 452.94 728.172 452.1C726.444 451.236 725.1 450.072 724.14 448.608C723.18 447.12 722.7 445.428 722.7 443.532C722.7 442.02 722.976 440.652 723.528 439.428C724.08 438.204 724.848 437.148 725.832 436.26C726.816 435.372 727.968 434.688 729.288 434.208C730.608 433.728 732.036 433.488 733.572 433.488C735.06 433.488 736.428 433.728 737.676 434.208C738.924 434.664 740.004 435.324 740.916 436.188C741.852 437.052 742.572 438.072 743.076 439.248C743.58 440.424 743.808 441.72 743.76 443.136L743.724 444.756H726.48L725.652 441.408H739.044L738.432 442.128V441.408C738.36 440.808 738.096 440.268 737.64 439.788C737.208 439.308 736.644 438.936 735.948 438.672C735.252 438.384 734.484 438.24 733.644 438.24C732.564 438.24 731.604 438.42 730.764 438.78C729.924 439.116 729.264 439.644 728.784 440.364C728.328 441.084 728.1 441.996 728.1 443.1C728.1 444.156 728.376 445.08 728.928 445.872C729.504 446.664 730.308 447.288 731.34 447.744C732.396 448.2 733.632 448.428 735.048 448.428C736.272 448.428 737.292 448.284 738.108 447.996C738.948 447.684 739.704 447.3 740.376 446.844L742.968 450.588C742.176 451.188 741.3 451.704 740.34 452.136C739.404 452.544 738.42 452.844 737.388 453.036C736.38 453.252 735.348 453.36 734.292 453.36ZM758.183 453.396C756.311 453.396 754.667 452.976 753.251 452.136C751.835 451.272 750.731 450.096 749.939 448.608C749.147 447.096 748.751 445.38 748.751 443.46C748.751 441.54 749.159 439.836 749.975 438.348C750.791 436.836 751.919 435.648 753.359 434.784C754.823 433.92 756.503 433.488 758.399 433.488C759.455 433.488 760.439 433.632 761.351 433.92C762.263 434.184 763.079 434.544 763.799 435C764.543 435.456 765.131 435.984 765.563 436.584C766.019 437.16 766.283 437.748 766.355 438.348L764.987 438.672V426.36H770.783V453H765.419L765.095 448.356L766.247 448.644C766.175 449.244 765.911 449.832 765.455 450.408C764.999 450.96 764.399 451.464 763.655 451.92C762.935 452.352 762.107 452.712 761.171 453C760.235 453.264 759.239 453.396 758.183 453.396ZM759.803 448.536C760.883 448.536 761.819 448.32 762.611 447.888C763.427 447.456 764.051 446.868 764.483 446.124C764.915 445.356 765.131 444.468 765.131 443.46C765.131 442.428 764.915 441.54 764.483 440.796C764.051 440.028 763.427 439.44 762.611 439.032C761.819 438.6 760.883 438.384 759.803 438.384C758.723 438.384 757.787 438.6 756.995 439.032C756.203 439.44 755.579 440.028 755.123 440.796C754.691 441.54 754.475 442.428 754.475 443.46C754.475 444.468 754.691 445.356 755.123 446.124C755.579 446.868 756.203 447.456 756.995 447.888C757.787 448.32 758.723 448.536 759.803 448.536ZM784.108 444.36L782.956 439.428C783.58 439.308 784.216 439.152 784.864 438.96C785.512 438.768 786.148 438.552 786.772 438.312C787.396 438.072 787.936 437.784 788.392 437.448C788.872 437.112 789.244 436.74 789.508 436.332C789.796 435.9 789.94 435.444 789.94 434.964C789.94 434.46 789.784 434.052 789.472 433.74C789.184 433.404 788.8 433.164 788.32 433.02C787.864 432.852 787.348 432.768 786.772 432.768C785.62 432.768 784.54 433.056 783.532 433.632C782.548 434.208 781.66 435.108 780.868 436.332L776.944 432.48C778.144 430.848 779.584 429.576 781.264 428.664C782.968 427.728 784.828 427.26 786.844 427.26C788.572 427.26 790.12 427.584 791.488 428.232C792.88 428.856 793.972 429.732 794.764 430.86C795.556 431.964 795.952 433.212 795.952 434.604C795.952 435.516 795.736 436.416 795.304 437.304C794.872 438.168 794.272 438.972 793.504 439.716C792.76 440.46 791.896 441.12 790.912 441.696C789.928 442.248 788.872 442.68 787.744 442.992L787.348 444.36H784.108ZM782.56 450.192C782.56 449.28 782.872 448.512 783.496 447.888C784.144 447.264 785.032 446.952 786.16 446.952C787.336 446.952 788.236 447.24 788.86 447.816C789.484 448.392 789.796 449.184 789.796 450.192C789.796 451.08 789.472 451.836 788.824 452.46C788.2 453.084 787.312 453.396 786.16 453.396C784.984 453.396 784.084 453.12 783.46 452.568C782.86 451.992 782.56 451.2 782.56 450.192ZM804.559 443.82C804.295 442.428 804.031 440.964 803.767 439.428C803.527 437.892 803.323 436.344 803.155 434.784C802.987 433.2 802.903 431.676 802.903 430.212V427.404H809.851V430.212C809.851 431.676 809.767 433.2 809.599 434.784C809.455 436.344 809.251 437.892 808.987 439.428C808.747 440.964 808.471 442.428 808.159 443.82H804.559ZM806.395 453.396C805.219 453.396 804.319 453.12 803.695 452.568C803.071 451.992 802.759 451.2 802.759 450.192C802.759 449.28 803.071 448.512 803.695 447.888C804.343 447.264 805.243 446.952 806.395 446.952C807.571 446.952 808.459 447.24 809.059 447.816C809.683 448.392 809.995 449.184 809.995 450.192C809.995 451.08 809.671 451.836 809.023 452.46C808.399 453.084 807.523 453.396 806.395 453.396Z" fill="white"/>
</g>
<defs>
<filter id="filter0_d_164_384" x="136" y="612" width="206" height="126" filterUnits="userSpaceOnUse" color-interpolation-filters="sRGB">
<feFlood flood-opacity="0" result="BackgroundImageFix"/>
<feColorMatrix in="SourceAlpha" type="matrix" values="0 0 0 0 0 0 0 0 0 0 0 0 0 0 0 0 0 0 127 0" result="hardAlpha"/>
<feOffset dy="4"/>
<feGaussianBlur stdDeviation="2"/>
<feComposite in2="hardAlpha" operator="out"/>
<feColorMatrix type="matrix" values="0 0 0 0 0 0 0 0 0 0 0 0 0 0 0 0 0 0 0.25 0"/>
<feBlend mode="normal" in2="BackgroundImageFix" result="effect1_dropShadow_164_384"/>
<feBlend mode="normal" in="SourceGraphic" in2="effect1_dropShadow_164_384" result="shape"/>
</filter>
<filter id="filter1_d_164_384" x="463.532" y="486" width="91.5206" height="148.314" filterUnits="userSpaceOnUse" color-interpolation-filters="sRGB">
<feFlood flood-opacity="0" result="BackgroundImageFix"/>
<feColorMatrix in="SourceAlpha" type="matrix" values="0 0 0 0 0 0 0 0 0 0 0 0 0 0 0 0 0 0 127 0" result="hardAlpha"/>
<feOffset dy="4"/>
<feGaussianBlur stdDeviation="2"/>
<feComposite in2="hardAlpha" operator="out"/>
<feColorMatrix type="matrix" values="0 0 0 0 0 0 0 0 0 0 0 0 0 0 0 0 0 0 0.25 0"/>
<feBlend mode="normal" in2="BackgroundImageFix" result="effect1_dropShadow_164_384"/>
<feBlend mode="normal" in="SourceGraphic" in2="effect1_dropShadow_164_384" result="shape"/>
</filter>
<filter id="filter2_d_164_384" x="658.97" y="486" width="92.3557" height="148.314" filterUnits="userSpaceOnUse" color-interpolation-filters="sRGB">
<feFlood flood-opacity="0" result="BackgroundImageFix"/>
<feColorMatrix in="SourceAlpha" type="matrix" values="0 0 0 0 0 0 0 0 0 0 0 0 0 0 0 0 0 0 127 0" result="hardAlpha"/>
<feOffset dy="4"/>
<feGaussianBlur stdDeviation="2"/>
<feComposite in2="hardAlpha" operator="out"/>
<feColorMatrix type="matrix" values="0 0 0 0 0 0 0 0 0 0 0 0 0 0 0 0 0 0 0.25 0"/>
<feBlend mode="normal" in2="BackgroundImageFix" result="effect1_dropShadow_164_384"/>
<feBlend mode="normal" in="SourceGraphic" in2="effect1_dropShadow_164_384" result="shape"/>
</filter>
<filter id="filter3_d_164_384" x="561.251" y="486" width="92.3557" height="148.314" filterUnits="userSpaceOnUse" color-interpolation-filters="sRGB">
<feFlood flood-opacity="0" result="BackgroundImageFix"/>
<feColorMatrix in="SourceAlpha" type="matrix" values="0 0 0 0 0 0 0 0 0 0 0 0 0 0 0 0 0 0 127 0" result="hardAlpha"/>
<feOffset dy="4"/>
<feGaussianBlur stdDeviation="2"/>
<feComposite in2="hardAlpha" operator="out"/>
<feColorMatrix type="matrix" values="0 0 0 0 0 0 0 0 0 0 0 0 0 0 0 0 0 0 0.25 0"/>
<feBlend mode="normal" in2="BackgroundImageFix" result="effect1_dropShadow_164_384"/>
<feBlend mode="normal" in="SourceGraphic" in2="effect1_dropShadow_164_384" result="shape"/>
</filter>
<filter id="filter4_d_164_384" x="757.524" y="486" width="91.5205" height="148.314" filterUnits="userSpaceOnUse" color-interpolation-filters="sRGB">
<feFlood flood-opacity="0" result="BackgroundImageFix"/>
<feColorMatrix in="SourceAlpha" type="matrix" values="0 0 0 0 0 0 0 0 0 0 0 0 0 0 0 0 0 0 127 0" result="hardAlpha"/>
<feOffset dy="4"/>
<feGaussianBlur stdDeviation="2"/>
<feComposite in2="hardAlpha" operator="out"/>
<feColorMatrix type="matrix" values="0 0 0 0 0 0 0 0 0 0 0 0 0 0 0 0 0 0 0.25 0"/>
<feBlend mode="normal" in2="BackgroundImageFix" result="effect1_dropShadow_164_384"/>
<feBlend mode="normal" in="SourceGraphic" in2="effect1_dropShadow_164_384" result="shape"/>
</filter>
<filter id="filter5_d_164_384" x="375" y="505.209" width="106.554" height="173.371" filterUnits="userSpaceOnUse" color-interpolation-filters="sRGB">
<feFlood flood-opacity="0" result="BackgroundImageFix"/>
<feColorMatrix in="SourceAlpha" type="matrix" values="0 0 0 0 0 0 0 0 0 0 0 0 0 0 0 0 0 0 127 0" result="hardAlpha"/>
<feOffset dy="4"/>
<feGaussianBlur stdDeviation="2"/>
<feComposite in2="hardAlpha" operator="out"/>
<feColorMatrix type="matrix" values="0 0 0 0 0 0 0 0 0 0 0 0 0 0 0 0 0 0 0.25 0"/>
<feBlend mode="normal" in2="BackgroundImageFix" result="effect1_dropShadow_164_384"/>
<feBlend mode="normal" in="SourceGraphic" in2="effect1_dropShadow_164_384" result="shape"/>
</filter>
<filter id="filter6_d_164_384" x="605.517" y="505.209" width="106.554" height="173.371" filterUnits="userSpaceOnUse" color-interpolation-filters="sRGB">
<feFlood flood-opacity="0" result="BackgroundImageFix"/>
<feColorMatrix in="SourceAlpha" type="matrix" values="0 0 0 0 0 0 0 0 0 0 0 0 0 0 0 0 0 0 127 0" result="hardAlpha"/>
<feOffset dy="4"/>
<feGaussianBlur stdDeviation="2"/>
<feComposite in2="hardAlpha" operator="out"/>
<feColorMatrix type="matrix" values="0 0 0 0 0 0 0 0 0 0 0 0 0 0 0 0 0 0 0.25 0"/>
<feBlend mode="normal" in2="BackgroundImageFix" result="effect1_dropShadow_164_384"/>
<feBlend mode="normal" in="SourceGraphic" in2="effect1_dropShadow_164_384" result="shape"/>
</filter>
<filter id="filter7_d_164_384" x="490.258" y="505.209" width="106.554" height="173.371" filterUnits="userSpaceOnUse" color-interpolation-filters="sRGB">
<feFlood flood-opacity="0" result="BackgroundImageFix"/>
<feColorMatrix in="SourceAlpha" type="matrix" values="0 0 0 0 0 0 0 0 0 0 0 0 0 0 0 0 0 0 127 0" result="hardAlpha"/>
<feOffset dy="4"/>
<feGaussianBlur stdDeviation="2"/>
<feComposite in2="hardAlpha" operator="out"/>
<feColorMatrix type="matrix" values="0 0 0 0 0 0 0 0 0 0 0 0 0 0 0 0 0 0 0.25 0"/>
<feBlend mode="normal" in2="BackgroundImageFix" result="effect1_dropShadow_164_384"/>
<feBlend mode="normal" in="SourceGraphic" in2="effect1_dropShadow_164_384" result="shape"/>
</filter>
<filter id="filter8_d_164_384" x="538.7" y="543.629" width="106.554" height="173.371" filterUnits="userSpaceOnUse" color-interpolation-filters="sRGB">
<feFlood flood-opacity="0" result="BackgroundImageFix"/>
<feColorMatrix in="SourceAlpha" type="matrix" values="0 0 0 0 0 0 0 0 0 0 0 0 0 0 0 0 0 0 127 0" result="hardAlpha"/>
<feOffset dy="4"/>
<feGaussianBlur stdDeviation="2"/>
<feComposite in2="hardAlpha" operator="out"/>
<feColorMatrix type="matrix" values="0 0 0 0 0 0 0 0 0 0 0 0 0 0 0 0 0 0 0.25 0"/>
<feBlend mode="normal" in2="BackgroundImageFix" result="effect1_dropShadow_164_384"/>
<feBlend mode="normal" in="SourceGraphic" in2="effect1_dropShadow_164_384" result="shape"/>
</filter>
<filter id="filter9_d_164_384" x="720.775" y="505.209" width="106.554" height="173.371" filterUnits="userSpaceOnUse" color-interpolation-filters="sRGB">
<feFlood flood-opacity="0" result="BackgroundImageFix"/>
<feColorMatrix in="SourceAlpha" type="matrix" values="0 0 0 0 0 0 0 0 0 0 0 0 0 0 0 0 0 0 127 0" result="hardAlpha"/>
<feOffset dy="4"/>
<feGaussianBlur stdDeviation="2"/>
<feComposite in2="hardAlpha" operator="out"/>
<feColorMatrix type="matrix" values="0 0 0 0 0 0 0 0 0 0 0 0 0 0 0 0 0 0 0.25 0"/>
<feBlend mode="normal" in2="BackgroundImageFix" result="effect1_dropShadow_164_384"/>
<feBlend mode="normal" in="SourceGraphic" in2="effect1_dropShadow_164_384" result="shape"/>
</filter>
<filter id="filter10_d_164_384" x="423.442" y="543.629" width="106.554" height="173.371" filterUnits="userSpaceOnUse" color-interpolation-filters="sRGB">
<feFlood flood-opacity="0" result="BackgroundImageFix"/>
<feColorMatrix in="SourceAlpha" type="matrix" values="0 0 0 0 0 0 0 0 0 0 0 0 0 0 0 0 0 0 127 0" result="hardAlpha"/>
<feOffset dy="4"/>
<feGaussianBlur stdDeviation="2"/>
<feComposite in2="hardAlpha" operator="out"/>
<feColorMatrix type="matrix" values="0 0 0 0 0 0 0 0 0 0 0 0 0 0 0 0 0 0 0.25 0"/>
<feBlend mode="normal" in2="BackgroundImageFix" result="effect1_dropShadow_164_384"/>
<feBlend mode="normal" in="SourceGraphic" in2="effect1_dropShadow_164_384" result="shape"/>
</filter>
<filter id="filter11_d_164_384" x="653.959" y="543.629" width="106.554" height="173.371" filterUnits="userSpaceOnUse" color-interpolation-filters="sRGB">
<feFlood flood-opacity="0" result="BackgroundImageFix"/>
<feColorMatrix in="SourceAlpha" type="matrix" values="0 0 0 0 0 0 0 0 0 0 0 0 0 0 0 0 0 0 127 0" result="hardAlpha"/>
<feOffset dy="4"/>
<feGaussianBlur stdDeviation="2"/>
<feComposite in2="hardAlpha" operator="out"/>
<feColorMatrix type="matrix" values="0 0 0 0 0 0 0 0 0 0 0 0 0 0 0 0 0 0 0.25 0"/>
<feBlend mode="normal" in2="BackgroundImageFix" result="effect1_dropShadow_164_384"/>
<feBlend mode="normal" in="SourceGraphic" in2="effect1_dropShadow_164_384" result="shape"/>
</filter>
<filter id="filter12_d_164_384" x="769.217" y="543.629" width="106.554" height="173.371" filterUnits="userSpaceOnUse" color-interpolation-filters="sRGB">
<feFlood flood-opacity="0" result="BackgroundImageFix"/>
<feColorMatrix in="SourceAlpha" type="matrix" values="0 0 0 0 0 0 0 0 0 0 0 0 0 0 0 0 0 0 127 0" result="hardAlpha"/>
<feOffset dy="4"/>
<feGaussianBlur stdDeviation="2"/>
<feComposite in2="hardAlpha" operator="out"/>
<feColorMatrix type="matrix" values="0 0 0 0 0 0 0 0 0 0 0 0 0 0 0 0 0 0 0.25 0"/>
<feBlend mode="normal" in2="BackgroundImageFix" result="effect1_dropShadow_164_384"/>
<feBlend mode="normal" in="SourceGraphic" in2="effect1_dropShadow_164_384" result="shape"/>
</filter>
<clipPath id="clip0_164_384">
<rect width="1440" height="1024" fill="white"/>
</clipPath>
</defs>
</svg>
