<svg width="1440" height="1024" viewBox="0 0 1440 1024" fill="none" xmlns="http://www.w3.org/2000/svg">
<g id="recognize3-yes" clip-path="url(#clip0_164_309)">
<rect width="1440" height="1024" fill="#333148"/>
<path id="part 4" d="M47.096 132.12V60.024H61.688L62.264 71.448L59.384 70.584C59.832 68.536 61.048 66.648 63.032 64.92C65.016 63.192 67.512 61.784 70.52 60.696C73.592 59.608 76.856 59.064 80.312 59.064C85.304 59.064 89.688 60.216 93.464 62.52C97.24 64.76 100.184 67.864 102.296 71.832C104.472 75.736 105.56 80.28 105.56 85.464C105.56 90.584 104.472 95.128 102.296 99.096C100.184 103.064 97.208 106.2 93.368 108.504C89.528 110.744 85.112 111.864 80.12 111.864C76.664 111.864 73.432 111.288 70.424 110.136C67.416 108.984 64.888 107.48 62.84 105.624C60.856 103.768 59.576 101.816 59 99.768L62.552 98.424V132.12H47.096ZM76.376 98.904C79.256 98.904 81.752 98.36 83.864 97.272C85.976 96.12 87.608 94.552 88.76 92.568C89.976 90.584 90.584 88.216 90.584 85.464C90.584 82.776 89.976 80.44 88.76 78.456C87.608 76.408 85.976 74.84 83.864 73.752C81.816 72.6 79.32 72.024 76.376 72.024C73.496 72.024 70.968 72.568 68.792 73.656C66.68 74.744 65.016 76.312 63.8 78.36C62.648 80.408 62.072 82.776 62.072 85.464C62.072 88.216 62.648 90.584 63.8 92.568C65.016 94.552 66.68 96.12 68.792 97.272C70.968 98.36 73.496 98.904 76.376 98.904ZM144.211 111.864C139.155 111.864 134.739 110.744 130.963 108.504C127.187 106.264 124.211 103.16 122.035 99.192C119.923 95.16 118.867 90.584 118.867 85.464C118.867 80.28 119.955 75.704 122.131 71.736C124.307 67.768 127.315 64.664 131.155 62.424C135.059 60.12 139.539 58.968 144.595 58.968C147.475 58.968 150.131 59.352 152.563 60.12C154.995 60.824 157.107 61.816 158.899 63.096C160.755 64.376 162.259 65.784 163.411 67.32C164.627 68.856 165.427 70.456 165.811 72.12H162.451V60.024H177.619V111H162.163V97.944L165.427 98.424C165.043 100.088 164.243 101.72 163.027 103.32C161.811 104.92 160.243 106.36 158.323 107.64C156.403 108.92 154.227 109.944 151.795 110.712C149.427 111.48 146.899 111.864 144.211 111.864ZM148.339 98.904C151.219 98.904 153.715 98.36 155.827 97.272C158.003 96.184 159.667 94.648 160.819 92.664C162.035 90.616 162.643 88.216 162.643 85.464C162.643 82.776 162.035 80.44 160.819 78.456C159.667 76.408 158.003 74.808 155.827 73.656C153.715 72.504 151.219 71.928 148.339 71.928C145.459 71.928 142.963 72.504 140.851 73.656C138.739 74.808 137.075 76.408 135.859 78.456C134.707 80.44 134.131 82.776 134.131 85.464C134.131 88.216 134.707 90.616 135.859 92.664C137.075 94.648 138.739 96.184 140.851 97.272C142.963 98.36 145.459 98.904 148.339 98.904ZM201.315 111V60.024H215.907L216.579 77.592L212.931 75.768C213.763 72.632 215.203 69.816 217.251 67.32C219.363 64.76 221.763 62.744 224.451 61.272C227.203 59.736 230.115 58.968 233.187 58.968C234.851 58.968 236.419 59.128 237.891 59.448C239.427 59.768 240.739 60.184 241.827 60.696L237.603 77.496C236.643 76.792 235.331 76.248 233.667 75.864C232.067 75.48 230.435 75.288 228.771 75.288C226.915 75.288 225.219 75.608 223.683 76.248C222.211 76.824 220.963 77.656 219.939 78.744C218.915 79.768 218.115 80.952 217.539 82.296C217.027 83.64 216.771 85.08 216.771 86.616V111H201.315ZM265.932 111V46.008H281.292V111H265.932ZM254.604 73.464V60.024H294.252V73.464H254.604ZM377.032 111V53.304H387.112L357.544 88.248L355.624 83.736H405.256V96.984H349.48L343.048 84.6L378.856 43.224H392.776V111H377.032Z" fill="white"/>
<rect id="Rectangle 7" y="462" width="1567" height="626" fill="#211F2F"/>
<g id="Group 34">
<line id="Line 1" x1="452.501" y1="458.707" x2="452.501" y2="112.707" stroke="#485C77" stroke-width="25" stroke-linecap="round"/>
<rect id="Rectangle 8" x="440.001" y="100.209" width="172" height="96" rx="14" fill="#3B5EC6"/>
<rect id="Rectangle 9" x="510.001" y="100.209" width="32" height="96" fill="white"/>
<rect id="Rectangle 11" x="609" y="97.209" width="21.7609" height="196.456" rx="10.8804" transform="rotate(62.972 609 97.209)" fill="white"/>
<rect id="Rectangle 12" x="616.953" y="191.229" width="21.7609" height="196.456" rx="10.8804" transform="rotate(120 616.953 191.229)" fill="white"/>
<rect id="Rectangle 10" x="440.001" y="164.209" width="27" height="172" transform="rotate(-90 440.001 164.209)" fill="white"/>
<rect id="Rectangle 13" x="608.061" y="102.566" width="13.0698" height="189.913" rx="6.53491" transform="rotate(62.972 608.061 102.566)" fill="#EF1044"/>
<rect id="Rectangle 14" x="612.058" y="193" width="13.0698" height="189.913" rx="6.53491" transform="rotate(120 612.058 193)" fill="#EF1044"/>
<rect id="Rectangle 15" x="440.001" y="144.209" width="172" height="14" fill="#EF1044"/>
<rect id="Rectangle 16" x="534.001" y="100.209" width="96" height="16" transform="rotate(90 534.001 100.209)" fill="#EF1044"/>
</g>
<g id="Group 33">
<path id="Polygon 1" d="M769.372 285.85C785.607 268.261 813.393 268.261 829.628 285.85L1058.58 533.9C1082.82 560.164 1064.2 602.709 1028.46 602.709H570.545C534.803 602.709 516.175 560.164 540.417 533.9L769.372 285.85Z" fill="#485C77"/>
<rect id="Rectangle 17" x="748" y="447.209" width="104" height="198" rx="28" fill="#201F2F"/>
</g>
<g id="next">
<g id="Next">
<path id="Next_2" d="M1100.81 909V864.2H1110.79L1137.86 896.2L1136.01 895.88C1135.75 894.387 1135.56 892.957 1135.43 891.592C1135.3 890.227 1135.18 888.904 1135.05 887.624C1134.96 886.344 1134.88 885.064 1134.79 883.784C1134.75 882.504 1134.73 881.16 1134.73 879.752C1134.73 878.344 1134.73 876.851 1134.73 875.272V864.2H1145.29V909H1135.18L1107.08 875.976L1110.09 876.424C1110.22 877.917 1110.34 879.261 1110.47 880.456C1110.64 881.651 1110.77 882.781 1110.86 883.848C1110.98 884.872 1111.07 885.917 1111.11 886.984C1111.2 888.008 1111.26 889.096 1111.3 890.248C1111.35 891.4 1111.37 892.659 1111.37 894.024V909H1100.81ZM1177.89 909.64C1173.76 909.64 1170.13 908.893 1167.01 907.4C1163.94 905.864 1161.55 903.795 1159.85 901.192C1158.14 898.547 1157.29 895.539 1157.29 892.168C1157.29 889.48 1157.78 887.048 1158.76 884.872C1159.74 882.696 1161.11 880.819 1162.85 879.24C1164.6 877.661 1166.65 876.445 1169 875.592C1171.35 874.739 1173.88 874.312 1176.61 874.312C1179.26 874.312 1181.69 874.739 1183.91 875.592C1186.13 876.403 1188.05 877.576 1189.67 879.112C1191.33 880.648 1192.61 882.461 1193.51 884.552C1194.41 886.643 1194.81 888.947 1194.73 891.464L1194.66 894.344H1164.01L1162.53 888.392H1186.34L1185.25 889.672V888.392C1185.13 887.325 1184.66 886.365 1183.85 885.512C1183.08 884.659 1182.08 883.997 1180.84 883.528C1179.6 883.016 1178.24 882.76 1176.74 882.76C1174.82 882.76 1173.12 883.08 1171.62 883.72C1170.13 884.317 1168.96 885.256 1168.1 886.536C1167.29 887.816 1166.89 889.437 1166.89 891.4C1166.89 893.277 1167.38 894.92 1168.36 896.328C1169.38 897.736 1170.81 898.845 1172.65 899.656C1174.52 900.467 1176.72 900.872 1179.24 900.872C1181.41 900.872 1183.23 900.616 1184.68 900.104C1186.17 899.549 1187.52 898.867 1188.71 898.056L1193.32 904.712C1191.91 905.779 1190.35 906.696 1188.65 907.464C1186.98 908.189 1185.23 908.723 1183.4 909.064C1181.61 909.448 1179.77 909.64 1177.89 909.64ZM1231.57 909L1222.16 896.776L1219.54 893.32L1204.63 875.016H1217.56L1226 886.216L1228.82 889.928L1244.37 909H1231.57ZM1203.8 909L1219.03 889.8L1225.24 896.136L1216.53 909H1203.8ZM1228.76 894.216L1222.74 887.816L1231.32 875.016H1243.99L1228.76 894.216ZM1260.39 909V865.672H1270.63V909H1260.39ZM1252.84 883.976V875.016H1279.27V883.976H1252.84Z" fill="white"/>
</g>
<path id="Arrow 1" d="M1094 913.5C1089.31 913.5 1085.5 917.306 1085.5 922C1085.5 926.694 1089.31 930.5 1094 930.5V922V913.5ZM1371 922L1286 872.925V971.075L1371 922ZM1094 922V930.5H1294.5V922V913.5H1094V922Z" fill="#EF1044"/>
</g>
<g id="Group 32">
<g id="Group 31">
<rect id="Rectangle 31" x="905" y="176.209" width="93" height="352" rx="36" fill="#485C77"/>
<rect id="Rectangle 32" x="794.855" y="159.469" width="264.672" height="73.942" rx="36.971" transform="rotate(-8.76431 794.855 159.469)" fill="#405066"/>
<path id="Polygon 8" d="M931.054 210.908C933.371 217.288 932.108 224.42 927.741 229.617L880.094 286.315C875.727 291.512 868.919 293.984 862.235 292.801L789.309 279.886C782.625 278.703 777.08 274.043 774.763 267.663L749.484 198.05C747.167 191.669 748.43 184.538 752.797 179.341L800.444 122.642C804.811 117.445 811.619 114.973 818.303 116.157L891.229 129.071C897.913 130.255 903.458 134.915 905.775 141.295L931.054 210.908Z" fill="#73839A"/>
<ellipse id="Ellipse 13" cx="840" cy="204.209" rx="64" ry="67" fill="#C63B3B"/>
<line id="Line 18" x1="760.047" y1="190.796" x2="786.587" y2="222.162" stroke="#201F2F" stroke-width="10" stroke-linecap="round"/>
<line id="Line 19" x1="814.706" y1="130.231" x2="792.022" y2="225.503" stroke="#201F2F" stroke-width="10" stroke-linecap="round"/>
<line id="Line 20" x1="893.123" y1="147.225" x2="793.016" y2="225.086" stroke="#201F2F" stroke-width="10" stroke-linecap="round"/>
<line id="Line 21" x1="916.383" y1="224.565" x2="791.356" y2="233.826" stroke="#201F2F" stroke-width="10" stroke-linecap="round"/>
<line id="Line 22" x1="865.051" y1="286.518" x2="791.309" y2="236.158" stroke="#201F2F" stroke-width="10" stroke-linecap="round"/>
<line id="Line 23" x1="781.485" y1="269.767" x2="784.558" y2="236.724" stroke="#201F2F" stroke-width="10" stroke-linecap="round"/>
</g>
<circle id="Ellipse 14" cx="785.5" cy="228.709" r="18.5" fill="#DC4B4B"/>
</g>
<g id="Group 3">
<g id="Vector" filter="url(#filter0_d_164_309)">
<path d="M228.388 696.67C200.899 690.452 200.899 651.278 228.388 645.06L273.03 634.962C289.575 631.22 305.315 643.801 305.315 660.767L305.315 680.963C305.315 697.929 289.575 710.51 273.03 706.768L228.388 696.67Z" fill="#8DBBFB"/>
<path d="M168.34 642.897C183.991 642.897 196.679 655.588 196.679 671.243C196.679 686.898 183.991 699.589 168.34 699.589C152.688 699.589 140 686.898 140 671.243C140 655.588 152.688 642.897 168.34 642.897Z" fill="#8DBBFB"/>
<path d="M291.523 665.574C283.801 665.574 277.542 659.313 277.542 651.59C277.542 643.866 283.801 637.605 291.523 637.605L324.019 637.605C331.741 637.605 338 643.866 338 651.59C338 659.313 331.741 665.574 324.019 665.574L291.523 665.574Z" fill="#8DBBFB"/>
<path d="M237.361 654.636C230.728 658.59 222.146 656.416 218.194 649.781C214.242 643.146 216.416 634.563 223.049 630.61L250.966 613.973C257.599 610.02 266.18 612.194 270.132 618.829C274.085 625.463 271.911 634.047 265.278 638L237.361 654.636Z" fill="#8DBBFB"/>
<path d="M223.146 711.872C216.459 708.011 214.168 699.458 218.029 692.77C221.889 686.081 230.44 683.79 237.127 687.651L265.269 703.903C271.956 707.765 274.248 716.317 270.387 723.006C266.526 729.694 257.975 731.986 251.289 728.124L223.146 711.872Z" fill="#8DBBFB"/>
<path d="M291.523 704.88C283.801 704.88 277.542 698.619 277.542 690.896C277.542 683.173 283.801 676.912 291.523 676.912L324.019 676.912C331.741 676.912 338 683.173 338 690.896C338 698.619 331.741 704.88 324.019 704.88L291.523 704.88Z" fill="#8DBBFB"/>
</g>
</g>
<path id="Vector 30" d="M790.5 228L592.5 255.5L535 478.5L384.5 508.5L329.5 574L277 534L159 649L-66.5 619" stroke="#FD9D49" stroke-width="10" stroke-linecap="round"/>
</g>
<defs>
<filter id="filter0_d_164_309" x="136" y="612" width="206" height="126" filterUnits="userSpaceOnUse" color-interpolation-filters="sRGB">
<feFlood flood-opacity="0" result="BackgroundImageFix"/>
<feColorMatrix in="SourceAlpha" type="matrix" values="0 0 0 0 0 0 0 0 0 0 0 0 0 0 0 0 0 0 127 0" result="hardAlpha"/>
<feOffset dy="4"/>
<feGaussianBlur stdDeviation="2"/>
<feComposite in2="hardAlpha" operator="out"/>
<feColorMatrix type="matrix" values="0 0 0 0 0 0 0 0 0 0 0 0 0 0 0 0 0 0 0.25 0"/>
<feBlend mode="normal" in2="BackgroundImageFix" result="effect1_dropShadow_164_309"/>
<feBlend mode="normal" in="SourceGraphic" in2="effect1_dropShadow_164_309" result="shape"/>
</filter>
<clipPath id="clip0_164_309">
<rect width="1440" height="1024" fill="white"/>
</clipPath>
</defs>
</svg>
