<svg width="1440" height="1024" viewBox="0 0 1440 1024" fill="none" xmlns="http://www.w3.org/2000/svg">
<g id="recognize6-yes" clip-path="url(#clip0_164_448)">
<rect width="1440" height="1024" fill="#333148"/>
<path id="part 4" d="M47.096 132.12V60.024H61.688L62.264 71.448L59.384 70.584C59.832 68.536 61.048 66.648 63.032 64.92C65.016 63.192 67.512 61.784 70.52 60.696C73.592 59.608 76.856 59.064 80.312 59.064C85.304 59.064 89.688 60.216 93.464 62.52C97.24 64.76 100.184 67.864 102.296 71.832C104.472 75.736 105.56 80.28 105.56 85.464C105.56 90.584 104.472 95.128 102.296 99.096C100.184 103.064 97.208 106.2 93.368 108.504C89.528 110.744 85.112 111.864 80.12 111.864C76.664 111.864 73.432 111.288 70.424 110.136C67.416 108.984 64.888 107.48 62.84 105.624C60.856 103.768 59.576 101.816 59 99.768L62.552 98.424V132.12H47.096ZM76.376 98.904C79.256 98.904 81.752 98.36 83.864 97.272C85.976 96.12 87.608 94.552 88.76 92.568C89.976 90.584 90.584 88.216 90.584 85.464C90.584 82.776 89.976 80.44 88.76 78.456C87.608 76.408 85.976 74.84 83.864 73.752C81.816 72.6 79.32 72.024 76.376 72.024C73.496 72.024 70.968 72.568 68.792 73.656C66.68 74.744 65.016 76.312 63.8 78.36C62.648 80.408 62.072 82.776 62.072 85.464C62.072 88.216 62.648 90.584 63.8 92.568C65.016 94.552 66.68 96.12 68.792 97.272C70.968 98.36 73.496 98.904 76.376 98.904ZM144.211 111.864C139.155 111.864 134.739 110.744 130.963 108.504C127.187 106.264 124.211 103.16 122.035 99.192C119.923 95.16 118.867 90.584 118.867 85.464C118.867 80.28 119.955 75.704 122.131 71.736C124.307 67.768 127.315 64.664 131.155 62.424C135.059 60.12 139.539 58.968 144.595 58.968C147.475 58.968 150.131 59.352 152.563 60.12C154.995 60.824 157.107 61.816 158.899 63.096C160.755 64.376 162.259 65.784 163.411 67.32C164.627 68.856 165.427 70.456 165.811 72.12H162.451V60.024H177.619V111H162.163V97.944L165.427 98.424C165.043 100.088 164.243 101.72 163.027 103.32C161.811 104.92 160.243 106.36 158.323 107.64C156.403 108.92 154.227 109.944 151.795 110.712C149.427 111.48 146.899 111.864 144.211 111.864ZM148.339 98.904C151.219 98.904 153.715 98.36 155.827 97.272C158.003 96.184 159.667 94.648 160.819 92.664C162.035 90.616 162.643 88.216 162.643 85.464C162.643 82.776 162.035 80.44 160.819 78.456C159.667 76.408 158.003 74.808 155.827 73.656C153.715 72.504 151.219 71.928 148.339 71.928C145.459 71.928 142.963 72.504 140.851 73.656C138.739 74.808 137.075 76.408 135.859 78.456C134.707 80.44 134.131 82.776 134.131 85.464C134.131 88.216 134.707 90.616 135.859 92.664C137.075 94.648 138.739 96.184 140.851 97.272C142.963 98.36 145.459 98.904 148.339 98.904ZM201.315 111V60.024H215.907L216.579 77.592L212.931 75.768C213.763 72.632 215.203 69.816 217.251 67.32C219.363 64.76 221.763 62.744 224.451 61.272C227.203 59.736 230.115 58.968 233.187 58.968C234.851 58.968 236.419 59.128 237.891 59.448C239.427 59.768 240.739 60.184 241.827 60.696L237.603 77.496C236.643 76.792 235.331 76.248 233.667 75.864C232.067 75.48 230.435 75.288 228.771 75.288C226.915 75.288 225.219 75.608 223.683 76.248C222.211 76.824 220.963 77.656 219.939 78.744C218.915 79.768 218.115 80.952 217.539 82.296C217.027 83.64 216.771 85.08 216.771 86.616V111H201.315ZM265.932 111V46.008H281.292V111H265.932ZM254.604 73.464V60.024H294.252V73.464H254.604ZM377.032 111V53.304H387.112L357.544 88.248L355.624 83.736H405.256V96.984H349.48L343.048 84.6L378.856 43.224H392.776V111H377.032Z" fill="white"/>
<rect id="Rectangle 7" y="462" width="1567" height="626" fill="#211F2F"/>
<g id="Group 34">
<line id="Line 1" x1="452.501" y1="458.705" x2="452.501" y2="112.705" stroke="#485C77" stroke-width="25" stroke-linecap="round"/>
<rect id="Rectangle 8" x="440.001" y="100.207" width="172" height="96" rx="14" fill="#3B5EC6"/>
<rect id="Rectangle 9" x="510.001" y="100.207" width="32" height="96" fill="white"/>
<rect id="Rectangle 11" x="609" y="97.207" width="21.7609" height="196.456" rx="10.8804" transform="rotate(62.972 609 97.207)" fill="white"/>
<rect id="Rectangle 12" x="616.953" y="191.229" width="21.7609" height="196.456" rx="10.8804" transform="rotate(120 616.953 191.229)" fill="white"/>
<rect id="Rectangle 10" x="440.001" y="164.207" width="27" height="172" transform="rotate(-90 440.001 164.207)" fill="white"/>
<rect id="Rectangle 13" x="608.061" y="102.564" width="13.0698" height="189.913" rx="6.53491" transform="rotate(62.972 608.061 102.564)" fill="#EF1044"/>
<rect id="Rectangle 14" x="612.058" y="192.998" width="13.0698" height="189.913" rx="6.53491" transform="rotate(120 612.058 192.998)" fill="#EF1044"/>
<rect id="Rectangle 15" x="440.001" y="144.207" width="172" height="14" fill="#EF1044"/>
<rect id="Rectangle 16" x="534.001" y="100.207" width="96" height="16" transform="rotate(90 534.001 100.207)" fill="#EF1044"/>
</g>
<g id="Group 33">
<path id="Polygon 1" d="M769.372 285.85C785.607 268.261 813.393 268.261 829.628 285.85L1058.58 533.9C1082.82 560.164 1064.2 602.709 1028.46 602.709H570.545C534.803 602.709 516.175 560.164 540.417 533.9L769.372 285.85Z" fill="#485C77"/>
<rect id="Rectangle 17" x="748" y="447.209" width="104" height="198" rx="28" fill="#201F2F"/>
</g>
<g id="next">
<g id="Next">
<path id="Next_2" d="M1100.81 909V864.2H1110.79L1137.86 896.2L1136.01 895.88C1135.75 894.387 1135.56 892.957 1135.43 891.592C1135.3 890.227 1135.18 888.904 1135.05 887.624C1134.96 886.344 1134.88 885.064 1134.79 883.784C1134.75 882.504 1134.73 881.16 1134.73 879.752C1134.73 878.344 1134.73 876.851 1134.73 875.272V864.2H1145.29V909H1135.18L1107.08 875.976L1110.09 876.424C1110.22 877.917 1110.34 879.261 1110.47 880.456C1110.64 881.651 1110.77 882.781 1110.86 883.848C1110.98 884.872 1111.07 885.917 1111.11 886.984C1111.2 888.008 1111.26 889.096 1111.3 890.248C1111.35 891.4 1111.37 892.659 1111.37 894.024V909H1100.81ZM1177.89 909.64C1173.76 909.64 1170.13 908.893 1167.01 907.4C1163.94 905.864 1161.55 903.795 1159.85 901.192C1158.14 898.547 1157.29 895.539 1157.29 892.168C1157.29 889.48 1157.78 887.048 1158.76 884.872C1159.74 882.696 1161.11 880.819 1162.85 879.24C1164.6 877.661 1166.65 876.445 1169 875.592C1171.35 874.739 1173.88 874.312 1176.61 874.312C1179.26 874.312 1181.69 874.739 1183.91 875.592C1186.13 876.403 1188.05 877.576 1189.67 879.112C1191.33 880.648 1192.61 882.461 1193.51 884.552C1194.41 886.643 1194.81 888.947 1194.73 891.464L1194.66 894.344H1164.01L1162.53 888.392H1186.34L1185.25 889.672V888.392C1185.13 887.325 1184.66 886.365 1183.85 885.512C1183.08 884.659 1182.08 883.997 1180.84 883.528C1179.6 883.016 1178.24 882.76 1176.74 882.76C1174.82 882.76 1173.12 883.08 1171.62 883.72C1170.13 884.317 1168.96 885.256 1168.1 886.536C1167.29 887.816 1166.89 889.437 1166.89 891.4C1166.89 893.277 1167.38 894.92 1168.36 896.328C1169.38 897.736 1170.81 898.845 1172.65 899.656C1174.52 900.467 1176.72 900.872 1179.24 900.872C1181.41 900.872 1183.23 900.616 1184.68 900.104C1186.17 899.549 1187.52 898.867 1188.71 898.056L1193.32 904.712C1191.91 905.779 1190.35 906.696 1188.65 907.464C1186.98 908.189 1185.23 908.723 1183.4 909.064C1181.61 909.448 1179.77 909.64 1177.89 909.64ZM1231.57 909L1222.16 896.776L1219.54 893.32L1204.63 875.016H1217.56L1226 886.216L1228.82 889.928L1244.37 909H1231.57ZM1203.8 909L1219.03 889.8L1225.24 896.136L1216.53 909H1203.8ZM1228.76 894.216L1222.74 887.816L1231.32 875.016H1243.99L1228.76 894.216ZM1260.39 909V865.672H1270.63V909H1260.39ZM1252.84 883.976V875.016H1279.27V883.976H1252.84Z" fill="white"/>
</g>
<path id="Arrow 1" d="M1094 913.5C1089.31 913.5 1085.5 917.306 1085.5 922C1085.5 926.694 1089.31 930.5 1094 930.5V922V913.5ZM1371 922L1286 872.925V971.075L1371 922ZM1094 922V930.5H1294.5V922V913.5H1094V922Z" fill="#EF1044"/>
</g>
<g id="Group 32">
<g id="Group 31">
<rect id="Rectangle 31" x="905" y="176.209" width="93" height="352" rx="36" fill="#485C77"/>
<rect id="Rectangle 32" x="794.855" y="159.469" width="264.672" height="73.942" rx="36.971" transform="rotate(-8.76431 794.855 159.469)" fill="#405066"/>
<path id="Polygon 8" d="M931.054 210.908C933.371 217.288 932.108 224.42 927.741 229.617L880.094 286.315C875.727 291.512 868.919 293.984 862.235 292.801L789.309 279.886C782.625 278.703 777.08 274.043 774.763 267.663L749.484 198.05C747.167 191.669 748.43 184.538 752.797 179.341L800.444 122.642C804.812 117.445 811.619 114.973 818.303 116.157L891.229 129.071C897.913 130.255 903.458 134.915 905.775 141.295L931.054 210.908Z" fill="#73839A"/>
<ellipse id="Ellipse 13" cx="840" cy="204.209" rx="64" ry="67" fill="#C63B3B"/>
<line id="Line 18" x1="760.047" y1="190.796" x2="786.587" y2="222.162" stroke="#201F2F" stroke-width="10" stroke-linecap="round"/>
<line id="Line 19" x1="814.706" y1="130.231" x2="792.022" y2="225.503" stroke="#201F2F" stroke-width="10" stroke-linecap="round"/>
<line id="Line 20" x1="893.123" y1="147.225" x2="793.016" y2="225.086" stroke="#201F2F" stroke-width="10" stroke-linecap="round"/>
<line id="Line 21" x1="916.383" y1="224.565" x2="791.356" y2="233.826" stroke="#201F2F" stroke-width="10" stroke-linecap="round"/>
<line id="Line 22" x1="865.051" y1="286.518" x2="791.309" y2="236.158" stroke="#201F2F" stroke-width="10" stroke-linecap="round"/>
<line id="Line 23" x1="781.485" y1="269.767" x2="784.558" y2="236.724" stroke="#201F2F" stroke-width="10" stroke-linecap="round"/>
</g>
<circle id="Ellipse 14" cx="785.5" cy="228.709" r="18.5" fill="#DC4B4B"/>
</g>
<g id="Group 3">
<g id="Vector" filter="url(#filter0_d_164_448)">
<path d="M228.388 696.67C200.899 690.452 200.899 651.278 228.388 645.06L273.03 634.962C289.575 631.22 305.315 643.801 305.315 660.767L305.315 680.963C305.315 697.929 289.575 710.51 273.03 706.768L228.388 696.67Z" fill="#8DBBFB"/>
<path d="M168.34 642.897C183.991 642.897 196.679 655.588 196.679 671.243C196.679 686.898 183.991 699.589 168.34 699.589C152.688 699.589 140 686.898 140 671.243C140 655.588 152.688 642.897 168.34 642.897Z" fill="#8DBBFB"/>
<path d="M291.523 665.574C283.801 665.574 277.542 659.313 277.542 651.59C277.542 643.866 283.801 637.605 291.523 637.605L324.019 637.605C331.741 637.605 338 643.866 338 651.59C338 659.313 331.741 665.574 324.019 665.574L291.523 665.574Z" fill="#8DBBFB"/>
<path d="M237.361 654.636C230.728 658.59 222.146 656.416 218.194 649.781C214.242 643.146 216.416 634.563 223.049 630.61L250.966 613.973C257.599 610.02 266.18 612.194 270.132 618.829C274.085 625.463 271.911 634.047 265.278 638L237.361 654.636Z" fill="#8DBBFB"/>
<path d="M223.146 711.872C216.459 708.011 214.168 699.458 218.029 692.77C221.889 686.081 230.44 683.79 237.127 687.651L265.269 703.903C271.956 707.765 274.248 716.317 270.387 723.006C266.526 729.694 257.975 731.986 251.289 728.124L223.146 711.872Z" fill="#8DBBFB"/>
<path d="M291.523 704.88C283.801 704.88 277.542 698.619 277.542 690.896C277.542 683.173 283.801 676.912 291.523 676.912L324.019 676.912C331.741 676.912 338 683.173 338 690.896C338 698.619 331.741 704.88 324.019 704.88L291.523 704.88Z" fill="#8DBBFB"/>
</g>
</g>
<g id="Group 4">
<g id="Vector_2" filter="url(#filter1_d_164_448)">
<path d="M457.996 626.754C434.672 621.485 434.672 588.286 457.996 583.017L495.874 574.459C509.912 571.288 523.267 581.95 523.267 596.328L523.267 613.443C523.267 627.821 509.912 638.483 495.874 635.312L457.996 626.754Z" fill="#3B5EC6"/>
<path d="M407.046 581.184C420.326 581.184 431.092 591.939 431.092 605.206C431.092 618.473 420.326 629.228 407.046 629.228C393.766 629.228 383 618.473 383 605.206C383 591.939 393.766 581.184 407.046 581.184Z" fill="#3B5EC6"/>
<path d="M511.565 600.401C505.013 600.401 499.702 595.096 499.702 588.55C499.702 582.005 505.013 576.7 511.565 576.7L539.137 576.7C545.689 576.7 551 582.005 551 588.55C551 595.096 545.689 600.401 539.137 600.401L511.565 600.401Z" fill="#3B5EC6"/>
<path d="M465.609 591.133C459.981 594.483 452.7 592.64 449.347 587.018C445.993 581.395 447.837 574.121 453.466 570.771L477.153 556.672C482.781 553.322 490.062 555.164 493.415 560.787C496.769 566.41 494.925 573.684 489.296 577.034L465.609 591.133Z" fill="#3B5EC6"/>
<path d="M453.548 639.638C447.874 636.365 445.93 629.117 449.206 623.449C452.482 617.781 459.737 615.839 465.411 619.111L489.289 632.884C494.963 636.156 496.907 643.404 493.631 649.073C490.355 654.741 483.1 656.683 477.427 653.41L453.548 639.638Z" fill="#3B5EC6"/>
<path d="M511.565 633.712C505.013 633.712 499.702 628.406 499.702 621.861C499.702 615.316 505.013 610.01 511.565 610.01L539.137 610.01C545.689 610.01 551 615.316 551 621.861C551 628.406 545.689 633.712 539.137 633.712L511.565 633.712Z" fill="#3B5EC6"/>
</g>
<g id="Vector_3" filter="url(#filter2_d_164_448)">
<path d="M808.996 567.472C785.672 562.15 785.672 528.619 808.996 523.297L846.874 514.654C860.912 511.451 874.267 522.22 874.267 536.741L874.267 554.028C874.267 568.549 860.912 579.318 846.874 576.115L808.996 567.472Z" fill="#3B5EC6"/>
<path d="M758.046 521.445C771.326 521.445 782.092 532.308 782.092 545.708C782.092 559.108 771.326 569.97 758.046 569.97C744.766 569.97 734 559.108 734 545.708C734 532.308 744.766 521.445 758.046 521.445Z" fill="#3B5EC6"/>
<path d="M862.565 540.855C856.013 540.855 850.702 535.496 850.702 528.886C850.702 522.275 856.013 516.917 862.565 516.917L890.137 516.917C896.689 516.917 902 522.275 902 528.886C902 535.497 896.689 540.855 890.137 540.855L862.565 540.855Z" fill="#3B5EC6"/>
<path d="M816.609 531.494C810.981 534.877 803.7 533.017 800.347 527.338C796.993 521.659 798.837 514.312 804.466 510.929L828.153 496.689C833.781 493.305 841.062 495.166 844.415 500.845C847.769 506.524 845.925 513.87 840.296 517.254L816.609 531.494Z" fill="#3B5EC6"/>
<path d="M804.548 580.484C798.874 577.179 796.93 569.858 800.206 564.133C803.482 558.409 810.737 556.447 816.411 559.752L840.289 573.663C845.963 576.968 847.907 584.288 844.631 590.013C841.355 595.738 834.1 597.7 828.427 594.394L804.548 580.484Z" fill="#3B5EC6"/>
<path d="M862.565 574.499C856.013 574.499 850.702 569.14 850.702 562.53C850.702 555.919 856.013 550.56 862.565 550.56L890.137 550.56C896.689 550.56 902 555.919 902 562.53C902 569.14 896.689 574.499 890.137 574.499L862.565 574.499Z" fill="#3B5EC6"/>
</g>
<g id="Vector_4" filter="url(#filter3_d_164_448)">
<path d="M601.996 576.472C578.672 571.15 578.672 537.619 601.996 532.297L639.874 523.654C653.912 520.451 667.267 531.22 667.267 545.741L667.267 563.028C667.267 577.549 653.912 588.318 639.874 585.115L601.996 576.472Z" fill="#3B5EC6"/>
<path d="M551.046 530.445C564.326 530.445 575.092 541.308 575.092 554.708C575.092 568.108 564.326 578.97 551.046 578.97C537.766 578.97 527 568.108 527 554.708C527 541.308 537.766 530.445 551.046 530.445Z" fill="#3B5EC6"/>
<path d="M655.565 549.855C649.013 549.855 643.702 544.496 643.702 537.886C643.702 531.275 649.013 525.917 655.565 525.917L683.137 525.917C689.689 525.917 695 531.275 695 537.886C695 544.496 689.689 549.855 683.137 549.855L655.565 549.855Z" fill="#3B5EC6"/>
<path d="M609.609 540.494C603.981 543.877 596.7 542.017 593.347 536.338C589.993 530.659 591.837 523.312 597.466 519.929L621.153 505.689C626.781 502.305 634.062 504.166 637.415 509.845C640.769 515.524 638.925 522.87 633.296 526.254L609.609 540.494Z" fill="#3B5EC6"/>
<path d="M597.548 589.484C591.874 586.179 589.93 578.858 593.206 573.133C596.482 567.409 603.737 565.447 609.411 568.752L633.289 582.663C638.963 585.968 640.907 593.288 637.631 599.013C634.355 604.738 627.1 606.7 621.427 603.394L597.548 589.484Z" fill="#3B5EC6"/>
<path d="M655.565 583.499C649.013 583.499 643.702 578.14 643.702 571.53C643.702 564.919 649.013 559.56 655.565 559.56L683.137 559.56C689.689 559.56 695 564.919 695 571.53C695 578.14 689.689 583.499 683.137 583.499L655.565 583.499Z" fill="#3B5EC6"/>
</g>
<g id="Vector_5" filter="url(#filter4_d_164_448)">
<path d="M963.996 609.754C940.672 604.485 940.672 571.286 963.996 566.017L1001.87 557.459C1015.91 554.288 1029.27 564.95 1029.27 579.328L1029.27 596.443C1029.27 610.821 1015.91 621.483 1001.87 618.312L963.996 609.754Z" fill="#3B5EC6"/>
<path d="M913.046 564.184C926.326 564.184 937.092 574.939 937.092 588.206C937.092 601.473 926.326 612.228 913.046 612.228C899.766 612.228 889 601.473 889 588.206C889 574.939 899.766 564.184 913.046 564.184Z" fill="#3B5EC6"/>
<path d="M1017.56 583.401C1011.01 583.401 1005.7 578.096 1005.7 571.55C1005.7 565.005 1011.01 559.7 1017.56 559.7L1045.14 559.7C1051.69 559.7 1057 565.005 1057 571.55C1057 578.096 1051.69 583.401 1045.14 583.401L1017.56 583.401Z" fill="#3B5EC6"/>
<path d="M971.609 574.133C965.981 577.483 958.7 575.64 955.347 570.018C951.993 564.395 953.837 557.121 959.466 553.771L983.153 539.672C988.781 536.322 996.062 538.164 999.415 543.787C1002.77 549.41 1000.92 556.684 995.296 560.034L971.609 574.133Z" fill="#3B5EC6"/>
<path d="M959.548 622.638C953.874 619.365 951.93 612.117 955.206 606.449C958.482 600.781 965.737 598.839 971.411 602.111L995.289 615.884C1000.96 619.156 1002.91 626.404 999.631 632.073C996.355 637.741 989.1 639.683 983.427 636.41L959.548 622.638Z" fill="#3B5EC6"/>
<path d="M1017.56 616.712C1011.01 616.712 1005.7 611.406 1005.7 604.861C1005.7 598.316 1011.01 593.01 1017.56 593.01L1045.14 593.01C1051.69 593.01 1057 598.316 1057 604.861C1057 611.406 1051.69 616.712 1045.14 616.712L1017.56 616.712Z" fill="#3B5EC6"/>
</g>
<g id="Vector_6" filter="url(#filter5_d_164_448)">
<path d="M471.388 691.67C443.899 685.452 443.899 646.278 471.388 640.06L516.03 629.962C532.575 626.22 548.315 638.801 548.315 655.767L548.315 675.963C548.315 692.929 532.575 705.51 516.03 701.768L471.388 691.67Z" fill="#6A94E0"/>
<path d="M411.34 637.897C426.991 637.897 439.679 650.588 439.679 666.243C439.679 681.898 426.991 694.589 411.34 694.589C395.688 694.589 383 681.898 383 666.243C383 650.588 395.688 637.897 411.34 637.897Z" fill="#6A94E0"/>
<path d="M534.523 660.574C526.801 660.574 520.542 654.313 520.542 646.59C520.542 638.866 526.801 632.605 534.523 632.605L567.019 632.605C574.741 632.605 581 638.866 581 646.59C581 654.313 574.741 660.574 567.019 660.574L534.523 660.574Z" fill="#6A94E0"/>
<path d="M480.361 649.636C473.728 653.59 465.146 651.416 461.194 644.781C457.242 638.146 459.416 629.563 466.049 625.61L493.966 608.973C500.599 605.02 509.18 607.194 513.132 613.829C517.085 620.463 514.911 629.047 508.278 633L480.361 649.636Z" fill="#6A94E0"/>
<path d="M466.146 706.872C459.459 703.011 457.168 694.458 461.029 687.77C464.889 681.081 473.44 678.79 480.127 682.651L508.269 698.903C514.956 702.765 517.248 711.317 513.387 718.006C509.526 724.694 500.975 726.986 494.289 723.124L466.146 706.872Z" fill="#6A94E0"/>
<path d="M534.523 699.88C526.801 699.88 520.542 693.619 520.542 685.896C520.542 678.173 526.801 671.912 534.523 671.912L567.019 671.912C574.741 671.912 581 678.173 581 685.896C581 693.619 574.741 699.88 567.019 699.88L534.523 699.88Z" fill="#6A94E0"/>
</g>
<g id="Vector_7" filter="url(#filter6_d_164_448)">
<path d="M570.388 652.67C542.899 646.452 542.899 607.278 570.388 601.06L615.03 590.962C631.575 587.22 647.315 599.801 647.315 616.767L647.315 636.963C647.315 653.929 631.575 666.51 615.03 662.768L570.388 652.67Z" fill="#6A94E0"/>
<path d="M510.34 598.897C525.991 598.897 538.679 611.588 538.679 627.243C538.679 642.898 525.991 655.589 510.34 655.589C494.688 655.589 482 642.898 482 627.243C482 611.588 494.688 598.897 510.34 598.897Z" fill="#6A94E0"/>
<path d="M633.523 621.574C625.801 621.574 619.542 615.313 619.542 607.59C619.542 599.866 625.801 593.605 633.523 593.605L666.019 593.605C673.741 593.605 680 599.866 680 607.59C680 615.313 673.741 621.574 666.019 621.574L633.523 621.574Z" fill="#6A94E0"/>
<path d="M579.361 610.636C572.728 614.59 564.146 612.416 560.194 605.781C556.242 599.146 558.416 590.563 565.049 586.61L592.966 569.973C599.599 566.02 608.18 568.194 612.132 574.829C616.085 581.463 613.911 590.047 607.278 594L579.361 610.636Z" fill="#6A94E0"/>
<path d="M565.146 667.872C558.459 664.011 556.168 655.458 560.029 648.77C563.889 642.081 572.44 639.79 579.127 643.651L607.269 659.903C613.956 663.765 616.248 672.317 612.387 679.006C608.526 685.694 599.975 687.986 593.289 684.124L565.146 667.872Z" fill="#6A94E0"/>
<path d="M633.523 660.88C625.801 660.88 619.542 654.619 619.542 646.896C619.542 639.173 625.801 632.912 633.523 632.912L666.019 632.912C673.741 632.912 680 639.173 680 646.896C680 654.619 673.741 660.88 666.019 660.88L633.523 660.88Z" fill="#6A94E0"/>
</g>
<g id="Vector_8" filter="url(#filter7_d_164_448)">
<path d="M693.388 613.67C665.899 607.452 665.899 568.278 693.388 562.06L738.03 551.962C754.575 548.22 770.315 560.801 770.315 577.767L770.315 597.963C770.315 614.929 754.575 627.51 738.03 623.768L693.388 613.67Z" fill="#6A94E0"/>
<path d="M633.34 559.897C648.991 559.897 661.679 572.588 661.679 588.243C661.679 603.898 648.991 616.589 633.34 616.589C617.688 616.589 605 603.898 605 588.243C605 572.588 617.688 559.897 633.34 559.897Z" fill="#6A94E0"/>
<path d="M756.523 582.574C748.801 582.574 742.542 576.313 742.542 568.59C742.542 560.866 748.801 554.605 756.523 554.605L789.019 554.605C796.741 554.605 803 560.866 803 568.59C803 576.313 796.741 582.574 789.019 582.574L756.523 582.574Z" fill="#6A94E0"/>
<path d="M702.361 571.636C695.728 575.59 687.146 573.416 683.194 566.781C679.242 560.146 681.416 551.563 688.049 547.61L715.966 530.973C722.599 527.02 731.18 529.194 735.132 535.829C739.085 542.463 736.911 551.047 730.278 555L702.361 571.636Z" fill="#6A94E0"/>
<path d="M688.146 628.872C681.459 625.011 679.168 616.458 683.029 609.77C686.889 603.081 695.44 600.79 702.127 604.651L730.269 620.903C736.956 624.765 739.248 633.317 735.387 640.006C731.526 646.694 722.975 648.986 716.289 645.124L688.146 628.872Z" fill="#6A94E0"/>
<path d="M756.523 621.88C748.801 621.88 742.542 615.619 742.542 607.896C742.542 600.173 748.801 593.912 756.523 593.912L789.019 593.912C796.741 593.912 803 600.173 803 607.896C803 615.619 796.741 621.88 789.019 621.88L756.523 621.88Z" fill="#6A94E0"/>
</g>
<g id="Vector_9" filter="url(#filter8_d_164_448)">
<path d="M822.388 652.67C794.899 646.452 794.899 607.278 822.388 601.06L867.03 590.962C883.575 587.22 899.315 599.801 899.315 616.767L899.315 636.963C899.315 653.929 883.575 666.51 867.03 662.768L822.388 652.67Z" fill="#6A94E0"/>
<path d="M762.34 598.897C777.991 598.897 790.679 611.588 790.679 627.243C790.679 642.898 777.991 655.589 762.34 655.589C746.688 655.589 734 642.898 734 627.243C734 611.588 746.688 598.897 762.34 598.897Z" fill="#6A94E0"/>
<path d="M885.523 621.574C877.801 621.574 871.542 615.313 871.542 607.59C871.542 599.866 877.801 593.605 885.523 593.605L918.019 593.605C925.741 593.605 932 599.866 932 607.59C932 615.313 925.741 621.574 918.019 621.574L885.523 621.574Z" fill="#6A94E0"/>
<path d="M831.361 610.636C824.728 614.59 816.146 612.416 812.194 605.781C808.242 599.146 810.416 590.563 817.049 586.61L844.966 569.973C851.599 566.02 860.18 568.194 864.132 574.829C868.085 581.463 865.911 590.047 859.278 594L831.361 610.636Z" fill="#6A94E0"/>
<path d="M817.146 667.872C810.459 664.011 808.168 655.458 812.029 648.77C815.889 642.081 824.44 639.79 831.127 643.651L859.269 659.903C865.956 663.765 868.248 672.317 864.387 679.006C860.526 685.694 851.975 687.986 845.289 684.124L817.146 667.872Z" fill="#6A94E0"/>
<path d="M885.523 660.88C877.801 660.88 871.542 654.619 871.542 646.896C871.542 639.173 877.801 632.912 885.523 632.912L918.019 632.912C925.741 632.912 932 639.173 932 646.896C932 654.619 925.741 660.88 918.019 660.88L885.523 660.88Z" fill="#6A94E0"/>
</g>
<g id="Vector_10" filter="url(#filter9_d_164_448)">
<path d="M673.388 680.67C645.899 674.452 645.899 635.278 673.388 629.06L718.03 618.962C734.575 615.22 750.315 627.801 750.315 644.767L750.315 664.963C750.315 681.929 734.575 694.51 718.03 690.768L673.388 680.67Z" fill="#8DBBFB"/>
<path d="M613.34 626.897C628.991 626.897 641.679 639.588 641.679 655.243C641.679 670.898 628.991 683.589 613.34 683.589C597.688 683.589 585 670.898 585 655.243C585 639.588 597.688 626.897 613.34 626.897Z" fill="#8DBBFB"/>
<path d="M736.523 649.574C728.801 649.574 722.542 643.313 722.542 635.59C722.542 627.866 728.801 621.605 736.523 621.605L769.019 621.605C776.741 621.605 783 627.866 783 635.59C783 643.313 776.741 649.574 769.019 649.574L736.523 649.574Z" fill="#8DBBFB"/>
<path d="M682.361 638.636C675.728 642.59 667.146 640.416 663.194 633.781C659.242 627.146 661.416 618.563 668.049 614.61L695.966 597.973C702.599 594.02 711.18 596.194 715.132 602.829C719.085 609.463 716.911 618.047 710.278 622L682.361 638.636Z" fill="#8DBBFB"/>
<path d="M668.146 695.872C661.459 692.011 659.168 683.458 663.029 676.77C666.889 670.081 675.44 667.79 682.127 671.651L710.269 687.903C716.956 691.765 719.248 700.317 715.387 707.006C711.526 713.694 702.975 715.986 696.289 712.124L668.146 695.872Z" fill="#8DBBFB"/>
<path d="M736.523 688.88C728.801 688.88 722.542 682.619 722.542 674.896C722.542 667.173 728.801 660.912 736.523 660.912L769.019 660.912C776.741 660.912 783 667.173 783 674.896C783 682.619 776.741 688.88 769.019 688.88L736.523 688.88Z" fill="#8DBBFB"/>
</g>
<g id="Vector_11" filter="url(#filter10_d_164_448)">
<path d="M516.388 761.67C488.899 755.452 488.899 716.278 516.388 710.06L561.03 699.962C577.575 696.22 593.315 708.801 593.315 725.767L593.315 745.963C593.315 762.929 577.575 775.51 561.03 771.768L516.388 761.67Z" fill="#8DBBFB"/>
<path d="M456.34 707.897C471.991 707.897 484.679 720.588 484.679 736.243C484.679 751.898 471.991 764.589 456.34 764.589C440.688 764.589 428 751.898 428 736.243C428 720.588 440.688 707.897 456.34 707.897Z" fill="#8DBBFB"/>
<path d="M579.523 730.574C571.801 730.574 565.542 724.313 565.542 716.59C565.542 708.866 571.801 702.605 579.523 702.605L612.019 702.605C619.741 702.605 626 708.866 626 716.59C626 724.313 619.741 730.574 612.019 730.574L579.523 730.574Z" fill="#8DBBFB"/>
<path d="M525.361 719.636C518.728 723.59 510.146 721.416 506.194 714.781C502.242 708.146 504.416 699.563 511.049 695.61L538.966 678.973C545.599 675.02 554.18 677.194 558.132 683.829C562.085 690.463 559.911 699.047 553.278 703L525.361 719.636Z" fill="#8DBBFB"/>
<path d="M511.146 776.872C504.459 773.011 502.168 764.458 506.029 757.77C509.889 751.081 518.44 748.79 525.127 752.651L553.269 768.903C559.956 772.765 562.248 781.317 558.387 788.006C554.526 794.694 545.975 796.986 539.289 793.124L511.146 776.872Z" fill="#8DBBFB"/>
<path d="M579.523 769.88C571.801 769.88 565.542 763.619 565.542 755.896C565.542 748.173 571.801 741.912 579.523 741.912L612.019 741.912C619.741 741.912 626 748.173 626 755.896C626 763.619 619.741 769.88 612.019 769.88L579.523 769.88Z" fill="#8DBBFB"/>
</g>
<g id="Vector_12" filter="url(#filter11_d_164_448)">
<path d="M792.388 761.67C764.899 755.452 764.899 716.278 792.388 710.06L837.03 699.962C853.575 696.22 869.315 708.801 869.315 725.767L869.315 745.963C869.315 762.929 853.575 775.51 837.03 771.768L792.388 761.67Z" fill="#8DBBFB"/>
<path d="M732.34 707.897C747.991 707.897 760.679 720.588 760.679 736.243C760.679 751.898 747.991 764.589 732.34 764.589C716.688 764.589 704 751.898 704 736.243C704 720.588 716.688 707.897 732.34 707.897Z" fill="#8DBBFB"/>
<path d="M855.523 730.574C847.801 730.574 841.542 724.313 841.542 716.59C841.542 708.866 847.801 702.605 855.523 702.605L888.019 702.605C895.741 702.605 902 708.866 902 716.59C902 724.313 895.741 730.574 888.019 730.574L855.523 730.574Z" fill="#8DBBFB"/>
<path d="M801.361 719.636C794.728 723.59 786.146 721.416 782.194 714.781C778.242 708.146 780.416 699.563 787.049 695.61L814.966 678.973C821.599 675.02 830.18 677.194 834.132 683.829C838.085 690.463 835.911 699.047 829.278 703L801.361 719.636Z" fill="#8DBBFB"/>
<path d="M787.146 776.872C780.459 773.011 778.168 764.458 782.029 757.77C785.889 751.081 794.44 748.79 801.127 752.651L829.269 768.903C835.956 772.765 838.248 781.317 834.387 788.006C830.526 794.694 821.975 796.986 815.289 793.124L787.146 776.872Z" fill="#8DBBFB"/>
<path d="M855.523 769.88C847.801 769.88 841.542 763.619 841.542 755.896C841.542 748.173 847.801 741.912 855.523 741.912L888.019 741.912C895.741 741.912 902 748.173 902 755.896C902 763.619 895.741 769.88 888.019 769.88L855.523 769.88Z" fill="#8DBBFB"/>
</g>
<g id="Vector_13" filter="url(#filter12_d_164_448)">
<path d="M925.388 691.67C897.899 685.452 897.899 646.278 925.388 640.06L970.03 629.962C986.575 626.22 1002.31 638.801 1002.31 655.767L1002.31 675.963C1002.31 692.929 986.575 705.51 970.03 701.768L925.388 691.67Z" fill="#8DBBFB"/>
<path d="M865.34 637.897C880.991 637.897 893.679 650.588 893.679 666.243C893.679 681.898 880.991 694.589 865.34 694.589C849.688 694.589 837 681.898 837 666.243C837 650.588 849.688 637.897 865.34 637.897Z" fill="#8DBBFB"/>
<path d="M988.523 660.574C980.801 660.574 974.542 654.313 974.542 646.59C974.542 638.866 980.801 632.605 988.523 632.605L1021.02 632.605C1028.74 632.605 1035 638.866 1035 646.59C1035 654.313 1028.74 660.574 1021.02 660.574L988.523 660.574Z" fill="#8DBBFB"/>
<path d="M934.361 649.636C927.728 653.59 919.146 651.416 915.194 644.781C911.242 638.146 913.416 629.563 920.049 625.61L947.966 608.973C954.599 605.02 963.18 607.194 967.132 613.829C971.085 620.463 968.911 629.047 962.278 633L934.361 649.636Z" fill="#8DBBFB"/>
<path d="M920.146 706.872C913.459 703.011 911.168 694.458 915.029 687.77C918.889 681.081 927.44 678.79 934.127 682.651L962.269 698.903C968.956 702.765 971.248 711.317 967.387 718.006C963.526 724.694 954.975 726.986 948.289 723.124L920.146 706.872Z" fill="#8DBBFB"/>
<path d="M988.523 699.88C980.801 699.88 974.542 693.619 974.542 685.896C974.542 678.173 980.801 671.912 988.523 671.912L1021.02 671.912C1028.74 671.912 1035 678.173 1035 685.896C1035 693.619 1028.74 699.88 1021.02 699.88L988.523 699.88Z" fill="#8DBBFB"/>
</g>
</g>
<path id="Vector 30" d="M782.523 229L538.833 334.335L543.707 636.266L361.679 727.812L314.343 830.091L233.091 798.34L122.554 985.56L-176.554 1028.14" stroke="#FD9D49" stroke-width="10" stroke-linecap="round"/>
<path id="Vector 31" d="M787.945 228.999L748.841 491.585L1007.89 646.757L989.61 849.688L1051.52 943.865L981.672 996.132L1082.38 1188.82L960.732 1465.36" stroke="#FD9D49" stroke-width="10" stroke-linecap="round"/>
</g>
<defs>
<filter id="filter0_d_164_448" x="136" y="612" width="206" height="126" filterUnits="userSpaceOnUse" color-interpolation-filters="sRGB">
<feFlood flood-opacity="0" result="BackgroundImageFix"/>
<feColorMatrix in="SourceAlpha" type="matrix" values="0 0 0 0 0 0 0 0 0 0 0 0 0 0 0 0 0 0 127 0" result="hardAlpha"/>
<feOffset dy="4"/>
<feGaussianBlur stdDeviation="2"/>
<feComposite in2="hardAlpha" operator="out"/>
<feColorMatrix type="matrix" values="0 0 0 0 0 0 0 0 0 0 0 0 0 0 0 0 0 0 0.25 0"/>
<feBlend mode="normal" in2="BackgroundImageFix" result="effect1_dropShadow_164_448"/>
<feBlend mode="normal" in="SourceGraphic" in2="effect1_dropShadow_164_448" result="shape"/>
</filter>
<filter id="filter1_d_164_448" x="379" y="555" width="176" height="108" filterUnits="userSpaceOnUse" color-interpolation-filters="sRGB">
<feFlood flood-opacity="0" result="BackgroundImageFix"/>
<feColorMatrix in="SourceAlpha" type="matrix" values="0 0 0 0 0 0 0 0 0 0 0 0 0 0 0 0 0 0 127 0" result="hardAlpha"/>
<feOffset dy="4"/>
<feGaussianBlur stdDeviation="2"/>
<feComposite in2="hardAlpha" operator="out"/>
<feColorMatrix type="matrix" values="0 0 0 0 0 0 0 0 0 0 0 0 0 0 0 0 0 0 0.25 0"/>
<feBlend mode="normal" in2="BackgroundImageFix" result="effect1_dropShadow_164_448"/>
<feBlend mode="normal" in="SourceGraphic" in2="effect1_dropShadow_164_448" result="shape"/>
</filter>
<filter id="filter2_d_164_448" x="730" y="495" width="176" height="109" filterUnits="userSpaceOnUse" color-interpolation-filters="sRGB">
<feFlood flood-opacity="0" result="BackgroundImageFix"/>
<feColorMatrix in="SourceAlpha" type="matrix" values="0 0 0 0 0 0 0 0 0 0 0 0 0 0 0 0 0 0 127 0" result="hardAlpha"/>
<feOffset dy="4"/>
<feGaussianBlur stdDeviation="2"/>
<feComposite in2="hardAlpha" operator="out"/>
<feColorMatrix type="matrix" values="0 0 0 0 0 0 0 0 0 0 0 0 0 0 0 0 0 0 0.25 0"/>
<feBlend mode="normal" in2="BackgroundImageFix" result="effect1_dropShadow_164_448"/>
<feBlend mode="normal" in="SourceGraphic" in2="effect1_dropShadow_164_448" result="shape"/>
</filter>
<filter id="filter3_d_164_448" x="523" y="504" width="176" height="109" filterUnits="userSpaceOnUse" color-interpolation-filters="sRGB">
<feFlood flood-opacity="0" result="BackgroundImageFix"/>
<feColorMatrix in="SourceAlpha" type="matrix" values="0 0 0 0 0 0 0 0 0 0 0 0 0 0 0 0 0 0 127 0" result="hardAlpha"/>
<feOffset dy="4"/>
<feGaussianBlur stdDeviation="2"/>
<feComposite in2="hardAlpha" operator="out"/>
<feColorMatrix type="matrix" values="0 0 0 0 0 0 0 0 0 0 0 0 0 0 0 0 0 0 0.25 0"/>
<feBlend mode="normal" in2="BackgroundImageFix" result="effect1_dropShadow_164_448"/>
<feBlend mode="normal" in="SourceGraphic" in2="effect1_dropShadow_164_448" result="shape"/>
</filter>
<filter id="filter4_d_164_448" x="885" y="538" width="176" height="108" filterUnits="userSpaceOnUse" color-interpolation-filters="sRGB">
<feFlood flood-opacity="0" result="BackgroundImageFix"/>
<feColorMatrix in="SourceAlpha" type="matrix" values="0 0 0 0 0 0 0 0 0 0 0 0 0 0 0 0 0 0 127 0" result="hardAlpha"/>
<feOffset dy="4"/>
<feGaussianBlur stdDeviation="2"/>
<feComposite in2="hardAlpha" operator="out"/>
<feColorMatrix type="matrix" values="0 0 0 0 0 0 0 0 0 0 0 0 0 0 0 0 0 0 0.25 0"/>
<feBlend mode="normal" in2="BackgroundImageFix" result="effect1_dropShadow_164_448"/>
<feBlend mode="normal" in="SourceGraphic" in2="effect1_dropShadow_164_448" result="shape"/>
</filter>
<filter id="filter5_d_164_448" x="379" y="607" width="206" height="126" filterUnits="userSpaceOnUse" color-interpolation-filters="sRGB">
<feFlood flood-opacity="0" result="BackgroundImageFix"/>
<feColorMatrix in="SourceAlpha" type="matrix" values="0 0 0 0 0 0 0 0 0 0 0 0 0 0 0 0 0 0 127 0" result="hardAlpha"/>
<feOffset dy="4"/>
<feGaussianBlur stdDeviation="2"/>
<feComposite in2="hardAlpha" operator="out"/>
<feColorMatrix type="matrix" values="0 0 0 0 0 0 0 0 0 0 0 0 0 0 0 0 0 0 0.25 0"/>
<feBlend mode="normal" in2="BackgroundImageFix" result="effect1_dropShadow_164_448"/>
<feBlend mode="normal" in="SourceGraphic" in2="effect1_dropShadow_164_448" result="shape"/>
</filter>
<filter id="filter6_d_164_448" x="478" y="568" width="206" height="126" filterUnits="userSpaceOnUse" color-interpolation-filters="sRGB">
<feFlood flood-opacity="0" result="BackgroundImageFix"/>
<feColorMatrix in="SourceAlpha" type="matrix" values="0 0 0 0 0 0 0 0 0 0 0 0 0 0 0 0 0 0 127 0" result="hardAlpha"/>
<feOffset dy="4"/>
<feGaussianBlur stdDeviation="2"/>
<feComposite in2="hardAlpha" operator="out"/>
<feColorMatrix type="matrix" values="0 0 0 0 0 0 0 0 0 0 0 0 0 0 0 0 0 0 0.25 0"/>
<feBlend mode="normal" in2="BackgroundImageFix" result="effect1_dropShadow_164_448"/>
<feBlend mode="normal" in="SourceGraphic" in2="effect1_dropShadow_164_448" result="shape"/>
</filter>
<filter id="filter7_d_164_448" x="601" y="529" width="206" height="126" filterUnits="userSpaceOnUse" color-interpolation-filters="sRGB">
<feFlood flood-opacity="0" result="BackgroundImageFix"/>
<feColorMatrix in="SourceAlpha" type="matrix" values="0 0 0 0 0 0 0 0 0 0 0 0 0 0 0 0 0 0 127 0" result="hardAlpha"/>
<feOffset dy="4"/>
<feGaussianBlur stdDeviation="2"/>
<feComposite in2="hardAlpha" operator="out"/>
<feColorMatrix type="matrix" values="0 0 0 0 0 0 0 0 0 0 0 0 0 0 0 0 0 0 0.25 0"/>
<feBlend mode="normal" in2="BackgroundImageFix" result="effect1_dropShadow_164_448"/>
<feBlend mode="normal" in="SourceGraphic" in2="effect1_dropShadow_164_448" result="shape"/>
</filter>
<filter id="filter8_d_164_448" x="730" y="568" width="206" height="126" filterUnits="userSpaceOnUse" color-interpolation-filters="sRGB">
<feFlood flood-opacity="0" result="BackgroundImageFix"/>
<feColorMatrix in="SourceAlpha" type="matrix" values="0 0 0 0 0 0 0 0 0 0 0 0 0 0 0 0 0 0 127 0" result="hardAlpha"/>
<feOffset dy="4"/>
<feGaussianBlur stdDeviation="2"/>
<feComposite in2="hardAlpha" operator="out"/>
<feColorMatrix type="matrix" values="0 0 0 0 0 0 0 0 0 0 0 0 0 0 0 0 0 0 0.25 0"/>
<feBlend mode="normal" in2="BackgroundImageFix" result="effect1_dropShadow_164_448"/>
<feBlend mode="normal" in="SourceGraphic" in2="effect1_dropShadow_164_448" result="shape"/>
</filter>
<filter id="filter9_d_164_448" x="581" y="596" width="206" height="126" filterUnits="userSpaceOnUse" color-interpolation-filters="sRGB">
<feFlood flood-opacity="0" result="BackgroundImageFix"/>
<feColorMatrix in="SourceAlpha" type="matrix" values="0 0 0 0 0 0 0 0 0 0 0 0 0 0 0 0 0 0 127 0" result="hardAlpha"/>
<feOffset dy="4"/>
<feGaussianBlur stdDeviation="2"/>
<feComposite in2="hardAlpha" operator="out"/>
<feColorMatrix type="matrix" values="0 0 0 0 0 0 0 0 0 0 0 0 0 0 0 0 0 0 0.25 0"/>
<feBlend mode="normal" in2="BackgroundImageFix" result="effect1_dropShadow_164_448"/>
<feBlend mode="normal" in="SourceGraphic" in2="effect1_dropShadow_164_448" result="shape"/>
</filter>
<filter id="filter10_d_164_448" x="424" y="677" width="206" height="126" filterUnits="userSpaceOnUse" color-interpolation-filters="sRGB">
<feFlood flood-opacity="0" result="BackgroundImageFix"/>
<feColorMatrix in="SourceAlpha" type="matrix" values="0 0 0 0 0 0 0 0 0 0 0 0 0 0 0 0 0 0 127 0" result="hardAlpha"/>
<feOffset dy="4"/>
<feGaussianBlur stdDeviation="2"/>
<feComposite in2="hardAlpha" operator="out"/>
<feColorMatrix type="matrix" values="0 0 0 0 0 0 0 0 0 0 0 0 0 0 0 0 0 0 0.25 0"/>
<feBlend mode="normal" in2="BackgroundImageFix" result="effect1_dropShadow_164_448"/>
<feBlend mode="normal" in="SourceGraphic" in2="effect1_dropShadow_164_448" result="shape"/>
</filter>
<filter id="filter11_d_164_448" x="700" y="677" width="206" height="126" filterUnits="userSpaceOnUse" color-interpolation-filters="sRGB">
<feFlood flood-opacity="0" result="BackgroundImageFix"/>
<feColorMatrix in="SourceAlpha" type="matrix" values="0 0 0 0 0 0 0 0 0 0 0 0 0 0 0 0 0 0 127 0" result="hardAlpha"/>
<feOffset dy="4"/>
<feGaussianBlur stdDeviation="2"/>
<feComposite in2="hardAlpha" operator="out"/>
<feColorMatrix type="matrix" values="0 0 0 0 0 0 0 0 0 0 0 0 0 0 0 0 0 0 0.25 0"/>
<feBlend mode="normal" in2="BackgroundImageFix" result="effect1_dropShadow_164_448"/>
<feBlend mode="normal" in="SourceGraphic" in2="effect1_dropShadow_164_448" result="shape"/>
</filter>
<filter id="filter12_d_164_448" x="833" y="607" width="206" height="126" filterUnits="userSpaceOnUse" color-interpolation-filters="sRGB">
<feFlood flood-opacity="0" result="BackgroundImageFix"/>
<feColorMatrix in="SourceAlpha" type="matrix" values="0 0 0 0 0 0 0 0 0 0 0 0 0 0 0 0 0 0 127 0" result="hardAlpha"/>
<feOffset dy="4"/>
<feGaussianBlur stdDeviation="2"/>
<feComposite in2="hardAlpha" operator="out"/>
<feColorMatrix type="matrix" values="0 0 0 0 0 0 0 0 0 0 0 0 0 0 0 0 0 0 0.25 0"/>
<feBlend mode="normal" in2="BackgroundImageFix" result="effect1_dropShadow_164_448"/>
<feBlend mode="normal" in="SourceGraphic" in2="effect1_dropShadow_164_448" result="shape"/>
</filter>
<clipPath id="clip0_164_448">
<rect width="1440" height="1024" fill="white"/>
</clipPath>
</defs>
</svg>
