<svg width="1440" height="1024" viewBox="0 0 1440 1024" fill="none" xmlns="http://www.w3.org/2000/svg">
<g id="recognize9-no-end" clip-path="url(#clip0_162_802)">
<rect width="1440" height="1024" fill="#333148"/>
<rect id="Rectangle 18" x="1227" width="85" height="512" fill="#201F2F"/>
<rect id="Rectangle 22" x="599" width="85" height="512" fill="#201F2F"/>
<rect id="Rectangle 20" x="913" width="85" height="512" fill="#201F2F"/>
<rect id="Rectangle 23" x="285" width="85" height="512" fill="#201F2F"/>
<rect id="Rectangle 19" x="1070" width="85" height="512" fill="#201F2F"/>
<rect id="Rectangle 24" x="442" width="85" height="512" fill="#201F2F"/>
<rect id="Rectangle 21" x="756" width="85" height="512" fill="#201F2F"/>
<rect id="Rectangle 25" x="128" width="85" height="512" fill="#201F2F"/>
<path id="part 4" d="M47.096 132.12V60.024H61.688L62.264 71.448L59.384 70.584C59.832 68.536 61.048 66.648 63.032 64.92C65.016 63.192 67.512 61.784 70.52 60.696C73.592 59.608 76.856 59.064 80.312 59.064C85.304 59.064 89.688 60.216 93.464 62.52C97.24 64.76 100.184 67.864 102.296 71.832C104.472 75.736 105.56 80.28 105.56 85.464C105.56 90.584 104.472 95.128 102.296 99.096C100.184 103.064 97.208 106.2 93.368 108.504C89.528 110.744 85.112 111.864 80.12 111.864C76.664 111.864 73.432 111.288 70.424 110.136C67.416 108.984 64.888 107.48 62.84 105.624C60.856 103.768 59.576 101.816 59 99.768L62.552 98.424V132.12H47.096ZM76.376 98.904C79.256 98.904 81.752 98.36 83.864 97.272C85.976 96.12 87.608 94.552 88.76 92.568C89.976 90.584 90.584 88.216 90.584 85.464C90.584 82.776 89.976 80.44 88.76 78.456C87.608 76.408 85.976 74.84 83.864 73.752C81.816 72.6 79.32 72.024 76.376 72.024C73.496 72.024 70.968 72.568 68.792 73.656C66.68 74.744 65.016 76.312 63.8 78.36C62.648 80.408 62.072 82.776 62.072 85.464C62.072 88.216 62.648 90.584 63.8 92.568C65.016 94.552 66.68 96.12 68.792 97.272C70.968 98.36 73.496 98.904 76.376 98.904ZM144.211 111.864C139.155 111.864 134.739 110.744 130.963 108.504C127.187 106.264 124.211 103.16 122.035 99.192C119.923 95.16 118.867 90.584 118.867 85.464C118.867 80.28 119.955 75.704 122.131 71.736C124.307 67.768 127.315 64.664 131.155 62.424C135.059 60.12 139.539 58.968 144.595 58.968C147.475 58.968 150.131 59.352 152.563 60.12C154.995 60.824 157.107 61.816 158.899 63.096C160.755 64.376 162.259 65.784 163.411 67.32C164.627 68.856 165.427 70.456 165.811 72.12H162.451V60.024H177.619V111H162.163V97.944L165.427 98.424C165.043 100.088 164.243 101.72 163.027 103.32C161.811 104.92 160.243 106.36 158.323 107.64C156.403 108.92 154.227 109.944 151.795 110.712C149.427 111.48 146.899 111.864 144.211 111.864ZM148.339 98.904C151.219 98.904 153.715 98.36 155.827 97.272C158.003 96.184 159.667 94.648 160.819 92.664C162.035 90.616 162.643 88.216 162.643 85.464C162.643 82.776 162.035 80.44 160.819 78.456C159.667 76.408 158.003 74.808 155.827 73.656C153.715 72.504 151.219 71.928 148.339 71.928C145.459 71.928 142.963 72.504 140.851 73.656C138.739 74.808 137.075 76.408 135.859 78.456C134.707 80.44 134.131 82.776 134.131 85.464C134.131 88.216 134.707 90.616 135.859 92.664C137.075 94.648 138.739 96.184 140.851 97.272C142.963 98.36 145.459 98.904 148.339 98.904ZM201.315 111V60.024H215.907L216.579 77.592L212.931 75.768C213.763 72.632 215.203 69.816 217.251 67.32C219.363 64.76 221.763 62.744 224.451 61.272C227.203 59.736 230.115 58.968 233.187 58.968C234.851 58.968 236.419 59.128 237.891 59.448C239.427 59.768 240.739 60.184 241.827 60.696L237.603 77.496C236.643 76.792 235.331 76.248 233.667 75.864C232.067 75.48 230.435 75.288 228.771 75.288C226.915 75.288 225.219 75.608 223.683 76.248C222.211 76.824 220.963 77.656 219.939 78.744C218.915 79.768 218.115 80.952 217.539 82.296C217.027 83.64 216.771 85.08 216.771 86.616V111H201.315ZM265.932 111V46.008H281.292V111H265.932ZM254.604 73.464V60.024H294.252V73.464H254.604ZM377.032 111V53.304H387.112L357.544 88.248L355.624 83.736H405.256V96.984H349.48L343.048 84.6L378.856 43.224H392.776V111H377.032Z" fill="white"/>
<rect id="Rectangle 7" y="462" width="1567" height="626" fill="#211F2F"/>
<path id="you died..." d="M363.336 283.08L376.68 255.72L376.392 263.496L349.32 210.024H366.888L379.272 236.52C380.168 238.312 381 240.136 381.768 241.992C382.536 243.784 383.144 245.576 383.592 247.368L380.712 248.136C381.288 246.728 381.96 245.064 382.728 243.144C383.496 241.224 384.296 239.272 385.128 237.288L396.552 210.024H414.12L389.16 261.192L378.888 283.08H363.336ZM455.101 261.96C449.149 261.96 443.869 260.808 439.261 258.504C434.653 256.2 431.037 253.064 428.413 249.096C425.789 245.128 424.477 240.584 424.477 235.464C424.477 230.344 425.789 225.8 428.413 221.832C431.037 217.864 434.653 214.728 439.261 212.424C443.869 210.12 449.149 208.968 455.101 208.968C460.989 208.968 466.205 210.12 470.749 212.424C475.357 214.728 478.973 217.864 481.597 221.832C484.221 225.8 485.533 230.344 485.533 235.464C485.533 240.584 484.221 245.128 481.597 249.096C478.973 253.064 475.357 256.2 470.749 258.504C466.205 260.808 460.989 261.96 455.101 261.96ZM455.101 248.712C457.853 248.712 460.349 248.136 462.589 246.984C464.893 245.832 466.685 244.264 467.965 242.28C469.309 240.296 469.949 238.024 469.885 235.464C469.949 232.904 469.309 230.6 467.965 228.552C466.685 226.504 464.893 224.936 462.589 223.848C460.349 222.696 457.853 222.12 455.101 222.12C452.285 222.12 449.693 222.696 447.325 223.848C445.021 225 443.229 226.568 441.949 228.552C440.669 230.536 440.029 232.84 440.029 235.464C440.029 238.024 440.669 240.296 441.949 242.28C443.229 244.264 445.021 245.832 447.325 246.984C449.693 248.136 452.285 248.712 455.101 248.712ZM523.573 262.056C519.477 262.056 515.925 261.16 512.917 259.368C509.973 257.576 507.701 254.984 506.101 251.592C504.501 248.136 503.701 244.008 503.701 239.208V210.024H519.061V236.712C519.061 239.336 519.413 241.544 520.117 243.336C520.885 245.128 522.069 246.504 523.669 247.464C525.269 248.36 527.221 248.808 529.525 248.808C531.189 248.808 532.725 248.552 534.133 248.04C535.541 247.464 536.789 246.696 537.877 245.736C538.965 244.712 539.797 243.56 540.373 242.28C541.013 240.936 541.333 239.432 541.333 237.768V210.024H556.693V261H542.293L541.621 250.536L544.405 249.384C543.701 251.624 542.357 253.704 540.373 255.624C538.389 257.544 535.957 259.112 533.077 260.328C530.261 261.48 527.093 262.056 523.573 262.056ZM638.613 262.056C633.621 262.056 629.237 260.936 625.461 258.696C621.685 256.392 618.741 253.256 616.629 249.288C614.517 245.256 613.461 240.68 613.461 235.56C613.461 230.44 614.549 225.896 616.725 221.928C618.901 217.896 621.909 214.728 625.749 212.424C629.653 210.12 634.133 208.968 639.189 208.968C642.005 208.968 644.629 209.352 647.061 210.12C649.493 210.824 651.669 211.784 653.589 213C655.573 214.216 657.141 215.624 658.293 217.224C659.509 218.76 660.213 220.328 660.405 221.928L656.757 222.792V189.96H672.213V261H657.909L657.045 248.616L660.117 249.384C659.925 250.984 659.221 252.552 658.005 254.088C656.789 255.56 655.189 256.904 653.205 258.12C651.285 259.272 649.077 260.232 646.581 261C644.085 261.704 641.429 262.056 638.613 262.056ZM642.933 249.096C645.813 249.096 648.309 248.52 650.421 247.368C652.597 246.216 654.261 244.648 655.413 242.664C656.565 240.616 657.141 238.248 657.141 235.56C657.141 232.808 656.565 230.44 655.413 228.456C654.261 226.408 652.597 224.84 650.421 223.752C648.309 222.6 645.813 222.024 642.933 222.024C640.053 222.024 637.557 222.6 635.445 223.752C633.333 224.84 631.669 226.408 630.453 228.456C629.301 230.44 628.725 232.808 628.725 235.56C628.725 238.248 629.301 240.616 630.453 242.664C631.669 244.648 633.333 246.216 635.445 247.368C637.557 248.52 640.053 249.096 642.933 249.096ZM695.458 261V210.024H710.914V261H695.458ZM703.138 199.56C700.258 199.56 698.018 198.888 696.418 197.544C694.818 196.136 694.018 194.152 694.018 191.592C694.018 189.288 694.818 187.4 696.418 185.928C698.082 184.456 700.322 183.72 703.138 183.72C706.018 183.72 708.258 184.424 709.858 185.832C711.458 187.176 712.258 189.096 712.258 191.592C712.258 193.96 711.426 195.88 709.762 197.352C708.162 198.824 705.954 199.56 703.138 199.56ZM760.904 261.96C754.696 261.96 749.256 260.84 744.584 258.6C739.976 256.296 736.392 253.192 733.832 249.288C731.272 245.32 729.992 240.808 729.992 235.752C729.992 231.72 730.728 228.072 732.2 224.808C733.672 221.544 735.72 218.728 738.344 216.36C740.968 213.992 744.04 212.168 747.56 210.888C751.08 209.608 754.888 208.968 758.984 208.968C762.952 208.968 766.6 209.608 769.928 210.888C773.256 212.104 776.136 213.864 778.568 216.168C781.064 218.472 782.984 221.192 784.328 224.328C785.672 227.464 786.28 230.92 786.152 234.696L786.056 239.016H740.072L737.864 230.088H773.576L771.944 232.008V230.088C771.752 228.488 771.048 227.048 769.832 225.768C768.68 224.488 767.176 223.496 765.32 222.792C763.464 222.024 761.416 221.64 759.176 221.64C756.296 221.64 753.736 222.12 751.496 223.08C749.256 223.976 747.496 225.384 746.216 227.304C745 229.224 744.392 231.656 744.392 234.6C744.392 237.416 745.128 239.88 746.6 241.992C748.136 244.104 750.28 245.768 753.032 246.984C755.848 248.2 759.144 248.808 762.92 248.808C766.184 248.808 768.904 248.424 771.08 247.656C773.32 246.824 775.336 245.8 777.128 244.584L784.04 254.568C781.928 256.168 779.592 257.544 777.032 258.696C774.536 259.784 771.912 260.584 769.16 261.096C766.472 261.672 763.72 261.96 760.904 261.96ZM824.613 262.056C819.621 262.056 815.237 260.936 811.461 258.696C807.685 256.392 804.741 253.256 802.629 249.288C800.517 245.256 799.461 240.68 799.461 235.56C799.461 230.44 800.549 225.896 802.725 221.928C804.901 217.896 807.909 214.728 811.749 212.424C815.653 210.12 820.133 208.968 825.189 208.968C828.005 208.968 830.629 209.352 833.061 210.12C835.493 210.824 837.669 211.784 839.589 213C841.573 214.216 843.141 215.624 844.293 217.224C845.509 218.76 846.213 220.328 846.405 221.928L842.757 222.792V189.96H858.213V261H843.909L843.045 248.616L846.117 249.384C845.925 250.984 845.221 252.552 844.005 254.088C842.789 255.56 841.189 256.904 839.205 258.12C837.285 259.272 835.077 260.232 832.581 261C830.085 261.704 827.429 262.056 824.613 262.056ZM828.933 249.096C831.813 249.096 834.309 248.52 836.421 247.368C838.597 246.216 840.261 244.648 841.413 242.664C842.565 240.616 843.141 238.248 843.141 235.56C843.141 232.808 842.565 230.44 841.413 228.456C840.261 226.408 838.597 224.84 836.421 223.752C834.309 222.6 831.813 222.024 828.933 222.024C826.053 222.024 823.557 222.6 821.445 223.752C819.333 224.84 817.669 226.408 816.453 228.456C815.301 230.44 814.725 232.808 814.725 235.56C814.725 238.248 815.301 240.616 816.453 242.664C817.669 244.648 819.333 246.216 821.445 247.368C823.557 248.52 826.053 249.096 828.933 249.096ZM887.026 262.056C883.89 262.056 881.49 261.32 879.826 259.848C878.226 258.312 877.426 256.2 877.426 253.512C877.426 251.08 878.258 249.032 879.922 247.368C881.65 245.704 884.018 244.872 887.026 244.872C890.162 244.872 892.562 245.64 894.226 247.176C895.89 248.712 896.722 250.824 896.722 253.512C896.722 255.88 895.858 257.896 894.13 259.56C892.466 261.224 890.098 262.056 887.026 262.056ZM923.963 262.056C920.827 262.056 918.427 261.32 916.763 259.848C915.163 258.312 914.363 256.2 914.363 253.512C914.363 251.08 915.195 249.032 916.859 247.368C918.587 245.704 920.955 244.872 923.963 244.872C927.099 244.872 929.499 245.64 931.163 247.176C932.827 248.712 933.659 250.824 933.659 253.512C933.659 255.88 932.795 257.896 931.067 259.56C929.403 261.224 927.035 262.056 923.963 262.056ZM960.901 262.056C957.765 262.056 955.365 261.32 953.701 259.848C952.101 258.312 951.301 256.2 951.301 253.512C951.301 251.08 952.133 249.032 953.797 247.368C955.525 245.704 957.893 244.872 960.901 244.872C964.037 244.872 966.437 245.64 968.101 247.176C969.765 248.712 970.597 250.824 970.597 253.512C970.597 255.88 969.733 257.896 968.005 259.56C966.341 261.224 963.973 262.056 960.901 262.056Z" fill="white"/>
<path id="you died because of two pieces of tape..." d="M349.584 313.52L352.92 306.68L352.848 308.624L346.08 295.256H350.472L353.568 301.88C353.792 302.328 354 302.784 354.192 303.248C354.384 303.696 354.536 304.144 354.648 304.592L353.928 304.784C354.072 304.432 354.24 304.016 354.432 303.536C354.624 303.056 354.824 302.568 355.032 302.072L357.888 295.256H362.28L356.04 308.048L353.472 313.52H349.584ZM372.525 308.24C371.037 308.24 369.717 307.952 368.565 307.376C367.413 306.8 366.509 306.016 365.853 305.024C365.197 304.032 364.869 302.896 364.869 301.616C364.869 300.336 365.197 299.2 365.853 298.208C366.509 297.216 367.413 296.432 368.565 295.856C369.717 295.28 371.037 294.992 372.525 294.992C373.997 294.992 375.301 295.28 376.437 295.856C377.589 296.432 378.493 297.216 379.149 298.208C379.805 299.2 380.133 300.336 380.133 301.616C380.133 302.896 379.805 304.032 379.149 305.024C378.493 306.016 377.589 306.8 376.437 307.376C375.301 307.952 373.997 308.24 372.525 308.24ZM372.525 304.928C373.213 304.928 373.837 304.784 374.397 304.496C374.973 304.208 375.421 303.816 375.741 303.32C376.077 302.824 376.237 302.256 376.221 301.616C376.237 300.976 376.077 300.4 375.741 299.888C375.421 299.376 374.973 298.984 374.397 298.712C373.837 298.424 373.213 298.28 372.525 298.28C371.821 298.28 371.173 298.424 370.581 298.712C370.005 299 369.557 299.392 369.237 299.888C368.917 300.384 368.757 300.96 368.757 301.616C368.757 302.256 368.917 302.824 369.237 303.32C369.557 303.816 370.005 304.208 370.581 304.496C371.173 304.784 371.821 304.928 372.525 304.928ZM389.643 308.264C388.619 308.264 387.731 308.04 386.979 307.592C386.243 307.144 385.675 306.496 385.275 305.648C384.875 304.784 384.675 303.752 384.675 302.552V295.256H388.515V301.928C388.515 302.584 388.603 303.136 388.779 303.584C388.971 304.032 389.267 304.376 389.667 304.616C390.067 304.84 390.555 304.952 391.131 304.952C391.547 304.952 391.931 304.888 392.283 304.76C392.635 304.616 392.947 304.424 393.219 304.184C393.491 303.928 393.699 303.64 393.843 303.32C394.003 302.984 394.083 302.608 394.083 302.192V295.256H397.923V308H394.323L394.155 305.384L394.851 305.096C394.675 305.656 394.339 306.176 393.843 306.656C393.347 307.136 392.739 307.528 392.019 307.832C391.315 308.12 390.523 308.264 389.643 308.264ZM418.403 308.264C417.155 308.264 416.059 307.984 415.115 307.424C414.171 306.848 413.435 306.064 412.907 305.072C412.379 304.064 412.115 302.92 412.115 301.64C412.115 300.36 412.387 299.224 412.931 298.232C413.475 297.224 414.227 296.432 415.187 295.856C416.163 295.28 417.283 294.992 418.547 294.992C419.251 294.992 419.907 295.088 420.515 295.28C421.123 295.456 421.667 295.696 422.147 296C422.643 296.304 423.035 296.656 423.323 297.056C423.627 297.44 423.803 297.832 423.851 298.232L422.939 298.448V290.24H426.803V308H423.227L423.011 304.904L423.779 305.096C423.731 305.496 423.555 305.888 423.251 306.272C422.947 306.64 422.547 306.976 422.051 307.28C421.571 307.568 421.019 307.808 420.395 308C419.771 308.176 419.107 308.264 418.403 308.264ZM419.483 305.024C420.203 305.024 420.827 304.88 421.355 304.592C421.899 304.304 422.315 303.912 422.603 303.416C422.891 302.904 423.035 302.312 423.035 301.64C423.035 300.952 422.891 300.36 422.603 299.864C422.315 299.352 421.899 298.96 421.355 298.688C420.827 298.4 420.203 298.256 419.483 298.256C418.763 298.256 418.139 298.4 417.611 298.688C417.083 298.96 416.667 299.352 416.363 299.864C416.075 300.36 415.931 300.952 415.931 301.64C415.931 302.312 416.075 302.904 416.363 303.416C416.667 303.912 417.083 304.304 417.611 304.592C418.139 304.88 418.763 305.024 419.483 305.024ZM432.614 308V295.256H436.478V308H432.614ZM434.534 292.64C433.814 292.64 433.254 292.472 432.854 292.136C432.454 291.784 432.254 291.288 432.254 290.648C432.254 290.072 432.454 289.6 432.854 289.232C433.27 288.864 433.83 288.68 434.534 288.68C435.254 288.68 435.814 288.856 436.214 289.208C436.614 289.544 436.814 290.024 436.814 290.648C436.814 291.24 436.606 291.72 436.19 292.088C435.79 292.456 435.238 292.64 434.534 292.64ZM448.976 308.24C447.424 308.24 446.064 307.96 444.896 307.4C443.744 306.824 442.848 306.048 442.208 305.072C441.568 304.08 441.248 302.952 441.248 301.688C441.248 300.68 441.432 299.768 441.8 298.952C442.168 298.136 442.68 297.432 443.336 296.84C443.992 296.248 444.76 295.792 445.64 295.472C446.52 295.152 447.472 294.992 448.496 294.992C449.488 294.992 450.4 295.152 451.232 295.472C452.064 295.776 452.784 296.216 453.392 296.792C454.016 297.368 454.496 298.048 454.832 298.832C455.168 299.616 455.32 300.48 455.288 301.424L455.264 302.504H443.768L443.216 300.272H452.144L451.736 300.752V300.272C451.688 299.872 451.512 299.512 451.208 299.192C450.92 298.872 450.544 298.624 450.08 298.448C449.616 298.256 449.104 298.16 448.544 298.16C447.824 298.16 447.184 298.28 446.624 298.52C446.064 298.744 445.624 299.096 445.304 299.576C445 300.056 444.848 300.664 444.848 301.4C444.848 302.104 445.032 302.72 445.4 303.248C445.784 303.776 446.32 304.192 447.008 304.496C447.712 304.8 448.536 304.952 449.48 304.952C450.296 304.952 450.976 304.856 451.52 304.664C452.08 304.456 452.584 304.2 453.032 303.896L454.76 306.392C454.232 306.792 453.648 307.136 453.008 307.424C452.384 307.696 451.728 307.896 451.04 308.024C450.368 308.168 449.68 308.24 448.976 308.24ZM464.903 308.264C463.655 308.264 462.559 307.984 461.615 307.424C460.671 306.848 459.935 306.064 459.407 305.072C458.879 304.064 458.615 302.92 458.615 301.64C458.615 300.36 458.887 299.224 459.431 298.232C459.975 297.224 460.727 296.432 461.687 295.856C462.663 295.28 463.783 294.992 465.047 294.992C465.751 294.992 466.407 295.088 467.015 295.28C467.623 295.456 468.167 295.696 468.647 296C469.143 296.304 469.535 296.656 469.823 297.056C470.127 297.44 470.303 297.832 470.351 298.232L469.439 298.448V290.24H473.303V308H469.727L469.511 304.904L470.279 305.096C470.231 305.496 470.055 305.888 469.751 306.272C469.447 306.64 469.047 306.976 468.551 307.28C468.071 307.568 467.519 307.808 466.895 308C466.271 308.176 465.607 308.264 464.903 308.264ZM465.983 305.024C466.703 305.024 467.327 304.88 467.855 304.592C468.399 304.304 468.815 303.912 469.103 303.416C469.391 302.904 469.535 302.312 469.535 301.64C469.535 300.952 469.391 300.36 469.103 299.864C468.815 299.352 468.399 298.96 467.855 298.688C467.327 298.4 466.703 298.256 465.983 298.256C465.263 298.256 464.639 298.4 464.111 298.688C463.583 298.96 463.167 299.352 462.863 299.864C462.575 300.36 462.431 300.952 462.431 301.64C462.431 302.312 462.575 302.904 462.863 303.416C463.167 303.912 463.583 304.304 464.111 304.592C464.639 304.88 465.263 305.024 465.983 305.024ZM496.715 308.264C496.027 308.264 495.379 308.176 494.771 308C494.163 307.824 493.619 307.592 493.139 307.304C492.659 307.016 492.259 306.688 491.939 306.32C491.635 305.936 491.435 305.568 491.339 305.216L492.371 305.024L492.155 307.976H488.579V290.24H492.443V298.304L491.459 298.112C491.571 297.712 491.779 297.328 492.083 296.96C492.387 296.592 492.771 296.264 493.235 295.976C493.715 295.672 494.251 295.432 494.843 295.256C495.435 295.08 496.059 294.992 496.715 294.992C497.931 294.992 499.019 295.28 499.979 295.856C500.939 296.416 501.699 297.2 502.259 298.208C502.819 299.2 503.099 300.336 503.099 301.616C503.099 302.912 502.819 304.064 502.259 305.072C501.715 306.064 500.963 306.848 500.003 307.424C499.043 307.984 497.947 308.264 496.715 308.264ZM495.803 305C496.523 305 497.139 304.856 497.651 304.568C498.179 304.28 498.587 303.888 498.875 303.392C499.179 302.88 499.331 302.288 499.331 301.616C499.331 300.944 499.187 300.352 498.899 299.84C498.611 299.328 498.195 298.936 497.651 298.664C497.123 298.392 496.507 298.256 495.803 298.256C495.067 298.256 494.435 298.392 493.907 298.664C493.379 298.936 492.963 299.328 492.659 299.84C492.371 300.352 492.227 300.944 492.227 301.616C492.227 302.288 492.371 302.88 492.659 303.392C492.963 303.888 493.379 304.28 493.907 304.568C494.435 304.856 495.067 305 495.803 305ZM514.132 308.24C512.58 308.24 511.22 307.96 510.052 307.4C508.9 306.824 508.004 306.048 507.364 305.072C506.724 304.08 506.404 302.952 506.404 301.688C506.404 300.68 506.588 299.768 506.956 298.952C507.324 298.136 507.836 297.432 508.492 296.84C509.148 296.248 509.916 295.792 510.796 295.472C511.676 295.152 512.628 294.992 513.652 294.992C514.644 294.992 515.556 295.152 516.388 295.472C517.22 295.776 517.94 296.216 518.548 296.792C519.172 297.368 519.652 298.048 519.988 298.832C520.324 299.616 520.476 300.48 520.444 301.424L520.42 302.504H508.924L508.372 300.272H517.3L516.892 300.752V300.272C516.844 299.872 516.668 299.512 516.364 299.192C516.076 298.872 515.7 298.624 515.236 298.448C514.772 298.256 514.26 298.16 513.7 298.16C512.98 298.16 512.34 298.28 511.78 298.52C511.22 298.744 510.78 299.096 510.46 299.576C510.156 300.056 510.004 300.664 510.004 301.4C510.004 302.104 510.188 302.72 510.556 303.248C510.94 303.776 511.476 304.192 512.164 304.496C512.868 304.8 513.692 304.952 514.636 304.952C515.452 304.952 516.132 304.856 516.676 304.664C517.236 304.456 517.74 304.2 518.188 303.896L519.916 306.392C519.388 306.792 518.804 307.136 518.164 307.424C517.54 307.696 516.884 307.896 516.196 308.024C515.524 308.168 514.836 308.24 514.132 308.24ZM531.188 308.24C529.78 308.24 528.532 307.952 527.444 307.376C526.356 306.8 525.5 306.016 524.876 305.024C524.252 304.016 523.94 302.88 523.94 301.616C523.94 300.352 524.252 299.224 524.876 298.232C525.5 297.224 526.348 296.432 527.42 295.856C528.492 295.28 529.708 294.992 531.068 294.992C532.364 294.992 533.548 295.192 534.62 295.592C535.692 295.976 536.564 296.52 537.236 297.224L535.148 299.864C534.86 299.592 534.516 299.336 534.116 299.096C533.716 298.856 533.284 298.672 532.82 298.544C532.372 298.4 531.908 298.328 531.428 298.328C530.692 298.328 530.044 298.472 529.484 298.76C528.94 299.032 528.516 299.416 528.212 299.912C527.924 300.408 527.78 300.976 527.78 301.616C527.78 302.224 527.932 302.776 528.236 303.272C528.54 303.768 528.964 304.16 529.508 304.448C530.052 304.736 530.684 304.88 531.404 304.88C531.98 304.88 532.492 304.824 532.94 304.712C533.388 304.6 533.796 304.448 534.164 304.256C534.548 304.048 534.876 303.816 535.148 303.56L537.236 306.176C536.516 306.784 535.636 307.28 534.596 307.664C533.556 308.048 532.42 308.24 531.188 308.24ZM546.561 308.216C545.297 308.216 544.193 307.936 543.249 307.376C542.305 306.816 541.561 306.04 541.017 305.048C540.489 304.04 540.225 302.896 540.225 301.616C540.225 300.32 540.497 299.176 541.041 298.184C541.585 297.192 542.337 296.416 543.297 295.856C544.273 295.28 545.393 294.992 546.657 294.992C547.377 294.992 548.041 295.088 548.649 295.28C549.257 295.456 549.785 295.704 550.233 296.024C550.697 296.344 551.073 296.696 551.361 297.08C551.665 297.464 551.865 297.864 551.961 298.28H551.121V295.256H554.913V308H551.049V304.736L551.865 304.856C551.769 305.272 551.569 305.68 551.265 306.08C550.961 306.48 550.569 306.84 550.089 307.16C549.609 307.48 549.065 307.736 548.457 307.928C547.865 308.12 547.233 308.216 546.561 308.216ZM547.593 304.976C548.313 304.976 548.937 304.84 549.465 304.568C550.009 304.296 550.425 303.912 550.713 303.416C551.017 302.904 551.169 302.304 551.169 301.616C551.169 300.944 551.017 300.36 550.713 299.864C550.425 299.352 550.009 298.952 549.465 298.664C548.937 298.376 548.313 298.232 547.593 298.232C546.873 298.232 546.249 298.376 545.721 298.664C545.193 298.952 544.777 299.352 544.473 299.864C544.185 300.36 544.041 300.944 544.041 301.616C544.041 302.304 544.185 302.904 544.473 303.416C544.777 303.912 545.193 304.296 545.721 304.568C546.249 304.84 546.873 304.976 547.593 304.976ZM565.354 308.264C564.33 308.264 563.442 308.04 562.69 307.592C561.954 307.144 561.386 306.496 560.986 305.648C560.586 304.784 560.386 303.752 560.386 302.552V295.256H564.226V301.928C564.226 302.584 564.314 303.136 564.49 303.584C564.682 304.032 564.978 304.376 565.378 304.616C565.778 304.84 566.266 304.952 566.842 304.952C567.258 304.952 567.642 304.888 567.994 304.76C568.346 304.616 568.658 304.424 568.93 304.184C569.202 303.928 569.41 303.64 569.554 303.32C569.714 302.984 569.794 302.608 569.794 302.192V295.256H573.634V308H570.034L569.866 305.384L570.562 305.096C570.386 305.656 570.05 306.176 569.554 306.656C569.058 307.136 568.45 307.528 567.73 307.832C567.026 308.12 566.234 308.264 565.354 308.264ZM584.458 308.24C583.05 308.24 581.786 308.04 580.666 307.64C579.562 307.24 578.674 306.672 578.002 305.936L580.33 303.872C580.874 304.384 581.522 304.776 582.274 305.048C583.026 305.32 583.818 305.456 584.65 305.456C584.906 305.456 585.154 305.432 585.394 305.384C585.65 305.336 585.866 305.272 586.042 305.192C586.234 305.096 586.386 304.984 586.498 304.856C586.61 304.728 586.666 304.568 586.666 304.376C586.666 304.072 586.474 303.832 586.09 303.656C585.818 303.56 585.474 303.464 585.058 303.368C584.642 303.272 584.17 303.168 583.642 303.056C582.762 302.896 581.986 302.704 581.314 302.48C580.658 302.24 580.106 301.944 579.658 301.592C579.274 301.256 578.978 300.872 578.77 300.44C578.562 300.008 578.458 299.504 578.458 298.928C578.458 298.336 578.61 297.8 578.914 297.32C579.218 296.824 579.642 296.408 580.186 296.072C580.73 295.72 581.354 295.456 582.058 295.28C582.762 295.088 583.498 294.992 584.266 294.992C585.034 294.992 585.786 295.072 586.522 295.232C587.258 295.376 587.954 295.592 588.61 295.88C589.266 296.152 589.842 296.504 590.338 296.936L588.37 299.24C588.018 298.968 587.61 298.72 587.146 298.496C586.682 298.272 586.186 298.096 585.658 297.968C585.146 297.824 584.642 297.752 584.146 297.752C583.874 297.752 583.61 297.768 583.354 297.8C583.114 297.832 582.906 297.896 582.73 297.992C582.554 298.072 582.41 298.176 582.298 298.304C582.202 298.416 582.154 298.56 582.154 298.736C582.154 298.88 582.194 299.016 582.274 299.144C582.354 299.272 582.474 299.376 582.634 299.456C582.858 299.6 583.186 299.728 583.618 299.84C584.066 299.952 584.626 300.072 585.298 300.2C586.274 300.408 587.106 300.648 587.794 300.92C588.482 301.176 589.034 301.488 589.45 301.856C589.786 302.112 590.034 302.432 590.194 302.816C590.354 303.184 590.434 303.592 590.434 304.04C590.434 304.856 590.17 305.584 589.642 306.224C589.13 306.848 588.426 307.344 587.53 307.712C586.65 308.064 585.626 308.24 584.458 308.24ZM601.109 308.24C599.557 308.24 598.197 307.96 597.029 307.4C595.877 306.824 594.981 306.048 594.341 305.072C593.701 304.08 593.381 302.952 593.381 301.688C593.381 300.68 593.565 299.768 593.933 298.952C594.301 298.136 594.813 297.432 595.469 296.84C596.125 296.248 596.893 295.792 597.773 295.472C598.653 295.152 599.605 294.992 600.629 294.992C601.621 294.992 602.533 295.152 603.365 295.472C604.197 295.776 604.917 296.216 605.525 296.792C606.149 297.368 606.629 298.048 606.965 298.832C607.301 299.616 607.453 300.48 607.421 301.424L607.397 302.504H595.901L595.349 300.272H604.277L603.869 300.752V300.272C603.821 299.872 603.645 299.512 603.341 299.192C603.053 298.872 602.677 298.624 602.213 298.448C601.749 298.256 601.237 298.16 600.677 298.16C599.957 298.16 599.317 298.28 598.757 298.52C598.197 298.744 597.757 299.096 597.437 299.576C597.133 300.056 596.981 300.664 596.981 301.4C596.981 302.104 597.165 302.72 597.533 303.248C597.917 303.776 598.453 304.192 599.141 304.496C599.845 304.8 600.669 304.952 601.613 304.952C602.429 304.952 603.109 304.856 603.653 304.664C604.213 304.456 604.717 304.2 605.165 303.896L606.893 306.392C606.365 306.792 605.781 307.136 605.141 307.424C604.517 307.696 603.861 307.896 603.173 308.024C602.501 308.168 601.813 308.24 601.109 308.24ZM628.228 308.24C626.74 308.24 625.42 307.952 624.268 307.376C623.116 306.8 622.212 306.016 621.556 305.024C620.9 304.032 620.572 302.896 620.572 301.616C620.572 300.336 620.9 299.2 621.556 298.208C622.212 297.216 623.116 296.432 624.268 295.856C625.42 295.28 626.74 294.992 628.228 294.992C629.7 294.992 631.004 295.28 632.14 295.856C633.292 296.432 634.196 297.216 634.852 298.208C635.508 299.2 635.836 300.336 635.836 301.616C635.836 302.896 635.508 304.032 634.852 305.024C634.196 306.016 633.292 306.8 632.14 307.376C631.004 307.952 629.7 308.24 628.228 308.24ZM628.228 304.928C628.916 304.928 629.54 304.784 630.1 304.496C630.676 304.208 631.124 303.816 631.444 303.32C631.78 302.824 631.94 302.256 631.924 301.616C631.94 300.976 631.78 300.4 631.444 299.888C631.124 299.376 630.676 298.984 630.1 298.712C629.54 298.424 628.916 298.28 628.228 298.28C627.524 298.28 626.876 298.424 626.284 298.712C625.708 299 625.26 299.392 624.94 299.888C624.62 300.384 624.46 300.96 624.46 301.616C624.46 302.256 624.62 302.824 624.94 303.32C625.26 303.816 625.708 304.208 626.284 304.496C626.876 304.784 627.524 304.928 628.228 304.928ZM640.942 308V295.04C640.942 294.096 641.142 293.264 641.542 292.544C641.958 291.808 642.534 291.232 643.27 290.816C644.006 290.4 644.862 290.192 645.838 290.192C646.59 290.192 647.246 290.288 647.806 290.48C648.382 290.672 648.87 290.912 649.27 291.2L648.166 294.032C647.942 293.904 647.678 293.792 647.374 293.696C647.086 293.584 646.798 293.528 646.51 293.528C646.094 293.528 645.75 293.6 645.478 293.744C645.222 293.872 645.03 294.064 644.902 294.32C644.774 294.576 644.71 294.88 644.71 295.232V308H642.838C642.438 308 642.078 308 641.758 308C641.438 308 641.166 308 640.942 308ZM638.71 298.88V295.712H648.382V298.88H638.71ZM663.71 308V291.752H667.55V308H663.71ZM660.878 298.616V295.256H670.79V298.616H660.878ZM677.988 308L673.548 295.256H677.604L680.124 303.656L679.62 303.608L682.5 296.96H684.972L688.044 303.608L687.54 303.656L690.06 295.256H694.14L689.556 308H686.652L683.34 300.32L684.228 300.296L680.868 308H677.988ZM704.002 308.24C702.514 308.24 701.194 307.952 700.042 307.376C698.89 306.8 697.986 306.016 697.33 305.024C696.674 304.032 696.346 302.896 696.346 301.616C696.346 300.336 696.674 299.2 697.33 298.208C697.986 297.216 698.89 296.432 700.042 295.856C701.194 295.28 702.514 294.992 704.002 294.992C705.474 294.992 706.778 295.28 707.914 295.856C709.066 296.432 709.97 297.216 710.626 298.208C711.282 299.2 711.61 300.336 711.61 301.616C711.61 302.896 711.282 304.032 710.626 305.024C709.97 306.016 709.066 306.8 707.914 307.376C706.778 307.952 705.474 308.24 704.002 308.24ZM704.002 304.928C704.69 304.928 705.314 304.784 705.874 304.496C706.45 304.208 706.898 303.816 707.218 303.32C707.554 302.824 707.714 302.256 707.698 301.616C707.714 300.976 707.554 300.4 707.218 299.888C706.898 299.376 706.45 298.984 705.874 298.712C705.314 298.424 704.69 298.28 704.002 298.28C703.298 298.28 702.65 298.424 702.058 298.712C701.482 299 701.034 299.392 700.714 299.888C700.394 300.384 700.234 300.96 700.234 301.616C700.234 302.256 700.394 302.824 700.714 303.32C701.034 303.816 701.482 304.208 702.058 304.496C702.65 304.784 703.298 304.928 704.002 304.928ZM726.024 313.28V295.256H729.672L729.816 298.112L729.096 297.896C729.208 297.384 729.512 296.912 730.008 296.48C730.504 296.048 731.128 295.696 731.88 295.424C732.648 295.152 733.464 295.016 734.328 295.016C735.576 295.016 736.672 295.304 737.616 295.88C738.56 296.44 739.296 297.216 739.824 298.208C740.368 299.184 740.64 300.32 740.64 301.616C740.64 302.896 740.368 304.032 739.824 305.024C739.296 306.016 738.552 306.8 737.592 307.376C736.632 307.936 735.528 308.216 734.28 308.216C733.416 308.216 732.608 308.072 731.856 307.784C731.104 307.496 730.472 307.12 729.96 306.656C729.464 306.192 729.144 305.704 729 305.192L729.888 304.856V313.28H726.024ZM733.344 304.976C734.064 304.976 734.688 304.84 735.216 304.568C735.744 304.28 736.152 303.888 736.44 303.392C736.744 302.896 736.896 302.304 736.896 301.616C736.896 300.944 736.744 300.36 736.44 299.864C736.152 299.352 735.744 298.96 735.216 298.688C734.704 298.4 734.08 298.256 733.344 298.256C732.624 298.256 731.992 298.392 731.448 298.664C730.92 298.936 730.504 299.328 730.2 299.84C729.912 300.352 729.768 300.944 729.768 301.616C729.768 302.304 729.912 302.896 730.2 303.392C730.504 303.888 730.92 304.28 731.448 304.568C731.992 304.84 732.624 304.976 733.344 304.976ZM745.599 308V295.256H749.463V308H745.599ZM747.519 292.64C746.799 292.64 746.239 292.472 745.839 292.136C745.439 291.784 745.239 291.288 745.239 290.648C745.239 290.072 745.439 289.6 745.839 289.232C746.255 288.864 746.815 288.68 747.519 288.68C748.239 288.68 748.799 288.856 749.199 289.208C749.599 289.544 749.799 290.024 749.799 290.648C749.799 291.24 749.591 291.72 749.175 292.088C748.775 292.456 748.223 292.64 747.519 292.64ZM761.96 308.24C760.408 308.24 759.048 307.96 757.88 307.4C756.728 306.824 755.832 306.048 755.192 305.072C754.552 304.08 754.232 302.952 754.232 301.688C754.232 300.68 754.416 299.768 754.784 298.952C755.152 298.136 755.664 297.432 756.32 296.84C756.976 296.248 757.744 295.792 758.624 295.472C759.504 295.152 760.456 294.992 761.48 294.992C762.472 294.992 763.384 295.152 764.216 295.472C765.048 295.776 765.768 296.216 766.376 296.792C767 297.368 767.48 298.048 767.816 298.832C768.152 299.616 768.304 300.48 768.272 301.424L768.248 302.504H756.752L756.2 300.272H765.128L764.72 300.752V300.272C764.672 299.872 764.496 299.512 764.192 299.192C763.904 298.872 763.528 298.624 763.064 298.448C762.6 298.256 762.088 298.16 761.528 298.16C760.808 298.16 760.168 298.28 759.608 298.52C759.048 298.744 758.608 299.096 758.288 299.576C757.984 300.056 757.832 300.664 757.832 301.4C757.832 302.104 758.016 302.72 758.384 303.248C758.768 303.776 759.304 304.192 759.992 304.496C760.696 304.8 761.52 304.952 762.464 304.952C763.28 304.952 763.96 304.856 764.504 304.664C765.064 304.456 765.568 304.2 766.016 303.896L767.744 306.392C767.216 306.792 766.632 307.136 765.992 307.424C765.368 307.696 764.712 307.896 764.024 308.024C763.352 308.168 762.664 308.24 761.96 308.24ZM779.016 308.24C777.608 308.24 776.36 307.952 775.272 307.376C774.184 306.8 773.328 306.016 772.704 305.024C772.08 304.016 771.768 302.88 771.768 301.616C771.768 300.352 772.08 299.224 772.704 298.232C773.328 297.224 774.176 296.432 775.248 295.856C776.32 295.28 777.536 294.992 778.896 294.992C780.192 294.992 781.376 295.192 782.448 295.592C783.52 295.976 784.392 296.52 785.064 297.224L782.976 299.864C782.688 299.592 782.344 299.336 781.944 299.096C781.544 298.856 781.112 298.672 780.648 298.544C780.2 298.4 779.736 298.328 779.256 298.328C778.52 298.328 777.872 298.472 777.312 298.76C776.768 299.032 776.344 299.416 776.04 299.912C775.752 300.408 775.608 300.976 775.608 301.616C775.608 302.224 775.76 302.776 776.064 303.272C776.368 303.768 776.792 304.16 777.336 304.448C777.88 304.736 778.512 304.88 779.232 304.88C779.808 304.88 780.32 304.824 780.768 304.712C781.216 304.6 781.624 304.448 781.992 304.256C782.376 304.048 782.704 303.816 782.976 303.56L785.064 306.176C784.344 306.784 783.464 307.28 782.424 307.664C781.384 308.048 780.248 308.24 779.016 308.24ZM795.781 308.24C794.229 308.24 792.869 307.96 791.701 307.4C790.549 306.824 789.653 306.048 789.013 305.072C788.373 304.08 788.053 302.952 788.053 301.688C788.053 300.68 788.237 299.768 788.605 298.952C788.973 298.136 789.485 297.432 790.141 296.84C790.797 296.248 791.565 295.792 792.445 295.472C793.325 295.152 794.277 294.992 795.301 294.992C796.293 294.992 797.205 295.152 798.037 295.472C798.869 295.776 799.589 296.216 800.197 296.792C800.821 297.368 801.301 298.048 801.637 298.832C801.973 299.616 802.125 300.48 802.093 301.424L802.069 302.504H790.573L790.021 300.272H798.949L798.541 300.752V300.272C798.493 299.872 798.317 299.512 798.013 299.192C797.725 298.872 797.349 298.624 796.885 298.448C796.421 298.256 795.909 298.16 795.349 298.16C794.629 298.16 793.989 298.28 793.429 298.52C792.869 298.744 792.429 299.096 792.109 299.576C791.805 300.056 791.653 300.664 791.653 301.4C791.653 302.104 791.837 302.72 792.205 303.248C792.589 303.776 793.125 304.192 793.813 304.496C794.517 304.8 795.341 304.952 796.285 304.952C797.101 304.952 797.781 304.856 798.325 304.664C798.885 304.456 799.389 304.2 799.837 303.896L801.565 306.392C801.037 306.792 800.453 307.136 799.813 307.424C799.189 307.696 798.533 307.896 797.845 308.024C797.173 308.168 796.485 308.24 795.781 308.24ZM811.708 308.24C810.3 308.24 809.036 308.04 807.916 307.64C806.812 307.24 805.924 306.672 805.252 305.936L807.58 303.872C808.124 304.384 808.772 304.776 809.524 305.048C810.276 305.32 811.068 305.456 811.9 305.456C812.156 305.456 812.404 305.432 812.644 305.384C812.9 305.336 813.116 305.272 813.292 305.192C813.484 305.096 813.636 304.984 813.748 304.856C813.86 304.728 813.916 304.568 813.916 304.376C813.916 304.072 813.724 303.832 813.34 303.656C813.068 303.56 812.724 303.464 812.308 303.368C811.892 303.272 811.42 303.168 810.892 303.056C810.012 302.896 809.236 302.704 808.564 302.48C807.908 302.24 807.356 301.944 806.908 301.592C806.524 301.256 806.228 300.872 806.02 300.44C805.812 300.008 805.708 299.504 805.708 298.928C805.708 298.336 805.86 297.8 806.164 297.32C806.468 296.824 806.892 296.408 807.436 296.072C807.98 295.72 808.604 295.456 809.308 295.28C810.012 295.088 810.748 294.992 811.516 294.992C812.284 294.992 813.036 295.072 813.772 295.232C814.508 295.376 815.204 295.592 815.86 295.88C816.516 296.152 817.092 296.504 817.588 296.936L815.62 299.24C815.268 298.968 814.86 298.72 814.396 298.496C813.932 298.272 813.436 298.096 812.908 297.968C812.396 297.824 811.892 297.752 811.396 297.752C811.124 297.752 810.86 297.768 810.604 297.8C810.364 297.832 810.156 297.896 809.98 297.992C809.804 298.072 809.66 298.176 809.548 298.304C809.452 298.416 809.404 298.56 809.404 298.736C809.404 298.88 809.444 299.016 809.524 299.144C809.604 299.272 809.724 299.376 809.884 299.456C810.108 299.6 810.436 299.728 810.868 299.84C811.316 299.952 811.876 300.072 812.548 300.2C813.524 300.408 814.356 300.648 815.044 300.92C815.732 301.176 816.284 301.488 816.7 301.856C817.036 302.112 817.284 302.432 817.444 302.816C817.604 303.184 817.684 303.592 817.684 304.04C817.684 304.856 817.42 305.584 816.892 306.224C816.38 306.848 815.676 307.344 814.78 307.712C813.9 308.064 812.876 308.24 811.708 308.24ZM838.111 308.24C836.623 308.24 835.303 307.952 834.151 307.376C832.999 306.8 832.095 306.016 831.439 305.024C830.783 304.032 830.455 302.896 830.455 301.616C830.455 300.336 830.783 299.2 831.439 298.208C832.095 297.216 832.999 296.432 834.151 295.856C835.303 295.28 836.623 294.992 838.111 294.992C839.583 294.992 840.887 295.28 842.023 295.856C843.175 296.432 844.079 297.216 844.735 298.208C845.391 299.2 845.719 300.336 845.719 301.616C845.719 302.896 845.391 304.032 844.735 305.024C844.079 306.016 843.175 306.8 842.023 307.376C840.887 307.952 839.583 308.24 838.111 308.24ZM838.111 304.928C838.799 304.928 839.423 304.784 839.983 304.496C840.559 304.208 841.007 303.816 841.327 303.32C841.663 302.824 841.823 302.256 841.807 301.616C841.823 300.976 841.663 300.4 841.327 299.888C841.007 299.376 840.559 298.984 839.983 298.712C839.423 298.424 838.799 298.28 838.111 298.28C837.407 298.28 836.759 298.424 836.167 298.712C835.591 299 835.143 299.392 834.823 299.888C834.503 300.384 834.343 300.96 834.343 301.616C834.343 302.256 834.503 302.824 834.823 303.32C835.143 303.816 835.591 304.208 836.167 304.496C836.759 304.784 837.407 304.928 838.111 304.928ZM850.824 308V295.04C850.824 294.096 851.024 293.264 851.424 292.544C851.84 291.808 852.416 291.232 853.152 290.816C853.888 290.4 854.744 290.192 855.72 290.192C856.472 290.192 857.128 290.288 857.688 290.48C858.264 290.672 858.752 290.912 859.152 291.2L858.048 294.032C857.824 293.904 857.56 293.792 857.256 293.696C856.968 293.584 856.68 293.528 856.392 293.528C855.976 293.528 855.632 293.6 855.36 293.744C855.104 293.872 854.912 294.064 854.784 294.32C854.656 294.576 854.592 294.88 854.592 295.232V308H852.72C852.32 308 851.96 308 851.64 308C851.32 308 851.048 308 850.824 308ZM848.592 298.88V295.712H858.264V298.88H848.592ZM873.592 308V291.752H877.432V308H873.592ZM870.76 298.616V295.256H880.672V298.616H870.76ZM890.178 308.216C888.914 308.216 887.81 307.936 886.866 307.376C885.922 306.816 885.178 306.04 884.634 305.048C884.106 304.04 883.842 302.896 883.842 301.616C883.842 300.32 884.114 299.176 884.658 298.184C885.202 297.192 885.954 296.416 886.914 295.856C887.89 295.28 889.01 294.992 890.274 294.992C890.994 294.992 891.658 295.088 892.266 295.28C892.874 295.456 893.402 295.704 893.85 296.024C894.314 296.344 894.69 296.696 894.978 297.08C895.282 297.464 895.482 297.864 895.578 298.28H894.738V295.256H898.53V308H894.666V304.736L895.482 304.856C895.386 305.272 895.186 305.68 894.882 306.08C894.578 306.48 894.186 306.84 893.706 307.16C893.226 307.48 892.682 307.736 892.074 307.928C891.482 308.12 890.85 308.216 890.178 308.216ZM891.21 304.976C891.93 304.976 892.554 304.84 893.082 304.568C893.626 304.296 894.042 303.912 894.33 303.416C894.634 302.904 894.786 302.304 894.786 301.616C894.786 300.944 894.634 300.36 894.33 299.864C894.042 299.352 893.626 298.952 893.082 298.664C892.554 298.376 891.93 298.232 891.21 298.232C890.49 298.232 889.866 298.376 889.338 298.664C888.81 298.952 888.394 299.352 888.09 299.864C887.802 300.36 887.658 300.944 887.658 301.616C887.658 302.304 887.802 302.904 888.09 303.416C888.394 303.912 888.81 304.296 889.338 304.568C889.866 304.84 890.49 304.976 891.21 304.976ZM904.454 313.28V295.256H908.102L908.246 298.112L907.526 297.896C907.638 297.384 907.942 296.912 908.438 296.48C908.934 296.048 909.558 295.696 910.31 295.424C911.078 295.152 911.894 295.016 912.758 295.016C914.006 295.016 915.102 295.304 916.046 295.88C916.99 296.44 917.726 297.216 918.254 298.208C918.798 299.184 919.07 300.32 919.07 301.616C919.07 302.896 918.798 304.032 918.254 305.024C917.726 306.016 916.982 306.8 916.022 307.376C915.062 307.936 913.958 308.216 912.71 308.216C911.846 308.216 911.038 308.072 910.286 307.784C909.534 307.496 908.902 307.12 908.39 306.656C907.894 306.192 907.574 305.704 907.43 305.192L908.318 304.856V313.28H904.454ZM911.774 304.976C912.494 304.976 913.118 304.84 913.646 304.568C914.174 304.28 914.582 303.888 914.87 303.392C915.174 302.896 915.326 302.304 915.326 301.616C915.326 300.944 915.174 300.36 914.87 299.864C914.582 299.352 914.174 298.96 913.646 298.688C913.134 298.4 912.51 298.256 911.774 298.256C911.054 298.256 910.422 298.392 909.878 298.664C909.35 298.936 908.934 299.328 908.63 299.84C908.342 300.352 908.198 300.944 908.198 301.616C908.198 302.304 908.342 302.896 908.63 303.392C908.934 303.888 909.35 304.28 909.878 304.568C910.422 304.84 911.054 304.976 911.774 304.976ZM930.125 308.24C928.573 308.24 927.213 307.96 926.045 307.4C924.893 306.824 923.997 306.048 923.357 305.072C922.717 304.08 922.396 302.952 922.396 301.688C922.396 300.68 922.581 299.768 922.949 298.952C923.317 298.136 923.829 297.432 924.485 296.84C925.141 296.248 925.909 295.792 926.789 295.472C927.669 295.152 928.621 294.992 929.645 294.992C930.637 294.992 931.549 295.152 932.381 295.472C933.213 295.776 933.933 296.216 934.541 296.792C935.165 297.368 935.645 298.048 935.981 298.832C936.317 299.616 936.469 300.48 936.437 301.424L936.413 302.504H924.917L924.365 300.272H933.293L932.885 300.752V300.272C932.837 299.872 932.661 299.512 932.357 299.192C932.069 298.872 931.693 298.624 931.229 298.448C930.765 298.256 930.253 298.16 929.693 298.16C928.973 298.16 928.333 298.28 927.773 298.52C927.213 298.744 926.773 299.096 926.453 299.576C926.149 300.056 925.997 300.664 925.997 301.4C925.997 302.104 926.181 302.72 926.549 303.248C926.933 303.776 927.469 304.192 928.157 304.496C928.861 304.8 929.685 304.952 930.629 304.952C931.445 304.952 932.125 304.856 932.669 304.664C933.229 304.456 933.733 304.2 934.181 303.896L935.909 306.392C935.381 306.792 934.797 307.136 934.157 307.424C933.533 307.696 932.877 307.896 932.189 308.024C931.517 308.168 930.829 308.24 930.125 308.24ZM942.788 308.264C942.004 308.264 941.404 308.08 940.988 307.712C940.588 307.328 940.388 306.8 940.388 306.128C940.388 305.52 940.596 305.008 941.012 304.592C941.444 304.176 942.036 303.968 942.788 303.968C943.572 303.968 944.172 304.16 944.588 304.544C945.004 304.928 945.212 305.456 945.212 306.128C945.212 306.72 944.996 307.224 944.564 307.64C944.148 308.056 943.556 308.264 942.788 308.264ZM952.022 308.264C951.238 308.264 950.638 308.08 950.222 307.712C949.822 307.328 949.622 306.8 949.622 306.128C949.622 305.52 949.83 305.008 950.246 304.592C950.678 304.176 951.27 303.968 952.022 303.968C952.806 303.968 953.406 304.16 953.822 304.544C954.238 304.928 954.446 305.456 954.446 306.128C954.446 306.72 954.23 307.224 953.798 307.64C953.382 308.056 952.79 308.264 952.022 308.264ZM961.256 308.264C960.472 308.264 959.872 308.08 959.456 307.712C959.056 307.328 958.856 306.8 958.856 306.128C958.856 305.52 959.064 305.008 959.48 304.592C959.912 304.176 960.504 303.968 961.256 303.968C962.04 303.968 962.64 304.16 963.056 304.544C963.472 304.928 963.68 305.456 963.68 306.128C963.68 306.72 963.464 307.224 963.032 307.64C962.616 308.056 962.024 308.264 961.256 308.264Z" fill="white"/>
<g id="Vector 1" filter="url(#filter0_d_162_802)">
<path d="M-45.5 880.5L95.5 640.5L293 775.5L492.5 521.5L615.5 687L744.5 608.5L898 787.5L1015 626.5L1131.5 737.5L1271 451L1349.5 721L1498.5 592L1551 1144.5H-112L-45.5 880.5Z" fill="#EC5F46"/>
</g>
<g id="Vector 2" filter="url(#filter1_d_162_802)">
<path d="M-79 1230.5L90.5 779L346.5 865.5L469.5 674L652.5 779L711 722.5L904.5 888L983 755L1158.5 865.5L1225 722.5L1360 823.5L1469 1260.5L-79 1230.5Z" fill="#FD9D49"/>
</g>
</g>
<defs>
<filter id="filter0_d_162_802" x="-116" y="451" width="1671" height="701.5" filterUnits="userSpaceOnUse" color-interpolation-filters="sRGB">
<feFlood flood-opacity="0" result="BackgroundImageFix"/>
<feColorMatrix in="SourceAlpha" type="matrix" values="0 0 0 0 0 0 0 0 0 0 0 0 0 0 0 0 0 0 127 0" result="hardAlpha"/>
<feOffset dy="4"/>
<feGaussianBlur stdDeviation="2"/>
<feComposite in2="hardAlpha" operator="out"/>
<feColorMatrix type="matrix" values="0 0 0 0 0 0 0 0 0 0 0 0 0 0 0 0 0 0 0.25 0"/>
<feBlend mode="normal" in2="BackgroundImageFix" result="effect1_dropShadow_162_802"/>
<feBlend mode="normal" in="SourceGraphic" in2="effect1_dropShadow_162_802" result="shape"/>
</filter>
<filter id="filter1_d_162_802" x="-83" y="674" width="1556" height="594.5" filterUnits="userSpaceOnUse" color-interpolation-filters="sRGB">
<feFlood flood-opacity="0" result="BackgroundImageFix"/>
<feColorMatrix in="SourceAlpha" type="matrix" values="0 0 0 0 0 0 0 0 0 0 0 0 0 0 0 0 0 0 127 0" result="hardAlpha"/>
<feOffset dy="4"/>
<feGaussianBlur stdDeviation="2"/>
<feComposite in2="hardAlpha" operator="out"/>
<feColorMatrix type="matrix" values="0 0 0 0 0 0 0 0 0 0 0 0 0 0 0 0 0 0 0.25 0"/>
<feBlend mode="normal" in2="BackgroundImageFix" result="effect1_dropShadow_162_802"/>
<feBlend mode="normal" in="SourceGraphic" in2="effect1_dropShadow_162_802" result="shape"/>
</filter>
<clipPath id="clip0_162_802">
<rect width="1440" height="1024" fill="white"/>
</clipPath>
</defs>
</svg>
