<svg width="1440" height="1024" viewBox="0 0 1440 1024" fill="none" xmlns="http://www.w3.org/2000/svg">
<g id="recognize8-no" clip-path="url(#clip0_162_745)">
<rect width="1440" height="1024" fill="#333148"/>
<rect id="Rectangle 18" x="1227" width="85" height="512" fill="#201F2F"/>
<rect id="Rectangle 22" x="599" width="85" height="512" fill="#201F2F"/>
<rect id="Rectangle 20" x="913" width="85" height="512" fill="#201F2F"/>
<rect id="Rectangle 23" x="285" width="85" height="512" fill="#201F2F"/>
<rect id="Rectangle 19" x="1070" width="85" height="512" fill="#201F2F"/>
<rect id="Rectangle 24" x="442" width="85" height="512" fill="#201F2F"/>
<rect id="Rectangle 21" x="756" width="85" height="512" fill="#201F2F"/>
<rect id="Rectangle 25" x="128" width="85" height="512" fill="#201F2F"/>
<path id="part 4" d="M47.096 132.12V60.024H61.688L62.264 71.448L59.384 70.584C59.832 68.536 61.048 66.648 63.032 64.92C65.016 63.192 67.512 61.784 70.52 60.696C73.592 59.608 76.856 59.064 80.312 59.064C85.304 59.064 89.688 60.216 93.464 62.52C97.24 64.76 100.184 67.864 102.296 71.832C104.472 75.736 105.56 80.28 105.56 85.464C105.56 90.584 104.472 95.128 102.296 99.096C100.184 103.064 97.208 106.2 93.368 108.504C89.528 110.744 85.112 111.864 80.12 111.864C76.664 111.864 73.432 111.288 70.424 110.136C67.416 108.984 64.888 107.48 62.84 105.624C60.856 103.768 59.576 101.816 59 99.768L62.552 98.424V132.12H47.096ZM76.376 98.904C79.256 98.904 81.752 98.36 83.864 97.272C85.976 96.12 87.608 94.552 88.76 92.568C89.976 90.584 90.584 88.216 90.584 85.464C90.584 82.776 89.976 80.44 88.76 78.456C87.608 76.408 85.976 74.84 83.864 73.752C81.816 72.6 79.32 72.024 76.376 72.024C73.496 72.024 70.968 72.568 68.792 73.656C66.68 74.744 65.016 76.312 63.8 78.36C62.648 80.408 62.072 82.776 62.072 85.464C62.072 88.216 62.648 90.584 63.8 92.568C65.016 94.552 66.68 96.12 68.792 97.272C70.968 98.36 73.496 98.904 76.376 98.904ZM144.211 111.864C139.155 111.864 134.739 110.744 130.963 108.504C127.187 106.264 124.211 103.16 122.035 99.192C119.923 95.16 118.867 90.584 118.867 85.464C118.867 80.28 119.955 75.704 122.131 71.736C124.307 67.768 127.315 64.664 131.155 62.424C135.059 60.12 139.539 58.968 144.595 58.968C147.475 58.968 150.131 59.352 152.563 60.12C154.995 60.824 157.107 61.816 158.899 63.096C160.755 64.376 162.259 65.784 163.411 67.32C164.627 68.856 165.427 70.456 165.811 72.12H162.451V60.024H177.619V111H162.163V97.944L165.427 98.424C165.043 100.088 164.243 101.72 163.027 103.32C161.811 104.92 160.243 106.36 158.323 107.64C156.403 108.92 154.227 109.944 151.795 110.712C149.427 111.48 146.899 111.864 144.211 111.864ZM148.339 98.904C151.219 98.904 153.715 98.36 155.827 97.272C158.003 96.184 159.667 94.648 160.819 92.664C162.035 90.616 162.643 88.216 162.643 85.464C162.643 82.776 162.035 80.44 160.819 78.456C159.667 76.408 158.003 74.808 155.827 73.656C153.715 72.504 151.219 71.928 148.339 71.928C145.459 71.928 142.963 72.504 140.851 73.656C138.739 74.808 137.075 76.408 135.859 78.456C134.707 80.44 134.131 82.776 134.131 85.464C134.131 88.216 134.707 90.616 135.859 92.664C137.075 94.648 138.739 96.184 140.851 97.272C142.963 98.36 145.459 98.904 148.339 98.904ZM201.315 111V60.024H215.907L216.579 77.592L212.931 75.768C213.763 72.632 215.203 69.816 217.251 67.32C219.363 64.76 221.763 62.744 224.451 61.272C227.203 59.736 230.115 58.968 233.187 58.968C234.851 58.968 236.419 59.128 237.891 59.448C239.427 59.768 240.739 60.184 241.827 60.696L237.603 77.496C236.643 76.792 235.331 76.248 233.667 75.864C232.067 75.48 230.435 75.288 228.771 75.288C226.915 75.288 225.219 75.608 223.683 76.248C222.211 76.824 220.963 77.656 219.939 78.744C218.915 79.768 218.115 80.952 217.539 82.296C217.027 83.64 216.771 85.08 216.771 86.616V111H201.315ZM265.932 111V46.008H281.292V111H265.932ZM254.604 73.464V60.024H294.252V73.464H254.604ZM377.032 111V53.304H387.112L357.544 88.248L355.624 83.736H405.256V96.984H349.48L343.048 84.6L378.856 43.224H392.776V111H377.032Z" fill="white"/>
<rect id="Rectangle 7" y="462" width="1567" height="626" fill="#211F2F"/>
<g id="Group 4">
<g id="Vector" filter="url(#filter0_d_162_745)">
<path d="M841.246 489.996C846.515 466.672 879.714 466.672 884.983 489.996L893.541 527.874C896.712 541.912 886.05 555.267 871.672 555.267H854.557C840.179 555.267 829.517 541.912 832.688 527.874L841.246 489.996Z" fill="#3B5EC6"/>
<path d="M886.816 439.046C886.816 452.326 876.061 463.092 862.794 463.092C849.527 463.092 838.772 452.326 838.772 439.046C838.772 425.766 849.527 415 862.794 415C876.061 415 886.816 425.766 886.816 439.046Z" fill="#3B5EC6"/>
<path d="M867.599 543.565C867.599 537.013 872.904 531.702 879.45 531.702C885.995 531.702 891.3 537.013 891.3 543.565V571.137C891.3 577.689 885.995 583 879.45 583C872.904 583 867.599 577.689 867.599 571.137V543.565Z" fill="#3B5EC6"/>
<path d="M876.867 497.609C873.517 491.981 875.36 484.7 880.982 481.347C886.605 477.993 893.879 479.837 897.229 485.466L911.328 509.153C914.678 514.781 912.836 522.062 907.213 525.415C901.59 528.769 894.316 526.925 890.966 521.296L876.867 497.609Z" fill="#3B5EC6"/>
<path d="M828.362 485.548C831.635 479.874 838.883 477.93 844.551 481.206C850.219 484.482 852.161 491.737 848.889 497.411L835.116 521.289C831.844 526.963 824.596 528.907 818.927 525.631C813.259 522.355 811.317 515.1 814.59 509.427L828.362 485.548Z" fill="#3B5EC6"/>
<path d="M834.288 543.565C834.288 537.013 839.594 531.702 846.139 531.702C852.684 531.702 857.99 537.013 857.99 543.565V571.137C857.99 577.689 852.684 583 846.139 583C839.594 583 834.288 577.689 834.288 571.137V543.565Z" fill="#3B5EC6"/>
</g>
<g id="Vector_2" filter="url(#filter1_d_162_745)">
<path d="M1075.53 489.996C1080.85 466.672 1114.38 466.672 1119.7 489.996L1128.35 527.874C1131.55 541.912 1120.78 555.267 1106.26 555.267H1088.97C1074.45 555.267 1063.68 541.912 1066.89 527.874L1075.53 489.996Z" fill="#3B5EC6"/>
<path d="M1121.55 439.046C1121.55 452.326 1110.69 463.092 1097.29 463.092C1083.89 463.092 1073.03 452.326 1073.03 439.046C1073.03 425.766 1083.89 415 1097.29 415C1110.69 415 1121.55 425.766 1121.55 439.046Z" fill="#3B5EC6"/>
<path d="M1102.14 543.565C1102.14 537.013 1107.5 531.702 1114.11 531.702C1120.72 531.702 1126.08 537.013 1126.08 543.565V571.137C1126.08 577.689 1120.72 583 1114.11 583C1107.5 583 1102.14 577.689 1102.14 571.137V543.565Z" fill="#3B5EC6"/>
<path d="M1111.51 497.609C1108.12 491.981 1109.98 484.7 1115.66 481.347C1121.34 477.993 1128.69 479.837 1132.07 485.466L1146.31 509.153C1149.69 514.781 1147.83 522.062 1142.16 525.415C1136.48 528.769 1129.13 526.925 1125.75 521.296L1111.51 497.609Z" fill="#3B5EC6"/>
<path d="M1062.52 485.548C1065.82 479.874 1073.14 477.93 1078.87 481.206C1084.59 484.482 1086.55 491.737 1083.25 497.411L1069.34 521.289C1066.03 526.963 1058.71 528.907 1052.99 525.631C1047.26 522.355 1045.3 515.1 1048.61 509.427L1062.52 485.548Z" fill="#3B5EC6"/>
<path d="M1068.5 543.565C1068.5 537.013 1073.86 531.702 1080.47 531.702C1087.08 531.702 1092.44 537.013 1092.44 543.565V571.137C1092.44 577.689 1087.08 583 1080.47 583C1073.86 583 1068.5 577.689 1068.5 571.137V543.565Z" fill="#3B5EC6"/>
</g>
<g id="Vector_3" filter="url(#filter2_d_162_745)">
<path d="M958.528 489.996C963.85 466.672 997.381 466.672 1002.7 489.996L1011.35 527.874C1014.55 541.912 1003.78 555.267 989.259 555.267H971.972C957.451 555.267 946.682 541.912 949.885 527.874L958.528 489.996Z" fill="#3B5EC6"/>
<path d="M1004.55 439.046C1004.55 452.326 993.692 463.092 980.292 463.092C966.892 463.092 956.03 452.326 956.03 439.046C956.03 425.766 966.892 415 980.292 415C993.692 415 1004.55 425.766 1004.55 439.046Z" fill="#3B5EC6"/>
<path d="M985.145 543.565C985.145 537.013 990.504 531.702 997.114 531.702C1003.72 531.702 1009.08 537.013 1009.08 543.565V571.137C1009.08 577.689 1003.72 583 997.114 583C990.504 583 985.145 577.689 985.145 571.137V543.565Z" fill="#3B5EC6"/>
<path d="M994.506 497.609C991.123 491.981 992.983 484.7 998.662 481.347C1004.34 477.993 1011.69 479.837 1015.07 485.466L1029.31 509.153C1032.69 514.781 1030.83 522.062 1025.16 525.415C1019.48 528.769 1012.13 526.925 1008.75 521.296L994.506 497.609Z" fill="#3B5EC6"/>
<path d="M945.516 485.548C948.821 479.874 956.142 477.93 961.867 481.206C967.591 484.482 969.553 491.737 966.248 497.411L952.337 521.289C949.032 526.963 941.712 528.907 935.987 525.631C930.262 522.355 928.3 515.1 931.606 509.427L945.516 485.548Z" fill="#3B5EC6"/>
<path d="M951.501 543.565C951.501 537.013 956.86 531.702 963.47 531.702C970.081 531.702 975.44 537.013 975.44 543.565V571.137C975.44 577.689 970.081 583 963.47 583C956.86 583 951.501 577.689 951.501 571.137V543.565Z" fill="#3B5EC6"/>
</g>
<g id="Vector_4" filter="url(#filter3_d_162_745)">
<path d="M1193.25 489.996C1198.52 466.672 1231.71 466.672 1236.98 489.996L1245.54 527.874C1248.71 541.912 1238.05 555.267 1223.67 555.267H1206.56C1192.18 555.267 1181.52 541.912 1184.69 527.874L1193.25 489.996Z" fill="#3B5EC6"/>
<path d="M1238.82 439.046C1238.82 452.326 1228.06 463.092 1214.79 463.092C1201.53 463.092 1190.77 452.326 1190.77 439.046C1190.77 425.766 1201.53 415 1214.79 415C1228.06 415 1238.82 425.766 1238.82 439.046Z" fill="#3B5EC6"/>
<path d="M1219.6 543.565C1219.6 537.013 1224.9 531.702 1231.45 531.702C1237.99 531.702 1243.3 537.013 1243.3 543.565V571.137C1243.3 577.689 1237.99 583 1231.45 583C1224.9 583 1219.6 577.689 1219.6 571.137V543.565Z" fill="#3B5EC6"/>
<path d="M1228.87 497.609C1225.52 491.981 1227.36 484.7 1232.98 481.347C1238.61 477.993 1245.88 479.837 1249.23 485.466L1263.33 509.153C1266.68 514.781 1264.84 522.062 1259.21 525.415C1253.59 528.769 1246.32 526.925 1242.97 521.296L1228.87 497.609Z" fill="#3B5EC6"/>
<path d="M1180.36 485.548C1183.63 479.874 1190.88 477.93 1196.55 481.206C1202.22 484.482 1204.16 491.737 1200.89 497.411L1187.12 521.289C1183.84 526.963 1176.6 528.907 1170.93 525.631C1165.26 522.355 1163.32 515.1 1166.59 509.427L1180.36 485.548Z" fill="#3B5EC6"/>
<path d="M1186.29 543.565C1186.29 537.013 1191.59 531.702 1198.14 531.702C1204.68 531.702 1209.99 537.013 1209.99 543.565V571.137C1209.99 577.689 1204.68 583 1198.14 583C1191.59 583 1186.29 577.689 1186.29 571.137V543.565Z" fill="#3B5EC6"/>
</g>
<g id="Vector_5" filter="url(#filter4_d_162_745)">
<path d="M740.33 526.388C746.548 498.899 785.722 498.899 791.94 526.388L802.038 571.03C805.78 587.575 793.199 603.315 776.233 603.315H756.037C739.071 603.315 726.49 587.575 730.232 571.03L740.33 526.388Z" fill="#6A94E0"/>
<path d="M794.103 466.34C794.103 481.991 781.412 494.679 765.757 494.679C750.102 494.679 737.411 481.991 737.411 466.34C737.411 450.688 750.102 438 765.757 438C781.412 438 794.103 450.688 794.103 466.34Z" fill="#6A94E0"/>
<path d="M771.426 589.523C771.426 581.801 777.687 575.542 785.41 575.542C793.134 575.542 799.395 581.801 799.395 589.523V622.019C799.395 629.741 793.134 636 785.41 636C777.687 636 771.426 629.741 771.426 622.019V589.523Z" fill="#6A94E0"/>
<path d="M782.364 535.361C778.41 528.728 780.584 520.146 787.219 516.194C793.854 512.242 802.437 514.416 806.39 521.049L823.027 548.966C826.98 555.599 824.806 564.18 818.171 568.132C811.537 572.085 802.953 569.911 799 563.278L782.364 535.361Z" fill="#6A94E0"/>
<path d="M725.128 521.146C728.989 514.459 737.542 512.168 744.23 516.029C750.919 519.889 753.21 528.44 749.349 535.127L733.097 563.269C729.235 569.956 720.683 572.248 713.994 568.387C707.306 564.526 705.014 555.975 708.876 549.289L725.128 521.146Z" fill="#6A94E0"/>
<path d="M732.12 589.523C732.12 581.801 738.381 575.542 746.104 575.542C753.827 575.542 760.088 581.801 760.088 589.523V622.019C760.088 629.741 753.827 636 746.104 636C738.381 636 732.12 629.741 732.12 622.019V589.523Z" fill="#6A94E0"/>
</g>
<g id="Vector_6" filter="url(#filter5_d_162_745)">
<path d="M1016.33 526.388C1022.55 498.899 1061.72 498.899 1067.94 526.388L1078.04 571.03C1081.78 587.575 1069.2 603.315 1052.23 603.315H1032.04C1015.07 603.315 1002.49 587.575 1006.23 571.03L1016.33 526.388Z" fill="#6A94E0"/>
<path d="M1070.1 466.34C1070.1 481.991 1057.41 494.679 1041.76 494.679C1026.1 494.679 1013.41 481.991 1013.41 466.34C1013.41 450.688 1026.1 438 1041.76 438C1057.41 438 1070.1 450.688 1070.1 466.34Z" fill="#6A94E0"/>
<path d="M1047.43 589.523C1047.43 581.801 1053.69 575.542 1061.41 575.542C1069.13 575.542 1075.39 581.801 1075.39 589.523V622.019C1075.39 629.741 1069.13 636 1061.41 636C1053.69 636 1047.43 629.741 1047.43 622.019V589.523Z" fill="#6A94E0"/>
<path d="M1058.36 535.361C1054.41 528.728 1056.58 520.146 1063.22 516.194C1069.85 512.242 1078.44 514.416 1082.39 521.049L1099.03 548.966C1102.98 555.599 1100.81 564.18 1094.17 568.132C1087.54 572.085 1078.95 569.911 1075 563.278L1058.36 535.361Z" fill="#6A94E0"/>
<path d="M1001.13 521.146C1004.99 514.459 1013.54 512.168 1020.23 516.029C1026.92 519.889 1029.21 528.44 1025.35 535.127L1009.1 563.269C1005.24 569.956 996.683 572.248 989.994 568.387C983.306 564.526 981.014 555.975 984.876 549.289L1001.13 521.146Z" fill="#6A94E0"/>
<path d="M1008.12 589.523C1008.12 581.801 1014.38 575.542 1022.1 575.542C1029.83 575.542 1036.09 581.801 1036.09 589.523V622.019C1036.09 629.741 1029.83 636 1022.1 636C1014.38 636 1008.12 629.741 1008.12 622.019V589.523Z" fill="#6A94E0"/>
</g>
<g id="Vector_7" filter="url(#filter6_d_162_745)">
<path d="M878.33 526.388C884.548 498.899 923.722 498.899 929.94 526.388L940.038 571.03C943.78 587.575 931.199 603.315 914.233 603.315H894.037C877.071 603.315 864.49 587.575 868.232 571.03L878.33 526.388Z" fill="#6A94E0"/>
<path d="M932.103 466.34C932.103 481.991 919.412 494.679 903.757 494.679C888.102 494.679 875.411 481.991 875.411 466.34C875.411 450.688 888.102 438 903.757 438C919.412 438 932.103 450.688 932.103 466.34Z" fill="#6A94E0"/>
<path d="M909.426 589.523C909.426 581.801 915.687 575.542 923.41 575.542C931.134 575.542 937.395 581.801 937.395 589.523V622.019C937.395 629.741 931.134 636 923.41 636C915.687 636 909.426 629.741 909.426 622.019V589.523Z" fill="#6A94E0"/>
<path d="M920.364 535.361C916.41 528.728 918.584 520.146 925.219 516.194C931.854 512.242 940.437 514.416 944.39 521.049L961.027 548.966C964.98 555.599 962.806 564.18 956.171 568.132C949.537 572.085 940.953 569.911 937 563.278L920.364 535.361Z" fill="#6A94E0"/>
<path d="M863.128 521.146C866.989 514.459 875.542 512.168 882.23 516.029C888.919 519.889 891.21 528.44 887.349 535.127L871.097 563.269C867.235 569.956 858.683 572.248 851.994 568.387C845.306 564.526 843.014 555.975 846.876 549.289L863.128 521.146Z" fill="#6A94E0"/>
<path d="M870.12 589.523C870.12 581.801 876.381 575.542 884.104 575.542C891.827 575.542 898.088 581.801 898.088 589.523V622.019C898.088 629.741 891.827 636 884.104 636C876.381 636 870.12 629.741 870.12 622.019V589.523Z" fill="#6A94E0"/>
</g>
<g id="Vector_8" filter="url(#filter7_d_162_745)">
<path d="M936.33 572.388C942.548 544.899 981.722 544.899 987.94 572.388L998.038 617.03C1001.78 633.575 989.199 649.315 972.233 649.315H952.037C935.071 649.315 922.49 633.575 926.232 617.03L936.33 572.388Z" fill="#8DBBFB"/>
<path d="M990.103 512.34C990.103 527.991 977.412 540.679 961.757 540.679C946.102 540.679 933.411 527.991 933.411 512.34C933.411 496.688 946.102 484 961.757 484C977.412 484 990.103 496.688 990.103 512.34Z" fill="#8DBBFB"/>
<path d="M967.426 635.523C967.426 627.801 973.687 621.542 981.41 621.542C989.134 621.542 995.395 627.801 995.395 635.523V668.019C995.395 675.741 989.134 682 981.41 682C973.687 682 967.426 675.741 967.426 668.019V635.523Z" fill="#8DBBFB"/>
<path d="M978.364 581.361C974.41 574.728 976.584 566.146 983.219 562.194C989.854 558.242 998.437 560.416 1002.39 567.049L1019.03 594.966C1022.98 601.599 1020.81 610.18 1014.17 614.132C1007.54 618.085 998.953 615.911 995 609.278L978.364 581.361Z" fill="#8DBBFB"/>
<path d="M921.128 567.146C924.989 560.459 933.542 558.168 940.23 562.029C946.919 565.889 949.21 574.44 945.349 581.127L929.097 609.269C925.235 615.956 916.683 618.248 909.994 614.387C903.306 610.526 901.014 601.975 904.876 595.289L921.128 567.146Z" fill="#8DBBFB"/>
<path d="M928.12 635.523C928.12 627.801 934.381 621.542 942.104 621.542C949.827 621.542 956.088 627.801 956.088 635.523V668.019C956.088 675.741 949.827 682 942.104 682C934.381 682 928.12 675.741 928.12 668.019V635.523Z" fill="#8DBBFB"/>
</g>
<g id="Vector_9" filter="url(#filter8_d_162_745)">
<path d="M1154.33 526.388C1160.55 498.899 1199.72 498.899 1205.94 526.388L1216.04 571.03C1219.78 587.575 1207.2 603.315 1190.23 603.315H1170.04C1153.07 603.315 1140.49 587.575 1144.23 571.03L1154.33 526.388Z" fill="#6A94E0"/>
<path d="M1208.1 466.34C1208.1 481.991 1195.41 494.679 1179.76 494.679C1164.1 494.679 1151.41 481.991 1151.41 466.34C1151.41 450.688 1164.1 438 1179.76 438C1195.41 438 1208.1 450.688 1208.1 466.34Z" fill="#6A94E0"/>
<path d="M1185.43 589.523C1185.43 581.801 1191.69 575.542 1199.41 575.542C1207.13 575.542 1213.39 581.801 1213.39 589.523V622.019C1213.39 629.741 1207.13 636 1199.41 636C1191.69 636 1185.43 629.741 1185.43 622.019V589.523Z" fill="#6A94E0"/>
<path d="M1196.36 535.361C1192.41 528.728 1194.58 520.146 1201.22 516.194C1207.85 512.242 1216.44 514.416 1220.39 521.049L1237.03 548.966C1240.98 555.599 1238.81 564.18 1232.17 568.132C1225.54 572.085 1216.95 569.911 1213 563.278L1196.36 535.361Z" fill="#6A94E0"/>
<path d="M1139.13 521.146C1142.99 514.459 1151.54 512.168 1158.23 516.029C1164.92 519.889 1167.21 528.44 1163.35 535.127L1147.1 563.269C1143.24 569.956 1134.68 572.248 1127.99 568.387C1121.31 564.526 1119.01 555.975 1122.88 549.289L1139.13 521.146Z" fill="#6A94E0"/>
<path d="M1146.12 589.523C1146.12 581.801 1152.38 575.542 1160.1 575.542C1167.83 575.542 1174.09 581.801 1174.09 589.523V622.019C1174.09 629.741 1167.83 636 1160.1 636C1152.38 636 1146.12 629.741 1146.12 622.019V589.523Z" fill="#6A94E0"/>
</g>
<g id="Vector_10" filter="url(#filter9_d_162_745)">
<path d="M798.33 572.388C804.548 544.899 843.722 544.899 849.94 572.388L860.038 617.03C863.78 633.575 851.199 649.315 834.233 649.315H814.037C797.071 649.315 784.49 633.575 788.232 617.03L798.33 572.388Z" fill="#8DBBFB"/>
<path d="M852.103 512.34C852.103 527.991 839.412 540.679 823.757 540.679C808.102 540.679 795.411 527.991 795.411 512.34C795.411 496.688 808.102 484 823.757 484C839.412 484 852.103 496.688 852.103 512.34Z" fill="#8DBBFB"/>
<path d="M829.426 635.523C829.426 627.801 835.687 621.542 843.41 621.542C851.134 621.542 857.395 627.801 857.395 635.523V668.019C857.395 675.741 851.134 682 843.41 682C835.687 682 829.426 675.741 829.426 668.019V635.523Z" fill="#8DBBFB"/>
<path d="M840.364 581.361C836.41 574.728 838.584 566.146 845.219 562.194C851.854 558.242 860.437 560.416 864.39 567.049L881.027 594.966C884.98 601.599 882.806 610.18 876.171 614.132C869.537 618.085 860.953 615.911 857 609.278L840.364 581.361Z" fill="#8DBBFB"/>
<path d="M783.128 567.146C786.989 560.459 795.542 558.168 802.23 562.029C808.919 565.889 811.21 574.44 807.349 581.127L791.097 609.269C787.235 615.956 778.683 618.248 771.994 614.387C765.306 610.526 763.014 601.975 766.876 595.289L783.128 567.146Z" fill="#8DBBFB"/>
<path d="M790.12 635.523C790.12 627.801 796.381 621.542 804.104 621.542C811.827 621.542 818.088 627.801 818.088 635.523V668.019C818.088 675.741 811.827 682 804.104 682C796.381 682 790.12 675.741 790.12 668.019V635.523Z" fill="#8DBBFB"/>
</g>
<g id="Vector_11" filter="url(#filter10_d_162_745)">
<path d="M1074.33 572.388C1080.55 544.899 1119.72 544.899 1125.94 572.388L1136.04 617.03C1139.78 633.575 1127.2 649.315 1110.23 649.315H1090.04C1073.07 649.315 1060.49 633.575 1064.23 617.03L1074.33 572.388Z" fill="#8DBBFB"/>
<path d="M1128.1 512.34C1128.1 527.991 1115.41 540.679 1099.76 540.679C1084.1 540.679 1071.41 527.991 1071.41 512.34C1071.41 496.688 1084.1 484 1099.76 484C1115.41 484 1128.1 496.688 1128.1 512.34Z" fill="#8DBBFB"/>
<path d="M1105.43 635.523C1105.43 627.801 1111.69 621.542 1119.41 621.542C1127.13 621.542 1133.39 627.801 1133.39 635.523V668.019C1133.39 675.741 1127.13 682 1119.41 682C1111.69 682 1105.43 675.741 1105.43 668.019V635.523Z" fill="#8DBBFB"/>
<path d="M1116.36 581.361C1112.41 574.728 1114.58 566.146 1121.22 562.194C1127.85 558.242 1136.44 560.416 1140.39 567.049L1157.03 594.966C1160.98 601.599 1158.81 610.18 1152.17 614.132C1145.54 618.085 1136.95 615.911 1133 609.278L1116.36 581.361Z" fill="#8DBBFB"/>
<path d="M1059.13 567.146C1062.99 560.459 1071.54 558.168 1078.23 562.029C1084.92 565.889 1087.21 574.44 1083.35 581.127L1067.1 609.269C1063.24 615.956 1054.68 618.248 1047.99 614.387C1041.31 610.526 1039.01 601.975 1042.88 595.289L1059.13 567.146Z" fill="#8DBBFB"/>
<path d="M1066.12 635.523C1066.12 627.801 1072.38 621.542 1080.1 621.542C1087.83 621.542 1094.09 627.801 1094.09 635.523V668.019C1094.09 675.741 1087.83 682 1080.1 682C1072.38 682 1066.12 675.741 1066.12 668.019V635.523Z" fill="#8DBBFB"/>
</g>
<g id="Vector_12" filter="url(#filter11_d_162_745)">
<path d="M1212.33 572.388C1218.55 544.899 1257.72 544.899 1263.94 572.388L1274.04 617.03C1277.78 633.575 1265.2 649.315 1248.23 649.315H1228.04C1211.07 649.315 1198.49 633.575 1202.23 617.03L1212.33 572.388Z" fill="#8DBBFB"/>
<path d="M1266.1 512.34C1266.1 527.991 1253.41 540.679 1237.76 540.679C1222.1 540.679 1209.41 527.991 1209.41 512.34C1209.41 496.688 1222.1 484 1237.76 484C1253.41 484 1266.1 496.688 1266.1 512.34Z" fill="#8DBBFB"/>
<path d="M1243.43 635.523C1243.43 627.801 1249.69 621.542 1257.41 621.542C1265.13 621.542 1271.39 627.801 1271.39 635.523V668.019C1271.39 675.741 1265.13 682 1257.41 682C1249.69 682 1243.43 675.741 1243.43 668.019V635.523Z" fill="#8DBBFB"/>
<path d="M1254.36 581.361C1250.41 574.728 1252.58 566.146 1259.22 562.194C1265.85 558.242 1274.44 560.416 1278.39 567.049L1295.03 594.966C1298.98 601.599 1296.81 610.18 1290.17 614.132C1283.54 618.085 1274.95 615.911 1271 609.278L1254.36 581.361Z" fill="#8DBBFB"/>
<path d="M1197.13 567.146C1200.99 560.459 1209.54 558.168 1216.23 562.029C1222.92 565.889 1225.21 574.44 1221.35 581.127L1205.1 609.269C1201.24 615.956 1192.68 618.248 1185.99 614.387C1179.31 610.526 1177.01 601.975 1180.88 595.289L1197.13 567.146Z" fill="#8DBBFB"/>
<path d="M1204.12 635.523C1204.12 627.801 1210.38 621.542 1218.1 621.542C1225.83 621.542 1232.09 627.801 1232.09 635.523V668.019C1232.09 675.741 1225.83 682 1218.1 682C1210.38 682 1204.12 675.741 1204.12 668.019V635.523Z" fill="#8DBBFB"/>
</g>
</g>
<g id="next">
<g id="Next">
<path id="Next_2" d="M1100.81 909V864.2H1110.79L1137.86 896.2L1136.01 895.88C1135.75 894.387 1135.56 892.957 1135.43 891.592C1135.3 890.227 1135.18 888.904 1135.05 887.624C1134.96 886.344 1134.88 885.064 1134.79 883.784C1134.75 882.504 1134.73 881.16 1134.73 879.752C1134.73 878.344 1134.73 876.851 1134.73 875.272V864.2H1145.29V909H1135.18L1107.08 875.976L1110.09 876.424C1110.22 877.917 1110.34 879.261 1110.47 880.456C1110.64 881.651 1110.77 882.781 1110.86 883.848C1110.98 884.872 1111.07 885.917 1111.11 886.984C1111.2 888.008 1111.26 889.096 1111.3 890.248C1111.35 891.4 1111.37 892.659 1111.37 894.024V909H1100.81ZM1177.89 909.64C1173.76 909.64 1170.13 908.893 1167.01 907.4C1163.94 905.864 1161.55 903.795 1159.85 901.192C1158.14 898.547 1157.29 895.539 1157.29 892.168C1157.29 889.48 1157.78 887.048 1158.76 884.872C1159.74 882.696 1161.11 880.819 1162.85 879.24C1164.6 877.661 1166.65 876.445 1169 875.592C1171.35 874.739 1173.88 874.312 1176.61 874.312C1179.26 874.312 1181.69 874.739 1183.91 875.592C1186.13 876.403 1188.05 877.576 1189.67 879.112C1191.33 880.648 1192.61 882.461 1193.51 884.552C1194.41 886.643 1194.81 888.947 1194.73 891.464L1194.66 894.344H1164.01L1162.53 888.392H1186.34L1185.25 889.672V888.392C1185.13 887.325 1184.66 886.365 1183.85 885.512C1183.08 884.659 1182.08 883.997 1180.84 883.528C1179.6 883.016 1178.24 882.76 1176.74 882.76C1174.82 882.76 1173.12 883.08 1171.62 883.72C1170.13 884.317 1168.96 885.256 1168.1 886.536C1167.29 887.816 1166.89 889.437 1166.89 891.4C1166.89 893.277 1167.38 894.92 1168.36 896.328C1169.38 897.736 1170.81 898.845 1172.65 899.656C1174.52 900.467 1176.72 900.872 1179.24 900.872C1181.41 900.872 1183.23 900.616 1184.68 900.104C1186.17 899.549 1187.52 898.867 1188.71 898.056L1193.32 904.712C1191.91 905.779 1190.35 906.696 1188.65 907.464C1186.98 908.189 1185.23 908.723 1183.4 909.064C1181.61 909.448 1179.77 909.64 1177.89 909.64ZM1231.57 909L1222.16 896.776L1219.54 893.32L1204.63 875.016H1217.56L1226 886.216L1228.82 889.928L1244.37 909H1231.57ZM1203.8 909L1219.03 889.8L1225.24 896.136L1216.53 909H1203.8ZM1228.76 894.216L1222.74 887.816L1231.32 875.016H1243.99L1228.76 894.216ZM1260.39 909V865.672H1270.63V909H1260.39ZM1252.84 883.976V875.016H1279.27V883.976H1252.84Z" fill="white"/>
</g>
<path id="Arrow 1" d="M1094 913.5C1089.31 913.5 1085.5 917.306 1085.5 922C1085.5 926.694 1089.31 930.5 1094 930.5V922V913.5ZM1371 922L1286 872.925V971.075L1371 922ZM1094 922V930.5H1294.5V922V913.5H1094V922Z" fill="#EF1044"/>
</g>
<g id="Group 3">
<g id="Vector_13" filter="url(#filter12_d_162_745)">
<path d="M209.246 489.996C214.515 466.672 247.714 466.672 252.983 489.996L261.541 527.874C264.712 541.912 254.05 555.267 239.672 555.267H222.557C208.179 555.267 197.517 541.912 200.688 527.874L209.246 489.996Z" fill="#C63B3B"/>
<path d="M254.816 439.046C254.816 452.326 244.061 463.092 230.794 463.092C217.527 463.092 206.772 452.326 206.772 439.046C206.772 425.766 217.527 415 230.794 415C244.061 415 254.816 425.766 254.816 439.046Z" fill="#C63B3B"/>
<path d="M235.599 543.565C235.599 537.013 240.904 531.702 247.45 531.702C253.995 531.702 259.3 537.013 259.3 543.565V571.137C259.3 577.689 253.995 583 247.45 583C240.904 583 235.599 577.689 235.599 571.137V543.565Z" fill="#C63B3B"/>
<path d="M244.867 497.609C241.517 491.981 243.36 484.7 248.982 481.347C254.605 477.993 261.879 479.837 265.229 485.466L279.328 509.153C282.678 514.781 280.836 522.062 275.213 525.415C269.59 528.769 262.316 526.925 258.966 521.296L244.867 497.609Z" fill="#C63B3B"/>
<path d="M196.362 485.548C199.635 479.874 206.883 477.93 212.551 481.206C218.219 484.482 220.161 491.737 216.889 497.411L203.116 521.289C199.844 526.963 192.596 528.907 186.927 525.631C181.259 522.355 179.317 515.1 182.59 509.427L196.362 485.548Z" fill="#C63B3B"/>
<path d="M202.288 543.565C202.288 537.013 207.594 531.702 214.139 531.702C220.684 531.702 225.99 537.013 225.99 543.565V571.137C225.99 577.689 220.684 583 214.139 583C207.594 583 202.288 577.689 202.288 571.137V543.565Z" fill="#C63B3B"/>
</g>
<g id="Vector_14" filter="url(#filter13_d_162_745)">
<path d="M443.528 489.996C448.85 466.672 482.381 466.672 487.703 489.996L496.346 527.874C499.549 541.912 488.78 555.267 474.259 555.267H456.972C442.451 555.267 431.682 541.912 434.885 527.874L443.528 489.996Z" fill="#C63B3B"/>
<path d="M489.555 439.046C489.555 452.326 478.692 463.092 465.292 463.092C451.892 463.092 441.03 452.326 441.03 439.046C441.03 425.766 451.892 415 465.292 415C478.692 415 489.555 425.766 489.555 439.046Z" fill="#C63B3B"/>
<path d="M470.145 543.565C470.145 537.013 475.504 531.702 482.114 531.702C488.725 531.702 494.083 537.013 494.083 543.565V571.137C494.083 577.689 488.725 583 482.114 583C475.504 583 470.145 577.689 470.145 571.137V543.565Z" fill="#C63B3B"/>
<path d="M479.506 497.609C476.123 491.981 477.983 484.7 483.662 481.347C489.341 477.993 496.688 479.837 500.071 485.466L514.311 509.153C517.695 514.781 515.834 522.062 510.155 525.415C504.476 528.769 497.13 526.925 493.746 521.296L479.506 497.609Z" fill="#C63B3B"/>
<path d="M430.516 485.548C433.821 479.874 441.142 477.93 446.867 481.206C452.591 484.482 454.553 491.737 451.248 497.411L437.337 521.289C434.032 526.963 426.712 528.907 420.987 525.631C415.262 522.355 413.3 515.1 416.606 509.427L430.516 485.548Z" fill="#C63B3B"/>
<path d="M436.501 543.565C436.501 537.013 441.86 531.702 448.47 531.702C455.081 531.702 460.44 537.013 460.44 543.565V571.137C460.44 577.689 455.081 583 448.47 583C441.86 583 436.501 577.689 436.501 571.137V543.565Z" fill="#C63B3B"/>
</g>
<g id="Vector_15" filter="url(#filter14_d_162_745)">
<path d="M326.528 489.996C331.85 466.672 365.381 466.672 370.703 489.996L379.346 527.874C382.549 541.912 371.78 555.267 357.259 555.267H339.972C325.451 555.267 314.682 541.912 317.885 527.874L326.528 489.996Z" fill="#C63B3B"/>
<path d="M372.555 439.046C372.555 452.326 361.692 463.092 348.292 463.092C334.892 463.092 324.03 452.326 324.03 439.046C324.03 425.766 334.892 415 348.292 415C361.692 415 372.555 425.766 372.555 439.046Z" fill="#C63B3B"/>
<path d="M353.145 543.565C353.145 537.013 358.504 531.702 365.114 531.702C371.725 531.702 377.083 537.013 377.083 543.565V571.137C377.083 577.689 371.725 583 365.114 583C358.504 583 353.145 577.689 353.145 571.137V543.565Z" fill="#C63B3B"/>
<path d="M362.506 497.609C359.123 491.981 360.983 484.7 366.662 481.347C372.341 477.993 379.688 479.837 383.071 485.466L397.311 509.153C400.695 514.781 398.834 522.062 393.155 525.415C387.476 528.769 380.13 526.925 376.746 521.296L362.506 497.609Z" fill="#C63B3B"/>
<path d="M313.516 485.548C316.821 479.874 324.142 477.93 329.867 481.206C335.591 484.482 337.553 491.737 334.248 497.411L320.337 521.289C317.032 526.963 309.712 528.907 303.987 525.631C298.262 522.355 296.3 515.1 299.606 509.427L313.516 485.548Z" fill="#C63B3B"/>
<path d="M319.501 543.565C319.501 537.013 324.86 531.702 331.47 531.702C338.081 531.702 343.44 537.013 343.44 543.565V571.137C343.44 577.689 338.081 583 331.47 583C324.86 583 319.501 577.689 319.501 571.137V543.565Z" fill="#C63B3B"/>
</g>
<g id="Vector_16" filter="url(#filter15_d_162_745)">
<path d="M561.246 489.996C566.515 466.672 599.714 466.672 604.983 489.996L613.541 527.874C616.712 541.912 606.05 555.267 591.672 555.267H574.557C560.179 555.267 549.517 541.912 552.688 527.874L561.246 489.996Z" fill="#C63B3B"/>
<path d="M606.816 439.046C606.816 452.326 596.061 463.092 582.794 463.092C569.527 463.092 558.772 452.326 558.772 439.046C558.772 425.766 569.527 415 582.794 415C596.061 415 606.816 425.766 606.816 439.046Z" fill="#C63B3B"/>
<path d="M587.599 543.565C587.599 537.013 592.904 531.702 599.45 531.702C605.995 531.702 611.3 537.013 611.3 543.565V571.137C611.3 577.689 605.995 583 599.45 583C592.904 583 587.599 577.689 587.599 571.137V543.565Z" fill="#C63B3B"/>
<path d="M596.867 497.609C593.517 491.981 595.36 484.7 600.982 481.347C606.605 477.993 613.879 479.837 617.229 485.466L631.328 509.153C634.678 514.781 632.836 522.062 627.213 525.415C621.59 528.769 614.316 526.925 610.966 521.296L596.867 497.609Z" fill="#C63B3B"/>
<path d="M548.362 485.548C551.635 479.874 558.883 477.93 564.551 481.206C570.219 484.482 572.161 491.737 568.889 497.411L555.116 521.289C551.844 526.963 544.596 528.907 538.927 525.631C533.259 522.355 531.317 515.1 534.59 509.427L548.362 485.548Z" fill="#C63B3B"/>
<path d="M554.288 543.565C554.288 537.013 559.594 531.702 566.139 531.702C572.684 531.702 577.99 537.013 577.99 543.565V571.137C577.99 577.689 572.684 583 566.139 583C559.594 583 554.288 577.689 554.288 571.137V543.565Z" fill="#C63B3B"/>
</g>
<g id="Vector_17" filter="url(#filter16_d_162_745)">
<path d="M108.33 526.388C114.548 498.899 153.722 498.899 159.94 526.388L170.038 571.03C173.78 587.575 161.199 603.315 144.233 603.315H124.037C107.071 603.315 94.4901 587.575 98.2324 571.03L108.33 526.388Z" fill="#E06A6A"/>
<path d="M162.103 466.34C162.103 481.991 149.412 494.679 133.757 494.679C118.102 494.679 105.411 481.991 105.411 466.34C105.411 450.688 118.102 438 133.757 438C149.412 438 162.103 450.688 162.103 466.34Z" fill="#E06A6A"/>
<path d="M139.426 589.523C139.426 581.801 145.687 575.542 153.41 575.542C161.134 575.542 167.395 581.801 167.395 589.523V622.019C167.395 629.741 161.134 636 153.41 636C145.687 636 139.426 629.741 139.426 622.019V589.523Z" fill="#E06A6A"/>
<path d="M150.364 535.361C146.41 528.728 148.584 520.146 155.219 516.194C161.854 512.242 170.437 514.416 174.39 521.049L191.027 548.966C194.98 555.599 192.806 564.18 186.171 568.132C179.537 572.085 170.953 569.911 167 563.278L150.364 535.361Z" fill="#E06A6A"/>
<path d="M93.1276 521.146C96.9892 514.459 105.542 512.168 112.23 516.029C118.919 519.889 121.21 528.44 117.349 535.127L101.097 563.269C97.2354 569.956 88.6829 572.248 81.9944 568.387C75.3059 564.526 73.0142 555.975 76.8758 549.289L93.1276 521.146Z" fill="#E06A6A"/>
<path d="M100.12 589.523C100.12 581.801 106.381 575.542 114.104 575.542C121.827 575.542 128.088 581.801 128.088 589.523V622.019C128.088 629.741 121.827 636 114.104 636C106.381 636 100.12 629.741 100.12 622.019V589.523Z" fill="#E06A6A"/>
</g>
<g id="Vector_18" filter="url(#filter17_d_162_745)">
<path d="M384.33 526.388C390.548 498.899 429.722 498.899 435.94 526.388L446.038 571.03C449.78 587.575 437.199 603.315 420.233 603.315H400.037C383.071 603.315 370.49 587.575 374.232 571.03L384.33 526.388Z" fill="#E06A6A"/>
<path d="M438.103 466.34C438.103 481.991 425.412 494.679 409.757 494.679C394.102 494.679 381.411 481.991 381.411 466.34C381.411 450.688 394.102 438 409.757 438C425.412 438 438.103 450.688 438.103 466.34Z" fill="#E06A6A"/>
<path d="M415.426 589.523C415.426 581.801 421.687 575.542 429.41 575.542C437.134 575.542 443.395 581.801 443.395 589.523V622.019C443.395 629.741 437.134 636 429.41 636C421.687 636 415.426 629.741 415.426 622.019V589.523Z" fill="#E06A6A"/>
<path d="M426.364 535.361C422.41 528.728 424.584 520.146 431.219 516.194C437.854 512.242 446.437 514.416 450.39 521.049L467.027 548.966C470.98 555.599 468.806 564.18 462.171 568.132C455.537 572.085 446.953 569.911 443 563.278L426.364 535.361Z" fill="#E06A6A"/>
<path d="M369.128 521.146C372.989 514.459 381.542 512.168 388.23 516.029C394.919 519.889 397.21 528.44 393.349 535.127L377.097 563.269C373.235 569.956 364.683 572.248 357.994 568.387C351.306 564.526 349.014 555.975 352.876 549.289L369.128 521.146Z" fill="#E06A6A"/>
<path d="M376.12 589.523C376.12 581.801 382.381 575.542 390.104 575.542C397.827 575.542 404.088 581.801 404.088 589.523V622.019C404.088 629.741 397.827 636 390.104 636C382.381 636 376.12 629.741 376.12 622.019V589.523Z" fill="#E06A6A"/>
</g>
<g id="Vector_19" filter="url(#filter18_d_162_745)">
<path d="M246.33 526.388C252.548 498.899 291.722 498.899 297.94 526.388L308.038 571.03C311.78 587.575 299.199 603.315 282.233 603.315H262.037C245.071 603.315 232.49 587.575 236.232 571.03L246.33 526.388Z" fill="#E06A6A"/>
<path d="M300.103 466.34C300.103 481.991 287.412 494.679 271.757 494.679C256.102 494.679 243.411 481.991 243.411 466.34C243.411 450.688 256.102 438 271.757 438C287.412 438 300.103 450.688 300.103 466.34Z" fill="#E06A6A"/>
<path d="M277.426 589.523C277.426 581.801 283.687 575.542 291.41 575.542C299.134 575.542 305.395 581.801 305.395 589.523V622.019C305.395 629.741 299.134 636 291.41 636C283.687 636 277.426 629.741 277.426 622.019V589.523Z" fill="#E06A6A"/>
<path d="M288.364 535.361C284.41 528.728 286.584 520.146 293.219 516.194C299.854 512.242 308.437 514.416 312.39 521.049L329.027 548.966C332.98 555.599 330.806 564.18 324.171 568.132C317.537 572.085 308.953 569.911 305 563.278L288.364 535.361Z" fill="#E06A6A"/>
<path d="M231.128 521.146C234.989 514.459 243.542 512.168 250.23 516.029C256.919 519.889 259.21 528.44 255.349 535.127L239.097 563.269C235.235 569.956 226.683 572.248 219.994 568.387C213.306 564.526 211.014 555.975 214.876 549.289L231.128 521.146Z" fill="#E06A6A"/>
<path d="M238.12 589.523C238.12 581.801 244.381 575.542 252.104 575.542C259.827 575.542 266.088 581.801 266.088 589.523V622.019C266.088 629.741 259.827 636 252.104 636C244.381 636 238.12 629.741 238.12 622.019V589.523Z" fill="#E06A6A"/>
</g>
<g id="Vector_20" filter="url(#filter19_d_162_745)">
<path d="M304.33 572.388C310.548 544.899 349.722 544.899 355.94 572.388L366.038 617.03C369.78 633.575 357.199 649.315 340.233 649.315H320.037C303.071 649.315 290.49 633.575 294.232 617.03L304.33 572.388Z" fill="#FB8D8D"/>
<path d="M358.103 512.34C358.103 527.991 345.412 540.679 329.757 540.679C314.102 540.679 301.411 527.991 301.411 512.34C301.411 496.688 314.102 484 329.757 484C345.412 484 358.103 496.688 358.103 512.34Z" fill="#FB8D8D"/>
<path d="M335.426 635.523C335.426 627.801 341.687 621.542 349.41 621.542C357.134 621.542 363.395 627.801 363.395 635.523V668.019C363.395 675.741 357.134 682 349.41 682C341.687 682 335.426 675.741 335.426 668.019V635.523Z" fill="#FB8D8D"/>
<path d="M346.364 581.361C342.41 574.728 344.584 566.146 351.219 562.194C357.854 558.242 366.437 560.416 370.39 567.049L387.027 594.966C390.98 601.599 388.806 610.18 382.171 614.132C375.537 618.085 366.953 615.911 363 609.278L346.364 581.361Z" fill="#FB8D8D"/>
<path d="M289.128 567.146C292.989 560.459 301.542 558.168 308.23 562.029C314.919 565.889 317.21 574.44 313.349 581.127L297.097 609.269C293.235 615.956 284.683 618.248 277.994 614.387C271.306 610.526 269.014 601.975 272.876 595.289L289.128 567.146Z" fill="#FB8D8D"/>
<path d="M296.12 635.523C296.12 627.801 302.381 621.542 310.104 621.542C317.827 621.542 324.088 627.801 324.088 635.523V668.019C324.088 675.741 317.827 682 310.104 682C302.381 682 296.12 675.741 296.12 668.019V635.523Z" fill="#FB8D8D"/>
</g>
<g id="Vector_21" filter="url(#filter20_d_162_745)">
<path d="M522.33 526.388C528.548 498.899 567.722 498.899 573.94 526.388L584.038 571.03C587.78 587.575 575.199 603.315 558.233 603.315H538.037C521.071 603.315 508.49 587.575 512.232 571.03L522.33 526.388Z" fill="#E06A6A"/>
<path d="M576.103 466.34C576.103 481.991 563.412 494.679 547.757 494.679C532.102 494.679 519.411 481.991 519.411 466.34C519.411 450.688 532.102 438 547.757 438C563.412 438 576.103 450.688 576.103 466.34Z" fill="#E06A6A"/>
<path d="M553.426 589.523C553.426 581.801 559.687 575.542 567.41 575.542C575.134 575.542 581.395 581.801 581.395 589.523V622.019C581.395 629.741 575.134 636 567.41 636C559.687 636 553.426 629.741 553.426 622.019V589.523Z" fill="#E06A6A"/>
<path d="M564.364 535.361C560.41 528.728 562.584 520.146 569.219 516.194C575.854 512.242 584.437 514.416 588.39 521.049L605.027 548.966C608.98 555.599 606.806 564.18 600.171 568.132C593.537 572.085 584.953 569.911 581 563.278L564.364 535.361Z" fill="#E06A6A"/>
<path d="M507.128 521.146C510.989 514.459 519.542 512.168 526.23 516.029C532.919 519.889 535.21 528.44 531.349 535.127L515.097 563.269C511.235 569.956 502.683 572.248 495.994 568.387C489.306 564.526 487.014 555.975 490.876 549.289L507.128 521.146Z" fill="#E06A6A"/>
<path d="M514.12 589.523C514.12 581.801 520.381 575.542 528.104 575.542C535.827 575.542 542.088 581.801 542.088 589.523V622.019C542.088 629.741 535.827 636 528.104 636C520.381 636 514.12 629.741 514.12 622.019V589.523Z" fill="#E06A6A"/>
</g>
<g id="Vector_22" filter="url(#filter21_d_162_745)">
<path d="M580.33 572.388C586.548 544.899 625.722 544.899 631.94 572.388L642.038 617.03C645.78 633.575 633.199 649.315 616.233 649.315H596.037C579.071 649.315 566.49 633.575 570.232 617.03L580.33 572.388Z" fill="#FB8D8D"/>
<path d="M634.103 512.34C634.103 527.991 621.412 540.679 605.757 540.679C590.102 540.679 577.411 527.991 577.411 512.34C577.411 496.688 590.102 484 605.757 484C621.412 484 634.103 496.688 634.103 512.34Z" fill="#FB8D8D"/>
<path d="M611.426 635.523C611.426 627.801 617.687 621.542 625.41 621.542C633.134 621.542 639.395 627.801 639.395 635.523V668.019C639.395 675.741 633.134 682 625.41 682C617.687 682 611.426 675.741 611.426 668.019V635.523Z" fill="#FB8D8D"/>
<path d="M622.364 581.361C618.41 574.728 620.584 566.146 627.219 562.194C633.854 558.242 642.437 560.416 646.39 567.049L663.027 594.966C666.98 601.599 664.806 610.18 658.171 614.132C651.537 618.085 642.953 615.911 639 609.278L622.364 581.361Z" fill="#FB8D8D"/>
<path d="M565.128 567.146C568.989 560.459 577.542 558.168 584.23 562.029C590.919 565.889 593.21 574.44 589.349 581.127L573.097 609.269C569.235 615.956 560.683 618.248 553.994 614.387C547.306 610.526 545.014 601.975 548.876 595.289L565.128 567.146Z" fill="#FB8D8D"/>
<path d="M572.12 635.523C572.12 627.801 578.381 621.542 586.104 621.542C593.827 621.542 600.088 627.801 600.088 635.523V668.019C600.088 675.741 593.827 682 586.104 682C578.381 682 572.12 675.741 572.12 668.019V635.523Z" fill="#FB8D8D"/>
</g>
<g id="Vector_23" filter="url(#filter22_d_162_745)">
<path d="M166.33 572.388C172.548 544.899 211.722 544.899 217.94 572.388L228.038 617.03C231.78 633.575 219.199 649.315 202.233 649.315H182.037C165.071 649.315 152.49 633.575 156.232 617.03L166.33 572.388Z" fill="#FB8D8D"/>
<path d="M220.103 512.34C220.103 527.991 207.412 540.679 191.757 540.679C176.102 540.679 163.411 527.991 163.411 512.34C163.411 496.688 176.102 484 191.757 484C207.412 484 220.103 496.688 220.103 512.34Z" fill="#FB8D8D"/>
<path d="M197.426 635.523C197.426 627.801 203.687 621.542 211.41 621.542C219.134 621.542 225.395 627.801 225.395 635.523V668.019C225.395 675.741 219.134 682 211.41 682C203.687 682 197.426 675.741 197.426 668.019V635.523Z" fill="#FB8D8D"/>
<path d="M208.364 581.361C204.41 574.728 206.584 566.146 213.219 562.194C219.854 558.242 228.437 560.416 232.39 567.049L249.027 594.966C252.98 601.599 250.806 610.18 244.171 614.132C237.537 618.085 228.953 615.911 225 609.278L208.364 581.361Z" fill="#FB8D8D"/>
<path d="M151.128 567.146C154.989 560.459 163.542 558.168 170.23 562.029C176.919 565.889 179.21 574.44 175.349 581.127L159.097 609.269C155.235 615.956 146.683 618.248 139.994 614.387C133.306 610.526 131.014 601.975 134.876 595.289L151.128 567.146Z" fill="#FB8D8D"/>
<path d="M158.12 635.523C158.12 627.801 164.381 621.542 172.104 621.542C179.827 621.542 186.088 627.801 186.088 635.523V668.019C186.088 675.741 179.827 682 172.104 682C164.381 682 158.12 675.741 158.12 668.019V635.523Z" fill="#FB8D8D"/>
</g>
<g id="Vector_24" filter="url(#filter23_d_162_745)">
<path d="M442.33 572.388C448.548 544.899 487.722 544.899 493.94 572.388L504.038 617.03C507.78 633.575 495.199 649.315 478.233 649.315H458.037C441.071 649.315 428.49 633.575 432.232 617.03L442.33 572.388Z" fill="#FB8D8D"/>
<path d="M496.103 512.34C496.103 527.991 483.412 540.679 467.757 540.679C452.102 540.679 439.411 527.991 439.411 512.34C439.411 496.688 452.102 484 467.757 484C483.412 484 496.103 496.688 496.103 512.34Z" fill="#FB8D8D"/>
<path d="M473.426 635.523C473.426 627.801 479.687 621.542 487.41 621.542C495.134 621.542 501.395 627.801 501.395 635.523V668.019C501.395 675.741 495.134 682 487.41 682C479.687 682 473.426 675.741 473.426 668.019V635.523Z" fill="#FB8D8D"/>
<path d="M484.364 581.361C480.41 574.728 482.584 566.146 489.219 562.194C495.854 558.242 504.437 560.416 508.39 567.049L525.027 594.966C528.98 601.599 526.806 610.18 520.171 614.132C513.537 618.085 504.953 615.911 501 609.278L484.364 581.361Z" fill="#FB8D8D"/>
<path d="M427.128 567.146C430.989 560.459 439.542 558.168 446.23 562.029C452.919 565.889 455.21 574.44 451.349 581.127L435.097 609.269C431.235 615.956 422.683 618.248 415.994 614.387C409.306 610.526 407.014 601.975 410.876 595.289L427.128 567.146Z" fill="#FB8D8D"/>
<path d="M434.12 635.523C434.12 627.801 440.381 621.542 448.104 621.542C455.827 621.542 462.088 627.801 462.088 635.523V668.019C462.088 675.741 455.827 682 448.104 682C440.381 682 434.12 675.741 434.12 668.019V635.523Z" fill="#FB8D8D"/>
</g>
</g>
<g id="Group 12">
<path id="Vector 13" d="M684 779.121L762.612 491.2L834.953 605.983L886.557 432.844L951.665 556.308L1050.53 415L1156.15 556.308L1194.25 491.2L1264.18 583.316L1293.12 527.371L1306.62 727.517L1230.9 795.518L1132.04 769.475H1097.31H1041.37L978.673 810.951L934.785 779.121L892.827 795.518H872.089L858.103 818.668L802.158 831.689L762.612 810.951L708.596 795.518L684 779.121Z" fill="#EC5F46"/>
<path id="Vector 14" d="M765.023 559.202L720.171 796.001L729.817 805.164L768.399 812.398H862.926L880.77 788.284L942.502 783.462L1067.89 769.958H1090.08L1113.71 758.865L1166.76 779.603H1257.91L1296.49 719.318L1279.13 621.898L1212.58 559.202L1159.53 621.898L1050.53 534.605C1029.31 566.114 986.871 630.579 986.871 636.366C986.871 642.154 923.211 561.935 891.38 521.102L847.975 694.24L765.023 559.202Z" fill="#FD9D49"/>
</g>
</g>
<defs>
<filter id="filter0_d_162_745" x="809" y="415" width="108" height="176" filterUnits="userSpaceOnUse" color-interpolation-filters="sRGB">
<feFlood flood-opacity="0" result="BackgroundImageFix"/>
<feColorMatrix in="SourceAlpha" type="matrix" values="0 0 0 0 0 0 0 0 0 0 0 0 0 0 0 0 0 0 127 0" result="hardAlpha"/>
<feOffset dy="4"/>
<feGaussianBlur stdDeviation="2"/>
<feComposite in2="hardAlpha" operator="out"/>
<feColorMatrix type="matrix" values="0 0 0 0 0 0 0 0 0 0 0 0 0 0 0 0 0 0 0.25 0"/>
<feBlend mode="normal" in2="BackgroundImageFix" result="effect1_dropShadow_162_745"/>
<feBlend mode="normal" in="SourceGraphic" in2="effect1_dropShadow_162_745" result="shape"/>
</filter>
<filter id="filter1_d_162_745" x="1043" y="415" width="109" height="176" filterUnits="userSpaceOnUse" color-interpolation-filters="sRGB">
<feFlood flood-opacity="0" result="BackgroundImageFix"/>
<feColorMatrix in="SourceAlpha" type="matrix" values="0 0 0 0 0 0 0 0 0 0 0 0 0 0 0 0 0 0 127 0" result="hardAlpha"/>
<feOffset dy="4"/>
<feGaussianBlur stdDeviation="2"/>
<feComposite in2="hardAlpha" operator="out"/>
<feColorMatrix type="matrix" values="0 0 0 0 0 0 0 0 0 0 0 0 0 0 0 0 0 0 0.25 0"/>
<feBlend mode="normal" in2="BackgroundImageFix" result="effect1_dropShadow_162_745"/>
<feBlend mode="normal" in="SourceGraphic" in2="effect1_dropShadow_162_745" result="shape"/>
</filter>
<filter id="filter2_d_162_745" x="926" y="415" width="109" height="176" filterUnits="userSpaceOnUse" color-interpolation-filters="sRGB">
<feFlood flood-opacity="0" result="BackgroundImageFix"/>
<feColorMatrix in="SourceAlpha" type="matrix" values="0 0 0 0 0 0 0 0 0 0 0 0 0 0 0 0 0 0 127 0" result="hardAlpha"/>
<feOffset dy="4"/>
<feGaussianBlur stdDeviation="2"/>
<feComposite in2="hardAlpha" operator="out"/>
<feColorMatrix type="matrix" values="0 0 0 0 0 0 0 0 0 0 0 0 0 0 0 0 0 0 0.25 0"/>
<feBlend mode="normal" in2="BackgroundImageFix" result="effect1_dropShadow_162_745"/>
<feBlend mode="normal" in="SourceGraphic" in2="effect1_dropShadow_162_745" result="shape"/>
</filter>
<filter id="filter3_d_162_745" x="1161" y="415" width="108" height="176" filterUnits="userSpaceOnUse" color-interpolation-filters="sRGB">
<feFlood flood-opacity="0" result="BackgroundImageFix"/>
<feColorMatrix in="SourceAlpha" type="matrix" values="0 0 0 0 0 0 0 0 0 0 0 0 0 0 0 0 0 0 127 0" result="hardAlpha"/>
<feOffset dy="4"/>
<feGaussianBlur stdDeviation="2"/>
<feComposite in2="hardAlpha" operator="out"/>
<feColorMatrix type="matrix" values="0 0 0 0 0 0 0 0 0 0 0 0 0 0 0 0 0 0 0.25 0"/>
<feBlend mode="normal" in2="BackgroundImageFix" result="effect1_dropShadow_162_745"/>
<feBlend mode="normal" in="SourceGraphic" in2="effect1_dropShadow_162_745" result="shape"/>
</filter>
<filter id="filter4_d_162_745" x="703" y="438" width="126" height="206" filterUnits="userSpaceOnUse" color-interpolation-filters="sRGB">
<feFlood flood-opacity="0" result="BackgroundImageFix"/>
<feColorMatrix in="SourceAlpha" type="matrix" values="0 0 0 0 0 0 0 0 0 0 0 0 0 0 0 0 0 0 127 0" result="hardAlpha"/>
<feOffset dy="4"/>
<feGaussianBlur stdDeviation="2"/>
<feComposite in2="hardAlpha" operator="out"/>
<feColorMatrix type="matrix" values="0 0 0 0 0 0 0 0 0 0 0 0 0 0 0 0 0 0 0.25 0"/>
<feBlend mode="normal" in2="BackgroundImageFix" result="effect1_dropShadow_162_745"/>
<feBlend mode="normal" in="SourceGraphic" in2="effect1_dropShadow_162_745" result="shape"/>
</filter>
<filter id="filter5_d_162_745" x="979" y="438" width="126" height="206" filterUnits="userSpaceOnUse" color-interpolation-filters="sRGB">
<feFlood flood-opacity="0" result="BackgroundImageFix"/>
<feColorMatrix in="SourceAlpha" type="matrix" values="0 0 0 0 0 0 0 0 0 0 0 0 0 0 0 0 0 0 127 0" result="hardAlpha"/>
<feOffset dy="4"/>
<feGaussianBlur stdDeviation="2"/>
<feComposite in2="hardAlpha" operator="out"/>
<feColorMatrix type="matrix" values="0 0 0 0 0 0 0 0 0 0 0 0 0 0 0 0 0 0 0.25 0"/>
<feBlend mode="normal" in2="BackgroundImageFix" result="effect1_dropShadow_162_745"/>
<feBlend mode="normal" in="SourceGraphic" in2="effect1_dropShadow_162_745" result="shape"/>
</filter>
<filter id="filter6_d_162_745" x="841" y="438" width="126" height="206" filterUnits="userSpaceOnUse" color-interpolation-filters="sRGB">
<feFlood flood-opacity="0" result="BackgroundImageFix"/>
<feColorMatrix in="SourceAlpha" type="matrix" values="0 0 0 0 0 0 0 0 0 0 0 0 0 0 0 0 0 0 127 0" result="hardAlpha"/>
<feOffset dy="4"/>
<feGaussianBlur stdDeviation="2"/>
<feComposite in2="hardAlpha" operator="out"/>
<feColorMatrix type="matrix" values="0 0 0 0 0 0 0 0 0 0 0 0 0 0 0 0 0 0 0.25 0"/>
<feBlend mode="normal" in2="BackgroundImageFix" result="effect1_dropShadow_162_745"/>
<feBlend mode="normal" in="SourceGraphic" in2="effect1_dropShadow_162_745" result="shape"/>
</filter>
<filter id="filter7_d_162_745" x="899" y="484" width="126" height="206" filterUnits="userSpaceOnUse" color-interpolation-filters="sRGB">
<feFlood flood-opacity="0" result="BackgroundImageFix"/>
<feColorMatrix in="SourceAlpha" type="matrix" values="0 0 0 0 0 0 0 0 0 0 0 0 0 0 0 0 0 0 127 0" result="hardAlpha"/>
<feOffset dy="4"/>
<feGaussianBlur stdDeviation="2"/>
<feComposite in2="hardAlpha" operator="out"/>
<feColorMatrix type="matrix" values="0 0 0 0 0 0 0 0 0 0 0 0 0 0 0 0 0 0 0.25 0"/>
<feBlend mode="normal" in2="BackgroundImageFix" result="effect1_dropShadow_162_745"/>
<feBlend mode="normal" in="SourceGraphic" in2="effect1_dropShadow_162_745" result="shape"/>
</filter>
<filter id="filter8_d_162_745" x="1117" y="438" width="126" height="206" filterUnits="userSpaceOnUse" color-interpolation-filters="sRGB">
<feFlood flood-opacity="0" result="BackgroundImageFix"/>
<feColorMatrix in="SourceAlpha" type="matrix" values="0 0 0 0 0 0 0 0 0 0 0 0 0 0 0 0 0 0 127 0" result="hardAlpha"/>
<feOffset dy="4"/>
<feGaussianBlur stdDeviation="2"/>
<feComposite in2="hardAlpha" operator="out"/>
<feColorMatrix type="matrix" values="0 0 0 0 0 0 0 0 0 0 0 0 0 0 0 0 0 0 0.25 0"/>
<feBlend mode="normal" in2="BackgroundImageFix" result="effect1_dropShadow_162_745"/>
<feBlend mode="normal" in="SourceGraphic" in2="effect1_dropShadow_162_745" result="shape"/>
</filter>
<filter id="filter9_d_162_745" x="761" y="484" width="126" height="206" filterUnits="userSpaceOnUse" color-interpolation-filters="sRGB">
<feFlood flood-opacity="0" result="BackgroundImageFix"/>
<feColorMatrix in="SourceAlpha" type="matrix" values="0 0 0 0 0 0 0 0 0 0 0 0 0 0 0 0 0 0 127 0" result="hardAlpha"/>
<feOffset dy="4"/>
<feGaussianBlur stdDeviation="2"/>
<feComposite in2="hardAlpha" operator="out"/>
<feColorMatrix type="matrix" values="0 0 0 0 0 0 0 0 0 0 0 0 0 0 0 0 0 0 0.25 0"/>
<feBlend mode="normal" in2="BackgroundImageFix" result="effect1_dropShadow_162_745"/>
<feBlend mode="normal" in="SourceGraphic" in2="effect1_dropShadow_162_745" result="shape"/>
</filter>
<filter id="filter10_d_162_745" x="1037" y="484" width="126" height="206" filterUnits="userSpaceOnUse" color-interpolation-filters="sRGB">
<feFlood flood-opacity="0" result="BackgroundImageFix"/>
<feColorMatrix in="SourceAlpha" type="matrix" values="0 0 0 0 0 0 0 0 0 0 0 0 0 0 0 0 0 0 127 0" result="hardAlpha"/>
<feOffset dy="4"/>
<feGaussianBlur stdDeviation="2"/>
<feComposite in2="hardAlpha" operator="out"/>
<feColorMatrix type="matrix" values="0 0 0 0 0 0 0 0 0 0 0 0 0 0 0 0 0 0 0.25 0"/>
<feBlend mode="normal" in2="BackgroundImageFix" result="effect1_dropShadow_162_745"/>
<feBlend mode="normal" in="SourceGraphic" in2="effect1_dropShadow_162_745" result="shape"/>
</filter>
<filter id="filter11_d_162_745" x="1175" y="484" width="126" height="206" filterUnits="userSpaceOnUse" color-interpolation-filters="sRGB">
<feFlood flood-opacity="0" result="BackgroundImageFix"/>
<feColorMatrix in="SourceAlpha" type="matrix" values="0 0 0 0 0 0 0 0 0 0 0 0 0 0 0 0 0 0 127 0" result="hardAlpha"/>
<feOffset dy="4"/>
<feGaussianBlur stdDeviation="2"/>
<feComposite in2="hardAlpha" operator="out"/>
<feColorMatrix type="matrix" values="0 0 0 0 0 0 0 0 0 0 0 0 0 0 0 0 0 0 0.25 0"/>
<feBlend mode="normal" in2="BackgroundImageFix" result="effect1_dropShadow_162_745"/>
<feBlend mode="normal" in="SourceGraphic" in2="effect1_dropShadow_162_745" result="shape"/>
</filter>
<filter id="filter12_d_162_745" x="177" y="415" width="108" height="176" filterUnits="userSpaceOnUse" color-interpolation-filters="sRGB">
<feFlood flood-opacity="0" result="BackgroundImageFix"/>
<feColorMatrix in="SourceAlpha" type="matrix" values="0 0 0 0 0 0 0 0 0 0 0 0 0 0 0 0 0 0 127 0" result="hardAlpha"/>
<feOffset dy="4"/>
<feGaussianBlur stdDeviation="2"/>
<feComposite in2="hardAlpha" operator="out"/>
<feColorMatrix type="matrix" values="0 0 0 0 0 0 0 0 0 0 0 0 0 0 0 0 0 0 0.25 0"/>
<feBlend mode="normal" in2="BackgroundImageFix" result="effect1_dropShadow_162_745"/>
<feBlend mode="normal" in="SourceGraphic" in2="effect1_dropShadow_162_745" result="shape"/>
</filter>
<filter id="filter13_d_162_745" x="411" y="415" width="109" height="176" filterUnits="userSpaceOnUse" color-interpolation-filters="sRGB">
<feFlood flood-opacity="0" result="BackgroundImageFix"/>
<feColorMatrix in="SourceAlpha" type="matrix" values="0 0 0 0 0 0 0 0 0 0 0 0 0 0 0 0 0 0 127 0" result="hardAlpha"/>
<feOffset dy="4"/>
<feGaussianBlur stdDeviation="2"/>
<feComposite in2="hardAlpha" operator="out"/>
<feColorMatrix type="matrix" values="0 0 0 0 0 0 0 0 0 0 0 0 0 0 0 0 0 0 0.25 0"/>
<feBlend mode="normal" in2="BackgroundImageFix" result="effect1_dropShadow_162_745"/>
<feBlend mode="normal" in="SourceGraphic" in2="effect1_dropShadow_162_745" result="shape"/>
</filter>
<filter id="filter14_d_162_745" x="294" y="415" width="109" height="176" filterUnits="userSpaceOnUse" color-interpolation-filters="sRGB">
<feFlood flood-opacity="0" result="BackgroundImageFix"/>
<feColorMatrix in="SourceAlpha" type="matrix" values="0 0 0 0 0 0 0 0 0 0 0 0 0 0 0 0 0 0 127 0" result="hardAlpha"/>
<feOffset dy="4"/>
<feGaussianBlur stdDeviation="2"/>
<feComposite in2="hardAlpha" operator="out"/>
<feColorMatrix type="matrix" values="0 0 0 0 0 0 0 0 0 0 0 0 0 0 0 0 0 0 0.25 0"/>
<feBlend mode="normal" in2="BackgroundImageFix" result="effect1_dropShadow_162_745"/>
<feBlend mode="normal" in="SourceGraphic" in2="effect1_dropShadow_162_745" result="shape"/>
</filter>
<filter id="filter15_d_162_745" x="529" y="415" width="108" height="176" filterUnits="userSpaceOnUse" color-interpolation-filters="sRGB">
<feFlood flood-opacity="0" result="BackgroundImageFix"/>
<feColorMatrix in="SourceAlpha" type="matrix" values="0 0 0 0 0 0 0 0 0 0 0 0 0 0 0 0 0 0 127 0" result="hardAlpha"/>
<feOffset dy="4"/>
<feGaussianBlur stdDeviation="2"/>
<feComposite in2="hardAlpha" operator="out"/>
<feColorMatrix type="matrix" values="0 0 0 0 0 0 0 0 0 0 0 0 0 0 0 0 0 0 0.25 0"/>
<feBlend mode="normal" in2="BackgroundImageFix" result="effect1_dropShadow_162_745"/>
<feBlend mode="normal" in="SourceGraphic" in2="effect1_dropShadow_162_745" result="shape"/>
</filter>
<filter id="filter16_d_162_745" x="71" y="438" width="126" height="206" filterUnits="userSpaceOnUse" color-interpolation-filters="sRGB">
<feFlood flood-opacity="0" result="BackgroundImageFix"/>
<feColorMatrix in="SourceAlpha" type="matrix" values="0 0 0 0 0 0 0 0 0 0 0 0 0 0 0 0 0 0 127 0" result="hardAlpha"/>
<feOffset dy="4"/>
<feGaussianBlur stdDeviation="2"/>
<feComposite in2="hardAlpha" operator="out"/>
<feColorMatrix type="matrix" values="0 0 0 0 0 0 0 0 0 0 0 0 0 0 0 0 0 0 0.25 0"/>
<feBlend mode="normal" in2="BackgroundImageFix" result="effect1_dropShadow_162_745"/>
<feBlend mode="normal" in="SourceGraphic" in2="effect1_dropShadow_162_745" result="shape"/>
</filter>
<filter id="filter17_d_162_745" x="347" y="438" width="126" height="206" filterUnits="userSpaceOnUse" color-interpolation-filters="sRGB">
<feFlood flood-opacity="0" result="BackgroundImageFix"/>
<feColorMatrix in="SourceAlpha" type="matrix" values="0 0 0 0 0 0 0 0 0 0 0 0 0 0 0 0 0 0 127 0" result="hardAlpha"/>
<feOffset dy="4"/>
<feGaussianBlur stdDeviation="2"/>
<feComposite in2="hardAlpha" operator="out"/>
<feColorMatrix type="matrix" values="0 0 0 0 0 0 0 0 0 0 0 0 0 0 0 0 0 0 0.25 0"/>
<feBlend mode="normal" in2="BackgroundImageFix" result="effect1_dropShadow_162_745"/>
<feBlend mode="normal" in="SourceGraphic" in2="effect1_dropShadow_162_745" result="shape"/>
</filter>
<filter id="filter18_d_162_745" x="209" y="438" width="126" height="206" filterUnits="userSpaceOnUse" color-interpolation-filters="sRGB">
<feFlood flood-opacity="0" result="BackgroundImageFix"/>
<feColorMatrix in="SourceAlpha" type="matrix" values="0 0 0 0 0 0 0 0 0 0 0 0 0 0 0 0 0 0 127 0" result="hardAlpha"/>
<feOffset dy="4"/>
<feGaussianBlur stdDeviation="2"/>
<feComposite in2="hardAlpha" operator="out"/>
<feColorMatrix type="matrix" values="0 0 0 0 0 0 0 0 0 0 0 0 0 0 0 0 0 0 0.25 0"/>
<feBlend mode="normal" in2="BackgroundImageFix" result="effect1_dropShadow_162_745"/>
<feBlend mode="normal" in="SourceGraphic" in2="effect1_dropShadow_162_745" result="shape"/>
</filter>
<filter id="filter19_d_162_745" x="267" y="484" width="126" height="206" filterUnits="userSpaceOnUse" color-interpolation-filters="sRGB">
<feFlood flood-opacity="0" result="BackgroundImageFix"/>
<feColorMatrix in="SourceAlpha" type="matrix" values="0 0 0 0 0 0 0 0 0 0 0 0 0 0 0 0 0 0 127 0" result="hardAlpha"/>
<feOffset dy="4"/>
<feGaussianBlur stdDeviation="2"/>
<feComposite in2="hardAlpha" operator="out"/>
<feColorMatrix type="matrix" values="0 0 0 0 0 0 0 0 0 0 0 0 0 0 0 0 0 0 0.25 0"/>
<feBlend mode="normal" in2="BackgroundImageFix" result="effect1_dropShadow_162_745"/>
<feBlend mode="normal" in="SourceGraphic" in2="effect1_dropShadow_162_745" result="shape"/>
</filter>
<filter id="filter20_d_162_745" x="485" y="438" width="126" height="206" filterUnits="userSpaceOnUse" color-interpolation-filters="sRGB">
<feFlood flood-opacity="0" result="BackgroundImageFix"/>
<feColorMatrix in="SourceAlpha" type="matrix" values="0 0 0 0 0 0 0 0 0 0 0 0 0 0 0 0 0 0 127 0" result="hardAlpha"/>
<feOffset dy="4"/>
<feGaussianBlur stdDeviation="2"/>
<feComposite in2="hardAlpha" operator="out"/>
<feColorMatrix type="matrix" values="0 0 0 0 0 0 0 0 0 0 0 0 0 0 0 0 0 0 0.25 0"/>
<feBlend mode="normal" in2="BackgroundImageFix" result="effect1_dropShadow_162_745"/>
<feBlend mode="normal" in="SourceGraphic" in2="effect1_dropShadow_162_745" result="shape"/>
</filter>
<filter id="filter21_d_162_745" x="543" y="484" width="126" height="206" filterUnits="userSpaceOnUse" color-interpolation-filters="sRGB">
<feFlood flood-opacity="0" result="BackgroundImageFix"/>
<feColorMatrix in="SourceAlpha" type="matrix" values="0 0 0 0 0 0 0 0 0 0 0 0 0 0 0 0 0 0 127 0" result="hardAlpha"/>
<feOffset dy="4"/>
<feGaussianBlur stdDeviation="2"/>
<feComposite in2="hardAlpha" operator="out"/>
<feColorMatrix type="matrix" values="0 0 0 0 0 0 0 0 0 0 0 0 0 0 0 0 0 0 0.25 0"/>
<feBlend mode="normal" in2="BackgroundImageFix" result="effect1_dropShadow_162_745"/>
<feBlend mode="normal" in="SourceGraphic" in2="effect1_dropShadow_162_745" result="shape"/>
</filter>
<filter id="filter22_d_162_745" x="129" y="484" width="126" height="206" filterUnits="userSpaceOnUse" color-interpolation-filters="sRGB">
<feFlood flood-opacity="0" result="BackgroundImageFix"/>
<feColorMatrix in="SourceAlpha" type="matrix" values="0 0 0 0 0 0 0 0 0 0 0 0 0 0 0 0 0 0 127 0" result="hardAlpha"/>
<feOffset dy="4"/>
<feGaussianBlur stdDeviation="2"/>
<feComposite in2="hardAlpha" operator="out"/>
<feColorMatrix type="matrix" values="0 0 0 0 0 0 0 0 0 0 0 0 0 0 0 0 0 0 0.25 0"/>
<feBlend mode="normal" in2="BackgroundImageFix" result="effect1_dropShadow_162_745"/>
<feBlend mode="normal" in="SourceGraphic" in2="effect1_dropShadow_162_745" result="shape"/>
</filter>
<filter id="filter23_d_162_745" x="405" y="484" width="126" height="206" filterUnits="userSpaceOnUse" color-interpolation-filters="sRGB">
<feFlood flood-opacity="0" result="BackgroundImageFix"/>
<feColorMatrix in="SourceAlpha" type="matrix" values="0 0 0 0 0 0 0 0 0 0 0 0 0 0 0 0 0 0 127 0" result="hardAlpha"/>
<feOffset dy="4"/>
<feGaussianBlur stdDeviation="2"/>
<feComposite in2="hardAlpha" operator="out"/>
<feColorMatrix type="matrix" values="0 0 0 0 0 0 0 0 0 0 0 0 0 0 0 0 0 0 0.25 0"/>
<feBlend mode="normal" in2="BackgroundImageFix" result="effect1_dropShadow_162_745"/>
<feBlend mode="normal" in="SourceGraphic" in2="effect1_dropShadow_162_745" result="shape"/>
</filter>
<clipPath id="clip0_162_745">
<rect width="1440" height="1024" fill="white"/>
</clipPath>
</defs>
</svg>
