<svg width="456" height="289" viewBox="0 0 456 289" fill="none" xmlns="http://www.w3.org/2000/svg">
<g id="restart">
<rect x="0.5" y="0.5" width="455" height="288" rx="4.5" stroke="#8A38F5" stroke-dasharray="10 5"/>
<g id="Property 1=Default">
<g id="restart_2" filter="url(#filter0_i_80_102)">
<path d="M27.5023 121V70.024H42.0943L42.7663 87.592L39.1183 85.768C39.9503 82.632 41.3903 79.816 43.4383 77.32C45.5503 74.76 47.9503 72.744 50.6383 71.272C53.3903 69.736 56.3023 68.968 59.3743 68.968C61.0383 68.968 62.6063 69.128 64.0783 69.448C65.6143 69.768 66.9263 70.184 68.0143 70.696L63.7903 87.496C62.8303 86.792 61.5183 86.248 59.8543 85.864C58.2543 85.48 56.6223 85.288 54.9583 85.288C53.1023 85.288 51.4063 85.608 49.8703 86.248C48.3983 86.824 47.1503 87.656 46.1263 88.744C45.1023 89.768 44.3023 90.952 43.7263 92.296C43.2143 93.64 42.9583 95.08 42.9583 96.616V121H27.5023ZM108.248 121.96C102.04 121.96 96.6 120.84 91.928 118.6C87.32 116.296 83.736 113.192 81.176 109.288C78.616 105.32 77.336 100.808 77.336 95.752C77.336 91.72 78.072 88.072 79.544 84.808C81.016 81.544 83.064 78.728 85.688 76.36C88.312 73.992 91.384 72.168 94.904 70.888C98.424 69.608 102.232 68.968 106.328 68.968C110.296 68.968 113.944 69.608 117.272 70.888C120.6 72.104 123.48 73.864 125.912 76.168C128.408 78.472 130.328 81.192 131.672 84.328C133.016 87.464 133.624 90.92 133.496 94.696L133.4 99.016H87.416L85.208 90.088H120.92L119.288 92.008V90.088C119.096 88.488 118.392 87.048 117.176 85.768C116.024 84.488 114.52 83.496 112.664 82.792C110.808 82.024 108.76 81.64 106.52 81.64C103.64 81.64 101.08 82.12 98.84 83.08C96.6 83.976 94.84 85.384 93.56 87.304C92.344 89.224 91.736 91.656 91.736 94.6C91.736 97.416 92.472 99.88 93.944 101.992C95.48 104.104 97.624 105.768 100.376 106.984C103.192 108.2 106.488 108.808 110.264 108.808C113.528 108.808 116.248 108.424 118.424 107.656C120.664 106.824 122.68 105.8 124.472 104.584L131.384 114.568C129.272 116.168 126.936 117.544 124.376 118.696C121.88 119.784 119.256 120.584 116.504 121.096C113.816 121.672 111.064 121.96 108.248 121.96ZM171.957 121.96C166.325 121.96 161.269 121.16 156.789 119.56C152.373 117.96 148.821 115.688 146.133 112.744L155.445 104.488C157.621 106.536 160.213 108.104 163.221 109.192C166.229 110.28 169.397 110.824 172.725 110.824C173.749 110.824 174.741 110.728 175.701 110.536C176.725 110.344 177.589 110.088 178.293 109.768C179.061 109.384 179.669 108.936 180.117 108.424C180.565 107.912 180.789 107.272 180.789 106.504C180.789 105.288 180.021 104.328 178.485 103.624C177.397 103.24 176.021 102.856 174.357 102.472C172.693 102.088 170.805 101.672 168.693 101.224C165.173 100.584 162.069 99.816 159.381 98.92C156.757 97.96 154.549 96.776 152.757 95.368C151.221 94.024 150.037 92.488 149.205 90.76C148.373 89.032 147.957 87.016 147.957 84.712C147.957 82.344 148.565 80.2 149.781 78.28C150.997 76.296 152.693 74.632 154.869 73.288C157.045 71.88 159.541 70.824 162.357 70.12C165.173 69.352 168.117 68.968 171.189 68.968C174.261 68.968 177.269 69.288 180.213 69.928C183.157 70.504 185.941 71.368 188.565 72.52C191.189 73.608 193.493 75.016 195.477 76.744L187.605 85.96C186.197 84.872 184.565 83.88 182.709 82.984C180.853 82.088 178.869 81.384 176.757 80.872C174.709 80.296 172.693 80.008 170.709 80.008C169.621 80.008 168.565 80.072 167.541 80.2C166.581 80.328 165.749 80.584 165.045 80.968C164.341 81.288 163.765 81.704 163.317 82.216C162.933 82.664 162.741 83.24 162.741 83.944C162.741 84.52 162.901 85.064 163.221 85.576C163.541 86.088 164.021 86.504 164.661 86.824C165.557 87.4 166.869 87.912 168.597 88.36C170.389 88.808 172.629 89.288 175.317 89.8C179.221 90.632 182.549 91.592 185.301 92.68C188.053 93.704 190.261 94.952 191.925 96.424C193.269 97.448 194.261 98.728 194.901 100.264C195.541 101.736 195.861 103.368 195.861 105.16C195.861 108.424 194.805 111.336 192.693 113.896C190.645 116.392 187.829 118.376 184.245 119.848C180.725 121.256 176.629 121.96 171.957 121.96ZM218.401 121V56.008H233.761V121H218.401ZM207.073 83.464V70.024H246.721V83.464H207.073ZM284.743 121.864C279.687 121.864 275.271 120.744 271.495 118.504C267.719 116.264 264.743 113.16 262.567 109.192C260.455 105.16 259.398 100.584 259.398 95.464C259.398 90.28 260.487 85.704 262.663 81.736C264.839 77.768 267.847 74.664 271.687 72.424C275.591 70.12 280.071 68.968 285.127 68.968C288.007 68.968 290.663 69.352 293.095 70.12C295.527 70.824 297.639 71.816 299.431 73.096C301.287 74.376 302.791 75.784 303.943 77.32C305.159 78.856 305.959 80.456 306.343 82.12H302.983V70.024H318.151V121H302.695V107.944L305.958 108.424C305.575 110.088 304.775 111.72 303.559 113.32C302.343 114.92 300.775 116.36 298.855 117.64C296.935 118.92 294.759 119.944 292.327 120.712C289.959 121.48 287.431 121.864 284.743 121.864ZM288.871 108.904C291.751 108.904 294.247 108.36 296.359 107.272C298.535 106.184 300.199 104.648 301.351 102.664C302.567 100.616 303.175 98.216 303.175 95.464C303.175 92.776 302.567 90.44 301.351 88.456C300.199 86.408 298.535 84.808 296.359 83.656C294.247 82.504 291.751 81.928 288.871 81.928C285.991 81.928 283.495 82.504 281.383 83.656C279.271 84.808 277.607 86.408 276.391 88.456C275.239 90.44 274.663 92.776 274.663 95.464C274.663 98.216 275.239 100.616 276.391 102.664C277.607 104.648 279.271 106.184 281.383 107.272C283.495 108.36 285.991 108.904 288.871 108.904ZM341.846 121V70.024H356.438L357.11 87.592L353.462 85.768C354.294 82.632 355.734 79.816 357.782 77.32C359.894 74.76 362.294 72.744 364.982 71.272C367.734 69.736 370.646 68.968 373.718 68.968C375.382 68.968 376.95 69.128 378.422 69.448C379.958 69.768 381.27 70.184 382.358 70.696L378.134 87.496C377.174 86.792 375.862 86.248 374.198 85.864C372.598 85.48 370.966 85.288 369.302 85.288C367.446 85.288 365.75 85.608 364.214 86.248C362.742 86.824 361.494 87.656 360.47 88.744C359.446 89.768 358.646 90.952 358.07 92.296C357.558 93.64 357.302 95.08 357.302 96.616V121H341.846ZM406.463 121V56.008H421.823V121H406.463ZM395.135 83.464V70.024H434.783V83.464H395.135Z" fill="#EC5F46"/>
</g>
</g>
<g id="Property 1=Variant2">
<g id="restart_3" filter="url(#filter1_i_80_102)">
<path d="M27.5023 260V209.024H42.0943L42.7663 226.592L39.1183 224.768C39.9503 221.632 41.3903 218.816 43.4383 216.32C45.5503 213.76 47.9503 211.744 50.6383 210.272C53.3903 208.736 56.3023 207.968 59.3743 207.968C61.0383 207.968 62.6063 208.128 64.0783 208.448C65.6143 208.768 66.9263 209.184 68.0143 209.696L63.7903 226.496C62.8303 225.792 61.5183 225.248 59.8543 224.864C58.2543 224.48 56.6223 224.288 54.9583 224.288C53.1023 224.288 51.4063 224.608 49.8703 225.248C48.3983 225.824 47.1503 226.656 46.1263 227.744C45.1023 228.768 44.3023 229.952 43.7263 231.296C43.2143 232.64 42.9583 234.08 42.9583 235.616V260H27.5023ZM108.248 260.96C102.04 260.96 96.6 259.84 91.928 257.6C87.32 255.296 83.736 252.192 81.176 248.288C78.616 244.32 77.336 239.808 77.336 234.752C77.336 230.72 78.072 227.072 79.544 223.808C81.016 220.544 83.064 217.728 85.688 215.36C88.312 212.992 91.384 211.168 94.904 209.888C98.424 208.608 102.232 207.968 106.328 207.968C110.296 207.968 113.944 208.608 117.272 209.888C120.6 211.104 123.48 212.864 125.912 215.168C128.408 217.472 130.328 220.192 131.672 223.328C133.016 226.464 133.624 229.92 133.496 233.696L133.4 238.016H87.416L85.208 229.088H120.92L119.288 231.008V229.088C119.096 227.488 118.392 226.048 117.176 224.768C116.024 223.488 114.52 222.496 112.664 221.792C110.808 221.024 108.76 220.64 106.52 220.64C103.64 220.64 101.08 221.12 98.84 222.08C96.6 222.976 94.84 224.384 93.56 226.304C92.344 228.224 91.736 230.656 91.736 233.6C91.736 236.416 92.472 238.88 93.944 240.992C95.48 243.104 97.624 244.768 100.376 245.984C103.192 247.2 106.488 247.808 110.264 247.808C113.528 247.808 116.248 247.424 118.424 246.656C120.664 245.824 122.68 244.8 124.472 243.584L131.384 253.568C129.272 255.168 126.936 256.544 124.376 257.696C121.88 258.784 119.256 259.584 116.504 260.096C113.816 260.672 111.064 260.96 108.248 260.96ZM171.957 260.96C166.325 260.96 161.269 260.16 156.789 258.56C152.373 256.96 148.821 254.688 146.133 251.744L155.445 243.488C157.621 245.536 160.213 247.104 163.221 248.192C166.229 249.28 169.397 249.824 172.725 249.824C173.749 249.824 174.741 249.728 175.701 249.536C176.725 249.344 177.589 249.088 178.293 248.768C179.061 248.384 179.669 247.936 180.117 247.424C180.565 246.912 180.789 246.272 180.789 245.504C180.789 244.288 180.021 243.328 178.485 242.624C177.397 242.24 176.021 241.856 174.357 241.472C172.693 241.088 170.805 240.672 168.693 240.224C165.173 239.584 162.069 238.816 159.381 237.92C156.757 236.96 154.549 235.776 152.757 234.368C151.221 233.024 150.037 231.488 149.205 229.76C148.373 228.032 147.957 226.016 147.957 223.712C147.957 221.344 148.565 219.2 149.781 217.28C150.997 215.296 152.693 213.632 154.869 212.288C157.045 210.88 159.541 209.824 162.357 209.12C165.173 208.352 168.117 207.968 171.189 207.968C174.261 207.968 177.269 208.288 180.213 208.928C183.157 209.504 185.941 210.368 188.565 211.52C191.189 212.608 193.493 214.016 195.477 215.744L187.605 224.96C186.197 223.872 184.565 222.88 182.709 221.984C180.853 221.088 178.869 220.384 176.757 219.872C174.709 219.296 172.693 219.008 170.709 219.008C169.621 219.008 168.565 219.072 167.541 219.2C166.581 219.328 165.749 219.584 165.045 219.968C164.341 220.288 163.765 220.704 163.317 221.216C162.933 221.664 162.741 222.24 162.741 222.944C162.741 223.52 162.901 224.064 163.221 224.576C163.541 225.088 164.021 225.504 164.661 225.824C165.557 226.4 166.869 226.912 168.597 227.36C170.389 227.808 172.629 228.288 175.317 228.8C179.221 229.632 182.549 230.592 185.301 231.68C188.053 232.704 190.261 233.952 191.925 235.424C193.269 236.448 194.261 237.728 194.901 239.264C195.541 240.736 195.861 242.368 195.861 244.16C195.861 247.424 194.805 250.336 192.693 252.896C190.645 255.392 187.829 257.376 184.245 258.848C180.725 260.256 176.629 260.96 171.957 260.96ZM218.401 260V195.008H233.761V260H218.401ZM207.073 222.464V209.024H246.721V222.464H207.073ZM284.743 260.864C279.687 260.864 275.271 259.744 271.495 257.504C267.719 255.264 264.743 252.16 262.567 248.192C260.455 244.16 259.398 239.584 259.398 234.464C259.398 229.28 260.487 224.704 262.663 220.736C264.839 216.768 267.847 213.664 271.687 211.424C275.591 209.12 280.071 207.968 285.127 207.968C288.007 207.968 290.663 208.352 293.095 209.12C295.527 209.824 297.639 210.816 299.431 212.096C301.287 213.376 302.791 214.784 303.943 216.32C305.159 217.856 305.959 219.456 306.343 221.12H302.983V209.024H318.151V260H302.695V246.944L305.958 247.424C305.575 249.088 304.775 250.72 303.559 252.32C302.343 253.92 300.775 255.36 298.855 256.64C296.935 257.92 294.759 258.944 292.327 259.712C289.959 260.48 287.431 260.864 284.743 260.864ZM288.871 247.904C291.751 247.904 294.247 247.36 296.359 246.272C298.535 245.184 300.199 243.648 301.351 241.664C302.567 239.616 303.175 237.216 303.175 234.464C303.175 231.776 302.567 229.44 301.351 227.456C300.199 225.408 298.535 223.808 296.359 222.656C294.247 221.504 291.751 220.928 288.871 220.928C285.991 220.928 283.495 221.504 281.383 222.656C279.271 223.808 277.607 225.408 276.391 227.456C275.239 229.44 274.663 231.776 274.663 234.464C274.663 237.216 275.239 239.616 276.391 241.664C277.607 243.648 279.271 245.184 281.383 246.272C283.495 247.36 285.991 247.904 288.871 247.904ZM341.846 260V209.024H356.438L357.11 226.592L353.462 224.768C354.294 221.632 355.734 218.816 357.782 216.32C359.894 213.76 362.294 211.744 364.982 210.272C367.734 208.736 370.646 207.968 373.718 207.968C375.382 207.968 376.95 208.128 378.422 208.448C379.958 208.768 381.27 209.184 382.358 209.696L378.134 226.496C377.174 225.792 375.862 225.248 374.198 224.864C372.598 224.48 370.966 224.288 369.302 224.288C367.446 224.288 365.75 224.608 364.214 225.248C362.742 225.824 361.494 226.656 360.47 227.744C359.446 228.768 358.646 229.952 358.07 231.296C357.558 232.64 357.302 234.08 357.302 235.616V260H341.846ZM406.463 260V195.008H421.823V260H406.463ZM395.135 222.464V209.024H434.783V222.464H395.135Z" fill="#EF1044"/>
</g>
</g>
</g>
<defs>
<filter id="filter0_i_80_102" x="27.5022" y="56.0081" width="407.281" height="69.9519" filterUnits="userSpaceOnUse" color-interpolation-filters="sRGB">
<feFlood flood-opacity="0" result="BackgroundImageFix"/>
<feBlend mode="normal" in="SourceGraphic" in2="BackgroundImageFix" result="shape"/>
<feColorMatrix in="SourceAlpha" type="matrix" values="0 0 0 0 0 0 0 0 0 0 0 0 0 0 0 0 0 0 127 0" result="hardAlpha"/>
<feOffset dy="4"/>
<feGaussianBlur stdDeviation="2"/>
<feComposite in2="hardAlpha" operator="arithmetic" k2="-1" k3="1"/>
<feColorMatrix type="matrix" values="0 0 0 0 0 0 0 0 0 0 0 0 0 0 0 0 0 0 0.25 0"/>
<feBlend mode="normal" in2="shape" result="effect1_innerShadow_80_102"/>
</filter>
<filter id="filter1_i_80_102" x="27.5022" y="195.008" width="407.281" height="69.9519" filterUnits="userSpaceOnUse" color-interpolation-filters="sRGB">
<feFlood flood-opacity="0" result="BackgroundImageFix"/>
<feBlend mode="normal" in="SourceGraphic" in2="BackgroundImageFix" result="shape"/>
<feColorMatrix in="SourceAlpha" type="matrix" values="0 0 0 0 0 0 0 0 0 0 0 0 0 0 0 0 0 0 127 0" result="hardAlpha"/>
<feOffset dy="4"/>
<feGaussianBlur stdDeviation="2"/>
<feComposite in2="hardAlpha" operator="arithmetic" k2="-1" k3="1"/>
<feColorMatrix type="matrix" values="0 0 0 0 0 0 0 0 0 0 0 0 0 0 0 0 0 0 0.25 0"/>
<feBlend mode="normal" in2="shape" result="effect1_innerShadow_80_102"/>
</filter>
</defs>
</svg>
