<svg width="1440" height="1024" viewBox="0 0 1440 1024" fill="none" xmlns="http://www.w3.org/2000/svg">
<g id="run-yes-split" clip-path="url(#clip0_110_33)">
<rect width="1440" height="1024" fill="#333148"/>
<path id="part 2" d="M47.096 132.12V60.024H61.688L62.264 71.448L59.384 70.584C59.832 68.536 61.048 66.648 63.032 64.92C65.016 63.192 67.512 61.784 70.52 60.696C73.592 59.608 76.856 59.064 80.312 59.064C85.304 59.064 89.688 60.216 93.464 62.52C97.24 64.76 100.184 67.864 102.296 71.832C104.472 75.736 105.56 80.28 105.56 85.464C105.56 90.584 104.472 95.128 102.296 99.096C100.184 103.064 97.208 106.2 93.368 108.504C89.528 110.744 85.112 111.864 80.12 111.864C76.664 111.864 73.432 111.288 70.424 110.136C67.416 108.984 64.888 107.48 62.84 105.624C60.856 103.768 59.576 101.816 59 99.768L62.552 98.424V132.12H47.096ZM76.376 98.904C79.256 98.904 81.752 98.36 83.864 97.272C85.976 96.12 87.608 94.552 88.76 92.568C89.976 90.584 90.584 88.216 90.584 85.464C90.584 82.776 89.976 80.44 88.76 78.456C87.608 76.408 85.976 74.84 83.864 73.752C81.816 72.6 79.32 72.024 76.376 72.024C73.496 72.024 70.968 72.568 68.792 73.656C66.68 74.744 65.016 76.312 63.8 78.36C62.648 80.408 62.072 82.776 62.072 85.464C62.072 88.216 62.648 90.584 63.8 92.568C65.016 94.552 66.68 96.12 68.792 97.272C70.968 98.36 73.496 98.904 76.376 98.904ZM144.211 111.864C139.155 111.864 134.739 110.744 130.963 108.504C127.187 106.264 124.211 103.16 122.035 99.192C119.923 95.16 118.867 90.584 118.867 85.464C118.867 80.28 119.955 75.704 122.131 71.736C124.307 67.768 127.315 64.664 131.155 62.424C135.059 60.12 139.539 58.968 144.595 58.968C147.475 58.968 150.131 59.352 152.563 60.12C154.995 60.824 157.107 61.816 158.899 63.096C160.755 64.376 162.259 65.784 163.411 67.32C164.627 68.856 165.427 70.456 165.811 72.12H162.451V60.024H177.619V111H162.163V97.944L165.427 98.424C165.043 100.088 164.243 101.72 163.027 103.32C161.811 104.92 160.243 106.36 158.323 107.64C156.403 108.92 154.227 109.944 151.795 110.712C149.427 111.48 146.899 111.864 144.211 111.864ZM148.339 98.904C151.219 98.904 153.715 98.36 155.827 97.272C158.003 96.184 159.667 94.648 160.819 92.664C162.035 90.616 162.643 88.216 162.643 85.464C162.643 82.776 162.035 80.44 160.819 78.456C159.667 76.408 158.003 74.808 155.827 73.656C153.715 72.504 151.219 71.928 148.339 71.928C145.459 71.928 142.963 72.504 140.851 73.656C138.739 74.808 137.075 76.408 135.859 78.456C134.707 80.44 134.131 82.776 134.131 85.464C134.131 88.216 134.707 90.616 135.859 92.664C137.075 94.648 138.739 96.184 140.851 97.272C142.963 98.36 145.459 98.904 148.339 98.904ZM201.315 111V60.024H215.907L216.579 77.592L212.931 75.768C213.763 72.632 215.203 69.816 217.251 67.32C219.363 64.76 221.763 62.744 224.451 61.272C227.203 59.736 230.115 58.968 233.187 58.968C234.851 58.968 236.419 59.128 237.891 59.448C239.427 59.768 240.739 60.184 241.827 60.696L237.603 77.496C236.643 76.792 235.331 76.248 233.667 75.864C232.067 75.48 230.435 75.288 228.771 75.288C226.915 75.288 225.219 75.608 223.683 76.248C222.211 76.824 220.963 77.656 219.939 78.744C218.915 79.768 218.115 80.952 217.539 82.296C217.027 83.64 216.771 85.08 216.771 86.616V111H201.315ZM265.932 111V46.008H281.292V111H265.932ZM254.604 73.464V60.024H294.252V73.464H254.604ZM348.136 111L344.776 102.264L364.552 82.776C366.088 81.304 367.624 79.768 369.16 78.168C370.76 76.504 372.264 74.808 373.672 73.08C375.08 71.352 376.2 69.688 377.032 68.088C377.864 66.424 378.28 64.952 378.28 63.672C378.28 62.328 377.96 61.176 377.32 60.216C376.744 59.192 375.848 58.392 374.632 57.816C373.48 57.24 372.008 56.952 370.216 56.952C368.552 56.952 366.888 57.336 365.224 58.104C363.624 58.808 362.088 59.928 360.616 61.464C359.208 62.936 357.864 64.888 356.584 67.32L344.488 60.6C346.152 57.08 348.328 53.944 351.016 51.192C353.768 48.376 356.904 46.2 360.424 44.664C364.008 43.064 367.848 42.264 371.944 42.264C376.232 42.328 380.04 43.192 383.368 44.856C386.696 46.456 389.32 48.696 391.24 51.576C393.224 54.456 394.216 57.816 394.216 61.656C394.216 63.384 393.928 65.112 393.352 66.84C392.84 68.568 392.104 70.296 391.144 72.024C390.184 73.688 389.032 75.448 387.688 77.304C386.344 79.096 384.84 80.92 383.176 82.776C381.512 84.632 379.72 86.52 377.8 88.44L361.288 104.472L360.136 96.6H397.192V111H348.136Z" fill="white"/>
<rect id="Rectangle 7" y="546" width="1195" height="185" fill="#211F2F"/>
<g id="Group 4">
<g id="Vector" filter="url(#filter0_d_110_33)">
<path d="M249.246 452.996C254.515 429.672 287.714 429.672 292.983 452.996L301.541 490.874C304.712 504.912 294.05 518.267 279.672 518.267H262.557C248.179 518.267 237.517 504.912 240.688 490.874L249.246 452.996Z" fill="#3B5EC6"/>
<path d="M294.816 402.046C294.816 415.326 284.061 426.092 270.794 426.092C257.527 426.092 246.772 415.326 246.772 402.046C246.772 388.766 257.527 378 270.794 378C284.061 378 294.816 388.766 294.816 402.046Z" fill="#3B5EC6"/>
<path d="M275.599 506.565C275.599 500.013 280.904 494.702 287.45 494.702C293.995 494.702 299.3 500.013 299.3 506.565V534.137C299.3 540.689 293.995 546 287.45 546C280.904 546 275.599 540.689 275.599 534.137V506.565Z" fill="#3B5EC6"/>
<path d="M284.867 460.609C281.517 454.981 283.36 447.7 288.982 444.347C294.605 440.993 301.879 442.837 305.229 448.466L319.328 472.153C322.678 477.781 320.836 485.062 315.213 488.415C309.59 491.769 302.316 489.925 298.966 484.296L284.867 460.609Z" fill="#3B5EC6"/>
<path d="M236.362 448.548C239.635 442.874 246.883 440.93 252.551 444.206C258.219 447.482 260.161 454.737 256.889 460.411L243.116 484.289C239.844 489.963 232.596 491.907 226.927 488.631C221.259 485.355 219.317 478.1 222.59 472.427L236.362 448.548Z" fill="#3B5EC6"/>
<path d="M242.288 506.565C242.288 500.013 247.594 494.702 254.139 494.702C260.684 494.702 265.99 500.013 265.99 506.565V534.137C265.99 540.689 260.684 546 254.139 546C247.594 546 242.288 540.689 242.288 534.137V506.565Z" fill="#3B5EC6"/>
</g>
<g id="Vector_2" filter="url(#filter1_d_110_33)">
<path d="M483.528 452.996C488.85 429.672 522.381 429.672 527.703 452.996L536.346 490.874C539.549 504.912 528.78 518.267 514.259 518.267H496.972C482.451 518.267 471.682 504.912 474.885 490.874L483.528 452.996Z" fill="#3B5EC6"/>
<path d="M529.555 402.046C529.555 415.326 518.692 426.092 505.292 426.092C491.892 426.092 481.03 415.326 481.03 402.046C481.03 388.766 491.892 378 505.292 378C518.692 378 529.555 388.766 529.555 402.046Z" fill="#3B5EC6"/>
<path d="M510.145 506.565C510.145 500.013 515.504 494.702 522.114 494.702C528.725 494.702 534.083 500.013 534.083 506.565V534.137C534.083 540.689 528.725 546 522.114 546C515.504 546 510.145 540.689 510.145 534.137V506.565Z" fill="#3B5EC6"/>
<path d="M519.506 460.609C516.123 454.981 517.983 447.7 523.662 444.347C529.341 440.993 536.688 442.837 540.071 448.466L554.311 472.153C557.695 477.781 555.834 485.062 550.155 488.415C544.476 491.769 537.13 489.925 533.746 484.296L519.506 460.609Z" fill="#3B5EC6"/>
<path d="M470.516 448.548C473.821 442.874 481.142 440.93 486.867 444.206C492.591 447.482 494.553 454.737 491.248 460.411L477.337 484.289C474.032 489.963 466.712 491.907 460.987 488.631C455.262 485.355 453.3 478.1 456.606 472.427L470.516 448.548Z" fill="#3B5EC6"/>
<path d="M476.501 506.565C476.501 500.013 481.86 494.702 488.47 494.702C495.081 494.702 500.44 500.013 500.44 506.565V534.137C500.44 540.689 495.081 546 488.47 546C481.86 546 476.501 540.689 476.501 534.137V506.565Z" fill="#3B5EC6"/>
</g>
<g id="Vector_3" filter="url(#filter2_d_110_33)">
<path d="M366.528 452.996C371.85 429.672 405.381 429.672 410.703 452.996L419.346 490.874C422.549 504.912 411.78 518.267 397.259 518.267H379.972C365.451 518.267 354.682 504.912 357.885 490.874L366.528 452.996Z" fill="#3B5EC6"/>
<path d="M412.555 402.046C412.555 415.326 401.692 426.092 388.292 426.092C374.892 426.092 364.03 415.326 364.03 402.046C364.03 388.766 374.892 378 388.292 378C401.692 378 412.555 388.766 412.555 402.046Z" fill="#3B5EC6"/>
<path d="M393.145 506.565C393.145 500.013 398.504 494.702 405.114 494.702C411.725 494.702 417.083 500.013 417.083 506.565V534.137C417.083 540.689 411.725 546 405.114 546C398.504 546 393.145 540.689 393.145 534.137V506.565Z" fill="#3B5EC6"/>
<path d="M402.506 460.609C399.123 454.981 400.983 447.7 406.662 444.347C412.341 440.993 419.688 442.837 423.071 448.466L437.311 472.153C440.695 477.781 438.834 485.062 433.155 488.415C427.476 491.769 420.13 489.925 416.746 484.296L402.506 460.609Z" fill="#3B5EC6"/>
<path d="M353.516 448.548C356.821 442.874 364.142 440.93 369.867 444.206C375.591 447.482 377.553 454.737 374.248 460.411L360.337 484.289C357.032 489.963 349.712 491.907 343.987 488.631C338.262 485.355 336.3 478.1 339.606 472.427L353.516 448.548Z" fill="#3B5EC6"/>
<path d="M359.501 506.565C359.501 500.013 364.86 494.702 371.47 494.702C378.081 494.702 383.44 500.013 383.44 506.565V534.137C383.44 540.689 378.081 546 371.47 546C364.86 546 359.501 540.689 359.501 534.137V506.565Z" fill="#3B5EC6"/>
</g>
<g id="Vector_4" filter="url(#filter3_d_110_33)">
<path d="M601.246 452.996C606.515 429.672 639.714 429.672 644.983 452.996L653.541 490.874C656.712 504.912 646.05 518.267 631.672 518.267H614.557C600.179 518.267 589.517 504.912 592.688 490.874L601.246 452.996Z" fill="#3B5EC6"/>
<path d="M646.816 402.046C646.816 415.326 636.061 426.092 622.794 426.092C609.527 426.092 598.772 415.326 598.772 402.046C598.772 388.766 609.527 378 622.794 378C636.061 378 646.816 388.766 646.816 402.046Z" fill="#3B5EC6"/>
<path d="M627.599 506.565C627.599 500.013 632.904 494.702 639.45 494.702C645.995 494.702 651.3 500.013 651.3 506.565V534.137C651.3 540.689 645.995 546 639.45 546C632.904 546 627.599 540.689 627.599 534.137V506.565Z" fill="#3B5EC6"/>
<path d="M636.867 460.609C633.517 454.981 635.36 447.7 640.982 444.347C646.605 440.993 653.879 442.837 657.229 448.466L671.328 472.153C674.678 477.781 672.836 485.062 667.213 488.415C661.59 491.769 654.316 489.925 650.966 484.296L636.867 460.609Z" fill="#3B5EC6"/>
<path d="M588.362 448.548C591.635 442.874 598.883 440.93 604.551 444.206C610.219 447.482 612.161 454.737 608.889 460.411L595.116 484.289C591.844 489.963 584.596 491.907 578.927 488.631C573.259 485.355 571.317 478.1 574.59 472.427L588.362 448.548Z" fill="#3B5EC6"/>
<path d="M594.288 506.565C594.288 500.013 599.594 494.702 606.139 494.702C612.684 494.702 617.99 500.013 617.99 506.565V534.137C617.99 540.689 612.684 546 606.139 546C599.594 546 594.288 540.689 594.288 534.137V506.565Z" fill="#3B5EC6"/>
</g>
<g id="Vector_5" filter="url(#filter4_d_110_33)">
<path d="M148.33 489.388C154.548 461.899 193.722 461.899 199.94 489.388L210.038 534.03C213.78 550.575 201.199 566.315 184.233 566.315H164.037C147.071 566.315 134.49 550.575 138.232 534.03L148.33 489.388Z" fill="#6A94E0"/>
<path d="M202.103 429.34C202.103 444.991 189.412 457.679 173.757 457.679C158.102 457.679 145.411 444.991 145.411 429.34C145.411 413.688 158.102 401 173.757 401C189.412 401 202.103 413.688 202.103 429.34Z" fill="#6A94E0"/>
<path d="M179.426 552.523C179.426 544.801 185.687 538.542 193.41 538.542C201.134 538.542 207.395 544.801 207.395 552.523V585.019C207.395 592.741 201.134 599 193.41 599C185.687 599 179.426 592.741 179.426 585.019V552.523Z" fill="#6A94E0"/>
<path d="M190.364 498.361C186.41 491.728 188.584 483.146 195.219 479.194C201.854 475.242 210.437 477.416 214.39 484.049L231.027 511.966C234.98 518.599 232.806 527.18 226.171 531.132C219.537 535.085 210.953 532.911 207 526.278L190.364 498.361Z" fill="#6A94E0"/>
<path d="M133.128 484.146C136.989 477.459 145.542 475.168 152.23 479.029C158.919 482.889 161.21 491.44 157.349 498.127L141.097 526.269C137.235 532.956 128.683 535.248 121.994 531.387C115.306 527.526 113.014 518.975 116.876 512.289L133.128 484.146Z" fill="#6A94E0"/>
<path d="M140.12 552.523C140.12 544.801 146.381 538.542 154.104 538.542C161.827 538.542 168.088 544.801 168.088 552.523V585.019C168.088 592.741 161.827 599 154.104 599C146.381 599 140.12 592.741 140.12 585.019V552.523Z" fill="#6A94E0"/>
</g>
<g id="Vector_6" filter="url(#filter5_d_110_33)">
<path d="M424.33 489.388C430.548 461.899 469.722 461.899 475.94 489.388L486.038 534.03C489.78 550.575 477.199 566.315 460.233 566.315H440.037C423.071 566.315 410.49 550.575 414.232 534.03L424.33 489.388Z" fill="#6A94E0"/>
<path d="M478.103 429.34C478.103 444.991 465.412 457.679 449.757 457.679C434.102 457.679 421.411 444.991 421.411 429.34C421.411 413.688 434.102 401 449.757 401C465.412 401 478.103 413.688 478.103 429.34Z" fill="#6A94E0"/>
<path d="M455.426 552.523C455.426 544.801 461.687 538.542 469.41 538.542C477.134 538.542 483.395 544.801 483.395 552.523V585.019C483.395 592.741 477.134 599 469.41 599C461.687 599 455.426 592.741 455.426 585.019V552.523Z" fill="#6A94E0"/>
<path d="M466.364 498.361C462.41 491.728 464.584 483.146 471.219 479.194C477.854 475.242 486.437 477.416 490.39 484.049L507.027 511.966C510.98 518.599 508.806 527.18 502.171 531.132C495.537 535.085 486.953 532.911 483 526.278L466.364 498.361Z" fill="#6A94E0"/>
<path d="M409.128 484.146C412.989 477.459 421.542 475.168 428.23 479.029C434.919 482.889 437.21 491.44 433.349 498.127L417.097 526.269C413.235 532.956 404.683 535.248 397.994 531.387C391.306 527.526 389.014 518.975 392.876 512.289L409.128 484.146Z" fill="#6A94E0"/>
<path d="M416.12 552.523C416.12 544.801 422.381 538.542 430.104 538.542C437.827 538.542 444.088 544.801 444.088 552.523V585.019C444.088 592.741 437.827 599 430.104 599C422.381 599 416.12 592.741 416.12 585.019V552.523Z" fill="#6A94E0"/>
</g>
<g id="Vector_7" filter="url(#filter6_d_110_33)">
<path d="M286.33 489.388C292.548 461.899 331.722 461.899 337.94 489.388L348.038 534.03C351.78 550.575 339.199 566.315 322.233 566.315H302.037C285.071 566.315 272.49 550.575 276.232 534.03L286.33 489.388Z" fill="#6A94E0"/>
<path d="M340.103 429.34C340.103 444.991 327.412 457.679 311.757 457.679C296.102 457.679 283.411 444.991 283.411 429.34C283.411 413.688 296.102 401 311.757 401C327.412 401 340.103 413.688 340.103 429.34Z" fill="#6A94E0"/>
<path d="M317.426 552.523C317.426 544.801 323.687 538.542 331.41 538.542C339.134 538.542 345.395 544.801 345.395 552.523V585.019C345.395 592.741 339.134 599 331.41 599C323.687 599 317.426 592.741 317.426 585.019V552.523Z" fill="#6A94E0"/>
<path d="M328.364 498.361C324.41 491.728 326.584 483.146 333.219 479.194C339.854 475.242 348.437 477.416 352.39 484.049L369.027 511.966C372.98 518.599 370.806 527.18 364.171 531.132C357.537 535.085 348.953 532.911 345 526.278L328.364 498.361Z" fill="#6A94E0"/>
<path d="M271.128 484.146C274.989 477.459 283.542 475.168 290.23 479.029C296.919 482.889 299.21 491.44 295.349 498.127L279.097 526.269C275.235 532.956 266.683 535.248 259.994 531.387C253.306 527.526 251.014 518.975 254.876 512.289L271.128 484.146Z" fill="#6A94E0"/>
<path d="M278.12 552.523C278.12 544.801 284.381 538.542 292.104 538.542C299.827 538.542 306.088 544.801 306.088 552.523V585.019C306.088 592.741 299.827 599 292.104 599C284.381 599 278.12 592.741 278.12 585.019V552.523Z" fill="#6A94E0"/>
</g>
<g id="Vector_8" filter="url(#filter7_d_110_33)">
<path d="M344.33 535.388C350.548 507.899 389.722 507.899 395.94 535.388L406.038 580.03C409.78 596.575 397.199 612.315 380.233 612.315H360.037C343.071 612.315 330.49 596.575 334.232 580.03L344.33 535.388Z" fill="#8DBBFB"/>
<path d="M398.103 475.34C398.103 490.991 385.412 503.679 369.757 503.679C354.102 503.679 341.411 490.991 341.411 475.34C341.411 459.688 354.102 447 369.757 447C385.412 447 398.103 459.688 398.103 475.34Z" fill="#8DBBFB"/>
<path d="M375.426 598.523C375.426 590.801 381.687 584.542 389.41 584.542C397.134 584.542 403.395 590.801 403.395 598.523V631.019C403.395 638.741 397.134 645 389.41 645C381.687 645 375.426 638.741 375.426 631.019V598.523Z" fill="#8DBBFB"/>
<path d="M386.364 544.361C382.41 537.728 384.584 529.146 391.219 525.194C397.854 521.242 406.437 523.416 410.39 530.049L427.027 557.966C430.98 564.599 428.806 573.18 422.171 577.132C415.537 581.085 406.953 578.911 403 572.278L386.364 544.361Z" fill="#8DBBFB"/>
<path d="M329.128 530.146C332.989 523.459 341.542 521.168 348.23 525.029C354.919 528.889 357.21 537.44 353.349 544.127L337.097 572.269C333.235 578.956 324.683 581.248 317.994 577.387C311.306 573.526 309.014 564.975 312.876 558.289L329.128 530.146Z" fill="#8DBBFB"/>
<path d="M336.12 598.523C336.12 590.801 342.381 584.542 350.104 584.542C357.827 584.542 364.088 590.801 364.088 598.523V631.019C364.088 638.741 357.827 645 350.104 645C342.381 645 336.12 638.741 336.12 631.019V598.523Z" fill="#8DBBFB"/>
</g>
<g id="Vector_9" filter="url(#filter8_d_110_33)">
<path d="M562.33 489.388C568.548 461.899 607.722 461.899 613.94 489.388L624.038 534.03C627.78 550.575 615.199 566.315 598.233 566.315H578.037C561.071 566.315 548.49 550.575 552.232 534.03L562.33 489.388Z" fill="#6A94E0"/>
<path d="M616.103 429.34C616.103 444.991 603.412 457.679 587.757 457.679C572.102 457.679 559.411 444.991 559.411 429.34C559.411 413.688 572.102 401 587.757 401C603.412 401 616.103 413.688 616.103 429.34Z" fill="#6A94E0"/>
<path d="M593.426 552.523C593.426 544.801 599.687 538.542 607.41 538.542C615.134 538.542 621.395 544.801 621.395 552.523V585.019C621.395 592.741 615.134 599 607.41 599C599.687 599 593.426 592.741 593.426 585.019V552.523Z" fill="#6A94E0"/>
<path d="M604.364 498.361C600.41 491.728 602.584 483.146 609.219 479.194C615.854 475.242 624.437 477.416 628.39 484.049L645.027 511.966C648.98 518.599 646.806 527.18 640.171 531.132C633.537 535.085 624.953 532.911 621 526.278L604.364 498.361Z" fill="#6A94E0"/>
<path d="M547.128 484.146C550.989 477.459 559.542 475.168 566.23 479.029C572.919 482.889 575.21 491.44 571.349 498.127L555.097 526.269C551.235 532.956 542.683 535.248 535.994 531.387C529.306 527.526 527.014 518.975 530.876 512.289L547.128 484.146Z" fill="#6A94E0"/>
<path d="M554.12 552.523C554.12 544.801 560.381 538.542 568.104 538.542C575.827 538.542 582.088 544.801 582.088 552.523V585.019C582.088 592.741 575.827 599 568.104 599C560.381 599 554.12 592.741 554.12 585.019V552.523Z" fill="#6A94E0"/>
</g>
<g id="Vector_10" filter="url(#filter9_d_110_33)">
<path d="M206.33 535.388C212.548 507.899 251.722 507.899 257.94 535.388L268.038 580.03C271.78 596.575 259.199 612.315 242.233 612.315H222.037C205.071 612.315 192.49 596.575 196.232 580.03L206.33 535.388Z" fill="#8DBBFB"/>
<path d="M260.103 475.34C260.103 490.991 247.412 503.679 231.757 503.679C216.102 503.679 203.411 490.991 203.411 475.34C203.411 459.688 216.102 447 231.757 447C247.412 447 260.103 459.688 260.103 475.34Z" fill="#8DBBFB"/>
<path d="M237.426 598.523C237.426 590.801 243.687 584.542 251.41 584.542C259.134 584.542 265.395 590.801 265.395 598.523V631.019C265.395 638.741 259.134 645 251.41 645C243.687 645 237.426 638.741 237.426 631.019V598.523Z" fill="#8DBBFB"/>
<path d="M248.364 544.361C244.41 537.728 246.584 529.146 253.219 525.194C259.854 521.242 268.437 523.416 272.39 530.049L289.027 557.966C292.98 564.599 290.806 573.18 284.171 577.132C277.537 581.085 268.953 578.911 265 572.278L248.364 544.361Z" fill="#8DBBFB"/>
<path d="M191.128 530.146C194.989 523.459 203.542 521.168 210.23 525.029C216.919 528.889 219.21 537.44 215.349 544.127L199.097 572.269C195.235 578.956 186.683 581.248 179.994 577.387C173.306 573.526 171.014 564.975 174.876 558.289L191.128 530.146Z" fill="#8DBBFB"/>
<path d="M198.12 598.523C198.12 590.801 204.381 584.542 212.104 584.542C219.827 584.542 226.088 590.801 226.088 598.523V631.019C226.088 638.741 219.827 645 212.104 645C204.381 645 198.12 638.741 198.12 631.019V598.523Z" fill="#8DBBFB"/>
</g>
<g id="Vector_11" filter="url(#filter10_d_110_33)">
<path d="M482.33 535.388C488.548 507.899 527.722 507.899 533.94 535.388L544.038 580.03C547.78 596.575 535.199 612.315 518.233 612.315H498.037C481.071 612.315 468.49 596.575 472.232 580.03L482.33 535.388Z" fill="#8DBBFB"/>
<path d="M536.103 475.34C536.103 490.991 523.412 503.679 507.757 503.679C492.102 503.679 479.411 490.991 479.411 475.34C479.411 459.688 492.102 447 507.757 447C523.412 447 536.103 459.688 536.103 475.34Z" fill="#8DBBFB"/>
<path d="M513.426 598.523C513.426 590.801 519.687 584.542 527.41 584.542C535.134 584.542 541.395 590.801 541.395 598.523V631.019C541.395 638.741 535.134 645 527.41 645C519.687 645 513.426 638.741 513.426 631.019V598.523Z" fill="#8DBBFB"/>
<path d="M524.364 544.361C520.41 537.728 522.584 529.146 529.219 525.194C535.854 521.242 544.437 523.416 548.39 530.049L565.027 557.966C568.98 564.599 566.806 573.18 560.171 577.132C553.537 581.085 544.953 578.911 541 572.278L524.364 544.361Z" fill="#8DBBFB"/>
<path d="M467.128 530.146C470.989 523.459 479.542 521.168 486.23 525.029C492.919 528.889 495.21 537.44 491.349 544.127L475.097 572.269C471.235 578.956 462.683 581.248 455.994 577.387C449.306 573.526 447.014 564.975 450.876 558.289L467.128 530.146Z" fill="#8DBBFB"/>
<path d="M474.12 598.523C474.12 590.801 480.381 584.542 488.104 584.542C495.827 584.542 502.088 590.801 502.088 598.523V631.019C502.088 638.741 495.827 645 488.104 645C480.381 645 474.12 638.741 474.12 631.019V598.523Z" fill="#8DBBFB"/>
</g>
<g id="Vector_12" filter="url(#filter11_d_110_33)">
<path d="M620.33 535.388C626.548 507.899 665.722 507.899 671.94 535.388L682.038 580.03C685.78 596.575 673.199 612.315 656.233 612.315H636.037C619.071 612.315 606.49 596.575 610.232 580.03L620.33 535.388Z" fill="#8DBBFB"/>
<path d="M674.103 475.34C674.103 490.991 661.412 503.679 645.757 503.679C630.102 503.679 617.411 490.991 617.411 475.34C617.411 459.688 630.102 447 645.757 447C661.412 447 674.103 459.688 674.103 475.34Z" fill="#8DBBFB"/>
<path d="M651.426 598.523C651.426 590.801 657.687 584.542 665.41 584.542C673.134 584.542 679.395 590.801 679.395 598.523V631.019C679.395 638.741 673.134 645 665.41 645C657.687 645 651.426 638.741 651.426 631.019V598.523Z" fill="#8DBBFB"/>
<path d="M662.364 544.361C658.41 537.728 660.584 529.146 667.219 525.194C673.854 521.242 682.437 523.416 686.39 530.049L703.027 557.966C706.98 564.599 704.806 573.18 698.171 577.132C691.537 581.085 682.953 578.911 679 572.278L662.364 544.361Z" fill="#8DBBFB"/>
<path d="M605.128 530.146C608.989 523.459 617.542 521.168 624.23 525.029C630.919 528.889 633.21 537.44 629.349 544.127L613.097 572.269C609.235 578.956 600.683 581.248 593.994 577.387C587.306 573.526 585.014 564.975 588.876 558.289L605.128 530.146Z" fill="#8DBBFB"/>
<path d="M612.12 598.523C612.12 590.801 618.381 584.542 626.104 584.542C633.827 584.542 640.088 590.801 640.088 598.523V631.019C640.088 638.741 633.827 645 626.104 645C618.381 645 612.12 638.741 612.12 631.019V598.523Z" fill="#8DBBFB"/>
</g>
</g>
<path id="Vector 15" d="M962 551L1550 290L1195 570.5L1563 536L1588.5 570.5L1195 730.5L962 551Z" fill="#201F2F"/>
<path id="the road splits in two" d="M104.541 827V762.008H119.901V827H104.541ZM93.2131 789.464V776.024H132.861V789.464H93.2131ZM151.768 827V755.96H166.84V787.928L163.192 789.176C163.832 786.616 165.176 784.28 167.224 782.168C169.336 779.992 171.896 778.264 174.904 776.984C177.912 775.64 181.112 774.968 184.504 774.968C188.856 774.968 192.504 775.864 195.448 777.656C198.456 779.384 200.696 781.848 202.168 785.048C203.704 788.184 204.472 791.864 204.472 796.088V827H189.016V798.488C189.016 796.184 188.6 794.264 187.768 792.728C187 791.128 185.816 789.912 184.216 789.08C182.68 788.248 180.888 787.864 178.84 787.928C177.176 787.928 175.608 788.216 174.136 788.792C172.728 789.304 171.48 790.072 170.392 791.096C169.368 792.056 168.568 793.176 167.992 794.456C167.416 795.736 167.128 797.112 167.128 798.584V827H159.544C157.432 827 155.736 827 154.456 827C153.176 827 152.28 827 151.768 827ZM253.139 827.96C246.931 827.96 241.491 826.84 236.819 824.6C232.211 822.296 228.627 819.192 226.067 815.288C223.507 811.32 222.227 806.808 222.227 801.752C222.227 797.72 222.963 794.072 224.435 790.808C225.907 787.544 227.955 784.728 230.579 782.36C233.203 779.992 236.275 778.168 239.795 776.888C243.315 775.608 247.123 774.968 251.219 774.968C255.187 774.968 258.835 775.608 262.163 776.888C265.491 778.104 268.371 779.864 270.803 782.168C273.299 784.472 275.219 787.192 276.563 790.328C277.907 793.464 278.515 796.92 278.387 800.696L278.291 805.016H232.307L230.099 796.088H265.811L264.179 798.008V796.088C263.987 794.488 263.283 793.048 262.067 791.768C260.915 790.488 259.411 789.496 257.555 788.792C255.699 788.024 253.651 787.64 251.411 787.64C248.531 787.64 245.971 788.12 243.731 789.08C241.491 789.976 239.731 791.384 238.451 793.304C237.235 795.224 236.627 797.656 236.627 800.6C236.627 803.416 237.363 805.88 238.835 807.992C240.371 810.104 242.515 811.768 245.267 812.984C248.083 814.2 251.379 814.808 255.155 814.808C258.419 814.808 261.139 814.424 263.315 813.656C265.555 812.824 267.571 811.8 269.363 810.584L276.275 820.568C274.163 822.168 271.827 823.544 269.267 824.696C266.771 825.784 264.147 826.584 261.395 827.096C258.707 827.672 255.955 827.96 253.139 827.96ZM336.08 827V776.024H350.672L351.344 793.592L347.696 791.768C348.528 788.632 349.968 785.816 352.016 783.32C354.128 780.76 356.528 778.744 359.216 777.272C361.968 775.736 364.88 774.968 367.952 774.968C369.616 774.968 371.184 775.128 372.656 775.448C374.192 775.768 375.504 776.184 376.592 776.696L372.368 793.496C371.408 792.792 370.096 792.248 368.432 791.864C366.832 791.48 365.2 791.288 363.536 791.288C361.68 791.288 359.984 791.608 358.448 792.248C356.976 792.824 355.728 793.656 354.704 794.744C353.68 795.768 352.88 796.952 352.304 798.296C351.792 799.64 351.536 801.08 351.536 802.616V827H336.08ZM417.21 827.96C411.258 827.96 405.978 826.808 401.37 824.504C396.762 822.2 393.146 819.064 390.522 815.096C387.898 811.128 386.586 806.584 386.586 801.464C386.586 796.344 387.898 791.8 390.522 787.832C393.146 783.864 396.762 780.728 401.37 778.424C405.978 776.12 411.258 774.968 417.21 774.968C423.098 774.968 428.314 776.12 432.858 778.424C437.466 780.728 441.082 783.864 443.706 787.832C446.33 791.8 447.642 796.344 447.642 801.464C447.642 806.584 446.33 811.128 443.706 815.096C441.082 819.064 437.466 822.2 432.858 824.504C428.314 826.808 423.098 827.96 417.21 827.96ZM417.21 814.712C419.962 814.712 422.458 814.136 424.698 812.984C427.002 811.832 428.794 810.264 430.074 808.28C431.418 806.296 432.058 804.024 431.994 801.464C432.058 798.904 431.418 796.6 430.074 794.552C428.794 792.504 427.002 790.936 424.698 789.848C422.458 788.696 419.962 788.12 417.21 788.12C414.394 788.12 411.802 788.696 409.434 789.848C407.13 791 405.338 792.568 404.058 794.552C402.778 796.536 402.138 798.84 402.138 801.464C402.138 804.024 402.778 806.296 404.058 808.28C405.338 810.264 407.13 811.832 409.434 812.984C411.802 814.136 414.394 814.712 417.21 814.712ZM486.258 827.864C481.202 827.864 476.786 826.744 473.01 824.504C469.234 822.264 466.258 819.16 464.082 815.192C461.97 811.16 460.914 806.584 460.914 801.464C460.914 796.28 462.002 791.704 464.178 787.736C466.354 783.768 469.362 780.664 473.202 778.424C477.106 776.12 481.586 774.968 486.642 774.968C489.522 774.968 492.178 775.352 494.61 776.12C497.042 776.824 499.154 777.816 500.946 779.096C502.802 780.376 504.306 781.784 505.458 783.32C506.674 784.856 507.474 786.456 507.858 788.12H504.498V776.024H519.666V827H504.21V813.944L507.474 814.424C507.09 816.088 506.29 817.72 505.074 819.32C503.858 820.92 502.29 822.36 500.37 823.64C498.45 824.92 496.274 825.944 493.842 826.712C491.474 827.48 488.946 827.864 486.258 827.864ZM490.386 814.904C493.266 814.904 495.762 814.36 497.874 813.272C500.05 812.184 501.714 810.648 502.866 808.664C504.082 806.616 504.69 804.216 504.69 801.464C504.69 798.776 504.082 796.44 502.866 794.456C501.714 792.408 500.05 790.808 497.874 789.656C495.762 788.504 493.266 787.928 490.386 787.928C487.506 787.928 485.01 788.504 482.898 789.656C480.786 790.808 479.122 792.408 477.906 794.456C476.754 796.44 476.178 798.776 476.178 801.464C476.178 804.216 476.754 806.616 477.906 808.664C479.122 810.648 480.786 812.184 482.898 813.272C485.01 814.36 487.506 814.904 490.386 814.904ZM562.754 828.056C557.762 828.056 553.378 826.936 549.602 824.696C545.826 822.392 542.882 819.256 540.77 815.288C538.658 811.256 537.602 806.68 537.602 801.56C537.602 796.44 538.69 791.896 540.866 787.928C543.042 783.896 546.05 780.728 549.89 778.424C553.794 776.12 558.274 774.968 563.33 774.968C566.146 774.968 568.77 775.352 571.202 776.12C573.634 776.824 575.81 777.784 577.73 779C579.714 780.216 581.282 781.624 582.434 783.224C583.65 784.76 584.354 786.328 584.546 787.928L580.898 788.792V755.96H596.354V827H582.05L581.186 814.616L584.258 815.384C584.066 816.984 583.362 818.552 582.146 820.088C580.93 821.56 579.33 822.904 577.346 824.12C575.426 825.272 573.218 826.232 570.722 827C568.226 827.704 565.57 828.056 562.754 828.056ZM567.074 815.096C569.954 815.096 572.45 814.52 574.562 813.368C576.738 812.216 578.402 810.648 579.554 808.664C580.706 806.616 581.282 804.248 581.282 801.56C581.282 798.808 580.706 796.44 579.554 794.456C578.402 792.408 576.738 790.84 574.562 789.752C572.45 788.6 569.954 788.024 567.074 788.024C564.194 788.024 561.698 788.6 559.586 789.752C557.474 790.84 555.81 792.408 554.594 794.456C553.442 796.44 552.866 798.808 552.866 801.56C552.866 804.248 553.442 806.616 554.594 808.664C555.81 810.648 557.474 812.216 559.586 813.368C561.698 814.52 564.194 815.096 567.074 815.096ZM676.847 827.96C671.215 827.96 666.159 827.16 661.679 825.56C657.263 823.96 653.711 821.688 651.023 818.744L660.335 810.488C662.511 812.536 665.103 814.104 668.111 815.192C671.119 816.28 674.287 816.824 677.615 816.824C678.639 816.824 679.631 816.728 680.591 816.536C681.615 816.344 682.479 816.088 683.183 815.768C683.951 815.384 684.559 814.936 685.007 814.424C685.455 813.912 685.679 813.272 685.679 812.504C685.679 811.288 684.911 810.328 683.375 809.624C682.287 809.24 680.911 808.856 679.247 808.472C677.583 808.088 675.695 807.672 673.583 807.224C670.063 806.584 666.959 805.816 664.271 804.92C661.647 803.96 659.439 802.776 657.647 801.368C656.111 800.024 654.927 798.488 654.095 796.76C653.263 795.032 652.847 793.016 652.847 790.712C652.847 788.344 653.455 786.2 654.671 784.28C655.887 782.296 657.583 780.632 659.759 779.288C661.935 777.88 664.431 776.824 667.247 776.12C670.063 775.352 673.007 774.968 676.079 774.968C679.151 774.968 682.159 775.288 685.103 775.928C688.047 776.504 690.831 777.368 693.455 778.52C696.079 779.608 698.383 781.016 700.367 782.744L692.495 791.96C691.087 790.872 689.455 789.88 687.599 788.984C685.743 788.088 683.759 787.384 681.647 786.872C679.599 786.296 677.583 786.008 675.599 786.008C674.511 786.008 673.455 786.072 672.431 786.2C671.471 786.328 670.639 786.584 669.935 786.968C669.231 787.288 668.655 787.704 668.207 788.216C667.823 788.664 667.631 789.24 667.631 789.944C667.631 790.52 667.791 791.064 668.111 791.576C668.431 792.088 668.911 792.504 669.551 792.824C670.447 793.4 671.759 793.912 673.487 794.36C675.279 794.808 677.519 795.288 680.207 795.8C684.111 796.632 687.439 797.592 690.191 798.68C692.943 799.704 695.151 800.952 696.815 802.424C698.159 803.448 699.151 804.728 699.791 806.264C700.431 807.736 700.751 809.368 700.751 811.16C700.751 814.424 699.695 817.336 697.583 819.896C695.535 822.392 692.719 824.376 689.135 825.848C685.615 827.256 681.519 827.96 676.847 827.96ZM718.299 848.12V776.024H732.891L733.467 787.448L730.587 786.584C731.035 784.536 732.251 782.648 734.235 780.92C736.219 779.192 738.715 777.784 741.723 776.696C744.795 775.608 748.059 775.064 751.515 775.064C756.507 775.064 760.891 776.216 764.667 778.52C768.443 780.76 771.387 783.864 773.499 787.832C775.675 791.736 776.763 796.28 776.763 801.464C776.763 806.584 775.675 811.128 773.499 815.096C771.387 819.064 768.411 822.2 764.571 824.504C760.731 826.744 756.315 827.864 751.323 827.864C747.867 827.864 744.635 827.288 741.627 826.136C738.619 824.984 736.091 823.48 734.043 821.624C732.059 819.768 730.779 817.816 730.203 815.768L733.755 814.424V848.12H718.299ZM747.579 814.904C750.459 814.904 752.955 814.36 755.067 813.272C757.179 812.12 758.811 810.552 759.963 808.568C761.179 806.584 761.787 804.216 761.787 801.464C761.787 798.776 761.179 796.44 759.963 794.456C758.811 792.408 757.179 790.84 755.067 789.752C753.019 788.6 750.523 788.024 747.579 788.024C744.699 788.024 742.171 788.568 739.995 789.656C737.883 790.744 736.219 792.312 735.003 794.36C733.851 796.408 733.275 798.776 733.275 801.464C733.275 804.216 733.851 806.584 735.003 808.568C736.219 810.552 737.883 812.12 739.995 813.272C742.171 814.36 744.699 814.904 747.579 814.904ZM795.83 827V755.96H811.19V827H795.83ZM836.255 827V776.024H851.711V827H836.255ZM843.935 765.56C841.055 765.56 838.815 764.888 837.215 763.544C835.615 762.136 834.815 760.152 834.815 757.592C834.815 755.288 835.615 753.4 837.215 751.928C838.879 750.456 841.119 749.72 843.935 749.72C846.815 749.72 849.055 750.424 850.655 751.832C852.255 753.176 853.055 755.096 853.055 757.592C853.055 759.96 852.223 761.88 850.559 763.352C848.959 764.824 846.751 765.56 843.935 765.56ZM881.541 827V762.008H896.901V827H881.541ZM870.213 789.464V776.024H909.861V789.464H870.213ZM950.035 827.96C944.403 827.96 939.347 827.16 934.867 825.56C930.451 823.96 926.899 821.688 924.211 818.744L933.523 810.488C935.699 812.536 938.291 814.104 941.299 815.192C944.307 816.28 947.475 816.824 950.803 816.824C951.827 816.824 952.819 816.728 953.779 816.536C954.803 816.344 955.667 816.088 956.371 815.768C957.139 815.384 957.747 814.936 958.195 814.424C958.643 813.912 958.867 813.272 958.867 812.504C958.867 811.288 958.099 810.328 956.563 809.624C955.475 809.24 954.099 808.856 952.435 808.472C950.771 808.088 948.883 807.672 946.771 807.224C943.251 806.584 940.147 805.816 937.459 804.92C934.835 803.96 932.627 802.776 930.835 801.368C929.299 800.024 928.115 798.488 927.283 796.76C926.451 795.032 926.035 793.016 926.035 790.712C926.035 788.344 926.643 786.2 927.859 784.28C929.075 782.296 930.771 780.632 932.947 779.288C935.123 777.88 937.619 776.824 940.435 776.12C943.251 775.352 946.195 774.968 949.267 774.968C952.339 774.968 955.347 775.288 958.291 775.928C961.235 776.504 964.019 777.368 966.643 778.52C969.267 779.608 971.571 781.016 973.555 782.744L965.683 791.96C964.275 790.872 962.643 789.88 960.787 788.984C958.931 788.088 956.947 787.384 954.835 786.872C952.787 786.296 950.771 786.008 948.787 786.008C947.699 786.008 946.643 786.072 945.619 786.2C944.659 786.328 943.827 786.584 943.123 786.968C942.419 787.288 941.843 787.704 941.395 788.216C941.011 788.664 940.819 789.24 940.819 789.944C940.819 790.52 940.979 791.064 941.299 791.576C941.619 792.088 942.099 792.504 942.739 792.824C943.635 793.4 944.947 793.912 946.675 794.36C948.467 794.808 950.707 795.288 953.395 795.8C957.299 796.632 960.627 797.592 963.379 798.68C966.131 799.704 968.339 800.952 970.003 802.424C971.347 803.448 972.339 804.728 972.979 806.264C973.619 807.736 973.939 809.368 973.939 811.16C973.939 814.424 972.883 817.336 970.771 819.896C968.723 822.392 965.907 824.376 962.323 825.848C958.803 827.256 954.707 827.96 950.035 827.96ZM1030.88 827V776.024H1046.34V827H1030.88ZM1038.56 765.56C1035.68 765.56 1033.44 764.888 1031.84 763.544C1030.24 762.136 1029.44 760.152 1029.44 757.592C1029.44 755.288 1030.24 753.4 1031.84 751.928C1033.5 750.456 1035.74 749.72 1038.56 749.72C1041.44 749.72 1043.68 750.424 1045.28 751.832C1046.88 753.176 1047.68 755.096 1047.68 757.592C1047.68 759.96 1046.85 761.88 1045.18 763.352C1043.58 764.824 1041.38 765.56 1038.56 765.56ZM1071.17 827V776.024H1085.77L1086.25 787.928L1082.6 788.984C1083.43 786.488 1084.84 784.184 1086.82 782.072C1088.87 779.96 1091.33 778.264 1094.21 776.984C1097.16 775.64 1100.33 774.968 1103.72 774.968C1108.07 774.968 1111.75 775.832 1114.76 777.56C1117.77 779.288 1120.04 781.752 1121.57 784.952C1123.11 788.088 1123.88 791.832 1123.88 796.184V827H1108.42V798.392C1108.42 796.152 1108.01 794.264 1107.17 792.728C1106.41 791.192 1105.22 790.008 1103.62 789.176C1102.09 788.344 1100.29 787.928 1098.25 787.928C1096.45 787.928 1094.82 788.248 1093.35 788.888C1091.94 789.464 1090.73 790.264 1089.7 791.288C1088.68 792.248 1087.88 793.336 1087.3 794.552C1086.79 795.768 1086.53 797.016 1086.53 798.296V827H1078.95C1076.84 827 1075.14 827 1073.86 827C1072.58 827 1071.69 827 1071.17 827ZM1191.01 827V762.008H1206.37V827H1191.01ZM1179.68 789.464V776.024H1219.33V789.464H1179.68ZM1248.12 827L1230.36 776.024H1246.59L1256.67 809.624L1254.65 809.432L1266.17 782.84H1276.06L1288.35 809.432L1286.33 809.624L1296.41 776.024H1312.73L1294.4 827H1282.78L1269.53 796.28L1273.08 796.184L1259.64 827H1248.12ZM1352.18 827.96C1346.23 827.96 1340.95 826.808 1336.34 824.504C1331.73 822.2 1328.11 819.064 1325.49 815.096C1322.87 811.128 1321.55 806.584 1321.55 801.464C1321.55 796.344 1322.87 791.8 1325.49 787.832C1328.11 783.864 1331.73 780.728 1336.34 778.424C1340.95 776.12 1346.23 774.968 1352.18 774.968C1358.07 774.968 1363.28 776.12 1367.83 778.424C1372.43 780.728 1376.05 783.864 1378.67 787.832C1381.3 791.8 1382.61 796.344 1382.61 801.464C1382.61 806.584 1381.3 811.128 1378.67 815.096C1376.05 819.064 1372.43 822.2 1367.83 824.504C1363.28 826.808 1358.07 827.96 1352.18 827.96ZM1352.18 814.712C1354.93 814.712 1357.43 814.136 1359.67 812.984C1361.97 811.832 1363.76 810.264 1365.04 808.28C1366.39 806.296 1367.03 804.024 1366.96 801.464C1367.03 798.904 1366.39 796.6 1365.04 794.552C1363.76 792.504 1361.97 790.936 1359.67 789.848C1357.43 788.696 1354.93 788.12 1352.18 788.12C1349.36 788.12 1346.77 788.696 1344.4 789.848C1342.1 791 1340.31 792.568 1339.03 794.552C1337.75 796.536 1337.11 798.84 1337.11 801.464C1337.11 804.024 1337.75 806.296 1339.03 808.28C1340.31 810.264 1342.1 811.832 1344.4 812.984C1346.77 814.136 1349.36 814.712 1352.18 814.712Z" fill="white"/>
<g id="no">
<rect id="Rectangle 3" x="293" y="918.033" width="369" height="72.9669" rx="35" fill="#DC4B4B"/>
<path id="no_2" d="M415.095 897V849.64H425.335V897H415.095ZM457.676 897.64C453.537 897.64 449.91 896.893 446.796 895.4C443.724 893.864 441.334 891.795 439.628 889.192C437.921 886.547 437.068 883.539 437.068 880.168C437.068 877.48 437.558 875.048 438.54 872.872C439.521 870.696 440.886 868.819 442.636 867.24C444.385 865.661 446.433 864.445 448.78 863.592C451.126 862.739 453.665 862.312 456.396 862.312C459.041 862.312 461.473 862.739 463.692 863.592C465.91 864.403 467.83 865.576 469.452 867.112C471.116 868.648 472.396 870.461 473.292 872.552C474.188 874.643 474.593 876.947 474.508 879.464L474.444 882.344H443.788L442.316 876.392H466.124L465.036 877.672V876.392C464.908 875.325 464.438 874.365 463.628 873.512C462.86 872.659 461.857 871.997 460.62 871.528C459.382 871.016 458.017 870.76 456.524 870.76C454.604 870.76 452.897 871.08 451.404 871.72C449.91 872.317 448.737 873.256 447.884 874.536C447.073 875.816 446.668 877.437 446.668 879.4C446.668 881.277 447.158 882.92 448.14 884.328C449.164 885.736 450.593 886.845 452.428 887.656C454.305 888.467 456.502 888.872 459.02 888.872C461.196 888.872 463.009 888.616 464.46 888.104C465.953 887.549 467.297 886.867 468.492 886.056L473.1 892.712C471.692 893.779 470.134 894.696 468.428 895.464C466.764 896.189 465.014 896.723 463.18 897.064C461.388 897.448 459.553 897.64 457.676 897.64ZM489.396 897V862.44C489.396 859.923 489.93 857.704 490.996 855.784C492.106 853.821 493.642 852.285 495.604 851.176C497.567 850.067 499.85 849.512 502.452 849.512C504.458 849.512 506.207 849.768 507.7 850.28C509.236 850.792 510.538 851.432 511.604 852.2L508.66 859.752C508.063 859.411 507.359 859.112 506.548 858.856C505.78 858.557 505.012 858.408 504.244 858.408C503.135 858.408 502.218 858.6 501.492 858.984C500.81 859.325 500.298 859.837 499.956 860.52C499.615 861.203 499.444 862.013 499.444 862.952V897H494.452C493.386 897 492.426 897 491.572 897C490.719 897 489.994 897 489.396 897ZM483.444 872.68V864.232H509.236V872.68H483.444ZM524.548 897V853.672H534.788V897H524.548ZM516.996 871.976V863.016H543.428V871.976H516.996Z" fill="white"/>
</g>
<g id="yes">
<g id="yes_2">
<rect id="Rectangle 3_2" x="815" y="918.033" width="369" height="72.9669" rx="35" fill="#6A94E0"/>
<path id="yes_3" d="M905.845 897V863.016H915.573L916.021 874.728L913.589 873.512C914.144 871.421 915.104 869.544 916.469 867.88C917.877 866.173 919.477 864.829 921.269 863.848C923.104 862.824 925.045 862.312 927.093 862.312C928.203 862.312 929.248 862.419 930.229 862.632C931.253 862.845 932.128 863.123 932.853 863.464L930.037 874.664C929.397 874.195 928.523 873.832 927.413 873.576C926.347 873.32 925.259 873.192 924.149 873.192C922.912 873.192 921.781 873.405 920.757 873.832C919.776 874.216 918.944 874.771 918.261 875.496C917.579 876.179 917.045 876.968 916.661 877.864C916.32 878.76 916.149 879.72 916.149 880.744V897H905.845ZM944.857 897V863.016H955.161V897H944.857ZM949.977 856.04C948.057 856.04 946.564 855.592 945.497 854.696C944.431 853.757 943.897 852.435 943.897 850.728C943.897 849.192 944.431 847.933 945.497 846.952C946.607 845.971 948.1 845.48 949.977 845.48C951.897 845.48 953.391 845.949 954.457 846.888C955.524 847.784 956.057 849.064 956.057 850.728C956.057 852.307 955.503 853.587 954.393 854.568C953.327 855.549 951.855 856.04 949.977 856.04ZM988.808 911.72C985.438 911.72 982.302 911.293 979.4 910.44C976.542 909.629 974.195 908.605 972.36 907.368L975.88 900.072C976.819 900.584 977.864 901.075 979.016 901.544C980.211 902.013 981.512 902.397 982.92 902.696C984.328 903.037 985.864 903.208 987.528 903.208C989.704 903.208 991.539 902.845 993.032 902.12C994.568 901.395 995.72 900.285 996.488 898.792C997.299 897.341 997.704 895.549 997.704 893.416V888.744L999.688 889.064C999.347 890.429 998.494 891.688 997.128 892.84C995.763 893.992 994.056 894.931 992.008 895.656C989.96 896.381 987.784 896.744 985.48 896.744C982.11 896.744 979.144 896.04 976.584 894.632C974.024 893.181 971.998 891.197 970.504 888.68C969.054 886.12 968.328 883.176 968.328 879.848C968.328 876.435 969.075 873.427 970.568 870.824C972.062 868.179 974.11 866.109 976.712 864.616C979.315 863.08 982.323 862.312 985.736 862.312C986.888 862.312 988.083 862.461 989.32 862.76C990.6 863.016 991.838 863.379 993.032 863.848C994.27 864.275 995.379 864.829 996.36 865.512C997.384 866.152 998.216 866.877 998.856 867.688C999.539 868.456 999.923 869.288 1000.01 870.184L997.896 870.696L998.344 863.016H1008.01V893.224C1008.01 896.253 1007.52 898.899 1006.54 901.16C1005.6 903.464 1004.27 905.405 1002.57 906.984C1000.86 908.563 998.814 909.736 996.424 910.504C994.078 911.315 991.539 911.72 988.808 911.72ZM988.424 888.808C990.344 888.808 992.03 888.445 993.48 887.72C994.931 886.952 996.04 885.907 996.808 884.584C997.619 883.261 998.024 881.704 998.024 879.912C998.024 878.12 997.619 876.563 996.808 875.24C996.04 873.875 994.931 872.829 993.48 872.104C992.03 871.336 990.344 870.952 988.424 870.952C986.419 870.952 984.67 871.336 983.176 872.104C981.683 872.829 980.531 873.875 979.72 875.24C978.91 876.563 978.504 878.12 978.504 879.912C978.504 881.704 978.91 883.261 979.72 884.584C980.531 885.907 981.683 886.952 983.176 887.72C984.67 888.445 986.419 888.808 988.424 888.808ZM1023.66 897V849.64H1033.71V870.952L1031.27 871.784C1031.7 870.077 1032.6 868.52 1033.96 867.112C1035.37 865.661 1037.08 864.509 1039.08 863.656C1041.09 862.76 1043.22 862.312 1045.48 862.312C1048.38 862.312 1050.82 862.909 1052.78 864.104C1054.78 865.256 1056.28 866.899 1057.26 869.032C1058.28 871.123 1058.79 873.576 1058.79 876.392V897H1048.49V877.992C1048.49 876.456 1048.21 875.176 1047.66 874.152C1047.15 873.085 1046.36 872.275 1045.29 871.72C1044.27 871.165 1043.07 870.909 1041.71 870.952C1040.6 870.952 1039.55 871.144 1038.57 871.528C1037.63 871.869 1036.8 872.381 1036.07 873.064C1035.39 873.704 1034.86 874.451 1034.47 875.304C1034.09 876.157 1033.9 877.075 1033.9 878.056V897H1028.84C1027.43 897 1026.3 897 1025.45 897C1024.6 897 1024 897 1023.66 897ZM1077.8 897V853.672H1088.04V897H1077.8ZM1070.25 871.976V863.016H1096.68V871.976H1070.25Z" fill="white"/>
</g>
</g>
</g>
<defs>
<filter id="filter0_d_110_33" x="217" y="378" width="108" height="176" filterUnits="userSpaceOnUse" color-interpolation-filters="sRGB">
<feFlood flood-opacity="0" result="BackgroundImageFix"/>
<feColorMatrix in="SourceAlpha" type="matrix" values="0 0 0 0 0 0 0 0 0 0 0 0 0 0 0 0 0 0 127 0" result="hardAlpha"/>
<feOffset dy="4"/>
<feGaussianBlur stdDeviation="2"/>
<feComposite in2="hardAlpha" operator="out"/>
<feColorMatrix type="matrix" values="0 0 0 0 0 0 0 0 0 0 0 0 0 0 0 0 0 0 0.25 0"/>
<feBlend mode="normal" in2="BackgroundImageFix" result="effect1_dropShadow_110_33"/>
<feBlend mode="normal" in="SourceGraphic" in2="effect1_dropShadow_110_33" result="shape"/>
</filter>
<filter id="filter1_d_110_33" x="451" y="378" width="109" height="176" filterUnits="userSpaceOnUse" color-interpolation-filters="sRGB">
<feFlood flood-opacity="0" result="BackgroundImageFix"/>
<feColorMatrix in="SourceAlpha" type="matrix" values="0 0 0 0 0 0 0 0 0 0 0 0 0 0 0 0 0 0 127 0" result="hardAlpha"/>
<feOffset dy="4"/>
<feGaussianBlur stdDeviation="2"/>
<feComposite in2="hardAlpha" operator="out"/>
<feColorMatrix type="matrix" values="0 0 0 0 0 0 0 0 0 0 0 0 0 0 0 0 0 0 0.25 0"/>
<feBlend mode="normal" in2="BackgroundImageFix" result="effect1_dropShadow_110_33"/>
<feBlend mode="normal" in="SourceGraphic" in2="effect1_dropShadow_110_33" result="shape"/>
</filter>
<filter id="filter2_d_110_33" x="334" y="378" width="109" height="176" filterUnits="userSpaceOnUse" color-interpolation-filters="sRGB">
<feFlood flood-opacity="0" result="BackgroundImageFix"/>
<feColorMatrix in="SourceAlpha" type="matrix" values="0 0 0 0 0 0 0 0 0 0 0 0 0 0 0 0 0 0 127 0" result="hardAlpha"/>
<feOffset dy="4"/>
<feGaussianBlur stdDeviation="2"/>
<feComposite in2="hardAlpha" operator="out"/>
<feColorMatrix type="matrix" values="0 0 0 0 0 0 0 0 0 0 0 0 0 0 0 0 0 0 0.25 0"/>
<feBlend mode="normal" in2="BackgroundImageFix" result="effect1_dropShadow_110_33"/>
<feBlend mode="normal" in="SourceGraphic" in2="effect1_dropShadow_110_33" result="shape"/>
</filter>
<filter id="filter3_d_110_33" x="569" y="378" width="108" height="176" filterUnits="userSpaceOnUse" color-interpolation-filters="sRGB">
<feFlood flood-opacity="0" result="BackgroundImageFix"/>
<feColorMatrix in="SourceAlpha" type="matrix" values="0 0 0 0 0 0 0 0 0 0 0 0 0 0 0 0 0 0 127 0" result="hardAlpha"/>
<feOffset dy="4"/>
<feGaussianBlur stdDeviation="2"/>
<feComposite in2="hardAlpha" operator="out"/>
<feColorMatrix type="matrix" values="0 0 0 0 0 0 0 0 0 0 0 0 0 0 0 0 0 0 0.25 0"/>
<feBlend mode="normal" in2="BackgroundImageFix" result="effect1_dropShadow_110_33"/>
<feBlend mode="normal" in="SourceGraphic" in2="effect1_dropShadow_110_33" result="shape"/>
</filter>
<filter id="filter4_d_110_33" x="111" y="401" width="126" height="206" filterUnits="userSpaceOnUse" color-interpolation-filters="sRGB">
<feFlood flood-opacity="0" result="BackgroundImageFix"/>
<feColorMatrix in="SourceAlpha" type="matrix" values="0 0 0 0 0 0 0 0 0 0 0 0 0 0 0 0 0 0 127 0" result="hardAlpha"/>
<feOffset dy="4"/>
<feGaussianBlur stdDeviation="2"/>
<feComposite in2="hardAlpha" operator="out"/>
<feColorMatrix type="matrix" values="0 0 0 0 0 0 0 0 0 0 0 0 0 0 0 0 0 0 0.25 0"/>
<feBlend mode="normal" in2="BackgroundImageFix" result="effect1_dropShadow_110_33"/>
<feBlend mode="normal" in="SourceGraphic" in2="effect1_dropShadow_110_33" result="shape"/>
</filter>
<filter id="filter5_d_110_33" x="387" y="401" width="126" height="206" filterUnits="userSpaceOnUse" color-interpolation-filters="sRGB">
<feFlood flood-opacity="0" result="BackgroundImageFix"/>
<feColorMatrix in="SourceAlpha" type="matrix" values="0 0 0 0 0 0 0 0 0 0 0 0 0 0 0 0 0 0 127 0" result="hardAlpha"/>
<feOffset dy="4"/>
<feGaussianBlur stdDeviation="2"/>
<feComposite in2="hardAlpha" operator="out"/>
<feColorMatrix type="matrix" values="0 0 0 0 0 0 0 0 0 0 0 0 0 0 0 0 0 0 0.25 0"/>
<feBlend mode="normal" in2="BackgroundImageFix" result="effect1_dropShadow_110_33"/>
<feBlend mode="normal" in="SourceGraphic" in2="effect1_dropShadow_110_33" result="shape"/>
</filter>
<filter id="filter6_d_110_33" x="249" y="401" width="126" height="206" filterUnits="userSpaceOnUse" color-interpolation-filters="sRGB">
<feFlood flood-opacity="0" result="BackgroundImageFix"/>
<feColorMatrix in="SourceAlpha" type="matrix" values="0 0 0 0 0 0 0 0 0 0 0 0 0 0 0 0 0 0 127 0" result="hardAlpha"/>
<feOffset dy="4"/>
<feGaussianBlur stdDeviation="2"/>
<feComposite in2="hardAlpha" operator="out"/>
<feColorMatrix type="matrix" values="0 0 0 0 0 0 0 0 0 0 0 0 0 0 0 0 0 0 0.25 0"/>
<feBlend mode="normal" in2="BackgroundImageFix" result="effect1_dropShadow_110_33"/>
<feBlend mode="normal" in="SourceGraphic" in2="effect1_dropShadow_110_33" result="shape"/>
</filter>
<filter id="filter7_d_110_33" x="307" y="447" width="126" height="206" filterUnits="userSpaceOnUse" color-interpolation-filters="sRGB">
<feFlood flood-opacity="0" result="BackgroundImageFix"/>
<feColorMatrix in="SourceAlpha" type="matrix" values="0 0 0 0 0 0 0 0 0 0 0 0 0 0 0 0 0 0 127 0" result="hardAlpha"/>
<feOffset dy="4"/>
<feGaussianBlur stdDeviation="2"/>
<feComposite in2="hardAlpha" operator="out"/>
<feColorMatrix type="matrix" values="0 0 0 0 0 0 0 0 0 0 0 0 0 0 0 0 0 0 0.25 0"/>
<feBlend mode="normal" in2="BackgroundImageFix" result="effect1_dropShadow_110_33"/>
<feBlend mode="normal" in="SourceGraphic" in2="effect1_dropShadow_110_33" result="shape"/>
</filter>
<filter id="filter8_d_110_33" x="525" y="401" width="126" height="206" filterUnits="userSpaceOnUse" color-interpolation-filters="sRGB">
<feFlood flood-opacity="0" result="BackgroundImageFix"/>
<feColorMatrix in="SourceAlpha" type="matrix" values="0 0 0 0 0 0 0 0 0 0 0 0 0 0 0 0 0 0 127 0" result="hardAlpha"/>
<feOffset dy="4"/>
<feGaussianBlur stdDeviation="2"/>
<feComposite in2="hardAlpha" operator="out"/>
<feColorMatrix type="matrix" values="0 0 0 0 0 0 0 0 0 0 0 0 0 0 0 0 0 0 0.25 0"/>
<feBlend mode="normal" in2="BackgroundImageFix" result="effect1_dropShadow_110_33"/>
<feBlend mode="normal" in="SourceGraphic" in2="effect1_dropShadow_110_33" result="shape"/>
</filter>
<filter id="filter9_d_110_33" x="169" y="447" width="126" height="206" filterUnits="userSpaceOnUse" color-interpolation-filters="sRGB">
<feFlood flood-opacity="0" result="BackgroundImageFix"/>
<feColorMatrix in="SourceAlpha" type="matrix" values="0 0 0 0 0 0 0 0 0 0 0 0 0 0 0 0 0 0 127 0" result="hardAlpha"/>
<feOffset dy="4"/>
<feGaussianBlur stdDeviation="2"/>
<feComposite in2="hardAlpha" operator="out"/>
<feColorMatrix type="matrix" values="0 0 0 0 0 0 0 0 0 0 0 0 0 0 0 0 0 0 0.25 0"/>
<feBlend mode="normal" in2="BackgroundImageFix" result="effect1_dropShadow_110_33"/>
<feBlend mode="normal" in="SourceGraphic" in2="effect1_dropShadow_110_33" result="shape"/>
</filter>
<filter id="filter10_d_110_33" x="445" y="447" width="126" height="206" filterUnits="userSpaceOnUse" color-interpolation-filters="sRGB">
<feFlood flood-opacity="0" result="BackgroundImageFix"/>
<feColorMatrix in="SourceAlpha" type="matrix" values="0 0 0 0 0 0 0 0 0 0 0 0 0 0 0 0 0 0 127 0" result="hardAlpha"/>
<feOffset dy="4"/>
<feGaussianBlur stdDeviation="2"/>
<feComposite in2="hardAlpha" operator="out"/>
<feColorMatrix type="matrix" values="0 0 0 0 0 0 0 0 0 0 0 0 0 0 0 0 0 0 0.25 0"/>
<feBlend mode="normal" in2="BackgroundImageFix" result="effect1_dropShadow_110_33"/>
<feBlend mode="normal" in="SourceGraphic" in2="effect1_dropShadow_110_33" result="shape"/>
</filter>
<filter id="filter11_d_110_33" x="583" y="447" width="126" height="206" filterUnits="userSpaceOnUse" color-interpolation-filters="sRGB">
<feFlood flood-opacity="0" result="BackgroundImageFix"/>
<feColorMatrix in="SourceAlpha" type="matrix" values="0 0 0 0 0 0 0 0 0 0 0 0 0 0 0 0 0 0 127 0" result="hardAlpha"/>
<feOffset dy="4"/>
<feGaussianBlur stdDeviation="2"/>
<feComposite in2="hardAlpha" operator="out"/>
<feColorMatrix type="matrix" values="0 0 0 0 0 0 0 0 0 0 0 0 0 0 0 0 0 0 0.25 0"/>
<feBlend mode="normal" in2="BackgroundImageFix" result="effect1_dropShadow_110_33"/>
<feBlend mode="normal" in="SourceGraphic" in2="effect1_dropShadow_110_33" result="shape"/>
</filter>
<clipPath id="clip0_110_33">
<rect width="1440" height="1024" fill="white"/>
</clipPath>
</defs>
</svg>
