<svg width="1440" height="1024" viewBox="0 0 1440 1024" fill="none" xmlns="http://www.w3.org/2000/svg">
<g id="run">
<rect width="1440" height="1024" fill="#333148"/>
<path id="part 2" d="M47.096 132.12V60.024H61.688L62.264 71.448L59.384 70.584C59.832 68.536 61.048 66.648 63.032 64.92C65.016 63.192 67.512 61.784 70.52 60.696C73.592 59.608 76.856 59.064 80.312 59.064C85.304 59.064 89.688 60.216 93.464 62.52C97.24 64.76 100.184 67.864 102.296 71.832C104.472 75.736 105.56 80.28 105.56 85.464C105.56 90.584 104.472 95.128 102.296 99.096C100.184 103.064 97.208 106.2 93.368 108.504C89.528 110.744 85.112 111.864 80.12 111.864C76.664 111.864 73.432 111.288 70.424 110.136C67.416 108.984 64.888 107.48 62.84 105.624C60.856 103.768 59.576 101.816 59 99.768L62.552 98.424V132.12H47.096ZM76.376 98.904C79.256 98.904 81.752 98.36 83.864 97.272C85.976 96.12 87.608 94.552 88.76 92.568C89.976 90.584 90.584 88.216 90.584 85.464C90.584 82.776 89.976 80.44 88.76 78.456C87.608 76.408 85.976 74.84 83.864 73.752C81.816 72.6 79.32 72.024 76.376 72.024C73.496 72.024 70.968 72.568 68.792 73.656C66.68 74.744 65.016 76.312 63.8 78.36C62.648 80.408 62.072 82.776 62.072 85.464C62.072 88.216 62.648 90.584 63.8 92.568C65.016 94.552 66.68 96.12 68.792 97.272C70.968 98.36 73.496 98.904 76.376 98.904ZM144.211 111.864C139.155 111.864 134.739 110.744 130.963 108.504C127.187 106.264 124.211 103.16 122.035 99.192C119.923 95.16 118.867 90.584 118.867 85.464C118.867 80.28 119.955 75.704 122.131 71.736C124.307 67.768 127.315 64.664 131.155 62.424C135.059 60.12 139.539 58.968 144.595 58.968C147.475 58.968 150.131 59.352 152.563 60.12C154.995 60.824 157.107 61.816 158.899 63.096C160.755 64.376 162.259 65.784 163.411 67.32C164.627 68.856 165.427 70.456 165.811 72.12H162.451V60.024H177.619V111H162.163V97.944L165.427 98.424C165.043 100.088 164.243 101.72 163.027 103.32C161.811 104.92 160.243 106.36 158.323 107.64C156.403 108.92 154.227 109.944 151.795 110.712C149.427 111.48 146.899 111.864 144.211 111.864ZM148.339 98.904C151.219 98.904 153.715 98.36 155.827 97.272C158.003 96.184 159.667 94.648 160.819 92.664C162.035 90.616 162.643 88.216 162.643 85.464C162.643 82.776 162.035 80.44 160.819 78.456C159.667 76.408 158.003 74.808 155.827 73.656C153.715 72.504 151.219 71.928 148.339 71.928C145.459 71.928 142.963 72.504 140.851 73.656C138.739 74.808 137.075 76.408 135.859 78.456C134.707 80.44 134.131 82.776 134.131 85.464C134.131 88.216 134.707 90.616 135.859 92.664C137.075 94.648 138.739 96.184 140.851 97.272C142.963 98.36 145.459 98.904 148.339 98.904ZM201.315 111V60.024H215.907L216.579 77.592L212.931 75.768C213.763 72.632 215.203 69.816 217.251 67.32C219.363 64.76 221.763 62.744 224.451 61.272C227.203 59.736 230.115 58.968 233.187 58.968C234.851 58.968 236.419 59.128 237.891 59.448C239.427 59.768 240.739 60.184 241.827 60.696L237.603 77.496C236.643 76.792 235.331 76.248 233.667 75.864C232.067 75.48 230.435 75.288 228.771 75.288C226.915 75.288 225.219 75.608 223.683 76.248C222.211 76.824 220.963 77.656 219.939 78.744C218.915 79.768 218.115 80.952 217.539 82.296C217.027 83.64 216.771 85.08 216.771 86.616V111H201.315ZM265.932 111V46.008H281.292V111H265.932ZM254.604 73.464V60.024H294.252V73.464H254.604ZM348.136 111L344.776 102.264L364.552 82.776C366.088 81.304 367.624 79.768 369.16 78.168C370.76 76.504 372.264 74.808 373.672 73.08C375.08 71.352 376.2 69.688 377.032 68.088C377.864 66.424 378.28 64.952 378.28 63.672C378.28 62.328 377.96 61.176 377.32 60.216C376.744 59.192 375.848 58.392 374.632 57.816C373.48 57.24 372.008 56.952 370.216 56.952C368.552 56.952 366.888 57.336 365.224 58.104C363.624 58.808 362.088 59.928 360.616 61.464C359.208 62.936 357.864 64.888 356.584 67.32L344.488 60.6C346.152 57.08 348.328 53.944 351.016 51.192C353.768 48.376 356.904 46.2 360.424 44.664C364.008 43.064 367.848 42.264 371.944 42.264C376.232 42.328 380.04 43.192 383.368 44.856C386.696 46.456 389.32 48.696 391.24 51.576C393.224 54.456 394.216 57.816 394.216 61.656C394.216 63.384 393.928 65.112 393.352 66.84C392.84 68.568 392.104 70.296 391.144 72.024C390.184 73.688 389.032 75.448 387.688 77.304C386.344 79.096 384.84 80.92 383.176 82.776C381.512 84.632 379.72 86.52 377.8 88.44L361.288 104.472L360.136 96.6H397.192V111H348.136Z" fill="white"/>
<g id="Group 4">
<g id="Vector" filter="url(#filter0_d_59_313)">
<path d="M184.246 463.996C189.515 440.672 222.714 440.672 227.983 463.996L236.541 501.874C239.712 515.912 229.05 529.267 214.672 529.267H197.557C183.179 529.267 172.517 515.912 175.688 501.874L184.246 463.996Z" fill="#3B5EC6"/>
<path d="M229.816 413.046C229.816 426.326 219.061 437.092 205.794 437.092C192.527 437.092 181.772 426.326 181.772 413.046C181.772 399.766 192.527 389 205.794 389C219.061 389 229.816 399.766 229.816 413.046Z" fill="#3B5EC6"/>
<path d="M210.599 517.565C210.599 511.013 215.904 505.702 222.45 505.702C228.995 505.702 234.3 511.013 234.3 517.565V545.137C234.3 551.689 228.995 557 222.45 557C215.904 557 210.599 551.689 210.599 545.137V517.565Z" fill="#3B5EC6"/>
<path d="M219.867 471.609C216.517 465.981 218.36 458.7 223.982 455.347C229.605 451.993 236.879 453.837 240.229 459.466L254.328 483.153C257.678 488.781 255.836 496.062 250.213 499.415C244.59 502.769 237.316 500.925 233.966 495.296L219.867 471.609Z" fill="#3B5EC6"/>
<path d="M171.362 459.548C174.635 453.874 181.883 451.93 187.551 455.206C193.219 458.482 195.161 465.737 191.889 471.411L178.116 495.289C174.844 500.963 167.596 502.907 161.927 499.631C156.259 496.355 154.317 489.1 157.59 483.427L171.362 459.548Z" fill="#3B5EC6"/>
<path d="M177.288 517.565C177.288 511.013 182.594 505.702 189.139 505.702C195.684 505.702 200.99 511.013 200.99 517.565V545.137C200.99 551.689 195.684 557 189.139 557C182.594 557 177.288 551.689 177.288 545.137V517.565Z" fill="#3B5EC6"/>
</g>
<g id="Vector_2" filter="url(#filter1_d_59_313)">
<path d="M418.528 463.996C423.85 440.672 457.381 440.672 462.703 463.996L471.346 501.874C474.549 515.912 463.78 529.267 449.259 529.267H431.972C417.451 529.267 406.682 515.912 409.885 501.874L418.528 463.996Z" fill="#3B5EC6"/>
<path d="M464.555 413.046C464.555 426.326 453.692 437.092 440.292 437.092C426.892 437.092 416.03 426.326 416.03 413.046C416.03 399.766 426.892 389 440.292 389C453.692 389 464.555 399.766 464.555 413.046Z" fill="#3B5EC6"/>
<path d="M445.145 517.565C445.145 511.013 450.504 505.702 457.114 505.702C463.725 505.702 469.083 511.013 469.083 517.565V545.137C469.083 551.689 463.725 557 457.114 557C450.504 557 445.145 551.689 445.145 545.137V517.565Z" fill="#3B5EC6"/>
<path d="M454.506 471.609C451.123 465.981 452.983 458.7 458.662 455.347C464.341 451.993 471.688 453.837 475.071 459.466L489.311 483.153C492.695 488.781 490.834 496.062 485.155 499.415C479.476 502.769 472.13 500.925 468.746 495.296L454.506 471.609Z" fill="#3B5EC6"/>
<path d="M405.516 459.548C408.821 453.874 416.142 451.93 421.867 455.206C427.591 458.482 429.553 465.737 426.248 471.411L412.337 495.289C409.032 500.963 401.712 502.907 395.987 499.631C390.262 496.355 388.3 489.1 391.606 483.427L405.516 459.548Z" fill="#3B5EC6"/>
<path d="M411.501 517.565C411.501 511.013 416.86 505.702 423.47 505.702C430.081 505.702 435.44 511.013 435.44 517.565V545.137C435.44 551.689 430.081 557 423.47 557C416.86 557 411.501 551.689 411.501 545.137V517.565Z" fill="#3B5EC6"/>
</g>
<g id="Vector_3" filter="url(#filter2_d_59_313)">
<path d="M301.528 463.996C306.85 440.672 340.381 440.672 345.703 463.996L354.346 501.874C357.549 515.912 346.78 529.267 332.259 529.267H314.972C300.451 529.267 289.682 515.912 292.885 501.874L301.528 463.996Z" fill="#3B5EC6"/>
<path d="M347.555 413.046C347.555 426.326 336.692 437.092 323.292 437.092C309.892 437.092 299.03 426.326 299.03 413.046C299.03 399.766 309.892 389 323.292 389C336.692 389 347.555 399.766 347.555 413.046Z" fill="#3B5EC6"/>
<path d="M328.145 517.565C328.145 511.013 333.504 505.702 340.114 505.702C346.725 505.702 352.083 511.013 352.083 517.565V545.137C352.083 551.689 346.725 557 340.114 557C333.504 557 328.145 551.689 328.145 545.137V517.565Z" fill="#3B5EC6"/>
<path d="M337.506 471.609C334.123 465.981 335.983 458.7 341.662 455.347C347.341 451.993 354.688 453.837 358.071 459.466L372.311 483.153C375.695 488.781 373.834 496.062 368.155 499.415C362.476 502.769 355.13 500.925 351.746 495.296L337.506 471.609Z" fill="#3B5EC6"/>
<path d="M288.516 459.548C291.821 453.874 299.142 451.93 304.867 455.206C310.591 458.482 312.553 465.737 309.248 471.411L295.337 495.289C292.032 500.963 284.712 502.907 278.987 499.631C273.262 496.355 271.3 489.1 274.606 483.427L288.516 459.548Z" fill="#3B5EC6"/>
<path d="M294.501 517.565C294.501 511.013 299.86 505.702 306.47 505.702C313.081 505.702 318.44 511.013 318.44 517.565V545.137C318.44 551.689 313.081 557 306.47 557C299.86 557 294.501 551.689 294.501 545.137V517.565Z" fill="#3B5EC6"/>
</g>
<g id="Vector_4" filter="url(#filter3_d_59_313)">
<path d="M536.246 463.996C541.515 440.672 574.714 440.672 579.983 463.996L588.541 501.874C591.712 515.912 581.05 529.267 566.672 529.267H549.557C535.179 529.267 524.517 515.912 527.688 501.874L536.246 463.996Z" fill="#3B5EC6"/>
<path d="M581.816 413.046C581.816 426.326 571.061 437.092 557.794 437.092C544.527 437.092 533.772 426.326 533.772 413.046C533.772 399.766 544.527 389 557.794 389C571.061 389 581.816 399.766 581.816 413.046Z" fill="#3B5EC6"/>
<path d="M562.599 517.565C562.599 511.013 567.904 505.702 574.45 505.702C580.995 505.702 586.3 511.013 586.3 517.565V545.137C586.3 551.689 580.995 557 574.45 557C567.904 557 562.599 551.689 562.599 545.137V517.565Z" fill="#3B5EC6"/>
<path d="M571.867 471.609C568.517 465.981 570.36 458.7 575.982 455.347C581.605 451.993 588.879 453.837 592.229 459.466L606.328 483.153C609.678 488.781 607.836 496.062 602.213 499.415C596.59 502.769 589.316 500.925 585.966 495.296L571.867 471.609Z" fill="#3B5EC6"/>
<path d="M523.362 459.548C526.635 453.874 533.883 451.93 539.551 455.206C545.219 458.482 547.161 465.737 543.889 471.411L530.116 495.289C526.844 500.963 519.596 502.907 513.927 499.631C508.259 496.355 506.317 489.1 509.59 483.427L523.362 459.548Z" fill="#3B5EC6"/>
<path d="M529.288 517.565C529.288 511.013 534.594 505.702 541.139 505.702C547.684 505.702 552.99 511.013 552.99 517.565V545.137C552.99 551.689 547.684 557 541.139 557C534.594 557 529.288 551.689 529.288 545.137V517.565Z" fill="#3B5EC6"/>
</g>
<g id="Vector_5" filter="url(#filter4_d_59_313)">
<path d="M83.3303 500.388C89.548 472.899 128.722 472.899 134.94 500.388L145.038 545.03C148.78 561.575 136.199 577.315 119.233 577.315H99.0371C82.0712 577.315 69.4901 561.575 73.2324 545.03L83.3303 500.388Z" fill="#6A94E0"/>
<path d="M137.103 440.34C137.103 455.991 124.412 468.679 108.757 468.679C93.102 468.679 80.411 455.991 80.411 440.34C80.411 424.688 93.102 412 108.757 412C124.412 412 137.103 424.688 137.103 440.34Z" fill="#6A94E0"/>
<path d="M114.426 563.523C114.426 555.801 120.687 549.542 128.41 549.542C136.134 549.542 142.395 555.801 142.395 563.523V596.019C142.395 603.741 136.134 610 128.41 610C120.687 610 114.426 603.741 114.426 596.019V563.523Z" fill="#6A94E0"/>
<path d="M125.364 509.361C121.41 502.728 123.584 494.146 130.219 490.194C136.854 486.242 145.437 488.416 149.39 495.049L166.027 522.966C169.98 529.599 167.806 538.18 161.171 542.132C154.537 546.085 145.953 543.911 142 537.278L125.364 509.361Z" fill="#6A94E0"/>
<path d="M68.1276 495.146C71.9892 488.459 80.5418 486.168 87.2303 490.029C93.9188 493.889 96.2104 502.44 92.3488 509.127L76.097 537.269C72.2354 543.956 63.6829 546.248 56.9944 542.387C50.3059 538.526 48.0142 529.975 51.8758 523.289L68.1276 495.146Z" fill="#6A94E0"/>
<path d="M75.1197 563.523C75.1197 555.801 81.3806 549.542 89.1038 549.542C96.827 549.542 103.088 555.801 103.088 563.523V596.019C103.088 603.741 96.827 610 89.1038 610C81.3806 610 75.1197 603.741 75.1197 596.019V563.523Z" fill="#6A94E0"/>
</g>
<g id="Vector_6" filter="url(#filter5_d_59_313)">
<path d="M359.33 500.388C365.548 472.899 404.722 472.899 410.94 500.388L421.038 545.03C424.78 561.575 412.199 577.315 395.233 577.315H375.037C358.071 577.315 345.49 561.575 349.232 545.03L359.33 500.388Z" fill="#6A94E0"/>
<path d="M413.103 440.34C413.103 455.991 400.412 468.679 384.757 468.679C369.102 468.679 356.411 455.991 356.411 440.34C356.411 424.688 369.102 412 384.757 412C400.412 412 413.103 424.688 413.103 440.34Z" fill="#6A94E0"/>
<path d="M390.426 563.523C390.426 555.801 396.687 549.542 404.41 549.542C412.134 549.542 418.395 555.801 418.395 563.523V596.019C418.395 603.741 412.134 610 404.41 610C396.687 610 390.426 603.741 390.426 596.019V563.523Z" fill="#6A94E0"/>
<path d="M401.364 509.361C397.41 502.728 399.584 494.146 406.219 490.194C412.854 486.242 421.437 488.416 425.39 495.049L442.027 522.966C445.98 529.599 443.806 538.18 437.171 542.132C430.537 546.085 421.953 543.911 418 537.278L401.364 509.361Z" fill="#6A94E0"/>
<path d="M344.128 495.146C347.989 488.459 356.542 486.168 363.23 490.029C369.919 493.889 372.21 502.44 368.349 509.127L352.097 537.269C348.235 543.956 339.683 546.248 332.994 542.387C326.306 538.526 324.014 529.975 327.876 523.289L344.128 495.146Z" fill="#6A94E0"/>
<path d="M351.12 563.523C351.12 555.801 357.381 549.542 365.104 549.542C372.827 549.542 379.088 555.801 379.088 563.523V596.019C379.088 603.741 372.827 610 365.104 610C357.381 610 351.12 603.741 351.12 596.019V563.523Z" fill="#6A94E0"/>
</g>
<g id="Vector_7" filter="url(#filter6_d_59_313)">
<path d="M221.33 500.388C227.548 472.899 266.722 472.899 272.94 500.388L283.038 545.03C286.78 561.575 274.199 577.315 257.233 577.315H237.037C220.071 577.315 207.49 561.575 211.232 545.03L221.33 500.388Z" fill="#6A94E0"/>
<path d="M275.103 440.34C275.103 455.991 262.412 468.679 246.757 468.679C231.102 468.679 218.411 455.991 218.411 440.34C218.411 424.688 231.102 412 246.757 412C262.412 412 275.103 424.688 275.103 440.34Z" fill="#6A94E0"/>
<path d="M252.426 563.523C252.426 555.801 258.687 549.542 266.41 549.542C274.134 549.542 280.395 555.801 280.395 563.523V596.019C280.395 603.741 274.134 610 266.41 610C258.687 610 252.426 603.741 252.426 596.019V563.523Z" fill="#6A94E0"/>
<path d="M263.364 509.361C259.41 502.728 261.584 494.146 268.219 490.194C274.854 486.242 283.437 488.416 287.39 495.049L304.027 522.966C307.98 529.599 305.806 538.18 299.171 542.132C292.537 546.085 283.953 543.911 280 537.278L263.364 509.361Z" fill="#6A94E0"/>
<path d="M206.128 495.146C209.989 488.459 218.542 486.168 225.23 490.029C231.919 493.889 234.21 502.44 230.349 509.127L214.097 537.269C210.235 543.956 201.683 546.248 194.994 542.387C188.306 538.526 186.014 529.975 189.876 523.289L206.128 495.146Z" fill="#6A94E0"/>
<path d="M213.12 563.523C213.12 555.801 219.381 549.542 227.104 549.542C234.827 549.542 241.088 555.801 241.088 563.523V596.019C241.088 603.741 234.827 610 227.104 610C219.381 610 213.12 603.741 213.12 596.019V563.523Z" fill="#6A94E0"/>
</g>
<g id="Vector_8" filter="url(#filter7_d_59_313)">
<path d="M279.33 546.388C285.548 518.899 324.722 518.899 330.94 546.388L341.038 591.03C344.78 607.575 332.199 623.315 315.233 623.315H295.037C278.071 623.315 265.49 607.575 269.232 591.03L279.33 546.388Z" fill="#8DBBFB"/>
<path d="M333.103 486.34C333.103 501.991 320.412 514.679 304.757 514.679C289.102 514.679 276.411 501.991 276.411 486.34C276.411 470.688 289.102 458 304.757 458C320.412 458 333.103 470.688 333.103 486.34Z" fill="#8DBBFB"/>
<path d="M310.426 609.523C310.426 601.801 316.687 595.542 324.41 595.542C332.134 595.542 338.395 601.801 338.395 609.523V642.019C338.395 649.741 332.134 656 324.41 656C316.687 656 310.426 649.741 310.426 642.019V609.523Z" fill="#8DBBFB"/>
<path d="M321.364 555.361C317.41 548.728 319.584 540.146 326.219 536.194C332.854 532.242 341.437 534.416 345.39 541.049L362.027 568.966C365.98 575.599 363.806 584.18 357.171 588.132C350.537 592.085 341.953 589.911 338 583.278L321.364 555.361Z" fill="#8DBBFB"/>
<path d="M264.128 541.146C267.989 534.459 276.542 532.168 283.23 536.029C289.919 539.889 292.21 548.44 288.349 555.127L272.097 583.269C268.235 589.956 259.683 592.248 252.994 588.387C246.306 584.526 244.014 575.975 247.876 569.289L264.128 541.146Z" fill="#8DBBFB"/>
<path d="M271.12 609.523C271.12 601.801 277.381 595.542 285.104 595.542C292.827 595.542 299.088 601.801 299.088 609.523V642.019C299.088 649.741 292.827 656 285.104 656C277.381 656 271.12 649.741 271.12 642.019V609.523Z" fill="#8DBBFB"/>
</g>
<g id="Vector_9" filter="url(#filter8_d_59_313)">
<path d="M497.33 500.388C503.548 472.899 542.722 472.899 548.94 500.388L559.038 545.03C562.78 561.575 550.199 577.315 533.233 577.315H513.037C496.071 577.315 483.49 561.575 487.232 545.03L497.33 500.388Z" fill="#6A94E0"/>
<path d="M551.103 440.34C551.103 455.991 538.412 468.679 522.757 468.679C507.102 468.679 494.411 455.991 494.411 440.34C494.411 424.688 507.102 412 522.757 412C538.412 412 551.103 424.688 551.103 440.34Z" fill="#6A94E0"/>
<path d="M528.426 563.523C528.426 555.801 534.687 549.542 542.41 549.542C550.134 549.542 556.395 555.801 556.395 563.523V596.019C556.395 603.741 550.134 610 542.41 610C534.687 610 528.426 603.741 528.426 596.019V563.523Z" fill="#6A94E0"/>
<path d="M539.364 509.361C535.41 502.728 537.584 494.146 544.219 490.194C550.854 486.242 559.437 488.416 563.39 495.049L580.027 522.966C583.98 529.599 581.806 538.18 575.171 542.132C568.537 546.085 559.953 543.911 556 537.278L539.364 509.361Z" fill="#6A94E0"/>
<path d="M482.128 495.146C485.989 488.459 494.542 486.168 501.23 490.029C507.919 493.889 510.21 502.44 506.349 509.127L490.097 537.269C486.235 543.956 477.683 546.248 470.994 542.387C464.306 538.526 462.014 529.975 465.876 523.289L482.128 495.146Z" fill="#6A94E0"/>
<path d="M489.12 563.523C489.12 555.801 495.381 549.542 503.104 549.542C510.827 549.542 517.088 555.801 517.088 563.523V596.019C517.088 603.741 510.827 610 503.104 610C495.381 610 489.12 603.741 489.12 596.019V563.523Z" fill="#6A94E0"/>
</g>
<g id="Vector_10" filter="url(#filter9_d_59_313)">
<path d="M141.33 546.388C147.548 518.899 186.722 518.899 192.94 546.388L203.038 591.03C206.78 607.575 194.199 623.315 177.233 623.315H157.037C140.071 623.315 127.49 607.575 131.232 591.03L141.33 546.388Z" fill="#8DBBFB"/>
<path d="M195.103 486.34C195.103 501.991 182.412 514.679 166.757 514.679C151.102 514.679 138.411 501.991 138.411 486.34C138.411 470.688 151.102 458 166.757 458C182.412 458 195.103 470.688 195.103 486.34Z" fill="#8DBBFB"/>
<path d="M172.426 609.523C172.426 601.801 178.687 595.542 186.41 595.542C194.134 595.542 200.395 601.801 200.395 609.523V642.019C200.395 649.741 194.134 656 186.41 656C178.687 656 172.426 649.741 172.426 642.019V609.523Z" fill="#8DBBFB"/>
<path d="M183.364 555.361C179.41 548.728 181.584 540.146 188.219 536.194C194.854 532.242 203.437 534.416 207.39 541.049L224.027 568.966C227.98 575.599 225.806 584.18 219.171 588.132C212.537 592.085 203.953 589.911 200 583.278L183.364 555.361Z" fill="#8DBBFB"/>
<path d="M126.128 541.146C129.989 534.459 138.542 532.168 145.23 536.029C151.919 539.889 154.21 548.44 150.349 555.127L134.097 583.269C130.235 589.956 121.683 592.248 114.994 588.387C108.306 584.526 106.014 575.975 109.876 569.289L126.128 541.146Z" fill="#8DBBFB"/>
<path d="M133.12 609.523C133.12 601.801 139.381 595.542 147.104 595.542C154.827 595.542 161.088 601.801 161.088 609.523V642.019C161.088 649.741 154.827 656 147.104 656C139.381 656 133.12 649.741 133.12 642.019V609.523Z" fill="#8DBBFB"/>
</g>
<g id="Vector_11" filter="url(#filter10_d_59_313)">
<path d="M417.33 546.388C423.548 518.899 462.722 518.899 468.94 546.388L479.038 591.03C482.78 607.575 470.199 623.315 453.233 623.315H433.037C416.071 623.315 403.49 607.575 407.232 591.03L417.33 546.388Z" fill="#8DBBFB"/>
<path d="M471.103 486.34C471.103 501.991 458.412 514.679 442.757 514.679C427.102 514.679 414.411 501.991 414.411 486.34C414.411 470.688 427.102 458 442.757 458C458.412 458 471.103 470.688 471.103 486.34Z" fill="#8DBBFB"/>
<path d="M448.426 609.523C448.426 601.801 454.687 595.542 462.41 595.542C470.134 595.542 476.395 601.801 476.395 609.523V642.019C476.395 649.741 470.134 656 462.41 656C454.687 656 448.426 649.741 448.426 642.019V609.523Z" fill="#8DBBFB"/>
<path d="M459.364 555.361C455.41 548.728 457.584 540.146 464.219 536.194C470.854 532.242 479.437 534.416 483.39 541.049L500.027 568.966C503.98 575.599 501.806 584.18 495.171 588.132C488.537 592.085 479.953 589.911 476 583.278L459.364 555.361Z" fill="#8DBBFB"/>
<path d="M402.128 541.146C405.989 534.459 414.542 532.168 421.23 536.029C427.919 539.889 430.21 548.44 426.349 555.127L410.097 583.269C406.235 589.956 397.683 592.248 390.994 588.387C384.306 584.526 382.014 575.975 385.876 569.289L402.128 541.146Z" fill="#8DBBFB"/>
<path d="M409.12 609.523C409.12 601.801 415.381 595.542 423.104 595.542C430.827 595.542 437.088 601.801 437.088 609.523V642.019C437.088 649.741 430.827 656 423.104 656C415.381 656 409.12 649.741 409.12 642.019V609.523Z" fill="#8DBBFB"/>
</g>
<g id="Vector_12" filter="url(#filter11_d_59_313)">
<path d="M555.33 546.388C561.548 518.899 600.722 518.899 606.94 546.388L617.038 591.03C620.78 607.575 608.199 623.315 591.233 623.315H571.037C554.071 623.315 541.49 607.575 545.232 591.03L555.33 546.388Z" fill="#8DBBFB"/>
<path d="M609.103 486.34C609.103 501.991 596.412 514.679 580.757 514.679C565.102 514.679 552.411 501.991 552.411 486.34C552.411 470.688 565.102 458 580.757 458C596.412 458 609.103 470.688 609.103 486.34Z" fill="#8DBBFB"/>
<path d="M586.426 609.523C586.426 601.801 592.687 595.542 600.41 595.542C608.134 595.542 614.395 601.801 614.395 609.523V642.019C614.395 649.741 608.134 656 600.41 656C592.687 656 586.426 649.741 586.426 642.019V609.523Z" fill="#8DBBFB"/>
<path d="M597.364 555.361C593.41 548.728 595.584 540.146 602.219 536.194C608.854 532.242 617.437 534.416 621.39 541.049L638.027 568.966C641.98 575.599 639.806 584.18 633.171 588.132C626.537 592.085 617.953 589.911 614 583.278L597.364 555.361Z" fill="#8DBBFB"/>
<path d="M540.128 541.146C543.989 534.459 552.542 532.168 559.23 536.029C565.919 539.889 568.21 548.44 564.349 555.127L548.097 583.269C544.235 589.956 535.683 592.248 528.994 588.387C522.306 584.526 520.014 575.975 523.876 569.289L540.128 541.146Z" fill="#8DBBFB"/>
<path d="M547.12 609.523C547.12 601.801 553.381 595.542 561.104 595.542C568.827 595.542 575.088 601.801 575.088 609.523V642.019C575.088 649.741 568.827 656 561.104 656C553.381 656 547.12 649.741 547.12 642.019V609.523Z" fill="#8DBBFB"/>
</g>
</g>
<path id="Vector 10" d="M1175.5 526L1107.5 598.5L1060.5 500L994.5 526L1018.5 458L928 396L1018.5 372L952 263L1060.5 243.5L1083.5 157.5L1156 243.5L1242 212L1264.5 284.5L1352 296.5L1281 372L1352 444.5L1264.5 473L1272 533.5L1175.5 526Z" fill="#211F2F"/>
<g id="Group 3">
<g id="Vector_13" filter="url(#filter12_d_59_313)">
<path d="M934.246 463.996C939.515 440.672 972.714 440.672 977.983 463.996L986.541 501.874C989.712 515.912 979.05 529.267 964.672 529.267H947.557C933.179 529.267 922.517 515.912 925.688 501.874L934.246 463.996Z" fill="#C63B3B"/>
<path d="M979.816 413.046C979.816 426.326 969.061 437.092 955.794 437.092C942.527 437.092 931.772 426.326 931.772 413.046C931.772 399.766 942.527 389 955.794 389C969.061 389 979.816 399.766 979.816 413.046Z" fill="#C63B3B"/>
<path d="M960.599 517.565C960.599 511.013 965.904 505.702 972.45 505.702C978.995 505.702 984.3 511.013 984.3 517.565V545.137C984.3 551.689 978.995 557 972.45 557C965.904 557 960.599 551.689 960.599 545.137V517.565Z" fill="#C63B3B"/>
<path d="M969.867 471.609C966.517 465.981 968.36 458.7 973.982 455.347C979.605 451.993 986.879 453.837 990.229 459.466L1004.33 483.153C1007.68 488.781 1005.84 496.062 1000.21 499.415C994.59 502.769 987.316 500.925 983.966 495.296L969.867 471.609Z" fill="#C63B3B"/>
<path d="M921.362 459.548C924.635 453.874 931.883 451.93 937.551 455.206C943.219 458.482 945.161 465.737 941.889 471.411L928.116 495.289C924.844 500.963 917.596 502.907 911.927 499.631C906.259 496.355 904.317 489.1 907.59 483.427L921.362 459.548Z" fill="#C63B3B"/>
<path d="M927.288 517.565C927.288 511.013 932.594 505.702 939.139 505.702C945.684 505.702 950.99 511.013 950.99 517.565V545.137C950.99 551.689 945.684 557 939.139 557C932.594 557 927.288 551.689 927.288 545.137V517.565Z" fill="#C63B3B"/>
</g>
<g id="Vector_14" filter="url(#filter13_d_59_313)">
<path d="M1168.53 463.996C1173.85 440.672 1207.38 440.672 1212.7 463.996L1221.35 501.874C1224.55 515.912 1213.78 529.267 1199.26 529.267H1181.97C1167.45 529.267 1156.68 515.912 1159.89 501.874L1168.53 463.996Z" fill="#C63B3B"/>
<path d="M1214.55 413.046C1214.55 426.326 1203.69 437.092 1190.29 437.092C1176.89 437.092 1166.03 426.326 1166.03 413.046C1166.03 399.766 1176.89 389 1190.29 389C1203.69 389 1214.55 399.766 1214.55 413.046Z" fill="#C63B3B"/>
<path d="M1195.14 517.565C1195.14 511.013 1200.5 505.702 1207.11 505.702C1213.72 505.702 1219.08 511.013 1219.08 517.565V545.137C1219.08 551.689 1213.72 557 1207.11 557C1200.5 557 1195.14 551.689 1195.14 545.137V517.565Z" fill="#C63B3B"/>
<path d="M1204.51 471.609C1201.12 465.981 1202.98 458.7 1208.66 455.347C1214.34 451.993 1221.69 453.837 1225.07 459.466L1239.31 483.153C1242.69 488.781 1240.83 496.062 1235.16 499.415C1229.48 502.769 1222.13 500.925 1218.75 495.296L1204.51 471.609Z" fill="#C63B3B"/>
<path d="M1155.52 459.548C1158.82 453.874 1166.14 451.93 1171.87 455.206C1177.59 458.482 1179.55 465.737 1176.25 471.411L1162.34 495.289C1159.03 500.963 1151.71 502.907 1145.99 499.631C1140.26 496.355 1138.3 489.1 1141.61 483.427L1155.52 459.548Z" fill="#C63B3B"/>
<path d="M1161.5 517.565C1161.5 511.013 1166.86 505.702 1173.47 505.702C1180.08 505.702 1185.44 511.013 1185.44 517.565V545.137C1185.44 551.689 1180.08 557 1173.47 557C1166.86 557 1161.5 551.689 1161.5 545.137V517.565Z" fill="#C63B3B"/>
</g>
<g id="Vector_15" filter="url(#filter14_d_59_313)">
<path d="M1051.53 463.996C1056.85 440.672 1090.38 440.672 1095.7 463.996L1104.35 501.874C1107.55 515.912 1096.78 529.267 1082.26 529.267H1064.97C1050.45 529.267 1039.68 515.912 1042.89 501.874L1051.53 463.996Z" fill="#C63B3B"/>
<path d="M1097.55 413.046C1097.55 426.326 1086.69 437.092 1073.29 437.092C1059.89 437.092 1049.03 426.326 1049.03 413.046C1049.03 399.766 1059.89 389 1073.29 389C1086.69 389 1097.55 399.766 1097.55 413.046Z" fill="#C63B3B"/>
<path d="M1078.14 517.565C1078.14 511.013 1083.5 505.702 1090.11 505.702C1096.72 505.702 1102.08 511.013 1102.08 517.565V545.137C1102.08 551.689 1096.72 557 1090.11 557C1083.5 557 1078.14 551.689 1078.14 545.137V517.565Z" fill="#C63B3B"/>
<path d="M1087.51 471.609C1084.12 465.981 1085.98 458.7 1091.66 455.347C1097.34 451.993 1104.69 453.837 1108.07 459.466L1122.31 483.153C1125.69 488.781 1123.83 496.062 1118.16 499.415C1112.48 502.769 1105.13 500.925 1101.75 495.296L1087.51 471.609Z" fill="#C63B3B"/>
<path d="M1038.52 459.548C1041.82 453.874 1049.14 451.93 1054.87 455.206C1060.59 458.482 1062.55 465.737 1059.25 471.411L1045.34 495.289C1042.03 500.963 1034.71 502.907 1028.99 499.631C1023.26 496.355 1021.3 489.1 1024.61 483.427L1038.52 459.548Z" fill="#C63B3B"/>
<path d="M1044.5 517.565C1044.5 511.013 1049.86 505.702 1056.47 505.702C1063.08 505.702 1068.44 511.013 1068.44 517.565V545.137C1068.44 551.689 1063.08 557 1056.47 557C1049.86 557 1044.5 551.689 1044.5 545.137V517.565Z" fill="#C63B3B"/>
</g>
<g id="Vector_16" filter="url(#filter15_d_59_313)">
<path d="M1286.25 463.996C1291.52 440.672 1324.71 440.672 1329.98 463.996L1338.54 501.874C1341.71 515.912 1331.05 529.267 1316.67 529.267H1299.56C1285.18 529.267 1274.52 515.912 1277.69 501.874L1286.25 463.996Z" fill="#C63B3B"/>
<path d="M1331.82 413.046C1331.82 426.326 1321.06 437.092 1307.79 437.092C1294.53 437.092 1283.77 426.326 1283.77 413.046C1283.77 399.766 1294.53 389 1307.79 389C1321.06 389 1331.82 399.766 1331.82 413.046Z" fill="#C63B3B"/>
<path d="M1312.6 517.565C1312.6 511.013 1317.9 505.702 1324.45 505.702C1330.99 505.702 1336.3 511.013 1336.3 517.565V545.137C1336.3 551.689 1330.99 557 1324.45 557C1317.9 557 1312.6 551.689 1312.6 545.137V517.565Z" fill="#C63B3B"/>
<path d="M1321.87 471.609C1318.52 465.981 1320.36 458.7 1325.98 455.347C1331.61 451.993 1338.88 453.837 1342.23 459.466L1356.33 483.153C1359.68 488.781 1357.84 496.062 1352.21 499.415C1346.59 502.769 1339.32 500.925 1335.97 495.296L1321.87 471.609Z" fill="#C63B3B"/>
<path d="M1273.36 459.548C1276.63 453.874 1283.88 451.93 1289.55 455.206C1295.22 458.482 1297.16 465.737 1293.89 471.411L1280.12 495.289C1276.84 500.963 1269.6 502.907 1263.93 499.631C1258.26 496.355 1256.32 489.1 1259.59 483.427L1273.36 459.548Z" fill="#C63B3B"/>
<path d="M1279.29 517.565C1279.29 511.013 1284.59 505.702 1291.14 505.702C1297.68 505.702 1302.99 511.013 1302.99 517.565V545.137C1302.99 551.689 1297.68 557 1291.14 557C1284.59 557 1279.29 551.689 1279.29 545.137V517.565Z" fill="#C63B3B"/>
</g>
<g id="Vector_17" filter="url(#filter16_d_59_313)">
<path d="M833.33 500.388C839.548 472.899 878.722 472.899 884.94 500.388L895.038 545.03C898.78 561.575 886.199 577.315 869.233 577.315H849.037C832.071 577.315 819.49 561.575 823.232 545.03L833.33 500.388Z" fill="#E06A6A"/>
<path d="M887.103 440.34C887.103 455.991 874.412 468.679 858.757 468.679C843.102 468.679 830.411 455.991 830.411 440.34C830.411 424.688 843.102 412 858.757 412C874.412 412 887.103 424.688 887.103 440.34Z" fill="#E06A6A"/>
<path d="M864.426 563.523C864.426 555.801 870.687 549.542 878.41 549.542C886.134 549.542 892.395 555.801 892.395 563.523V596.019C892.395 603.741 886.134 610 878.41 610C870.687 610 864.426 603.741 864.426 596.019V563.523Z" fill="#E06A6A"/>
<path d="M875.364 509.361C871.41 502.728 873.584 494.146 880.219 490.194C886.854 486.242 895.437 488.416 899.39 495.049L916.027 522.966C919.98 529.599 917.806 538.18 911.171 542.132C904.537 546.085 895.953 543.911 892 537.278L875.364 509.361Z" fill="#E06A6A"/>
<path d="M818.128 495.146C821.989 488.459 830.542 486.168 837.23 490.029C843.919 493.889 846.21 502.44 842.349 509.127L826.097 537.269C822.235 543.956 813.683 546.248 806.994 542.387C800.306 538.526 798.014 529.975 801.876 523.289L818.128 495.146Z" fill="#E06A6A"/>
<path d="M825.12 563.523C825.12 555.801 831.381 549.542 839.104 549.542C846.827 549.542 853.088 555.801 853.088 563.523V596.019C853.088 603.741 846.827 610 839.104 610C831.381 610 825.12 603.741 825.12 596.019V563.523Z" fill="#E06A6A"/>
</g>
<g id="Vector_18" filter="url(#filter17_d_59_313)">
<path d="M1109.33 500.388C1115.55 472.899 1154.72 472.899 1160.94 500.388L1171.04 545.03C1174.78 561.575 1162.2 577.315 1145.23 577.315H1125.04C1108.07 577.315 1095.49 561.575 1099.23 545.03L1109.33 500.388Z" fill="#E06A6A"/>
<path d="M1163.1 440.34C1163.1 455.991 1150.41 468.679 1134.76 468.679C1119.1 468.679 1106.41 455.991 1106.41 440.34C1106.41 424.688 1119.1 412 1134.76 412C1150.41 412 1163.1 424.688 1163.1 440.34Z" fill="#E06A6A"/>
<path d="M1140.43 563.523C1140.43 555.801 1146.69 549.542 1154.41 549.542C1162.13 549.542 1168.39 555.801 1168.39 563.523V596.019C1168.39 603.741 1162.13 610 1154.41 610C1146.69 610 1140.43 603.741 1140.43 596.019V563.523Z" fill="#E06A6A"/>
<path d="M1151.36 509.361C1147.41 502.728 1149.58 494.146 1156.22 490.194C1162.85 486.242 1171.44 488.416 1175.39 495.049L1192.03 522.966C1195.98 529.599 1193.81 538.18 1187.17 542.132C1180.54 546.085 1171.95 543.911 1168 537.278L1151.36 509.361Z" fill="#E06A6A"/>
<path d="M1094.13 495.146C1097.99 488.459 1106.54 486.168 1113.23 490.029C1119.92 493.889 1122.21 502.44 1118.35 509.127L1102.1 537.269C1098.24 543.956 1089.68 546.248 1082.99 542.387C1076.31 538.526 1074.01 529.975 1077.88 523.289L1094.13 495.146Z" fill="#E06A6A"/>
<path d="M1101.12 563.523C1101.12 555.801 1107.38 549.542 1115.1 549.542C1122.83 549.542 1129.09 555.801 1129.09 563.523V596.019C1129.09 603.741 1122.83 610 1115.1 610C1107.38 610 1101.12 603.741 1101.12 596.019V563.523Z" fill="#E06A6A"/>
</g>
<g id="Vector_19" filter="url(#filter18_d_59_313)">
<path d="M971.33 500.388C977.548 472.899 1016.72 472.899 1022.94 500.388L1033.04 545.03C1036.78 561.575 1024.2 577.315 1007.23 577.315H987.037C970.071 577.315 957.49 561.575 961.232 545.03L971.33 500.388Z" fill="#E06A6A"/>
<path d="M1025.1 440.34C1025.1 455.991 1012.41 468.679 996.757 468.679C981.102 468.679 968.411 455.991 968.411 440.34C968.411 424.688 981.102 412 996.757 412C1012.41 412 1025.1 424.688 1025.1 440.34Z" fill="#E06A6A"/>
<path d="M1002.43 563.523C1002.43 555.801 1008.69 549.542 1016.41 549.542C1024.13 549.542 1030.39 555.801 1030.39 563.523V596.019C1030.39 603.741 1024.13 610 1016.41 610C1008.69 610 1002.43 603.741 1002.43 596.019V563.523Z" fill="#E06A6A"/>
<path d="M1013.36 509.361C1009.41 502.728 1011.58 494.146 1018.22 490.194C1024.85 486.242 1033.44 488.416 1037.39 495.049L1054.03 522.966C1057.98 529.599 1055.81 538.18 1049.17 542.132C1042.54 546.085 1033.95 543.911 1030 537.278L1013.36 509.361Z" fill="#E06A6A"/>
<path d="M956.128 495.146C959.989 488.459 968.542 486.168 975.23 490.029C981.919 493.889 984.21 502.44 980.349 509.127L964.097 537.269C960.235 543.956 951.683 546.248 944.994 542.387C938.306 538.526 936.014 529.975 939.876 523.289L956.128 495.146Z" fill="#E06A6A"/>
<path d="M963.12 563.523C963.12 555.801 969.381 549.542 977.104 549.542C984.827 549.542 991.088 555.801 991.088 563.523V596.019C991.088 603.741 984.827 610 977.104 610C969.381 610 963.12 603.741 963.12 596.019V563.523Z" fill="#E06A6A"/>
</g>
<g id="Vector_20" filter="url(#filter19_d_59_313)">
<path d="M1029.33 546.388C1035.55 518.899 1074.72 518.899 1080.94 546.388L1091.04 591.03C1094.78 607.575 1082.2 623.315 1065.23 623.315H1045.04C1028.07 623.315 1015.49 607.575 1019.23 591.03L1029.33 546.388Z" fill="#FB8D8D"/>
<path d="M1083.1 486.34C1083.1 501.991 1070.41 514.679 1054.76 514.679C1039.1 514.679 1026.41 501.991 1026.41 486.34C1026.41 470.688 1039.1 458 1054.76 458C1070.41 458 1083.1 470.688 1083.1 486.34Z" fill="#FB8D8D"/>
<path d="M1060.43 609.523C1060.43 601.801 1066.69 595.542 1074.41 595.542C1082.13 595.542 1088.39 601.801 1088.39 609.523V642.019C1088.39 649.741 1082.13 656 1074.41 656C1066.69 656 1060.43 649.741 1060.43 642.019V609.523Z" fill="#FB8D8D"/>
<path d="M1071.36 555.361C1067.41 548.728 1069.58 540.146 1076.22 536.194C1082.85 532.242 1091.44 534.416 1095.39 541.049L1112.03 568.966C1115.98 575.599 1113.81 584.18 1107.17 588.132C1100.54 592.085 1091.95 589.911 1088 583.278L1071.36 555.361Z" fill="#FB8D8D"/>
<path d="M1014.13 541.146C1017.99 534.459 1026.54 532.168 1033.23 536.029C1039.92 539.889 1042.21 548.44 1038.35 555.127L1022.1 583.269C1018.24 589.956 1009.68 592.248 1002.99 588.387C996.306 584.526 994.014 575.975 997.876 569.289L1014.13 541.146Z" fill="#FB8D8D"/>
<path d="M1021.12 609.523C1021.12 601.801 1027.38 595.542 1035.1 595.542C1042.83 595.542 1049.09 601.801 1049.09 609.523V642.019C1049.09 649.741 1042.83 656 1035.1 656C1027.38 656 1021.12 649.741 1021.12 642.019V609.523Z" fill="#FB8D8D"/>
</g>
<g id="Vector_21" filter="url(#filter20_d_59_313)">
<path d="M1247.33 500.388C1253.55 472.899 1292.72 472.899 1298.94 500.388L1309.04 545.03C1312.78 561.575 1300.2 577.315 1283.23 577.315H1263.04C1246.07 577.315 1233.49 561.575 1237.23 545.03L1247.33 500.388Z" fill="#E06A6A"/>
<path d="M1301.1 440.34C1301.1 455.991 1288.41 468.679 1272.76 468.679C1257.1 468.679 1244.41 455.991 1244.41 440.34C1244.41 424.688 1257.1 412 1272.76 412C1288.41 412 1301.1 424.688 1301.1 440.34Z" fill="#E06A6A"/>
<path d="M1278.43 563.523C1278.43 555.801 1284.69 549.542 1292.41 549.542C1300.13 549.542 1306.39 555.801 1306.39 563.523V596.019C1306.39 603.741 1300.13 610 1292.41 610C1284.69 610 1278.43 603.741 1278.43 596.019V563.523Z" fill="#E06A6A"/>
<path d="M1289.36 509.361C1285.41 502.728 1287.58 494.146 1294.22 490.194C1300.85 486.242 1309.44 488.416 1313.39 495.049L1330.03 522.966C1333.98 529.599 1331.81 538.18 1325.17 542.132C1318.54 546.085 1309.95 543.911 1306 537.278L1289.36 509.361Z" fill="#E06A6A"/>
<path d="M1232.13 495.146C1235.99 488.459 1244.54 486.168 1251.23 490.029C1257.92 493.889 1260.21 502.44 1256.35 509.127L1240.1 537.269C1236.24 543.956 1227.68 546.248 1220.99 542.387C1214.31 538.526 1212.01 529.975 1215.88 523.289L1232.13 495.146Z" fill="#E06A6A"/>
<path d="M1239.12 563.523C1239.12 555.801 1245.38 549.542 1253.1 549.542C1260.83 549.542 1267.09 555.801 1267.09 563.523V596.019C1267.09 603.741 1260.83 610 1253.1 610C1245.38 610 1239.12 603.741 1239.12 596.019V563.523Z" fill="#E06A6A"/>
</g>
<g id="Vector_22" filter="url(#filter21_d_59_313)">
<path d="M1305.33 546.388C1311.55 518.899 1350.72 518.899 1356.94 546.388L1367.04 591.03C1370.78 607.575 1358.2 623.315 1341.23 623.315H1321.04C1304.07 623.315 1291.49 607.575 1295.23 591.03L1305.33 546.388Z" fill="#FB8D8D"/>
<path d="M1359.1 486.34C1359.1 501.991 1346.41 514.679 1330.76 514.679C1315.1 514.679 1302.41 501.991 1302.41 486.34C1302.41 470.688 1315.1 458 1330.76 458C1346.41 458 1359.1 470.688 1359.1 486.34Z" fill="#FB8D8D"/>
<path d="M1336.43 609.523C1336.43 601.801 1342.69 595.542 1350.41 595.542C1358.13 595.542 1364.39 601.801 1364.39 609.523V642.019C1364.39 649.741 1358.13 656 1350.41 656C1342.69 656 1336.43 649.741 1336.43 642.019V609.523Z" fill="#FB8D8D"/>
<path d="M1347.36 555.361C1343.41 548.728 1345.58 540.146 1352.22 536.194C1358.85 532.242 1367.44 534.416 1371.39 541.049L1388.03 568.966C1391.98 575.599 1389.81 584.18 1383.17 588.132C1376.54 592.085 1367.95 589.911 1364 583.278L1347.36 555.361Z" fill="#FB8D8D"/>
<path d="M1290.13 541.146C1293.99 534.459 1302.54 532.168 1309.23 536.029C1315.92 539.889 1318.21 548.44 1314.35 555.127L1298.1 583.269C1294.24 589.956 1285.68 592.248 1278.99 588.387C1272.31 584.526 1270.01 575.975 1273.88 569.289L1290.13 541.146Z" fill="#FB8D8D"/>
<path d="M1297.12 609.523C1297.12 601.801 1303.38 595.542 1311.1 595.542C1318.83 595.542 1325.09 601.801 1325.09 609.523V642.019C1325.09 649.741 1318.83 656 1311.1 656C1303.38 656 1297.12 649.741 1297.12 642.019V609.523Z" fill="#FB8D8D"/>
</g>
<g id="Vector_23" filter="url(#filter22_d_59_313)">
<path d="M891.33 546.388C897.548 518.899 936.722 518.899 942.94 546.388L953.038 591.03C956.78 607.575 944.199 623.315 927.233 623.315H907.037C890.071 623.315 877.49 607.575 881.232 591.03L891.33 546.388Z" fill="#FB8D8D"/>
<path d="M945.103 486.34C945.103 501.991 932.412 514.679 916.757 514.679C901.102 514.679 888.411 501.991 888.411 486.34C888.411 470.688 901.102 458 916.757 458C932.412 458 945.103 470.688 945.103 486.34Z" fill="#FB8D8D"/>
<path d="M922.426 609.523C922.426 601.801 928.687 595.542 936.41 595.542C944.134 595.542 950.395 601.801 950.395 609.523V642.019C950.395 649.741 944.134 656 936.41 656C928.687 656 922.426 649.741 922.426 642.019V609.523Z" fill="#FB8D8D"/>
<path d="M933.364 555.361C929.41 548.728 931.584 540.146 938.219 536.194C944.854 532.242 953.437 534.416 957.39 541.049L974.027 568.966C977.98 575.599 975.806 584.18 969.171 588.132C962.537 592.085 953.953 589.911 950 583.278L933.364 555.361Z" fill="#FB8D8D"/>
<path d="M876.128 541.146C879.989 534.459 888.542 532.168 895.23 536.029C901.919 539.889 904.21 548.44 900.349 555.127L884.097 583.269C880.235 589.956 871.683 592.248 864.994 588.387C858.306 584.526 856.014 575.975 859.876 569.289L876.128 541.146Z" fill="#FB8D8D"/>
<path d="M883.12 609.523C883.12 601.801 889.381 595.542 897.104 595.542C904.827 595.542 911.088 601.801 911.088 609.523V642.019C911.088 649.741 904.827 656 897.104 656C889.381 656 883.12 649.741 883.12 642.019V609.523Z" fill="#FB8D8D"/>
</g>
<g id="Vector_24" filter="url(#filter23_d_59_313)">
<path d="M1167.33 546.388C1173.55 518.899 1212.72 518.899 1218.94 546.388L1229.04 591.03C1232.78 607.575 1220.2 623.315 1203.23 623.315H1183.04C1166.07 623.315 1153.49 607.575 1157.23 591.03L1167.33 546.388Z" fill="#FB8D8D"/>
<path d="M1221.1 486.34C1221.1 501.991 1208.41 514.679 1192.76 514.679C1177.1 514.679 1164.41 501.991 1164.41 486.34C1164.41 470.688 1177.1 458 1192.76 458C1208.41 458 1221.1 470.688 1221.1 486.34Z" fill="#FB8D8D"/>
<path d="M1198.43 609.523C1198.43 601.801 1204.69 595.542 1212.41 595.542C1220.13 595.542 1226.39 601.801 1226.39 609.523V642.019C1226.39 649.741 1220.13 656 1212.41 656C1204.69 656 1198.43 649.741 1198.43 642.019V609.523Z" fill="#FB8D8D"/>
<path d="M1209.36 555.361C1205.41 548.728 1207.58 540.146 1214.22 536.194C1220.85 532.242 1229.44 534.416 1233.39 541.049L1250.03 568.966C1253.98 575.599 1251.81 584.18 1245.17 588.132C1238.54 592.085 1229.95 589.911 1226 583.278L1209.36 555.361Z" fill="#FB8D8D"/>
<path d="M1152.13 541.146C1155.99 534.459 1164.54 532.168 1171.23 536.029C1177.92 539.889 1180.21 548.44 1176.35 555.127L1160.1 583.269C1156.24 589.956 1147.68 592.248 1140.99 588.387C1134.31 584.526 1132.01 575.975 1135.88 569.289L1152.13 541.146Z" fill="#FB8D8D"/>
<path d="M1159.12 609.523C1159.12 601.801 1165.38 595.542 1173.1 595.542C1180.83 595.542 1187.09 601.801 1187.09 609.523V642.019C1187.09 649.741 1180.83 656 1173.1 656C1165.38 656 1159.12 649.741 1159.12 642.019V609.523Z" fill="#FB8D8D"/>
</g>
</g>
<path id="Run?" d="M583.978 778V710.8H617.674C622.41 710.8 626.57 711.728 630.154 713.584C633.738 715.376 636.522 717.872 638.506 721.072C640.49 724.272 641.482 727.984 641.482 732.208C641.482 736.496 640.426 740.336 638.314 743.728C636.266 747.056 633.418 749.712 629.77 751.696C626.186 753.616 622.154 754.576 617.674 754.576H599.53V778H583.978ZM626.026 778L606.634 747.664L623.53 745.264L644.842 778H626.026ZM599.53 742.096H616.042C617.834 742.096 619.402 741.712 620.746 740.944C622.154 740.176 623.242 739.12 624.01 737.776C624.842 736.432 625.258 734.864 625.258 733.072C625.258 731.344 624.81 729.84 623.914 728.56C623.082 727.216 621.898 726.192 620.362 725.488C618.89 724.784 617.13 724.432 615.082 724.432H599.53V742.096ZM681.932 779.056C677.836 779.056 674.284 778.16 671.276 776.368C668.332 774.576 666.06 771.984 664.46 768.592C662.86 765.136 662.06 761.008 662.06 756.208V727.024H677.42V753.712C677.42 756.336 677.772 758.544 678.476 760.336C679.244 762.128 680.428 763.504 682.028 764.464C683.628 765.36 685.58 765.808 687.884 765.808C689.548 765.808 691.084 765.552 692.492 765.04C693.9 764.464 695.148 763.696 696.236 762.736C697.324 761.712 698.156 760.56 698.732 759.28C699.372 757.936 699.692 756.432 699.692 754.768V727.024H715.052V778H700.652L699.98 767.536L702.764 766.384C702.06 768.624 700.716 770.704 698.732 772.624C696.748 774.544 694.316 776.112 691.436 777.328C688.62 778.48 685.452 779.056 681.932 779.056ZM738.955 778V727.024H753.547L754.027 738.928L750.379 739.984C751.211 737.488 752.619 735.184 754.603 733.072C756.651 730.96 759.115 729.264 761.995 727.984C764.939 726.64 768.107 725.968 771.499 725.968C775.851 725.968 779.531 726.832 782.539 728.56C785.547 730.288 787.819 732.752 789.355 735.952C790.891 739.088 791.659 742.832 791.659 747.184V778H776.203V749.392C776.203 747.152 775.787 745.264 774.955 743.728C774.187 742.192 773.003 741.008 771.403 740.176C769.867 739.344 768.075 738.928 766.027 738.928C764.235 738.928 762.603 739.248 761.131 739.888C759.723 740.464 758.507 741.264 757.483 742.288C756.459 743.248 755.659 744.336 755.083 745.552C754.571 746.768 754.315 748.016 754.315 749.296V778H746.731C744.619 778 742.923 778 741.643 778C740.363 778 739.467 778 738.955 778ZM828.23 754.96L825.158 741.808C826.822 741.488 828.518 741.072 830.246 740.56C831.974 740.048 833.67 739.472 835.334 738.832C836.998 738.192 838.438 737.424 839.654 736.528C840.934 735.632 841.926 734.64 842.63 733.552C843.398 732.4 843.782 731.184 843.782 729.904C843.782 728.56 843.366 727.472 842.534 726.64C841.766 725.744 840.742 725.104 839.462 724.72C838.246 724.272 836.87 724.048 835.334 724.048C832.262 724.048 829.382 724.816 826.694 726.352C824.07 727.888 821.702 730.288 819.59 733.552L809.126 723.28C812.326 718.928 816.166 715.536 820.646 713.104C825.19 710.608 830.15 709.36 835.526 709.36C840.134 709.36 844.262 710.224 847.91 711.952C851.622 713.616 854.534 715.952 856.646 718.96C858.758 721.904 859.814 725.232 859.814 728.944C859.814 731.376 859.238 733.776 858.086 736.144C856.934 738.448 855.334 740.592 853.286 742.576C851.302 744.56 848.998 746.32 846.374 747.856C843.75 749.328 840.934 750.48 837.926 751.312L836.87 754.96H828.23ZM824.102 770.512C824.102 768.08 824.934 766.032 826.598 764.368C828.326 762.704 830.694 761.872 833.702 761.872C836.838 761.872 839.238 762.64 840.902 764.176C842.566 765.712 843.398 767.824 843.398 770.512C843.398 772.88 842.534 774.896 840.806 776.56C839.142 778.224 836.774 779.056 833.702 779.056C830.566 779.056 828.166 778.32 826.502 776.848C824.902 775.312 824.102 773.2 824.102 770.512Z" fill="white"/>
<g id="no">
<rect id="Rectangle 3" x="274" y="894.033" width="369" height="72.9669" rx="35" fill="#DC4B4B"/>
<path id="no_2" d="M416.158 873V839.016H425.886L426.206 846.952L423.774 847.656C424.328 845.992 425.267 844.456 426.59 843.048C427.955 841.64 429.598 840.509 431.518 839.656C433.48 838.76 435.592 838.312 437.854 838.312C440.755 838.312 443.208 838.888 445.214 840.04C447.219 841.192 448.734 842.835 449.758 844.968C450.782 847.059 451.294 849.555 451.294 852.456V873H440.99V853.928C440.99 852.435 440.712 851.176 440.158 850.152C439.646 849.128 438.856 848.339 437.79 847.784C436.766 847.229 435.571 846.952 434.206 846.952C433.011 846.952 431.923 847.165 430.942 847.592C430.003 847.976 429.192 848.509 428.51 849.192C427.827 849.832 427.294 850.557 426.91 851.368C426.568 852.179 426.398 853.011 426.398 853.864V873H421.342C419.934 873 418.803 873 417.95 873C417.096 873 416.499 873 416.158 873ZM483.994 873.64C480.026 873.64 476.506 872.872 473.434 871.336C470.362 869.8 467.952 867.709 466.202 865.064C464.453 862.419 463.578 859.389 463.578 855.976C463.578 852.563 464.453 849.533 466.202 846.888C467.952 844.243 470.362 842.152 473.434 840.616C476.506 839.08 480.026 838.312 483.994 838.312C487.92 838.312 491.397 839.08 494.426 840.616C497.498 842.152 499.909 844.243 501.658 846.888C503.408 849.533 504.282 852.563 504.282 855.976C504.282 859.389 503.408 862.419 501.658 865.064C499.909 867.709 497.498 869.8 494.426 871.336C491.397 872.872 487.92 873.64 483.994 873.64ZM483.994 864.808C485.829 864.808 487.493 864.424 488.986 863.656C490.522 862.888 491.717 861.843 492.57 860.52C493.466 859.197 493.893 857.683 493.85 855.976C493.893 854.269 493.466 852.733 492.57 851.368C491.717 850.003 490.522 848.957 488.986 848.232C487.493 847.464 485.829 847.08 483.994 847.08C482.117 847.08 480.389 847.464 478.81 848.232C477.274 849 476.08 850.045 475.226 851.368C474.373 852.691 473.946 854.227 473.946 855.976C473.946 857.683 474.373 859.197 475.226 860.52C476.08 861.843 477.274 862.888 478.81 863.656C480.389 864.424 482.117 864.808 483.994 864.808Z" fill="white"/>
</g>
<g id="yes">
<g id="yes_2">
<rect id="Rectangle 3_2" x="796" y="894.033" width="369" height="72.9669" rx="35" fill="#6A94E0"/>
<path id="yes_3" d="M925.13 887.72L934.026 869.48L933.834 874.664L915.786 839.016H927.498L935.754 856.68C936.352 857.875 936.906 859.091 937.418 860.328C937.93 861.523 938.336 862.717 938.634 863.912L936.714 864.424C937.098 863.485 937.546 862.376 938.058 861.096C938.57 859.816 939.104 858.515 939.658 857.192L947.274 839.016H958.986L942.346 873.128L935.498 887.72H925.13ZM986.051 873.64C981.912 873.64 978.285 872.893 975.171 871.4C972.099 869.864 969.709 867.795 968.003 865.192C966.296 862.547 965.443 859.539 965.443 856.168C965.443 853.48 965.933 851.048 966.915 848.872C967.896 846.696 969.261 844.819 971.011 843.24C972.76 841.661 974.808 840.445 977.155 839.592C979.501 838.739 982.04 838.312 984.771 838.312C987.416 838.312 989.848 838.739 992.067 839.592C994.285 840.403 996.205 841.576 997.827 843.112C999.491 844.648 1000.77 846.461 1001.67 848.552C1002.56 850.643 1002.97 852.947 1002.88 855.464L1002.82 858.344H972.163L970.691 852.392H994.499L993.411 853.672V852.392C993.283 851.325 992.813 850.365 992.003 849.512C991.235 848.659 990.232 847.997 988.995 847.528C987.757 847.016 986.392 846.76 984.899 846.76C982.979 846.76 981.272 847.08 979.779 847.72C978.285 848.317 977.112 849.256 976.259 850.536C975.448 851.816 975.043 853.437 975.043 855.4C975.043 857.277 975.533 858.92 976.515 860.328C977.539 861.736 978.968 862.845 980.803 863.656C982.68 864.467 984.877 864.872 987.395 864.872C989.571 864.872 991.384 864.616 992.835 864.104C994.328 863.549 995.672 862.867 996.867 862.056L1001.47 868.712C1000.07 869.779 998.509 870.696 996.803 871.464C995.139 872.189 993.389 872.723 991.555 873.064C989.763 873.448 987.928 873.64 986.051 873.64ZM1028.52 873.64C1024.77 873.64 1021.4 873.107 1018.41 872.04C1015.47 870.973 1013.1 869.459 1011.31 867.496L1017.52 861.992C1018.97 863.357 1020.69 864.403 1022.7 865.128C1024.7 865.853 1026.82 866.216 1029.04 866.216C1029.72 866.216 1030.38 866.152 1031.02 866.024C1031.7 865.896 1032.28 865.725 1032.75 865.512C1033.26 865.256 1033.66 864.957 1033.96 864.616C1034.26 864.275 1034.41 863.848 1034.41 863.336C1034.41 862.525 1033.9 861.885 1032.88 861.416C1032.15 861.16 1031.23 860.904 1030.12 860.648C1029.01 860.392 1027.76 860.115 1026.35 859.816C1024 859.389 1021.93 858.877 1020.14 858.28C1018.39 857.64 1016.92 856.851 1015.72 855.912C1014.7 855.016 1013.91 853.992 1013.36 852.84C1012.8 851.688 1012.52 850.344 1012.52 848.808C1012.52 847.229 1012.93 845.8 1013.74 844.52C1014.55 843.197 1015.68 842.088 1017.13 841.192C1018.58 840.253 1020.25 839.549 1022.12 839.08C1024 838.568 1025.96 838.312 1028.01 838.312C1030.06 838.312 1032.06 838.525 1034.03 838.952C1035.99 839.336 1037.85 839.912 1039.6 840.68C1041.34 841.405 1042.88 842.344 1044.2 843.496L1038.96 849.64C1038.02 848.915 1036.93 848.253 1035.69 847.656C1034.45 847.059 1033.13 846.589 1031.72 846.248C1030.36 845.864 1029.01 845.672 1027.69 845.672C1026.97 845.672 1026.26 845.715 1025.58 845.8C1024.94 845.885 1024.38 846.056 1023.92 846.312C1023.45 846.525 1023.06 846.803 1022.76 847.144C1022.51 847.443 1022.38 847.827 1022.38 848.296C1022.38 848.68 1022.49 849.043 1022.7 849.384C1022.91 849.725 1023.23 850.003 1023.66 850.216C1024.26 850.6 1025.13 850.941 1026.28 851.24C1027.48 851.539 1028.97 851.859 1030.76 852.2C1033.37 852.755 1035.58 853.395 1037.42 854.12C1039.25 854.803 1040.73 855.635 1041.84 856.616C1042.73 857.299 1043.39 858.152 1043.82 859.176C1044.25 860.157 1044.46 861.245 1044.46 862.44C1044.46 864.616 1043.76 866.557 1042.35 868.264C1040.98 869.928 1039.1 871.251 1036.72 872.232C1034.37 873.171 1031.64 873.64 1028.52 873.64Z" fill="white"/>
</g>
</g>
</g>
<defs>
<filter id="filter0_d_59_313" x="152" y="389" width="108" height="176" filterUnits="userSpaceOnUse" color-interpolation-filters="sRGB">
<feFlood flood-opacity="0" result="BackgroundImageFix"/>
<feColorMatrix in="SourceAlpha" type="matrix" values="0 0 0 0 0 0 0 0 0 0 0 0 0 0 0 0 0 0 127 0" result="hardAlpha"/>
<feOffset dy="4"/>
<feGaussianBlur stdDeviation="2"/>
<feComposite in2="hardAlpha" operator="out"/>
<feColorMatrix type="matrix" values="0 0 0 0 0 0 0 0 0 0 0 0 0 0 0 0 0 0 0.25 0"/>
<feBlend mode="normal" in2="BackgroundImageFix" result="effect1_dropShadow_59_313"/>
<feBlend mode="normal" in="SourceGraphic" in2="effect1_dropShadow_59_313" result="shape"/>
</filter>
<filter id="filter1_d_59_313" x="386" y="389" width="109" height="176" filterUnits="userSpaceOnUse" color-interpolation-filters="sRGB">
<feFlood flood-opacity="0" result="BackgroundImageFix"/>
<feColorMatrix in="SourceAlpha" type="matrix" values="0 0 0 0 0 0 0 0 0 0 0 0 0 0 0 0 0 0 127 0" result="hardAlpha"/>
<feOffset dy="4"/>
<feGaussianBlur stdDeviation="2"/>
<feComposite in2="hardAlpha" operator="out"/>
<feColorMatrix type="matrix" values="0 0 0 0 0 0 0 0 0 0 0 0 0 0 0 0 0 0 0.25 0"/>
<feBlend mode="normal" in2="BackgroundImageFix" result="effect1_dropShadow_59_313"/>
<feBlend mode="normal" in="SourceGraphic" in2="effect1_dropShadow_59_313" result="shape"/>
</filter>
<filter id="filter2_d_59_313" x="269" y="389" width="109" height="176" filterUnits="userSpaceOnUse" color-interpolation-filters="sRGB">
<feFlood flood-opacity="0" result="BackgroundImageFix"/>
<feColorMatrix in="SourceAlpha" type="matrix" values="0 0 0 0 0 0 0 0 0 0 0 0 0 0 0 0 0 0 127 0" result="hardAlpha"/>
<feOffset dy="4"/>
<feGaussianBlur stdDeviation="2"/>
<feComposite in2="hardAlpha" operator="out"/>
<feColorMatrix type="matrix" values="0 0 0 0 0 0 0 0 0 0 0 0 0 0 0 0 0 0 0.25 0"/>
<feBlend mode="normal" in2="BackgroundImageFix" result="effect1_dropShadow_59_313"/>
<feBlend mode="normal" in="SourceGraphic" in2="effect1_dropShadow_59_313" result="shape"/>
</filter>
<filter id="filter3_d_59_313" x="504" y="389" width="108" height="176" filterUnits="userSpaceOnUse" color-interpolation-filters="sRGB">
<feFlood flood-opacity="0" result="BackgroundImageFix"/>
<feColorMatrix in="SourceAlpha" type="matrix" values="0 0 0 0 0 0 0 0 0 0 0 0 0 0 0 0 0 0 127 0" result="hardAlpha"/>
<feOffset dy="4"/>
<feGaussianBlur stdDeviation="2"/>
<feComposite in2="hardAlpha" operator="out"/>
<feColorMatrix type="matrix" values="0 0 0 0 0 0 0 0 0 0 0 0 0 0 0 0 0 0 0.25 0"/>
<feBlend mode="normal" in2="BackgroundImageFix" result="effect1_dropShadow_59_313"/>
<feBlend mode="normal" in="SourceGraphic" in2="effect1_dropShadow_59_313" result="shape"/>
</filter>
<filter id="filter4_d_59_313" x="46" y="412" width="126" height="206" filterUnits="userSpaceOnUse" color-interpolation-filters="sRGB">
<feFlood flood-opacity="0" result="BackgroundImageFix"/>
<feColorMatrix in="SourceAlpha" type="matrix" values="0 0 0 0 0 0 0 0 0 0 0 0 0 0 0 0 0 0 127 0" result="hardAlpha"/>
<feOffset dy="4"/>
<feGaussianBlur stdDeviation="2"/>
<feComposite in2="hardAlpha" operator="out"/>
<feColorMatrix type="matrix" values="0 0 0 0 0 0 0 0 0 0 0 0 0 0 0 0 0 0 0.25 0"/>
<feBlend mode="normal" in2="BackgroundImageFix" result="effect1_dropShadow_59_313"/>
<feBlend mode="normal" in="SourceGraphic" in2="effect1_dropShadow_59_313" result="shape"/>
</filter>
<filter id="filter5_d_59_313" x="322" y="412" width="126" height="206" filterUnits="userSpaceOnUse" color-interpolation-filters="sRGB">
<feFlood flood-opacity="0" result="BackgroundImageFix"/>
<feColorMatrix in="SourceAlpha" type="matrix" values="0 0 0 0 0 0 0 0 0 0 0 0 0 0 0 0 0 0 127 0" result="hardAlpha"/>
<feOffset dy="4"/>
<feGaussianBlur stdDeviation="2"/>
<feComposite in2="hardAlpha" operator="out"/>
<feColorMatrix type="matrix" values="0 0 0 0 0 0 0 0 0 0 0 0 0 0 0 0 0 0 0.25 0"/>
<feBlend mode="normal" in2="BackgroundImageFix" result="effect1_dropShadow_59_313"/>
<feBlend mode="normal" in="SourceGraphic" in2="effect1_dropShadow_59_313" result="shape"/>
</filter>
<filter id="filter6_d_59_313" x="184" y="412" width="126" height="206" filterUnits="userSpaceOnUse" color-interpolation-filters="sRGB">
<feFlood flood-opacity="0" result="BackgroundImageFix"/>
<feColorMatrix in="SourceAlpha" type="matrix" values="0 0 0 0 0 0 0 0 0 0 0 0 0 0 0 0 0 0 127 0" result="hardAlpha"/>
<feOffset dy="4"/>
<feGaussianBlur stdDeviation="2"/>
<feComposite in2="hardAlpha" operator="out"/>
<feColorMatrix type="matrix" values="0 0 0 0 0 0 0 0 0 0 0 0 0 0 0 0 0 0 0.25 0"/>
<feBlend mode="normal" in2="BackgroundImageFix" result="effect1_dropShadow_59_313"/>
<feBlend mode="normal" in="SourceGraphic" in2="effect1_dropShadow_59_313" result="shape"/>
</filter>
<filter id="filter7_d_59_313" x="242" y="458" width="126" height="206" filterUnits="userSpaceOnUse" color-interpolation-filters="sRGB">
<feFlood flood-opacity="0" result="BackgroundImageFix"/>
<feColorMatrix in="SourceAlpha" type="matrix" values="0 0 0 0 0 0 0 0 0 0 0 0 0 0 0 0 0 0 127 0" result="hardAlpha"/>
<feOffset dy="4"/>
<feGaussianBlur stdDeviation="2"/>
<feComposite in2="hardAlpha" operator="out"/>
<feColorMatrix type="matrix" values="0 0 0 0 0 0 0 0 0 0 0 0 0 0 0 0 0 0 0.25 0"/>
<feBlend mode="normal" in2="BackgroundImageFix" result="effect1_dropShadow_59_313"/>
<feBlend mode="normal" in="SourceGraphic" in2="effect1_dropShadow_59_313" result="shape"/>
</filter>
<filter id="filter8_d_59_313" x="460" y="412" width="126" height="206" filterUnits="userSpaceOnUse" color-interpolation-filters="sRGB">
<feFlood flood-opacity="0" result="BackgroundImageFix"/>
<feColorMatrix in="SourceAlpha" type="matrix" values="0 0 0 0 0 0 0 0 0 0 0 0 0 0 0 0 0 0 127 0" result="hardAlpha"/>
<feOffset dy="4"/>
<feGaussianBlur stdDeviation="2"/>
<feComposite in2="hardAlpha" operator="out"/>
<feColorMatrix type="matrix" values="0 0 0 0 0 0 0 0 0 0 0 0 0 0 0 0 0 0 0.25 0"/>
<feBlend mode="normal" in2="BackgroundImageFix" result="effect1_dropShadow_59_313"/>
<feBlend mode="normal" in="SourceGraphic" in2="effect1_dropShadow_59_313" result="shape"/>
</filter>
<filter id="filter9_d_59_313" x="104" y="458" width="126" height="206" filterUnits="userSpaceOnUse" color-interpolation-filters="sRGB">
<feFlood flood-opacity="0" result="BackgroundImageFix"/>
<feColorMatrix in="SourceAlpha" type="matrix" values="0 0 0 0 0 0 0 0 0 0 0 0 0 0 0 0 0 0 127 0" result="hardAlpha"/>
<feOffset dy="4"/>
<feGaussianBlur stdDeviation="2"/>
<feComposite in2="hardAlpha" operator="out"/>
<feColorMatrix type="matrix" values="0 0 0 0 0 0 0 0 0 0 0 0 0 0 0 0 0 0 0.25 0"/>
<feBlend mode="normal" in2="BackgroundImageFix" result="effect1_dropShadow_59_313"/>
<feBlend mode="normal" in="SourceGraphic" in2="effect1_dropShadow_59_313" result="shape"/>
</filter>
<filter id="filter10_d_59_313" x="380" y="458" width="126" height="206" filterUnits="userSpaceOnUse" color-interpolation-filters="sRGB">
<feFlood flood-opacity="0" result="BackgroundImageFix"/>
<feColorMatrix in="SourceAlpha" type="matrix" values="0 0 0 0 0 0 0 0 0 0 0 0 0 0 0 0 0 0 127 0" result="hardAlpha"/>
<feOffset dy="4"/>
<feGaussianBlur stdDeviation="2"/>
<feComposite in2="hardAlpha" operator="out"/>
<feColorMatrix type="matrix" values="0 0 0 0 0 0 0 0 0 0 0 0 0 0 0 0 0 0 0.25 0"/>
<feBlend mode="normal" in2="BackgroundImageFix" result="effect1_dropShadow_59_313"/>
<feBlend mode="normal" in="SourceGraphic" in2="effect1_dropShadow_59_313" result="shape"/>
</filter>
<filter id="filter11_d_59_313" x="518" y="458" width="126" height="206" filterUnits="userSpaceOnUse" color-interpolation-filters="sRGB">
<feFlood flood-opacity="0" result="BackgroundImageFix"/>
<feColorMatrix in="SourceAlpha" type="matrix" values="0 0 0 0 0 0 0 0 0 0 0 0 0 0 0 0 0 0 127 0" result="hardAlpha"/>
<feOffset dy="4"/>
<feGaussianBlur stdDeviation="2"/>
<feComposite in2="hardAlpha" operator="out"/>
<feColorMatrix type="matrix" values="0 0 0 0 0 0 0 0 0 0 0 0 0 0 0 0 0 0 0.25 0"/>
<feBlend mode="normal" in2="BackgroundImageFix" result="effect1_dropShadow_59_313"/>
<feBlend mode="normal" in="SourceGraphic" in2="effect1_dropShadow_59_313" result="shape"/>
</filter>
<filter id="filter12_d_59_313" x="902" y="389" width="108" height="176" filterUnits="userSpaceOnUse" color-interpolation-filters="sRGB">
<feFlood flood-opacity="0" result="BackgroundImageFix"/>
<feColorMatrix in="SourceAlpha" type="matrix" values="0 0 0 0 0 0 0 0 0 0 0 0 0 0 0 0 0 0 127 0" result="hardAlpha"/>
<feOffset dy="4"/>
<feGaussianBlur stdDeviation="2"/>
<feComposite in2="hardAlpha" operator="out"/>
<feColorMatrix type="matrix" values="0 0 0 0 0 0 0 0 0 0 0 0 0 0 0 0 0 0 0.25 0"/>
<feBlend mode="normal" in2="BackgroundImageFix" result="effect1_dropShadow_59_313"/>
<feBlend mode="normal" in="SourceGraphic" in2="effect1_dropShadow_59_313" result="shape"/>
</filter>
<filter id="filter13_d_59_313" x="1136" y="389" width="109" height="176" filterUnits="userSpaceOnUse" color-interpolation-filters="sRGB">
<feFlood flood-opacity="0" result="BackgroundImageFix"/>
<feColorMatrix in="SourceAlpha" type="matrix" values="0 0 0 0 0 0 0 0 0 0 0 0 0 0 0 0 0 0 127 0" result="hardAlpha"/>
<feOffset dy="4"/>
<feGaussianBlur stdDeviation="2"/>
<feComposite in2="hardAlpha" operator="out"/>
<feColorMatrix type="matrix" values="0 0 0 0 0 0 0 0 0 0 0 0 0 0 0 0 0 0 0.25 0"/>
<feBlend mode="normal" in2="BackgroundImageFix" result="effect1_dropShadow_59_313"/>
<feBlend mode="normal" in="SourceGraphic" in2="effect1_dropShadow_59_313" result="shape"/>
</filter>
<filter id="filter14_d_59_313" x="1019" y="389" width="109" height="176" filterUnits="userSpaceOnUse" color-interpolation-filters="sRGB">
<feFlood flood-opacity="0" result="BackgroundImageFix"/>
<feColorMatrix in="SourceAlpha" type="matrix" values="0 0 0 0 0 0 0 0 0 0 0 0 0 0 0 0 0 0 127 0" result="hardAlpha"/>
<feOffset dy="4"/>
<feGaussianBlur stdDeviation="2"/>
<feComposite in2="hardAlpha" operator="out"/>
<feColorMatrix type="matrix" values="0 0 0 0 0 0 0 0 0 0 0 0 0 0 0 0 0 0 0.25 0"/>
<feBlend mode="normal" in2="BackgroundImageFix" result="effect1_dropShadow_59_313"/>
<feBlend mode="normal" in="SourceGraphic" in2="effect1_dropShadow_59_313" result="shape"/>
</filter>
<filter id="filter15_d_59_313" x="1254" y="389" width="108" height="176" filterUnits="userSpaceOnUse" color-interpolation-filters="sRGB">
<feFlood flood-opacity="0" result="BackgroundImageFix"/>
<feColorMatrix in="SourceAlpha" type="matrix" values="0 0 0 0 0 0 0 0 0 0 0 0 0 0 0 0 0 0 127 0" result="hardAlpha"/>
<feOffset dy="4"/>
<feGaussianBlur stdDeviation="2"/>
<feComposite in2="hardAlpha" operator="out"/>
<feColorMatrix type="matrix" values="0 0 0 0 0 0 0 0 0 0 0 0 0 0 0 0 0 0 0.25 0"/>
<feBlend mode="normal" in2="BackgroundImageFix" result="effect1_dropShadow_59_313"/>
<feBlend mode="normal" in="SourceGraphic" in2="effect1_dropShadow_59_313" result="shape"/>
</filter>
<filter id="filter16_d_59_313" x="796" y="412" width="126" height="206" filterUnits="userSpaceOnUse" color-interpolation-filters="sRGB">
<feFlood flood-opacity="0" result="BackgroundImageFix"/>
<feColorMatrix in="SourceAlpha" type="matrix" values="0 0 0 0 0 0 0 0 0 0 0 0 0 0 0 0 0 0 127 0" result="hardAlpha"/>
<feOffset dy="4"/>
<feGaussianBlur stdDeviation="2"/>
<feComposite in2="hardAlpha" operator="out"/>
<feColorMatrix type="matrix" values="0 0 0 0 0 0 0 0 0 0 0 0 0 0 0 0 0 0 0.25 0"/>
<feBlend mode="normal" in2="BackgroundImageFix" result="effect1_dropShadow_59_313"/>
<feBlend mode="normal" in="SourceGraphic" in2="effect1_dropShadow_59_313" result="shape"/>
</filter>
<filter id="filter17_d_59_313" x="1072" y="412" width="126" height="206" filterUnits="userSpaceOnUse" color-interpolation-filters="sRGB">
<feFlood flood-opacity="0" result="BackgroundImageFix"/>
<feColorMatrix in="SourceAlpha" type="matrix" values="0 0 0 0 0 0 0 0 0 0 0 0 0 0 0 0 0 0 127 0" result="hardAlpha"/>
<feOffset dy="4"/>
<feGaussianBlur stdDeviation="2"/>
<feComposite in2="hardAlpha" operator="out"/>
<feColorMatrix type="matrix" values="0 0 0 0 0 0 0 0 0 0 0 0 0 0 0 0 0 0 0.25 0"/>
<feBlend mode="normal" in2="BackgroundImageFix" result="effect1_dropShadow_59_313"/>
<feBlend mode="normal" in="SourceGraphic" in2="effect1_dropShadow_59_313" result="shape"/>
</filter>
<filter id="filter18_d_59_313" x="934" y="412" width="126" height="206" filterUnits="userSpaceOnUse" color-interpolation-filters="sRGB">
<feFlood flood-opacity="0" result="BackgroundImageFix"/>
<feColorMatrix in="SourceAlpha" type="matrix" values="0 0 0 0 0 0 0 0 0 0 0 0 0 0 0 0 0 0 127 0" result="hardAlpha"/>
<feOffset dy="4"/>
<feGaussianBlur stdDeviation="2"/>
<feComposite in2="hardAlpha" operator="out"/>
<feColorMatrix type="matrix" values="0 0 0 0 0 0 0 0 0 0 0 0 0 0 0 0 0 0 0.25 0"/>
<feBlend mode="normal" in2="BackgroundImageFix" result="effect1_dropShadow_59_313"/>
<feBlend mode="normal" in="SourceGraphic" in2="effect1_dropShadow_59_313" result="shape"/>
</filter>
<filter id="filter19_d_59_313" x="992" y="458" width="126" height="206" filterUnits="userSpaceOnUse" color-interpolation-filters="sRGB">
<feFlood flood-opacity="0" result="BackgroundImageFix"/>
<feColorMatrix in="SourceAlpha" type="matrix" values="0 0 0 0 0 0 0 0 0 0 0 0 0 0 0 0 0 0 127 0" result="hardAlpha"/>
<feOffset dy="4"/>
<feGaussianBlur stdDeviation="2"/>
<feComposite in2="hardAlpha" operator="out"/>
<feColorMatrix type="matrix" values="0 0 0 0 0 0 0 0 0 0 0 0 0 0 0 0 0 0 0.25 0"/>
<feBlend mode="normal" in2="BackgroundImageFix" result="effect1_dropShadow_59_313"/>
<feBlend mode="normal" in="SourceGraphic" in2="effect1_dropShadow_59_313" result="shape"/>
</filter>
<filter id="filter20_d_59_313" x="1210" y="412" width="126" height="206" filterUnits="userSpaceOnUse" color-interpolation-filters="sRGB">
<feFlood flood-opacity="0" result="BackgroundImageFix"/>
<feColorMatrix in="SourceAlpha" type="matrix" values="0 0 0 0 0 0 0 0 0 0 0 0 0 0 0 0 0 0 127 0" result="hardAlpha"/>
<feOffset dy="4"/>
<feGaussianBlur stdDeviation="2"/>
<feComposite in2="hardAlpha" operator="out"/>
<feColorMatrix type="matrix" values="0 0 0 0 0 0 0 0 0 0 0 0 0 0 0 0 0 0 0.25 0"/>
<feBlend mode="normal" in2="BackgroundImageFix" result="effect1_dropShadow_59_313"/>
<feBlend mode="normal" in="SourceGraphic" in2="effect1_dropShadow_59_313" result="shape"/>
</filter>
<filter id="filter21_d_59_313" x="1268" y="458" width="126" height="206" filterUnits="userSpaceOnUse" color-interpolation-filters="sRGB">
<feFlood flood-opacity="0" result="BackgroundImageFix"/>
<feColorMatrix in="SourceAlpha" type="matrix" values="0 0 0 0 0 0 0 0 0 0 0 0 0 0 0 0 0 0 127 0" result="hardAlpha"/>
<feOffset dy="4"/>
<feGaussianBlur stdDeviation="2"/>
<feComposite in2="hardAlpha" operator="out"/>
<feColorMatrix type="matrix" values="0 0 0 0 0 0 0 0 0 0 0 0 0 0 0 0 0 0 0.25 0"/>
<feBlend mode="normal" in2="BackgroundImageFix" result="effect1_dropShadow_59_313"/>
<feBlend mode="normal" in="SourceGraphic" in2="effect1_dropShadow_59_313" result="shape"/>
</filter>
<filter id="filter22_d_59_313" x="854" y="458" width="126" height="206" filterUnits="userSpaceOnUse" color-interpolation-filters="sRGB">
<feFlood flood-opacity="0" result="BackgroundImageFix"/>
<feColorMatrix in="SourceAlpha" type="matrix" values="0 0 0 0 0 0 0 0 0 0 0 0 0 0 0 0 0 0 127 0" result="hardAlpha"/>
<feOffset dy="4"/>
<feGaussianBlur stdDeviation="2"/>
<feComposite in2="hardAlpha" operator="out"/>
<feColorMatrix type="matrix" values="0 0 0 0 0 0 0 0 0 0 0 0 0 0 0 0 0 0 0.25 0"/>
<feBlend mode="normal" in2="BackgroundImageFix" result="effect1_dropShadow_59_313"/>
<feBlend mode="normal" in="SourceGraphic" in2="effect1_dropShadow_59_313" result="shape"/>
</filter>
<filter id="filter23_d_59_313" x="1130" y="458" width="126" height="206" filterUnits="userSpaceOnUse" color-interpolation-filters="sRGB">
<feFlood flood-opacity="0" result="BackgroundImageFix"/>
<feColorMatrix in="SourceAlpha" type="matrix" values="0 0 0 0 0 0 0 0 0 0 0 0 0 0 0 0 0 0 127 0" result="hardAlpha"/>
<feOffset dy="4"/>
<feGaussianBlur stdDeviation="2"/>
<feComposite in2="hardAlpha" operator="out"/>
<feColorMatrix type="matrix" values="0 0 0 0 0 0 0 0 0 0 0 0 0 0 0 0 0 0 0.25 0"/>
<feBlend mode="normal" in2="BackgroundImageFix" result="effect1_dropShadow_59_313"/>
<feBlend mode="normal" in="SourceGraphic" in2="effect1_dropShadow_59_313" result="shape"/>
</filter>
</defs>
</svg>
