<svg width="1440" height="1024" viewBox="0 0 1440 1024" fill="none" xmlns="http://www.w3.org/2000/svg">
<g id="run1-no" clip-path="url(#clip0_75_401)">
<rect width="1440" height="1024" fill="#333148"/>
<path id="part 2" d="M47.096 132.12V60.024H61.688L62.264 71.448L59.384 70.584C59.832 68.536 61.048 66.648 63.032 64.92C65.016 63.192 67.512 61.784 70.52 60.696C73.592 59.608 76.856 59.064 80.312 59.064C85.304 59.064 89.688 60.216 93.464 62.52C97.24 64.76 100.184 67.864 102.296 71.832C104.472 75.736 105.56 80.28 105.56 85.464C105.56 90.584 104.472 95.128 102.296 99.096C100.184 103.064 97.208 106.2 93.368 108.504C89.528 110.744 85.112 111.864 80.12 111.864C76.664 111.864 73.432 111.288 70.424 110.136C67.416 108.984 64.888 107.48 62.84 105.624C60.856 103.768 59.576 101.816 59 99.768L62.552 98.424V132.12H47.096ZM76.376 98.904C79.256 98.904 81.752 98.36 83.864 97.272C85.976 96.12 87.608 94.552 88.76 92.568C89.976 90.584 90.584 88.216 90.584 85.464C90.584 82.776 89.976 80.44 88.76 78.456C87.608 76.408 85.976 74.84 83.864 73.752C81.816 72.6 79.32 72.024 76.376 72.024C73.496 72.024 70.968 72.568 68.792 73.656C66.68 74.744 65.016 76.312 63.8 78.36C62.648 80.408 62.072 82.776 62.072 85.464C62.072 88.216 62.648 90.584 63.8 92.568C65.016 94.552 66.68 96.12 68.792 97.272C70.968 98.36 73.496 98.904 76.376 98.904ZM144.211 111.864C139.155 111.864 134.739 110.744 130.963 108.504C127.187 106.264 124.211 103.16 122.035 99.192C119.923 95.16 118.867 90.584 118.867 85.464C118.867 80.28 119.955 75.704 122.131 71.736C124.307 67.768 127.315 64.664 131.155 62.424C135.059 60.12 139.539 58.968 144.595 58.968C147.475 58.968 150.131 59.352 152.563 60.12C154.995 60.824 157.107 61.816 158.899 63.096C160.755 64.376 162.259 65.784 163.411 67.32C164.627 68.856 165.427 70.456 165.811 72.12H162.451V60.024H177.619V111H162.163V97.944L165.427 98.424C165.043 100.088 164.243 101.72 163.027 103.32C161.811 104.92 160.243 106.36 158.323 107.64C156.403 108.92 154.227 109.944 151.795 110.712C149.427 111.48 146.899 111.864 144.211 111.864ZM148.339 98.904C151.219 98.904 153.715 98.36 155.827 97.272C158.003 96.184 159.667 94.648 160.819 92.664C162.035 90.616 162.643 88.216 162.643 85.464C162.643 82.776 162.035 80.44 160.819 78.456C159.667 76.408 158.003 74.808 155.827 73.656C153.715 72.504 151.219 71.928 148.339 71.928C145.459 71.928 142.963 72.504 140.851 73.656C138.739 74.808 137.075 76.408 135.859 78.456C134.707 80.44 134.131 82.776 134.131 85.464C134.131 88.216 134.707 90.616 135.859 92.664C137.075 94.648 138.739 96.184 140.851 97.272C142.963 98.36 145.459 98.904 148.339 98.904ZM201.315 111V60.024H215.907L216.579 77.592L212.931 75.768C213.763 72.632 215.203 69.816 217.251 67.32C219.363 64.76 221.763 62.744 224.451 61.272C227.203 59.736 230.115 58.968 233.187 58.968C234.851 58.968 236.419 59.128 237.891 59.448C239.427 59.768 240.739 60.184 241.827 60.696L237.603 77.496C236.643 76.792 235.331 76.248 233.667 75.864C232.067 75.48 230.435 75.288 228.771 75.288C226.915 75.288 225.219 75.608 223.683 76.248C222.211 76.824 220.963 77.656 219.939 78.744C218.915 79.768 218.115 80.952 217.539 82.296C217.027 83.64 216.771 85.08 216.771 86.616V111H201.315ZM265.932 111V46.008H281.292V111H265.932ZM254.604 73.464V60.024H294.252V73.464H254.604ZM348.136 111L344.776 102.264L364.552 82.776C366.088 81.304 367.624 79.768 369.16 78.168C370.76 76.504 372.264 74.808 373.672 73.08C375.08 71.352 376.2 69.688 377.032 68.088C377.864 66.424 378.28 64.952 378.28 63.672C378.28 62.328 377.96 61.176 377.32 60.216C376.744 59.192 375.848 58.392 374.632 57.816C373.48 57.24 372.008 56.952 370.216 56.952C368.552 56.952 366.888 57.336 365.224 58.104C363.624 58.808 362.088 59.928 360.616 61.464C359.208 62.936 357.864 64.888 356.584 67.32L344.488 60.6C346.152 57.08 348.328 53.944 351.016 51.192C353.768 48.376 356.904 46.2 360.424 44.664C364.008 43.064 367.848 42.264 371.944 42.264C376.232 42.328 380.04 43.192 383.368 44.856C386.696 46.456 389.32 48.696 391.24 51.576C393.224 54.456 394.216 57.816 394.216 61.656C394.216 63.384 393.928 65.112 393.352 66.84C392.84 68.568 392.104 70.296 391.144 72.024C390.184 73.688 389.032 75.448 387.688 77.304C386.344 79.096 384.84 80.92 383.176 82.776C381.512 84.632 379.72 86.52 377.8 88.44L361.288 104.472L360.136 96.6H397.192V111H348.136Z" fill="white"/>
<path id="Vector 10" d="M1244.41 615.435L1078.74 792L964.235 552.116L803.438 615.435L861.909 449.83L641.422 298.837L861.909 240.388L699.894 -25.068L964.235 -72.5578L1020.27 -282L1196.9 -72.5578L1406.43 -149.272L1461.24 27.2925L1674.42 56.517L1501.44 240.388L1674.42 416.952L1461.24 486.361L1479.52 633.701L1244.41 615.435Z" fill="#211F2F"/>
<g id="Group 3">
<g id="Vector" filter="url(#filter0_d_75_401)">
<path d="M657.065 464.218C669.902 407.395 750.784 407.395 763.621 464.218L784.47 556.502C792.197 590.702 766.221 623.24 731.192 623.24H689.494C654.465 623.24 628.489 590.702 636.216 556.502L657.065 464.218Z" fill="#C63B3B"/>
<path d="M768.088 340.089C768.088 372.443 741.885 398.672 709.563 398.672C677.24 398.672 651.037 372.443 651.037 340.089C651.037 307.734 677.24 281.506 709.563 281.506C741.885 281.506 768.088 307.734 768.088 340.089Z" fill="#C63B3B"/>
<path d="M721.268 594.73C721.268 578.768 734.195 565.829 750.14 565.829C766.086 565.829 779.013 578.768 779.013 594.73V661.905C779.013 677.866 766.086 690.806 750.14 690.806C734.195 690.806 721.268 677.866 721.268 661.905V594.73Z" fill="#C63B3B"/>
<path d="M743.849 482.768C735.688 469.055 740.176 451.317 753.875 443.147C767.574 434.977 785.295 439.47 793.457 453.182L827.806 510.891C835.968 524.603 831.48 542.342 817.781 550.512C804.082 558.682 786.361 554.189 778.199 540.476L743.849 482.768Z" fill="#C63B3B"/>
<path d="M625.676 453.383C633.649 439.56 651.307 434.824 665.117 442.804C678.926 450.785 683.658 468.461 675.685 482.284L642.13 540.459C634.158 554.282 616.499 559.018 602.69 551.038C588.88 543.057 584.149 525.381 592.122 511.558L625.676 453.383Z" fill="#C63B3B"/>
<path d="M640.113 594.73C640.113 578.768 653.039 565.829 668.985 565.829C684.931 565.829 697.858 578.768 697.858 594.73V661.905C697.858 677.866 684.931 690.806 668.985 690.806C653.039 690.806 640.113 677.866 640.113 661.905V594.73Z" fill="#C63B3B"/>
</g>
<g id="Vector_2" filter="url(#filter1_d_75_401)">
<path d="M1227.85 464.218C1240.81 407.395 1322.51 407.395 1335.47 464.218L1356.53 556.502C1364.33 590.702 1338.1 623.24 1302.72 623.24H1260.6C1225.22 623.24 1198.99 590.702 1206.79 556.502L1227.85 464.218Z" fill="#C63B3B"/>
<path d="M1339.98 340.089C1339.98 372.443 1313.52 398.672 1280.87 398.672C1248.23 398.672 1221.76 372.443 1221.76 340.089C1221.76 307.734 1248.23 281.506 1280.87 281.506C1313.52 281.506 1339.98 307.734 1339.98 340.089Z" fill="#C63B3B"/>
<path d="M1292.69 594.73C1292.69 578.768 1305.75 565.829 1321.86 565.829C1337.96 565.829 1351.02 578.768 1351.02 594.73V661.905C1351.02 677.866 1337.96 690.806 1321.86 690.806C1305.75 690.806 1292.69 677.866 1292.69 661.905V594.73Z" fill="#C63B3B"/>
<path d="M1315.5 482.768C1307.26 469.055 1311.79 451.317 1325.63 443.147C1339.46 434.977 1357.36 439.47 1365.61 453.182L1400.3 510.891C1408.54 524.603 1404.01 542.342 1390.17 550.512C1376.34 558.682 1358.44 554.189 1350.19 540.476L1315.5 482.768Z" fill="#C63B3B"/>
<path d="M1196.15 453.383C1204.2 439.56 1222.03 434.824 1235.98 442.804C1249.93 450.785 1254.71 468.461 1246.66 482.284L1212.77 540.459C1204.71 554.282 1186.88 559.018 1172.93 551.038C1158.98 543.057 1154.2 525.381 1162.26 511.558L1196.15 453.383Z" fill="#C63B3B"/>
<path d="M1210.73 594.73C1210.73 578.768 1223.78 565.829 1239.89 565.829C1255.99 565.829 1269.05 578.768 1269.05 594.73V661.905C1269.05 677.866 1255.99 690.806 1239.89 690.806C1223.78 690.806 1210.73 677.866 1210.73 661.905V594.73Z" fill="#C63B3B"/>
</g>
<g id="Vector_3" filter="url(#filter2_d_75_401)">
<path d="M942.801 464.218C955.767 407.395 1037.46 407.395 1050.42 464.218L1071.48 556.502C1079.28 590.702 1053.05 623.24 1017.67 623.24H975.555C940.175 623.24 913.94 590.702 921.744 556.502L942.801 464.218Z" fill="#C63B3B"/>
<path d="M1054.93 340.089C1054.93 372.443 1028.47 398.672 995.824 398.672C963.178 398.672 936.713 372.443 936.713 340.089C936.713 307.734 963.178 281.506 995.824 281.506C1028.47 281.506 1054.93 307.734 1054.93 340.089Z" fill="#C63B3B"/>
<path d="M1007.65 594.73C1007.65 578.768 1020.7 565.829 1036.81 565.829C1052.91 565.829 1065.97 578.768 1065.97 594.73V661.905C1065.97 677.866 1052.91 690.806 1036.81 690.806C1020.7 690.806 1007.65 677.866 1007.65 661.905V594.73Z" fill="#C63B3B"/>
<path d="M1030.45 482.768C1022.21 469.055 1026.74 451.317 1040.58 443.147C1054.42 434.977 1072.31 439.47 1080.56 453.182L1115.25 510.891C1123.49 524.603 1118.96 542.342 1105.12 550.512C1091.29 558.682 1073.39 554.189 1065.15 540.476L1030.45 482.768Z" fill="#C63B3B"/>
<path d="M911.099 453.383C919.151 439.56 936.986 434.824 950.934 442.804C964.881 450.785 969.66 468.461 961.608 482.284L927.717 540.459C919.665 554.282 901.83 559.018 887.882 551.038C873.935 543.057 869.156 525.381 877.209 511.558L911.099 453.383Z" fill="#C63B3B"/>
<path d="M925.679 594.73C925.679 578.768 938.735 565.829 954.841 565.829C970.946 565.829 984.002 578.768 984.002 594.73V661.905C984.002 677.866 970.946 690.806 954.841 690.806C938.735 690.806 925.679 677.866 925.679 661.905V594.73Z" fill="#C63B3B"/>
</g>
<g id="Vector_4">
<path d="M1514.65 464.218C1527.48 407.395 1608.36 407.395 1621.2 464.218L1642.05 556.502C1649.78 590.702 1623.8 623.24 1588.77 623.24H1547.07C1512.05 623.24 1486.07 590.702 1493.8 556.502L1514.65 464.218Z" fill="#C63B3B"/>
<path d="M1625.67 340.089C1625.67 372.443 1599.47 398.672 1567.14 398.672C1534.82 398.672 1508.62 372.443 1508.62 340.089C1508.62 307.734 1534.82 281.506 1567.14 281.506C1599.47 281.506 1625.67 307.734 1625.67 340.089Z" fill="#C63B3B"/>
<path d="M1578.85 594.73C1578.85 578.768 1591.78 565.829 1607.72 565.829C1623.67 565.829 1636.59 578.768 1636.59 594.73V661.905C1636.59 677.866 1623.67 690.806 1607.72 690.806C1591.78 690.806 1578.85 677.866 1578.85 661.905V594.73Z" fill="#C63B3B"/>
<path d="M1601.43 482.768C1593.27 469.055 1597.76 451.317 1611.46 443.147C1625.15 434.977 1642.88 439.47 1651.04 453.182L1685.39 510.891C1693.55 524.603 1689.06 542.342 1675.36 550.512C1661.66 558.682 1643.94 554.189 1635.78 540.476L1601.43 482.768Z" fill="#C63B3B"/>
<path d="M1483.26 453.383C1491.23 439.56 1508.89 434.824 1522.7 442.804C1536.51 450.785 1541.24 468.461 1533.27 482.284L1499.71 540.459C1491.74 554.282 1474.08 559.018 1460.27 551.038C1446.46 543.057 1441.73 525.381 1449.7 511.558L1483.26 453.383Z" fill="#C63B3B"/>
<path d="M1497.69 594.73C1497.69 578.768 1510.62 565.829 1526.57 565.829C1542.51 565.829 1555.44 578.768 1555.44 594.73V661.905C1555.44 677.866 1542.51 690.806 1526.57 690.806C1510.62 690.806 1497.69 677.866 1497.69 661.905V594.73Z" fill="#C63B3B"/>
</g>
<g id="Vector_5" filter="url(#filter4_d_75_401)">
<path d="M411.203 552.88C426.351 485.911 521.792 485.911 536.94 552.881L561.541 661.644C570.659 701.951 540.007 740.299 498.673 740.299H449.47C408.135 740.299 377.484 701.951 386.601 661.644L411.203 552.88Z" fill="#E06A6A"/>
<path d="M542.211 406.585C542.211 444.717 511.291 475.63 473.151 475.63C435.01 475.63 404.091 444.717 404.091 406.585C404.091 368.453 435.01 337.541 473.151 337.541C511.291 337.541 542.211 368.453 542.211 406.585Z" fill="#E06A6A"/>
<path d="M486.963 706.698C486.963 687.886 502.216 672.636 521.032 672.636C539.848 672.636 555.102 687.886 555.102 706.698V785.868C555.102 804.68 539.848 819.93 521.032 819.93C502.216 819.93 486.963 804.68 486.963 785.868V706.698Z" fill="#E06A6A"/>
<path d="M513.609 574.742C503.978 558.582 509.274 537.675 525.439 528.046C541.603 518.418 562.515 523.713 572.146 539.874L612.678 607.888C622.309 624.048 617.012 644.955 600.848 654.584C584.683 664.212 563.772 658.917 554.141 642.756L513.609 574.742Z" fill="#E06A6A"/>
<path d="M374.165 540.11C383.573 523.819 404.409 518.237 420.704 527.643C437 537.049 442.583 557.881 433.175 574.172L393.58 642.736C384.172 659.028 363.336 664.609 347.04 655.204C330.745 645.798 325.162 624.966 334.57 608.674L374.165 540.11Z" fill="#E06A6A"/>
<path d="M391.199 706.698C391.199 687.886 406.453 672.636 425.269 672.636C444.085 672.636 459.339 687.886 459.339 706.698V785.868C459.339 804.68 444.085 819.93 425.269 819.93C406.453 819.93 391.199 804.68 391.199 785.868V706.698Z" fill="#E06A6A"/>
</g>
<g id="Vector_6" filter="url(#filter5_d_75_401)">
<path d="M1083.62 552.88C1098.77 485.911 1194.21 485.911 1209.36 552.881L1233.96 661.644C1243.08 701.951 1212.43 740.299 1171.09 740.299H1121.89C1080.56 740.299 1049.91 701.951 1059.02 661.644L1083.62 552.88Z" fill="#E06A6A"/>
<path d="M1214.63 406.585C1214.63 444.717 1183.71 475.63 1145.57 475.63C1107.43 475.63 1076.51 444.717 1076.51 406.585C1076.51 368.453 1107.43 337.541 1145.57 337.541C1183.71 337.541 1214.63 368.453 1214.63 406.585Z" fill="#E06A6A"/>
<path d="M1159.38 706.698C1159.38 687.886 1174.64 672.636 1193.45 672.636C1212.27 672.636 1227.52 687.886 1227.52 706.698V785.868C1227.52 804.68 1212.27 819.93 1193.45 819.93C1174.64 819.93 1159.38 804.68 1159.38 785.868V706.698Z" fill="#E06A6A"/>
<path d="M1186.03 574.742C1176.4 558.582 1181.7 537.675 1197.86 528.046C1214.02 518.418 1234.94 523.713 1244.57 539.874L1285.1 607.888C1294.73 624.048 1289.43 644.955 1273.27 654.584C1257.1 664.212 1236.19 658.917 1226.56 642.756L1186.03 574.742Z" fill="#E06A6A"/>
<path d="M1046.59 540.11C1055.99 523.819 1076.83 518.237 1093.13 527.643C1109.42 537.049 1115 557.881 1105.6 574.172L1066 642.736C1056.59 659.028 1035.76 664.609 1019.46 655.204C1003.17 645.798 997.583 624.966 1006.99 608.674L1046.59 540.11Z" fill="#E06A6A"/>
<path d="M1063.62 706.698C1063.62 687.886 1078.87 672.636 1097.69 672.636C1116.51 672.636 1131.76 687.886 1131.76 706.698V785.868C1131.76 804.68 1116.51 819.93 1097.69 819.93C1078.87 819.93 1063.62 804.68 1063.62 785.868V706.698Z" fill="#E06A6A"/>
</g>
<g id="Vector_7" filter="url(#filter6_d_75_401)">
<path d="M747.414 552.88C762.562 485.911 858.002 485.911 873.15 552.881L897.752 661.644C906.869 701.951 876.218 740.299 834.884 740.299H785.68C744.346 740.299 713.695 701.951 722.812 661.644L747.414 552.88Z" fill="#E06A6A"/>
<path d="M878.421 406.585C878.421 444.717 847.502 475.63 809.361 475.63C771.22 475.63 740.301 444.717 740.301 406.585C740.301 368.453 771.22 337.541 809.361 337.541C847.502 337.541 878.421 368.453 878.421 406.585Z" fill="#E06A6A"/>
<path d="M823.173 706.698C823.173 687.886 838.427 672.636 857.243 672.636C876.059 672.636 891.312 687.886 891.312 706.698V785.868C891.312 804.68 876.059 819.93 857.243 819.93C838.427 819.93 823.173 804.68 823.173 785.868V706.698Z" fill="#E06A6A"/>
<path d="M849.82 574.742C840.189 558.582 845.485 537.675 861.65 528.046C877.814 518.418 898.726 523.713 908.356 539.874L948.889 607.888C958.52 624.048 953.223 644.955 937.059 654.584C920.894 664.212 899.983 658.917 890.352 642.756L849.82 574.742Z" fill="#E06A6A"/>
<path d="M710.375 540.11C719.783 523.819 740.62 518.237 756.915 527.643C773.21 537.049 778.794 557.881 769.386 574.172L729.791 642.736C720.383 659.028 699.546 664.609 683.251 655.204C666.956 645.798 661.373 624.966 670.781 608.674L710.375 540.11Z" fill="#E06A6A"/>
<path d="M727.41 706.698C727.41 687.886 742.664 672.636 761.48 672.636C780.296 672.636 795.549 687.886 795.549 706.698V785.868C795.549 804.68 780.296 819.93 761.48 819.93C742.664 819.93 727.41 804.68 727.41 785.868V706.698Z" fill="#E06A6A"/>
</g>
<g id="Vector_8" filter="url(#filter7_d_75_401)">
<path d="M888.719 664.951C903.868 597.981 999.308 597.981 1014.46 664.951L1039.06 773.714C1048.18 814.021 1017.52 852.369 976.19 852.369H926.986C885.652 852.369 855.001 814.021 864.118 773.714L888.719 664.951Z" fill="#FB8D8D"/>
<path d="M1019.73 518.656C1019.73 556.788 988.808 587.7 950.667 587.7C912.526 587.7 881.607 556.788 881.607 518.656C881.607 480.523 912.526 449.611 950.667 449.611C988.808 449.611 1019.73 480.523 1019.73 518.656Z" fill="#FB8D8D"/>
<path d="M964.479 818.768C964.479 799.956 979.733 784.706 998.549 784.706C1017.36 784.706 1032.62 799.956 1032.62 818.768V897.939C1032.62 916.75 1017.36 932 998.549 932C979.733 932 964.479 916.75 964.479 897.939V818.768Z" fill="#FB8D8D"/>
<path d="M991.125 686.813C981.495 670.652 986.791 649.745 1002.96 640.117C1019.12 630.488 1040.03 635.783 1049.66 651.944L1090.19 719.958C1099.83 736.119 1094.53 757.025 1078.36 766.654C1062.2 776.283 1041.29 770.987 1031.66 754.827L991.125 686.813Z" fill="#FB8D8D"/>
<path d="M851.681 652.181C861.089 635.889 881.926 630.307 898.221 639.713C914.516 649.119 920.099 669.951 910.691 686.242L871.097 754.806C861.689 771.098 840.852 776.68 824.557 767.274C808.262 757.868 802.679 737.036 812.087 720.745L851.681 652.181Z" fill="#FB8D8D"/>
<path d="M868.716 818.768C868.716 799.956 883.969 784.706 902.786 784.706C921.602 784.706 936.855 799.956 936.855 818.768V897.939C936.855 916.75 921.602 932 902.786 932C883.969 932 868.716 916.75 868.716 897.939V818.768Z" fill="#FB8D8D"/>
</g>
<g id="Vector_9" filter="url(#filter8_d_75_401)">
<path d="M1419.83 552.88C1434.98 485.911 1530.42 485.911 1545.57 552.881L1570.17 661.644C1579.29 701.951 1548.64 740.299 1507.3 740.299H1458.1C1416.77 740.299 1386.12 701.951 1395.23 661.644L1419.83 552.88Z" fill="#E06A6A"/>
<path d="M1550.84 406.585C1550.84 444.717 1519.92 475.63 1481.78 475.63C1443.64 475.63 1412.72 444.717 1412.72 406.585C1412.72 368.453 1443.64 337.541 1481.78 337.541C1519.92 337.541 1550.84 368.453 1550.84 406.585Z" fill="#E06A6A"/>
<path d="M1495.59 706.698C1495.59 687.886 1510.85 672.636 1529.66 672.636C1548.48 672.636 1563.73 687.886 1563.73 706.698V785.868C1563.73 804.68 1548.48 819.93 1529.66 819.93C1510.85 819.93 1495.59 804.68 1495.59 785.868V706.698Z" fill="#E06A6A"/>
<path d="M1522.24 574.742C1512.61 558.582 1517.91 537.675 1534.07 528.046C1550.24 518.418 1571.15 523.713 1580.78 539.874L1621.31 607.888C1630.94 624.048 1625.64 644.955 1609.48 654.584C1593.32 664.212 1572.4 658.917 1562.77 642.756L1522.24 574.742Z" fill="#E06A6A"/>
<path d="M1382.8 540.11C1392.2 523.819 1413.04 518.237 1429.34 527.643C1445.63 537.049 1451.21 557.881 1441.81 574.172L1402.21 642.736C1392.8 659.028 1371.97 664.609 1355.67 655.204C1339.38 645.798 1333.79 624.966 1343.2 608.674L1382.8 540.11Z" fill="#E06A6A"/>
<path d="M1399.83 706.698C1399.83 687.886 1415.08 672.636 1433.9 672.636C1452.72 672.636 1467.97 687.886 1467.97 706.698V785.868C1467.97 804.68 1452.72 819.93 1433.9 819.93C1415.08 819.93 1399.83 804.68 1399.83 785.868V706.698Z" fill="#E06A6A"/>
</g>
<g id="Vector_10" filter="url(#filter9_d_75_401)">
<path d="M552.509 664.951C567.657 597.981 663.098 597.981 678.246 664.951L702.847 773.714C711.965 814.021 681.313 852.369 639.979 852.369H590.776C549.441 852.369 518.79 814.021 527.907 773.714L552.509 664.951Z" fill="#FB8D8D"/>
<path d="M683.516 518.656C683.516 556.788 652.597 587.7 614.456 587.7C576.316 587.7 545.396 556.788 545.396 518.656C545.396 480.523 576.316 449.611 614.456 449.611C652.597 449.611 683.516 480.523 683.516 518.656Z" fill="#FB8D8D"/>
<path d="M628.268 818.768C628.268 799.956 643.522 784.706 662.338 784.706C681.154 784.706 696.408 799.956 696.408 818.768V897.939C696.408 916.75 681.154 932 662.338 932C643.522 932 628.268 916.75 628.268 897.939V818.768Z" fill="#FB8D8D"/>
<path d="M654.915 686.813C645.284 670.652 650.58 649.745 666.745 640.117C682.909 630.488 703.821 635.783 713.452 651.944L753.984 719.958C763.615 736.119 758.318 757.025 742.154 766.654C725.989 776.283 705.078 770.987 695.447 754.827L654.915 686.813Z" fill="#FB8D8D"/>
<path d="M515.47 652.181C524.879 635.889 545.715 630.307 562.01 639.713C578.306 649.119 583.889 669.951 574.481 686.242L534.886 754.806C525.478 771.098 504.642 776.68 488.346 767.274C472.051 757.868 466.468 737.036 475.876 720.745L515.47 652.181Z" fill="#FB8D8D"/>
<path d="M532.505 818.768C532.505 799.956 547.759 784.706 566.575 784.706C585.391 784.706 600.644 799.956 600.644 818.768V897.939C600.644 916.75 585.391 932 566.575 932C547.759 932 532.505 916.75 532.505 897.939V818.768Z" fill="#FB8D8D"/>
</g>
<g id="Vector_11" filter="url(#filter10_d_75_401)">
<path d="M1224.93 664.951C1240.08 597.981 1335.52 597.981 1350.67 664.951L1375.27 773.714C1384.39 814.021 1353.73 852.369 1312.4 852.369H1263.2C1221.86 852.369 1191.21 814.021 1200.33 773.714L1224.93 664.951Z" fill="#FB8D8D"/>
<path d="M1355.94 518.656C1355.94 556.788 1325.02 587.7 1286.88 587.7C1248.74 587.7 1217.82 556.788 1217.82 518.656C1217.82 480.523 1248.74 449.611 1286.88 449.611C1325.02 449.611 1355.94 480.523 1355.94 518.656Z" fill="#FB8D8D"/>
<path d="M1300.69 818.768C1300.69 799.956 1315.94 784.706 1334.76 784.706C1353.58 784.706 1368.83 799.956 1368.83 818.768V897.939C1368.83 916.75 1353.58 932 1334.76 932C1315.94 932 1300.69 916.75 1300.69 897.939V818.768Z" fill="#FB8D8D"/>
<path d="M1327.34 686.813C1317.71 670.652 1323 649.745 1339.17 640.117C1355.33 630.488 1376.24 635.783 1385.87 651.944L1426.41 719.958C1436.04 736.119 1430.74 757.025 1414.58 766.654C1398.41 776.283 1377.5 770.987 1367.87 754.827L1327.34 686.813Z" fill="#FB8D8D"/>
<path d="M1187.89 652.181C1197.3 635.889 1218.14 630.307 1234.43 639.713C1250.73 649.119 1256.31 669.951 1246.9 686.242L1207.31 754.806C1197.9 771.098 1177.06 776.68 1160.77 767.274C1144.47 757.868 1138.89 737.036 1148.3 720.745L1187.89 652.181Z" fill="#FB8D8D"/>
<path d="M1204.93 818.768C1204.93 799.956 1220.18 784.706 1239 784.706C1257.81 784.706 1273.07 799.956 1273.07 818.768V897.939C1273.07 916.75 1257.81 932 1239 932C1220.18 932 1204.93 916.75 1204.93 897.939V818.768Z" fill="#FB8D8D"/>
</g>
</g>
<circle id="Ellipse 2" cx="455" cy="730" r="8" fill="#73839A"/>
<rect id="Rectangle 6" x="414.846" y="739.822" width="34.7399" height="26.4219" rx="7" transform="rotate(-34.487 414.846 739.822)" fill="#3E5068"/>
<rect id="Rectangle 4" x="469.626" y="722.827" width="59.8395" height="72.5393" rx="8" transform="rotate(55.0705 469.626 722.827)" fill="#485C77"/>
<rect id="Rectangle 5" x="413.168" y="765" width="27.0588" height="69.1902" rx="4" transform="rotate(73.0033 413.168 765)" fill="#485C77"/>
<circle id="Ellipse 1" cx="413.983" cy="764.983" r="4.5" transform="rotate(25.0705 413.983 764.983)" fill="#405066"/>
</g>
<defs>
<filter id="filter0_d_75_401" x="584.249" y="281.506" width="251.631" height="417.3" filterUnits="userSpaceOnUse" color-interpolation-filters="sRGB">
<feFlood flood-opacity="0" result="BackgroundImageFix"/>
<feColorMatrix in="SourceAlpha" type="matrix" values="0 0 0 0 0 0 0 0 0 0 0 0 0 0 0 0 0 0 127 0" result="hardAlpha"/>
<feOffset dy="4"/>
<feGaussianBlur stdDeviation="2"/>
<feComposite in2="hardAlpha" operator="out"/>
<feColorMatrix type="matrix" values="0 0 0 0 0 0 0 0 0 0 0 0 0 0 0 0 0 0 0.25 0"/>
<feBlend mode="normal" in2="BackgroundImageFix" result="effect1_dropShadow_75_401"/>
<feBlend mode="normal" in="SourceGraphic" in2="effect1_dropShadow_75_401" result="shape"/>
</filter>
<filter id="filter1_d_75_401" x="1154.34" y="281.506" width="254.067" height="417.3" filterUnits="userSpaceOnUse" color-interpolation-filters="sRGB">
<feFlood flood-opacity="0" result="BackgroundImageFix"/>
<feColorMatrix in="SourceAlpha" type="matrix" values="0 0 0 0 0 0 0 0 0 0 0 0 0 0 0 0 0 0 127 0" result="hardAlpha"/>
<feOffset dy="4"/>
<feGaussianBlur stdDeviation="2"/>
<feComposite in2="hardAlpha" operator="out"/>
<feColorMatrix type="matrix" values="0 0 0 0 0 0 0 0 0 0 0 0 0 0 0 0 0 0 0.25 0"/>
<feBlend mode="normal" in2="BackgroundImageFix" result="effect1_dropShadow_75_401"/>
<feBlend mode="normal" in="SourceGraphic" in2="effect1_dropShadow_75_401" result="shape"/>
</filter>
<filter id="filter2_d_75_401" x="869.297" y="281.506" width="254.067" height="417.3" filterUnits="userSpaceOnUse" color-interpolation-filters="sRGB">
<feFlood flood-opacity="0" result="BackgroundImageFix"/>
<feColorMatrix in="SourceAlpha" type="matrix" values="0 0 0 0 0 0 0 0 0 0 0 0 0 0 0 0 0 0 127 0" result="hardAlpha"/>
<feOffset dy="4"/>
<feGaussianBlur stdDeviation="2"/>
<feComposite in2="hardAlpha" operator="out"/>
<feColorMatrix type="matrix" values="0 0 0 0 0 0 0 0 0 0 0 0 0 0 0 0 0 0 0.25 0"/>
<feBlend mode="normal" in2="BackgroundImageFix" result="effect1_dropShadow_75_401"/>
<feBlend mode="normal" in="SourceGraphic" in2="effect1_dropShadow_75_401" result="shape"/>
</filter>
<filter id="filter4_d_75_401" x="326" y="337.541" width="295.484" height="490.389" filterUnits="userSpaceOnUse" color-interpolation-filters="sRGB">
<feFlood flood-opacity="0" result="BackgroundImageFix"/>
<feColorMatrix in="SourceAlpha" type="matrix" values="0 0 0 0 0 0 0 0 0 0 0 0 0 0 0 0 0 0 127 0" result="hardAlpha"/>
<feOffset dy="4"/>
<feGaussianBlur stdDeviation="2"/>
<feComposite in2="hardAlpha" operator="out"/>
<feColorMatrix type="matrix" values="0 0 0 0 0 0 0 0 0 0 0 0 0 0 0 0 0 0 0.25 0"/>
<feBlend mode="normal" in2="BackgroundImageFix" result="effect1_dropShadow_75_401"/>
<feBlend mode="normal" in="SourceGraphic" in2="effect1_dropShadow_75_401" result="shape"/>
</filter>
<filter id="filter5_d_75_401" x="998.421" y="337.541" width="295.484" height="490.389" filterUnits="userSpaceOnUse" color-interpolation-filters="sRGB">
<feFlood flood-opacity="0" result="BackgroundImageFix"/>
<feColorMatrix in="SourceAlpha" type="matrix" values="0 0 0 0 0 0 0 0 0 0 0 0 0 0 0 0 0 0 127 0" result="hardAlpha"/>
<feOffset dy="4"/>
<feGaussianBlur stdDeviation="2"/>
<feComposite in2="hardAlpha" operator="out"/>
<feColorMatrix type="matrix" values="0 0 0 0 0 0 0 0 0 0 0 0 0 0 0 0 0 0 0.25 0"/>
<feBlend mode="normal" in2="BackgroundImageFix" result="effect1_dropShadow_75_401"/>
<feBlend mode="normal" in="SourceGraphic" in2="effect1_dropShadow_75_401" result="shape"/>
</filter>
<filter id="filter6_d_75_401" x="662.211" y="337.541" width="295.484" height="490.389" filterUnits="userSpaceOnUse" color-interpolation-filters="sRGB">
<feFlood flood-opacity="0" result="BackgroundImageFix"/>
<feColorMatrix in="SourceAlpha" type="matrix" values="0 0 0 0 0 0 0 0 0 0 0 0 0 0 0 0 0 0 127 0" result="hardAlpha"/>
<feOffset dy="4"/>
<feGaussianBlur stdDeviation="2"/>
<feComposite in2="hardAlpha" operator="out"/>
<feColorMatrix type="matrix" values="0 0 0 0 0 0 0 0 0 0 0 0 0 0 0 0 0 0 0.25 0"/>
<feBlend mode="normal" in2="BackgroundImageFix" result="effect1_dropShadow_75_401"/>
<feBlend mode="normal" in="SourceGraphic" in2="effect1_dropShadow_75_401" result="shape"/>
</filter>
<filter id="filter7_d_75_401" x="803.517" y="449.611" width="295.484" height="490.389" filterUnits="userSpaceOnUse" color-interpolation-filters="sRGB">
<feFlood flood-opacity="0" result="BackgroundImageFix"/>
<feColorMatrix in="SourceAlpha" type="matrix" values="0 0 0 0 0 0 0 0 0 0 0 0 0 0 0 0 0 0 127 0" result="hardAlpha"/>
<feOffset dy="4"/>
<feGaussianBlur stdDeviation="2"/>
<feComposite in2="hardAlpha" operator="out"/>
<feColorMatrix type="matrix" values="0 0 0 0 0 0 0 0 0 0 0 0 0 0 0 0 0 0 0.25 0"/>
<feBlend mode="normal" in2="BackgroundImageFix" result="effect1_dropShadow_75_401"/>
<feBlend mode="normal" in="SourceGraphic" in2="effect1_dropShadow_75_401" result="shape"/>
</filter>
<filter id="filter8_d_75_401" x="1334.63" y="337.541" width="295.484" height="490.389" filterUnits="userSpaceOnUse" color-interpolation-filters="sRGB">
<feFlood flood-opacity="0" result="BackgroundImageFix"/>
<feColorMatrix in="SourceAlpha" type="matrix" values="0 0 0 0 0 0 0 0 0 0 0 0 0 0 0 0 0 0 127 0" result="hardAlpha"/>
<feOffset dy="4"/>
<feGaussianBlur stdDeviation="2"/>
<feComposite in2="hardAlpha" operator="out"/>
<feColorMatrix type="matrix" values="0 0 0 0 0 0 0 0 0 0 0 0 0 0 0 0 0 0 0.25 0"/>
<feBlend mode="normal" in2="BackgroundImageFix" result="effect1_dropShadow_75_401"/>
<feBlend mode="normal" in="SourceGraphic" in2="effect1_dropShadow_75_401" result="shape"/>
</filter>
<filter id="filter9_d_75_401" x="467.306" y="449.611" width="295.484" height="490.389" filterUnits="userSpaceOnUse" color-interpolation-filters="sRGB">
<feFlood flood-opacity="0" result="BackgroundImageFix"/>
<feColorMatrix in="SourceAlpha" type="matrix" values="0 0 0 0 0 0 0 0 0 0 0 0 0 0 0 0 0 0 127 0" result="hardAlpha"/>
<feOffset dy="4"/>
<feGaussianBlur stdDeviation="2"/>
<feComposite in2="hardAlpha" operator="out"/>
<feColorMatrix type="matrix" values="0 0 0 0 0 0 0 0 0 0 0 0 0 0 0 0 0 0 0.25 0"/>
<feBlend mode="normal" in2="BackgroundImageFix" result="effect1_dropShadow_75_401"/>
<feBlend mode="normal" in="SourceGraphic" in2="effect1_dropShadow_75_401" result="shape"/>
</filter>
<filter id="filter10_d_75_401" x="1139.73" y="449.611" width="295.484" height="490.389" filterUnits="userSpaceOnUse" color-interpolation-filters="sRGB">
<feFlood flood-opacity="0" result="BackgroundImageFix"/>
<feColorMatrix in="SourceAlpha" type="matrix" values="0 0 0 0 0 0 0 0 0 0 0 0 0 0 0 0 0 0 127 0" result="hardAlpha"/>
<feOffset dy="4"/>
<feGaussianBlur stdDeviation="2"/>
<feComposite in2="hardAlpha" operator="out"/>
<feColorMatrix type="matrix" values="0 0 0 0 0 0 0 0 0 0 0 0 0 0 0 0 0 0 0.25 0"/>
<feBlend mode="normal" in2="BackgroundImageFix" result="effect1_dropShadow_75_401"/>
<feBlend mode="normal" in="SourceGraphic" in2="effect1_dropShadow_75_401" result="shape"/>
</filter>
<clipPath id="clip0_75_401">
<rect width="1440" height="1024" fill="white"/>
</clipPath>
</defs>
</svg>
