<svg width="1440" height="1024" viewBox="0 0 1440 1024" fill="none" xmlns="http://www.w3.org/2000/svg">
<g id="run1-yes">
<rect width="1440" height="1024" fill="#333148"/>
<path id="part 2" d="M47.096 132.12V60.024H61.688L62.264 71.448L59.384 70.584C59.832 68.536 61.048 66.648 63.032 64.92C65.016 63.192 67.512 61.784 70.52 60.696C73.592 59.608 76.856 59.064 80.312 59.064C85.304 59.064 89.688 60.216 93.464 62.52C97.24 64.76 100.184 67.864 102.296 71.832C104.472 75.736 105.56 80.28 105.56 85.464C105.56 90.584 104.472 95.128 102.296 99.096C100.184 103.064 97.208 106.2 93.368 108.504C89.528 110.744 85.112 111.864 80.12 111.864C76.664 111.864 73.432 111.288 70.424 110.136C67.416 108.984 64.888 107.48 62.84 105.624C60.856 103.768 59.576 101.816 59 99.768L62.552 98.424V132.12H47.096ZM76.376 98.904C79.256 98.904 81.752 98.36 83.864 97.272C85.976 96.12 87.608 94.552 88.76 92.568C89.976 90.584 90.584 88.216 90.584 85.464C90.584 82.776 89.976 80.44 88.76 78.456C87.608 76.408 85.976 74.84 83.864 73.752C81.816 72.6 79.32 72.024 76.376 72.024C73.496 72.024 70.968 72.568 68.792 73.656C66.68 74.744 65.016 76.312 63.8 78.36C62.648 80.408 62.072 82.776 62.072 85.464C62.072 88.216 62.648 90.584 63.8 92.568C65.016 94.552 66.68 96.12 68.792 97.272C70.968 98.36 73.496 98.904 76.376 98.904ZM144.211 111.864C139.155 111.864 134.739 110.744 130.963 108.504C127.187 106.264 124.211 103.16 122.035 99.192C119.923 95.16 118.867 90.584 118.867 85.464C118.867 80.28 119.955 75.704 122.131 71.736C124.307 67.768 127.315 64.664 131.155 62.424C135.059 60.12 139.539 58.968 144.595 58.968C147.475 58.968 150.131 59.352 152.563 60.12C154.995 60.824 157.107 61.816 158.899 63.096C160.755 64.376 162.259 65.784 163.411 67.32C164.627 68.856 165.427 70.456 165.811 72.12H162.451V60.024H177.619V111H162.163V97.944L165.427 98.424C165.043 100.088 164.243 101.72 163.027 103.32C161.811 104.92 160.243 106.36 158.323 107.64C156.403 108.92 154.227 109.944 151.795 110.712C149.427 111.48 146.899 111.864 144.211 111.864ZM148.339 98.904C151.219 98.904 153.715 98.36 155.827 97.272C158.003 96.184 159.667 94.648 160.819 92.664C162.035 90.616 162.643 88.216 162.643 85.464C162.643 82.776 162.035 80.44 160.819 78.456C159.667 76.408 158.003 74.808 155.827 73.656C153.715 72.504 151.219 71.928 148.339 71.928C145.459 71.928 142.963 72.504 140.851 73.656C138.739 74.808 137.075 76.408 135.859 78.456C134.707 80.44 134.131 82.776 134.131 85.464C134.131 88.216 134.707 90.616 135.859 92.664C137.075 94.648 138.739 96.184 140.851 97.272C142.963 98.36 145.459 98.904 148.339 98.904ZM201.315 111V60.024H215.907L216.579 77.592L212.931 75.768C213.763 72.632 215.203 69.816 217.251 67.32C219.363 64.76 221.763 62.744 224.451 61.272C227.203 59.736 230.115 58.968 233.187 58.968C234.851 58.968 236.419 59.128 237.891 59.448C239.427 59.768 240.739 60.184 241.827 60.696L237.603 77.496C236.643 76.792 235.331 76.248 233.667 75.864C232.067 75.48 230.435 75.288 228.771 75.288C226.915 75.288 225.219 75.608 223.683 76.248C222.211 76.824 220.963 77.656 219.939 78.744C218.915 79.768 218.115 80.952 217.539 82.296C217.027 83.64 216.771 85.08 216.771 86.616V111H201.315ZM265.932 111V46.008H281.292V111H265.932ZM254.604 73.464V60.024H294.252V73.464H254.604ZM348.136 111L344.776 102.264L364.552 82.776C366.088 81.304 367.624 79.768 369.16 78.168C370.76 76.504 372.264 74.808 373.672 73.08C375.08 71.352 376.2 69.688 377.032 68.088C377.864 66.424 378.28 64.952 378.28 63.672C378.28 62.328 377.96 61.176 377.32 60.216C376.744 59.192 375.848 58.392 374.632 57.816C373.48 57.24 372.008 56.952 370.216 56.952C368.552 56.952 366.888 57.336 365.224 58.104C363.624 58.808 362.088 59.928 360.616 61.464C359.208 62.936 357.864 64.888 356.584 67.32L344.488 60.6C346.152 57.08 348.328 53.944 351.016 51.192C353.768 48.376 356.904 46.2 360.424 44.664C364.008 43.064 367.848 42.264 371.944 42.264C376.232 42.328 380.04 43.192 383.368 44.856C386.696 46.456 389.32 48.696 391.24 51.576C393.224 54.456 394.216 57.816 394.216 61.656C394.216 63.384 393.928 65.112 393.352 66.84C392.84 68.568 392.104 70.296 391.144 72.024C390.184 73.688 389.032 75.448 387.688 77.304C386.344 79.096 384.84 80.92 383.176 82.776C381.512 84.632 379.72 86.52 377.8 88.44L361.288 104.472L360.136 96.6H397.192V111H348.136Z" fill="white"/>
<rect id="Rectangle 7" y="546" width="1440" height="185" fill="#211F2F"/>
<g id="Group 4">
<g id="Vector" filter="url(#filter0_d_104_33)">
<path d="M559.246 452.996C564.515 429.672 597.714 429.672 602.983 452.996L611.541 490.874C614.712 504.912 604.05 518.267 589.672 518.267H572.557C558.179 518.267 547.517 504.912 550.688 490.874L559.246 452.996Z" fill="#3B5EC6"/>
<path d="M604.816 402.046C604.816 415.326 594.061 426.092 580.794 426.092C567.527 426.092 556.772 415.326 556.772 402.046C556.772 388.766 567.527 378 580.794 378C594.061 378 604.816 388.766 604.816 402.046Z" fill="#3B5EC6"/>
<path d="M585.599 506.565C585.599 500.013 590.904 494.702 597.45 494.702C603.995 494.702 609.3 500.013 609.3 506.565V534.137C609.3 540.689 603.995 546 597.45 546C590.904 546 585.599 540.689 585.599 534.137V506.565Z" fill="#3B5EC6"/>
<path d="M594.867 460.609C591.517 454.981 593.36 447.7 598.982 444.347C604.605 440.993 611.879 442.837 615.229 448.466L629.328 472.153C632.678 477.781 630.836 485.062 625.213 488.415C619.59 491.769 612.316 489.925 608.966 484.296L594.867 460.609Z" fill="#3B5EC6"/>
<path d="M546.362 448.548C549.635 442.874 556.883 440.93 562.551 444.206C568.219 447.482 570.161 454.737 566.889 460.411L553.116 484.289C549.844 489.963 542.596 491.907 536.927 488.631C531.259 485.355 529.317 478.1 532.59 472.427L546.362 448.548Z" fill="#3B5EC6"/>
<path d="M552.288 506.565C552.288 500.013 557.594 494.702 564.139 494.702C570.684 494.702 575.99 500.013 575.99 506.565V534.137C575.99 540.689 570.684 546 564.139 546C557.594 546 552.288 540.689 552.288 534.137V506.565Z" fill="#3B5EC6"/>
</g>
<g id="Vector_2" filter="url(#filter1_d_104_33)">
<path d="M793.528 452.996C798.85 429.672 832.381 429.672 837.703 452.996L846.346 490.874C849.549 504.912 838.78 518.267 824.259 518.267H806.972C792.451 518.267 781.682 504.912 784.885 490.874L793.528 452.996Z" fill="#3B5EC6"/>
<path d="M839.555 402.046C839.555 415.326 828.692 426.092 815.292 426.092C801.892 426.092 791.03 415.326 791.03 402.046C791.03 388.766 801.892 378 815.292 378C828.692 378 839.555 388.766 839.555 402.046Z" fill="#3B5EC6"/>
<path d="M820.145 506.565C820.145 500.013 825.504 494.702 832.114 494.702C838.725 494.702 844.083 500.013 844.083 506.565V534.137C844.083 540.689 838.725 546 832.114 546C825.504 546 820.145 540.689 820.145 534.137V506.565Z" fill="#3B5EC6"/>
<path d="M829.506 460.609C826.123 454.981 827.983 447.7 833.662 444.347C839.341 440.993 846.688 442.837 850.071 448.466L864.311 472.153C867.695 477.781 865.834 485.062 860.155 488.415C854.476 491.769 847.13 489.925 843.746 484.296L829.506 460.609Z" fill="#3B5EC6"/>
<path d="M780.516 448.548C783.821 442.874 791.142 440.93 796.867 444.206C802.591 447.482 804.553 454.737 801.248 460.411L787.337 484.289C784.032 489.963 776.712 491.907 770.987 488.631C765.262 485.355 763.3 478.1 766.606 472.427L780.516 448.548Z" fill="#3B5EC6"/>
<path d="M786.501 506.565C786.501 500.013 791.86 494.702 798.47 494.702C805.081 494.702 810.44 500.013 810.44 506.565V534.137C810.44 540.689 805.081 546 798.47 546C791.86 546 786.501 540.689 786.501 534.137V506.565Z" fill="#3B5EC6"/>
</g>
<g id="Vector_3" filter="url(#filter2_d_104_33)">
<path d="M676.528 452.996C681.85 429.672 715.381 429.672 720.703 452.996L729.346 490.874C732.549 504.912 721.78 518.267 707.259 518.267H689.972C675.451 518.267 664.682 504.912 667.885 490.874L676.528 452.996Z" fill="#3B5EC6"/>
<path d="M722.555 402.046C722.555 415.326 711.692 426.092 698.292 426.092C684.892 426.092 674.03 415.326 674.03 402.046C674.03 388.766 684.892 378 698.292 378C711.692 378 722.555 388.766 722.555 402.046Z" fill="#3B5EC6"/>
<path d="M703.145 506.565C703.145 500.013 708.504 494.702 715.114 494.702C721.725 494.702 727.083 500.013 727.083 506.565V534.137C727.083 540.689 721.725 546 715.114 546C708.504 546 703.145 540.689 703.145 534.137V506.565Z" fill="#3B5EC6"/>
<path d="M712.506 460.609C709.123 454.981 710.983 447.7 716.662 444.347C722.341 440.993 729.688 442.837 733.071 448.466L747.311 472.153C750.695 477.781 748.834 485.062 743.155 488.415C737.476 491.769 730.13 489.925 726.746 484.296L712.506 460.609Z" fill="#3B5EC6"/>
<path d="M663.516 448.548C666.821 442.874 674.142 440.93 679.867 444.206C685.591 447.482 687.553 454.737 684.248 460.411L670.337 484.289C667.032 489.963 659.712 491.907 653.987 488.631C648.262 485.355 646.3 478.1 649.606 472.427L663.516 448.548Z" fill="#3B5EC6"/>
<path d="M669.501 506.565C669.501 500.013 674.86 494.702 681.47 494.702C688.081 494.702 693.44 500.013 693.44 506.565V534.137C693.44 540.689 688.081 546 681.47 546C674.86 546 669.501 540.689 669.501 534.137V506.565Z" fill="#3B5EC6"/>
</g>
<g id="Vector_4" filter="url(#filter3_d_104_33)">
<path d="M911.246 452.996C916.515 429.672 949.714 429.672 954.983 452.996L963.541 490.874C966.712 504.912 956.05 518.267 941.672 518.267H924.557C910.179 518.267 899.517 504.912 902.688 490.874L911.246 452.996Z" fill="#3B5EC6"/>
<path d="M956.816 402.046C956.816 415.326 946.061 426.092 932.794 426.092C919.527 426.092 908.772 415.326 908.772 402.046C908.772 388.766 919.527 378 932.794 378C946.061 378 956.816 388.766 956.816 402.046Z" fill="#3B5EC6"/>
<path d="M937.599 506.565C937.599 500.013 942.904 494.702 949.45 494.702C955.995 494.702 961.3 500.013 961.3 506.565V534.137C961.3 540.689 955.995 546 949.45 546C942.904 546 937.599 540.689 937.599 534.137V506.565Z" fill="#3B5EC6"/>
<path d="M946.867 460.609C943.517 454.981 945.36 447.7 950.982 444.347C956.605 440.993 963.879 442.837 967.229 448.466L981.328 472.153C984.678 477.781 982.836 485.062 977.213 488.415C971.59 491.769 964.316 489.925 960.966 484.296L946.867 460.609Z" fill="#3B5EC6"/>
<path d="M898.362 448.548C901.635 442.874 908.883 440.93 914.551 444.206C920.219 447.482 922.161 454.737 918.889 460.411L905.116 484.289C901.844 489.963 894.596 491.907 888.927 488.631C883.259 485.355 881.317 478.1 884.59 472.427L898.362 448.548Z" fill="#3B5EC6"/>
<path d="M904.288 506.565C904.288 500.013 909.594 494.702 916.139 494.702C922.684 494.702 927.99 500.013 927.99 506.565V534.137C927.99 540.689 922.684 546 916.139 546C909.594 546 904.288 540.689 904.288 534.137V506.565Z" fill="#3B5EC6"/>
</g>
<g id="Vector_5" filter="url(#filter4_d_104_33)">
<path d="M458.33 489.388C464.548 461.899 503.722 461.899 509.94 489.388L520.038 534.03C523.78 550.575 511.199 566.315 494.233 566.315H474.037C457.071 566.315 444.49 550.575 448.232 534.03L458.33 489.388Z" fill="#6A94E0"/>
<path d="M512.103 429.34C512.103 444.991 499.412 457.679 483.757 457.679C468.102 457.679 455.411 444.991 455.411 429.34C455.411 413.688 468.102 401 483.757 401C499.412 401 512.103 413.688 512.103 429.34Z" fill="#6A94E0"/>
<path d="M489.426 552.523C489.426 544.801 495.687 538.542 503.41 538.542C511.134 538.542 517.395 544.801 517.395 552.523V585.019C517.395 592.741 511.134 599 503.41 599C495.687 599 489.426 592.741 489.426 585.019V552.523Z" fill="#6A94E0"/>
<path d="M500.364 498.361C496.41 491.728 498.584 483.146 505.219 479.194C511.854 475.242 520.437 477.416 524.39 484.049L541.027 511.966C544.98 518.599 542.806 527.18 536.171 531.132C529.537 535.085 520.953 532.911 517 526.278L500.364 498.361Z" fill="#6A94E0"/>
<path d="M443.128 484.146C446.989 477.459 455.542 475.168 462.23 479.029C468.919 482.889 471.21 491.44 467.349 498.127L451.097 526.269C447.235 532.956 438.683 535.248 431.994 531.387C425.306 527.526 423.014 518.975 426.876 512.289L443.128 484.146Z" fill="#6A94E0"/>
<path d="M450.12 552.523C450.12 544.801 456.381 538.542 464.104 538.542C471.827 538.542 478.088 544.801 478.088 552.523V585.019C478.088 592.741 471.827 599 464.104 599C456.381 599 450.12 592.741 450.12 585.019V552.523Z" fill="#6A94E0"/>
</g>
<g id="Vector_6" filter="url(#filter5_d_104_33)">
<path d="M734.33 489.388C740.548 461.899 779.722 461.899 785.94 489.388L796.038 534.03C799.78 550.575 787.199 566.315 770.233 566.315H750.037C733.071 566.315 720.49 550.575 724.232 534.03L734.33 489.388Z" fill="#6A94E0"/>
<path d="M788.103 429.34C788.103 444.991 775.412 457.679 759.757 457.679C744.102 457.679 731.411 444.991 731.411 429.34C731.411 413.688 744.102 401 759.757 401C775.412 401 788.103 413.688 788.103 429.34Z" fill="#6A94E0"/>
<path d="M765.426 552.523C765.426 544.801 771.687 538.542 779.41 538.542C787.134 538.542 793.395 544.801 793.395 552.523V585.019C793.395 592.741 787.134 599 779.41 599C771.687 599 765.426 592.741 765.426 585.019V552.523Z" fill="#6A94E0"/>
<path d="M776.364 498.361C772.41 491.728 774.584 483.146 781.219 479.194C787.854 475.242 796.437 477.416 800.39 484.049L817.027 511.966C820.98 518.599 818.806 527.18 812.171 531.132C805.537 535.085 796.953 532.911 793 526.278L776.364 498.361Z" fill="#6A94E0"/>
<path d="M719.128 484.146C722.989 477.459 731.542 475.168 738.23 479.029C744.919 482.889 747.21 491.44 743.349 498.127L727.097 526.269C723.235 532.956 714.683 535.248 707.994 531.387C701.306 527.526 699.014 518.975 702.876 512.289L719.128 484.146Z" fill="#6A94E0"/>
<path d="M726.12 552.523C726.12 544.801 732.381 538.542 740.104 538.542C747.827 538.542 754.088 544.801 754.088 552.523V585.019C754.088 592.741 747.827 599 740.104 599C732.381 599 726.12 592.741 726.12 585.019V552.523Z" fill="#6A94E0"/>
</g>
<g id="Vector_7" filter="url(#filter6_d_104_33)">
<path d="M596.33 489.388C602.548 461.899 641.722 461.899 647.94 489.388L658.038 534.03C661.78 550.575 649.199 566.315 632.233 566.315H612.037C595.071 566.315 582.49 550.575 586.232 534.03L596.33 489.388Z" fill="#6A94E0"/>
<path d="M650.103 429.34C650.103 444.991 637.412 457.679 621.757 457.679C606.102 457.679 593.411 444.991 593.411 429.34C593.411 413.688 606.102 401 621.757 401C637.412 401 650.103 413.688 650.103 429.34Z" fill="#6A94E0"/>
<path d="M627.426 552.523C627.426 544.801 633.687 538.542 641.41 538.542C649.134 538.542 655.395 544.801 655.395 552.523V585.019C655.395 592.741 649.134 599 641.41 599C633.687 599 627.426 592.741 627.426 585.019V552.523Z" fill="#6A94E0"/>
<path d="M638.364 498.361C634.41 491.728 636.584 483.146 643.219 479.194C649.854 475.242 658.437 477.416 662.39 484.049L679.027 511.966C682.98 518.599 680.806 527.18 674.171 531.132C667.537 535.085 658.953 532.911 655 526.278L638.364 498.361Z" fill="#6A94E0"/>
<path d="M581.128 484.146C584.989 477.459 593.542 475.168 600.23 479.029C606.919 482.889 609.21 491.44 605.349 498.127L589.097 526.269C585.235 532.956 576.683 535.248 569.994 531.387C563.306 527.526 561.014 518.975 564.876 512.289L581.128 484.146Z" fill="#6A94E0"/>
<path d="M588.12 552.523C588.12 544.801 594.381 538.542 602.104 538.542C609.827 538.542 616.088 544.801 616.088 552.523V585.019C616.088 592.741 609.827 599 602.104 599C594.381 599 588.12 592.741 588.12 585.019V552.523Z" fill="#6A94E0"/>
</g>
<g id="Vector_8" filter="url(#filter7_d_104_33)">
<path d="M654.33 535.388C660.548 507.899 699.722 507.899 705.94 535.388L716.038 580.03C719.78 596.575 707.199 612.315 690.233 612.315H670.037C653.071 612.315 640.49 596.575 644.232 580.03L654.33 535.388Z" fill="#8DBBFB"/>
<path d="M708.103 475.34C708.103 490.991 695.412 503.679 679.757 503.679C664.102 503.679 651.411 490.991 651.411 475.34C651.411 459.688 664.102 447 679.757 447C695.412 447 708.103 459.688 708.103 475.34Z" fill="#8DBBFB"/>
<path d="M685.426 598.523C685.426 590.801 691.687 584.542 699.41 584.542C707.134 584.542 713.395 590.801 713.395 598.523V631.019C713.395 638.741 707.134 645 699.41 645C691.687 645 685.426 638.741 685.426 631.019V598.523Z" fill="#8DBBFB"/>
<path d="M696.364 544.361C692.41 537.728 694.584 529.146 701.219 525.194C707.854 521.242 716.437 523.416 720.39 530.049L737.027 557.966C740.98 564.599 738.806 573.18 732.171 577.132C725.537 581.085 716.953 578.911 713 572.278L696.364 544.361Z" fill="#8DBBFB"/>
<path d="M639.128 530.146C642.989 523.459 651.542 521.168 658.23 525.029C664.919 528.889 667.21 537.44 663.349 544.127L647.097 572.269C643.235 578.956 634.683 581.248 627.994 577.387C621.306 573.526 619.014 564.975 622.876 558.289L639.128 530.146Z" fill="#8DBBFB"/>
<path d="M646.12 598.523C646.12 590.801 652.381 584.542 660.104 584.542C667.827 584.542 674.088 590.801 674.088 598.523V631.019C674.088 638.741 667.827 645 660.104 645C652.381 645 646.12 638.741 646.12 631.019V598.523Z" fill="#8DBBFB"/>
</g>
<g id="Vector_9" filter="url(#filter8_d_104_33)">
<path d="M872.33 489.388C878.548 461.899 917.722 461.899 923.94 489.388L934.038 534.03C937.78 550.575 925.199 566.315 908.233 566.315H888.037C871.071 566.315 858.49 550.575 862.232 534.03L872.33 489.388Z" fill="#6A94E0"/>
<path d="M926.103 429.34C926.103 444.991 913.412 457.679 897.757 457.679C882.102 457.679 869.411 444.991 869.411 429.34C869.411 413.688 882.102 401 897.757 401C913.412 401 926.103 413.688 926.103 429.34Z" fill="#6A94E0"/>
<path d="M903.426 552.523C903.426 544.801 909.687 538.542 917.41 538.542C925.134 538.542 931.395 544.801 931.395 552.523V585.019C931.395 592.741 925.134 599 917.41 599C909.687 599 903.426 592.741 903.426 585.019V552.523Z" fill="#6A94E0"/>
<path d="M914.364 498.361C910.41 491.728 912.584 483.146 919.219 479.194C925.854 475.242 934.437 477.416 938.39 484.049L955.027 511.966C958.98 518.599 956.806 527.18 950.171 531.132C943.537 535.085 934.953 532.911 931 526.278L914.364 498.361Z" fill="#6A94E0"/>
<path d="M857.128 484.146C860.989 477.459 869.542 475.168 876.23 479.029C882.919 482.889 885.21 491.44 881.349 498.127L865.097 526.269C861.235 532.956 852.683 535.248 845.994 531.387C839.306 527.526 837.014 518.975 840.876 512.289L857.128 484.146Z" fill="#6A94E0"/>
<path d="M864.12 552.523C864.12 544.801 870.381 538.542 878.104 538.542C885.827 538.542 892.088 544.801 892.088 552.523V585.019C892.088 592.741 885.827 599 878.104 599C870.381 599 864.12 592.741 864.12 585.019V552.523Z" fill="#6A94E0"/>
</g>
<g id="Vector_10" filter="url(#filter9_d_104_33)">
<path d="M516.33 535.388C522.548 507.899 561.722 507.899 567.94 535.388L578.038 580.03C581.78 596.575 569.199 612.315 552.233 612.315H532.037C515.071 612.315 502.49 596.575 506.232 580.03L516.33 535.388Z" fill="#8DBBFB"/>
<path d="M570.103 475.34C570.103 490.991 557.412 503.679 541.757 503.679C526.102 503.679 513.411 490.991 513.411 475.34C513.411 459.688 526.102 447 541.757 447C557.412 447 570.103 459.688 570.103 475.34Z" fill="#8DBBFB"/>
<path d="M547.426 598.523C547.426 590.801 553.687 584.542 561.41 584.542C569.134 584.542 575.395 590.801 575.395 598.523V631.019C575.395 638.741 569.134 645 561.41 645C553.687 645 547.426 638.741 547.426 631.019V598.523Z" fill="#8DBBFB"/>
<path d="M558.364 544.361C554.41 537.728 556.584 529.146 563.219 525.194C569.854 521.242 578.437 523.416 582.39 530.049L599.027 557.966C602.98 564.599 600.806 573.18 594.171 577.132C587.537 581.085 578.953 578.911 575 572.278L558.364 544.361Z" fill="#8DBBFB"/>
<path d="M501.128 530.146C504.989 523.459 513.542 521.168 520.23 525.029C526.919 528.889 529.21 537.44 525.349 544.127L509.097 572.269C505.235 578.956 496.683 581.248 489.994 577.387C483.306 573.526 481.014 564.975 484.876 558.289L501.128 530.146Z" fill="#8DBBFB"/>
<path d="M508.12 598.523C508.12 590.801 514.381 584.542 522.104 584.542C529.827 584.542 536.088 590.801 536.088 598.523V631.019C536.088 638.741 529.827 645 522.104 645C514.381 645 508.12 638.741 508.12 631.019V598.523Z" fill="#8DBBFB"/>
</g>
<g id="Vector_11" filter="url(#filter10_d_104_33)">
<path d="M792.33 535.388C798.548 507.899 837.722 507.899 843.94 535.388L854.038 580.03C857.78 596.575 845.199 612.315 828.233 612.315H808.037C791.071 612.315 778.49 596.575 782.232 580.03L792.33 535.388Z" fill="#8DBBFB"/>
<path d="M846.103 475.34C846.103 490.991 833.412 503.679 817.757 503.679C802.102 503.679 789.411 490.991 789.411 475.34C789.411 459.688 802.102 447 817.757 447C833.412 447 846.103 459.688 846.103 475.34Z" fill="#8DBBFB"/>
<path d="M823.426 598.523C823.426 590.801 829.687 584.542 837.41 584.542C845.134 584.542 851.395 590.801 851.395 598.523V631.019C851.395 638.741 845.134 645 837.41 645C829.687 645 823.426 638.741 823.426 631.019V598.523Z" fill="#8DBBFB"/>
<path d="M834.364 544.361C830.41 537.728 832.584 529.146 839.219 525.194C845.854 521.242 854.437 523.416 858.39 530.049L875.027 557.966C878.98 564.599 876.806 573.18 870.171 577.132C863.537 581.085 854.953 578.911 851 572.278L834.364 544.361Z" fill="#8DBBFB"/>
<path d="M777.128 530.146C780.989 523.459 789.542 521.168 796.23 525.029C802.919 528.889 805.21 537.44 801.349 544.127L785.097 572.269C781.235 578.956 772.683 581.248 765.994 577.387C759.306 573.526 757.014 564.975 760.876 558.289L777.128 530.146Z" fill="#8DBBFB"/>
<path d="M784.12 598.523C784.12 590.801 790.381 584.542 798.104 584.542C805.827 584.542 812.088 590.801 812.088 598.523V631.019C812.088 638.741 805.827 645 798.104 645C790.381 645 784.12 638.741 784.12 631.019V598.523Z" fill="#8DBBFB"/>
</g>
<g id="Vector_12" filter="url(#filter11_d_104_33)">
<path d="M930.33 535.388C936.548 507.899 975.722 507.899 981.94 535.388L992.038 580.03C995.78 596.575 983.199 612.315 966.233 612.315H946.037C929.071 612.315 916.49 596.575 920.232 580.03L930.33 535.388Z" fill="#8DBBFB"/>
<path d="M984.103 475.34C984.103 490.991 971.412 503.679 955.757 503.679C940.102 503.679 927.411 490.991 927.411 475.34C927.411 459.688 940.102 447 955.757 447C971.412 447 984.103 459.688 984.103 475.34Z" fill="#8DBBFB"/>
<path d="M961.426 598.523C961.426 590.801 967.687 584.542 975.41 584.542C983.134 584.542 989.395 590.801 989.395 598.523V631.019C989.395 638.741 983.134 645 975.41 645C967.687 645 961.426 638.741 961.426 631.019V598.523Z" fill="#8DBBFB"/>
<path d="M972.364 544.361C968.41 537.728 970.584 529.146 977.219 525.194C983.854 521.242 992.437 523.416 996.39 530.049L1013.03 557.966C1016.98 564.599 1014.81 573.18 1008.17 577.132C1001.54 581.085 992.953 578.911 989 572.278L972.364 544.361Z" fill="#8DBBFB"/>
<path d="M915.128 530.146C918.989 523.459 927.542 521.168 934.23 525.029C940.919 528.889 943.21 537.44 939.349 544.127L923.097 572.269C919.235 578.956 910.683 581.248 903.994 577.387C897.306 573.526 895.014 564.975 898.876 558.289L915.128 530.146Z" fill="#8DBBFB"/>
<path d="M922.12 598.523C922.12 590.801 928.381 584.542 936.104 584.542C943.827 584.542 950.088 590.801 950.088 598.523V631.019C950.088 638.741 943.827 645 936.104 645C928.381 645 922.12 638.741 922.12 631.019V598.523Z" fill="#8DBBFB"/>
</g>
</g>
</g>
<defs>
<filter id="filter0_d_104_33" x="527" y="378" width="108" height="176" filterUnits="userSpaceOnUse" color-interpolation-filters="sRGB">
<feFlood flood-opacity="0" result="BackgroundImageFix"/>
<feColorMatrix in="SourceAlpha" type="matrix" values="0 0 0 0 0 0 0 0 0 0 0 0 0 0 0 0 0 0 127 0" result="hardAlpha"/>
<feOffset dy="4"/>
<feGaussianBlur stdDeviation="2"/>
<feComposite in2="hardAlpha" operator="out"/>
<feColorMatrix type="matrix" values="0 0 0 0 0 0 0 0 0 0 0 0 0 0 0 0 0 0 0.25 0"/>
<feBlend mode="normal" in2="BackgroundImageFix" result="effect1_dropShadow_104_33"/>
<feBlend mode="normal" in="SourceGraphic" in2="effect1_dropShadow_104_33" result="shape"/>
</filter>
<filter id="filter1_d_104_33" x="761" y="378" width="109" height="176" filterUnits="userSpaceOnUse" color-interpolation-filters="sRGB">
<feFlood flood-opacity="0" result="BackgroundImageFix"/>
<feColorMatrix in="SourceAlpha" type="matrix" values="0 0 0 0 0 0 0 0 0 0 0 0 0 0 0 0 0 0 127 0" result="hardAlpha"/>
<feOffset dy="4"/>
<feGaussianBlur stdDeviation="2"/>
<feComposite in2="hardAlpha" operator="out"/>
<feColorMatrix type="matrix" values="0 0 0 0 0 0 0 0 0 0 0 0 0 0 0 0 0 0 0.25 0"/>
<feBlend mode="normal" in2="BackgroundImageFix" result="effect1_dropShadow_104_33"/>
<feBlend mode="normal" in="SourceGraphic" in2="effect1_dropShadow_104_33" result="shape"/>
</filter>
<filter id="filter2_d_104_33" x="644" y="378" width="109" height="176" filterUnits="userSpaceOnUse" color-interpolation-filters="sRGB">
<feFlood flood-opacity="0" result="BackgroundImageFix"/>
<feColorMatrix in="SourceAlpha" type="matrix" values="0 0 0 0 0 0 0 0 0 0 0 0 0 0 0 0 0 0 127 0" result="hardAlpha"/>
<feOffset dy="4"/>
<feGaussianBlur stdDeviation="2"/>
<feComposite in2="hardAlpha" operator="out"/>
<feColorMatrix type="matrix" values="0 0 0 0 0 0 0 0 0 0 0 0 0 0 0 0 0 0 0.25 0"/>
<feBlend mode="normal" in2="BackgroundImageFix" result="effect1_dropShadow_104_33"/>
<feBlend mode="normal" in="SourceGraphic" in2="effect1_dropShadow_104_33" result="shape"/>
</filter>
<filter id="filter3_d_104_33" x="879" y="378" width="108" height="176" filterUnits="userSpaceOnUse" color-interpolation-filters="sRGB">
<feFlood flood-opacity="0" result="BackgroundImageFix"/>
<feColorMatrix in="SourceAlpha" type="matrix" values="0 0 0 0 0 0 0 0 0 0 0 0 0 0 0 0 0 0 127 0" result="hardAlpha"/>
<feOffset dy="4"/>
<feGaussianBlur stdDeviation="2"/>
<feComposite in2="hardAlpha" operator="out"/>
<feColorMatrix type="matrix" values="0 0 0 0 0 0 0 0 0 0 0 0 0 0 0 0 0 0 0.25 0"/>
<feBlend mode="normal" in2="BackgroundImageFix" result="effect1_dropShadow_104_33"/>
<feBlend mode="normal" in="SourceGraphic" in2="effect1_dropShadow_104_33" result="shape"/>
</filter>
<filter id="filter4_d_104_33" x="421" y="401" width="126" height="206" filterUnits="userSpaceOnUse" color-interpolation-filters="sRGB">
<feFlood flood-opacity="0" result="BackgroundImageFix"/>
<feColorMatrix in="SourceAlpha" type="matrix" values="0 0 0 0 0 0 0 0 0 0 0 0 0 0 0 0 0 0 127 0" result="hardAlpha"/>
<feOffset dy="4"/>
<feGaussianBlur stdDeviation="2"/>
<feComposite in2="hardAlpha" operator="out"/>
<feColorMatrix type="matrix" values="0 0 0 0 0 0 0 0 0 0 0 0 0 0 0 0 0 0 0.25 0"/>
<feBlend mode="normal" in2="BackgroundImageFix" result="effect1_dropShadow_104_33"/>
<feBlend mode="normal" in="SourceGraphic" in2="effect1_dropShadow_104_33" result="shape"/>
</filter>
<filter id="filter5_d_104_33" x="697" y="401" width="126" height="206" filterUnits="userSpaceOnUse" color-interpolation-filters="sRGB">
<feFlood flood-opacity="0" result="BackgroundImageFix"/>
<feColorMatrix in="SourceAlpha" type="matrix" values="0 0 0 0 0 0 0 0 0 0 0 0 0 0 0 0 0 0 127 0" result="hardAlpha"/>
<feOffset dy="4"/>
<feGaussianBlur stdDeviation="2"/>
<feComposite in2="hardAlpha" operator="out"/>
<feColorMatrix type="matrix" values="0 0 0 0 0 0 0 0 0 0 0 0 0 0 0 0 0 0 0.25 0"/>
<feBlend mode="normal" in2="BackgroundImageFix" result="effect1_dropShadow_104_33"/>
<feBlend mode="normal" in="SourceGraphic" in2="effect1_dropShadow_104_33" result="shape"/>
</filter>
<filter id="filter6_d_104_33" x="559" y="401" width="126" height="206" filterUnits="userSpaceOnUse" color-interpolation-filters="sRGB">
<feFlood flood-opacity="0" result="BackgroundImageFix"/>
<feColorMatrix in="SourceAlpha" type="matrix" values="0 0 0 0 0 0 0 0 0 0 0 0 0 0 0 0 0 0 127 0" result="hardAlpha"/>
<feOffset dy="4"/>
<feGaussianBlur stdDeviation="2"/>
<feComposite in2="hardAlpha" operator="out"/>
<feColorMatrix type="matrix" values="0 0 0 0 0 0 0 0 0 0 0 0 0 0 0 0 0 0 0.25 0"/>
<feBlend mode="normal" in2="BackgroundImageFix" result="effect1_dropShadow_104_33"/>
<feBlend mode="normal" in="SourceGraphic" in2="effect1_dropShadow_104_33" result="shape"/>
</filter>
<filter id="filter7_d_104_33" x="617" y="447" width="126" height="206" filterUnits="userSpaceOnUse" color-interpolation-filters="sRGB">
<feFlood flood-opacity="0" result="BackgroundImageFix"/>
<feColorMatrix in="SourceAlpha" type="matrix" values="0 0 0 0 0 0 0 0 0 0 0 0 0 0 0 0 0 0 127 0" result="hardAlpha"/>
<feOffset dy="4"/>
<feGaussianBlur stdDeviation="2"/>
<feComposite in2="hardAlpha" operator="out"/>
<feColorMatrix type="matrix" values="0 0 0 0 0 0 0 0 0 0 0 0 0 0 0 0 0 0 0.25 0"/>
<feBlend mode="normal" in2="BackgroundImageFix" result="effect1_dropShadow_104_33"/>
<feBlend mode="normal" in="SourceGraphic" in2="effect1_dropShadow_104_33" result="shape"/>
</filter>
<filter id="filter8_d_104_33" x="835" y="401" width="126" height="206" filterUnits="userSpaceOnUse" color-interpolation-filters="sRGB">
<feFlood flood-opacity="0" result="BackgroundImageFix"/>
<feColorMatrix in="SourceAlpha" type="matrix" values="0 0 0 0 0 0 0 0 0 0 0 0 0 0 0 0 0 0 127 0" result="hardAlpha"/>
<feOffset dy="4"/>
<feGaussianBlur stdDeviation="2"/>
<feComposite in2="hardAlpha" operator="out"/>
<feColorMatrix type="matrix" values="0 0 0 0 0 0 0 0 0 0 0 0 0 0 0 0 0 0 0.25 0"/>
<feBlend mode="normal" in2="BackgroundImageFix" result="effect1_dropShadow_104_33"/>
<feBlend mode="normal" in="SourceGraphic" in2="effect1_dropShadow_104_33" result="shape"/>
</filter>
<filter id="filter9_d_104_33" x="479" y="447" width="126" height="206" filterUnits="userSpaceOnUse" color-interpolation-filters="sRGB">
<feFlood flood-opacity="0" result="BackgroundImageFix"/>
<feColorMatrix in="SourceAlpha" type="matrix" values="0 0 0 0 0 0 0 0 0 0 0 0 0 0 0 0 0 0 127 0" result="hardAlpha"/>
<feOffset dy="4"/>
<feGaussianBlur stdDeviation="2"/>
<feComposite in2="hardAlpha" operator="out"/>
<feColorMatrix type="matrix" values="0 0 0 0 0 0 0 0 0 0 0 0 0 0 0 0 0 0 0.25 0"/>
<feBlend mode="normal" in2="BackgroundImageFix" result="effect1_dropShadow_104_33"/>
<feBlend mode="normal" in="SourceGraphic" in2="effect1_dropShadow_104_33" result="shape"/>
</filter>
<filter id="filter10_d_104_33" x="755" y="447" width="126" height="206" filterUnits="userSpaceOnUse" color-interpolation-filters="sRGB">
<feFlood flood-opacity="0" result="BackgroundImageFix"/>
<feColorMatrix in="SourceAlpha" type="matrix" values="0 0 0 0 0 0 0 0 0 0 0 0 0 0 0 0 0 0 127 0" result="hardAlpha"/>
<feOffset dy="4"/>
<feGaussianBlur stdDeviation="2"/>
<feComposite in2="hardAlpha" operator="out"/>
<feColorMatrix type="matrix" values="0 0 0 0 0 0 0 0 0 0 0 0 0 0 0 0 0 0 0.25 0"/>
<feBlend mode="normal" in2="BackgroundImageFix" result="effect1_dropShadow_104_33"/>
<feBlend mode="normal" in="SourceGraphic" in2="effect1_dropShadow_104_33" result="shape"/>
</filter>
<filter id="filter11_d_104_33" x="893" y="447" width="126" height="206" filterUnits="userSpaceOnUse" color-interpolation-filters="sRGB">
<feFlood flood-opacity="0" result="BackgroundImageFix"/>
<feColorMatrix in="SourceAlpha" type="matrix" values="0 0 0 0 0 0 0 0 0 0 0 0 0 0 0 0 0 0 127 0" result="hardAlpha"/>
<feOffset dy="4"/>
<feGaussianBlur stdDeviation="2"/>
<feComposite in2="hardAlpha" operator="out"/>
<feColorMatrix type="matrix" values="0 0 0 0 0 0 0 0 0 0 0 0 0 0 0 0 0 0 0.25 0"/>
<feBlend mode="normal" in2="BackgroundImageFix" result="effect1_dropShadow_104_33"/>
<feBlend mode="normal" in="SourceGraphic" in2="effect1_dropShadow_104_33" result="shape"/>
</filter>
</defs>
</svg>
