<svg width="1440" height="1024" viewBox="0 0 1440 1024" fill="none" xmlns="http://www.w3.org/2000/svg">
<g id="run3-no" clip-path="url(#clip0_75_469)">
<rect width="1440" height="1024" fill="#333148"/>
<path id="part 2" d="M47.096 132.12V60.024H61.688L62.264 71.448L59.384 70.584C59.832 68.536 61.048 66.648 63.032 64.92C65.016 63.192 67.512 61.784 70.52 60.696C73.592 59.608 76.856 59.064 80.312 59.064C85.304 59.064 89.688 60.216 93.464 62.52C97.24 64.76 100.184 67.864 102.296 71.832C104.472 75.736 105.56 80.28 105.56 85.464C105.56 90.584 104.472 95.128 102.296 99.096C100.184 103.064 97.208 106.2 93.368 108.504C89.528 110.744 85.112 111.864 80.12 111.864C76.664 111.864 73.432 111.288 70.424 110.136C67.416 108.984 64.888 107.48 62.84 105.624C60.856 103.768 59.576 101.816 59 99.768L62.552 98.424V132.12H47.096ZM76.376 98.904C79.256 98.904 81.752 98.36 83.864 97.272C85.976 96.12 87.608 94.552 88.76 92.568C89.976 90.584 90.584 88.216 90.584 85.464C90.584 82.776 89.976 80.44 88.76 78.456C87.608 76.408 85.976 74.84 83.864 73.752C81.816 72.6 79.32 72.024 76.376 72.024C73.496 72.024 70.968 72.568 68.792 73.656C66.68 74.744 65.016 76.312 63.8 78.36C62.648 80.408 62.072 82.776 62.072 85.464C62.072 88.216 62.648 90.584 63.8 92.568C65.016 94.552 66.68 96.12 68.792 97.272C70.968 98.36 73.496 98.904 76.376 98.904ZM144.211 111.864C139.155 111.864 134.739 110.744 130.963 108.504C127.187 106.264 124.211 103.16 122.035 99.192C119.923 95.16 118.867 90.584 118.867 85.464C118.867 80.28 119.955 75.704 122.131 71.736C124.307 67.768 127.315 64.664 131.155 62.424C135.059 60.12 139.539 58.968 144.595 58.968C147.475 58.968 150.131 59.352 152.563 60.12C154.995 60.824 157.107 61.816 158.899 63.096C160.755 64.376 162.259 65.784 163.411 67.32C164.627 68.856 165.427 70.456 165.811 72.12H162.451V60.024H177.619V111H162.163V97.944L165.427 98.424C165.043 100.088 164.243 101.72 163.027 103.32C161.811 104.92 160.243 106.36 158.323 107.64C156.403 108.92 154.227 109.944 151.795 110.712C149.427 111.48 146.899 111.864 144.211 111.864ZM148.339 98.904C151.219 98.904 153.715 98.36 155.827 97.272C158.003 96.184 159.667 94.648 160.819 92.664C162.035 90.616 162.643 88.216 162.643 85.464C162.643 82.776 162.035 80.44 160.819 78.456C159.667 76.408 158.003 74.808 155.827 73.656C153.715 72.504 151.219 71.928 148.339 71.928C145.459 71.928 142.963 72.504 140.851 73.656C138.739 74.808 137.075 76.408 135.859 78.456C134.707 80.44 134.131 82.776 134.131 85.464C134.131 88.216 134.707 90.616 135.859 92.664C137.075 94.648 138.739 96.184 140.851 97.272C142.963 98.36 145.459 98.904 148.339 98.904ZM201.315 111V60.024H215.907L216.579 77.592L212.931 75.768C213.763 72.632 215.203 69.816 217.251 67.32C219.363 64.76 221.763 62.744 224.451 61.272C227.203 59.736 230.115 58.968 233.187 58.968C234.851 58.968 236.419 59.128 237.891 59.448C239.427 59.768 240.739 60.184 241.827 60.696L237.603 77.496C236.643 76.792 235.331 76.248 233.667 75.864C232.067 75.48 230.435 75.288 228.771 75.288C226.915 75.288 225.219 75.608 223.683 76.248C222.211 76.824 220.963 77.656 219.939 78.744C218.915 79.768 218.115 80.952 217.539 82.296C217.027 83.64 216.771 85.08 216.771 86.616V111H201.315ZM265.932 111V46.008H281.292V111H265.932ZM254.604 73.464V60.024H294.252V73.464H254.604ZM348.136 111L344.776 102.264L364.552 82.776C366.088 81.304 367.624 79.768 369.16 78.168C370.76 76.504 372.264 74.808 373.672 73.08C375.08 71.352 376.2 69.688 377.032 68.088C377.864 66.424 378.28 64.952 378.28 63.672C378.28 62.328 377.96 61.176 377.32 60.216C376.744 59.192 375.848 58.392 374.632 57.816C373.48 57.24 372.008 56.952 370.216 56.952C368.552 56.952 366.888 57.336 365.224 58.104C363.624 58.808 362.088 59.928 360.616 61.464C359.208 62.936 357.864 64.888 356.584 67.32L344.488 60.6C346.152 57.08 348.328 53.944 351.016 51.192C353.768 48.376 356.904 46.2 360.424 44.664C364.008 43.064 367.848 42.264 371.944 42.264C376.232 42.328 380.04 43.192 383.368 44.856C386.696 46.456 389.32 48.696 391.24 51.576C393.224 54.456 394.216 57.816 394.216 61.656C394.216 63.384 393.928 65.112 393.352 66.84C392.84 68.568 392.104 70.296 391.144 72.024C390.184 73.688 389.032 75.448 387.688 77.304C386.344 79.096 384.84 80.92 383.176 82.776C381.512 84.632 379.72 86.52 377.8 88.44L361.288 104.472L360.136 96.6H397.192V111H348.136Z" fill="white"/>
<g id="Group 3">
<g id="Vector" filter="url(#filter0_d_75_469)">
<path d="M1493.85 -352.124C1536.39 -540.428 1804.43 -540.428 1846.97 -352.124L1916.06 -46.3058C1941.66 67.0286 1855.58 174.855 1739.5 174.855H1601.32C1485.24 174.855 1399.16 67.0286 1424.76 -46.3058L1493.85 -352.124Z" fill="#C63B3B"/>
<path d="M1861.77 -763.473C1861.77 -656.254 1774.94 -569.336 1667.83 -569.336C1560.71 -569.336 1473.88 -656.254 1473.88 -763.473C1473.88 -870.692 1560.71 -957.61 1667.83 -957.61C1774.94 -957.61 1861.77 -870.692 1861.77 -763.473Z" fill="#C63B3B"/>
<path d="M1706.61 80.3752C1706.61 27.4807 1749.45 -15.3989 1802.29 -15.3989C1855.14 -15.3989 1897.97 27.4807 1897.97 80.3752V302.986C1897.97 355.88 1855.14 398.76 1802.29 398.76C1749.45 398.76 1706.61 355.88 1706.61 302.986V80.3752Z" fill="#C63B3B"/>
<path d="M1781.45 -290.653C1754.4 -336.094 1769.27 -394.878 1814.67 -421.952C1860.07 -449.026 1918.79 -434.137 1945.84 -388.696L2059.67 -197.456C2086.72 -152.016 2071.84 -93.2312 2026.45 -66.1573C1981.05 -39.0836 1922.32 -53.9728 1895.28 -99.4135L1781.45 -290.653Z" fill="#C63B3B"/>
<path d="M1389.84 -388.031C1416.26 -433.839 1474.77 -449.534 1520.54 -423.087C1566.3 -396.639 1581.98 -338.065 1555.56 -292.257L1444.36 -99.4703C1417.94 -53.6622 1359.42 -37.9672 1313.66 -64.4145C1267.9 -90.8618 1252.22 -149.436 1278.64 -195.245L1389.84 -388.031Z" fill="#C63B3B"/>
<path d="M1437.68 80.3752C1437.68 27.4807 1480.51 -15.3989 1533.36 -15.3989C1586.2 -15.3989 1629.04 27.4807 1629.04 80.3752V302.986C1629.04 355.88 1586.2 398.76 1533.36 398.76C1480.51 398.76 1437.68 355.88 1437.68 302.986V80.3752Z" fill="#C63B3B"/>
</g>
<g id="Vector_2" filter="url(#filter1_d_75_469)">
<path d="M679.096 -58.308C729.296 -280.237 1045.57 -280.237 1095.77 -58.308L1177.3 302.12C1207.51 435.693 1105.94 562.775 968.962 562.775H805.908C668.931 562.775 567.356 435.693 597.569 302.12L679.096 -58.308Z" fill="#E06A6A"/>
<path d="M1113.24 -543.113C1113.24 -416.748 1010.78 -314.308 884.384 -314.308C757.99 -314.308 655.527 -416.748 655.527 -543.113C655.527 -669.478 757.99 -771.917 884.384 -771.917C1010.78 -771.917 1113.24 -669.478 1113.24 -543.113Z" fill="#E06A6A"/>
<path d="M930.155 451.423C930.155 389.083 980.703 338.547 1043.06 338.547C1105.41 338.547 1155.96 389.083 1155.96 451.423V713.786C1155.96 776.126 1105.41 826.662 1043.06 826.662C980.703 826.662 930.155 776.126 930.155 713.786V451.423Z" fill="#E06A6A"/>
<path d="M1018.46 14.1397C986.542 -39.4153 1004.09 -108.697 1057.66 -140.606C1111.23 -172.514 1180.53 -154.966 1212.44 -101.411L1346.76 123.979C1378.68 177.534 1361.12 246.816 1307.56 278.724C1253.99 310.632 1184.69 293.084 1152.78 239.529L1018.46 14.1397Z" fill="#E06A6A"/>
<path d="M556.356 -100.627C587.533 -154.615 656.583 -173.113 710.584 -141.943C764.584 -110.772 783.086 -41.7381 751.909 12.25L620.698 239.462C589.521 293.451 520.471 311.948 466.47 280.778C412.47 249.608 393.968 180.574 425.145 126.586L556.356 -100.627Z" fill="#E06A6A"/>
<path d="M612.807 451.423C612.807 389.083 663.355 338.547 725.71 338.547C788.064 338.547 838.612 389.083 838.612 451.423V713.786C838.612 776.126 788.064 826.662 725.71 826.662C663.355 826.662 612.807 776.126 612.807 713.786V451.423Z" fill="#E06A6A"/>
</g>
<g id="Vector_3" filter="url(#filter2_d_75_469)">
<path d="M1147.37 313.08C1197.57 91.1502 1513.84 91.1503 1564.04 313.08L1645.57 673.508C1675.78 807.081 1574.21 934.162 1437.23 934.162H1274.18C1137.2 934.162 1035.63 807.081 1065.84 673.508L1147.37 313.08Z" fill="#FB8D8D"/>
<path d="M1581.51 -171.725C1581.51 -45.3599 1479.05 57.0793 1352.65 57.0793C1226.26 57.0793 1123.8 -45.3599 1123.8 -171.725C1123.8 -298.09 1226.26 -400.529 1352.65 -400.529C1479.05 -400.529 1581.51 -298.09 1581.51 -171.725Z" fill="#FB8D8D"/>
<path d="M1398.43 822.811C1398.43 760.471 1448.97 709.934 1511.33 709.934C1573.68 709.934 1624.23 760.471 1624.23 822.811V1085.17C1624.23 1147.51 1573.68 1198.05 1511.33 1198.05C1448.97 1198.05 1398.43 1147.51 1398.43 1085.17V822.811Z" fill="#FB8D8D"/>
<path d="M1486.73 385.527C1454.81 331.972 1472.36 262.69 1525.93 230.782C1579.5 198.874 1648.8 216.422 1680.71 269.977L1815.03 495.366C1846.95 548.922 1829.4 618.203 1775.83 650.112C1722.26 682.02 1652.96 664.472 1621.05 610.917L1486.73 385.527Z" fill="#FB8D8D"/>
<path d="M1024.63 270.761C1055.8 216.773 1124.85 198.275 1178.85 229.445C1232.85 260.615 1251.36 329.65 1220.18 383.638L1088.97 610.85C1057.79 664.838 988.741 683.336 934.741 652.166C880.74 620.996 862.239 551.961 893.416 497.973L1024.63 270.761Z" fill="#FB8D8D"/>
<path d="M1081.08 822.811C1081.08 760.471 1131.63 709.934 1193.98 709.934C1256.33 709.934 1306.88 760.471 1306.88 822.811V1085.17C1306.88 1147.51 1256.33 1198.05 1193.98 1198.05C1131.63 1198.05 1081.08 1147.51 1081.08 1085.17V822.811Z" fill="#FB8D8D"/>
</g>
</g>
<g id="lighter">
<circle id="Ellipse 2" cx="872.144" cy="523.127" r="26.511" transform="rotate(11.4942 872.144 523.127)" fill="#73839A"/>
<path id="Vector 11" d="M769.771 550.229L678.087 474.912L702.149 461.44L593.849 331.989L653.83 355.57L600.309 226.142C606.453 234.263 618.884 248.192 619.449 238.93C620.014 229.668 610.558 167.006 605.76 136.833L655.391 221.203L663.824 191.838L715.373 244.785L708.478 194.563L771.72 327.905L773.84 293.174L810.357 456.425L827.261 424.256L838.791 534.521L769.771 550.229Z" fill="#FD9D49"/>
<rect id="Rectangle 6" x="735.261" y="528.505" width="115.124" height="87.5591" rx="7" transform="rotate(-22.9929 735.261 528.505)" fill="#3E5068"/>
<rect id="Rectangle 4" x="924.374" y="509.488" width="198.301" height="240.387" rx="8" transform="rotate(66.5646 924.374 509.488)" fill="#485C77"/>
<rect id="Rectangle 5" x="713.186" y="609.16" width="89.6695" height="229.288" rx="4" transform="rotate(84.4974 713.186 609.16)" fill="#485C77"/>
<circle id="Ellipse 1" cx="715.843" cy="609.643" r="14.9125" transform="rotate(36.5646 715.843 609.643)" fill="#405066"/>
</g>
</g>
<defs>
<filter id="filter0_d_75_469" x="1261.81" y="-957.61" width="815.363" height="1364.37" filterUnits="userSpaceOnUse" color-interpolation-filters="sRGB">
<feFlood flood-opacity="0" result="BackgroundImageFix"/>
<feColorMatrix in="SourceAlpha" type="matrix" values="0 0 0 0 0 0 0 0 0 0 0 0 0 0 0 0 0 0 127 0" result="hardAlpha"/>
<feOffset dy="4"/>
<feGaussianBlur stdDeviation="2"/>
<feComposite in2="hardAlpha" operator="out"/>
<feColorMatrix type="matrix" values="0 0 0 0 0 0 0 0 0 0 0 0 0 0 0 0 0 0 0.25 0"/>
<feBlend mode="normal" in2="BackgroundImageFix" result="effect1_dropShadow_75_469"/>
<feBlend mode="normal" in="SourceGraphic" in2="effect1_dropShadow_75_469" result="shape"/>
</filter>
<filter id="filter1_d_75_469" x="406" y="-771.917" width="960.689" height="1606.58" filterUnits="userSpaceOnUse" color-interpolation-filters="sRGB">
<feFlood flood-opacity="0" result="BackgroundImageFix"/>
<feColorMatrix in="SourceAlpha" type="matrix" values="0 0 0 0 0 0 0 0 0 0 0 0 0 0 0 0 0 0 127 0" result="hardAlpha"/>
<feOffset dy="4"/>
<feGaussianBlur stdDeviation="2"/>
<feComposite in2="hardAlpha" operator="out"/>
<feColorMatrix type="matrix" values="0 0 0 0 0 0 0 0 0 0 0 0 0 0 0 0 0 0 0.25 0"/>
<feBlend mode="normal" in2="BackgroundImageFix" result="effect1_dropShadow_75_469"/>
<feBlend mode="normal" in="SourceGraphic" in2="effect1_dropShadow_75_469" result="shape"/>
</filter>
<filter id="filter2_d_75_469" x="874.271" y="-400.529" width="960.689" height="1606.58" filterUnits="userSpaceOnUse" color-interpolation-filters="sRGB">
<feFlood flood-opacity="0" result="BackgroundImageFix"/>
<feColorMatrix in="SourceAlpha" type="matrix" values="0 0 0 0 0 0 0 0 0 0 0 0 0 0 0 0 0 0 127 0" result="hardAlpha"/>
<feOffset dy="4"/>
<feGaussianBlur stdDeviation="2"/>
<feComposite in2="hardAlpha" operator="out"/>
<feColorMatrix type="matrix" values="0 0 0 0 0 0 0 0 0 0 0 0 0 0 0 0 0 0 0.25 0"/>
<feBlend mode="normal" in2="BackgroundImageFix" result="effect1_dropShadow_75_469"/>
<feBlend mode="normal" in="SourceGraphic" in2="effect1_dropShadow_75_469" result="shape"/>
</filter>
<clipPath id="clip0_75_469">
<rect width="1440" height="1024" fill="white"/>
</clipPath>
</defs>
</svg>
