<svg width="1440" height="1024" viewBox="0 0 1440 1024" fill="none" xmlns="http://www.w3.org/2000/svg">
<g id="run4-no">
<rect width="1440" height="1024" fill="#333148"/>
<g id="Group 11">
<path id="Vector 13" d="M34 580.5L115.5 282L190.5 401L244 221.5L311.5 349.5L414 203L523.5 349.5L563 282L635.5 377.5L665.5 319.5L679.5 527L601 597.5L498.5 570.5H462.5H404.5L339.5 613.5L294 580.5L250.5 597.5H229L214.5 621.5L156.5 635L115.5 613.5L59.5 597.5L34 580.5Z" fill="#EC5F46"/>
<path id="Vector 14" d="M118 352.5L71.5 598L81.5 607.5L121.5 615H219.5L238 590L302 585L432 571H455L479.5 559.5L534.5 581H629L669 518.5L651 417.5L582 352.5L527 417.5L414 327C392 359.667 348 426.5 348 432.5C348 438.5 282 355.333 249 313L204 492.5L118 352.5Z" fill="#FD9D49"/>
</g>
<path id="part 2" d="M47.096 132.12V60.024H61.688L62.264 71.448L59.384 70.584C59.832 68.536 61.048 66.648 63.032 64.92C65.016 63.192 67.512 61.784 70.52 60.696C73.592 59.608 76.856 59.064 80.312 59.064C85.304 59.064 89.688 60.216 93.464 62.52C97.24 64.76 100.184 67.864 102.296 71.832C104.472 75.736 105.56 80.28 105.56 85.464C105.56 90.584 104.472 95.128 102.296 99.096C100.184 103.064 97.208 106.2 93.368 108.504C89.528 110.744 85.112 111.864 80.12 111.864C76.664 111.864 73.432 111.288 70.424 110.136C67.416 108.984 64.888 107.48 62.84 105.624C60.856 103.768 59.576 101.816 59 99.768L62.552 98.424V132.12H47.096ZM76.376 98.904C79.256 98.904 81.752 98.36 83.864 97.272C85.976 96.12 87.608 94.552 88.76 92.568C89.976 90.584 90.584 88.216 90.584 85.464C90.584 82.776 89.976 80.44 88.76 78.456C87.608 76.408 85.976 74.84 83.864 73.752C81.816 72.6 79.32 72.024 76.376 72.024C73.496 72.024 70.968 72.568 68.792 73.656C66.68 74.744 65.016 76.312 63.8 78.36C62.648 80.408 62.072 82.776 62.072 85.464C62.072 88.216 62.648 90.584 63.8 92.568C65.016 94.552 66.68 96.12 68.792 97.272C70.968 98.36 73.496 98.904 76.376 98.904ZM144.211 111.864C139.155 111.864 134.739 110.744 130.963 108.504C127.187 106.264 124.211 103.16 122.035 99.192C119.923 95.16 118.867 90.584 118.867 85.464C118.867 80.28 119.955 75.704 122.131 71.736C124.307 67.768 127.315 64.664 131.155 62.424C135.059 60.12 139.539 58.968 144.595 58.968C147.475 58.968 150.131 59.352 152.563 60.12C154.995 60.824 157.107 61.816 158.899 63.096C160.755 64.376 162.259 65.784 163.411 67.32C164.627 68.856 165.427 70.456 165.811 72.12H162.451V60.024H177.619V111H162.163V97.944L165.427 98.424C165.043 100.088 164.243 101.72 163.027 103.32C161.811 104.92 160.243 106.36 158.323 107.64C156.403 108.92 154.227 109.944 151.795 110.712C149.427 111.48 146.899 111.864 144.211 111.864ZM148.339 98.904C151.219 98.904 153.715 98.36 155.827 97.272C158.003 96.184 159.667 94.648 160.819 92.664C162.035 90.616 162.643 88.216 162.643 85.464C162.643 82.776 162.035 80.44 160.819 78.456C159.667 76.408 158.003 74.808 155.827 73.656C153.715 72.504 151.219 71.928 148.339 71.928C145.459 71.928 142.963 72.504 140.851 73.656C138.739 74.808 137.075 76.408 135.859 78.456C134.707 80.44 134.131 82.776 134.131 85.464C134.131 88.216 134.707 90.616 135.859 92.664C137.075 94.648 138.739 96.184 140.851 97.272C142.963 98.36 145.459 98.904 148.339 98.904ZM201.315 111V60.024H215.907L216.579 77.592L212.931 75.768C213.763 72.632 215.203 69.816 217.251 67.32C219.363 64.76 221.763 62.744 224.451 61.272C227.203 59.736 230.115 58.968 233.187 58.968C234.851 58.968 236.419 59.128 237.891 59.448C239.427 59.768 240.739 60.184 241.827 60.696L237.603 77.496C236.643 76.792 235.331 76.248 233.667 75.864C232.067 75.48 230.435 75.288 228.771 75.288C226.915 75.288 225.219 75.608 223.683 76.248C222.211 76.824 220.963 77.656 219.939 78.744C218.915 79.768 218.115 80.952 217.539 82.296C217.027 83.64 216.771 85.08 216.771 86.616V111H201.315ZM265.932 111V46.008H281.292V111H265.932ZM254.604 73.464V60.024H294.252V73.464H254.604ZM348.136 111L344.776 102.264L364.552 82.776C366.088 81.304 367.624 79.768 369.16 78.168C370.76 76.504 372.264 74.808 373.672 73.08C375.08 71.352 376.2 69.688 377.032 68.088C377.864 66.424 378.28 64.952 378.28 63.672C378.28 62.328 377.96 61.176 377.32 60.216C376.744 59.192 375.848 58.392 374.632 57.816C373.48 57.24 372.008 56.952 370.216 56.952C368.552 56.952 366.888 57.336 365.224 58.104C363.624 58.808 362.088 59.928 360.616 61.464C359.208 62.936 357.864 64.888 356.584 67.32L344.488 60.6C346.152 57.08 348.328 53.944 351.016 51.192C353.768 48.376 356.904 46.2 360.424 44.664C364.008 43.064 367.848 42.264 371.944 42.264C376.232 42.328 380.04 43.192 383.368 44.856C386.696 46.456 389.32 48.696 391.24 51.576C393.224 54.456 394.216 57.816 394.216 61.656C394.216 63.384 393.928 65.112 393.352 66.84C392.84 68.568 392.104 70.296 391.144 72.024C390.184 73.688 389.032 75.448 387.688 77.304C386.344 79.096 384.84 80.92 383.176 82.776C381.512 84.632 379.72 86.52 377.8 88.44L361.288 104.472L360.136 96.6H397.192V111H348.136Z" fill="white"/>
<g id="Group 4">
<g id="Vector" filter="url(#filter0_d_75_493)">
<path d="M109.996 563.755C86.6722 558.486 86.6722 525.287 109.996 520.018L147.874 511.46C161.912 508.289 175.267 518.951 175.267 533.329L175.267 550.444C175.267 564.822 161.912 575.484 147.874 572.313L109.996 563.755Z" fill="#3B5EC6"/>
<path d="M59.0458 518.185C72.3259 518.185 83.0916 528.94 83.0916 542.207C83.0916 555.474 72.3259 566.229 59.0458 566.229C45.7657 566.229 35 555.474 35 542.207C35 528.94 45.7657 518.185 59.0458 518.185Z" fill="#3B5EC6"/>
<path d="M163.565 537.402C157.013 537.402 151.702 532.097 151.702 525.551C151.702 519.006 157.013 513.701 163.565 513.701L191.137 513.701C197.689 513.701 203 519.006 203 525.551C203 532.097 197.689 537.402 191.137 537.402L163.565 537.402Z" fill="#3B5EC6"/>
<path d="M117.609 528.134C111.981 531.484 104.7 529.641 101.347 524.019C97.9932 518.396 99.8374 511.122 105.466 507.772L129.153 493.673C134.781 490.323 142.062 492.165 145.415 497.788C148.769 503.411 146.925 510.685 141.296 514.035L117.609 528.134Z" fill="#3B5EC6"/>
<path d="M105.548 576.639C99.8743 573.366 97.9303 566.118 101.206 560.45C104.482 554.782 111.737 552.84 117.411 556.112L141.289 569.885C146.963 573.157 148.907 580.405 145.631 586.074C142.355 591.742 135.1 593.684 129.427 590.411L105.548 576.639Z" fill="#3B5EC6"/>
<path d="M163.565 570.713C157.013 570.713 151.702 565.407 151.702 558.862C151.702 552.317 157.013 547.011 163.565 547.011L191.137 547.011C197.689 547.011 203 552.317 203 558.862C203 565.407 197.689 570.713 191.137 570.713L163.565 570.713Z" fill="#3B5EC6"/>
</g>
<g id="Vector_2" filter="url(#filter1_d_75_493)">
<path d="M460.996 504.472C437.672 499.15 437.672 465.619 460.996 460.297L498.874 451.654C512.912 448.451 526.267 459.22 526.267 473.741L526.267 491.028C526.267 505.549 512.912 516.318 498.874 513.115L460.996 504.472Z" fill="#3B5EC6"/>
<path d="M410.046 458.445C423.326 458.445 434.092 469.308 434.092 482.708C434.092 496.108 423.326 506.97 410.046 506.97C396.766 506.97 386 496.108 386 482.708C386 469.308 396.766 458.445 410.046 458.445Z" fill="#3B5EC6"/>
<path d="M514.565 477.855C508.013 477.855 502.702 472.496 502.702 465.886C502.702 459.275 508.013 453.917 514.565 453.917L542.137 453.917C548.689 453.917 554 459.275 554 465.886C554 472.497 548.689 477.855 542.137 477.855L514.565 477.855Z" fill="#3B5EC6"/>
<path d="M468.609 468.494C462.981 471.877 455.7 470.017 452.347 464.338C448.993 458.659 450.837 451.312 456.466 447.929L480.153 433.689C485.781 430.305 493.062 432.166 496.415 437.845C499.769 443.524 497.925 450.87 492.296 454.254L468.609 468.494Z" fill="#3B5EC6"/>
<path d="M456.548 517.484C450.874 514.179 448.93 506.858 452.206 501.133C455.482 495.409 462.737 493.447 468.411 496.752L492.289 510.663C497.963 513.968 499.907 521.288 496.631 527.013C493.355 532.738 486.1 534.7 480.427 531.394L456.548 517.484Z" fill="#3B5EC6"/>
<path d="M514.565 511.499C508.013 511.499 502.702 506.14 502.702 499.53C502.702 492.919 508.013 487.56 514.565 487.56L542.137 487.56C548.689 487.56 554 492.919 554 499.53C554 506.14 548.689 511.499 542.137 511.499L514.565 511.499Z" fill="#3B5EC6"/>
</g>
<g id="Vector_3" filter="url(#filter2_d_75_493)">
<path d="M253.996 513.472C230.672 508.15 230.672 474.619 253.996 469.297L291.874 460.654C305.912 457.451 319.267 468.22 319.267 482.741L319.267 500.028C319.267 514.549 305.912 525.318 291.874 522.115L253.996 513.472Z" fill="#3B5EC6"/>
<path d="M203.046 467.445C216.326 467.445 227.092 478.308 227.092 491.708C227.092 505.108 216.326 515.97 203.046 515.97C189.766 515.97 179 505.108 179 491.708C179 478.308 189.766 467.445 203.046 467.445Z" fill="#3B5EC6"/>
<path d="M307.565 486.855C301.013 486.855 295.702 481.496 295.702 474.886C295.702 468.275 301.013 462.917 307.565 462.917L335.137 462.917C341.689 462.917 347 468.275 347 474.886C347 481.496 341.689 486.855 335.137 486.855L307.565 486.855Z" fill="#3B5EC6"/>
<path d="M261.609 477.494C255.981 480.877 248.7 479.017 245.347 473.338C241.993 467.659 243.837 460.312 249.466 456.929L273.153 442.689C278.781 439.305 286.062 441.166 289.415 446.845C292.769 452.524 290.925 459.87 285.296 463.254L261.609 477.494Z" fill="#3B5EC6"/>
<path d="M249.548 526.484C243.874 523.179 241.93 515.858 245.206 510.133C248.482 504.409 255.737 502.447 261.411 505.752L285.289 519.663C290.963 522.968 292.907 530.288 289.631 536.013C286.355 541.738 279.1 543.7 273.427 540.394L249.548 526.484Z" fill="#3B5EC6"/>
<path d="M307.565 520.499C301.013 520.499 295.702 515.14 295.702 508.53C295.702 501.919 301.013 496.56 307.565 496.56L335.137 496.56C341.689 496.56 347 501.919 347 508.53C347 515.14 341.689 520.499 335.137 520.499L307.565 520.499Z" fill="#3B5EC6"/>
</g>
<g id="Vector_4" filter="url(#filter3_d_75_493)">
<path d="M615.996 546.755C592.672 541.486 592.672 508.287 615.996 503.018L653.874 494.46C667.912 491.289 681.267 501.951 681.267 516.329L681.267 533.444C681.267 547.822 667.912 558.484 653.874 555.313L615.996 546.755Z" fill="#3B5EC6"/>
<path d="M565.046 501.185C578.326 501.185 589.092 511.94 589.092 525.207C589.092 538.474 578.326 549.229 565.046 549.229C551.766 549.229 541 538.474 541 525.207C541 511.94 551.766 501.185 565.046 501.185Z" fill="#3B5EC6"/>
<path d="M669.565 520.402C663.013 520.402 657.702 515.097 657.702 508.551C657.702 502.006 663.013 496.701 669.565 496.701L697.137 496.701C703.689 496.701 709 502.006 709 508.551C709 515.097 703.689 520.402 697.137 520.402L669.565 520.402Z" fill="#3B5EC6"/>
<path d="M623.609 511.134C617.981 514.484 610.7 512.641 607.347 507.019C603.993 501.396 605.837 494.122 611.466 490.772L635.153 476.673C640.781 473.323 648.062 475.165 651.415 480.788C654.769 486.411 652.925 493.685 647.296 497.035L623.609 511.134Z" fill="#3B5EC6"/>
<path d="M611.548 559.639C605.874 556.366 603.93 549.118 607.206 543.45C610.482 537.782 617.737 535.84 623.411 539.112L647.289 552.885C652.963 556.157 654.907 563.405 651.631 569.074C648.355 574.742 641.1 576.684 635.427 573.411L611.548 559.639Z" fill="#3B5EC6"/>
<path d="M669.565 553.713C663.013 553.713 657.702 548.407 657.702 541.862C657.702 535.317 663.013 530.011 669.565 530.011L697.137 530.011C703.689 530.011 709 535.317 709 541.862C709 548.407 703.689 553.713 697.137 553.713L669.565 553.713Z" fill="#3B5EC6"/>
</g>
<g id="Vector_5" filter="url(#filter4_d_75_493)">
<path d="M123.388 628.671C95.8994 622.453 95.8994 583.279 123.388 577.061L168.03 566.963C184.575 563.221 200.315 575.802 200.315 592.768L200.315 612.964C200.315 629.93 184.575 642.511 168.03 638.769L123.388 628.671Z" fill="#6A94E0"/>
<path d="M63.3397 574.898C78.9913 574.898 91.6794 587.589 91.6794 603.244C91.6794 618.899 78.9913 631.59 63.3397 631.59C47.6881 631.59 35 618.899 35 603.244C35 587.589 47.6881 574.898 63.3397 574.898Z" fill="#6A94E0"/>
<path d="M186.523 597.575C178.801 597.575 172.542 591.314 172.542 583.591C172.542 575.867 178.801 569.606 186.523 569.606L219.019 569.606C226.741 569.606 233 575.867 233 583.591C233 591.314 226.741 597.575 219.019 597.575L186.523 597.575Z" fill="#6A94E0"/>
<path d="M132.361 586.637C125.728 590.591 117.146 588.417 113.194 581.782C109.242 575.147 111.416 566.564 118.049 562.611L145.966 545.974C152.599 542.021 161.18 544.195 165.132 550.83C169.085 557.464 166.911 566.048 160.278 570.001L132.361 586.637Z" fill="#6A94E0"/>
<path d="M118.146 643.873C111.459 640.012 109.168 631.459 113.029 624.771C116.889 618.082 125.44 615.791 132.127 619.652L160.269 635.904C166.956 639.766 169.248 648.318 165.387 655.007C161.526 661.695 152.975 663.987 146.289 660.125L118.146 643.873Z" fill="#6A94E0"/>
<path d="M186.523 636.881C178.801 636.881 172.542 630.62 172.542 622.897C172.542 615.174 178.801 608.913 186.523 608.913L219.019 608.913C226.741 608.913 233 615.174 233 622.897C233 630.62 226.741 636.881 219.019 636.881L186.523 636.881Z" fill="#6A94E0"/>
</g>
<g id="Vector_6" filter="url(#filter5_d_75_493)">
<path d="M222.388 589.671C194.899 583.453 194.899 544.279 222.388 538.061L267.03 527.963C283.575 524.221 299.315 536.802 299.315 553.768L299.315 573.964C299.315 590.93 283.575 603.511 267.03 599.769L222.388 589.671Z" fill="#6A94E0"/>
<path d="M162.34 535.898C177.991 535.898 190.679 548.589 190.679 564.244C190.679 579.899 177.991 592.59 162.34 592.59C146.688 592.59 134 579.899 134 564.244C134 548.589 146.688 535.898 162.34 535.898Z" fill="#6A94E0"/>
<path d="M285.523 558.575C277.801 558.575 271.542 552.314 271.542 544.591C271.542 536.867 277.801 530.606 285.523 530.606L318.019 530.606C325.741 530.606 332 536.867 332 544.591C332 552.314 325.741 558.575 318.019 558.575L285.523 558.575Z" fill="#6A94E0"/>
<path d="M231.361 547.637C224.728 551.591 216.146 549.417 212.194 542.782C208.242 536.147 210.416 527.564 217.049 523.611L244.966 506.974C251.599 503.021 260.18 505.195 264.132 511.83C268.085 518.464 265.911 527.048 259.278 531.001L231.361 547.637Z" fill="#6A94E0"/>
<path d="M217.146 604.873C210.459 601.012 208.168 592.459 212.029 585.771C215.889 579.082 224.44 576.791 231.127 580.652L259.269 596.904C265.956 600.766 268.248 609.318 264.387 616.007C260.526 622.695 251.975 624.987 245.289 621.125L217.146 604.873Z" fill="#6A94E0"/>
<path d="M285.523 597.881C277.801 597.881 271.542 591.62 271.542 583.897C271.542 576.174 277.801 569.913 285.523 569.913L318.019 569.913C325.741 569.913 332 576.174 332 583.897C332 591.62 325.741 597.881 318.019 597.881L285.523 597.881Z" fill="#6A94E0"/>
</g>
<g id="Vector_7" filter="url(#filter6_d_75_493)">
<path d="M345.388 550.671C317.899 544.453 317.899 505.279 345.388 499.061L390.03 488.963C406.575 485.221 422.315 497.802 422.315 514.768L422.315 534.964C422.315 551.93 406.575 564.511 390.03 560.769L345.388 550.671Z" fill="#6A94E0"/>
<path d="M285.34 496.898C300.991 496.898 313.679 509.589 313.679 525.244C313.679 540.899 300.991 553.59 285.34 553.59C269.688 553.59 257 540.899 257 525.244C257 509.589 269.688 496.898 285.34 496.898Z" fill="#6A94E0"/>
<path d="M408.523 519.575C400.801 519.575 394.542 513.314 394.542 505.591C394.542 497.867 400.801 491.606 408.523 491.606L441.019 491.606C448.741 491.606 455 497.867 455 505.591C455 513.314 448.741 519.575 441.019 519.575L408.523 519.575Z" fill="#6A94E0"/>
<path d="M354.361 508.637C347.728 512.591 339.146 510.417 335.194 503.782C331.242 497.147 333.416 488.564 340.049 484.611L367.966 467.974C374.599 464.021 383.18 466.195 387.132 472.83C391.085 479.464 388.911 488.048 382.278 492.001L354.361 508.637Z" fill="#6A94E0"/>
<path d="M340.146 565.873C333.459 562.012 331.168 553.459 335.029 546.771C338.889 540.082 347.44 537.791 354.127 541.652L382.269 557.904C388.956 561.766 391.248 570.318 387.387 577.007C383.526 583.695 374.975 585.987 368.289 582.125L340.146 565.873Z" fill="#6A94E0"/>
<path d="M408.523 558.881C400.801 558.881 394.542 552.62 394.542 544.897C394.542 537.174 400.801 530.913 408.523 530.913L441.019 530.913C448.741 530.913 455 537.174 455 544.897C455 552.62 448.741 558.881 441.019 558.881L408.523 558.881Z" fill="#6A94E0"/>
</g>
<g id="Vector_8" filter="url(#filter7_d_75_493)">
<path d="M474.388 589.671C446.899 583.453 446.899 544.279 474.388 538.061L519.03 527.963C535.575 524.221 551.315 536.802 551.315 553.768L551.315 573.964C551.315 590.93 535.575 603.511 519.03 599.769L474.388 589.671Z" fill="#6A94E0"/>
<path d="M414.34 535.898C429.991 535.898 442.679 548.589 442.679 564.244C442.679 579.899 429.991 592.59 414.34 592.59C398.688 592.59 386 579.899 386 564.244C386 548.589 398.688 535.898 414.34 535.898Z" fill="#6A94E0"/>
<path d="M537.523 558.575C529.801 558.575 523.542 552.314 523.542 544.591C523.542 536.867 529.801 530.606 537.523 530.606L570.019 530.606C577.741 530.606 584 536.867 584 544.591C584 552.314 577.741 558.575 570.019 558.575L537.523 558.575Z" fill="#6A94E0"/>
<path d="M483.361 547.637C476.728 551.591 468.146 549.417 464.194 542.782C460.242 536.147 462.416 527.564 469.049 523.611L496.966 506.974C503.599 503.021 512.18 505.195 516.132 511.83C520.085 518.464 517.911 527.048 511.278 531.001L483.361 547.637Z" fill="#6A94E0"/>
<path d="M469.146 604.873C462.459 601.012 460.168 592.459 464.029 585.771C467.889 579.082 476.44 576.791 483.127 580.652L511.269 596.904C517.956 600.766 520.248 609.318 516.387 616.007C512.526 622.695 503.975 624.987 497.289 621.125L469.146 604.873Z" fill="#6A94E0"/>
<path d="M537.523 597.881C529.801 597.881 523.542 591.62 523.542 583.897C523.542 576.174 529.801 569.913 537.523 569.913L570.019 569.913C577.741 569.913 584 576.174 584 583.897C584 591.62 577.741 597.881 570.019 597.881L537.523 597.881Z" fill="#6A94E0"/>
</g>
<g id="Vector_9" filter="url(#filter8_d_75_493)">
<path d="M325.388 617.671C297.899 611.453 297.899 572.279 325.388 566.061L370.03 555.963C386.575 552.221 402.315 564.802 402.315 581.768L402.315 601.964C402.315 618.93 386.575 631.511 370.03 627.769L325.388 617.671Z" fill="#8DBBFB"/>
<path d="M265.34 563.898C280.991 563.898 293.679 576.589 293.679 592.244C293.679 607.899 280.991 620.59 265.34 620.59C249.688 620.59 237 607.899 237 592.244C237 576.589 249.688 563.898 265.34 563.898Z" fill="#8DBBFB"/>
<path d="M388.523 586.575C380.801 586.575 374.542 580.314 374.542 572.591C374.542 564.867 380.801 558.606 388.523 558.606L421.019 558.606C428.741 558.606 435 564.867 435 572.591C435 580.314 428.741 586.575 421.019 586.575L388.523 586.575Z" fill="#8DBBFB"/>
<path d="M334.361 575.637C327.728 579.591 319.146 577.417 315.194 570.782C311.242 564.147 313.416 555.564 320.049 551.611L347.966 534.974C354.599 531.021 363.18 533.195 367.132 539.83C371.085 546.464 368.911 555.048 362.278 559.001L334.361 575.637Z" fill="#8DBBFB"/>
<path d="M320.146 632.873C313.459 629.012 311.168 620.459 315.029 613.771C318.889 607.082 327.44 604.791 334.127 608.652L362.269 624.904C368.956 628.766 371.248 637.318 367.387 644.007C363.526 650.695 354.975 652.987 348.289 649.125L320.146 632.873Z" fill="#8DBBFB"/>
<path d="M388.523 625.881C380.801 625.881 374.542 619.62 374.542 611.897C374.542 604.174 380.801 597.913 388.523 597.913L421.019 597.913C428.741 597.913 435 604.174 435 611.897C435 619.62 428.741 625.881 421.019 625.881L388.523 625.881Z" fill="#8DBBFB"/>
</g>
<g id="Vector_10" filter="url(#filter9_d_75_493)">
<path d="M168.388 698.671C140.899 692.453 140.899 653.279 168.388 647.061L213.03 636.963C229.575 633.221 245.315 645.802 245.315 662.768L245.315 682.964C245.315 699.93 229.575 712.511 213.03 708.769L168.388 698.671Z" fill="#8DBBFB"/>
<path d="M108.34 644.898C123.991 644.898 136.679 657.589 136.679 673.244C136.679 688.899 123.991 701.59 108.34 701.59C92.6881 701.59 80 688.899 80 673.244C80 657.589 92.6881 644.898 108.34 644.898Z" fill="#8DBBFB"/>
<path d="M231.523 667.575C223.801 667.575 217.542 661.314 217.542 653.591C217.542 645.867 223.801 639.606 231.523 639.606L264.019 639.606C271.741 639.606 278 645.867 278 653.591C278 661.314 271.741 667.575 264.019 667.575L231.523 667.575Z" fill="#8DBBFB"/>
<path d="M177.361 656.637C170.728 660.591 162.146 658.417 158.194 651.782C154.242 645.147 156.416 636.564 163.049 632.611L190.966 615.974C197.599 612.021 206.18 614.195 210.132 620.83C214.085 627.464 211.911 636.048 205.278 640.001L177.361 656.637Z" fill="#8DBBFB"/>
<path d="M163.146 713.873C156.459 710.012 154.168 701.459 158.029 694.771C161.889 688.082 170.44 685.791 177.127 689.652L205.269 705.904C211.956 709.766 214.248 718.318 210.387 725.007C206.526 731.695 197.975 733.987 191.289 730.125L163.146 713.873Z" fill="#8DBBFB"/>
<path d="M231.523 706.881C223.801 706.881 217.542 700.62 217.542 692.897C217.542 685.174 223.801 678.913 231.523 678.913L264.019 678.913C271.741 678.913 278 685.174 278 692.897C278 700.62 271.741 706.881 264.019 706.881L231.523 706.881Z" fill="#8DBBFB"/>
</g>
<g id="Vector_11" filter="url(#filter10_d_75_493)">
<path d="M444.388 698.671C416.899 692.453 416.899 653.279 444.388 647.061L489.03 636.963C505.575 633.221 521.315 645.802 521.315 662.768L521.315 682.964C521.315 699.93 505.575 712.511 489.03 708.769L444.388 698.671Z" fill="#8DBBFB"/>
<path d="M384.34 644.898C399.991 644.898 412.679 657.589 412.679 673.244C412.679 688.899 399.991 701.59 384.34 701.59C368.688 701.59 356 688.899 356 673.244C356 657.589 368.688 644.898 384.34 644.898Z" fill="#8DBBFB"/>
<path d="M507.523 667.575C499.801 667.575 493.542 661.314 493.542 653.591C493.542 645.867 499.801 639.606 507.523 639.606L540.019 639.606C547.741 639.606 554 645.867 554 653.591C554 661.314 547.741 667.575 540.019 667.575L507.523 667.575Z" fill="#8DBBFB"/>
<path d="M453.361 656.637C446.728 660.591 438.146 658.417 434.194 651.782C430.242 645.147 432.416 636.564 439.049 632.611L466.966 615.974C473.599 612.021 482.18 614.195 486.132 620.83C490.085 627.464 487.911 636.048 481.278 640.001L453.361 656.637Z" fill="#8DBBFB"/>
<path d="M439.146 713.873C432.459 710.012 430.168 701.459 434.029 694.771C437.889 688.082 446.44 685.791 453.127 689.652L481.269 705.904C487.956 709.766 490.248 718.318 486.387 725.007C482.526 731.695 473.975 733.987 467.289 730.125L439.146 713.873Z" fill="#8DBBFB"/>
<path d="M507.523 706.881C499.801 706.881 493.542 700.62 493.542 692.897C493.542 685.174 499.801 678.913 507.523 678.913L540.019 678.913C547.741 678.913 554 685.174 554 692.897C554 700.62 547.741 706.881 540.019 706.881L507.523 706.881Z" fill="#8DBBFB"/>
</g>
<g id="Vector_12" filter="url(#filter11_d_75_493)">
<path d="M577.388 628.671C549.899 622.453 549.899 583.279 577.388 577.061L622.03 566.963C638.575 563.221 654.315 575.802 654.315 592.768L654.315 612.964C654.315 629.93 638.575 642.511 622.03 638.769L577.388 628.671Z" fill="#8DBBFB"/>
<path d="M517.34 574.898C532.991 574.898 545.679 587.589 545.679 603.244C545.679 618.899 532.991 631.59 517.34 631.59C501.688 631.59 489 618.899 489 603.244C489 587.589 501.688 574.898 517.34 574.898Z" fill="#8DBBFB"/>
<path d="M640.523 597.575C632.801 597.575 626.542 591.314 626.542 583.591C626.542 575.867 632.801 569.606 640.523 569.606L673.019 569.606C680.741 569.606 687 575.867 687 583.591C687 591.314 680.741 597.575 673.019 597.575L640.523 597.575Z" fill="#8DBBFB"/>
<path d="M586.361 586.637C579.728 590.591 571.146 588.417 567.194 581.782C563.242 575.147 565.416 566.564 572.049 562.611L599.966 545.974C606.599 542.021 615.18 544.195 619.132 550.83C623.085 557.464 620.911 566.048 614.278 570.001L586.361 586.637Z" fill="#8DBBFB"/>
<path d="M572.146 643.873C565.459 640.012 563.168 631.459 567.029 624.771C570.889 618.082 579.44 615.791 586.127 619.652L614.269 635.904C620.956 639.766 623.248 648.318 619.387 655.007C615.526 661.695 606.975 663.987 600.289 660.125L572.146 643.873Z" fill="#8DBBFB"/>
<path d="M640.523 636.881C632.801 636.881 626.542 630.62 626.542 622.897C626.542 615.174 632.801 608.913 640.523 608.913L673.019 608.913C680.741 608.913 687 615.174 687 622.897C687 630.62 680.741 636.881 673.019 636.881L640.523 636.881Z" fill="#8DBBFB"/>
</g>
</g>
<path id="Vector 10" d="M1175.5 526L1107.5 598.5L1060.5 500L994.5 526L1018.5 458L928 396L1018.5 372L952 263L1060.5 243.5L1083.5 157.5L1156 243.5L1242 212L1264.5 284.5L1352 296.5L1281 372L1352 444.5L1264.5 473L1272 533.5L1175.5 526Z" fill="#211F2F"/>
<g id="Group 3">
<g id="Vector_13" filter="url(#filter12_d_75_493)">
<path d="M934.246 463.996C939.515 440.672 972.714 440.672 977.983 463.996L986.541 501.874C989.712 515.912 979.05 529.267 964.672 529.267H947.557C933.179 529.267 922.517 515.912 925.688 501.874L934.246 463.996Z" fill="#C63B3B"/>
<path d="M979.816 413.046C979.816 426.326 969.061 437.092 955.794 437.092C942.527 437.092 931.772 426.326 931.772 413.046C931.772 399.766 942.527 389 955.794 389C969.061 389 979.816 399.766 979.816 413.046Z" fill="#C63B3B"/>
<path d="M960.599 517.565C960.599 511.013 965.904 505.702 972.45 505.702C978.995 505.702 984.3 511.013 984.3 517.565V545.137C984.3 551.689 978.995 557 972.45 557C965.904 557 960.599 551.689 960.599 545.137V517.565Z" fill="#C63B3B"/>
<path d="M969.867 471.609C966.517 465.981 968.36 458.7 973.982 455.347C979.605 451.993 986.879 453.837 990.229 459.466L1004.33 483.153C1007.68 488.781 1005.84 496.062 1000.21 499.415C994.59 502.769 987.316 500.925 983.966 495.296L969.867 471.609Z" fill="#C63B3B"/>
<path d="M921.362 459.548C924.635 453.874 931.883 451.93 937.551 455.206C943.219 458.482 945.161 465.737 941.889 471.411L928.116 495.289C924.844 500.963 917.596 502.907 911.927 499.631C906.259 496.355 904.317 489.1 907.59 483.427L921.362 459.548Z" fill="#C63B3B"/>
<path d="M927.288 517.565C927.288 511.013 932.594 505.702 939.139 505.702C945.684 505.702 950.99 511.013 950.99 517.565V545.137C950.99 551.689 945.684 557 939.139 557C932.594 557 927.288 551.689 927.288 545.137V517.565Z" fill="#C63B3B"/>
</g>
<g id="Vector_14" filter="url(#filter13_d_75_493)">
<path d="M1168.53 463.996C1173.85 440.672 1207.38 440.672 1212.7 463.996L1221.35 501.874C1224.55 515.912 1213.78 529.267 1199.26 529.267H1181.97C1167.45 529.267 1156.68 515.912 1159.89 501.874L1168.53 463.996Z" fill="#C63B3B"/>
<path d="M1214.55 413.046C1214.55 426.326 1203.69 437.092 1190.29 437.092C1176.89 437.092 1166.03 426.326 1166.03 413.046C1166.03 399.766 1176.89 389 1190.29 389C1203.69 389 1214.55 399.766 1214.55 413.046Z" fill="#C63B3B"/>
<path d="M1195.14 517.565C1195.14 511.013 1200.5 505.702 1207.11 505.702C1213.72 505.702 1219.08 511.013 1219.08 517.565V545.137C1219.08 551.689 1213.72 557 1207.11 557C1200.5 557 1195.14 551.689 1195.14 545.137V517.565Z" fill="#C63B3B"/>
<path d="M1204.51 471.609C1201.12 465.981 1202.98 458.7 1208.66 455.347C1214.34 451.993 1221.69 453.837 1225.07 459.466L1239.31 483.153C1242.69 488.781 1240.83 496.062 1235.16 499.415C1229.48 502.769 1222.13 500.925 1218.75 495.296L1204.51 471.609Z" fill="#C63B3B"/>
<path d="M1155.52 459.548C1158.82 453.874 1166.14 451.93 1171.87 455.206C1177.59 458.482 1179.55 465.737 1176.25 471.411L1162.34 495.289C1159.03 500.963 1151.71 502.907 1145.99 499.631C1140.26 496.355 1138.3 489.1 1141.61 483.427L1155.52 459.548Z" fill="#C63B3B"/>
<path d="M1161.5 517.565C1161.5 511.013 1166.86 505.702 1173.47 505.702C1180.08 505.702 1185.44 511.013 1185.44 517.565V545.137C1185.44 551.689 1180.08 557 1173.47 557C1166.86 557 1161.5 551.689 1161.5 545.137V517.565Z" fill="#C63B3B"/>
</g>
<g id="Vector_15" filter="url(#filter14_d_75_493)">
<path d="M1051.53 463.996C1056.85 440.672 1090.38 440.672 1095.7 463.996L1104.35 501.874C1107.55 515.912 1096.78 529.267 1082.26 529.267H1064.97C1050.45 529.267 1039.68 515.912 1042.89 501.874L1051.53 463.996Z" fill="#C63B3B"/>
<path d="M1097.55 413.046C1097.55 426.326 1086.69 437.092 1073.29 437.092C1059.89 437.092 1049.03 426.326 1049.03 413.046C1049.03 399.766 1059.89 389 1073.29 389C1086.69 389 1097.55 399.766 1097.55 413.046Z" fill="#C63B3B"/>
<path d="M1078.14 517.565C1078.14 511.013 1083.5 505.702 1090.11 505.702C1096.72 505.702 1102.08 511.013 1102.08 517.565V545.137C1102.08 551.689 1096.72 557 1090.11 557C1083.5 557 1078.14 551.689 1078.14 545.137V517.565Z" fill="#C63B3B"/>
<path d="M1087.51 471.609C1084.12 465.981 1085.98 458.7 1091.66 455.347C1097.34 451.993 1104.69 453.837 1108.07 459.466L1122.31 483.153C1125.69 488.781 1123.83 496.062 1118.16 499.415C1112.48 502.769 1105.13 500.925 1101.75 495.296L1087.51 471.609Z" fill="#C63B3B"/>
<path d="M1038.52 459.548C1041.82 453.874 1049.14 451.93 1054.87 455.206C1060.59 458.482 1062.55 465.737 1059.25 471.411L1045.34 495.289C1042.03 500.963 1034.71 502.907 1028.99 499.631C1023.26 496.355 1021.3 489.1 1024.61 483.427L1038.52 459.548Z" fill="#C63B3B"/>
<path d="M1044.5 517.565C1044.5 511.013 1049.86 505.702 1056.47 505.702C1063.08 505.702 1068.44 511.013 1068.44 517.565V545.137C1068.44 551.689 1063.08 557 1056.47 557C1049.86 557 1044.5 551.689 1044.5 545.137V517.565Z" fill="#C63B3B"/>
</g>
<g id="Vector_16" filter="url(#filter15_d_75_493)">
<path d="M1286.25 463.996C1291.52 440.672 1324.71 440.672 1329.98 463.996L1338.54 501.874C1341.71 515.912 1331.05 529.267 1316.67 529.267H1299.56C1285.18 529.267 1274.52 515.912 1277.69 501.874L1286.25 463.996Z" fill="#C63B3B"/>
<path d="M1331.82 413.046C1331.82 426.326 1321.06 437.092 1307.79 437.092C1294.53 437.092 1283.77 426.326 1283.77 413.046C1283.77 399.766 1294.53 389 1307.79 389C1321.06 389 1331.82 399.766 1331.82 413.046Z" fill="#C63B3B"/>
<path d="M1312.6 517.565C1312.6 511.013 1317.9 505.702 1324.45 505.702C1330.99 505.702 1336.3 511.013 1336.3 517.565V545.137C1336.3 551.689 1330.99 557 1324.45 557C1317.9 557 1312.6 551.689 1312.6 545.137V517.565Z" fill="#C63B3B"/>
<path d="M1321.87 471.609C1318.52 465.981 1320.36 458.7 1325.98 455.347C1331.61 451.993 1338.88 453.837 1342.23 459.466L1356.33 483.153C1359.68 488.781 1357.84 496.062 1352.21 499.415C1346.59 502.769 1339.32 500.925 1335.97 495.296L1321.87 471.609Z" fill="#C63B3B"/>
<path d="M1273.36 459.548C1276.63 453.874 1283.88 451.93 1289.55 455.206C1295.22 458.482 1297.16 465.737 1293.89 471.411L1280.12 495.289C1276.84 500.963 1269.6 502.907 1263.93 499.631C1258.26 496.355 1256.32 489.1 1259.59 483.427L1273.36 459.548Z" fill="#C63B3B"/>
<path d="M1279.29 517.565C1279.29 511.013 1284.59 505.702 1291.14 505.702C1297.68 505.702 1302.99 511.013 1302.99 517.565V545.137C1302.99 551.689 1297.68 557 1291.14 557C1284.59 557 1279.29 551.689 1279.29 545.137V517.565Z" fill="#C63B3B"/>
</g>
<g id="Vector_17" filter="url(#filter16_d_75_493)">
<path d="M833.33 500.388C839.548 472.899 878.722 472.899 884.94 500.388L895.038 545.03C898.78 561.575 886.199 577.315 869.233 577.315H849.037C832.071 577.315 819.49 561.575 823.232 545.03L833.33 500.388Z" fill="#E06A6A"/>
<path d="M887.103 440.34C887.103 455.991 874.412 468.679 858.757 468.679C843.102 468.679 830.411 455.991 830.411 440.34C830.411 424.688 843.102 412 858.757 412C874.412 412 887.103 424.688 887.103 440.34Z" fill="#E06A6A"/>
<path d="M864.426 563.523C864.426 555.801 870.687 549.542 878.41 549.542C886.134 549.542 892.395 555.801 892.395 563.523V596.019C892.395 603.741 886.134 610 878.41 610C870.687 610 864.426 603.741 864.426 596.019V563.523Z" fill="#E06A6A"/>
<path d="M875.364 509.361C871.41 502.728 873.584 494.146 880.219 490.194C886.854 486.242 895.437 488.416 899.39 495.049L916.027 522.966C919.98 529.599 917.806 538.18 911.171 542.132C904.537 546.085 895.953 543.911 892 537.278L875.364 509.361Z" fill="#E06A6A"/>
<path d="M818.128 495.146C821.989 488.459 830.542 486.168 837.23 490.029C843.919 493.889 846.21 502.44 842.349 509.127L826.097 537.269C822.235 543.956 813.683 546.248 806.994 542.387C800.306 538.526 798.014 529.975 801.876 523.289L818.128 495.146Z" fill="#E06A6A"/>
<path d="M825.12 563.523C825.12 555.801 831.381 549.542 839.104 549.542C846.827 549.542 853.088 555.801 853.088 563.523V596.019C853.088 603.741 846.827 610 839.104 610C831.381 610 825.12 603.741 825.12 596.019V563.523Z" fill="#E06A6A"/>
</g>
<g id="Vector_18" filter="url(#filter17_d_75_493)">
<path d="M1109.33 500.388C1115.55 472.899 1154.72 472.899 1160.94 500.388L1171.04 545.03C1174.78 561.575 1162.2 577.315 1145.23 577.315H1125.04C1108.07 577.315 1095.49 561.575 1099.23 545.03L1109.33 500.388Z" fill="#E06A6A"/>
<path d="M1163.1 440.34C1163.1 455.991 1150.41 468.679 1134.76 468.679C1119.1 468.679 1106.41 455.991 1106.41 440.34C1106.41 424.688 1119.1 412 1134.76 412C1150.41 412 1163.1 424.688 1163.1 440.34Z" fill="#E06A6A"/>
<path d="M1140.43 563.523C1140.43 555.801 1146.69 549.542 1154.41 549.542C1162.13 549.542 1168.39 555.801 1168.39 563.523V596.019C1168.39 603.741 1162.13 610 1154.41 610C1146.69 610 1140.43 603.741 1140.43 596.019V563.523Z" fill="#E06A6A"/>
<path d="M1151.36 509.361C1147.41 502.728 1149.58 494.146 1156.22 490.194C1162.85 486.242 1171.44 488.416 1175.39 495.049L1192.03 522.966C1195.98 529.599 1193.81 538.18 1187.17 542.132C1180.54 546.085 1171.95 543.911 1168 537.278L1151.36 509.361Z" fill="#E06A6A"/>
<path d="M1094.13 495.146C1097.99 488.459 1106.54 486.168 1113.23 490.029C1119.92 493.889 1122.21 502.44 1118.35 509.127L1102.1 537.269C1098.24 543.956 1089.68 546.248 1082.99 542.387C1076.31 538.526 1074.01 529.975 1077.88 523.289L1094.13 495.146Z" fill="#E06A6A"/>
<path d="M1101.12 563.523C1101.12 555.801 1107.38 549.542 1115.1 549.542C1122.83 549.542 1129.09 555.801 1129.09 563.523V596.019C1129.09 603.741 1122.83 610 1115.1 610C1107.38 610 1101.12 603.741 1101.12 596.019V563.523Z" fill="#E06A6A"/>
</g>
<g id="Vector_19" filter="url(#filter18_d_75_493)">
<path d="M971.33 500.388C977.548 472.899 1016.72 472.899 1022.94 500.388L1033.04 545.03C1036.78 561.575 1024.2 577.315 1007.23 577.315H987.037C970.071 577.315 957.49 561.575 961.232 545.03L971.33 500.388Z" fill="#E06A6A"/>
<path d="M1025.1 440.34C1025.1 455.991 1012.41 468.679 996.757 468.679C981.102 468.679 968.411 455.991 968.411 440.34C968.411 424.688 981.102 412 996.757 412C1012.41 412 1025.1 424.688 1025.1 440.34Z" fill="#E06A6A"/>
<path d="M1002.43 563.523C1002.43 555.801 1008.69 549.542 1016.41 549.542C1024.13 549.542 1030.39 555.801 1030.39 563.523V596.019C1030.39 603.741 1024.13 610 1016.41 610C1008.69 610 1002.43 603.741 1002.43 596.019V563.523Z" fill="#E06A6A"/>
<path d="M1013.36 509.361C1009.41 502.728 1011.58 494.146 1018.22 490.194C1024.85 486.242 1033.44 488.416 1037.39 495.049L1054.03 522.966C1057.98 529.599 1055.81 538.18 1049.17 542.132C1042.54 546.085 1033.95 543.911 1030 537.278L1013.36 509.361Z" fill="#E06A6A"/>
<path d="M956.128 495.146C959.989 488.459 968.542 486.168 975.23 490.029C981.919 493.889 984.21 502.44 980.349 509.127L964.097 537.269C960.235 543.956 951.683 546.248 944.994 542.387C938.306 538.526 936.014 529.975 939.876 523.289L956.128 495.146Z" fill="#E06A6A"/>
<path d="M963.12 563.523C963.12 555.801 969.381 549.542 977.104 549.542C984.827 549.542 991.088 555.801 991.088 563.523V596.019C991.088 603.741 984.827 610 977.104 610C969.381 610 963.12 603.741 963.12 596.019V563.523Z" fill="#E06A6A"/>
</g>
<g id="Vector_20" filter="url(#filter19_d_75_493)">
<path d="M1029.33 546.388C1035.55 518.899 1074.72 518.899 1080.94 546.388L1091.04 591.03C1094.78 607.575 1082.2 623.315 1065.23 623.315H1045.04C1028.07 623.315 1015.49 607.575 1019.23 591.03L1029.33 546.388Z" fill="#FB8D8D"/>
<path d="M1083.1 486.34C1083.1 501.991 1070.41 514.679 1054.76 514.679C1039.1 514.679 1026.41 501.991 1026.41 486.34C1026.41 470.688 1039.1 458 1054.76 458C1070.41 458 1083.1 470.688 1083.1 486.34Z" fill="#FB8D8D"/>
<path d="M1060.43 609.523C1060.43 601.801 1066.69 595.542 1074.41 595.542C1082.13 595.542 1088.39 601.801 1088.39 609.523V642.019C1088.39 649.741 1082.13 656 1074.41 656C1066.69 656 1060.43 649.741 1060.43 642.019V609.523Z" fill="#FB8D8D"/>
<path d="M1071.36 555.361C1067.41 548.728 1069.58 540.146 1076.22 536.194C1082.85 532.242 1091.44 534.416 1095.39 541.049L1112.03 568.966C1115.98 575.599 1113.81 584.18 1107.17 588.132C1100.54 592.085 1091.95 589.911 1088 583.278L1071.36 555.361Z" fill="#FB8D8D"/>
<path d="M1014.13 541.146C1017.99 534.459 1026.54 532.168 1033.23 536.029C1039.92 539.889 1042.21 548.44 1038.35 555.127L1022.1 583.269C1018.24 589.956 1009.68 592.248 1002.99 588.387C996.306 584.526 994.014 575.975 997.876 569.289L1014.13 541.146Z" fill="#FB8D8D"/>
<path d="M1021.12 609.523C1021.12 601.801 1027.38 595.542 1035.1 595.542C1042.83 595.542 1049.09 601.801 1049.09 609.523V642.019C1049.09 649.741 1042.83 656 1035.1 656C1027.38 656 1021.12 649.741 1021.12 642.019V609.523Z" fill="#FB8D8D"/>
</g>
<g id="Vector_21" filter="url(#filter20_d_75_493)">
<path d="M1247.33 500.388C1253.55 472.899 1292.72 472.899 1298.94 500.388L1309.04 545.03C1312.78 561.575 1300.2 577.315 1283.23 577.315H1263.04C1246.07 577.315 1233.49 561.575 1237.23 545.03L1247.33 500.388Z" fill="#E06A6A"/>
<path d="M1301.1 440.34C1301.1 455.991 1288.41 468.679 1272.76 468.679C1257.1 468.679 1244.41 455.991 1244.41 440.34C1244.41 424.688 1257.1 412 1272.76 412C1288.41 412 1301.1 424.688 1301.1 440.34Z" fill="#E06A6A"/>
<path d="M1278.43 563.523C1278.43 555.801 1284.69 549.542 1292.41 549.542C1300.13 549.542 1306.39 555.801 1306.39 563.523V596.019C1306.39 603.741 1300.13 610 1292.41 610C1284.69 610 1278.43 603.741 1278.43 596.019V563.523Z" fill="#E06A6A"/>
<path d="M1289.36 509.361C1285.41 502.728 1287.58 494.146 1294.22 490.194C1300.85 486.242 1309.44 488.416 1313.39 495.049L1330.03 522.966C1333.98 529.599 1331.81 538.18 1325.17 542.132C1318.54 546.085 1309.95 543.911 1306 537.278L1289.36 509.361Z" fill="#E06A6A"/>
<path d="M1232.13 495.146C1235.99 488.459 1244.54 486.168 1251.23 490.029C1257.92 493.889 1260.21 502.44 1256.35 509.127L1240.1 537.269C1236.24 543.956 1227.68 546.248 1220.99 542.387C1214.31 538.526 1212.01 529.975 1215.88 523.289L1232.13 495.146Z" fill="#E06A6A"/>
<path d="M1239.12 563.523C1239.12 555.801 1245.38 549.542 1253.1 549.542C1260.83 549.542 1267.09 555.801 1267.09 563.523V596.019C1267.09 603.741 1260.83 610 1253.1 610C1245.38 610 1239.12 603.741 1239.12 596.019V563.523Z" fill="#E06A6A"/>
</g>
<g id="Vector_22" filter="url(#filter21_d_75_493)">
<path d="M1305.33 546.388C1311.55 518.899 1350.72 518.899 1356.94 546.388L1367.04 591.03C1370.78 607.575 1358.2 623.315 1341.23 623.315H1321.04C1304.07 623.315 1291.49 607.575 1295.23 591.03L1305.33 546.388Z" fill="#FB8D8D"/>
<path d="M1359.1 486.34C1359.1 501.991 1346.41 514.679 1330.76 514.679C1315.1 514.679 1302.41 501.991 1302.41 486.34C1302.41 470.688 1315.1 458 1330.76 458C1346.41 458 1359.1 470.688 1359.1 486.34Z" fill="#FB8D8D"/>
<path d="M1336.43 609.523C1336.43 601.801 1342.69 595.542 1350.41 595.542C1358.13 595.542 1364.39 601.801 1364.39 609.523V642.019C1364.39 649.741 1358.13 656 1350.41 656C1342.69 656 1336.43 649.741 1336.43 642.019V609.523Z" fill="#FB8D8D"/>
<path d="M1347.36 555.361C1343.41 548.728 1345.58 540.146 1352.22 536.194C1358.85 532.242 1367.44 534.416 1371.39 541.049L1388.03 568.966C1391.98 575.599 1389.81 584.18 1383.17 588.132C1376.54 592.085 1367.95 589.911 1364 583.278L1347.36 555.361Z" fill="#FB8D8D"/>
<path d="M1290.13 541.146C1293.99 534.459 1302.54 532.168 1309.23 536.029C1315.92 539.889 1318.21 548.44 1314.35 555.127L1298.1 583.269C1294.24 589.956 1285.68 592.248 1278.99 588.387C1272.31 584.526 1270.01 575.975 1273.88 569.289L1290.13 541.146Z" fill="#FB8D8D"/>
<path d="M1297.12 609.523C1297.12 601.801 1303.38 595.542 1311.1 595.542C1318.83 595.542 1325.09 601.801 1325.09 609.523V642.019C1325.09 649.741 1318.83 656 1311.1 656C1303.38 656 1297.12 649.741 1297.12 642.019V609.523Z" fill="#FB8D8D"/>
</g>
<g id="Vector_23" filter="url(#filter22_d_75_493)">
<path d="M891.33 546.388C897.548 518.899 936.722 518.899 942.94 546.388L953.038 591.03C956.78 607.575 944.199 623.315 927.233 623.315H907.037C890.071 623.315 877.49 607.575 881.232 591.03L891.33 546.388Z" fill="#FB8D8D"/>
<path d="M945.103 486.34C945.103 501.991 932.412 514.679 916.757 514.679C901.102 514.679 888.411 501.991 888.411 486.34C888.411 470.688 901.102 458 916.757 458C932.412 458 945.103 470.688 945.103 486.34Z" fill="#FB8D8D"/>
<path d="M922.426 609.523C922.426 601.801 928.687 595.542 936.41 595.542C944.134 595.542 950.395 601.801 950.395 609.523V642.019C950.395 649.741 944.134 656 936.41 656C928.687 656 922.426 649.741 922.426 642.019V609.523Z" fill="#FB8D8D"/>
<path d="M933.364 555.361C929.41 548.728 931.584 540.146 938.219 536.194C944.854 532.242 953.437 534.416 957.39 541.049L974.027 568.966C977.98 575.599 975.806 584.18 969.171 588.132C962.537 592.085 953.953 589.911 950 583.278L933.364 555.361Z" fill="#FB8D8D"/>
<path d="M876.128 541.146C879.989 534.459 888.542 532.168 895.23 536.029C901.919 539.889 904.21 548.44 900.349 555.127L884.097 583.269C880.235 589.956 871.683 592.248 864.994 588.387C858.306 584.526 856.014 575.975 859.876 569.289L876.128 541.146Z" fill="#FB8D8D"/>
<path d="M883.12 609.523C883.12 601.801 889.381 595.542 897.104 595.542C904.827 595.542 911.088 601.801 911.088 609.523V642.019C911.088 649.741 904.827 656 897.104 656C889.381 656 883.12 649.741 883.12 642.019V609.523Z" fill="#FB8D8D"/>
</g>
<g id="Vector_24" filter="url(#filter23_d_75_493)">
<path d="M1167.33 546.388C1173.55 518.899 1212.72 518.899 1218.94 546.388L1229.04 591.03C1232.78 607.575 1220.2 623.315 1203.23 623.315H1183.04C1166.07 623.315 1153.49 607.575 1157.23 591.03L1167.33 546.388Z" fill="#FB8D8D"/>
<path d="M1221.1 486.34C1221.1 501.991 1208.41 514.679 1192.76 514.679C1177.1 514.679 1164.41 501.991 1164.41 486.34C1164.41 470.688 1177.1 458 1192.76 458C1208.41 458 1221.1 470.688 1221.1 486.34Z" fill="#FB8D8D"/>
<path d="M1198.43 609.523C1198.43 601.801 1204.69 595.542 1212.41 595.542C1220.13 595.542 1226.39 601.801 1226.39 609.523V642.019C1226.39 649.741 1220.13 656 1212.41 656C1204.69 656 1198.43 649.741 1198.43 642.019V609.523Z" fill="#FB8D8D"/>
<path d="M1209.36 555.361C1205.41 548.728 1207.58 540.146 1214.22 536.194C1220.85 532.242 1229.44 534.416 1233.39 541.049L1250.03 568.966C1253.98 575.599 1251.81 584.18 1245.17 588.132C1238.54 592.085 1229.95 589.911 1226 583.278L1209.36 555.361Z" fill="#FB8D8D"/>
<path d="M1152.13 541.146C1155.99 534.459 1164.54 532.168 1171.23 536.029C1177.92 539.889 1180.21 548.44 1176.35 555.127L1160.1 583.269C1156.24 589.956 1147.68 592.248 1140.99 588.387C1134.31 584.526 1132.01 575.975 1135.88 569.289L1152.13 541.146Z" fill="#FB8D8D"/>
<path d="M1159.12 609.523C1159.12 601.801 1165.38 595.542 1173.1 595.542C1180.83 595.542 1187.09 601.801 1187.09 609.523V642.019C1187.09 649.741 1180.83 656 1173.1 656C1165.38 656 1159.12 649.741 1159.12 642.019V609.523Z" fill="#FB8D8D"/>
</g>
</g>
</g>
<defs>
<filter id="filter0_d_75_493" x="31" y="492.001" width="176" height="108" filterUnits="userSpaceOnUse" color-interpolation-filters="sRGB">
<feFlood flood-opacity="0" result="BackgroundImageFix"/>
<feColorMatrix in="SourceAlpha" type="matrix" values="0 0 0 0 0 0 0 0 0 0 0 0 0 0 0 0 0 0 127 0" result="hardAlpha"/>
<feOffset dy="4"/>
<feGaussianBlur stdDeviation="2"/>
<feComposite in2="hardAlpha" operator="out"/>
<feColorMatrix type="matrix" values="0 0 0 0 0 0 0 0 0 0 0 0 0 0 0 0 0 0 0.25 0"/>
<feBlend mode="normal" in2="BackgroundImageFix" result="effect1_dropShadow_75_493"/>
<feBlend mode="normal" in="SourceGraphic" in2="effect1_dropShadow_75_493" result="shape"/>
</filter>
<filter id="filter1_d_75_493" x="382" y="432" width="176" height="109" filterUnits="userSpaceOnUse" color-interpolation-filters="sRGB">
<feFlood flood-opacity="0" result="BackgroundImageFix"/>
<feColorMatrix in="SourceAlpha" type="matrix" values="0 0 0 0 0 0 0 0 0 0 0 0 0 0 0 0 0 0 127 0" result="hardAlpha"/>
<feOffset dy="4"/>
<feGaussianBlur stdDeviation="2"/>
<feComposite in2="hardAlpha" operator="out"/>
<feColorMatrix type="matrix" values="0 0 0 0 0 0 0 0 0 0 0 0 0 0 0 0 0 0 0.25 0"/>
<feBlend mode="normal" in2="BackgroundImageFix" result="effect1_dropShadow_75_493"/>
<feBlend mode="normal" in="SourceGraphic" in2="effect1_dropShadow_75_493" result="shape"/>
</filter>
<filter id="filter2_d_75_493" x="175" y="441" width="176" height="109" filterUnits="userSpaceOnUse" color-interpolation-filters="sRGB">
<feFlood flood-opacity="0" result="BackgroundImageFix"/>
<feColorMatrix in="SourceAlpha" type="matrix" values="0 0 0 0 0 0 0 0 0 0 0 0 0 0 0 0 0 0 127 0" result="hardAlpha"/>
<feOffset dy="4"/>
<feGaussianBlur stdDeviation="2"/>
<feComposite in2="hardAlpha" operator="out"/>
<feColorMatrix type="matrix" values="0 0 0 0 0 0 0 0 0 0 0 0 0 0 0 0 0 0 0.25 0"/>
<feBlend mode="normal" in2="BackgroundImageFix" result="effect1_dropShadow_75_493"/>
<feBlend mode="normal" in="SourceGraphic" in2="effect1_dropShadow_75_493" result="shape"/>
</filter>
<filter id="filter3_d_75_493" x="537" y="475.001" width="176" height="108" filterUnits="userSpaceOnUse" color-interpolation-filters="sRGB">
<feFlood flood-opacity="0" result="BackgroundImageFix"/>
<feColorMatrix in="SourceAlpha" type="matrix" values="0 0 0 0 0 0 0 0 0 0 0 0 0 0 0 0 0 0 127 0" result="hardAlpha"/>
<feOffset dy="4"/>
<feGaussianBlur stdDeviation="2"/>
<feComposite in2="hardAlpha" operator="out"/>
<feColorMatrix type="matrix" values="0 0 0 0 0 0 0 0 0 0 0 0 0 0 0 0 0 0 0.25 0"/>
<feBlend mode="normal" in2="BackgroundImageFix" result="effect1_dropShadow_75_493"/>
<feBlend mode="normal" in="SourceGraphic" in2="effect1_dropShadow_75_493" result="shape"/>
</filter>
<filter id="filter4_d_75_493" x="31" y="544.001" width="206" height="126" filterUnits="userSpaceOnUse" color-interpolation-filters="sRGB">
<feFlood flood-opacity="0" result="BackgroundImageFix"/>
<feColorMatrix in="SourceAlpha" type="matrix" values="0 0 0 0 0 0 0 0 0 0 0 0 0 0 0 0 0 0 127 0" result="hardAlpha"/>
<feOffset dy="4"/>
<feGaussianBlur stdDeviation="2"/>
<feComposite in2="hardAlpha" operator="out"/>
<feColorMatrix type="matrix" values="0 0 0 0 0 0 0 0 0 0 0 0 0 0 0 0 0 0 0.25 0"/>
<feBlend mode="normal" in2="BackgroundImageFix" result="effect1_dropShadow_75_493"/>
<feBlend mode="normal" in="SourceGraphic" in2="effect1_dropShadow_75_493" result="shape"/>
</filter>
<filter id="filter5_d_75_493" x="130" y="505.001" width="206" height="126" filterUnits="userSpaceOnUse" color-interpolation-filters="sRGB">
<feFlood flood-opacity="0" result="BackgroundImageFix"/>
<feColorMatrix in="SourceAlpha" type="matrix" values="0 0 0 0 0 0 0 0 0 0 0 0 0 0 0 0 0 0 127 0" result="hardAlpha"/>
<feOffset dy="4"/>
<feGaussianBlur stdDeviation="2"/>
<feComposite in2="hardAlpha" operator="out"/>
<feColorMatrix type="matrix" values="0 0 0 0 0 0 0 0 0 0 0 0 0 0 0 0 0 0 0.25 0"/>
<feBlend mode="normal" in2="BackgroundImageFix" result="effect1_dropShadow_75_493"/>
<feBlend mode="normal" in="SourceGraphic" in2="effect1_dropShadow_75_493" result="shape"/>
</filter>
<filter id="filter6_d_75_493" x="253" y="466.001" width="206" height="126" filterUnits="userSpaceOnUse" color-interpolation-filters="sRGB">
<feFlood flood-opacity="0" result="BackgroundImageFix"/>
<feColorMatrix in="SourceAlpha" type="matrix" values="0 0 0 0 0 0 0 0 0 0 0 0 0 0 0 0 0 0 127 0" result="hardAlpha"/>
<feOffset dy="4"/>
<feGaussianBlur stdDeviation="2"/>
<feComposite in2="hardAlpha" operator="out"/>
<feColorMatrix type="matrix" values="0 0 0 0 0 0 0 0 0 0 0 0 0 0 0 0 0 0 0.25 0"/>
<feBlend mode="normal" in2="BackgroundImageFix" result="effect1_dropShadow_75_493"/>
<feBlend mode="normal" in="SourceGraphic" in2="effect1_dropShadow_75_493" result="shape"/>
</filter>
<filter id="filter7_d_75_493" x="382" y="505.001" width="206" height="126" filterUnits="userSpaceOnUse" color-interpolation-filters="sRGB">
<feFlood flood-opacity="0" result="BackgroundImageFix"/>
<feColorMatrix in="SourceAlpha" type="matrix" values="0 0 0 0 0 0 0 0 0 0 0 0 0 0 0 0 0 0 127 0" result="hardAlpha"/>
<feOffset dy="4"/>
<feGaussianBlur stdDeviation="2"/>
<feComposite in2="hardAlpha" operator="out"/>
<feColorMatrix type="matrix" values="0 0 0 0 0 0 0 0 0 0 0 0 0 0 0 0 0 0 0.25 0"/>
<feBlend mode="normal" in2="BackgroundImageFix" result="effect1_dropShadow_75_493"/>
<feBlend mode="normal" in="SourceGraphic" in2="effect1_dropShadow_75_493" result="shape"/>
</filter>
<filter id="filter8_d_75_493" x="233" y="533.001" width="206" height="126" filterUnits="userSpaceOnUse" color-interpolation-filters="sRGB">
<feFlood flood-opacity="0" result="BackgroundImageFix"/>
<feColorMatrix in="SourceAlpha" type="matrix" values="0 0 0 0 0 0 0 0 0 0 0 0 0 0 0 0 0 0 127 0" result="hardAlpha"/>
<feOffset dy="4"/>
<feGaussianBlur stdDeviation="2"/>
<feComposite in2="hardAlpha" operator="out"/>
<feColorMatrix type="matrix" values="0 0 0 0 0 0 0 0 0 0 0 0 0 0 0 0 0 0 0.25 0"/>
<feBlend mode="normal" in2="BackgroundImageFix" result="effect1_dropShadow_75_493"/>
<feBlend mode="normal" in="SourceGraphic" in2="effect1_dropShadow_75_493" result="shape"/>
</filter>
<filter id="filter9_d_75_493" x="76" y="614.001" width="206" height="126" filterUnits="userSpaceOnUse" color-interpolation-filters="sRGB">
<feFlood flood-opacity="0" result="BackgroundImageFix"/>
<feColorMatrix in="SourceAlpha" type="matrix" values="0 0 0 0 0 0 0 0 0 0 0 0 0 0 0 0 0 0 127 0" result="hardAlpha"/>
<feOffset dy="4"/>
<feGaussianBlur stdDeviation="2"/>
<feComposite in2="hardAlpha" operator="out"/>
<feColorMatrix type="matrix" values="0 0 0 0 0 0 0 0 0 0 0 0 0 0 0 0 0 0 0.25 0"/>
<feBlend mode="normal" in2="BackgroundImageFix" result="effect1_dropShadow_75_493"/>
<feBlend mode="normal" in="SourceGraphic" in2="effect1_dropShadow_75_493" result="shape"/>
</filter>
<filter id="filter10_d_75_493" x="352" y="614.001" width="206" height="126" filterUnits="userSpaceOnUse" color-interpolation-filters="sRGB">
<feFlood flood-opacity="0" result="BackgroundImageFix"/>
<feColorMatrix in="SourceAlpha" type="matrix" values="0 0 0 0 0 0 0 0 0 0 0 0 0 0 0 0 0 0 127 0" result="hardAlpha"/>
<feOffset dy="4"/>
<feGaussianBlur stdDeviation="2"/>
<feComposite in2="hardAlpha" operator="out"/>
<feColorMatrix type="matrix" values="0 0 0 0 0 0 0 0 0 0 0 0 0 0 0 0 0 0 0.25 0"/>
<feBlend mode="normal" in2="BackgroundImageFix" result="effect1_dropShadow_75_493"/>
<feBlend mode="normal" in="SourceGraphic" in2="effect1_dropShadow_75_493" result="shape"/>
</filter>
<filter id="filter11_d_75_493" x="485" y="544.001" width="206" height="126" filterUnits="userSpaceOnUse" color-interpolation-filters="sRGB">
<feFlood flood-opacity="0" result="BackgroundImageFix"/>
<feColorMatrix in="SourceAlpha" type="matrix" values="0 0 0 0 0 0 0 0 0 0 0 0 0 0 0 0 0 0 127 0" result="hardAlpha"/>
<feOffset dy="4"/>
<feGaussianBlur stdDeviation="2"/>
<feComposite in2="hardAlpha" operator="out"/>
<feColorMatrix type="matrix" values="0 0 0 0 0 0 0 0 0 0 0 0 0 0 0 0 0 0 0.25 0"/>
<feBlend mode="normal" in2="BackgroundImageFix" result="effect1_dropShadow_75_493"/>
<feBlend mode="normal" in="SourceGraphic" in2="effect1_dropShadow_75_493" result="shape"/>
</filter>
<filter id="filter12_d_75_493" x="902" y="389" width="108" height="176" filterUnits="userSpaceOnUse" color-interpolation-filters="sRGB">
<feFlood flood-opacity="0" result="BackgroundImageFix"/>
<feColorMatrix in="SourceAlpha" type="matrix" values="0 0 0 0 0 0 0 0 0 0 0 0 0 0 0 0 0 0 127 0" result="hardAlpha"/>
<feOffset dy="4"/>
<feGaussianBlur stdDeviation="2"/>
<feComposite in2="hardAlpha" operator="out"/>
<feColorMatrix type="matrix" values="0 0 0 0 0 0 0 0 0 0 0 0 0 0 0 0 0 0 0.25 0"/>
<feBlend mode="normal" in2="BackgroundImageFix" result="effect1_dropShadow_75_493"/>
<feBlend mode="normal" in="SourceGraphic" in2="effect1_dropShadow_75_493" result="shape"/>
</filter>
<filter id="filter13_d_75_493" x="1136" y="389" width="109" height="176" filterUnits="userSpaceOnUse" color-interpolation-filters="sRGB">
<feFlood flood-opacity="0" result="BackgroundImageFix"/>
<feColorMatrix in="SourceAlpha" type="matrix" values="0 0 0 0 0 0 0 0 0 0 0 0 0 0 0 0 0 0 127 0" result="hardAlpha"/>
<feOffset dy="4"/>
<feGaussianBlur stdDeviation="2"/>
<feComposite in2="hardAlpha" operator="out"/>
<feColorMatrix type="matrix" values="0 0 0 0 0 0 0 0 0 0 0 0 0 0 0 0 0 0 0.25 0"/>
<feBlend mode="normal" in2="BackgroundImageFix" result="effect1_dropShadow_75_493"/>
<feBlend mode="normal" in="SourceGraphic" in2="effect1_dropShadow_75_493" result="shape"/>
</filter>
<filter id="filter14_d_75_493" x="1019" y="389" width="109" height="176" filterUnits="userSpaceOnUse" color-interpolation-filters="sRGB">
<feFlood flood-opacity="0" result="BackgroundImageFix"/>
<feColorMatrix in="SourceAlpha" type="matrix" values="0 0 0 0 0 0 0 0 0 0 0 0 0 0 0 0 0 0 127 0" result="hardAlpha"/>
<feOffset dy="4"/>
<feGaussianBlur stdDeviation="2"/>
<feComposite in2="hardAlpha" operator="out"/>
<feColorMatrix type="matrix" values="0 0 0 0 0 0 0 0 0 0 0 0 0 0 0 0 0 0 0.25 0"/>
<feBlend mode="normal" in2="BackgroundImageFix" result="effect1_dropShadow_75_493"/>
<feBlend mode="normal" in="SourceGraphic" in2="effect1_dropShadow_75_493" result="shape"/>
</filter>
<filter id="filter15_d_75_493" x="1254" y="389" width="108" height="176" filterUnits="userSpaceOnUse" color-interpolation-filters="sRGB">
<feFlood flood-opacity="0" result="BackgroundImageFix"/>
<feColorMatrix in="SourceAlpha" type="matrix" values="0 0 0 0 0 0 0 0 0 0 0 0 0 0 0 0 0 0 127 0" result="hardAlpha"/>
<feOffset dy="4"/>
<feGaussianBlur stdDeviation="2"/>
<feComposite in2="hardAlpha" operator="out"/>
<feColorMatrix type="matrix" values="0 0 0 0 0 0 0 0 0 0 0 0 0 0 0 0 0 0 0.25 0"/>
<feBlend mode="normal" in2="BackgroundImageFix" result="effect1_dropShadow_75_493"/>
<feBlend mode="normal" in="SourceGraphic" in2="effect1_dropShadow_75_493" result="shape"/>
</filter>
<filter id="filter16_d_75_493" x="796" y="412" width="126" height="206" filterUnits="userSpaceOnUse" color-interpolation-filters="sRGB">
<feFlood flood-opacity="0" result="BackgroundImageFix"/>
<feColorMatrix in="SourceAlpha" type="matrix" values="0 0 0 0 0 0 0 0 0 0 0 0 0 0 0 0 0 0 127 0" result="hardAlpha"/>
<feOffset dy="4"/>
<feGaussianBlur stdDeviation="2"/>
<feComposite in2="hardAlpha" operator="out"/>
<feColorMatrix type="matrix" values="0 0 0 0 0 0 0 0 0 0 0 0 0 0 0 0 0 0 0.25 0"/>
<feBlend mode="normal" in2="BackgroundImageFix" result="effect1_dropShadow_75_493"/>
<feBlend mode="normal" in="SourceGraphic" in2="effect1_dropShadow_75_493" result="shape"/>
</filter>
<filter id="filter17_d_75_493" x="1072" y="412" width="126" height="206" filterUnits="userSpaceOnUse" color-interpolation-filters="sRGB">
<feFlood flood-opacity="0" result="BackgroundImageFix"/>
<feColorMatrix in="SourceAlpha" type="matrix" values="0 0 0 0 0 0 0 0 0 0 0 0 0 0 0 0 0 0 127 0" result="hardAlpha"/>
<feOffset dy="4"/>
<feGaussianBlur stdDeviation="2"/>
<feComposite in2="hardAlpha" operator="out"/>
<feColorMatrix type="matrix" values="0 0 0 0 0 0 0 0 0 0 0 0 0 0 0 0 0 0 0.25 0"/>
<feBlend mode="normal" in2="BackgroundImageFix" result="effect1_dropShadow_75_493"/>
<feBlend mode="normal" in="SourceGraphic" in2="effect1_dropShadow_75_493" result="shape"/>
</filter>
<filter id="filter18_d_75_493" x="934" y="412" width="126" height="206" filterUnits="userSpaceOnUse" color-interpolation-filters="sRGB">
<feFlood flood-opacity="0" result="BackgroundImageFix"/>
<feColorMatrix in="SourceAlpha" type="matrix" values="0 0 0 0 0 0 0 0 0 0 0 0 0 0 0 0 0 0 127 0" result="hardAlpha"/>
<feOffset dy="4"/>
<feGaussianBlur stdDeviation="2"/>
<feComposite in2="hardAlpha" operator="out"/>
<feColorMatrix type="matrix" values="0 0 0 0 0 0 0 0 0 0 0 0 0 0 0 0 0 0 0.25 0"/>
<feBlend mode="normal" in2="BackgroundImageFix" result="effect1_dropShadow_75_493"/>
<feBlend mode="normal" in="SourceGraphic" in2="effect1_dropShadow_75_493" result="shape"/>
</filter>
<filter id="filter19_d_75_493" x="992" y="458" width="126" height="206" filterUnits="userSpaceOnUse" color-interpolation-filters="sRGB">
<feFlood flood-opacity="0" result="BackgroundImageFix"/>
<feColorMatrix in="SourceAlpha" type="matrix" values="0 0 0 0 0 0 0 0 0 0 0 0 0 0 0 0 0 0 127 0" result="hardAlpha"/>
<feOffset dy="4"/>
<feGaussianBlur stdDeviation="2"/>
<feComposite in2="hardAlpha" operator="out"/>
<feColorMatrix type="matrix" values="0 0 0 0 0 0 0 0 0 0 0 0 0 0 0 0 0 0 0.25 0"/>
<feBlend mode="normal" in2="BackgroundImageFix" result="effect1_dropShadow_75_493"/>
<feBlend mode="normal" in="SourceGraphic" in2="effect1_dropShadow_75_493" result="shape"/>
</filter>
<filter id="filter20_d_75_493" x="1210" y="412" width="126" height="206" filterUnits="userSpaceOnUse" color-interpolation-filters="sRGB">
<feFlood flood-opacity="0" result="BackgroundImageFix"/>
<feColorMatrix in="SourceAlpha" type="matrix" values="0 0 0 0 0 0 0 0 0 0 0 0 0 0 0 0 0 0 127 0" result="hardAlpha"/>
<feOffset dy="4"/>
<feGaussianBlur stdDeviation="2"/>
<feComposite in2="hardAlpha" operator="out"/>
<feColorMatrix type="matrix" values="0 0 0 0 0 0 0 0 0 0 0 0 0 0 0 0 0 0 0.25 0"/>
<feBlend mode="normal" in2="BackgroundImageFix" result="effect1_dropShadow_75_493"/>
<feBlend mode="normal" in="SourceGraphic" in2="effect1_dropShadow_75_493" result="shape"/>
</filter>
<filter id="filter21_d_75_493" x="1268" y="458" width="126" height="206" filterUnits="userSpaceOnUse" color-interpolation-filters="sRGB">
<feFlood flood-opacity="0" result="BackgroundImageFix"/>
<feColorMatrix in="SourceAlpha" type="matrix" values="0 0 0 0 0 0 0 0 0 0 0 0 0 0 0 0 0 0 127 0" result="hardAlpha"/>
<feOffset dy="4"/>
<feGaussianBlur stdDeviation="2"/>
<feComposite in2="hardAlpha" operator="out"/>
<feColorMatrix type="matrix" values="0 0 0 0 0 0 0 0 0 0 0 0 0 0 0 0 0 0 0.25 0"/>
<feBlend mode="normal" in2="BackgroundImageFix" result="effect1_dropShadow_75_493"/>
<feBlend mode="normal" in="SourceGraphic" in2="effect1_dropShadow_75_493" result="shape"/>
</filter>
<filter id="filter22_d_75_493" x="854" y="458" width="126" height="206" filterUnits="userSpaceOnUse" color-interpolation-filters="sRGB">
<feFlood flood-opacity="0" result="BackgroundImageFix"/>
<feColorMatrix in="SourceAlpha" type="matrix" values="0 0 0 0 0 0 0 0 0 0 0 0 0 0 0 0 0 0 127 0" result="hardAlpha"/>
<feOffset dy="4"/>
<feGaussianBlur stdDeviation="2"/>
<feComposite in2="hardAlpha" operator="out"/>
<feColorMatrix type="matrix" values="0 0 0 0 0 0 0 0 0 0 0 0 0 0 0 0 0 0 0.25 0"/>
<feBlend mode="normal" in2="BackgroundImageFix" result="effect1_dropShadow_75_493"/>
<feBlend mode="normal" in="SourceGraphic" in2="effect1_dropShadow_75_493" result="shape"/>
</filter>
<filter id="filter23_d_75_493" x="1130" y="458" width="126" height="206" filterUnits="userSpaceOnUse" color-interpolation-filters="sRGB">
<feFlood flood-opacity="0" result="BackgroundImageFix"/>
<feColorMatrix in="SourceAlpha" type="matrix" values="0 0 0 0 0 0 0 0 0 0 0 0 0 0 0 0 0 0 127 0" result="hardAlpha"/>
<feOffset dy="4"/>
<feGaussianBlur stdDeviation="2"/>
<feComposite in2="hardAlpha" operator="out"/>
<feColorMatrix type="matrix" values="0 0 0 0 0 0 0 0 0 0 0 0 0 0 0 0 0 0 0.25 0"/>
<feBlend mode="normal" in2="BackgroundImageFix" result="effect1_dropShadow_75_493"/>
<feBlend mode="normal" in="SourceGraphic" in2="effect1_dropShadow_75_493" result="shape"/>
</filter>
</defs>
</svg>
