<svg width="1440" height="1024" viewBox="0 0 1440 1024" fill="none" xmlns="http://www.w3.org/2000/svg">
<g id="run5-no-end" clip-path="url(#clip0_80_73)">
<rect width="1440" height="1024" fill="#333148"/>
<path id="You died..." d="M376.584 367V334.84L377.736 340.696L347.016 299.8H366.312L389.256 331.192L380.904 331L402.312 299.8H420.648L391.944 340.216L393 334.072V367H376.584ZM452.57 367.96C446.618 367.96 441.338 366.808 436.73 364.504C432.122 362.2 428.506 359.064 425.882 355.096C423.258 351.128 421.946 346.584 421.946 341.464C421.946 336.344 423.258 331.8 425.882 327.832C428.506 323.864 432.122 320.728 436.73 318.424C441.338 316.12 446.618 314.968 452.57 314.968C458.458 314.968 463.674 316.12 468.218 318.424C472.826 320.728 476.442 323.864 479.066 327.832C481.69 331.8 483.002 336.344 483.002 341.464C483.002 346.584 481.69 351.128 479.066 355.096C476.442 359.064 472.826 362.2 468.218 364.504C463.674 366.808 458.458 367.96 452.57 367.96ZM452.57 354.712C455.322 354.712 457.818 354.136 460.058 352.984C462.362 351.832 464.154 350.264 465.434 348.28C466.778 346.296 467.418 344.024 467.354 341.464C467.418 338.904 466.778 336.6 465.434 334.552C464.154 332.504 462.362 330.936 460.058 329.848C457.818 328.696 455.322 328.12 452.57 328.12C449.754 328.12 447.162 328.696 444.794 329.848C442.49 331 440.698 332.568 439.418 334.552C438.138 336.536 437.498 338.84 437.498 341.464C437.498 344.024 438.138 346.296 439.418 348.28C440.698 350.264 442.49 351.832 444.794 352.984C447.162 354.136 449.754 354.712 452.57 354.712ZM521.042 368.056C516.946 368.056 513.394 367.16 510.386 365.368C507.442 363.576 505.17 360.984 503.57 357.592C501.97 354.136 501.17 350.008 501.17 345.208V316.024H516.53V342.712C516.53 345.336 516.882 347.544 517.586 349.336C518.354 351.128 519.538 352.504 521.138 353.464C522.738 354.36 524.69 354.808 526.994 354.808C528.658 354.808 530.194 354.552 531.602 354.04C533.01 353.464 534.258 352.696 535.346 351.736C536.434 350.712 537.266 349.56 537.842 348.28C538.482 346.936 538.802 345.432 538.802 343.768V316.024H554.162V367H539.762L539.09 356.536L541.874 355.384C541.17 357.624 539.826 359.704 537.842 361.624C535.858 363.544 533.426 365.112 530.546 366.328C527.73 367.48 524.562 368.056 521.042 368.056ZM636.082 368.056C631.09 368.056 626.706 366.936 622.93 364.696C619.154 362.392 616.21 359.256 614.098 355.288C611.986 351.256 610.93 346.68 610.93 341.56C610.93 336.44 612.018 331.896 614.194 327.928C616.37 323.896 619.378 320.728 623.218 318.424C627.122 316.12 631.602 314.968 636.658 314.968C639.474 314.968 642.098 315.352 644.53 316.12C646.962 316.824 649.138 317.784 651.058 319C653.042 320.216 654.61 321.624 655.762 323.224C656.978 324.76 657.682 326.328 657.874 327.928L654.226 328.792V295.96H669.682V367H655.378L654.514 354.616L657.586 355.384C657.394 356.984 656.69 358.552 655.474 360.088C654.258 361.56 652.658 362.904 650.674 364.12C648.754 365.272 646.546 366.232 644.05 367C641.554 367.704 638.898 368.056 636.082 368.056ZM640.402 355.096C643.282 355.096 645.778 354.52 647.89 353.368C650.066 352.216 651.73 350.648 652.882 348.664C654.034 346.616 654.61 344.248 654.61 341.56C654.61 338.808 654.034 336.44 652.882 334.456C651.73 332.408 650.066 330.84 647.89 329.752C645.778 328.6 643.282 328.024 640.402 328.024C637.522 328.024 635.026 328.6 632.914 329.752C630.802 330.84 629.138 332.408 627.922 334.456C626.77 336.44 626.194 338.808 626.194 341.56C626.194 344.248 626.77 346.616 627.922 348.664C629.138 350.648 630.802 352.216 632.914 353.368C635.026 354.52 637.522 355.096 640.402 355.096ZM692.927 367V316.024H708.383V367H692.927ZM700.607 305.56C697.727 305.56 695.487 304.888 693.887 303.544C692.287 302.136 691.487 300.152 691.487 297.592C691.487 295.288 692.287 293.4 693.887 291.928C695.551 290.456 697.791 289.72 700.607 289.72C703.487 289.72 705.727 290.424 707.327 291.832C708.927 293.176 709.727 295.096 709.727 297.592C709.727 299.96 708.895 301.88 707.231 303.352C705.631 304.824 703.423 305.56 700.607 305.56ZM758.373 367.96C752.165 367.96 746.725 366.84 742.053 364.6C737.445 362.296 733.861 359.192 731.301 355.288C728.741 351.32 727.461 346.808 727.461 341.752C727.461 337.72 728.197 334.072 729.669 330.808C731.141 327.544 733.189 324.728 735.813 322.36C738.437 319.992 741.509 318.168 745.029 316.888C748.549 315.608 752.357 314.968 756.453 314.968C760.421 314.968 764.069 315.608 767.397 316.888C770.725 318.104 773.605 319.864 776.037 322.168C778.533 324.472 780.453 327.192 781.797 330.328C783.141 333.464 783.749 336.92 783.621 340.696L783.525 345.016H737.541L735.333 336.088H771.045L769.413 338.008V336.088C769.221 334.488 768.517 333.048 767.301 331.768C766.149 330.488 764.645 329.496 762.789 328.792C760.933 328.024 758.885 327.64 756.645 327.64C753.765 327.64 751.205 328.12 748.965 329.08C746.725 329.976 744.965 331.384 743.685 333.304C742.469 335.224 741.861 337.656 741.861 340.6C741.861 343.416 742.597 345.88 744.069 347.992C745.605 350.104 747.749 351.768 750.501 352.984C753.317 354.2 756.613 354.808 760.389 354.808C763.653 354.808 766.373 354.424 768.549 353.656C770.789 352.824 772.805 351.8 774.597 350.584L781.509 360.568C779.397 362.168 777.061 363.544 774.501 364.696C772.005 365.784 769.381 366.584 766.629 367.096C763.941 367.672 761.189 367.96 758.373 367.96ZM822.082 368.056C817.09 368.056 812.706 366.936 808.93 364.696C805.154 362.392 802.21 359.256 800.098 355.288C797.986 351.256 796.93 346.68 796.93 341.56C796.93 336.44 798.018 331.896 800.194 327.928C802.37 323.896 805.378 320.728 809.218 318.424C813.122 316.12 817.602 314.968 822.658 314.968C825.474 314.968 828.098 315.352 830.53 316.12C832.962 316.824 835.138 317.784 837.058 319C839.042 320.216 840.61 321.624 841.762 323.224C842.978 324.76 843.682 326.328 843.874 327.928L840.226 328.792V295.96H855.682V367H841.378L840.514 354.616L843.586 355.384C843.394 356.984 842.69 358.552 841.474 360.088C840.258 361.56 838.658 362.904 836.674 364.12C834.754 365.272 832.546 366.232 830.05 367C827.554 367.704 824.898 368.056 822.082 368.056ZM826.402 355.096C829.282 355.096 831.778 354.52 833.89 353.368C836.066 352.216 837.73 350.648 838.882 348.664C840.034 346.616 840.61 344.248 840.61 341.56C840.61 338.808 840.034 336.44 838.882 334.456C837.73 332.408 836.066 330.84 833.89 329.752C831.778 328.6 829.282 328.024 826.402 328.024C823.522 328.024 821.026 328.6 818.914 329.752C816.802 330.84 815.138 332.408 813.922 334.456C812.77 336.44 812.194 338.808 812.194 341.56C812.194 344.248 812.77 346.616 813.922 348.664C815.138 350.648 816.802 352.216 818.914 353.368C821.026 354.52 823.522 355.096 826.402 355.096ZM884.495 368.056C881.359 368.056 878.959 367.32 877.295 365.848C875.695 364.312 874.895 362.2 874.895 359.512C874.895 357.08 875.727 355.032 877.391 353.368C879.119 351.704 881.487 350.872 884.495 350.872C887.631 350.872 890.031 351.64 891.695 353.176C893.359 354.712 894.191 356.824 894.191 359.512C894.191 361.88 893.327 363.896 891.599 365.56C889.935 367.224 887.567 368.056 884.495 368.056ZM921.432 368.056C918.296 368.056 915.896 367.32 914.232 365.848C912.632 364.312 911.832 362.2 911.832 359.512C911.832 357.08 912.664 355.032 914.328 353.368C916.056 351.704 918.424 350.872 921.432 350.872C924.568 350.872 926.968 351.64 928.632 353.176C930.296 354.712 931.128 356.824 931.128 359.512C931.128 361.88 930.264 363.896 928.536 365.56C926.872 367.224 924.504 368.056 921.432 368.056ZM958.37 368.056C955.234 368.056 952.834 367.32 951.17 365.848C949.57 364.312 948.77 362.2 948.77 359.512C948.77 357.08 949.602 355.032 951.266 353.368C952.994 351.704 955.362 350.872 958.37 350.872C961.506 350.872 963.906 351.64 965.57 353.176C967.234 354.712 968.066 356.824 968.066 359.512C968.066 361.88 967.202 363.896 965.474 365.56C963.81 367.224 961.442 368.056 958.37 368.056Z" fill="white"/>
<path id="maybe you should run next time..." d="M347.928 414V401.256H351.576L351.696 403.944L351 403.776C351.208 403.392 351.48 403.032 351.816 402.696C352.168 402.36 352.56 402.072 352.992 401.832C353.44 401.576 353.92 401.376 354.432 401.232C354.944 401.088 355.496 401.016 356.088 401.016C356.776 401.016 357.408 401.12 357.984 401.328C358.576 401.536 359.08 401.88 359.496 402.36C359.912 402.824 360.232 403.448 360.456 404.232L359.664 404.136L359.856 403.752C360.112 403.384 360.416 403.04 360.768 402.72C361.136 402.384 361.552 402.096 362.016 401.856C362.48 401.6 362.976 401.4 363.504 401.256C364.032 401.096 364.576 401.016 365.136 401.016C366.304 401.016 367.256 401.24 367.992 401.688C368.728 402.12 369.272 402.736 369.624 403.536C369.976 404.336 370.152 405.264 370.152 406.32V414H366.288V406.728C366.288 406.216 366.208 405.776 366.048 405.408C365.888 405.04 365.64 404.76 365.304 404.568C364.984 404.36 364.568 404.256 364.056 404.256C363.608 404.256 363.192 404.328 362.808 404.472C362.44 404.616 362.112 404.816 361.824 405.072C361.552 405.312 361.336 405.6 361.176 405.936C361.032 406.256 360.96 406.608 360.96 406.992V414H357.096V406.704C357.096 406.208 357.008 405.776 356.832 405.408C356.656 405.04 356.384 404.76 356.016 404.568C355.648 404.36 355.192 404.256 354.648 404.256C354.216 404.256 353.824 404.336 353.472 404.496C353.136 404.64 352.84 404.84 352.584 405.096C352.328 405.336 352.128 405.6 351.984 405.888C351.856 406.176 351.792 406.472 351.792 406.776V414H347.928ZM380.858 414.216C379.594 414.216 378.49 413.936 377.546 413.376C376.602 412.816 375.858 412.04 375.314 411.048C374.786 410.04 374.521 408.896 374.521 407.616C374.521 406.32 374.794 405.176 375.338 404.184C375.882 403.192 376.634 402.416 377.594 401.856C378.57 401.28 379.69 400.992 380.954 400.992C381.674 400.992 382.338 401.088 382.946 401.28C383.554 401.456 384.082 401.704 384.53 402.024C384.994 402.344 385.37 402.696 385.658 403.08C385.962 403.464 386.162 403.864 386.258 404.28H385.418V401.256H389.21V414H385.346V410.736L386.161 410.856C386.066 411.272 385.866 411.68 385.562 412.08C385.258 412.48 384.866 412.84 384.386 413.16C383.906 413.48 383.362 413.736 382.754 413.928C382.162 414.12 381.53 414.216 380.858 414.216ZM381.89 410.976C382.61 410.976 383.234 410.84 383.762 410.568C384.306 410.296 384.722 409.912 385.01 409.416C385.314 408.904 385.466 408.304 385.466 407.616C385.466 406.944 385.314 406.36 385.01 405.864C384.722 405.352 384.306 404.952 383.762 404.664C383.234 404.376 382.61 404.232 381.89 404.232C381.17 404.232 380.546 404.376 380.018 404.664C379.49 404.952 379.074 405.352 378.77 405.864C378.482 406.36 378.338 406.944 378.338 407.616C378.338 408.304 378.482 408.904 378.77 409.416C379.074 409.912 379.49 410.296 380.018 410.568C380.546 410.84 381.17 410.976 381.89 410.976ZM396.412 419.52L399.748 412.68L399.676 414.624L392.908 401.256H397.3L400.396 407.88C400.62 408.328 400.828 408.784 401.02 409.248C401.212 409.696 401.364 410.144 401.476 410.592L400.756 410.784C400.9 410.432 401.068 410.016 401.26 409.536C401.452 409.056 401.652 408.568 401.86 408.072L404.716 401.256H409.108L402.868 414.048L400.3 419.52H396.412ZM421.34 414.264C420.652 414.264 420.004 414.176 419.396 414C418.788 413.824 418.244 413.592 417.764 413.304C417.284 413.016 416.884 412.688 416.564 412.32C416.26 411.936 416.06 411.568 415.964 411.216L416.996 411.024L416.78 413.976H413.204V396.24H417.068V404.304L416.084 404.112C416.196 403.712 416.404 403.328 416.708 402.96C417.012 402.592 417.396 402.264 417.86 401.976C418.34 401.672 418.876 401.432 419.468 401.256C420.06 401.08 420.684 400.992 421.34 400.992C422.556 400.992 423.644 401.28 424.604 401.856C425.564 402.416 426.324 403.2 426.884 404.208C427.444 405.2 427.724 406.336 427.724 407.616C427.724 408.912 427.444 410.064 426.884 411.072C426.34 412.064 425.588 412.848 424.628 413.424C423.668 413.984 422.572 414.264 421.34 414.264ZM420.428 411C421.148 411 421.764 410.856 422.276 410.568C422.804 410.28 423.212 409.888 423.5 409.392C423.804 408.88 423.956 408.288 423.956 407.616C423.956 406.944 423.812 406.352 423.524 405.84C423.236 405.328 422.82 404.936 422.276 404.664C421.748 404.392 421.132 404.256 420.428 404.256C419.692 404.256 419.06 404.392 418.532 404.664C418.004 404.936 417.588 405.328 417.284 405.84C416.996 406.352 416.852 406.944 416.852 407.616C416.852 408.288 416.996 408.88 417.284 409.392C417.588 409.888 418.004 410.28 418.532 410.568C419.06 410.856 419.692 411 420.428 411ZM438.757 414.24C437.205 414.24 435.845 413.96 434.677 413.4C433.525 412.824 432.629 412.048 431.989 411.072C431.349 410.08 431.029 408.952 431.029 407.688C431.029 406.68 431.213 405.768 431.581 404.952C431.949 404.136 432.461 403.432 433.117 402.84C433.773 402.248 434.541 401.792 435.421 401.472C436.301 401.152 437.253 400.992 438.277 400.992C439.269 400.992 440.181 401.152 441.013 401.472C441.845 401.776 442.565 402.216 443.173 402.792C443.797 403.368 444.277 404.048 444.613 404.832C444.949 405.616 445.101 406.48 445.069 407.424L445.045 408.504H433.549L432.997 406.272H441.925L441.517 406.752V406.272C441.469 405.872 441.293 405.512 440.989 405.192C440.701 404.872 440.325 404.624 439.861 404.448C439.397 404.256 438.885 404.16 438.325 404.16C437.605 404.16 436.965 404.28 436.405 404.52C435.845 404.744 435.405 405.096 435.085 405.576C434.781 406.056 434.629 406.664 434.629 407.4C434.629 408.104 434.813 408.72 435.181 409.248C435.565 409.776 436.101 410.192 436.789 410.496C437.493 410.8 438.317 410.952 439.261 410.952C440.077 410.952 440.757 410.856 441.301 410.664C441.861 410.456 442.365 410.2 442.813 409.896L444.541 412.392C444.013 412.792 443.429 413.136 442.789 413.424C442.165 413.696 441.509 413.896 440.821 414.024C440.149 414.168 439.461 414.24 438.757 414.24ZM461.053 419.52L464.389 412.68L464.317 414.624L457.549 401.256H461.941L465.037 407.88C465.261 408.328 465.469 408.784 465.661 409.248C465.853 409.696 466.005 410.144 466.117 410.592L465.397 410.784C465.541 410.432 465.709 410.016 465.901 409.536C466.093 409.056 466.293 408.568 466.501 408.072L469.357 401.256H473.749L467.509 414.048L464.941 419.52H461.053ZM483.994 414.24C482.506 414.24 481.186 413.952 480.034 413.376C478.882 412.8 477.978 412.016 477.322 411.024C476.666 410.032 476.338 408.896 476.338 407.616C476.338 406.336 476.666 405.2 477.322 404.208C477.978 403.216 478.882 402.432 480.034 401.856C481.186 401.28 482.506 400.992 483.994 400.992C485.466 400.992 486.77 401.28 487.906 401.856C489.058 402.432 489.962 403.216 490.618 404.208C491.274 405.2 491.602 406.336 491.602 407.616C491.602 408.896 491.274 410.032 490.618 411.024C489.962 412.016 489.058 412.8 487.906 413.376C486.77 413.952 485.466 414.24 483.994 414.24ZM483.994 410.928C484.682 410.928 485.306 410.784 485.866 410.496C486.442 410.208 486.89 409.816 487.21 409.32C487.546 408.824 487.706 408.256 487.69 407.616C487.706 406.976 487.546 406.4 487.21 405.888C486.89 405.376 486.442 404.984 485.866 404.712C485.306 404.424 484.682 404.28 483.994 404.28C483.29 404.28 482.642 404.424 482.05 404.712C481.474 405 481.026 405.392 480.706 405.888C480.386 406.384 480.226 406.96 480.226 407.616C480.226 408.256 480.386 408.824 480.706 409.32C481.026 409.816 481.474 410.208 482.05 410.496C482.642 410.784 483.29 410.928 483.994 410.928ZM501.112 414.264C500.088 414.264 499.2 414.04 498.448 413.592C497.712 413.144 497.144 412.496 496.744 411.648C496.344 410.784 496.144 409.752 496.144 408.552V401.256H499.984V407.928C499.984 408.584 500.072 409.136 500.248 409.584C500.44 410.032 500.736 410.376 501.136 410.616C501.536 410.84 502.024 410.952 502.6 410.952C503.016 410.952 503.4 410.888 503.752 410.76C504.104 410.616 504.416 410.424 504.688 410.184C504.96 409.928 505.168 409.64 505.312 409.32C505.472 408.984 505.552 408.608 505.552 408.192V401.256H509.392V414H505.792L505.624 411.384L506.32 411.096C506.144 411.656 505.808 412.176 505.312 412.656C504.816 413.136 504.208 413.528 503.488 413.832C502.784 414.12 501.992 414.264 501.112 414.264ZM529.872 414.24C528.464 414.24 527.2 414.04 526.08 413.64C524.976 413.24 524.088 412.672 523.416 411.936L525.744 409.872C526.288 410.384 526.936 410.776 527.688 411.048C528.44 411.32 529.232 411.456 530.064 411.456C530.32 411.456 530.568 411.432 530.808 411.384C531.064 411.336 531.28 411.272 531.456 411.192C531.648 411.096 531.8 410.984 531.912 410.856C532.024 410.728 532.08 410.568 532.08 410.376C532.08 410.072 531.888 409.832 531.504 409.656C531.232 409.56 530.888 409.464 530.472 409.368C530.056 409.272 529.584 409.168 529.056 409.056C528.176 408.896 527.4 408.704 526.728 408.48C526.072 408.24 525.52 407.944 525.072 407.592C524.688 407.256 524.392 406.872 524.184 406.44C523.976 406.008 523.872 405.504 523.872 404.928C523.872 404.336 524.024 403.8 524.328 403.32C524.632 402.824 525.056 402.408 525.6 402.072C526.144 401.72 526.768 401.456 527.472 401.28C528.176 401.088 528.912 400.992 529.68 400.992C530.448 400.992 531.2 401.072 531.936 401.232C532.672 401.376 533.368 401.592 534.024 401.88C534.68 402.152 535.256 402.504 535.752 402.936L533.784 405.24C533.432 404.968 533.024 404.72 532.56 404.496C532.096 404.272 531.6 404.096 531.072 403.968C530.56 403.824 530.056 403.752 529.56 403.752C529.288 403.752 529.024 403.768 528.768 403.8C528.528 403.832 528.32 403.896 528.144 403.992C527.968 404.072 527.824 404.176 527.712 404.304C527.616 404.416 527.568 404.56 527.568 404.736C527.568 404.88 527.608 405.016 527.688 405.144C527.768 405.272 527.888 405.376 528.048 405.456C528.272 405.6 528.6 405.728 529.032 405.84C529.48 405.952 530.04 406.072 530.712 406.2C531.688 406.408 532.52 406.648 533.208 406.92C533.896 407.176 534.448 407.488 534.864 407.856C535.2 408.112 535.448 408.432 535.608 408.816C535.768 409.184 535.848 409.592 535.848 410.04C535.848 410.856 535.584 411.584 535.056 412.224C534.544 412.848 533.84 413.344 532.944 413.712C532.064 414.064 531.04 414.24 529.872 414.24ZM540.235 414V396.24H544.003V404.232L543.091 404.544C543.251 403.904 543.587 403.32 544.099 402.792C544.627 402.248 545.267 401.816 546.019 401.496C546.771 401.16 547.571 400.992 548.419 400.992C549.507 400.992 550.419 401.216 551.155 401.664C551.907 402.096 552.467 402.712 552.835 403.512C553.219 404.296 553.411 405.216 553.411 406.272V414H549.547V406.872C549.547 406.296 549.443 405.816 549.235 405.432C549.043 405.032 548.747 404.728 548.347 404.52C547.963 404.312 547.515 404.216 547.003 404.232C546.587 404.232 546.195 404.304 545.827 404.448C545.475 404.576 545.163 404.768 544.891 405.024C544.635 405.264 544.435 405.544 544.291 405.864C544.147 406.184 544.075 406.528 544.075 406.896V414H542.179C541.651 414 541.227 414 540.907 414C540.587 414 540.363 414 540.235 414ZM565.674 414.24C564.186 414.24 562.866 413.952 561.714 413.376C560.562 412.8 559.658 412.016 559.002 411.024C558.346 410.032 558.018 408.896 558.018 407.616C558.018 406.336 558.346 405.2 559.002 404.208C559.658 403.216 560.562 402.432 561.714 401.856C562.866 401.28 564.186 400.992 565.674 400.992C567.146 400.992 568.45 401.28 569.586 401.856C570.738 402.432 571.642 403.216 572.298 404.208C572.954 405.2 573.282 406.336 573.282 407.616C573.282 408.896 572.954 410.032 572.298 411.024C571.642 412.016 570.738 412.8 569.586 413.376C568.45 413.952 567.146 414.24 565.674 414.24ZM565.674 410.928C566.362 410.928 566.986 410.784 567.546 410.496C568.122 410.208 568.57 409.816 568.89 409.32C569.226 408.824 569.386 408.256 569.37 407.616C569.386 406.976 569.226 406.4 568.89 405.888C568.57 405.376 568.122 404.984 567.546 404.712C566.986 404.424 566.362 404.28 565.674 404.28C564.97 404.28 564.322 404.424 563.73 404.712C563.154 405 562.706 405.392 562.386 405.888C562.066 406.384 561.906 406.96 561.906 407.616C561.906 408.256 562.066 408.824 562.386 409.32C562.706 409.816 563.154 410.208 563.73 410.496C564.322 410.784 564.97 410.928 565.674 410.928ZM582.792 414.264C581.768 414.264 580.88 414.04 580.128 413.592C579.392 413.144 578.824 412.496 578.424 411.648C578.024 410.784 577.824 409.752 577.824 408.552V401.256H581.664V407.928C581.664 408.584 581.752 409.136 581.928 409.584C582.12 410.032 582.416 410.376 582.816 410.616C583.216 410.84 583.704 410.952 584.28 410.952C584.696 410.952 585.08 410.888 585.432 410.76C585.784 410.616 586.096 410.424 586.368 410.184C586.64 409.928 586.848 409.64 586.992 409.32C587.152 408.984 587.232 408.608 587.232 408.192V401.256H591.072V414H587.472L587.304 411.384L588 411.096C587.824 411.656 587.488 412.176 586.992 412.656C586.496 413.136 585.888 413.528 585.168 413.832C584.464 414.12 583.672 414.264 582.792 414.264ZM597.047 414V396.24H600.887V414H597.047ZM611.575 414.264C610.327 414.264 609.231 413.984 608.287 413.424C607.343 412.848 606.607 412.064 606.079 411.072C605.551 410.064 605.287 408.92 605.287 407.64C605.287 406.36 605.559 405.224 606.103 404.232C606.647 403.224 607.399 402.432 608.359 401.856C609.335 401.28 610.455 400.992 611.719 400.992C612.423 400.992 613.079 401.088 613.687 401.28C614.295 401.456 614.839 401.696 615.319 402C615.815 402.304 616.207 402.656 616.495 403.056C616.799 403.44 616.975 403.832 617.023 404.232L616.111 404.448V396.24H619.975V414H616.399L616.183 410.904L616.951 411.096C616.903 411.496 616.727 411.888 616.423 412.272C616.119 412.64 615.719 412.976 615.223 413.28C614.743 413.568 614.191 413.808 613.567 414C612.943 414.176 612.279 414.264 611.575 414.264ZM612.655 411.024C613.375 411.024 613.999 410.88 614.527 410.592C615.071 410.304 615.487 409.912 615.775 409.416C616.063 408.904 616.207 408.312 616.207 407.64C616.207 406.952 616.063 406.36 615.775 405.864C615.487 405.352 615.071 404.96 614.527 404.688C613.999 404.4 613.375 404.256 612.655 404.256C611.935 404.256 611.311 404.4 610.783 404.688C610.255 404.96 609.839 405.352 609.535 405.864C609.247 406.36 609.103 406.952 609.103 407.64C609.103 408.312 609.247 408.904 609.535 409.416C609.839 409.912 610.255 410.304 610.783 410.592C611.311 410.88 611.935 411.024 612.655 411.024ZM635.251 414V401.256H638.899L639.067 405.648L638.155 405.192C638.363 404.408 638.723 403.704 639.235 403.08C639.763 402.44 640.363 401.936 641.035 401.568C641.723 401.184 642.451 400.992 643.219 400.992C643.635 400.992 644.027 401.032 644.395 401.112C644.779 401.192 645.107 401.296 645.379 401.424L644.323 405.624C644.083 405.448 643.755 405.312 643.339 405.216C642.939 405.12 642.531 405.072 642.115 405.072C641.651 405.072 641.227 405.152 640.843 405.312C640.475 405.456 640.163 405.664 639.907 405.936C639.651 406.192 639.451 406.488 639.307 406.824C639.179 407.16 639.115 407.52 639.115 407.904V414H635.251ZM654.44 414.264C653.416 414.264 652.528 414.04 651.776 413.592C651.04 413.144 650.472 412.496 650.072 411.648C649.672 410.784 649.472 409.752 649.472 408.552V401.256H653.312V407.928C653.312 408.584 653.4 409.136 653.576 409.584C653.768 410.032 654.064 410.376 654.464 410.616C654.864 410.84 655.352 410.952 655.928 410.952C656.344 410.952 656.728 410.888 657.08 410.76C657.432 410.616 657.744 410.424 658.016 410.184C658.288 409.928 658.496 409.64 658.64 409.32C658.8 408.984 658.88 408.608 658.88 408.192V401.256H662.72V414H659.12L658.952 411.384L659.648 411.096C659.472 411.656 659.136 412.176 658.64 412.656C658.144 413.136 657.536 413.528 656.816 413.832C656.112 414.12 655.32 414.264 654.44 414.264ZM668.696 414V401.256H672.344L672.464 404.232L671.552 404.496C671.76 403.872 672.112 403.296 672.608 402.768C673.12 402.24 673.736 401.816 674.456 401.496C675.192 401.16 675.984 400.992 676.832 400.992C677.92 400.992 678.84 401.208 679.592 401.64C680.344 402.072 680.912 402.688 681.296 403.488C681.68 404.272 681.872 405.208 681.872 406.296V414H678.008V406.848C678.008 406.288 677.904 405.816 677.696 405.432C677.504 405.048 677.208 404.752 676.808 404.544C676.424 404.336 675.976 404.232 675.464 404.232C675.016 404.232 674.608 404.312 674.24 404.472C673.888 404.616 673.584 404.816 673.328 405.072C673.072 405.312 672.872 405.584 672.728 405.888C672.6 406.192 672.536 406.504 672.536 406.824V414H670.64C670.112 414 669.688 414 669.368 414C669.048 414 668.824 414 668.696 414ZM697.407 414V401.256H701.055L701.175 404.232L700.263 404.496C700.471 403.872 700.823 403.296 701.319 402.768C701.831 402.24 702.447 401.816 703.167 401.496C703.903 401.16 704.695 400.992 705.543 400.992C706.631 400.992 707.551 401.208 708.303 401.64C709.055 402.072 709.623 402.688 710.007 403.488C710.391 404.272 710.583 405.208 710.583 406.296V414H706.719V406.848C706.719 406.288 706.615 405.816 706.407 405.432C706.215 405.048 705.919 404.752 705.519 404.544C705.135 404.336 704.687 404.232 704.175 404.232C703.727 404.232 703.319 404.312 702.951 404.472C702.599 404.616 702.295 404.816 702.039 405.072C701.783 405.312 701.583 405.584 701.439 405.888C701.311 406.192 701.247 406.504 701.247 406.824V414H699.351C698.823 414 698.399 414 698.079 414C697.759 414 697.535 414 697.407 414ZM722.75 414.24C721.198 414.24 719.838 413.96 718.67 413.4C717.518 412.824 716.622 412.048 715.982 411.072C715.342 410.08 715.021 408.952 715.021 407.688C715.021 406.68 715.206 405.768 715.574 404.952C715.942 404.136 716.454 403.432 717.11 402.84C717.766 402.248 718.534 401.792 719.414 401.472C720.294 401.152 721.246 400.992 722.27 400.992C723.262 400.992 724.174 401.152 725.006 401.472C725.838 401.776 726.558 402.216 727.166 402.792C727.79 403.368 728.27 404.048 728.606 404.832C728.942 405.616 729.094 406.48 729.062 407.424L729.038 408.504H717.542L716.99 406.272H725.918L725.51 406.752V406.272C725.462 405.872 725.286 405.512 724.982 405.192C724.694 404.872 724.318 404.624 723.854 404.448C723.39 404.256 722.878 404.16 722.318 404.16C721.598 404.16 720.958 404.28 720.398 404.52C719.838 404.744 719.398 405.096 719.078 405.576C718.774 406.056 718.622 406.664 718.622 407.4C718.622 408.104 718.806 408.72 719.174 409.248C719.558 409.776 720.094 410.192 720.782 410.496C721.486 410.8 722.31 410.952 723.254 410.952C724.07 410.952 724.75 410.856 725.294 410.664C725.854 410.456 726.358 410.2 726.806 409.896L728.534 412.392C728.006 412.792 727.422 413.136 726.782 413.424C726.158 413.696 725.502 413.896 724.814 414.024C724.142 414.168 723.454 414.24 722.75 414.24ZM742.878 414L739.35 409.416L738.366 408.12L732.774 401.256H737.622L740.79 405.456L741.846 406.848L747.678 414H742.878ZM732.462 414L738.174 406.8L740.502 409.176L737.238 414H732.462ZM741.822 408.456L739.566 406.056L742.782 401.256H747.534L741.822 408.456ZM753.686 414V397.752H757.526V414H753.686ZM750.854 404.616V401.256H760.766V404.616H750.854ZM776.397 414V397.752H780.237V414H776.397ZM773.565 404.616V401.256H783.477V404.616H773.565ZM788.396 414V401.256H792.26V414H788.396ZM790.316 398.64C789.596 398.64 789.036 398.472 788.636 398.136C788.236 397.784 788.036 397.288 788.036 396.648C788.036 396.072 788.236 395.6 788.636 395.232C789.052 394.864 789.612 394.68 790.316 394.68C791.036 394.68 791.596 394.856 791.996 395.208C792.396 395.544 792.596 396.024 792.596 396.648C792.596 397.24 792.388 397.72 791.972 398.088C791.572 398.456 791.02 398.64 790.316 398.64ZM798.373 414V401.256H802.021L802.141 403.944L801.445 403.776C801.653 403.392 801.925 403.032 802.261 402.696C802.613 402.36 803.005 402.072 803.437 401.832C803.885 401.576 804.365 401.376 804.877 401.232C805.389 401.088 805.941 401.016 806.533 401.016C807.221 401.016 807.853 401.12 808.429 401.328C809.021 401.536 809.525 401.88 809.941 402.36C810.357 402.824 810.677 403.448 810.901 404.232L810.109 404.136L810.301 403.752C810.557 403.384 810.861 403.04 811.213 402.72C811.581 402.384 811.997 402.096 812.461 401.856C812.925 401.6 813.421 401.4 813.949 401.256C814.477 401.096 815.021 401.016 815.581 401.016C816.749 401.016 817.701 401.24 818.437 401.688C819.173 402.12 819.717 402.736 820.069 403.536C820.421 404.336 820.597 405.264 820.597 406.32V414H816.733V406.728C816.733 406.216 816.653 405.776 816.493 405.408C816.333 405.04 816.085 404.76 815.749 404.568C815.429 404.36 815.013 404.256 814.501 404.256C814.053 404.256 813.637 404.328 813.253 404.472C812.885 404.616 812.557 404.816 812.269 405.072C811.997 405.312 811.781 405.6 811.621 405.936C811.477 406.256 811.405 406.608 811.405 406.992V414H807.541V406.704C807.541 406.208 807.453 405.776 807.277 405.408C807.101 405.04 806.829 404.76 806.461 404.568C806.093 404.36 805.637 404.256 805.093 404.256C804.661 404.256 804.269 404.336 803.917 404.496C803.581 404.64 803.285 404.84 803.029 405.096C802.773 405.336 802.573 405.6 802.429 405.888C802.301 406.176 802.237 406.472 802.237 406.776V414H798.373ZM832.695 414.24C831.143 414.24 829.783 413.96 828.615 413.4C827.463 412.824 826.567 412.048 825.927 411.072C825.287 410.08 824.967 408.952 824.967 407.688C824.967 406.68 825.151 405.768 825.519 404.952C825.887 404.136 826.399 403.432 827.055 402.84C827.711 402.248 828.479 401.792 829.359 401.472C830.239 401.152 831.191 400.992 832.215 400.992C833.207 400.992 834.119 401.152 834.951 401.472C835.783 401.776 836.503 402.216 837.111 402.792C837.735 403.368 838.215 404.048 838.551 404.832C838.887 405.616 839.039 406.48 839.007 407.424L838.983 408.504H827.487L826.935 406.272H835.863L835.455 406.752V406.272C835.407 405.872 835.231 405.512 834.927 405.192C834.639 404.872 834.263 404.624 833.799 404.448C833.335 404.256 832.823 404.16 832.263 404.16C831.543 404.16 830.903 404.28 830.343 404.52C829.783 404.744 829.343 405.096 829.023 405.576C828.719 406.056 828.567 406.664 828.567 407.4C828.567 408.104 828.751 408.72 829.119 409.248C829.503 409.776 830.039 410.192 830.727 410.496C831.431 410.8 832.255 410.952 833.199 410.952C834.015 410.952 834.695 410.856 835.239 410.664C835.799 410.456 836.303 410.2 836.751 409.896L838.479 412.392C837.951 412.792 837.367 413.136 836.727 413.424C836.103 413.696 835.447 413.896 834.759 414.024C834.087 414.168 833.399 414.24 832.695 414.24ZM845.358 414.264C844.574 414.264 843.974 414.08 843.558 413.712C843.158 413.328 842.958 412.8 842.958 412.128C842.958 411.52 843.166 411.008 843.582 410.592C844.014 410.176 844.606 409.968 845.358 409.968C846.142 409.968 846.742 410.16 847.158 410.544C847.574 410.928 847.782 411.456 847.782 412.128C847.782 412.72 847.566 413.224 847.134 413.64C846.718 414.056 846.126 414.264 845.358 414.264ZM854.592 414.264C853.808 414.264 853.208 414.08 852.792 413.712C852.392 413.328 852.192 412.8 852.192 412.128C852.192 411.52 852.4 411.008 852.816 410.592C853.248 410.176 853.84 409.968 854.592 409.968C855.376 409.968 855.976 410.16 856.392 410.544C856.808 410.928 857.016 411.456 857.016 412.128C857.016 412.72 856.8 413.224 856.368 413.64C855.952 414.056 855.36 414.264 854.592 414.264ZM863.827 414.264C863.043 414.264 862.443 414.08 862.027 413.712C861.627 413.328 861.427 412.8 861.427 412.128C861.427 411.52 861.635 411.008 862.051 410.592C862.483 410.176 863.075 409.968 863.827 409.968C864.611 409.968 865.211 410.16 865.627 410.544C866.043 410.928 866.251 411.456 866.251 412.128C866.251 412.72 866.035 413.224 865.603 413.64C865.187 414.056 864.595 414.264 863.827 414.264Z" fill="white"/>
<g id="Vector 1" filter="url(#filter0_d_80_73)">
<path d="M-45.5 880.5L95.5 640.5L293 775.5L492.5 521.5L615.5 687L744.5 608.5L898 787.5L1015 626.5L1131.5 737.5L1271 451L1349.5 721L1498.5 592L1551 1144.5H-112L-45.5 880.5Z" fill="#EC5F46"/>
</g>
<g id="Vector 2" filter="url(#filter1_d_80_73)">
<path d="M-79 1230.5L90.5 779L346.5 865.5L469.5 674L652.5 779L711 722.5L904.5 888L983 755L1158.5 865.5L1225 722.5L1360 823.5L1469 1260.5L-79 1230.5Z" fill="#FD9D49"/>
</g>
<g id="restart">
<g id="restart_2" filter="url(#filter2_i_80_73)">
<path d="M518.502 985V934.024H533.094L533.766 951.592L530.118 949.768C530.95 946.632 532.39 943.816 534.438 941.32C536.55 938.76 538.95 936.744 541.638 935.272C544.39 933.736 547.302 932.968 550.374 932.968C552.038 932.968 553.606 933.128 555.078 933.448C556.614 933.768 557.926 934.184 559.014 934.696L554.79 951.496C553.83 950.792 552.518 950.248 550.854 949.864C549.254 949.48 547.622 949.288 545.958 949.288C544.102 949.288 542.406 949.608 540.87 950.248C539.398 950.824 538.15 951.656 537.126 952.744C536.102 953.768 535.302 954.952 534.726 956.296C534.214 957.64 533.958 959.08 533.958 960.616V985H518.502ZM599.248 985.96C593.04 985.96 587.6 984.84 582.928 982.6C578.32 980.296 574.736 977.192 572.176 973.288C569.616 969.32 568.336 964.808 568.336 959.752C568.336 955.72 569.072 952.072 570.544 948.808C572.016 945.544 574.064 942.728 576.688 940.36C579.312 937.992 582.384 936.168 585.904 934.888C589.424 933.608 593.232 932.968 597.328 932.968C601.296 932.968 604.944 933.608 608.272 934.888C611.6 936.104 614.48 937.864 616.912 940.168C619.408 942.472 621.328 945.192 622.672 948.328C624.016 951.464 624.624 954.92 624.496 958.696L624.4 963.016H578.416L576.208 954.088H611.92L610.288 956.008V954.088C610.096 952.488 609.392 951.048 608.176 949.768C607.024 948.488 605.52 947.496 603.664 946.792C601.808 946.024 599.76 945.64 597.52 945.64C594.64 945.64 592.08 946.12 589.84 947.08C587.6 947.976 585.84 949.384 584.56 951.304C583.344 953.224 582.736 955.656 582.736 958.6C582.736 961.416 583.472 963.88 584.944 965.992C586.48 968.104 588.624 969.768 591.376 970.984C594.192 972.2 597.488 972.808 601.264 972.808C604.528 972.808 607.248 972.424 609.424 971.656C611.664 970.824 613.68 969.8 615.472 968.584L622.384 978.568C620.272 980.168 617.936 981.544 615.376 982.696C612.88 983.784 610.256 984.584 607.504 985.096C604.816 985.672 602.064 985.96 599.248 985.96ZM662.957 985.96C657.325 985.96 652.269 985.16 647.789 983.56C643.373 981.96 639.821 979.688 637.133 976.744L646.445 968.488C648.621 970.536 651.213 972.104 654.221 973.192C657.229 974.28 660.397 974.824 663.725 974.824C664.749 974.824 665.741 974.728 666.701 974.536C667.725 974.344 668.589 974.088 669.293 973.768C670.061 973.384 670.669 972.936 671.117 972.424C671.565 971.912 671.789 971.272 671.789 970.504C671.789 969.288 671.021 968.328 669.485 967.624C668.397 967.24 667.021 966.856 665.357 966.472C663.693 966.088 661.805 965.672 659.693 965.224C656.173 964.584 653.069 963.816 650.381 962.92C647.757 961.96 645.549 960.776 643.757 959.368C642.221 958.024 641.037 956.488 640.205 954.76C639.373 953.032 638.957 951.016 638.957 948.712C638.957 946.344 639.565 944.2 640.781 942.28C641.997 940.296 643.693 938.632 645.869 937.288C648.045 935.88 650.541 934.824 653.357 934.12C656.173 933.352 659.117 932.968 662.189 932.968C665.261 932.968 668.269 933.288 671.213 933.928C674.157 934.504 676.941 935.368 679.565 936.52C682.189 937.608 684.493 939.016 686.477 940.744L678.605 949.96C677.197 948.872 675.565 947.88 673.709 946.984C671.853 946.088 669.869 945.384 667.757 944.872C665.709 944.296 663.693 944.008 661.709 944.008C660.621 944.008 659.565 944.072 658.541 944.2C657.581 944.328 656.749 944.584 656.045 944.968C655.341 945.288 654.765 945.704 654.317 946.216C653.933 946.664 653.741 947.24 653.741 947.944C653.741 948.52 653.901 949.064 654.221 949.576C654.541 950.088 655.021 950.504 655.661 950.824C656.557 951.4 657.869 951.912 659.597 952.36C661.389 952.808 663.629 953.288 666.317 953.8C670.221 954.632 673.549 955.592 676.301 956.68C679.053 957.704 681.261 958.952 682.925 960.424C684.269 961.448 685.261 962.728 685.901 964.264C686.541 965.736 686.861 967.368 686.861 969.16C686.861 972.424 685.805 975.336 683.693 977.896C681.645 980.392 678.829 982.376 675.245 983.848C671.725 985.256 667.629 985.96 662.957 985.96ZM709.401 985V920.008H724.761V985H709.401ZM698.073 947.464V934.024H737.721V947.464H698.073ZM775.743 985.864C770.687 985.864 766.271 984.744 762.495 982.504C758.719 980.264 755.743 977.16 753.567 973.192C751.455 969.16 750.398 964.584 750.398 959.464C750.398 954.28 751.487 949.704 753.663 945.736C755.839 941.768 758.847 938.664 762.687 936.424C766.591 934.12 771.071 932.968 776.127 932.968C779.007 932.968 781.663 933.352 784.095 934.12C786.527 934.824 788.639 935.816 790.431 937.096C792.287 938.376 793.791 939.784 794.943 941.32C796.159 942.856 796.959 944.456 797.343 946.12H793.983V934.024H809.151V985H793.695V971.944L796.958 972.424C796.575 974.088 795.775 975.72 794.559 977.32C793.343 978.92 791.775 980.36 789.855 981.64C787.935 982.92 785.759 983.944 783.327 984.712C780.959 985.48 778.431 985.864 775.743 985.864ZM779.871 972.904C782.751 972.904 785.247 972.36 787.359 971.272C789.535 970.184 791.199 968.648 792.351 966.664C793.567 964.616 794.175 962.216 794.175 959.464C794.175 956.776 793.567 954.44 792.351 952.456C791.199 950.408 789.535 948.808 787.359 947.656C785.247 946.504 782.751 945.928 779.871 945.928C776.991 945.928 774.495 946.504 772.383 947.656C770.271 948.808 768.607 950.408 767.391 952.456C766.239 954.44 765.663 956.776 765.663 959.464C765.663 962.216 766.239 964.616 767.391 966.664C768.607 968.648 770.271 970.184 772.383 971.272C774.495 972.36 776.991 972.904 779.871 972.904ZM832.846 985V934.024H847.438L848.11 951.592L844.462 949.768C845.294 946.632 846.734 943.816 848.782 941.32C850.894 938.76 853.294 936.744 855.982 935.272C858.734 933.736 861.646 932.968 864.718 932.968C866.382 932.968 867.95 933.128 869.422 933.448C870.958 933.768 872.27 934.184 873.358 934.696L869.134 951.496C868.174 950.792 866.862 950.248 865.198 949.864C863.598 949.48 861.966 949.288 860.302 949.288C858.446 949.288 856.75 949.608 855.214 950.248C853.742 950.824 852.494 951.656 851.47 952.744C850.446 953.768 849.646 954.952 849.07 956.296C848.558 957.64 848.302 959.08 848.302 960.616V985H832.846ZM897.463 985V920.008H912.823V985H897.463ZM886.135 947.464V934.024H925.783V947.464H886.135Z" fill="#EC5F46"/>
</g>
</g>
</g>
<defs>
<filter id="filter0_d_80_73" x="-116" y="451" width="1671" height="701.5" filterUnits="userSpaceOnUse" color-interpolation-filters="sRGB">
<feFlood flood-opacity="0" result="BackgroundImageFix"/>
<feColorMatrix in="SourceAlpha" type="matrix" values="0 0 0 0 0 0 0 0 0 0 0 0 0 0 0 0 0 0 127 0" result="hardAlpha"/>
<feOffset dy="4"/>
<feGaussianBlur stdDeviation="2"/>
<feComposite in2="hardAlpha" operator="out"/>
<feColorMatrix type="matrix" values="0 0 0 0 0 0 0 0 0 0 0 0 0 0 0 0 0 0 0.25 0"/>
<feBlend mode="normal" in2="BackgroundImageFix" result="effect1_dropShadow_80_73"/>
<feBlend mode="normal" in="SourceGraphic" in2="effect1_dropShadow_80_73" result="shape"/>
</filter>
<filter id="filter1_d_80_73" x="-83" y="674" width="1556" height="594.5" filterUnits="userSpaceOnUse" color-interpolation-filters="sRGB">
<feFlood flood-opacity="0" result="BackgroundImageFix"/>
<feColorMatrix in="SourceAlpha" type="matrix" values="0 0 0 0 0 0 0 0 0 0 0 0 0 0 0 0 0 0 127 0" result="hardAlpha"/>
<feOffset dy="4"/>
<feGaussianBlur stdDeviation="2"/>
<feComposite in2="hardAlpha" operator="out"/>
<feColorMatrix type="matrix" values="0 0 0 0 0 0 0 0 0 0 0 0 0 0 0 0 0 0 0.25 0"/>
<feBlend mode="normal" in2="BackgroundImageFix" result="effect1_dropShadow_80_73"/>
<feBlend mode="normal" in="SourceGraphic" in2="effect1_dropShadow_80_73" result="shape"/>
</filter>
<filter id="filter2_i_80_73" x="518.502" y="920.008" width="407.281" height="69.9521" filterUnits="userSpaceOnUse" color-interpolation-filters="sRGB">
<feFlood flood-opacity="0" result="BackgroundImageFix"/>
<feBlend mode="normal" in="SourceGraphic" in2="BackgroundImageFix" result="shape"/>
<feColorMatrix in="SourceAlpha" type="matrix" values="0 0 0 0 0 0 0 0 0 0 0 0 0 0 0 0 0 0 127 0" result="hardAlpha"/>
<feOffset dy="4"/>
<feGaussianBlur stdDeviation="2"/>
<feComposite in2="hardAlpha" operator="arithmetic" k2="-1" k3="1"/>
<feColorMatrix type="matrix" values="0 0 0 0 0 0 0 0 0 0 0 0 0 0 0 0 0 0 0.25 0"/>
<feBlend mode="normal" in2="shape" result="effect1_innerShadow_80_73"/>
</filter>
<clipPath id="clip0_80_73">
<rect width="1440" height="1024" fill="white"/>
</clipPath>
</defs>
</svg>
