<svg width="1440" height="1024" viewBox="0 0 1440 1024" fill="none" xmlns="http://www.w3.org/2000/svg">
<g id="split1-no" clip-path="url(#clip0_110_87)">
<rect width="1440" height="1024" fill="#333148"/>
<path id="part 3" d="M47.096 132.12V60.024H61.688L62.264 71.448L59.384 70.584C59.832 68.536 61.048 66.648 63.032 64.92C65.016 63.192 67.512 61.784 70.52 60.696C73.592 59.608 76.856 59.064 80.312 59.064C85.304 59.064 89.688 60.216 93.464 62.52C97.24 64.76 100.184 67.864 102.296 71.832C104.472 75.736 105.56 80.28 105.56 85.464C105.56 90.584 104.472 95.128 102.296 99.096C100.184 103.064 97.208 106.2 93.368 108.504C89.528 110.744 85.112 111.864 80.12 111.864C76.664 111.864 73.432 111.288 70.424 110.136C67.416 108.984 64.888 107.48 62.84 105.624C60.856 103.768 59.576 101.816 59 99.768L62.552 98.424V132.12H47.096ZM76.376 98.904C79.256 98.904 81.752 98.36 83.864 97.272C85.976 96.12 87.608 94.552 88.76 92.568C89.976 90.584 90.584 88.216 90.584 85.464C90.584 82.776 89.976 80.44 88.76 78.456C87.608 76.408 85.976 74.84 83.864 73.752C81.816 72.6 79.32 72.024 76.376 72.024C73.496 72.024 70.968 72.568 68.792 73.656C66.68 74.744 65.016 76.312 63.8 78.36C62.648 80.408 62.072 82.776 62.072 85.464C62.072 88.216 62.648 90.584 63.8 92.568C65.016 94.552 66.68 96.12 68.792 97.272C70.968 98.36 73.496 98.904 76.376 98.904ZM144.211 111.864C139.155 111.864 134.739 110.744 130.963 108.504C127.187 106.264 124.211 103.16 122.035 99.192C119.923 95.16 118.867 90.584 118.867 85.464C118.867 80.28 119.955 75.704 122.131 71.736C124.307 67.768 127.315 64.664 131.155 62.424C135.059 60.12 139.539 58.968 144.595 58.968C147.475 58.968 150.131 59.352 152.563 60.12C154.995 60.824 157.107 61.816 158.899 63.096C160.755 64.376 162.259 65.784 163.411 67.32C164.627 68.856 165.427 70.456 165.811 72.12H162.451V60.024H177.619V111H162.163V97.944L165.427 98.424C165.043 100.088 164.243 101.72 163.027 103.32C161.811 104.92 160.243 106.36 158.323 107.64C156.403 108.92 154.227 109.944 151.795 110.712C149.427 111.48 146.899 111.864 144.211 111.864ZM148.339 98.904C151.219 98.904 153.715 98.36 155.827 97.272C158.003 96.184 159.667 94.648 160.819 92.664C162.035 90.616 162.643 88.216 162.643 85.464C162.643 82.776 162.035 80.44 160.819 78.456C159.667 76.408 158.003 74.808 155.827 73.656C153.715 72.504 151.219 71.928 148.339 71.928C145.459 71.928 142.963 72.504 140.851 73.656C138.739 74.808 137.075 76.408 135.859 78.456C134.707 80.44 134.131 82.776 134.131 85.464C134.131 88.216 134.707 90.616 135.859 92.664C137.075 94.648 138.739 96.184 140.851 97.272C142.963 98.36 145.459 98.904 148.339 98.904ZM201.315 111V60.024H215.907L216.579 77.592L212.931 75.768C213.763 72.632 215.203 69.816 217.251 67.32C219.363 64.76 221.763 62.744 224.451 61.272C227.203 59.736 230.115 58.968 233.187 58.968C234.851 58.968 236.419 59.128 237.891 59.448C239.427 59.768 240.739 60.184 241.827 60.696L237.603 77.496C236.643 76.792 235.331 76.248 233.667 75.864C232.067 75.48 230.435 75.288 228.771 75.288C226.915 75.288 225.219 75.608 223.683 76.248C222.211 76.824 220.963 77.656 219.939 78.744C218.915 79.768 218.115 80.952 217.539 82.296C217.027 83.64 216.771 85.08 216.771 86.616V111H201.315ZM265.932 111V46.008H281.292V111H265.932ZM254.604 73.464V60.024H294.252V73.464H254.604ZM371.848 111.96C365.768 111.96 360.52 110.712 356.104 108.216C351.688 105.72 347.848 101.912 344.584 96.792L356.296 88.632C357.576 90.616 358.984 92.344 360.52 93.816C362.12 95.224 363.848 96.344 365.704 97.176C367.624 98.008 369.736 98.424 372.04 98.424C374.216 98.424 376.232 98.072 378.088 97.368C379.944 96.664 381.448 95.608 382.6 94.2C383.752 92.728 384.328 90.968 384.328 88.92C384.328 86.872 383.784 85.208 382.696 83.928C381.608 82.584 380.2 81.624 378.472 81.048C376.744 80.408 374.856 80.088 372.808 80.088C371.784 80.088 370.728 80.184 369.64 80.376C368.552 80.568 367.496 80.824 366.472 81.144C365.448 81.4 364.456 81.784 363.496 82.296L359.656 73.08L377.896 54.936L381.16 57.528L349.288 56.952V43.224H394.408L397.48 50.616L373.288 74.52L369.448 68.856C370.088 68.6 371.08 68.376 372.424 68.184C373.832 67.992 375.272 67.896 376.744 67.896C379.752 67.896 382.6 68.44 385.288 69.528C387.976 70.552 390.376 71.992 392.488 73.848C394.6 75.704 396.264 77.912 397.48 80.472C398.696 82.968 399.304 85.688 399.304 88.632C399.304 93.24 398.056 97.304 395.56 100.824C393.128 104.28 389.832 107 385.672 108.984C381.576 110.968 376.968 111.96 371.848 111.96Z" fill="white"/>
<rect id="Rectangle 7" y="462" width="1567" height="626" fill="#211F2F"/>
<g id="Group 4">
<g id="Vector" filter="url(#filter0_d_110_87)">
<path d="M249.246 452.996C254.515 429.672 287.714 429.672 292.983 452.996L301.541 490.874C304.712 504.912 294.05 518.267 279.672 518.267H262.557C248.179 518.267 237.517 504.912 240.688 490.874L249.246 452.996Z" fill="#3B5EC6"/>
<path d="M294.816 402.046C294.816 415.326 284.061 426.092 270.794 426.092C257.527 426.092 246.772 415.326 246.772 402.046C246.772 388.766 257.527 378 270.794 378C284.061 378 294.816 388.766 294.816 402.046Z" fill="#3B5EC6"/>
<path d="M275.599 506.565C275.599 500.013 280.904 494.702 287.45 494.702C293.995 494.702 299.3 500.013 299.3 506.565V534.137C299.3 540.689 293.995 546 287.45 546C280.904 546 275.599 540.689 275.599 534.137V506.565Z" fill="#3B5EC6"/>
<path d="M284.867 460.609C281.517 454.981 283.36 447.7 288.982 444.347C294.605 440.993 301.879 442.837 305.229 448.466L319.328 472.153C322.678 477.781 320.836 485.062 315.213 488.415C309.59 491.769 302.316 489.925 298.966 484.296L284.867 460.609Z" fill="#3B5EC6"/>
<path d="M236.362 448.548C239.635 442.874 246.883 440.93 252.551 444.206C258.219 447.482 260.161 454.737 256.889 460.411L243.116 484.289C239.844 489.963 232.596 491.907 226.927 488.631C221.259 485.355 219.317 478.1 222.59 472.427L236.362 448.548Z" fill="#3B5EC6"/>
<path d="M242.288 506.565C242.288 500.013 247.594 494.702 254.139 494.702C260.684 494.702 265.99 500.013 265.99 506.565V534.137C265.99 540.689 260.684 546 254.139 546C247.594 546 242.288 540.689 242.288 534.137V506.565Z" fill="#3B5EC6"/>
</g>
<g id="Vector_2" filter="url(#filter1_d_110_87)">
<path d="M483.528 452.996C488.85 429.672 522.381 429.672 527.703 452.996L536.346 490.874C539.549 504.912 528.78 518.267 514.259 518.267H496.972C482.451 518.267 471.682 504.912 474.885 490.874L483.528 452.996Z" fill="#3B5EC6"/>
<path d="M529.555 402.046C529.555 415.326 518.692 426.092 505.292 426.092C491.892 426.092 481.03 415.326 481.03 402.046C481.03 388.766 491.892 378 505.292 378C518.692 378 529.555 388.766 529.555 402.046Z" fill="#3B5EC6"/>
<path d="M510.145 506.565C510.145 500.013 515.504 494.702 522.114 494.702C528.725 494.702 534.083 500.013 534.083 506.565V534.137C534.083 540.689 528.725 546 522.114 546C515.504 546 510.145 540.689 510.145 534.137V506.565Z" fill="#3B5EC6"/>
<path d="M519.506 460.609C516.123 454.981 517.983 447.7 523.662 444.347C529.341 440.993 536.688 442.837 540.071 448.466L554.311 472.153C557.695 477.781 555.834 485.062 550.155 488.415C544.476 491.769 537.13 489.925 533.746 484.296L519.506 460.609Z" fill="#3B5EC6"/>
<path d="M470.516 448.548C473.821 442.874 481.142 440.93 486.867 444.206C492.591 447.482 494.553 454.737 491.248 460.411L477.337 484.289C474.032 489.963 466.712 491.907 460.987 488.631C455.262 485.355 453.3 478.1 456.606 472.427L470.516 448.548Z" fill="#3B5EC6"/>
<path d="M476.501 506.565C476.501 500.013 481.86 494.702 488.47 494.702C495.081 494.702 500.44 500.013 500.44 506.565V534.137C500.44 540.689 495.081 546 488.47 546C481.86 546 476.501 540.689 476.501 534.137V506.565Z" fill="#3B5EC6"/>
</g>
<g id="Vector_3" filter="url(#filter2_d_110_87)">
<path d="M366.528 452.996C371.85 429.672 405.381 429.672 410.703 452.996L419.346 490.874C422.549 504.912 411.78 518.267 397.259 518.267H379.972C365.451 518.267 354.682 504.912 357.885 490.874L366.528 452.996Z" fill="#3B5EC6"/>
<path d="M412.555 402.046C412.555 415.326 401.692 426.092 388.292 426.092C374.892 426.092 364.03 415.326 364.03 402.046C364.03 388.766 374.892 378 388.292 378C401.692 378 412.555 388.766 412.555 402.046Z" fill="#3B5EC6"/>
<path d="M393.145 506.565C393.145 500.013 398.504 494.702 405.114 494.702C411.725 494.702 417.083 500.013 417.083 506.565V534.137C417.083 540.689 411.725 546 405.114 546C398.504 546 393.145 540.689 393.145 534.137V506.565Z" fill="#3B5EC6"/>
<path d="M402.506 460.609C399.123 454.981 400.983 447.7 406.662 444.347C412.341 440.993 419.688 442.837 423.071 448.466L437.311 472.153C440.695 477.781 438.834 485.062 433.155 488.415C427.476 491.769 420.13 489.925 416.746 484.296L402.506 460.609Z" fill="#3B5EC6"/>
<path d="M353.516 448.548C356.821 442.874 364.142 440.93 369.867 444.206C375.591 447.482 377.553 454.737 374.248 460.411L360.337 484.289C357.032 489.963 349.712 491.907 343.987 488.631C338.262 485.355 336.3 478.1 339.606 472.427L353.516 448.548Z" fill="#3B5EC6"/>
<path d="M359.501 506.565C359.501 500.013 364.86 494.702 371.47 494.702C378.081 494.702 383.44 500.013 383.44 506.565V534.137C383.44 540.689 378.081 546 371.47 546C364.86 546 359.501 540.689 359.501 534.137V506.565Z" fill="#3B5EC6"/>
</g>
<g id="Vector_4" filter="url(#filter3_d_110_87)">
<path d="M601.246 452.996C606.515 429.672 639.714 429.672 644.983 452.996L653.541 490.874C656.712 504.912 646.05 518.267 631.672 518.267H614.557C600.179 518.267 589.517 504.912 592.688 490.874L601.246 452.996Z" fill="#3B5EC6"/>
<path d="M646.816 402.046C646.816 415.326 636.061 426.092 622.794 426.092C609.527 426.092 598.772 415.326 598.772 402.046C598.772 388.766 609.527 378 622.794 378C636.061 378 646.816 388.766 646.816 402.046Z" fill="#3B5EC6"/>
<path d="M627.599 506.565C627.599 500.013 632.904 494.702 639.45 494.702C645.995 494.702 651.3 500.013 651.3 506.565V534.137C651.3 540.689 645.995 546 639.45 546C632.904 546 627.599 540.689 627.599 534.137V506.565Z" fill="#3B5EC6"/>
<path d="M636.867 460.609C633.517 454.981 635.36 447.7 640.982 444.347C646.605 440.993 653.879 442.837 657.229 448.466L671.328 472.153C674.678 477.781 672.836 485.062 667.213 488.415C661.59 491.769 654.316 489.925 650.966 484.296L636.867 460.609Z" fill="#3B5EC6"/>
<path d="M588.362 448.548C591.635 442.874 598.883 440.93 604.551 444.206C610.219 447.482 612.161 454.737 608.889 460.411L595.116 484.289C591.844 489.963 584.596 491.907 578.927 488.631C573.259 485.355 571.317 478.1 574.59 472.427L588.362 448.548Z" fill="#3B5EC6"/>
<path d="M594.288 506.565C594.288 500.013 599.594 494.702 606.139 494.702C612.684 494.702 617.99 500.013 617.99 506.565V534.137C617.99 540.689 612.684 546 606.139 546C599.594 546 594.288 540.689 594.288 534.137V506.565Z" fill="#3B5EC6"/>
</g>
<g id="Vector_5" filter="url(#filter4_d_110_87)">
<path d="M148.33 489.388C154.548 461.899 193.722 461.899 199.94 489.388L210.038 534.03C213.78 550.575 201.199 566.315 184.233 566.315H164.037C147.071 566.315 134.49 550.575 138.232 534.03L148.33 489.388Z" fill="#6A94E0"/>
<path d="M202.103 429.34C202.103 444.991 189.412 457.679 173.757 457.679C158.102 457.679 145.411 444.991 145.411 429.34C145.411 413.688 158.102 401 173.757 401C189.412 401 202.103 413.688 202.103 429.34Z" fill="#6A94E0"/>
<path d="M179.426 552.523C179.426 544.801 185.687 538.542 193.41 538.542C201.134 538.542 207.395 544.801 207.395 552.523V585.019C207.395 592.741 201.134 599 193.41 599C185.687 599 179.426 592.741 179.426 585.019V552.523Z" fill="#6A94E0"/>
<path d="M190.364 498.361C186.41 491.728 188.584 483.146 195.219 479.194C201.854 475.242 210.437 477.416 214.39 484.049L231.027 511.966C234.98 518.599 232.806 527.18 226.171 531.132C219.537 535.085 210.953 532.911 207 526.278L190.364 498.361Z" fill="#6A94E0"/>
<path d="M133.128 484.146C136.989 477.459 145.542 475.168 152.23 479.029C158.919 482.889 161.21 491.44 157.349 498.127L141.097 526.269C137.235 532.956 128.683 535.248 121.994 531.387C115.306 527.526 113.014 518.975 116.876 512.289L133.128 484.146Z" fill="#6A94E0"/>
<path d="M140.12 552.523C140.12 544.801 146.381 538.542 154.104 538.542C161.827 538.542 168.088 544.801 168.088 552.523V585.019C168.088 592.741 161.827 599 154.104 599C146.381 599 140.12 592.741 140.12 585.019V552.523Z" fill="#6A94E0"/>
</g>
<g id="Vector_6" filter="url(#filter5_d_110_87)">
<path d="M424.33 489.388C430.548 461.899 469.722 461.899 475.94 489.388L486.038 534.03C489.78 550.575 477.199 566.315 460.233 566.315H440.037C423.071 566.315 410.49 550.575 414.232 534.03L424.33 489.388Z" fill="#6A94E0"/>
<path d="M478.103 429.34C478.103 444.991 465.412 457.679 449.757 457.679C434.102 457.679 421.411 444.991 421.411 429.34C421.411 413.688 434.102 401 449.757 401C465.412 401 478.103 413.688 478.103 429.34Z" fill="#6A94E0"/>
<path d="M455.426 552.523C455.426 544.801 461.687 538.542 469.41 538.542C477.134 538.542 483.395 544.801 483.395 552.523V585.019C483.395 592.741 477.134 599 469.41 599C461.687 599 455.426 592.741 455.426 585.019V552.523Z" fill="#6A94E0"/>
<path d="M466.364 498.361C462.41 491.728 464.584 483.146 471.219 479.194C477.854 475.242 486.437 477.416 490.39 484.049L507.027 511.966C510.98 518.599 508.806 527.18 502.171 531.132C495.537 535.085 486.953 532.911 483 526.278L466.364 498.361Z" fill="#6A94E0"/>
<path d="M409.128 484.146C412.989 477.459 421.542 475.168 428.23 479.029C434.919 482.889 437.21 491.44 433.349 498.127L417.097 526.269C413.235 532.956 404.683 535.248 397.994 531.387C391.306 527.526 389.014 518.975 392.876 512.289L409.128 484.146Z" fill="#6A94E0"/>
<path d="M416.12 552.523C416.12 544.801 422.381 538.542 430.104 538.542C437.827 538.542 444.088 544.801 444.088 552.523V585.019C444.088 592.741 437.827 599 430.104 599C422.381 599 416.12 592.741 416.12 585.019V552.523Z" fill="#6A94E0"/>
</g>
<g id="Vector_7" filter="url(#filter6_d_110_87)">
<path d="M286.33 489.388C292.548 461.899 331.722 461.899 337.94 489.388L348.038 534.03C351.78 550.575 339.199 566.315 322.233 566.315H302.037C285.071 566.315 272.49 550.575 276.232 534.03L286.33 489.388Z" fill="#6A94E0"/>
<path d="M340.103 429.34C340.103 444.991 327.412 457.679 311.757 457.679C296.102 457.679 283.411 444.991 283.411 429.34C283.411 413.688 296.102 401 311.757 401C327.412 401 340.103 413.688 340.103 429.34Z" fill="#6A94E0"/>
<path d="M317.426 552.523C317.426 544.801 323.687 538.542 331.41 538.542C339.134 538.542 345.395 544.801 345.395 552.523V585.019C345.395 592.741 339.134 599 331.41 599C323.687 599 317.426 592.741 317.426 585.019V552.523Z" fill="#6A94E0"/>
<path d="M328.364 498.361C324.41 491.728 326.584 483.146 333.219 479.194C339.854 475.242 348.437 477.416 352.39 484.049L369.027 511.966C372.98 518.599 370.806 527.18 364.171 531.132C357.537 535.085 348.953 532.911 345 526.278L328.364 498.361Z" fill="#6A94E0"/>
<path d="M271.128 484.146C274.989 477.459 283.542 475.168 290.23 479.029C296.919 482.889 299.21 491.44 295.349 498.127L279.097 526.269C275.235 532.956 266.683 535.248 259.994 531.387C253.306 527.526 251.014 518.975 254.876 512.289L271.128 484.146Z" fill="#6A94E0"/>
<path d="M278.12 552.523C278.12 544.801 284.381 538.542 292.104 538.542C299.827 538.542 306.088 544.801 306.088 552.523V585.019C306.088 592.741 299.827 599 292.104 599C284.381 599 278.12 592.741 278.12 585.019V552.523Z" fill="#6A94E0"/>
</g>
<g id="Vector_8" filter="url(#filter7_d_110_87)">
<path d="M344.33 535.388C350.548 507.899 389.722 507.899 395.94 535.388L406.038 580.03C409.78 596.575 397.199 612.315 380.233 612.315H360.037C343.071 612.315 330.49 596.575 334.232 580.03L344.33 535.388Z" fill="#8DBBFB"/>
<path d="M398.103 475.34C398.103 490.991 385.412 503.679 369.757 503.679C354.102 503.679 341.411 490.991 341.411 475.34C341.411 459.688 354.102 447 369.757 447C385.412 447 398.103 459.688 398.103 475.34Z" fill="#8DBBFB"/>
<path d="M375.426 598.523C375.426 590.801 381.687 584.542 389.41 584.542C397.134 584.542 403.395 590.801 403.395 598.523V631.019C403.395 638.741 397.134 645 389.41 645C381.687 645 375.426 638.741 375.426 631.019V598.523Z" fill="#8DBBFB"/>
<path d="M386.364 544.361C382.41 537.728 384.584 529.146 391.219 525.194C397.854 521.242 406.437 523.416 410.39 530.049L427.027 557.966C430.98 564.599 428.806 573.18 422.171 577.132C415.537 581.085 406.953 578.911 403 572.278L386.364 544.361Z" fill="#8DBBFB"/>
<path d="M329.128 530.146C332.989 523.459 341.542 521.168 348.23 525.029C354.919 528.889 357.21 537.44 353.349 544.127L337.097 572.269C333.235 578.956 324.683 581.248 317.994 577.387C311.306 573.526 309.014 564.975 312.876 558.289L329.128 530.146Z" fill="#8DBBFB"/>
<path d="M336.12 598.523C336.12 590.801 342.381 584.542 350.104 584.542C357.827 584.542 364.088 590.801 364.088 598.523V631.019C364.088 638.741 357.827 645 350.104 645C342.381 645 336.12 638.741 336.12 631.019V598.523Z" fill="#8DBBFB"/>
</g>
<g id="Vector_9" filter="url(#filter8_d_110_87)">
<path d="M562.33 489.388C568.548 461.899 607.722 461.899 613.94 489.388L624.038 534.03C627.78 550.575 615.199 566.315 598.233 566.315H578.037C561.071 566.315 548.49 550.575 552.232 534.03L562.33 489.388Z" fill="#6A94E0"/>
<path d="M616.103 429.34C616.103 444.991 603.412 457.679 587.757 457.679C572.102 457.679 559.411 444.991 559.411 429.34C559.411 413.688 572.102 401 587.757 401C603.412 401 616.103 413.688 616.103 429.34Z" fill="#6A94E0"/>
<path d="M593.426 552.523C593.426 544.801 599.687 538.542 607.41 538.542C615.134 538.542 621.395 544.801 621.395 552.523V585.019C621.395 592.741 615.134 599 607.41 599C599.687 599 593.426 592.741 593.426 585.019V552.523Z" fill="#6A94E0"/>
<path d="M604.364 498.361C600.41 491.728 602.584 483.146 609.219 479.194C615.854 475.242 624.437 477.416 628.39 484.049L645.027 511.966C648.98 518.599 646.806 527.18 640.171 531.132C633.537 535.085 624.953 532.911 621 526.278L604.364 498.361Z" fill="#6A94E0"/>
<path d="M547.128 484.146C550.989 477.459 559.542 475.168 566.23 479.029C572.919 482.889 575.21 491.44 571.349 498.127L555.097 526.269C551.235 532.956 542.683 535.248 535.994 531.387C529.306 527.526 527.014 518.975 530.876 512.289L547.128 484.146Z" fill="#6A94E0"/>
<path d="M554.12 552.523C554.12 544.801 560.381 538.542 568.104 538.542C575.827 538.542 582.088 544.801 582.088 552.523V585.019C582.088 592.741 575.827 599 568.104 599C560.381 599 554.12 592.741 554.12 585.019V552.523Z" fill="#6A94E0"/>
</g>
<g id="Vector_10" filter="url(#filter9_d_110_87)">
<path d="M206.33 535.388C212.548 507.899 251.722 507.899 257.94 535.388L268.038 580.03C271.78 596.575 259.199 612.315 242.233 612.315H222.037C205.071 612.315 192.49 596.575 196.232 580.03L206.33 535.388Z" fill="#8DBBFB"/>
<path d="M260.103 475.34C260.103 490.991 247.412 503.679 231.757 503.679C216.102 503.679 203.411 490.991 203.411 475.34C203.411 459.688 216.102 447 231.757 447C247.412 447 260.103 459.688 260.103 475.34Z" fill="#8DBBFB"/>
<path d="M237.426 598.523C237.426 590.801 243.687 584.542 251.41 584.542C259.134 584.542 265.395 590.801 265.395 598.523V631.019C265.395 638.741 259.134 645 251.41 645C243.687 645 237.426 638.741 237.426 631.019V598.523Z" fill="#8DBBFB"/>
<path d="M248.364 544.361C244.41 537.728 246.584 529.146 253.219 525.194C259.854 521.242 268.437 523.416 272.39 530.049L289.027 557.966C292.98 564.599 290.806 573.18 284.171 577.132C277.537 581.085 268.953 578.911 265 572.278L248.364 544.361Z" fill="#8DBBFB"/>
<path d="M191.128 530.146C194.989 523.459 203.542 521.168 210.23 525.029C216.919 528.889 219.21 537.44 215.349 544.127L199.097 572.269C195.235 578.956 186.683 581.248 179.994 577.387C173.306 573.526 171.014 564.975 174.876 558.289L191.128 530.146Z" fill="#8DBBFB"/>
<path d="M198.12 598.523C198.12 590.801 204.381 584.542 212.104 584.542C219.827 584.542 226.088 590.801 226.088 598.523V631.019C226.088 638.741 219.827 645 212.104 645C204.381 645 198.12 638.741 198.12 631.019V598.523Z" fill="#8DBBFB"/>
</g>
<g id="Vector_11" filter="url(#filter10_d_110_87)">
<path d="M482.33 535.388C488.548 507.899 527.722 507.899 533.94 535.388L544.038 580.03C547.78 596.575 535.199 612.315 518.233 612.315H498.037C481.071 612.315 468.49 596.575 472.232 580.03L482.33 535.388Z" fill="#8DBBFB"/>
<path d="M536.103 475.34C536.103 490.991 523.412 503.679 507.757 503.679C492.102 503.679 479.411 490.991 479.411 475.34C479.411 459.688 492.102 447 507.757 447C523.412 447 536.103 459.688 536.103 475.34Z" fill="#8DBBFB"/>
<path d="M513.426 598.523C513.426 590.801 519.687 584.542 527.41 584.542C535.134 584.542 541.395 590.801 541.395 598.523V631.019C541.395 638.741 535.134 645 527.41 645C519.687 645 513.426 638.741 513.426 631.019V598.523Z" fill="#8DBBFB"/>
<path d="M524.364 544.361C520.41 537.728 522.584 529.146 529.219 525.194C535.854 521.242 544.437 523.416 548.39 530.049L565.027 557.966C568.98 564.599 566.806 573.18 560.171 577.132C553.537 581.085 544.953 578.911 541 572.278L524.364 544.361Z" fill="#8DBBFB"/>
<path d="M467.128 530.146C470.989 523.459 479.542 521.168 486.23 525.029C492.919 528.889 495.21 537.44 491.349 544.127L475.097 572.269C471.235 578.956 462.683 581.248 455.994 577.387C449.306 573.526 447.014 564.975 450.876 558.289L467.128 530.146Z" fill="#8DBBFB"/>
<path d="M474.12 598.523C474.12 590.801 480.381 584.542 488.104 584.542C495.827 584.542 502.088 590.801 502.088 598.523V631.019C502.088 638.741 495.827 645 488.104 645C480.381 645 474.12 638.741 474.12 631.019V598.523Z" fill="#8DBBFB"/>
</g>
<g id="Vector_12" filter="url(#filter11_d_110_87)">
<path d="M620.33 535.388C626.548 507.899 665.722 507.899 671.94 535.388L682.038 580.03C685.78 596.575 673.199 612.315 656.233 612.315H636.037C619.071 612.315 606.49 596.575 610.232 580.03L620.33 535.388Z" fill="#8DBBFB"/>
<path d="M674.103 475.34C674.103 490.991 661.412 503.679 645.757 503.679C630.102 503.679 617.411 490.991 617.411 475.34C617.411 459.688 630.102 447 645.757 447C661.412 447 674.103 459.688 674.103 475.34Z" fill="#8DBBFB"/>
<path d="M651.426 598.523C651.426 590.801 657.687 584.542 665.41 584.542C673.134 584.542 679.395 590.801 679.395 598.523V631.019C679.395 638.741 673.134 645 665.41 645C657.687 645 651.426 638.741 651.426 631.019V598.523Z" fill="#8DBBFB"/>
<path d="M662.364 544.361C658.41 537.728 660.584 529.146 667.219 525.194C673.854 521.242 682.437 523.416 686.39 530.049L703.027 557.966C706.98 564.599 704.806 573.18 698.171 577.132C691.537 581.085 682.953 578.911 679 572.278L662.364 544.361Z" fill="#8DBBFB"/>
<path d="M605.128 530.146C608.989 523.459 617.542 521.168 624.23 525.029C630.919 528.889 633.21 537.44 629.349 544.127L613.097 572.269C609.235 578.956 600.683 581.248 593.994 577.387C587.306 573.526 585.014 564.975 588.876 558.289L605.128 530.146Z" fill="#8DBBFB"/>
<path d="M612.12 598.523C612.12 590.801 618.381 584.542 626.104 584.542C633.827 584.542 640.088 590.801 640.088 598.523V631.019C640.088 638.741 633.827 645 626.104 645C618.381 645 612.12 638.741 612.12 631.019V598.523Z" fill="#8DBBFB"/>
</g>
</g>
<path id="Polygon 1" d="M1062.37 285.641C1078.61 268.052 1106.39 268.052 1122.63 285.641L1351.58 533.691C1375.82 559.955 1357.2 602.5 1321.46 602.5H863.545C827.803 602.5 809.175 559.955 833.417 533.691L1062.37 285.641Z" fill="#485C77"/>
<line id="Line 1" x1="745.5" y1="458.5" x2="745.5" y2="112.5" stroke="#485C77" stroke-width="25" stroke-linecap="round"/>
<rect id="Rectangle 8" x="733" y="100" width="172" height="96" rx="14" fill="#3B5EC6"/>
<rect id="Rectangle 9" x="803" y="100" width="32" height="96" fill="white"/>
<rect id="Rectangle 11" x="902" y="97" width="21.7609" height="196.456" rx="10.8804" transform="rotate(62.972 902 97)" fill="white"/>
<rect id="Rectangle 12" x="909.953" y="191.021" width="21.7609" height="196.456" rx="10.8804" transform="rotate(120 909.953 191.021)" fill="white"/>
<rect id="Rectangle 10" x="733" y="164" width="27" height="172" transform="rotate(-90 733 164)" fill="white"/>
<rect id="Rectangle 13" x="901.061" y="102.357" width="13.0698" height="189.913" rx="6.53491" transform="rotate(62.972 901.061 102.357)" fill="#EF1044"/>
<rect id="Rectangle 14" x="905.058" y="192.791" width="13.0698" height="189.913" rx="6.53491" transform="rotate(120 905.058 192.791)" fill="#EF1044"/>
<rect id="Rectangle 15" x="733" y="144" width="172" height="14" fill="#EF1044"/>
<rect id="Rectangle 16" x="827" y="100" width="96" height="16" transform="rotate(90 827 100)" fill="#EF1044"/>
<rect id="Rectangle 17" x="1041" y="447" width="104" height="198" rx="28" fill="#201F2F"/>
<g id="next">
<g id="Next">
<path id="Next_2" d="M1100.81 909V864.2H1110.79L1137.86 896.2L1136.01 895.88C1135.75 894.387 1135.56 892.957 1135.43 891.592C1135.3 890.227 1135.18 888.904 1135.05 887.624C1134.96 886.344 1134.88 885.064 1134.79 883.784C1134.75 882.504 1134.73 881.16 1134.73 879.752C1134.73 878.344 1134.73 876.851 1134.73 875.272V864.2H1145.29V909H1135.18L1107.08 875.976L1110.09 876.424C1110.22 877.917 1110.34 879.261 1110.47 880.456C1110.64 881.651 1110.77 882.781 1110.86 883.848C1110.98 884.872 1111.07 885.917 1111.11 886.984C1111.2 888.008 1111.26 889.096 1111.3 890.248C1111.35 891.4 1111.37 892.659 1111.37 894.024V909H1100.81ZM1177.89 909.64C1173.76 909.64 1170.13 908.893 1167.01 907.4C1163.94 905.864 1161.55 903.795 1159.85 901.192C1158.14 898.547 1157.29 895.539 1157.29 892.168C1157.29 889.48 1157.78 887.048 1158.76 884.872C1159.74 882.696 1161.11 880.819 1162.85 879.24C1164.6 877.661 1166.65 876.445 1169 875.592C1171.35 874.739 1173.88 874.312 1176.61 874.312C1179.26 874.312 1181.69 874.739 1183.91 875.592C1186.13 876.403 1188.05 877.576 1189.67 879.112C1191.33 880.648 1192.61 882.461 1193.51 884.552C1194.41 886.643 1194.81 888.947 1194.73 891.464L1194.66 894.344H1164.01L1162.53 888.392H1186.34L1185.25 889.672V888.392C1185.13 887.325 1184.66 886.365 1183.85 885.512C1183.08 884.659 1182.08 883.997 1180.84 883.528C1179.6 883.016 1178.24 882.76 1176.74 882.76C1174.82 882.76 1173.12 883.08 1171.62 883.72C1170.13 884.317 1168.96 885.256 1168.1 886.536C1167.29 887.816 1166.89 889.437 1166.89 891.4C1166.89 893.277 1167.38 894.92 1168.36 896.328C1169.38 897.736 1170.81 898.845 1172.65 899.656C1174.52 900.467 1176.72 900.872 1179.24 900.872C1181.41 900.872 1183.23 900.616 1184.68 900.104C1186.17 899.549 1187.52 898.867 1188.71 898.056L1193.32 904.712C1191.91 905.779 1190.35 906.696 1188.65 907.464C1186.98 908.189 1185.23 908.723 1183.4 909.064C1181.61 909.448 1179.77 909.64 1177.89 909.64ZM1231.57 909L1222.16 896.776L1219.54 893.32L1204.63 875.016H1217.56L1226 886.216L1228.82 889.928L1244.37 909H1231.57ZM1203.8 909L1219.03 889.8L1225.24 896.136L1216.53 909H1203.8ZM1228.76 894.216L1222.74 887.816L1231.32 875.016H1243.99L1228.76 894.216ZM1260.39 909V865.672H1270.63V909H1260.39ZM1252.84 883.976V875.016H1279.27V883.976H1252.84Z" fill="white"/>
</g>
<path id="Arrow 1" d="M1094 913.5C1089.31 913.5 1085.5 917.306 1085.5 922C1085.5 926.694 1089.31 930.5 1094 930.5V922V913.5ZM1371 922L1286 872.925V971.075L1371 922ZM1094 922V930.5H1294.5V922V913.5H1094V922Z" fill="#EF1044"/>
</g>
<path id="you find a bunker" d="M193.664 833.08L207.008 805.72L206.72 813.496L179.648 760.024H197.216L209.6 786.52C210.496 788.312 211.328 790.136 212.096 791.992C212.864 793.784 213.472 795.576 213.92 797.368L211.04 798.136C211.616 796.728 212.288 795.064 213.056 793.144C213.824 791.224 214.624 789.272 215.456 787.288L226.88 760.024H244.448L219.488 811.192L209.216 833.08H193.664ZM285.429 811.96C279.477 811.96 274.197 810.808 269.589 808.504C264.981 806.2 261.365 803.064 258.741 799.096C256.117 795.128 254.805 790.584 254.805 785.464C254.805 780.344 256.117 775.8 258.741 771.832C261.365 767.864 264.981 764.728 269.589 762.424C274.197 760.12 279.477 758.968 285.429 758.968C291.317 758.968 296.533 760.12 301.077 762.424C305.685 764.728 309.301 767.864 311.925 771.832C314.549 775.8 315.861 780.344 315.861 785.464C315.861 790.584 314.549 795.128 311.925 799.096C309.301 803.064 305.685 806.2 301.077 808.504C296.533 810.808 291.317 811.96 285.429 811.96ZM285.429 798.712C288.181 798.712 290.677 798.136 292.917 796.984C295.221 795.832 297.013 794.264 298.293 792.28C299.637 790.296 300.277 788.024 300.213 785.464C300.277 782.904 299.637 780.6 298.293 778.552C297.013 776.504 295.221 774.936 292.917 773.848C290.677 772.696 288.181 772.12 285.429 772.12C282.613 772.12 280.021 772.696 277.653 773.848C275.349 775 273.557 776.568 272.277 778.552C270.997 780.536 270.357 782.84 270.357 785.464C270.357 788.024 270.997 790.296 272.277 792.28C273.557 794.264 275.349 795.832 277.653 796.984C280.021 798.136 282.613 798.712 285.429 798.712ZM353.901 812.056C349.805 812.056 346.253 811.16 343.245 809.368C340.301 807.576 338.029 804.984 336.429 801.592C334.829 798.136 334.029 794.008 334.029 789.208V760.024H349.389V786.712C349.389 789.336 349.741 791.544 350.445 793.336C351.213 795.128 352.397 796.504 353.997 797.464C355.597 798.36 357.549 798.808 359.853 798.808C361.517 798.808 363.053 798.552 364.461 798.04C365.869 797.464 367.117 796.696 368.205 795.736C369.293 794.712 370.125 793.56 370.701 792.28C371.341 790.936 371.661 789.432 371.661 787.768V760.024H387.021V811H372.621L371.949 800.536L374.733 799.384C374.029 801.624 372.685 803.704 370.701 805.624C368.717 807.544 366.285 809.112 363.405 810.328C360.589 811.48 357.421 812.056 353.901 812.056ZM452.813 811V759.16C452.813 755.384 453.613 752.056 455.213 749.176C456.877 746.232 459.181 743.928 462.125 742.264C465.069 740.6 468.493 739.768 472.397 739.768C475.405 739.768 478.029 740.152 480.269 740.92C482.573 741.688 484.525 742.648 486.125 743.8L481.709 755.128C480.813 754.616 479.757 754.168 478.541 753.784C477.389 753.336 476.237 753.112 475.085 753.112C473.421 753.112 472.045 753.4 470.957 753.976C469.933 754.488 469.165 755.256 468.653 756.28C468.141 757.304 467.885 758.52 467.885 759.928V811H460.397C458.797 811 457.357 811 456.077 811C454.797 811 453.709 811 452.813 811ZM443.885 774.52V761.848H482.573V774.52H443.885ZM501.005 811V760.024H516.461V811H501.005ZM508.685 749.56C505.805 749.56 503.565 748.888 501.965 747.544C500.365 746.136 499.565 744.152 499.565 741.592C499.565 739.288 500.365 737.4 501.965 735.928C503.629 734.456 505.869 733.72 508.685 733.72C511.565 733.72 513.805 734.424 515.405 735.832C517.005 737.176 517.805 739.096 517.805 741.592C517.805 743.96 516.973 745.88 515.309 747.352C513.709 748.824 511.501 749.56 508.685 749.56ZM541.33 811V760.024H555.922L556.402 771.928L552.754 772.984C553.586 770.488 554.994 768.184 556.978 766.072C559.026 763.96 561.49 762.264 564.37 760.984C567.314 759.64 570.482 758.968 573.874 758.968C578.226 758.968 581.906 759.832 584.914 761.56C587.922 763.288 590.194 765.752 591.73 768.952C593.266 772.088 594.034 775.832 594.034 780.184V811H578.578V782.392C578.578 780.152 578.162 778.264 577.33 776.728C576.562 775.192 575.378 774.008 573.778 773.176C572.242 772.344 570.45 771.928 568.402 771.928C566.61 771.928 564.978 772.248 563.506 772.888C562.098 773.464 560.882 774.264 559.858 775.288C558.834 776.248 558.034 777.336 557.458 778.552C556.946 779.768 556.69 781.016 556.69 782.296V811H549.106C546.994 811 545.298 811 544.018 811C542.738 811 541.842 811 541.33 811ZM636.941 812.056C631.949 812.056 627.565 810.936 623.789 808.696C620.013 806.392 617.069 803.256 614.957 799.288C612.845 795.256 611.789 790.68 611.789 785.56C611.789 780.44 612.877 775.896 615.053 771.928C617.229 767.896 620.237 764.728 624.077 762.424C627.981 760.12 632.461 758.968 637.517 758.968C640.333 758.968 642.957 759.352 645.389 760.12C647.821 760.824 649.997 761.784 651.917 763C653.901 764.216 655.469 765.624 656.621 767.224C657.837 768.76 658.541 770.328 658.733 771.928L655.085 772.792V739.96H670.541V811H656.237L655.373 798.616L658.445 799.384C658.253 800.984 657.549 802.552 656.333 804.088C655.117 805.56 653.517 806.904 651.533 808.12C649.613 809.272 647.405 810.232 644.909 811C642.413 811.704 639.757 812.056 636.941 812.056ZM641.261 799.096C644.141 799.096 646.637 798.52 648.749 797.368C650.925 796.216 652.589 794.648 653.741 792.664C654.893 790.616 655.469 788.248 655.469 785.56C655.469 782.808 654.893 780.44 653.741 778.456C652.589 776.408 650.925 774.84 648.749 773.752C646.637 772.6 644.141 772.024 641.261 772.024C638.381 772.024 635.885 772.6 633.773 773.752C631.661 774.84 629.997 776.408 628.781 778.456C627.629 780.44 627.053 782.808 627.053 785.56C627.053 788.248 627.629 790.616 628.781 792.664C629.997 794.648 631.661 796.216 633.773 797.368C635.885 798.52 638.381 799.096 641.261 799.096ZM751.227 811.864C746.171 811.864 741.755 810.744 737.979 808.504C734.203 806.264 731.227 803.16 729.051 799.192C726.939 795.16 725.883 790.584 725.883 785.464C725.883 780.28 726.971 775.704 729.147 771.736C731.323 767.768 734.331 764.664 738.171 762.424C742.075 760.12 746.555 758.968 751.611 758.968C754.491 758.968 757.147 759.352 759.579 760.12C762.011 760.824 764.123 761.816 765.915 763.096C767.771 764.376 769.275 765.784 770.427 767.32C771.643 768.856 772.443 770.456 772.827 772.12H769.467V760.024H784.635V811H769.179V797.944L772.443 798.424C772.059 800.088 771.259 801.72 770.043 803.32C768.827 804.92 767.259 806.36 765.339 807.64C763.419 808.92 761.243 809.944 758.811 810.712C756.443 811.48 753.915 811.864 751.227 811.864ZM755.355 798.904C758.235 798.904 760.731 798.36 762.843 797.272C765.019 796.184 766.683 794.648 767.835 792.664C769.051 790.616 769.659 788.216 769.659 785.464C769.659 782.776 769.051 780.44 767.835 778.456C766.683 776.408 765.019 774.808 762.843 773.656C760.731 772.504 758.235 771.928 755.355 771.928C752.475 771.928 749.979 772.504 747.867 773.656C745.755 774.808 744.091 776.408 742.875 778.456C741.723 780.44 741.147 782.776 741.147 785.464C741.147 788.216 741.723 790.616 742.875 792.664C744.091 794.648 745.755 796.184 747.867 797.272C749.979 798.36 752.475 798.904 755.355 798.904ZM879.499 812.056C876.747 812.056 874.155 811.704 871.723 811C869.291 810.296 867.115 809.368 865.195 808.216C863.275 807.064 861.675 805.752 860.395 804.28C859.179 802.744 858.379 801.272 857.995 799.864L862.123 799.096L861.259 810.904H846.955V739.96H862.411V772.216L858.475 771.448C858.923 769.848 859.755 768.312 860.971 766.84C862.187 765.368 863.723 764.056 865.579 762.904C867.499 761.688 869.643 760.728 872.011 760.024C874.379 759.32 876.875 758.968 879.499 758.968C884.363 758.968 888.715 760.12 892.555 762.424C896.395 764.664 899.435 767.8 901.675 771.832C903.915 775.8 905.035 780.344 905.035 785.464C905.035 790.648 903.915 795.256 901.675 799.288C899.499 803.256 896.491 806.392 892.651 808.696C888.811 810.936 884.427 812.056 879.499 812.056ZM875.851 799C878.731 799 881.195 798.424 883.243 797.272C885.355 796.12 886.987 794.552 888.139 792.568C889.355 790.52 889.963 788.152 889.963 785.464C889.963 782.776 889.387 780.408 888.235 778.36C887.083 776.312 885.419 774.744 883.243 773.656C881.131 772.568 878.667 772.024 875.851 772.024C872.907 772.024 870.379 772.568 868.267 773.656C866.155 774.744 864.491 776.312 863.275 778.36C862.123 780.408 861.547 782.776 861.547 785.464C861.547 788.152 862.123 790.52 863.275 792.568C864.491 794.552 866.155 796.12 868.267 797.272C870.379 798.424 872.907 799 875.851 799ZM943.026 812.056C938.93 812.056 935.378 811.16 932.37 809.368C929.426 807.576 927.154 804.984 925.554 801.592C923.954 798.136 923.154 794.008 923.154 789.208V760.024H938.514V786.712C938.514 789.336 938.866 791.544 939.57 793.336C940.338 795.128 941.522 796.504 943.122 797.464C944.722 798.36 946.674 798.808 948.978 798.808C950.642 798.808 952.178 798.552 953.586 798.04C954.994 797.464 956.242 796.696 957.33 795.736C958.418 794.712 959.25 793.56 959.826 792.28C960.466 790.936 960.786 789.432 960.786 787.768V760.024H976.146V811H961.746L961.074 800.536L963.858 799.384C963.154 801.624 961.81 803.704 959.826 805.624C957.842 807.544 955.41 809.112 952.53 810.328C949.714 811.48 946.546 812.056 943.026 812.056ZM1000.05 811V760.024H1014.64L1015.12 771.928L1011.47 772.984C1012.31 770.488 1013.71 768.184 1015.7 766.072C1017.75 763.96 1020.21 762.264 1023.09 760.984C1026.03 759.64 1029.2 758.968 1032.59 758.968C1036.95 758.968 1040.63 759.832 1043.63 761.56C1046.64 763.288 1048.91 765.752 1050.45 768.952C1051.99 772.088 1052.75 775.832 1052.75 780.184V811H1037.3V782.392C1037.3 780.152 1036.88 778.264 1036.05 776.728C1035.28 775.192 1034.1 774.008 1032.5 773.176C1030.96 772.344 1029.17 771.928 1027.12 771.928C1025.33 771.928 1023.7 772.248 1022.23 772.888C1020.82 773.464 1019.6 774.264 1018.58 775.288C1017.55 776.248 1016.75 777.336 1016.18 778.552C1015.67 779.768 1015.41 781.016 1015.41 782.296V811H1007.83C1005.71 811 1004.02 811 1002.74 811C1001.46 811 1000.56 811 1000.05 811ZM1090.38 797.176L1085.39 785.656L1113.71 760.024H1134.16L1090.38 797.176ZM1076.27 811V739.96H1091.24V811H1076.27ZM1115.44 811L1094.6 785.464L1105.26 777.016L1133.58 811H1115.44ZM1173.7 811.96C1167.49 811.96 1162.05 810.84 1157.38 808.6C1152.77 806.296 1149.19 803.192 1146.63 799.288C1144.07 795.32 1142.79 790.808 1142.79 785.752C1142.79 781.72 1143.53 778.072 1145 774.808C1146.47 771.544 1148.52 768.728 1151.14 766.36C1153.77 763.992 1156.84 762.168 1160.36 760.888C1163.88 759.608 1167.69 758.968 1171.78 758.968C1175.75 758.968 1179.4 759.608 1182.73 760.888C1186.05 762.104 1188.93 763.864 1191.37 766.168C1193.86 768.472 1195.78 771.192 1197.13 774.328C1198.47 777.464 1199.08 780.92 1198.95 784.696L1198.85 789.016H1152.87L1150.66 780.088H1186.37L1184.74 782.008V780.088C1184.55 778.488 1183.85 777.048 1182.63 775.768C1181.48 774.488 1179.97 773.496 1178.12 772.792C1176.26 772.024 1174.21 771.64 1171.97 771.64C1169.09 771.64 1166.53 772.12 1164.29 773.08C1162.05 773.976 1160.29 775.384 1159.01 777.304C1157.8 779.224 1157.19 781.656 1157.19 784.6C1157.19 787.416 1157.93 789.88 1159.4 791.992C1160.93 794.104 1163.08 795.768 1165.83 796.984C1168.65 798.2 1171.94 798.808 1175.72 798.808C1178.98 798.808 1181.7 798.424 1183.88 797.656C1186.12 796.824 1188.13 795.8 1189.93 794.584L1196.84 804.568C1194.73 806.168 1192.39 807.544 1189.83 808.696C1187.33 809.784 1184.71 810.584 1181.96 811.096C1179.27 811.672 1176.52 811.96 1173.7 811.96ZM1218.02 811V760.024H1232.61L1233.28 777.592L1229.63 775.768C1230.47 772.632 1231.91 769.816 1233.95 767.32C1236.07 764.76 1238.47 762.744 1241.15 761.272C1243.91 759.736 1246.82 758.968 1249.89 758.968C1251.55 758.968 1253.12 759.128 1254.59 759.448C1256.13 759.768 1257.44 760.184 1258.53 760.696L1254.31 777.496C1253.35 776.792 1252.03 776.248 1250.37 775.864C1248.77 775.48 1247.14 775.288 1245.47 775.288C1243.62 775.288 1241.92 775.608 1240.39 776.248C1238.91 776.824 1237.67 777.656 1236.64 778.744C1235.62 779.768 1234.82 780.952 1234.24 782.296C1233.73 783.64 1233.47 785.08 1233.47 786.616V811H1218.02Z" fill="white"/>
</g>
<defs>
<filter id="filter0_d_110_87" x="217" y="378" width="108" height="176" filterUnits="userSpaceOnUse" color-interpolation-filters="sRGB">
<feFlood flood-opacity="0" result="BackgroundImageFix"/>
<feColorMatrix in="SourceAlpha" type="matrix" values="0 0 0 0 0 0 0 0 0 0 0 0 0 0 0 0 0 0 127 0" result="hardAlpha"/>
<feOffset dy="4"/>
<feGaussianBlur stdDeviation="2"/>
<feComposite in2="hardAlpha" operator="out"/>
<feColorMatrix type="matrix" values="0 0 0 0 0 0 0 0 0 0 0 0 0 0 0 0 0 0 0.25 0"/>
<feBlend mode="normal" in2="BackgroundImageFix" result="effect1_dropShadow_110_87"/>
<feBlend mode="normal" in="SourceGraphic" in2="effect1_dropShadow_110_87" result="shape"/>
</filter>
<filter id="filter1_d_110_87" x="451" y="378" width="109" height="176" filterUnits="userSpaceOnUse" color-interpolation-filters="sRGB">
<feFlood flood-opacity="0" result="BackgroundImageFix"/>
<feColorMatrix in="SourceAlpha" type="matrix" values="0 0 0 0 0 0 0 0 0 0 0 0 0 0 0 0 0 0 127 0" result="hardAlpha"/>
<feOffset dy="4"/>
<feGaussianBlur stdDeviation="2"/>
<feComposite in2="hardAlpha" operator="out"/>
<feColorMatrix type="matrix" values="0 0 0 0 0 0 0 0 0 0 0 0 0 0 0 0 0 0 0.25 0"/>
<feBlend mode="normal" in2="BackgroundImageFix" result="effect1_dropShadow_110_87"/>
<feBlend mode="normal" in="SourceGraphic" in2="effect1_dropShadow_110_87" result="shape"/>
</filter>
<filter id="filter2_d_110_87" x="334" y="378" width="109" height="176" filterUnits="userSpaceOnUse" color-interpolation-filters="sRGB">
<feFlood flood-opacity="0" result="BackgroundImageFix"/>
<feColorMatrix in="SourceAlpha" type="matrix" values="0 0 0 0 0 0 0 0 0 0 0 0 0 0 0 0 0 0 127 0" result="hardAlpha"/>
<feOffset dy="4"/>
<feGaussianBlur stdDeviation="2"/>
<feComposite in2="hardAlpha" operator="out"/>
<feColorMatrix type="matrix" values="0 0 0 0 0 0 0 0 0 0 0 0 0 0 0 0 0 0 0.25 0"/>
<feBlend mode="normal" in2="BackgroundImageFix" result="effect1_dropShadow_110_87"/>
<feBlend mode="normal" in="SourceGraphic" in2="effect1_dropShadow_110_87" result="shape"/>
</filter>
<filter id="filter3_d_110_87" x="569" y="378" width="108" height="176" filterUnits="userSpaceOnUse" color-interpolation-filters="sRGB">
<feFlood flood-opacity="0" result="BackgroundImageFix"/>
<feColorMatrix in="SourceAlpha" type="matrix" values="0 0 0 0 0 0 0 0 0 0 0 0 0 0 0 0 0 0 127 0" result="hardAlpha"/>
<feOffset dy="4"/>
<feGaussianBlur stdDeviation="2"/>
<feComposite in2="hardAlpha" operator="out"/>
<feColorMatrix type="matrix" values="0 0 0 0 0 0 0 0 0 0 0 0 0 0 0 0 0 0 0.25 0"/>
<feBlend mode="normal" in2="BackgroundImageFix" result="effect1_dropShadow_110_87"/>
<feBlend mode="normal" in="SourceGraphic" in2="effect1_dropShadow_110_87" result="shape"/>
</filter>
<filter id="filter4_d_110_87" x="111" y="401" width="126" height="206" filterUnits="userSpaceOnUse" color-interpolation-filters="sRGB">
<feFlood flood-opacity="0" result="BackgroundImageFix"/>
<feColorMatrix in="SourceAlpha" type="matrix" values="0 0 0 0 0 0 0 0 0 0 0 0 0 0 0 0 0 0 127 0" result="hardAlpha"/>
<feOffset dy="4"/>
<feGaussianBlur stdDeviation="2"/>
<feComposite in2="hardAlpha" operator="out"/>
<feColorMatrix type="matrix" values="0 0 0 0 0 0 0 0 0 0 0 0 0 0 0 0 0 0 0.25 0"/>
<feBlend mode="normal" in2="BackgroundImageFix" result="effect1_dropShadow_110_87"/>
<feBlend mode="normal" in="SourceGraphic" in2="effect1_dropShadow_110_87" result="shape"/>
</filter>
<filter id="filter5_d_110_87" x="387" y="401" width="126" height="206" filterUnits="userSpaceOnUse" color-interpolation-filters="sRGB">
<feFlood flood-opacity="0" result="BackgroundImageFix"/>
<feColorMatrix in="SourceAlpha" type="matrix" values="0 0 0 0 0 0 0 0 0 0 0 0 0 0 0 0 0 0 127 0" result="hardAlpha"/>
<feOffset dy="4"/>
<feGaussianBlur stdDeviation="2"/>
<feComposite in2="hardAlpha" operator="out"/>
<feColorMatrix type="matrix" values="0 0 0 0 0 0 0 0 0 0 0 0 0 0 0 0 0 0 0.25 0"/>
<feBlend mode="normal" in2="BackgroundImageFix" result="effect1_dropShadow_110_87"/>
<feBlend mode="normal" in="SourceGraphic" in2="effect1_dropShadow_110_87" result="shape"/>
</filter>
<filter id="filter6_d_110_87" x="249" y="401" width="126" height="206" filterUnits="userSpaceOnUse" color-interpolation-filters="sRGB">
<feFlood flood-opacity="0" result="BackgroundImageFix"/>
<feColorMatrix in="SourceAlpha" type="matrix" values="0 0 0 0 0 0 0 0 0 0 0 0 0 0 0 0 0 0 127 0" result="hardAlpha"/>
<feOffset dy="4"/>
<feGaussianBlur stdDeviation="2"/>
<feComposite in2="hardAlpha" operator="out"/>
<feColorMatrix type="matrix" values="0 0 0 0 0 0 0 0 0 0 0 0 0 0 0 0 0 0 0.25 0"/>
<feBlend mode="normal" in2="BackgroundImageFix" result="effect1_dropShadow_110_87"/>
<feBlend mode="normal" in="SourceGraphic" in2="effect1_dropShadow_110_87" result="shape"/>
</filter>
<filter id="filter7_d_110_87" x="307" y="447" width="126" height="206" filterUnits="userSpaceOnUse" color-interpolation-filters="sRGB">
<feFlood flood-opacity="0" result="BackgroundImageFix"/>
<feColorMatrix in="SourceAlpha" type="matrix" values="0 0 0 0 0 0 0 0 0 0 0 0 0 0 0 0 0 0 127 0" result="hardAlpha"/>
<feOffset dy="4"/>
<feGaussianBlur stdDeviation="2"/>
<feComposite in2="hardAlpha" operator="out"/>
<feColorMatrix type="matrix" values="0 0 0 0 0 0 0 0 0 0 0 0 0 0 0 0 0 0 0.25 0"/>
<feBlend mode="normal" in2="BackgroundImageFix" result="effect1_dropShadow_110_87"/>
<feBlend mode="normal" in="SourceGraphic" in2="effect1_dropShadow_110_87" result="shape"/>
</filter>
<filter id="filter8_d_110_87" x="525" y="401" width="126" height="206" filterUnits="userSpaceOnUse" color-interpolation-filters="sRGB">
<feFlood flood-opacity="0" result="BackgroundImageFix"/>
<feColorMatrix in="SourceAlpha" type="matrix" values="0 0 0 0 0 0 0 0 0 0 0 0 0 0 0 0 0 0 127 0" result="hardAlpha"/>
<feOffset dy="4"/>
<feGaussianBlur stdDeviation="2"/>
<feComposite in2="hardAlpha" operator="out"/>
<feColorMatrix type="matrix" values="0 0 0 0 0 0 0 0 0 0 0 0 0 0 0 0 0 0 0.25 0"/>
<feBlend mode="normal" in2="BackgroundImageFix" result="effect1_dropShadow_110_87"/>
<feBlend mode="normal" in="SourceGraphic" in2="effect1_dropShadow_110_87" result="shape"/>
</filter>
<filter id="filter9_d_110_87" x="169" y="447" width="126" height="206" filterUnits="userSpaceOnUse" color-interpolation-filters="sRGB">
<feFlood flood-opacity="0" result="BackgroundImageFix"/>
<feColorMatrix in="SourceAlpha" type="matrix" values="0 0 0 0 0 0 0 0 0 0 0 0 0 0 0 0 0 0 127 0" result="hardAlpha"/>
<feOffset dy="4"/>
<feGaussianBlur stdDeviation="2"/>
<feComposite in2="hardAlpha" operator="out"/>
<feColorMatrix type="matrix" values="0 0 0 0 0 0 0 0 0 0 0 0 0 0 0 0 0 0 0.25 0"/>
<feBlend mode="normal" in2="BackgroundImageFix" result="effect1_dropShadow_110_87"/>
<feBlend mode="normal" in="SourceGraphic" in2="effect1_dropShadow_110_87" result="shape"/>
</filter>
<filter id="filter10_d_110_87" x="445" y="447" width="126" height="206" filterUnits="userSpaceOnUse" color-interpolation-filters="sRGB">
<feFlood flood-opacity="0" result="BackgroundImageFix"/>
<feColorMatrix in="SourceAlpha" type="matrix" values="0 0 0 0 0 0 0 0 0 0 0 0 0 0 0 0 0 0 127 0" result="hardAlpha"/>
<feOffset dy="4"/>
<feGaussianBlur stdDeviation="2"/>
<feComposite in2="hardAlpha" operator="out"/>
<feColorMatrix type="matrix" values="0 0 0 0 0 0 0 0 0 0 0 0 0 0 0 0 0 0 0.25 0"/>
<feBlend mode="normal" in2="BackgroundImageFix" result="effect1_dropShadow_110_87"/>
<feBlend mode="normal" in="SourceGraphic" in2="effect1_dropShadow_110_87" result="shape"/>
</filter>
<filter id="filter11_d_110_87" x="583" y="447" width="126" height="206" filterUnits="userSpaceOnUse" color-interpolation-filters="sRGB">
<feFlood flood-opacity="0" result="BackgroundImageFix"/>
<feColorMatrix in="SourceAlpha" type="matrix" values="0 0 0 0 0 0 0 0 0 0 0 0 0 0 0 0 0 0 127 0" result="hardAlpha"/>
<feOffset dy="4"/>
<feGaussianBlur stdDeviation="2"/>
<feComposite in2="hardAlpha" operator="out"/>
<feColorMatrix type="matrix" values="0 0 0 0 0 0 0 0 0 0 0 0 0 0 0 0 0 0 0.25 0"/>
<feBlend mode="normal" in2="BackgroundImageFix" result="effect1_dropShadow_110_87"/>
<feBlend mode="normal" in="SourceGraphic" in2="effect1_dropShadow_110_87" result="shape"/>
</filter>
<clipPath id="clip0_110_87">
<rect width="1440" height="1024" fill="white"/>
</clipPath>
</defs>
</svg>
