<svg width="1440" height="1024" viewBox="0 0 1440 1024" fill="none" xmlns="http://www.w3.org/2000/svg">
<g id="split1-yes-enterrocket-no" clip-path="url(#clip0_110_602)">
<rect width="1440" height="1024" fill="#333148"/>
<path id="part 3" d="M47.096 132.12V60.024H61.688L62.264 71.448L59.384 70.584C59.832 68.536 61.048 66.648 63.032 64.92C65.016 63.192 67.512 61.784 70.52 60.696C73.592 59.608 76.856 59.064 80.312 59.064C85.304 59.064 89.688 60.216 93.464 62.52C97.24 64.76 100.184 67.864 102.296 71.832C104.472 75.736 105.56 80.28 105.56 85.464C105.56 90.584 104.472 95.128 102.296 99.096C100.184 103.064 97.208 106.2 93.368 108.504C89.528 110.744 85.112 111.864 80.12 111.864C76.664 111.864 73.432 111.288 70.424 110.136C67.416 108.984 64.888 107.48 62.84 105.624C60.856 103.768 59.576 101.816 59 99.768L62.552 98.424V132.12H47.096ZM76.376 98.904C79.256 98.904 81.752 98.36 83.864 97.272C85.976 96.12 87.608 94.552 88.76 92.568C89.976 90.584 90.584 88.216 90.584 85.464C90.584 82.776 89.976 80.44 88.76 78.456C87.608 76.408 85.976 74.84 83.864 73.752C81.816 72.6 79.32 72.024 76.376 72.024C73.496 72.024 70.968 72.568 68.792 73.656C66.68 74.744 65.016 76.312 63.8 78.36C62.648 80.408 62.072 82.776 62.072 85.464C62.072 88.216 62.648 90.584 63.8 92.568C65.016 94.552 66.68 96.12 68.792 97.272C70.968 98.36 73.496 98.904 76.376 98.904ZM144.211 111.864C139.155 111.864 134.739 110.744 130.963 108.504C127.187 106.264 124.211 103.16 122.035 99.192C119.923 95.16 118.867 90.584 118.867 85.464C118.867 80.28 119.955 75.704 122.131 71.736C124.307 67.768 127.315 64.664 131.155 62.424C135.059 60.12 139.539 58.968 144.595 58.968C147.475 58.968 150.131 59.352 152.563 60.12C154.995 60.824 157.107 61.816 158.899 63.096C160.755 64.376 162.259 65.784 163.411 67.32C164.627 68.856 165.427 70.456 165.811 72.12H162.451V60.024H177.619V111H162.163V97.944L165.427 98.424C165.043 100.088 164.243 101.72 163.027 103.32C161.811 104.92 160.243 106.36 158.323 107.64C156.403 108.92 154.227 109.944 151.795 110.712C149.427 111.48 146.899 111.864 144.211 111.864ZM148.339 98.904C151.219 98.904 153.715 98.36 155.827 97.272C158.003 96.184 159.667 94.648 160.819 92.664C162.035 90.616 162.643 88.216 162.643 85.464C162.643 82.776 162.035 80.44 160.819 78.456C159.667 76.408 158.003 74.808 155.827 73.656C153.715 72.504 151.219 71.928 148.339 71.928C145.459 71.928 142.963 72.504 140.851 73.656C138.739 74.808 137.075 76.408 135.859 78.456C134.707 80.44 134.131 82.776 134.131 85.464C134.131 88.216 134.707 90.616 135.859 92.664C137.075 94.648 138.739 96.184 140.851 97.272C142.963 98.36 145.459 98.904 148.339 98.904ZM201.315 111V60.024H215.907L216.579 77.592L212.931 75.768C213.763 72.632 215.203 69.816 217.251 67.32C219.363 64.76 221.763 62.744 224.451 61.272C227.203 59.736 230.115 58.968 233.187 58.968C234.851 58.968 236.419 59.128 237.891 59.448C239.427 59.768 240.739 60.184 241.827 60.696L237.603 77.496C236.643 76.792 235.331 76.248 233.667 75.864C232.067 75.48 230.435 75.288 228.771 75.288C226.915 75.288 225.219 75.608 223.683 76.248C222.211 76.824 220.963 77.656 219.939 78.744C218.915 79.768 218.115 80.952 217.539 82.296C217.027 83.64 216.771 85.08 216.771 86.616V111H201.315ZM265.932 111V46.008H281.292V111H265.932ZM254.604 73.464V60.024H294.252V73.464H254.604ZM371.848 111.96C365.768 111.96 360.52 110.712 356.104 108.216C351.688 105.72 347.848 101.912 344.584 96.792L356.296 88.632C357.576 90.616 358.984 92.344 360.52 93.816C362.12 95.224 363.848 96.344 365.704 97.176C367.624 98.008 369.736 98.424 372.04 98.424C374.216 98.424 376.232 98.072 378.088 97.368C379.944 96.664 381.448 95.608 382.6 94.2C383.752 92.728 384.328 90.968 384.328 88.92C384.328 86.872 383.784 85.208 382.696 83.928C381.608 82.584 380.2 81.624 378.472 81.048C376.744 80.408 374.856 80.088 372.808 80.088C371.784 80.088 370.728 80.184 369.64 80.376C368.552 80.568 367.496 80.824 366.472 81.144C365.448 81.4 364.456 81.784 363.496 82.296L359.656 73.08L377.896 54.936L381.16 57.528L349.288 56.952V43.224H394.408L397.48 50.616L373.288 74.52L369.448 68.856C370.088 68.6 371.08 68.376 372.424 68.184C373.832 67.992 375.272 67.896 376.744 67.896C379.752 67.896 382.6 68.44 385.288 69.528C387.976 70.552 390.376 71.992 392.488 73.848C394.6 75.704 396.264 77.912 397.48 80.472C398.696 82.968 399.304 85.688 399.304 88.632C399.304 93.24 398.056 97.304 395.56 100.824C393.128 104.28 389.832 107 385.672 108.984C381.576 110.968 376.968 111.96 371.848 111.96Z" fill="white"/>
<rect id="Rectangle 7" y="462" width="1567" height="626" fill="#211F2F"/>
<g id="Group 4">
<g id="Vector" filter="url(#filter0_d_110_602)">
<path d="M249.246 452.996C254.515 429.672 287.714 429.672 292.983 452.996L301.541 490.874C304.712 504.912 294.05 518.267 279.672 518.267H262.557C248.179 518.267 237.517 504.912 240.688 490.874L249.246 452.996Z" fill="#3B5EC6"/>
<path d="M294.816 402.046C294.816 415.326 284.061 426.092 270.794 426.092C257.527 426.092 246.772 415.326 246.772 402.046C246.772 388.766 257.527 378 270.794 378C284.061 378 294.816 388.766 294.816 402.046Z" fill="#3B5EC6"/>
<path d="M275.599 506.565C275.599 500.013 280.904 494.702 287.45 494.702C293.995 494.702 299.3 500.013 299.3 506.565V534.137C299.3 540.689 293.995 546 287.45 546C280.904 546 275.599 540.689 275.599 534.137V506.565Z" fill="#3B5EC6"/>
<path d="M284.867 460.609C281.517 454.981 283.36 447.7 288.982 444.347C294.605 440.993 301.879 442.837 305.229 448.466L319.328 472.153C322.678 477.781 320.836 485.062 315.213 488.415C309.59 491.769 302.316 489.925 298.966 484.296L284.867 460.609Z" fill="#3B5EC6"/>
<path d="M236.362 448.548C239.635 442.874 246.883 440.93 252.551 444.206C258.219 447.482 260.161 454.737 256.889 460.411L243.116 484.289C239.844 489.963 232.596 491.907 226.927 488.631C221.259 485.355 219.317 478.1 222.59 472.427L236.362 448.548Z" fill="#3B5EC6"/>
<path d="M242.288 506.565C242.288 500.013 247.594 494.702 254.139 494.702C260.684 494.702 265.99 500.013 265.99 506.565V534.137C265.99 540.689 260.684 546 254.139 546C247.594 546 242.288 540.689 242.288 534.137V506.565Z" fill="#3B5EC6"/>
</g>
<g id="Vector_2" filter="url(#filter1_d_110_602)">
<path d="M483.528 452.996C488.85 429.672 522.381 429.672 527.703 452.996L536.346 490.874C539.549 504.912 528.78 518.267 514.259 518.267H496.972C482.451 518.267 471.682 504.912 474.885 490.874L483.528 452.996Z" fill="#3B5EC6"/>
<path d="M529.555 402.046C529.555 415.326 518.692 426.092 505.292 426.092C491.892 426.092 481.03 415.326 481.03 402.046C481.03 388.766 491.892 378 505.292 378C518.692 378 529.555 388.766 529.555 402.046Z" fill="#3B5EC6"/>
<path d="M510.145 506.565C510.145 500.013 515.504 494.702 522.114 494.702C528.725 494.702 534.083 500.013 534.083 506.565V534.137C534.083 540.689 528.725 546 522.114 546C515.504 546 510.145 540.689 510.145 534.137V506.565Z" fill="#3B5EC6"/>
<path d="M519.506 460.609C516.123 454.981 517.983 447.7 523.662 444.347C529.341 440.993 536.688 442.837 540.071 448.466L554.311 472.153C557.695 477.781 555.834 485.062 550.155 488.415C544.476 491.769 537.13 489.925 533.746 484.296L519.506 460.609Z" fill="#3B5EC6"/>
<path d="M470.516 448.548C473.821 442.874 481.142 440.93 486.867 444.206C492.591 447.482 494.553 454.737 491.248 460.411L477.337 484.289C474.032 489.963 466.712 491.907 460.987 488.631C455.262 485.355 453.3 478.1 456.606 472.427L470.516 448.548Z" fill="#3B5EC6"/>
<path d="M476.501 506.565C476.501 500.013 481.86 494.702 488.47 494.702C495.081 494.702 500.44 500.013 500.44 506.565V534.137C500.44 540.689 495.081 546 488.47 546C481.86 546 476.501 540.689 476.501 534.137V506.565Z" fill="#3B5EC6"/>
</g>
<g id="Vector_3" filter="url(#filter2_d_110_602)">
<path d="M366.528 452.996C371.85 429.672 405.381 429.672 410.703 452.996L419.346 490.874C422.549 504.912 411.78 518.267 397.259 518.267H379.972C365.451 518.267 354.682 504.912 357.885 490.874L366.528 452.996Z" fill="#3B5EC6"/>
<path d="M412.555 402.046C412.555 415.326 401.692 426.092 388.292 426.092C374.892 426.092 364.03 415.326 364.03 402.046C364.03 388.766 374.892 378 388.292 378C401.692 378 412.555 388.766 412.555 402.046Z" fill="#3B5EC6"/>
<path d="M393.145 506.565C393.145 500.013 398.504 494.702 405.114 494.702C411.725 494.702 417.083 500.013 417.083 506.565V534.137C417.083 540.689 411.725 546 405.114 546C398.504 546 393.145 540.689 393.145 534.137V506.565Z" fill="#3B5EC6"/>
<path d="M402.506 460.609C399.123 454.981 400.983 447.7 406.662 444.347C412.341 440.993 419.688 442.837 423.071 448.466L437.311 472.153C440.695 477.781 438.834 485.062 433.155 488.415C427.476 491.769 420.13 489.925 416.746 484.296L402.506 460.609Z" fill="#3B5EC6"/>
<path d="M353.516 448.548C356.821 442.874 364.142 440.93 369.867 444.206C375.591 447.482 377.553 454.737 374.248 460.411L360.337 484.289C357.032 489.963 349.712 491.907 343.987 488.631C338.262 485.355 336.3 478.1 339.606 472.427L353.516 448.548Z" fill="#3B5EC6"/>
<path d="M359.501 506.565C359.501 500.013 364.86 494.702 371.47 494.702C378.081 494.702 383.44 500.013 383.44 506.565V534.137C383.44 540.689 378.081 546 371.47 546C364.86 546 359.501 540.689 359.501 534.137V506.565Z" fill="#3B5EC6"/>
</g>
<g id="Vector_4" filter="url(#filter3_d_110_602)">
<path d="M601.246 452.996C606.515 429.672 639.714 429.672 644.983 452.996L653.541 490.874C656.712 504.912 646.05 518.267 631.672 518.267H614.557C600.179 518.267 589.517 504.912 592.688 490.874L601.246 452.996Z" fill="#3B5EC6"/>
<path d="M646.816 402.046C646.816 415.326 636.061 426.092 622.794 426.092C609.527 426.092 598.772 415.326 598.772 402.046C598.772 388.766 609.527 378 622.794 378C636.061 378 646.816 388.766 646.816 402.046Z" fill="#3B5EC6"/>
<path d="M627.599 506.565C627.599 500.013 632.904 494.702 639.45 494.702C645.995 494.702 651.3 500.013 651.3 506.565V534.137C651.3 540.689 645.995 546 639.45 546C632.904 546 627.599 540.689 627.599 534.137V506.565Z" fill="#3B5EC6"/>
<path d="M636.867 460.609C633.517 454.981 635.36 447.7 640.982 444.347C646.605 440.993 653.879 442.837 657.229 448.466L671.328 472.153C674.678 477.781 672.836 485.062 667.213 488.415C661.59 491.769 654.316 489.925 650.966 484.296L636.867 460.609Z" fill="#3B5EC6"/>
<path d="M588.362 448.548C591.635 442.874 598.883 440.93 604.551 444.206C610.219 447.482 612.161 454.737 608.889 460.411L595.116 484.289C591.844 489.963 584.596 491.907 578.927 488.631C573.259 485.355 571.317 478.1 574.59 472.427L588.362 448.548Z" fill="#3B5EC6"/>
<path d="M594.288 506.565C594.288 500.013 599.594 494.702 606.139 494.702C612.684 494.702 617.99 500.013 617.99 506.565V534.137C617.99 540.689 612.684 546 606.139 546C599.594 546 594.288 540.689 594.288 534.137V506.565Z" fill="#3B5EC6"/>
</g>
<g id="Vector_5" filter="url(#filter4_d_110_602)">
<path d="M148.33 489.388C154.548 461.899 193.722 461.899 199.94 489.388L210.038 534.03C213.78 550.575 201.199 566.315 184.233 566.315H164.037C147.071 566.315 134.49 550.575 138.232 534.03L148.33 489.388Z" fill="#6A94E0"/>
<path d="M202.103 429.34C202.103 444.991 189.412 457.679 173.757 457.679C158.102 457.679 145.411 444.991 145.411 429.34C145.411 413.688 158.102 401 173.757 401C189.412 401 202.103 413.688 202.103 429.34Z" fill="#6A94E0"/>
<path d="M179.426 552.523C179.426 544.801 185.687 538.542 193.41 538.542C201.134 538.542 207.395 544.801 207.395 552.523V585.019C207.395 592.741 201.134 599 193.41 599C185.687 599 179.426 592.741 179.426 585.019V552.523Z" fill="#6A94E0"/>
<path d="M190.364 498.361C186.41 491.728 188.584 483.146 195.219 479.194C201.854 475.242 210.437 477.416 214.39 484.049L231.027 511.966C234.98 518.599 232.806 527.18 226.171 531.132C219.537 535.085 210.953 532.911 207 526.278L190.364 498.361Z" fill="#6A94E0"/>
<path d="M133.128 484.146C136.989 477.459 145.542 475.168 152.23 479.029C158.919 482.889 161.21 491.44 157.349 498.127L141.097 526.269C137.235 532.956 128.683 535.248 121.994 531.387C115.306 527.526 113.014 518.975 116.876 512.289L133.128 484.146Z" fill="#6A94E0"/>
<path d="M140.12 552.523C140.12 544.801 146.381 538.542 154.104 538.542C161.827 538.542 168.088 544.801 168.088 552.523V585.019C168.088 592.741 161.827 599 154.104 599C146.381 599 140.12 592.741 140.12 585.019V552.523Z" fill="#6A94E0"/>
</g>
<g id="Vector_6" filter="url(#filter5_d_110_602)">
<path d="M424.33 489.388C430.548 461.899 469.722 461.899 475.94 489.388L486.038 534.03C489.78 550.575 477.199 566.315 460.233 566.315H440.037C423.071 566.315 410.49 550.575 414.232 534.03L424.33 489.388Z" fill="#6A94E0"/>
<path d="M478.103 429.34C478.103 444.991 465.412 457.679 449.757 457.679C434.102 457.679 421.411 444.991 421.411 429.34C421.411 413.688 434.102 401 449.757 401C465.412 401 478.103 413.688 478.103 429.34Z" fill="#6A94E0"/>
<path d="M455.426 552.523C455.426 544.801 461.687 538.542 469.41 538.542C477.134 538.542 483.395 544.801 483.395 552.523V585.019C483.395 592.741 477.134 599 469.41 599C461.687 599 455.426 592.741 455.426 585.019V552.523Z" fill="#6A94E0"/>
<path d="M466.364 498.361C462.41 491.728 464.584 483.146 471.219 479.194C477.854 475.242 486.437 477.416 490.39 484.049L507.027 511.966C510.98 518.599 508.806 527.18 502.171 531.132C495.537 535.085 486.953 532.911 483 526.278L466.364 498.361Z" fill="#6A94E0"/>
<path d="M409.128 484.146C412.989 477.459 421.542 475.168 428.23 479.029C434.919 482.889 437.21 491.44 433.349 498.127L417.097 526.269C413.235 532.956 404.683 535.248 397.994 531.387C391.306 527.526 389.014 518.975 392.876 512.289L409.128 484.146Z" fill="#6A94E0"/>
<path d="M416.12 552.523C416.12 544.801 422.381 538.542 430.104 538.542C437.827 538.542 444.088 544.801 444.088 552.523V585.019C444.088 592.741 437.827 599 430.104 599C422.381 599 416.12 592.741 416.12 585.019V552.523Z" fill="#6A94E0"/>
</g>
<g id="Vector_7" filter="url(#filter6_d_110_602)">
<path d="M286.33 489.388C292.548 461.899 331.722 461.899 337.94 489.388L348.038 534.03C351.78 550.575 339.199 566.315 322.233 566.315H302.037C285.071 566.315 272.49 550.575 276.232 534.03L286.33 489.388Z" fill="#6A94E0"/>
<path d="M340.103 429.34C340.103 444.991 327.412 457.679 311.757 457.679C296.102 457.679 283.411 444.991 283.411 429.34C283.411 413.688 296.102 401 311.757 401C327.412 401 340.103 413.688 340.103 429.34Z" fill="#6A94E0"/>
<path d="M317.426 552.523C317.426 544.801 323.687 538.542 331.41 538.542C339.134 538.542 345.395 544.801 345.395 552.523V585.019C345.395 592.741 339.134 599 331.41 599C323.687 599 317.426 592.741 317.426 585.019V552.523Z" fill="#6A94E0"/>
<path d="M328.364 498.361C324.41 491.728 326.584 483.146 333.219 479.194C339.854 475.242 348.437 477.416 352.39 484.049L369.027 511.966C372.98 518.599 370.806 527.18 364.171 531.132C357.537 535.085 348.953 532.911 345 526.278L328.364 498.361Z" fill="#6A94E0"/>
<path d="M271.128 484.146C274.989 477.459 283.542 475.168 290.23 479.029C296.919 482.889 299.21 491.44 295.349 498.127L279.097 526.269C275.235 532.956 266.683 535.248 259.994 531.387C253.306 527.526 251.014 518.975 254.876 512.289L271.128 484.146Z" fill="#6A94E0"/>
<path d="M278.12 552.523C278.12 544.801 284.381 538.542 292.104 538.542C299.827 538.542 306.088 544.801 306.088 552.523V585.019C306.088 592.741 299.827 599 292.104 599C284.381 599 278.12 592.741 278.12 585.019V552.523Z" fill="#6A94E0"/>
</g>
<g id="Vector_8" filter="url(#filter7_d_110_602)">
<path d="M344.33 535.388C350.548 507.899 389.722 507.899 395.94 535.388L406.038 580.03C409.78 596.575 397.199 612.315 380.233 612.315H360.037C343.071 612.315 330.49 596.575 334.232 580.03L344.33 535.388Z" fill="#8DBBFB"/>
<path d="M398.103 475.34C398.103 490.991 385.412 503.679 369.757 503.679C354.102 503.679 341.411 490.991 341.411 475.34C341.411 459.688 354.102 447 369.757 447C385.412 447 398.103 459.688 398.103 475.34Z" fill="#8DBBFB"/>
<path d="M375.426 598.523C375.426 590.801 381.687 584.542 389.41 584.542C397.134 584.542 403.395 590.801 403.395 598.523V631.019C403.395 638.741 397.134 645 389.41 645C381.687 645 375.426 638.741 375.426 631.019V598.523Z" fill="#8DBBFB"/>
<path d="M386.364 544.361C382.41 537.728 384.584 529.146 391.219 525.194C397.854 521.242 406.437 523.416 410.39 530.049L427.027 557.966C430.98 564.599 428.806 573.18 422.171 577.132C415.537 581.085 406.953 578.911 403 572.278L386.364 544.361Z" fill="#8DBBFB"/>
<path d="M329.128 530.146C332.989 523.459 341.542 521.168 348.23 525.029C354.919 528.889 357.21 537.44 353.349 544.127L337.097 572.269C333.235 578.956 324.683 581.248 317.994 577.387C311.306 573.526 309.014 564.975 312.876 558.289L329.128 530.146Z" fill="#8DBBFB"/>
<path d="M336.12 598.523C336.12 590.801 342.381 584.542 350.104 584.542C357.827 584.542 364.088 590.801 364.088 598.523V631.019C364.088 638.741 357.827 645 350.104 645C342.381 645 336.12 638.741 336.12 631.019V598.523Z" fill="#8DBBFB"/>
</g>
<g id="Vector_9" filter="url(#filter8_d_110_602)">
<path d="M562.33 489.388C568.548 461.899 607.722 461.899 613.94 489.388L624.038 534.03C627.78 550.575 615.199 566.315 598.233 566.315H578.037C561.071 566.315 548.49 550.575 552.232 534.03L562.33 489.388Z" fill="#6A94E0"/>
<path d="M616.103 429.34C616.103 444.991 603.412 457.679 587.757 457.679C572.102 457.679 559.411 444.991 559.411 429.34C559.411 413.688 572.102 401 587.757 401C603.412 401 616.103 413.688 616.103 429.34Z" fill="#6A94E0"/>
<path d="M593.426 552.523C593.426 544.801 599.687 538.542 607.41 538.542C615.134 538.542 621.395 544.801 621.395 552.523V585.019C621.395 592.741 615.134 599 607.41 599C599.687 599 593.426 592.741 593.426 585.019V552.523Z" fill="#6A94E0"/>
<path d="M604.364 498.361C600.41 491.728 602.584 483.146 609.219 479.194C615.854 475.242 624.437 477.416 628.39 484.049L645.027 511.966C648.98 518.599 646.806 527.18 640.171 531.132C633.537 535.085 624.953 532.911 621 526.278L604.364 498.361Z" fill="#6A94E0"/>
<path d="M547.128 484.146C550.989 477.459 559.542 475.168 566.23 479.029C572.919 482.889 575.21 491.44 571.349 498.127L555.097 526.269C551.235 532.956 542.683 535.248 535.994 531.387C529.306 527.526 527.014 518.975 530.876 512.289L547.128 484.146Z" fill="#6A94E0"/>
<path d="M554.12 552.523C554.12 544.801 560.381 538.542 568.104 538.542C575.827 538.542 582.088 544.801 582.088 552.523V585.019C582.088 592.741 575.827 599 568.104 599C560.381 599 554.12 592.741 554.12 585.019V552.523Z" fill="#6A94E0"/>
</g>
<g id="Vector_10" filter="url(#filter9_d_110_602)">
<path d="M206.33 535.388C212.548 507.899 251.722 507.899 257.94 535.388L268.038 580.03C271.78 596.575 259.199 612.315 242.233 612.315H222.037C205.071 612.315 192.49 596.575 196.232 580.03L206.33 535.388Z" fill="#8DBBFB"/>
<path d="M260.103 475.34C260.103 490.991 247.412 503.679 231.757 503.679C216.102 503.679 203.411 490.991 203.411 475.34C203.411 459.688 216.102 447 231.757 447C247.412 447 260.103 459.688 260.103 475.34Z" fill="#8DBBFB"/>
<path d="M237.426 598.523C237.426 590.801 243.687 584.542 251.41 584.542C259.134 584.542 265.395 590.801 265.395 598.523V631.019C265.395 638.741 259.134 645 251.41 645C243.687 645 237.426 638.741 237.426 631.019V598.523Z" fill="#8DBBFB"/>
<path d="M248.364 544.361C244.41 537.728 246.584 529.146 253.219 525.194C259.854 521.242 268.437 523.416 272.39 530.049L289.027 557.966C292.98 564.599 290.806 573.18 284.171 577.132C277.537 581.085 268.953 578.911 265 572.278L248.364 544.361Z" fill="#8DBBFB"/>
<path d="M191.128 530.146C194.989 523.459 203.542 521.168 210.23 525.029C216.919 528.889 219.21 537.44 215.349 544.127L199.097 572.269C195.235 578.956 186.683 581.248 179.994 577.387C173.306 573.526 171.014 564.975 174.876 558.289L191.128 530.146Z" fill="#8DBBFB"/>
<path d="M198.12 598.523C198.12 590.801 204.381 584.542 212.104 584.542C219.827 584.542 226.088 590.801 226.088 598.523V631.019C226.088 638.741 219.827 645 212.104 645C204.381 645 198.12 638.741 198.12 631.019V598.523Z" fill="#8DBBFB"/>
</g>
<g id="Vector_11" filter="url(#filter10_d_110_602)">
<path d="M482.33 535.388C488.548 507.899 527.722 507.899 533.94 535.388L544.038 580.03C547.78 596.575 535.199 612.315 518.233 612.315H498.037C481.071 612.315 468.49 596.575 472.232 580.03L482.33 535.388Z" fill="#8DBBFB"/>
<path d="M536.103 475.34C536.103 490.991 523.412 503.679 507.757 503.679C492.102 503.679 479.411 490.991 479.411 475.34C479.411 459.688 492.102 447 507.757 447C523.412 447 536.103 459.688 536.103 475.34Z" fill="#8DBBFB"/>
<path d="M513.426 598.523C513.426 590.801 519.687 584.542 527.41 584.542C535.134 584.542 541.395 590.801 541.395 598.523V631.019C541.395 638.741 535.134 645 527.41 645C519.687 645 513.426 638.741 513.426 631.019V598.523Z" fill="#8DBBFB"/>
<path d="M524.364 544.361C520.41 537.728 522.584 529.146 529.219 525.194C535.854 521.242 544.437 523.416 548.39 530.049L565.027 557.966C568.98 564.599 566.806 573.18 560.171 577.132C553.537 581.085 544.953 578.911 541 572.278L524.364 544.361Z" fill="#8DBBFB"/>
<path d="M467.128 530.146C470.989 523.459 479.542 521.168 486.23 525.029C492.919 528.889 495.21 537.44 491.349 544.127L475.097 572.269C471.235 578.956 462.683 581.248 455.994 577.387C449.306 573.526 447.014 564.975 450.876 558.289L467.128 530.146Z" fill="#8DBBFB"/>
<path d="M474.12 598.523C474.12 590.801 480.381 584.542 488.104 584.542C495.827 584.542 502.088 590.801 502.088 598.523V631.019C502.088 638.741 495.827 645 488.104 645C480.381 645 474.12 638.741 474.12 631.019V598.523Z" fill="#8DBBFB"/>
</g>
<g id="Vector_12" filter="url(#filter11_d_110_602)">
<path d="M620.33 535.388C626.548 507.899 665.722 507.899 671.94 535.388L682.038 580.03C685.78 596.575 673.199 612.315 656.233 612.315H636.037C619.071 612.315 606.49 596.575 610.232 580.03L620.33 535.388Z" fill="#8DBBFB"/>
<path d="M674.103 475.34C674.103 490.991 661.412 503.679 645.757 503.679C630.102 503.679 617.411 490.991 617.411 475.34C617.411 459.688 630.102 447 645.757 447C661.412 447 674.103 459.688 674.103 475.34Z" fill="#8DBBFB"/>
<path d="M651.426 598.523C651.426 590.801 657.687 584.542 665.41 584.542C673.134 584.542 679.395 590.801 679.395 598.523V631.019C679.395 638.741 673.134 645 665.41 645C657.687 645 651.426 638.741 651.426 631.019V598.523Z" fill="#8DBBFB"/>
<path d="M662.364 544.361C658.41 537.728 660.584 529.146 667.219 525.194C673.854 521.242 682.437 523.416 686.39 530.049L703.027 557.966C706.98 564.599 704.806 573.18 698.171 577.132C691.537 581.085 682.953 578.911 679 572.278L662.364 544.361Z" fill="#8DBBFB"/>
<path d="M605.128 530.146C608.989 523.459 617.542 521.168 624.23 525.029C630.919 528.889 633.21 537.44 629.349 544.127L613.097 572.269C609.235 578.956 600.683 581.248 593.994 577.387C587.306 573.526 585.014 564.975 588.876 558.289L605.128 530.146Z" fill="#8DBBFB"/>
<path d="M612.12 598.523C612.12 590.801 618.381 584.542 626.104 584.542C633.827 584.542 640.088 590.801 640.088 598.523V631.019C640.088 638.741 633.827 645 626.104 645C618.381 645 612.12 638.741 612.12 631.019V598.523Z" fill="#8DBBFB"/>
</g>
</g>
<line id="Line 1" x1="41.5002" y1="577.708" x2="41.5002" y2="231.708" stroke="#485C77" stroke-width="25" stroke-linecap="round"/>
<rect id="Rectangle 8" x="29.0002" y="219.208" width="172" height="96" rx="14" fill="#3B5EC6"/>
<rect id="Rectangle 9" x="99.0002" y="219.208" width="32" height="96" fill="white"/>
<rect id="Rectangle 11" x="198" y="216.208" width="21.7609" height="196.456" rx="10.8804" transform="rotate(62.972 198 216.208)" fill="white"/>
<rect id="Rectangle 12" x="205.953" y="310.229" width="21.7609" height="196.456" rx="10.8804" transform="rotate(120 205.953 310.229)" fill="white"/>
<rect id="Rectangle 10" x="29.0002" y="283.208" width="27" height="172" transform="rotate(-90 29.0002 283.208)" fill="white"/>
<rect id="Rectangle 13" x="197.061" y="221.565" width="13.0698" height="189.913" rx="6.53491" transform="rotate(62.972 197.061 221.565)" fill="#EF1044"/>
<rect id="Rectangle 14" x="201.058" y="311.999" width="13.0698" height="189.913" rx="6.53491" transform="rotate(120 201.058 311.999)" fill="#EF1044"/>
<rect id="Rectangle 15" x="29.0002" y="263.208" width="172" height="14" fill="#EF1044"/>
<rect id="Rectangle 16" x="123" y="219.208" width="96" height="16" transform="rotate(90 123 219.208)" fill="#EF1044"/>
<g id="next">
<g id="Next">
<path id="Next_2" d="M1100.81 909V864.2H1110.79L1137.86 896.2L1136.01 895.88C1135.75 894.387 1135.56 892.957 1135.43 891.592C1135.3 890.227 1135.18 888.904 1135.05 887.624C1134.96 886.344 1134.88 885.064 1134.79 883.784C1134.75 882.504 1134.73 881.16 1134.73 879.752C1134.73 878.344 1134.73 876.851 1134.73 875.272V864.2H1145.29V909H1135.18L1107.08 875.976L1110.09 876.424C1110.22 877.917 1110.34 879.261 1110.47 880.456C1110.64 881.651 1110.77 882.781 1110.86 883.848C1110.98 884.872 1111.07 885.917 1111.11 886.984C1111.2 888.008 1111.26 889.096 1111.3 890.248C1111.35 891.4 1111.37 892.659 1111.37 894.024V909H1100.81ZM1177.89 909.64C1173.76 909.64 1170.13 908.893 1167.01 907.4C1163.94 905.864 1161.55 903.795 1159.85 901.192C1158.14 898.547 1157.29 895.539 1157.29 892.168C1157.29 889.48 1157.78 887.048 1158.76 884.872C1159.74 882.696 1161.11 880.819 1162.85 879.24C1164.6 877.661 1166.65 876.445 1169 875.592C1171.35 874.739 1173.88 874.312 1176.61 874.312C1179.26 874.312 1181.69 874.739 1183.91 875.592C1186.13 876.403 1188.05 877.576 1189.67 879.112C1191.33 880.648 1192.61 882.461 1193.51 884.552C1194.41 886.643 1194.81 888.947 1194.73 891.464L1194.66 894.344H1164.01L1162.53 888.392H1186.34L1185.25 889.672V888.392C1185.13 887.325 1184.66 886.365 1183.85 885.512C1183.08 884.659 1182.08 883.997 1180.84 883.528C1179.6 883.016 1178.24 882.76 1176.74 882.76C1174.82 882.76 1173.12 883.08 1171.62 883.72C1170.13 884.317 1168.96 885.256 1168.1 886.536C1167.29 887.816 1166.89 889.437 1166.89 891.4C1166.89 893.277 1167.38 894.92 1168.36 896.328C1169.38 897.736 1170.81 898.845 1172.65 899.656C1174.52 900.467 1176.72 900.872 1179.24 900.872C1181.41 900.872 1183.23 900.616 1184.68 900.104C1186.17 899.549 1187.52 898.867 1188.71 898.056L1193.32 904.712C1191.91 905.779 1190.35 906.696 1188.65 907.464C1186.98 908.189 1185.23 908.723 1183.4 909.064C1181.61 909.448 1179.77 909.64 1177.89 909.64ZM1231.57 909L1222.16 896.776L1219.54 893.32L1204.63 875.016H1217.56L1226 886.216L1228.82 889.928L1244.37 909H1231.57ZM1203.8 909L1219.03 889.8L1225.24 896.136L1216.53 909H1203.8ZM1228.76 894.216L1222.74 887.816L1231.32 875.016H1243.99L1228.76 894.216ZM1260.39 909V865.672H1270.63V909H1260.39ZM1252.84 883.976V875.016H1279.27V883.976H1252.84Z" fill="white"/>
</g>
<path id="Arrow 1" d="M1094 913.5C1089.31 913.5 1085.5 917.306 1085.5 922C1085.5 926.694 1089.31 930.5 1094 930.5V922V913.5ZM1371 922L1286 872.925V971.075L1371 922ZM1094 922V930.5H1294.5V922V913.5H1094V922Z" fill="#EF1044"/>
</g>
<path id="you find the lab" d="M250.727 833.08L264.071 805.72L263.783 813.496L236.711 760.024H254.279L266.663 786.52C267.559 788.312 268.391 790.136 269.159 791.992C269.927 793.784 270.535 795.576 270.983 797.368L268.103 798.136C268.679 796.728 269.351 795.064 270.119 793.144C270.887 791.224 271.687 789.272 272.519 787.288L283.943 760.024H301.511L276.551 811.192L266.279 833.08H250.727ZM342.491 811.96C336.539 811.96 331.259 810.808 326.651 808.504C322.043 806.2 318.427 803.064 315.803 799.096C313.179 795.128 311.867 790.584 311.867 785.464C311.867 780.344 313.179 775.8 315.803 771.832C318.427 767.864 322.043 764.728 326.651 762.424C331.259 760.12 336.539 758.968 342.491 758.968C348.379 758.968 353.595 760.12 358.139 762.424C362.747 764.728 366.363 767.864 368.987 771.832C371.611 775.8 372.923 780.344 372.923 785.464C372.923 790.584 371.611 795.128 368.987 799.096C366.363 803.064 362.747 806.2 358.139 808.504C353.595 810.808 348.379 811.96 342.491 811.96ZM342.491 798.712C345.243 798.712 347.739 798.136 349.979 796.984C352.283 795.832 354.075 794.264 355.355 792.28C356.699 790.296 357.339 788.024 357.275 785.464C357.339 782.904 356.699 780.6 355.355 778.552C354.075 776.504 352.283 774.936 349.979 773.848C347.739 772.696 345.243 772.12 342.491 772.12C339.675 772.12 337.083 772.696 334.715 773.848C332.411 775 330.619 776.568 329.339 778.552C328.059 780.536 327.419 782.84 327.419 785.464C327.419 788.024 328.059 790.296 329.339 792.28C330.619 794.264 332.411 795.832 334.715 796.984C337.083 798.136 339.675 798.712 342.491 798.712ZM410.963 812.056C406.867 812.056 403.315 811.16 400.307 809.368C397.363 807.576 395.091 804.984 393.491 801.592C391.891 798.136 391.091 794.008 391.091 789.208V760.024H406.451V786.712C406.451 789.336 406.803 791.544 407.507 793.336C408.275 795.128 409.459 796.504 411.059 797.464C412.659 798.36 414.611 798.808 416.915 798.808C418.579 798.808 420.115 798.552 421.523 798.04C422.931 797.464 424.179 796.696 425.267 795.736C426.355 794.712 427.187 793.56 427.763 792.28C428.403 790.936 428.723 789.432 428.723 787.768V760.024H444.083V811H429.683L429.011 800.536L431.795 799.384C431.091 801.624 429.747 803.704 427.763 805.624C425.779 807.544 423.347 809.112 420.467 810.328C417.651 811.48 414.483 812.056 410.963 812.056ZM509.876 811V759.16C509.876 755.384 510.676 752.056 512.276 749.176C513.94 746.232 516.244 743.928 519.188 742.264C522.132 740.6 525.556 739.768 529.46 739.768C532.468 739.768 535.092 740.152 537.332 740.92C539.636 741.688 541.588 742.648 543.188 743.8L538.772 755.128C537.876 754.616 536.82 754.168 535.604 753.784C534.452 753.336 533.3 753.112 532.148 753.112C530.484 753.112 529.108 753.4 528.02 753.976C526.996 754.488 526.228 755.256 525.716 756.28C525.204 757.304 524.948 758.52 524.948 759.928V811H517.46C515.86 811 514.42 811 513.14 811C511.86 811 510.772 811 509.876 811ZM500.948 774.52V761.848H539.636V774.52H500.948ZM558.068 811V760.024H573.524V811H558.068ZM565.748 749.56C562.868 749.56 560.628 748.888 559.028 747.544C557.428 746.136 556.628 744.152 556.628 741.592C556.628 739.288 557.428 737.4 559.028 735.928C560.692 734.456 562.932 733.72 565.748 733.72C568.628 733.72 570.868 734.424 572.468 735.832C574.068 737.176 574.868 739.096 574.868 741.592C574.868 743.96 574.036 745.88 572.372 747.352C570.772 748.824 568.564 749.56 565.748 749.56ZM598.393 811V760.024H612.985L613.465 771.928L609.817 772.984C610.649 770.488 612.057 768.184 614.041 766.072C616.089 763.96 618.553 762.264 621.433 760.984C624.377 759.64 627.545 758.968 630.937 758.968C635.289 758.968 638.969 759.832 641.977 761.56C644.985 763.288 647.257 765.752 648.793 768.952C650.329 772.088 651.097 775.832 651.097 780.184V811H635.641V782.392C635.641 780.152 635.225 778.264 634.393 776.728C633.625 775.192 632.441 774.008 630.841 773.176C629.305 772.344 627.513 771.928 625.465 771.928C623.673 771.928 622.041 772.248 620.569 772.888C619.161 773.464 617.945 774.264 616.921 775.288C615.897 776.248 615.097 777.336 614.521 778.552C614.009 779.768 613.753 781.016 613.753 782.296V811H606.169C604.057 811 602.361 811 601.081 811C599.801 811 598.905 811 598.393 811ZM694.004 812.056C689.012 812.056 684.628 810.936 680.852 808.696C677.076 806.392 674.132 803.256 672.02 799.288C669.908 795.256 668.852 790.68 668.852 785.56C668.852 780.44 669.94 775.896 672.116 771.928C674.292 767.896 677.3 764.728 681.14 762.424C685.044 760.12 689.524 758.968 694.58 758.968C697.396 758.968 700.02 759.352 702.452 760.12C704.884 760.824 707.06 761.784 708.98 763C710.964 764.216 712.532 765.624 713.684 767.224C714.9 768.76 715.604 770.328 715.796 771.928L712.148 772.792V739.96H727.604V811H713.3L712.436 798.616L715.508 799.384C715.316 800.984 714.612 802.552 713.396 804.088C712.18 805.56 710.58 806.904 708.596 808.12C706.676 809.272 704.468 810.232 701.972 811C699.476 811.704 696.82 812.056 694.004 812.056ZM698.324 799.096C701.204 799.096 703.7 798.52 705.812 797.368C707.988 796.216 709.652 794.648 710.804 792.664C711.956 790.616 712.532 788.248 712.532 785.56C712.532 782.808 711.956 780.44 710.804 778.456C709.652 776.408 707.988 774.84 705.812 773.752C703.7 772.6 701.204 772.024 698.324 772.024C695.444 772.024 692.948 772.6 690.836 773.752C688.724 774.84 687.06 776.408 685.844 778.456C684.692 780.44 684.116 782.808 684.116 785.56C684.116 788.248 684.692 790.616 685.844 792.664C687.06 794.648 688.724 796.216 690.836 797.368C692.948 798.52 695.444 799.096 698.324 799.096ZM793.697 811V746.008H809.057V811H793.697ZM782.369 773.464V760.024H822.017V773.464H782.369ZM840.924 811V739.96H855.996V771.928L852.348 773.176C852.988 770.616 854.332 768.28 856.38 766.168C858.492 763.992 861.052 762.264 864.06 760.984C867.068 759.64 870.268 758.968 873.66 758.968C878.012 758.968 881.66 759.864 884.604 761.656C887.612 763.384 889.852 765.848 891.324 769.048C892.86 772.184 893.628 775.864 893.628 780.088V811H878.172V782.488C878.172 780.184 877.756 778.264 876.924 776.728C876.156 775.128 874.972 773.912 873.372 773.08C871.836 772.248 870.044 771.864 867.996 771.928C866.332 771.928 864.764 772.216 863.292 772.792C861.884 773.304 860.636 774.072 859.548 775.096C858.524 776.056 857.724 777.176 857.148 778.456C856.572 779.736 856.284 781.112 856.284 782.584V811H848.7C846.588 811 844.892 811 843.612 811C842.332 811 841.436 811 840.924 811ZM942.295 811.96C936.087 811.96 930.647 810.84 925.975 808.6C921.367 806.296 917.783 803.192 915.223 799.288C912.663 795.32 911.383 790.808 911.383 785.752C911.383 781.72 912.119 778.072 913.591 774.808C915.063 771.544 917.111 768.728 919.735 766.36C922.359 763.992 925.431 762.168 928.951 760.888C932.471 759.608 936.279 758.968 940.375 758.968C944.343 758.968 947.991 759.608 951.319 760.888C954.647 762.104 957.527 763.864 959.959 766.168C962.455 768.472 964.375 771.192 965.719 774.328C967.063 777.464 967.671 780.92 967.543 784.696L967.447 789.016H921.463L919.255 780.088H954.967L953.335 782.008V780.088C953.143 778.488 952.439 777.048 951.223 775.768C950.071 774.488 948.567 773.496 946.711 772.792C944.855 772.024 942.807 771.64 940.567 771.64C937.687 771.64 935.127 772.12 932.887 773.08C930.647 773.976 928.887 775.384 927.607 777.304C926.391 779.224 925.783 781.656 925.783 784.6C925.783 787.416 926.519 789.88 927.991 791.992C929.527 794.104 931.671 795.768 934.423 796.984C937.239 798.2 940.535 798.808 944.311 798.808C947.575 798.808 950.295 798.424 952.471 797.656C954.711 796.824 956.727 795.8 958.519 794.584L965.431 804.568C963.319 806.168 960.983 807.544 958.423 808.696C955.927 809.784 953.303 810.584 950.551 811.096C947.863 811.672 945.111 811.96 942.295 811.96ZM1025.24 811V739.96H1040.6V811H1025.24ZM1083.54 811.864C1078.48 811.864 1074.07 810.744 1070.29 808.504C1066.52 806.264 1063.54 803.16 1061.36 799.192C1059.25 795.16 1058.2 790.584 1058.2 785.464C1058.2 780.28 1059.28 775.704 1061.46 771.736C1063.64 767.768 1066.64 764.664 1070.48 762.424C1074.39 760.12 1078.87 758.968 1083.92 758.968C1086.8 758.968 1089.46 759.352 1091.89 760.12C1094.32 760.824 1096.44 761.816 1098.23 763.096C1100.08 764.376 1101.59 765.784 1102.74 767.32C1103.96 768.856 1104.76 770.456 1105.14 772.12H1101.78V760.024H1116.95V811H1101.49V797.944L1104.76 798.424C1104.37 800.088 1103.57 801.72 1102.36 803.32C1101.14 804.92 1099.57 806.36 1097.65 807.64C1095.73 808.92 1093.56 809.944 1091.12 810.712C1088.76 811.48 1086.23 811.864 1083.54 811.864ZM1087.67 798.904C1090.55 798.904 1093.04 798.36 1095.16 797.272C1097.33 796.184 1099 794.648 1100.15 792.664C1101.36 790.616 1101.97 788.216 1101.97 785.464C1101.97 782.776 1101.36 780.44 1100.15 778.456C1099 776.408 1097.33 774.808 1095.16 773.656C1093.04 772.504 1090.55 771.928 1087.67 771.928C1084.79 771.928 1082.29 772.504 1080.18 773.656C1078.07 774.808 1076.4 776.408 1075.19 778.456C1074.04 780.44 1073.46 782.776 1073.46 785.464C1073.46 788.216 1074.04 790.616 1075.19 792.664C1076.4 794.648 1078.07 796.184 1080.18 797.272C1082.29 798.36 1084.79 798.904 1087.67 798.904ZM1173.19 812.056C1170.43 812.056 1167.84 811.704 1165.41 811C1162.98 810.296 1160.8 809.368 1158.88 808.216C1156.96 807.064 1155.36 805.752 1154.08 804.28C1152.87 802.744 1152.07 801.272 1151.68 799.864L1155.81 799.096L1154.95 810.904H1140.64V739.96H1156.1V772.216L1152.16 771.448C1152.61 769.848 1153.44 768.312 1154.66 766.84C1155.87 765.368 1157.41 764.056 1159.27 762.904C1161.19 761.688 1163.33 760.728 1165.7 760.024C1168.07 759.32 1170.56 758.968 1173.19 758.968C1178.05 758.968 1182.4 760.12 1186.24 762.424C1190.08 764.664 1193.12 767.8 1195.36 771.832C1197.6 775.8 1198.72 780.344 1198.72 785.464C1198.72 790.648 1197.6 795.256 1195.36 799.288C1193.19 803.256 1190.18 806.392 1186.34 808.696C1182.5 810.936 1178.11 812.056 1173.19 812.056ZM1169.54 799C1172.42 799 1174.88 798.424 1176.93 797.272C1179.04 796.12 1180.67 794.552 1181.83 792.568C1183.04 790.52 1183.65 788.152 1183.65 785.464C1183.65 782.776 1183.07 780.408 1181.92 778.36C1180.77 776.312 1179.11 774.744 1176.93 773.656C1174.82 772.568 1172.35 772.024 1169.54 772.024C1166.59 772.024 1164.07 772.568 1161.95 773.656C1159.84 774.744 1158.18 776.312 1156.96 778.36C1155.81 780.408 1155.23 782.776 1155.23 785.464C1155.23 788.152 1155.81 790.52 1156.96 792.568C1158.18 794.552 1159.84 796.12 1161.95 797.272C1164.07 798.424 1166.59 799 1169.54 799Z" fill="white"/>
<rect id="Rectangle 28" x="957" y="-230" width="695" height="764" rx="69" fill="#485C77"/>
<rect id="Rectangle 29" x="1093" y="310" width="152" height="268" rx="29" fill="#211F2F"/>
</g>
<defs>
<filter id="filter0_d_110_602" x="217" y="378" width="108" height="176" filterUnits="userSpaceOnUse" color-interpolation-filters="sRGB">
<feFlood flood-opacity="0" result="BackgroundImageFix"/>
<feColorMatrix in="SourceAlpha" type="matrix" values="0 0 0 0 0 0 0 0 0 0 0 0 0 0 0 0 0 0 127 0" result="hardAlpha"/>
<feOffset dy="4"/>
<feGaussianBlur stdDeviation="2"/>
<feComposite in2="hardAlpha" operator="out"/>
<feColorMatrix type="matrix" values="0 0 0 0 0 0 0 0 0 0 0 0 0 0 0 0 0 0 0.25 0"/>
<feBlend mode="normal" in2="BackgroundImageFix" result="effect1_dropShadow_110_602"/>
<feBlend mode="normal" in="SourceGraphic" in2="effect1_dropShadow_110_602" result="shape"/>
</filter>
<filter id="filter1_d_110_602" x="451" y="378" width="109" height="176" filterUnits="userSpaceOnUse" color-interpolation-filters="sRGB">
<feFlood flood-opacity="0" result="BackgroundImageFix"/>
<feColorMatrix in="SourceAlpha" type="matrix" values="0 0 0 0 0 0 0 0 0 0 0 0 0 0 0 0 0 0 127 0" result="hardAlpha"/>
<feOffset dy="4"/>
<feGaussianBlur stdDeviation="2"/>
<feComposite in2="hardAlpha" operator="out"/>
<feColorMatrix type="matrix" values="0 0 0 0 0 0 0 0 0 0 0 0 0 0 0 0 0 0 0.25 0"/>
<feBlend mode="normal" in2="BackgroundImageFix" result="effect1_dropShadow_110_602"/>
<feBlend mode="normal" in="SourceGraphic" in2="effect1_dropShadow_110_602" result="shape"/>
</filter>
<filter id="filter2_d_110_602" x="334" y="378" width="109" height="176" filterUnits="userSpaceOnUse" color-interpolation-filters="sRGB">
<feFlood flood-opacity="0" result="BackgroundImageFix"/>
<feColorMatrix in="SourceAlpha" type="matrix" values="0 0 0 0 0 0 0 0 0 0 0 0 0 0 0 0 0 0 127 0" result="hardAlpha"/>
<feOffset dy="4"/>
<feGaussianBlur stdDeviation="2"/>
<feComposite in2="hardAlpha" operator="out"/>
<feColorMatrix type="matrix" values="0 0 0 0 0 0 0 0 0 0 0 0 0 0 0 0 0 0 0.25 0"/>
<feBlend mode="normal" in2="BackgroundImageFix" result="effect1_dropShadow_110_602"/>
<feBlend mode="normal" in="SourceGraphic" in2="effect1_dropShadow_110_602" result="shape"/>
</filter>
<filter id="filter3_d_110_602" x="569" y="378" width="108" height="176" filterUnits="userSpaceOnUse" color-interpolation-filters="sRGB">
<feFlood flood-opacity="0" result="BackgroundImageFix"/>
<feColorMatrix in="SourceAlpha" type="matrix" values="0 0 0 0 0 0 0 0 0 0 0 0 0 0 0 0 0 0 127 0" result="hardAlpha"/>
<feOffset dy="4"/>
<feGaussianBlur stdDeviation="2"/>
<feComposite in2="hardAlpha" operator="out"/>
<feColorMatrix type="matrix" values="0 0 0 0 0 0 0 0 0 0 0 0 0 0 0 0 0 0 0.25 0"/>
<feBlend mode="normal" in2="BackgroundImageFix" result="effect1_dropShadow_110_602"/>
<feBlend mode="normal" in="SourceGraphic" in2="effect1_dropShadow_110_602" result="shape"/>
</filter>
<filter id="filter4_d_110_602" x="111" y="401" width="126" height="206" filterUnits="userSpaceOnUse" color-interpolation-filters="sRGB">
<feFlood flood-opacity="0" result="BackgroundImageFix"/>
<feColorMatrix in="SourceAlpha" type="matrix" values="0 0 0 0 0 0 0 0 0 0 0 0 0 0 0 0 0 0 127 0" result="hardAlpha"/>
<feOffset dy="4"/>
<feGaussianBlur stdDeviation="2"/>
<feComposite in2="hardAlpha" operator="out"/>
<feColorMatrix type="matrix" values="0 0 0 0 0 0 0 0 0 0 0 0 0 0 0 0 0 0 0.25 0"/>
<feBlend mode="normal" in2="BackgroundImageFix" result="effect1_dropShadow_110_602"/>
<feBlend mode="normal" in="SourceGraphic" in2="effect1_dropShadow_110_602" result="shape"/>
</filter>
<filter id="filter5_d_110_602" x="387" y="401" width="126" height="206" filterUnits="userSpaceOnUse" color-interpolation-filters="sRGB">
<feFlood flood-opacity="0" result="BackgroundImageFix"/>
<feColorMatrix in="SourceAlpha" type="matrix" values="0 0 0 0 0 0 0 0 0 0 0 0 0 0 0 0 0 0 127 0" result="hardAlpha"/>
<feOffset dy="4"/>
<feGaussianBlur stdDeviation="2"/>
<feComposite in2="hardAlpha" operator="out"/>
<feColorMatrix type="matrix" values="0 0 0 0 0 0 0 0 0 0 0 0 0 0 0 0 0 0 0.25 0"/>
<feBlend mode="normal" in2="BackgroundImageFix" result="effect1_dropShadow_110_602"/>
<feBlend mode="normal" in="SourceGraphic" in2="effect1_dropShadow_110_602" result="shape"/>
</filter>
<filter id="filter6_d_110_602" x="249" y="401" width="126" height="206" filterUnits="userSpaceOnUse" color-interpolation-filters="sRGB">
<feFlood flood-opacity="0" result="BackgroundImageFix"/>
<feColorMatrix in="SourceAlpha" type="matrix" values="0 0 0 0 0 0 0 0 0 0 0 0 0 0 0 0 0 0 127 0" result="hardAlpha"/>
<feOffset dy="4"/>
<feGaussianBlur stdDeviation="2"/>
<feComposite in2="hardAlpha" operator="out"/>
<feColorMatrix type="matrix" values="0 0 0 0 0 0 0 0 0 0 0 0 0 0 0 0 0 0 0.25 0"/>
<feBlend mode="normal" in2="BackgroundImageFix" result="effect1_dropShadow_110_602"/>
<feBlend mode="normal" in="SourceGraphic" in2="effect1_dropShadow_110_602" result="shape"/>
</filter>
<filter id="filter7_d_110_602" x="307" y="447" width="126" height="206" filterUnits="userSpaceOnUse" color-interpolation-filters="sRGB">
<feFlood flood-opacity="0" result="BackgroundImageFix"/>
<feColorMatrix in="SourceAlpha" type="matrix" values="0 0 0 0 0 0 0 0 0 0 0 0 0 0 0 0 0 0 127 0" result="hardAlpha"/>
<feOffset dy="4"/>
<feGaussianBlur stdDeviation="2"/>
<feComposite in2="hardAlpha" operator="out"/>
<feColorMatrix type="matrix" values="0 0 0 0 0 0 0 0 0 0 0 0 0 0 0 0 0 0 0.25 0"/>
<feBlend mode="normal" in2="BackgroundImageFix" result="effect1_dropShadow_110_602"/>
<feBlend mode="normal" in="SourceGraphic" in2="effect1_dropShadow_110_602" result="shape"/>
</filter>
<filter id="filter8_d_110_602" x="525" y="401" width="126" height="206" filterUnits="userSpaceOnUse" color-interpolation-filters="sRGB">
<feFlood flood-opacity="0" result="BackgroundImageFix"/>
<feColorMatrix in="SourceAlpha" type="matrix" values="0 0 0 0 0 0 0 0 0 0 0 0 0 0 0 0 0 0 127 0" result="hardAlpha"/>
<feOffset dy="4"/>
<feGaussianBlur stdDeviation="2"/>
<feComposite in2="hardAlpha" operator="out"/>
<feColorMatrix type="matrix" values="0 0 0 0 0 0 0 0 0 0 0 0 0 0 0 0 0 0 0.25 0"/>
<feBlend mode="normal" in2="BackgroundImageFix" result="effect1_dropShadow_110_602"/>
<feBlend mode="normal" in="SourceGraphic" in2="effect1_dropShadow_110_602" result="shape"/>
</filter>
<filter id="filter9_d_110_602" x="169" y="447" width="126" height="206" filterUnits="userSpaceOnUse" color-interpolation-filters="sRGB">
<feFlood flood-opacity="0" result="BackgroundImageFix"/>
<feColorMatrix in="SourceAlpha" type="matrix" values="0 0 0 0 0 0 0 0 0 0 0 0 0 0 0 0 0 0 127 0" result="hardAlpha"/>
<feOffset dy="4"/>
<feGaussianBlur stdDeviation="2"/>
<feComposite in2="hardAlpha" operator="out"/>
<feColorMatrix type="matrix" values="0 0 0 0 0 0 0 0 0 0 0 0 0 0 0 0 0 0 0.25 0"/>
<feBlend mode="normal" in2="BackgroundImageFix" result="effect1_dropShadow_110_602"/>
<feBlend mode="normal" in="SourceGraphic" in2="effect1_dropShadow_110_602" result="shape"/>
</filter>
<filter id="filter10_d_110_602" x="445" y="447" width="126" height="206" filterUnits="userSpaceOnUse" color-interpolation-filters="sRGB">
<feFlood flood-opacity="0" result="BackgroundImageFix"/>
<feColorMatrix in="SourceAlpha" type="matrix" values="0 0 0 0 0 0 0 0 0 0 0 0 0 0 0 0 0 0 127 0" result="hardAlpha"/>
<feOffset dy="4"/>
<feGaussianBlur stdDeviation="2"/>
<feComposite in2="hardAlpha" operator="out"/>
<feColorMatrix type="matrix" values="0 0 0 0 0 0 0 0 0 0 0 0 0 0 0 0 0 0 0.25 0"/>
<feBlend mode="normal" in2="BackgroundImageFix" result="effect1_dropShadow_110_602"/>
<feBlend mode="normal" in="SourceGraphic" in2="effect1_dropShadow_110_602" result="shape"/>
</filter>
<filter id="filter11_d_110_602" x="583" y="447" width="126" height="206" filterUnits="userSpaceOnUse" color-interpolation-filters="sRGB">
<feFlood flood-opacity="0" result="BackgroundImageFix"/>
<feColorMatrix in="SourceAlpha" type="matrix" values="0 0 0 0 0 0 0 0 0 0 0 0 0 0 0 0 0 0 127 0" result="hardAlpha"/>
<feOffset dy="4"/>
<feGaussianBlur stdDeviation="2"/>
<feComposite in2="hardAlpha" operator="out"/>
<feColorMatrix type="matrix" values="0 0 0 0 0 0 0 0 0 0 0 0 0 0 0 0 0 0 0.25 0"/>
<feBlend mode="normal" in2="BackgroundImageFix" result="effect1_dropShadow_110_602"/>
<feBlend mode="normal" in="SourceGraphic" in2="effect1_dropShadow_110_602" result="shape"/>
</filter>
<clipPath id="clip0_110_602">
<rect width="1440" height="1024" fill="white"/>
</clipPath>
</defs>
</svg>
