<svg width="1440" height="1024" viewBox="0 0 1440 1024" fill="none" xmlns="http://www.w3.org/2000/svg">
<g id="split2-no" clip-path="url(#clip0_110_128)">
<rect width="1440" height="1024" fill="#333148"/>
<rect id="Rectangle 18" x="1227" width="85" height="512" fill="#201F2F"/>
<rect id="Rectangle 22" x="599" width="85" height="512" fill="#201F2F"/>
<rect id="Rectangle 20" x="913" width="85" height="512" fill="#201F2F"/>
<rect id="Rectangle 23" x="285" width="85" height="512" fill="#201F2F"/>
<rect id="Rectangle 19" x="1070" width="85" height="512" fill="#201F2F"/>
<rect id="Rectangle 24" x="442" width="85" height="512" fill="#201F2F"/>
<rect id="Rectangle 21" x="756" width="85" height="512" fill="#201F2F"/>
<rect id="Rectangle 25" x="128" width="85" height="512" fill="#201F2F"/>
<path id="part 3" d="M47.096 132.12V60.024H61.688L62.264 71.448L59.384 70.584C59.832 68.536 61.048 66.648 63.032 64.92C65.016 63.192 67.512 61.784 70.52 60.696C73.592 59.608 76.856 59.064 80.312 59.064C85.304 59.064 89.688 60.216 93.464 62.52C97.24 64.76 100.184 67.864 102.296 71.832C104.472 75.736 105.56 80.28 105.56 85.464C105.56 90.584 104.472 95.128 102.296 99.096C100.184 103.064 97.208 106.2 93.368 108.504C89.528 110.744 85.112 111.864 80.12 111.864C76.664 111.864 73.432 111.288 70.424 110.136C67.416 108.984 64.888 107.48 62.84 105.624C60.856 103.768 59.576 101.816 59 99.768L62.552 98.424V132.12H47.096ZM76.376 98.904C79.256 98.904 81.752 98.36 83.864 97.272C85.976 96.12 87.608 94.552 88.76 92.568C89.976 90.584 90.584 88.216 90.584 85.464C90.584 82.776 89.976 80.44 88.76 78.456C87.608 76.408 85.976 74.84 83.864 73.752C81.816 72.6 79.32 72.024 76.376 72.024C73.496 72.024 70.968 72.568 68.792 73.656C66.68 74.744 65.016 76.312 63.8 78.36C62.648 80.408 62.072 82.776 62.072 85.464C62.072 88.216 62.648 90.584 63.8 92.568C65.016 94.552 66.68 96.12 68.792 97.272C70.968 98.36 73.496 98.904 76.376 98.904ZM144.211 111.864C139.155 111.864 134.739 110.744 130.963 108.504C127.187 106.264 124.211 103.16 122.035 99.192C119.923 95.16 118.867 90.584 118.867 85.464C118.867 80.28 119.955 75.704 122.131 71.736C124.307 67.768 127.315 64.664 131.155 62.424C135.059 60.12 139.539 58.968 144.595 58.968C147.475 58.968 150.131 59.352 152.563 60.12C154.995 60.824 157.107 61.816 158.899 63.096C160.755 64.376 162.259 65.784 163.411 67.32C164.627 68.856 165.427 70.456 165.811 72.12H162.451V60.024H177.619V111H162.163V97.944L165.427 98.424C165.043 100.088 164.243 101.72 163.027 103.32C161.811 104.92 160.243 106.36 158.323 107.64C156.403 108.92 154.227 109.944 151.795 110.712C149.427 111.48 146.899 111.864 144.211 111.864ZM148.339 98.904C151.219 98.904 153.715 98.36 155.827 97.272C158.003 96.184 159.667 94.648 160.819 92.664C162.035 90.616 162.643 88.216 162.643 85.464C162.643 82.776 162.035 80.44 160.819 78.456C159.667 76.408 158.003 74.808 155.827 73.656C153.715 72.504 151.219 71.928 148.339 71.928C145.459 71.928 142.963 72.504 140.851 73.656C138.739 74.808 137.075 76.408 135.859 78.456C134.707 80.44 134.131 82.776 134.131 85.464C134.131 88.216 134.707 90.616 135.859 92.664C137.075 94.648 138.739 96.184 140.851 97.272C142.963 98.36 145.459 98.904 148.339 98.904ZM201.315 111V60.024H215.907L216.579 77.592L212.931 75.768C213.763 72.632 215.203 69.816 217.251 67.32C219.363 64.76 221.763 62.744 224.451 61.272C227.203 59.736 230.115 58.968 233.187 58.968C234.851 58.968 236.419 59.128 237.891 59.448C239.427 59.768 240.739 60.184 241.827 60.696L237.603 77.496C236.643 76.792 235.331 76.248 233.667 75.864C232.067 75.48 230.435 75.288 228.771 75.288C226.915 75.288 225.219 75.608 223.683 76.248C222.211 76.824 220.963 77.656 219.939 78.744C218.915 79.768 218.115 80.952 217.539 82.296C217.027 83.64 216.771 85.08 216.771 86.616V111H201.315ZM265.932 111V46.008H281.292V111H265.932ZM254.604 73.464V60.024H294.252V73.464H254.604ZM371.848 111.96C365.768 111.96 360.52 110.712 356.104 108.216C351.688 105.72 347.848 101.912 344.584 96.792L356.296 88.632C357.576 90.616 358.984 92.344 360.52 93.816C362.12 95.224 363.848 96.344 365.704 97.176C367.624 98.008 369.736 98.424 372.04 98.424C374.216 98.424 376.232 98.072 378.088 97.368C379.944 96.664 381.448 95.608 382.6 94.2C383.752 92.728 384.328 90.968 384.328 88.92C384.328 86.872 383.784 85.208 382.696 83.928C381.608 82.584 380.2 81.624 378.472 81.048C376.744 80.408 374.856 80.088 372.808 80.088C371.784 80.088 370.728 80.184 369.64 80.376C368.552 80.568 367.496 80.824 366.472 81.144C365.448 81.4 364.456 81.784 363.496 82.296L359.656 73.08L377.896 54.936L381.16 57.528L349.288 56.952V43.224H394.408L397.48 50.616L373.288 74.52L369.448 68.856C370.088 68.6 371.08 68.376 372.424 68.184C373.832 67.992 375.272 67.896 376.744 67.896C379.752 67.896 382.6 68.44 385.288 69.528C387.976 70.552 390.376 71.992 392.488 73.848C394.6 75.704 396.264 77.912 397.48 80.472C398.696 82.968 399.304 85.688 399.304 88.632C399.304 93.24 398.056 97.304 395.56 100.824C393.128 104.28 389.832 107 385.672 108.984C381.576 110.968 376.968 111.96 371.848 111.96Z" fill="white"/>
<rect id="Rectangle 7" y="462" width="1567" height="626" fill="#211F2F"/>
<g id="Group 4">
<g id="Vector" filter="url(#filter0_d_110_128)">
<path d="M169.246 465.996C174.515 442.672 207.714 442.672 212.983 465.996L221.541 503.874C224.712 517.912 214.05 531.267 199.672 531.267H182.557C168.179 531.267 157.517 517.912 160.688 503.874L169.246 465.996Z" fill="#3B5EC6"/>
<path d="M214.816 415.046C214.816 428.326 204.061 439.092 190.794 439.092C177.527 439.092 166.772 428.326 166.772 415.046C166.772 401.766 177.527 391 190.794 391C204.061 391 214.816 401.766 214.816 415.046Z" fill="#3B5EC6"/>
<path d="M195.599 519.565C195.599 513.013 200.904 507.702 207.45 507.702C213.995 507.702 219.3 513.013 219.3 519.565V547.137C219.3 553.689 213.995 559 207.45 559C200.904 559 195.599 553.689 195.599 547.137V519.565Z" fill="#3B5EC6"/>
<path d="M204.867 473.609C201.517 467.981 203.36 460.7 208.982 457.347C214.605 453.993 221.879 455.837 225.229 461.466L239.328 485.153C242.678 490.781 240.836 498.062 235.213 501.415C229.59 504.769 222.316 502.925 218.966 497.296L204.867 473.609Z" fill="#3B5EC6"/>
<path d="M156.362 461.548C159.635 455.874 166.883 453.93 172.551 457.206C178.219 460.482 180.161 467.737 176.889 473.411L163.116 497.289C159.844 502.963 152.596 504.907 146.927 501.631C141.259 498.355 139.317 491.1 142.59 485.427L156.362 461.548Z" fill="#3B5EC6"/>
<path d="M162.288 519.565C162.288 513.013 167.594 507.702 174.139 507.702C180.684 507.702 185.99 513.013 185.99 519.565V547.137C185.99 553.689 180.684 559 174.139 559C167.594 559 162.288 553.689 162.288 547.137V519.565Z" fill="#3B5EC6"/>
</g>
<g id="Vector_2" filter="url(#filter1_d_110_128)">
<path d="M403.528 465.996C408.85 442.672 442.381 442.672 447.703 465.996L456.346 503.874C459.549 517.912 448.78 531.267 434.259 531.267H416.972C402.451 531.267 391.682 517.912 394.885 503.874L403.528 465.996Z" fill="#3B5EC6"/>
<path d="M449.555 415.046C449.555 428.326 438.692 439.092 425.292 439.092C411.892 439.092 401.03 428.326 401.03 415.046C401.03 401.766 411.892 391 425.292 391C438.692 391 449.555 401.766 449.555 415.046Z" fill="#3B5EC6"/>
<path d="M430.145 519.565C430.145 513.013 435.504 507.702 442.114 507.702C448.725 507.702 454.083 513.013 454.083 519.565V547.137C454.083 553.689 448.725 559 442.114 559C435.504 559 430.145 553.689 430.145 547.137V519.565Z" fill="#3B5EC6"/>
<path d="M439.506 473.609C436.123 467.981 437.983 460.7 443.662 457.347C449.341 453.993 456.688 455.837 460.071 461.466L474.311 485.153C477.695 490.781 475.834 498.062 470.155 501.415C464.476 504.769 457.13 502.925 453.746 497.296L439.506 473.609Z" fill="#3B5EC6"/>
<path d="M390.516 461.548C393.821 455.874 401.142 453.93 406.867 457.206C412.591 460.482 414.553 467.737 411.248 473.411L397.337 497.289C394.032 502.963 386.712 504.907 380.987 501.631C375.262 498.355 373.3 491.1 376.606 485.427L390.516 461.548Z" fill="#3B5EC6"/>
<path d="M396.501 519.565C396.501 513.013 401.86 507.702 408.47 507.702C415.081 507.702 420.44 513.013 420.44 519.565V547.137C420.44 553.689 415.081 559 408.47 559C401.86 559 396.501 553.689 396.501 547.137V519.565Z" fill="#3B5EC6"/>
</g>
<g id="Vector_3" filter="url(#filter2_d_110_128)">
<path d="M286.528 465.996C291.85 442.672 325.381 442.672 330.703 465.996L339.346 503.874C342.549 517.912 331.78 531.267 317.259 531.267H299.972C285.451 531.267 274.682 517.912 277.885 503.874L286.528 465.996Z" fill="#3B5EC6"/>
<path d="M332.555 415.046C332.555 428.326 321.692 439.092 308.292 439.092C294.892 439.092 284.03 428.326 284.03 415.046C284.03 401.766 294.892 391 308.292 391C321.692 391 332.555 401.766 332.555 415.046Z" fill="#3B5EC6"/>
<path d="M313.145 519.565C313.145 513.013 318.504 507.702 325.114 507.702C331.725 507.702 337.083 513.013 337.083 519.565V547.137C337.083 553.689 331.725 559 325.114 559C318.504 559 313.145 553.689 313.145 547.137V519.565Z" fill="#3B5EC6"/>
<path d="M322.506 473.609C319.123 467.981 320.983 460.7 326.662 457.347C332.341 453.993 339.688 455.837 343.071 461.466L357.311 485.153C360.695 490.781 358.834 498.062 353.155 501.415C347.476 504.769 340.13 502.925 336.746 497.296L322.506 473.609Z" fill="#3B5EC6"/>
<path d="M273.516 461.548C276.821 455.874 284.142 453.93 289.867 457.206C295.591 460.482 297.553 467.737 294.248 473.411L280.337 497.289C277.032 502.963 269.712 504.907 263.987 501.631C258.262 498.355 256.3 491.1 259.606 485.427L273.516 461.548Z" fill="#3B5EC6"/>
<path d="M279.501 519.565C279.501 513.013 284.86 507.702 291.47 507.702C298.081 507.702 303.44 513.013 303.44 519.565V547.137C303.44 553.689 298.081 559 291.47 559C284.86 559 279.501 553.689 279.501 547.137V519.565Z" fill="#3B5EC6"/>
</g>
<g id="Vector_4" filter="url(#filter3_d_110_128)">
<path d="M521.246 465.996C526.515 442.672 559.714 442.672 564.983 465.996L573.541 503.874C576.712 517.912 566.05 531.267 551.672 531.267H534.557C520.179 531.267 509.517 517.912 512.688 503.874L521.246 465.996Z" fill="#3B5EC6"/>
<path d="M566.816 415.046C566.816 428.326 556.061 439.092 542.794 439.092C529.527 439.092 518.772 428.326 518.772 415.046C518.772 401.766 529.527 391 542.794 391C556.061 391 566.816 401.766 566.816 415.046Z" fill="#3B5EC6"/>
<path d="M547.599 519.565C547.599 513.013 552.904 507.702 559.45 507.702C565.995 507.702 571.3 513.013 571.3 519.565V547.137C571.3 553.689 565.995 559 559.45 559C552.904 559 547.599 553.689 547.599 547.137V519.565Z" fill="#3B5EC6"/>
<path d="M556.867 473.609C553.517 467.981 555.36 460.7 560.982 457.347C566.605 453.993 573.879 455.837 577.229 461.466L591.328 485.153C594.678 490.781 592.836 498.062 587.213 501.415C581.59 504.769 574.316 502.925 570.966 497.296L556.867 473.609Z" fill="#3B5EC6"/>
<path d="M508.362 461.548C511.635 455.874 518.883 453.93 524.551 457.206C530.219 460.482 532.161 467.737 528.889 473.411L515.116 497.289C511.844 502.963 504.596 504.907 498.927 501.631C493.259 498.355 491.317 491.1 494.59 485.427L508.362 461.548Z" fill="#3B5EC6"/>
<path d="M514.288 519.565C514.288 513.013 519.594 507.702 526.139 507.702C532.684 507.702 537.99 513.013 537.99 519.565V547.137C537.99 553.689 532.684 559 526.139 559C519.594 559 514.288 553.689 514.288 547.137V519.565Z" fill="#3B5EC6"/>
</g>
<g id="Vector_5" filter="url(#filter4_d_110_128)">
<path d="M68.3303 502.388C74.548 474.899 113.722 474.899 119.94 502.388L130.038 547.03C133.78 563.575 121.199 579.315 104.233 579.315H84.0371C67.0712 579.315 54.4901 563.575 58.2324 547.03L68.3303 502.388Z" fill="#6A94E0"/>
<path d="M122.103 442.34C122.103 457.991 109.412 470.679 93.7571 470.679C78.102 470.679 65.411 457.991 65.411 442.34C65.411 426.688 78.102 414 93.7571 414C109.412 414 122.103 426.688 122.103 442.34Z" fill="#6A94E0"/>
<path d="M99.4264 565.523C99.4264 557.801 105.687 551.542 113.41 551.542C121.134 551.542 127.395 557.801 127.395 565.523V598.019C127.395 605.741 121.134 612 113.41 612C105.687 612 99.4264 605.741 99.4264 598.019V565.523Z" fill="#6A94E0"/>
<path d="M110.364 511.361C106.41 504.728 108.584 496.146 115.219 492.194C121.854 488.242 130.437 490.416 134.39 497.049L151.027 524.966C154.98 531.599 152.806 540.18 146.171 544.132C139.537 548.085 130.953 545.911 127 539.278L110.364 511.361Z" fill="#6A94E0"/>
<path d="M53.1276 497.146C56.9892 490.459 65.5418 488.168 72.2303 492.029C78.9188 495.889 81.2104 504.44 77.3488 511.127L61.097 539.269C57.2354 545.956 48.6829 548.248 41.9944 544.387C35.3059 540.526 33.0142 531.975 36.8758 525.289L53.1276 497.146Z" fill="#6A94E0"/>
<path d="M60.1197 565.523C60.1197 557.801 66.3806 551.542 74.1038 551.542C81.827 551.542 88.0879 557.801 88.0879 565.523V598.019C88.0879 605.741 81.827 612 74.1038 612C66.3806 612 60.1197 605.741 60.1197 598.019V565.523Z" fill="#6A94E0"/>
</g>
<g id="Vector_6" filter="url(#filter5_d_110_128)">
<path d="M344.33 502.388C350.548 474.899 389.722 474.899 395.94 502.388L406.038 547.03C409.78 563.575 397.199 579.315 380.233 579.315H360.037C343.071 579.315 330.49 563.575 334.232 547.03L344.33 502.388Z" fill="#6A94E0"/>
<path d="M398.103 442.34C398.103 457.991 385.412 470.679 369.757 470.679C354.102 470.679 341.411 457.991 341.411 442.34C341.411 426.688 354.102 414 369.757 414C385.412 414 398.103 426.688 398.103 442.34Z" fill="#6A94E0"/>
<path d="M375.426 565.523C375.426 557.801 381.687 551.542 389.41 551.542C397.134 551.542 403.395 557.801 403.395 565.523V598.019C403.395 605.741 397.134 612 389.41 612C381.687 612 375.426 605.741 375.426 598.019V565.523Z" fill="#6A94E0"/>
<path d="M386.364 511.361C382.41 504.728 384.584 496.146 391.219 492.194C397.854 488.242 406.437 490.416 410.39 497.049L427.027 524.966C430.98 531.599 428.806 540.18 422.171 544.132C415.537 548.085 406.953 545.911 403 539.278L386.364 511.361Z" fill="#6A94E0"/>
<path d="M329.128 497.146C332.989 490.459 341.542 488.168 348.23 492.029C354.919 495.889 357.21 504.44 353.349 511.127L337.097 539.269C333.235 545.956 324.683 548.248 317.994 544.387C311.306 540.526 309.014 531.975 312.876 525.289L329.128 497.146Z" fill="#6A94E0"/>
<path d="M336.12 565.523C336.12 557.801 342.381 551.542 350.104 551.542C357.827 551.542 364.088 557.801 364.088 565.523V598.019C364.088 605.741 357.827 612 350.104 612C342.381 612 336.12 605.741 336.12 598.019V565.523Z" fill="#6A94E0"/>
</g>
<g id="Vector_7" filter="url(#filter6_d_110_128)">
<path d="M206.33 502.388C212.548 474.899 251.722 474.899 257.94 502.388L268.038 547.03C271.78 563.575 259.199 579.315 242.233 579.315H222.037C205.071 579.315 192.49 563.575 196.232 547.03L206.33 502.388Z" fill="#6A94E0"/>
<path d="M260.103 442.34C260.103 457.991 247.412 470.679 231.757 470.679C216.102 470.679 203.411 457.991 203.411 442.34C203.411 426.688 216.102 414 231.757 414C247.412 414 260.103 426.688 260.103 442.34Z" fill="#6A94E0"/>
<path d="M237.426 565.523C237.426 557.801 243.687 551.542 251.41 551.542C259.134 551.542 265.395 557.801 265.395 565.523V598.019C265.395 605.741 259.134 612 251.41 612C243.687 612 237.426 605.741 237.426 598.019V565.523Z" fill="#6A94E0"/>
<path d="M248.364 511.361C244.41 504.728 246.584 496.146 253.219 492.194C259.854 488.242 268.437 490.416 272.39 497.049L289.027 524.966C292.98 531.599 290.806 540.18 284.171 544.132C277.537 548.085 268.953 545.911 265 539.278L248.364 511.361Z" fill="#6A94E0"/>
<path d="M191.128 497.146C194.989 490.459 203.542 488.168 210.23 492.029C216.919 495.889 219.21 504.44 215.349 511.127L199.097 539.269C195.235 545.956 186.683 548.248 179.994 544.387C173.306 540.526 171.014 531.975 174.876 525.289L191.128 497.146Z" fill="#6A94E0"/>
<path d="M198.12 565.523C198.12 557.801 204.381 551.542 212.104 551.542C219.827 551.542 226.088 557.801 226.088 565.523V598.019C226.088 605.741 219.827 612 212.104 612C204.381 612 198.12 605.741 198.12 598.019V565.523Z" fill="#6A94E0"/>
</g>
<g id="Vector_8" filter="url(#filter7_d_110_128)">
<path d="M264.33 548.388C270.548 520.899 309.722 520.899 315.94 548.388L326.038 593.03C329.78 609.575 317.199 625.315 300.233 625.315H280.037C263.071 625.315 250.49 609.575 254.232 593.03L264.33 548.388Z" fill="#8DBBFB"/>
<path d="M318.103 488.34C318.103 503.991 305.412 516.679 289.757 516.679C274.102 516.679 261.411 503.991 261.411 488.34C261.411 472.688 274.102 460 289.757 460C305.412 460 318.103 472.688 318.103 488.34Z" fill="#8DBBFB"/>
<path d="M295.426 611.523C295.426 603.801 301.687 597.542 309.41 597.542C317.134 597.542 323.395 603.801 323.395 611.523V644.019C323.395 651.741 317.134 658 309.41 658C301.687 658 295.426 651.741 295.426 644.019V611.523Z" fill="#8DBBFB"/>
<path d="M306.364 557.361C302.41 550.728 304.584 542.146 311.219 538.194C317.854 534.242 326.437 536.416 330.39 543.049L347.027 570.966C350.98 577.599 348.806 586.18 342.171 590.132C335.537 594.085 326.953 591.911 323 585.278L306.364 557.361Z" fill="#8DBBFB"/>
<path d="M249.128 543.146C252.989 536.459 261.542 534.168 268.23 538.029C274.919 541.889 277.21 550.44 273.349 557.127L257.097 585.269C253.235 591.956 244.683 594.248 237.994 590.387C231.306 586.526 229.014 577.975 232.876 571.289L249.128 543.146Z" fill="#8DBBFB"/>
<path d="M256.12 611.523C256.12 603.801 262.381 597.542 270.104 597.542C277.827 597.542 284.088 603.801 284.088 611.523V644.019C284.088 651.741 277.827 658 270.104 658C262.381 658 256.12 651.741 256.12 644.019V611.523Z" fill="#8DBBFB"/>
</g>
<g id="Vector_9" filter="url(#filter8_d_110_128)">
<path d="M482.33 502.388C488.548 474.899 527.722 474.899 533.94 502.388L544.038 547.03C547.78 563.575 535.199 579.315 518.233 579.315H498.037C481.071 579.315 468.49 563.575 472.232 547.03L482.33 502.388Z" fill="#6A94E0"/>
<path d="M536.103 442.34C536.103 457.991 523.412 470.679 507.757 470.679C492.102 470.679 479.411 457.991 479.411 442.34C479.411 426.688 492.102 414 507.757 414C523.412 414 536.103 426.688 536.103 442.34Z" fill="#6A94E0"/>
<path d="M513.426 565.523C513.426 557.801 519.687 551.542 527.41 551.542C535.134 551.542 541.395 557.801 541.395 565.523V598.019C541.395 605.741 535.134 612 527.41 612C519.687 612 513.426 605.741 513.426 598.019V565.523Z" fill="#6A94E0"/>
<path d="M524.364 511.361C520.41 504.728 522.584 496.146 529.219 492.194C535.854 488.242 544.437 490.416 548.39 497.049L565.027 524.966C568.98 531.599 566.806 540.18 560.171 544.132C553.537 548.085 544.953 545.911 541 539.278L524.364 511.361Z" fill="#6A94E0"/>
<path d="M467.128 497.146C470.989 490.459 479.542 488.168 486.23 492.029C492.919 495.889 495.21 504.44 491.349 511.127L475.097 539.269C471.235 545.956 462.683 548.248 455.994 544.387C449.306 540.526 447.014 531.975 450.876 525.289L467.128 497.146Z" fill="#6A94E0"/>
<path d="M474.12 565.523C474.12 557.801 480.381 551.542 488.104 551.542C495.827 551.542 502.088 557.801 502.088 565.523V598.019C502.088 605.741 495.827 612 488.104 612C480.381 612 474.12 605.741 474.12 598.019V565.523Z" fill="#6A94E0"/>
</g>
<g id="Vector_10" filter="url(#filter9_d_110_128)">
<path d="M126.33 548.388C132.548 520.899 171.722 520.899 177.94 548.388L188.038 593.03C191.78 609.575 179.199 625.315 162.233 625.315H142.037C125.071 625.315 112.49 609.575 116.232 593.03L126.33 548.388Z" fill="#8DBBFB"/>
<path d="M180.103 488.34C180.103 503.991 167.412 516.679 151.757 516.679C136.102 516.679 123.411 503.991 123.411 488.34C123.411 472.688 136.102 460 151.757 460C167.412 460 180.103 472.688 180.103 488.34Z" fill="#8DBBFB"/>
<path d="M157.426 611.523C157.426 603.801 163.687 597.542 171.41 597.542C179.134 597.542 185.395 603.801 185.395 611.523V644.019C185.395 651.741 179.134 658 171.41 658C163.687 658 157.426 651.741 157.426 644.019V611.523Z" fill="#8DBBFB"/>
<path d="M168.364 557.361C164.41 550.728 166.584 542.146 173.219 538.194C179.854 534.242 188.437 536.416 192.39 543.049L209.027 570.966C212.98 577.599 210.806 586.18 204.171 590.132C197.537 594.085 188.953 591.911 185 585.278L168.364 557.361Z" fill="#8DBBFB"/>
<path d="M111.128 543.146C114.989 536.459 123.542 534.168 130.23 538.029C136.919 541.889 139.21 550.44 135.349 557.127L119.097 585.269C115.235 591.956 106.683 594.248 99.9944 590.387C93.3059 586.526 91.0142 577.975 94.8758 571.289L111.128 543.146Z" fill="#8DBBFB"/>
<path d="M118.12 611.523C118.12 603.801 124.381 597.542 132.104 597.542C139.827 597.542 146.088 603.801 146.088 611.523V644.019C146.088 651.741 139.827 658 132.104 658C124.381 658 118.12 651.741 118.12 644.019V611.523Z" fill="#8DBBFB"/>
</g>
<g id="Vector_11" filter="url(#filter10_d_110_128)">
<path d="M402.33 548.388C408.548 520.899 447.722 520.899 453.94 548.388L464.038 593.03C467.78 609.575 455.199 625.315 438.233 625.315H418.037C401.071 625.315 388.49 609.575 392.232 593.03L402.33 548.388Z" fill="#8DBBFB"/>
<path d="M456.103 488.34C456.103 503.991 443.412 516.679 427.757 516.679C412.102 516.679 399.411 503.991 399.411 488.34C399.411 472.688 412.102 460 427.757 460C443.412 460 456.103 472.688 456.103 488.34Z" fill="#8DBBFB"/>
<path d="M433.426 611.523C433.426 603.801 439.687 597.542 447.41 597.542C455.134 597.542 461.395 603.801 461.395 611.523V644.019C461.395 651.741 455.134 658 447.41 658C439.687 658 433.426 651.741 433.426 644.019V611.523Z" fill="#8DBBFB"/>
<path d="M444.364 557.361C440.41 550.728 442.584 542.146 449.219 538.194C455.854 534.242 464.437 536.416 468.39 543.049L485.027 570.966C488.98 577.599 486.806 586.18 480.171 590.132C473.537 594.085 464.953 591.911 461 585.278L444.364 557.361Z" fill="#8DBBFB"/>
<path d="M387.128 543.146C390.989 536.459 399.542 534.168 406.23 538.029C412.919 541.889 415.21 550.44 411.349 557.127L395.097 585.269C391.235 591.956 382.683 594.248 375.994 590.387C369.306 586.526 367.014 577.975 370.876 571.289L387.128 543.146Z" fill="#8DBBFB"/>
<path d="M394.12 611.523C394.12 603.801 400.381 597.542 408.104 597.542C415.827 597.542 422.088 603.801 422.088 611.523V644.019C422.088 651.741 415.827 658 408.104 658C400.381 658 394.12 651.741 394.12 644.019V611.523Z" fill="#8DBBFB"/>
</g>
<g id="Vector_12" filter="url(#filter11_d_110_128)">
<path d="M540.33 548.388C546.548 520.899 585.722 520.899 591.94 548.388L602.038 593.03C605.78 609.575 593.199 625.315 576.233 625.315H556.037C539.071 625.315 526.49 609.575 530.232 593.03L540.33 548.388Z" fill="#8DBBFB"/>
<path d="M594.103 488.34C594.103 503.991 581.412 516.679 565.757 516.679C550.102 516.679 537.411 503.991 537.411 488.34C537.411 472.688 550.102 460 565.757 460C581.412 460 594.103 472.688 594.103 488.34Z" fill="#8DBBFB"/>
<path d="M571.426 611.523C571.426 603.801 577.687 597.542 585.41 597.542C593.134 597.542 599.395 603.801 599.395 611.523V644.019C599.395 651.741 593.134 658 585.41 658C577.687 658 571.426 651.741 571.426 644.019V611.523Z" fill="#8DBBFB"/>
<path d="M582.364 557.361C578.41 550.728 580.584 542.146 587.219 538.194C593.854 534.242 602.437 536.416 606.39 543.049L623.027 570.966C626.98 577.599 624.806 586.18 618.171 590.132C611.537 594.085 602.953 591.911 599 585.278L582.364 557.361Z" fill="#8DBBFB"/>
<path d="M525.128 543.146C528.989 536.459 537.542 534.168 544.23 538.029C550.919 541.889 553.21 550.44 549.349 557.127L533.097 585.269C529.235 591.956 520.683 594.248 513.994 590.387C507.306 586.526 505.014 577.975 508.876 571.289L525.128 543.146Z" fill="#8DBBFB"/>
<path d="M532.12 611.523C532.12 603.801 538.381 597.542 546.104 597.542C553.827 597.542 560.088 603.801 560.088 611.523V644.019C560.088 651.741 553.827 658 546.104 658C538.381 658 532.12 651.741 532.12 644.019V611.523Z" fill="#8DBBFB"/>
</g>
</g>
<g id="Group 5">
<g id="Vector_13" filter="url(#filter12_d_110_128)">
<path d="M890.246 465.996C895.515 442.672 928.714 442.672 933.983 465.996L942.541 503.874C945.712 517.912 935.05 531.267 920.672 531.267H903.557C889.179 531.267 878.517 517.912 881.688 503.874L890.246 465.996Z" fill="#83C63B"/>
<path d="M935.816 415.046C935.816 428.326 925.061 439.092 911.794 439.092C898.527 439.092 887.772 428.326 887.772 415.046C887.772 401.766 898.527 391 911.794 391C925.061 391 935.816 401.766 935.816 415.046Z" fill="#83C63B"/>
<path d="M916.599 519.565C916.599 513.013 921.904 507.702 928.45 507.702C934.995 507.702 940.3 513.013 940.3 519.565V547.137C940.3 553.689 934.995 559 928.45 559C921.904 559 916.599 553.689 916.599 547.137V519.565Z" fill="#83C63B"/>
<path d="M925.867 473.609C922.517 467.981 924.36 460.7 929.982 457.347C935.605 453.993 942.879 455.837 946.229 461.466L960.328 485.153C963.678 490.781 961.836 498.062 956.213 501.415C950.59 504.769 943.316 502.925 939.966 497.296L925.867 473.609Z" fill="#83C63B"/>
<path d="M877.362 461.548C880.635 455.874 887.883 453.93 893.551 457.206C899.219 460.482 901.161 467.737 897.889 473.411L884.116 497.289C880.844 502.963 873.596 504.907 867.927 501.631C862.259 498.355 860.317 491.1 863.59 485.427L877.362 461.548Z" fill="#83C63B"/>
<path d="M883.288 519.565C883.288 513.013 888.594 507.702 895.139 507.702C901.684 507.702 906.99 513.013 906.99 519.565V547.137C906.99 553.689 901.684 559 895.139 559C888.594 559 883.288 553.689 883.288 547.137V519.565Z" fill="#83C63B"/>
</g>
<g id="Vector_14" filter="url(#filter13_d_110_128)">
<path d="M1124.53 465.996C1129.85 442.672 1163.38 442.672 1168.7 465.996L1177.35 503.874C1180.55 517.912 1169.78 531.267 1155.26 531.267H1137.97C1123.45 531.267 1112.68 517.912 1115.89 503.874L1124.53 465.996Z" fill="#83C63B"/>
<path d="M1170.55 415.046C1170.55 428.326 1159.69 439.092 1146.29 439.092C1132.89 439.092 1122.03 428.326 1122.03 415.046C1122.03 401.766 1132.89 391 1146.29 391C1159.69 391 1170.55 401.766 1170.55 415.046Z" fill="#83C63B"/>
<path d="M1151.14 519.565C1151.14 513.013 1156.5 507.702 1163.11 507.702C1169.72 507.702 1175.08 513.013 1175.08 519.565V547.137C1175.08 553.689 1169.72 559 1163.11 559C1156.5 559 1151.14 553.689 1151.14 547.137V519.565Z" fill="#83C63B"/>
<path d="M1160.51 473.609C1157.12 467.981 1158.98 460.7 1164.66 457.347C1170.34 453.993 1177.69 455.837 1181.07 461.466L1195.31 485.153C1198.69 490.781 1196.83 498.062 1191.16 501.415C1185.48 504.769 1178.13 502.925 1174.75 497.296L1160.51 473.609Z" fill="#83C63B"/>
<path d="M1111.52 461.548C1114.82 455.874 1122.14 453.93 1127.87 457.206C1133.59 460.482 1135.55 467.737 1132.25 473.411L1118.34 497.289C1115.03 502.963 1107.71 504.907 1101.99 501.631C1096.26 498.355 1094.3 491.1 1097.61 485.427L1111.52 461.548Z" fill="#83C63B"/>
<path d="M1117.5 519.565C1117.5 513.013 1122.86 507.702 1129.47 507.702C1136.08 507.702 1141.44 513.013 1141.44 519.565V547.137C1141.44 553.689 1136.08 559 1129.47 559C1122.86 559 1117.5 553.689 1117.5 547.137V519.565Z" fill="#83C63B"/>
</g>
<g id="Vector_15" filter="url(#filter14_d_110_128)">
<path d="M1007.53 465.996C1012.85 442.672 1046.38 442.672 1051.7 465.996L1060.35 503.874C1063.55 517.912 1052.78 531.267 1038.26 531.267H1020.97C1006.45 531.267 995.682 517.912 998.885 503.874L1007.53 465.996Z" fill="#83C63B"/>
<path d="M1053.55 415.046C1053.55 428.326 1042.69 439.092 1029.29 439.092C1015.89 439.092 1005.03 428.326 1005.03 415.046C1005.03 401.766 1015.89 391 1029.29 391C1042.69 391 1053.55 401.766 1053.55 415.046Z" fill="#83C63B"/>
<path d="M1034.14 519.565C1034.14 513.013 1039.5 507.702 1046.11 507.702C1052.72 507.702 1058.08 513.013 1058.08 519.565V547.137C1058.08 553.689 1052.72 559 1046.11 559C1039.5 559 1034.14 553.689 1034.14 547.137V519.565Z" fill="#83C63B"/>
<path d="M1043.51 473.609C1040.12 467.981 1041.98 460.7 1047.66 457.347C1053.34 453.993 1060.69 455.837 1064.07 461.466L1078.31 485.153C1081.69 490.781 1079.83 498.062 1074.16 501.415C1068.48 504.769 1061.13 502.925 1057.75 497.296L1043.51 473.609Z" fill="#83C63B"/>
<path d="M994.516 461.548C997.821 455.874 1005.14 453.93 1010.87 457.206C1016.59 460.482 1018.55 467.737 1015.25 473.411L1001.34 497.289C998.032 502.963 990.712 504.907 984.987 501.631C979.262 498.355 977.3 491.1 980.606 485.427L994.516 461.548Z" fill="#83C63B"/>
<path d="M1000.5 519.565C1000.5 513.013 1005.86 507.702 1012.47 507.702C1019.08 507.702 1024.44 513.013 1024.44 519.565V547.137C1024.44 553.689 1019.08 559 1012.47 559C1005.86 559 1000.5 553.689 1000.5 547.137V519.565Z" fill="#83C63B"/>
</g>
<g id="Vector_16" filter="url(#filter15_d_110_128)">
<path d="M1242.25 465.996C1247.52 442.672 1280.71 442.672 1285.98 465.996L1294.54 503.874C1297.71 517.912 1287.05 531.267 1272.67 531.267H1255.56C1241.18 531.267 1230.52 517.912 1233.69 503.874L1242.25 465.996Z" fill="#83C63B"/>
<path d="M1287.82 415.046C1287.82 428.326 1277.06 439.092 1263.79 439.092C1250.53 439.092 1239.77 428.326 1239.77 415.046C1239.77 401.766 1250.53 391 1263.79 391C1277.06 391 1287.82 401.766 1287.82 415.046Z" fill="#83C63B"/>
<path d="M1268.6 519.565C1268.6 513.013 1273.9 507.702 1280.45 507.702C1286.99 507.702 1292.3 513.013 1292.3 519.565V547.137C1292.3 553.689 1286.99 559 1280.45 559C1273.9 559 1268.6 553.689 1268.6 547.137V519.565Z" fill="#83C63B"/>
<path d="M1277.87 473.609C1274.52 467.981 1276.36 460.7 1281.98 457.347C1287.61 453.993 1294.88 455.837 1298.23 461.466L1312.33 485.153C1315.68 490.781 1313.84 498.062 1308.21 501.415C1302.59 504.769 1295.32 502.925 1291.97 497.296L1277.87 473.609Z" fill="#83C63B"/>
<path d="M1229.36 461.548C1232.63 455.874 1239.88 453.93 1245.55 457.206C1251.22 460.482 1253.16 467.737 1249.89 473.411L1236.12 497.289C1232.84 502.963 1225.6 504.907 1219.93 501.631C1214.26 498.355 1212.32 491.1 1215.59 485.427L1229.36 461.548Z" fill="#83C63B"/>
<path d="M1235.29 519.565C1235.29 513.013 1240.59 507.702 1247.14 507.702C1253.68 507.702 1258.99 513.013 1258.99 519.565V547.137C1258.99 553.689 1253.68 559 1247.14 559C1240.59 559 1235.29 553.689 1235.29 547.137V519.565Z" fill="#83C63B"/>
</g>
<g id="Vector_17" filter="url(#filter16_d_110_128)">
<path d="M789.33 502.388C795.548 474.899 834.722 474.899 840.94 502.388L851.038 547.03C854.78 563.575 842.199 579.315 825.233 579.315H805.037C788.071 579.315 775.49 563.575 779.232 547.03L789.33 502.388Z" fill="#7CE06A"/>
<path d="M843.103 442.34C843.103 457.991 830.412 470.679 814.757 470.679C799.102 470.679 786.411 457.991 786.411 442.34C786.411 426.688 799.102 414 814.757 414C830.412 414 843.103 426.688 843.103 442.34Z" fill="#7CE06A"/>
<path d="M820.426 565.523C820.426 557.801 826.687 551.542 834.41 551.542C842.134 551.542 848.395 557.801 848.395 565.523V598.019C848.395 605.741 842.134 612 834.41 612C826.687 612 820.426 605.741 820.426 598.019V565.523Z" fill="#7CE06A"/>
<path d="M831.364 511.361C827.41 504.728 829.584 496.146 836.219 492.194C842.854 488.242 851.437 490.416 855.39 497.049L872.027 524.966C875.98 531.599 873.806 540.18 867.171 544.132C860.537 548.085 851.953 545.911 848 539.278L831.364 511.361Z" fill="#7CE06A"/>
<path d="M774.128 497.146C777.989 490.459 786.542 488.168 793.23 492.029C799.919 495.889 802.21 504.44 798.349 511.127L782.097 539.269C778.235 545.956 769.683 548.248 762.994 544.387C756.306 540.526 754.014 531.975 757.876 525.289L774.128 497.146Z" fill="#7CE06A"/>
<path d="M781.12 565.523C781.12 557.801 787.381 551.542 795.104 551.542C802.827 551.542 809.088 557.801 809.088 565.523V598.019C809.088 605.741 802.827 612 795.104 612C787.381 612 781.12 605.741 781.12 598.019V565.523Z" fill="#7CE06A"/>
</g>
<g id="Vector_18" filter="url(#filter17_d_110_128)">
<path d="M1065.33 502.388C1071.55 474.899 1110.72 474.899 1116.94 502.388L1127.04 547.03C1130.78 563.575 1118.2 579.315 1101.23 579.315H1081.04C1064.07 579.315 1051.49 563.575 1055.23 547.03L1065.33 502.388Z" fill="#7CE06A"/>
<path d="M1119.1 442.34C1119.1 457.991 1106.41 470.679 1090.76 470.679C1075.1 470.679 1062.41 457.991 1062.41 442.34C1062.41 426.688 1075.1 414 1090.76 414C1106.41 414 1119.1 426.688 1119.1 442.34Z" fill="#7CE06A"/>
<path d="M1096.43 565.523C1096.43 557.801 1102.69 551.542 1110.41 551.542C1118.13 551.542 1124.39 557.801 1124.39 565.523V598.019C1124.39 605.741 1118.13 612 1110.41 612C1102.69 612 1096.43 605.741 1096.43 598.019V565.523Z" fill="#7CE06A"/>
<path d="M1107.36 511.361C1103.41 504.728 1105.58 496.146 1112.22 492.194C1118.85 488.242 1127.44 490.416 1131.39 497.049L1148.03 524.966C1151.98 531.599 1149.81 540.18 1143.17 544.132C1136.54 548.085 1127.95 545.911 1124 539.278L1107.36 511.361Z" fill="#7CE06A"/>
<path d="M1050.13 497.146C1053.99 490.459 1062.54 488.168 1069.23 492.029C1075.92 495.889 1078.21 504.44 1074.35 511.127L1058.1 539.269C1054.24 545.956 1045.68 548.248 1038.99 544.387C1032.31 540.526 1030.01 531.975 1033.88 525.289L1050.13 497.146Z" fill="#7CE06A"/>
<path d="M1057.12 565.523C1057.12 557.801 1063.38 551.542 1071.1 551.542C1078.83 551.542 1085.09 557.801 1085.09 565.523V598.019C1085.09 605.741 1078.83 612 1071.1 612C1063.38 612 1057.12 605.741 1057.12 598.019V565.523Z" fill="#7CE06A"/>
</g>
<g id="Vector_19" filter="url(#filter18_d_110_128)">
<path d="M927.33 502.388C933.548 474.899 972.722 474.899 978.94 502.388L989.038 547.03C992.78 563.575 980.199 579.315 963.233 579.315H943.037C926.071 579.315 913.49 563.575 917.232 547.03L927.33 502.388Z" fill="#7CE06A"/>
<path d="M981.103 442.34C981.103 457.991 968.412 470.679 952.757 470.679C937.102 470.679 924.411 457.991 924.411 442.34C924.411 426.688 937.102 414 952.757 414C968.412 414 981.103 426.688 981.103 442.34Z" fill="#7CE06A"/>
<path d="M958.426 565.523C958.426 557.801 964.687 551.542 972.41 551.542C980.134 551.542 986.395 557.801 986.395 565.523V598.019C986.395 605.741 980.134 612 972.41 612C964.687 612 958.426 605.741 958.426 598.019V565.523Z" fill="#7CE06A"/>
<path d="M969.364 511.361C965.41 504.728 967.584 496.146 974.219 492.194C980.854 488.242 989.437 490.416 993.39 497.049L1010.03 524.966C1013.98 531.599 1011.81 540.18 1005.17 544.132C998.537 548.085 989.953 545.911 986 539.278L969.364 511.361Z" fill="#7CE06A"/>
<path d="M912.128 497.146C915.989 490.459 924.542 488.168 931.23 492.029C937.919 495.889 940.21 504.44 936.349 511.127L920.097 539.269C916.235 545.956 907.683 548.248 900.994 544.387C894.306 540.526 892.014 531.975 895.876 525.289L912.128 497.146Z" fill="#7CE06A"/>
<path d="M919.12 565.523C919.12 557.801 925.381 551.542 933.104 551.542C940.827 551.542 947.088 557.801 947.088 565.523V598.019C947.088 605.741 940.827 612 933.104 612C925.381 612 919.12 605.741 919.12 598.019V565.523Z" fill="#7CE06A"/>
</g>
<g id="Vector_20" filter="url(#filter19_d_110_128)">
<path d="M985.33 548.388C991.548 520.899 1030.72 520.899 1036.94 548.388L1047.04 593.03C1050.78 609.575 1038.2 625.315 1021.23 625.315H1001.04C984.071 625.315 971.49 609.575 975.232 593.03L985.33 548.388Z" fill="#9DFB8D"/>
<path d="M1039.1 488.34C1039.1 503.991 1026.41 516.679 1010.76 516.679C995.102 516.679 982.411 503.991 982.411 488.34C982.411 472.688 995.102 460 1010.76 460C1026.41 460 1039.1 472.688 1039.1 488.34Z" fill="#9DFB8D"/>
<path d="M1016.43 611.523C1016.43 603.801 1022.69 597.542 1030.41 597.542C1038.13 597.542 1044.39 603.801 1044.39 611.523V644.019C1044.39 651.741 1038.13 658 1030.41 658C1022.69 658 1016.43 651.741 1016.43 644.019V611.523Z" fill="#9DFB8D"/>
<path d="M1027.36 557.361C1023.41 550.728 1025.58 542.146 1032.22 538.194C1038.85 534.242 1047.44 536.416 1051.39 543.049L1068.03 570.966C1071.98 577.599 1069.81 586.18 1063.17 590.132C1056.54 594.085 1047.95 591.911 1044 585.278L1027.36 557.361Z" fill="#9DFB8D"/>
<path d="M970.128 543.146C973.989 536.459 982.542 534.168 989.23 538.029C995.919 541.889 998.21 550.44 994.349 557.127L978.097 585.269C974.235 591.956 965.683 594.248 958.994 590.387C952.306 586.526 950.014 577.975 953.876 571.289L970.128 543.146Z" fill="#9DFB8D"/>
<path d="M977.12 611.523C977.12 603.801 983.381 597.542 991.104 597.542C998.827 597.542 1005.09 603.801 1005.09 611.523V644.019C1005.09 651.741 998.827 658 991.104 658C983.381 658 977.12 651.741 977.12 644.019V611.523Z" fill="#9DFB8D"/>
</g>
<g id="Vector_21" filter="url(#filter20_d_110_128)">
<path d="M1203.33 502.388C1209.55 474.899 1248.72 474.899 1254.94 502.388L1265.04 547.03C1268.78 563.575 1256.2 579.315 1239.23 579.315H1219.04C1202.07 579.315 1189.49 563.575 1193.23 547.03L1203.33 502.388Z" fill="#7CE06A"/>
<path d="M1257.1 442.34C1257.1 457.991 1244.41 470.679 1228.76 470.679C1213.1 470.679 1200.41 457.991 1200.41 442.34C1200.41 426.688 1213.1 414 1228.76 414C1244.41 414 1257.1 426.688 1257.1 442.34Z" fill="#7CE06A"/>
<path d="M1234.43 565.523C1234.43 557.801 1240.69 551.542 1248.41 551.542C1256.13 551.542 1262.39 557.801 1262.39 565.523V598.019C1262.39 605.741 1256.13 612 1248.41 612C1240.69 612 1234.43 605.741 1234.43 598.019V565.523Z" fill="#7CE06A"/>
<path d="M1245.36 511.361C1241.41 504.728 1243.58 496.146 1250.22 492.194C1256.85 488.242 1265.44 490.416 1269.39 497.049L1286.03 524.966C1289.98 531.599 1287.81 540.18 1281.17 544.132C1274.54 548.085 1265.95 545.911 1262 539.278L1245.36 511.361Z" fill="#7CE06A"/>
<path d="M1188.13 497.146C1191.99 490.459 1200.54 488.168 1207.23 492.029C1213.92 495.889 1216.21 504.44 1212.35 511.127L1196.1 539.269C1192.24 545.956 1183.68 548.248 1176.99 544.387C1170.31 540.526 1168.01 531.975 1171.88 525.289L1188.13 497.146Z" fill="#7CE06A"/>
<path d="M1195.12 565.523C1195.12 557.801 1201.38 551.542 1209.1 551.542C1216.83 551.542 1223.09 557.801 1223.09 565.523V598.019C1223.09 605.741 1216.83 612 1209.1 612C1201.38 612 1195.12 605.741 1195.12 598.019V565.523Z" fill="#7CE06A"/>
</g>
<g id="Vector_22" filter="url(#filter21_d_110_128)">
<path d="M847.33 548.388C853.548 520.899 892.722 520.899 898.94 548.388L909.038 593.03C912.78 609.575 900.199 625.315 883.233 625.315H863.037C846.071 625.315 833.49 609.575 837.232 593.03L847.33 548.388Z" fill="#9DFB8D"/>
<path d="M901.103 488.34C901.103 503.991 888.412 516.679 872.757 516.679C857.102 516.679 844.411 503.991 844.411 488.34C844.411 472.688 857.102 460 872.757 460C888.412 460 901.103 472.688 901.103 488.34Z" fill="#9DFB8D"/>
<path d="M878.426 611.523C878.426 603.801 884.687 597.542 892.41 597.542C900.134 597.542 906.395 603.801 906.395 611.523V644.019C906.395 651.741 900.134 658 892.41 658C884.687 658 878.426 651.741 878.426 644.019V611.523Z" fill="#9DFB8D"/>
<path d="M889.364 557.361C885.41 550.728 887.584 542.146 894.219 538.194C900.854 534.242 909.437 536.416 913.39 543.049L930.027 570.966C933.98 577.599 931.806 586.18 925.171 590.132C918.537 594.085 909.953 591.911 906 585.278L889.364 557.361Z" fill="#9DFB8D"/>
<path d="M832.128 543.146C835.989 536.459 844.542 534.168 851.23 538.029C857.919 541.889 860.21 550.44 856.349 557.127L840.097 585.269C836.235 591.956 827.683 594.248 820.994 590.387C814.306 586.526 812.014 577.975 815.876 571.289L832.128 543.146Z" fill="#9DFB8D"/>
<path d="M839.12 611.523C839.12 603.801 845.381 597.542 853.104 597.542C860.827 597.542 867.088 603.801 867.088 611.523V644.019C867.088 651.741 860.827 658 853.104 658C845.381 658 839.12 651.741 839.12 644.019V611.523Z" fill="#9DFB8D"/>
</g>
<g id="Vector_23" filter="url(#filter22_d_110_128)">
<path d="M1123.33 548.388C1129.55 520.899 1168.72 520.899 1174.94 548.388L1185.04 593.03C1188.78 609.575 1176.2 625.315 1159.23 625.315H1139.04C1122.07 625.315 1109.49 609.575 1113.23 593.03L1123.33 548.388Z" fill="#9DFB8D"/>
<path d="M1177.1 488.34C1177.1 503.991 1164.41 516.679 1148.76 516.679C1133.1 516.679 1120.41 503.991 1120.41 488.34C1120.41 472.688 1133.1 460 1148.76 460C1164.41 460 1177.1 472.688 1177.1 488.34Z" fill="#9DFB8D"/>
<path d="M1154.43 611.523C1154.43 603.801 1160.69 597.542 1168.41 597.542C1176.13 597.542 1182.39 603.801 1182.39 611.523V644.019C1182.39 651.741 1176.13 658 1168.41 658C1160.69 658 1154.43 651.741 1154.43 644.019V611.523Z" fill="#9DFB8D"/>
<path d="M1165.36 557.361C1161.41 550.728 1163.58 542.146 1170.22 538.194C1176.85 534.242 1185.44 536.416 1189.39 543.049L1206.03 570.966C1209.98 577.599 1207.81 586.18 1201.17 590.132C1194.54 594.085 1185.95 591.911 1182 585.278L1165.36 557.361Z" fill="#9DFB8D"/>
<path d="M1108.13 543.146C1111.99 536.459 1120.54 534.168 1127.23 538.029C1133.92 541.889 1136.21 550.44 1132.35 557.127L1116.1 585.269C1112.24 591.956 1103.68 594.248 1096.99 590.387C1090.31 586.526 1088.01 577.975 1091.88 571.289L1108.13 543.146Z" fill="#9DFB8D"/>
<path d="M1115.12 611.523C1115.12 603.801 1121.38 597.542 1129.1 597.542C1136.83 597.542 1143.09 603.801 1143.09 611.523V644.019C1143.09 651.741 1136.83 658 1129.1 658C1121.38 658 1115.12 651.741 1115.12 644.019V611.523Z" fill="#9DFB8D"/>
</g>
<g id="Vector_24" filter="url(#filter23_d_110_128)">
<path d="M1261.33 548.388C1267.55 520.899 1306.72 520.899 1312.94 548.388L1323.04 593.03C1326.78 609.575 1314.2 625.315 1297.23 625.315H1277.04C1260.07 625.315 1247.49 609.575 1251.23 593.03L1261.33 548.388Z" fill="#9DFB8D"/>
<path d="M1315.1 488.34C1315.1 503.991 1302.41 516.679 1286.76 516.679C1271.1 516.679 1258.41 503.991 1258.41 488.34C1258.41 472.688 1271.1 460 1286.76 460C1302.41 460 1315.1 472.688 1315.1 488.34Z" fill="#9DFB8D"/>
<path d="M1292.43 611.523C1292.43 603.801 1298.69 597.542 1306.41 597.542C1314.13 597.542 1320.39 603.801 1320.39 611.523V644.019C1320.39 651.741 1314.13 658 1306.41 658C1298.69 658 1292.43 651.741 1292.43 644.019V611.523Z" fill="#9DFB8D"/>
<path d="M1303.36 557.361C1299.41 550.728 1301.58 542.146 1308.22 538.194C1314.85 534.242 1323.44 536.416 1327.39 543.049L1344.03 570.966C1347.98 577.599 1345.81 586.18 1339.17 590.132C1332.54 594.085 1323.95 591.911 1320 585.278L1303.36 557.361Z" fill="#9DFB8D"/>
<path d="M1246.13 543.146C1249.99 536.459 1258.54 534.168 1265.23 538.029C1271.92 541.889 1274.21 550.44 1270.35 557.127L1254.1 585.269C1250.24 591.956 1241.68 594.248 1234.99 590.387C1228.31 586.526 1226.01 577.975 1229.88 571.289L1246.13 543.146Z" fill="#9DFB8D"/>
<path d="M1253.12 611.523C1253.12 603.801 1259.38 597.542 1267.1 597.542C1274.83 597.542 1281.09 603.801 1281.09 611.523V644.019C1281.09 651.741 1274.83 658 1267.1 658C1259.38 658 1253.12 651.741 1253.12 644.019V611.523Z" fill="#9DFB8D"/>
</g>
</g>
<path id="glad you guys came in time" d="M778.371 270.28C776.475 270.28 774.711 270.04 773.079 269.56C771.471 269.104 770.151 268.528 769.119 267.832L771.099 263.728C771.627 264.016 772.215 264.292 772.863 264.556C773.535 264.82 774.267 265.036 775.059 265.204C775.851 265.396 776.715 265.492 777.651 265.492C778.875 265.492 779.907 265.288 780.747 264.88C781.611 264.472 782.259 263.848 782.691 263.008C783.147 262.192 783.375 261.184 783.375 259.984V257.356L784.491 257.536C784.299 258.304 783.819 259.012 783.051 259.66C782.283 260.308 781.323 260.836 780.171 261.244C779.019 261.652 777.795 261.856 776.499 261.856C774.603 261.856 772.935 261.46 771.495 260.668C770.055 259.852 768.915 258.736 768.075 257.32C767.259 255.88 766.851 254.224 766.851 252.352C766.851 250.432 767.271 248.74 768.111 247.276C768.951 245.788 770.103 244.624 771.567 243.784C773.031 242.92 774.723 242.488 776.643 242.488C777.291 242.488 777.963 242.572 778.659 242.74C779.379 242.884 780.075 243.088 780.747 243.352C781.443 243.592 782.067 243.904 782.619 244.288C783.195 244.648 783.663 245.056 784.023 245.512C784.407 245.944 784.623 246.412 784.671 246.916L783.483 247.204L783.735 242.884H789.171V259.876C789.171 261.58 788.895 263.068 788.343 264.34C787.815 265.636 787.071 266.728 786.111 267.616C785.151 268.504 783.999 269.164 782.655 269.596C781.335 270.052 779.907 270.28 778.371 270.28ZM778.155 257.392C779.235 257.392 780.183 257.188 780.999 256.78C781.815 256.348 782.439 255.76 782.871 255.016C783.327 254.272 783.555 253.396 783.555 252.388C783.555 251.38 783.327 250.504 782.871 249.76C782.439 248.992 781.815 248.404 780.999 247.996C780.183 247.564 779.235 247.348 778.155 247.348C777.027 247.348 776.043 247.564 775.203 247.996C774.363 248.404 773.715 248.992 773.259 249.76C772.803 250.504 772.575 251.38 772.575 252.388C772.575 253.396 772.803 254.272 773.259 255.016C773.715 255.76 774.363 256.348 775.203 256.78C776.043 257.188 777.027 257.392 778.155 257.392ZM797.974 262V235.36H803.734V262H797.974ZM819.837 262.324C817.941 262.324 816.285 261.904 814.869 261.064C813.453 260.224 812.337 259.06 811.521 257.572C810.729 256.06 810.333 254.344 810.333 252.424C810.333 250.48 810.741 248.764 811.557 247.276C812.373 245.788 813.501 244.624 814.941 243.784C816.405 242.92 818.085 242.488 819.981 242.488C821.061 242.488 822.057 242.632 822.969 242.92C823.881 243.184 824.673 243.556 825.345 244.036C826.041 244.516 826.605 245.044 827.037 245.62C827.493 246.196 827.793 246.796 827.937 247.42H826.677V242.884H832.365V262H826.569V257.104L827.793 257.284C827.649 257.908 827.349 258.52 826.893 259.12C826.437 259.72 825.849 260.26 825.129 260.74C824.409 261.22 823.593 261.604 822.681 261.892C821.793 262.18 820.845 262.324 819.837 262.324ZM821.385 257.464C822.465 257.464 823.401 257.26 824.193 256.852C825.009 256.444 825.633 255.868 826.065 255.124C826.521 254.356 826.749 253.456 826.749 252.424C826.749 251.416 826.521 250.54 826.065 249.796C825.633 249.028 825.009 248.428 824.193 247.996C823.401 247.564 822.465 247.348 821.385 247.348C820.305 247.348 819.369 247.564 818.577 247.996C817.785 248.428 817.161 249.028 816.705 249.796C816.273 250.54 816.057 251.416 816.057 252.424C816.057 253.456 816.273 254.356 816.705 255.124C817.161 255.868 817.785 256.444 818.577 256.852C819.369 257.26 820.305 257.464 821.385 257.464ZM848.523 262.396C846.651 262.396 845.007 261.976 843.591 261.136C842.175 260.272 841.071 259.096 840.279 257.608C839.487 256.096 839.091 254.38 839.091 252.46C839.091 250.54 839.499 248.836 840.315 247.348C841.131 245.836 842.259 244.648 843.699 243.784C845.163 242.92 846.843 242.488 848.739 242.488C849.795 242.488 850.779 242.632 851.691 242.92C852.603 243.184 853.419 243.544 854.139 244C854.883 244.456 855.471 244.984 855.903 245.584C856.359 246.16 856.623 246.748 856.695 247.348L855.327 247.672V235.36H861.123V262H855.759L855.435 257.356L856.587 257.644C856.515 258.244 856.251 258.832 855.795 259.408C855.339 259.96 854.739 260.464 853.995 260.92C853.275 261.352 852.447 261.712 851.511 262C850.575 262.264 849.579 262.396 848.523 262.396ZM850.143 257.536C851.223 257.536 852.159 257.32 852.951 256.888C853.767 256.456 854.391 255.868 854.823 255.124C855.255 254.356 855.471 253.468 855.471 252.46C855.471 251.428 855.255 250.54 854.823 249.796C854.391 249.028 853.767 248.44 852.951 248.032C852.159 247.6 851.223 247.384 850.143 247.384C849.063 247.384 848.127 247.6 847.335 248.032C846.543 248.44 845.919 249.028 845.463 249.796C845.031 250.54 844.815 251.428 844.815 252.46C844.815 253.468 845.031 254.356 845.463 255.124C845.919 255.868 846.543 256.456 847.335 256.888C848.127 257.32 849.063 257.536 850.143 257.536ZM886.376 270.28L891.38 260.02L891.272 262.936L881.12 242.884H887.708L892.352 252.82C892.688 253.492 893 254.176 893.288 254.872C893.576 255.544 893.804 256.216 893.972 256.888L892.892 257.176C893.108 256.648 893.36 256.024 893.648 255.304C893.936 254.584 894.236 253.852 894.548 253.108L898.832 242.884H905.42L896.06 262.072L892.208 270.28H886.376ZM920.788 262.36C918.556 262.36 916.576 261.928 914.848 261.064C913.12 260.2 911.764 259.024 910.78 257.536C909.796 256.048 909.304 254.344 909.304 252.424C909.304 250.504 909.796 248.8 910.78 247.312C911.764 245.824 913.12 244.648 914.848 243.784C916.576 242.92 918.556 242.488 920.788 242.488C922.996 242.488 924.952 242.92 926.656 243.784C928.384 244.648 929.74 245.824 930.724 247.312C931.708 248.8 932.2 250.504 932.2 252.424C932.2 254.344 931.708 256.048 930.724 257.536C929.74 259.024 928.384 260.2 926.656 261.064C924.952 261.928 922.996 262.36 920.788 262.36ZM920.788 257.392C921.82 257.392 922.756 257.176 923.596 256.744C924.46 256.312 925.132 255.724 925.612 254.98C926.116 254.236 926.356 253.384 926.332 252.424C926.356 251.464 926.116 250.6 925.612 249.832C925.132 249.064 924.46 248.476 923.596 248.068C922.756 247.636 921.82 247.42 920.788 247.42C919.732 247.42 918.76 247.636 917.872 248.068C917.008 248.5 916.336 249.088 915.856 249.832C915.376 250.576 915.136 251.44 915.136 252.424C915.136 253.384 915.376 254.236 915.856 254.98C916.336 255.724 917.008 256.312 917.872 256.744C918.76 257.176 919.732 257.392 920.788 257.392ZM946.465 262.396C944.929 262.396 943.597 262.06 942.469 261.388C941.365 260.716 940.513 259.744 939.913 258.472C939.313 257.176 939.013 255.628 939.013 253.828V242.884H944.773V252.892C944.773 253.876 944.905 254.704 945.169 255.376C945.457 256.048 945.901 256.564 946.501 256.924C947.101 257.26 947.833 257.428 948.697 257.428C949.321 257.428 949.897 257.332 950.425 257.14C950.953 256.924 951.421 256.636 951.829 256.276C952.237 255.892 952.549 255.46 952.765 254.98C953.005 254.476 953.125 253.912 953.125 253.288V242.884H958.885V262H953.485L953.233 258.076L954.277 257.644C954.013 258.484 953.509 259.264 952.765 259.984C952.021 260.704 951.109 261.292 950.029 261.748C948.973 262.18 947.785 262.396 946.465 262.396ZM991.945 270.28C990.049 270.28 988.285 270.04 986.653 269.56C985.045 269.104 983.725 268.528 982.693 267.832L984.673 263.728C985.201 264.016 985.789 264.292 986.437 264.556C987.109 264.82 987.841 265.036 988.633 265.204C989.425 265.396 990.289 265.492 991.225 265.492C992.449 265.492 993.481 265.288 994.321 264.88C995.185 264.472 995.833 263.848 996.265 263.008C996.721 262.192 996.949 261.184 996.949 259.984V257.356L998.065 257.536C997.873 258.304 997.393 259.012 996.625 259.66C995.857 260.308 994.897 260.836 993.745 261.244C992.593 261.652 991.369 261.856 990.073 261.856C988.177 261.856 986.509 261.46 985.069 260.668C983.629 259.852 982.489 258.736 981.649 257.32C980.833 255.88 980.425 254.224 980.425 252.352C980.425 250.432 980.845 248.74 981.685 247.276C982.525 245.788 983.677 244.624 985.141 243.784C986.605 242.92 988.297 242.488 990.217 242.488C990.865 242.488 991.537 242.572 992.233 242.74C992.953 242.884 993.649 243.088 994.321 243.352C995.017 243.592 995.641 243.904 996.193 244.288C996.769 244.648 997.237 245.056 997.597 245.512C997.981 245.944 998.197 246.412 998.245 246.916L997.057 247.204L997.309 242.884H1002.74V259.876C1002.74 261.58 1002.47 263.068 1001.92 264.34C1001.39 265.636 1000.64 266.728 999.685 267.616C998.725 268.504 997.573 269.164 996.229 269.596C994.909 270.052 993.481 270.28 991.945 270.28ZM991.729 257.392C992.809 257.392 993.757 257.188 994.573 256.78C995.389 256.348 996.013 255.76 996.445 255.016C996.901 254.272 997.129 253.396 997.129 252.388C997.129 251.38 996.901 250.504 996.445 249.76C996.013 248.992 995.389 248.404 994.573 247.996C993.757 247.564 992.809 247.348 991.729 247.348C990.601 247.348 989.617 247.564 988.777 247.996C987.937 248.404 987.289 248.992 986.833 249.76C986.377 250.504 986.149 251.38 986.149 252.388C986.149 253.396 986.377 254.272 986.833 255.016C987.289 255.76 987.937 256.348 988.777 256.78C989.617 257.188 990.601 257.392 991.729 257.392ZM1018.39 262.396C1016.86 262.396 1015.53 262.06 1014.4 261.388C1013.29 260.716 1012.44 259.744 1011.84 258.472C1011.24 257.176 1010.94 255.628 1010.94 253.828V242.884H1016.7V252.892C1016.7 253.876 1016.83 254.704 1017.1 255.376C1017.39 256.048 1017.83 256.564 1018.43 256.924C1019.03 257.26 1019.76 257.428 1020.63 257.428C1021.25 257.428 1021.83 257.332 1022.35 257.14C1022.88 256.924 1023.35 256.636 1023.76 256.276C1024.17 255.892 1024.48 255.46 1024.69 254.98C1024.93 254.476 1025.05 253.912 1025.05 253.288V242.884H1030.81V262H1025.41L1025.16 258.076L1026.21 257.644C1025.94 258.484 1025.44 259.264 1024.69 259.984C1023.95 260.704 1023.04 261.292 1021.96 261.748C1020.9 262.18 1019.71 262.396 1018.39 262.396ZM1042.12 270.28L1047.12 260.02L1047.01 262.936L1036.86 242.884H1043.45L1048.09 252.82C1048.43 253.492 1048.74 254.176 1049.03 254.872C1049.32 255.544 1049.55 256.216 1049.71 256.888L1048.63 257.176C1048.85 256.648 1049.1 256.024 1049.39 255.304C1049.68 254.584 1049.98 253.852 1050.29 253.108L1054.57 242.884H1061.16L1051.8 262.072L1047.95 270.28H1042.12ZM1074.23 262.36C1072.11 262.36 1070.22 262.06 1068.54 261.46C1066.88 260.86 1065.55 260.008 1064.54 258.904L1068.03 255.808C1068.85 256.576 1069.82 257.164 1070.95 257.572C1072.08 257.98 1073.27 258.184 1074.51 258.184C1074.9 258.184 1075.27 258.148 1075.63 258.076C1076.01 258.004 1076.34 257.908 1076.6 257.788C1076.89 257.644 1077.12 257.476 1077.29 257.284C1077.45 257.092 1077.54 256.852 1077.54 256.564C1077.54 256.108 1077.25 255.748 1076.67 255.484C1076.27 255.34 1075.75 255.196 1075.13 255.052C1074.5 254.908 1073.79 254.752 1073 254.584C1071.68 254.344 1070.52 254.056 1069.51 253.72C1068.53 253.36 1067.7 252.916 1067.03 252.388C1066.45 251.884 1066.01 251.308 1065.69 250.66C1065.38 250.012 1065.23 249.256 1065.23 248.392C1065.23 247.504 1065.45 246.7 1065.91 245.98C1066.37 245.236 1067 244.612 1067.82 244.108C1068.63 243.58 1069.57 243.184 1070.63 242.92C1071.68 242.632 1072.79 242.488 1073.94 242.488C1075.09 242.488 1076.22 242.608 1077.32 242.848C1078.43 243.064 1079.47 243.388 1080.45 243.82C1081.44 244.228 1082.3 244.756 1083.05 245.404L1080.09 248.86C1079.57 248.452 1078.95 248.08 1078.26 247.744C1077.56 247.408 1076.82 247.144 1076.03 246.952C1075.26 246.736 1074.5 246.628 1073.76 246.628C1073.35 246.628 1072.95 246.652 1072.57 246.7C1072.21 246.748 1071.9 246.844 1071.63 246.988C1071.37 247.108 1071.15 247.264 1070.99 247.456C1070.84 247.624 1070.77 247.84 1070.77 248.104C1070.77 248.32 1070.83 248.524 1070.95 248.716C1071.07 248.908 1071.25 249.064 1071.49 249.184C1071.83 249.4 1072.32 249.592 1072.97 249.76C1073.64 249.928 1074.48 250.108 1075.49 250.3C1076.95 250.612 1078.2 250.972 1079.23 251.38C1080.26 251.764 1081.09 252.232 1081.71 252.784C1082.22 253.168 1082.59 253.648 1082.83 254.224C1083.07 254.776 1083.19 255.388 1083.19 256.06C1083.19 257.284 1082.79 258.376 1082 259.336C1081.23 260.272 1080.18 261.016 1078.83 261.568C1077.51 262.096 1075.98 262.36 1074.23 262.36ZM1113.22 262.36C1111.11 262.36 1109.23 261.928 1107.6 261.064C1105.97 260.2 1104.69 259.024 1103.75 257.536C1102.81 256.024 1102.35 254.32 1102.35 252.424C1102.35 250.528 1102.81 248.836 1103.75 247.348C1104.69 245.836 1105.96 244.648 1107.57 243.784C1109.17 242.92 1111 242.488 1113.04 242.488C1114.98 242.488 1116.76 242.788 1118.37 243.388C1119.97 243.964 1121.28 244.78 1122.29 245.836L1119.16 249.796C1118.73 249.388 1118.21 249.004 1117.61 248.644C1117.01 248.284 1116.36 248.008 1115.67 247.816C1114.99 247.6 1114.3 247.492 1113.58 247.492C1112.47 247.492 1111.5 247.708 1110.66 248.14C1109.85 248.548 1109.21 249.124 1108.75 249.868C1108.32 250.612 1108.11 251.464 1108.11 252.424C1108.11 253.336 1108.33 254.164 1108.79 254.908C1109.25 255.652 1109.88 256.24 1110.7 256.672C1111.51 257.104 1112.46 257.32 1113.54 257.32C1114.41 257.32 1115.17 257.236 1115.85 257.068C1116.52 256.9 1117.13 256.672 1117.68 256.384C1118.26 256.072 1118.75 255.724 1119.16 255.34L1122.29 259.264C1121.21 260.176 1119.89 260.92 1118.33 261.496C1116.77 262.072 1115.07 262.36 1113.22 262.36ZM1136.28 262.324C1134.38 262.324 1132.73 261.904 1131.31 261.064C1129.89 260.224 1128.78 259.06 1127.96 257.572C1127.17 256.06 1126.77 254.344 1126.77 252.424C1126.77 250.48 1127.18 248.764 1128 247.276C1128.81 245.788 1129.94 244.624 1131.38 243.784C1132.85 242.92 1134.53 242.488 1136.42 242.488C1137.5 242.488 1138.5 242.632 1139.41 242.92C1140.32 243.184 1141.11 243.556 1141.79 244.036C1142.48 244.516 1143.05 245.044 1143.48 245.62C1143.93 246.196 1144.23 246.796 1144.38 247.42H1143.12V242.884H1148.81V262H1143.01V257.104L1144.23 257.284C1144.09 257.908 1143.79 258.52 1143.33 259.12C1142.88 259.72 1142.29 260.26 1141.57 260.74C1140.85 261.22 1140.03 261.604 1139.12 261.892C1138.23 262.18 1137.29 262.324 1136.28 262.324ZM1137.83 257.464C1138.91 257.464 1139.84 257.26 1140.63 256.852C1141.45 256.444 1142.07 255.868 1142.51 255.124C1142.96 254.356 1143.19 253.456 1143.19 252.424C1143.19 251.416 1142.96 250.54 1142.51 249.796C1142.07 249.028 1141.45 248.428 1140.63 247.996C1139.84 247.564 1138.91 247.348 1137.83 247.348C1136.75 247.348 1135.81 247.564 1135.02 247.996C1134.23 248.428 1133.6 249.028 1133.15 249.796C1132.71 250.54 1132.5 251.416 1132.5 252.424C1132.5 253.456 1132.71 254.356 1133.15 255.124C1133.6 255.868 1134.23 256.444 1135.02 256.852C1135.81 257.26 1136.75 257.464 1137.83 257.464ZM1157.55 262V242.884H1163.02L1163.2 246.916L1162.16 246.664C1162.47 246.088 1162.88 245.548 1163.38 245.044C1163.91 244.54 1164.5 244.108 1165.14 243.748C1165.82 243.364 1166.54 243.064 1167.3 242.848C1168.07 242.632 1168.9 242.524 1169.79 242.524C1170.82 242.524 1171.77 242.68 1172.63 242.992C1173.52 243.304 1174.28 243.82 1174.9 244.54C1175.52 245.236 1176 246.172 1176.34 247.348L1175.15 247.204L1175.44 246.628C1175.82 246.076 1176.28 245.56 1176.81 245.08C1177.36 244.576 1177.98 244.144 1178.68 243.784C1179.38 243.4 1180.12 243.1 1180.91 242.884C1181.7 242.644 1182.52 242.524 1183.36 242.524C1185.11 242.524 1186.54 242.86 1187.64 243.532C1188.75 244.18 1189.56 245.104 1190.09 246.304C1190.62 247.504 1190.88 248.896 1190.88 250.48V262H1185.09V251.092C1185.09 250.324 1184.97 249.664 1184.73 249.112C1184.49 248.56 1184.12 248.14 1183.61 247.852C1183.13 247.54 1182.51 247.384 1181.74 247.384C1181.07 247.384 1180.44 247.492 1179.87 247.708C1179.32 247.924 1178.82 248.224 1178.39 248.608C1177.98 248.968 1177.66 249.4 1177.42 249.904C1177.2 250.384 1177.1 250.912 1177.1 251.488V262H1171.3V251.056C1171.3 250.312 1171.17 249.664 1170.9 249.112C1170.64 248.56 1170.23 248.14 1169.68 247.852C1169.13 247.54 1168.44 247.384 1167.63 247.384C1166.98 247.384 1166.39 247.504 1165.86 247.744C1165.36 247.96 1164.92 248.26 1164.53 248.644C1164.15 249.004 1163.85 249.4 1163.63 249.832C1163.44 250.264 1163.34 250.708 1163.34 251.164V262H1157.55ZM1209.03 262.36C1206.7 262.36 1204.66 261.94 1202.91 261.1C1201.18 260.236 1199.84 259.072 1198.88 257.608C1197.92 256.12 1197.44 254.428 1197.44 252.532C1197.44 251.02 1197.71 249.652 1198.27 248.428C1198.82 247.204 1199.59 246.148 1200.57 245.26C1201.55 244.372 1202.71 243.688 1204.03 243.208C1205.35 242.728 1206.77 242.488 1208.31 242.488C1209.8 242.488 1211.17 242.728 1212.41 243.208C1213.66 243.664 1214.74 244.324 1215.65 245.188C1216.59 246.052 1217.31 247.072 1217.81 248.248C1218.32 249.424 1218.55 250.72 1218.5 252.136L1218.46 253.756H1201.22L1200.39 250.408H1213.78L1213.17 251.128V250.408C1213.1 249.808 1212.83 249.268 1212.38 248.788C1211.95 248.308 1211.38 247.936 1210.69 247.672C1209.99 247.384 1209.22 247.24 1208.38 247.24C1207.3 247.24 1206.34 247.42 1205.5 247.78C1204.66 248.116 1204 248.644 1203.52 249.364C1203.07 250.084 1202.84 250.996 1202.84 252.1C1202.84 253.156 1203.11 254.08 1203.67 254.872C1204.24 255.664 1205.05 256.288 1206.08 256.744C1207.13 257.2 1208.37 257.428 1209.79 257.428C1211.01 257.428 1212.03 257.284 1212.85 256.996C1213.69 256.684 1214.44 256.3 1215.11 255.844L1217.71 259.588C1216.91 260.188 1216.04 260.704 1215.08 261.136C1214.14 261.544 1213.16 261.844 1212.13 262.036C1211.12 262.252 1210.09 262.36 1209.03 262.36ZM1240.42 262V242.884H1246.22V262H1240.42ZM1243.3 238.96C1242.22 238.96 1241.38 238.708 1240.78 238.204C1240.18 237.676 1239.88 236.932 1239.88 235.972C1239.88 235.108 1240.18 234.4 1240.78 233.848C1241.41 233.296 1242.25 233.02 1243.3 233.02C1244.38 233.02 1245.22 233.284 1245.82 233.812C1246.42 234.316 1246.72 235.036 1246.72 235.972C1246.72 236.86 1246.41 237.58 1245.79 238.132C1245.19 238.684 1244.36 238.96 1243.3 238.96ZM1255.53 262V242.884H1261L1261.18 247.348L1259.82 247.744C1260.13 246.808 1260.66 245.944 1261.4 245.152C1262.17 244.36 1263.09 243.724 1264.17 243.244C1265.28 242.74 1266.46 242.488 1267.74 242.488C1269.37 242.488 1270.75 242.812 1271.88 243.46C1273 244.108 1273.86 245.032 1274.43 246.232C1275.01 247.408 1275.3 248.812 1275.3 250.444V262H1269.5V251.272C1269.5 250.432 1269.34 249.724 1269.03 249.148C1268.74 248.572 1268.3 248.128 1267.7 247.816C1267.12 247.504 1266.45 247.348 1265.68 247.348C1265.01 247.348 1264.4 247.468 1263.85 247.708C1263.32 247.924 1262.86 248.224 1262.48 248.608C1262.1 248.968 1261.8 249.376 1261.58 249.832C1261.39 250.288 1261.29 250.756 1261.29 251.236V262H1258.45C1257.66 262 1257.02 262 1256.54 262C1256.06 262 1255.72 262 1255.53 262ZM1300.47 262V237.628H1306.23V262H1300.47ZM1296.22 247.924V242.884H1311.09V247.924H1296.22ZM1318.47 262V242.884H1324.26V262H1318.47ZM1321.35 238.96C1320.27 238.96 1319.43 238.708 1318.83 238.204C1318.23 237.676 1317.93 236.932 1317.93 235.972C1317.93 235.108 1318.23 234.4 1318.83 233.848C1319.45 233.296 1320.29 233.02 1321.35 233.02C1322.43 233.02 1323.27 233.284 1323.87 233.812C1324.47 234.316 1324.77 235.036 1324.77 235.972C1324.77 236.86 1324.46 237.58 1323.83 238.132C1323.23 238.684 1322.4 238.96 1321.35 238.96ZM1333.43 262V242.884H1338.91L1339.09 246.916L1338.04 246.664C1338.35 246.088 1338.76 245.548 1339.27 245.044C1339.79 244.54 1340.38 244.108 1341.03 243.748C1341.7 243.364 1342.42 243.064 1343.19 242.848C1343.96 242.632 1344.79 242.524 1345.67 242.524C1346.71 242.524 1347.65 242.68 1348.52 242.992C1349.41 243.304 1350.16 243.82 1350.79 244.54C1351.41 245.236 1351.89 246.172 1352.23 247.348L1351.04 247.204L1351.33 246.628C1351.71 246.076 1352.17 245.56 1352.69 245.08C1353.25 244.576 1353.87 244.144 1354.57 243.784C1355.26 243.4 1356.01 243.1 1356.8 242.884C1357.59 242.644 1358.41 242.524 1359.25 242.524C1361 242.524 1362.43 242.86 1363.53 243.532C1364.63 244.18 1365.45 245.104 1365.98 246.304C1366.51 247.504 1366.77 248.896 1366.77 250.48V262H1360.97V251.092C1360.97 250.324 1360.85 249.664 1360.61 249.112C1360.37 248.56 1360 248.14 1359.5 247.852C1359.02 247.54 1358.39 247.384 1357.63 247.384C1356.95 247.384 1356.33 247.492 1355.75 247.708C1355.2 247.924 1354.71 248.224 1354.28 248.608C1353.87 248.968 1353.55 249.4 1353.31 249.904C1353.09 250.384 1352.98 250.912 1352.98 251.488V262H1347.19V251.056C1347.19 250.312 1347.05 249.664 1346.79 249.112C1346.53 248.56 1346.12 248.14 1345.57 247.852C1345.01 247.54 1344.33 247.384 1343.51 247.384C1342.87 247.384 1342.28 247.504 1341.75 247.744C1341.25 247.96 1340.8 248.26 1340.42 248.644C1340.03 249.004 1339.73 249.4 1339.52 249.832C1339.33 250.264 1339.23 250.708 1339.23 251.164V262H1333.43ZM1384.92 262.36C1382.59 262.36 1380.55 261.94 1378.8 261.1C1377.07 260.236 1375.73 259.072 1374.77 257.608C1373.81 256.12 1373.33 254.428 1373.33 252.532C1373.33 251.02 1373.6 249.652 1374.15 248.428C1374.71 247.204 1375.47 246.148 1376.46 245.26C1377.44 244.372 1378.59 243.688 1379.91 243.208C1381.23 242.728 1382.66 242.488 1384.2 242.488C1385.69 242.488 1387.05 242.728 1388.3 243.208C1389.55 243.664 1390.63 244.324 1391.54 245.188C1392.48 246.052 1393.2 247.072 1393.7 248.248C1394.21 249.424 1394.43 250.72 1394.39 252.136L1394.35 253.756H1377.11L1376.28 250.408H1389.67L1389.06 251.128V250.408C1388.99 249.808 1388.72 249.268 1388.27 248.788C1387.83 248.308 1387.27 247.936 1386.57 247.672C1385.88 247.384 1385.11 247.24 1384.27 247.24C1383.19 247.24 1382.23 247.42 1381.39 247.78C1380.55 248.116 1379.89 248.644 1379.41 249.364C1378.95 250.084 1378.73 250.996 1378.73 252.1C1378.73 253.156 1379 254.08 1379.55 254.872C1380.13 255.664 1380.93 256.288 1381.97 256.744C1383.02 257.2 1384.26 257.428 1385.67 257.428C1386.9 257.428 1387.92 257.284 1388.73 256.996C1389.57 256.684 1390.33 256.3 1391 255.844L1393.59 259.588C1392.8 260.188 1391.93 260.704 1390.97 261.136C1390.03 261.544 1389.05 261.844 1388.01 262.036C1387.01 262.252 1385.97 262.36 1384.92 262.36Z" fill="white"/>
<g id="next">
<g id="Next">
<path id="Next_2" d="M1102.81 902V857.2H1112.79L1139.86 889.2L1138.01 888.88C1137.75 887.387 1137.56 885.957 1137.43 884.592C1137.3 883.227 1137.18 881.904 1137.05 880.624C1136.96 879.344 1136.88 878.064 1136.79 876.784C1136.75 875.504 1136.73 874.16 1136.73 872.752C1136.73 871.344 1136.73 869.851 1136.73 868.272V857.2H1147.29V902H1137.18L1109.08 868.976L1112.09 869.424C1112.22 870.917 1112.34 872.261 1112.47 873.456C1112.64 874.651 1112.77 875.781 1112.86 876.848C1112.98 877.872 1113.07 878.917 1113.11 879.984C1113.2 881.008 1113.26 882.096 1113.3 883.248C1113.35 884.4 1113.37 885.659 1113.37 887.024V902H1102.81ZM1179.89 902.64C1175.76 902.64 1172.13 901.893 1169.01 900.4C1165.94 898.864 1163.55 896.795 1161.85 894.192C1160.14 891.547 1159.29 888.539 1159.29 885.168C1159.29 882.48 1159.78 880.048 1160.76 877.872C1161.74 875.696 1163.11 873.819 1164.85 872.24C1166.6 870.661 1168.65 869.445 1171 868.592C1173.35 867.739 1175.88 867.312 1178.61 867.312C1181.26 867.312 1183.69 867.739 1185.91 868.592C1188.13 869.403 1190.05 870.576 1191.67 872.112C1193.33 873.648 1194.61 875.461 1195.51 877.552C1196.41 879.643 1196.81 881.947 1196.73 884.464L1196.66 887.344H1166.01L1164.53 881.392H1188.34L1187.25 882.672V881.392C1187.13 880.325 1186.66 879.365 1185.85 878.512C1185.08 877.659 1184.08 876.997 1182.84 876.528C1181.6 876.016 1180.24 875.76 1178.74 875.76C1176.82 875.76 1175.12 876.08 1173.62 876.72C1172.13 877.317 1170.96 878.256 1170.1 879.536C1169.29 880.816 1168.89 882.437 1168.89 884.4C1168.89 886.277 1169.38 887.92 1170.36 889.328C1171.38 890.736 1172.81 891.845 1174.65 892.656C1176.52 893.467 1178.72 893.872 1181.24 893.872C1183.41 893.872 1185.23 893.616 1186.68 893.104C1188.17 892.549 1189.52 891.867 1190.71 891.056L1195.32 897.712C1193.91 898.779 1192.35 899.696 1190.65 900.464C1188.98 901.189 1187.23 901.723 1185.4 902.064C1183.61 902.448 1181.77 902.64 1179.89 902.64ZM1233.57 902L1224.16 889.776L1221.54 886.32L1206.63 868.016H1219.56L1228 879.216L1230.82 882.928L1246.37 902H1233.57ZM1205.8 902L1221.03 882.8L1227.24 889.136L1218.53 902H1205.8ZM1230.76 887.216L1224.74 880.816L1233.32 868.016H1245.99L1230.76 887.216ZM1262.39 902V858.672H1272.63V902H1262.39ZM1254.84 876.976V868.016H1281.27V876.976H1254.84Z" fill="white"/>
</g>
<path id="Arrow 1" d="M1096 906.5C1091.31 906.5 1087.5 910.306 1087.5 915C1087.5 919.694 1091.31 923.5 1096 923.5V915V906.5ZM1373 915L1288 865.925V964.075L1373 915ZM1096 915V923.5H1296.5V915V906.5H1096V915Z" fill="#EF1044"/>
</g>
</g>
<defs>
<filter id="filter0_d_110_128" x="137" y="391" width="108" height="176" filterUnits="userSpaceOnUse" color-interpolation-filters="sRGB">
<feFlood flood-opacity="0" result="BackgroundImageFix"/>
<feColorMatrix in="SourceAlpha" type="matrix" values="0 0 0 0 0 0 0 0 0 0 0 0 0 0 0 0 0 0 127 0" result="hardAlpha"/>
<feOffset dy="4"/>
<feGaussianBlur stdDeviation="2"/>
<feComposite in2="hardAlpha" operator="out"/>
<feColorMatrix type="matrix" values="0 0 0 0 0 0 0 0 0 0 0 0 0 0 0 0 0 0 0.25 0"/>
<feBlend mode="normal" in2="BackgroundImageFix" result="effect1_dropShadow_110_128"/>
<feBlend mode="normal" in="SourceGraphic" in2="effect1_dropShadow_110_128" result="shape"/>
</filter>
<filter id="filter1_d_110_128" x="371" y="391" width="109" height="176" filterUnits="userSpaceOnUse" color-interpolation-filters="sRGB">
<feFlood flood-opacity="0" result="BackgroundImageFix"/>
<feColorMatrix in="SourceAlpha" type="matrix" values="0 0 0 0 0 0 0 0 0 0 0 0 0 0 0 0 0 0 127 0" result="hardAlpha"/>
<feOffset dy="4"/>
<feGaussianBlur stdDeviation="2"/>
<feComposite in2="hardAlpha" operator="out"/>
<feColorMatrix type="matrix" values="0 0 0 0 0 0 0 0 0 0 0 0 0 0 0 0 0 0 0.25 0"/>
<feBlend mode="normal" in2="BackgroundImageFix" result="effect1_dropShadow_110_128"/>
<feBlend mode="normal" in="SourceGraphic" in2="effect1_dropShadow_110_128" result="shape"/>
</filter>
<filter id="filter2_d_110_128" x="254" y="391" width="109" height="176" filterUnits="userSpaceOnUse" color-interpolation-filters="sRGB">
<feFlood flood-opacity="0" result="BackgroundImageFix"/>
<feColorMatrix in="SourceAlpha" type="matrix" values="0 0 0 0 0 0 0 0 0 0 0 0 0 0 0 0 0 0 127 0" result="hardAlpha"/>
<feOffset dy="4"/>
<feGaussianBlur stdDeviation="2"/>
<feComposite in2="hardAlpha" operator="out"/>
<feColorMatrix type="matrix" values="0 0 0 0 0 0 0 0 0 0 0 0 0 0 0 0 0 0 0.25 0"/>
<feBlend mode="normal" in2="BackgroundImageFix" result="effect1_dropShadow_110_128"/>
<feBlend mode="normal" in="SourceGraphic" in2="effect1_dropShadow_110_128" result="shape"/>
</filter>
<filter id="filter3_d_110_128" x="489" y="391" width="108" height="176" filterUnits="userSpaceOnUse" color-interpolation-filters="sRGB">
<feFlood flood-opacity="0" result="BackgroundImageFix"/>
<feColorMatrix in="SourceAlpha" type="matrix" values="0 0 0 0 0 0 0 0 0 0 0 0 0 0 0 0 0 0 127 0" result="hardAlpha"/>
<feOffset dy="4"/>
<feGaussianBlur stdDeviation="2"/>
<feComposite in2="hardAlpha" operator="out"/>
<feColorMatrix type="matrix" values="0 0 0 0 0 0 0 0 0 0 0 0 0 0 0 0 0 0 0.25 0"/>
<feBlend mode="normal" in2="BackgroundImageFix" result="effect1_dropShadow_110_128"/>
<feBlend mode="normal" in="SourceGraphic" in2="effect1_dropShadow_110_128" result="shape"/>
</filter>
<filter id="filter4_d_110_128" x="31" y="414" width="126" height="206" filterUnits="userSpaceOnUse" color-interpolation-filters="sRGB">
<feFlood flood-opacity="0" result="BackgroundImageFix"/>
<feColorMatrix in="SourceAlpha" type="matrix" values="0 0 0 0 0 0 0 0 0 0 0 0 0 0 0 0 0 0 127 0" result="hardAlpha"/>
<feOffset dy="4"/>
<feGaussianBlur stdDeviation="2"/>
<feComposite in2="hardAlpha" operator="out"/>
<feColorMatrix type="matrix" values="0 0 0 0 0 0 0 0 0 0 0 0 0 0 0 0 0 0 0.25 0"/>
<feBlend mode="normal" in2="BackgroundImageFix" result="effect1_dropShadow_110_128"/>
<feBlend mode="normal" in="SourceGraphic" in2="effect1_dropShadow_110_128" result="shape"/>
</filter>
<filter id="filter5_d_110_128" x="307" y="414" width="126" height="206" filterUnits="userSpaceOnUse" color-interpolation-filters="sRGB">
<feFlood flood-opacity="0" result="BackgroundImageFix"/>
<feColorMatrix in="SourceAlpha" type="matrix" values="0 0 0 0 0 0 0 0 0 0 0 0 0 0 0 0 0 0 127 0" result="hardAlpha"/>
<feOffset dy="4"/>
<feGaussianBlur stdDeviation="2"/>
<feComposite in2="hardAlpha" operator="out"/>
<feColorMatrix type="matrix" values="0 0 0 0 0 0 0 0 0 0 0 0 0 0 0 0 0 0 0.25 0"/>
<feBlend mode="normal" in2="BackgroundImageFix" result="effect1_dropShadow_110_128"/>
<feBlend mode="normal" in="SourceGraphic" in2="effect1_dropShadow_110_128" result="shape"/>
</filter>
<filter id="filter6_d_110_128" x="169" y="414" width="126" height="206" filterUnits="userSpaceOnUse" color-interpolation-filters="sRGB">
<feFlood flood-opacity="0" result="BackgroundImageFix"/>
<feColorMatrix in="SourceAlpha" type="matrix" values="0 0 0 0 0 0 0 0 0 0 0 0 0 0 0 0 0 0 127 0" result="hardAlpha"/>
<feOffset dy="4"/>
<feGaussianBlur stdDeviation="2"/>
<feComposite in2="hardAlpha" operator="out"/>
<feColorMatrix type="matrix" values="0 0 0 0 0 0 0 0 0 0 0 0 0 0 0 0 0 0 0.25 0"/>
<feBlend mode="normal" in2="BackgroundImageFix" result="effect1_dropShadow_110_128"/>
<feBlend mode="normal" in="SourceGraphic" in2="effect1_dropShadow_110_128" result="shape"/>
</filter>
<filter id="filter7_d_110_128" x="227" y="460" width="126" height="206" filterUnits="userSpaceOnUse" color-interpolation-filters="sRGB">
<feFlood flood-opacity="0" result="BackgroundImageFix"/>
<feColorMatrix in="SourceAlpha" type="matrix" values="0 0 0 0 0 0 0 0 0 0 0 0 0 0 0 0 0 0 127 0" result="hardAlpha"/>
<feOffset dy="4"/>
<feGaussianBlur stdDeviation="2"/>
<feComposite in2="hardAlpha" operator="out"/>
<feColorMatrix type="matrix" values="0 0 0 0 0 0 0 0 0 0 0 0 0 0 0 0 0 0 0.25 0"/>
<feBlend mode="normal" in2="BackgroundImageFix" result="effect1_dropShadow_110_128"/>
<feBlend mode="normal" in="SourceGraphic" in2="effect1_dropShadow_110_128" result="shape"/>
</filter>
<filter id="filter8_d_110_128" x="445" y="414" width="126" height="206" filterUnits="userSpaceOnUse" color-interpolation-filters="sRGB">
<feFlood flood-opacity="0" result="BackgroundImageFix"/>
<feColorMatrix in="SourceAlpha" type="matrix" values="0 0 0 0 0 0 0 0 0 0 0 0 0 0 0 0 0 0 127 0" result="hardAlpha"/>
<feOffset dy="4"/>
<feGaussianBlur stdDeviation="2"/>
<feComposite in2="hardAlpha" operator="out"/>
<feColorMatrix type="matrix" values="0 0 0 0 0 0 0 0 0 0 0 0 0 0 0 0 0 0 0.25 0"/>
<feBlend mode="normal" in2="BackgroundImageFix" result="effect1_dropShadow_110_128"/>
<feBlend mode="normal" in="SourceGraphic" in2="effect1_dropShadow_110_128" result="shape"/>
</filter>
<filter id="filter9_d_110_128" x="89" y="460" width="126" height="206" filterUnits="userSpaceOnUse" color-interpolation-filters="sRGB">
<feFlood flood-opacity="0" result="BackgroundImageFix"/>
<feColorMatrix in="SourceAlpha" type="matrix" values="0 0 0 0 0 0 0 0 0 0 0 0 0 0 0 0 0 0 127 0" result="hardAlpha"/>
<feOffset dy="4"/>
<feGaussianBlur stdDeviation="2"/>
<feComposite in2="hardAlpha" operator="out"/>
<feColorMatrix type="matrix" values="0 0 0 0 0 0 0 0 0 0 0 0 0 0 0 0 0 0 0.25 0"/>
<feBlend mode="normal" in2="BackgroundImageFix" result="effect1_dropShadow_110_128"/>
<feBlend mode="normal" in="SourceGraphic" in2="effect1_dropShadow_110_128" result="shape"/>
</filter>
<filter id="filter10_d_110_128" x="365" y="460" width="126" height="206" filterUnits="userSpaceOnUse" color-interpolation-filters="sRGB">
<feFlood flood-opacity="0" result="BackgroundImageFix"/>
<feColorMatrix in="SourceAlpha" type="matrix" values="0 0 0 0 0 0 0 0 0 0 0 0 0 0 0 0 0 0 127 0" result="hardAlpha"/>
<feOffset dy="4"/>
<feGaussianBlur stdDeviation="2"/>
<feComposite in2="hardAlpha" operator="out"/>
<feColorMatrix type="matrix" values="0 0 0 0 0 0 0 0 0 0 0 0 0 0 0 0 0 0 0.25 0"/>
<feBlend mode="normal" in2="BackgroundImageFix" result="effect1_dropShadow_110_128"/>
<feBlend mode="normal" in="SourceGraphic" in2="effect1_dropShadow_110_128" result="shape"/>
</filter>
<filter id="filter11_d_110_128" x="503" y="460" width="126" height="206" filterUnits="userSpaceOnUse" color-interpolation-filters="sRGB">
<feFlood flood-opacity="0" result="BackgroundImageFix"/>
<feColorMatrix in="SourceAlpha" type="matrix" values="0 0 0 0 0 0 0 0 0 0 0 0 0 0 0 0 0 0 127 0" result="hardAlpha"/>
<feOffset dy="4"/>
<feGaussianBlur stdDeviation="2"/>
<feComposite in2="hardAlpha" operator="out"/>
<feColorMatrix type="matrix" values="0 0 0 0 0 0 0 0 0 0 0 0 0 0 0 0 0 0 0.25 0"/>
<feBlend mode="normal" in2="BackgroundImageFix" result="effect1_dropShadow_110_128"/>
<feBlend mode="normal" in="SourceGraphic" in2="effect1_dropShadow_110_128" result="shape"/>
</filter>
<filter id="filter12_d_110_128" x="858" y="391" width="108" height="176" filterUnits="userSpaceOnUse" color-interpolation-filters="sRGB">
<feFlood flood-opacity="0" result="BackgroundImageFix"/>
<feColorMatrix in="SourceAlpha" type="matrix" values="0 0 0 0 0 0 0 0 0 0 0 0 0 0 0 0 0 0 127 0" result="hardAlpha"/>
<feOffset dy="4"/>
<feGaussianBlur stdDeviation="2"/>
<feComposite in2="hardAlpha" operator="out"/>
<feColorMatrix type="matrix" values="0 0 0 0 0 0 0 0 0 0 0 0 0 0 0 0 0 0 0.25 0"/>
<feBlend mode="normal" in2="BackgroundImageFix" result="effect1_dropShadow_110_128"/>
<feBlend mode="normal" in="SourceGraphic" in2="effect1_dropShadow_110_128" result="shape"/>
</filter>
<filter id="filter13_d_110_128" x="1092" y="391" width="109" height="176" filterUnits="userSpaceOnUse" color-interpolation-filters="sRGB">
<feFlood flood-opacity="0" result="BackgroundImageFix"/>
<feColorMatrix in="SourceAlpha" type="matrix" values="0 0 0 0 0 0 0 0 0 0 0 0 0 0 0 0 0 0 127 0" result="hardAlpha"/>
<feOffset dy="4"/>
<feGaussianBlur stdDeviation="2"/>
<feComposite in2="hardAlpha" operator="out"/>
<feColorMatrix type="matrix" values="0 0 0 0 0 0 0 0 0 0 0 0 0 0 0 0 0 0 0.25 0"/>
<feBlend mode="normal" in2="BackgroundImageFix" result="effect1_dropShadow_110_128"/>
<feBlend mode="normal" in="SourceGraphic" in2="effect1_dropShadow_110_128" result="shape"/>
</filter>
<filter id="filter14_d_110_128" x="975" y="391" width="109" height="176" filterUnits="userSpaceOnUse" color-interpolation-filters="sRGB">
<feFlood flood-opacity="0" result="BackgroundImageFix"/>
<feColorMatrix in="SourceAlpha" type="matrix" values="0 0 0 0 0 0 0 0 0 0 0 0 0 0 0 0 0 0 127 0" result="hardAlpha"/>
<feOffset dy="4"/>
<feGaussianBlur stdDeviation="2"/>
<feComposite in2="hardAlpha" operator="out"/>
<feColorMatrix type="matrix" values="0 0 0 0 0 0 0 0 0 0 0 0 0 0 0 0 0 0 0.25 0"/>
<feBlend mode="normal" in2="BackgroundImageFix" result="effect1_dropShadow_110_128"/>
<feBlend mode="normal" in="SourceGraphic" in2="effect1_dropShadow_110_128" result="shape"/>
</filter>
<filter id="filter15_d_110_128" x="1210" y="391" width="108" height="176" filterUnits="userSpaceOnUse" color-interpolation-filters="sRGB">
<feFlood flood-opacity="0" result="BackgroundImageFix"/>
<feColorMatrix in="SourceAlpha" type="matrix" values="0 0 0 0 0 0 0 0 0 0 0 0 0 0 0 0 0 0 127 0" result="hardAlpha"/>
<feOffset dy="4"/>
<feGaussianBlur stdDeviation="2"/>
<feComposite in2="hardAlpha" operator="out"/>
<feColorMatrix type="matrix" values="0 0 0 0 0 0 0 0 0 0 0 0 0 0 0 0 0 0 0.25 0"/>
<feBlend mode="normal" in2="BackgroundImageFix" result="effect1_dropShadow_110_128"/>
<feBlend mode="normal" in="SourceGraphic" in2="effect1_dropShadow_110_128" result="shape"/>
</filter>
<filter id="filter16_d_110_128" x="752" y="414" width="126" height="206" filterUnits="userSpaceOnUse" color-interpolation-filters="sRGB">
<feFlood flood-opacity="0" result="BackgroundImageFix"/>
<feColorMatrix in="SourceAlpha" type="matrix" values="0 0 0 0 0 0 0 0 0 0 0 0 0 0 0 0 0 0 127 0" result="hardAlpha"/>
<feOffset dy="4"/>
<feGaussianBlur stdDeviation="2"/>
<feComposite in2="hardAlpha" operator="out"/>
<feColorMatrix type="matrix" values="0 0 0 0 0 0 0 0 0 0 0 0 0 0 0 0 0 0 0.25 0"/>
<feBlend mode="normal" in2="BackgroundImageFix" result="effect1_dropShadow_110_128"/>
<feBlend mode="normal" in="SourceGraphic" in2="effect1_dropShadow_110_128" result="shape"/>
</filter>
<filter id="filter17_d_110_128" x="1028" y="414" width="126" height="206" filterUnits="userSpaceOnUse" color-interpolation-filters="sRGB">
<feFlood flood-opacity="0" result="BackgroundImageFix"/>
<feColorMatrix in="SourceAlpha" type="matrix" values="0 0 0 0 0 0 0 0 0 0 0 0 0 0 0 0 0 0 127 0" result="hardAlpha"/>
<feOffset dy="4"/>
<feGaussianBlur stdDeviation="2"/>
<feComposite in2="hardAlpha" operator="out"/>
<feColorMatrix type="matrix" values="0 0 0 0 0 0 0 0 0 0 0 0 0 0 0 0 0 0 0.25 0"/>
<feBlend mode="normal" in2="BackgroundImageFix" result="effect1_dropShadow_110_128"/>
<feBlend mode="normal" in="SourceGraphic" in2="effect1_dropShadow_110_128" result="shape"/>
</filter>
<filter id="filter18_d_110_128" x="890" y="414" width="126" height="206" filterUnits="userSpaceOnUse" color-interpolation-filters="sRGB">
<feFlood flood-opacity="0" result="BackgroundImageFix"/>
<feColorMatrix in="SourceAlpha" type="matrix" values="0 0 0 0 0 0 0 0 0 0 0 0 0 0 0 0 0 0 127 0" result="hardAlpha"/>
<feOffset dy="4"/>
<feGaussianBlur stdDeviation="2"/>
<feComposite in2="hardAlpha" operator="out"/>
<feColorMatrix type="matrix" values="0 0 0 0 0 0 0 0 0 0 0 0 0 0 0 0 0 0 0.25 0"/>
<feBlend mode="normal" in2="BackgroundImageFix" result="effect1_dropShadow_110_128"/>
<feBlend mode="normal" in="SourceGraphic" in2="effect1_dropShadow_110_128" result="shape"/>
</filter>
<filter id="filter19_d_110_128" x="948" y="460" width="126" height="206" filterUnits="userSpaceOnUse" color-interpolation-filters="sRGB">
<feFlood flood-opacity="0" result="BackgroundImageFix"/>
<feColorMatrix in="SourceAlpha" type="matrix" values="0 0 0 0 0 0 0 0 0 0 0 0 0 0 0 0 0 0 127 0" result="hardAlpha"/>
<feOffset dy="4"/>
<feGaussianBlur stdDeviation="2"/>
<feComposite in2="hardAlpha" operator="out"/>
<feColorMatrix type="matrix" values="0 0 0 0 0 0 0 0 0 0 0 0 0 0 0 0 0 0 0.25 0"/>
<feBlend mode="normal" in2="BackgroundImageFix" result="effect1_dropShadow_110_128"/>
<feBlend mode="normal" in="SourceGraphic" in2="effect1_dropShadow_110_128" result="shape"/>
</filter>
<filter id="filter20_d_110_128" x="1166" y="414" width="126" height="206" filterUnits="userSpaceOnUse" color-interpolation-filters="sRGB">
<feFlood flood-opacity="0" result="BackgroundImageFix"/>
<feColorMatrix in="SourceAlpha" type="matrix" values="0 0 0 0 0 0 0 0 0 0 0 0 0 0 0 0 0 0 127 0" result="hardAlpha"/>
<feOffset dy="4"/>
<feGaussianBlur stdDeviation="2"/>
<feComposite in2="hardAlpha" operator="out"/>
<feColorMatrix type="matrix" values="0 0 0 0 0 0 0 0 0 0 0 0 0 0 0 0 0 0 0.25 0"/>
<feBlend mode="normal" in2="BackgroundImageFix" result="effect1_dropShadow_110_128"/>
<feBlend mode="normal" in="SourceGraphic" in2="effect1_dropShadow_110_128" result="shape"/>
</filter>
<filter id="filter21_d_110_128" x="810" y="460" width="126" height="206" filterUnits="userSpaceOnUse" color-interpolation-filters="sRGB">
<feFlood flood-opacity="0" result="BackgroundImageFix"/>
<feColorMatrix in="SourceAlpha" type="matrix" values="0 0 0 0 0 0 0 0 0 0 0 0 0 0 0 0 0 0 127 0" result="hardAlpha"/>
<feOffset dy="4"/>
<feGaussianBlur stdDeviation="2"/>
<feComposite in2="hardAlpha" operator="out"/>
<feColorMatrix type="matrix" values="0 0 0 0 0 0 0 0 0 0 0 0 0 0 0 0 0 0 0.25 0"/>
<feBlend mode="normal" in2="BackgroundImageFix" result="effect1_dropShadow_110_128"/>
<feBlend mode="normal" in="SourceGraphic" in2="effect1_dropShadow_110_128" result="shape"/>
</filter>
<filter id="filter22_d_110_128" x="1086" y="460" width="126" height="206" filterUnits="userSpaceOnUse" color-interpolation-filters="sRGB">
<feFlood flood-opacity="0" result="BackgroundImageFix"/>
<feColorMatrix in="SourceAlpha" type="matrix" values="0 0 0 0 0 0 0 0 0 0 0 0 0 0 0 0 0 0 127 0" result="hardAlpha"/>
<feOffset dy="4"/>
<feGaussianBlur stdDeviation="2"/>
<feComposite in2="hardAlpha" operator="out"/>
<feColorMatrix type="matrix" values="0 0 0 0 0 0 0 0 0 0 0 0 0 0 0 0 0 0 0.25 0"/>
<feBlend mode="normal" in2="BackgroundImageFix" result="effect1_dropShadow_110_128"/>
<feBlend mode="normal" in="SourceGraphic" in2="effect1_dropShadow_110_128" result="shape"/>
</filter>
<filter id="filter23_d_110_128" x="1224" y="460" width="126" height="206" filterUnits="userSpaceOnUse" color-interpolation-filters="sRGB">
<feFlood flood-opacity="0" result="BackgroundImageFix"/>
<feColorMatrix in="SourceAlpha" type="matrix" values="0 0 0 0 0 0 0 0 0 0 0 0 0 0 0 0 0 0 127 0" result="hardAlpha"/>
<feOffset dy="4"/>
<feGaussianBlur stdDeviation="2"/>
<feComposite in2="hardAlpha" operator="out"/>
<feColorMatrix type="matrix" values="0 0 0 0 0 0 0 0 0 0 0 0 0 0 0 0 0 0 0.25 0"/>
<feBlend mode="normal" in2="BackgroundImageFix" result="effect1_dropShadow_110_128"/>
<feBlend mode="normal" in="SourceGraphic" in2="effect1_dropShadow_110_128" result="shape"/>
</filter>
<clipPath id="clip0_110_128">
<rect width="1440" height="1024" fill="white"/>
</clipPath>
</defs>
</svg>
