<svg width="383" height="300" viewBox="0 0 383 300" fill="none" xmlns="http://www.w3.org/2000/svg">
<g id="start!">
<rect x="0.5" y="0.5" width="382" height="299" rx="4.5" stroke="#8A38F5" stroke-dasharray="10 5"/>
<g id="Property 1=Default">
<g id="start!_2" filter="url(#filter0_i_17_569)">
<path d="M51.488 116.96C45.856 116.96 40.8 116.16 36.32 114.56C31.904 112.96 28.352 110.688 25.664 107.744L34.976 99.488C37.152 101.536 39.744 103.104 42.752 104.192C45.76 105.28 48.928 105.824 52.256 105.824C53.28 105.824 54.272 105.728 55.232 105.536C56.256 105.344 57.12 105.088 57.824 104.768C58.592 104.384 59.2 103.936 59.648 103.424C60.096 102.912 60.32 102.272 60.32 101.504C60.32 100.288 59.552 99.328 58.016 98.624C56.928 98.24 55.552 97.856 53.888 97.472C52.224 97.088 50.336 96.672 48.224 96.224C44.704 95.584 41.6 94.816 38.912 93.92C36.288 92.96 34.08 91.776 32.288 90.368C30.752 89.024 29.568 87.488 28.736 85.76C27.904 84.032 27.488 82.016 27.488 79.712C27.488 77.344 28.096 75.2 29.312 73.28C30.528 71.296 32.224 69.632 34.4 68.288C36.576 66.88 39.072 65.824 41.888 65.12C44.704 64.352 47.648 63.968 50.72 63.968C53.792 63.968 56.8 64.288 59.744 64.928C62.688 65.504 65.472 66.368 68.096 67.52C70.72 68.608 73.024 70.016 75.008 71.744L67.136 80.96C65.728 79.872 64.096 78.88 62.24 77.984C60.384 77.088 58.4 76.384 56.288 75.872C54.24 75.296 52.224 75.008 50.24 75.008C49.152 75.008 48.096 75.072 47.072 75.2C46.112 75.328 45.28 75.584 44.576 75.968C43.872 76.288 43.296 76.704 42.848 77.216C42.464 77.664 42.272 78.24 42.272 78.944C42.272 79.52 42.432 80.064 42.752 80.576C43.072 81.088 43.552 81.504 44.192 81.824C45.088 82.4 46.4 82.912 48.128 83.36C49.92 83.808 52.16 84.288 54.848 84.8C58.752 85.632 62.08 86.592 64.832 87.68C67.584 88.704 69.792 89.952 71.456 91.424C72.8 92.448 73.792 93.728 74.432 95.264C75.072 96.736 75.392 98.368 75.392 100.16C75.392 103.424 74.336 106.336 72.224 108.896C70.176 111.392 67.36 113.376 63.776 114.848C60.256 116.256 56.16 116.96 51.488 116.96ZM97.9318 116V51.008H113.292V116H97.9318ZM86.6038 78.464V65.024H126.252V78.464H86.6038ZM164.274 116.864C159.218 116.864 154.802 115.744 151.026 113.504C147.25 111.264 144.274 108.16 142.098 104.192C139.986 100.16 138.93 95.584 138.93 90.464C138.93 85.28 140.018 80.704 142.194 76.736C144.37 72.768 147.378 69.664 151.218 67.424C155.122 65.12 159.602 63.968 164.658 63.968C167.538 63.968 170.194 64.352 172.626 65.12C175.058 65.824 177.17 66.816 178.962 68.096C180.818 69.376 182.322 70.784 183.474 72.32C184.69 73.856 185.49 75.456 185.874 77.12H182.514V65.024H197.682V116H182.226V102.944L185.49 103.424C185.106 105.088 184.306 106.72 183.09 108.32C181.874 109.92 180.306 111.36 178.386 112.64C176.466 113.92 174.29 114.944 171.858 115.712C169.49 116.48 166.962 116.864 164.274 116.864ZM168.402 103.904C171.282 103.904 173.778 103.36 175.89 102.272C178.066 101.184 179.73 99.648 180.882 97.664C182.098 95.616 182.706 93.216 182.706 90.464C182.706 87.776 182.098 85.44 180.882 83.456C179.73 81.408 178.066 79.808 175.89 78.656C173.778 77.504 171.282 76.928 168.402 76.928C165.522 76.928 163.026 77.504 160.914 78.656C158.802 79.808 157.138 81.408 155.922 83.456C154.77 85.44 154.194 87.776 154.194 90.464C154.194 93.216 154.77 95.616 155.922 97.664C157.138 99.648 158.802 101.184 160.914 102.272C163.026 103.36 165.522 103.904 168.402 103.904ZM221.377 116V65.024H235.969L236.641 82.592L232.993 80.768C233.825 77.632 235.265 74.816 237.313 72.32C239.425 69.76 241.825 67.744 244.513 66.272C247.265 64.736 250.177 63.968 253.249 63.968C254.913 63.968 256.481 64.128 257.953 64.448C259.489 64.768 260.801 65.184 261.889 65.696L257.665 82.496C256.705 81.792 255.393 81.248 253.729 80.864C252.129 80.48 250.497 80.288 248.833 80.288C246.977 80.288 245.281 80.608 243.745 81.248C242.273 81.824 241.025 82.656 240.001 83.744C238.977 84.768 238.177 85.952 237.601 87.296C237.089 88.64 236.833 90.08 236.833 91.616V116H221.377ZM285.994 116V51.008H301.354V116H285.994ZM274.666 78.464V65.024H314.314V78.464H274.666ZM337.157 91.52C336.453 87.808 335.749 83.904 335.045 79.808C334.405 75.712 333.861 71.584 333.413 67.424C332.965 63.2 332.741 59.136 332.741 55.232V47.744H351.269V55.232C351.269 59.136 351.045 63.2 350.597 67.424C350.213 71.584 349.669 75.712 348.965 79.808C348.325 83.904 347.589 87.808 346.757 91.52H337.157ZM342.053 117.056C338.917 117.056 336.517 116.32 334.853 114.848C333.189 113.312 332.357 111.2 332.357 108.512C332.357 106.08 333.189 104.032 334.853 102.368C336.581 100.704 338.981 99.872 342.053 99.872C345.189 99.872 347.557 100.64 349.157 102.176C350.821 103.712 351.653 105.824 351.653 108.512C351.653 110.88 350.789 112.896 349.061 114.56C347.397 116.224 345.061 117.056 342.053 117.056Z" fill="#EC5F46"/>
</g>
</g>
<g id="Property 1=Variant2">
<g id="start!_3" filter="url(#filter1_i_17_569)">
<path d="M51.613 256.96C45.981 256.96 40.925 256.16 36.445 254.56C32.029 252.96 28.477 250.688 25.789 247.744L35.101 239.488C37.277 241.536 39.869 243.104 42.877 244.192C45.885 245.28 49.053 245.824 52.381 245.824C53.405 245.824 54.397 245.728 55.357 245.536C56.381 245.344 57.245 245.088 57.949 244.768C58.717 244.384 59.325 243.936 59.773 243.424C60.221 242.912 60.445 242.272 60.445 241.504C60.445 240.288 59.677 239.328 58.141 238.624C57.053 238.24 55.677 237.856 54.013 237.472C52.349 237.088 50.461 236.672 48.349 236.224C44.829 235.584 41.725 234.816 39.037 233.92C36.413 232.96 34.205 231.776 32.413 230.368C30.877 229.024 29.693 227.488 28.861 225.76C28.029 224.032 27.613 222.016 27.613 219.712C27.613 217.344 28.221 215.2 29.437 213.28C30.653 211.296 32.349 209.632 34.525 208.288C36.701 206.88 39.197 205.824 42.013 205.12C44.829 204.352 47.773 203.968 50.845 203.968C53.917 203.968 56.925 204.288 59.869 204.928C62.813 205.504 65.597 206.368 68.221 207.52C70.845 208.608 73.149 210.016 75.133 211.744L67.261 220.96C65.853 219.872 64.221 218.88 62.365 217.984C60.509 217.088 58.525 216.384 56.413 215.872C54.365 215.296 52.349 215.008 50.365 215.008C49.277 215.008 48.221 215.072 47.197 215.2C46.237 215.328 45.405 215.584 44.701 215.968C43.997 216.288 43.421 216.704 42.973 217.216C42.589 217.664 42.397 218.24 42.397 218.944C42.397 219.52 42.557 220.064 42.877 220.576C43.197 221.088 43.677 221.504 44.317 221.824C45.213 222.4 46.525 222.912 48.253 223.36C50.045 223.808 52.285 224.288 54.973 224.8C58.877 225.632 62.205 226.592 64.957 227.68C67.709 228.704 69.917 229.952 71.581 231.424C72.925 232.448 73.917 233.728 74.557 235.264C75.197 236.736 75.517 238.368 75.517 240.16C75.517 243.424 74.461 246.336 72.349 248.896C70.301 251.392 67.485 253.376 63.901 254.848C60.381 256.256 56.285 256.96 51.613 256.96ZM98.0568 256V191.008H113.417V256H98.0568ZM86.7288 218.464V205.024H126.377V218.464H86.7288ZM164.399 256.864C159.343 256.864 154.927 255.744 151.151 253.504C147.375 251.264 144.399 248.16 142.223 244.192C140.111 240.16 139.055 235.584 139.055 230.464C139.055 225.28 140.143 220.704 142.319 216.736C144.495 212.768 147.503 209.664 151.343 207.424C155.247 205.12 159.727 203.968 164.783 203.968C167.663 203.968 170.319 204.352 172.751 205.12C175.183 205.824 177.295 206.816 179.087 208.096C180.943 209.376 182.447 210.784 183.599 212.32C184.815 213.856 185.615 215.456 185.999 217.12H182.639V205.024H197.807V256H182.351V242.944L185.615 243.424C185.231 245.088 184.431 246.72 183.215 248.32C181.999 249.92 180.431 251.36 178.511 252.64C176.591 253.92 174.415 254.944 171.983 255.712C169.615 256.48 167.087 256.864 164.399 256.864ZM168.527 243.904C171.407 243.904 173.903 243.36 176.015 242.272C178.191 241.184 179.855 239.648 181.007 237.664C182.223 235.616 182.831 233.216 182.831 230.464C182.831 227.776 182.223 225.44 181.007 223.456C179.855 221.408 178.191 219.808 176.015 218.656C173.903 217.504 171.407 216.928 168.527 216.928C165.647 216.928 163.151 217.504 161.039 218.656C158.927 219.808 157.263 221.408 156.047 223.456C154.895 225.44 154.319 227.776 154.319 230.464C154.319 233.216 154.895 235.616 156.047 237.664C157.263 239.648 158.927 241.184 161.039 242.272C163.151 243.36 165.647 243.904 168.527 243.904ZM221.502 256V205.024H236.094L236.766 222.592L233.118 220.768C233.95 217.632 235.39 214.816 237.438 212.32C239.55 209.76 241.95 207.744 244.638 206.272C247.39 204.736 250.302 203.968 253.374 203.968C255.038 203.968 256.606 204.128 258.078 204.448C259.614 204.768 260.926 205.184 262.014 205.696L257.79 222.496C256.83 221.792 255.518 221.248 253.854 220.864C252.254 220.48 250.622 220.288 248.958 220.288C247.102 220.288 245.406 220.608 243.87 221.248C242.398 221.824 241.15 222.656 240.126 223.744C239.102 224.768 238.302 225.952 237.726 227.296C237.214 228.64 236.958 230.08 236.958 231.616V256H221.502ZM286.119 256V191.008H301.479V256H286.119ZM274.791 218.464V205.024H314.439V218.464H274.791ZM337.282 231.52C336.578 227.808 335.874 223.904 335.17 219.808C334.53 215.712 333.986 211.584 333.538 207.424C333.09 203.2 332.866 199.136 332.866 195.232V187.744H351.394V195.232C351.394 199.136 351.17 203.2 350.722 207.424C350.338 211.584 349.794 215.712 349.09 219.808C348.45 223.904 347.714 227.808 346.882 231.52H337.282ZM342.178 257.056C339.042 257.056 336.642 256.32 334.978 254.848C333.314 253.312 332.482 251.2 332.482 248.512C332.482 246.08 333.314 244.032 334.978 242.368C336.706 240.704 339.106 239.872 342.178 239.872C345.314 239.872 347.682 240.64 349.282 242.176C350.946 243.712 351.778 245.824 351.778 248.512C351.778 250.88 350.914 252.896 349.186 254.56C347.522 256.224 345.186 257.056 342.178 257.056Z" fill="#EF1044"/>
</g>
</g>
</g>
<defs>
<filter id="filter0_i_17_569" x="25.6641" y="47.744" width="325.989" height="73.312" filterUnits="userSpaceOnUse" color-interpolation-filters="sRGB">
<feFlood flood-opacity="0" result="BackgroundImageFix"/>
<feBlend mode="normal" in="SourceGraphic" in2="BackgroundImageFix" result="shape"/>
<feColorMatrix in="SourceAlpha" type="matrix" values="0 0 0 0 0 0 0 0 0 0 0 0 0 0 0 0 0 0 127 0" result="hardAlpha"/>
<feOffset dy="4"/>
<feGaussianBlur stdDeviation="2"/>
<feComposite in2="hardAlpha" operator="arithmetic" k2="-1" k3="1"/>
<feColorMatrix type="matrix" values="0 0 0 0 0 0 0 0 0 0 0 0 0 0 0 0 0 0 0.25 0"/>
<feBlend mode="normal" in2="shape" result="effect1_innerShadow_17_569"/>
</filter>
<filter id="filter1_i_17_569" x="25.7891" y="187.744" width="325.989" height="73.312" filterUnits="userSpaceOnUse" color-interpolation-filters="sRGB">
<feFlood flood-opacity="0" result="BackgroundImageFix"/>
<feBlend mode="normal" in="SourceGraphic" in2="BackgroundImageFix" result="shape"/>
<feColorMatrix in="SourceAlpha" type="matrix" values="0 0 0 0 0 0 0 0 0 0 0 0 0 0 0 0 0 0 127 0" result="hardAlpha"/>
<feOffset dy="4"/>
<feGaussianBlur stdDeviation="2"/>
<feComposite in2="hardAlpha" operator="arithmetic" k2="-1" k3="1"/>
<feColorMatrix type="matrix" values="0 0 0 0 0 0 0 0 0 0 0 0 0 0 0 0 0 0 0.25 0"/>
<feBlend mode="normal" in2="shape" result="effect1_innerShadow_17_569"/>
</filter>
</defs>
</svg>
