<svg width="1440" height="1024" viewBox="0 0 1440 1024" fill="none" xmlns="http://www.w3.org/2000/svg">
<g id="trick1-no" clip-path="url(#clip0_136_236)">
<rect width="1440" height="1024" fill="#333148"/>
<path id="part 5" d="M47.096 132.12V60.024H61.688L62.264 71.448L59.384 70.584C59.832 68.536 61.048 66.648 63.032 64.92C65.016 63.192 67.512 61.784 70.52 60.696C73.592 59.608 76.856 59.064 80.312 59.064C85.304 59.064 89.688 60.216 93.464 62.52C97.24 64.76 100.184 67.864 102.296 71.832C104.472 75.736 105.56 80.28 105.56 85.464C105.56 90.584 104.472 95.128 102.296 99.096C100.184 103.064 97.208 106.2 93.368 108.504C89.528 110.744 85.112 111.864 80.12 111.864C76.664 111.864 73.432 111.288 70.424 110.136C67.416 108.984 64.888 107.48 62.84 105.624C60.856 103.768 59.576 101.816 59 99.768L62.552 98.424V132.12H47.096ZM76.376 98.904C79.256 98.904 81.752 98.36 83.864 97.272C85.976 96.12 87.608 94.552 88.76 92.568C89.976 90.584 90.584 88.216 90.584 85.464C90.584 82.776 89.976 80.44 88.76 78.456C87.608 76.408 85.976 74.84 83.864 73.752C81.816 72.6 79.32 72.024 76.376 72.024C73.496 72.024 70.968 72.568 68.792 73.656C66.68 74.744 65.016 76.312 63.8 78.36C62.648 80.408 62.072 82.776 62.072 85.464C62.072 88.216 62.648 90.584 63.8 92.568C65.016 94.552 66.68 96.12 68.792 97.272C70.968 98.36 73.496 98.904 76.376 98.904ZM144.211 111.864C139.155 111.864 134.739 110.744 130.963 108.504C127.187 106.264 124.211 103.16 122.035 99.192C119.923 95.16 118.867 90.584 118.867 85.464C118.867 80.28 119.955 75.704 122.131 71.736C124.307 67.768 127.315 64.664 131.155 62.424C135.059 60.12 139.539 58.968 144.595 58.968C147.475 58.968 150.131 59.352 152.563 60.12C154.995 60.824 157.107 61.816 158.899 63.096C160.755 64.376 162.259 65.784 163.411 67.32C164.627 68.856 165.427 70.456 165.811 72.12H162.451V60.024H177.619V111H162.163V97.944L165.427 98.424C165.043 100.088 164.243 101.72 163.027 103.32C161.811 104.92 160.243 106.36 158.323 107.64C156.403 108.92 154.227 109.944 151.795 110.712C149.427 111.48 146.899 111.864 144.211 111.864ZM148.339 98.904C151.219 98.904 153.715 98.36 155.827 97.272C158.003 96.184 159.667 94.648 160.819 92.664C162.035 90.616 162.643 88.216 162.643 85.464C162.643 82.776 162.035 80.44 160.819 78.456C159.667 76.408 158.003 74.808 155.827 73.656C153.715 72.504 151.219 71.928 148.339 71.928C145.459 71.928 142.963 72.504 140.851 73.656C138.739 74.808 137.075 76.408 135.859 78.456C134.707 80.44 134.131 82.776 134.131 85.464C134.131 88.216 134.707 90.616 135.859 92.664C137.075 94.648 138.739 96.184 140.851 97.272C142.963 98.36 145.459 98.904 148.339 98.904ZM201.315 111V60.024H215.907L216.579 77.592L212.931 75.768C213.763 72.632 215.203 69.816 217.251 67.32C219.363 64.76 221.763 62.744 224.451 61.272C227.203 59.736 230.115 58.968 233.187 58.968C234.851 58.968 236.419 59.128 237.891 59.448C239.427 59.768 240.739 60.184 241.827 60.696L237.603 77.496C236.643 76.792 235.331 76.248 233.667 75.864C232.067 75.48 230.435 75.288 228.771 75.288C226.915 75.288 225.219 75.608 223.683 76.248C222.211 76.824 220.963 77.656 219.939 78.744C218.915 79.768 218.115 80.952 217.539 82.296C217.027 83.64 216.771 85.08 216.771 86.616V111H201.315ZM265.932 111V46.008H281.292V111H265.932ZM254.604 73.464V60.024H294.252V73.464H254.604ZM370.984 111.672C365.736 111.672 360.904 110.648 356.488 108.6C352.072 106.552 348.392 103.768 345.448 100.248L354.088 90.168C356.712 92.792 359.368 94.744 362.056 96.024C364.744 97.24 367.56 97.848 370.504 97.848C372.936 97.848 375.048 97.432 376.84 96.6C378.696 95.704 380.136 94.488 381.16 92.952C382.248 91.416 382.792 89.688 382.792 87.768C382.792 85.784 382.248 84.056 381.16 82.584C380.136 81.048 378.696 79.832 376.84 78.936C375.048 78.04 372.968 77.592 370.6 77.592C368.552 77.592 366.664 77.784 364.936 78.168C363.208 78.552 361.608 79.064 360.136 79.704C358.664 80.344 357.192 81.08 355.72 81.912L348.808 72.888L352.936 43.224H393.064V56.952H360.712L364.936 51.576L361.768 72.888L356.008 70.968C357.288 69.88 358.888 68.92 360.808 68.088C362.728 67.256 364.808 66.584 367.048 66.072C369.352 65.496 371.624 65.208 373.864 65.208C378.344 65.208 382.376 66.168 385.96 68.088C389.544 70.008 392.392 72.696 394.504 76.152C396.68 79.608 397.768 83.608 397.768 88.152C397.768 92.568 396.584 96.568 394.216 100.152C391.848 103.672 388.648 106.488 384.616 108.6C380.648 110.648 376.104 111.672 370.984 111.672Z" fill="white"/>
<rect id="Rectangle 7" x="-64" y="479" width="1567" height="626" fill="#211F2F"/>
<rect id="Rectangle 26" x="854" y="232" width="279" height="425" rx="25" fill="#6A94E0"/>
<path id="Polygon 2" d="M834.384 434.306C840.428 422.003 858.914 425.761 859.151 439.34L862.384 625.135C862.53 633.51 854.733 639.957 846.487 638.281L760.565 620.816C752.318 619.14 747.968 610.223 751.696 602.635L834.384 434.306Z" fill="#3E5068"/>
<path id="Polygon 3" d="M1155.62 434.306C1149.57 422.003 1131.09 425.761 1130.85 439.34L1127.62 625.135C1127.47 633.51 1135.27 639.957 1143.51 638.281L1229.44 620.816C1237.68 619.14 1242.03 610.223 1238.31 602.635L1155.62 434.306Z" fill="#3E5068"/>
<path id="Polygon 5" d="M1008.63 494.046C1005.42 480.801 986.582 480.801 983.367 494.046L939.279 675.684C937.292 683.867 943.491 691.75 951.912 691.75L1040.09 691.75C1048.51 691.75 1054.71 683.867 1052.72 675.684L1008.63 494.046Z" fill="#3E5068"/>
<path id="Polygon 4" d="M977.409 65.7989C985.403 54.9692 1001.6 54.9692 1009.59 65.7989L1134.95 235.622C1144.69 248.826 1135.27 267.5 1118.86 267.5H868.144C851.733 267.5 842.307 248.826 852.053 235.622L977.409 65.7989Z" fill="#3E5068"/>
<ellipse id="Ellipse 4" cx="190.304" cy="858.084" rx="14.5" ry="18" transform="rotate(35.9369 190.304 858.084)" fill="#C63B3B"/>
<g id="Group 6">
<path id="Line 2" d="M172 741L265.5 840" stroke="#E98F40" stroke-width="20" stroke-linecap="round"/>
<path id="Line 3" d="M224 720L165 827" stroke="#FD9D49" stroke-width="20" stroke-linecap="round"/>
<path id="Line 4" d="M373 774L287 809" stroke="#E98F40" stroke-width="20" stroke-linecap="round"/>
<path id="Line 5" d="M353 809L265 746" stroke="#FD9D49" stroke-width="20" stroke-linecap="round"/>
<path id="Line 6" d="M194 852L265 782" stroke="#FD9D49" stroke-width="20" stroke-linecap="round"/>
<ellipse id="Ellipse 5" cx="228.294" cy="710.72" rx="14.5" ry="18" transform="rotate(28.2582 228.294 710.72)" fill="#C63B3B"/>
<ellipse id="Ellipse 6" cx="269.294" cy="842.719" rx="14.5" ry="18" transform="rotate(-45 269.294 842.719)" fill="#C63B3B"/>
<ellipse id="Ellipse 7" cx="358.981" cy="813.981" rx="14.5" ry="18" transform="rotate(-45 358.981 813.981)" fill="#C63B3B"/>
<ellipse id="Ellipse 8" cx="381.152" cy="771.24" rx="14.5" ry="18" transform="rotate(-112.265 381.152 771.24)" fill="#C63B3B"/>
</g>
<g id="Group 7">
<path id="Line 2_2" d="M221.385 698.754L232.523 834.471" stroke="#E98F40" stroke-width="20" stroke-linecap="round"/>
<path id="Line 3_2" d="M275.105 714.85L162.182 761.522" stroke="#FD9D49" stroke-width="20" stroke-linecap="round"/>
<path id="Line 4_2" d="M357.693 850.113L268.68 823.701" stroke="#E98F40" stroke-width="20" stroke-linecap="round"/>
<path id="Line 5_2" d="M320.208 864.941L290.869 760.767" stroke="#FD9D49" stroke-width="20" stroke-linecap="round"/>
<path id="Line 6_2" d="M169.202 799.162L268.375 788.875" stroke="#FD9D49" stroke-width="20" stroke-linecap="round"/>
<ellipse id="Ellipse 5_2" cx="284.257" cy="710.288" rx="14.5" ry="18" transform="rotate(66.9299 284.257 710.288)" fill="#C63B3B"/>
<ellipse id="Ellipse 6_2" cx="233.787" cy="838.964" rx="14.5" ry="18" transform="rotate(-6.32829 233.787 838.964)" fill="#C63B3B"/>
<ellipse id="Ellipse 7_2" cx="321.766" cy="872.567" rx="14.5" ry="18" transform="rotate(-6.32829 321.766 872.567)" fill="#C63B3B"/>
<ellipse id="Ellipse 8_2" cx="365.782" cy="853.052" rx="14.5" ry="18" transform="rotate(-73.5929 365.782 853.052)" fill="#C63B3B"/>
</g>
<g id="Group 8">
<path id="Line 2_3" d="M282.775 802.145L414.912 835.054" stroke="#E98F40" stroke-width="20" stroke-linecap="round"/>
<path id="Line 3_3" d="M315.227 756.408L323.28 878.331" stroke="#FD9D49" stroke-width="20" stroke-linecap="round"/>
<path id="Line 4_3" d="M469.815 721.486L416.289 797.354" stroke="#E98F40" stroke-width="20" stroke-linecap="round"/>
<path id="Line 5_3" d="M471.859 761.744L363.775 756.178" stroke="#FD9D49" stroke-width="20" stroke-linecap="round"/>
<path id="Line 6_3" d="M361.185 883.734L383.198 786.49" stroke="#FD9D49" stroke-width="20" stroke-linecap="round"/>
<ellipse id="Ellipse 5_3" cx="313.835" cy="746.278" rx="14.5" ry="18" transform="rotate(-4.39301 313.835 746.278)" fill="#C63B3B"/>
<ellipse id="Ellipse 6_3" cx="419.573" cy="835.296" rx="14.5" ry="18" transform="rotate(-77.6513 419.573 835.296)" fill="#C63B3B"/>
<ellipse id="Ellipse 7_3" cx="479.582" cy="762.712" rx="14.5" ry="18" transform="rotate(-77.6513 479.582 762.712)" fill="#C63B3B"/>
<ellipse id="Ellipse 8_3" cx="475.189" cy="714.762" rx="14.5" ry="18" transform="rotate(-144.916 475.189 714.762)" fill="#C63B3B"/>
</g>
<g id="Group 9">
<path id="Line 2_4" d="M263.837 631.893L272.582 767.785" stroke="#E98F40" stroke-width="20" stroke-linecap="round"/>
<path id="Line 3_4" d="M317.265 648.934L203.537 693.609" stroke="#FD9D49" stroke-width="20" stroke-linecap="round"/>
<path id="Line 4_4" d="M397.457 785.631L308.922 757.654" stroke="#E98F40" stroke-width="20" stroke-linecap="round"/>
<path id="Line 5_4" d="M359.716 799.797L332.217 695.122" stroke="#FD9D49" stroke-width="20" stroke-linecap="round"/>
<path id="Line 6_4" d="M209.893 731.365L309.231 722.828" stroke="#FD9D49" stroke-width="20" stroke-linecap="round"/>
<ellipse id="Ellipse 5_4" cx="326.495" cy="644.533" rx="14.5" ry="18" transform="rotate(67.9397 326.495 644.533)" fill="#C63B3B"/>
<ellipse id="Ellipse 6_4" cx="273.766" cy="772.299" rx="14.5" ry="18" transform="rotate(-5.31851 273.766 772.299)" fill="#C63B3B"/>
<ellipse id="Ellipse 7_4" cx="361.139" cy="807.45" rx="14.5" ry="18" transform="rotate(-5.31851 361.139 807.45)" fill="#C63B3B"/>
<ellipse id="Ellipse 8_4" cx="405.493" cy="788.713" rx="14.5" ry="18" transform="rotate(-72.5831 405.493 788.713)" fill="#C63B3B"/>
</g>
<g id="Group 10">
<path id="Line 2_5" d="M390.011 665.258L398.756 801.15" stroke="#E98F40" stroke-width="20" stroke-linecap="round"/>
<path id="Line 3_5" d="M443.439 682.299L329.711 726.974" stroke="#FD9D49" stroke-width="20" stroke-linecap="round"/>
<path id="Line 4_5" d="M523.63 818.998L435.096 791.022" stroke="#E98F40" stroke-width="20" stroke-linecap="round"/>
<path id="Line 5_5" d="M485.89 833.164L458.392 728.489" stroke="#FD9D49" stroke-width="20" stroke-linecap="round"/>
<path id="Line 6_5" d="M336.067 764.732L435.405 756.195" stroke="#FD9D49" stroke-width="20" stroke-linecap="round"/>
<ellipse id="Ellipse 5_5" cx="452.669" cy="677.9" rx="14.5" ry="18" transform="rotate(67.9397 452.669 677.9)" fill="#C63B3B"/>
<ellipse id="Ellipse 6_5" cx="399.94" cy="805.666" rx="14.5" ry="18" transform="rotate(-5.31851 399.94 805.666)" fill="#C63B3B"/>
<ellipse id="Ellipse 7_5" cx="487.313" cy="840.815" rx="14.5" ry="18" transform="rotate(-5.31851 487.313 840.815)" fill="#C63B3B"/>
<ellipse id="Ellipse 8_5" cx="531.667" cy="822.078" rx="14.5" ry="18" transform="rotate(-72.5831 531.667 822.078)" fill="#C63B3B"/>
</g>
</g>
<defs>
<clipPath id="clip0_136_236">
<rect width="1440" height="1024" fill="white"/>
</clipPath>
</defs>
</svg>
