<svg width="1440" height="1024" viewBox="0 0 1440 1024" fill="none" xmlns="http://www.w3.org/2000/svg">
<g id="trick3-no" clip-path="url(#clip0_137_335)">
<rect width="1440" height="1024" fill="#333148"/>
<g id="Group 11">
<path id="Vector 13" d="M627 503.5L708.5 205L783.5 324L837 144.5L904.5 272.5L1007 126L1116.5 272.5L1156 205L1228.5 300.5L1258.5 242.5L1272.5 450L1194 520.5L1091.5 493.5H1055.5H997.5L932.5 536.5L887 503.5L843.5 520.5H822L807.5 544.5L749.5 558L708.5 536.5L652.5 520.5L627 503.5Z" fill="#EC5F46"/>
<path id="Vector 14" d="M711 275.5L664.5 521L674.5 530.5L714.5 538H812.5L831 513L895 508L1025 494H1048L1072.5 482.5L1127.5 504H1222L1262 441.5L1244 340.5L1175 275.5L1120 340.5L1007 250C985 282.667 941 349.5 941 355.5C941 361.5 875 278.333 842 236L797 415.5L711 275.5Z" fill="#FD9D49"/>
</g>
<path id="part 5" d="M47.096 132.12V60.024H61.688L62.264 71.448L59.384 70.584C59.832 68.536 61.048 66.648 63.032 64.92C65.016 63.192 67.512 61.784 70.52 60.696C73.592 59.608 76.856 59.064 80.312 59.064C85.304 59.064 89.688 60.216 93.464 62.52C97.24 64.76 100.184 67.864 102.296 71.832C104.472 75.736 105.56 80.28 105.56 85.464C105.56 90.584 104.472 95.128 102.296 99.096C100.184 103.064 97.208 106.2 93.368 108.504C89.528 110.744 85.112 111.864 80.12 111.864C76.664 111.864 73.432 111.288 70.424 110.136C67.416 108.984 64.888 107.48 62.84 105.624C60.856 103.768 59.576 101.816 59 99.768L62.552 98.424V132.12H47.096ZM76.376 98.904C79.256 98.904 81.752 98.36 83.864 97.272C85.976 96.12 87.608 94.552 88.76 92.568C89.976 90.584 90.584 88.216 90.584 85.464C90.584 82.776 89.976 80.44 88.76 78.456C87.608 76.408 85.976 74.84 83.864 73.752C81.816 72.6 79.32 72.024 76.376 72.024C73.496 72.024 70.968 72.568 68.792 73.656C66.68 74.744 65.016 76.312 63.8 78.36C62.648 80.408 62.072 82.776 62.072 85.464C62.072 88.216 62.648 90.584 63.8 92.568C65.016 94.552 66.68 96.12 68.792 97.272C70.968 98.36 73.496 98.904 76.376 98.904ZM144.211 111.864C139.155 111.864 134.739 110.744 130.963 108.504C127.187 106.264 124.211 103.16 122.035 99.192C119.923 95.16 118.867 90.584 118.867 85.464C118.867 80.28 119.955 75.704 122.131 71.736C124.307 67.768 127.315 64.664 131.155 62.424C135.059 60.12 139.539 58.968 144.595 58.968C147.475 58.968 150.131 59.352 152.563 60.12C154.995 60.824 157.107 61.816 158.899 63.096C160.755 64.376 162.259 65.784 163.411 67.32C164.627 68.856 165.427 70.456 165.811 72.12H162.451V60.024H177.619V111H162.163V97.944L165.427 98.424C165.043 100.088 164.243 101.72 163.027 103.32C161.811 104.92 160.243 106.36 158.323 107.64C156.403 108.92 154.227 109.944 151.795 110.712C149.427 111.48 146.899 111.864 144.211 111.864ZM148.339 98.904C151.219 98.904 153.715 98.36 155.827 97.272C158.003 96.184 159.667 94.648 160.819 92.664C162.035 90.616 162.643 88.216 162.643 85.464C162.643 82.776 162.035 80.44 160.819 78.456C159.667 76.408 158.003 74.808 155.827 73.656C153.715 72.504 151.219 71.928 148.339 71.928C145.459 71.928 142.963 72.504 140.851 73.656C138.739 74.808 137.075 76.408 135.859 78.456C134.707 80.44 134.131 82.776 134.131 85.464C134.131 88.216 134.707 90.616 135.859 92.664C137.075 94.648 138.739 96.184 140.851 97.272C142.963 98.36 145.459 98.904 148.339 98.904ZM201.315 111V60.024H215.907L216.579 77.592L212.931 75.768C213.763 72.632 215.203 69.816 217.251 67.32C219.363 64.76 221.763 62.744 224.451 61.272C227.203 59.736 230.115 58.968 233.187 58.968C234.851 58.968 236.419 59.128 237.891 59.448C239.427 59.768 240.739 60.184 241.827 60.696L237.603 77.496C236.643 76.792 235.331 76.248 233.667 75.864C232.067 75.48 230.435 75.288 228.771 75.288C226.915 75.288 225.219 75.608 223.683 76.248C222.211 76.824 220.963 77.656 219.939 78.744C218.915 79.768 218.115 80.952 217.539 82.296C217.027 83.64 216.771 85.08 216.771 86.616V111H201.315ZM265.932 111V46.008H281.292V111H265.932ZM254.604 73.464V60.024H294.252V73.464H254.604ZM370.984 111.672C365.736 111.672 360.904 110.648 356.488 108.6C352.072 106.552 348.392 103.768 345.448 100.248L354.088 90.168C356.712 92.792 359.368 94.744 362.056 96.024C364.744 97.24 367.56 97.848 370.504 97.848C372.936 97.848 375.048 97.432 376.84 96.6C378.696 95.704 380.136 94.488 381.16 92.952C382.248 91.416 382.792 89.688 382.792 87.768C382.792 85.784 382.248 84.056 381.16 82.584C380.136 81.048 378.696 79.832 376.84 78.936C375.048 78.04 372.968 77.592 370.6 77.592C368.552 77.592 366.664 77.784 364.936 78.168C363.208 78.552 361.608 79.064 360.136 79.704C358.664 80.344 357.192 81.08 355.72 81.912L348.808 72.888L352.936 43.224H393.064V56.952H360.712L364.936 51.576L361.768 72.888L356.008 70.968C357.288 69.88 358.888 68.92 360.808 68.088C362.728 67.256 364.808 66.584 367.048 66.072C369.352 65.496 371.624 65.208 373.864 65.208C378.344 65.208 382.376 66.168 385.96 68.088C389.544 70.008 392.392 72.696 394.504 76.152C396.68 79.608 397.768 83.608 397.768 88.152C397.768 92.568 396.584 96.568 394.216 100.152C391.848 103.672 388.648 106.488 384.616 108.6C380.648 110.648 376.104 111.672 370.984 111.672Z" fill="white"/>
<rect id="Rectangle 7" x="-32" y="479" width="1567" height="626" fill="#211F2F"/>
<g id="Group 12">
<path id="Vector 13_2" d="M124 598.146L157.711 474.677L188.734 523.899L210.863 449.652L238.783 502.597L281.18 442L326.473 502.597L342.812 474.677L372.8 514.179L385.209 490.188L391 576.017L358.53 605.178L316.132 594.01H301.242H277.251L250.365 611.796L231.545 598.146L213.552 605.178H204.658L198.661 615.105L174.67 620.689L157.711 611.796L134.548 605.178L124 598.146Z" fill="#EC5F46"/>
<path id="Vector 14_2" d="M158.745 503.838L139.511 605.385L143.648 609.315L160.193 612.417H200.729L208.381 602.076L234.854 600.008L288.626 594.217H298.139L308.273 589.46L331.023 598.354H370.112L386.657 572.502L379.211 530.725L350.671 503.838L327.921 530.725L281.18 493.291C272.081 506.803 253.881 534.447 253.881 536.929C253.881 539.411 226.581 505.01 212.931 487.5L194.318 561.747L158.745 503.838Z" fill="#FD9D49"/>
</g>
<g id="Group 13">
<path id="Vector 13_3" d="M1115.16 751.213L1181.3 641.64L1197.7 697.463L1239.26 632.079L1251.67 690.636L1309 643.918L1336.02 714.58L1359.37 692.182L1377.43 738.371L1395.92 718.68L1378.05 802.829L1338.85 822.016L1301.12 799.695L1286.79 795.629L1263.71 789.079L1232.99 798.848L1218.61 780.578L1199.38 782.429L1190.83 780.001L1182.35 787.913L1157.74 786.735L1143.86 773.549L1123.38 760.857L1115.16 751.213Z" fill="#EC5F46"/>
<path id="Vector 14_3" d="M1174.33 669.975L1128.1 762.412L1131.01 767.321L1146.08 774.823L1185.07 785.892L1195.26 778.033L1221.29 783.272L1274.6 792.384L1283.75 794.981L1294.8 793.172L1314.26 807.939L1351.86 818.612L1374.83 798.26L1379.08 756.038L1358.96 722.38L1329.74 742.033L1294.99 693.259C1282.55 703.773 1257.49 725.398 1256.82 727.785C1256.14 730.173 1239.27 689.625 1230.92 669.053L1192.74 735.396L1174.33 669.975Z" fill="#FD9D49"/>
</g>
<g id="Group 14">
<path id="Vector 13_4" d="M51.7405 1020.49L56.8543 892.599L98.141 933.595L103.026 856.274L142.126 901.594L169.828 833.022L227.575 881.896L237.224 851.019L275.32 882.775L282.022 856.61L306.946 938.944L281.856 974.654L238.033 973.295L223.523 976.64L200.146 982.029L177.942 1005.4L156.536 996.327L140.583 1007.22L131.917 1009.22L128.303 1020.24L106.179 1031.07L87.6563 1026.21L63.5981 1024.97L51.7405 1020.49Z" fill="#EC5F46"/>
<path id="Vector 14_4" d="M64.4126 920.782L68.4814 1024.05L73.3947 1026.95L90.214 1026.26L129.714 1017.15L134.848 1005.36L160.179 997.397L211.276 979.675L220.547 977.538L229.353 970.626L253.519 974.182L291.609 965.401L301.924 936.493L285.284 897.456L251.433 877.668L235.304 908.978L181.349 883C175.517 898.211 163.993 929.238 164.55 931.656C165.108 934.074 130.778 906.686 113.543 892.689L112.084 969.22L64.4126 920.782Z" fill="#FD9D49"/>
</g>
<g id="Group 15">
<rect id="Rectangle 26" x="854" y="232" width="279" height="425" rx="25" fill="#6A94E0"/>
<path id="Polygon 2" d="M834.384 434.306C840.428 422.003 858.914 425.761 859.151 439.34L862.384 625.135C862.53 633.51 854.733 639.957 846.487 638.281L760.565 620.816C752.318 619.14 747.968 610.223 751.696 602.635L834.384 434.306Z" fill="#3E5068"/>
<path id="Polygon 3" d="M1155.62 434.306C1149.57 422.003 1131.09 425.761 1130.85 439.34L1127.62 625.135C1127.47 633.51 1135.27 639.957 1143.51 638.281L1229.44 620.816C1237.68 619.14 1242.03 610.223 1238.31 602.635L1155.62 434.306Z" fill="#3E5068"/>
<path id="Polygon 5" d="M1008.63 494.046C1005.42 480.801 986.582 480.801 983.367 494.046L939.279 675.684C937.292 683.867 943.491 691.75 951.912 691.75L1040.09 691.75C1048.51 691.75 1054.71 683.867 1052.72 675.684L1008.63 494.046Z" fill="#3E5068"/>
<path id="Polygon 4" d="M977.409 65.7989C985.403 54.9692 1001.6 54.9692 1009.59 65.7989L1134.95 235.622C1144.69 248.826 1135.27 267.5 1118.86 267.5H868.144C851.733 267.5 842.307 248.826 852.053 235.622L977.409 65.7989Z" fill="#3E5068"/>
</g>
<ellipse id="Ellipse 4" cx="190.304" cy="858.084" rx="14.5" ry="18" transform="rotate(35.9369 190.304 858.084)" fill="#C63B3B"/>
</g>
<defs>
<clipPath id="clip0_137_335">
<rect width="1440" height="1024" fill="white"/>
</clipPath>
</defs>
</svg>
