<svg width="1440" height="1024" viewBox="0 0 1440 1024" fill="none" xmlns="http://www.w3.org/2000/svg">
<g id="trick2-no" clip-path="url(#clip0_137_398)">
<rect width="1440" height="1024" fill="#333148"/>
<path id="part 5" d="M47.096 132.12V60.024H61.688L62.264 71.448L59.384 70.584C59.832 68.536 61.048 66.648 63.032 64.92C65.016 63.192 67.512 61.784 70.52 60.696C73.592 59.608 76.856 59.064 80.312 59.064C85.304 59.064 89.688 60.216 93.464 62.52C97.24 64.76 100.184 67.864 102.296 71.832C104.472 75.736 105.56 80.28 105.56 85.464C105.56 90.584 104.472 95.128 102.296 99.096C100.184 103.064 97.208 106.2 93.368 108.504C89.528 110.744 85.112 111.864 80.12 111.864C76.664 111.864 73.432 111.288 70.424 110.136C67.416 108.984 64.888 107.48 62.84 105.624C60.856 103.768 59.576 101.816 59 99.768L62.552 98.424V132.12H47.096ZM76.376 98.904C79.256 98.904 81.752 98.36 83.864 97.272C85.976 96.12 87.608 94.552 88.76 92.568C89.976 90.584 90.584 88.216 90.584 85.464C90.584 82.776 89.976 80.44 88.76 78.456C87.608 76.408 85.976 74.84 83.864 73.752C81.816 72.6 79.32 72.024 76.376 72.024C73.496 72.024 70.968 72.568 68.792 73.656C66.68 74.744 65.016 76.312 63.8 78.36C62.648 80.408 62.072 82.776 62.072 85.464C62.072 88.216 62.648 90.584 63.8 92.568C65.016 94.552 66.68 96.12 68.792 97.272C70.968 98.36 73.496 98.904 76.376 98.904ZM144.211 111.864C139.155 111.864 134.739 110.744 130.963 108.504C127.187 106.264 124.211 103.16 122.035 99.192C119.923 95.16 118.867 90.584 118.867 85.464C118.867 80.28 119.955 75.704 122.131 71.736C124.307 67.768 127.315 64.664 131.155 62.424C135.059 60.12 139.539 58.968 144.595 58.968C147.475 58.968 150.131 59.352 152.563 60.12C154.995 60.824 157.107 61.816 158.899 63.096C160.755 64.376 162.259 65.784 163.411 67.32C164.627 68.856 165.427 70.456 165.811 72.12H162.451V60.024H177.619V111H162.163V97.944L165.427 98.424C165.043 100.088 164.243 101.72 163.027 103.32C161.811 104.92 160.243 106.36 158.323 107.64C156.403 108.92 154.227 109.944 151.795 110.712C149.427 111.48 146.899 111.864 144.211 111.864ZM148.339 98.904C151.219 98.904 153.715 98.36 155.827 97.272C158.003 96.184 159.667 94.648 160.819 92.664C162.035 90.616 162.643 88.216 162.643 85.464C162.643 82.776 162.035 80.44 160.819 78.456C159.667 76.408 158.003 74.808 155.827 73.656C153.715 72.504 151.219 71.928 148.339 71.928C145.459 71.928 142.963 72.504 140.851 73.656C138.739 74.808 137.075 76.408 135.859 78.456C134.707 80.44 134.131 82.776 134.131 85.464C134.131 88.216 134.707 90.616 135.859 92.664C137.075 94.648 138.739 96.184 140.851 97.272C142.963 98.36 145.459 98.904 148.339 98.904ZM201.315 111V60.024H215.907L216.579 77.592L212.931 75.768C213.763 72.632 215.203 69.816 217.251 67.32C219.363 64.76 221.763 62.744 224.451 61.272C227.203 59.736 230.115 58.968 233.187 58.968C234.851 58.968 236.419 59.128 237.891 59.448C239.427 59.768 240.739 60.184 241.827 60.696L237.603 77.496C236.643 76.792 235.331 76.248 233.667 75.864C232.067 75.48 230.435 75.288 228.771 75.288C226.915 75.288 225.219 75.608 223.683 76.248C222.211 76.824 220.963 77.656 219.939 78.744C218.915 79.768 218.115 80.952 217.539 82.296C217.027 83.64 216.771 85.08 216.771 86.616V111H201.315ZM265.932 111V46.008H281.292V111H265.932ZM254.604 73.464V60.024H294.252V73.464H254.604ZM370.984 111.672C365.736 111.672 360.904 110.648 356.488 108.6C352.072 106.552 348.392 103.768 345.448 100.248L354.088 90.168C356.712 92.792 359.368 94.744 362.056 96.024C364.744 97.24 367.56 97.848 370.504 97.848C372.936 97.848 375.048 97.432 376.84 96.6C378.696 95.704 380.136 94.488 381.16 92.952C382.248 91.416 382.792 89.688 382.792 87.768C382.792 85.784 382.248 84.056 381.16 82.584C380.136 81.048 378.696 79.832 376.84 78.936C375.048 78.04 372.968 77.592 370.6 77.592C368.552 77.592 366.664 77.784 364.936 78.168C363.208 78.552 361.608 79.064 360.136 79.704C358.664 80.344 357.192 81.08 355.72 81.912L348.808 72.888L352.936 43.224H393.064V56.952H360.712L364.936 51.576L361.768 72.888L356.008 70.968C357.288 69.88 358.888 68.92 360.808 68.088C362.728 67.256 364.808 66.584 367.048 66.072C369.352 65.496 371.624 65.208 373.864 65.208C378.344 65.208 382.376 66.168 385.96 68.088C389.544 70.008 392.392 72.696 394.504 76.152C396.68 79.608 397.768 83.608 397.768 88.152C397.768 92.568 396.584 96.568 394.216 100.152C391.848 103.672 388.648 106.488 384.616 108.6C380.648 110.648 376.104 111.672 370.984 111.672Z" fill="white"/>
<rect id="Rectangle 7" x="-32" y="479" width="1567" height="626" fill="#211F2F"/>
<rect id="Rectangle 26" x="854" y="232" width="279" height="425" rx="25" fill="#6A94E0"/>
<path id="Polygon 2" d="M834.384 434.306C840.428 422.003 858.914 425.761 859.151 439.34L862.384 625.135C862.53 633.51 854.733 639.957 846.487 638.281L760.565 620.816C752.318 619.14 747.968 610.223 751.696 602.635L834.384 434.306Z" fill="#3E5068"/>
<path id="Polygon 3" d="M1155.62 434.306C1149.57 422.003 1131.09 425.761 1130.85 439.34L1127.62 625.135C1127.47 633.51 1135.27 639.957 1143.51 638.281L1229.44 620.816C1237.68 619.14 1242.03 610.223 1238.31 602.635L1155.62 434.306Z" fill="#3E5068"/>
<path id="Polygon 5" d="M1008.63 494.046C1005.42 480.801 986.582 480.801 983.367 494.046L939.279 675.684C937.292 683.867 943.491 691.75 951.912 691.75L1040.09 691.75C1048.51 691.75 1054.71 683.867 1052.72 675.684L1008.63 494.046Z" fill="#3E5068"/>
<path id="Polygon 4" d="M977.409 65.7989C985.403 54.9692 1001.6 54.9692 1009.59 65.7989L1134.95 235.622C1144.69 248.826 1135.27 267.5 1118.86 267.5H868.144C851.733 267.5 842.307 248.826 852.053 235.622L977.409 65.7989Z" fill="#3E5068"/>
<ellipse id="Ellipse 4" cx="190.304" cy="858.084" rx="14.5" ry="18" transform="rotate(35.9369 190.304 858.084)" fill="#C63B3B"/>
<g id="Group 6">
<path id="Line 2" d="M172 741L265.5 840" stroke="#E98F40" stroke-width="20" stroke-linecap="round"/>
<path id="Line 3" d="M224 720L165 827" stroke="#FD9D49" stroke-width="20" stroke-linecap="round"/>
<path id="Line 4" d="M373 774L287 809" stroke="#E98F40" stroke-width="20" stroke-linecap="round"/>
<path id="Line 5" d="M353 809L265 746" stroke="#FD9D49" stroke-width="20" stroke-linecap="round"/>
<path id="Line 6" d="M194 852L265 782" stroke="#FD9D49" stroke-width="20" stroke-linecap="round"/>
<ellipse id="Ellipse 5" cx="228.294" cy="710.72" rx="14.5" ry="18" transform="rotate(28.2582 228.294 710.72)" fill="#C63B3B"/>
<ellipse id="Ellipse 6" cx="269.294" cy="842.719" rx="14.5" ry="18" transform="rotate(-45 269.294 842.719)" fill="#C63B3B"/>
<ellipse id="Ellipse 7" cx="358.981" cy="813.981" rx="14.5" ry="18" transform="rotate(-45 358.981 813.981)" fill="#C63B3B"/>
<ellipse id="Ellipse 8" cx="381.152" cy="771.24" rx="14.5" ry="18" transform="rotate(-112.265 381.152 771.24)" fill="#C63B3B"/>
</g>
<g id="Group 7">
<path id="Line 2_2" d="M221.385 698.754L232.523 834.471" stroke="#E98F40" stroke-width="20" stroke-linecap="round"/>
<path id="Line 3_2" d="M275.105 714.85L162.182 761.522" stroke="#FD9D49" stroke-width="20" stroke-linecap="round"/>
<path id="Line 4_2" d="M357.693 850.113L268.68 823.701" stroke="#E98F40" stroke-width="20" stroke-linecap="round"/>
<path id="Line 5_2" d="M320.208 864.941L290.869 760.767" stroke="#FD9D49" stroke-width="20" stroke-linecap="round"/>
<path id="Line 6_2" d="M169.202 799.162L268.375 788.875" stroke="#FD9D49" stroke-width="20" stroke-linecap="round"/>
<ellipse id="Ellipse 5_2" cx="284.257" cy="710.288" rx="14.5" ry="18" transform="rotate(66.9299 284.257 710.288)" fill="#C63B3B"/>
<ellipse id="Ellipse 6_2" cx="233.787" cy="838.964" rx="14.5" ry="18" transform="rotate(-6.32829 233.787 838.964)" fill="#C63B3B"/>
<ellipse id="Ellipse 7_2" cx="321.766" cy="872.567" rx="14.5" ry="18" transform="rotate(-6.32829 321.766 872.567)" fill="#C63B3B"/>
<ellipse id="Ellipse 8_2" cx="365.782" cy="853.052" rx="14.5" ry="18" transform="rotate(-73.5929 365.782 853.052)" fill="#C63B3B"/>
</g>
<g id="Group 8">
<path id="Line 2_3" d="M282.775 802.145L414.912 835.054" stroke="#E98F40" stroke-width="20" stroke-linecap="round"/>
<path id="Line 3_3" d="M315.227 756.408L323.28 878.331" stroke="#FD9D49" stroke-width="20" stroke-linecap="round"/>
<path id="Line 4_3" d="M469.815 721.486L416.289 797.354" stroke="#E98F40" stroke-width="20" stroke-linecap="round"/>
<path id="Line 5_3" d="M471.859 761.744L363.775 756.178" stroke="#FD9D49" stroke-width="20" stroke-linecap="round"/>
<path id="Line 6_3" d="M361.185 883.734L383.198 786.49" stroke="#FD9D49" stroke-width="20" stroke-linecap="round"/>
<ellipse id="Ellipse 5_3" cx="313.835" cy="746.278" rx="14.5" ry="18" transform="rotate(-4.39301 313.835 746.278)" fill="#C63B3B"/>
<ellipse id="Ellipse 6_3" cx="419.573" cy="835.296" rx="14.5" ry="18" transform="rotate(-77.6513 419.573 835.296)" fill="#C63B3B"/>
<ellipse id="Ellipse 7_3" cx="479.582" cy="762.712" rx="14.5" ry="18" transform="rotate(-77.6513 479.582 762.712)" fill="#C63B3B"/>
<ellipse id="Ellipse 8_3" cx="475.189" cy="714.762" rx="14.5" ry="18" transform="rotate(-144.916 475.189 714.762)" fill="#C63B3B"/>
</g>
<g id="Group 9">
<path id="Line 2_4" d="M263.837 631.893L272.582 767.785" stroke="#E98F40" stroke-width="20" stroke-linecap="round"/>
<path id="Line 3_4" d="M317.265 648.934L203.537 693.609" stroke="#FD9D49" stroke-width="20" stroke-linecap="round"/>
<path id="Line 4_4" d="M397.456 785.633L308.922 757.656" stroke="#E98F40" stroke-width="20" stroke-linecap="round"/>
<path id="Line 5_4" d="M359.716 799.799L332.217 695.124" stroke="#FD9D49" stroke-width="20" stroke-linecap="round"/>
<path id="Line 6_4" d="M209.893 731.367L309.231 722.83" stroke="#FD9D49" stroke-width="20" stroke-linecap="round"/>
<ellipse id="Ellipse 5_4" cx="326.495" cy="644.535" rx="14.5" ry="18" transform="rotate(67.9397 326.495 644.535)" fill="#C63B3B"/>
<ellipse id="Ellipse 6_4" cx="273.766" cy="772.301" rx="14.5" ry="18" transform="rotate(-5.31851 273.766 772.301)" fill="#C63B3B"/>
<ellipse id="Ellipse 7_4" cx="361.139" cy="807.45" rx="14.5" ry="18" transform="rotate(-5.31851 361.139 807.45)" fill="#C63B3B"/>
<ellipse id="Ellipse 8_4" cx="405.493" cy="788.713" rx="14.5" ry="18" transform="rotate(-72.5831 405.493 788.713)" fill="#C63B3B"/>
</g>
<g id="Group 10">
<path id="Line 2_5" d="M390.011 665.258L398.756 801.15" stroke="#E98F40" stroke-width="20" stroke-linecap="round"/>
<path id="Line 3_5" d="M443.439 682.299L329.711 726.974" stroke="#FD9D49" stroke-width="20" stroke-linecap="round"/>
<path id="Line 4_5" d="M523.63 818.998L435.096 791.022" stroke="#E98F40" stroke-width="20" stroke-linecap="round"/>
<path id="Line 5_5" d="M485.89 833.164L458.392 728.489" stroke="#FD9D49" stroke-width="20" stroke-linecap="round"/>
<path id="Line 6_5" d="M336.067 764.732L435.405 756.195" stroke="#FD9D49" stroke-width="20" stroke-linecap="round"/>
<ellipse id="Ellipse 5_5" cx="452.669" cy="677.9" rx="14.5" ry="18" transform="rotate(67.9397 452.669 677.9)" fill="#C63B3B"/>
<ellipse id="Ellipse 6_5" cx="399.94" cy="805.666" rx="14.5" ry="18" transform="rotate(-5.31851 399.94 805.666)" fill="#C63B3B"/>
<ellipse id="Ellipse 7_5" cx="487.313" cy="840.815" rx="14.5" ry="18" transform="rotate(-5.31851 487.313 840.815)" fill="#C63B3B"/>
<ellipse id="Ellipse 8_5" cx="531.667" cy="822.078" rx="14.5" ry="18" transform="rotate(-72.5831 531.667 822.078)" fill="#C63B3B"/>
</g>
<g id="Group 3">
<g id="Vector" filter="url(#filter0_d_137_398)">
<path d="M572.246 756.996C577.515 733.672 610.714 733.672 615.983 756.996L624.541 794.874C627.712 808.912 617.05 822.267 602.672 822.267H585.557C571.179 822.267 560.517 808.912 563.688 794.874L572.246 756.996Z" fill="#C63B3B"/>
<path d="M617.816 706.046C617.816 719.326 607.061 730.092 593.794 730.092C580.527 730.092 569.772 719.326 569.772 706.046C569.772 692.766 580.527 682 593.794 682C607.061 682 617.816 692.766 617.816 706.046Z" fill="#C63B3B"/>
<path d="M598.599 810.565C598.599 804.013 603.904 798.702 610.45 798.702C616.995 798.702 622.3 804.013 622.3 810.565V838.137C622.3 844.689 616.995 850 610.45 850C603.904 850 598.599 844.689 598.599 838.137V810.565Z" fill="#C63B3B"/>
<path d="M607.867 764.609C604.517 758.981 606.36 751.7 611.982 748.347C617.605 744.993 624.879 746.837 628.229 752.466L642.328 776.153C645.678 781.781 643.836 789.062 638.213 792.415C632.59 795.769 625.316 793.925 621.966 788.296L607.867 764.609Z" fill="#C63B3B"/>
<path d="M559.362 752.548C562.635 746.874 569.883 744.93 575.551 748.206C581.219 751.482 583.161 758.737 579.889 764.411L566.116 788.289C562.844 793.963 555.596 795.907 549.927 792.631C544.259 789.355 542.317 782.1 545.59 776.427L559.362 752.548Z" fill="#C63B3B"/>
<path d="M565.288 810.565C565.288 804.013 570.594 798.702 577.139 798.702C583.684 798.702 588.99 804.013 588.99 810.565V838.137C588.99 844.689 583.684 850 577.139 850C570.594 850 565.288 844.689 565.288 838.137V810.565Z" fill="#C63B3B"/>
</g>
<g id="Vector_2" filter="url(#filter1_d_137_398)">
<path d="M806.528 756.996C811.85 733.672 845.381 733.672 850.703 756.996L859.346 794.874C862.549 808.912 851.78 822.267 837.259 822.267H819.972C805.451 822.267 794.682 808.912 797.885 794.874L806.528 756.996Z" fill="#C63B3B"/>
<path d="M852.555 706.046C852.555 719.326 841.692 730.092 828.292 730.092C814.892 730.092 804.03 719.326 804.03 706.046C804.03 692.766 814.892 682 828.292 682C841.692 682 852.555 692.766 852.555 706.046Z" fill="#C63B3B"/>
<path d="M833.145 810.565C833.145 804.013 838.504 798.702 845.114 798.702C851.725 798.702 857.083 804.013 857.083 810.565V838.137C857.083 844.689 851.725 850 845.114 850C838.504 850 833.145 844.689 833.145 838.137V810.565Z" fill="#C63B3B"/>
<path d="M842.506 764.609C839.123 758.981 840.983 751.7 846.662 748.347C852.341 744.993 859.688 746.837 863.071 752.466L877.311 776.153C880.695 781.781 878.834 789.062 873.155 792.415C867.476 795.769 860.13 793.925 856.746 788.296L842.506 764.609Z" fill="#C63B3B"/>
<path d="M793.516 752.548C796.821 746.874 804.142 744.93 809.867 748.206C815.591 751.482 817.553 758.737 814.248 764.411L800.337 788.289C797.032 793.963 789.712 795.907 783.987 792.631C778.262 789.355 776.3 782.1 779.606 776.427L793.516 752.548Z" fill="#C63B3B"/>
<path d="M799.501 810.565C799.501 804.013 804.86 798.702 811.47 798.702C818.081 798.702 823.44 804.013 823.44 810.565V838.137C823.44 844.689 818.081 850 811.47 850C804.86 850 799.501 844.689 799.501 838.137V810.565Z" fill="#C63B3B"/>
</g>
<g id="Vector_3" filter="url(#filter2_d_137_398)">
<path d="M689.528 756.996C694.85 733.672 728.381 733.672 733.703 756.996L742.346 794.874C745.549 808.912 734.78 822.267 720.259 822.267H702.972C688.451 822.267 677.682 808.912 680.885 794.874L689.528 756.996Z" fill="#C63B3B"/>
<path d="M735.555 706.046C735.555 719.326 724.692 730.092 711.292 730.092C697.892 730.092 687.03 719.326 687.03 706.046C687.03 692.766 697.892 682 711.292 682C724.692 682 735.555 692.766 735.555 706.046Z" fill="#C63B3B"/>
<path d="M716.145 810.565C716.145 804.013 721.504 798.702 728.114 798.702C734.725 798.702 740.083 804.013 740.083 810.565V838.137C740.083 844.689 734.725 850 728.114 850C721.504 850 716.145 844.689 716.145 838.137V810.565Z" fill="#C63B3B"/>
<path d="M725.506 764.609C722.123 758.981 723.983 751.7 729.662 748.347C735.341 744.993 742.688 746.837 746.071 752.466L760.311 776.153C763.695 781.781 761.834 789.062 756.155 792.415C750.476 795.769 743.13 793.925 739.746 788.296L725.506 764.609Z" fill="#C63B3B"/>
<path d="M676.516 752.548C679.821 746.874 687.142 744.93 692.867 748.206C698.591 751.482 700.553 758.737 697.248 764.411L683.337 788.289C680.032 793.963 672.712 795.907 666.987 792.631C661.262 789.355 659.3 782.1 662.606 776.427L676.516 752.548Z" fill="#C63B3B"/>
<path d="M682.501 810.565C682.501 804.013 687.86 798.702 694.47 798.702C701.081 798.702 706.44 804.013 706.44 810.565V838.137C706.44 844.689 701.081 850 694.47 850C687.86 850 682.501 844.689 682.501 838.137V810.565Z" fill="#C63B3B"/>
</g>
<g id="Vector_4" filter="url(#filter3_d_137_398)">
<path d="M924.246 756.996C929.515 733.672 962.714 733.672 967.983 756.996L976.541 794.874C979.712 808.912 969.05 822.267 954.672 822.267H937.557C923.179 822.267 912.517 808.912 915.688 794.874L924.246 756.996Z" fill="#C63B3B"/>
<path d="M969.816 706.046C969.816 719.326 959.061 730.092 945.794 730.092C932.527 730.092 921.772 719.326 921.772 706.046C921.772 692.766 932.527 682 945.794 682C959.061 682 969.816 692.766 969.816 706.046Z" fill="#C63B3B"/>
<path d="M950.599 810.565C950.599 804.013 955.904 798.702 962.45 798.702C968.995 798.702 974.3 804.013 974.3 810.565V838.137C974.3 844.689 968.995 850 962.45 850C955.904 850 950.599 844.689 950.599 838.137V810.565Z" fill="#C63B3B"/>
<path d="M959.867 764.609C956.517 758.981 958.36 751.7 963.982 748.347C969.605 744.993 976.879 746.837 980.229 752.466L994.328 776.153C997.678 781.781 995.836 789.062 990.213 792.415C984.59 795.769 977.316 793.925 973.966 788.296L959.867 764.609Z" fill="#C63B3B"/>
<path d="M911.362 752.548C914.635 746.874 921.883 744.93 927.551 748.206C933.219 751.482 935.161 758.737 931.889 764.411L918.116 788.289C914.844 793.963 907.596 795.907 901.927 792.631C896.259 789.355 894.317 782.1 897.59 776.427L911.362 752.548Z" fill="#C63B3B"/>
<path d="M917.288 810.565C917.288 804.013 922.594 798.702 929.139 798.702C935.684 798.702 940.99 804.013 940.99 810.565V838.137C940.99 844.689 935.684 850 929.139 850C922.594 850 917.288 844.689 917.288 838.137V810.565Z" fill="#C63B3B"/>
</g>
<g id="Vector_5" filter="url(#filter4_d_137_398)">
<path d="M471.33 793.388C477.548 765.899 516.722 765.899 522.94 793.388L533.038 838.03C536.78 854.575 524.199 870.315 507.233 870.315H487.037C470.071 870.315 457.49 854.575 461.232 838.03L471.33 793.388Z" fill="#E06A6A"/>
<path d="M525.103 733.34C525.103 748.991 512.412 761.679 496.757 761.679C481.102 761.679 468.411 748.991 468.411 733.34C468.411 717.688 481.102 705 496.757 705C512.412 705 525.103 717.688 525.103 733.34Z" fill="#E06A6A"/>
<path d="M502.426 856.523C502.426 848.801 508.687 842.542 516.41 842.542C524.134 842.542 530.395 848.801 530.395 856.523V889.019C530.395 896.741 524.134 903 516.41 903C508.687 903 502.426 896.741 502.426 889.019V856.523Z" fill="#E06A6A"/>
<path d="M513.364 802.361C509.41 795.728 511.584 787.146 518.219 783.194C524.854 779.242 533.437 781.416 537.39 788.049L554.027 815.966C557.98 822.599 555.806 831.18 549.171 835.132C542.537 839.085 533.953 836.911 530 830.278L513.364 802.361Z" fill="#E06A6A"/>
<path d="M456.128 788.146C459.989 781.459 468.542 779.168 475.23 783.029C481.919 786.889 484.21 795.44 480.349 802.127L464.097 830.269C460.235 836.956 451.683 839.248 444.994 835.387C438.306 831.526 436.014 822.975 439.876 816.289L456.128 788.146Z" fill="#E06A6A"/>
<path d="M463.12 856.523C463.12 848.801 469.381 842.542 477.104 842.542C484.827 842.542 491.088 848.801 491.088 856.523V889.019C491.088 896.741 484.827 903 477.104 903C469.381 903 463.12 896.741 463.12 889.019V856.523Z" fill="#E06A6A"/>
</g>
<g id="Vector_6" filter="url(#filter5_d_137_398)">
<path d="M747.33 793.388C753.548 765.899 792.722 765.899 798.94 793.388L809.038 838.03C812.78 854.575 800.199 870.315 783.233 870.315H763.037C746.071 870.315 733.49 854.575 737.232 838.03L747.33 793.388Z" fill="#E06A6A"/>
<path d="M801.103 733.34C801.103 748.991 788.412 761.679 772.757 761.679C757.102 761.679 744.411 748.991 744.411 733.34C744.411 717.688 757.102 705 772.757 705C788.412 705 801.103 717.688 801.103 733.34Z" fill="#E06A6A"/>
<path d="M778.426 856.523C778.426 848.801 784.687 842.542 792.41 842.542C800.134 842.542 806.395 848.801 806.395 856.523V889.019C806.395 896.741 800.134 903 792.41 903C784.687 903 778.426 896.741 778.426 889.019V856.523Z" fill="#E06A6A"/>
<path d="M789.364 802.361C785.41 795.728 787.584 787.146 794.219 783.194C800.854 779.242 809.437 781.416 813.39 788.049L830.027 815.966C833.98 822.599 831.806 831.18 825.171 835.132C818.537 839.085 809.953 836.911 806 830.278L789.364 802.361Z" fill="#E06A6A"/>
<path d="M732.128 788.146C735.989 781.459 744.542 779.168 751.23 783.029C757.919 786.889 760.21 795.44 756.349 802.127L740.097 830.269C736.235 836.956 727.683 839.248 720.994 835.387C714.306 831.526 712.014 822.975 715.876 816.289L732.128 788.146Z" fill="#E06A6A"/>
<path d="M739.12 856.523C739.12 848.801 745.381 842.542 753.104 842.542C760.827 842.542 767.088 848.801 767.088 856.523V889.019C767.088 896.741 760.827 903 753.104 903C745.381 903 739.12 896.741 739.12 889.019V856.523Z" fill="#E06A6A"/>
</g>
<g id="Vector_7" filter="url(#filter6_d_137_398)">
<path d="M609.33 793.388C615.548 765.899 654.722 765.899 660.94 793.388L671.038 838.03C674.78 854.575 662.199 870.315 645.233 870.315H625.037C608.071 870.315 595.49 854.575 599.232 838.03L609.33 793.388Z" fill="#E06A6A"/>
<path d="M663.103 733.34C663.103 748.991 650.412 761.679 634.757 761.679C619.102 761.679 606.411 748.991 606.411 733.34C606.411 717.688 619.102 705 634.757 705C650.412 705 663.103 717.688 663.103 733.34Z" fill="#E06A6A"/>
<path d="M640.426 856.523C640.426 848.801 646.687 842.542 654.41 842.542C662.134 842.542 668.395 848.801 668.395 856.523V889.019C668.395 896.741 662.134 903 654.41 903C646.687 903 640.426 896.741 640.426 889.019V856.523Z" fill="#E06A6A"/>
<path d="M651.364 802.361C647.41 795.728 649.584 787.146 656.219 783.194C662.854 779.242 671.437 781.416 675.39 788.049L692.027 815.966C695.98 822.599 693.806 831.18 687.171 835.132C680.537 839.085 671.953 836.911 668 830.278L651.364 802.361Z" fill="#E06A6A"/>
<path d="M594.128 788.146C597.989 781.459 606.542 779.168 613.23 783.029C619.919 786.889 622.21 795.44 618.349 802.127L602.097 830.269C598.235 836.956 589.683 839.248 582.994 835.387C576.306 831.526 574.014 822.975 577.876 816.289L594.128 788.146Z" fill="#E06A6A"/>
<path d="M601.12 856.523C601.12 848.801 607.381 842.542 615.104 842.542C622.827 842.542 629.088 848.801 629.088 856.523V889.019C629.088 896.741 622.827 903 615.104 903C607.381 903 601.12 896.741 601.12 889.019V856.523Z" fill="#E06A6A"/>
</g>
<g id="Vector_8" filter="url(#filter7_d_137_398)">
<path d="M667.33 839.388C673.548 811.899 712.722 811.899 718.94 839.388L729.038 884.03C732.78 900.575 720.199 916.315 703.233 916.315H683.037C666.071 916.315 653.49 900.575 657.232 884.03L667.33 839.388Z" fill="#FB8D8D"/>
<path d="M721.103 779.34C721.103 794.991 708.412 807.679 692.757 807.679C677.102 807.679 664.411 794.991 664.411 779.34C664.411 763.688 677.102 751 692.757 751C708.412 751 721.103 763.688 721.103 779.34Z" fill="#FB8D8D"/>
<path d="M698.426 902.523C698.426 894.801 704.687 888.542 712.41 888.542C720.134 888.542 726.395 894.801 726.395 902.523V935.019C726.395 942.741 720.134 949 712.41 949C704.687 949 698.426 942.741 698.426 935.019V902.523Z" fill="#FB8D8D"/>
<path d="M709.364 848.361C705.41 841.728 707.584 833.146 714.219 829.194C720.854 825.242 729.437 827.416 733.39 834.049L750.027 861.966C753.98 868.599 751.806 877.18 745.171 881.132C738.537 885.085 729.953 882.911 726 876.278L709.364 848.361Z" fill="#FB8D8D"/>
<path d="M652.128 834.146C655.989 827.459 664.542 825.168 671.23 829.029C677.919 832.889 680.21 841.44 676.349 848.127L660.097 876.269C656.235 882.956 647.683 885.248 640.994 881.387C634.306 877.526 632.014 868.975 635.876 862.289L652.128 834.146Z" fill="#FB8D8D"/>
<path d="M659.12 902.523C659.12 894.801 665.381 888.542 673.104 888.542C680.827 888.542 687.088 894.801 687.088 902.523V935.019C687.088 942.741 680.827 949 673.104 949C665.381 949 659.12 942.741 659.12 935.019V902.523Z" fill="#FB8D8D"/>
</g>
<g id="Vector_9" filter="url(#filter8_d_137_398)">
<path d="M885.33 793.388C891.548 765.899 930.722 765.899 936.94 793.388L947.038 838.03C950.78 854.575 938.199 870.315 921.233 870.315H901.037C884.071 870.315 871.49 854.575 875.232 838.03L885.33 793.388Z" fill="#E06A6A"/>
<path d="M939.103 733.34C939.103 748.991 926.412 761.679 910.757 761.679C895.102 761.679 882.411 748.991 882.411 733.34C882.411 717.688 895.102 705 910.757 705C926.412 705 939.103 717.688 939.103 733.34Z" fill="#E06A6A"/>
<path d="M916.426 856.523C916.426 848.801 922.687 842.542 930.41 842.542C938.134 842.542 944.395 848.801 944.395 856.523V889.019C944.395 896.741 938.134 903 930.41 903C922.687 903 916.426 896.741 916.426 889.019V856.523Z" fill="#E06A6A"/>
<path d="M927.364 802.361C923.41 795.728 925.584 787.146 932.219 783.194C938.854 779.242 947.437 781.416 951.39 788.049L968.027 815.966C971.98 822.599 969.806 831.18 963.171 835.132C956.537 839.085 947.953 836.911 944 830.278L927.364 802.361Z" fill="#E06A6A"/>
<path d="M870.128 788.146C873.989 781.459 882.542 779.168 889.23 783.029C895.919 786.889 898.21 795.44 894.349 802.127L878.097 830.269C874.235 836.956 865.683 839.248 858.994 835.387C852.306 831.526 850.014 822.975 853.876 816.289L870.128 788.146Z" fill="#E06A6A"/>
<path d="M877.12 856.523C877.12 848.801 883.381 842.542 891.104 842.542C898.827 842.542 905.088 848.801 905.088 856.523V889.019C905.088 896.741 898.827 903 891.104 903C883.381 903 877.12 896.741 877.12 889.019V856.523Z" fill="#E06A6A"/>
</g>
<g id="Vector_10" filter="url(#filter9_d_137_398)">
<path d="M943.33 839.388C949.548 811.899 988.722 811.899 994.94 839.388L1005.04 884.03C1008.78 900.575 996.199 916.315 979.233 916.315H959.037C942.071 916.315 929.49 900.575 933.232 884.03L943.33 839.388Z" fill="#FB8D8D"/>
<path d="M997.103 779.34C997.103 794.991 984.412 807.679 968.757 807.679C953.102 807.679 940.411 794.991 940.411 779.34C940.411 763.688 953.102 751 968.757 751C984.412 751 997.103 763.688 997.103 779.34Z" fill="#FB8D8D"/>
<path d="M974.426 902.523C974.426 894.801 980.687 888.542 988.41 888.542C996.134 888.542 1002.39 894.801 1002.39 902.523V935.019C1002.39 942.741 996.134 949 988.41 949C980.687 949 974.426 942.741 974.426 935.019V902.523Z" fill="#FB8D8D"/>
<path d="M985.364 848.361C981.41 841.728 983.584 833.146 990.219 829.194C996.854 825.242 1005.44 827.416 1009.39 834.049L1026.03 861.966C1029.98 868.599 1027.81 877.18 1021.17 881.132C1014.54 885.085 1005.95 882.911 1002 876.278L985.364 848.361Z" fill="#FB8D8D"/>
<path d="M928.128 834.146C931.989 827.459 940.542 825.168 947.23 829.029C953.919 832.889 956.21 841.44 952.349 848.127L936.097 876.269C932.235 882.956 923.683 885.248 916.994 881.387C910.306 877.526 908.014 868.975 911.876 862.289L928.128 834.146Z" fill="#FB8D8D"/>
<path d="M935.12 902.523C935.12 894.801 941.381 888.542 949.104 888.542C956.827 888.542 963.088 894.801 963.088 902.523V935.019C963.088 942.741 956.827 949 949.104 949C941.381 949 935.12 942.741 935.12 935.019V902.523Z" fill="#FB8D8D"/>
</g>
<g id="Vector_11" filter="url(#filter10_d_137_398)">
<path d="M529.33 839.388C535.548 811.899 574.722 811.899 580.94 839.388L591.038 884.03C594.78 900.575 582.199 916.315 565.233 916.315H545.037C528.071 916.315 515.49 900.575 519.232 884.03L529.33 839.388Z" fill="#FB8D8D"/>
<path d="M583.103 779.34C583.103 794.991 570.412 807.679 554.757 807.679C539.102 807.679 526.411 794.991 526.411 779.34C526.411 763.688 539.102 751 554.757 751C570.412 751 583.103 763.688 583.103 779.34Z" fill="#FB8D8D"/>
<path d="M560.426 902.523C560.426 894.801 566.687 888.542 574.41 888.542C582.134 888.542 588.395 894.801 588.395 902.523V935.019C588.395 942.741 582.134 949 574.41 949C566.687 949 560.426 942.741 560.426 935.019V902.523Z" fill="#FB8D8D"/>
<path d="M571.364 848.361C567.41 841.728 569.584 833.146 576.219 829.194C582.854 825.242 591.437 827.416 595.39 834.049L612.027 861.966C615.98 868.599 613.806 877.18 607.171 881.132C600.537 885.085 591.953 882.911 588 876.278L571.364 848.361Z" fill="#FB8D8D"/>
<path d="M514.128 834.146C517.989 827.459 526.542 825.168 533.23 829.029C539.919 832.889 542.21 841.44 538.349 848.127L522.097 876.269C518.235 882.956 509.683 885.248 502.994 881.387C496.306 877.526 494.014 868.975 497.876 862.289L514.128 834.146Z" fill="#FB8D8D"/>
<path d="M521.12 902.523C521.12 894.801 527.381 888.542 535.104 888.542C542.827 888.542 549.088 894.801 549.088 902.523V935.019C549.088 942.741 542.827 949 535.104 949C527.381 949 521.12 942.741 521.12 935.019V902.523Z" fill="#FB8D8D"/>
</g>
<g id="Vector_12" filter="url(#filter11_d_137_398)">
<path d="M805.33 839.388C811.548 811.899 850.722 811.899 856.94 839.388L867.038 884.03C870.78 900.575 858.199 916.315 841.233 916.315H821.037C804.071 916.315 791.49 900.575 795.232 884.03L805.33 839.388Z" fill="#FB8D8D"/>
<path d="M859.103 779.34C859.103 794.991 846.412 807.679 830.757 807.679C815.102 807.679 802.411 794.991 802.411 779.34C802.411 763.688 815.102 751 830.757 751C846.412 751 859.103 763.688 859.103 779.34Z" fill="#FB8D8D"/>
<path d="M836.426 902.523C836.426 894.801 842.687 888.542 850.41 888.542C858.134 888.542 864.395 894.801 864.395 902.523V935.019C864.395 942.741 858.134 949 850.41 949C842.687 949 836.426 942.741 836.426 935.019V902.523Z" fill="#FB8D8D"/>
<path d="M847.364 848.361C843.41 841.728 845.584 833.146 852.219 829.194C858.854 825.242 867.437 827.416 871.39 834.049L888.027 861.966C891.98 868.599 889.806 877.18 883.171 881.132C876.537 885.085 867.953 882.911 864 876.278L847.364 848.361Z" fill="#FB8D8D"/>
<path d="M790.128 834.146C793.989 827.459 802.542 825.168 809.23 829.029C815.919 832.889 818.21 841.44 814.349 848.127L798.097 876.269C794.235 882.956 785.683 885.248 778.994 881.387C772.306 877.526 770.014 868.975 773.876 862.289L790.128 834.146Z" fill="#FB8D8D"/>
<path d="M797.12 902.523C797.12 894.801 803.381 888.542 811.104 888.542C818.827 888.542 825.088 894.801 825.088 902.523V935.019C825.088 942.741 818.827 949 811.104 949C803.381 949 797.12 942.741 797.12 935.019V902.523Z" fill="#FB8D8D"/>
</g>
</g>
</g>
<defs>
<filter id="filter0_d_137_398" x="540" y="682" width="108" height="176" filterUnits="userSpaceOnUse" color-interpolation-filters="sRGB">
<feFlood flood-opacity="0" result="BackgroundImageFix"/>
<feColorMatrix in="SourceAlpha" type="matrix" values="0 0 0 0 0 0 0 0 0 0 0 0 0 0 0 0 0 0 127 0" result="hardAlpha"/>
<feOffset dy="4"/>
<feGaussianBlur stdDeviation="2"/>
<feComposite in2="hardAlpha" operator="out"/>
<feColorMatrix type="matrix" values="0 0 0 0 0 0 0 0 0 0 0 0 0 0 0 0 0 0 0.25 0"/>
<feBlend mode="normal" in2="BackgroundImageFix" result="effect1_dropShadow_137_398"/>
<feBlend mode="normal" in="SourceGraphic" in2="effect1_dropShadow_137_398" result="shape"/>
</filter>
<filter id="filter1_d_137_398" x="774" y="682" width="109" height="176" filterUnits="userSpaceOnUse" color-interpolation-filters="sRGB">
<feFlood flood-opacity="0" result="BackgroundImageFix"/>
<feColorMatrix in="SourceAlpha" type="matrix" values="0 0 0 0 0 0 0 0 0 0 0 0 0 0 0 0 0 0 127 0" result="hardAlpha"/>
<feOffset dy="4"/>
<feGaussianBlur stdDeviation="2"/>
<feComposite in2="hardAlpha" operator="out"/>
<feColorMatrix type="matrix" values="0 0 0 0 0 0 0 0 0 0 0 0 0 0 0 0 0 0 0.25 0"/>
<feBlend mode="normal" in2="BackgroundImageFix" result="effect1_dropShadow_137_398"/>
<feBlend mode="normal" in="SourceGraphic" in2="effect1_dropShadow_137_398" result="shape"/>
</filter>
<filter id="filter2_d_137_398" x="657" y="682" width="109" height="176" filterUnits="userSpaceOnUse" color-interpolation-filters="sRGB">
<feFlood flood-opacity="0" result="BackgroundImageFix"/>
<feColorMatrix in="SourceAlpha" type="matrix" values="0 0 0 0 0 0 0 0 0 0 0 0 0 0 0 0 0 0 127 0" result="hardAlpha"/>
<feOffset dy="4"/>
<feGaussianBlur stdDeviation="2"/>
<feComposite in2="hardAlpha" operator="out"/>
<feColorMatrix type="matrix" values="0 0 0 0 0 0 0 0 0 0 0 0 0 0 0 0 0 0 0.25 0"/>
<feBlend mode="normal" in2="BackgroundImageFix" result="effect1_dropShadow_137_398"/>
<feBlend mode="normal" in="SourceGraphic" in2="effect1_dropShadow_137_398" result="shape"/>
</filter>
<filter id="filter3_d_137_398" x="892" y="682" width="108" height="176" filterUnits="userSpaceOnUse" color-interpolation-filters="sRGB">
<feFlood flood-opacity="0" result="BackgroundImageFix"/>
<feColorMatrix in="SourceAlpha" type="matrix" values="0 0 0 0 0 0 0 0 0 0 0 0 0 0 0 0 0 0 127 0" result="hardAlpha"/>
<feOffset dy="4"/>
<feGaussianBlur stdDeviation="2"/>
<feComposite in2="hardAlpha" operator="out"/>
<feColorMatrix type="matrix" values="0 0 0 0 0 0 0 0 0 0 0 0 0 0 0 0 0 0 0.25 0"/>
<feBlend mode="normal" in2="BackgroundImageFix" result="effect1_dropShadow_137_398"/>
<feBlend mode="normal" in="SourceGraphic" in2="effect1_dropShadow_137_398" result="shape"/>
</filter>
<filter id="filter4_d_137_398" x="434" y="705" width="126" height="206" filterUnits="userSpaceOnUse" color-interpolation-filters="sRGB">
<feFlood flood-opacity="0" result="BackgroundImageFix"/>
<feColorMatrix in="SourceAlpha" type="matrix" values="0 0 0 0 0 0 0 0 0 0 0 0 0 0 0 0 0 0 127 0" result="hardAlpha"/>
<feOffset dy="4"/>
<feGaussianBlur stdDeviation="2"/>
<feComposite in2="hardAlpha" operator="out"/>
<feColorMatrix type="matrix" values="0 0 0 0 0 0 0 0 0 0 0 0 0 0 0 0 0 0 0.25 0"/>
<feBlend mode="normal" in2="BackgroundImageFix" result="effect1_dropShadow_137_398"/>
<feBlend mode="normal" in="SourceGraphic" in2="effect1_dropShadow_137_398" result="shape"/>
</filter>
<filter id="filter5_d_137_398" x="710" y="705" width="126" height="206" filterUnits="userSpaceOnUse" color-interpolation-filters="sRGB">
<feFlood flood-opacity="0" result="BackgroundImageFix"/>
<feColorMatrix in="SourceAlpha" type="matrix" values="0 0 0 0 0 0 0 0 0 0 0 0 0 0 0 0 0 0 127 0" result="hardAlpha"/>
<feOffset dy="4"/>
<feGaussianBlur stdDeviation="2"/>
<feComposite in2="hardAlpha" operator="out"/>
<feColorMatrix type="matrix" values="0 0 0 0 0 0 0 0 0 0 0 0 0 0 0 0 0 0 0.25 0"/>
<feBlend mode="normal" in2="BackgroundImageFix" result="effect1_dropShadow_137_398"/>
<feBlend mode="normal" in="SourceGraphic" in2="effect1_dropShadow_137_398" result="shape"/>
</filter>
<filter id="filter6_d_137_398" x="572" y="705" width="126" height="206" filterUnits="userSpaceOnUse" color-interpolation-filters="sRGB">
<feFlood flood-opacity="0" result="BackgroundImageFix"/>
<feColorMatrix in="SourceAlpha" type="matrix" values="0 0 0 0 0 0 0 0 0 0 0 0 0 0 0 0 0 0 127 0" result="hardAlpha"/>
<feOffset dy="4"/>
<feGaussianBlur stdDeviation="2"/>
<feComposite in2="hardAlpha" operator="out"/>
<feColorMatrix type="matrix" values="0 0 0 0 0 0 0 0 0 0 0 0 0 0 0 0 0 0 0.25 0"/>
<feBlend mode="normal" in2="BackgroundImageFix" result="effect1_dropShadow_137_398"/>
<feBlend mode="normal" in="SourceGraphic" in2="effect1_dropShadow_137_398" result="shape"/>
</filter>
<filter id="filter7_d_137_398" x="630" y="751" width="126" height="206" filterUnits="userSpaceOnUse" color-interpolation-filters="sRGB">
<feFlood flood-opacity="0" result="BackgroundImageFix"/>
<feColorMatrix in="SourceAlpha" type="matrix" values="0 0 0 0 0 0 0 0 0 0 0 0 0 0 0 0 0 0 127 0" result="hardAlpha"/>
<feOffset dy="4"/>
<feGaussianBlur stdDeviation="2"/>
<feComposite in2="hardAlpha" operator="out"/>
<feColorMatrix type="matrix" values="0 0 0 0 0 0 0 0 0 0 0 0 0 0 0 0 0 0 0.25 0"/>
<feBlend mode="normal" in2="BackgroundImageFix" result="effect1_dropShadow_137_398"/>
<feBlend mode="normal" in="SourceGraphic" in2="effect1_dropShadow_137_398" result="shape"/>
</filter>
<filter id="filter8_d_137_398" x="848" y="705" width="126" height="206" filterUnits="userSpaceOnUse" color-interpolation-filters="sRGB">
<feFlood flood-opacity="0" result="BackgroundImageFix"/>
<feColorMatrix in="SourceAlpha" type="matrix" values="0 0 0 0 0 0 0 0 0 0 0 0 0 0 0 0 0 0 127 0" result="hardAlpha"/>
<feOffset dy="4"/>
<feGaussianBlur stdDeviation="2"/>
<feComposite in2="hardAlpha" operator="out"/>
<feColorMatrix type="matrix" values="0 0 0 0 0 0 0 0 0 0 0 0 0 0 0 0 0 0 0.25 0"/>
<feBlend mode="normal" in2="BackgroundImageFix" result="effect1_dropShadow_137_398"/>
<feBlend mode="normal" in="SourceGraphic" in2="effect1_dropShadow_137_398" result="shape"/>
</filter>
<filter id="filter9_d_137_398" x="906" y="751" width="126" height="206" filterUnits="userSpaceOnUse" color-interpolation-filters="sRGB">
<feFlood flood-opacity="0" result="BackgroundImageFix"/>
<feColorMatrix in="SourceAlpha" type="matrix" values="0 0 0 0 0 0 0 0 0 0 0 0 0 0 0 0 0 0 127 0" result="hardAlpha"/>
<feOffset dy="4"/>
<feGaussianBlur stdDeviation="2"/>
<feComposite in2="hardAlpha" operator="out"/>
<feColorMatrix type="matrix" values="0 0 0 0 0 0 0 0 0 0 0 0 0 0 0 0 0 0 0.25 0"/>
<feBlend mode="normal" in2="BackgroundImageFix" result="effect1_dropShadow_137_398"/>
<feBlend mode="normal" in="SourceGraphic" in2="effect1_dropShadow_137_398" result="shape"/>
</filter>
<filter id="filter10_d_137_398" x="492" y="751" width="126" height="206" filterUnits="userSpaceOnUse" color-interpolation-filters="sRGB">
<feFlood flood-opacity="0" result="BackgroundImageFix"/>
<feColorMatrix in="SourceAlpha" type="matrix" values="0 0 0 0 0 0 0 0 0 0 0 0 0 0 0 0 0 0 127 0" result="hardAlpha"/>
<feOffset dy="4"/>
<feGaussianBlur stdDeviation="2"/>
<feComposite in2="hardAlpha" operator="out"/>
<feColorMatrix type="matrix" values="0 0 0 0 0 0 0 0 0 0 0 0 0 0 0 0 0 0 0.25 0"/>
<feBlend mode="normal" in2="BackgroundImageFix" result="effect1_dropShadow_137_398"/>
<feBlend mode="normal" in="SourceGraphic" in2="effect1_dropShadow_137_398" result="shape"/>
</filter>
<filter id="filter11_d_137_398" x="768" y="751" width="126" height="206" filterUnits="userSpaceOnUse" color-interpolation-filters="sRGB">
<feFlood flood-opacity="0" result="BackgroundImageFix"/>
<feColorMatrix in="SourceAlpha" type="matrix" values="0 0 0 0 0 0 0 0 0 0 0 0 0 0 0 0 0 0 127 0" result="hardAlpha"/>
<feOffset dy="4"/>
<feGaussianBlur stdDeviation="2"/>
<feComposite in2="hardAlpha" operator="out"/>
<feColorMatrix type="matrix" values="0 0 0 0 0 0 0 0 0 0 0 0 0 0 0 0 0 0 0.25 0"/>
<feBlend mode="normal" in2="BackgroundImageFix" result="effect1_dropShadow_137_398"/>
<feBlend mode="normal" in="SourceGraphic" in2="effect1_dropShadow_137_398" result="shape"/>
</filter>
<clipPath id="clip0_137_398">
<rect width="1440" height="1024" fill="white"/>
</clipPath>
</defs>
</svg>
