<svg width="1440" height="1024" viewBox="0 0 1440 1024" fill="none" xmlns="http://www.w3.org/2000/svg">
<g id="trick3-yes" clip-path="url(#clip0_138_801)">
<rect width="1440" height="1024" fill="#333148"/>
<path id="part 5" d="M47.096 132.12V60.024H61.688L62.264 71.448L59.384 70.584C59.832 68.536 61.048 66.648 63.032 64.92C65.016 63.192 67.512 61.784 70.52 60.696C73.592 59.608 76.856 59.064 80.312 59.064C85.304 59.064 89.688 60.216 93.464 62.52C97.24 64.76 100.184 67.864 102.296 71.832C104.472 75.736 105.56 80.28 105.56 85.464C105.56 90.584 104.472 95.128 102.296 99.096C100.184 103.064 97.208 106.2 93.368 108.504C89.528 110.744 85.112 111.864 80.12 111.864C76.664 111.864 73.432 111.288 70.424 110.136C67.416 108.984 64.888 107.48 62.84 105.624C60.856 103.768 59.576 101.816 59 99.768L62.552 98.424V132.12H47.096ZM76.376 98.904C79.256 98.904 81.752 98.36 83.864 97.272C85.976 96.12 87.608 94.552 88.76 92.568C89.976 90.584 90.584 88.216 90.584 85.464C90.584 82.776 89.976 80.44 88.76 78.456C87.608 76.408 85.976 74.84 83.864 73.752C81.816 72.6 79.32 72.024 76.376 72.024C73.496 72.024 70.968 72.568 68.792 73.656C66.68 74.744 65.016 76.312 63.8 78.36C62.648 80.408 62.072 82.776 62.072 85.464C62.072 88.216 62.648 90.584 63.8 92.568C65.016 94.552 66.68 96.12 68.792 97.272C70.968 98.36 73.496 98.904 76.376 98.904ZM144.211 111.864C139.155 111.864 134.739 110.744 130.963 108.504C127.187 106.264 124.211 103.16 122.035 99.192C119.923 95.16 118.867 90.584 118.867 85.464C118.867 80.28 119.955 75.704 122.131 71.736C124.307 67.768 127.315 64.664 131.155 62.424C135.059 60.12 139.539 58.968 144.595 58.968C147.475 58.968 150.131 59.352 152.563 60.12C154.995 60.824 157.107 61.816 158.899 63.096C160.755 64.376 162.259 65.784 163.411 67.32C164.627 68.856 165.427 70.456 165.811 72.12H162.451V60.024H177.619V111H162.163V97.944L165.427 98.424C165.043 100.088 164.243 101.72 163.027 103.32C161.811 104.92 160.243 106.36 158.323 107.64C156.403 108.92 154.227 109.944 151.795 110.712C149.427 111.48 146.899 111.864 144.211 111.864ZM148.339 98.904C151.219 98.904 153.715 98.36 155.827 97.272C158.003 96.184 159.667 94.648 160.819 92.664C162.035 90.616 162.643 88.216 162.643 85.464C162.643 82.776 162.035 80.44 160.819 78.456C159.667 76.408 158.003 74.808 155.827 73.656C153.715 72.504 151.219 71.928 148.339 71.928C145.459 71.928 142.963 72.504 140.851 73.656C138.739 74.808 137.075 76.408 135.859 78.456C134.707 80.44 134.131 82.776 134.131 85.464C134.131 88.216 134.707 90.616 135.859 92.664C137.075 94.648 138.739 96.184 140.851 97.272C142.963 98.36 145.459 98.904 148.339 98.904ZM201.315 111V60.024H215.907L216.579 77.592L212.931 75.768C213.763 72.632 215.203 69.816 217.251 67.32C219.363 64.76 221.763 62.744 224.451 61.272C227.203 59.736 230.115 58.968 233.187 58.968C234.851 58.968 236.419 59.128 237.891 59.448C239.427 59.768 240.739 60.184 241.827 60.696L237.603 77.496C236.643 76.792 235.331 76.248 233.667 75.864C232.067 75.48 230.435 75.288 228.771 75.288C226.915 75.288 225.219 75.608 223.683 76.248C222.211 76.824 220.963 77.656 219.939 78.744C218.915 79.768 218.115 80.952 217.539 82.296C217.027 83.64 216.771 85.08 216.771 86.616V111H201.315ZM265.932 111V46.008H281.292V111H265.932ZM254.604 73.464V60.024H294.252V73.464H254.604ZM370.984 111.672C365.736 111.672 360.904 110.648 356.488 108.6C352.072 106.552 348.392 103.768 345.448 100.248L354.088 90.168C356.712 92.792 359.368 94.744 362.056 96.024C364.744 97.24 367.56 97.848 370.504 97.848C372.936 97.848 375.048 97.432 376.84 96.6C378.696 95.704 380.136 94.488 381.16 92.952C382.248 91.416 382.792 89.688 382.792 87.768C382.792 85.784 382.248 84.056 381.16 82.584C380.136 81.048 378.696 79.832 376.84 78.936C375.048 78.04 372.968 77.592 370.6 77.592C368.552 77.592 366.664 77.784 364.936 78.168C363.208 78.552 361.608 79.064 360.136 79.704C358.664 80.344 357.192 81.08 355.72 81.912L348.808 72.888L352.936 43.224H393.064V56.952H360.712L364.936 51.576L361.768 72.888L356.008 70.968C357.288 69.88 358.888 68.92 360.808 68.088C362.728 67.256 364.808 66.584 367.048 66.072C369.352 65.496 371.624 65.208 373.864 65.208C378.344 65.208 382.376 66.168 385.96 68.088C389.544 70.008 392.392 72.696 394.504 76.152C396.68 79.608 397.768 83.608 397.768 88.152C397.768 92.568 396.584 96.568 394.216 100.152C391.848 103.672 388.648 106.488 384.616 108.6C380.648 110.648 376.104 111.672 370.984 111.672Z" fill="white"/>
<rect id="Rectangle 7" x="-7" y="477" width="1567" height="626" fill="#211F2F"/>
<rect id="Rectangle 26" x="854" y="232" width="279" height="425" rx="25" fill="#6A94E0"/>
<path id="Polygon 2" d="M834.384 434.306C840.428 422.003 858.914 425.761 859.151 439.34L862.384 625.135C862.53 633.51 854.733 639.957 846.487 638.281L760.565 620.816C752.318 619.14 747.968 610.223 751.696 602.635L834.384 434.306Z" fill="#3E5068"/>
<path id="Polygon 3" d="M1155.62 434.306C1149.57 422.003 1131.09 425.761 1130.85 439.34L1127.62 625.135C1127.47 633.51 1135.27 639.957 1143.51 638.281L1229.44 620.816C1237.68 619.14 1242.03 610.223 1238.31 602.635L1155.62 434.306Z" fill="#3E5068"/>
<path id="Polygon 5" d="M1008.63 494.046C1005.42 480.801 986.582 480.801 983.367 494.046L939.279 675.684C937.292 683.867 943.491 691.75 951.912 691.75L1040.09 691.75C1048.51 691.75 1054.71 683.867 1052.72 675.684L1008.63 494.046Z" fill="#3E5068"/>
<path id="Polygon 4" d="M977.409 65.7989C985.403 54.9692 1001.6 54.9692 1009.59 65.7989L1134.95 235.622C1144.69 248.826 1135.27 267.5 1118.86 267.5H868.144C851.733 267.5 842.307 248.826 852.053 235.622L977.409 65.7989Z" fill="#3E5068"/>
<g id="Group 3">
<g id="Vector" filter="url(#filter0_d_138_801)">
<path d="M582.246 685.996C587.515 662.672 620.714 662.672 625.983 685.996L634.541 723.874C637.712 737.912 627.05 751.267 612.672 751.267H595.557C581.179 751.267 570.517 737.912 573.688 723.874L582.246 685.996Z" fill="#C63B3B"/>
<path d="M627.816 635.046C627.816 648.326 617.061 659.092 603.794 659.092C590.527 659.092 579.772 648.326 579.772 635.046C579.772 621.766 590.527 611 603.794 611C617.061 611 627.816 621.766 627.816 635.046Z" fill="#C63B3B"/>
<path d="M608.599 739.565C608.599 733.013 613.904 727.702 620.45 727.702C626.995 727.702 632.3 733.013 632.3 739.565V767.137C632.3 773.689 626.995 779 620.45 779C613.904 779 608.599 773.689 608.599 767.137V739.565Z" fill="#C63B3B"/>
<path d="M617.867 693.609C614.517 687.981 616.36 680.7 621.982 677.347C627.605 673.993 634.879 675.837 638.229 681.466L652.328 705.153C655.678 710.781 653.836 718.062 648.213 721.415C642.59 724.769 635.316 722.925 631.966 717.296L617.867 693.609Z" fill="#C63B3B"/>
<path d="M569.362 681.548C572.635 675.874 579.883 673.93 585.551 677.206C591.219 680.482 593.161 687.737 589.889 693.411L576.116 717.289C572.844 722.963 565.596 724.907 559.927 721.631C554.259 718.355 552.317 711.1 555.59 705.427L569.362 681.548Z" fill="#C63B3B"/>
<path d="M575.288 739.565C575.288 733.013 580.594 727.702 587.139 727.702C593.684 727.702 598.99 733.013 598.99 739.565V767.137C598.99 773.689 593.684 779 587.139 779C580.594 779 575.288 773.689 575.288 767.137V739.565Z" fill="#C63B3B"/>
</g>
<g id="Vector_2" filter="url(#filter1_d_138_801)">
<path d="M816.528 685.996C821.85 662.672 855.381 662.672 860.703 685.996L869.346 723.874C872.549 737.912 861.78 751.267 847.259 751.267H829.972C815.451 751.267 804.682 737.912 807.885 723.874L816.528 685.996Z" fill="#C63B3B"/>
<path d="M862.555 635.046C862.555 648.326 851.692 659.092 838.292 659.092C824.892 659.092 814.03 648.326 814.03 635.046C814.03 621.766 824.892 611 838.292 611C851.692 611 862.555 621.766 862.555 635.046Z" fill="#C63B3B"/>
<path d="M843.145 739.565C843.145 733.013 848.504 727.702 855.114 727.702C861.725 727.702 867.083 733.013 867.083 739.565V767.137C867.083 773.689 861.725 779 855.114 779C848.504 779 843.145 773.689 843.145 767.137V739.565Z" fill="#C63B3B"/>
<path d="M852.506 693.609C849.123 687.981 850.983 680.7 856.662 677.347C862.341 673.993 869.688 675.837 873.071 681.466L887.311 705.153C890.695 710.781 888.834 718.062 883.155 721.415C877.476 724.769 870.13 722.925 866.746 717.296L852.506 693.609Z" fill="#C63B3B"/>
<path d="M803.516 681.548C806.821 675.874 814.142 673.93 819.867 677.206C825.591 680.482 827.553 687.737 824.248 693.411L810.337 717.289C807.032 722.963 799.712 724.907 793.987 721.631C788.262 718.355 786.3 711.1 789.606 705.427L803.516 681.548Z" fill="#C63B3B"/>
<path d="M809.501 739.565C809.501 733.013 814.86 727.702 821.47 727.702C828.081 727.702 833.44 733.013 833.44 739.565V767.137C833.44 773.689 828.081 779 821.47 779C814.86 779 809.501 773.689 809.501 767.137V739.565Z" fill="#C63B3B"/>
</g>
<g id="Vector_3" filter="url(#filter2_d_138_801)">
<path d="M699.528 685.996C704.85 662.672 738.381 662.672 743.703 685.996L752.346 723.874C755.549 737.912 744.78 751.267 730.259 751.267H712.972C698.451 751.267 687.682 737.912 690.885 723.874L699.528 685.996Z" fill="#C63B3B"/>
<path d="M745.555 635.046C745.555 648.326 734.692 659.092 721.292 659.092C707.892 659.092 697.03 648.326 697.03 635.046C697.03 621.766 707.892 611 721.292 611C734.692 611 745.555 621.766 745.555 635.046Z" fill="#C63B3B"/>
<path d="M726.145 739.565C726.145 733.013 731.504 727.702 738.114 727.702C744.725 727.702 750.083 733.013 750.083 739.565V767.137C750.083 773.689 744.725 779 738.114 779C731.504 779 726.145 773.689 726.145 767.137V739.565Z" fill="#C63B3B"/>
<path d="M735.506 693.609C732.123 687.981 733.983 680.7 739.662 677.347C745.341 673.993 752.688 675.837 756.071 681.466L770.311 705.153C773.695 710.781 771.834 718.062 766.155 721.415C760.476 724.769 753.13 722.925 749.746 717.296L735.506 693.609Z" fill="#C63B3B"/>
<path d="M686.516 681.548C689.821 675.874 697.142 673.93 702.867 677.206C708.591 680.482 710.553 687.737 707.248 693.411L693.337 717.289C690.032 722.963 682.712 724.907 676.987 721.631C671.262 718.355 669.3 711.1 672.606 705.427L686.516 681.548Z" fill="#C63B3B"/>
<path d="M692.501 739.565C692.501 733.013 697.86 727.702 704.47 727.702C711.081 727.702 716.44 733.013 716.44 739.565V767.137C716.44 773.689 711.081 779 704.47 779C697.86 779 692.501 773.689 692.501 767.137V739.565Z" fill="#C63B3B"/>
</g>
<g id="Vector_4" filter="url(#filter3_d_138_801)">
<path d="M934.246 685.996C939.515 662.672 972.714 662.672 977.983 685.996L986.541 723.874C989.712 737.912 979.05 751.267 964.672 751.267H947.557C933.179 751.267 922.517 737.912 925.688 723.874L934.246 685.996Z" fill="#C63B3B"/>
<path d="M979.816 635.046C979.816 648.326 969.061 659.092 955.794 659.092C942.527 659.092 931.772 648.326 931.772 635.046C931.772 621.766 942.527 611 955.794 611C969.061 611 979.816 621.766 979.816 635.046Z" fill="#C63B3B"/>
<path d="M960.599 739.565C960.599 733.013 965.904 727.702 972.45 727.702C978.995 727.702 984.3 733.013 984.3 739.565V767.137C984.3 773.689 978.995 779 972.45 779C965.904 779 960.599 773.689 960.599 767.137V739.565Z" fill="#C63B3B"/>
<path d="M969.867 693.609C966.517 687.981 968.36 680.7 973.982 677.347C979.605 673.993 986.879 675.837 990.229 681.466L1004.33 705.153C1007.68 710.781 1005.84 718.062 1000.21 721.415C994.59 724.769 987.316 722.925 983.966 717.296L969.867 693.609Z" fill="#C63B3B"/>
<path d="M921.362 681.548C924.635 675.874 931.883 673.93 937.551 677.206C943.219 680.482 945.161 687.737 941.889 693.411L928.116 717.289C924.844 722.963 917.596 724.907 911.927 721.631C906.259 718.355 904.317 711.1 907.59 705.427L921.362 681.548Z" fill="#C63B3B"/>
<path d="M927.288 739.565C927.288 733.013 932.594 727.702 939.139 727.702C945.684 727.702 950.99 733.013 950.99 739.565V767.137C950.99 773.689 945.684 779 939.139 779C932.594 779 927.288 773.689 927.288 767.137V739.565Z" fill="#C63B3B"/>
</g>
<g id="Vector_5" filter="url(#filter4_d_138_801)">
<path d="M481.33 722.388C487.548 694.899 526.722 694.899 532.94 722.388L543.038 767.03C546.78 783.575 534.199 799.315 517.233 799.315H497.037C480.071 799.315 467.49 783.575 471.232 767.03L481.33 722.388Z" fill="#E06A6A"/>
<path d="M535.103 662.34C535.103 677.991 522.412 690.679 506.757 690.679C491.102 690.679 478.411 677.991 478.411 662.34C478.411 646.688 491.102 634 506.757 634C522.412 634 535.103 646.688 535.103 662.34Z" fill="#E06A6A"/>
<path d="M512.426 785.523C512.426 777.801 518.687 771.542 526.41 771.542C534.134 771.542 540.395 777.801 540.395 785.523V818.019C540.395 825.741 534.134 832 526.41 832C518.687 832 512.426 825.741 512.426 818.019V785.523Z" fill="#E06A6A"/>
<path d="M523.364 731.361C519.41 724.728 521.584 716.146 528.219 712.194C534.854 708.242 543.437 710.416 547.39 717.049L564.027 744.966C567.98 751.599 565.806 760.18 559.171 764.132C552.537 768.085 543.953 765.911 540 759.278L523.364 731.361Z" fill="#E06A6A"/>
<path d="M466.128 717.146C469.989 710.459 478.542 708.168 485.23 712.029C491.919 715.889 494.21 724.44 490.349 731.127L474.097 759.269C470.235 765.956 461.683 768.248 454.994 764.387C448.306 760.526 446.014 751.975 449.876 745.289L466.128 717.146Z" fill="#E06A6A"/>
<path d="M473.12 785.523C473.12 777.801 479.381 771.542 487.104 771.542C494.827 771.542 501.088 777.801 501.088 785.523V818.019C501.088 825.741 494.827 832 487.104 832C479.381 832 473.12 825.741 473.12 818.019V785.523Z" fill="#E06A6A"/>
</g>
<g id="Vector_6" filter="url(#filter5_d_138_801)">
<path d="M757.33 722.388C763.548 694.899 802.722 694.899 808.94 722.388L819.038 767.03C822.78 783.575 810.199 799.315 793.233 799.315H773.037C756.071 799.315 743.49 783.575 747.232 767.03L757.33 722.388Z" fill="#E06A6A"/>
<path d="M811.103 662.34C811.103 677.991 798.412 690.679 782.757 690.679C767.102 690.679 754.411 677.991 754.411 662.34C754.411 646.688 767.102 634 782.757 634C798.412 634 811.103 646.688 811.103 662.34Z" fill="#E06A6A"/>
<path d="M788.426 785.523C788.426 777.801 794.687 771.542 802.41 771.542C810.134 771.542 816.395 777.801 816.395 785.523V818.019C816.395 825.741 810.134 832 802.41 832C794.687 832 788.426 825.741 788.426 818.019V785.523Z" fill="#E06A6A"/>
<path d="M799.364 731.361C795.41 724.728 797.584 716.146 804.219 712.194C810.854 708.242 819.437 710.416 823.39 717.049L840.027 744.966C843.98 751.599 841.806 760.18 835.171 764.132C828.537 768.085 819.953 765.911 816 759.278L799.364 731.361Z" fill="#E06A6A"/>
<path d="M742.128 717.146C745.989 710.459 754.542 708.168 761.23 712.029C767.919 715.889 770.21 724.44 766.349 731.127L750.097 759.269C746.235 765.956 737.683 768.248 730.994 764.387C724.306 760.526 722.014 751.975 725.876 745.289L742.128 717.146Z" fill="#E06A6A"/>
<path d="M749.12 785.523C749.12 777.801 755.381 771.542 763.104 771.542C770.827 771.542 777.088 777.801 777.088 785.523V818.019C777.088 825.741 770.827 832 763.104 832C755.381 832 749.12 825.741 749.12 818.019V785.523Z" fill="#E06A6A"/>
</g>
<g id="Vector_7" filter="url(#filter6_d_138_801)">
<path d="M619.33 722.388C625.548 694.899 664.722 694.899 670.94 722.388L681.038 767.03C684.78 783.575 672.199 799.315 655.233 799.315H635.037C618.071 799.315 605.49 783.575 609.232 767.03L619.33 722.388Z" fill="#E06A6A"/>
<path d="M673.103 662.34C673.103 677.991 660.412 690.679 644.757 690.679C629.102 690.679 616.411 677.991 616.411 662.34C616.411 646.688 629.102 634 644.757 634C660.412 634 673.103 646.688 673.103 662.34Z" fill="#E06A6A"/>
<path d="M650.426 785.523C650.426 777.801 656.687 771.542 664.41 771.542C672.134 771.542 678.395 777.801 678.395 785.523V818.019C678.395 825.741 672.134 832 664.41 832C656.687 832 650.426 825.741 650.426 818.019V785.523Z" fill="#E06A6A"/>
<path d="M661.364 731.361C657.41 724.728 659.584 716.146 666.219 712.194C672.854 708.242 681.437 710.416 685.39 717.049L702.027 744.966C705.98 751.599 703.806 760.18 697.171 764.132C690.537 768.085 681.953 765.911 678 759.278L661.364 731.361Z" fill="#E06A6A"/>
<path d="M604.128 717.146C607.989 710.459 616.542 708.168 623.23 712.029C629.919 715.889 632.21 724.44 628.349 731.127L612.097 759.269C608.235 765.956 599.683 768.248 592.994 764.387C586.306 760.526 584.014 751.975 587.876 745.289L604.128 717.146Z" fill="#E06A6A"/>
<path d="M611.12 785.523C611.12 777.801 617.381 771.542 625.104 771.542C632.827 771.542 639.088 777.801 639.088 785.523V818.019C639.088 825.741 632.827 832 625.104 832C617.381 832 611.12 825.741 611.12 818.019V785.523Z" fill="#E06A6A"/>
</g>
<g id="Vector_8" filter="url(#filter7_d_138_801)">
<path d="M677.33 768.388C683.548 740.899 722.722 740.899 728.94 768.388L739.038 813.03C742.78 829.575 730.199 845.315 713.233 845.315H693.037C676.071 845.315 663.49 829.575 667.232 813.03L677.33 768.388Z" fill="#FB8D8D"/>
<path d="M731.103 708.34C731.103 723.991 718.412 736.679 702.757 736.679C687.102 736.679 674.411 723.991 674.411 708.34C674.411 692.688 687.102 680 702.757 680C718.412 680 731.103 692.688 731.103 708.34Z" fill="#FB8D8D"/>
<path d="M708.426 831.523C708.426 823.801 714.687 817.542 722.41 817.542C730.134 817.542 736.395 823.801 736.395 831.523V864.019C736.395 871.741 730.134 878 722.41 878C714.687 878 708.426 871.741 708.426 864.019V831.523Z" fill="#FB8D8D"/>
<path d="M719.364 777.361C715.41 770.728 717.584 762.146 724.219 758.194C730.854 754.242 739.437 756.416 743.39 763.049L760.027 790.966C763.98 797.599 761.806 806.18 755.171 810.132C748.537 814.085 739.953 811.911 736 805.278L719.364 777.361Z" fill="#FB8D8D"/>
<path d="M662.128 763.146C665.989 756.459 674.542 754.168 681.23 758.029C687.919 761.889 690.21 770.44 686.349 777.127L670.097 805.269C666.235 811.956 657.683 814.248 650.994 810.387C644.306 806.526 642.014 797.975 645.876 791.289L662.128 763.146Z" fill="#FB8D8D"/>
<path d="M669.12 831.523C669.12 823.801 675.381 817.542 683.104 817.542C690.827 817.542 697.088 823.801 697.088 831.523V864.019C697.088 871.741 690.827 878 683.104 878C675.381 878 669.12 871.741 669.12 864.019V831.523Z" fill="#FB8D8D"/>
</g>
<g id="Vector_9" filter="url(#filter8_d_138_801)">
<path d="M895.33 722.388C901.548 694.899 940.722 694.899 946.94 722.388L957.038 767.03C960.78 783.575 948.199 799.315 931.233 799.315H911.037C894.071 799.315 881.49 783.575 885.232 767.03L895.33 722.388Z" fill="#E06A6A"/>
<path d="M949.103 662.34C949.103 677.991 936.412 690.679 920.757 690.679C905.102 690.679 892.411 677.991 892.411 662.34C892.411 646.688 905.102 634 920.757 634C936.412 634 949.103 646.688 949.103 662.34Z" fill="#E06A6A"/>
<path d="M926.426 785.523C926.426 777.801 932.687 771.542 940.41 771.542C948.134 771.542 954.395 777.801 954.395 785.523V818.019C954.395 825.741 948.134 832 940.41 832C932.687 832 926.426 825.741 926.426 818.019V785.523Z" fill="#E06A6A"/>
<path d="M937.364 731.361C933.41 724.728 935.584 716.146 942.219 712.194C948.854 708.242 957.437 710.416 961.39 717.049L978.027 744.966C981.98 751.599 979.806 760.18 973.171 764.132C966.537 768.085 957.953 765.911 954 759.278L937.364 731.361Z" fill="#E06A6A"/>
<path d="M880.128 717.146C883.989 710.459 892.542 708.168 899.23 712.029C905.919 715.889 908.21 724.44 904.349 731.127L888.097 759.269C884.235 765.956 875.683 768.248 868.994 764.387C862.306 760.526 860.014 751.975 863.876 745.289L880.128 717.146Z" fill="#E06A6A"/>
<path d="M887.12 785.523C887.12 777.801 893.381 771.542 901.104 771.542C908.827 771.542 915.088 777.801 915.088 785.523V818.019C915.088 825.741 908.827 832 901.104 832C893.381 832 887.12 825.741 887.12 818.019V785.523Z" fill="#E06A6A"/>
</g>
<g id="Vector_10" filter="url(#filter9_d_138_801)">
<path d="M953.33 768.388C959.548 740.899 998.722 740.899 1004.94 768.388L1015.04 813.03C1018.78 829.575 1006.2 845.315 989.233 845.315H969.037C952.071 845.315 939.49 829.575 943.232 813.03L953.33 768.388Z" fill="#FB8D8D"/>
<path d="M1007.1 708.34C1007.1 723.991 994.412 736.679 978.757 736.679C963.102 736.679 950.411 723.991 950.411 708.34C950.411 692.688 963.102 680 978.757 680C994.412 680 1007.1 692.688 1007.1 708.34Z" fill="#FB8D8D"/>
<path d="M984.426 831.523C984.426 823.801 990.687 817.542 998.41 817.542C1006.13 817.542 1012.39 823.801 1012.39 831.523V864.019C1012.39 871.741 1006.13 878 998.41 878C990.687 878 984.426 871.741 984.426 864.019V831.523Z" fill="#FB8D8D"/>
<path d="M995.364 777.361C991.41 770.728 993.584 762.146 1000.22 758.194C1006.85 754.242 1015.44 756.416 1019.39 763.049L1036.03 790.966C1039.98 797.599 1037.81 806.18 1031.17 810.132C1024.54 814.085 1015.95 811.911 1012 805.278L995.364 777.361Z" fill="#FB8D8D"/>
<path d="M938.128 763.146C941.989 756.459 950.542 754.168 957.23 758.029C963.919 761.889 966.21 770.44 962.349 777.127L946.097 805.269C942.235 811.956 933.683 814.248 926.994 810.387C920.306 806.526 918.014 797.975 921.876 791.289L938.128 763.146Z" fill="#FB8D8D"/>
<path d="M945.12 831.523C945.12 823.801 951.381 817.542 959.104 817.542C966.827 817.542 973.088 823.801 973.088 831.523V864.019C973.088 871.741 966.827 878 959.104 878C951.381 878 945.12 871.741 945.12 864.019V831.523Z" fill="#FB8D8D"/>
</g>
<g id="Vector_11" filter="url(#filter10_d_138_801)">
<path d="M539.33 768.388C545.548 740.899 584.722 740.899 590.94 768.388L601.038 813.03C604.78 829.575 592.199 845.315 575.233 845.315H555.037C538.071 845.315 525.49 829.575 529.232 813.03L539.33 768.388Z" fill="#FB8D8D"/>
<path d="M593.103 708.34C593.103 723.991 580.412 736.679 564.757 736.679C549.102 736.679 536.411 723.991 536.411 708.34C536.411 692.688 549.102 680 564.757 680C580.412 680 593.103 692.688 593.103 708.34Z" fill="#FB8D8D"/>
<path d="M570.426 831.523C570.426 823.801 576.687 817.542 584.41 817.542C592.134 817.542 598.395 823.801 598.395 831.523V864.019C598.395 871.741 592.134 878 584.41 878C576.687 878 570.426 871.741 570.426 864.019V831.523Z" fill="#FB8D8D"/>
<path d="M581.364 777.361C577.41 770.728 579.584 762.146 586.219 758.194C592.854 754.242 601.437 756.416 605.39 763.049L622.027 790.966C625.98 797.599 623.806 806.18 617.171 810.132C610.537 814.085 601.953 811.911 598 805.278L581.364 777.361Z" fill="#FB8D8D"/>
<path d="M524.128 763.146C527.989 756.459 536.542 754.168 543.23 758.029C549.919 761.889 552.21 770.44 548.349 777.127L532.097 805.269C528.235 811.956 519.683 814.248 512.994 810.387C506.306 806.526 504.014 797.975 507.876 791.289L524.128 763.146Z" fill="#FB8D8D"/>
<path d="M531.12 831.523C531.12 823.801 537.381 817.542 545.104 817.542C552.827 817.542 559.088 823.801 559.088 831.523V864.019C559.088 871.741 552.827 878 545.104 878C537.381 878 531.12 871.741 531.12 864.019V831.523Z" fill="#FB8D8D"/>
</g>
<g id="Vector_12" filter="url(#filter11_d_138_801)">
<path d="M815.33 768.388C821.548 740.899 860.722 740.899 866.94 768.388L877.038 813.03C880.78 829.575 868.199 845.315 851.233 845.315H831.037C814.071 845.315 801.49 829.575 805.232 813.03L815.33 768.388Z" fill="#FB8D8D"/>
<path d="M869.103 708.34C869.103 723.991 856.412 736.679 840.757 736.679C825.102 736.679 812.411 723.991 812.411 708.34C812.411 692.688 825.102 680 840.757 680C856.412 680 869.103 692.688 869.103 708.34Z" fill="#FB8D8D"/>
<path d="M846.426 831.523C846.426 823.801 852.687 817.542 860.41 817.542C868.134 817.542 874.395 823.801 874.395 831.523V864.019C874.395 871.741 868.134 878 860.41 878C852.687 878 846.426 871.741 846.426 864.019V831.523Z" fill="#FB8D8D"/>
<path d="M857.364 777.361C853.41 770.728 855.584 762.146 862.219 758.194C868.854 754.242 877.437 756.416 881.39 763.049L898.027 790.966C901.98 797.599 899.806 806.18 893.171 810.132C886.537 814.085 877.953 811.911 874 805.278L857.364 777.361Z" fill="#FB8D8D"/>
<path d="M800.128 763.146C803.989 756.459 812.542 754.168 819.23 758.029C825.919 761.889 828.21 770.44 824.349 777.127L808.097 805.269C804.235 811.956 795.683 814.248 788.994 810.387C782.306 806.526 780.014 797.975 783.876 791.289L800.128 763.146Z" fill="#FB8D8D"/>
<path d="M807.12 831.523C807.12 823.801 813.381 817.542 821.104 817.542C828.827 817.542 835.088 823.801 835.088 831.523V864.019C835.088 871.741 828.827 878 821.104 878C813.381 878 807.12 871.741 807.12 864.019V831.523Z" fill="#FB8D8D"/>
</g>
</g>
</g>
<defs>
<filter id="filter0_d_138_801" x="550" y="611" width="108" height="176" filterUnits="userSpaceOnUse" color-interpolation-filters="sRGB">
<feFlood flood-opacity="0" result="BackgroundImageFix"/>
<feColorMatrix in="SourceAlpha" type="matrix" values="0 0 0 0 0 0 0 0 0 0 0 0 0 0 0 0 0 0 127 0" result="hardAlpha"/>
<feOffset dy="4"/>
<feGaussianBlur stdDeviation="2"/>
<feComposite in2="hardAlpha" operator="out"/>
<feColorMatrix type="matrix" values="0 0 0 0 0 0 0 0 0 0 0 0 0 0 0 0 0 0 0.25 0"/>
<feBlend mode="normal" in2="BackgroundImageFix" result="effect1_dropShadow_138_801"/>
<feBlend mode="normal" in="SourceGraphic" in2="effect1_dropShadow_138_801" result="shape"/>
</filter>
<filter id="filter1_d_138_801" x="784" y="611" width="109" height="176" filterUnits="userSpaceOnUse" color-interpolation-filters="sRGB">
<feFlood flood-opacity="0" result="BackgroundImageFix"/>
<feColorMatrix in="SourceAlpha" type="matrix" values="0 0 0 0 0 0 0 0 0 0 0 0 0 0 0 0 0 0 127 0" result="hardAlpha"/>
<feOffset dy="4"/>
<feGaussianBlur stdDeviation="2"/>
<feComposite in2="hardAlpha" operator="out"/>
<feColorMatrix type="matrix" values="0 0 0 0 0 0 0 0 0 0 0 0 0 0 0 0 0 0 0.25 0"/>
<feBlend mode="normal" in2="BackgroundImageFix" result="effect1_dropShadow_138_801"/>
<feBlend mode="normal" in="SourceGraphic" in2="effect1_dropShadow_138_801" result="shape"/>
</filter>
<filter id="filter2_d_138_801" x="667" y="611" width="109" height="176" filterUnits="userSpaceOnUse" color-interpolation-filters="sRGB">
<feFlood flood-opacity="0" result="BackgroundImageFix"/>
<feColorMatrix in="SourceAlpha" type="matrix" values="0 0 0 0 0 0 0 0 0 0 0 0 0 0 0 0 0 0 127 0" result="hardAlpha"/>
<feOffset dy="4"/>
<feGaussianBlur stdDeviation="2"/>
<feComposite in2="hardAlpha" operator="out"/>
<feColorMatrix type="matrix" values="0 0 0 0 0 0 0 0 0 0 0 0 0 0 0 0 0 0 0.25 0"/>
<feBlend mode="normal" in2="BackgroundImageFix" result="effect1_dropShadow_138_801"/>
<feBlend mode="normal" in="SourceGraphic" in2="effect1_dropShadow_138_801" result="shape"/>
</filter>
<filter id="filter3_d_138_801" x="902" y="611" width="108" height="176" filterUnits="userSpaceOnUse" color-interpolation-filters="sRGB">
<feFlood flood-opacity="0" result="BackgroundImageFix"/>
<feColorMatrix in="SourceAlpha" type="matrix" values="0 0 0 0 0 0 0 0 0 0 0 0 0 0 0 0 0 0 127 0" result="hardAlpha"/>
<feOffset dy="4"/>
<feGaussianBlur stdDeviation="2"/>
<feComposite in2="hardAlpha" operator="out"/>
<feColorMatrix type="matrix" values="0 0 0 0 0 0 0 0 0 0 0 0 0 0 0 0 0 0 0.25 0"/>
<feBlend mode="normal" in2="BackgroundImageFix" result="effect1_dropShadow_138_801"/>
<feBlend mode="normal" in="SourceGraphic" in2="effect1_dropShadow_138_801" result="shape"/>
</filter>
<filter id="filter4_d_138_801" x="444" y="634" width="126" height="206" filterUnits="userSpaceOnUse" color-interpolation-filters="sRGB">
<feFlood flood-opacity="0" result="BackgroundImageFix"/>
<feColorMatrix in="SourceAlpha" type="matrix" values="0 0 0 0 0 0 0 0 0 0 0 0 0 0 0 0 0 0 127 0" result="hardAlpha"/>
<feOffset dy="4"/>
<feGaussianBlur stdDeviation="2"/>
<feComposite in2="hardAlpha" operator="out"/>
<feColorMatrix type="matrix" values="0 0 0 0 0 0 0 0 0 0 0 0 0 0 0 0 0 0 0.25 0"/>
<feBlend mode="normal" in2="BackgroundImageFix" result="effect1_dropShadow_138_801"/>
<feBlend mode="normal" in="SourceGraphic" in2="effect1_dropShadow_138_801" result="shape"/>
</filter>
<filter id="filter5_d_138_801" x="720" y="634" width="126" height="206" filterUnits="userSpaceOnUse" color-interpolation-filters="sRGB">
<feFlood flood-opacity="0" result="BackgroundImageFix"/>
<feColorMatrix in="SourceAlpha" type="matrix" values="0 0 0 0 0 0 0 0 0 0 0 0 0 0 0 0 0 0 127 0" result="hardAlpha"/>
<feOffset dy="4"/>
<feGaussianBlur stdDeviation="2"/>
<feComposite in2="hardAlpha" operator="out"/>
<feColorMatrix type="matrix" values="0 0 0 0 0 0 0 0 0 0 0 0 0 0 0 0 0 0 0.25 0"/>
<feBlend mode="normal" in2="BackgroundImageFix" result="effect1_dropShadow_138_801"/>
<feBlend mode="normal" in="SourceGraphic" in2="effect1_dropShadow_138_801" result="shape"/>
</filter>
<filter id="filter6_d_138_801" x="582" y="634" width="126" height="206" filterUnits="userSpaceOnUse" color-interpolation-filters="sRGB">
<feFlood flood-opacity="0" result="BackgroundImageFix"/>
<feColorMatrix in="SourceAlpha" type="matrix" values="0 0 0 0 0 0 0 0 0 0 0 0 0 0 0 0 0 0 127 0" result="hardAlpha"/>
<feOffset dy="4"/>
<feGaussianBlur stdDeviation="2"/>
<feComposite in2="hardAlpha" operator="out"/>
<feColorMatrix type="matrix" values="0 0 0 0 0 0 0 0 0 0 0 0 0 0 0 0 0 0 0.25 0"/>
<feBlend mode="normal" in2="BackgroundImageFix" result="effect1_dropShadow_138_801"/>
<feBlend mode="normal" in="SourceGraphic" in2="effect1_dropShadow_138_801" result="shape"/>
</filter>
<filter id="filter7_d_138_801" x="640" y="680" width="126" height="206" filterUnits="userSpaceOnUse" color-interpolation-filters="sRGB">
<feFlood flood-opacity="0" result="BackgroundImageFix"/>
<feColorMatrix in="SourceAlpha" type="matrix" values="0 0 0 0 0 0 0 0 0 0 0 0 0 0 0 0 0 0 127 0" result="hardAlpha"/>
<feOffset dy="4"/>
<feGaussianBlur stdDeviation="2"/>
<feComposite in2="hardAlpha" operator="out"/>
<feColorMatrix type="matrix" values="0 0 0 0 0 0 0 0 0 0 0 0 0 0 0 0 0 0 0.25 0"/>
<feBlend mode="normal" in2="BackgroundImageFix" result="effect1_dropShadow_138_801"/>
<feBlend mode="normal" in="SourceGraphic" in2="effect1_dropShadow_138_801" result="shape"/>
</filter>
<filter id="filter8_d_138_801" x="858" y="634" width="126" height="206" filterUnits="userSpaceOnUse" color-interpolation-filters="sRGB">
<feFlood flood-opacity="0" result="BackgroundImageFix"/>
<feColorMatrix in="SourceAlpha" type="matrix" values="0 0 0 0 0 0 0 0 0 0 0 0 0 0 0 0 0 0 127 0" result="hardAlpha"/>
<feOffset dy="4"/>
<feGaussianBlur stdDeviation="2"/>
<feComposite in2="hardAlpha" operator="out"/>
<feColorMatrix type="matrix" values="0 0 0 0 0 0 0 0 0 0 0 0 0 0 0 0 0 0 0.25 0"/>
<feBlend mode="normal" in2="BackgroundImageFix" result="effect1_dropShadow_138_801"/>
<feBlend mode="normal" in="SourceGraphic" in2="effect1_dropShadow_138_801" result="shape"/>
</filter>
<filter id="filter9_d_138_801" x="916" y="680" width="126" height="206" filterUnits="userSpaceOnUse" color-interpolation-filters="sRGB">
<feFlood flood-opacity="0" result="BackgroundImageFix"/>
<feColorMatrix in="SourceAlpha" type="matrix" values="0 0 0 0 0 0 0 0 0 0 0 0 0 0 0 0 0 0 127 0" result="hardAlpha"/>
<feOffset dy="4"/>
<feGaussianBlur stdDeviation="2"/>
<feComposite in2="hardAlpha" operator="out"/>
<feColorMatrix type="matrix" values="0 0 0 0 0 0 0 0 0 0 0 0 0 0 0 0 0 0 0.25 0"/>
<feBlend mode="normal" in2="BackgroundImageFix" result="effect1_dropShadow_138_801"/>
<feBlend mode="normal" in="SourceGraphic" in2="effect1_dropShadow_138_801" result="shape"/>
</filter>
<filter id="filter10_d_138_801" x="502" y="680" width="126" height="206" filterUnits="userSpaceOnUse" color-interpolation-filters="sRGB">
<feFlood flood-opacity="0" result="BackgroundImageFix"/>
<feColorMatrix in="SourceAlpha" type="matrix" values="0 0 0 0 0 0 0 0 0 0 0 0 0 0 0 0 0 0 127 0" result="hardAlpha"/>
<feOffset dy="4"/>
<feGaussianBlur stdDeviation="2"/>
<feComposite in2="hardAlpha" operator="out"/>
<feColorMatrix type="matrix" values="0 0 0 0 0 0 0 0 0 0 0 0 0 0 0 0 0 0 0.25 0"/>
<feBlend mode="normal" in2="BackgroundImageFix" result="effect1_dropShadow_138_801"/>
<feBlend mode="normal" in="SourceGraphic" in2="effect1_dropShadow_138_801" result="shape"/>
</filter>
<filter id="filter11_d_138_801" x="778" y="680" width="126" height="206" filterUnits="userSpaceOnUse" color-interpolation-filters="sRGB">
<feFlood flood-opacity="0" result="BackgroundImageFix"/>
<feColorMatrix in="SourceAlpha" type="matrix" values="0 0 0 0 0 0 0 0 0 0 0 0 0 0 0 0 0 0 127 0" result="hardAlpha"/>
<feOffset dy="4"/>
<feGaussianBlur stdDeviation="2"/>
<feComposite in2="hardAlpha" operator="out"/>
<feColorMatrix type="matrix" values="0 0 0 0 0 0 0 0 0 0 0 0 0 0 0 0 0 0 0.25 0"/>
<feBlend mode="normal" in2="BackgroundImageFix" result="effect1_dropShadow_138_801"/>
<feBlend mode="normal" in="SourceGraphic" in2="effect1_dropShadow_138_801" result="shape"/>
</filter>
<clipPath id="clip0_138_801">
<rect width="1440" height="1024" fill="white"/>
</clipPath>
</defs>
</svg>
