<svg width="1440" height="1024" viewBox="0 0 1440 1024" fill="none" xmlns="http://www.w3.org/2000/svg">
<g id="trick4-no-end" clip-path="url(#clip0_137_487)">
<rect width="1440" height="1024" fill="#333148"/>
<path id="you lost..." d="M363.336 389.08L376.68 361.72L376.392 369.496L349.32 316.024H366.888L379.272 342.52C380.168 344.312 381 346.136 381.768 347.992C382.536 349.784 383.144 351.576 383.592 353.368L380.712 354.136C381.288 352.728 381.96 351.064 382.728 349.144C383.496 347.224 384.296 345.272 385.128 343.288L396.552 316.024H414.12L389.16 367.192L378.888 389.08H363.336ZM455.101 367.96C449.149 367.96 443.869 366.808 439.261 364.504C434.653 362.2 431.037 359.064 428.413 355.096C425.789 351.128 424.477 346.584 424.477 341.464C424.477 336.344 425.789 331.8 428.413 327.832C431.037 323.864 434.653 320.728 439.261 318.424C443.869 316.12 449.149 314.968 455.101 314.968C460.989 314.968 466.205 316.12 470.749 318.424C475.357 320.728 478.973 323.864 481.597 327.832C484.221 331.8 485.533 336.344 485.533 341.464C485.533 346.584 484.221 351.128 481.597 355.096C478.973 359.064 475.357 362.2 470.749 364.504C466.205 366.808 460.989 367.96 455.101 367.96ZM455.101 354.712C457.853 354.712 460.349 354.136 462.589 352.984C464.893 351.832 466.685 350.264 467.965 348.28C469.309 346.296 469.949 344.024 469.885 341.464C469.949 338.904 469.309 336.6 467.965 334.552C466.685 332.504 464.893 330.936 462.589 329.848C460.349 328.696 457.853 328.12 455.101 328.12C452.285 328.12 449.693 328.696 447.325 329.848C445.021 331 443.229 332.568 441.949 334.552C440.669 336.536 440.029 338.84 440.029 341.464C440.029 344.024 440.669 346.296 441.949 348.28C443.229 350.264 445.021 351.832 447.325 352.984C449.693 354.136 452.285 354.712 455.101 354.712ZM523.573 368.056C519.477 368.056 515.925 367.16 512.917 365.368C509.973 363.576 507.701 360.984 506.101 357.592C504.501 354.136 503.701 350.008 503.701 345.208V316.024H519.061V342.712C519.061 345.336 519.413 347.544 520.117 349.336C520.885 351.128 522.069 352.504 523.669 353.464C525.269 354.36 527.221 354.808 529.525 354.808C531.189 354.808 532.725 354.552 534.133 354.04C535.541 353.464 536.789 352.696 537.877 351.736C538.965 350.712 539.797 349.56 540.373 348.28C541.013 346.936 541.333 345.432 541.333 343.768V316.024H556.693V367H542.293L541.621 356.536L544.405 355.384C543.701 357.624 542.357 359.704 540.373 361.624C538.389 363.544 535.957 365.112 533.077 366.328C530.261 367.48 527.093 368.056 523.573 368.056ZM619.221 367V295.96H634.581V367H619.221ZM683.476 367.96C677.524 367.96 672.244 366.808 667.636 364.504C663.028 362.2 659.412 359.064 656.788 355.096C654.164 351.128 652.852 346.584 652.852 341.464C652.852 336.344 654.164 331.8 656.788 327.832C659.412 323.864 663.028 320.728 667.636 318.424C672.244 316.12 677.524 314.968 683.476 314.968C689.364 314.968 694.58 316.12 699.124 318.424C703.732 320.728 707.348 323.864 709.972 327.832C712.596 331.8 713.908 336.344 713.908 341.464C713.908 346.584 712.596 351.128 709.972 355.096C707.348 359.064 703.732 362.2 699.124 364.504C694.58 366.808 689.364 367.96 683.476 367.96ZM683.476 354.712C686.228 354.712 688.724 354.136 690.964 352.984C693.268 351.832 695.06 350.264 696.34 348.28C697.684 346.296 698.324 344.024 698.26 341.464C698.324 338.904 697.684 336.6 696.34 334.552C695.06 332.504 693.268 330.936 690.964 329.848C688.724 328.696 686.228 328.12 683.476 328.12C680.66 328.12 678.068 328.696 675.7 329.848C673.396 331 671.604 332.568 670.324 334.552C669.044 336.536 668.404 338.84 668.404 341.464C668.404 344.024 669.044 346.296 670.324 348.28C671.604 350.264 673.396 351.832 675.7 352.984C678.068 354.136 680.66 354.712 683.476 354.712ZM752.332 367.96C746.7 367.96 741.644 367.16 737.164 365.56C732.748 363.96 729.196 361.688 726.508 358.744L735.82 350.488C737.996 352.536 740.588 354.104 743.596 355.192C746.604 356.28 749.772 356.824 753.1 356.824C754.124 356.824 755.116 356.728 756.076 356.536C757.1 356.344 757.964 356.088 758.668 355.768C759.436 355.384 760.044 354.936 760.492 354.424C760.94 353.912 761.164 353.272 761.164 352.504C761.164 351.288 760.396 350.328 758.86 349.624C757.772 349.24 756.396 348.856 754.732 348.472C753.068 348.088 751.18 347.672 749.068 347.224C745.548 346.584 742.444 345.816 739.756 344.92C737.132 343.96 734.924 342.776 733.132 341.368C731.596 340.024 730.412 338.488 729.58 336.76C728.748 335.032 728.332 333.016 728.332 330.712C728.332 328.344 728.94 326.2 730.156 324.28C731.372 322.296 733.068 320.632 735.244 319.288C737.42 317.88 739.916 316.824 742.732 316.12C745.548 315.352 748.492 314.968 751.564 314.968C754.636 314.968 757.644 315.288 760.588 315.928C763.532 316.504 766.316 317.368 768.94 318.52C771.564 319.608 773.868 321.016 775.852 322.744L767.98 331.96C766.572 330.872 764.94 329.88 763.084 328.984C761.228 328.088 759.244 327.384 757.132 326.872C755.084 326.296 753.068 326.008 751.084 326.008C749.996 326.008 748.94 326.072 747.916 326.2C746.956 326.328 746.124 326.584 745.42 326.968C744.716 327.288 744.14 327.704 743.692 328.216C743.308 328.664 743.116 329.24 743.116 329.944C743.116 330.52 743.276 331.064 743.596 331.576C743.916 332.088 744.396 332.504 745.036 332.824C745.932 333.4 747.244 333.912 748.972 334.36C750.764 334.808 753.004 335.288 755.692 335.8C759.596 336.632 762.924 337.592 765.676 338.68C768.428 339.704 770.636 340.952 772.3 342.424C773.644 343.448 774.636 344.728 775.276 346.264C775.916 347.736 776.236 349.368 776.236 351.16C776.236 354.424 775.18 357.336 773.068 359.896C771.02 362.392 768.204 364.376 764.62 365.848C761.1 367.256 757.004 367.96 752.332 367.96ZM798.776 367V302.008H814.136V367H798.776ZM787.448 329.464V316.024H827.096V329.464H787.448ZM852.338 368.056C849.202 368.056 846.802 367.32 845.138 365.848C843.538 364.312 842.738 362.2 842.738 359.512C842.738 357.08 843.57 355.032 845.234 353.368C846.962 351.704 849.33 350.872 852.338 350.872C855.474 350.872 857.874 351.64 859.538 353.176C861.202 354.712 862.034 356.824 862.034 359.512C862.034 361.88 861.17 363.896 859.442 365.56C857.778 367.224 855.41 368.056 852.338 368.056ZM889.276 368.056C886.14 368.056 883.74 367.32 882.076 365.848C880.476 364.312 879.676 362.2 879.676 359.512C879.676 357.08 880.508 355.032 882.172 353.368C883.9 351.704 886.268 350.872 889.276 350.872C892.412 350.872 894.812 351.64 896.476 353.176C898.14 354.712 898.972 356.824 898.972 359.512C898.972 361.88 898.108 363.896 896.38 365.56C894.716 367.224 892.348 368.056 889.276 368.056ZM926.213 368.056C923.077 368.056 920.677 367.32 919.013 365.848C917.413 364.312 916.613 362.2 916.613 359.512C916.613 357.08 917.445 355.032 919.109 353.368C920.837 351.704 923.205 350.872 926.213 350.872C929.349 350.872 931.749 351.64 933.413 353.176C935.077 354.712 935.909 356.824 935.909 359.512C935.909 361.88 935.045 363.896 933.317 365.56C931.653 367.224 929.285 368.056 926.213 368.056Z" fill="white"/>
<path id="maybe giving matchsticks to the matchstick lovers wasn&#226;&#128;&#153;t the smartest idea..." d="M347.928 414V401.256H351.576L351.696 403.944L351 403.776C351.208 403.392 351.48 403.032 351.816 402.696C352.168 402.36 352.56 402.072 352.992 401.832C353.44 401.576 353.92 401.376 354.432 401.232C354.944 401.088 355.496 401.016 356.088 401.016C356.776 401.016 357.408 401.12 357.984 401.328C358.576 401.536 359.08 401.88 359.496 402.36C359.912 402.824 360.232 403.448 360.456 404.232L359.664 404.136L359.856 403.752C360.112 403.384 360.416 403.04 360.768 402.72C361.136 402.384 361.552 402.096 362.016 401.856C362.48 401.6 362.976 401.4 363.504 401.256C364.032 401.096 364.576 401.016 365.136 401.016C366.304 401.016 367.256 401.24 367.992 401.688C368.728 402.12 369.272 402.736 369.624 403.536C369.976 404.336 370.152 405.264 370.152 406.32V414H366.288V406.728C366.288 406.216 366.208 405.776 366.048 405.408C365.888 405.04 365.64 404.76 365.304 404.568C364.984 404.36 364.568 404.256 364.056 404.256C363.608 404.256 363.192 404.328 362.808 404.472C362.44 404.616 362.112 404.816 361.824 405.072C361.552 405.312 361.336 405.6 361.176 405.936C361.032 406.256 360.96 406.608 360.96 406.992V414H357.096V406.704C357.096 406.208 357.008 405.776 356.832 405.408C356.656 405.04 356.384 404.76 356.016 404.568C355.648 404.36 355.192 404.256 354.648 404.256C354.216 404.256 353.824 404.336 353.472 404.496C353.136 404.64 352.84 404.84 352.584 405.096C352.328 405.336 352.128 405.6 351.984 405.888C351.856 406.176 351.792 406.472 351.792 406.776V414H347.928ZM380.858 414.216C379.594 414.216 378.49 413.936 377.546 413.376C376.602 412.816 375.858 412.04 375.314 411.048C374.786 410.04 374.521 408.896 374.521 407.616C374.521 406.32 374.794 405.176 375.338 404.184C375.882 403.192 376.634 402.416 377.594 401.856C378.57 401.28 379.69 400.992 380.954 400.992C381.674 400.992 382.338 401.088 382.946 401.28C383.554 401.456 384.082 401.704 384.53 402.024C384.994 402.344 385.37 402.696 385.658 403.08C385.962 403.464 386.162 403.864 386.258 404.28H385.418V401.256H389.21V414H385.346V410.736L386.161 410.856C386.066 411.272 385.866 411.68 385.562 412.08C385.258 412.48 384.866 412.84 384.386 413.16C383.906 413.48 383.362 413.736 382.754 413.928C382.162 414.12 381.53 414.216 380.858 414.216ZM381.89 410.976C382.61 410.976 383.234 410.84 383.762 410.568C384.306 410.296 384.722 409.912 385.01 409.416C385.314 408.904 385.466 408.304 385.466 407.616C385.466 406.944 385.314 406.36 385.01 405.864C384.722 405.352 384.306 404.952 383.762 404.664C383.234 404.376 382.61 404.232 381.89 404.232C381.17 404.232 380.546 404.376 380.018 404.664C379.49 404.952 379.074 405.352 378.77 405.864C378.482 406.36 378.338 406.944 378.338 407.616C378.338 408.304 378.482 408.904 378.77 409.416C379.074 409.912 379.49 410.296 380.018 410.568C380.546 410.84 381.17 410.976 381.89 410.976ZM396.412 419.52L399.748 412.68L399.676 414.624L392.908 401.256H397.3L400.396 407.88C400.62 408.328 400.828 408.784 401.02 409.248C401.212 409.696 401.364 410.144 401.476 410.592L400.756 410.784C400.9 410.432 401.068 410.016 401.26 409.536C401.452 409.056 401.652 408.568 401.86 408.072L404.716 401.256H409.108L402.868 414.048L400.3 419.52H396.412ZM421.34 414.264C420.652 414.264 420.004 414.176 419.396 414C418.788 413.824 418.244 413.592 417.764 413.304C417.284 413.016 416.884 412.688 416.564 412.32C416.26 411.936 416.06 411.568 415.964 411.216L416.996 411.024L416.78 413.976H413.204V396.24H417.068V404.304L416.084 404.112C416.196 403.712 416.404 403.328 416.708 402.96C417.012 402.592 417.396 402.264 417.86 401.976C418.34 401.672 418.876 401.432 419.468 401.256C420.06 401.08 420.684 400.992 421.34 400.992C422.556 400.992 423.644 401.28 424.604 401.856C425.564 402.416 426.324 403.2 426.884 404.208C427.444 405.2 427.724 406.336 427.724 407.616C427.724 408.912 427.444 410.064 426.884 411.072C426.34 412.064 425.588 412.848 424.628 413.424C423.668 413.984 422.572 414.264 421.34 414.264ZM420.428 411C421.148 411 421.764 410.856 422.276 410.568C422.804 410.28 423.212 409.888 423.5 409.392C423.804 408.88 423.956 408.288 423.956 407.616C423.956 406.944 423.812 406.352 423.524 405.84C423.236 405.328 422.82 404.936 422.276 404.664C421.748 404.392 421.132 404.256 420.428 404.256C419.692 404.256 419.06 404.392 418.532 404.664C418.004 404.936 417.588 405.328 417.284 405.84C416.996 406.352 416.852 406.944 416.852 407.616C416.852 408.288 416.996 408.88 417.284 409.392C417.588 409.888 418.004 410.28 418.532 410.568C419.06 410.856 419.692 411 420.428 411ZM438.757 414.24C437.205 414.24 435.845 413.96 434.677 413.4C433.525 412.824 432.629 412.048 431.989 411.072C431.349 410.08 431.029 408.952 431.029 407.688C431.029 406.68 431.213 405.768 431.581 404.952C431.949 404.136 432.461 403.432 433.117 402.84C433.773 402.248 434.541 401.792 435.421 401.472C436.301 401.152 437.253 400.992 438.277 400.992C439.269 400.992 440.181 401.152 441.013 401.472C441.845 401.776 442.565 402.216 443.173 402.792C443.797 403.368 444.277 404.048 444.613 404.832C444.949 405.616 445.101 406.48 445.069 407.424L445.045 408.504H433.549L432.997 406.272H441.925L441.517 406.752V406.272C441.469 405.872 441.293 405.512 440.989 405.192C440.701 404.872 440.325 404.624 439.861 404.448C439.397 404.256 438.885 404.16 438.325 404.16C437.605 404.16 436.965 404.28 436.405 404.52C435.845 404.744 435.405 405.096 435.085 405.576C434.781 406.056 434.629 406.664 434.629 407.4C434.629 408.104 434.813 408.72 435.181 409.248C435.565 409.776 436.101 410.192 436.789 410.496C437.493 410.8 438.317 410.952 439.261 410.952C440.077 410.952 440.757 410.856 441.301 410.664C441.861 410.456 442.365 410.2 442.813 409.896L444.541 412.392C444.013 412.792 443.429 413.136 442.789 413.424C442.165 413.696 441.509 413.896 440.821 414.024C440.149 414.168 439.461 414.24 438.757 414.24ZM465.901 419.52C464.637 419.52 463.461 419.36 462.373 419.04C461.301 418.736 460.421 418.352 459.733 417.888L461.053 415.152C461.405 415.344 461.797 415.528 462.229 415.704C462.677 415.88 463.165 416.024 463.693 416.136C464.221 416.264 464.797 416.328 465.421 416.328C466.237 416.328 466.925 416.192 467.485 415.92C468.061 415.648 468.493 415.232 468.781 414.672C469.085 414.128 469.237 413.456 469.237 412.656V410.904L469.981 411.024C469.853 411.536 469.533 412.008 469.021 412.44C468.509 412.872 467.869 413.224 467.101 413.496C466.333 413.768 465.517 413.904 464.653 413.904C463.389 413.904 462.277 413.64 461.317 413.112C460.357 412.568 459.597 411.824 459.037 410.88C458.493 409.92 458.221 408.816 458.221 407.568C458.221 406.288 458.501 405.16 459.061 404.184C459.621 403.192 460.389 402.416 461.365 401.856C462.341 401.28 463.469 400.992 464.749 400.992C465.181 400.992 465.629 401.048 466.093 401.16C466.573 401.256 467.037 401.392 467.485 401.568C467.949 401.728 468.365 401.936 468.733 402.192C469.117 402.432 469.429 402.704 469.669 403.008C469.925 403.296 470.069 403.608 470.101 403.944L469.309 404.136L469.477 401.256H473.101V412.584C473.101 413.72 472.917 414.712 472.549 415.56C472.197 416.424 471.701 417.152 471.061 417.744C470.421 418.336 469.653 418.776 468.757 419.064C467.877 419.368 466.925 419.52 465.901 419.52ZM465.757 410.928C466.477 410.928 467.109 410.792 467.653 410.52C468.197 410.232 468.613 409.84 468.901 409.344C469.205 408.848 469.357 408.264 469.357 407.592C469.357 406.92 469.205 406.336 468.901 405.84C468.613 405.328 468.197 404.936 467.653 404.664C467.109 404.376 466.477 404.232 465.757 404.232C465.005 404.232 464.349 404.376 463.789 404.664C463.229 404.936 462.797 405.328 462.493 405.84C462.189 406.336 462.037 406.92 462.037 407.592C462.037 408.264 462.189 408.848 462.493 409.344C462.797 409.84 463.229 410.232 463.789 410.52C464.349 410.792 465.005 410.928 465.757 410.928ZM479.161 414V401.256H483.025V414H479.161ZM481.081 398.64C480.361 398.64 479.801 398.472 479.401 398.136C479.001 397.784 478.801 397.288 478.801 396.648C478.801 396.072 479.001 395.6 479.401 395.232C479.817 394.864 480.377 394.68 481.081 394.68C481.801 394.68 482.361 394.856 482.761 395.208C483.161 395.544 483.361 396.024 483.361 396.648C483.361 397.24 483.153 397.72 482.737 398.088C482.337 398.456 481.785 398.64 481.081 398.64ZM493.339 414L487.267 401.256H491.611L495.547 411L494.515 411.096L498.547 401.256H502.843L496.555 414H493.339ZM506.888 414V401.256H510.752V414H506.888ZM508.808 398.64C508.088 398.64 507.528 398.472 507.128 398.136C506.728 397.784 506.528 397.288 506.528 396.648C506.528 396.072 506.728 395.6 507.128 395.232C507.544 394.864 508.104 394.68 508.808 394.68C509.528 394.68 510.088 394.856 510.488 395.208C510.888 395.544 511.088 396.024 511.088 396.648C511.088 397.24 510.88 397.72 510.464 398.088C510.064 398.456 509.512 398.64 508.808 398.64ZM516.962 414V401.256H520.61L520.73 404.232L519.818 404.496C520.026 403.872 520.378 403.296 520.874 402.768C521.386 402.24 522.002 401.816 522.722 401.496C523.458 401.16 524.25 400.992 525.098 400.992C526.186 400.992 527.106 401.208 527.858 401.64C528.61 402.072 529.178 402.688 529.562 403.488C529.946 404.272 530.138 405.208 530.138 406.296V414H526.273V406.848C526.273 406.288 526.17 405.816 525.962 405.432C525.77 405.048 525.474 404.752 525.074 404.544C524.69 404.336 524.242 404.232 523.73 404.232C523.282 404.232 522.874 404.312 522.506 404.472C522.154 404.616 521.85 404.816 521.594 405.072C521.338 405.312 521.138 405.584 520.993 405.888C520.866 406.192 520.802 406.504 520.802 406.824V414H518.906C518.378 414 517.954 414 517.634 414C517.314 414 517.09 414 516.962 414ZM542.424 419.52C541.16 419.52 539.984 419.36 538.896 419.04C537.824 418.736 536.944 418.352 536.256 417.888L537.576 415.152C537.928 415.344 538.32 415.528 538.752 415.704C539.2 415.88 539.688 416.024 540.216 416.136C540.744 416.264 541.32 416.328 541.944 416.328C542.76 416.328 543.448 416.192 544.008 415.92C544.584 415.648 545.016 415.232 545.304 414.672C545.608 414.128 545.76 413.456 545.76 412.656V410.904L546.504 411.024C546.376 411.536 546.056 412.008 545.544 412.44C545.032 412.872 544.392 413.224 543.624 413.496C542.856 413.768 542.04 413.904 541.176 413.904C539.912 413.904 538.8 413.64 537.84 413.112C536.88 412.568 536.12 411.824 535.56 410.88C535.016 409.92 534.744 408.816 534.744 407.568C534.744 406.288 535.024 405.16 535.584 404.184C536.144 403.192 536.912 402.416 537.888 401.856C538.864 401.28 539.992 400.992 541.272 400.992C541.704 400.992 542.152 401.048 542.616 401.16C543.096 401.256 543.56 401.392 544.008 401.568C544.472 401.728 544.888 401.936 545.256 402.192C545.64 402.432 545.952 402.704 546.192 403.008C546.448 403.296 546.592 403.608 546.624 403.944L545.832 404.136L546 401.256H549.624V412.584C549.624 413.72 549.44 414.712 549.072 415.56C548.72 416.424 548.224 417.152 547.584 417.744C546.944 418.336 546.176 418.776 545.28 419.064C544.4 419.368 543.448 419.52 542.424 419.52ZM542.28 410.928C543 410.928 543.632 410.792 544.176 410.52C544.72 410.232 545.136 409.84 545.424 409.344C545.728 408.848 545.88 408.264 545.88 407.592C545.88 406.92 545.728 406.336 545.424 405.84C545.136 405.328 544.72 404.936 544.176 404.664C543.632 404.376 543 404.232 542.28 404.232C541.528 404.232 540.872 404.376 540.312 404.664C539.752 404.936 539.32 405.328 539.016 405.84C538.712 406.336 538.56 406.92 538.56 407.592C538.56 408.264 538.712 408.848 539.016 409.344C539.32 409.84 539.752 410.232 540.312 410.52C540.872 410.792 541.528 410.928 542.28 410.928ZM565.053 414V401.256H568.701L568.821 403.944L568.125 403.776C568.333 403.392 568.605 403.032 568.941 402.696C569.293 402.36 569.685 402.072 570.117 401.832C570.565 401.576 571.045 401.376 571.557 401.232C572.069 401.088 572.621 401.016 573.213 401.016C573.901 401.016 574.533 401.12 575.109 401.328C575.701 401.536 576.205 401.88 576.621 402.36C577.037 402.824 577.357 403.448 577.581 404.232L576.789 404.136L576.981 403.752C577.237 403.384 577.541 403.04 577.893 402.72C578.261 402.384 578.677 402.096 579.141 401.856C579.605 401.6 580.101 401.4 580.629 401.256C581.157 401.096 581.701 401.016 582.261 401.016C583.429 401.016 584.381 401.24 585.117 401.688C585.853 402.12 586.397 402.736 586.749 403.536C587.101 404.336 587.277 405.264 587.277 406.32V414H583.413V406.728C583.413 406.216 583.333 405.776 583.173 405.408C583.013 405.04 582.765 404.76 582.429 404.568C582.109 404.36 581.693 404.256 581.181 404.256C580.733 404.256 580.317 404.328 579.933 404.472C579.565 404.616 579.237 404.816 578.949 405.072C578.677 405.312 578.461 405.6 578.301 405.936C578.157 406.256 578.085 406.608 578.085 406.992V414H574.221V406.704C574.221 406.208 574.133 405.776 573.957 405.408C573.781 405.04 573.509 404.76 573.141 404.568C572.773 404.36 572.317 404.256 571.773 404.256C571.341 404.256 570.949 404.336 570.597 404.496C570.261 404.64 569.965 404.84 569.709 405.096C569.453 405.336 569.253 405.6 569.109 405.888C568.981 406.176 568.917 406.472 568.917 406.776V414H565.053ZM597.983 414.216C596.719 414.216 595.615 413.936 594.671 413.376C593.727 412.816 592.983 412.04 592.439 411.048C591.911 410.04 591.646 408.896 591.646 407.616C591.646 406.32 591.919 405.176 592.463 404.184C593.007 403.192 593.759 402.416 594.719 401.856C595.695 401.28 596.815 400.992 598.079 400.992C598.799 400.992 599.463 401.088 600.071 401.28C600.679 401.456 601.207 401.704 601.655 402.024C602.119 402.344 602.495 402.696 602.783 403.08C603.087 403.464 603.287 403.864 603.383 404.28H602.543V401.256H606.335V414H602.471V410.736L603.286 410.856C603.191 411.272 602.991 411.68 602.687 412.08C602.383 412.48 601.991 412.84 601.511 413.16C601.031 413.48 600.487 413.736 599.879 413.928C599.287 414.12 598.655 414.216 597.983 414.216ZM599.015 410.976C599.735 410.976 600.359 410.84 600.887 410.568C601.431 410.296 601.847 409.912 602.135 409.416C602.439 408.904 602.591 408.304 602.591 407.616C602.591 406.944 602.439 406.36 602.135 405.864C601.847 405.352 601.431 404.952 600.887 404.664C600.359 404.376 599.735 404.232 599.015 404.232C598.295 404.232 597.671 404.376 597.143 404.664C596.615 404.952 596.199 405.352 595.895 405.864C595.607 406.36 595.463 406.944 595.463 407.616C595.463 408.304 595.607 408.904 595.895 409.416C596.199 409.912 596.615 410.296 597.143 410.568C597.671 410.84 598.295 410.976 599.015 410.976ZM613.506 414V397.752H617.346V414H613.506ZM610.674 404.616V401.256H620.586V404.616H610.674ZM631.172 414.24C629.764 414.24 628.516 413.952 627.428 413.376C626.34 412.8 625.484 412.016 624.86 411.024C624.236 410.016 623.924 408.88 623.924 407.616C623.924 406.352 624.236 405.224 624.86 404.232C625.484 403.224 626.332 402.432 627.404 401.856C628.476 401.28 629.692 400.992 631.052 400.992C632.348 400.992 633.532 401.192 634.604 401.592C635.676 401.976 636.548 402.52 637.22 403.224L635.132 405.864C634.844 405.592 634.5 405.336 634.1 405.096C633.7 404.856 633.268 404.672 632.804 404.544C632.356 404.4 631.892 404.328 631.412 404.328C630.676 404.328 630.028 404.472 629.468 404.76C628.924 405.032 628.5 405.416 628.196 405.912C627.908 406.408 627.764 406.976 627.764 407.616C627.764 408.224 627.916 408.776 628.22 409.272C628.524 409.768 628.948 410.16 629.492 410.448C630.036 410.736 630.668 410.88 631.388 410.88C631.964 410.88 632.476 410.824 632.924 410.712C633.372 410.6 633.78 410.448 634.148 410.256C634.532 410.048 634.86 409.816 635.132 409.56L637.22 412.176C636.5 412.784 635.62 413.28 634.58 413.664C633.54 414.048 632.404 414.24 631.172 414.24ZM641.649 414V396.24H645.417V404.232L644.505 404.544C644.665 403.904 645.001 403.32 645.513 402.792C646.041 402.248 646.681 401.816 647.433 401.496C648.185 401.16 648.985 400.992 649.833 400.992C650.921 400.992 651.833 401.216 652.569 401.664C653.321 402.096 653.881 402.712 654.249 403.512C654.633 404.296 654.825 405.216 654.825 406.272V414H650.961V406.872C650.961 406.296 650.857 405.816 650.649 405.432C650.457 405.032 650.161 404.728 649.761 404.52C649.377 404.312 648.929 404.216 648.417 404.232C648.001 404.232 647.609 404.304 647.241 404.448C646.889 404.576 646.577 404.768 646.305 405.024C646.049 405.264 645.849 405.544 645.705 405.864C645.561 406.184 645.489 406.528 645.489 406.896V414H643.593C643.065 414 642.641 414 642.321 414C642.001 414 641.777 414 641.649 414ZM665.552 414.24C664.144 414.24 662.88 414.04 661.76 413.64C660.656 413.24 659.768 412.672 659.096 411.936L661.424 409.872C661.968 410.384 662.616 410.776 663.368 411.048C664.12 411.32 664.912 411.456 665.744 411.456C666 411.456 666.248 411.432 666.488 411.384C666.744 411.336 666.96 411.272 667.136 411.192C667.328 411.096 667.48 410.984 667.592 410.856C667.704 410.728 667.76 410.568 667.76 410.376C667.76 410.072 667.568 409.832 667.184 409.656C666.912 409.56 666.568 409.464 666.152 409.368C665.736 409.272 665.264 409.168 664.736 409.056C663.856 408.896 663.08 408.704 662.408 408.48C661.752 408.24 661.2 407.944 660.752 407.592C660.368 407.256 660.072 406.872 659.864 406.44C659.656 406.008 659.552 405.504 659.552 404.928C659.552 404.336 659.704 403.8 660.008 403.32C660.312 402.824 660.736 402.408 661.28 402.072C661.824 401.72 662.448 401.456 663.152 401.28C663.856 401.088 664.592 400.992 665.36 400.992C666.128 400.992 666.88 401.072 667.616 401.232C668.352 401.376 669.048 401.592 669.704 401.88C670.36 402.152 670.936 402.504 671.432 402.936L669.464 405.24C669.112 404.968 668.704 404.72 668.24 404.496C667.776 404.272 667.28 404.096 666.752 403.968C666.24 403.824 665.736 403.752 665.24 403.752C664.968 403.752 664.704 403.768 664.448 403.8C664.208 403.832 664 403.896 663.824 403.992C663.648 404.072 663.504 404.176 663.392 404.304C663.296 404.416 663.248 404.56 663.248 404.736C663.248 404.88 663.288 405.016 663.368 405.144C663.448 405.272 663.568 405.376 663.728 405.456C663.952 405.6 664.28 405.728 664.712 405.84C665.16 405.952 665.72 406.072 666.392 406.2C667.368 406.408 668.2 406.648 668.888 406.92C669.576 407.176 670.128 407.488 670.544 407.856C670.88 408.112 671.128 408.432 671.288 408.816C671.448 409.184 671.528 409.592 671.528 410.04C671.528 410.856 671.264 411.584 670.736 412.224C670.224 412.848 669.52 413.344 668.624 413.712C667.744 414.064 666.72 414.24 665.552 414.24ZM677.163 414V397.752H681.003V414H677.163ZM674.331 404.616V401.256H684.243V404.616H674.331ZM689.161 414V401.256H693.025V414H689.161ZM691.081 398.64C690.361 398.64 689.801 398.472 689.401 398.136C689.001 397.784 688.801 397.288 688.801 396.648C688.801 396.072 689.001 395.6 689.401 395.232C689.817 394.864 690.377 394.68 691.081 394.68C691.801 394.68 692.361 394.856 692.761 395.208C693.161 395.544 693.361 396.024 693.361 396.648C693.361 397.24 693.153 397.72 692.737 398.088C692.337 398.456 691.785 398.64 691.081 398.64ZM705.211 414.24C703.803 414.24 702.555 413.952 701.467 413.376C700.379 412.8 699.523 412.016 698.899 411.024C698.275 410.016 697.963 408.88 697.963 407.616C697.963 406.352 698.275 405.224 698.899 404.232C699.523 403.224 700.371 402.432 701.443 401.856C702.515 401.28 703.731 400.992 705.091 400.992C706.387 400.992 707.571 401.192 708.643 401.592C709.715 401.976 710.587 402.52 711.259 403.224L709.171 405.864C708.883 405.592 708.539 405.336 708.139 405.096C707.739 404.856 707.307 404.672 706.843 404.544C706.395 404.4 705.931 404.328 705.451 404.328C704.715 404.328 704.067 404.472 703.507 404.76C702.963 405.032 702.539 405.416 702.235 405.912C701.947 406.408 701.803 406.976 701.803 407.616C701.803 408.224 701.955 408.776 702.259 409.272C702.563 409.768 702.987 410.16 703.531 410.448C704.075 410.736 704.707 410.88 705.427 410.88C706.003 410.88 706.515 410.824 706.963 410.712C707.411 410.6 707.819 410.448 708.187 410.256C708.571 410.048 708.899 409.816 709.171 409.56L711.259 412.176C710.539 412.784 709.659 413.28 708.619 413.664C707.579 414.048 706.443 414.24 705.211 414.24ZM719.216 410.544L717.968 407.664L725.048 401.256H730.16L719.216 410.544ZM715.688 414V396.24H719.432V414H715.688ZM725.48 414L720.272 407.616L722.936 405.504L730.016 414H725.48ZM739.028 414.24C737.62 414.24 736.356 414.04 735.236 413.64C734.132 413.24 733.244 412.672 732.572 411.936L734.9 409.872C735.444 410.384 736.092 410.776 736.844 411.048C737.596 411.32 738.388 411.456 739.22 411.456C739.476 411.456 739.724 411.432 739.964 411.384C740.22 411.336 740.436 411.272 740.612 411.192C740.804 411.096 740.956 410.984 741.068 410.856C741.18 410.728 741.236 410.568 741.236 410.376C741.236 410.072 741.044 409.832 740.66 409.656C740.388 409.56 740.044 409.464 739.628 409.368C739.212 409.272 738.74 409.168 738.212 409.056C737.332 408.896 736.556 408.704 735.884 408.48C735.228 408.24 734.676 407.944 734.228 407.592C733.844 407.256 733.548 406.872 733.34 406.44C733.132 406.008 733.028 405.504 733.028 404.928C733.028 404.336 733.18 403.8 733.484 403.32C733.788 402.824 734.212 402.408 734.756 402.072C735.3 401.72 735.924 401.456 736.628 401.28C737.332 401.088 738.068 400.992 738.836 400.992C739.604 400.992 740.356 401.072 741.092 401.232C741.828 401.376 742.524 401.592 743.18 401.88C743.836 402.152 744.412 402.504 744.908 402.936L742.94 405.24C742.588 404.968 742.18 404.72 741.716 404.496C741.252 404.272 740.756 404.096 740.228 403.968C739.716 403.824 739.212 403.752 738.716 403.752C738.444 403.752 738.18 403.768 737.924 403.8C737.684 403.832 737.476 403.896 737.3 403.992C737.124 404.072 736.98 404.176 736.868 404.304C736.772 404.416 736.724 404.56 736.724 404.736C736.724 404.88 736.764 405.016 736.844 405.144C736.924 405.272 737.044 405.376 737.204 405.456C737.428 405.6 737.756 405.728 738.188 405.84C738.636 405.952 739.196 406.072 739.868 406.2C740.844 406.408 741.676 406.648 742.364 406.92C743.052 407.176 743.604 407.488 744.02 407.856C744.356 408.112 744.604 408.432 744.764 408.816C744.924 409.184 745.004 409.592 745.004 410.04C745.004 410.856 744.74 411.584 744.212 412.224C743.7 412.848 742.996 413.344 742.1 413.712C741.22 414.064 740.196 414.24 739.028 414.24ZM760.295 414V397.752H764.135V414H760.295ZM757.463 404.616V401.256H767.375V404.616H757.463ZM778.369 414.24C776.881 414.24 775.561 413.952 774.409 413.376C773.257 412.8 772.353 412.016 771.697 411.024C771.041 410.032 770.713 408.896 770.713 407.616C770.713 406.336 771.041 405.2 771.697 404.208C772.353 403.216 773.257 402.432 774.409 401.856C775.561 401.28 776.881 400.992 778.369 400.992C779.841 400.992 781.145 401.28 782.281 401.856C783.433 402.432 784.337 403.216 784.993 404.208C785.649 405.2 785.977 406.336 785.977 407.616C785.977 408.896 785.649 410.032 784.993 411.024C784.337 412.016 783.433 412.8 782.281 413.376C781.145 413.952 779.841 414.24 778.369 414.24ZM778.369 410.928C779.057 410.928 779.681 410.784 780.241 410.496C780.817 410.208 781.265 409.816 781.585 409.32C781.921 408.824 782.081 408.256 782.065 407.616C782.081 406.976 781.921 406.4 781.585 405.888C781.265 405.376 780.817 404.984 780.241 404.712C779.681 404.424 779.057 404.28 778.369 404.28C777.665 404.28 777.017 404.424 776.425 404.712C775.849 405 775.401 405.392 775.081 405.888C774.761 406.384 774.601 406.96 774.601 407.616C774.601 408.256 774.761 408.824 775.081 409.32C775.401 409.816 775.849 410.208 776.425 410.496C777.017 410.784 777.665 410.928 778.369 410.928ZM349.272 444V427.752H353.112V444H349.272ZM346.44 434.616V431.256H356.352V434.616H346.44ZM361.079 444V426.24H364.847V434.232L363.935 434.544C364.095 433.904 364.431 433.32 364.943 432.792C365.471 432.248 366.111 431.816 366.863 431.496C367.615 431.16 368.415 430.992 369.263 430.992C370.351 430.992 371.263 431.216 371.999 431.664C372.751 432.096 373.311 432.712 373.679 433.512C374.063 434.296 374.255 435.216 374.255 436.272V444H370.391V436.872C370.391 436.296 370.287 435.816 370.079 435.432C369.887 435.032 369.591 434.728 369.191 434.52C368.807 434.312 368.359 434.216 367.847 434.232C367.431 434.232 367.039 434.304 366.671 434.448C366.319 434.576 366.007 434.768 365.735 435.024C365.479 435.264 365.279 435.544 365.135 435.864C364.991 436.184 364.919 436.528 364.919 436.896V444H363.023C362.495 444 362.071 444 361.751 444C361.431 444 361.207 444 361.079 444ZM386.421 444.24C384.869 444.24 383.509 443.96 382.341 443.4C381.189 442.824 380.293 442.048 379.653 441.072C379.013 440.08 378.693 438.952 378.693 437.688C378.693 436.68 378.877 435.768 379.245 434.952C379.613 434.136 380.125 433.432 380.781 432.84C381.437 432.248 382.205 431.792 383.085 431.472C383.965 431.152 384.917 430.992 385.941 430.992C386.933 430.992 387.845 431.152 388.677 431.472C389.509 431.776 390.229 432.216 390.837 432.792C391.461 433.368 391.941 434.048 392.277 434.832C392.613 435.616 392.765 436.48 392.733 437.424L392.709 438.504H381.213L380.661 436.272H389.589L389.181 436.752V436.272C389.133 435.872 388.957 435.512 388.653 435.192C388.365 434.872 387.989 434.624 387.525 434.448C387.061 434.256 386.549 434.16 385.989 434.16C385.269 434.16 384.629 434.28 384.069 434.52C383.509 434.744 383.069 435.096 382.749 435.576C382.445 436.056 382.293 436.664 382.293 437.4C382.293 438.104 382.477 438.72 382.845 439.248C383.229 439.776 383.765 440.192 384.453 440.496C385.157 440.8 385.981 440.952 386.925 440.952C387.741 440.952 388.421 440.856 388.965 440.664C389.525 440.456 390.029 440.2 390.477 439.896L392.205 442.392C391.677 442.792 391.093 443.136 390.453 443.424C389.829 443.696 389.173 443.896 388.485 444.024C387.813 444.168 387.125 444.24 386.421 444.24ZM407.061 444V431.256H410.709L410.829 433.944L410.133 433.776C410.341 433.392 410.613 433.032 410.949 432.696C411.301 432.36 411.693 432.072 412.125 431.832C412.573 431.576 413.053 431.376 413.565 431.232C414.077 431.088 414.629 431.016 415.221 431.016C415.909 431.016 416.541 431.12 417.117 431.328C417.709 431.536 418.213 431.88 418.629 432.36C419.045 432.824 419.365 433.448 419.589 434.232L418.797 434.136L418.989 433.752C419.245 433.384 419.549 433.04 419.901 432.72C420.269 432.384 420.685 432.096 421.149 431.856C421.613 431.6 422.109 431.4 422.637 431.256C423.165 431.096 423.709 431.016 424.269 431.016C425.437 431.016 426.389 431.24 427.125 431.688C427.861 432.12 428.405 432.736 428.757 433.536C429.109 434.336 429.285 435.264 429.285 436.32V444H425.421V436.728C425.421 436.216 425.341 435.776 425.181 435.408C425.021 435.04 424.773 434.76 424.437 434.568C424.117 434.36 423.701 434.256 423.189 434.256C422.741 434.256 422.325 434.328 421.941 434.472C421.573 434.616 421.245 434.816 420.957 435.072C420.685 435.312 420.469 435.6 420.309 435.936C420.165 436.256 420.093 436.608 420.093 436.992V444H416.229V436.704C416.229 436.208 416.141 435.776 415.965 435.408C415.789 435.04 415.517 434.76 415.149 434.568C414.781 434.36 414.325 434.256 413.781 434.256C413.349 434.256 412.957 434.336 412.605 434.496C412.269 434.64 411.973 434.84 411.717 435.096C411.461 435.336 411.261 435.6 411.117 435.888C410.989 436.176 410.925 436.472 410.925 436.776V444H407.061ZM439.99 444.216C438.726 444.216 437.622 443.936 436.678 443.376C435.734 442.816 434.99 442.04 434.446 441.048C433.918 440.04 433.654 438.896 433.654 437.616C433.654 436.32 433.926 435.176 434.47 434.184C435.014 433.192 435.766 432.416 436.726 431.856C437.702 431.28 438.822 430.992 440.086 430.992C440.806 430.992 441.47 431.088 442.078 431.28C442.686 431.456 443.214 431.704 443.662 432.024C444.126 432.344 444.502 432.696 444.79 433.08C445.094 433.464 445.294 433.864 445.39 434.28H444.55V431.256H448.342V444H444.478V440.736L445.294 440.856C445.198 441.272 444.998 441.68 444.694 442.08C444.39 442.48 443.998 442.84 443.518 443.16C443.038 443.48 442.494 443.736 441.886 443.928C441.294 444.12 440.662 444.216 439.99 444.216ZM441.022 440.976C441.742 440.976 442.366 440.84 442.894 440.568C443.438 440.296 443.854 439.912 444.142 439.416C444.446 438.904 444.598 438.304 444.598 437.616C444.598 436.944 444.446 436.36 444.142 435.864C443.854 435.352 443.438 434.952 442.894 434.664C442.366 434.376 441.742 434.232 441.022 434.232C440.302 434.232 439.678 434.376 439.15 434.664C438.622 434.952 438.206 435.352 437.902 435.864C437.614 436.36 437.47 436.944 437.47 437.616C437.47 438.304 437.614 438.904 437.902 439.416C438.206 439.912 438.622 440.296 439.15 440.568C439.678 440.84 440.302 440.976 441.022 440.976ZM455.514 444V427.752H459.354V444H455.514ZM452.682 434.616V431.256H462.594V434.616H452.682ZM473.18 444.24C471.772 444.24 470.524 443.952 469.436 443.376C468.348 442.8 467.492 442.016 466.868 441.024C466.244 440.016 465.932 438.88 465.932 437.616C465.932 436.352 466.244 435.224 466.868 434.232C467.492 433.224 468.34 432.432 469.412 431.856C470.484 431.28 471.7 430.992 473.06 430.992C474.356 430.992 475.54 431.192 476.612 431.592C477.684 431.976 478.556 432.52 479.228 433.224L477.14 435.864C476.852 435.592 476.508 435.336 476.108 435.096C475.708 434.856 475.276 434.672 474.812 434.544C474.364 434.4 473.9 434.328 473.42 434.328C472.684 434.328 472.036 434.472 471.476 434.76C470.932 435.032 470.508 435.416 470.204 435.912C469.916 436.408 469.772 436.976 469.772 437.616C469.772 438.224 469.924 438.776 470.228 439.272C470.532 439.768 470.956 440.16 471.5 440.448C472.044 440.736 472.676 440.88 473.396 440.88C473.972 440.88 474.484 440.824 474.932 440.712C475.38 440.6 475.788 440.448 476.156 440.256C476.54 440.048 476.868 439.816 477.14 439.56L479.228 442.176C478.508 442.784 477.628 443.28 476.588 443.664C475.548 444.048 474.412 444.24 473.18 444.24ZM483.657 444V426.24H487.425V434.232L486.513 434.544C486.673 433.904 487.009 433.32 487.521 432.792C488.049 432.248 488.689 431.816 489.441 431.496C490.193 431.16 490.993 430.992 491.841 430.992C492.929 430.992 493.841 431.216 494.577 431.664C495.329 432.096 495.889 432.712 496.257 433.512C496.641 434.296 496.833 435.216 496.833 436.272V444H492.969V436.872C492.969 436.296 492.865 435.816 492.657 435.432C492.465 435.032 492.169 434.728 491.769 434.52C491.385 434.312 490.937 434.216 490.425 434.232C490.009 434.232 489.617 434.304 489.249 434.448C488.897 434.576 488.585 434.768 488.313 435.024C488.057 435.264 487.857 435.544 487.713 435.864C487.569 436.184 487.497 436.528 487.497 436.896V444H485.601C485.073 444 484.649 444 484.329 444C484.009 444 483.785 444 483.657 444ZM507.56 444.24C506.152 444.24 504.888 444.04 503.768 443.64C502.664 443.24 501.776 442.672 501.104 441.936L503.432 439.872C503.976 440.384 504.624 440.776 505.376 441.048C506.128 441.32 506.92 441.456 507.752 441.456C508.008 441.456 508.256 441.432 508.496 441.384C508.752 441.336 508.968 441.272 509.144 441.192C509.336 441.096 509.488 440.984 509.6 440.856C509.712 440.728 509.768 440.568 509.768 440.376C509.768 440.072 509.576 439.832 509.192 439.656C508.92 439.56 508.576 439.464 508.16 439.368C507.744 439.272 507.272 439.168 506.743 439.056C505.864 438.896 505.088 438.704 504.416 438.48C503.76 438.24 503.208 437.944 502.76 437.592C502.376 437.256 502.08 436.872 501.872 436.44C501.664 436.008 501.56 435.504 501.56 434.928C501.56 434.336 501.712 433.8 502.016 433.32C502.32 432.824 502.744 432.408 503.288 432.072C503.832 431.72 504.456 431.456 505.16 431.28C505.864 431.088 506.6 430.992 507.368 430.992C508.136 430.992 508.888 431.072 509.624 431.232C510.36 431.376 511.056 431.592 511.712 431.88C512.368 432.152 512.944 432.504 513.44 432.936L511.472 435.24C511.12 434.968 510.712 434.72 510.248 434.496C509.784 434.272 509.288 434.096 508.76 433.968C508.248 433.824 507.744 433.752 507.248 433.752C506.976 433.752 506.712 433.768 506.456 433.8C506.216 433.832 506.008 433.896 505.832 433.992C505.656 434.072 505.512 434.176 505.4 434.304C505.304 434.416 505.256 434.56 505.256 434.736C505.256 434.88 505.296 435.016 505.376 435.144C505.456 435.272 505.576 435.376 505.736 435.456C505.96 435.6 506.288 435.728 506.72 435.84C507.168 435.952 507.728 436.072 508.4 436.2C509.376 436.408 510.208 436.648 510.896 436.92C511.584 437.176 512.136 437.488 512.552 437.856C512.888 438.112 513.136 438.432 513.296 438.816C513.456 439.184 513.536 439.592 513.536 440.04C513.536 440.856 513.272 441.584 512.744 442.224C512.232 442.848 511.528 443.344 510.632 443.712C509.752 444.064 508.728 444.24 507.56 444.24ZM519.17 444V427.752H523.01V444H519.17ZM516.338 434.616V431.256H526.25V434.616H516.338ZM531.169 444V431.256H535.033V444H531.169ZM533.089 428.64C532.369 428.64 531.809 428.472 531.409 428.136C531.009 427.784 530.809 427.288 530.809 426.648C530.809 426.072 531.009 425.6 531.409 425.232C531.825 424.864 532.385 424.68 533.089 424.68C533.809 424.68 534.369 424.856 534.769 425.208C535.169 425.544 535.369 426.024 535.369 426.648C535.369 427.24 535.161 427.72 534.745 428.088C534.345 428.456 533.793 428.64 533.089 428.64ZM547.219 444.24C545.811 444.24 544.563 443.952 543.475 443.376C542.387 442.8 541.531 442.016 540.907 441.024C540.283 440.016 539.971 438.88 539.971 437.616C539.971 436.352 540.283 435.224 540.907 434.232C541.531 433.224 542.379 432.432 543.451 431.856C544.523 431.28 545.739 430.992 547.099 430.992C548.395 430.992 549.579 431.192 550.651 431.592C551.723 431.976 552.595 432.52 553.267 433.224L551.179 435.864C550.891 435.592 550.547 435.336 550.147 435.096C549.747 434.856 549.315 434.672 548.851 434.544C548.403 434.4 547.939 434.328 547.459 434.328C546.723 434.328 546.075 434.472 545.515 434.76C544.971 435.032 544.547 435.416 544.243 435.912C543.955 436.408 543.811 436.976 543.811 437.616C543.811 438.224 543.963 438.776 544.267 439.272C544.571 439.768 544.995 440.16 545.539 440.448C546.083 440.736 546.715 440.88 547.435 440.88C548.011 440.88 548.523 440.824 548.971 440.712C549.419 440.6 549.827 440.448 550.195 440.256C550.579 440.048 550.907 439.816 551.179 439.56L553.267 442.176C552.547 442.784 551.667 443.28 550.627 443.664C549.587 444.048 548.451 444.24 547.219 444.24ZM561.224 440.544L559.976 437.664L567.056 431.256H572.168L561.224 440.544ZM557.696 444V426.24H561.44V444H557.696ZM567.488 444L562.28 437.616L564.944 435.504L572.024 444H567.488ZM585.962 444V426.24H589.802V444H585.962ZM602.025 444.24C600.537 444.24 599.217 443.952 598.065 443.376C596.913 442.8 596.009 442.016 595.353 441.024C594.697 440.032 594.369 438.896 594.369 437.616C594.369 436.336 594.697 435.2 595.353 434.208C596.009 433.216 596.913 432.432 598.065 431.856C599.217 431.28 600.537 430.992 602.025 430.992C603.497 430.992 604.801 431.28 605.937 431.856C607.089 432.432 607.993 433.216 608.649 434.208C609.305 435.2 609.633 436.336 609.633 437.616C609.633 438.896 609.305 440.032 608.649 441.024C607.993 442.016 607.089 442.8 605.937 443.376C604.801 443.952 603.497 444.24 602.025 444.24ZM602.025 440.928C602.713 440.928 603.337 440.784 603.897 440.496C604.473 440.208 604.921 439.816 605.241 439.32C605.577 438.824 605.737 438.256 605.721 437.616C605.737 436.976 605.577 436.4 605.241 435.888C604.921 435.376 604.473 434.984 603.897 434.712C603.337 434.424 602.713 434.28 602.025 434.28C601.321 434.28 600.673 434.424 600.081 434.712C599.505 435 599.057 435.392 598.737 435.888C598.417 436.384 598.257 436.96 598.257 437.616C598.257 438.256 598.417 438.824 598.737 439.32C599.057 439.816 599.505 440.208 600.081 440.496C600.673 440.784 601.321 440.928 602.025 440.928ZM618.144 444L612.072 431.256H616.416L620.352 441L619.32 441.096L623.352 431.256H627.648L621.36 444H618.144ZM637.437 444.24C635.885 444.24 634.525 443.96 633.357 443.4C632.205 442.824 631.309 442.048 630.669 441.072C630.029 440.08 629.709 438.952 629.709 437.688C629.709 436.68 629.893 435.768 630.261 434.952C630.629 434.136 631.141 433.432 631.797 432.84C632.453 432.248 633.221 431.792 634.101 431.472C634.981 431.152 635.933 430.992 636.957 430.992C637.949 430.992 638.861 431.152 639.693 431.472C640.525 431.776 641.245 432.216 641.853 432.792C642.477 433.368 642.957 434.048 643.293 434.832C643.629 435.616 643.781 436.48 643.749 437.424L643.725 438.504H632.229L631.677 436.272H640.605L640.197 436.752V436.272C640.149 435.872 639.973 435.512 639.669 435.192C639.381 434.872 639.005 434.624 638.541 434.448C638.077 434.256 637.565 434.16 637.005 434.16C636.285 434.16 635.645 434.28 635.085 434.52C634.525 434.744 634.085 435.096 633.765 435.576C633.461 436.056 633.309 436.664 633.309 437.4C633.309 438.104 633.493 438.72 633.861 439.248C634.245 439.776 634.781 440.192 635.469 440.496C636.173 440.8 636.997 440.952 637.941 440.952C638.757 440.952 639.437 440.856 639.981 440.664C640.541 440.456 641.045 440.2 641.493 439.896L643.221 442.392C642.693 442.792 642.109 443.136 641.469 443.424C640.845 443.696 640.189 443.896 639.501 444.024C638.829 444.168 638.141 444.24 637.437 444.24ZM648.516 444V431.256H652.164L652.332 435.648L651.42 435.192C651.628 434.408 651.988 433.704 652.5 433.08C653.028 432.44 653.628 431.936 654.3 431.568C654.988 431.184 655.716 430.992 656.484 430.992C656.9 430.992 657.292 431.032 657.66 431.112C658.044 431.192 658.372 431.296 658.644 431.424L657.588 435.624C657.348 435.448 657.02 435.312 656.604 435.216C656.204 435.12 655.796 435.072 655.38 435.072C654.916 435.072 654.492 435.152 654.108 435.312C653.74 435.456 653.428 435.664 653.172 435.936C652.916 436.192 652.716 436.488 652.572 436.824C652.444 437.16 652.38 437.52 652.38 437.904V444H648.516ZM667.802 444.24C666.394 444.24 665.13 444.04 664.01 443.64C662.906 443.24 662.018 442.672 661.346 441.936L663.674 439.872C664.218 440.384 664.866 440.776 665.618 441.048C666.37 441.32 667.162 441.456 667.994 441.456C668.25 441.456 668.498 441.432 668.738 441.384C668.994 441.336 669.21 441.272 669.386 441.192C669.578 441.096 669.73 440.984 669.842 440.856C669.954 440.728 670.01 440.568 670.01 440.376C670.01 440.072 669.818 439.832 669.434 439.656C669.162 439.56 668.818 439.464 668.402 439.368C667.986 439.272 667.514 439.168 666.986 439.056C666.106 438.896 665.33 438.704 664.658 438.48C664.002 438.24 663.45 437.944 663.002 437.592C662.618 437.256 662.322 436.872 662.114 436.44C661.906 436.008 661.802 435.504 661.802 434.928C661.802 434.336 661.954 433.8 662.258 433.32C662.562 432.824 662.986 432.408 663.53 432.072C664.074 431.72 664.698 431.456 665.402 431.28C666.106 431.088 666.842 430.992 667.61 430.992C668.378 430.992 669.13 431.072 669.866 431.232C670.602 431.376 671.298 431.592 671.954 431.88C672.61 432.152 673.186 432.504 673.682 432.936L671.714 435.24C671.362 434.968 670.954 434.72 670.49 434.496C670.026 434.272 669.53 434.096 669.002 433.968C668.49 433.824 667.986 433.752 667.49 433.752C667.218 433.752 666.954 433.768 666.698 433.8C666.458 433.832 666.25 433.896 666.074 433.992C665.898 434.072 665.754 434.176 665.642 434.304C665.546 434.416 665.498 434.56 665.498 434.736C665.498 434.88 665.538 435.016 665.618 435.144C665.698 435.272 665.818 435.376 665.978 435.456C666.202 435.6 666.53 435.728 666.962 435.84C667.41 435.952 667.97 436.072 668.642 436.2C669.618 436.408 670.45 436.648 671.138 436.92C671.826 437.176 672.378 437.488 672.794 437.856C673.13 438.112 673.378 438.432 673.538 438.816C673.698 439.184 673.778 439.592 673.778 440.04C673.778 440.856 673.514 441.584 672.986 442.224C672.474 442.848 671.77 443.344 670.874 443.712C669.994 444.064 668.97 444.24 667.802 444.24ZM690.293 444L685.853 431.256H689.909L692.429 439.656L691.925 439.608L694.805 432.96H697.277L700.349 439.608L699.845 439.656L702.365 431.256H706.445L701.861 444H698.957L695.645 436.32L696.533 436.296L693.173 444H690.293ZM714.818 444.216C713.554 444.216 712.45 443.936 711.506 443.376C710.562 442.816 709.818 442.04 709.274 441.048C708.746 440.04 708.482 438.896 708.482 437.616C708.482 436.32 708.754 435.176 709.298 434.184C709.842 433.192 710.594 432.416 711.554 431.856C712.53 431.28 713.65 430.992 714.914 430.992C715.634 430.992 716.298 431.088 716.906 431.28C717.514 431.456 718.042 431.704 718.49 432.024C718.954 432.344 719.33 432.696 719.618 433.08C719.922 433.464 720.122 433.864 720.218 434.28H719.378V431.256H723.17V444H719.306V440.736L720.122 440.856C720.026 441.272 719.826 441.68 719.522 442.08C719.218 442.48 718.826 442.84 718.346 443.16C717.866 443.48 717.322 443.736 716.714 443.928C716.122 444.12 715.49 444.216 714.818 444.216ZM715.85 440.976C716.57 440.976 717.194 440.84 717.722 440.568C718.266 440.296 718.682 439.912 718.97 439.416C719.274 438.904 719.426 438.304 719.426 437.616C719.426 436.944 719.274 436.36 718.97 435.864C718.682 435.352 718.266 434.952 717.722 434.664C717.194 434.376 716.57 434.232 715.85 434.232C715.13 434.232 714.506 434.376 713.978 434.664C713.45 434.952 713.034 435.352 712.73 435.864C712.442 436.36 712.298 436.944 712.298 437.616C712.298 438.304 712.442 438.904 712.73 439.416C713.034 439.912 713.45 440.296 713.978 440.568C714.506 440.84 715.13 440.976 715.85 440.976ZM733.942 444.24C732.534 444.24 731.27 444.04 730.15 443.64C729.046 443.24 728.158 442.672 727.486 441.936L729.814 439.872C730.358 440.384 731.006 440.776 731.758 441.048C732.51 441.32 733.302 441.456 734.134 441.456C734.39 441.456 734.638 441.432 734.878 441.384C735.134 441.336 735.35 441.272 735.526 441.192C735.718 441.096 735.87 440.984 735.982 440.856C736.094 440.728 736.15 440.568 736.15 440.376C736.15 440.072 735.958 439.832 735.574 439.656C735.302 439.56 734.958 439.464 734.542 439.368C734.126 439.272 733.654 439.168 733.126 439.056C732.246 438.896 731.47 438.704 730.798 438.48C730.142 438.24 729.59 437.944 729.142 437.592C728.758 437.256 728.462 436.872 728.254 436.44C728.046 436.008 727.942 435.504 727.942 434.928C727.942 434.336 728.094 433.8 728.398 433.32C728.702 432.824 729.126 432.408 729.67 432.072C730.214 431.72 730.838 431.456 731.542 431.28C732.246 431.088 732.982 430.992 733.75 430.992C734.518 430.992 735.27 431.072 736.006 431.232C736.742 431.376 737.438 431.592 738.094 431.88C738.75 432.152 739.326 432.504 739.822 432.936L737.854 435.24C737.502 434.968 737.094 434.72 736.63 434.496C736.166 434.272 735.67 434.096 735.142 433.968C734.63 433.824 734.126 433.752 733.63 433.752C733.358 433.752 733.094 433.768 732.838 433.8C732.598 433.832 732.39 433.896 732.214 433.992C732.038 434.072 731.894 434.176 731.782 434.304C731.686 434.416 731.638 434.56 731.638 434.736C731.638 434.88 731.678 435.016 731.758 435.144C731.838 435.272 731.958 435.376 732.118 435.456C732.342 435.6 732.67 435.728 733.102 435.84C733.55 435.952 734.11 436.072 734.782 436.2C735.758 436.408 736.59 436.648 737.278 436.92C737.966 437.176 738.518 437.488 738.934 437.856C739.27 438.112 739.518 438.432 739.678 438.816C739.838 439.184 739.918 439.592 739.918 440.04C739.918 440.856 739.654 441.584 739.126 442.224C738.614 442.848 737.91 443.344 737.014 443.712C736.134 444.064 735.11 444.24 733.942 444.24ZM744.305 444V431.256H747.953L748.073 434.232L747.161 434.496C747.369 433.872 747.721 433.296 748.217 432.768C748.729 432.24 749.345 431.816 750.065 431.496C750.801 431.16 751.593 430.992 752.441 430.992C753.529 430.992 754.449 431.208 755.201 431.64C755.953 432.072 756.521 432.688 756.905 433.488C757.289 434.272 757.481 435.208 757.481 436.296V444H753.617V436.848C753.617 436.288 753.513 435.816 753.305 435.432C753.113 435.048 752.817 434.752 752.417 434.544C752.033 434.336 751.585 434.232 751.073 434.232C750.625 434.232 750.217 434.312 749.849 434.472C749.497 434.616 749.193 434.816 748.937 435.072C748.681 435.312 748.481 435.584 748.337 435.888C748.209 436.192 748.145 436.504 748.145 436.824V444H746.249C745.721 444 745.297 444 744.977 444C744.657 444 744.433 444 744.305 444ZM762.16 434.448L760.96 433.008C761.696 432.656 762.28 432.264 762.712 431.832C763.16 431.384 763.384 431 763.384 430.68C763.384 430.472 763.32 430.288 763.192 430.128C763.064 429.952 762.856 429.784 762.568 429.624C762.216 429.384 761.92 429.128 761.68 428.856C761.456 428.568 761.344 428.224 761.344 427.824C761.344 427.248 761.552 426.808 761.968 426.504C762.4 426.184 762.936 426.024 763.576 426.024C764.088 426.024 764.568 426.168 765.016 426.456C765.464 426.744 765.816 427.136 766.072 427.632C766.344 428.128 766.48 428.688 766.48 429.312C766.48 429.856 766.368 430.392 766.144 430.92C765.92 431.432 765.6 431.92 765.184 432.384C764.784 432.848 764.32 433.264 763.792 433.632C763.28 433.984 762.736 434.256 762.16 434.448ZM772.202 444V427.752H776.042V444H772.202ZM769.37 434.616V431.256H779.282V434.616H769.37ZM794.913 444V427.752H798.753V444H794.913ZM792.081 434.616V431.256H801.993V434.616H792.081ZM806.719 444V426.24H810.487V434.232L809.575 434.544C809.735 433.904 810.071 433.32 810.583 432.792C811.111 432.248 811.751 431.816 812.503 431.496C813.255 431.16 814.055 430.992 814.903 430.992C815.991 430.992 816.903 431.216 817.639 431.664C818.391 432.096 818.951 432.712 819.319 433.512C819.703 434.296 819.895 435.216 819.895 436.272V444H816.031V436.872C816.031 436.296 815.927 435.816 815.719 435.432C815.527 435.032 815.231 434.728 814.831 434.52C814.447 434.312 813.999 434.216 813.487 434.232C813.071 434.232 812.679 434.304 812.311 434.448C811.959 434.576 811.647 434.768 811.375 435.024C811.119 435.264 810.919 435.544 810.775 435.864C810.631 436.184 810.559 436.528 810.559 436.896V444H808.663C808.135 444 807.711 444 807.391 444C807.071 444 806.847 444 806.719 444ZM832.062 444.24C830.51 444.24 829.15 443.96 827.982 443.4C826.83 442.824 825.934 442.048 825.294 441.072C824.654 440.08 824.334 438.952 824.334 437.688C824.334 436.68 824.518 435.768 824.886 434.952C825.254 434.136 825.766 433.432 826.422 432.84C827.078 432.248 827.846 431.792 828.726 431.472C829.606 431.152 830.558 430.992 831.582 430.992C832.574 430.992 833.486 431.152 834.318 431.472C835.15 431.776 835.87 432.216 836.478 432.792C837.102 433.368 837.582 434.048 837.918 434.832C838.254 435.616 838.406 436.48 838.374 437.424L838.35 438.504H826.854L826.302 436.272H835.23L834.822 436.752V436.272C834.774 435.872 834.598 435.512 834.294 435.192C834.006 434.872 833.63 434.624 833.166 434.448C832.702 434.256 832.19 434.16 831.63 434.16C830.91 434.16 830.27 434.28 829.71 434.52C829.15 434.744 828.71 435.096 828.39 435.576C828.086 436.056 827.934 436.664 827.934 437.4C827.934 438.104 828.118 438.72 828.486 439.248C828.87 439.776 829.406 440.192 830.094 440.496C830.798 440.8 831.622 440.952 832.566 440.952C833.382 440.952 834.062 440.856 834.606 440.664C835.166 440.456 835.67 440.2 836.118 439.896L837.846 442.392C837.318 442.792 836.734 443.136 836.094 443.424C835.47 443.696 834.814 443.896 834.126 444.024C833.454 444.168 832.766 444.24 832.062 444.24ZM352.872 474.24C351.464 474.24 350.2 474.04 349.08 473.64C347.976 473.24 347.088 472.672 346.416 471.936L348.744 469.872C349.288 470.384 349.936 470.776 350.688 471.048C351.44 471.32 352.232 471.456 353.064 471.456C353.32 471.456 353.568 471.432 353.808 471.384C354.064 471.336 354.28 471.272 354.456 471.192C354.648 471.096 354.8 470.984 354.912 470.856C355.024 470.728 355.08 470.568 355.08 470.376C355.08 470.072 354.888 469.832 354.504 469.656C354.232 469.56 353.888 469.464 353.472 469.368C353.056 469.272 352.584 469.168 352.056 469.056C351.176 468.896 350.4 468.704 349.728 468.48C349.072 468.24 348.52 467.944 348.072 467.592C347.688 467.256 347.392 466.872 347.184 466.44C346.976 466.008 346.872 465.504 346.872 464.928C346.872 464.336 347.024 463.8 347.328 463.32C347.632 462.824 348.056 462.408 348.6 462.072C349.144 461.72 349.768 461.456 350.472 461.28C351.176 461.088 351.912 460.992 352.68 460.992C353.448 460.992 354.2 461.072 354.936 461.232C355.672 461.376 356.368 461.592 357.024 461.88C357.68 462.152 358.256 462.504 358.752 462.936L356.784 465.24C356.432 464.968 356.024 464.72 355.56 464.496C355.096 464.272 354.6 464.096 354.072 463.968C353.56 463.824 353.056 463.752 352.56 463.752C352.288 463.752 352.024 463.768 351.768 463.8C351.528 463.832 351.32 463.896 351.144 463.992C350.968 464.072 350.824 464.176 350.712 464.304C350.616 464.416 350.568 464.56 350.568 464.736C350.568 464.88 350.608 465.016 350.688 465.144C350.768 465.272 350.888 465.376 351.048 465.456C351.272 465.6 351.6 465.728 352.032 465.84C352.48 465.952 353.04 466.072 353.712 466.2C354.688 466.408 355.52 466.648 356.208 466.92C356.896 467.176 357.448 467.488 357.864 467.856C358.2 468.112 358.448 468.432 358.608 468.816C358.768 469.184 358.848 469.592 358.848 470.04C358.848 470.856 358.584 471.584 358.056 472.224C357.544 472.848 356.84 473.344 355.944 473.712C355.064 474.064 354.04 474.24 352.872 474.24ZM363.139 474V461.256H366.787L366.907 463.944L366.211 463.776C366.419 463.392 366.691 463.032 367.027 462.696C367.379 462.36 367.771 462.072 368.203 461.832C368.651 461.576 369.131 461.376 369.643 461.232C370.155 461.088 370.707 461.016 371.299 461.016C371.987 461.016 372.619 461.12 373.195 461.328C373.787 461.536 374.291 461.88 374.707 462.36C375.123 462.824 375.443 463.448 375.667 464.232L374.875 464.136L375.067 463.752C375.323 463.384 375.627 463.04 375.979 462.72C376.347 462.384 376.763 462.096 377.227 461.856C377.691 461.6 378.187 461.4 378.715 461.256C379.243 461.096 379.787 461.016 380.347 461.016C381.515 461.016 382.467 461.24 383.203 461.688C383.939 462.12 384.483 462.736 384.835 463.536C385.187 464.336 385.363 465.264 385.363 466.32V474H381.499V466.728C381.499 466.216 381.419 465.776 381.259 465.408C381.099 465.04 380.851 464.76 380.515 464.568C380.195 464.36 379.779 464.256 379.267 464.256C378.819 464.256 378.403 464.328 378.019 464.472C377.651 464.616 377.323 464.816 377.035 465.072C376.763 465.312 376.547 465.6 376.387 465.936C376.243 466.256 376.171 466.608 376.171 466.992V474H372.307V466.704C372.307 466.208 372.219 465.776 372.043 465.408C371.867 465.04 371.595 464.76 371.227 464.568C370.859 464.36 370.403 464.256 369.859 464.256C369.427 464.256 369.035 464.336 368.683 464.496C368.347 464.64 368.051 464.84 367.795 465.096C367.539 465.336 367.339 465.6 367.195 465.888C367.067 466.176 367.003 466.472 367.003 466.776V474H363.139ZM396.068 474.216C394.804 474.216 393.7 473.936 392.756 473.376C391.812 472.816 391.068 472.04 390.524 471.048C389.996 470.04 389.732 468.896 389.732 467.616C389.732 466.32 390.004 465.176 390.548 464.184C391.092 463.192 391.844 462.416 392.804 461.856C393.78 461.28 394.9 460.992 396.164 460.992C396.884 460.992 397.548 461.088 398.156 461.28C398.764 461.456 399.292 461.704 399.74 462.024C400.204 462.344 400.58 462.696 400.868 463.08C401.172 463.464 401.372 463.864 401.468 464.28H400.628V461.256H404.42V474H400.556V470.736L401.372 470.856C401.276 471.272 401.076 471.68 400.772 472.08C400.468 472.48 400.076 472.84 399.596 473.16C399.116 473.48 398.572 473.736 397.964 473.928C397.372 474.12 396.74 474.216 396.068 474.216ZM397.1 470.976C397.82 470.976 398.444 470.84 398.972 470.568C399.516 470.296 399.932 469.912 400.22 469.416C400.524 468.904 400.676 468.304 400.676 467.616C400.676 466.944 400.524 466.36 400.22 465.864C399.932 465.352 399.516 464.952 398.972 464.664C398.444 464.376 397.82 464.232 397.1 464.232C396.38 464.232 395.756 464.376 395.228 464.664C394.7 464.952 394.284 465.352 393.98 465.864C393.692 466.36 393.548 466.944 393.548 467.616C393.548 468.304 393.692 468.904 393.98 469.416C394.284 469.912 394.7 470.296 395.228 470.568C395.756 470.84 396.38 470.976 397.1 470.976ZM410.344 474V461.256H413.992L414.16 465.648L413.248 465.192C413.456 464.408 413.816 463.704 414.328 463.08C414.856 462.44 415.456 461.936 416.128 461.568C416.816 461.184 417.544 460.992 418.312 460.992C418.728 460.992 419.12 461.032 419.488 461.112C419.872 461.192 420.2 461.296 420.472 461.424L419.416 465.624C419.176 465.448 418.848 465.312 418.432 465.216C418.032 465.12 417.624 465.072 417.208 465.072C416.744 465.072 416.32 465.152 415.936 465.312C415.568 465.456 415.256 465.664 415 465.936C414.744 466.192 414.544 466.488 414.4 466.824C414.272 467.16 414.208 467.52 414.208 467.904V474H410.344ZM426.499 474V457.752H430.339V474H426.499ZM423.667 464.616V461.256H433.579V464.616H423.667ZM444.476 474.24C442.924 474.24 441.564 473.96 440.396 473.4C439.244 472.824 438.348 472.048 437.708 471.072C437.068 470.08 436.748 468.952 436.748 467.688C436.748 466.68 436.932 465.768 437.3 464.952C437.668 464.136 438.18 463.432 438.836 462.84C439.492 462.248 440.26 461.792 441.14 461.472C442.02 461.152 442.972 460.992 443.996 460.992C444.988 460.992 445.9 461.152 446.732 461.472C447.564 461.776 448.284 462.216 448.892 462.792C449.516 463.368 449.996 464.048 450.332 464.832C450.668 465.616 450.82 466.48 450.788 467.424L450.764 468.504H439.268L438.716 466.272H447.644L447.236 466.752V466.272C447.188 465.872 447.012 465.512 446.708 465.192C446.42 464.872 446.044 464.624 445.58 464.448C445.116 464.256 444.604 464.16 444.044 464.16C443.324 464.16 442.684 464.28 442.124 464.52C441.564 464.744 441.124 465.096 440.804 465.576C440.5 466.056 440.348 466.664 440.348 467.4C440.348 468.104 440.532 468.72 440.9 469.248C441.284 469.776 441.82 470.192 442.508 470.496C443.212 470.8 444.036 470.952 444.98 470.952C445.796 470.952 446.476 470.856 447.02 470.664C447.58 470.456 448.084 470.2 448.532 469.896L450.26 472.392C449.732 472.792 449.148 473.136 448.508 473.424C447.884 473.696 447.228 473.896 446.54 474.024C445.868 474.168 445.18 474.24 444.476 474.24ZM460.403 474.24C458.995 474.24 457.731 474.04 456.611 473.64C455.507 473.24 454.619 472.672 453.947 471.936L456.275 469.872C456.819 470.384 457.467 470.776 458.219 471.048C458.971 471.32 459.763 471.456 460.595 471.456C460.851 471.456 461.099 471.432 461.339 471.384C461.595 471.336 461.811 471.272 461.987 471.192C462.179 471.096 462.331 470.984 462.443 470.856C462.555 470.728 462.611 470.568 462.611 470.376C462.611 470.072 462.419 469.832 462.035 469.656C461.763 469.56 461.419 469.464 461.003 469.368C460.587 469.272 460.115 469.168 459.587 469.056C458.707 468.896 457.931 468.704 457.259 468.48C456.603 468.24 456.051 467.944 455.603 467.592C455.219 467.256 454.923 466.872 454.715 466.44C454.507 466.008 454.403 465.504 454.403 464.928C454.403 464.336 454.555 463.8 454.859 463.32C455.163 462.824 455.587 462.408 456.131 462.072C456.675 461.72 457.299 461.456 458.003 461.28C458.707 461.088 459.443 460.992 460.211 460.992C460.979 460.992 461.731 461.072 462.467 461.232C463.203 461.376 463.899 461.592 464.555 461.88C465.211 462.152 465.787 462.504 466.283 462.936L464.315 465.24C463.963 464.968 463.555 464.72 463.091 464.496C462.627 464.272 462.131 464.096 461.603 463.968C461.091 463.824 460.587 463.752 460.091 463.752C459.819 463.752 459.555 463.768 459.299 463.8C459.059 463.832 458.851 463.896 458.675 463.992C458.499 464.072 458.355 464.176 458.243 464.304C458.147 464.416 458.099 464.56 458.099 464.736C458.099 464.88 458.139 465.016 458.219 465.144C458.299 465.272 458.419 465.376 458.579 465.456C458.803 465.6 459.131 465.728 459.563 465.84C460.011 465.952 460.571 466.072 461.243 466.2C462.219 466.408 463.051 466.648 463.739 466.92C464.427 467.176 464.979 467.488 465.395 467.856C465.731 468.112 465.979 468.432 466.139 468.816C466.299 469.184 466.379 469.592 466.379 470.04C466.379 470.856 466.115 471.584 465.587 472.224C465.075 472.848 464.371 473.344 463.475 473.712C462.595 474.064 461.571 474.24 460.403 474.24ZM472.014 474V457.752H475.854V474H472.014ZM469.182 464.616V461.256H479.094V464.616H469.182ZM493.669 474V461.256H497.533V474H493.669ZM495.589 458.64C494.869 458.64 494.309 458.472 493.909 458.136C493.509 457.784 493.309 457.288 493.309 456.648C493.309 456.072 493.509 455.6 493.909 455.232C494.325 454.864 494.885 454.68 495.589 454.68C496.309 454.68 496.869 454.856 497.269 455.208C497.669 455.544 497.869 456.024 497.869 456.648C497.869 457.24 497.661 457.72 497.245 458.088C496.845 458.456 496.293 458.64 495.589 458.64ZM508.591 474.264C507.343 474.264 506.247 473.984 505.303 473.424C504.359 472.848 503.623 472.064 503.095 471.072C502.567 470.064 502.303 468.92 502.303 467.64C502.303 466.36 502.575 465.224 503.119 464.232C503.663 463.224 504.415 462.432 505.375 461.856C506.351 461.28 507.471 460.992 508.735 460.992C509.439 460.992 510.095 461.088 510.703 461.28C511.311 461.456 511.855 461.696 512.335 462C512.831 462.304 513.223 462.656 513.511 463.056C513.815 463.44 513.991 463.832 514.039 464.232L513.127 464.448V456.24H516.991V474H513.415L513.199 470.904L513.967 471.096C513.919 471.496 513.743 471.888 513.439 472.272C513.135 472.64 512.735 472.976 512.239 473.28C511.759 473.568 511.207 473.808 510.583 474C509.959 474.176 509.295 474.264 508.591 474.264ZM509.671 471.024C510.391 471.024 511.015 470.88 511.543 470.592C512.087 470.304 512.503 469.912 512.791 469.416C513.079 468.904 513.223 468.312 513.223 467.64C513.223 466.952 513.079 466.36 512.791 465.864C512.503 465.352 512.087 464.96 511.543 464.688C511.015 464.4 510.391 464.256 509.671 464.256C508.951 464.256 508.327 464.4 507.799 464.688C507.271 464.96 506.855 465.352 506.551 465.864C506.263 466.36 506.119 466.952 506.119 467.64C506.119 468.312 506.263 468.904 506.551 469.416C506.855 469.912 507.271 470.304 507.799 470.592C508.327 470.88 508.951 471.024 509.671 471.024ZM528.898 474.24C527.346 474.24 525.986 473.96 524.818 473.4C523.666 472.824 522.77 472.048 522.13 471.072C521.49 470.08 521.17 468.952 521.17 467.688C521.17 466.68 521.354 465.768 521.722 464.952C522.09 464.136 522.602 463.432 523.258 462.84C523.914 462.248 524.682 461.792 525.562 461.472C526.442 461.152 527.394 460.992 528.418 460.992C529.41 460.992 530.322 461.152 531.154 461.472C531.986 461.776 532.706 462.216 533.314 462.792C533.938 463.368 534.418 464.048 534.754 464.832C535.09 465.616 535.242 466.48 535.21 467.424L535.186 468.504H523.69L523.138 466.272H532.066L531.658 466.752V466.272C531.61 465.872 531.434 465.512 531.13 465.192C530.842 464.872 530.466 464.624 530.002 464.448C529.538 464.256 529.026 464.16 528.466 464.16C527.746 464.16 527.106 464.28 526.546 464.52C525.986 464.744 525.546 465.096 525.226 465.576C524.922 466.056 524.77 466.664 524.77 467.4C524.77 468.104 524.954 468.72 525.322 469.248C525.706 469.776 526.242 470.192 526.93 470.496C527.634 470.8 528.458 470.952 529.402 470.952C530.218 470.952 530.898 470.856 531.442 470.664C532.002 470.456 532.506 470.2 532.954 469.896L534.682 472.392C534.154 472.792 533.57 473.136 532.93 473.424C532.306 473.696 531.65 473.896 530.962 474.024C530.29 474.168 529.602 474.24 528.898 474.24ZM544.873 474.216C543.609 474.216 542.505 473.936 541.561 473.376C540.617 472.816 539.873 472.04 539.329 471.048C538.801 470.04 538.537 468.896 538.537 467.616C538.537 466.32 538.809 465.176 539.353 464.184C539.897 463.192 540.649 462.416 541.609 461.856C542.585 461.28 543.705 460.992 544.969 460.992C545.689 460.992 546.353 461.088 546.961 461.28C547.569 461.456 548.097 461.704 548.545 462.024C549.009 462.344 549.385 462.696 549.673 463.08C549.977 463.464 550.177 463.864 550.273 464.28H549.433V461.256H553.225V474H549.361V470.736L550.177 470.856C550.081 471.272 549.881 471.68 549.577 472.08C549.273 472.48 548.881 472.84 548.401 473.16C547.921 473.48 547.377 473.736 546.769 473.928C546.177 474.12 545.545 474.216 544.873 474.216ZM545.905 470.976C546.625 470.976 547.249 470.84 547.777 470.568C548.321 470.296 548.737 469.912 549.025 469.416C549.329 468.904 549.481 468.304 549.481 467.616C549.481 466.944 549.329 466.36 549.025 465.864C548.737 465.352 548.321 464.952 547.777 464.664C547.249 464.376 546.625 464.232 545.905 464.232C545.185 464.232 544.561 464.376 544.033 464.664C543.505 464.952 543.089 465.352 542.785 465.864C542.497 466.36 542.353 466.944 542.353 467.616C542.353 468.304 542.497 468.904 542.785 469.416C543.089 469.912 543.505 470.296 544.033 470.568C544.561 470.84 545.185 470.976 545.905 470.976ZM560.733 474.264C559.949 474.264 559.349 474.08 558.933 473.712C558.533 473.328 558.333 472.8 558.333 472.128C558.333 471.52 558.541 471.008 558.957 470.592C559.389 470.176 559.981 469.968 560.733 469.968C561.517 469.968 562.117 470.16 562.533 470.544C562.949 470.928 563.157 471.456 563.157 472.128C563.157 472.72 562.941 473.224 562.509 473.64C562.093 474.056 561.501 474.264 560.733 474.264ZM569.967 474.264C569.183 474.264 568.583 474.08 568.167 473.712C567.767 473.328 567.567 472.8 567.567 472.128C567.567 471.52 567.775 471.008 568.191 470.592C568.623 470.176 569.215 469.968 569.967 469.968C570.751 469.968 571.351 470.16 571.767 470.544C572.183 470.928 572.391 471.456 572.391 472.128C572.391 472.72 572.175 473.224 571.743 473.64C571.327 474.056 570.735 474.264 569.967 474.264ZM579.202 474.264C578.418 474.264 577.818 474.08 577.402 473.712C577.002 473.328 576.802 472.8 576.802 472.128C576.802 471.52 577.01 471.008 577.426 470.592C577.858 470.176 578.45 469.968 579.202 469.968C579.986 469.968 580.586 470.16 581.002 470.544C581.418 470.928 581.626 471.456 581.626 472.128C581.626 472.72 581.41 473.224 580.978 473.64C580.562 474.056 579.97 474.264 579.202 474.264Z" fill="white"/>
<g id="Group 15">
<rect id="Rectangle 26" x="956.927" y="365.67" width="292.358" height="445.349" rx="25" transform="rotate(-7.7866 956.927 365.67)" fill="#6A94E0"/>
<path id="Polygon 2" d="M966.099 576.038C970.42 563.03 989.245 564.248 991.319 577.67L1021.56 773.418C1022.84 781.696 1015.99 789.141 1007.59 788.597L914.331 782.561C905.934 782.018 900.416 773.772 903.081 765.75L966.099 576.038Z" fill="#3E5068"/>
<path id="Polygon 3" d="M1297.35 530.741C1289.69 519.37 1271.88 525.598 1273.49 539.084L1296.91 735.766C1297.9 744.083 1306.5 749.415 1314.44 746.637L1402.66 715.784C1410.6 713.006 1413.7 703.582 1408.98 696.57L1297.35 530.741Z" fill="#3E5068"/>
<path id="Polygon 5" d="M1153.74 613.39C1148.76 600.703 1130.09 603.255 1128.7 616.814L1108.37 814.99C1107.51 823.367 1114.72 830.338 1123.07 829.197L1216.18 816.464C1224.53 815.323 1229.6 806.673 1226.52 798.834L1153.74 613.39Z" fill="#3E5068"/>
<path id="Polygon 4" d="M1062.08 174.459C1068.53 162.646 1084.58 160.452 1093.96 170.099L1250.45 330.905C1261.89 342.666 1255.08 362.445 1238.82 364.669L974.771 400.777C958.512 403 946.642 385.775 954.509 371.373L1062.08 174.459Z" fill="#3E5068"/>
</g>
<g id="Vector 1" filter="url(#filter0_d_137_487)">
<path d="M-45.5 880.5L95.5 640.5L293 775.5L492.5 521.5L615.5 687L744.5 608.5L898 787.5L1015 626.5L1131.5 737.5L1271 451L1349.5 721L1498.5 592L1551 1144.5H-112L-45.5 880.5Z" fill="#EC5F46"/>
</g>
<g id="Vector 2" filter="url(#filter1_d_137_487)">
<path d="M-79 1230.5L90.5 779L346.5 865.5L469.5 674L652.5 779L711 722.5L904.5 888L983 755L1158.5 865.5L1225 722.5L1360 823.5L1469 1260.5L-79 1230.5Z" fill="#FD9D49"/>
</g>
</g>
<defs>
<filter id="filter0_d_137_487" x="-116" y="451" width="1671" height="701.5" filterUnits="userSpaceOnUse" color-interpolation-filters="sRGB">
<feFlood flood-opacity="0" result="BackgroundImageFix"/>
<feColorMatrix in="SourceAlpha" type="matrix" values="0 0 0 0 0 0 0 0 0 0 0 0 0 0 0 0 0 0 127 0" result="hardAlpha"/>
<feOffset dy="4"/>
<feGaussianBlur stdDeviation="2"/>
<feComposite in2="hardAlpha" operator="out"/>
<feColorMatrix type="matrix" values="0 0 0 0 0 0 0 0 0 0 0 0 0 0 0 0 0 0 0.25 0"/>
<feBlend mode="normal" in2="BackgroundImageFix" result="effect1_dropShadow_137_487"/>
<feBlend mode="normal" in="SourceGraphic" in2="effect1_dropShadow_137_487" result="shape"/>
</filter>
<filter id="filter1_d_137_487" x="-83" y="674" width="1556" height="594.5" filterUnits="userSpaceOnUse" color-interpolation-filters="sRGB">
<feFlood flood-opacity="0" result="BackgroundImageFix"/>
<feColorMatrix in="SourceAlpha" type="matrix" values="0 0 0 0 0 0 0 0 0 0 0 0 0 0 0 0 0 0 127 0" result="hardAlpha"/>
<feOffset dy="4"/>
<feGaussianBlur stdDeviation="2"/>
<feComposite in2="hardAlpha" operator="out"/>
<feColorMatrix type="matrix" values="0 0 0 0 0 0 0 0 0 0 0 0 0 0 0 0 0 0 0.25 0"/>
<feBlend mode="normal" in2="BackgroundImageFix" result="effect1_dropShadow_137_487"/>
<feBlend mode="normal" in="SourceGraphic" in2="effect1_dropShadow_137_487" result="shape"/>
</filter>
<clipPath id="clip0_137_487">
<rect width="1440" height="1024" fill="white"/>
</clipPath>
</defs>
</svg>
