<svg width="1440" height="1024" viewBox="0 0 1440 1024" fill="none" xmlns="http://www.w3.org/2000/svg">
<g id="trick1-yes" clip-path="url(#clip0_138_511)">
<rect width="1440" height="1024" fill="#333148"/>
<path id="part 5" d="M47.096 132.12V60.024H61.688L62.264 71.448L59.384 70.584C59.832 68.536 61.048 66.648 63.032 64.92C65.016 63.192 67.512 61.784 70.52 60.696C73.592 59.608 76.856 59.064 80.312 59.064C85.304 59.064 89.688 60.216 93.464 62.52C97.24 64.76 100.184 67.864 102.296 71.832C104.472 75.736 105.56 80.28 105.56 85.464C105.56 90.584 104.472 95.128 102.296 99.096C100.184 103.064 97.208 106.2 93.368 108.504C89.528 110.744 85.112 111.864 80.12 111.864C76.664 111.864 73.432 111.288 70.424 110.136C67.416 108.984 64.888 107.48 62.84 105.624C60.856 103.768 59.576 101.816 59 99.768L62.552 98.424V132.12H47.096ZM76.376 98.904C79.256 98.904 81.752 98.36 83.864 97.272C85.976 96.12 87.608 94.552 88.76 92.568C89.976 90.584 90.584 88.216 90.584 85.464C90.584 82.776 89.976 80.44 88.76 78.456C87.608 76.408 85.976 74.84 83.864 73.752C81.816 72.6 79.32 72.024 76.376 72.024C73.496 72.024 70.968 72.568 68.792 73.656C66.68 74.744 65.016 76.312 63.8 78.36C62.648 80.408 62.072 82.776 62.072 85.464C62.072 88.216 62.648 90.584 63.8 92.568C65.016 94.552 66.68 96.12 68.792 97.272C70.968 98.36 73.496 98.904 76.376 98.904ZM144.211 111.864C139.155 111.864 134.739 110.744 130.963 108.504C127.187 106.264 124.211 103.16 122.035 99.192C119.923 95.16 118.867 90.584 118.867 85.464C118.867 80.28 119.955 75.704 122.131 71.736C124.307 67.768 127.315 64.664 131.155 62.424C135.059 60.12 139.539 58.968 144.595 58.968C147.475 58.968 150.131 59.352 152.563 60.12C154.995 60.824 157.107 61.816 158.899 63.096C160.755 64.376 162.259 65.784 163.411 67.32C164.627 68.856 165.427 70.456 165.811 72.12H162.451V60.024H177.619V111H162.163V97.944L165.427 98.424C165.043 100.088 164.243 101.72 163.027 103.32C161.811 104.92 160.243 106.36 158.323 107.64C156.403 108.92 154.227 109.944 151.795 110.712C149.427 111.48 146.899 111.864 144.211 111.864ZM148.339 98.904C151.219 98.904 153.715 98.36 155.827 97.272C158.003 96.184 159.667 94.648 160.819 92.664C162.035 90.616 162.643 88.216 162.643 85.464C162.643 82.776 162.035 80.44 160.819 78.456C159.667 76.408 158.003 74.808 155.827 73.656C153.715 72.504 151.219 71.928 148.339 71.928C145.459 71.928 142.963 72.504 140.851 73.656C138.739 74.808 137.075 76.408 135.859 78.456C134.707 80.44 134.131 82.776 134.131 85.464C134.131 88.216 134.707 90.616 135.859 92.664C137.075 94.648 138.739 96.184 140.851 97.272C142.963 98.36 145.459 98.904 148.339 98.904ZM201.315 111V60.024H215.907L216.579 77.592L212.931 75.768C213.763 72.632 215.203 69.816 217.251 67.32C219.363 64.76 221.763 62.744 224.451 61.272C227.203 59.736 230.115 58.968 233.187 58.968C234.851 58.968 236.419 59.128 237.891 59.448C239.427 59.768 240.739 60.184 241.827 60.696L237.603 77.496C236.643 76.792 235.331 76.248 233.667 75.864C232.067 75.48 230.435 75.288 228.771 75.288C226.915 75.288 225.219 75.608 223.683 76.248C222.211 76.824 220.963 77.656 219.939 78.744C218.915 79.768 218.115 80.952 217.539 82.296C217.027 83.64 216.771 85.08 216.771 86.616V111H201.315ZM265.932 111V46.008H281.292V111H265.932ZM254.604 73.464V60.024H294.252V73.464H254.604ZM370.984 111.672C365.736 111.672 360.904 110.648 356.488 108.6C352.072 106.552 348.392 103.768 345.448 100.248L354.088 90.168C356.712 92.792 359.368 94.744 362.056 96.024C364.744 97.24 367.56 97.848 370.504 97.848C372.936 97.848 375.048 97.432 376.84 96.6C378.696 95.704 380.136 94.488 381.16 92.952C382.248 91.416 382.792 89.688 382.792 87.768C382.792 85.784 382.248 84.056 381.16 82.584C380.136 81.048 378.696 79.832 376.84 78.936C375.048 78.04 372.968 77.592 370.6 77.592C368.552 77.592 366.664 77.784 364.936 78.168C363.208 78.552 361.608 79.064 360.136 79.704C358.664 80.344 357.192 81.08 355.72 81.912L348.808 72.888L352.936 43.224H393.064V56.952H360.712L364.936 51.576L361.768 72.888L356.008 70.968C357.288 69.88 358.888 68.92 360.808 68.088C362.728 67.256 364.808 66.584 367.048 66.072C369.352 65.496 371.624 65.208 373.864 65.208C378.344 65.208 382.376 66.168 385.96 68.088C389.544 70.008 392.392 72.696 394.504 76.152C396.68 79.608 397.768 83.608 397.768 88.152C397.768 92.568 396.584 96.568 394.216 100.152C391.848 103.672 388.648 106.488 384.616 108.6C380.648 110.648 376.104 111.672 370.984 111.672Z" fill="white"/>
<rect id="Rectangle 7" x="-7" y="477" width="1567" height="626" fill="#211F2F"/>
<rect id="Rectangle 26" x="854" y="232" width="279" height="425" rx="25" fill="#6A94E0"/>
<path id="Polygon 2" d="M834.384 434.306C840.428 422.003 858.914 425.761 859.151 439.34L862.384 625.135C862.53 633.51 854.733 639.957 846.487 638.281L760.565 620.816C752.318 619.14 747.968 610.223 751.696 602.635L834.384 434.306Z" fill="#3E5068"/>
<path id="Polygon 3" d="M1155.62 434.306C1149.57 422.003 1131.09 425.761 1130.85 439.34L1127.62 625.135C1127.47 633.51 1135.27 639.957 1143.51 638.281L1229.44 620.816C1237.68 619.14 1242.03 610.223 1238.31 602.635L1155.62 434.306Z" fill="#3E5068"/>
<path id="Polygon 5" d="M1008.63 494.046C1005.42 480.801 986.582 480.801 983.367 494.046L939.279 675.684C937.292 683.867 943.491 691.75 951.912 691.75L1040.09 691.75C1048.51 691.75 1054.71 683.867 1052.72 675.684L1008.63 494.046Z" fill="#3E5068"/>
<path id="Polygon 4" d="M977.409 65.7989C985.403 54.9692 1001.6 54.9692 1009.59 65.7989L1134.95 235.622C1144.69 248.826 1135.27 267.5 1118.86 267.5H868.144C851.733 267.5 842.307 248.826 852.053 235.622L977.409 65.7989Z" fill="#3E5068"/>
<g id="Group 19">
<g id="Group 16">
<line id="Line 7" x1="418.062" y1="782.049" x2="347.871" y2="853.276" stroke="white" stroke-width="10" stroke-linecap="round"/>
<path id="Star 1" d="M319.207 891.302C313.418 895.192 306.462 888.338 310.267 882.492C312.875 878.486 310.334 873.138 305.58 872.63C298.645 871.889 297.723 862.167 304.395 860.135C308.968 858.742 310.459 853.012 307.144 849.567C302.307 844.542 307.85 836.502 314.267 839.234C318.666 841.106 323.491 837.675 323.166 832.905C322.691 825.947 332.106 823.35 335.265 829.568C337.431 833.83 343.333 834.303 346.15 830.44C350.259 824.805 359.14 828.867 357.563 835.661C356.483 840.318 360.7 844.474 365.341 843.326C372.111 841.65 376.303 850.47 370.728 854.662C366.907 857.535 367.467 863.429 371.76 865.532C378.023 868.601 375.565 878.052 368.6 877.679C363.826 877.424 360.466 882.299 362.402 886.669C365.228 893.046 357.27 898.706 352.174 893.944C348.681 890.679 342.973 892.254 341.648 896.847C339.714 903.548 329.979 902.768 329.137 895.844C328.559 891.099 323.175 888.636 319.207 891.302Z" fill="#EC5F46"/>
</g>
<g id="Group 17">
<line id="Line 7_2" x1="372.209" y1="815.929" x2="379.114" y2="753.093" stroke="white" stroke-width="10" stroke-linecap="round"/>
<path id="Star 1_2" d="M380.239 719.926C381.657 715.506 388.118 716.216 388.543 720.839C388.834 724.007 392.368 725.752 395.06 724.056C398.988 721.581 403.481 726.278 400.834 730.092C399.021 732.706 400.606 736.314 403.759 736.745C408.358 737.375 408.781 743.861 404.302 745.082C401.232 745.918 400.128 749.702 402.266 752.058C405.385 755.497 401.54 760.737 397.324 758.793C394.434 757.461 391.157 759.649 391.279 762.829C391.458 767.468 385.144 769.01 383.164 764.811C381.807 761.934 377.89 761.503 375.94 764.018C373.095 767.686 367.267 764.809 368.449 760.32C369.259 757.243 366.535 754.395 363.425 755.068C358.888 756.05 356.272 750.1 360.064 747.421C362.662 745.584 362.406 741.652 359.591 740.168C355.484 738.004 357.305 731.764 361.931 732.149C365.102 732.413 367.434 729.235 366.231 726.29C364.476 721.992 369.882 718.383 373.179 721.651C375.438 723.891 379.267 722.956 380.239 719.926Z" fill="#7CE06A"/>
</g>
<g id="Group 18">
<line id="Line 7_3" x1="416.862" y1="807.679" x2="317.91" y2="793.239" stroke="white" stroke-width="10" stroke-linecap="round"/>
<path id="Star 1_3" d="M270.294 792.634C263.732 790.269 265.142 780.605 272.106 780.214C276.879 779.946 279.686 774.733 277.283 770.6C273.777 764.571 281.069 758.075 286.655 762.251C290.483 765.114 295.985 762.925 296.8 758.214C297.99 751.342 307.751 751.052 309.346 757.842C310.439 762.496 316.06 764.356 319.713 761.271C325.042 756.771 332.705 762.824 329.562 769.051C327.408 773.318 330.519 778.356 335.3 778.341C342.274 778.319 344.254 787.882 337.845 790.631C333.451 792.516 332.596 798.375 336.268 801.436C341.625 805.903 336.995 814.501 330.317 812.487C325.74 811.107 321.319 815.046 322.164 819.751C323.397 826.616 314.323 830.226 310.502 824.391C307.883 820.392 301.965 820.567 299.588 824.715C296.119 830.766 286.848 827.699 287.671 820.773C288.236 816.026 283.589 812.356 279.102 814.005C272.556 816.411 267.425 808.102 272.508 803.326C275.991 800.053 274.791 794.255 270.294 792.634Z" fill="#8DBBFB"/>
</g>
</g>
<g id="Group 21">
<g id="Group 16_2">
<line id="Line 7_4" x1="399.376" y1="893.201" x2="372.842" y2="796.786" stroke="white" stroke-width="10" stroke-linecap="round"/>
<path id="Star 1_4" d="M354.266 752.939C353.795 745.98 363.211 743.389 366.367 749.609C368.53 753.872 374.432 754.348 377.251 750.487C381.364 744.853 390.242 748.921 388.662 755.714C387.579 760.37 391.794 764.529 396.435 763.383C403.206 761.711 407.393 770.534 401.816 774.722C397.994 777.593 398.549 783.488 402.841 785.593C409.103 788.665 406.639 798.115 399.675 797.738C394.901 797.48 391.538 802.353 393.472 806.725C396.295 813.103 388.333 818.758 383.24 813.993C379.749 810.727 374.04 812.298 372.712 816.891C370.774 823.591 361.04 822.805 360.202 815.881C359.627 811.135 354.244 808.669 350.274 811.334C344.483 815.22 337.531 808.362 341.34 802.519C343.95 798.514 341.411 793.164 336.658 792.654C329.723 791.909 328.806 782.186 335.48 780.158C340.054 778.768 341.547 773.038 338.234 769.592C333.401 764.564 338.948 756.526 345.364 759.262C349.761 761.137 354.589 757.708 354.266 752.939Z" fill="#EC5F46"/>
</g>
<g id="Group 17_2">
<line id="Line 7_5" x1="392.994" y1="836.548" x2="443.938" y2="873.974" stroke="white" stroke-width="10" stroke-linecap="round"/>
<path id="Star 1_5" d="M472.089 891.547C475.206 894.987 471.358 900.225 467.143 898.279C464.255 896.945 460.976 899.131 461.097 902.311C461.273 906.95 454.958 908.489 452.98 904.289C451.625 901.41 447.708 900.978 445.757 903.491C442.91 907.158 437.083 904.278 438.268 899.789C439.08 896.713 436.357 893.864 433.247 894.535C428.709 895.514 426.097 889.562 429.889 886.885C432.489 885.051 432.235 881.118 429.421 879.633C425.315 877.466 427.14 871.228 431.766 871.615C434.937 871.88 437.27 868.704 436.069 865.758C434.316 861.459 439.724 857.853 443.019 861.123C445.277 863.364 449.106 862.431 450.08 859.402C451.501 854.983 457.961 855.696 458.383 860.319C458.673 863.488 462.206 865.234 464.899 863.54C468.828 861.067 473.318 865.767 470.67 869.58C468.855 872.193 470.439 875.802 473.591 876.235C478.19 876.866 478.609 883.353 474.129 884.571C471.059 885.406 469.953 889.189 472.089 891.547Z" fill="#7CE06A"/>
</g>
<g id="Group 18_2">
<line id="Line 7_6" x1="377.788" y1="879.334" x2="439.812" y2="800.894" stroke="white" stroke-width="10" stroke-linecap="round"/>
<path id="Star 1_6" d="M464.169 759.973C469.5 755.476 477.16 761.533 474.014 767.758C471.857 772.024 474.966 777.064 479.746 777.051C486.721 777.034 488.695 786.597 482.284 789.343C477.889 791.225 477.031 797.084 480.701 800.147C486.056 804.617 481.421 813.213 474.744 811.195C470.168 809.812 465.745 813.748 466.587 818.454C467.816 825.319 458.74 828.925 454.923 823.088C452.306 819.087 446.387 819.259 444.008 823.405C440.536 829.454 431.266 826.382 432.094 819.457C432.661 814.71 428.017 811.038 423.529 812.684C416.981 815.087 411.854 806.775 416.94 802.002C420.426 798.73 419.228 792.931 414.732 791.308C408.172 788.939 409.587 779.277 416.551 778.889C421.324 778.624 424.135 773.412 421.734 769.278C418.231 763.247 425.526 756.755 431.11 760.934C434.937 763.799 440.44 761.613 441.258 756.903C442.451 750.031 452.213 749.747 453.803 756.538C454.894 761.193 460.514 763.055 464.169 759.973Z" fill="#8DBBFB"/>
</g>
</g>
<g id="Group 22">
<g id="Group 16_3">
<line id="Line 7_7" x1="381.08" y1="737.575" x2="456.511" y2="803.227" stroke="white" stroke-width="10" stroke-linecap="round"/>
<path id="Star 1_7" d="M496.239 829.483C500.48 835.021 494.068 842.387 487.999 838.951C483.839 836.596 478.658 839.463 478.445 844.239C478.135 851.207 468.488 852.729 466.048 846.195C464.375 841.717 458.563 840.584 455.33 844.105C450.613 849.243 442.246 844.208 444.576 837.634C446.173 833.129 442.449 828.525 437.709 829.144C430.793 830.048 427.619 820.813 433.63 817.275C437.75 814.849 437.856 808.929 433.827 806.357C427.948 802.604 431.453 793.489 438.332 794.642C443.047 795.433 446.934 790.966 445.501 786.406C443.409 779.752 451.953 775.022 456.482 780.327C459.585 783.963 465.434 783.04 467.268 778.626C469.943 772.184 479.528 774.053 479.587 781.028C479.627 785.808 484.701 788.861 488.943 786.657C495.133 783.442 501.274 791.035 496.836 796.416C493.794 800.104 495.718 805.704 500.385 806.743C507.193 808.258 507.016 818.023 500.158 819.292C495.457 820.162 493.332 825.688 496.239 829.483Z" fill="#EC5F46"/>
</g>
<g id="Group 17_3">
<line id="Line 7_8" x1="417.731" y1="781.247" x2="354.588" y2="778.242" stroke="white" stroke-width="10" stroke-linecap="round"/>
<path id="Star 1_8" d="M321.415 779.171C316.916 778.029 317.224 771.537 321.812 770.827C324.957 770.341 326.479 766.706 324.62 764.124C321.907 760.356 326.317 755.581 330.288 757.987C333.009 759.635 336.512 757.829 336.747 754.656C337.091 750.027 343.538 749.203 345.034 753.598C346.059 756.61 349.903 757.478 352.123 755.199C355.362 751.873 360.83 755.387 359.151 759.715C358 762.681 360.387 765.817 363.553 765.498C368.171 765.033 370.102 771.239 366.033 773.475C363.245 775.008 363.058 778.944 365.688 780.735C369.526 783.347 367.015 789.342 362.461 788.44C359.34 787.822 356.666 790.717 357.53 793.779C358.791 798.247 353.013 801.226 350.105 797.607C348.111 795.128 344.202 795.627 342.896 798.528C340.99 802.761 334.649 801.329 334.747 796.688C334.814 793.507 331.498 791.376 328.633 792.759C324.452 794.776 320.515 789.604 323.573 786.111C325.669 783.718 324.499 779.954 321.415 779.171Z" fill="#7CE06A"/>
</g>
<g id="Group 18_3">
<line id="Line 7_9" x1="406.735" y1="737.19" x2="398.444" y2="836.846" stroke="white" stroke-width="10" stroke-linecap="round"/>
<path id="Star 1_9" d="M400.784 884.408C398.83 891.103 389.098 890.293 388.276 883.367C387.714 878.62 382.336 876.141 378.361 878.795C372.56 882.667 365.625 875.791 369.448 869.958C372.068 865.959 369.543 860.604 364.791 860.081C357.858 859.319 356.965 849.594 363.644 847.583C368.221 846.204 369.729 840.478 366.425 837.023C361.604 831.983 367.171 823.96 373.58 826.712C377.973 828.598 382.809 825.181 382.498 820.41C382.045 813.45 391.467 810.883 394.607 817.11C396.76 821.379 402.661 821.87 405.489 818.016C409.616 812.393 418.484 816.482 416.887 823.271C415.792 827.925 419.997 832.094 424.641 830.96C431.416 829.305 435.581 838.138 429.994 842.312C426.164 845.173 426.705 851.07 430.992 853.186C437.246 856.273 434.758 865.717 427.795 865.323C423.022 865.053 419.646 869.918 421.57 874.294C424.376 880.679 416.401 886.315 411.319 881.537C407.837 878.262 402.124 879.819 400.784 884.408Z" fill="#8DBBFB"/>
</g>
</g>
<g id="Group 23">
<g id="Group 16_4">
<line id="Line 7_10" x1="493.08" y1="783.577" x2="568.512" y2="849.228" stroke="white" stroke-width="10" stroke-linecap="round"/>
<path id="Star 1_10" d="M608.239 875.485C612.48 881.023 606.069 888.389 599.999 884.953C595.839 882.598 590.659 885.465 590.446 890.241C590.135 897.209 580.489 898.731 578.048 892.197C576.375 887.719 570.564 886.586 567.331 890.107C562.614 895.245 554.246 890.21 556.576 883.636C558.173 879.131 554.45 874.527 549.709 875.146C542.794 876.05 539.62 866.815 545.63 863.277C549.75 860.851 549.857 854.931 545.827 852.359C539.948 848.606 543.454 839.491 550.332 840.644C555.047 841.435 558.934 836.968 557.501 832.408C555.41 825.754 563.954 821.024 568.482 826.329C571.586 829.965 577.435 829.042 579.268 824.627C581.943 818.186 591.528 820.055 591.587 827.03C591.628 831.81 596.701 834.863 600.944 832.659C607.133 829.444 613.274 837.037 608.836 842.418C605.795 846.106 607.719 851.706 612.385 852.745C619.193 854.26 619.017 864.025 612.159 865.294C607.458 866.163 605.333 871.69 608.239 875.485Z" fill="#EC5F46"/>
</g>
<g id="Group 17_4">
<line id="Line 7_11" x1="529.731" y1="827.249" x2="466.589" y2="824.244" stroke="white" stroke-width="10" stroke-linecap="round"/>
<path id="Star 1_11" d="M433.416 825.173C428.916 824.031 429.225 817.539 433.813 816.829C436.957 816.343 438.479 812.708 436.62 810.125C433.907 806.358 438.318 801.583 442.288 803.989C445.009 805.637 448.512 803.831 448.748 800.658C449.091 796.028 455.539 795.205 457.034 799.6C458.059 802.612 461.904 803.48 464.124 801.201C467.362 797.875 472.831 801.389 471.151 805.717C470 808.683 472.387 811.819 475.553 811.5C480.172 811.035 482.102 817.241 478.034 819.477C475.246 821.01 475.058 824.946 477.688 826.737C481.526 829.349 479.015 835.344 474.461 834.442C471.34 833.824 468.666 836.719 469.53 839.781C470.791 844.249 465.014 847.228 462.105 843.609C460.112 841.129 456.203 841.629 454.896 844.53C452.99 848.763 446.65 847.331 446.747 842.69C446.814 839.509 443.499 837.378 440.633 838.761C436.452 840.778 432.516 835.606 435.574 832.113C437.67 829.72 436.5 825.956 433.416 825.173Z" fill="#7CE06A"/>
</g>
<g id="Group 18_4">
<line id="Line 7_12" x1="518.736" y1="783.192" x2="510.445" y2="882.848" stroke="white" stroke-width="10" stroke-linecap="round"/>
<path id="Star 1_12" d="M512.785 930.41C510.83 937.105 501.098 936.295 500.277 929.369C499.714 924.622 494.337 922.143 490.361 924.797C484.56 928.669 477.625 921.793 481.448 915.96C484.069 911.961 481.543 906.606 476.791 906.083C469.859 905.321 468.966 895.596 475.644 893.585C480.222 892.206 481.73 886.48 478.425 883.025C473.604 877.985 479.172 869.962 485.581 872.713C489.973 874.6 494.809 871.183 494.498 866.412C494.045 859.452 503.467 856.885 506.608 863.112C508.761 867.381 514.661 867.872 517.49 864.018C521.616 858.395 530.484 862.484 528.887 869.273C527.793 873.927 531.997 878.096 536.641 876.962C543.417 875.307 547.582 884.14 541.994 888.314C538.164 891.175 538.706 897.071 542.992 899.188C549.246 902.275 546.759 911.719 539.795 911.325C535.023 911.055 531.647 915.92 533.57 920.296C536.377 926.681 528.401 932.317 523.32 927.539C519.837 924.264 514.124 925.821 512.785 930.41Z" fill="#8DBBFB"/>
</g>
</g>
<g id="Group 24">
<g id="Group 16_5">
<line id="Line 7_13" x1="344.081" y1="829.577" x2="419.512" y2="895.228" stroke="white" stroke-width="10" stroke-linecap="round"/>
<path id="Star 1_13" d="M459.24 921.485C463.481 927.023 457.069 934.389 451 930.953C446.84 928.598 441.659 931.465 441.446 936.241C441.136 943.209 431.489 944.731 429.049 938.197C427.376 933.719 421.564 932.586 418.331 936.107C413.614 941.245 405.247 936.21 407.577 929.636C409.174 925.131 405.45 920.527 400.71 921.146C393.794 922.05 390.62 912.815 396.631 909.277C400.75 906.851 400.857 900.931 396.828 898.359C390.949 894.606 394.454 885.491 401.333 886.644C406.048 887.435 409.935 882.968 408.502 878.408C406.41 871.754 414.954 867.024 419.483 872.329C422.586 875.965 428.435 875.042 430.269 870.627C432.944 864.186 442.529 866.055 442.588 873.03C442.628 877.81 447.702 880.863 451.944 878.659C458.134 875.444 464.275 883.037 459.837 888.418C456.795 892.106 458.719 897.706 463.386 898.745C470.194 900.26 470.017 910.025 463.159 911.294C458.458 912.163 456.333 917.69 459.24 921.485Z" fill="#EC5F46"/>
</g>
<g id="Group 17_5">
<line id="Line 7_14" x1="380.732" y1="873.249" x2="317.589" y2="870.244" stroke="white" stroke-width="10" stroke-linecap="round"/>
<path id="Star 1_14" d="M284.416 871.173C279.916 870.031 280.225 863.539 284.813 862.829C287.958 862.343 289.48 858.708 287.621 856.125C284.908 852.358 289.318 847.583 293.289 849.989C296.01 851.637 299.513 849.831 299.748 846.658C300.092 842.028 306.539 841.205 308.035 845.6C309.06 848.612 312.904 849.48 315.124 847.201C318.363 843.875 323.831 847.389 322.152 851.717C321.001 854.683 323.388 857.819 326.554 857.5C331.172 857.035 333.103 863.241 329.034 865.477C326.246 867.01 326.059 870.946 328.689 872.737C332.527 875.349 330.016 881.344 325.462 880.442C322.341 879.824 319.667 882.719 320.531 885.781C321.792 890.249 316.014 893.228 313.106 889.609C311.112 887.129 307.203 887.629 305.897 890.53C303.99 894.763 297.65 893.331 297.748 888.69C297.815 885.509 294.499 883.378 291.634 884.761C287.453 886.778 283.516 881.606 286.574 878.113C288.67 875.72 287.5 871.956 284.416 871.173Z" fill="#7CE06A"/>
</g>
<g id="Group 18_5">
<line id="Line 7_15" x1="369.736" y1="829.192" x2="361.445" y2="928.848" stroke="white" stroke-width="10" stroke-linecap="round"/>
<path id="Star 1_15" d="M363.785 976.41C361.831 983.105 352.099 982.295 351.277 975.369C350.714 970.622 345.337 968.143 341.362 970.797C335.561 974.669 328.626 967.793 332.449 961.96C335.069 957.961 332.544 952.606 327.792 952.083C320.859 951.321 319.966 941.596 326.645 939.585C331.222 938.206 332.73 932.48 329.426 929.025C324.605 923.985 330.172 915.962 336.581 918.713C340.974 920.6 345.81 917.183 345.499 912.412C345.046 905.452 354.468 902.885 357.608 909.112C359.761 913.381 365.662 913.872 368.49 910.018C372.617 904.395 381.485 908.484 379.888 915.273C378.793 919.927 382.998 924.096 387.642 922.962C394.417 921.307 398.582 930.14 392.995 934.314C389.165 937.175 389.706 943.071 393.993 945.188C400.247 948.275 397.759 957.719 390.796 957.325C386.023 957.055 382.647 961.92 384.571 966.296C387.377 972.681 379.402 978.317 374.32 973.539C370.838 970.264 365.125 971.821 363.785 976.41Z" fill="#8DBBFB"/>
</g>
</g>
<g id="Group 25">
<g id="Group 16_6">
<line id="Line 7_16" x1="252.081" y1="733.577" x2="327.512" y2="799.228" stroke="white" stroke-width="10" stroke-linecap="round"/>
<path id="Star 1_16" d="M367.24 825.485C371.481 831.023 365.069 838.389 359 834.953C354.84 832.598 349.659 835.465 349.446 840.241C349.136 847.209 339.489 848.731 337.049 842.197C335.376 837.719 329.564 836.586 326.331 840.107C321.614 845.245 313.247 840.21 315.577 833.636C317.174 829.131 313.45 824.527 308.71 825.146C301.794 826.05 298.62 816.815 304.631 813.277C308.75 810.851 308.857 804.931 304.828 802.359C298.949 798.606 302.454 789.491 309.333 790.644C314.048 791.435 317.935 786.968 316.502 782.408C314.41 775.754 322.954 771.024 327.483 776.329C330.586 779.965 336.435 779.042 338.269 774.627C340.944 768.186 350.529 770.055 350.588 777.03C350.628 781.81 355.702 784.863 359.944 782.659C366.134 779.444 372.275 787.037 367.837 792.418C364.795 796.106 366.719 801.706 371.386 802.745C378.194 804.26 378.017 814.025 371.159 815.294C366.458 816.163 364.333 821.69 367.24 825.485Z" fill="#EC5F46"/>
</g>
<g id="Group 17_6">
<line id="Line 7_17" x1="288.731" y1="777.249" x2="225.589" y2="774.244" stroke="white" stroke-width="10" stroke-linecap="round"/>
<path id="Star 1_17" d="M192.416 775.173C187.916 774.031 188.225 767.539 192.813 766.829C195.957 766.343 197.479 762.708 195.62 760.125C192.907 756.358 197.318 751.583 201.288 753.989C204.009 755.637 207.512 753.831 207.748 750.658C208.091 746.028 214.539 745.205 216.034 749.6C217.059 752.612 220.904 753.48 223.124 751.201C226.362 747.875 231.831 751.389 230.151 755.717C229 758.683 231.387 761.819 234.553 761.5C239.172 761.035 241.102 767.241 237.034 769.477C234.246 771.01 234.058 774.946 236.688 776.737C240.526 779.349 238.015 785.344 233.461 784.442C230.34 783.824 227.666 786.719 228.53 789.781C229.791 794.249 224.014 797.228 221.105 793.609C219.112 791.129 215.203 791.629 213.896 794.53C211.99 798.763 205.65 797.331 205.747 792.69C205.814 789.509 202.499 787.378 199.633 788.761C195.452 790.778 191.516 785.606 194.574 782.113C196.67 779.72 195.5 775.956 192.416 775.173Z" fill="#7CE06A"/>
</g>
<g id="Group 18_6">
<line id="Line 7_18" x1="277.736" y1="733.192" x2="269.445" y2="832.848" stroke="white" stroke-width="10" stroke-linecap="round"/>
<path id="Star 1_18" d="M271.785 880.41C269.83 887.105 260.098 886.295 259.277 879.369C258.714 874.622 253.337 872.143 249.361 874.797C243.56 878.669 236.625 871.793 240.448 865.96C243.069 861.961 240.543 856.606 235.791 856.083C228.859 855.321 227.966 845.596 234.644 843.585C239.222 842.206 240.73 836.48 237.425 833.025C232.604 827.985 238.172 819.962 244.581 822.713C248.973 824.6 253.809 821.183 253.498 816.412C253.045 809.452 262.467 806.885 265.608 813.112C267.761 817.381 273.661 817.872 276.49 814.018C280.616 808.395 289.484 812.484 287.887 819.273C286.793 823.927 290.997 828.096 295.641 826.962C302.417 825.307 306.582 834.14 300.994 838.314C297.164 841.175 297.706 847.071 301.992 849.188C308.246 852.275 305.759 861.719 298.795 861.325C294.023 861.055 290.647 865.92 292.57 870.296C295.377 876.681 287.401 882.317 282.32 877.539C278.837 874.264 273.124 875.821 271.785 880.41Z" fill="#8DBBFB"/>
</g>
</g>
<g id="Group 26">
<g id="Group 16_7">
<line id="Line 7_19" x1="379.347" y1="807.276" x2="314.454" y2="731.191" stroke="white" stroke-width="10" stroke-linecap="round"/>
<path id="Star 1_19" d="M279.046 699.348C275.671 693.245 283.101 686.908 288.596 691.204C292.362 694.148 297.91 692.078 298.826 687.387C300.164 680.541 309.93 680.463 311.377 687.286C312.369 691.962 317.95 693.942 321.668 690.938C327.092 686.554 334.624 692.771 331.347 698.928C329.101 703.148 332.103 708.252 336.883 708.34C343.856 708.469 345.629 718.072 339.161 720.682C334.728 722.472 333.747 728.311 337.352 731.451C342.611 736.032 337.796 744.528 331.164 742.371C326.618 740.892 322.113 744.734 322.856 749.456C323.94 756.346 314.79 759.76 311.097 753.844C308.565 749.789 302.644 749.836 300.178 753.932C296.579 759.907 287.376 756.64 288.349 749.734C289.016 745 284.45 741.231 279.928 742.783C273.331 745.047 268.381 736.629 273.566 731.964C277.119 728.766 276.044 722.944 271.583 721.226C265.074 718.72 266.692 709.089 273.663 708.848C278.441 708.683 281.36 703.532 279.046 699.348Z" fill="#EC5F46"/>
</g>
<g id="Group 17_7">
<line id="Line 7_20" x1="349.557" y1="758.667" x2="411.561" y2="770.977" stroke="white" stroke-width="10" stroke-linecap="round"/>
<path id="Star 1_20" d="M444.507 774.965C448.788 776.76 447.522 783.135 442.88 783.159C439.698 783.175 437.655 786.545 439.112 789.373C441.237 793.5 436.17 797.571 432.598 794.605C430.151 792.572 426.419 793.84 425.717 796.943C424.693 801.471 418.195 801.332 417.365 796.764C416.797 793.633 413.123 792.206 410.591 794.132C406.896 796.942 402.007 792.658 404.308 788.626C405.885 785.863 403.988 782.408 400.81 782.256C396.173 782.033 395.182 775.609 399.536 774C402.521 772.896 403.288 769.031 400.952 766.871C397.543 763.72 400.913 758.162 405.283 759.728C408.278 760.801 411.351 758.333 410.949 755.177C410.363 750.572 416.517 748.48 418.859 752.489C420.464 755.236 424.404 755.321 426.125 752.645C428.636 748.74 434.695 751.094 433.912 755.67C433.375 758.806 436.339 761.403 439.378 760.46C443.811 759.083 446.939 764.78 443.398 767.782C440.971 769.84 441.572 773.735 444.507 774.965Z" fill="#7CE06A"/>
</g>
<g id="Group 18_7">
<line id="Line 7_21" x1="353.916" y1="803.865" x2="376.854" y2="706.532" stroke="white" stroke-width="10" stroke-linecap="round"/>
<path id="Star 1_21" d="M381.574 659.147C384.497 652.814 394.003 655.054 393.791 662.026C393.645 666.804 398.596 670.051 402.921 668.014C409.231 665.042 415.073 672.868 410.429 678.072C407.246 681.639 408.952 687.31 413.574 688.529C420.318 690.308 419.762 700.058 412.86 701.06C408.129 701.746 405.791 707.186 408.548 711.092C412.57 716.789 405.878 723.901 399.946 720.232C395.881 717.717 390.593 720.381 390.195 725.145C389.613 732.095 379.915 733.241 377.73 726.618C376.232 722.078 370.469 720.72 367.102 724.113C362.189 729.064 354.023 723.708 356.607 717.229C358.378 712.789 354.836 708.044 350.075 708.479C343.129 709.114 340.317 699.762 346.46 696.46C350.671 694.196 351.008 688.285 347.081 685.558C341.353 681.579 345.209 672.608 352.038 674.027C356.718 675 360.776 670.688 359.521 666.075C357.69 659.345 366.411 654.951 370.73 660.428C373.69 664.182 379.571 663.487 381.574 659.147Z" fill="#8DBBFB"/>
</g>
</g>
<g id="Group 27">
<g id="Group 16_8">
<line id="Line 7_22" x1="503.08" y1="730.577" x2="578.512" y2="796.228" stroke="white" stroke-width="10" stroke-linecap="round"/>
<path id="Star 1_22" d="M618.239 822.485C622.48 828.023 616.069 835.389 609.999 831.953C605.839 829.598 600.659 832.465 600.446 837.241C600.135 844.209 590.489 845.731 588.048 839.197C586.375 834.719 580.564 833.586 577.331 837.107C572.614 842.245 564.246 837.21 566.576 830.636C568.173 826.131 564.45 821.527 559.709 822.146C552.794 823.05 549.62 813.815 555.63 810.277C559.75 807.851 559.857 801.931 555.827 799.359C549.948 795.606 553.454 786.491 560.332 787.644C565.047 788.435 568.934 783.968 567.501 779.408C565.41 772.754 573.954 768.024 578.482 773.329C581.586 776.965 587.435 776.042 589.268 771.627C591.943 765.186 601.528 767.055 601.587 774.03C601.628 778.81 606.701 781.863 610.944 779.659C617.133 776.444 623.274 784.037 618.836 789.418C615.795 793.106 617.719 798.706 622.385 799.745C629.193 801.26 629.017 811.025 622.159 812.294C617.458 813.163 615.333 818.69 618.239 822.485Z" fill="#EC5F46"/>
</g>
<g id="Group 17_8">
<line id="Line 7_23" x1="539.731" y1="774.249" x2="476.588" y2="771.244" stroke="white" stroke-width="10" stroke-linecap="round"/>
<path id="Star 1_23" d="M443.415 772.173C438.916 771.031 439.224 764.539 443.812 763.829C446.957 763.343 448.479 759.708 446.62 757.125C443.907 753.358 448.317 748.583 452.288 750.989C455.009 752.637 458.512 750.831 458.747 747.658C459.091 743.028 465.538 742.205 467.034 746.6C468.059 749.612 471.903 750.48 474.123 748.201C477.362 744.875 482.83 748.389 481.151 752.717C480 755.683 482.387 758.819 485.553 758.5C490.171 758.035 492.102 764.241 488.033 766.477C485.245 768.01 485.058 771.946 487.688 773.737C491.526 776.349 489.015 782.344 484.461 781.442C481.34 780.824 478.666 783.719 479.53 786.781C480.791 791.249 475.013 794.228 472.105 790.609C470.111 788.129 466.202 788.629 464.896 791.53C462.99 795.763 456.649 794.331 456.747 789.69C456.814 786.509 453.498 784.378 450.633 785.761C446.452 787.778 442.515 782.606 445.573 779.113C447.669 776.72 446.499 772.956 443.415 772.173Z" fill="#7CE06A"/>
</g>
<g id="Group 18_8">
<line id="Line 7_24" x1="528.735" y1="730.192" x2="520.444" y2="829.848" stroke="white" stroke-width="10" stroke-linecap="round"/>
<path id="Star 1_24" d="M522.784 877.41C520.83 884.105 511.098 883.295 510.276 876.369C509.714 871.622 504.336 869.143 500.361 871.797C494.56 875.669 487.625 868.793 491.448 862.96C494.068 858.961 491.543 853.606 486.791 853.083C479.858 852.321 478.965 842.596 485.644 840.585C490.221 839.206 491.729 833.48 488.425 830.025C483.604 824.985 489.171 816.962 495.58 819.713C499.973 821.6 504.809 818.183 504.498 813.412C504.045 806.452 513.467 803.885 516.607 810.112C518.76 814.381 524.661 814.872 527.489 811.018C531.616 805.395 540.484 809.484 538.887 816.273C537.792 820.927 541.997 825.096 546.641 823.962C553.416 822.307 557.581 831.14 551.994 835.314C548.164 838.175 548.705 844.071 552.992 846.188C559.246 849.275 556.758 858.719 549.795 858.325C545.022 858.055 541.646 862.92 543.57 867.296C546.376 873.681 538.401 879.317 533.319 874.539C529.837 871.264 524.124 872.821 522.784 877.41Z" fill="#8DBBFB"/>
</g>
</g>
<g id="Group 20">
<g id="Group 16_9">
<line id="Line 7_25" x1="417.066" y1="856.995" x2="439.674" y2="759.584" stroke="white" stroke-width="10" stroke-linecap="round"/>
<path id="Star 1_25" d="M444.233 712.183C447.135 705.84 456.648 708.048 456.459 715.02C456.33 719.799 461.292 723.03 465.61 720.978C471.91 717.985 477.778 725.791 473.152 731.011C469.981 734.588 471.706 740.253 476.332 741.457C483.082 743.213 482.56 752.965 475.661 753.99C470.932 754.692 468.612 760.14 471.383 764.036C475.424 769.72 468.756 776.855 462.812 773.206C458.738 770.704 453.459 773.386 453.077 778.152C452.52 785.104 442.825 786.283 440.618 779.667C439.105 775.132 433.337 773.793 429.981 777.198C425.085 782.165 416.901 776.837 419.463 770.35C421.219 765.904 417.661 761.171 412.902 761.622C405.958 762.28 403.114 752.938 409.246 749.615C413.449 747.337 413.766 741.425 409.83 738.711C404.088 734.752 407.914 725.767 414.748 727.163C419.431 728.12 423.474 723.795 422.204 719.186C420.35 712.462 429.056 708.039 433.393 713.501C436.366 717.245 442.244 716.53 444.233 712.183Z" fill="#EC5F46"/>
</g>
<g id="Group 17_9">
<line id="Line 7_26" x1="438.444" y1="804.156" x2="465.402" y2="861.333" stroke="white" stroke-width="10" stroke-linecap="round"/>
<path id="Star 1_26" d="M481.78 890.195C482.882 894.705 477.003 897.477 474.224 893.758C472.32 891.209 468.395 891.569 466.987 894.422C464.932 898.584 458.646 896.929 458.909 892.294C459.088 889.117 455.851 886.871 452.938 888.151C448.688 890.019 444.937 884.71 448.117 881.328C450.297 879.01 449.261 875.208 446.206 874.316C441.75 873.015 442.289 866.538 446.899 865.991C450.059 865.616 451.709 862.038 449.943 859.391C447.365 855.53 451.942 850.915 455.824 853.459C458.486 855.203 462.05 853.522 462.398 850.36C462.906 845.745 469.378 845.151 470.717 849.596C471.635 852.643 475.446 853.647 477.745 851.447C481.1 848.239 486.44 851.944 484.608 856.21C483.353 859.134 485.627 862.352 488.802 862.146C493.435 861.844 495.144 868.115 490.999 870.206C488.158 871.638 487.831 875.566 490.396 877.448C494.138 880.195 491.416 886.097 486.898 885.034C483.8 884.306 481.025 887.104 481.78 890.195Z" fill="#7CE06A"/>
</g>
<g id="Group 18_9">
<line id="Line 7_27" x1="404.691" y1="834.516" x2="496.597" y2="795.103" stroke="white" stroke-width="10" stroke-linecap="round"/>
<path id="Star 1_27" d="M537.507 770.73C544.337 769.317 548.186 778.292 542.454 782.265C538.525 784.989 538.857 790.901 543.066 793.168C549.206 796.475 546.386 805.824 539.441 805.184C534.68 804.745 531.134 809.487 532.901 813.929C535.48 820.409 527.309 825.758 522.401 820.803C519.036 817.407 513.272 818.76 511.77 823.299C509.579 829.921 499.882 828.766 499.307 821.815C498.913 817.051 493.627 814.383 489.56 816.894C483.625 820.559 476.938 813.441 480.966 807.747C483.726 803.844 481.392 798.402 476.662 797.711C469.761 796.704 469.213 786.953 475.959 785.18C480.582 783.964 482.292 778.295 479.113 774.726C474.474 769.518 480.322 761.697 486.629 764.674C490.952 766.715 495.906 763.472 495.765 758.693C495.559 751.722 505.066 749.49 507.984 755.825C509.984 760.167 515.863 760.867 518.826 757.115C523.15 751.642 531.867 756.043 530.031 762.772C528.772 767.384 532.826 771.699 537.507 770.73Z" fill="#8DBBFB"/>
</g>
</g>
</g>
<defs>
<clipPath id="clip0_138_511">
<rect width="1440" height="1024" fill="white"/>
</clipPath>
</defs>
</svg>
