<svg width="1440" height="1024" viewBox="0 0 1440 1024" fill="none" xmlns="http://www.w3.org/2000/svg">
<g id="trick2-yes" clip-path="url(#clip0_138_686)">
<rect width="1440" height="1024" fill="#333148"/>
<path id="part 5" d="M47.096 132.12V60.024H61.688L62.264 71.448L59.384 70.584C59.832 68.536 61.048 66.648 63.032 64.92C65.016 63.192 67.512 61.784 70.52 60.696C73.592 59.608 76.856 59.064 80.312 59.064C85.304 59.064 89.688 60.216 93.464 62.52C97.24 64.76 100.184 67.864 102.296 71.832C104.472 75.736 105.56 80.28 105.56 85.464C105.56 90.584 104.472 95.128 102.296 99.096C100.184 103.064 97.208 106.2 93.368 108.504C89.528 110.744 85.112 111.864 80.12 111.864C76.664 111.864 73.432 111.288 70.424 110.136C67.416 108.984 64.888 107.48 62.84 105.624C60.856 103.768 59.576 101.816 59 99.768L62.552 98.424V132.12H47.096ZM76.376 98.904C79.256 98.904 81.752 98.36 83.864 97.272C85.976 96.12 87.608 94.552 88.76 92.568C89.976 90.584 90.584 88.216 90.584 85.464C90.584 82.776 89.976 80.44 88.76 78.456C87.608 76.408 85.976 74.84 83.864 73.752C81.816 72.6 79.32 72.024 76.376 72.024C73.496 72.024 70.968 72.568 68.792 73.656C66.68 74.744 65.016 76.312 63.8 78.36C62.648 80.408 62.072 82.776 62.072 85.464C62.072 88.216 62.648 90.584 63.8 92.568C65.016 94.552 66.68 96.12 68.792 97.272C70.968 98.36 73.496 98.904 76.376 98.904ZM144.211 111.864C139.155 111.864 134.739 110.744 130.963 108.504C127.187 106.264 124.211 103.16 122.035 99.192C119.923 95.16 118.867 90.584 118.867 85.464C118.867 80.28 119.955 75.704 122.131 71.736C124.307 67.768 127.315 64.664 131.155 62.424C135.059 60.12 139.539 58.968 144.595 58.968C147.475 58.968 150.131 59.352 152.563 60.12C154.995 60.824 157.107 61.816 158.899 63.096C160.755 64.376 162.259 65.784 163.411 67.32C164.627 68.856 165.427 70.456 165.811 72.12H162.451V60.024H177.619V111H162.163V97.944L165.427 98.424C165.043 100.088 164.243 101.72 163.027 103.32C161.811 104.92 160.243 106.36 158.323 107.64C156.403 108.92 154.227 109.944 151.795 110.712C149.427 111.48 146.899 111.864 144.211 111.864ZM148.339 98.904C151.219 98.904 153.715 98.36 155.827 97.272C158.003 96.184 159.667 94.648 160.819 92.664C162.035 90.616 162.643 88.216 162.643 85.464C162.643 82.776 162.035 80.44 160.819 78.456C159.667 76.408 158.003 74.808 155.827 73.656C153.715 72.504 151.219 71.928 148.339 71.928C145.459 71.928 142.963 72.504 140.851 73.656C138.739 74.808 137.075 76.408 135.859 78.456C134.707 80.44 134.131 82.776 134.131 85.464C134.131 88.216 134.707 90.616 135.859 92.664C137.075 94.648 138.739 96.184 140.851 97.272C142.963 98.36 145.459 98.904 148.339 98.904ZM201.315 111V60.024H215.907L216.579 77.592L212.931 75.768C213.763 72.632 215.203 69.816 217.251 67.32C219.363 64.76 221.763 62.744 224.451 61.272C227.203 59.736 230.115 58.968 233.187 58.968C234.851 58.968 236.419 59.128 237.891 59.448C239.427 59.768 240.739 60.184 241.827 60.696L237.603 77.496C236.643 76.792 235.331 76.248 233.667 75.864C232.067 75.48 230.435 75.288 228.771 75.288C226.915 75.288 225.219 75.608 223.683 76.248C222.211 76.824 220.963 77.656 219.939 78.744C218.915 79.768 218.115 80.952 217.539 82.296C217.027 83.64 216.771 85.08 216.771 86.616V111H201.315ZM265.932 111V46.008H281.292V111H265.932ZM254.604 73.464V60.024H294.252V73.464H254.604ZM370.984 111.672C365.736 111.672 360.904 110.648 356.488 108.6C352.072 106.552 348.392 103.768 345.448 100.248L354.088 90.168C356.712 92.792 359.368 94.744 362.056 96.024C364.744 97.24 367.56 97.848 370.504 97.848C372.936 97.848 375.048 97.432 376.84 96.6C378.696 95.704 380.136 94.488 381.16 92.952C382.248 91.416 382.792 89.688 382.792 87.768C382.792 85.784 382.248 84.056 381.16 82.584C380.136 81.048 378.696 79.832 376.84 78.936C375.048 78.04 372.968 77.592 370.6 77.592C368.552 77.592 366.664 77.784 364.936 78.168C363.208 78.552 361.608 79.064 360.136 79.704C358.664 80.344 357.192 81.08 355.72 81.912L348.808 72.888L352.936 43.224H393.064V56.952H360.712L364.936 51.576L361.768 72.888L356.008 70.968C357.288 69.88 358.888 68.92 360.808 68.088C362.728 67.256 364.808 66.584 367.048 66.072C369.352 65.496 371.624 65.208 373.864 65.208C378.344 65.208 382.376 66.168 385.96 68.088C389.544 70.008 392.392 72.696 394.504 76.152C396.68 79.608 397.768 83.608 397.768 88.152C397.768 92.568 396.584 96.568 394.216 100.152C391.848 103.672 388.648 106.488 384.616 108.6C380.648 110.648 376.104 111.672 370.984 111.672Z" fill="white"/>
<rect id="Rectangle 7" x="-7" y="477" width="1567" height="626" fill="#211F2F"/>
<rect id="Rectangle 26" x="854" y="232" width="279" height="425" rx="25" fill="#6A94E0"/>
<path id="Polygon 2" d="M834.384 434.306C840.428 422.003 858.914 425.761 859.151 439.34L862.384 625.135C862.53 633.51 854.733 639.957 846.487 638.281L760.565 620.816C752.318 619.14 747.968 610.223 751.696 602.635L834.384 434.306Z" fill="#3E5068"/>
<path id="Polygon 3" d="M1155.62 434.306C1149.57 422.003 1131.09 425.761 1130.85 439.34L1127.62 625.135C1127.47 633.51 1135.27 639.957 1143.51 638.281L1229.44 620.816C1237.68 619.14 1242.03 610.223 1238.31 602.635L1155.62 434.306Z" fill="#3E5068"/>
<path id="Polygon 5" d="M1008.63 494.046C1005.42 480.801 986.582 480.801 983.367 494.046L939.279 675.684C937.292 683.867 943.491 691.75 951.912 691.75L1040.09 691.75C1048.51 691.75 1054.71 683.867 1052.72 675.684L1008.63 494.046Z" fill="#3E5068"/>
<path id="Polygon 4" d="M977.409 65.7989C985.403 54.9692 1001.6 54.9692 1009.59 65.7989L1134.95 235.622C1144.69 248.826 1135.27 267.5 1118.86 267.5H868.144C851.733 267.5 842.307 248.826 852.053 235.622L977.409 65.7989Z" fill="#3E5068"/>
<g id="Group 19">
<g id="Group 16">
<line id="Line 7" x1="418.062" y1="782.047" x2="347.871" y2="853.274" stroke="white" stroke-width="10" stroke-linecap="round"/>
<path id="Star 1" d="M319.207 891.3C313.418 895.19 306.462 888.336 310.267 882.491C312.875 878.484 310.334 873.136 305.58 872.628C298.645 871.887 297.723 862.165 304.395 860.133C308.968 858.741 310.459 853.01 307.144 849.566C302.307 844.54 307.85 836.5 314.267 839.232C318.666 841.105 323.491 837.673 323.166 832.903C322.691 825.945 332.106 823.348 335.265 829.566C337.431 833.828 343.333 834.301 346.15 830.438C350.259 824.803 359.14 828.865 357.563 835.659C356.483 840.316 360.7 844.472 365.341 843.324C372.111 841.648 376.303 850.468 370.728 854.66C366.907 857.533 367.467 863.427 371.76 865.53C378.023 868.599 375.565 878.05 368.6 877.677C363.826 877.422 360.466 882.297 362.402 886.668C365.228 893.044 357.27 898.704 352.174 893.942C348.681 890.677 342.973 892.252 341.648 896.845C339.714 903.546 329.979 902.766 329.137 895.842C328.559 891.097 323.175 888.634 319.207 891.3Z" fill="#EC5F46"/>
</g>
<g id="Group 17">
<line id="Line 7_2" x1="372.209" y1="815.929" x2="379.114" y2="753.093" stroke="white" stroke-width="10" stroke-linecap="round"/>
<path id="Star 1_2" d="M380.239 719.926C381.657 715.506 388.118 716.216 388.543 720.839C388.834 724.007 392.368 725.752 395.06 724.056C398.988 721.581 403.481 726.278 400.834 730.092C399.021 732.706 400.606 736.314 403.759 736.745C408.358 737.375 408.781 743.861 404.302 745.082C401.232 745.918 400.128 749.702 402.266 752.058C405.385 755.497 401.54 760.737 397.324 758.793C394.434 757.461 391.157 759.649 391.279 762.829C391.458 767.468 385.144 769.01 383.164 764.811C381.807 761.934 377.89 761.503 375.94 764.018C373.095 767.686 367.267 764.809 368.449 760.32C369.259 757.243 366.535 754.395 363.425 755.068C358.888 756.05 356.272 750.1 360.064 747.421C362.662 745.584 362.406 741.652 359.591 740.168C355.484 738.004 357.305 731.764 361.931 732.149C365.102 732.413 367.434 729.235 366.231 726.29C364.476 721.992 369.882 718.383 373.179 721.651C375.438 723.891 379.267 722.956 380.239 719.926Z" fill="#7CE06A"/>
</g>
<g id="Group 18">
<line id="Line 7_3" x1="416.862" y1="807.679" x2="317.91" y2="793.239" stroke="white" stroke-width="10" stroke-linecap="round"/>
<path id="Star 1_3" d="M270.294 792.634C263.732 790.269 265.142 780.605 272.106 780.214C276.879 779.946 279.686 774.733 277.283 770.6C273.777 764.571 281.069 758.075 286.655 762.251C290.483 765.114 295.985 762.925 296.8 758.214C297.99 751.342 307.751 751.052 309.346 757.842C310.439 762.496 316.06 764.356 319.713 761.271C325.042 756.771 332.705 762.824 329.562 769.051C327.408 773.318 330.519 778.356 335.3 778.341C342.274 778.319 344.254 787.882 337.845 790.631C333.451 792.516 332.596 798.375 336.268 801.436C341.625 805.903 336.995 814.501 330.317 812.487C325.74 811.107 321.319 815.046 322.164 819.751C323.397 826.616 314.323 830.226 310.502 824.391C307.883 820.392 301.965 820.567 299.588 824.715C296.119 830.766 286.848 827.699 287.671 820.773C288.236 816.026 283.589 812.356 279.102 814.005C272.556 816.411 267.425 808.102 272.508 803.326C275.991 800.053 274.791 794.255 270.294 792.634Z" fill="#8DBBFB"/>
</g>
</g>
<g id="Group 21">
<g id="Group 16_2">
<line id="Line 7_4" x1="399.376" y1="893.201" x2="372.842" y2="796.786" stroke="white" stroke-width="10" stroke-linecap="round"/>
<path id="Star 1_4" d="M354.266 752.939C353.795 745.98 363.211 743.389 366.367 749.609C368.53 753.872 374.432 754.348 377.251 750.487C381.364 744.853 390.242 748.921 388.662 755.714C387.579 760.37 391.794 764.529 396.435 763.383C403.206 761.711 407.393 770.534 401.816 774.722C397.994 777.593 398.549 783.488 402.841 785.593C409.103 788.665 406.639 798.115 399.675 797.738C394.901 797.48 391.538 802.353 393.472 806.725C396.295 813.103 388.333 818.758 383.24 813.993C379.749 810.727 374.04 812.298 372.712 816.891C370.774 823.591 361.04 822.805 360.202 815.881C359.627 811.135 354.244 808.669 350.274 811.334C344.483 815.22 337.531 808.362 341.34 802.519C343.95 798.514 341.411 793.164 336.658 792.654C329.723 791.909 328.806 782.186 335.48 780.158C340.054 778.768 341.547 773.038 338.234 769.592C333.401 764.564 338.948 756.526 345.364 759.262C349.761 761.137 354.589 757.708 354.266 752.939Z" fill="#EC5F46"/>
</g>
<g id="Group 17_2">
<line id="Line 7_5" x1="392.994" y1="836.55" x2="443.938" y2="873.976" stroke="white" stroke-width="10" stroke-linecap="round"/>
<path id="Star 1_5" d="M472.089 891.548C475.206 894.989 471.358 900.227 467.143 898.281C464.255 896.947 460.976 899.133 461.097 902.313C461.273 906.952 454.958 908.491 452.98 904.291C451.625 901.412 447.708 900.98 445.757 903.493C442.91 907.16 437.083 904.28 438.268 899.791C439.08 896.715 436.357 893.866 433.247 894.537C428.709 895.516 426.097 889.564 429.889 886.887C432.489 885.053 432.235 881.12 429.421 879.635C425.315 877.468 427.14 871.23 431.766 871.617C434.937 871.882 437.27 868.706 436.069 865.76C434.316 861.461 439.724 857.855 443.019 861.125C445.277 863.366 449.106 862.433 450.08 859.404C451.501 854.985 457.961 855.698 458.383 860.321C458.673 863.49 462.206 865.236 464.899 863.542C468.828 861.069 473.318 865.769 470.67 869.582C468.855 872.195 470.439 875.804 473.591 876.237C478.19 876.868 478.609 883.355 474.129 884.573C471.059 885.408 469.953 889.191 472.089 891.548Z" fill="#7CE06A"/>
</g>
<g id="Group 18_2">
<line id="Line 7_6" x1="377.788" y1="879.336" x2="439.812" y2="800.896" stroke="white" stroke-width="10" stroke-linecap="round"/>
<path id="Star 1_6" d="M464.169 759.975C469.5 755.478 477.16 761.535 474.014 767.76C471.857 772.026 474.966 777.066 479.746 777.053C486.721 777.035 488.695 786.599 482.284 789.345C477.889 791.227 477.031 797.086 480.701 800.149C486.056 804.619 481.421 813.215 474.744 811.197C470.168 809.814 465.745 813.75 466.587 818.456C467.816 825.321 458.74 828.927 454.923 823.09C452.306 819.089 446.387 819.261 444.008 823.407C440.536 829.456 431.266 826.384 432.094 819.459C432.661 814.712 428.017 811.04 423.529 812.686C416.981 815.088 411.854 806.777 416.94 802.004C420.426 798.732 419.228 792.933 414.732 791.31C408.172 788.941 409.587 779.279 416.551 778.891C421.324 778.626 424.135 773.414 421.734 769.28C418.231 763.249 425.526 756.757 431.11 760.936C434.937 763.801 440.44 761.615 441.258 756.905C442.451 750.033 452.213 749.749 453.803 756.54C454.894 761.195 460.514 763.057 464.169 759.975Z" fill="#8DBBFB"/>
</g>
</g>
<g id="Group 22">
<g id="Group 16_3">
<line id="Line 7_7" x1="381.08" y1="737.575" x2="456.511" y2="803.227" stroke="white" stroke-width="10" stroke-linecap="round"/>
<path id="Star 1_7" d="M496.239 829.483C500.48 835.021 494.068 842.387 487.999 838.951C483.839 836.596 478.658 839.463 478.445 844.239C478.135 851.207 468.488 852.729 466.048 846.195C464.375 841.717 458.563 840.584 455.33 844.105C450.613 849.243 442.246 844.208 444.576 837.634C446.173 833.129 442.449 828.525 437.709 829.144C430.793 830.048 427.619 820.813 433.63 817.275C437.75 814.849 437.856 808.929 433.827 806.357C427.948 802.604 431.453 793.489 438.332 794.642C443.047 795.433 446.934 790.966 445.501 786.406C443.409 779.752 451.953 775.022 456.482 780.327C459.585 783.963 465.434 783.04 467.268 778.626C469.943 772.184 479.528 774.053 479.587 781.028C479.627 785.808 484.701 788.861 488.943 786.657C495.133 783.442 501.274 791.035 496.836 796.416C493.794 800.104 495.718 805.704 500.385 806.743C507.193 808.258 507.016 818.023 500.158 819.292C495.457 820.162 493.332 825.688 496.239 829.483Z" fill="#EC5F46"/>
</g>
<g id="Group 17_3">
<line id="Line 7_8" x1="417.731" y1="781.245" x2="354.588" y2="778.24" stroke="white" stroke-width="10" stroke-linecap="round"/>
<path id="Star 1_8" d="M321.415 779.17C316.916 778.027 317.224 771.535 321.812 770.825C324.957 770.339 326.479 766.704 324.62 764.122C321.907 760.354 326.317 755.579 330.288 757.985C333.009 759.633 336.512 757.827 336.747 754.654C337.091 750.025 343.538 749.201 345.034 753.596C346.059 756.608 349.903 757.476 352.123 755.197C355.362 751.871 360.83 755.385 359.151 759.713C358 762.679 360.387 765.815 363.553 765.496C368.171 765.031 370.102 771.237 366.033 773.473C363.245 775.006 363.058 778.942 365.688 780.733C369.526 783.345 367.015 789.34 362.461 788.438C359.34 787.82 356.666 790.715 357.53 793.777C358.791 798.245 353.013 801.224 350.105 797.605C348.111 795.126 344.202 795.625 342.896 798.526C340.99 802.759 334.649 801.327 334.747 796.686C334.814 793.505 331.498 791.374 328.633 792.757C324.452 794.774 320.515 789.602 323.573 786.109C325.669 783.716 324.499 779.952 321.415 779.17Z" fill="#7CE06A"/>
</g>
<g id="Group 18_3">
<line id="Line 7_9" x1="406.735" y1="737.188" x2="398.444" y2="836.844" stroke="white" stroke-width="10" stroke-linecap="round"/>
<path id="Star 1_9" d="M400.784 884.406C398.83 891.101 389.098 890.292 388.276 883.365C387.714 878.618 382.336 876.139 378.361 878.793C372.56 882.665 365.625 875.789 369.448 869.956C372.068 865.957 369.543 860.602 364.791 860.079C357.858 859.317 356.965 849.592 363.644 847.581C368.221 846.202 369.729 840.476 366.425 837.021C361.604 831.981 367.171 823.958 373.58 826.71C377.973 828.596 382.809 825.179 382.498 820.408C382.045 813.448 391.467 810.881 394.607 817.108C396.76 821.377 402.661 821.868 405.489 818.014C409.616 812.391 418.484 816.48 416.887 823.269C415.792 827.923 419.997 832.092 424.641 830.958C431.416 829.303 435.581 838.136 429.994 842.31C426.164 845.171 426.705 851.068 430.992 853.184C437.246 856.271 434.758 865.715 427.795 865.321C423.022 865.051 419.646 869.916 421.57 874.292C424.376 880.677 416.401 886.313 411.319 881.535C407.837 878.26 402.124 879.817 400.784 884.406Z" fill="#8DBBFB"/>
</g>
</g>
<g id="Group 23">
<g id="Group 16_4">
<line id="Line 7_10" x1="493.08" y1="783.575" x2="568.512" y2="849.227" stroke="white" stroke-width="10" stroke-linecap="round"/>
<path id="Star 1_10" d="M608.239 875.483C612.48 881.021 606.069 888.387 599.999 884.951C595.839 882.596 590.659 885.463 590.446 890.239C590.135 897.207 580.489 898.729 578.048 892.195C576.375 887.717 570.564 886.584 567.331 890.105C562.614 895.243 554.246 890.208 556.576 883.634C558.173 879.129 554.45 874.525 549.709 875.144C542.794 876.048 539.62 866.813 545.63 863.275C549.75 860.849 549.857 854.929 545.827 852.357C539.948 848.604 543.454 839.489 550.332 840.642C555.047 841.433 558.934 836.966 557.501 832.406C555.41 825.752 563.954 821.022 568.482 826.327C571.586 829.963 577.435 829.04 579.268 824.626C581.943 818.184 591.528 820.053 591.587 827.028C591.628 831.808 596.701 834.861 600.944 832.657C607.133 829.442 613.274 837.035 608.836 842.416C605.795 846.104 607.719 851.704 612.385 852.743C619.193 854.258 619.017 864.023 612.159 865.292C607.458 866.162 605.333 871.688 608.239 875.483Z" fill="#EC5F46"/>
</g>
<g id="Group 17_4">
<line id="Line 7_11" x1="529.731" y1="827.247" x2="466.589" y2="824.242" stroke="white" stroke-width="10" stroke-linecap="round"/>
<path id="Star 1_11" d="M433.416 825.171C428.916 824.029 429.225 817.537 433.813 816.827C436.957 816.341 438.479 812.706 436.62 810.124C433.907 806.356 438.318 801.581 442.288 803.987C445.009 805.635 448.512 803.829 448.748 800.656C449.091 796.027 455.539 795.203 457.034 799.598C458.059 802.61 461.904 803.478 464.124 801.199C467.362 797.873 472.831 801.387 471.151 805.715C470 808.681 472.387 811.817 475.553 811.498C480.172 811.033 482.102 817.239 478.034 819.475C475.246 821.008 475.058 824.944 477.688 826.735C481.526 829.347 479.015 835.342 474.461 834.44C471.34 833.822 468.666 836.717 469.53 839.779C470.791 844.247 465.014 847.226 462.105 843.607C460.112 841.128 456.203 841.627 454.896 844.528C452.99 848.761 446.65 847.329 446.747 842.688C446.814 839.507 443.499 837.376 440.633 838.759C436.452 840.776 432.516 835.604 435.574 832.111C437.67 829.718 436.5 825.954 433.416 825.171Z" fill="#7CE06A"/>
</g>
<g id="Group 18_4">
<line id="Line 7_12" x1="518.736" y1="783.19" x2="510.445" y2="882.846" stroke="white" stroke-width="10" stroke-linecap="round"/>
<path id="Star 1_12" d="M512.785 930.408C510.83 937.103 501.098 936.293 500.277 929.367C499.714 924.62 494.337 922.141 490.361 924.795C484.56 928.667 477.625 921.791 481.448 915.958C484.069 911.959 481.543 906.604 476.791 906.081C469.859 905.319 468.966 895.594 475.644 893.583C480.222 892.204 481.73 886.478 478.425 883.023C473.604 877.983 479.172 869.96 485.581 872.712C489.973 874.598 494.809 871.181 494.498 866.41C494.045 859.45 503.467 856.883 506.608 863.11C508.761 867.379 514.661 867.87 517.49 864.016C521.616 858.393 530.484 862.482 528.887 869.271C527.793 873.925 531.997 878.094 536.641 876.96C543.417 875.305 547.582 884.138 541.994 888.312C538.164 891.173 538.706 897.07 542.992 899.186C549.246 902.273 546.759 911.717 539.795 911.323C535.023 911.053 531.647 915.918 533.57 920.294C536.377 926.679 528.401 932.315 523.32 927.537C519.837 924.262 514.124 925.819 512.785 930.408Z" fill="#8DBBFB"/>
</g>
</g>
<g id="Group 24">
<g id="Group 16_5">
<line id="Line 7_13" x1="344.081" y1="829.575" x2="419.512" y2="895.227" stroke="white" stroke-width="10" stroke-linecap="round"/>
<path id="Star 1_13" d="M459.24 921.483C463.481 927.021 457.069 934.387 451 930.951C446.84 928.596 441.659 931.463 441.446 936.239C441.136 943.207 431.489 944.729 429.049 938.195C427.376 933.717 421.564 932.584 418.331 936.105C413.614 941.243 405.247 936.208 407.577 929.634C409.174 925.129 405.45 920.525 400.71 921.144C393.794 922.048 390.62 912.813 396.631 909.275C400.75 906.849 400.857 900.929 396.828 898.357C390.949 894.604 394.454 885.489 401.333 886.642C406.048 887.433 409.935 882.966 408.502 878.406C406.41 871.752 414.954 867.022 419.483 872.327C422.586 875.963 428.435 875.04 430.269 870.626C432.944 864.184 442.529 866.053 442.588 873.028C442.628 877.808 447.702 880.861 451.944 878.657C458.134 875.442 464.275 883.035 459.837 888.416C456.795 892.104 458.719 897.704 463.386 898.743C470.194 900.258 470.017 910.023 463.159 911.292C458.458 912.162 456.333 917.688 459.24 921.483Z" fill="#EC5F46"/>
</g>
<g id="Group 17_5">
<line id="Line 7_14" x1="380.732" y1="873.247" x2="317.589" y2="870.242" stroke="white" stroke-width="10" stroke-linecap="round"/>
<path id="Star 1_14" d="M284.416 871.171C279.916 870.029 280.225 863.537 284.813 862.827C287.958 862.341 289.48 858.706 287.621 856.124C284.908 852.356 289.318 847.581 293.289 849.987C296.01 851.635 299.513 849.829 299.748 846.656C300.092 842.027 306.539 841.203 308.035 845.598C309.06 848.61 312.904 849.478 315.124 847.199C318.363 843.873 323.831 847.387 322.152 851.715C321.001 854.681 323.388 857.817 326.554 857.498C331.172 857.033 333.103 863.239 329.034 865.475C326.246 867.008 326.059 870.944 328.689 872.735C332.527 875.347 330.016 881.342 325.462 880.44C322.341 879.822 319.667 882.717 320.531 885.779C321.792 890.247 316.014 893.226 313.106 889.607C311.112 887.128 307.203 887.627 305.897 890.528C303.99 894.761 297.65 893.329 297.748 888.688C297.815 885.507 294.499 883.376 291.634 884.759C287.453 886.776 283.516 881.604 286.574 878.111C288.67 875.718 287.5 871.954 284.416 871.171Z" fill="#7CE06A"/>
</g>
<g id="Group 18_5">
<line id="Line 7_15" x1="369.736" y1="829.19" x2="361.445" y2="928.846" stroke="white" stroke-width="10" stroke-linecap="round"/>
<path id="Star 1_15" d="M363.785 976.408C361.831 983.103 352.099 982.293 351.277 975.367C350.714 970.62 345.337 968.141 341.362 970.795C335.561 974.667 328.626 967.791 332.449 961.958C335.069 957.959 332.544 952.604 327.792 952.081C320.859 951.319 319.966 941.594 326.645 939.583C331.222 938.204 332.73 932.478 329.426 929.023C324.605 923.983 330.172 915.96 336.581 918.712C340.974 920.598 345.81 917.181 345.499 912.41C345.046 905.45 354.468 902.883 357.608 909.11C359.761 913.379 365.662 913.87 368.49 910.016C372.617 904.393 381.485 908.482 379.888 915.271C378.793 919.925 382.998 924.094 387.642 922.96C394.417 921.305 398.582 930.138 392.995 934.312C389.165 937.173 389.706 943.07 393.993 945.186C400.247 948.273 397.759 957.717 390.796 957.323C386.023 957.053 382.647 961.918 384.571 966.294C387.377 972.679 379.402 978.315 374.32 973.537C370.838 970.262 365.125 971.819 363.785 976.408Z" fill="#8DBBFB"/>
</g>
</g>
<g id="Group 25">
<g id="Group 16_6">
<line id="Line 7_16" x1="252.081" y1="733.577" x2="327.512" y2="799.228" stroke="white" stroke-width="10" stroke-linecap="round"/>
<path id="Star 1_16" d="M367.24 825.485C371.481 831.023 365.069 838.389 359 834.953C354.84 832.598 349.659 835.465 349.446 840.241C349.136 847.209 339.489 848.731 337.049 842.197C335.376 837.719 329.564 836.586 326.331 840.107C321.614 845.245 313.247 840.21 315.577 833.636C317.174 829.131 313.45 824.527 308.71 825.146C301.794 826.05 298.62 816.815 304.631 813.277C308.75 810.851 308.857 804.931 304.828 802.359C298.949 798.606 302.454 789.491 309.333 790.644C314.048 791.435 317.935 786.968 316.502 782.408C314.41 775.754 322.954 771.024 327.483 776.329C330.586 779.965 336.435 779.042 338.269 774.627C340.944 768.186 350.529 770.055 350.588 777.03C350.628 781.81 355.702 784.863 359.944 782.659C366.134 779.444 372.275 787.037 367.837 792.418C364.795 796.106 366.719 801.706 371.386 802.745C378.194 804.26 378.017 814.025 371.159 815.294C366.458 816.163 364.333 821.69 367.24 825.485Z" fill="#EC5F46"/>
</g>
<g id="Group 17_6">
<line id="Line 7_17" x1="288.731" y1="777.247" x2="225.589" y2="774.242" stroke="white" stroke-width="10" stroke-linecap="round"/>
<path id="Star 1_17" d="M192.416 775.171C187.916 774.029 188.225 767.537 192.813 766.827C195.957 766.341 197.479 762.706 195.62 760.124C192.907 756.356 197.318 751.581 201.288 753.987C204.009 755.635 207.512 753.829 207.748 750.656C208.091 746.027 214.539 745.203 216.034 749.598C217.059 752.61 220.904 753.478 223.124 751.199C226.362 747.873 231.831 751.387 230.151 755.715C229 758.681 231.387 761.817 234.553 761.498C239.172 761.033 241.102 767.239 237.034 769.475C234.246 771.008 234.058 774.944 236.688 776.735C240.526 779.347 238.015 785.342 233.461 784.44C230.34 783.822 227.666 786.717 228.53 789.779C229.791 794.247 224.014 797.226 221.105 793.607C219.112 791.128 215.203 791.627 213.896 794.528C211.99 798.761 205.65 797.329 205.747 792.688C205.814 789.507 202.499 787.376 199.633 788.759C195.452 790.776 191.516 785.604 194.574 782.111C196.67 779.718 195.5 775.954 192.416 775.171Z" fill="#7CE06A"/>
</g>
<g id="Group 18_6">
<line id="Line 7_18" x1="277.736" y1="733.19" x2="269.445" y2="832.846" stroke="white" stroke-width="10" stroke-linecap="round"/>
<path id="Star 1_18" d="M271.785 880.408C269.831 887.103 260.099 886.293 259.277 879.367C258.714 874.62 253.337 872.141 249.362 874.795C243.561 878.667 236.626 871.791 240.449 865.958C243.069 861.959 240.544 856.604 235.792 856.081C228.859 855.319 227.966 845.594 234.645 843.583C239.222 842.204 240.73 836.478 237.426 833.023C232.605 827.983 238.172 819.96 244.581 822.712C248.974 824.598 253.81 821.181 253.499 816.41C253.046 809.45 262.468 806.883 265.608 813.11C267.761 817.379 273.662 817.87 276.49 814.016C280.617 808.393 289.485 812.482 287.888 819.271C286.793 823.925 290.998 828.094 295.642 826.96C302.417 825.305 306.582 834.138 300.995 838.312C297.165 841.173 297.706 847.07 301.993 849.186C308.247 852.273 305.759 861.717 298.796 861.323C294.023 861.053 290.647 865.918 292.571 870.294C295.377 876.679 287.402 882.315 282.32 877.537C278.838 874.262 273.125 875.819 271.785 880.408Z" fill="#8DBBFB"/>
</g>
</g>
<g id="Group 26">
<g id="Group 16_7">
<line id="Line 7_19" x1="379.347" y1="807.276" x2="314.454" y2="731.191" stroke="white" stroke-width="10" stroke-linecap="round"/>
<path id="Star 1_19" d="M279.047 699.348C275.672 693.245 283.102 686.908 288.596 691.204C292.362 694.148 297.91 692.078 298.827 687.387C300.165 680.541 309.93 680.463 311.378 687.286C312.37 691.962 317.95 693.942 321.668 690.938C327.093 686.554 334.624 692.771 331.347 698.928C329.102 703.148 332.103 708.252 336.883 708.34C343.857 708.469 345.63 718.072 339.162 720.682C334.729 722.472 333.748 728.311 337.352 731.451C342.612 736.032 337.797 744.528 331.164 742.371C326.618 740.892 322.113 744.734 322.856 749.456C323.94 756.346 314.791 759.76 311.097 753.844C308.565 749.789 302.644 749.836 300.178 753.932C296.58 759.907 287.376 756.64 288.35 749.734C289.017 745 284.45 741.231 279.929 742.783C273.332 745.047 268.381 736.629 273.566 731.964C277.12 728.766 276.045 722.944 271.583 721.226C265.075 718.72 266.693 709.089 273.663 708.848C278.441 708.683 281.36 703.532 279.047 699.348Z" fill="#EC5F46"/>
</g>
<g id="Group 17_7">
<line id="Line 7_20" x1="349.558" y1="758.667" x2="411.562" y2="770.977" stroke="white" stroke-width="10" stroke-linecap="round"/>
<path id="Star 1_20" d="M444.507 774.965C448.788 776.76 447.522 783.135 442.88 783.159C439.698 783.175 437.655 786.545 439.112 789.373C441.238 793.5 436.17 797.571 432.599 794.605C430.151 792.572 426.42 793.84 425.718 796.943C424.693 801.471 418.195 801.332 417.366 796.764C416.798 793.633 413.124 792.206 410.591 794.132C406.896 796.942 402.008 792.658 404.309 788.626C405.886 785.863 403.989 782.408 400.811 782.256C396.174 782.033 395.183 775.609 399.537 774C402.521 772.896 403.289 769.031 400.952 766.871C397.543 763.72 400.913 758.162 405.283 759.728C408.279 760.801 411.351 758.333 410.95 755.177C410.364 750.572 416.518 748.48 418.859 752.489C420.464 755.236 424.404 755.321 426.125 752.645C428.637 748.74 434.695 751.094 433.912 755.67C433.376 758.806 436.339 761.403 439.378 760.46C443.812 759.083 446.94 764.78 443.399 767.782C440.972 769.84 441.573 773.735 444.507 774.965Z" fill="#7CE06A"/>
</g>
<g id="Group 18_7">
<line id="Line 7_21" x1="353.916" y1="803.865" x2="376.855" y2="706.532" stroke="white" stroke-width="10" stroke-linecap="round"/>
<path id="Star 1_21" d="M381.575 659.147C384.498 652.814 394.003 655.054 393.791 662.026C393.646 666.804 398.597 670.051 402.922 668.014C409.231 665.042 415.073 672.868 410.429 678.072C407.247 681.639 408.952 687.31 413.574 688.529C420.318 690.308 419.763 700.058 412.86 701.06C408.13 701.746 405.791 707.186 408.548 711.092C412.571 716.789 405.878 723.901 399.947 720.232C395.881 717.717 390.593 720.381 390.195 725.145C389.614 732.095 379.916 733.241 377.731 726.618C376.233 722.078 370.47 720.72 367.102 724.113C362.19 729.064 354.024 723.708 356.607 717.229C358.378 712.789 354.836 708.044 350.076 708.479C343.13 709.114 340.317 699.762 346.461 696.46C350.672 694.196 351.008 688.285 347.082 685.558C341.353 681.579 345.21 672.608 352.038 674.027C356.719 675 360.777 670.688 359.522 666.075C357.691 659.345 366.412 654.951 370.731 660.428C373.691 664.182 379.571 663.487 381.575 659.147Z" fill="#8DBBFB"/>
</g>
</g>
<g id="Group 27">
<g id="Group 16_8">
<line id="Line 7_22" x1="503.08" y1="730.577" x2="578.512" y2="796.228" stroke="white" stroke-width="10" stroke-linecap="round"/>
<path id="Star 1_22" d="M618.239 822.485C622.48 828.023 616.069 835.389 609.999 831.953C605.839 829.598 600.659 832.465 600.446 837.241C600.135 844.209 590.489 845.731 588.048 839.197C586.375 834.719 580.564 833.586 577.331 837.107C572.614 842.245 564.246 837.21 566.576 830.636C568.173 826.131 564.45 821.527 559.709 822.146C552.794 823.05 549.62 813.815 555.63 810.277C559.75 807.851 559.857 801.931 555.827 799.359C549.948 795.606 553.454 786.491 560.332 787.644C565.047 788.435 568.934 783.968 567.501 779.408C565.41 772.754 573.954 768.024 578.482 773.329C581.586 776.965 587.435 776.042 589.268 771.627C591.943 765.186 601.528 767.055 601.587 774.03C601.628 778.81 606.701 781.863 610.944 779.659C617.133 776.444 623.274 784.037 618.836 789.418C615.795 793.106 617.719 798.706 622.385 799.745C629.193 801.26 629.017 811.025 622.159 812.294C617.458 813.163 615.333 818.69 618.239 822.485Z" fill="#EC5F46"/>
</g>
<g id="Group 17_8">
<line id="Line 7_23" x1="539.731" y1="774.247" x2="476.589" y2="771.242" stroke="white" stroke-width="10" stroke-linecap="round"/>
<path id="Star 1_23" d="M443.416 772.171C438.916 771.029 439.225 764.537 443.813 763.827C446.957 763.341 448.479 759.706 446.62 757.124C443.907 753.356 448.318 748.581 452.288 750.987C455.009 752.635 458.512 750.829 458.748 747.656C459.091 743.027 465.539 742.203 467.034 746.598C468.059 749.61 471.904 750.478 474.124 748.199C477.362 744.873 482.831 748.387 481.151 752.715C480 755.681 482.387 758.817 485.553 758.498C490.172 758.033 492.102 764.239 488.034 766.475C485.246 768.008 485.058 771.944 487.688 773.735C491.526 776.347 489.015 782.342 484.461 781.44C481.34 780.822 478.666 783.717 479.53 786.779C480.791 791.247 475.014 794.226 472.105 790.607C470.112 788.128 466.203 788.627 464.896 791.528C462.99 795.761 456.65 794.329 456.747 789.688C456.814 786.507 453.499 784.376 450.633 785.759C446.452 787.776 442.516 782.604 445.574 779.111C447.67 776.718 446.5 772.954 443.416 772.171Z" fill="#7CE06A"/>
</g>
<g id="Group 18_8">
<line id="Line 7_24" x1="528.736" y1="730.19" x2="520.445" y2="829.846" stroke="white" stroke-width="10" stroke-linecap="round"/>
<path id="Star 1_24" d="M522.785 877.408C520.83 884.103 511.098 883.293 510.277 876.367C509.714 871.62 504.337 869.141 500.361 871.795C494.56 875.667 487.625 868.791 491.448 862.958C494.069 858.959 491.543 853.604 486.791 853.081C479.859 852.319 478.966 842.594 485.644 840.583C490.222 839.204 491.73 833.478 488.425 830.023C483.604 824.983 489.172 816.96 495.581 819.712C499.973 821.598 504.809 818.181 504.498 813.41C504.045 806.45 513.467 803.883 516.608 810.11C518.761 814.379 524.661 814.87 527.49 811.016C531.616 805.393 540.484 809.482 538.887 816.271C537.793 820.925 541.997 825.094 546.641 823.96C553.417 822.305 557.582 831.138 551.994 835.312C548.164 838.173 548.706 844.07 552.992 846.186C559.246 849.273 556.759 858.717 549.795 858.323C545.023 858.053 541.647 862.918 543.57 867.294C546.377 873.679 538.401 879.315 533.32 874.537C529.837 871.262 524.124 872.819 522.785 877.408Z" fill="#8DBBFB"/>
</g>
</g>
<g id="Group 20">
<g id="Group 16_9">
<line id="Line 7_25" x1="417.066" y1="856.995" x2="439.674" y2="759.584" stroke="white" stroke-width="10" stroke-linecap="round"/>
<path id="Star 1_25" d="M444.233 712.183C447.135 705.84 456.648 708.048 456.459 715.02C456.33 719.799 461.292 723.03 465.61 720.978C471.91 717.985 477.778 725.791 473.152 731.011C469.981 734.588 471.706 740.253 476.332 741.457C483.082 743.213 482.56 752.965 475.661 753.99C470.932 754.692 468.612 760.14 471.383 764.036C475.424 769.72 468.756 776.855 462.812 773.206C458.738 770.704 453.459 773.386 453.077 778.152C452.52 785.104 442.825 786.283 440.618 779.667C439.105 775.132 433.337 773.793 429.981 777.198C425.085 782.165 416.901 776.837 419.463 770.35C421.219 765.904 417.661 761.171 412.902 761.622C405.958 762.28 403.114 752.938 409.246 749.615C413.449 747.337 413.766 741.425 409.83 738.711C404.088 734.752 407.914 725.767 414.748 727.163C419.431 728.12 423.474 723.795 422.204 719.186C420.35 712.462 429.056 708.039 433.393 713.501C436.366 717.245 442.244 716.53 444.233 712.183Z" fill="#EC5F46"/>
</g>
<g id="Group 17_9">
<line id="Line 7_26" x1="438.444" y1="804.158" x2="465.402" y2="861.335" stroke="white" stroke-width="10" stroke-linecap="round"/>
<path id="Star 1_26" d="M481.78 890.197C482.882 894.707 477.003 897.479 474.224 893.76C472.32 891.211 468.395 891.571 466.987 894.424C464.932 898.586 458.646 896.931 458.909 892.296C459.088 889.119 455.851 886.872 452.938 888.153C448.688 890.02 444.937 884.712 448.117 881.33C450.297 879.012 449.261 875.21 446.206 874.318C441.75 873.017 442.289 866.539 446.899 865.993C450.059 865.618 451.709 862.039 449.943 859.393C447.365 855.532 451.942 850.917 455.824 853.461C458.486 855.205 462.05 853.524 462.398 850.362C462.906 845.747 469.378 845.153 470.717 849.598C471.635 852.645 475.446 853.649 477.745 851.449C481.1 848.241 486.44 851.946 484.608 856.212C483.353 859.136 485.627 862.354 488.802 862.148C493.435 861.846 495.144 868.117 490.999 870.207C488.158 871.64 487.831 875.568 490.396 877.45C494.138 880.197 491.416 886.099 486.898 885.036C483.8 884.308 481.025 887.106 481.78 890.197Z" fill="#7CE06A"/>
</g>
<g id="Group 18_9">
<line id="Line 7_27" x1="404.691" y1="834.516" x2="496.597" y2="795.103" stroke="white" stroke-width="10" stroke-linecap="round"/>
<path id="Star 1_27" d="M537.507 770.73C544.337 769.317 548.186 778.292 542.454 782.265C538.525 784.989 538.857 790.901 543.066 793.168C549.206 796.475 546.386 805.824 539.441 805.184C534.68 804.745 531.134 809.487 532.901 813.929C535.48 820.409 527.309 825.758 522.401 820.803C519.036 817.407 513.272 818.76 511.77 823.299C509.579 829.921 499.882 828.766 499.307 821.815C498.913 817.051 493.627 814.383 489.56 816.894C483.625 820.559 476.938 813.441 480.966 807.747C483.726 803.844 481.392 798.402 476.662 797.711C469.761 796.704 469.213 786.953 475.959 785.18C480.582 783.964 482.292 778.295 479.113 774.726C474.474 769.518 480.322 761.697 486.629 764.674C490.952 766.715 495.906 763.472 495.765 758.693C495.559 751.722 505.066 749.49 507.984 755.825C509.984 760.167 515.863 760.867 518.826 757.115C523.15 751.642 531.867 756.043 530.031 762.772C528.772 767.384 532.826 771.699 537.507 770.73Z" fill="#8DBBFB"/>
</g>
</g>
<g id="Group 3">
<g id="Vector" filter="url(#filter0_d_138_686)">
<path d="M582.246 754.996C587.515 731.672 620.714 731.672 625.983 754.996L634.541 792.874C637.712 806.912 627.05 820.267 612.672 820.267H595.557C581.179 820.267 570.517 806.912 573.688 792.874L582.246 754.996Z" fill="#C63B3B"/>
<path d="M627.816 704.046C627.816 717.326 617.061 728.092 603.794 728.092C590.527 728.092 579.772 717.326 579.772 704.046C579.772 690.766 590.527 680 603.794 680C617.061 680 627.816 690.766 627.816 704.046Z" fill="#C63B3B"/>
<path d="M608.599 808.565C608.599 802.013 613.904 796.702 620.45 796.702C626.995 796.702 632.3 802.013 632.3 808.565V836.137C632.3 842.689 626.995 848 620.45 848C613.904 848 608.599 842.689 608.599 836.137V808.565Z" fill="#C63B3B"/>
<path d="M617.867 762.609C614.517 756.981 616.36 749.7 621.982 746.347C627.605 742.993 634.879 744.837 638.229 750.466L652.328 774.153C655.678 779.781 653.836 787.062 648.213 790.415C642.59 793.769 635.316 791.925 631.966 786.296L617.867 762.609Z" fill="#C63B3B"/>
<path d="M569.362 750.548C572.635 744.874 579.883 742.93 585.551 746.206C591.219 749.482 593.161 756.737 589.889 762.411L576.116 786.289C572.844 791.963 565.596 793.907 559.927 790.631C554.259 787.355 552.317 780.1 555.59 774.427L569.362 750.548Z" fill="#C63B3B"/>
<path d="M575.288 808.565C575.288 802.013 580.594 796.702 587.139 796.702C593.684 796.702 598.99 802.013 598.99 808.565V836.137C598.99 842.689 593.684 848 587.139 848C580.594 848 575.288 842.689 575.288 836.137V808.565Z" fill="#C63B3B"/>
</g>
<g id="Vector_2" filter="url(#filter1_d_138_686)">
<path d="M816.528 754.996C821.85 731.672 855.381 731.672 860.703 754.996L869.346 792.874C872.549 806.912 861.78 820.267 847.259 820.267H829.972C815.451 820.267 804.682 806.912 807.885 792.874L816.528 754.996Z" fill="#C63B3B"/>
<path d="M862.555 704.046C862.555 717.326 851.692 728.092 838.292 728.092C824.892 728.092 814.03 717.326 814.03 704.046C814.03 690.766 824.892 680 838.292 680C851.692 680 862.555 690.766 862.555 704.046Z" fill="#C63B3B"/>
<path d="M843.145 808.565C843.145 802.013 848.504 796.702 855.114 796.702C861.725 796.702 867.083 802.013 867.083 808.565V836.137C867.083 842.689 861.725 848 855.114 848C848.504 848 843.145 842.689 843.145 836.137V808.565Z" fill="#C63B3B"/>
<path d="M852.506 762.609C849.123 756.981 850.983 749.7 856.662 746.347C862.341 742.993 869.688 744.837 873.071 750.466L887.311 774.153C890.695 779.781 888.834 787.062 883.155 790.415C877.476 793.769 870.13 791.925 866.746 786.296L852.506 762.609Z" fill="#C63B3B"/>
<path d="M803.516 750.548C806.821 744.874 814.142 742.93 819.867 746.206C825.591 749.482 827.553 756.737 824.248 762.411L810.337 786.289C807.032 791.963 799.712 793.907 793.987 790.631C788.262 787.355 786.3 780.1 789.606 774.427L803.516 750.548Z" fill="#C63B3B"/>
<path d="M809.501 808.565C809.501 802.013 814.86 796.702 821.47 796.702C828.081 796.702 833.44 802.013 833.44 808.565V836.137C833.44 842.689 828.081 848 821.47 848C814.86 848 809.501 842.689 809.501 836.137V808.565Z" fill="#C63B3B"/>
</g>
<g id="Vector_3" filter="url(#filter2_d_138_686)">
<path d="M699.528 754.996C704.85 731.672 738.381 731.672 743.703 754.996L752.346 792.874C755.549 806.912 744.78 820.267 730.259 820.267H712.972C698.451 820.267 687.682 806.912 690.885 792.874L699.528 754.996Z" fill="#C63B3B"/>
<path d="M745.555 704.046C745.555 717.326 734.692 728.092 721.292 728.092C707.892 728.092 697.03 717.326 697.03 704.046C697.03 690.766 707.892 680 721.292 680C734.692 680 745.555 690.766 745.555 704.046Z" fill="#C63B3B"/>
<path d="M726.145 808.565C726.145 802.013 731.504 796.702 738.114 796.702C744.725 796.702 750.083 802.013 750.083 808.565V836.137C750.083 842.689 744.725 848 738.114 848C731.504 848 726.145 842.689 726.145 836.137V808.565Z" fill="#C63B3B"/>
<path d="M735.506 762.609C732.123 756.981 733.983 749.7 739.662 746.347C745.341 742.993 752.688 744.837 756.071 750.466L770.311 774.153C773.695 779.781 771.834 787.062 766.155 790.415C760.476 793.769 753.13 791.925 749.746 786.296L735.506 762.609Z" fill="#C63B3B"/>
<path d="M686.516 750.548C689.821 744.874 697.142 742.93 702.867 746.206C708.591 749.482 710.553 756.737 707.248 762.411L693.337 786.289C690.032 791.963 682.712 793.907 676.987 790.631C671.262 787.355 669.3 780.1 672.606 774.427L686.516 750.548Z" fill="#C63B3B"/>
<path d="M692.501 808.565C692.501 802.013 697.86 796.702 704.47 796.702C711.081 796.702 716.44 802.013 716.44 808.565V836.137C716.44 842.689 711.081 848 704.47 848C697.86 848 692.501 842.689 692.501 836.137V808.565Z" fill="#C63B3B"/>
</g>
<g id="Vector_4" filter="url(#filter3_d_138_686)">
<path d="M934.246 754.996C939.515 731.672 972.714 731.672 977.983 754.996L986.541 792.874C989.712 806.912 979.05 820.267 964.672 820.267H947.557C933.179 820.267 922.517 806.912 925.688 792.874L934.246 754.996Z" fill="#C63B3B"/>
<path d="M979.816 704.046C979.816 717.326 969.061 728.092 955.794 728.092C942.527 728.092 931.772 717.326 931.772 704.046C931.772 690.766 942.527 680 955.794 680C969.061 680 979.816 690.766 979.816 704.046Z" fill="#C63B3B"/>
<path d="M960.599 808.565C960.599 802.013 965.904 796.702 972.45 796.702C978.995 796.702 984.3 802.013 984.3 808.565V836.137C984.3 842.689 978.995 848 972.45 848C965.904 848 960.599 842.689 960.599 836.137V808.565Z" fill="#C63B3B"/>
<path d="M969.867 762.609C966.517 756.981 968.36 749.7 973.982 746.347C979.605 742.993 986.879 744.837 990.229 750.466L1004.33 774.153C1007.68 779.781 1005.84 787.062 1000.21 790.415C994.59 793.769 987.316 791.925 983.966 786.296L969.867 762.609Z" fill="#C63B3B"/>
<path d="M921.362 750.548C924.635 744.874 931.883 742.93 937.551 746.206C943.219 749.482 945.161 756.737 941.889 762.411L928.116 786.289C924.844 791.963 917.596 793.907 911.927 790.631C906.259 787.355 904.317 780.1 907.59 774.427L921.362 750.548Z" fill="#C63B3B"/>
<path d="M927.288 808.565C927.288 802.013 932.594 796.702 939.139 796.702C945.684 796.702 950.99 802.013 950.99 808.565V836.137C950.99 842.689 945.684 848 939.139 848C932.594 848 927.288 842.689 927.288 836.137V808.565Z" fill="#C63B3B"/>
</g>
<g id="Vector_5" filter="url(#filter4_d_138_686)">
<path d="M481.33 791.388C487.548 763.899 526.722 763.899 532.94 791.388L543.038 836.03C546.78 852.575 534.199 868.315 517.233 868.315H497.037C480.071 868.315 467.49 852.575 471.232 836.03L481.33 791.388Z" fill="#E06A6A"/>
<path d="M535.103 731.34C535.103 746.991 522.412 759.679 506.757 759.679C491.102 759.679 478.411 746.991 478.411 731.34C478.411 715.688 491.102 703 506.757 703C522.412 703 535.103 715.688 535.103 731.34Z" fill="#E06A6A"/>
<path d="M512.426 854.523C512.426 846.801 518.687 840.542 526.41 840.542C534.134 840.542 540.395 846.801 540.395 854.523V887.019C540.395 894.741 534.134 901 526.41 901C518.687 901 512.426 894.741 512.426 887.019V854.523Z" fill="#E06A6A"/>
<path d="M523.364 800.361C519.41 793.728 521.584 785.146 528.219 781.194C534.854 777.242 543.437 779.416 547.39 786.049L564.027 813.966C567.98 820.599 565.806 829.18 559.171 833.132C552.537 837.085 543.953 834.911 540 828.278L523.364 800.361Z" fill="#E06A6A"/>
<path d="M466.128 786.146C469.989 779.459 478.542 777.168 485.23 781.029C491.919 784.889 494.21 793.44 490.349 800.127L474.097 828.269C470.235 834.956 461.683 837.248 454.994 833.387C448.306 829.526 446.014 820.975 449.876 814.289L466.128 786.146Z" fill="#E06A6A"/>
<path d="M473.12 854.523C473.12 846.801 479.381 840.542 487.104 840.542C494.827 840.542 501.088 846.801 501.088 854.523V887.019C501.088 894.741 494.827 901 487.104 901C479.381 901 473.12 894.741 473.12 887.019V854.523Z" fill="#E06A6A"/>
</g>
<g id="Vector_6" filter="url(#filter5_d_138_686)">
<path d="M757.33 791.388C763.548 763.899 802.722 763.899 808.94 791.388L819.038 836.03C822.78 852.575 810.199 868.315 793.233 868.315H773.037C756.071 868.315 743.49 852.575 747.232 836.03L757.33 791.388Z" fill="#E06A6A"/>
<path d="M811.103 731.34C811.103 746.991 798.412 759.679 782.757 759.679C767.102 759.679 754.411 746.991 754.411 731.34C754.411 715.688 767.102 703 782.757 703C798.412 703 811.103 715.688 811.103 731.34Z" fill="#E06A6A"/>
<path d="M788.426 854.523C788.426 846.801 794.687 840.542 802.41 840.542C810.134 840.542 816.395 846.801 816.395 854.523V887.019C816.395 894.741 810.134 901 802.41 901C794.687 901 788.426 894.741 788.426 887.019V854.523Z" fill="#E06A6A"/>
<path d="M799.364 800.361C795.41 793.728 797.584 785.146 804.219 781.194C810.854 777.242 819.437 779.416 823.39 786.049L840.027 813.966C843.98 820.599 841.806 829.18 835.171 833.132C828.537 837.085 819.953 834.911 816 828.278L799.364 800.361Z" fill="#E06A6A"/>
<path d="M742.128 786.146C745.989 779.459 754.542 777.168 761.23 781.029C767.919 784.889 770.21 793.44 766.349 800.127L750.097 828.269C746.235 834.956 737.683 837.248 730.994 833.387C724.306 829.526 722.014 820.975 725.876 814.289L742.128 786.146Z" fill="#E06A6A"/>
<path d="M749.12 854.523C749.12 846.801 755.381 840.542 763.104 840.542C770.827 840.542 777.088 846.801 777.088 854.523V887.019C777.088 894.741 770.827 901 763.104 901C755.381 901 749.12 894.741 749.12 887.019V854.523Z" fill="#E06A6A"/>
</g>
<g id="Vector_7" filter="url(#filter6_d_138_686)">
<path d="M619.33 791.388C625.548 763.899 664.722 763.899 670.94 791.388L681.038 836.03C684.78 852.575 672.199 868.315 655.233 868.315H635.037C618.071 868.315 605.49 852.575 609.232 836.03L619.33 791.388Z" fill="#E06A6A"/>
<path d="M673.103 731.34C673.103 746.991 660.412 759.679 644.757 759.679C629.102 759.679 616.411 746.991 616.411 731.34C616.411 715.688 629.102 703 644.757 703C660.412 703 673.103 715.688 673.103 731.34Z" fill="#E06A6A"/>
<path d="M650.426 854.523C650.426 846.801 656.687 840.542 664.41 840.542C672.134 840.542 678.395 846.801 678.395 854.523V887.019C678.395 894.741 672.134 901 664.41 901C656.687 901 650.426 894.741 650.426 887.019V854.523Z" fill="#E06A6A"/>
<path d="M661.364 800.361C657.41 793.728 659.584 785.146 666.219 781.194C672.854 777.242 681.437 779.416 685.39 786.049L702.027 813.966C705.98 820.599 703.806 829.18 697.171 833.132C690.537 837.085 681.953 834.911 678 828.278L661.364 800.361Z" fill="#E06A6A"/>
<path d="M604.128 786.146C607.989 779.459 616.542 777.168 623.23 781.029C629.919 784.889 632.21 793.44 628.349 800.127L612.097 828.269C608.235 834.956 599.683 837.248 592.994 833.387C586.306 829.526 584.014 820.975 587.876 814.289L604.128 786.146Z" fill="#E06A6A"/>
<path d="M611.12 854.523C611.12 846.801 617.381 840.542 625.104 840.542C632.827 840.542 639.088 846.801 639.088 854.523V887.019C639.088 894.741 632.827 901 625.104 901C617.381 901 611.12 894.741 611.12 887.019V854.523Z" fill="#E06A6A"/>
</g>
<g id="Vector_8" filter="url(#filter7_d_138_686)">
<path d="M677.33 837.388C683.548 809.899 722.722 809.899 728.94 837.388L739.038 882.03C742.78 898.575 730.199 914.315 713.233 914.315H693.037C676.071 914.315 663.49 898.575 667.232 882.03L677.33 837.388Z" fill="#FB8D8D"/>
<path d="M731.103 777.34C731.103 792.991 718.412 805.679 702.757 805.679C687.102 805.679 674.411 792.991 674.411 777.34C674.411 761.688 687.102 749 702.757 749C718.412 749 731.103 761.688 731.103 777.34Z" fill="#FB8D8D"/>
<path d="M708.426 900.523C708.426 892.801 714.687 886.542 722.41 886.542C730.134 886.542 736.395 892.801 736.395 900.523V933.019C736.395 940.741 730.134 947 722.41 947C714.687 947 708.426 940.741 708.426 933.019V900.523Z" fill="#FB8D8D"/>
<path d="M719.364 846.361C715.41 839.728 717.584 831.146 724.219 827.194C730.854 823.242 739.437 825.416 743.39 832.049L760.027 859.966C763.98 866.599 761.806 875.18 755.171 879.132C748.537 883.085 739.953 880.911 736 874.278L719.364 846.361Z" fill="#FB8D8D"/>
<path d="M662.128 832.146C665.989 825.459 674.542 823.168 681.23 827.029C687.919 830.889 690.21 839.44 686.349 846.127L670.097 874.269C666.235 880.956 657.683 883.248 650.994 879.387C644.306 875.526 642.014 866.975 645.876 860.289L662.128 832.146Z" fill="#FB8D8D"/>
<path d="M669.12 900.523C669.12 892.801 675.381 886.542 683.104 886.542C690.827 886.542 697.088 892.801 697.088 900.523V933.019C697.088 940.741 690.827 947 683.104 947C675.381 947 669.12 940.741 669.12 933.019V900.523Z" fill="#FB8D8D"/>
</g>
<g id="Vector_9" filter="url(#filter8_d_138_686)">
<path d="M895.33 791.388C901.548 763.899 940.722 763.899 946.94 791.388L957.038 836.03C960.78 852.575 948.199 868.315 931.233 868.315H911.037C894.071 868.315 881.49 852.575 885.232 836.03L895.33 791.388Z" fill="#E06A6A"/>
<path d="M949.103 731.34C949.103 746.991 936.412 759.679 920.757 759.679C905.102 759.679 892.411 746.991 892.411 731.34C892.411 715.688 905.102 703 920.757 703C936.412 703 949.103 715.688 949.103 731.34Z" fill="#E06A6A"/>
<path d="M926.426 854.523C926.426 846.801 932.687 840.542 940.41 840.542C948.134 840.542 954.395 846.801 954.395 854.523V887.019C954.395 894.741 948.134 901 940.41 901C932.687 901 926.426 894.741 926.426 887.019V854.523Z" fill="#E06A6A"/>
<path d="M937.364 800.361C933.41 793.728 935.584 785.146 942.219 781.194C948.854 777.242 957.437 779.416 961.39 786.049L978.027 813.966C981.98 820.599 979.806 829.18 973.171 833.132C966.537 837.085 957.953 834.911 954 828.278L937.364 800.361Z" fill="#E06A6A"/>
<path d="M880.128 786.146C883.989 779.459 892.542 777.168 899.23 781.029C905.919 784.889 908.21 793.44 904.349 800.127L888.097 828.269C884.235 834.956 875.683 837.248 868.994 833.387C862.306 829.526 860.014 820.975 863.876 814.289L880.128 786.146Z" fill="#E06A6A"/>
<path d="M887.12 854.523C887.12 846.801 893.381 840.542 901.104 840.542C908.827 840.542 915.088 846.801 915.088 854.523V887.019C915.088 894.741 908.827 901 901.104 901C893.381 901 887.12 894.741 887.12 887.019V854.523Z" fill="#E06A6A"/>
</g>
<g id="Vector_10" filter="url(#filter9_d_138_686)">
<path d="M953.33 837.388C959.548 809.899 998.722 809.899 1004.94 837.388L1015.04 882.03C1018.78 898.575 1006.2 914.315 989.233 914.315H969.037C952.071 914.315 939.49 898.575 943.232 882.03L953.33 837.388Z" fill="#FB8D8D"/>
<path d="M1007.1 777.34C1007.1 792.991 994.412 805.679 978.757 805.679C963.102 805.679 950.411 792.991 950.411 777.34C950.411 761.688 963.102 749 978.757 749C994.412 749 1007.1 761.688 1007.1 777.34Z" fill="#FB8D8D"/>
<path d="M984.426 900.523C984.426 892.801 990.687 886.542 998.41 886.542C1006.13 886.542 1012.39 892.801 1012.39 900.523V933.019C1012.39 940.741 1006.13 947 998.41 947C990.687 947 984.426 940.741 984.426 933.019V900.523Z" fill="#FB8D8D"/>
<path d="M995.364 846.361C991.41 839.728 993.584 831.146 1000.22 827.194C1006.85 823.242 1015.44 825.416 1019.39 832.049L1036.03 859.966C1039.98 866.599 1037.81 875.18 1031.17 879.132C1024.54 883.085 1015.95 880.911 1012 874.278L995.364 846.361Z" fill="#FB8D8D"/>
<path d="M938.128 832.146C941.989 825.459 950.542 823.168 957.23 827.029C963.919 830.889 966.21 839.44 962.349 846.127L946.097 874.269C942.235 880.956 933.683 883.248 926.994 879.387C920.306 875.526 918.014 866.975 921.876 860.289L938.128 832.146Z" fill="#FB8D8D"/>
<path d="M945.12 900.523C945.12 892.801 951.381 886.542 959.104 886.542C966.827 886.542 973.088 892.801 973.088 900.523V933.019C973.088 940.741 966.827 947 959.104 947C951.381 947 945.12 940.741 945.12 933.019V900.523Z" fill="#FB8D8D"/>
</g>
<g id="Vector_11" filter="url(#filter10_d_138_686)">
<path d="M539.33 837.388C545.548 809.899 584.722 809.899 590.94 837.388L601.038 882.03C604.78 898.575 592.199 914.315 575.233 914.315H555.037C538.071 914.315 525.49 898.575 529.232 882.03L539.33 837.388Z" fill="#FB8D8D"/>
<path d="M593.103 777.34C593.103 792.991 580.412 805.679 564.757 805.679C549.102 805.679 536.411 792.991 536.411 777.34C536.411 761.688 549.102 749 564.757 749C580.412 749 593.103 761.688 593.103 777.34Z" fill="#FB8D8D"/>
<path d="M570.426 900.523C570.426 892.801 576.687 886.542 584.41 886.542C592.134 886.542 598.395 892.801 598.395 900.523V933.019C598.395 940.741 592.134 947 584.41 947C576.687 947 570.426 940.741 570.426 933.019V900.523Z" fill="#FB8D8D"/>
<path d="M581.364 846.361C577.41 839.728 579.584 831.146 586.219 827.194C592.854 823.242 601.437 825.416 605.39 832.049L622.027 859.966C625.98 866.599 623.806 875.18 617.171 879.132C610.537 883.085 601.953 880.911 598 874.278L581.364 846.361Z" fill="#FB8D8D"/>
<path d="M524.128 832.146C527.989 825.459 536.542 823.168 543.23 827.029C549.919 830.889 552.21 839.44 548.349 846.127L532.097 874.269C528.235 880.956 519.683 883.248 512.994 879.387C506.306 875.526 504.014 866.975 507.876 860.289L524.128 832.146Z" fill="#FB8D8D"/>
<path d="M531.12 900.523C531.12 892.801 537.381 886.542 545.104 886.542C552.827 886.542 559.088 892.801 559.088 900.523V933.019C559.088 940.741 552.827 947 545.104 947C537.381 947 531.12 940.741 531.12 933.019V900.523Z" fill="#FB8D8D"/>
</g>
<g id="Vector_12" filter="url(#filter11_d_138_686)">
<path d="M815.33 837.388C821.548 809.899 860.722 809.899 866.94 837.388L877.038 882.03C880.78 898.575 868.199 914.315 851.233 914.315H831.037C814.071 914.315 801.49 898.575 805.232 882.03L815.33 837.388Z" fill="#FB8D8D"/>
<path d="M869.103 777.34C869.103 792.991 856.412 805.679 840.757 805.679C825.102 805.679 812.411 792.991 812.411 777.34C812.411 761.688 825.102 749 840.757 749C856.412 749 869.103 761.688 869.103 777.34Z" fill="#FB8D8D"/>
<path d="M846.426 900.523C846.426 892.801 852.687 886.542 860.41 886.542C868.134 886.542 874.395 892.801 874.395 900.523V933.019C874.395 940.741 868.134 947 860.41 947C852.687 947 846.426 940.741 846.426 933.019V900.523Z" fill="#FB8D8D"/>
<path d="M857.364 846.361C853.41 839.728 855.584 831.146 862.219 827.194C868.854 823.242 877.437 825.416 881.39 832.049L898.027 859.966C901.98 866.599 899.806 875.18 893.171 879.132C886.537 883.085 877.953 880.911 874 874.278L857.364 846.361Z" fill="#FB8D8D"/>
<path d="M800.128 832.146C803.989 825.459 812.542 823.168 819.23 827.029C825.919 830.889 828.21 839.44 824.349 846.127L808.097 874.269C804.235 880.956 795.683 883.248 788.994 879.387C782.306 875.526 780.014 866.975 783.876 860.289L800.128 832.146Z" fill="#FB8D8D"/>
<path d="M807.12 900.523C807.12 892.801 813.381 886.542 821.104 886.542C828.827 886.542 835.088 892.801 835.088 900.523V933.019C835.088 940.741 828.827 947 821.104 947C813.381 947 807.12 940.741 807.12 933.019V900.523Z" fill="#FB8D8D"/>
</g>
</g>
</g>
<defs>
<filter id="filter0_d_138_686" x="550" y="680" width="108" height="176" filterUnits="userSpaceOnUse" color-interpolation-filters="sRGB">
<feFlood flood-opacity="0" result="BackgroundImageFix"/>
<feColorMatrix in="SourceAlpha" type="matrix" values="0 0 0 0 0 0 0 0 0 0 0 0 0 0 0 0 0 0 127 0" result="hardAlpha"/>
<feOffset dy="4"/>
<feGaussianBlur stdDeviation="2"/>
<feComposite in2="hardAlpha" operator="out"/>
<feColorMatrix type="matrix" values="0 0 0 0 0 0 0 0 0 0 0 0 0 0 0 0 0 0 0.25 0"/>
<feBlend mode="normal" in2="BackgroundImageFix" result="effect1_dropShadow_138_686"/>
<feBlend mode="normal" in="SourceGraphic" in2="effect1_dropShadow_138_686" result="shape"/>
</filter>
<filter id="filter1_d_138_686" x="784" y="680" width="109" height="176" filterUnits="userSpaceOnUse" color-interpolation-filters="sRGB">
<feFlood flood-opacity="0" result="BackgroundImageFix"/>
<feColorMatrix in="SourceAlpha" type="matrix" values="0 0 0 0 0 0 0 0 0 0 0 0 0 0 0 0 0 0 127 0" result="hardAlpha"/>
<feOffset dy="4"/>
<feGaussianBlur stdDeviation="2"/>
<feComposite in2="hardAlpha" operator="out"/>
<feColorMatrix type="matrix" values="0 0 0 0 0 0 0 0 0 0 0 0 0 0 0 0 0 0 0.25 0"/>
<feBlend mode="normal" in2="BackgroundImageFix" result="effect1_dropShadow_138_686"/>
<feBlend mode="normal" in="SourceGraphic" in2="effect1_dropShadow_138_686" result="shape"/>
</filter>
<filter id="filter2_d_138_686" x="667" y="680" width="109" height="176" filterUnits="userSpaceOnUse" color-interpolation-filters="sRGB">
<feFlood flood-opacity="0" result="BackgroundImageFix"/>
<feColorMatrix in="SourceAlpha" type="matrix" values="0 0 0 0 0 0 0 0 0 0 0 0 0 0 0 0 0 0 127 0" result="hardAlpha"/>
<feOffset dy="4"/>
<feGaussianBlur stdDeviation="2"/>
<feComposite in2="hardAlpha" operator="out"/>
<feColorMatrix type="matrix" values="0 0 0 0 0 0 0 0 0 0 0 0 0 0 0 0 0 0 0.25 0"/>
<feBlend mode="normal" in2="BackgroundImageFix" result="effect1_dropShadow_138_686"/>
<feBlend mode="normal" in="SourceGraphic" in2="effect1_dropShadow_138_686" result="shape"/>
</filter>
<filter id="filter3_d_138_686" x="902" y="680" width="108" height="176" filterUnits="userSpaceOnUse" color-interpolation-filters="sRGB">
<feFlood flood-opacity="0" result="BackgroundImageFix"/>
<feColorMatrix in="SourceAlpha" type="matrix" values="0 0 0 0 0 0 0 0 0 0 0 0 0 0 0 0 0 0 127 0" result="hardAlpha"/>
<feOffset dy="4"/>
<feGaussianBlur stdDeviation="2"/>
<feComposite in2="hardAlpha" operator="out"/>
<feColorMatrix type="matrix" values="0 0 0 0 0 0 0 0 0 0 0 0 0 0 0 0 0 0 0.25 0"/>
<feBlend mode="normal" in2="BackgroundImageFix" result="effect1_dropShadow_138_686"/>
<feBlend mode="normal" in="SourceGraphic" in2="effect1_dropShadow_138_686" result="shape"/>
</filter>
<filter id="filter4_d_138_686" x="444" y="703" width="126" height="206" filterUnits="userSpaceOnUse" color-interpolation-filters="sRGB">
<feFlood flood-opacity="0" result="BackgroundImageFix"/>
<feColorMatrix in="SourceAlpha" type="matrix" values="0 0 0 0 0 0 0 0 0 0 0 0 0 0 0 0 0 0 127 0" result="hardAlpha"/>
<feOffset dy="4"/>
<feGaussianBlur stdDeviation="2"/>
<feComposite in2="hardAlpha" operator="out"/>
<feColorMatrix type="matrix" values="0 0 0 0 0 0 0 0 0 0 0 0 0 0 0 0 0 0 0.25 0"/>
<feBlend mode="normal" in2="BackgroundImageFix" result="effect1_dropShadow_138_686"/>
<feBlend mode="normal" in="SourceGraphic" in2="effect1_dropShadow_138_686" result="shape"/>
</filter>
<filter id="filter5_d_138_686" x="720" y="703" width="126" height="206" filterUnits="userSpaceOnUse" color-interpolation-filters="sRGB">
<feFlood flood-opacity="0" result="BackgroundImageFix"/>
<feColorMatrix in="SourceAlpha" type="matrix" values="0 0 0 0 0 0 0 0 0 0 0 0 0 0 0 0 0 0 127 0" result="hardAlpha"/>
<feOffset dy="4"/>
<feGaussianBlur stdDeviation="2"/>
<feComposite in2="hardAlpha" operator="out"/>
<feColorMatrix type="matrix" values="0 0 0 0 0 0 0 0 0 0 0 0 0 0 0 0 0 0 0.25 0"/>
<feBlend mode="normal" in2="BackgroundImageFix" result="effect1_dropShadow_138_686"/>
<feBlend mode="normal" in="SourceGraphic" in2="effect1_dropShadow_138_686" result="shape"/>
</filter>
<filter id="filter6_d_138_686" x="582" y="703" width="126" height="206" filterUnits="userSpaceOnUse" color-interpolation-filters="sRGB">
<feFlood flood-opacity="0" result="BackgroundImageFix"/>
<feColorMatrix in="SourceAlpha" type="matrix" values="0 0 0 0 0 0 0 0 0 0 0 0 0 0 0 0 0 0 127 0" result="hardAlpha"/>
<feOffset dy="4"/>
<feGaussianBlur stdDeviation="2"/>
<feComposite in2="hardAlpha" operator="out"/>
<feColorMatrix type="matrix" values="0 0 0 0 0 0 0 0 0 0 0 0 0 0 0 0 0 0 0.25 0"/>
<feBlend mode="normal" in2="BackgroundImageFix" result="effect1_dropShadow_138_686"/>
<feBlend mode="normal" in="SourceGraphic" in2="effect1_dropShadow_138_686" result="shape"/>
</filter>
<filter id="filter7_d_138_686" x="640" y="749" width="126" height="206" filterUnits="userSpaceOnUse" color-interpolation-filters="sRGB">
<feFlood flood-opacity="0" result="BackgroundImageFix"/>
<feColorMatrix in="SourceAlpha" type="matrix" values="0 0 0 0 0 0 0 0 0 0 0 0 0 0 0 0 0 0 127 0" result="hardAlpha"/>
<feOffset dy="4"/>
<feGaussianBlur stdDeviation="2"/>
<feComposite in2="hardAlpha" operator="out"/>
<feColorMatrix type="matrix" values="0 0 0 0 0 0 0 0 0 0 0 0 0 0 0 0 0 0 0.25 0"/>
<feBlend mode="normal" in2="BackgroundImageFix" result="effect1_dropShadow_138_686"/>
<feBlend mode="normal" in="SourceGraphic" in2="effect1_dropShadow_138_686" result="shape"/>
</filter>
<filter id="filter8_d_138_686" x="858" y="703" width="126" height="206" filterUnits="userSpaceOnUse" color-interpolation-filters="sRGB">
<feFlood flood-opacity="0" result="BackgroundImageFix"/>
<feColorMatrix in="SourceAlpha" type="matrix" values="0 0 0 0 0 0 0 0 0 0 0 0 0 0 0 0 0 0 127 0" result="hardAlpha"/>
<feOffset dy="4"/>
<feGaussianBlur stdDeviation="2"/>
<feComposite in2="hardAlpha" operator="out"/>
<feColorMatrix type="matrix" values="0 0 0 0 0 0 0 0 0 0 0 0 0 0 0 0 0 0 0.25 0"/>
<feBlend mode="normal" in2="BackgroundImageFix" result="effect1_dropShadow_138_686"/>
<feBlend mode="normal" in="SourceGraphic" in2="effect1_dropShadow_138_686" result="shape"/>
</filter>
<filter id="filter9_d_138_686" x="916" y="749" width="126" height="206" filterUnits="userSpaceOnUse" color-interpolation-filters="sRGB">
<feFlood flood-opacity="0" result="BackgroundImageFix"/>
<feColorMatrix in="SourceAlpha" type="matrix" values="0 0 0 0 0 0 0 0 0 0 0 0 0 0 0 0 0 0 127 0" result="hardAlpha"/>
<feOffset dy="4"/>
<feGaussianBlur stdDeviation="2"/>
<feComposite in2="hardAlpha" operator="out"/>
<feColorMatrix type="matrix" values="0 0 0 0 0 0 0 0 0 0 0 0 0 0 0 0 0 0 0.25 0"/>
<feBlend mode="normal" in2="BackgroundImageFix" result="effect1_dropShadow_138_686"/>
<feBlend mode="normal" in="SourceGraphic" in2="effect1_dropShadow_138_686" result="shape"/>
</filter>
<filter id="filter10_d_138_686" x="502" y="749" width="126" height="206" filterUnits="userSpaceOnUse" color-interpolation-filters="sRGB">
<feFlood flood-opacity="0" result="BackgroundImageFix"/>
<feColorMatrix in="SourceAlpha" type="matrix" values="0 0 0 0 0 0 0 0 0 0 0 0 0 0 0 0 0 0 127 0" result="hardAlpha"/>
<feOffset dy="4"/>
<feGaussianBlur stdDeviation="2"/>
<feComposite in2="hardAlpha" operator="out"/>
<feColorMatrix type="matrix" values="0 0 0 0 0 0 0 0 0 0 0 0 0 0 0 0 0 0 0.25 0"/>
<feBlend mode="normal" in2="BackgroundImageFix" result="effect1_dropShadow_138_686"/>
<feBlend mode="normal" in="SourceGraphic" in2="effect1_dropShadow_138_686" result="shape"/>
</filter>
<filter id="filter11_d_138_686" x="778" y="749" width="126" height="206" filterUnits="userSpaceOnUse" color-interpolation-filters="sRGB">
<feFlood flood-opacity="0" result="BackgroundImageFix"/>
<feColorMatrix in="SourceAlpha" type="matrix" values="0 0 0 0 0 0 0 0 0 0 0 0 0 0 0 0 0 0 127 0" result="hardAlpha"/>
<feOffset dy="4"/>
<feGaussianBlur stdDeviation="2"/>
<feComposite in2="hardAlpha" operator="out"/>
<feColorMatrix type="matrix" values="0 0 0 0 0 0 0 0 0 0 0 0 0 0 0 0 0 0 0.25 0"/>
<feBlend mode="normal" in2="BackgroundImageFix" result="effect1_dropShadow_138_686"/>
<feBlend mode="normal" in="SourceGraphic" in2="effect1_dropShadow_138_686" result="shape"/>
</filter>
<clipPath id="clip0_138_686">
<rect width="1440" height="1024" fill="white"/>
</clipPath>
</defs>
</svg>
