<svg width="1440" height="1024" viewBox="0 0 1440 1024" fill="none" xmlns="http://www.w3.org/2000/svg">
<g id="trick6-yes-end" clip-path="url(#clip0_138_965)">
<rect width="1440" height="1024" fill="#333148"/>
<rect id="Rectangle 27" width="1440" height="1024" fill="#211F2F"/>
<path id="part 5" d="M47.096 132.12V60.024H61.688L62.264 71.448L59.384 70.584C59.832 68.536 61.048 66.648 63.032 64.92C65.016 63.192 67.512 61.784 70.52 60.696C73.592 59.608 76.856 59.064 80.312 59.064C85.304 59.064 89.688 60.216 93.464 62.52C97.24 64.76 100.184 67.864 102.296 71.832C104.472 75.736 105.56 80.28 105.56 85.464C105.56 90.584 104.472 95.128 102.296 99.096C100.184 103.064 97.208 106.2 93.368 108.504C89.528 110.744 85.112 111.864 80.12 111.864C76.664 111.864 73.432 111.288 70.424 110.136C67.416 108.984 64.888 107.48 62.84 105.624C60.856 103.768 59.576 101.816 59 99.768L62.552 98.424V132.12H47.096ZM76.376 98.904C79.256 98.904 81.752 98.36 83.864 97.272C85.976 96.12 87.608 94.552 88.76 92.568C89.976 90.584 90.584 88.216 90.584 85.464C90.584 82.776 89.976 80.44 88.76 78.456C87.608 76.408 85.976 74.84 83.864 73.752C81.816 72.6 79.32 72.024 76.376 72.024C73.496 72.024 70.968 72.568 68.792 73.656C66.68 74.744 65.016 76.312 63.8 78.36C62.648 80.408 62.072 82.776 62.072 85.464C62.072 88.216 62.648 90.584 63.8 92.568C65.016 94.552 66.68 96.12 68.792 97.272C70.968 98.36 73.496 98.904 76.376 98.904ZM144.211 111.864C139.155 111.864 134.739 110.744 130.963 108.504C127.187 106.264 124.211 103.16 122.035 99.192C119.923 95.16 118.867 90.584 118.867 85.464C118.867 80.28 119.955 75.704 122.131 71.736C124.307 67.768 127.315 64.664 131.155 62.424C135.059 60.12 139.539 58.968 144.595 58.968C147.475 58.968 150.131 59.352 152.563 60.12C154.995 60.824 157.107 61.816 158.899 63.096C160.755 64.376 162.259 65.784 163.411 67.32C164.627 68.856 165.427 70.456 165.811 72.12H162.451V60.024H177.619V111H162.163V97.944L165.427 98.424C165.043 100.088 164.243 101.72 163.027 103.32C161.811 104.92 160.243 106.36 158.323 107.64C156.403 108.92 154.227 109.944 151.795 110.712C149.427 111.48 146.899 111.864 144.211 111.864ZM148.339 98.904C151.219 98.904 153.715 98.36 155.827 97.272C158.003 96.184 159.667 94.648 160.819 92.664C162.035 90.616 162.643 88.216 162.643 85.464C162.643 82.776 162.035 80.44 160.819 78.456C159.667 76.408 158.003 74.808 155.827 73.656C153.715 72.504 151.219 71.928 148.339 71.928C145.459 71.928 142.963 72.504 140.851 73.656C138.739 74.808 137.075 76.408 135.859 78.456C134.707 80.44 134.131 82.776 134.131 85.464C134.131 88.216 134.707 90.616 135.859 92.664C137.075 94.648 138.739 96.184 140.851 97.272C142.963 98.36 145.459 98.904 148.339 98.904ZM201.315 111V60.024H215.907L216.579 77.592L212.931 75.768C213.763 72.632 215.203 69.816 217.251 67.32C219.363 64.76 221.763 62.744 224.451 61.272C227.203 59.736 230.115 58.968 233.187 58.968C234.851 58.968 236.419 59.128 237.891 59.448C239.427 59.768 240.739 60.184 241.827 60.696L237.603 77.496C236.643 76.792 235.331 76.248 233.667 75.864C232.067 75.48 230.435 75.288 228.771 75.288C226.915 75.288 225.219 75.608 223.683 76.248C222.211 76.824 220.963 77.656 219.939 78.744C218.915 79.768 218.115 80.952 217.539 82.296C217.027 83.64 216.771 85.08 216.771 86.616V111H201.315ZM265.932 111V46.008H281.292V111H265.932ZM254.604 73.464V60.024H294.252V73.464H254.604ZM370.984 111.672C365.736 111.672 360.904 110.648 356.488 108.6C352.072 106.552 348.392 103.768 345.448 100.248L354.088 90.168C356.712 92.792 359.368 94.744 362.056 96.024C364.744 97.24 367.56 97.848 370.504 97.848C372.936 97.848 375.048 97.432 376.84 96.6C378.696 95.704 380.136 94.488 381.16 92.952C382.248 91.416 382.792 89.688 382.792 87.768C382.792 85.784 382.248 84.056 381.16 82.584C380.136 81.048 378.696 79.832 376.84 78.936C375.048 78.04 372.968 77.592 370.6 77.592C368.552 77.592 366.664 77.784 364.936 78.168C363.208 78.552 361.608 79.064 360.136 79.704C358.664 80.344 357.192 81.08 355.72 81.912L348.808 72.888L352.936 43.224H393.064V56.952H360.712L364.936 51.576L361.768 72.888L356.008 70.968C357.288 69.88 358.888 68.92 360.808 68.088C362.728 67.256 364.808 66.584 367.048 66.072C369.352 65.496 371.624 65.208 373.864 65.208C378.344 65.208 382.376 66.168 385.96 68.088C389.544 70.008 392.392 72.696 394.504 76.152C396.68 79.608 397.768 83.608 397.768 88.152C397.768 92.568 396.584 96.568 394.216 100.152C391.848 103.672 388.648 106.488 384.616 108.6C380.648 110.648 376.104 111.672 370.984 111.672Z" fill="white"/>
<rect id="Rectangle 26" x="1145.8" y="88.6914" width="97.6614" height="148.723" rx="25" transform="rotate(28.9671 1145.8 88.6914)" fill="#6A94E0"/>
<path id="Polygon 2" d="M1076.69 167.285C1087.94 159.449 1102.29 171.689 1095.92 183.684L1086.73 200.992C1082.81 208.389 1072.86 210.254 1066.46 204.794L1059.42 198.794C1053.02 193.334 1053.53 183.426 1060.47 178.593L1076.69 167.285Z" fill="#3E5068"/>
<path id="Polygon 3" d="M1202.22 236.774C1202.89 223.083 1184.9 217.418 1178.12 229.184L1168.33 246.161C1164.15 253.417 1167.85 262.835 1175.87 265.362L1184.69 268.139C1192.72 270.666 1200.84 264.972 1201.26 256.528L1202.22 236.774Z" fill="#3E5068"/>
<path id="Polygon 5" d="M1139.76 228.567C1143.35 215.427 1126.88 206.31 1117.65 216.332L1104.15 230.995C1098.45 237.192 1100.05 247.095 1107.42 251.174L1115.66 255.737C1123.03 259.817 1132.28 255.918 1134.5 247.793L1139.76 228.567Z" fill="#3E5068"/>
<path id="Polygon 4" d="M1201.29 67.6664C1209.25 64.0072 1218.48 69.116 1219.61 77.8075L1226.56 131.398C1227.93 141.968 1216.69 149.606 1207.37 144.443L1151.31 113.415C1141.99 108.253 1142.5 94.6789 1152.18 90.2287L1201.29 67.6664Z" fill="#3E5068"/>
<path id="Vector 18" d="M409.688 1157.04C364.021 1043.54 213.688 785.336 -22.3118 660.536C-258.312 535.736 -176.312 1010.2 -105.812 1263.04L409.688 1157.04Z" fill="#3B5EC6"/>
<path id="Vector 19" d="M186.5 1052C186.5 1052 171 894 128 922C85 950 54.5 992 54.5 992C54.5 992 79 922 54.5 908.5C30 895 -56.5 960.5 -56.5 960.5L-81.5 741C-81.5 741 14.5 796 44.5 760.5C74.5 725 -56.5 640 -56.5 640L-231 861.5L11.5 1178.5L347.5 1118C347.5 1118 333 1027.5 289.5 1007.5C246 987.5 231 1073.5 231 1073.5L186.5 1052Z" fill="#83C63B"/>
<path id="You won!" d="M445.662 569V536.84L446.814 542.696L416.094 501.8H435.39L458.334 533.192L449.982 533L471.39 501.8H489.726L461.022 542.216L462.078 536.072V569H445.662ZM521.648 569.96C515.696 569.96 510.416 568.808 505.808 566.504C501.2 564.2 497.584 561.064 494.96 557.096C492.336 553.128 491.024 548.584 491.024 543.464C491.024 538.344 492.336 533.8 494.96 529.832C497.584 525.864 501.2 522.728 505.808 520.424C510.416 518.12 515.696 516.968 521.648 516.968C527.536 516.968 532.752 518.12 537.296 520.424C541.904 522.728 545.52 525.864 548.144 529.832C550.768 533.8 552.08 538.344 552.08 543.464C552.08 548.584 550.768 553.128 548.144 557.096C545.52 561.064 541.904 564.2 537.296 566.504C532.752 568.808 527.536 569.96 521.648 569.96ZM521.648 556.712C524.4 556.712 526.896 556.136 529.136 554.984C531.44 553.832 533.232 552.264 534.512 550.28C535.856 548.296 536.496 546.024 536.432 543.464C536.496 540.904 535.856 538.6 534.512 536.552C533.232 534.504 531.44 532.936 529.136 531.848C526.896 530.696 524.4 530.12 521.648 530.12C518.832 530.12 516.24 530.696 513.872 531.848C511.568 533 509.776 534.568 508.496 536.552C507.216 538.536 506.576 540.84 506.576 543.464C506.576 546.024 507.216 548.296 508.496 550.28C509.776 552.264 511.568 553.832 513.872 554.984C516.24 556.136 518.832 556.712 521.648 556.712ZM590.12 570.056C586.024 570.056 582.472 569.16 579.464 567.368C576.52 565.576 574.248 562.984 572.648 559.592C571.048 556.136 570.248 552.008 570.248 547.208V518.024H585.608V544.712C585.608 547.336 585.96 549.544 586.664 551.336C587.432 553.128 588.616 554.504 590.216 555.464C591.816 556.36 593.768 556.808 596.072 556.808C597.736 556.808 599.272 556.552 600.68 556.04C602.088 555.464 603.336 554.696 604.424 553.736C605.512 552.712 606.344 551.56 606.92 550.28C607.56 548.936 607.88 547.432 607.88 545.768V518.024H623.24V569H608.84L608.168 558.536L610.952 557.384C610.248 559.624 608.904 561.704 606.92 563.624C604.936 565.544 602.504 567.112 599.624 568.328C596.808 569.48 593.64 570.056 590.12 570.056ZM695.656 569L677.896 518.024H694.12L704.2 551.624L702.184 551.432L713.704 524.84H723.592L735.88 551.432L733.864 551.624L743.944 518.024H760.264L741.928 569H730.312L717.064 538.28L720.616 538.184L707.176 569H695.656ZM799.71 569.96C793.758 569.96 788.478 568.808 783.87 566.504C779.262 564.2 775.646 561.064 773.022 557.096C770.398 553.128 769.086 548.584 769.086 543.464C769.086 538.344 770.398 533.8 773.022 529.832C775.646 525.864 779.262 522.728 783.87 520.424C788.478 518.12 793.758 516.968 799.71 516.968C805.598 516.968 810.814 518.12 815.358 520.424C819.966 522.728 823.582 525.864 826.206 529.832C828.83 533.8 830.142 538.344 830.142 543.464C830.142 548.584 828.83 553.128 826.206 557.096C823.582 561.064 819.966 564.2 815.358 566.504C810.814 568.808 805.598 569.96 799.71 569.96ZM799.71 556.712C802.462 556.712 804.958 556.136 807.198 554.984C809.502 553.832 811.294 552.264 812.574 550.28C813.918 548.296 814.558 546.024 814.494 543.464C814.558 540.904 813.918 538.6 812.574 536.552C811.294 534.504 809.502 532.936 807.198 531.848C804.958 530.696 802.462 530.12 799.71 530.12C796.894 530.12 794.302 530.696 791.934 531.848C789.63 533 787.838 534.568 786.558 536.552C785.278 538.536 784.638 540.84 784.638 543.464C784.638 546.024 785.278 548.296 786.558 550.28C787.838 552.264 789.63 553.832 791.934 554.984C794.302 556.136 796.894 556.712 799.71 556.712ZM849.174 569V518.024H863.766L864.246 529.928L860.598 530.984C861.43 528.488 862.838 526.184 864.822 524.072C866.87 521.96 869.334 520.264 872.214 518.984C875.158 517.64 878.326 516.968 881.718 516.968C886.07 516.968 889.75 517.832 892.758 519.56C895.766 521.288 898.038 523.752 899.574 526.952C901.11 530.088 901.878 533.832 901.878 538.184V569H886.422V540.392C886.422 538.152 886.006 536.264 885.174 534.728C884.406 533.192 883.222 532.008 881.622 531.176C880.086 530.344 878.294 529.928 876.246 529.928C874.454 529.928 872.822 530.248 871.35 530.888C869.942 531.464 868.726 532.264 867.702 533.288C866.678 534.248 865.878 535.336 865.302 536.552C864.79 537.768 864.534 539.016 864.534 540.296V569H856.95C854.838 569 853.142 569 851.862 569C850.582 569 849.686 569 849.174 569ZM929.329 544.52C928.625 540.808 927.921 536.904 927.217 532.808C926.577 528.712 926.033 524.584 925.585 520.424C925.137 516.2 924.913 512.136 924.913 508.232V500.744H943.441V508.232C943.441 512.136 943.217 516.2 942.769 520.424C942.385 524.584 941.841 528.712 941.137 532.808C940.497 536.904 939.761 540.808 938.929 544.52H929.329ZM934.225 570.056C931.089 570.056 928.689 569.32 927.025 567.848C925.361 566.312 924.529 564.2 924.529 561.512C924.529 559.08 925.361 557.032 927.025 555.368C928.753 553.704 931.153 552.872 934.225 552.872C937.361 552.872 939.729 553.64 941.329 555.176C942.993 556.712 943.825 558.824 943.825 561.512C943.825 563.88 942.961 565.896 941.233 567.56C939.569 569.224 937.233 570.056 934.225 570.056Z" fill="white"/>
<path id="you got rid of the deniers!" d="M414.584 622.52L417.92 615.68L417.848 617.624L411.08 604.256H415.472L418.568 610.88C418.792 611.328 419 611.784 419.192 612.248C419.384 612.696 419.536 613.144 419.648 613.592L418.928 613.784C419.072 613.432 419.24 613.016 419.432 612.536C419.624 612.056 419.824 611.568 420.032 611.072L422.888 604.256H427.28L421.04 617.048L418.472 622.52H414.584ZM437.525 617.24C436.037 617.24 434.717 616.952 433.565 616.376C432.413 615.8 431.509 615.016 430.853 614.024C430.197 613.032 429.869 611.896 429.869 610.616C429.869 609.336 430.197 608.2 430.853 607.208C431.509 606.216 432.413 605.432 433.565 604.856C434.717 604.28 436.037 603.992 437.525 603.992C438.997 603.992 440.301 604.28 441.437 604.856C442.589 605.432 443.493 606.216 444.149 607.208C444.805 608.2 445.133 609.336 445.133 610.616C445.133 611.896 444.805 613.032 444.149 614.024C443.493 615.016 442.589 615.8 441.437 616.376C440.301 616.952 438.997 617.24 437.525 617.24ZM437.525 613.928C438.213 613.928 438.837 613.784 439.397 613.496C439.973 613.208 440.421 612.816 440.741 612.32C441.077 611.824 441.237 611.256 441.221 610.616C441.237 609.976 441.077 609.4 440.741 608.888C440.421 608.376 439.973 607.984 439.397 607.712C438.837 607.424 438.213 607.28 437.525 607.28C436.821 607.28 436.173 607.424 435.581 607.712C435.005 608 434.557 608.392 434.237 608.888C433.917 609.384 433.757 609.96 433.757 610.616C433.757 611.256 433.917 611.824 434.237 612.32C434.557 612.816 435.005 613.208 435.581 613.496C436.173 613.784 436.821 613.928 437.525 613.928ZM454.643 617.264C453.619 617.264 452.731 617.04 451.979 616.592C451.243 616.144 450.675 615.496 450.275 614.648C449.875 613.784 449.675 612.752 449.675 611.552V604.256H453.515V610.928C453.515 611.584 453.603 612.136 453.779 612.584C453.971 613.032 454.267 613.376 454.667 613.616C455.067 613.84 455.555 613.952 456.131 613.952C456.547 613.952 456.931 613.888 457.283 613.76C457.635 613.616 457.947 613.424 458.219 613.184C458.491 612.928 458.699 612.64 458.843 612.32C459.003 611.984 459.083 611.608 459.083 611.192V604.256H462.923V617H459.323L459.155 614.384L459.851 614.096C459.675 614.656 459.339 615.176 458.843 615.656C458.347 616.136 457.739 616.528 457.019 616.832C456.315 617.12 455.523 617.264 454.643 617.264ZM484.963 622.52C483.699 622.52 482.523 622.36 481.435 622.04C480.363 621.736 479.483 621.352 478.795 620.888L480.115 618.152C480.467 618.344 480.859 618.528 481.291 618.704C481.739 618.88 482.227 619.024 482.755 619.136C483.283 619.264 483.859 619.328 484.483 619.328C485.299 619.328 485.987 619.192 486.547 618.92C487.123 618.648 487.555 618.232 487.843 617.672C488.147 617.128 488.299 616.456 488.299 615.656V613.904L489.043 614.024C488.915 614.536 488.595 615.008 488.083 615.44C487.571 615.872 486.931 616.224 486.163 616.496C485.395 616.768 484.579 616.904 483.715 616.904C482.451 616.904 481.339 616.64 480.379 616.112C479.419 615.568 478.659 614.824 478.099 613.88C477.555 612.92 477.283 611.816 477.283 610.568C477.283 609.288 477.563 608.16 478.123 607.184C478.683 606.192 479.451 605.416 480.427 604.856C481.403 604.28 482.531 603.992 483.811 603.992C484.243 603.992 484.691 604.048 485.155 604.16C485.635 604.256 486.099 604.392 486.547 604.568C487.011 604.728 487.427 604.936 487.795 605.192C488.179 605.432 488.491 605.704 488.731 606.008C488.987 606.296 489.131 606.608 489.163 606.944L488.371 607.136L488.539 604.256H492.163V615.584C492.163 616.72 491.979 617.712 491.611 618.56C491.259 619.424 490.763 620.152 490.123 620.744C489.483 621.336 488.715 621.776 487.819 622.064C486.939 622.368 485.987 622.52 484.963 622.52ZM484.819 613.928C485.539 613.928 486.171 613.792 486.715 613.52C487.259 613.232 487.675 612.84 487.963 612.344C488.267 611.848 488.419 611.264 488.419 610.592C488.419 609.92 488.267 609.336 487.963 608.84C487.675 608.328 487.259 607.936 486.715 607.664C486.171 607.376 485.539 607.232 484.819 607.232C484.067 607.232 483.411 607.376 482.851 607.664C482.291 607.936 481.859 608.328 481.555 608.84C481.251 609.336 481.099 609.92 481.099 610.592C481.099 611.264 481.251 611.848 481.555 612.344C481.859 612.84 482.291 613.232 482.851 613.52C483.411 613.792 484.067 613.928 484.819 613.928ZM504.416 617.24C502.928 617.24 501.608 616.952 500.456 616.376C499.304 615.8 498.4 615.016 497.744 614.024C497.088 613.032 496.76 611.896 496.76 610.616C496.76 609.336 497.088 608.2 497.744 607.208C498.4 606.216 499.304 605.432 500.456 604.856C501.608 604.28 502.928 603.992 504.416 603.992C505.888 603.992 507.192 604.28 508.328 604.856C509.48 605.432 510.384 606.216 511.04 607.208C511.696 608.2 512.024 609.336 512.024 610.616C512.024 611.896 511.696 613.032 511.04 614.024C510.384 615.016 509.48 615.8 508.328 616.376C507.192 616.952 505.888 617.24 504.416 617.24ZM504.416 613.928C505.104 613.928 505.728 613.784 506.288 613.496C506.864 613.208 507.312 612.816 507.632 612.32C507.968 611.824 508.128 611.256 508.112 610.616C508.128 609.976 507.968 609.4 507.632 608.888C507.312 608.376 506.864 607.984 506.288 607.712C505.728 607.424 505.104 607.28 504.416 607.28C503.712 607.28 503.064 607.424 502.472 607.712C501.896 608 501.448 608.392 501.128 608.888C500.808 609.384 500.648 609.96 500.648 610.616C500.648 611.256 500.808 611.824 501.128 612.32C501.448 612.816 501.896 613.208 502.472 613.496C503.064 613.784 503.712 613.928 504.416 613.928ZM518.03 617V600.752H521.87V617H518.03ZM515.198 607.616V604.256H525.11V607.616H515.198ZM539.493 617V604.256H543.141L543.309 608.648L542.397 608.192C542.605 607.408 542.965 606.704 543.477 606.08C544.005 605.44 544.605 604.936 545.277 604.568C545.965 604.184 546.693 603.992 547.461 603.992C547.877 603.992 548.269 604.032 548.637 604.112C549.021 604.192 549.349 604.296 549.621 604.424L548.565 608.624C548.325 608.448 547.997 608.312 547.581 608.216C547.181 608.12 546.773 608.072 546.357 608.072C545.893 608.072 545.469 608.152 545.085 608.312C544.717 608.456 544.405 608.664 544.149 608.936C543.893 609.192 543.693 609.488 543.549 609.824C543.421 610.16 543.357 610.52 543.357 610.904V617H539.493ZM554.122 617V604.256H557.986V617H554.122ZM556.042 601.64C555.322 601.64 554.762 601.472 554.362 601.136C553.962 600.784 553.762 600.288 553.762 599.648C553.762 599.072 553.962 598.6 554.362 598.232C554.778 597.864 555.338 597.68 556.042 597.68C556.762 597.68 557.322 597.856 557.722 598.208C558.122 598.544 558.322 599.024 558.322 599.648C558.322 600.24 558.114 600.72 557.698 601.088C557.298 601.456 556.746 601.64 556.042 601.64ZM569.044 617.264C567.796 617.264 566.7 616.984 565.756 616.424C564.812 615.848 564.076 615.064 563.548 614.072C563.02 613.064 562.756 611.92 562.756 610.64C562.756 609.36 563.028 608.224 563.572 607.232C564.116 606.224 564.868 605.432 565.828 604.856C566.804 604.28 567.924 603.992 569.188 603.992C569.892 603.992 570.548 604.088 571.156 604.28C571.764 604.456 572.308 604.696 572.788 605C573.284 605.304 573.676 605.656 573.964 606.056C574.268 606.44 574.444 606.832 574.492 607.232L573.58 607.448V599.24H577.444V617H573.868L573.652 613.904L574.42 614.096C574.372 614.496 574.196 614.888 573.892 615.272C573.588 615.64 573.188 615.976 572.692 616.28C572.212 616.568 571.66 616.808 571.036 617C570.412 617.176 569.748 617.264 569.044 617.264ZM570.124 614.024C570.844 614.024 571.468 613.88 571.996 613.592C572.54 613.304 572.956 612.912 573.244 612.416C573.532 611.904 573.676 611.312 573.676 610.64C573.676 609.952 573.532 609.36 573.244 608.864C572.956 608.352 572.54 607.96 571.996 607.688C571.468 607.4 570.844 607.256 570.124 607.256C569.404 607.256 568.78 607.4 568.252 607.688C567.724 607.96 567.308 608.352 567.004 608.864C566.716 609.36 566.572 609.952 566.572 610.64C566.572 611.312 566.716 611.904 567.004 612.416C567.308 612.912 567.724 613.304 568.252 613.592C568.78 613.88 569.404 614.024 570.124 614.024ZM599.103 617.24C597.615 617.24 596.295 616.952 595.143 616.376C593.991 615.8 593.087 615.016 592.431 614.024C591.775 613.032 591.447 611.896 591.447 610.616C591.447 609.336 591.775 608.2 592.431 607.208C593.087 606.216 593.991 605.432 595.143 604.856C596.295 604.28 597.615 603.992 599.103 603.992C600.575 603.992 601.879 604.28 603.015 604.856C604.167 605.432 605.071 606.216 605.727 607.208C606.383 608.2 606.711 609.336 606.711 610.616C606.711 611.896 606.383 613.032 605.727 614.024C605.071 615.016 604.167 615.8 603.015 616.376C601.879 616.952 600.575 617.24 599.103 617.24ZM599.103 613.928C599.791 613.928 600.415 613.784 600.975 613.496C601.551 613.208 601.999 612.816 602.319 612.32C602.655 611.824 602.815 611.256 602.799 610.616C602.815 609.976 602.655 609.4 602.319 608.888C601.999 608.376 601.551 607.984 600.975 607.712C600.415 607.424 599.791 607.28 599.103 607.28C598.399 607.28 597.751 607.424 597.159 607.712C596.583 608 596.135 608.392 595.815 608.888C595.495 609.384 595.335 609.96 595.335 610.616C595.335 611.256 595.495 611.824 595.815 612.32C596.135 612.816 596.583 613.208 597.159 613.496C597.751 613.784 598.399 613.928 599.103 613.928ZM611.817 617V604.04C611.817 603.096 612.017 602.264 612.417 601.544C612.833 600.808 613.409 600.232 614.145 599.816C614.881 599.4 615.737 599.192 616.713 599.192C617.465 599.192 618.121 599.288 618.681 599.48C619.257 599.672 619.745 599.912 620.145 600.2L619.041 603.032C618.817 602.904 618.553 602.792 618.249 602.696C617.961 602.584 617.673 602.528 617.385 602.528C616.969 602.528 616.625 602.6 616.353 602.744C616.097 602.872 615.905 603.064 615.777 603.32C615.649 603.576 615.585 603.88 615.585 604.232V617H613.713C613.313 617 612.953 617 612.633 617C612.313 617 612.041 617 611.817 617ZM609.585 607.88V604.712H619.257V607.88H609.585ZM634.585 617V600.752H638.425V617H634.585ZM631.753 607.616V604.256H641.665V607.616H631.753ZM646.391 617V599.24H650.159V607.232L649.247 607.544C649.407 606.904 649.743 606.32 650.255 605.792C650.783 605.248 651.423 604.816 652.175 604.496C652.927 604.16 653.727 603.992 654.575 603.992C655.663 603.992 656.575 604.216 657.311 604.664C658.063 605.096 658.623 605.712 658.991 606.512C659.375 607.296 659.567 608.216 659.567 609.272V617H655.703V609.872C655.703 609.296 655.599 608.816 655.391 608.432C655.199 608.032 654.903 607.728 654.503 607.52C654.119 607.312 653.671 607.216 653.159 607.232C652.743 607.232 652.351 607.304 651.983 607.448C651.631 607.576 651.319 607.768 651.047 608.024C650.791 608.264 650.591 608.544 650.447 608.864C650.303 609.184 650.231 609.528 650.231 609.896V617H648.335C647.807 617 647.383 617 647.063 617C646.743 617 646.519 617 646.391 617ZM671.734 617.24C670.182 617.24 668.822 616.96 667.654 616.4C666.502 615.824 665.606 615.048 664.966 614.072C664.326 613.08 664.006 611.952 664.006 610.688C664.006 609.68 664.19 608.768 664.558 607.952C664.926 607.136 665.438 606.432 666.094 605.84C666.75 605.248 667.518 604.792 668.398 604.472C669.278 604.152 670.23 603.992 671.254 603.992C672.246 603.992 673.158 604.152 673.99 604.472C674.822 604.776 675.542 605.216 676.15 605.792C676.774 606.368 677.254 607.048 677.59 607.832C677.926 608.616 678.078 609.48 678.046 610.424L678.022 611.504H666.526L665.974 609.272H674.902L674.494 609.752V609.272C674.446 608.872 674.27 608.512 673.966 608.192C673.678 607.872 673.302 607.624 672.838 607.448C672.374 607.256 671.862 607.16 671.302 607.16C670.582 607.16 669.942 607.28 669.382 607.52C668.822 607.744 668.382 608.096 668.062 608.576C667.758 609.056 667.606 609.664 667.606 610.4C667.606 611.104 667.79 611.72 668.158 612.248C668.542 612.776 669.078 613.192 669.766 613.496C670.47 613.8 671.294 613.952 672.238 613.952C673.054 613.952 673.734 613.856 674.278 613.664C674.838 613.456 675.342 613.2 675.79 612.896L677.518 615.392C676.99 615.792 676.406 616.136 675.766 616.424C675.142 616.696 674.486 616.896 673.798 617.024C673.126 617.168 672.438 617.24 671.734 617.24ZM697.317 617.264C696.069 617.264 694.973 616.984 694.029 616.424C693.085 615.848 692.349 615.064 691.821 614.072C691.293 613.064 691.029 611.92 691.029 610.64C691.029 609.36 691.301 608.224 691.845 607.232C692.389 606.224 693.141 605.432 694.101 604.856C695.077 604.28 696.197 603.992 697.461 603.992C698.165 603.992 698.821 604.088 699.429 604.28C700.037 604.456 700.581 604.696 701.061 605C701.557 605.304 701.949 605.656 702.237 606.056C702.541 606.44 702.717 606.832 702.765 607.232L701.853 607.448V599.24H705.717V617H702.141L701.925 613.904L702.693 614.096C702.645 614.496 702.469 614.888 702.165 615.272C701.861 615.64 701.461 615.976 700.965 616.28C700.485 616.568 699.933 616.808 699.309 617C698.685 617.176 698.021 617.264 697.317 617.264ZM698.397 614.024C699.117 614.024 699.741 613.88 700.269 613.592C700.813 613.304 701.229 612.912 701.517 612.416C701.805 611.904 701.949 611.312 701.949 610.64C701.949 609.952 701.805 609.36 701.517 608.864C701.229 608.352 700.813 607.96 700.269 607.688C699.741 607.4 699.117 607.256 698.397 607.256C697.677 607.256 697.053 607.4 696.525 607.688C695.997 607.96 695.581 608.352 695.277 608.864C694.989 609.36 694.845 609.952 694.845 610.64C694.845 611.312 694.989 611.904 695.277 612.416C695.581 612.912 695.997 613.304 696.525 613.592C697.053 613.88 697.677 614.024 698.397 614.024ZM717.625 617.24C716.073 617.24 714.713 616.96 713.545 616.4C712.393 615.824 711.497 615.048 710.857 614.072C710.217 613.08 709.896 611.952 709.896 610.688C709.896 609.68 710.081 608.768 710.449 607.952C710.817 607.136 711.329 606.432 711.985 605.84C712.641 605.248 713.409 604.792 714.289 604.472C715.169 604.152 716.121 603.992 717.145 603.992C718.137 603.992 719.049 604.152 719.881 604.472C720.713 604.776 721.433 605.216 722.041 605.792C722.665 606.368 723.145 607.048 723.481 607.832C723.817 608.616 723.969 609.48 723.937 610.424L723.913 611.504H712.417L711.865 609.272H720.793L720.385 609.752V609.272C720.337 608.872 720.161 608.512 719.857 608.192C719.569 607.872 719.193 607.624 718.729 607.448C718.265 607.256 717.753 607.16 717.193 607.16C716.473 607.16 715.833 607.28 715.273 607.52C714.713 607.744 714.273 608.096 713.953 608.576C713.649 609.056 713.497 609.664 713.497 610.4C713.497 611.104 713.681 611.72 714.049 612.248C714.433 612.776 714.969 613.192 715.657 613.496C716.361 613.8 717.185 613.952 718.129 613.952C718.945 613.952 719.625 613.856 720.169 613.664C720.729 613.456 721.233 613.2 721.681 612.896L723.409 615.392C722.881 615.792 722.297 616.136 721.657 616.424C721.033 616.696 720.377 616.896 719.689 617.024C719.017 617.168 718.329 617.24 717.625 617.24ZM728.704 617V604.256H732.352L732.472 607.232L731.56 607.496C731.768 606.872 732.12 606.296 732.616 605.768C733.128 605.24 733.744 604.816 734.464 604.496C735.2 604.16 735.992 603.992 736.84 603.992C737.928 603.992 738.848 604.208 739.6 604.64C740.352 605.072 740.92 605.688 741.304 606.488C741.688 607.272 741.88 608.208 741.88 609.296V617H738.016V609.848C738.016 609.288 737.912 608.816 737.704 608.432C737.512 608.048 737.216 607.752 736.816 607.544C736.432 607.336 735.984 607.232 735.472 607.232C735.024 607.232 734.616 607.312 734.248 607.472C733.896 607.616 733.592 607.816 733.336 608.072C733.08 608.312 732.88 608.584 732.736 608.888C732.608 609.192 732.544 609.504 732.544 609.824V617H730.648C730.12 617 729.696 617 729.376 617C729.056 617 728.832 617 728.704 617ZM747.95 617V604.256H751.814V617H747.95ZM749.87 601.64C749.15 601.64 748.59 601.472 748.19 601.136C747.79 600.784 747.59 600.288 747.59 599.648C747.59 599.072 747.79 598.6 748.19 598.232C748.606 597.864 749.166 597.68 749.87 597.68C750.59 597.68 751.15 597.856 751.55 598.208C751.95 598.544 752.15 599.024 752.15 599.648C752.15 600.24 751.942 600.72 751.526 601.088C751.126 601.456 750.574 601.64 749.87 601.64ZM764.312 617.24C762.76 617.24 761.4 616.96 760.232 616.4C759.08 615.824 758.184 615.048 757.544 614.072C756.904 613.08 756.584 611.952 756.584 610.688C756.584 609.68 756.768 608.768 757.136 607.952C757.504 607.136 758.016 606.432 758.672 605.84C759.328 605.248 760.096 604.792 760.976 604.472C761.856 604.152 762.808 603.992 763.832 603.992C764.824 603.992 765.736 604.152 766.568 604.472C767.4 604.776 768.12 605.216 768.728 605.792C769.352 606.368 769.832 607.048 770.168 607.832C770.504 608.616 770.656 609.48 770.624 610.424L770.6 611.504H759.104L758.552 609.272H767.48L767.072 609.752V609.272C767.024 608.872 766.848 608.512 766.544 608.192C766.256 607.872 765.88 607.624 765.416 607.448C764.952 607.256 764.44 607.16 763.88 607.16C763.16 607.16 762.52 607.28 761.96 607.52C761.4 607.744 760.96 608.096 760.64 608.576C760.336 609.056 760.184 609.664 760.184 610.4C760.184 611.104 760.368 611.72 760.736 612.248C761.12 612.776 761.656 613.192 762.344 613.496C763.048 613.8 763.872 613.952 764.816 613.952C765.632 613.952 766.312 613.856 766.856 613.664C767.416 613.456 767.92 613.2 768.368 612.896L770.096 615.392C769.568 615.792 768.984 616.136 768.344 616.424C767.72 616.696 767.064 616.896 766.376 617.024C765.704 617.168 765.016 617.24 764.312 617.24ZM775.391 617V604.256H779.039L779.207 608.648L778.295 608.192C778.503 607.408 778.863 606.704 779.375 606.08C779.903 605.44 780.503 604.936 781.175 604.568C781.863 604.184 782.591 603.992 783.359 603.992C783.775 603.992 784.167 604.032 784.535 604.112C784.919 604.192 785.247 604.296 785.519 604.424L784.463 608.624C784.223 608.448 783.895 608.312 783.479 608.216C783.079 608.12 782.671 608.072 782.255 608.072C781.791 608.072 781.367 608.152 780.983 608.312C780.615 608.456 780.303 608.664 780.047 608.936C779.791 609.192 779.591 609.488 779.447 609.824C779.319 610.16 779.255 610.52 779.255 610.904V617H775.391ZM794.677 617.24C793.269 617.24 792.005 617.04 790.885 616.64C789.781 616.24 788.893 615.672 788.221 614.936L790.549 612.872C791.093 613.384 791.741 613.776 792.493 614.048C793.245 614.32 794.037 614.456 794.869 614.456C795.125 614.456 795.373 614.432 795.613 614.384C795.869 614.336 796.085 614.272 796.261 614.192C796.453 614.096 796.605 613.984 796.717 613.856C796.829 613.728 796.885 613.568 796.885 613.376C796.885 613.072 796.693 612.832 796.309 612.656C796.037 612.56 795.693 612.464 795.277 612.368C794.861 612.272 794.389 612.168 793.861 612.056C792.981 611.896 792.205 611.704 791.533 611.48C790.877 611.24 790.325 610.944 789.877 610.592C789.493 610.256 789.197 609.872 788.989 609.44C788.781 609.008 788.677 608.504 788.677 607.928C788.677 607.336 788.829 606.8 789.133 606.32C789.437 605.824 789.861 605.408 790.405 605.072C790.949 604.72 791.573 604.456 792.277 604.28C792.981 604.088 793.717 603.992 794.485 603.992C795.253 603.992 796.005 604.072 796.741 604.232C797.477 604.376 798.173 604.592 798.829 604.88C799.485 605.152 800.061 605.504 800.557 605.936L798.589 608.24C798.237 607.968 797.829 607.72 797.365 607.496C796.901 607.272 796.405 607.096 795.877 606.968C795.365 606.824 794.861 606.752 794.365 606.752C794.093 606.752 793.829 606.768 793.573 606.8C793.333 606.832 793.125 606.896 792.949 606.992C792.773 607.072 792.629 607.176 792.517 607.304C792.421 607.416 792.373 607.56 792.373 607.736C792.373 607.88 792.413 608.016 792.493 608.144C792.573 608.272 792.693 608.376 792.853 608.456C793.077 608.6 793.405 608.728 793.837 608.84C794.285 608.952 794.845 609.072 795.517 609.2C796.493 609.408 797.325 609.648 798.013 609.92C798.701 610.176 799.253 610.488 799.669 610.856C800.005 611.112 800.253 611.432 800.413 611.816C800.573 612.184 800.653 612.592 800.653 613.04C800.653 613.856 800.389 614.584 799.861 615.224C799.349 615.848 798.645 616.344 797.749 616.712C796.869 617.064 795.845 617.24 794.677 617.24ZM806.024 610.88C805.848 609.952 805.672 608.976 805.496 607.952C805.336 606.928 805.2 605.896 805.088 604.856C804.976 603.8 804.92 602.784 804.92 601.808V599.936H809.552V601.808C809.552 602.784 809.496 603.8 809.384 604.856C809.288 605.896 809.152 606.928 808.976 607.952C808.816 608.976 808.632 609.952 808.424 610.88H806.024ZM807.248 617.264C806.464 617.264 805.864 617.08 805.448 616.712C805.032 616.328 804.824 615.8 804.824 615.128C804.824 614.52 805.032 614.008 805.448 613.592C805.88 613.176 806.48 612.968 807.248 612.968C808.032 612.968 808.624 613.16 809.024 613.544C809.44 613.928 809.648 614.456 809.648 615.128C809.648 615.72 809.432 616.224 809 616.64C808.584 617.056 808 617.264 807.248 617.264Z" fill="white"/>
<g id="Vector" filter="url(#filter0_d_138_965)">
<path d="M1139.48 320.378C1137.77 321.662 1135.49 319.733 1136.47 317.837L1138.07 314.757C1138.66 313.615 1140.16 313.324 1141.15 314.16L1142.32 315.154C1143.31 315.99 1143.27 317.52 1142.25 318.293L1139.48 320.378Z" fill="#C63B3B"/>
<path d="M1133.41 321.204C1134.17 320.299 1135.53 320.189 1136.44 320.96C1137.36 321.731 1137.47 323.09 1136.71 323.996C1135.94 324.901 1134.58 325.01 1133.67 324.239C1132.76 323.468 1132.64 322.109 1133.41 321.204Z" fill="#C63B3B"/>
<path d="M1140.75 315.194C1140.38 315.641 1139.7 315.695 1139.25 315.315C1138.8 314.934 1138.75 314.264 1139.12 313.817L1140.71 311.937C1141.09 311.491 1141.76 311.437 1142.21 311.817C1142.66 312.197 1142.72 312.868 1142.34 313.315L1140.75 315.194Z" fill="#C63B3B"/>
<path d="M1137.47 317.789C1137.37 318.368 1136.83 318.757 1136.25 318.659C1135.67 318.561 1135.27 318.012 1135.37 317.434L1135.76 315C1135.86 314.421 1136.4 314.032 1136.98 314.13C1137.56 314.228 1137.96 314.776 1137.86 315.355L1137.47 317.789Z" fill="#C63B3B"/>
<path d="M1140.1 321.43C1139.55 321.627 1138.94 321.338 1138.74 320.785C1138.54 320.233 1138.83 319.625 1139.38 319.428L1141.7 318.601C1142.25 318.404 1142.86 318.693 1143.06 319.245C1143.26 319.798 1142.98 320.406 1142.43 320.602L1140.1 321.43Z" fill="#C63B3B"/>
<path d="M1143.04 317.13C1142.66 317.577 1141.99 317.631 1141.54 317.25C1141.09 316.87 1141.04 316.199 1141.41 315.753L1143 313.873C1143.38 313.426 1144.05 313.372 1144.5 313.753C1144.95 314.133 1145.01 314.803 1144.63 315.25L1143.04 317.13Z" fill="#C63B3B"/>
</g>
<g id="Vector_2" filter="url(#filter1_d_138_965)">
<path d="M1014.59 230.305C1015.83 234.239 1010.94 237.061 1008.15 234.023L1003.62 229.087C1001.94 227.258 1002.36 224.356 1004.48 223.133L1007 221.679C1009.11 220.457 1011.84 221.547 1012.58 223.915L1014.59 230.305Z" fill="#C63B3B"/>
<path d="M1012.28 241.795C1011.13 239.81 1011.79 237.286 1013.74 236.158C1015.69 235.031 1018.21 235.726 1019.35 237.711C1020.5 239.696 1019.84 242.22 1017.89 243.348C1015.94 244.475 1013.43 243.78 1012.28 241.795Z" fill="#C63B3B"/>
<path d="M1006.09 224.537C1006.65 225.516 1006.33 226.761 1005.37 227.317C1004.4 227.874 1003.16 227.531 1002.6 226.551L1000.22 222.429C999.653 221.45 999.976 220.205 1000.94 219.649C1001.9 219.092 1003.14 219.435 1003.71 220.415L1006.09 224.537Z" fill="#C63B3B"/>
<path d="M1008.69 232.194C1009.67 232.751 1010.03 233.996 1009.49 234.975C1008.95 235.955 1007.72 236.297 1006.74 235.741L1002.62 233.398C1001.64 232.841 1001.28 231.596 1001.82 230.617C1002.36 229.638 1003.59 229.295 1004.57 229.852L1008.69 232.194Z" fill="#C63B3B"/>
<path d="M1016.87 229.875C1016.88 231.001 1015.98 231.908 1014.86 231.9C1013.75 231.892 1012.83 230.972 1012.83 229.846L1012.79 225.106C1012.78 223.979 1013.68 223.073 1014.8 223.081C1015.92 223.088 1016.83 224.008 1016.84 225.134L1016.87 229.875Z" fill="#C63B3B"/>
<path d="M1010.99 221.705C1011.56 222.685 1011.23 223.93 1010.27 224.486C1009.31 225.042 1008.07 224.699 1007.5 223.72L1005.12 219.598C1004.56 218.619 1004.88 217.374 1005.84 216.817C1006.81 216.261 1008.05 216.604 1008.61 217.583L1010.99 221.705Z" fill="#C63B3B"/>
</g>
<g id="Vector_3" filter="url(#filter2_d_138_965)">
<path d="M1078.9 320.033C1077.61 318.149 1079.85 315.693 1081.84 316.798L1085.09 318.592C1086.29 319.257 1086.52 320.902 1085.55 321.965L1084.4 323.231C1083.43 324.295 1081.77 324.228 1080.99 323.094L1078.9 320.033Z" fill="#C63B3B"/>
<path d="M1078.38 313.397C1079.31 314.248 1079.35 315.733 1078.46 316.715C1077.56 317.696 1076.08 317.802 1075.15 316.951C1074.21 316.1 1074.18 314.614 1075.07 313.633C1075.96 312.652 1077.44 312.546 1078.38 313.397Z" fill="#C63B3B"/>
<path d="M1084.45 321.517C1083.99 321.097 1083.97 320.364 1084.41 319.88C1084.85 319.396 1085.58 319.343 1086.04 319.763L1087.99 321.53C1088.45 321.95 1088.47 322.683 1088.02 323.167C1087.58 323.651 1086.85 323.703 1086.39 323.284L1084.45 321.517Z" fill="#C63B3B"/>
<path d="M1081.84 317.886C1081.21 317.773 1080.82 317.17 1080.97 316.539C1081.11 315.908 1081.73 315.489 1082.35 315.601L1084.97 316.076C1085.59 316.189 1085.98 316.792 1085.84 317.423C1085.69 318.054 1085.07 318.474 1084.45 318.361L1081.84 317.886Z" fill="#C63B3B"/>
<path d="M1077.72 320.701C1077.54 320.095 1077.89 319.435 1078.51 319.225C1079.12 319.016 1079.76 319.337 1079.94 319.943L1080.69 322.492C1080.87 323.098 1080.52 323.758 1079.91 323.968C1079.3 324.177 1078.66 323.856 1078.48 323.25L1077.72 320.701Z" fill="#C63B3B"/>
<path d="M1082.21 323.981C1081.75 323.561 1081.73 322.828 1082.17 322.344C1082.61 321.86 1083.34 321.808 1083.8 322.227L1085.75 323.994C1086.21 324.414 1086.22 325.147 1085.78 325.631C1085.34 326.115 1084.61 326.168 1084.15 325.748L1082.21 323.981Z" fill="#C63B3B"/>
</g>
<g id="Vector_4" filter="url(#filter3_d_138_965)">
<path d="M991.272 364.305C993.565 362.857 996.318 365.576 994.898 367.887L992.593 371.64C991.738 373.031 989.791 373.234 988.599 372.056L987.18 370.654C985.988 369.477 986.167 367.527 987.548 366.656L991.272 364.305Z" fill="#C63B3B"/>
<path d="M999.105 363.932C998.048 365.002 996.3 364.989 995.2 363.902C994.1 362.816 994.065 361.067 995.122 359.997C996.179 358.927 997.928 358.941 999.028 360.027C1000.13 361.114 1000.16 362.862 999.105 363.932Z" fill="#C63B3B"/>
<path d="M989.193 370.779C989.715 370.252 990.577 370.258 991.12 370.794C991.662 371.33 991.68 372.193 991.158 372.721L988.964 374.942C988.442 375.47 987.58 375.463 987.037 374.927C986.494 374.391 986.477 373.529 986.999 373.001L989.193 370.779Z" fill="#C63B3B"/>
<path d="M993.619 367.836C993.79 367.108 994.522 366.672 995.255 366.863C995.988 367.053 996.444 367.797 996.274 368.525L995.558 371.588C995.387 372.316 994.655 372.752 993.922 372.562C993.189 372.371 992.733 371.627 992.903 370.899L993.619 367.836Z" fill="#C63B3B"/>
<path d="M990.558 362.892C991.281 362.702 992.036 363.139 992.246 363.868C992.455 364.596 992.038 365.339 991.316 365.528L988.273 366.324C987.55 366.513 986.795 366.076 986.585 365.348C986.376 364.62 986.793 363.877 987.515 363.687L990.558 362.892Z" fill="#C63B3B"/>
<path d="M986.431 368.051C986.953 367.523 987.815 367.53 988.358 368.066C988.901 368.602 988.918 369.465 988.396 369.992L986.202 372.214C985.68 372.742 984.818 372.735 984.275 372.199C983.733 371.663 983.715 370.801 984.237 370.273L986.431 368.051Z" fill="#C63B3B"/>
</g>
<g id="Vector_5" filter="url(#filter4_d_138_965)">
<path d="M808.287 380.631C801.62 374.409 808.094 363.196 816.816 365.859L830.981 370.184C836.231 371.787 838.558 377.932 835.754 382.788L832.417 388.568C829.613 393.425 823.128 394.482 819.115 390.737L808.287 380.631Z" fill="#E06A6A"/>
<path d="M800.364 355.535C804.746 358.065 806.2 363.748 803.613 368.229C801.026 372.71 795.377 374.292 790.996 371.762C786.614 369.233 785.16 363.55 787.747 359.069C790.334 354.588 795.983 353.006 800.364 355.535Z" fill="#E06A6A"/>
<path d="M831.099 381.935C828.938 380.687 828.22 377.883 829.497 375.672C830.773 373.462 833.56 372.681 835.721 373.929L844.818 379.181C846.979 380.429 847.697 383.233 846.42 385.443C845.144 387.654 842.357 388.434 840.196 387.186L831.099 381.935Z" fill="#E06A6A"/>
<path d="M817.745 370.051C815.235 370.11 813.192 368.101 813.182 365.563C813.173 363.025 815.199 360.92 817.709 360.86L828.273 360.61C830.784 360.551 832.826 362.56 832.836 365.098C832.846 367.636 830.819 369.741 828.309 369.8L817.745 370.051Z" fill="#E06A6A"/>
<path d="M804.308 384.136C803.074 381.95 803.846 379.132 806.032 377.841C808.218 376.551 810.99 377.277 812.224 379.463L817.416 388.663C818.65 390.849 817.878 393.667 815.692 394.957C813.506 396.248 810.734 395.522 809.5 393.336L804.308 384.136Z" fill="#E06A6A"/>
<path d="M824.604 393.185C822.442 391.937 821.725 389.134 823.001 386.923C824.277 384.712 827.064 383.932 829.226 385.18L838.322 390.432C840.484 391.68 841.201 394.483 839.925 396.694C838.649 398.905 835.862 399.685 833.7 398.437L824.604 393.185Z" fill="#E06A6A"/>
</g>
<g id="Vector_6" filter="url(#filter5_d_138_965)">
<path d="M886.86 225.508C897.568 219.559 909.115 232.391 902.073 242.414L890.636 258.692C886.397 264.725 877.607 265.177 872.606 259.619L866.652 253.003C861.651 247.446 863.025 238.751 869.47 235.171L886.86 225.508Z" fill="#E06A6A"/>
<path d="M922.098 225.677C917.045 230.224 909.207 229.753 904.592 224.625C899.978 219.497 900.333 211.653 905.387 207.106C910.44 202.558 918.278 203.029 922.892 208.158C927.507 213.286 927.151 221.129 922.098 225.677Z" fill="#E06A6A"/>
<path d="M875.642 254.038C878.135 251.794 882.001 252.026 884.278 254.556C886.554 257.086 886.379 260.956 883.886 263.199L873.394 272.641C870.901 274.884 867.035 274.652 864.758 272.122C862.481 269.592 862.657 265.722 865.15 263.479L875.642 254.038Z" fill="#E06A6A"/>
<path d="M896.353 241.884C897.329 238.662 900.741 236.881 903.972 237.906C907.204 238.931 909.033 242.375 908.056 245.597L903.947 259.157C902.97 262.38 899.559 264.161 896.327 263.135C893.095 262.11 891.267 258.667 892.244 255.445L896.353 241.884Z" fill="#E06A6A"/>
<path d="M884.071 219.005C887.368 218.327 890.629 220.463 891.354 223.776C892.079 227.089 889.994 230.324 886.697 231.001L872.82 233.854C869.522 234.532 866.262 232.396 865.536 229.083C864.811 225.771 866.897 222.536 870.194 221.858L884.071 219.005Z" fill="#E06A6A"/>
<path d="M864.055 241.162C866.548 238.918 870.415 239.151 872.691 241.681C874.968 244.21 874.792 248.08 872.299 250.323L861.808 259.765C859.315 262.008 855.448 261.776 853.171 259.246C850.895 256.716 851.07 252.846 853.563 250.603L864.055 241.162Z" fill="#E06A6A"/>
</g>
<g id="Vector_7" filter="url(#filter6_d_138_965)">
<path d="M1123.87 383.222C1120.22 374.559 1130.99 366.789 1138.06 372.987L1149.54 383.052C1153.8 386.782 1153.41 393.532 1148.75 396.897L1143.19 400.903C1138.53 404.268 1132 402.508 1129.8 397.293L1123.87 383.222Z" fill="#E06A6A"/>
<path d="M1126.94 356.325C1130 360.556 1128.98 366.503 1124.68 369.608C1120.38 372.713 1114.41 371.8 1111.36 367.569C1108.31 363.338 1109.32 357.391 1113.63 354.286C1117.93 351.181 1123.89 352.094 1126.94 356.325Z" fill="#E06A6A"/>
<path d="M1144.73 394.122C1143.23 392.035 1143.73 389.101 1145.85 387.569C1147.98 386.038 1150.92 386.488 1152.42 388.575L1158.76 397.36C1160.27 399.447 1159.77 402.381 1157.64 403.913C1155.52 405.444 1152.58 404.994 1151.07 402.907L1144.73 394.122Z" fill="#E06A6A"/>
<path d="M1137.18 377.312C1134.8 376.303 1133.72 373.552 1134.78 371.167C1135.83 368.783 1138.61 367.668 1140.99 368.677L1151.01 372.924C1153.39 373.934 1154.47 376.685 1153.41 379.069C1152.36 381.453 1149.58 382.568 1147.2 381.559L1137.18 377.312Z" fill="#E06A6A"/>
<path d="M1118.67 384.821C1118.43 382.247 1120.33 379.932 1122.93 379.649C1125.52 379.366 1127.81 381.223 1128.06 383.796L1129.08 394.627C1129.32 397.201 1127.42 399.516 1124.82 399.799C1122.23 400.082 1119.94 398.225 1119.69 395.652L1118.67 384.821Z" fill="#E06A6A"/>
<path d="M1133.93 401.918C1132.42 399.831 1132.92 396.897 1135.05 395.365C1137.17 393.833 1140.11 394.284 1141.62 396.371L1147.96 405.156C1149.46 407.243 1148.96 410.177 1146.84 411.708C1144.71 413.24 1141.77 412.79 1140.27 410.703L1133.93 401.918Z" fill="#E06A6A"/>
</g>
<g id="Vector_8" filter="url(#filter7_d_138_965)">
<path d="M968.364 307.616C974.415 313.239 968.605 323.302 960.71 320.873L947.887 316.928C943.135 315.466 941.008 309.929 943.524 305.571L946.519 300.383C949.035 296.025 954.894 295.099 958.536 298.484L968.364 307.616Z" fill="#E06A6A"/>
<path d="M975.622 330.224C971.652 327.931 970.315 322.813 972.637 318.792C974.959 314.77 980.059 313.369 984.03 315.661C988.001 317.953 989.337 323.072 987.016 327.093C984.694 331.114 979.593 332.516 975.622 330.224Z" fill="#E06A6A"/>
<path d="M947.736 306.357C949.695 307.487 950.354 310.013 949.209 311.996C948.063 313.98 945.547 314.672 943.588 313.541L935.344 308.781C933.385 307.65 932.726 305.125 933.871 303.141C935.017 301.158 937.533 300.466 939.492 301.597L947.736 306.357Z" fill="#E06A6A"/>
<path d="M959.854 317.099C962.123 317.055 963.977 318.87 963.996 321.153C964.015 323.437 962.19 325.323 959.921 325.367L950.372 325.552C948.103 325.595 946.248 323.78 946.23 321.497C946.211 319.214 948.035 317.327 950.304 317.284L959.854 317.099Z" fill="#E06A6A"/>
<path d="M971.948 304.479C973.072 306.45 972.385 308.982 970.413 310.135C968.442 311.288 965.933 310.624 964.809 308.653L960.08 300.356C958.957 298.385 959.644 295.852 961.615 294.7C963.586 293.547 966.095 294.211 967.219 296.182L971.948 304.479Z" fill="#E06A6A"/>
<path d="M953.565 296.26C955.524 297.391 956.183 299.916 955.038 301.9C953.893 303.884 951.376 304.575 949.417 303.444L941.174 298.684C939.215 297.554 938.555 295.029 939.701 293.045C940.846 291.061 943.363 290.369 945.321 291.5L953.565 296.26Z" fill="#E06A6A"/>
</g>
<g id="Vector_9" filter="url(#filter8_d_138_965)">
<path d="M1303.1 223.824C1295.21 205.705 1317.48 189.316 1332.43 202.233L1356.72 223.212C1365.73 230.986 1365.12 245.136 1355.47 252.234L1343.99 260.683C1334.35 267.781 1320.66 264.158 1315.91 253.252L1303.1 223.824Z" fill="#FB8D8D"/>
<path d="M1308.71 167.428C1315.22 176.264 1313.27 188.737 1304.38 195.286C1295.48 201.835 1282.99 199.982 1276.49 191.146C1269.98 182.31 1271.93 169.837 1280.82 163.288C1289.72 156.738 1302.21 158.592 1308.71 167.428Z" fill="#FB8D8D"/>
<path d="M1347.01 246.458C1343.8 242.099 1344.76 235.946 1349.15 232.715C1353.54 229.484 1359.7 230.398 1362.91 234.757L1376.41 253.103C1379.62 257.462 1378.66 263.615 1374.27 266.847C1369.88 270.078 1363.72 269.163 1360.51 264.804L1347.01 246.458Z" fill="#FB8D8D"/>
<path d="M1330.72 211.305C1325.72 209.214 1323.39 203.46 1325.52 198.453C1327.64 193.446 1333.43 191.083 1338.43 193.174L1359.49 201.974C1364.49 204.065 1366.82 209.819 1364.69 214.826C1362.56 219.833 1356.78 222.197 1351.78 220.106L1330.72 211.305Z" fill="#FB8D8D"/>
<path d="M1292.28 227.225C1291.7 221.835 1295.61 216.963 1301.01 216.345C1306.42 215.726 1311.27 219.595 1311.86 224.985L1314.31 247.672C1314.9 253.063 1310.99 257.934 1305.58 258.553C1300.18 259.172 1295.32 255.303 1294.74 249.912L1292.28 227.225Z" fill="#FB8D8D"/>
<path d="M1324.67 262.903C1321.46 258.543 1322.42 252.39 1326.81 249.159C1331.2 245.928 1337.36 246.843 1340.57 251.202L1354.07 269.548C1357.28 273.907 1356.32 280.06 1351.93 283.291C1347.54 286.522 1341.38 285.607 1338.17 281.248L1324.67 262.903Z" fill="#FB8D8D"/>
</g>
<g id="Vector_10" filter="url(#filter9_d_138_965)">
<path d="M1063.45 548.348C1058.78 543.963 1063.31 536.229 1069.42 538.159L1079.34 541.294C1083.02 542.455 1084.65 546.747 1082.69 550.097L1080.35 554.084C1078.39 557.434 1073.85 558.11 1071.04 555.47L1063.45 548.348Z" fill="#E06A6A"/>
<path d="M1057.89 530.834C1060.96 532.632 1061.98 536.595 1060.17 539.686C1058.36 542.777 1054.41 543.825 1051.34 542.027C1048.27 540.229 1047.25 536.266 1049.06 533.175C1050.87 530.084 1054.82 529.036 1057.89 530.834Z" fill="#E06A6A"/>
<path d="M1079.43 549.462C1077.91 548.575 1077.41 546.619 1078.3 545.095C1079.2 543.57 1081.15 543.053 1082.66 543.94L1089.03 547.673C1090.55 548.56 1091.05 550.515 1090.16 552.04C1089.27 553.565 1087.31 554.082 1085.8 553.195L1079.43 549.462Z" fill="#E06A6A"/>
<path d="M1070.07 541.08C1068.31 541.099 1066.88 539.684 1066.87 537.92C1066.87 536.156 1068.29 534.711 1070.04 534.693L1077.44 534.615C1079.2 534.596 1080.63 536.011 1080.64 537.775C1080.65 539.539 1079.23 540.984 1077.47 541.003L1070.07 541.08Z" fill="#E06A6A"/>
<path d="M1060.66 550.748C1059.8 549.217 1060.34 547.265 1061.87 546.388C1063.4 545.511 1065.34 546.041 1066.21 547.572L1069.85 554.013C1070.71 555.544 1070.17 557.496 1068.64 558.373C1067.11 559.25 1065.17 558.72 1064.3 557.189L1060.66 550.748Z" fill="#E06A6A"/>
<path d="M1074.88 557.222C1073.37 556.335 1072.86 554.38 1073.76 552.855C1074.65 551.33 1076.6 550.813 1078.12 551.7L1084.49 555.433C1086 556.32 1086.51 558.275 1085.61 559.8C1084.72 561.325 1082.77 561.842 1081.25 560.955L1074.88 557.222Z" fill="#E06A6A"/>
</g>
<g id="Vector_11" filter="url(#filter10_d_138_965)">
<path d="M1272.68 470.076C1277.29 482.794 1261.37 493.029 1251.71 483.56L1236.03 468.183C1230.21 462.484 1231.24 452.845 1238.13 448.412L1246.34 443.135C1253.23 438.702 1262.43 441.767 1265.2 449.422L1272.68 470.076Z" fill="#FB8D8D"/>
<path d="M1266.42 508.358C1262.36 502.042 1264.22 493.606 1270.58 489.515C1276.94 485.425 1285.39 487.23 1289.45 493.546C1293.51 499.862 1291.65 508.299 1285.29 512.389C1278.93 516.479 1270.48 514.674 1266.42 508.358Z" fill="#FB8D8D"/>
<path d="M1243.66 452.722C1245.67 455.838 1244.75 460 1241.61 462.018C1238.47 464.035 1234.31 463.145 1232.3 460.029L1223.87 446.915C1221.86 443.799 1222.78 439.637 1225.92 437.619C1229.06 435.601 1233.23 436.492 1235.23 439.608L1243.66 452.722Z" fill="#FB8D8D"/>
<path d="M1253.28 477.437C1256.6 479.081 1257.95 483.112 1256.28 486.44C1254.61 489.769 1250.56 491.134 1247.23 489.49L1233.22 482.571C1229.9 480.927 1228.55 476.896 1230.22 473.567C1231.89 470.239 1235.95 468.873 1239.27 470.518L1253.28 477.437Z" fill="#FB8D8D"/>
<path d="M1280.22 468.219C1280.39 471.927 1277.51 475.086 1273.79 475.275C1270.07 475.465 1266.92 472.613 1266.75 468.905L1266.05 453.302C1265.88 449.595 1268.76 446.435 1272.48 446.246C1276.2 446.056 1279.35 448.908 1279.52 452.616L1280.22 468.219Z" fill="#FB8D8D"/>
<path d="M1259.63 442.452C1261.64 445.568 1260.72 449.73 1257.58 451.748C1254.44 453.766 1250.28 452.875 1248.27 449.759L1239.84 436.645C1237.83 433.529 1238.75 429.367 1241.89 427.35C1245.03 425.332 1249.2 426.222 1251.2 429.338L1259.63 442.452Z" fill="#FB8D8D"/>
</g>
<g id="Vector_12" filter="url(#filter11_d_138_965)">
<path d="M723.048 167.14C743.08 153.055 768.458 175.972 756.483 197.332L737.034 232.021C729.826 244.877 712.512 247.665 701.521 237.74L688.437 225.925C677.446 216 678.459 198.492 690.516 190.015L723.048 167.14Z" fill="#FB8D8D"/>
<path d="M792.844 159.884C783.732 169.974 768.123 170.73 757.981 161.572C747.839 152.414 747.005 136.809 756.117 126.718C765.229 116.627 780.838 115.871 790.98 125.03C801.122 134.188 801.956 149.793 792.844 159.884Z" fill="#FB8D8D"/>
<path d="M706.436 226.036C710.932 221.058 718.632 220.685 723.635 225.203C728.639 229.721 729.05 237.419 724.555 242.398L705.636 263.349C701.14 268.327 693.44 268.7 688.437 264.182C683.434 259.663 683.022 251.965 687.517 246.987L706.436 226.036Z" fill="#FB8D8D"/>
<path d="M745.055 197.515C746.356 190.926 752.76 186.665 759.359 187.999C765.958 189.332 770.254 195.754 768.953 202.344L763.477 230.075C762.176 236.664 755.772 240.925 749.173 239.591C742.574 238.258 738.279 231.835 739.579 225.246L745.055 197.515Z" fill="#FB8D8D"/>
<path d="M716.251 154.867C722.646 152.815 729.521 156.341 731.606 162.743C733.691 169.145 730.198 175.998 723.803 178.05L696.89 186.687C690.495 188.739 683.621 185.213 681.535 178.811C679.45 172.409 682.944 165.556 689.338 163.504L716.251 154.867Z" fill="#FB8D8D"/>
<path d="M680.972 203.041C685.468 198.063 693.168 197.69 698.171 202.208C703.175 206.726 703.586 214.425 699.091 219.403L680.172 240.354C675.676 245.332 667.976 245.705 662.973 241.187C657.969 236.669 657.558 228.97 662.053 223.992L680.972 203.041Z" fill="#FB8D8D"/>
</g>
<g id="Vector_13" filter="url(#filter12_d_138_965)">
<path d="M940.914 125.069C950.357 134.738 940.213 150.318 927.55 145.595L906.985 137.924C899.364 135.081 896.293 125.957 900.686 119.21L905.915 111.177C910.308 104.43 919.895 103.547 925.578 109.366L940.914 125.069Z" fill="#FB8D8D"/>
<path d="M951.135 162.175C944.842 158.077 943.026 149.708 947.08 143.482C951.133 137.256 959.521 135.53 965.814 139.627C972.108 143.725 973.923 152.093 969.87 158.32C965.816 164.546 957.428 166.272 951.135 162.175Z" fill="#FB8D8D"/>
<path d="M907.476 120.908C910.581 122.93 911.476 127.058 909.477 130.13C907.477 133.202 903.339 134.053 900.234 132.032L887.168 123.525C884.063 121.504 883.167 117.375 885.167 114.303C887.167 111.232 891.305 110.38 894.41 112.402L907.476 120.908Z" fill="#FB8D8D"/>
<path d="M926.422 139.437C930.113 139.601 933 142.712 932.871 146.386C932.743 150.059 929.646 152.904 925.955 152.739L910.423 152.048C906.732 151.884 903.844 148.773 903.973 145.099C904.102 141.426 907.198 138.581 910.889 138.745L926.422 139.437Z" fill="#FB8D8D"/>
<path d="M946.958 120.395C948.647 123.681 947.354 127.682 944.069 129.332C940.785 130.981 936.754 129.654 935.065 126.368L927.957 112.537C926.268 109.251 927.561 105.249 930.846 103.6C934.13 101.951 938.161 103.278 939.85 106.564L946.958 120.395Z" fill="#FB8D8D"/>
<path d="M917.654 105.276C920.759 107.297 921.654 111.426 919.654 114.497C917.655 117.569 913.517 118.42 910.412 116.399L897.346 107.892C894.241 105.871 893.345 101.742 895.345 98.6704C897.345 95.5988 901.483 94.7474 904.587 96.7687L917.654 105.276Z" fill="#FB8D8D"/>
</g>
</g>
<defs>
<filter id="filter0_d_138_965" x="1128.9" y="311.564" width="19.979" height="21.1895" filterUnits="userSpaceOnUse" color-interpolation-filters="sRGB">
<feFlood flood-opacity="0" result="BackgroundImageFix"/>
<feColorMatrix in="SourceAlpha" type="matrix" values="0 0 0 0 0 0 0 0 0 0 0 0 0 0 0 0 0 0 127 0" result="hardAlpha"/>
<feOffset dy="4"/>
<feGaussianBlur stdDeviation="2"/>
<feComposite in2="hardAlpha" operator="out"/>
<feColorMatrix type="matrix" values="0 0 0 0 0 0 0 0 0 0 0 0 0 0 0 0 0 0 0.25 0"/>
<feBlend mode="normal" in2="BackgroundImageFix" result="effect1_dropShadow_138_965"/>
<feBlend mode="normal" in="SourceGraphic" in2="effect1_dropShadow_138_965" result="shape"/>
</filter>
<filter id="filter1_d_138_965" x="995.94" y="216.551" width="27.9771" height="35.3379" filterUnits="userSpaceOnUse" color-interpolation-filters="sRGB">
<feFlood flood-opacity="0" result="BackgroundImageFix"/>
<feColorMatrix in="SourceAlpha" type="matrix" values="0 0 0 0 0 0 0 0 0 0 0 0 0 0 0 0 0 0 127 0" result="hardAlpha"/>
<feOffset dy="4"/>
<feGaussianBlur stdDeviation="2"/>
<feComposite in2="hardAlpha" operator="out"/>
<feColorMatrix type="matrix" values="0 0 0 0 0 0 0 0 0 0 0 0 0 0 0 0 0 0 0.25 0"/>
<feBlend mode="normal" in2="BackgroundImageFix" result="effect1_dropShadow_138_965"/>
<feBlend mode="normal" in="SourceGraphic" in2="effect1_dropShadow_138_965" result="shape"/>
</filter>
<filter id="filter2_d_138_965" x="1070.42" y="312.822" width="21.9233" height="21.209" filterUnits="userSpaceOnUse" color-interpolation-filters="sRGB">
<feFlood flood-opacity="0" result="BackgroundImageFix"/>
<feColorMatrix in="SourceAlpha" type="matrix" values="0 0 0 0 0 0 0 0 0 0 0 0 0 0 0 0 0 0 127 0" result="hardAlpha"/>
<feOffset dy="4"/>
<feGaussianBlur stdDeviation="2"/>
<feComposite in2="hardAlpha" operator="out"/>
<feColorMatrix type="matrix" values="0 0 0 0 0 0 0 0 0 0 0 0 0 0 0 0 0 0 0.25 0"/>
<feBlend mode="normal" in2="BackgroundImageFix" result="effect1_dropShadow_138_965"/>
<feBlend mode="normal" in="SourceGraphic" in2="effect1_dropShadow_138_965" result="shape"/>
</filter>
<filter id="filter3_d_138_965" x="979.857" y="359.203" width="24.019" height="24.1309" filterUnits="userSpaceOnUse" color-interpolation-filters="sRGB">
<feFlood flood-opacity="0" result="BackgroundImageFix"/>
<feColorMatrix in="SourceAlpha" type="matrix" values="0 0 0 0 0 0 0 0 0 0 0 0 0 0 0 0 0 0 127 0" result="hardAlpha"/>
<feOffset dy="4"/>
<feGaussianBlur stdDeviation="2"/>
<feComposite in2="hardAlpha" operator="out"/>
<feColorMatrix type="matrix" values="0 0 0 0 0 0 0 0 0 0 0 0 0 0 0 0 0 0 0.25 0"/>
<feBlend mode="normal" in2="BackgroundImageFix" result="effect1_dropShadow_138_965"/>
<feBlend mode="normal" in="SourceGraphic" in2="effect1_dropShadow_138_965" result="shape"/>
</filter>
<filter id="filter4_d_138_965" x="782.466" y="354.33" width="68.5864" height="52.7012" filterUnits="userSpaceOnUse" color-interpolation-filters="sRGB">
<feFlood flood-opacity="0" result="BackgroundImageFix"/>
<feColorMatrix in="SourceAlpha" type="matrix" values="0 0 0 0 0 0 0 0 0 0 0 0 0 0 0 0 0 0 127 0" result="hardAlpha"/>
<feOffset dy="4"/>
<feGaussianBlur stdDeviation="2"/>
<feComposite in2="hardAlpha" operator="out"/>
<feColorMatrix type="matrix" values="0 0 0 0 0 0 0 0 0 0 0 0 0 0 0 0 0 0 0.25 0"/>
<feBlend mode="normal" in2="BackgroundImageFix" result="effect1_dropShadow_138_965"/>
<feBlend mode="normal" in="SourceGraphic" in2="effect1_dropShadow_138_965" result="shape"/>
</filter>
<filter id="filter5_d_138_965" x="847.572" y="203.98" width="82.561" height="78.2012" filterUnits="userSpaceOnUse" color-interpolation-filters="sRGB">
<feFlood flood-opacity="0" result="BackgroundImageFix"/>
<feColorMatrix in="SourceAlpha" type="matrix" values="0 0 0 0 0 0 0 0 0 0 0 0 0 0 0 0 0 0 127 0" result="hardAlpha"/>
<feOffset dy="4"/>
<feGaussianBlur stdDeviation="2"/>
<feComposite in2="hardAlpha" operator="out"/>
<feColorMatrix type="matrix" values="0 0 0 0 0 0 0 0 0 0 0 0 0 0 0 0 0 0 0.25 0"/>
<feBlend mode="normal" in2="BackgroundImageFix" result="effect1_dropShadow_138_965"/>
<feBlend mode="normal" in="SourceGraphic" in2="effect1_dropShadow_138_965" result="shape"/>
</filter>
<filter id="filter6_d_138_965" x="1105.6" y="352.443" width="58.0322" height="68.1738" filterUnits="userSpaceOnUse" color-interpolation-filters="sRGB">
<feFlood flood-opacity="0" result="BackgroundImageFix"/>
<feColorMatrix in="SourceAlpha" type="matrix" values="0 0 0 0 0 0 0 0 0 0 0 0 0 0 0 0 0 0 127 0" result="hardAlpha"/>
<feOffset dy="4"/>
<feGaussianBlur stdDeviation="2"/>
<feComposite in2="hardAlpha" operator="out"/>
<feColorMatrix type="matrix" values="0 0 0 0 0 0 0 0 0 0 0 0 0 0 0 0 0 0 0.25 0"/>
<feBlend mode="normal" in2="BackgroundImageFix" result="effect1_dropShadow_138_965"/>
<feBlend mode="normal" in="SourceGraphic" in2="effect1_dropShadow_138_965" result="shape"/>
</filter>
<filter id="filter7_d_138_965" x="929.309" y="290.957" width="62.8472" height="48.3672" filterUnits="userSpaceOnUse" color-interpolation-filters="sRGB">
<feFlood flood-opacity="0" result="BackgroundImageFix"/>
<feColorMatrix in="SourceAlpha" type="matrix" values="0 0 0 0 0 0 0 0 0 0 0 0 0 0 0 0 0 0 127 0" result="hardAlpha"/>
<feOffset dy="4"/>
<feGaussianBlur stdDeviation="2"/>
<feComposite in2="hardAlpha" operator="out"/>
<feColorMatrix type="matrix" values="0 0 0 0 0 0 0 0 0 0 0 0 0 0 0 0 0 0 0.25 0"/>
<feBlend mode="normal" in2="BackgroundImageFix" result="effect1_dropShadow_138_965"/>
<feBlend mode="normal" in="SourceGraphic" in2="effect1_dropShadow_138_965" result="shape"/>
</filter>
<filter id="filter8_d_138_965" x="1268.64" y="159.371" width="113.666" height="133.852" filterUnits="userSpaceOnUse" color-interpolation-filters="sRGB">
<feFlood flood-opacity="0" result="BackgroundImageFix"/>
<feColorMatrix in="SourceAlpha" type="matrix" values="0 0 0 0 0 0 0 0 0 0 0 0 0 0 0 0 0 0 127 0" result="hardAlpha"/>
<feOffset dy="4"/>
<feGaussianBlur stdDeviation="2"/>
<feComposite in2="hardAlpha" operator="out"/>
<feColorMatrix type="matrix" values="0 0 0 0 0 0 0 0 0 0 0 0 0 0 0 0 0 0 0.25 0"/>
<feBlend mode="normal" in2="BackgroundImageFix" result="effect1_dropShadow_138_965"/>
<feBlend mode="normal" in="SourceGraphic" in2="effect1_dropShadow_138_965" result="shape"/>
</filter>
<filter id="filter9_d_138_965" x="1044.16" y="529.955" width="50.4395" height="39.4336" filterUnits="userSpaceOnUse" color-interpolation-filters="sRGB">
<feFlood flood-opacity="0" result="BackgroundImageFix"/>
<feColorMatrix in="SourceAlpha" type="matrix" values="0 0 0 0 0 0 0 0 0 0 0 0 0 0 0 0 0 0 127 0" result="hardAlpha"/>
<feOffset dy="4"/>
<feGaussianBlur stdDeviation="2"/>
<feComposite in2="hardAlpha" operator="out"/>
<feColorMatrix type="matrix" values="0 0 0 0 0 0 0 0 0 0 0 0 0 0 0 0 0 0 0.25 0"/>
<feBlend mode="normal" in2="BackgroundImageFix" result="effect1_dropShadow_138_965"/>
<feBlend mode="normal" in="SourceGraphic" in2="effect1_dropShadow_138_965" result="shape"/>
</filter>
<filter id="filter10_d_138_965" x="1218.81" y="426.27" width="76.7949" height="96.3086" filterUnits="userSpaceOnUse" color-interpolation-filters="sRGB">
<feFlood flood-opacity="0" result="BackgroundImageFix"/>
<feColorMatrix in="SourceAlpha" type="matrix" values="0 0 0 0 0 0 0 0 0 0 0 0 0 0 0 0 0 0 127 0" result="hardAlpha"/>
<feOffset dy="4"/>
<feGaussianBlur stdDeviation="2"/>
<feComposite in2="hardAlpha" operator="out"/>
<feColorMatrix type="matrix" values="0 0 0 0 0 0 0 0 0 0 0 0 0 0 0 0 0 0 0.25 0"/>
<feBlend mode="normal" in2="BackgroundImageFix" result="effect1_dropShadow_138_965"/>
<feBlend mode="normal" in="SourceGraphic" in2="effect1_dropShadow_138_965" result="shape"/>
</filter>
<filter id="filter11_d_138_965" x="654.933" y="118.627" width="148.235" height="156.713" filterUnits="userSpaceOnUse" color-interpolation-filters="sRGB">
<feFlood flood-opacity="0" result="BackgroundImageFix"/>
<feColorMatrix in="SourceAlpha" type="matrix" values="0 0 0 0 0 0 0 0 0 0 0 0 0 0 0 0 0 0 127 0" result="hardAlpha"/>
<feOffset dy="4"/>
<feGaussianBlur stdDeviation="2"/>
<feComposite in2="hardAlpha" operator="out"/>
<feColorMatrix type="matrix" values="0 0 0 0 0 0 0 0 0 0 0 0 0 0 0 0 0 0 0.25 0"/>
<feBlend mode="normal" in2="BackgroundImageFix" result="effect1_dropShadow_138_965"/>
<feBlend mode="normal" in="SourceGraphic" in2="effect1_dropShadow_138_965" result="shape"/>
</filter>
<filter id="filter12_d_138_965" x="880.101" y="95.6719" width="95.9297" height="76.7266" filterUnits="userSpaceOnUse" color-interpolation-filters="sRGB">
<feFlood flood-opacity="0" result="BackgroundImageFix"/>
<feColorMatrix in="SourceAlpha" type="matrix" values="0 0 0 0 0 0 0 0 0 0 0 0 0 0 0 0 0 0 127 0" result="hardAlpha"/>
<feOffset dy="4"/>
<feGaussianBlur stdDeviation="2"/>
<feComposite in2="hardAlpha" operator="out"/>
<feColorMatrix type="matrix" values="0 0 0 0 0 0 0 0 0 0 0 0 0 0 0 0 0 0 0.25 0"/>
<feBlend mode="normal" in2="BackgroundImageFix" result="effect1_dropShadow_138_965"/>
<feBlend mode="normal" in="SourceGraphic" in2="effect1_dropShadow_138_965" result="shape"/>
</filter>
<clipPath id="clip0_138_965">
<rect width="1440" height="1024" fill="white"/>
</clipPath>
</defs>
</svg>
