<svg width="369" height="88" viewBox="0 0 369 88" fill="none" xmlns="http://www.w3.org/2000/svg">
<g id="yes">
<g id="yes_2">
<rect id="Rectangle 3" y="8.0332" width="369" height="72.9669" rx="35" fill="#6A94E0"/>
<path id="yes_3" d="M129.13 1.72L138.026 -16.52L137.834 -11.336L119.786 -46.984H131.498L139.754 -29.32C140.352 -28.1253 140.906 -26.9093 141.418 -25.672C141.93 -24.4773 142.336 -23.2827 142.634 -22.088L140.714 -21.576C141.098 -22.5147 141.546 -23.624 142.058 -24.904C142.57 -26.184 143.104 -27.4853 143.658 -28.808L151.274 -46.984H162.986L146.346 -12.872L139.498 1.72H129.13ZM190.051 -12.36C185.912 -12.36 182.285 -13.1067 179.171 -14.6C176.099 -16.136 173.709 -18.2053 172.003 -20.808C170.296 -23.4533 169.443 -26.4613 169.443 -29.832C169.443 -32.52 169.933 -34.952 170.915 -37.128C171.896 -39.304 173.261 -41.1813 175.011 -42.76C176.76 -44.3387 178.808 -45.5547 181.155 -46.408C183.501 -47.2613 186.04 -47.688 188.771 -47.688C191.416 -47.688 193.848 -47.2613 196.067 -46.408C198.285 -45.5973 200.205 -44.424 201.827 -42.888C203.491 -41.352 204.771 -39.5387 205.667 -37.448C206.563 -35.3573 206.968 -33.0533 206.883 -30.536L206.819 -27.656H176.163L174.691 -33.608H198.499L197.411 -32.328V-33.608C197.283 -34.6747 196.813 -35.6347 196.003 -36.488C195.235 -37.3413 194.232 -38.0027 192.995 -38.472C191.757 -38.984 190.392 -39.24 188.899 -39.24C186.979 -39.24 185.272 -38.92 183.779 -38.28C182.285 -37.6827 181.112 -36.744 180.259 -35.464C179.448 -34.184 179.043 -32.5627 179.043 -30.6C179.043 -28.7227 179.533 -27.08 180.515 -25.672C181.539 -24.264 182.968 -23.1547 184.803 -22.344C186.68 -21.5333 188.877 -21.128 191.395 -21.128C193.571 -21.128 195.384 -21.384 196.835 -21.896C198.328 -22.4507 199.672 -23.1333 200.867 -23.944L205.475 -17.288C204.067 -16.2213 202.509 -15.304 200.803 -14.536C199.139 -13.8107 197.389 -13.2773 195.555 -12.936C193.763 -12.552 191.928 -12.36 190.051 -12.36ZM232.523 -12.36C228.769 -12.36 225.398 -12.8933 222.411 -13.96C219.467 -15.0267 217.099 -16.5413 215.307 -18.504L221.515 -24.008C222.966 -22.6427 224.694 -21.5973 226.699 -20.872C228.705 -20.1467 230.817 -19.784 233.035 -19.784C233.718 -19.784 234.379 -19.848 235.019 -19.976C235.702 -20.104 236.278 -20.2747 236.747 -20.488C237.259 -20.744 237.665 -21.0427 237.963 -21.384C238.262 -21.7253 238.411 -22.152 238.411 -22.664C238.411 -23.4747 237.899 -24.1147 236.875 -24.584C236.15 -24.84 235.233 -25.096 234.123 -25.352C233.014 -25.608 231.755 -25.8853 230.347 -26.184C228.001 -26.6107 225.931 -27.1227 224.139 -27.72C222.39 -28.36 220.918 -29.1493 219.723 -30.088C218.699 -30.984 217.91 -32.008 217.355 -33.16C216.801 -34.312 216.523 -35.656 216.523 -37.192C216.523 -38.7707 216.929 -40.2 217.739 -41.48C218.55 -42.8027 219.681 -43.912 221.131 -44.808C222.582 -45.7467 224.246 -46.4507 226.123 -46.92C228.001 -47.432 229.963 -47.688 232.011 -47.688C234.059 -47.688 236.065 -47.4747 238.027 -47.048C239.99 -46.664 241.846 -46.088 243.595 -45.32C245.345 -44.5947 246.881 -43.656 248.203 -42.504L242.955 -36.36C242.017 -37.0853 240.929 -37.7467 239.691 -38.344C238.454 -38.9413 237.131 -39.4107 235.723 -39.752C234.358 -40.136 233.014 -40.328 231.691 -40.328C230.966 -40.328 230.262 -40.2853 229.579 -40.2C228.939 -40.1147 228.385 -39.944 227.915 -39.688C227.446 -39.4747 227.062 -39.1973 226.763 -38.856C226.507 -38.5573 226.379 -38.1733 226.379 -37.704C226.379 -37.32 226.486 -36.9573 226.699 -36.616C226.913 -36.2747 227.233 -35.9973 227.659 -35.784C228.257 -35.4 229.131 -35.0587 230.283 -34.76C231.478 -34.4613 232.971 -34.1413 234.763 -33.8C237.366 -33.2453 239.585 -32.6053 241.419 -31.88C243.254 -31.1973 244.726 -30.3653 245.835 -29.384C246.731 -28.7013 247.393 -27.848 247.819 -26.824C248.246 -25.8427 248.459 -24.7547 248.459 -23.56C248.459 -21.384 247.755 -19.4427 246.347 -17.736C244.982 -16.072 243.105 -14.7493 240.715 -13.768C238.369 -12.8293 235.638 -12.36 232.523 -12.36Z" fill="white"/>
</g>
</g>
</svg>
